<svg width="128" height="128" viewBox="0 0 128 128" fill="none" xmlns="http://www.w3.org/2000/svg">
<path d="M58.2181 57.1111C58.2181 57.1111 51.3875 54.9681 50.6735 47.3877C49.9595 39.8074 53.1476 30.9895 66.1554 28.8118C79.1632 26.6341 87.6955 36.6658 86.9101 45.1992C86.1247 53.7326 82.8403 54.8739 82.0906 55.1952C81.3409 55.5165 74.5622 60.3458 68.7225 59.8417C62.8829 59.3375 59.2058 56.7314 59.2058 56.7314L58.2181 57.1122V57.1111Z" fill="#65A6B7"/>
<mask id="mask0_85_172" style="mask-type:luminance" maskUnits="userSpaceOnUse" x="50" y="28" width="37" height="32">
<path d="M58.2181 57.1111C58.2181 57.1111 51.3875 54.9681 50.6735 47.3877C49.9595 39.8074 53.1476 30.9895 66.1554 28.8118C79.1632 26.6341 87.6955 36.6658 86.9101 45.1992C86.1247 53.7326 82.8403 54.8739 82.0906 55.1952C81.3409 55.5165 74.5622 60.3458 68.7225 59.8417C62.8829 59.3375 59.2058 56.7314 59.2058 56.7314L58.2181 57.1122V57.1111Z" fill="white"/>
</mask>
<g mask="url(#mask0_85_172)">
<path d="M53.6476 44.1986C55.556 40.3668 59.4364 35.6771 66.3936 34.512C76.0824 33.3188 82.2098 34.2978 81.4244 42.8301C82.0389 40.25 86.2115 37.7359 85.9583 35.7258C84.9155 27.4229 73.4168 24.6145 64.9775 25.5156C54.9783 26.5823 49.5053 33.7969 50.1847 39.1184C50.3708 40.5724 51.8269 42.9383 53.6476 44.1997V44.1986Z" fill="#BCDDDD"/>
<path d="M54.3258 54.5408C48.5543 44.1986 53.1098 32.5485 66.1176 30.3708C79.1254 28.1931 87.6956 38.8295 86.9102 47.3629C90.0605 34.129 75.4602 24.397 64.9774 25.5156C52.2454 26.8743 43.5628 41.7818 54.3258 54.5408Z" fill="white"/>
</g>
<path d="M49.9224 64.2869C49.6184 64.3767 49.3209 64.4989 49.1564 64.7899C48.9422 65.1686 48.9801 65.6565 48.9347 66.073C48.8817 66.5512 48.7172 66.959 48.4716 67.3192C48.3191 67.7195 48.1017 68.083 47.7793 68.3686C47.5564 68.5666 47.1572 68.9203 46.8457 68.7721C46.7418 68.8457 46.639 68.9193 46.5374 68.9939C46.4854 69.0329 46.4292 69.0729 46.374 69.1151L46.3567 71.0385C46.586 71.2733 47.1313 71.5502 47.1313 71.5502C49.362 72.5206 52.1141 72.9328 54.2615 71.5502C55.166 70.5853 55.4689 70.6902 55.6192 70.4749C55.9059 70.0627 56.4403 69.7285 56.7476 69.8215C56.6664 70.066 57.137 73.8102 57.4984 75.1743L57.1262 75.8689C57.1597 76.1263 57.1803 76.3838 57.1597 76.6348C57.2279 76.6878 57.2852 76.7614 57.322 76.8587C57.5579 77.4851 57.7234 78.277 58.3086 78.6264C58.5023 78.4263 58.6646 78.2932 58.7695 78.2662C59.6955 78.5745 60.587 78.9834 61.5281 79.2528C65.638 80.4331 70.4056 80.379 74.6149 79.7472C77.7966 79.269 80.9966 78.3928 83.7628 76.7387L83.8775 77.0719C83.8775 77.0719 83.8818 77.0686 83.884 77.0675C84.1133 76.9539 84.347 76.8501 84.5623 76.7105C84.5731 76.703 84.585 76.6997 84.5958 76.6943C84.5428 76.492 84.5125 76.333 84.5212 76.254C84.546 76.0063 84.8619 75.8386 85.008 75.6601C85.0772 75.7661 85.1475 75.8721 85.2178 75.9771C85.2254 75.9716 85.233 75.9662 85.2406 75.9619C85.5013 75.8007 85.7707 75.6536 86.013 75.4675C86.0054 75.4556 85.9978 75.4437 85.9903 75.4318C85.5089 74.6464 86 74.5501 85.9189 73.7777C85.854 73.1513 85.3379 72.8917 85.2795 72.5747C85.2362 72.3411 85.3066 72.0652 85.2773 71.8207C85.0047 69.5575 84.7451 67.2771 84.1977 65.0658C86.7075 64.4546 88.7489 62.7172 91.0413 61.5585C91.1289 61.6851 93.4581 60.2193 94.0347 59.7963C95.4605 58.7491 96.1713 57.7938 98.0461 56.0586C99.1171 55.0676 100.706 53.4276 101.454 52.1932C101.573 51.9963 102.048 51.6859 102.095 51.6523C102.154 51.6112 102.306 51.5571 102.49 51.4944C102.419 51.2174 102.192 51.0097 101.823 50.8085C101.275 50.511 100.653 50.3401 100.134 49.9917C99.7975 49.7667 99.5022 49.4681 99.3605 49.0819C99.2437 48.7628 99.2783 48.4144 99.1614 48.0964C99.0457 47.7826 98.785 47.6485 98.4875 47.5252C98.3522 47.4689 98.2094 47.4235 98.0666 47.3856C98.0017 47.5717 97.9498 47.695 97.9195 47.7167C97.794 47.8054 97.3927 47.853 97.1287 48.0066C95.9073 48.7206 94.5756 49.8987 93.351 50.7133C90.8282 52.3912 87.6195 55.5653 83.2262 55.337C83.2262 55.337 81.7939 54.4748 81.1199 55.0189C81.0236 55.0968 80.9187 55.1315 80.8159 55.1347C80.169 55.9104 79.3025 56.4686 78.4316 56.963C77.5456 57.466 76.6606 57.9712 75.7768 58.4786C73.9767 59.5107 71.9385 59.6297 69.9177 59.7671C67.9087 59.9044 65.8998 59.9975 63.9071 59.6297C63.0156 59.4652 62.0442 59.2078 61.2404 58.775C60.8726 58.5771 60.6021 58.2947 60.402 57.9312C60.2527 57.6629 60.1618 57.3459 59.926 57.1361C59.3353 56.6092 58.2427 56.6049 57.5113 56.712C57.0883 56.7737 56.5961 57.254 56.7476 57.3351C56.2283 57.5969 56.4187 58.1065 56.2175 58.4245C55.8951 58.9341 53.6763 60.6844 53.0196 61.3865C52.258 62.2022 51.2595 63.7936 50.5423 64.421C50.3573 64.5833 50.1355 64.7066 49.8878 64.7391C49.9105 64.5855 49.9213 64.4329 49.9234 64.2837L49.9224 64.2869Z" fill="white"/>
<path d="M86.2703 64.0218C86.7257 64.2144 87.2147 65.0008 87.3478 65.4411L87.6366 65.9236L87.9633 65.9647C89.9182 68.732 93.6818 69.6408 96.8808 70.3504L97.0874 70.5105C97.1653 70.6955 97.2432 70.8827 97.3146 71.0699C97.2302 71.1164 97.1447 71.1586 97.0549 71.1867C95.9677 71.5177 91.5571 69.8658 90.3228 69.0317C92.5308 71.9548 95.1066 75.2587 98.4353 76.8836C98.5251 76.9279 98.5619 77.0166 98.5673 77.114C98.5641 77.299 98.5825 77.4905 98.5673 77.6733C98.5587 77.7285 98.5457 77.7804 98.5165 77.8226C98.2698 78.1861 95.3781 76.0008 94.9832 75.6817L94.9811 75.4361C94.9573 75.5237 94.9194 75.6546 94.8513 75.66C94.4878 75.6892 92.4356 75.726 92.2008 75.66L91.9639 75.4361L92.2203 75.6578C93.1085 77.5835 94.1427 79.4291 95.3229 81.1968L95.4928 81.8134C95.3922 81.8307 95.2624 81.8048 95.1509 81.8134C94.5646 81.8069 94.1091 81.4359 93.7857 80.7013C92.7817 78.9368 91.8568 77.1583 91.0119 75.3647L90.6982 75.4198C89.8338 74.761 89.0138 74.0124 88.2403 73.1729C87.9622 73.108 89.1241 78.3992 89.2399 78.6956C89.2972 78.9239 89.2453 79.0634 89.0019 79.1294C88.7682 78.9271 88.633 78.7627 88.4328 78.5701C87.563 76.7472 87.311 74.6896 87.351 72.7207L87.2807 72.1149C86.0723 70.6025 85.0889 68.9495 84.3338 67.1569C84.283 66.8259 84.2224 66.4862 84.2202 66.1497C84.6562 66.2352 85.3291 67.1331 85.2447 67.6048L85.659 67.8612C86.8642 70.0638 88.1797 71.9732 90.0642 73.6673C91.1633 74.655 92.3479 74.8065 93.7749 74.6799C91.6123 72.3475 89.6412 69.8409 87.7632 67.2802C87.695 67.1872 87.6539 67.0758 87.6128 66.9611C87.5717 66.8464 87.5447 66.7209 87.5219 66.5976C86.6943 66.0459 85.9457 65.214 85.7001 64.2479C85.8873 64.1754 86.0842 64.0997 86.2692 64.024L86.2703 64.0218Z" fill="#D9F5FC"/>
<path d="M88.4336 78.5691C87.8613 78.0195 85.4997 75.6492 85.4738 74.9883C85.4608 74.6691 85.7388 74.2818 85.6966 73.8275C85.636 73.1816 85.0951 72.9296 85.0226 72.579C84.6927 70.9909 84.5953 68.8587 84.3357 67.1559C85.0421 68.1825 85.5982 69.2979 86.2678 70.3483C86.4972 70.7075 87.4232 71.7872 87.4989 72.0479C87.6558 72.5834 87.553 74.1715 87.6504 74.9201C87.8083 76.135 88.2703 77.3542 88.4347 78.5702L88.4336 78.5691Z" fill="#55AEE2"/>
<path d="M91.3927 61.5607L93.5347 64.3225C93.803 64.6103 93.9307 65.0614 94.1254 65.3643L93.9848 65.5796C91.8644 65.5807 89.6802 64.9446 88.0153 63.588L87.9763 63.2386C89.1166 62.716 90.3001 62.173 91.3916 61.5596L91.3927 61.5607Z" fill="#54ABE0"/>
<path d="M94.1253 65.3654C94.2378 65.5396 94.5808 65.7181 94.5808 66.0372L94.3471 66.1865C93.9825 66.1833 92.9061 66.0956 92.5686 66.0221C91.9044 65.876 89.2961 65.268 89.0613 64.7834C89.031 64.7217 89.0137 64.6536 89.0008 64.5833C88.4068 64.5714 87.5706 64.1332 87.4072 63.5761C87.5533 63.5112 87.7675 63.3359 87.9763 63.2407C89.0321 64.3225 90.7111 64.8386 92.1456 65.2421L94.1243 65.3676L94.1253 65.3654Z" fill="#D7F6FB"/>
<path d="M94.5807 66.0361C94.1923 65.8241 93.0196 65.876 92.5025 65.7841C91.359 65.5807 90.0251 65.1198 89.0006 64.5811C88.4013 64.2663 87.9783 63.8941 87.4071 63.5739C87.0912 63.7124 86.6282 63.8736 86.269 64.0218C86.5665 64.7293 87.1486 65.3319 87.6354 65.9236C88.9433 67.5161 89.3068 67.9412 91.2378 68.8175C92.7567 69.5066 94.5352 70.1114 96.1731 70.4565C96.4576 70.516 96.8135 70.6652 97.0862 70.5116C96.7616 69.7479 95.1508 66.3455 94.5817 66.0361H94.5807Z" fill="#56AFE3"/>
<path d="M97.3134 71.072C98.0534 72.9858 98.5986 75.0455 98.5661 77.114C98.2924 77.1259 98.0696 77.0026 97.8456 76.8695C97.0473 76.3967 95.4808 75.1689 94.7484 74.5425C92.8552 72.923 91.3872 70.6685 89.7991 68.7753C89.7634 68.6228 89.8088 68.5633 89.9667 68.6109C90.3151 68.7158 91.1784 69.3205 91.6565 69.5239C93.4156 70.2715 95.4159 70.8351 97.3123 71.0709L97.3134 71.072Z" fill="#56AFE2"/>
<path d="M89.0017 79.1283C89.0883 78.8351 88.9401 78.3851 88.8708 78.0822C88.4651 76.3026 87.8918 74.4743 88.0335 72.6395C88.8167 73.439 89.5772 74.2601 90.473 74.9471C90.5541 75.0098 90.8852 75.1039 91.0561 75.1461C91.4293 75.2381 91.6835 76.2279 91.8653 76.5957C92.5523 77.9859 93.7358 80.5054 94.7343 81.6111C94.8717 81.7636 94.8295 81.8891 95.1508 81.8144C92.8952 81.9843 90.658 80.566 89.0028 79.1294L89.0017 79.1283Z" fill="#55AEE3"/>
<path d="M98.5672 77.6733C98.4038 79.719 97.7363 81.424 95.4926 81.8134C94.0408 79.8802 92.8865 77.6744 91.9626 75.435H94.9798C95.2027 75.435 97.8542 77.7252 98.5661 77.6733H98.5672Z" fill="#55B0E3"/>
<path d="M87.5228 66.5954C86.9159 65.8133 86.2863 65.0441 85.701 64.2457C85.1147 64.4729 84.5024 64.6925 83.8782 64.8061C84.0004 65.2486 84.0296 65.7246 84.22 66.1476C84.4321 66.6182 85 67.1861 85.2445 67.6026C86.6649 70.0129 87.8366 72.1452 90.0867 73.9778C91.4812 75.1126 92.6247 74.9525 94.3534 74.8757C91.7582 72.3821 89.7146 69.4233 87.5218 66.5965L87.5228 66.5954Z" fill="#56B0E4"/>
<mask id="mask1_85_172" style="mask-type:luminance" maskUnits="userSpaceOnUse" x="46" y="47" width="57" height="34">
<path d="M49.9224 64.2869C49.6184 64.3767 49.3209 64.4989 49.1564 64.7899C48.9422 65.1686 48.9801 65.6565 48.9347 66.073C48.8817 66.5512 48.7172 66.959 48.4716 67.3192C48.3191 67.7195 48.1017 68.083 47.7793 68.3686C47.5564 68.5666 47.1572 68.9203 46.8457 68.7721C46.7418 68.8457 46.639 68.9193 46.5374 68.9939C46.4854 69.0329 46.4292 69.0729 46.374 69.1151L46.3567 71.0385C46.586 71.2733 47.1313 71.5502 47.1313 71.5502C49.362 72.5206 52.1141 72.9328 54.2615 71.5502C55.1659 70.5853 55.4689 70.6902 55.6192 70.4749C55.9059 70.0627 56.4403 69.7285 56.7476 69.8215C56.6664 70.066 57.137 73.8102 57.4984 75.1743L57.1262 75.8689C57.1597 76.1263 57.1803 76.3838 57.1597 76.6348C57.2279 76.6878 57.2852 76.7614 57.322 76.8587C57.5579 77.4851 57.7234 78.277 58.3086 78.6264C58.5023 78.4263 58.6646 78.2932 58.7695 78.2662C59.6955 78.5745 60.587 78.9834 61.5281 79.2528C65.638 80.4331 70.4056 80.379 74.6149 79.7472C77.7965 79.269 80.9966 78.3928 83.7628 76.7387L83.8775 77.0719C83.8775 77.0719 83.8818 77.0686 83.884 77.0675C84.1133 76.9539 84.347 76.8501 84.5623 76.7105C84.5731 76.703 84.585 76.6997 84.5958 76.6943C84.5428 76.492 84.5125 76.333 84.5211 76.254C84.546 76.0063 84.8619 75.8386 85.008 75.6601C85.0772 75.7661 85.1475 75.8721 85.2178 75.9771C85.2254 75.9716 85.233 75.9662 85.2406 75.9619C85.5013 75.8007 85.7706 75.6536 86.013 75.4675C86.0054 75.4556 85.9978 75.4437 85.9903 75.4318C85.5088 74.6464 86 74.5501 85.9189 73.7777C85.854 73.1513 85.3379 72.8917 85.2795 72.5747C85.2362 72.3411 85.3065 72.0652 85.2773 71.8207C85.0047 69.5575 84.7451 67.2771 84.1977 65.0658C86.7075 64.4546 88.8084 62.675 91.1008 61.5164C91.1884 61.6429 91.9251 61.2935 91.7985 61.1572C94.8244 59.2499 95.7201 58.8032 98.3522 56.3669C99.4232 55.3759 100.864 53.9436 101.611 52.7082C101.73 52.5113 102.046 51.6859 102.093 51.6523C102.152 51.6112 102.304 51.5571 102.488 51.4944C102.417 51.2174 102.189 51.0097 101.821 50.8085C101.273 50.511 100.651 50.3401 100.132 49.9917C99.7954 49.7667 99.5 49.4681 99.3583 49.0819C99.2415 48.7628 99.2761 48.4144 99.1593 48.0964C99.0435 47.7826 98.7828 47.6485 98.4853 47.5252C98.3501 47.4689 98.2072 47.4235 98.0644 47.3856C97.9995 47.5717 97.9476 47.695 97.9173 47.7167C97.7918 47.8054 97.3905 47.853 97.1265 48.0066C95.9051 48.7206 94.5734 49.8987 93.3488 50.7133C90.826 52.3912 90.5988 52.6617 87.8315 53.9133C87.7114 53.7835 86.7043 54.2368 86.7886 54.3612C85.6365 54.861 84.5092 55.311 83.223 55.3359C83.223 55.3359 81.7906 54.4737 81.1167 55.0179C81.0204 55.0958 80.9154 55.1304 80.8127 55.1336C80.1657 55.9093 79.2992 56.4675 78.4283 56.9619C77.5423 57.4649 76.6574 57.9702 75.7735 58.4775C73.9734 59.5096 71.9352 59.6286 69.9144 59.766C67.9055 59.9034 65.8965 59.9964 63.9038 59.6286C63.0124 59.4641 62.0409 59.2067 61.2371 58.7739C60.8693 58.576 60.5989 58.2936 60.3987 57.9301C60.2494 57.6618 60.1586 57.3449 59.9227 57.135C59.332 56.6081 58.2394 56.6038 57.5081 56.7109C57.0851 56.7726 56.5929 57.2529 56.7443 57.334C56.2251 57.5958 56.4155 58.1054 56.2142 58.4234C55.8919 58.933 53.673 60.6834 53.0164 61.3855C52.2548 62.2012 51.2563 63.7925 50.539 64.42C50.354 64.5822 50.1322 64.7056 49.8845 64.738C49.9072 64.5844 49.918 64.4319 49.9202 64.2826L49.9224 64.2869Z" fill="white"/>
</mask>
<g mask="url(#mask1_85_172)">
<path d="M79.5617 78.2932C79.5617 78.2932 83.6856 76.7224 84.6852 75.4372C85.6848 74.152 85.5961 73.5981 85.3105 73.3125C85.0249 73.0269 84.775 72.6342 84.775 71.759C84.775 70.8838 84.1324 66.0784 83.8468 64.6796C84.5099 64.6807 96.3072 60.3361 101.638 51.6782C101.258 51.5473 101.091 51.476 100.425 51.0714C100.425 51.0714 94.665 60.0548 81.3358 62.6025C81.3358 62.6025 80.7289 60.758 81.0264 58.3661C81.0264 58.3661 74.7843 61.8647 70.4592 61.9956C70.4592 61.9956 76.2253 62.3764 79.2122 61.3887C79.2122 61.3887 81.6344 68.0603 80.9972 73.0161C80.36 77.9708 79.5627 78.2943 79.5627 78.2943L79.5617 78.2932Z" fill="#CACBF4"/>
<path d="M47.2911 69.048C47.2911 69.048 49.1951 69.7858 50.7183 69.048C50.7183 69.048 51.6346 70.8925 53.9075 68.6196C53.9075 68.6196 55.3831 67.5962 55.5735 67.0488C55.7639 66.5014 55.7877 65.8588 55.7877 65.4066L57.5965 63.1218C57.5965 63.1218 57.2157 64.7878 57.2157 66.073C57.2157 67.3582 57.0491 68.3816 57.0491 68.3816L55.9543 69.3336C55.9543 69.3336 54.8119 70.9758 53.4791 71.4756C52.1463 71.9754 50.8373 72.142 49.8377 71.9278C48.8381 71.7136 46.8865 71.2138 46.7675 70.7378C46.6485 70.2618 46.7675 69.3336 46.7675 69.3336L47.2911 69.048Z" fill="#CACBF4"/>
</g>
<path d="M56.4621 78.065L57.9345 75.2858C57.9345 75.2858 57.1664 70.5139 57.122 69.3001C57.122 69.3001 56.2826 68.9701 55.5155 69.9427C54.7485 70.9152 53.9902 72.8982 54.8459 75.7088C55.2332 76.981 56.4611 78.065 56.4611 78.065H56.4621Z" fill="#56B0E4"/>
<path d="M55.4359 75.6633C55.4435 75.6492 55.4456 75.6384 55.4478 75.633L54.9329 75.4686C54.9469 75.4242 54.9805 75.3193 57.0381 72.314L57.4838 72.619C56.7373 73.7095 55.5203 75.4999 55.4348 75.6633H55.4359Z" fill="#D9F5FC"/>
<path d="M42.0174 64.8018C42.131 64.3648 42.2857 63.4723 42.4999 63.0612C42.7141 62.6501 43.1154 61.9545 44.1247 61.9545C45.1341 61.9545 46.481 62.0583 46.892 62.0583C47.3031 62.0583 48.4098 61.9015 48.8555 62.5527C49.3013 63.204 49.5966 63.3381 49.2666 65.4271C48.9367 67.5161 48.3741 68.6131 47.8386 69.0155C47.3031 69.4179 45.2239 69.3812 44.8669 69.3281C44.5099 69.2751 43.0018 69.247 42.5377 68.5071C42.0736 67.7671 42.542 67.0077 42.7454 66.8919C42.6091 66.7664 41.6279 66.3142 42.0206 64.8029L42.0174 64.8018Z" fill="#595956"/>
<path d="M45.7848 92.8015C46.3549 92.874 46.6578 92.6111 46.6578 91.6234C46.6578 90.6357 46.7768 70.2261 46.7768 69.9286C46.7768 69.6311 46.8266 68.995 46.6697 68.8381C46.5128 68.6812 45.801 68.3697 45.4678 68.572C45.1346 68.7743 44.9323 69.2027 44.9323 69.7144C44.9323 70.2261 44.8252 90.7904 44.8252 91.4687C44.8252 92.147 45.1746 92.7247 45.7848 92.8015Z" fill="#E3BC00"/>
<path d="M45.8482 62.0518C46.4238 62.0518 46.7213 62.186 46.7213 61.1982C46.7213 60.2105 46.9614 27.8987 46.9614 27.6012C46.9614 27.3037 47.0112 26.6676 46.8543 26.5108C46.6975 26.3539 45.9856 26.0423 45.6524 26.2446C45.3192 26.4469 45.1169 26.8753 45.1169 27.387C45.1169 27.8987 44.8887 60.3652 44.8887 61.0436C44.8887 61.7219 45.0055 62.0518 45.8482 62.0518Z" fill="#E3BC00"/>
<path d="M23.1938 95.1199C23.1938 95.1199 24.4498 92.8307 25.0632 92.0367C28.6473 87.3903 36.1119 83.3486 44.8238 81.1276C44.8432 81.4208 44.5544 89.5041 44.9395 92.0626C45.0142 92.5592 45.7065 92.8145 45.7833 92.8004C45.8461 92.7896 46.4595 92.6868 46.5222 92.3298C46.9333 89.9736 46.7602 81.08 46.8067 80.6581C49.6638 80.0339 52.6291 79.6087 55.6149 79.4216C75.3538 78.1829 99.103 86.6579 104.387 98.031C103.78 98.2907 102.566 98.9787 101.32 99.1745C100.073 99.3703 98.3749 98.9528 96.1096 99.7382C83.6308 104.063 90.5242 107.224 66.9372 106.936C51.7463 106.749 46.1165 103.994 43.2108 102.755C39.7554 101.282 35.8685 100.291 33.747 99.8896C29.7367 99.1313 27.8338 96.8486 26.7574 96.5468C23.9684 95.7625 23.1938 95.122 23.1938 95.122V95.1199Z" fill="#A6B2C7"/>
<path d="M45.0239 86.2543C45.1018 85.3056 45.0196 84.3222 45.2219 83.3875C44.3564 83.4968 43.4185 83.6948 42.4005 84.0182C38.8391 85.1498 36.0426 88.1951 38.3296 88.9448C39.7533 89.4122 42.4719 89.5636 44.9741 89.37C44.9666 88.3282 44.9384 87.295 45.025 86.2543H45.0239Z" fill="#7688A6"/>
<path d="M50.7869 83.8397C49.704 83.5476 48.3279 83.2436 46.6078 83.2837C46.4812 83.2869 46.3893 89.2196 46.6046 89.1872C47.4949 89.053 48.303 88.868 48.9467 88.6289C51.648 87.6239 52.64 84.3395 50.788 83.8397H50.7869Z" fill="#7688A6"/>
<path d="M42.401 84.0182C38.8397 85.1497 36.0161 87.8554 38.1343 88.9956C39.6889 89.8319 41.9553 89.873 44.1752 89.4197C46.1441 89.0183 39.5623 88.9545 39.5623 87.4778C39.5623 86.0011 43.1086 84.5731 45.0039 83.8505C45.0807 83.6157 45.0364 83.6006 44.9812 83.4188C44.1828 83.5335 43.3238 83.7239 42.4 84.0182H42.401Z" fill="#3D5883"/>
<path d="M54.97 96.9611C56.4694 97.4609 59.8728 97.5561 62.11 97.1277C64.3472 96.6993 70.1306 95.1999 74.5109 95.4379C78.8901 95.6759 86.2454 96.7469 89.1371 96.7469C92.0288 96.7469 94.9205 96.2114 96.7769 95.2475C98.6333 94.2836 97.8836 92.6771 96.7769 92.0345C95.6702 91.3919 91.886 90.9992 91.3862 90.9992C90.8864 90.9992 86.2454 87.3935 86.2454 87.3935L80.4263 81.3959L72.0011 81.0746L63.076 85.8984C63.076 85.8984 72.0011 85.3294 72.0011 86.9651C72.0011 87.8576 70.295 87.757 68.1866 87.757C65.9137 87.757 63.2535 88.537 63.2535 88.537L60.3618 87.3589L54.9711 96.9622L54.97 96.9611Z" fill="#8696B0"/>
<path d="M92.1929 87.6574C92.3822 87.7396 89.5717 85.5208 88.399 84.2627C86.9439 82.7016 85.9746 80.6537 85.2465 78.661C85.0918 78.2369 84.486 76.5763 84.5185 76.255C84.5304 76.1404 84.605 76.0419 84.6948 75.9532C84.578 75.6979 84.3465 75.4437 84.1539 75.2868C83.4118 75.9272 82.4154 76.4974 82.1071 76.6531C76.5931 79.4367 66.0734 80.1788 60.3138 77.9827C59.9233 77.8334 59.3423 77.5932 58.8707 77.2665C58.8004 77.3174 58.7149 77.352 58.6089 77.3585C57.7499 77.4104 56.5859 79.5611 56.098 79.877C53.7255 83.1084 53.15 85.8053 54.7814 89.569L55.9898 91.764C53.5968 91.9912 50.2702 95.9809 53.8316 97.2207C55.6544 97.8557 61.7332 97.3657 63.1752 95.9799C64.6076 94.6038 63.4024 91.6277 63.3343 89.8784C63.2077 86.6091 66.0475 84.9247 68.5778 83.5919C70.4667 84.1675 72.4486 83.9176 74.3926 84.0052C76.5076 86.1234 78.4051 88.3876 81.0588 89.8762C82.4727 90.6692 84.3054 91.5141 85.9227 91.4416C85.8156 93.7643 86.6864 97.2607 89.6528 96.9546C92.9459 96.6149 93.2628 91.3021 92.6592 88.8669C92.5434 88.3995 92.3941 88.0837 92.1929 87.6596V87.6574Z" fill="white"/>
<mask id="mask2_85_172" style="mask-type:luminance" maskUnits="userSpaceOnUse" x="52" y="75" width="41" height="23">
<path d="M92.1929 87.6574C92.3822 87.7396 89.5717 85.5208 88.399 84.2627C86.9439 82.7016 85.9746 80.6537 85.2465 78.661C85.0918 78.2369 84.486 76.5763 84.5185 76.255C84.5304 76.1404 84.605 76.0419 84.6948 75.9532C84.578 75.6979 84.3465 75.4437 84.1539 75.2868C83.4118 75.9272 82.4154 76.4974 82.1071 76.6531C76.5931 79.4367 66.0734 80.1788 60.3138 77.9827C59.9233 77.8334 59.3423 77.5932 58.8707 77.2665C58.8004 77.3174 58.7149 77.352 58.6089 77.3585C57.7499 77.4104 56.5859 79.5611 56.098 79.877C53.7255 83.1084 53.15 85.8053 54.7814 89.569L55.9898 91.764C53.5968 91.9912 50.2702 95.9809 53.8316 97.2207C55.6544 97.8557 61.7332 97.3657 63.1752 95.9799C64.6076 94.6038 63.4024 91.6277 63.3343 89.8784C63.2077 86.6091 66.0475 84.9247 68.5778 83.5919C70.4667 84.1675 72.4486 83.9176 74.3926 84.0052C76.5076 86.1234 78.4051 88.3876 81.0588 89.8762C82.4727 90.6692 84.3054 91.5141 85.9227 91.4416C85.8156 93.7643 86.6864 97.2607 89.6528 96.9546C92.9459 96.6149 93.2628 91.3021 92.6592 88.8669C92.5434 88.3995 92.3941 88.0837 92.1929 87.6596V87.6574Z" fill="white"/>
</mask>
<g mask="url(#mask2_85_172)">
<path d="M53.0993 95.3741C53.0993 95.3741 53.0409 96.3845 57.6214 95.8739C63.9641 95.1664 59.2398 88.5911 61.7593 85.1877C63.0012 83.5108 63.5205 82.5459 62.7351 81.6177C61.9497 80.6895 59.8607 79.9041 59.415 79.4573C58.9693 79.0105 58.8146 78.0011 60.0111 78.4295C61.2076 78.8579 63.1797 79.5871 66.7876 79.7656C73.7924 80.1128 81.4939 78.2413 83.8176 76.386C84.364 75.8397 84.3975 77.1065 84.3975 77.1065C84.3975 77.1065 84.7545 79.2961 85.3733 80.2719C85.9921 81.2477 86.5395 82.9137 87.3487 83.7229C88.1579 84.5321 88.9552 85.3056 89.7287 86.0791C90.5022 86.8526 92.3229 87.6499 92.4895 90.1727C92.6561 92.6955 92.2158 94.9446 91.3471 95.8133C90.4784 96.682 89.4907 96.9838 88.4673 96.5533C87.4439 96.1227 89.3003 96.5273 89.8953 95.6705C90.4903 94.8137 91.2043 93.2667 91.2043 92.1005C91.2043 90.9343 89.3717 89.6729 89.3717 89.6729L89.5621 88.9113C89.5621 88.9113 82.7315 84.3774 81.7557 78.9629C81.7557 78.9629 74.7823 82.3306 63.976 80.7598C63.976 80.7598 62.072 80.3314 63.5 81.331C64.928 82.3306 67.2366 83.0684 68.7836 83.2826C68.7836 83.2826 66.3798 84.187 65.285 85.2818C64.1902 86.3766 62.548 88.1378 63.0002 90.7558C63.4524 93.3738 63.7142 94.9684 63.143 95.5396C62.5718 96.1108 59.7872 97.396 56.2172 97.2056C52.6471 97.0152 52.7661 96.3369 53.0993 95.373V95.3741Z" fill="#CACBF4"/>
</g>
<path d="M64.2777 109.642L66.0757 113.604L66.2207 109.716L67.8402 109.776L67.5654 117.121L65.8918 117.058L63.8861 112.872C63.4566 112.584 63.8266 112.987 63.8255 113.034L63.6784 116.976L61.9551 116.803L62.2255 109.565L64.2777 109.642Z" fill="black"/>
<path d="M35.695 107.708L37.229 104.132L38.7273 104.686L36.0877 111.616L34.4044 110.886L34.0106 106.455C33.6904 106.387 33.8375 106.535 33.7747 106.7C33.3388 107.844 33.0445 109.054 32.5728 110.186L31.0864 109.584L33.6655 102.658L35.1887 103.431L35.6961 107.706L35.695 107.708Z" fill="black"/>
<path d="M28.6782 100.766C30.7899 100.448 32.3585 102.022 32.0134 104.136C31.6456 106.389 29.9623 109.134 27.3248 108.019C24.0047 106.617 26.3706 101.113 28.6782 100.765V100.766ZM29.2699 102.293C28.3093 102.431 27.2307 105.277 27.4741 106.11C27.5909 106.51 28.1816 106.755 28.5689 106.604C29.6096 106.199 31.267 102.009 29.271 102.293H29.2699Z" fill="black"/>
<path d="M49.5593 121.529C51.0457 122.237 50.4085 124.692 48.8312 124.847C47.5255 124.975 46.1883 124.473 44.915 124.277L46.3668 117.301C48.0794 117.828 51.512 117.723 50.6076 120.47C50.4107 121.069 49.979 121.167 49.5593 121.529ZM47.5449 120.481C49.1536 121.046 49.6372 119.009 47.8176 118.978L47.5449 120.481ZM48.3844 123.298C48.5759 123.13 48.7468 122.507 48.6138 122.253C48.2849 121.85 47.7537 121.782 47.2842 121.663L47.0516 123.284C47.1815 123.478 48.193 123.466 48.3844 123.298Z" fill="black"/>
<path d="M84.348 122.397C85.5531 122.612 85.8712 123.671 85.658 124.765C85.3573 126.312 82.1995 126.429 80.9619 126.477L80.0239 119.424C81.1696 119.343 83.1699 118.741 84.1727 119.379C85.1355 119.99 85.2643 121.514 84.3534 122.237L84.3469 122.397H84.348ZM83.0898 120.646L81.9333 120.47L82.0891 122.098C83.0368 122.077 83.476 121.575 83.0909 120.646H83.0898ZM82.5273 124.922C83.2359 124.904 84.0461 124.735 83.9661 123.854C83.8806 122.903 82.8918 123.303 82.259 123.295L82.5273 124.922Z" fill="black"/>
<path d="M34.8526 118.603L35.1674 121.75L33.364 121.131L33.3446 118.49C33.3435 118.315 33.1304 118.151 32.9713 118.105C32.7452 118.04 32.8361 118.192 32.782 118.329C32.4759 119.092 32.2162 119.876 31.9642 120.657L30.2625 120.046L32.5646 113.324C33.6972 113.743 36.1 114.254 36.5824 115.486C37.0693 116.73 36.3293 118.587 34.8537 118.603H34.8526ZM34.5594 117.048C35.1837 116.506 34.8072 115.271 33.8995 115.214L33.3381 116.929C33.6193 117.146 34.2803 117.291 34.5584 117.049L34.5594 117.048Z" fill="black"/>
<path d="M41.6163 116.285C46.7247 115.621 45.2848 123.412 41.9658 123.627C37.1614 123.938 38.7398 116.658 41.6163 116.285ZM42.0977 117.814C40.9023 118.043 39.8183 122.836 41.8608 122.052C42.8128 121.686 44.1337 117.426 42.0977 117.814Z" fill="black"/>
<path d="M67.3076 126.953L65.6341 126.891C65.607 126.891 65.5475 127 65.474 126.993L64.6063 124.321L64.0557 124.236L63.848 126.933L62.0154 126.757L62.4935 119.743C63.9875 119.697 66.4444 119.433 67.1118 121.14C67.5154 122.171 67.2319 123.597 66.1631 124.099L67.3076 126.953ZM64.1055 122.94C64.9157 123.051 65.4069 123.011 65.4361 122.069C65.461 121.271 64.8606 121.079 64.1747 121.104L64.1065 122.94H64.1055Z" fill="black"/>
<path d="M49.2551 112.326L48.395 112.184L48.7769 110.685L51.1353 111.208L50.4581 114.888L50.3207 114.998C47.2104 115.526 45.2783 114.441 45.7467 111.073C46.1979 107.83 48.8407 106.457 51.5475 108.476L51.0228 109.685C49.4531 108.829 48.4296 108.763 47.8563 110.651C47.4939 111.845 47.139 113.776 48.9987 113.568L49.254 112.327L49.2551 112.326Z" fill="black"/>
<path d="M27.8344 111.768C29.1953 111.586 30.7629 112.351 30.9814 113.802C31.293 115.869 29.72 119.096 27.3227 118.866C23.1501 118.464 24.9308 112.155 27.8333 111.768H27.8344ZM28.2087 113.291C27.1442 113.482 25.4025 117.94 27.6613 117.311C28.6415 117.039 30.3908 112.9 28.2087 113.291Z" fill="black"/>
<path d="M59.5163 109.37L60.8761 116.761L58.9462 116.572L58.7612 115.075L56.8507 114.782L56.2275 116.359L54.4133 116.087L57.3851 109.063L59.5174 109.37H59.5163ZM58.6173 113.54L58.1716 111.037L57.3223 113.491L58.6173 113.54Z" fill="black"/>
<path d="M86.5029 108.092L86.7668 109.724L84.2667 110.117L84.5437 111.373L86.8263 111.025L86.9745 112.533L84.918 112.902L85.1993 114.31L87.9092 113.878L88.0618 115.39L83.6566 116.19L82.1475 108.904L86.5029 108.092Z" fill="black"/>
<path d="M95.0665 113.386L93.2836 113.869L92.5945 112.552L90.7695 113.026L90.803 114.634L88.9509 114.998L89.0591 107.534L90.948 106.982L91.1438 107.066L95.0675 113.387L95.0665 113.386ZM91.8989 111.322L90.4774 108.89L90.5921 111.598L91.8989 111.322Z" fill="black"/>
<path d="M43.9644 106.287L43.4095 107.774L41.1539 107.065C40.8661 107.035 40.6195 108.222 40.6887 108.331L42.676 108.943L42.2952 110.443L40.0483 109.817L39.6707 111.209L42.2389 111.955L41.7489 113.451L37.4746 112.101L39.582 105.045L43.9655 106.287H43.9644Z" fill="black"/>
<path d="M73.9072 126.876L75.4088 119.785L77.5659 119.675L80.0833 126.564L78.2551 126.697L77.8634 125.184L75.9118 125.327L75.7301 126.761L75.5819 126.938L73.9083 126.876H73.9072ZM76.5977 121.46L76.1769 124.039L77.4794 123.87C77.2576 123.465 76.5977 121.46 76.5977 121.46Z" fill="black"/>
<path d="M97.5776 112.611L95.9743 113.082L95.785 112.984L93.6084 106.087C94.859 105.913 96.0847 105.096 97.3764 105.249C98.9872 105.439 99.7228 107.586 99.0045 108.925C98.5523 109.769 97.7226 110.025 96.9188 110.383L97.5787 112.61L97.5776 112.611ZM97.2649 108.68C97.9584 107.904 97.0021 106.313 95.8521 106.932L96.42 109.004C96.4871 109.058 97.1762 108.779 97.2649 108.68Z" fill="black"/>
<path d="M61.4181 119.594L61.2526 121.102L58.7785 120.795L58.6206 122.086L60.7777 122.275L60.6122 123.783L58.4561 123.593L58.296 124.994L60.993 125.203L60.8286 126.712L56.3 126.326L57.106 119.216L61.4181 119.594Z" fill="black"/>
<path d="M73.846 119.844L71.7538 126.948L69.787 127L67.7856 119.941L69.6182 119.909L70.8429 124.922L72.0102 119.887L73.846 119.844Z" fill="black"/>
<path d="M55.6508 120.57C55.5145 120.695 53.5845 119.5 53.3822 120.433C53.2135 121.21 54.5344 121.673 55.0017 122.163C55.7341 122.931 55.8228 123.875 55.3728 124.819C54.5528 126.539 52.1198 126.1 50.9341 124.993L51.2121 123.648C51.2976 123.564 52.5427 124.67 53.4547 124.324C53.7847 124.198 53.8496 123.826 53.7641 123.521C53.5856 122.887 51.845 122.447 51.5713 121.175C50.9882 118.475 54.2553 117.836 55.9018 119.349L55.6508 120.569V120.57Z" fill="black"/>
<path d="M68.591 109.966C68.5878 109.93 68.4688 109.881 68.4882 109.801L73.7957 109.565L73.84 111.298L72.2151 111.345L72.3265 117.083L70.3771 117.119L70.3717 111.493L68.5315 111.533C68.5034 111.037 68.6364 110.449 68.5899 109.967L68.591 109.966Z" fill="black"/>
<path d="M26.2813 110.712L25.6906 111.986L23.5735 111.05L23.1386 112.112L24.8977 112.934L24.3059 114.315L22.3976 113.377L21.2238 115.883L19.7417 115.216L22.6756 108.845L26.2813 110.712Z" fill="black"/>
<path d="M105.557 113.347L105.192 117.482L106.242 120.678L104.504 121.313L103.631 118.629L100.297 115.26L101.979 114.637L103.919 116.639L103.928 114.007L105.557 113.347Z" fill="black"/>
<path d="M79.4284 109.344L79.9714 115.097L82.253 114.748L82.4012 116.369L78.1745 116.868L77.4973 109.645C77.5503 109.402 79.1081 109.484 79.4273 109.344H79.4284Z" fill="black"/>
<path d="M99.9536 115.419L100.344 116.83L98.9259 117.261L100.456 122.721L98.7031 123.151L97.2826 117.69L95.8243 118.06L95.3765 116.646L99.9536 115.419Z" fill="black"/>
<path d="M91.455 123.309L93.6295 122.852L93.8956 124.373L89.9221 125.098L88.6152 118.236L90.3559 117.863L91.455 123.309Z" fill="black"/>
<path d="M54.5844 108.631L53.6648 115.844L51.7424 115.543L52.7561 108.346L54.5844 108.631Z" fill="black"/>
<path d="M87.7179 118.387L85.835 118.684L86.937 125.682L88.82 125.385L87.7179 118.387Z" fill="black"/>
<path d="M94.7683 116.76L92.9487 117.216L94.6937 124.178L96.5133 123.722L94.7683 116.76Z" fill="black"/>
<path d="M59.5697 8.99826L57.9361 9.00042L57.6841 5.13292L56.467 8.31347L54.4516 5.48884L55.1028 9.50023L53.5905 9.61598L52.6558 2.79727L54.4094 2.74534L56.1987 5.49533L57.2589 2.19794L58.7702 2.22715L59.5697 8.99826Z" fill="black"/>
<path d="M41.0566 13.4067L39.6297 13.8535L36.3204 11.2171L37.9161 14.6551L36.5725 15.3118L33.6646 9.16599L35.2505 8.59479L38.549 11.0224L36.9133 7.70445L38.2796 7.16138L41.0566 13.4067Z" fill="black"/>
<path d="M100.716 27.6338L100.164 30.5114L98.6142 29.5086L99.4515 27.1145C99.511 26.8678 98.9409 26.6114 98.8089 26.6926L97.4815 28.8075L96.033 27.888L100.123 22.1187C101.028 22.6963 103.122 23.9318 103.219 25.0763C103.338 26.4654 102.155 27.8599 100.715 27.6349L100.716 27.6338ZM100.617 24.2574C100.503 24.7312 99.4364 25.3857 99.8464 25.826C100.862 26.9187 102.435 24.5625 100.617 24.2574Z" fill="black"/>
<path d="M39.5113 16.8339C42.2127 16.6435 44.3633 21.8276 41.9271 23.5066C39.1803 25.3998 36.5504 21.6978 36.9258 19.1284C37.0989 17.9428 38.3473 16.9161 39.5113 16.8339ZM39.2809 18.4447C37.8572 18.6351 39.0905 21.6848 39.8662 22.2506C40.2351 22.52 40.9675 22.6033 41.2076 22.1759C41.741 21.2293 40.459 18.2879 39.2809 18.4447Z" fill="black"/>
<path d="M45.1921 19.4238L45.9721 21.74L44.2931 22.2766L42.2268 15.83C43.8906 15.0857 46.6612 13.8503 47.412 16.3493C47.6803 17.2429 47.4542 17.5945 47.069 18.3907L49.0758 20.5706C49.0682 20.6625 47.6143 21.3203 47.3698 21.1926L45.7882 19.2865L45.1932 19.426L45.1921 19.4238ZM44.2347 16.4402L44.8664 18.2306L45.7135 17.8282C46.0272 16.6652 45.3522 16.1373 44.2347 16.4402Z" fill="black"/>
<path d="M60.3163 11.6163L60.9968 18.3636C60.9178 18.6092 59.5342 18.5562 59.2497 18.54L58.976 15.8873L57.4333 16.0345L57.7156 18.7834L56.0842 18.8948L55.261 12.1962L57.0265 11.969L57.2591 14.442L58.8386 14.429L58.6774 11.7353L60.3174 11.6152L60.3163 11.6163Z" fill="black"/>
<path d="M31.3131 10.6611C32.5442 10.5508 33.2496 11.0873 33.9268 12.0437C34.9134 13.4392 35.6447 15.8171 34.0371 17.0579C31.3942 19.0982 28.5469 15.2556 28.9818 12.7436C29.1646 11.6878 30.2583 10.7563 31.3131 10.6611ZM31.206 12.1648C29.5173 12.4147 31.7988 17.271 33.15 15.7868C33.7158 15.1658 32.7011 13.0184 32.1515 12.4959C31.8551 12.2146 31.6344 12.101 31.206 12.1648Z" fill="black"/>
<path d="M83.3332 14.3977L85.0489 14.8693C84.4085 16.3763 84.1413 18.7498 83.3396 20.1162C82.4169 21.6902 79.4289 20.9254 78.9312 19.3665C78.4422 17.8368 80.0715 14.9948 80.2554 13.3656L81.9409 14.005L80.4804 18.6946C80.4512 19.4865 81.8575 19.717 82.0588 18.8926L83.3321 14.3977H83.3332Z" fill="black"/>
<path d="M41.8434 7.29014L42.2274 8.48231L44.1022 7.8105C44.3456 7.80509 44.7373 9.03945 44.6085 9.21795L42.8333 9.81295L43.2076 11.0679L45.7163 10.2435L46.0355 11.6672L42.1409 12.9762L39.6765 6.61942L43.5559 5.19574L44.1033 6.45822L41.8412 7.29014H41.8434Z" fill="black"/>
<path d="M63.5399 2.05951L65.6537 8.72461L64.0137 8.84469L63.6286 7.43291L61.9647 7.41019L61.5699 8.85551L60.0413 8.91609L61.4725 2.15904L63.5399 2.06059V2.05951ZM63.2716 6.1066L62.4905 3.95378L62.1032 6.1423L63.2716 6.1066Z" fill="black"/>
<path d="M99.1679 21.4608L98.4885 22.812L96.3054 21.5041L95.5881 22.6065L97.3883 23.5531L96.724 24.7387L94.8114 23.8452L94.2575 24.9638L96.4871 26.3452L95.8272 27.4011C95.6216 27.5266 92.6845 25.5047 92.1858 25.2894L95.4626 19.4508L99.1689 21.4619L99.1679 21.4608Z" fill="black"/>
<path d="M66.1537 11.5601L66.0564 12.9534L63.6104 12.8972L63.6288 14.3003L65.6171 14.2062L65.6291 15.7229L63.6536 15.7078L63.6872 16.9735L66.1202 17.0406L66.1375 18.4415L61.9357 18.4967L61.8838 11.6033L66.1537 11.5601Z" fill="black"/>
<path d="M92.4922 15.1582C92.4306 15.2155 91.0567 14.5805 90.9344 14.4983C90.8338 14.4301 90.7602 14.495 90.8024 14.2895L93.8499 8.25507C94.8625 8.95176 96.5144 9.14865 97.1733 10.2727C97.646 11.0786 97.5638 11.8965 97.0315 12.6678C96.4181 13.5571 95.4077 13.7258 94.4125 13.543C94.1204 13.4889 93.454 13.0876 93.3263 13.1654L92.4911 15.1582H92.4922ZM94.7121 10.3062L93.9062 11.8175C95.2238 13.2347 96.694 10.5107 94.7121 10.3062Z" fill="black"/>
<path d="M89.5255 9.34334L91.3203 10.1277L90.8951 11.3133L89.0311 10.608L88.4113 11.7753L90.9146 12.7143L90.3477 14.0698C89.8555 13.8351 86.4315 12.7046 86.3926 12.4449L88.8105 6.14764L92.652 7.7747L92.0364 8.93008L89.9453 8.14468L89.5244 9.34226L89.5255 9.34334Z" fill="black"/>
<path d="M89.2562 18.0802C89.1523 18.1635 87.9472 16.9313 87.3381 17.1833C86.4153 17.5641 87.7124 18.6762 87.9548 19.0495C88.5563 19.9733 88.6017 21.0584 87.8704 21.9422C87.0136 22.9776 85.7533 22.6346 84.7353 22.0656C83.4717 21.3602 83.2251 20.9989 84.4021 19.9593C84.7061 20.4634 86.2282 21.5669 86.5765 20.6971C86.8859 19.9247 85.247 18.8223 85.208 17.7264C85.1215 15.2674 88.1084 15.1235 89.4682 16.6446C89.9994 17.2385 89.3103 17.4386 89.2562 18.0823V18.0802Z" fill="black"/>
<path d="M81.7296 5.6533C81.3683 5.39042 79.8992 4.74241 79.7553 5.45858C79.5952 6.25263 81.3823 6.99584 81.5955 8.11445C82.1493 11.0116 78.5307 11.2182 76.9534 9.63657L77.3417 8.37949C78.1682 8.68673 79.0261 9.67551 79.8591 8.82412C79.7261 7.44263 78.1996 7.30092 77.9497 5.83397C77.5743 3.62489 80.0063 3.14997 81.5695 4.10522C82.4707 4.65587 81.9763 4.81165 81.7296 5.65439V5.6533Z" fill="black"/>
<path d="M51.0745 3.40862L51.2313 4.79659C50.6883 4.46556 49.1175 4.67327 49.3317 5.51925C49.4604 6.0277 51.6684 5.94981 52.2872 7.31507C53.3636 9.69075 50.7705 11.1783 48.7031 10.3431L48.6122 8.93023C49.1391 9.25369 50.963 9.26776 50.8495 8.35686C50.7359 7.44597 48.8654 7.62339 48.1135 6.80012C46.3015 4.81498 49.0623 2.64377 51.0756 3.4097L51.0745 3.40862Z" fill="black"/>
<path d="M35.531 18.9846L36.02 20.2817L34.1063 21.2164C33.9624 21.3981 34.5563 22.177 34.658 22.4129L36.5371 21.3819L37.1343 22.6509L35.4726 23.697L36.7762 26.0077L35.3947 26.8894L31.9188 20.9784C31.9112 20.7436 32.291 20.6138 32.4586 20.5088C32.7734 20.312 35.3979 18.8764 35.5321 18.9835L35.531 18.9846Z" fill="black"/>
<path d="M74.3783 12.3725L73.6329 13.5928C72.523 13.1233 71.7668 13.0173 71.2919 14.2754C70.7347 15.7543 70.8808 18.1819 73.0423 17.3056L73.5843 18.6038C71.3308 19.6553 69.297 18.5497 69.2386 16.0193C69.1639 12.7468 71.1783 10.6535 74.3783 12.3725Z" fill="black"/>
<path d="M54.5445 12.3822L54.8009 13.7951L53.2604 14.0991L54.1853 19.2355L52.4122 19.5796L51.5965 14.5091L49.9521 14.7406L49.7087 13.2065L54.5445 12.3822Z" fill="black"/>
<path d="M87.783 5.84474L87.347 7.1624C86.9056 7.43285 86.2025 6.55766 85.8487 7.06936L84.4315 12.0252L82.719 11.5492L84.2076 6.4603L82.759 5.95617L83.2188 4.60714C83.539 4.43297 87.0831 5.77442 87.7819 5.84474H87.783Z" fill="black"/>
<path d="M94.9024 19.0614L94.223 20.4126L92.7625 19.7289L90.6724 24.4802L88.9729 23.776L91.2966 18.9251L89.939 18.356L90.508 17.0103L94.9024 19.0614Z" fill="black"/>
<path d="M73.0967 2.36462L72.4811 7.80509L74.6794 8.07554L74.4652 9.46027L70.5273 9.06649L71.356 2.24237L73.0967 2.36462Z" fill="black"/>
<path d="M67.9825 2.12225L67.8483 7.36258L70.0531 7.51728L69.9471 9.02642L66.1174 8.75813L66.2418 2L67.9825 2.12225Z" fill="black"/>
<path d="M77.1305 12.8128L76.0757 18.0888L78.1496 18.4685L77.9365 19.8533L74.1306 19.2356L75.5272 12.5012L77.1305 12.8128Z" fill="black"/>
<path d="M68.1573 75.8407C68.8994 75.8407 69.501 75.2392 69.501 74.4971C69.501 73.7551 68.8994 73.1535 68.1573 73.1535C67.4153 73.1535 66.8137 73.7551 66.8137 74.4971C66.8137 75.2392 67.4153 75.8407 68.1573 75.8407Z" fill="black"/>
<path d="M62.7731 72.9793C64.4888 72.6494 65.0546 75.1992 63.4784 75.526C61.4056 75.9544 61.2315 73.2758 62.7731 72.9793Z" fill="black"/>
<path d="M73.4331 75.8818C74.1788 75.8818 74.7832 75.2773 74.7832 74.5317C74.7832 73.786 74.1788 73.1816 73.4331 73.1816C72.6875 73.1816 72.083 73.786 72.083 74.5317C72.083 75.2773 72.6875 75.8818 73.4331 75.8818Z" fill="black"/>
<path d="M44.7539 46.6921C42.1933 46.5169 39.6986 47.5522 37.2093 47.9546C33.1525 48.6102 29.5825 47.9038 25.5711 47.9871C23.084 48.039 20.4 48.184 17.954 48.6362C18.2428 42.5607 17.9897 35.9562 16.4395 30.0451L23.19 29.3917C27.6612 29.2467 31.9106 29.978 36.3644 29.3819C39.1934 29.0033 41.991 27.8641 44.8621 27.7744L44.7539 46.6911V46.6921Z" fill="white"/>
<path d="M70.7533 91.6288C70.7533 91.6288 68.7649 92.1037 68.6611 93.2234C68.5572 94.3442 71.2802 97.2164 75.363 97.3711C83.2267 97.6675 78.92 90.6649 73.8992 91.2285C71.5593 91.4914 70.7533 91.6288 70.7533 91.6288Z" fill="#7688A6"/>
<path d="M74.8529 91.2404C74.8529 91.2404 68.0342 91.7013 69.8441 94.077C71.0492 95.6597 74.497 97.0001 77.049 97.2489C74.1259 97.7714 70.6836 96.4602 69.1636 95.5948C68.1045 94.9911 66.115 93.8866 67.1568 92.3991C67.4998 91.9101 69.3821 90.7634 74.8529 91.2394V91.2404Z" fill="#3D5883"/>
<path d="M38.9663 97.3289C39.0755 96.7642 40.3164 95.2183 44.7897 96.3315C49.263 97.4447 49.2241 99.8593 47.2941 100.25C45.3641 100.64 43.9643 100.743 41.8071 99.7598C39.65 98.7764 38.8062 98.1522 38.9663 97.3289Z" fill="#7688A6"/>
<path d="M38.4431 97.9479C37.6512 96.2894 41.2179 95.914 42.2489 95.9433C42.3733 96.0677 39.4145 96.3338 39.4643 97.6688C39.5141 99.0037 44.1746 100.478 44.1746 100.478C40.5418 100.326 38.9072 98.9204 38.4431 97.9489V97.9479Z" fill="#3D5883"/>
<path d="M83.2891 100.07C84.2325 99.6353 86.9944 98.9202 88.4418 99.4146C89.8363 100.375 88.3391 101.798 86.9944 102.363C85.1315 103.147 81.925 103.369 82.0342 101.261C82.203 100.698 82.7947 100.348 83.288 100.07H83.2891Z" fill="#7688A6"/>
<path d="M83.2883 100.07C82.2011 101.847 84.3777 102.413 86.2838 101.828C87.7724 101.371 88.7082 100.29 88.4421 99.4147C89.8365 100.375 88.3393 101.798 86.9946 102.363C85.1317 103.147 81.9252 103.369 82.0345 101.261C82.2032 100.698 82.795 100.348 83.2883 100.07Z" fill="#3D5883"/>
<path d="M30.6376 92.491C30.7047 93.1758 31.4501 94.5032 33.4136 93.6583C36.7834 92.2076 36.4697 90.9343 35.2884 90.7071C34.107 90.4799 32.1208 89.9855 31.3224 90.9429C30.524 91.9003 30.6365 92.4921 30.6365 92.4921L30.6376 92.491Z" fill="#7688A6"/>
<path d="M32.6059 90.4907C31.0589 91.0078 30.1523 93.8411 32.6178 93.9244C31.7329 94.0878 30.6456 94.2825 29.9727 93.5263C28.5588 91.9349 31.6442 90.3522 32.6059 90.4907Z" fill="#3D5883"/>
<path d="M107.209 47.0729C106.694 46.8457 106.19 47.1108 105.728 47.2092C105.619 47.233 105.661 47.0729 105.735 46.9907C106.36 46.2897 108.251 44.8022 107.538 43.8253C106.772 42.777 105.056 44.5588 104.296 44.9623C104.144 44.8 106.707 42.0728 105.056 41.5502C104.648 41.4204 104.493 41.5416 104.184 41.772C103.123 42.5661 101.982 44.0968 101.054 45.0705C101.083 44.337 100.942 41.7872 99.6766 42.341C99.1908 42.5531 99.0199 44.1012 98.8609 44.6615C98.7451 45.0726 98.0636 47.616 97.9186 47.7177C97.7931 47.8064 97.3918 47.854 97.1278 48.0076C95.9064 48.7216 94.5747 49.8997 93.3501 50.7143C91.0198 52.2646 90.6477 52.6129 88.4245 53.6439C88.2406 53.7294 85.614 55.1401 83.2253 55.3369C88.0135 49.1295 88.668 42.5466 84.847 35.9323C83.4417 33.4993 80.5878 31.1723 78.144 30.097C78.1299 29.9477 78.1234 29.9239 78.2186 29.8201C78.4123 29.6069 79.0322 29.1796 79.3015 28.9827C80.3682 28.206 83.5023 26.8407 83.8982 25.7979C84.2141 24.967 83.6613 24.1686 82.8229 24.015C79.7678 23.459 76.7842 26.514 75.4838 28.9697C69.8962 27.3892 63.5708 27.823 58.4798 30.6909C57.9453 27.4054 60.3967 25.3662 60.8035 24.1427C61.4872 22.085 59.2403 21.648 57.8988 22.706C55.0699 24.9378 55.3338 29.0779 56.1971 32.2368C53.5943 34.4676 51.647 37.3571 50.6712 40.661C48.8234 46.9161 50.8118 54.1405 56.7499 57.3351C56.2306 57.5969 56.4211 58.1064 56.2198 58.4245C55.8974 58.934 53.6786 60.6844 53.022 61.3865C52.2604 62.2022 51.2619 63.7935 50.5446 64.421C50.3596 64.5833 50.1378 64.7066 49.8901 64.739C50.1562 62.9302 48.9716 61.3421 47.0254 61.711C47.0547 61.5109 47.1325 61.3302 47.139 61.1225C47.4192 52.1164 47.1715 42.9079 47.2364 33.8736C47.2526 31.6754 47.5934 29.2651 47.3489 27.0679C47.1585 25.3543 44.5502 25.5404 44.7558 27.2313C41.3307 27.4552 38.1881 28.7469 34.7587 29.0671C31.9957 29.3257 29.6795 28.933 26.9836 28.8475C24.9855 28.7837 22.8143 28.9005 20.8205 29.0682C20.2374 29.1169 16.199 29.5128 16.0583 29.7086C15.9588 29.9326 16.0107 30.1619 16.0389 30.3913C16.1979 31.6656 16.7475 33.1769 16.966 34.5444C17.6865 39.0631 17.641 43.4889 17.5231 48.0357C17.5134 48.3982 17.2765 48.7616 17.5394 49.1565C17.7676 49.2993 21.1862 48.6924 21.7931 48.6318C27.2779 48.0833 32.3884 49.3188 37.7542 48.383C39.0102 48.1645 41.6293 47.2255 42.6484 47.2255H44.6476L44.5405 61.6018C43.807 61.5812 42.9535 61.8127 42.4872 62.412C42.154 62.8394 41.6142 64.7845 41.6142 65.3297C41.6142 65.9139 42.0123 66.6279 42.048 67.1829C42.0685 67.5031 41.9333 67.7379 41.9495 68.0191C42.0188 69.1832 43.5615 69.6624 44.5405 69.5986L44.4312 80.2989C40.6665 81.0053 36.8877 82.4268 33.5157 84.2432C29.0045 86.6729 24.7129 90.2073 22.4021 94.8775C22.493 94.9683 23.2124 95.2366 23.3758 95.1349C27.4445 87.2961 37.4448 82.9385 44.4323 81.3807V92.081C43.2023 91.9446 42.0923 91.843 40.9078 92.2843C40.7704 92.3352 40.5756 92.3081 40.5421 92.5126C41.7375 92.5169 43.013 92.5602 44.177 92.8231C44.5849 92.915 45.2404 93.2472 45.5747 93.2634C46.068 93.2861 47.205 92.8069 47.8498 92.743C48.5476 92.6738 49.2594 92.8188 49.9431 92.6208C49.8663 92.4217 49.4022 92.3644 49.2118 92.3276C48.4935 92.187 47.7557 92.1751 47.0254 92.1902L47.073 80.8333C50.0394 80.1723 53.075 80.0295 56.1041 79.8694C53.7316 83.1008 53.1561 85.7978 54.7875 89.5614L55.9959 91.7564C53.6029 91.9836 50.2763 95.9734 53.8377 97.2131C55.6605 97.8481 61.7393 97.3581 63.1813 95.9723C64.6137 94.5962 63.4085 91.6201 63.3404 89.8708C63.2138 86.6015 66.0536 84.9172 68.584 83.5844C70.4728 84.1599 72.4547 83.91 74.3987 83.9976C76.5137 86.1158 78.4112 88.3801 81.0649 89.8686C82.4789 90.6616 84.3115 91.5065 85.9288 91.434C85.8217 93.7567 86.6925 97.2531 89.6589 96.947C92.952 96.6073 93.2689 91.2945 92.6653 88.8593C92.5495 88.392 92.4002 88.0761 92.199 87.652C96.139 89.3602 102.09 94.3095 104.193 98.1164L105.275 98.1684C103.163 93.5263 96.4398 88.4341 92.0216 86.2608C90.5525 85.5381 89.6492 85.4591 88.4689 84.1934C87.0138 82.6323 85.9807 80.6472 85.2537 78.6545C85.099 78.2304 84.4932 76.5698 84.5257 76.2485C84.5505 76.0008 84.8664 75.8331 85.0125 75.6546C86.7239 78.2856 89.118 80.8019 92.093 81.9735C96.0265 83.5227 98.8327 81.7453 99.1194 77.5478C99.3607 74.0243 97.8256 70.0508 96.1076 67.0401C94.9869 65.0755 93.6032 63.0849 92.0908 61.4384C93.508 60.8694 96.2212 59.2088 98.3567 56.3603C99.5175 55.8411 100.869 53.9371 101.615 52.7016C101.734 52.5047 102.05 51.6793 102.098 51.6458C102.244 51.543 102.963 51.3656 103.317 51.1611C103.953 50.7933 106.929 48.7573 107.275 48.3105C107.542 47.9665 107.729 47.2915 107.214 47.0643L107.209 47.0729ZM77.3499 30.9278C85.3662 34.0489 90.0224 45.7553 82.5643 54.373L81.9174 54.3125C85.1953 49.731 85.3468 45.1343 84.358 41.7201C83.1593 37.58 80.1497 34.6136 76.0821 33.3197C76.2476 32.2055 77.0222 30.9884 77.3499 30.9278ZM59.0391 31.6191C59.2695 31.3671 61.0329 30.6747 61.4753 30.5049C65.728 28.8724 70.5172 28.7393 74.9007 29.9401C74.5718 30.7147 74.2927 31.6819 74.1283 32.7356C69.2536 31.7922 64.1864 32.3245 59.6427 34.2598C59.4858 34.2209 58.9568 32.3245 58.9363 32.0389C58.9233 31.8571 58.9017 31.7695 59.038 31.6202L59.0391 31.6191ZM58.5598 57.4097C59.0401 57.3329 59.8299 57.6023 59.7725 57.9333C59.6341 58.2503 58.3186 58.3412 58.5447 58.4829C64.896 62.4499 75.7791 60.8445 80.7891 56.7411C80.9762 56.5875 82.3155 54.9713 82.467 55.7199C82.0721 56.8407 80.8951 57.7191 79.9301 58.3682C74.6389 61.9285 65.0637 62.8837 59.3019 60.0796C58.7275 59.7995 56.9685 58.8658 57.1967 58.1172C57.3882 57.8002 58.2136 57.466 58.5587 57.4108L58.5598 57.4097ZM83.4525 65.7549C83.6104 66.6744 83.9826 68.0213 83.9858 68.9084C83.9869 69.3065 83.1463 69.6137 82.7893 69.7652C81.0076 70.5225 78.9164 70.7724 77.0643 71.336C77.1055 71.5329 77.2764 71.5372 77.4387 71.5545C79.5774 71.7936 82.1824 70.9638 84.0875 70.0378L84.3645 72.1506C84.3125 72.7261 82.692 73.8166 82.177 74.1238C77.2082 77.0837 67.3593 77.8161 61.8518 76.3372C61.1897 76.1598 58.7416 75.2922 58.3846 74.8324C57.8804 74.1844 57.637 70.8383 57.6067 70.728C57.5591 67.396 57.6803 64.0402 58.695 60.8499C59.5778 61.1063 60.4011 61.5174 61.2882 61.7684C65.8881 63.0741 71.5611 62.7615 76.068 61.2037C77.5955 60.6757 79.1068 59.9639 80.4137 59.013C80.2438 60.2051 80.3282 61.2664 80.6171 62.4315C80.9654 63.839 81.7346 65.3838 83.4406 65.1729C83.4438 65.3654 83.42 65.5623 83.4525 65.7549ZM54.9087 35.069C55.2116 34.7185 56.1171 33.6962 56.4773 33.5037C56.5747 33.4517 56.9284 34.7456 57.5494 35.6424C55.9548 37.0023 54.9995 38.2085 54.1362 40.1341C52.0408 44.8076 52.467 50.2935 55.5632 54.4174L57.3428 56.4209C49.4606 52.283 49.5082 41.3068 54.9097 35.0701L54.9087 35.069ZM56.7088 59.3451L58.2591 60.4723C57.2962 62.0529 57.0052 64.2014 56.8549 66.0383L55.772 64.4751C55.2018 63.8617 54.4987 63.1628 53.6137 63.1217C54.9087 64.4394 56.1041 65.8403 56.7456 67.6091C56.7391 67.8644 54.9487 69.882 54.6371 70.1427C54.5376 70.226 54.0162 70.6534 53.9372 70.5765C54.8329 68.6087 53.9231 65.2637 51.6675 64.6309C53.0414 62.6089 54.8319 60.8997 56.7066 59.344L56.7088 59.3451ZM57.4975 75.1754L56.3702 77.2795C54.9682 76.0808 54.6728 71.8347 55.6183 70.4759C55.905 70.0638 56.4394 69.7295 56.7467 69.8225C56.6655 70.067 57.1361 73.8112 57.4975 75.1754ZM53.6613 69.1193C53.6646 69.512 53.5434 70.6047 53.3779 70.9357C53.1356 71.4214 50.2947 71.7492 49.7246 71.4409L50.5262 70.7853C51.6502 69.26 52.0386 66.8497 50.8042 65.2821C52.7342 64.8472 53.6483 67.621 53.6602 69.1182L53.6613 69.1193ZM49.8025 65.7354C49.8457 65.5894 49.7668 65.4509 49.9929 65.4985C51.9293 67.184 50.0697 72.328 47.1488 70.5614C46.9638 69.9166 47.4106 69.9848 47.7254 69.7132C49.2529 68.3956 49.2713 67.5258 49.8025 65.7354ZM45.5077 26.6806L46.6208 26.6893L46.3515 61.7164L45.2383 61.7078L45.5077 26.6806ZM37.209 47.7382C33.1522 48.3938 29.5822 47.6874 25.5708 47.7707C23.0837 47.8226 20.616 47.9676 18.1701 48.4198C18.4589 42.3443 18.3139 36.1725 16.7637 30.2614L23.1897 29.608C27.6609 29.4631 31.9103 30.1944 36.3641 29.5983C39.1931 29.2196 41.8825 28.0805 44.7536 27.9907L44.6454 46.4747C42.0848 46.2994 39.6983 47.3347 37.209 47.7372V47.7382ZM44.2636 62.3114H45.8322C45.5877 62.7247 45.1982 63.0958 45.182 63.6096C44.4009 63.4452 43.3018 63.2688 42.7501 63.9342C42.6744 63.3067 43.2088 62.2628 44.2636 62.3114ZM44.6422 68.8013C43.9974 68.6758 42.5348 68.5233 42.7393 67.6069C42.934 66.7307 44.3955 66.6798 45.1193 66.7577C45.1939 66.7653 45.5217 66.8389 45.8116 66.9265C46.1026 67.0141 46.4488 67.1407 46.2638 67.555C46.0377 68.0624 44.7634 67.859 44.3198 68.0462C44.5005 68.3026 44.7212 68.4335 44.6433 68.8013H44.6422ZM46.1654 92.3655C45.7348 92.4834 45.3973 92.372 45.3378 91.8581C45.0468 89.3602 45.2967 83.262 45.2989 82.9601C45.3313 78.4003 45.2242 73.8252 45.341 69.2751C45.341 68.8099 46.2162 68.7061 46.3753 69.0122L46.1654 92.3655ZM44.6963 66.0978L42.7598 66.4202C42.3239 66.1065 42.1021 65.8014 42.2838 65.1999C42.4667 64.5973 44.3231 63.7156 44.8088 63.971C45.1106 64.13 45.0392 64.9078 45.2415 65.2269C45.5585 65.7246 46.5246 65.6153 46.4791 66.3142L44.6952 66.0978H44.6963ZM46.8048 68.7526C46.3785 68.4821 46.8567 68.216 46.9703 67.938C47.4452 66.7761 46.9335 66.1032 47.0492 65.5147C47.0849 65.333 47.7881 64.5995 47.6724 64.1505C46.7074 63.7081 46.9941 65.1848 46.1048 65.0171C45.9068 64.9803 45.8344 64.8797 45.7738 64.6968C45.2556 63.1369 48.1505 61.3919 48.8288 63.2634C49.0658 63.9179 48.9035 64.2998 48.8613 64.9078C48.7823 66.0664 48.7152 67.5399 47.7795 68.3696C47.5469 68.5763 47.1217 68.9538 46.8048 68.7526ZM51.184 79.1186C49.7873 79.2625 48.4026 79.5254 47.0233 79.7655L47.1315 71.5513C49.3622 72.5217 52.1143 72.9338 54.2617 71.5513C54.0508 73.5115 53.9772 75.7098 55.1899 77.379L56.5314 78.7919C54.7637 78.9693 52.9636 78.9347 51.184 79.1186ZM55.1261 83.818C55.5523 83.6081 57.187 83.8159 57.7225 83.9262C59.7087 84.3362 61.6073 85.5327 62.9661 87.0061L62.4749 88.6289C60.3318 87.5005 57.504 86.9823 55.1802 87.8651C54.701 87.2539 54.4478 84.1512 55.1261 83.818ZM61.8258 95.7083C60.3253 96.3606 55.7298 96.8875 54.2141 96.4072C52.0148 95.7105 53.9967 93.4862 55.2386 92.901C55.6713 92.6976 56.9003 92.32 57.3449 92.3244C57.8447 92.3298 58.5836 92.6889 59.1764 92.7398C59.9662 92.8079 60.8576 92.7528 61.6116 92.518C61.5684 92.3006 61.3866 92.3373 61.233 92.3038C60.3286 92.1048 59.3755 92.0334 58.4743 91.8202C57.4921 91.5877 56.7997 91.4827 56.2263 90.6097C56.0824 90.3901 55.3198 88.816 55.3533 88.6981C57.4585 87.3891 60.3751 88.4406 62.4587 89.4013C62.3505 90.8758 62.9931 92.4293 63.0234 93.866C63.044 94.8721 62.7313 95.3134 61.8269 95.7061L61.8258 95.7083ZM91.7663 89.0021C92.225 90.4377 92.1092 93.337 91.3703 94.6698C90.6466 95.9744 88.9395 96.6268 87.8003 95.4011C86.9522 94.4891 86.8364 92.624 86.9024 91.4438C88.9395 91.1625 90.4778 89.1525 90.4097 87.1165C91.0425 87.5168 91.5391 88.2913 91.7663 89.0021ZM89.436 86.3614C89.4826 86.4663 89.6005 87.2452 89.5983 87.3859C89.5897 88.2654 88.7642 89.5506 88.0773 90.0796C86.4307 91.3464 84.358 90.4225 82.6844 89.7096L84.7345 89.2228C86.4697 88.4763 87.8458 87.0299 87.9788 85.0632C88.0535 84.9712 89.3744 86.224 89.435 86.3614H89.436ZM85.4939 81.6035L87.5082 84.466C86.9284 86.9769 85.3067 88.8106 82.705 89.2455C81.754 89.4045 81.7519 89.265 80.9622 88.7825C79.8057 88.075 78.7184 87.1489 77.8195 86.1439C80.8031 86.2521 84.1395 84.2616 85.4928 81.6035H85.4939ZM85.1466 80.7759C84.0594 82.7178 82.1381 84.3557 80.0058 85.0318C79.3232 85.2482 77.4809 85.6203 76.8967 85.2839C76.3796 84.9864 75.196 83.1505 74.7168 83.0229C70.4436 83.4978 66.2061 82.3002 62.4771 80.3054C62.4295 80.5077 62.5896 80.5628 62.6924 80.684C63.7926 81.9952 65.6219 82.7687 67.2306 83.2252L64.9101 84.7397L63.3945 86.3571C61.7717 84.5915 59.7184 83.302 57.3136 82.9298C56.7002 82.8346 55.9288 82.6897 55.3457 82.8996C55.2732 82.8087 55.7482 82.0871 55.8401 81.9357C56.2177 81.3136 58.2309 78.4046 58.7708 78.2661C59.6968 78.5744 60.5882 78.9834 61.5294 79.2527C65.6392 80.433 70.4068 80.3789 74.6162 79.7471C77.7978 79.269 80.9978 78.3927 83.7641 76.7386L85.1477 80.7749L85.1466 80.7759ZM82.1089 76.652C76.5948 79.4356 66.0752 80.1777 60.3156 77.9816C59.4664 77.6581 57.7203 76.9052 58.1541 75.7671C62.9109 78.2077 68.7549 78.3245 73.9693 77.5889C77.3835 77.1075 80.7231 76.1771 83.5823 74.2331C83.935 73.994 84.4391 73.3406 84.8004 73.5948C85.8736 74.5003 82.7039 76.3513 82.11 76.651L82.1089 76.652ZM93.534 64.8591C95.4261 67.5864 97.263 70.9519 97.8699 74.2493C99.9838 85.7382 89.7638 81.5895 85.9894 75.4328C85.5079 74.6474 85.9991 74.5512 85.918 73.7787C85.8531 73.1524 85.337 72.8927 85.2786 72.5757C85.2353 72.3421 85.3057 72.0662 85.2765 71.8217C85.0038 69.5585 84.7442 67.2781 84.1968 65.0668C86.7066 64.4556 89.0336 63.0914 91.326 61.9328C92.0097 62.9216 92.8362 63.853 93.5351 64.8591H93.534ZM97.0023 56.3149C96.2277 57.0419 95.425 58.1789 94.7088 58.1789C93.9245 58.1789 92.7843 56.223 92.7064 56.2749C92.503 56.4112 92.6707 57.8814 93.8423 59.2402C93.1889 59.6675 91.8334 60.7147 90.6888 60.5881C89.1407 60.4172 88.0524 57.7948 88.0243 57.81C87.4823 58.352 88.7599 60.692 89.6016 61.5336C88.2612 62.2541 84.5635 64.3225 83.168 64.3171C81.7432 64.3117 81.264 61.2339 81.278 60.1489C81.2824 59.793 81.4111 58.5391 81.5561 58.2633C81.6989 57.9917 82.4129 57.4108 82.6801 57.1176C82.8261 56.9575 82.9484 56.6221 83.062 56.5269C83.2437 56.3744 84.8307 56.1321 85.2505 56.0142C87.9658 55.2461 90.4183 53.6223 92.8741 52.2905L94.2426 51.2314C94.7207 52.9797 95.8707 54.7679 97.3766 55.7729C97.4718 55.9027 97.1007 56.2208 97.0023 56.3138V56.3149ZM100.184 53.2285C99.9741 53.4946 98.4357 55.1931 98.2799 55.219C96.6767 54.2108 95.4694 52.3695 94.9912 50.5445C95.7917 50.1799 96.6085 49.2398 97.3366 48.8687C97.5172 48.7768 97.6936 48.6924 97.9024 48.7595C98.3989 50.1832 99.5803 51.3429 100.95 51.9465C101.021 52.2873 100.411 52.9386 100.183 53.2285H100.184Z" fill="black"/>
<path d="M104.823 42.843C104.336 43.8026 103.394 45.1311 102.981 46.1988C102.857 46.5688 102.878 46.9096 103.072 46.7646C103.072 46.7646 106.491 43.9162 106.96 44.2797C107.43 44.6432 106.214 45.5833 106.044 45.7932C105.515 46.4466 104.788 47.1227 104.263 47.7945C103.021 49.3859 105.661 47.7945 106.103 47.6701C106.871 47.4851 107.109 47.8724 106.502 48.2478C106.161 48.4588 103.362 50.3519 103.362 50.3519C102.178 50.8712 101.648 51.5095 100.376 50.7025C99.5539 50.181 98.5705 49.1706 98.5608 48.1407C99.0617 46.77 99.4868 45.0521 99.8081 43.3915C99.833 43.0194 100.082 42.8917 100.26 43.1968C100.462 44.1802 100.386 45.0975 100.151 46.0604C100.151 46.0604 100.118 47.0275 99.6664 47.8443C100.063 47.4905 100.362 46.9972 100.628 46.5364C100.707 46.4001 100.693 46.2021 100.798 46.0485C100.876 45.936 101.185 45.9457 101.395 45.7942C102.427 45.0489 103.365 43.5062 104.204 42.5163C104.753 41.8672 105.086 42.3259 104.825 42.8419L104.823 42.843Z" fill="#595956"/>
<path d="M79.426 103.885C79.1198 103.885 78.8948 104.155 78.8948 104.492C78.8948 104.828 79.1198 105.099 79.426 105.099C79.7321 105.099 79.9571 104.828 79.9571 104.492C79.9571 104.155 79.7397 103.885 79.426 103.885ZM79.426 104.799C79.2723 104.799 79.1609 104.658 79.1609 104.491C79.1609 104.323 79.2734 104.182 79.426 104.182C79.5785 104.182 79.691 104.323 79.691 104.491C79.691 104.658 79.5785 104.799 79.426 104.799Z" fill="black"/>
<path d="M77.8572 104.472C77.8572 104.854 78.106 105.079 78.397 105.079C78.5095 105.079 78.5982 105.052 78.6307 105.042V104.724C78.6155 104.734 78.5333 104.79 78.4132 104.79C78.2445 104.79 78.132 104.659 78.132 104.482C78.132 104.304 78.2531 104.174 78.4132 104.174C78.542 104.174 78.622 104.23 78.6307 104.24V103.904C78.6069 103.904 78.5182 103.867 78.397 103.867C78.0833 103.867 77.8572 104.129 77.8572 104.474V104.472Z" fill="black"/>
<path d="M77.3675 104.369L77.2961 104.342C77.255 104.323 77.1836 104.306 77.1836 104.231C77.1836 104.175 77.2399 104.138 77.3448 104.138C77.4335 104.138 77.546 104.175 77.546 104.175V103.932C77.5374 103.932 77.4184 103.896 77.2972 103.896C77.0636 103.896 76.9197 104.046 76.9197 104.26C76.9197 104.457 77.0322 104.549 77.1772 104.605C77.1923 104.605 77.2183 104.615 77.2334 104.625C77.2983 104.644 77.3459 104.681 77.3459 104.736C77.3459 104.802 77.2897 104.848 77.1609 104.848C77.0484 104.848 76.9435 104.811 76.9197 104.801V105.071C76.9283 105.071 77.056 105.098 77.1934 105.098C77.387 105.098 77.612 104.996 77.612 104.707C77.612 104.566 77.532 104.436 77.3708 104.372H77.3686L77.3675 104.369Z" fill="black"/>
<path d="M76.5868 103.903H76.3293V105.069H76.5868V103.903Z" fill="black"/>
<path d="M75.2031 104.472C75.2031 104.854 75.4606 105.079 75.743 105.079C75.8555 105.079 75.9442 105.052 75.9766 105.042V104.724C75.9615 104.734 75.8793 104.79 75.7592 104.79C75.5904 104.79 75.4779 104.659 75.4779 104.482C75.4779 104.304 75.5991 104.174 75.7592 104.174C75.8868 104.174 75.968 104.23 75.9766 104.24V103.904C75.9528 103.904 75.8641 103.867 75.743 103.867C75.4292 103.867 75.2031 104.129 75.2031 104.474V104.472Z" fill="black"/>
<path d="M74.4722 103.629C74.4181 103.629 74.3683 103.64 74.3207 103.662C74.2742 103.682 74.2363 103.715 74.2093 103.758C74.1822 103.8 74.1671 103.854 74.1671 103.917V104.036H74.0081V104.196H74.1671V105.062H74.3661V104.196H74.5868V104.036H74.3661V103.944C74.3661 103.899 74.377 103.864 74.3975 103.84C74.4181 103.817 74.4527 103.805 74.5014 103.805C74.5219 103.805 74.5392 103.807 74.5555 103.811C74.5695 103.814 74.5814 103.819 74.5912 103.821L74.6377 103.659C74.6247 103.654 74.6031 103.648 74.5738 103.641C74.5446 103.634 74.5111 103.632 74.4711 103.632L74.4722 103.629Z" fill="black"/>
<path d="M73.6528 104.087C73.5814 104.043 73.4971 104.021 73.4008 104.021C73.3045 104.021 73.2212 104.043 73.1487 104.087C73.0773 104.131 73.0221 104.193 72.9821 104.273C72.9421 104.352 72.9226 104.446 72.9226 104.552C72.9226 104.658 72.9421 104.751 72.9821 104.83C73.0221 104.909 73.0773 104.971 73.1487 105.015C73.2201 105.06 73.3045 105.081 73.4008 105.081C73.4971 105.081 73.5804 105.06 73.6528 105.015C73.7242 104.971 73.7794 104.909 73.8194 104.83C73.8595 104.751 73.8789 104.659 73.8789 104.552C73.8789 104.445 73.8584 104.353 73.8194 104.273C73.7794 104.194 73.7242 104.131 73.6528 104.087ZM73.6474 104.732C73.628 104.787 73.5966 104.83 73.5566 104.864C73.5154 104.896 73.4646 104.912 73.4019 104.912C73.3391 104.912 73.2872 104.895 73.2461 104.864C73.205 104.831 73.1747 104.787 73.1552 104.732C73.1357 104.677 73.1249 104.617 73.1249 104.551C73.1249 104.485 73.1346 104.426 73.1552 104.372C73.1757 104.316 73.206 104.272 73.2461 104.239C73.2883 104.205 73.3391 104.188 73.4019 104.188C73.4646 104.188 73.5154 104.205 73.5566 104.239C73.5977 104.272 73.6269 104.316 73.6474 104.372C73.668 104.427 73.6777 104.486 73.6777 104.551C73.6777 104.616 73.668 104.677 73.6474 104.732Z" fill="black"/>
<path d="M72.2054 104.893C72.1935 104.895 72.1794 104.896 72.1632 104.896C72.1415 104.896 72.121 104.893 72.1015 104.886C72.0831 104.879 72.068 104.866 72.0572 104.846C72.0453 104.827 72.0399 104.798 72.0399 104.759V104.195H72.2497V104.035H72.0399V103.789H71.8408V104.035H71.6904V104.195H71.8408V104.801C71.8408 104.864 71.8549 104.914 71.883 104.956C71.91 104.997 71.9479 105.026 71.9933 105.047C72.0388 105.067 72.0885 105.076 72.1405 105.074C72.1729 105.074 72.1989 105.07 72.2205 105.065C72.2422 105.061 72.2584 105.056 72.2692 105.052L72.2335 104.886C72.2259 104.888 72.2184 104.89 72.2065 104.891H72.2043L72.2054 104.893Z" fill="black"/>
<path d="M71.4538 104.019C71.3943 104.019 71.3403 104.034 71.2916 104.066C71.2451 104.098 71.2115 104.142 71.1931 104.197H71.1823V104.034H70.9897V105.058H71.1888V104.433C71.1888 104.389 71.1996 104.349 71.2213 104.314C71.2429 104.28 71.2721 104.251 71.3078 104.233C71.3446 104.213 71.3868 104.203 71.4333 104.203C71.4538 104.203 71.4744 104.204 71.495 104.207C71.5155 104.209 71.5296 104.211 71.5382 104.215V104.024C71.5285 104.023 71.5155 104.022 71.4971 104.021C71.4798 104.021 71.4657 104.02 71.4528 104.02H71.4538V104.019Z" fill="black"/>
<path d="M70.5862 104.088C70.5462 104.063 70.504 104.045 70.4564 104.036C70.411 104.026 70.3677 104.022 70.3255 104.022C70.2628 104.022 70.2044 104.031 70.1481 104.048C70.0919 104.065 70.0421 104.093 69.9999 104.132C69.9566 104.17 69.9242 104.221 69.9025 104.284L70.0897 104.327C70.1038 104.291 70.1308 104.259 70.1687 104.229C70.2065 104.198 70.2595 104.184 70.3277 104.184C70.3958 104.184 70.4402 104.2 70.4727 104.232C70.5051 104.264 70.5213 104.309 70.5213 104.367V104.372C70.5213 104.395 70.5127 104.414 70.4954 104.423C70.4781 104.434 70.4499 104.442 70.411 104.446C70.3731 104.45 70.3223 104.457 70.2606 104.463C70.2119 104.47 70.1643 104.478 70.1178 104.488C70.0713 104.499 70.0291 104.515 69.9912 104.537C69.9534 104.559 69.9231 104.589 69.9015 104.626C69.8787 104.663 69.8679 104.711 69.8679 104.769C69.8679 104.836 69.8831 104.892 69.9134 104.938C69.9447 104.985 69.9848 105.02 70.0378 105.045C70.0908 105.069 70.1492 105.081 70.2141 105.081C70.2704 105.081 70.3201 105.073 70.3591 105.056C70.4002 105.039 70.4326 105.02 70.4586 104.994C70.4846 104.969 70.504 104.943 70.5159 104.918H70.5246V105.058H70.7204V104.378C70.7204 104.303 70.7074 104.243 70.6825 104.196C70.6566 104.15 70.6241 104.112 70.583 104.087H70.5852L70.5862 104.088ZM70.5246 104.691C70.5246 104.732 70.5138 104.77 70.4932 104.804C70.4727 104.839 70.4424 104.868 70.4034 104.89C70.3634 104.911 70.3169 104.922 70.2617 104.922C70.2065 104.922 70.1589 104.91 70.1221 104.885C70.0864 104.861 70.067 104.823 70.067 104.773C70.067 104.737 70.0767 104.709 70.094 104.687C70.1135 104.666 70.1384 104.65 70.1697 104.637C70.2022 104.625 70.2368 104.616 70.2758 104.612C70.2931 104.61 70.3125 104.607 70.3374 104.603C70.3612 104.6 70.3861 104.595 70.4132 104.592C70.4391 104.588 70.4618 104.582 70.4813 104.577C70.5019 104.571 70.5159 104.564 70.5235 104.557V104.691H70.5246Z" fill="black"/>
<path d="M69.4868 104.084C69.4219 104.042 69.3473 104.021 69.265 104.021C69.2012 104.021 69.1504 104.032 69.1114 104.054C69.0736 104.074 69.0422 104.099 69.0206 104.127C68.9989 104.154 68.9827 104.18 68.9697 104.202H68.9524V104.035H68.7566V105.445H68.9556V104.901H68.9675C68.9794 104.922 68.9968 104.947 69.0195 104.975C69.0422 105.002 69.0725 105.028 69.1114 105.049C69.1515 105.069 69.2023 105.08 69.265 105.08C69.3473 105.08 69.4208 105.059 69.4857 105.016C69.5506 104.973 69.6004 104.914 69.6383 104.835C69.6751 104.756 69.6934 104.66 69.6934 104.549C69.6934 104.438 69.674 104.345 69.6372 104.264C69.6004 104.185 69.5496 104.125 69.4847 104.084H69.4857H69.4868ZM69.463 104.732C69.4425 104.787 69.4122 104.83 69.3721 104.863C69.3321 104.894 69.2824 104.91 69.2229 104.91C69.1634 104.91 69.1168 104.895 69.0779 104.865C69.0379 104.834 69.0087 104.791 68.987 104.738C68.9665 104.684 68.9556 104.62 68.9556 104.549C68.9556 104.478 68.9665 104.416 68.987 104.362C69.0076 104.308 69.0379 104.267 69.0768 104.237C69.1168 104.207 69.1655 104.193 69.2229 104.193C69.2802 104.193 69.3332 104.208 69.3721 104.24C69.4133 104.271 69.4425 104.313 69.463 104.366C69.4836 104.42 69.4944 104.481 69.4944 104.548C69.4944 104.615 69.4836 104.679 69.463 104.733V104.732Z" fill="black"/>
<path d="M67.6681 104.784H67.6584L67.4582 104.034H67.2516L67.0504 104.787H67.0396L66.8394 104.034H66.6328L66.9336 105.058H67.1359L67.3447 104.319H67.3598L67.5686 105.058H67.7709L68.0727 104.034H67.8661L67.6659 104.784H67.6681Z" fill="black"/>
<path d="M66.2937 104.087C66.2223 104.043 66.1379 104.021 66.0416 104.021C65.9454 104.021 65.8621 104.043 65.7896 104.087C65.7182 104.131 65.663 104.193 65.623 104.273C65.583 104.352 65.5635 104.446 65.5635 104.552C65.5635 104.658 65.583 104.751 65.623 104.83C65.663 104.909 65.7182 104.971 65.7896 105.015C65.861 105.06 65.9454 105.081 66.0416 105.081C66.1379 105.081 66.2212 105.06 66.2937 105.015C66.3651 104.971 66.4203 104.909 66.4603 104.83C66.5003 104.751 66.5198 104.659 66.5198 104.552C66.5198 104.445 66.4993 104.353 66.4603 104.273C66.4203 104.194 66.3651 104.131 66.2937 104.087ZM66.2894 104.732C66.2699 104.787 66.2385 104.83 66.1985 104.864C66.1574 104.896 66.1066 104.912 66.0438 104.912C65.9811 104.912 65.9291 104.895 65.888 104.864C65.8469 104.831 65.8166 104.787 65.7972 104.732C65.7777 104.677 65.7669 104.617 65.7669 104.551C65.7669 104.485 65.7766 104.426 65.7972 104.372C65.8177 104.316 65.848 104.272 65.888 104.239C65.9302 104.205 65.9811 104.188 66.0438 104.188C66.1066 104.188 66.1574 104.205 66.1985 104.239C66.2396 104.272 66.2688 104.316 66.2894 104.372C66.3099 104.427 66.3197 104.486 66.3197 104.551C66.3197 104.616 66.3099 104.677 66.2894 104.732Z" fill="black"/>
<path d="M65.1773 104.065C65.1242 104.036 65.0637 104.021 64.9934 104.021C64.9165 104.021 64.8527 104.037 64.8019 104.07C64.751 104.102 64.7142 104.147 64.6915 104.201H64.6785V104.034H64.4871V105.059H64.6861V104.449C64.6861 104.395 64.6969 104.349 64.7175 104.31C64.738 104.272 64.7662 104.242 64.803 104.222C64.8387 104.202 64.8798 104.192 64.9263 104.192C64.9934 104.192 65.0474 104.214 65.0853 104.256C65.1232 104.298 65.1426 104.355 65.1426 104.43V105.059H65.3417V104.406C65.3417 104.321 65.3276 104.25 65.2984 104.193C65.2692 104.136 65.2292 104.092 65.1762 104.063H65.1773V104.065Z" fill="black"/>
<path d="M55.0633 100.98C54.9281 100.923 54.7506 100.869 54.5061 100.811C54.3352 100.776 54.1989 100.738 54.1005 100.702C54.0096 100.668 53.9382 100.626 53.8765 100.569C53.8246 100.522 53.8008 100.459 53.8008 100.376C53.8008 100.252 53.8581 100.157 53.9761 100.086C54.1005 100.01 54.2725 99.9707 54.4834 99.9707C54.6944 99.9707 54.9205 100.009 55.1466 100.083C55.1596 100.088 55.1758 100.093 55.1888 100.096L55.2926 100.122L55.4711 99.6862L55.4062 99.6213L55.3997 99.6278C55.3997 99.6278 55.3976 99.6278 55.3965 99.6267C55.3835 99.6223 55.3608 99.6126 55.3208 99.5996C55.0535 99.5001 54.7658 99.4514 54.4412 99.4514C54.1903 99.4514 53.9771 99.4936 53.8062 99.5758C53.6277 99.657 53.4882 99.7727 53.3951 99.9188C53.2999 100.066 53.2545 100.225 53.2545 100.403C53.2545 100.608 53.314 100.782 53.4297 100.91C53.5412 101.033 53.6753 101.124 53.8268 101.18C53.9728 101.24 54.1643 101.3 54.3958 101.359C54.5646 101.4 54.6922 101.44 54.7939 101.473C54.8826 101.504 54.9519 101.541 55.0049 101.589C55.0535 101.633 55.0752 101.681 55.0752 101.744C55.0752 101.879 55.0243 101.977 54.9226 102.045C54.8112 102.118 54.636 102.155 54.4023 102.155C54.1156 102.155 53.8441 102.099 53.5996 101.988C53.5844 101.979 53.5639 101.969 53.5466 101.962L53.4395 101.919L53.2285 102.386L53.3313 102.438C53.3508 102.446 53.3746 102.457 53.393 102.461C53.711 102.601 54.0615 102.674 54.4391 102.68C54.663 102.68 54.8675 102.642 55.0471 102.566C55.231 102.484 55.3662 102.377 55.4625 102.241C55.5642 102.098 55.6161 101.939 55.6161 101.764C55.6161 101.553 55.5598 101.379 55.4473 101.247C55.3348 101.123 55.205 101.032 55.0622 100.977V100.983L55.0633 100.98Z" fill="black"/>
<path d="M58.8644 99.6591C58.6318 99.5217 58.3548 99.4503 58.0411 99.4503C57.7274 99.4503 57.4439 99.5196 57.2124 99.6591C56.9755 99.8008 56.7894 99.9934 56.6607 100.234C56.532 100.473 56.4649 100.752 56.4595 101.063V101.065C56.466 101.377 56.533 101.655 56.6607 101.895C56.7894 102.135 56.9744 102.328 57.2124 102.47C57.445 102.607 57.723 102.678 58.0411 102.678C58.3591 102.678 58.6318 102.609 58.8633 102.471C59.1024 102.334 59.2874 102.141 59.415 101.896C59.5481 101.652 59.6162 101.381 59.6216 101.062C59.6108 100.75 59.5427 100.478 59.415 100.234C59.2863 99.9934 59.1024 99.8008 58.8633 99.6591H58.8644ZM59.0775 101.064C59.0775 101.276 59.0353 101.465 58.9531 101.626C58.873 101.794 58.754 101.923 58.6004 102.015C58.437 102.113 58.2564 102.159 58.0443 102.159C57.8323 102.159 57.6441 102.112 57.4904 102.016C57.3347 101.916 57.2178 101.787 57.1345 101.626C57.0523 101.466 57.0101 101.278 57.0101 101.064C57.0101 100.851 57.0523 100.664 57.1345 100.503C57.2211 100.336 57.339 100.204 57.4894 100.113C57.6441 100.018 57.8312 99.9707 58.0443 99.9707C58.2575 99.9707 58.437 100.017 58.5993 100.113C58.7551 100.214 58.8719 100.343 58.9552 100.504C59.0375 100.664 59.0796 100.852 59.0796 101.065H59.0775V101.064Z" fill="black"/>
<path d="M61.7597 101.976L60.7482 99.4666H60.1619L61.4838 102.655H62.0421L63.3586 99.4666H62.7669L61.7597 101.976Z" fill="black"/>
<path d="M66.184 102.607L66.2034 102.655H66.7963L65.4656 99.5142L65.4451 99.4666H64.9507L63.6006 102.655H64.1869L65.1952 100.245L66.1829 102.607H66.184Z" fill="black"/>
<path d="M68.2432 99.4666H67.7012V102.635H69.8464V102.089H68.2475L68.2432 99.4676V99.4666Z" fill="black"/>
<path d="M73.0052 102.629V102.109H71.3002V101.319H72.8505V100.798H71.3002V100.009H73.0052V99.4882H70.7539V102.595H70.7939V102.629H73.0052Z" fill="black"/>
<path d="M76.3464 101.631L74.5474 99.4947L74.5236 99.4655H74.1309V102.654H74.6729L74.6772 100.5L76.4957 102.654H76.8938V99.4655H76.3475V101.63L76.3464 101.631Z" fill="black"/>
<path d="M77.7053 99.4936V100.013H78.7558V102.655H79.3021V100.013H80.3569V99.4936H77.7053Z" fill="black"/>
<path d="M52.2214 99.4672H51.675V102.655H52.2214V99.4672Z" fill="black"/>
<path d="M65.0629 101.431L64.9082 101.693L65.0629 101.959H65.3615L65.5162 101.693L65.3615 101.431H65.0629Z" fill="black"/>
<path d="M63.0439 74.8194C63.3349 74.8194 63.5708 74.5836 63.5708 74.2926C63.5708 74.0016 63.3349 73.7657 63.0439 73.7657C62.753 73.7657 62.5171 74.0016 62.5171 74.2926C62.5171 74.5836 62.753 74.8194 63.0439 74.8194Z" fill="#E28100"/>
<path d="M68.1575 75.0239C68.4484 75.0239 68.6843 74.788 68.6843 74.4971C68.6843 74.2061 68.4484 73.9702 68.1575 73.9702C67.8665 73.9702 67.6306 74.2061 67.6306 74.4971C67.6306 74.788 67.8665 75.0239 68.1575 75.0239Z" fill="#E28100"/>
<path d="M73.4338 75.0585C73.7248 75.0585 73.9607 74.8226 73.9607 74.5317C73.9607 74.2407 73.7248 74.0048 73.4338 74.0048C73.1429 74.0048 72.907 74.2407 72.907 74.5317C72.907 74.8226 73.1429 75.0585 73.4338 75.0585Z" fill="#E28100"/>
<path d="M74.2974 64.2346L61.3384 63.988C60.5511 63.973 59.9007 64.5991 59.8857 65.3865L59.8009 69.846C59.7859 70.6333 60.412 71.2837 61.1993 71.2987L74.1583 71.5453C74.9456 71.5602 75.596 70.9341 75.611 70.1468L75.6958 65.6873C75.7108 64.8999 75.0847 64.2495 74.2974 64.2346Z" fill="#E28100"/>
<path d="M74.1869 71.9787C74.175 71.9787 74.1631 71.9787 74.1512 71.9787L61.1931 71.732C60.6966 71.7223 60.2335 71.52 59.8895 71.163C59.5455 70.8049 59.3605 70.3343 59.3702 69.8388L59.4546 65.3795C59.4741 64.367 60.3039 63.5556 61.3121 63.5556C61.324 63.5556 61.3359 63.5556 61.3478 63.5556L74.3059 63.8023C74.8024 63.812 75.2654 64.0143 75.6094 64.3713C75.9535 64.7294 76.1385 65.1989 76.1287 65.6954L76.0433 70.1547C76.0238 71.1673 75.194 71.9787 74.1858 71.9787H74.1869ZM61.3121 64.4211C61.0536 64.4211 60.8101 64.5195 60.6241 64.6991C60.4326 64.883 60.3244 65.1307 60.3201 65.3958L60.2357 69.855C60.2303 70.1201 60.3287 70.3722 60.5137 70.5626C60.6976 70.754 60.9454 70.8622 61.2104 70.8665L74.1695 71.1132C74.176 71.1132 74.1825 71.1132 74.189 71.1132C74.7278 71.1132 75.1713 70.6805 75.1821 70.1385L75.2676 65.6792C75.273 65.4142 75.1735 65.1621 74.9896 64.9717C74.8057 64.7802 74.5579 64.672 74.2929 64.6677L61.3337 64.4211C61.3273 64.4211 61.3208 64.4211 61.3143 64.4211H61.3121Z" fill="black"/>
<path d="M66.5651 67.6286C67.0995 67.5204 67.4252 66.008 66.5305 65.7971C65.9517 65.6608 64.8039 65.7246 64.342 65.756L64.2673 69.6754C65.4 69.709 67.4976 69.8939 67.2629 68.3491C67.1666 67.7195 66.8075 67.6989 66.5651 67.6297V67.6286ZM65.3816 67.2705L65.3924 66.629C66.4861 66.4397 66.5186 67.3235 65.3816 67.2705ZM65.3513 68.8727L65.3665 68.0884L66.0015 68.1003C66.5121 68.1565 66.5218 69.0404 65.3502 68.8727H65.3513Z" fill="white"/>
<path d="M72.4332 67.4923L72.4451 66.9168C72.9179 66.9254 73.739 66.9481 73.739 66.9481C73.739 66.9481 73.805 66.6301 73.7444 66.021L71.2887 65.9745L71.2151 69.8182L72.3423 69.8398L72.417 68.3448L73.6676 68.3696V67.5258L72.4332 67.4912V67.4923Z" fill="white"/>
<path d="M70.6934 66.6733C70.5896 66.3217 70.1374 65.9366 69.7977 65.8598C69.4136 65.7733 68.4216 65.7981 67.964 65.7895C67.9532 65.7895 67.8547 69.7749 67.8547 69.7749L68.9225 69.7955L68.9474 68.5135C70.2488 68.7991 71.084 67.9888 70.6934 66.6733ZM68.9625 67.66L68.9798 66.8053C70.079 66.4451 70.3429 67.7822 68.9625 67.66Z" fill="white"/>
<path d="M62.0008 68.242L63.6019 68.2723C64.4965 65.3709 60.364 65.7874 61.0033 68.4173C61.2846 69.577 62.5969 69.683 63.5802 69.4461C63.4904 69.2989 63.511 68.7267 63.4861 68.6985C63.3985 68.6022 62.1079 68.9095 62.0008 68.242ZM62.1555 67.2078C62.5211 66.7567 63.2838 67.8104 62.0127 67.6005C62.0917 67.4891 62.0938 67.2846 62.1555 67.2078Z" fill="white"/>
<path d="M59.586 35.65C59.7623 35.7917 59.9884 36.0654 60.2026 36.0589C60.247 35.8534 60.1323 35.3417 60.2178 35.2086C60.3032 35.0755 62.7708 34.2663 63.1214 34.1668C66.145 33.3133 70.4334 33.0277 73.5036 33.7319C73.7297 33.7839 73.9028 33.799 73.9028 34.1127C73.9028 34.4535 74.0791 34.7802 74.5746 34.7607C74.6665 33.3003 75.1123 31.3768 75.7603 30.0559C76.748 28.0426 79.1453 25.2613 81.4463 24.7896C82.9576 24.4802 83.862 25.4441 82.0413 26.408C80.7128 27.1112 79.4763 27.6034 78.3566 28.5446C76.656 29.9737 75.9626 30.9246 75.4022 33.1207C75.2561 33.6941 74.818 35.1188 75.5872 35.4163C75.7257 35.4704 75.8793 34.5238 75.8728 34.328C75.9918 34.3183 76.1086 34.3258 76.2265 34.3518C76.6192 34.4373 78.9094 35.7733 79.3671 36.0752C81.5502 37.5129 83.1621 40.4489 83.7279 42.9555C84.9871 48.5377 82.791 52.4831 78.3166 55.6388C75.1425 57.8771 68.6754 59.1168 64.8112 58.418C59.0635 57.3794 55.1981 53.9133 54.0427 48.1115C54.1098 47.9871 54.3251 48.2802 54.3651 48.3289C55.6471 49.8997 56.1858 51.1546 58.3083 51.8427C62.218 53.1106 64.1264 50.7565 63.3951 46.9712C62.8228 44.0092 60.5791 40.1612 57.5024 39.3422C57.3856 39.3109 56.5493 39.1811 56.493 39.1951C56.4325 39.2103 56.1112 39.2081 55.8807 39.3011C55.6536 39.0913 58.2369 35.9702 58.8417 36.0784C56.5212 32.8178 55.4794 27.2951 57.5565 24.4153C59.1002 22.2744 59.9884 23.5163 59.8056 23.8798C59.0386 25.4062 57.7263 27.0679 57.6052 28.867C57.5013 30.414 58.3495 34.659 59.586 35.65ZM74.9803 37.2738C73.7135 37.4718 71.4243 39.2438 70.5751 40.2174C67.3253 43.9443 65.074 52.64 72.7918 51.9465C75.8587 51.6707 79.2243 48.8731 80.2249 45.9792C81.4442 42.4568 79.5358 36.5598 74.9792 37.2738H74.9803Z" fill="#494947"/>
<mask id="mask3_85_172" style="mask-type:luminance" maskUnits="userSpaceOnUse" x="54" y="23" width="31" height="36">
<path d="M59.586 35.65C59.7623 35.7917 59.9884 36.0654 60.2026 36.0589C60.247 35.8534 60.1323 35.3417 60.2178 35.2086C60.3032 35.0755 62.7708 34.2663 63.1214 34.1668C66.145 33.3133 70.4334 33.0277 73.5036 33.7319C73.7297 33.7839 73.9028 33.799 73.9028 34.1127C73.9028 34.4535 74.0791 34.7802 74.5746 34.7607C74.6665 33.3003 75.1123 31.3768 75.7603 30.0559C76.748 28.0426 79.1453 25.2613 81.4463 24.7896C82.9576 24.4802 83.862 25.4441 82.0413 26.408C80.7128 27.1112 79.4763 27.6034 78.3566 28.5446C76.656 29.9737 75.9626 30.9246 75.4022 33.1207C75.2561 33.6941 74.818 35.1188 75.5872 35.4163C75.7257 35.4704 75.8793 34.5238 75.8728 34.328C75.9918 34.3183 76.1086 34.3258 76.2265 34.3518C76.6192 34.4373 78.9094 35.7733 79.3671 36.0752C81.5502 37.5129 83.1621 40.4489 83.7279 42.9555C84.9871 48.5377 82.791 52.4831 78.3166 55.6388C75.1425 57.8771 68.6754 59.1168 64.8112 58.418C59.0635 57.3794 55.1981 53.9133 54.0427 48.1115C54.1098 47.9871 54.3251 48.2802 54.3651 48.3289C55.6471 49.8997 56.1858 51.1546 58.3083 51.8427C62.218 53.1106 64.1264 50.7565 63.3951 46.9712C62.8228 44.0092 60.5791 40.1612 57.5024 39.3422C57.3856 39.3109 56.5493 39.1811 56.493 39.1951C56.4325 39.2103 56.1112 39.2081 55.8807 39.3011C55.6536 39.0913 58.2369 35.9702 58.8417 36.0784C56.5212 32.8178 55.4794 27.2951 57.5565 24.4153C59.1002 22.2744 59.9884 23.5163 59.8056 23.8798C59.0386 25.4062 57.7263 27.0679 57.6052 28.867C57.5013 30.414 58.3495 34.659 59.586 35.65ZM74.9803 37.2738C73.7135 37.4718 71.4243 39.2438 70.5751 40.2174C67.3253 43.9443 65.074 52.64 72.7918 51.9465C75.8587 51.6707 79.2243 48.8731 80.2249 45.9792C81.4442 42.4568 79.5358 36.5598 74.9792 37.2738H74.9803Z" fill="white"/>
</mask>
<g mask="url(#mask3_85_172)">
<path d="M48.3289 41.627C53.8613 46.2702 63.9168 50.2978 71.7286 48.594C78.3818 47.1422 83.3387 40.2401 83.2111 39.9545C81.7344 36.6593 80.3691 35.9507 75.7325 33.5729C75.6556 34.1214 75.607 34.7348 75.5896 35.4185C75.1894 35.4985 74.8454 35.0301 74.5771 34.7629C74.3282 34.5141 74.418 33.5188 74.0524 33.5956C69.8484 32.94 64.792 32.3667 60.2202 35.2108C60.0666 35.3211 60.3133 35.8718 60.2051 36.0611C59.9422 36.5198 59.3656 36.6269 58.8041 36.0546C56.9932 36.8422 56.0509 35.7885 54.9345 32.596C51.3644 35.6143 49.0169 38.8067 48.3299 41.6292L48.3289 41.627Z" fill="#7D8E8E"/>
</g>
<path d="M68.7222 49.0321C68.7222 49.0321 70.0669 52.1358 73.9701 50.684C77.8733 49.2322 78.6371 46.572 78.7669 45.4145C78.0972 47.6052 71.682 52.112 68.7233 49.0321H68.7222Z" fill="#14E9FC"/>
<path d="M75.4408 41.8108C76.1321 41.4117 76.4561 40.6787 76.1646 40.1737C75.873 39.6687 75.0763 39.5829 74.385 39.982C73.6937 40.3811 73.3697 41.114 73.6612 41.6191C73.9528 42.1241 74.7496 42.2099 75.4408 41.8108Z" fill="white"/>
<path d="M57.7235 43.3942C58.2937 43.2725 58.621 42.541 58.4543 41.7603C58.2877 40.9797 57.6903 40.4456 57.12 40.5673C56.5497 40.689 56.2225 41.4205 56.3891 42.2012C56.5558 42.9818 57.1532 43.516 57.7235 43.3942Z" fill="white"/>
<path d="M62.7274 49.2074C62.8551 51.6501 57.2058 52.7482 54.9448 47.0654C56.3728 49.7613 60.7466 51.9033 62.7274 49.2074Z" fill="#14E9FC"/>
<path d="M101.047 50.0047C101.047 50.0047 101.589 49.6769 101.714 49.2366C101.838 48.7963 101.797 48.2846 101.666 47.999C101.666 47.999 102.727 48.7422 102.077 49.6834C101.708 50.2168 101.047 50.0047 101.047 50.0047Z" fill="black"/>
<path d="M37.4655 34.1095C37.3671 33.8326 37.1485 33.613 36.8802 33.4831L31.4398 31.1302C31.297 31.0653 31.139 31.0534 30.9984 31.0588C30.8578 31.0642 30.7009 31.0707 30.5613 31.1107L25.3178 33.891C25.1879 33.9559 25.0754 34.0511 24.9889 34.1668C24.9023 34.2826 24.8428 34.4167 24.8169 34.5595L23.7231 40.3743C23.7026 40.5215 23.7123 40.6707 23.7513 40.8135C23.7902 40.9563 23.8573 41.0905 23.9482 41.2073L27.82 45.6385C28.0385 45.8408 28.3414 45.9695 28.64 45.9749L34.5262 45.7488C34.8432 45.7715 35.1353 45.6201 35.3181 45.3496L38.8394 40.635C39.0028 40.3841 39.0666 40.0812 39.0179 39.7858L37.4666 34.1084L37.4655 34.1095Z" fill="#326DE6"/>
<path d="M36.8522 39.6419C36.8349 39.6419 36.8176 39.643 36.8165 39.6257C36.8155 39.6084 36.7808 39.6106 36.7451 39.6116C36.6748 39.5965 36.6045 39.5997 36.5342 39.6019C36.4985 39.6062 36.4617 39.6019 36.4282 39.5889H36.4109C36.2086 39.5792 36.0084 39.5521 35.8115 39.5078C35.7834 39.498 35.7574 39.4829 35.7358 39.4623C35.7142 39.4418 35.6969 39.4169 35.685 39.3899L35.5432 39.3607C35.5941 38.85 35.5389 38.3253 35.4134 37.8212C35.2706 37.316 35.0445 36.8389 34.7449 36.4084L34.8466 36.2991V36.2818C34.8444 36.2288 34.8585 36.1585 34.892 36.1217C35.0445 35.9756 35.1981 35.8642 35.3691 35.7517L35.4718 35.6954C35.5411 35.6576 35.5919 35.6208 35.6601 35.5829C35.6774 35.5645 35.6947 35.5645 35.7109 35.5462C35.7282 35.5278 35.7109 35.5288 35.7098 35.5115C35.8624 35.3817 35.8894 35.1708 35.7607 35.0182C35.7293 34.9825 35.6915 34.9544 35.6482 34.9349C35.6049 34.9155 35.5584 34.9057 35.5108 34.9046C35.4221 34.91 35.3366 34.9447 35.2685 35.002L35.2512 35.0204C35.2338 35.0388 35.2176 35.0572 35.2003 35.0572C35.1495 35.1123 35.0997 35.1664 35.0662 35.2205C35.0499 35.2562 35.0153 35.2757 34.9991 35.293C34.8758 35.4445 34.733 35.5797 34.5761 35.6954C34.5415 35.7138 34.5069 35.7333 34.4722 35.7344C34.4549 35.7344 34.4192 35.7366 34.4019 35.7192H34.3846L34.2483 35.8134C34.1023 35.6781 33.94 35.5451 33.7939 35.4098C33.1265 34.9263 32.3086 34.6418 31.481 34.5866L31.4583 34.447V34.4643C31.4053 34.4308 31.3858 34.3799 31.3663 34.328C31.3588 34.1355 31.3512 33.9429 31.3782 33.7309V33.7135C31.3761 33.6789 31.3923 33.6432 31.3912 33.6075C31.4064 33.5372 31.4031 33.4669 31.4183 33.3955L31.4139 33.2906C31.4248 33.1142 31.2776 32.9444 31.1024 32.9336C30.9964 32.9206 30.8936 32.9768 30.8092 33.0677C30.7778 33.1012 30.7529 33.1402 30.7367 33.1824C30.7205 33.2256 30.7129 33.2711 30.714 33.3165L30.7172 33.4041C30.7194 33.4745 30.74 33.5437 30.7605 33.6129C30.7757 33.6454 30.7832 33.6811 30.7822 33.7179V33.7352C30.8243 33.9267 30.8319 34.1192 30.8406 34.328C30.8254 34.381 30.8092 34.434 30.7584 34.4719V34.5076L30.7475 34.6482C30.555 34.6731 30.3646 34.7153 30.1547 34.7586C29.3379 34.9652 28.6012 35.4326 28.0462 36.0676L27.938 36.0016H27.9207C27.9034 36.0027 27.8861 36.0211 27.8515 36.0222C27.8169 36.0232 27.7812 36.007 27.7455 35.9908C27.5832 35.8761 27.4307 35.7474 27.2922 35.6046C27.2738 35.57 27.237 35.5537 27.2197 35.5375C27.1656 35.4867 27.1278 35.4358 27.0737 35.385C27.0553 35.3677 27.038 35.3687 27.0196 35.3525L27.0012 35.3352C26.9287 35.2833 26.8422 35.2562 26.7524 35.2573C26.6474 35.2616 26.5609 35.2995 26.5122 35.3893C26.4657 35.4672 26.4484 35.5602 26.4657 35.65C26.4819 35.7398 26.5306 35.8209 26.602 35.8772C26.6042 35.8772 26.6063 35.8772 26.6085 35.8772C26.6107 35.8772 26.6128 35.8794 26.6139 35.8804C26.615 35.8815 26.6171 35.8837 26.6182 35.8858C26.6182 35.888 26.6193 35.8902 26.6193 35.8923C26.6193 35.8923 26.6561 35.9259 26.6734 35.9259C26.7372 35.9627 26.8032 35.9951 26.8703 36.0232L26.9785 36.0719C27.1581 36.1704 27.3376 36.2688 27.4826 36.404C27.5194 36.4376 27.5572 36.5068 27.541 36.5598V36.5425L27.6492 36.6431C27.633 36.6788 27.6157 36.6972 27.6005 36.7329C27.0899 37.6113 26.9017 38.6369 27.0975 39.6289L26.959 39.669C26.959 39.669 26.959 39.6733 26.959 39.6755C26.959 39.6776 26.9568 39.6798 26.9558 39.6809C26.9547 39.683 26.9525 39.6841 26.9503 39.6852C26.9482 39.6852 26.946 39.6863 26.9439 39.6863C26.9287 39.7393 26.8768 39.7761 26.8259 39.8139C26.6334 39.8745 26.4354 39.9178 26.2353 39.9416C26.1996 39.9405 26.1639 39.9481 26.1303 39.9632C26.06 39.9654 25.9908 39.9859 25.9205 39.9892C25.9031 39.9892 25.8858 40.0076 25.8512 40.0097C25.8397 40.0097 25.8281 40.0159 25.8166 40.0281C25.7712 40.0368 25.729 40.0552 25.6911 40.0811C25.6532 40.1071 25.6208 40.1406 25.5959 40.1785C25.571 40.2175 25.5548 40.2607 25.5461 40.3051C25.5386 40.3505 25.5397 40.397 25.5505 40.4414C25.5916 40.5983 25.7539 40.6967 25.9107 40.6729C25.941 40.674 25.9713 40.6675 25.9973 40.6523C26.0088 40.6523 26.0146 40.6462 26.0146 40.634C26.0146 40.6166 26.0676 40.6318 26.0849 40.6318C26.1541 40.6112 26.2234 40.5745 26.2753 40.5539C26.3099 40.5355 26.3445 40.516 26.3791 40.515H26.3965C26.5804 40.436 26.7729 40.3765 26.9687 40.3343H26.986C27.038 40.33 27.0888 40.3473 27.1278 40.3808C27.1299 40.3808 27.1321 40.3808 27.1343 40.3808C27.1364 40.3808 27.1386 40.383 27.1397 40.3841C27.1418 40.3851 27.1429 40.3873 27.144 40.3895C27.144 40.3916 27.1451 40.3938 27.1451 40.396L27.3019 40.3722C27.5962 41.1684 28.1133 41.8672 28.8176 42.367C28.9798 42.4839 29.1237 42.5834 29.3022 42.6645L29.2189 42.79C29.2189 42.79 29.2189 42.7943 29.22 42.7965C29.22 42.7987 29.2222 42.8008 29.2243 42.8019C29.2265 42.803 29.2276 42.8052 29.2297 42.8052C29.2319 42.8052 29.2341 42.8062 29.2362 42.8052C29.273 42.856 29.2763 42.9263 29.26 42.9804C29.1973 43.1589 29.0978 43.3385 28.9993 43.4997V43.517C28.9842 43.5527 28.9669 43.5711 28.9333 43.6079C28.8998 43.6447 28.8673 43.7161 28.8176 43.7885C28.8003 43.8069 28.8013 43.8242 28.7851 43.8426C28.7851 43.8448 28.7851 43.847 28.7851 43.8491C28.7851 43.8513 28.7829 43.8535 28.7819 43.8545C28.7808 43.8556 28.7786 43.8578 28.7765 43.8589C28.7743 43.8589 28.7721 43.8599 28.77 43.8599C28.6888 44.0384 28.7667 44.2462 28.9279 44.3273C28.9669 44.3457 29.0091 44.3554 29.0523 44.3576C29.1919 44.3522 29.312 44.2602 29.3769 44.1347C29.3769 44.1326 29.3769 44.1304 29.3769 44.1282C29.3769 44.1261 29.379 44.1239 29.3801 44.1228C29.3812 44.1217 29.3834 44.1196 29.3855 44.1185C29.3877 44.1185 29.3899 44.1174 29.392 44.1174C29.392 44.1001 29.4082 44.0817 29.4256 44.0633C29.4407 43.993 29.4732 43.9389 29.4883 43.8675L29.5197 43.7615C29.5651 43.5668 29.6462 43.3883 29.7263 43.2098C29.7588 43.1589 29.8064 43.12 29.8626 43.0994C29.8741 43.0994 29.8799 43.0933 29.8799 43.081L29.9448 42.9382C30.4425 43.1124 30.9542 43.1806 31.4799 43.16C31.7991 43.1503 32.116 43.0962 32.4211 43.001C32.6126 42.9588 32.803 42.8809 32.9761 42.8214L33.0507 42.9415C33.0623 42.9415 33.0684 42.9472 33.0691 42.9588C33.1265 42.975 33.1773 43.0107 33.213 43.0583C33.3071 43.2303 33.4023 43.4023 33.4618 43.5916V43.609L33.5019 43.7128C33.5224 43.782 33.5419 43.8513 33.5797 43.9032C33.5981 43.9205 33.5981 43.9378 33.6165 43.9541C33.6165 43.9562 33.6165 43.9584 33.6176 43.9606C33.6176 43.9627 33.6198 43.9649 33.6219 43.966C33.6241 43.967 33.6252 43.9692 33.6273 43.9692C33.6295 43.9692 33.6317 43.9703 33.6338 43.9692C33.7085 44.0904 33.8351 44.1726 33.9757 44.1683C34.0287 44.1661 34.0622 44.1477 34.1142 44.1282C34.1823 44.0904 34.2505 44.0179 34.2645 43.9292C34.2818 43.8405 34.2721 43.7496 34.2364 43.6674C34.2364 43.6652 34.2364 43.6631 34.2353 43.6609C34.2353 43.6587 34.2332 43.6566 34.231 43.6555C34.2288 43.6544 34.2278 43.6522 34.2256 43.6522C34.2234 43.6522 34.2213 43.6511 34.2191 43.6522C34.2191 43.6349 34.2007 43.6176 34.1823 43.6014C34.1488 43.5376 34.1055 43.4802 34.0525 43.4305C34.0341 43.3958 34.0157 43.3796 33.9789 43.3461V43.3115C33.8491 43.1589 33.755 42.9869 33.6782 42.8138C33.6587 42.7619 33.6555 42.6916 33.689 42.6375C33.689 42.6353 33.689 42.6332 33.689 42.631C33.689 42.6288 33.6912 42.6267 33.6923 42.6256C33.6933 42.6234 33.6955 42.6223 33.6977 42.6213C33.6998 42.6213 33.702 42.6202 33.7042 42.6202L33.6457 42.4817C34.5177 41.904 35.17 41.0375 35.447 40.026L35.5876 40.0379C35.5876 40.0379 35.5919 40.0379 35.5941 40.0368C35.5963 40.0368 35.5984 40.0346 35.5995 40.0325C35.6006 40.0303 35.6027 40.0292 35.6027 40.0271C35.6027 40.0249 35.6027 40.0227 35.6027 40.0206C35.6395 39.9838 35.6893 39.9632 35.7412 39.9632H35.7585C35.9511 39.9892 36.1415 40.0346 36.3254 40.0985H36.3427C36.3784 40.1136 36.4141 40.1298 36.4487 40.1287C36.5201 40.1612 36.5742 40.1947 36.6445 40.2088C36.6618 40.2088 36.6802 40.225 36.7149 40.2239C36.7264 40.2239 36.7383 40.2294 36.7506 40.2402C36.7776 40.2532 36.809 40.2586 36.8393 40.2542C36.9161 40.2499 36.9886 40.2239 37.0502 40.1774C37.1108 40.1309 37.1562 40.0682 37.1811 39.9957C37.1703 39.9091 37.1335 39.828 37.074 39.7642C37.0145 39.7003 36.9366 39.6571 36.8512 39.6398L36.8522 39.6419ZM31.7688 39.2936L31.3047 39.5392L30.8233 39.3293L30.6815 38.8262L30.9974 38.3924L31.5232 38.3719L31.8726 38.7797L31.7699 39.2936H31.7688ZM34.5804 38.0452C34.6789 38.4032 34.7167 38.7754 34.6929 39.1464L33.0107 38.7364C32.8517 38.7072 32.7586 38.5536 32.7868 38.3935C32.7976 38.347 32.8203 38.3037 32.8528 38.268L34.1207 37.0261C34.3262 37.3387 34.482 37.6827 34.5804 38.0441V38.0452ZM33.57 36.3986L32.1723 37.4707C32.0522 37.5454 31.877 37.5345 31.7839 37.4155C31.7666 37.4004 31.7515 37.382 31.7417 37.3614C31.732 37.3409 31.7266 37.3182 31.7266 37.2944L31.5535 35.5288C32.3281 35.5873 33.0237 35.8934 33.57 36.3986ZM30.3646 35.6273L30.7129 35.544L30.6924 37.2998C30.6989 37.4577 30.5625 37.5854 30.4057 37.5919C30.3527 37.594 30.317 37.5778 30.264 37.5627L28.77 36.5847C29.2081 36.1293 29.7566 35.7917 30.3646 35.6284V35.6273ZM28.2875 37.2511L29.6279 38.3578C29.7544 38.4584 29.7782 38.6326 29.6787 38.7592C29.6462 38.8133 29.6116 38.8316 29.5424 38.8522L27.8612 39.4072C27.7812 38.6618 27.9294 37.9088 28.2875 37.25V37.2511ZM28.1025 40.2229L29.8258 39.8583C29.9665 39.8529 30.1093 39.9351 30.132 40.0747C30.1515 40.1266 30.1547 40.1969 30.1212 40.251L29.5175 41.8878C28.889 41.5081 28.374 40.9141 28.1025 40.2229ZM32.1626 42.2426C31.9191 42.3043 31.6757 42.3486 31.4129 42.3595C31.045 42.3735 30.6567 42.3183 30.3029 42.2264L31.1013 40.634C31.1846 40.5258 31.3241 40.4847 31.4496 40.5507C31.5016 40.5842 31.5502 40.6242 31.5946 40.6675L32.4936 42.1593C32.3822 42.1799 32.2718 42.208 32.1626 42.2426ZM34.2418 40.6372C33.9908 41.0721 33.6457 41.4453 33.2314 41.7288L32.4849 40.1082C32.4449 39.9697 32.5087 39.8269 32.6299 39.7696C32.6818 39.7501 32.7338 39.7306 32.7868 39.7285L34.5501 39.9589C34.4722 40.2077 34.376 40.4392 34.2429 40.6372H34.2418Z" fill="white"/>
</svg>
