<svg width="128" height="128" viewBox="0 0 128 128" fill="none" xmlns="http://www.w3.org/2000/svg">
<path d="M94.7918 46.2093L63.7079 64.1528L32.624 46.2093" stroke="#D3D3D3" stroke-width="2" stroke-linejoin="round"/>
<path d="M63.7085 100.04V64.153" stroke="#D3D3D3" stroke-width="2" stroke-linejoin="round"/>
<path d="M63.7079 28.2661L94.7918 46.2096V82.0966L63.7079 100.04L32.624 82.0966V46.2096L63.7079 28.2661Z" stroke="#D3D3D3" stroke-width="2" stroke-linejoin="round"/>
<path fill-rule="evenodd" clip-rule="evenodd" d="M94.7914 72.1365L103.416 77.1099V87.0829L94.7914 92.0563L86.1533 87.0829V77.1099L94.7914 72.1365Z" fill="#E0E0E0"/>
<path d="M103.416 77.1104L94.7914 82.0969L86.1533 77.1104" stroke="#5E6466" stroke-width="2.5" stroke-linejoin="round"/>
<path d="M94.793 92.0566V82.0967" stroke="#5E6466" stroke-width="2.5" stroke-linejoin="round"/>
<path d="M94.7914 72.1365L103.416 77.1099V87.0829L94.7914 92.0563L86.1533 87.0829V77.1099L94.7914 72.1365Z" stroke="#5E6466" stroke-width="2.5" stroke-linejoin="round"/>
<path fill-rule="evenodd" clip-rule="evenodd" d="M94.7914 36.2498L103.416 41.2232V51.183L94.7914 56.1695L86.1533 51.183V41.2232L94.7914 36.2498Z" fill="#E0E0E0"/>
<path d="M103.416 41.2227L94.7914 46.2092L86.1533 41.2227" stroke="#5E6466" stroke-width="2.5" stroke-linejoin="round"/>
<path d="M94.793 56.1691V46.2092" stroke="#5E6466" stroke-width="2.5" stroke-linejoin="round"/>
<path d="M94.7914 36.2498L103.416 41.2232V51.183L94.7914 56.1695L86.1533 51.183V41.2232L94.7914 36.2498Z" stroke="#5E6466" stroke-width="2.5" stroke-linejoin="round"/>
<path fill-rule="evenodd" clip-rule="evenodd" d="M32.625 36.2498L41.2499 41.2232V51.183L32.625 56.1695L24 51.183V41.2232L32.625 36.2498Z" fill="#E0E0E0"/>
<path d="M41.2499 41.2227L32.625 46.2092L24 41.2227" stroke="#5E6466" stroke-width="2.5" stroke-linejoin="round"/>
<path d="M32.624 56.1691V46.2092" stroke="#5E6466" stroke-width="2.5" stroke-linejoin="round"/>
<path d="M32.625 36.2498L41.2499 41.2232V51.183L32.625 56.1695L24 51.183V41.2232L32.625 36.2498Z" stroke="#5E6466" stroke-width="2.5" stroke-linejoin="round"/>
<path fill-rule="evenodd" clip-rule="evenodd" d="M63.706 19L72.331 23.9734V33.9333L63.706 38.9198L55.0811 33.9333V23.9734L63.706 19Z" fill="#E0E0E0"/>
<path d="M72.331 23.973L63.706 28.9595L55.0811 23.973" stroke="#5E6466" stroke-width="2.5" stroke-linejoin="round"/>
<path d="M63.7085 38.9194V28.9595" stroke="#5E6466" stroke-width="2.5" stroke-linejoin="round"/>
<path d="M63.706 19L72.331 23.9734V33.9333L63.706 38.9198L55.0811 33.9333V23.9734L63.706 19Z" stroke="#5E6466" stroke-width="2.5" stroke-linejoin="round"/>
<path fill-rule="evenodd" clip-rule="evenodd" d="M63.706 53.7088L72.331 58.6822V68.6421L63.706 73.6286L55.0811 68.6421V58.6822L63.706 53.7088Z" fill="#E0E0E0"/>
<path d="M72.331 58.682L63.706 63.6685L55.0811 58.682" stroke="#5E6466" stroke-width="2.5" stroke-linejoin="round"/>
<path d="M63.7085 73.6283V63.6685" stroke="#5E6466" stroke-width="2.5" stroke-linejoin="round"/>
<path d="M63.706 53.7088L72.331 58.6822V68.6421L63.706 73.6286L55.0811 68.6421V58.6822L63.706 53.7088Z" stroke="#5E6466" stroke-width="2.5" stroke-linejoin="round"/>
<path fill-rule="evenodd" clip-rule="evenodd" d="M63.706 90.0802L72.331 95.0667V105.027L63.706 110L55.0811 105.027V95.0667L63.706 90.0802Z" fill="#E0E0E0"/>
<path d="M72.331 95.0667L63.706 100.04L55.0811 95.0667" stroke="#5E6466" stroke-width="2.5" stroke-linejoin="round"/>
<path d="M63.7085 110V100.04" stroke="#5E6466" stroke-width="2.5" stroke-linejoin="round"/>
<path d="M63.706 90.0802L72.331 95.0667V105.027L63.706 110L55.0811 105.027V95.0667L63.706 90.0802Z" stroke="#5E6466" stroke-width="2.5" stroke-linejoin="round"/>
<path fill-rule="evenodd" clip-rule="evenodd" d="M32.625 72.1365L41.2499 77.1099V87.0829L32.625 92.0563L24 87.0829V77.1099L32.625 72.1365Z" fill="#E0E0E0"/>
<path d="M41.2499 77.1104L32.625 82.0969L24 77.1104" stroke="#5E6466" stroke-width="2.5" stroke-linejoin="round"/>
<path d="M32.624 92.0566V82.0967" stroke="#5E6466" stroke-width="2.5" stroke-linejoin="round"/>
<path d="M32.625 72.1365L41.2499 77.1099V87.0829L32.625 92.0563L24 87.0829V77.1099L32.625 72.1365Z" stroke="#5E6466" stroke-width="2.5" stroke-linejoin="round"/>
</svg>
