<svg width="128" height="128" viewBox="0 0 128 128" fill="none" xmlns="http://www.w3.org/2000/svg">
<path d="M64 72.42L9 41.21L64 10L119 41.21L64 72.42Z" fill="black"/>
<path d="M16.8701 68.97V74.66L19.8501 76.35V70.66L16.8701 68.97Z" fill="black"/>
<path d="M28.75 75.71V81.4L31.72 83.09V77.4L28.75 75.71Z" fill="black"/>
<path d="M22.8101 72.34V78.03L25.7801 79.72V74.03L22.8101 72.34Z" fill="black"/>
<path d="M64 78.42L9 47.21V60.62L64 91.83L119 60.62V47.21L64 78.42ZM19.85 62.93L16.87 61.24V55.55L19.85 57.24V62.93ZM25.78 66.3L22.8 64.61V58.92L25.78 60.61V66.3ZM31.72 69.67L28.74 67.98V62.29L31.72 63.98V69.67ZM107.72 62.83L76.51 80.54V75.81L107.72 58.1V62.83Z" fill="black"/>
<path d="M64 104.88L9 73.67V87.08L64 118.29L119 87.08V73.67L64 104.88ZM19.85 89.39L16.87 87.7V82.01L19.85 83.7V89.39ZM25.78 92.76L22.8 91.07V85.38L25.78 87.07V92.76ZM31.72 96.13L28.74 94.44V88.75L31.72 90.44V96.13ZM107.72 89.29L76.51 107V102.27L107.72 84.56V89.29Z" fill="black"/>
</svg>
