<svg width="128" height="128" viewBox="0 0 128 128" fill="none" xmlns="http://www.w3.org/2000/svg">
<path d="M9 74.4075L64.0001 105.617L119 74.4075V87.7904L64.0001 119L9 87.7776V74.3948V74.4075Z" fill="#D9D9D9"/>
<path d="M9 56.5682L64.0001 87.0372L119 56.5682V69.9511L64.0001 101.161L9 69.9383V56.5554V56.5682Z" fill="black"/>
<path d="M77.3706 102.642L108.58 84.8026V89.2593L77.3706 107.099V102.642Z" fill="#7B7B7B"/>
<path d="M9 44.679L64.0001 75.8887L119 44.679V58.0619L64.0001 89.2716L9 58.0491V44.6663V44.679Z" fill="#D9D9D9"/>
<path d="M64.0001 9L119 40.2097L64.0001 71.4193L9 40.2097L64.0001 9Z" fill="#484848"/>
<path d="M77.3706 72.9137L108.58 55.0741V59.5308L77.3706 77.3704V72.9137Z" fill="#7B7B7B"/>
<path d="M16.4446 81.8395L19.42 83.3208V90.7529L16.4446 89.2716V81.8395Z" fill="black"/>
<path d="M22.3823 84.8026L25.3577 86.2839V93.716L22.3823 92.2347V84.8026Z" fill="black"/>
<path d="M28.3201 87.7772L31.2955 89.2585V96.6906L28.3201 95.2093V87.7772Z" fill="black"/>
<path d="M16.4446 52.111L19.42 53.5923V61.0244L16.4446 59.5431V52.111Z" fill="black"/>
<path d="M22.3823 55.0741L25.3577 56.5554V63.9875L22.3823 62.5062V55.0741Z" fill="black"/>
<path d="M28.3201 58.0487L31.2955 59.53V66.9621L28.3201 65.4808V58.0487Z" fill="black"/>
</svg>
