<svg width="128" height="128" viewBox="0 0 128 128" fill="none" xmlns="http://www.w3.org/2000/svg">
<path d="M69.4868 13L71.7031 22.8364C74.9354 23.4233 78.0931 24.3861 81.0996 25.7002L88.9106 18.877L95.9497 23.9736L98.6973 25.9492L94.6548 35.2129C96.9102 37.5716 98.8807 40.1836 100.532 42.9907L110.933 42.0195L111.97 45.2153L114.66 53.4248L105.894 58.563C106.147 60.3665 106.28 62.1875 106.292 64.0083L106.234 66.1582C106.197 66.8725 106.142 67.5881 106.068 68.2998L115 73.5376L113.946 76.7251L112.327 81.7388L111.281 84.9346L101.188 83.9883C99.6017 86.8368 97.6906 89.4973 95.4849 91.9072L99.627 101.403L89.832 108.451L82.187 101.785C79.2255 103.199 76.1029 104.265 72.8901 104.956L70.6074 115H58.5132L56.2969 105.172C53.0544 104.583 49.8899 103.621 46.8755 102.3L39.0645 109.115L36.3252 107.131L29.2944 102.059L33.3452 92.8203C31.0834 90.4594 29.1021 87.8403 27.4517 85.0259L17.0757 85.9971L16.0381 82.8013L13.3486 74.6001L22.106 69.4619C21.6413 66.2333 21.5843 62.9599 21.9316 59.7168L13 54.4707L14.0542 51.2832L15.6812 46.2778L16.7354 43.082L26.8291 44.02C28.4156 41.1647 30.3254 38.494 32.5317 36.0762L28.3896 26.5884L35.437 21.5249L38.1763 19.541L45.8213 26.2148C48.7852 24.7999 51.9106 23.741 55.1265 23.0522L57.3926 13H69.4868ZM58.6875 39.6704C56.7706 40.081 54.9127 40.722 53.1509 41.563L48.5273 43.7627L45.0908 47.5396C43.7728 48.9841 42.6315 50.5724 41.6875 52.271L39.3716 56.4214L38.832 61.5264C38.6356 63.3604 38.669 65.2119 38.9316 67.0381L39.687 72.2759L42.1191 76.4263C43.0978 78.0951 44.2751 79.6521 45.6221 81.0581L49.1333 84.7271L53.6987 86.7275C55.4971 87.516 57.3874 88.0936 59.3267 88.4458L64.4648 89.3755L69.3208 88.3379C71.24 87.9252 73.1015 87.2878 74.8657 86.4453L79.4229 84.2622L82.9424 80.4272C84.2567 78.9913 85.3966 77.4108 86.3374 75.7207L88.6284 71.5869L89.1597 66.5483C89.243 65.7439 89.2881 64.933 89.2925 64.1245L89.2261 62.5225C89.187 61.9899 89.1343 61.458 89.0601 60.9287L88.3296 55.7739L85.8809 51.6069C84.8965 49.9333 83.72 48.3707 82.3696 46.9585L78.8335 43.2646L74.2847 41.2808C72.4896 40.4964 70.6079 39.914 68.6733 39.5625L63.5352 38.6245L58.6875 39.6704Z" fill="black"/>
</svg>
