<svg width="128" height="128" viewBox="0 0 128 128" fill="none" xmlns="http://www.w3.org/2000/svg">
<path d="M20 23C20 18.0294 24.0294 14 29 14H67.7157C73.0201 14 78.1071 16.1071 81.8579 19.8579L101.142 39.1421C104.893 42.8929 107 47.9799 107 53.2843V104C107 108.971 102.971 113 98 113H29C24.0294 113 20 108.971 20 104V23Z" fill="white"/>
<mask id="mask0_197_2259" style="mask-type:alpha" maskUnits="userSpaceOnUse" x="20" y="16" width="85" height="97">
<path d="M20 16H72.6863C74.808 16 76.8429 16.8429 78.3431 18.3431L102.657 42.6569C104.157 44.1571 105 46.192 105 48.3137V113H20V16Z" fill="white"/>
</mask>
<g mask="url(#mask0_197_2259)">
<path d="M70 11H76L110 45V51H80C74.4772 51 70 46.5228 70 41V11Z" fill="#F8F8F8"/>
<path d="M70 41V11H76L110 45V51H80V48H107V46.2422L74.7578 14H73V41C73 44.866 76.134 48 80 48V51L79.4854 50.9873C74.2017 50.7195 70 46.3502 70 41Z" fill="#CECECE"/>
</g>
<path d="M20 104V23C20 18.1847 23.7817 14.2526 28.5371 14.0117L29 14H67.7158L68.2119 14.0059C73.3362 14.1329 78.2238 16.2241 81.8574 19.8574L101.143 39.1426C104.893 42.8932 107 47.9801 107 53.2842V104L106.988 104.463C106.747 109.218 102.815 113 98 113V110C101.314 110 104 107.314 104 104V53.2842C104 48.7755 102.209 44.4518 99.0205 41.2637L79.7363 21.9795C76.5482 18.7914 72.2245 17 67.7158 17H29C25.6863 17 23 19.6863 23 23V104C23 107.314 25.6863 110 29 110V113L28.5371 112.988C23.935 112.755 20.2449 109.065 20.0117 104.463L20 104ZM98 110V113H29V110H98Z" fill="#CECECE"/>
<path d="M20 69H107V99H20V69Z" fill="#2587C4"/>
<path d="M89.0137 90V85.1045L84.1621 76.9043H87.2646L89.4883 80.833C89.7871 81.3604 90.0684 81.8877 90.3496 82.415C90.6133 81.8877 90.8945 81.3604 91.1846 80.833L93.3379 76.9043H96.4229L91.6504 85.1045V90H89.0137Z" fill="white"/>
<path d="M77.7812 90.2109C74.1865 90.2109 71.5586 87.6182 71.5586 83.4609C71.5586 79.2773 74.1777 76.6934 77.7812 76.6934C80.8486 76.6934 83.1338 78.5918 83.5469 81.5186H80.8135C80.5059 79.9717 79.3721 79.084 77.8164 79.084C75.5928 79.084 74.2832 80.7803 74.2832 83.4609C74.2832 86.124 75.584 87.8203 77.8164 87.8203C79.3633 87.8203 80.4883 86.9414 80.8223 85.4033H83.5469C83.1338 88.3213 80.8486 90.2109 77.7812 90.2109Z" fill="white"/>
<path d="M70.0293 76.9043V90H67.3223V76.9043H70.0293Z" fill="white"/>
<path d="M57.3027 90V76.9043H60.0098V87.6797H65.96V90H57.3027Z" fill="white"/>
<path d="M49.5859 90.2109C46.0615 90.2109 43.416 87.6094 43.416 83.4609C43.416 79.2861 46.0615 76.6934 49.5859 76.6934C53.1104 76.6934 55.7646 79.2861 55.7646 83.4609C55.7646 87.627 53.1104 90.2109 49.5859 90.2109ZM49.5859 87.8203C51.6074 87.8203 53.04 86.2383 53.04 83.4609C53.04 80.666 51.6074 79.084 49.5859 79.084C47.5645 79.084 46.1406 80.666 46.1406 83.4609C46.1406 86.2383 47.5645 87.8203 49.5859 87.8203Z" fill="white"/>
<path d="M32.4648 90V76.9043H37.6328C40.5771 76.9043 42.4229 78.5654 42.4229 81.2021C42.4229 83.8389 40.542 85.5 37.5977 85.5H35.1719V90H32.4648ZM35.1719 83.2324H37.457C38.8896 83.2324 39.7773 82.4502 39.7773 81.2021C39.7773 79.9541 38.8896 79.1719 37.457 79.1719H35.1719V83.2324Z" fill="white"/>
<path d="M48.1604 52.4404H43.8727C43.8395 52.3886 43.8053 52.3367 43.7742 52.2849C43.1115 51.1573 42.4483 50.03 41.7846 48.9031C41.752 48.8591 41.7342 48.8061 41.7337 48.7514C41.7331 48.6967 41.7498 48.6433 41.7815 48.5987C42.449 47.4476 43.1118 46.2942 43.77 45.1386C43.8385 45.0178 43.9131 44.967 44.0578 44.9675C45.3662 44.9737 46.6745 44.9737 47.9826 44.9675C48.1381 44.9675 48.2283 45.0131 48.3056 45.1484C48.9662 46.3013 49.6311 47.4529 50.3004 48.6034C50.3308 48.6456 50.3472 48.6964 50.3472 48.7485C50.3472 48.8007 50.3308 48.8515 50.3004 48.8937C49.6125 50.0324 48.9271 51.1732 48.2444 52.316C48.2169 52.3559 48.1879 52.3969 48.1604 52.4404Z" fill="#6389C6"/>
<path d="M56.2903 47.8864H52.0026C51.9694 47.8346 51.9352 47.7827 51.9041 47.7309C51.2414 46.6032 50.5782 45.476 49.9145 44.3491C49.8819 44.3051 49.8641 44.252 49.8635 44.1974C49.863 44.1427 49.8797 44.0893 49.9114 44.0447C50.5785 42.8942 51.2414 41.7409 51.8999 40.5846C51.9684 40.4643 52.043 40.4129 52.1877 40.4135C53.4961 40.4197 54.8044 40.4197 56.1124 40.4135C56.268 40.4135 56.3582 40.4591 56.4355 40.5944C57.0961 41.7487 57.761 42.9005 58.4303 44.0499C58.4607 44.0921 58.4771 44.1429 58.4771 44.1951C58.4771 44.2472 58.4607 44.298 58.4303 44.3402C57.7423 45.4789 57.057 46.6197 56.3743 47.7625C56.3468 47.8035 56.3178 47.8444 56.2903 47.8864Z" fill="#8162AA"/>
<path d="M56.2903 38.7425H52.0026C51.9694 38.6907 51.9352 38.6388 51.9041 38.587C51.2414 37.4597 50.5782 36.3326 49.9145 35.2057C49.8819 35.1618 49.8641 35.1087 49.8635 35.054C49.863 34.9993 49.8797 34.9459 49.9114 34.9013C50.5785 33.7502 51.2414 32.5968 51.8999 31.4412C51.9684 31.3204 52.043 31.2696 52.1877 31.2701C53.4961 31.2763 54.8044 31.2763 56.1124 31.2701C56.268 31.2701 56.3582 31.3157 56.4355 31.4511C57.0961 32.6053 57.761 33.7571 58.4303 34.9065C58.4607 34.9488 58.4771 34.9996 58.4771 35.0517C58.4771 35.1038 58.4607 35.1546 58.4303 35.1969C57.7423 36.3355 57.057 37.4763 56.3743 38.6191C56.3468 38.6596 56.3178 38.7 56.2903 38.7425Z" fill="#F07525"/>
<path d="M48.158 34.0332H43.8703C43.8371 33.9814 43.8028 33.9295 43.7717 33.8777C43.1091 32.75 42.4459 31.6228 41.7821 30.4958C41.7496 30.4519 41.7318 30.3988 41.7312 30.3442C41.7307 30.2895 41.7474 30.2361 41.779 30.1915C42.4465 29.0407 43.1094 27.8873 43.7676 26.7314C43.836 26.6111 43.9107 26.5597 44.0554 26.5602C45.3638 26.5665 46.672 26.5665 47.9801 26.5602C48.1357 26.5602 48.2259 26.6064 48.3032 26.7412C48.9638 27.8954 49.6287 29.0473 50.2979 30.1967C50.3284 30.2389 50.3448 30.2897 50.3448 30.3418C50.3448 30.394 50.3284 30.4447 50.2979 30.487C49.61 31.6257 48.9247 32.7665 48.242 33.9093C48.2145 33.9518 48.1854 33.9928 48.158 34.0332Z" fill="#F8C519"/>
<path d="M48.1604 43.237H43.8727C43.8395 43.1852 43.8053 43.1333 43.7742 43.0815C43.1115 41.9538 42.4483 40.8266 41.7846 39.6996C41.752 39.6557 41.7342 39.6026 41.7337 39.548C41.7331 39.4933 41.7498 39.4398 41.7815 39.3953C42.449 38.2448 43.1118 37.0915 43.77 35.9352C43.8385 35.8149 43.9131 35.7635 44.0578 35.764C45.3662 35.7703 46.6745 35.7703 47.9826 35.764C48.1381 35.764 48.2283 35.8097 48.3056 35.945C48.9662 37.0992 49.6311 38.2511 50.3004 39.4005C50.3308 39.4427 50.3472 39.4935 50.3472 39.5456C50.3472 39.5977 50.3308 39.6485 50.3004 39.6908C49.6125 40.8295 48.9271 41.9703 48.2444 43.1131C48.2169 43.154 48.1879 43.195 48.1604 43.237Z" fill="#E8282B"/>
<path d="M40.0706 47.8864H35.7824C35.7492 47.8346 35.715 47.7827 35.6838 47.7309C35.0212 46.6032 34.358 45.476 33.6942 44.3491C33.6617 44.3051 33.6439 44.252 33.6433 44.1974C33.6428 44.1427 33.6595 44.0893 33.6911 44.0447C34.3583 42.8942 35.0212 41.7409 35.6797 40.5846C35.7481 40.4643 35.8228 40.4129 35.9675 40.4135C37.2759 40.4197 38.5841 40.4197 39.8922 40.4135C40.0478 40.4135 40.138 40.4591 40.2153 40.5944C40.8759 41.7487 41.5408 42.9005 42.21 44.0499C42.2407 44.0921 42.2571 44.1429 42.2571 44.1951C42.2571 44.2472 42.2407 44.298 42.21 44.3402C41.5221 45.4789 40.8368 46.6197 40.1541 47.7625C40.1266 47.8035 40.0976 47.8444 40.0706 47.8864Z" fill="#98CA3F"/>
<path d="M40.199 38.6289H35.9113C35.8776 38.5771 35.8433 38.5252 35.8122 38.4734C35.1485 37.345 34.4855 36.2174 33.8232 35.0905C33.7906 35.0466 33.7728 34.9935 33.7722 34.9388C33.7717 34.8842 33.7884 34.8307 33.82 34.7861C34.4869 33.635 35.1496 32.4816 35.8081 31.326C35.877 31.2052 35.9517 31.1544 36.0964 31.1549C37.4048 31.1611 38.7129 31.1611 40.0206 31.1549C40.1762 31.1549 40.2664 31.2005 40.3442 31.3359C41.0048 32.4901 41.6697 33.6419 42.339 34.7913C42.3692 34.8338 42.3852 34.8848 42.3848 34.9369C42.3843 34.9891 42.3673 35.0397 42.3364 35.0817C41.6488 36.2204 40.9636 37.3611 40.2809 38.5039C40.255 38.5439 40.2265 38.5869 40.199 38.6289Z" fill="#CBDD72"/>
<path d="M37.9496 39.1796C37.1718 39.1796 36.3909 39.1796 35.6115 39.1822C35.5657 39.1869 35.5196 39.1772 35.4796 39.1544C35.4397 39.1317 35.4078 39.0969 35.3886 39.0551C34.6108 37.7108 33.8295 36.3681 33.0448 35.0272C33.0193 34.9919 33.0056 34.9495 33.0056 34.9059C33.0056 34.8623 33.0193 34.8199 33.0448 34.7846C33.8288 33.4323 34.6097 32.0782 35.3875 30.7225C35.4077 30.6787 35.441 30.6423 35.4828 30.6185C35.5247 30.5946 35.5729 30.5843 35.6209 30.5892C37.1764 30.593 38.7306 30.593 40.2835 30.5892C40.3315 30.5847 40.3797 30.5953 40.4214 30.6195C40.4631 30.6436 40.4963 30.6802 40.5163 30.724C41.291 32.0756 42.0688 33.4253 42.8497 34.7732C42.8776 34.8123 42.8926 34.8591 42.8926 34.9072C42.8926 34.9553 42.8776 35.0021 42.8497 35.0412C42.0694 36.3738 41.2932 37.7084 40.5209 39.0448C40.4993 39.0905 40.464 39.1284 40.4199 39.1531C40.3757 39.1778 40.3249 39.1882 40.2746 39.1827C39.4989 39.177 38.7242 39.1796 37.9496 39.1796ZM37.9496 31.718C37.3921 31.718 36.8347 31.7211 36.2778 31.7154C36.2299 31.7104 36.1817 31.7205 36.1398 31.7443C36.098 31.7681 36.0646 31.8044 36.0445 31.8482C35.4897 32.8258 34.931 33.8008 34.3686 34.7732C34.3407 34.8122 34.3256 34.859 34.3256 34.9069C34.3256 34.9549 34.3407 35.0017 34.3686 35.0407C34.9272 35.983 35.4819 36.9276 36.0326 37.8745C36.055 37.9223 36.0917 37.9621 36.1377 37.9883C36.1837 38.0145 36.2366 38.0258 36.2892 38.0207C37.2226 38.0155 38.1596 38.0181 39.0945 38.0181C39.2739 38.0181 39.4533 38.0134 39.6327 38.0181C39.6766 38.0246 39.7215 38.0165 39.7603 37.995C39.7992 37.9736 39.83 37.94 39.8479 37.8993C39.9283 37.7438 40.0211 37.596 40.1098 37.4456C40.5871 36.6309 41.0654 35.8166 41.5445 35.0029C41.5709 34.9677 41.5857 34.9252 41.5868 34.8812C41.5879 34.8373 41.5753 34.7941 41.5507 34.7576C40.9766 33.7807 40.4062 32.8017 39.8396 31.8207C39.8226 31.7853 39.7951 31.7561 39.7609 31.7371C39.7266 31.718 39.6872 31.7101 39.6483 31.7144C39.0836 31.7201 38.5174 31.718 37.9506 31.718H37.9496Z" fill="#373737"/>
<path d="M37.9438 48.4431C37.166 48.4431 36.3851 48.4431 35.6057 48.4457C35.5599 48.4503 35.5138 48.4406 35.4737 48.4178C35.4337 48.395 35.4017 48.3604 35.3822 48.3186C34.6051 46.9736 33.8241 45.6308 33.039 44.2902C33.0136 44.2549 33 44.2126 33 44.1691C33 44.1257 33.0136 44.0834 33.039 44.0481C33.8227 42.6958 34.6031 41.3417 35.3802 39.986C35.4004 39.9422 35.4338 39.9058 35.4758 39.8819C35.5177 39.858 35.566 39.8478 35.614 39.8527C37.1696 39.8565 38.7236 39.8565 40.2761 39.8527C40.3241 39.8481 40.3724 39.8585 40.4142 39.8826C40.456 39.9067 40.4893 39.9431 40.5094 39.987C41.2841 41.3386 42.0619 42.6885 42.8428 44.0367C42.8709 44.0757 42.886 44.1226 42.886 44.1707C42.886 44.2188 42.8709 44.2657 42.8428 44.3047C42.0629 45.6373 41.2865 46.9719 40.5136 48.3083C40.4919 48.354 40.4566 48.3918 40.4124 48.4165C40.3683 48.4412 40.3176 48.4516 40.2673 48.4462C39.4931 48.4405 38.7184 48.4431 37.9438 48.4431ZM37.9438 40.9815C37.3863 40.9815 36.8289 40.9846 36.272 40.9789C36.2241 40.9736 36.1757 40.9835 36.1338 41.0074C36.0918 41.0312 36.0586 41.0677 36.0387 41.1117C35.4839 42.0886 34.9252 43.0634 34.3628 44.0361C34.3346 44.0751 34.3194 44.1221 34.3194 44.1702C34.3194 44.2183 34.3346 44.2652 34.3628 44.3042C34.9214 45.2462 35.4761 46.1906 36.0268 47.1374C36.0491 47.1854 36.0858 47.2253 36.1318 47.2516C36.1778 47.2779 36.2307 47.2892 36.2834 47.2842C37.2168 47.279 38.1532 47.2842 39.0887 47.2842C39.2681 47.2842 39.4475 47.279 39.6269 47.2842C39.6709 47.2907 39.7158 47.2826 39.7547 47.261C39.7936 47.2395 39.8243 47.2057 39.8421 47.1649C39.9219 47.0094 40.0153 46.8621 40.1014 46.7112C40.5794 45.8964 41.0577 45.0824 41.5361 44.269C41.5627 44.2338 41.5776 44.1912 41.5787 44.1471C41.5798 44.103 41.5671 44.0597 41.5423 44.0232C40.9689 43.0463 40.3985 42.0675 39.8312 41.0868C39.8139 41.0519 39.7862 41.0231 39.752 41.0046C39.7177 40.986 39.6786 40.9785 39.6399 40.9831C39.0778 40.981 38.511 40.981 37.9448 40.981L37.9438 40.9815Z" fill="#373737"/>
<path d="M46.039 52.9959C45.2612 52.9959 44.4803 52.9959 43.701 52.9959C43.6551 53.0011 43.6088 52.9918 43.5685 52.9694C43.5281 52.947 43.4958 52.9126 43.4759 52.871C42.6981 51.5266 41.9171 50.184 41.1327 48.8431C41.1072 48.8078 41.0935 48.7653 41.0935 48.7217C41.0935 48.6782 41.1072 48.6357 41.1327 48.6004C41.916 47.2484 42.6964 45.8946 43.4739 44.5388C43.4941 44.495 43.5275 44.4586 43.5695 44.4348C43.6114 44.4109 43.6597 44.4007 43.7077 44.4056C45.2633 44.4094 46.8173 44.4094 48.3698 44.4056C48.4178 44.4009 48.4661 44.4114 48.5079 44.4355C48.5497 44.4595 48.583 44.496 48.6031 44.5399C49.3778 45.8918 50.1556 47.2415 50.9365 48.589C50.9647 48.6281 50.9799 48.6751 50.9799 48.7233C50.9799 48.7715 50.9647 48.8185 50.9365 48.8576C50.1584 50.1902 49.3827 51.5247 48.6094 52.8611C48.5877 52.9068 48.5523 52.9446 48.5082 52.9692C48.464 52.9938 48.4133 53.0041 48.3631 52.9985C47.5884 52.9933 46.8137 52.9959 46.039 52.9959ZM46.039 45.5339C45.4821 45.5339 44.9247 45.537 44.3678 45.5339C44.3198 45.5288 44.2715 45.5389 44.2296 45.5628C44.1877 45.5867 44.1544 45.6232 44.1345 45.6671C43.5796 46.644 43.021 47.6188 42.4586 48.5916C42.4304 48.6306 42.4152 48.6775 42.4152 48.7256C42.4152 48.7738 42.4304 48.8207 42.4586 48.8597C43.0169 49.8017 43.5715 50.7461 44.1225 51.6929C44.1449 51.7409 44.1816 51.7808 44.2276 51.807C44.2735 51.8333 44.3265 51.8447 44.3792 51.8396C45.3126 51.8344 46.249 51.8365 47.1844 51.8365C47.3639 51.8365 47.5433 51.8319 47.7227 51.8365C47.7666 51.8429 47.8113 51.8346 47.8501 51.8131C47.8889 51.7915 47.9195 51.7579 47.9373 51.7173C48.0177 51.5617 48.1111 51.4144 48.1966 51.2636C48.6747 50.4491 49.153 49.6349 49.6314 48.8208C49.658 48.7857 49.6729 48.7432 49.674 48.6992C49.6751 48.6551 49.6624 48.6119 49.6376 48.5755C49.0641 47.5986 48.4937 46.6198 47.9265 45.6391C47.9096 45.6037 47.8821 45.5745 47.8478 45.5554C47.8135 45.5364 47.7741 45.5285 47.7351 45.5328C47.173 45.5359 46.6063 45.5339 46.0395 45.5339H46.039Z" fill="#373737"/>
<path d="M54.171 39.1859C53.3932 39.1859 52.6123 39.1859 51.833 39.1859C51.7871 39.1907 51.7409 39.1811 51.7008 39.1583C51.6607 39.1355 51.6287 39.1007 51.6095 39.0588C50.832 37.7145 50.051 36.3718 49.2662 35.0309C49.2408 34.9956 49.2271 34.9532 49.2271 34.9096C49.2271 34.8661 49.2408 34.8236 49.2662 34.7883C50.0499 33.4363 50.8303 32.0824 51.6074 30.7267C51.6277 30.6829 51.6611 30.6465 51.703 30.6226C51.7449 30.5987 51.7933 30.5885 51.8413 30.5934C53.3968 30.5969 54.9509 30.5969 56.5033 30.5934C56.5514 30.5886 56.5997 30.599 56.6416 30.6231C56.6834 30.6472 56.7167 30.6838 56.7367 30.7277C57.5114 32.0793 58.2892 33.4291 59.0701 34.7769C59.0982 34.816 59.1134 34.863 59.1134 34.9112C59.1134 34.9594 59.0982 35.0064 59.0701 35.0455C58.2905 36.3781 57.5143 37.7126 56.7413 39.049C56.7197 39.0947 56.6844 39.1325 56.6402 39.1571C56.596 39.1818 56.5453 39.192 56.495 39.1864C55.7204 39.1833 54.9457 39.1859 54.171 39.1859ZM54.171 31.7238C53.6141 31.7238 53.0567 31.7269 52.4998 31.7212C52.4518 31.7161 52.4035 31.7262 52.3616 31.7502C52.3197 31.7741 52.2864 31.8106 52.2664 31.8545C51.7116 32.8314 51.153 33.8062 50.5906 34.7789C50.5623 34.8179 50.5472 34.8648 50.5472 34.913C50.5472 34.9611 50.5623 35.008 50.5906 35.047C51.1488 35.9893 51.7035 36.9338 52.2545 37.8802C52.277 37.9287 52.3141 37.9689 52.3606 37.9952C52.4071 38.0215 52.4607 38.0326 52.5138 38.027C53.4471 38.0218 54.3836 38.0239 55.319 38.0239C55.4984 38.0239 55.6778 38.0192 55.8573 38.0239C55.9012 38.0303 55.946 38.0221 55.9848 38.0005C56.0236 37.979 56.0542 37.9453 56.0719 37.9046C56.1523 37.749 56.2456 37.6018 56.3312 37.4509C56.8093 36.6365 57.2875 35.8222 57.766 35.0081C57.7926 34.9731 57.8075 34.9305 57.8086 34.8865C57.8097 34.8425 57.797 34.7992 57.7722 34.7629C57.1987 33.786 56.6283 32.8072 56.061 31.8265C56.0441 31.7911 56.0166 31.7618 55.9823 31.7427C55.9481 31.7235 55.9087 31.7155 55.8697 31.7197C55.305 31.7259 54.7383 31.7238 54.1715 31.7238H54.171Z" fill="#373737"/>
<path d="M54.172 48.4403C53.3942 48.4403 52.6133 48.4403 51.8339 48.4403C51.7882 48.445 51.7421 48.4353 51.7021 48.4125C51.6621 48.3898 51.6303 48.3551 51.611 48.3133C50.8332 46.9683 50.0519 45.6256 49.2672 44.2854C49.2417 44.2501 49.228 44.2076 49.228 44.1641C49.228 44.1205 49.2417 44.0781 49.2672 44.0427C50.0502 42.6904 50.8306 41.3364 51.6084 39.9806C51.6285 39.9369 51.6619 39.9005 51.7037 39.8766C51.7455 39.8527 51.7938 39.8425 51.8417 39.8474C53.3973 39.8508 54.9515 39.8508 56.5043 39.8474C56.5523 39.8427 56.6005 39.8531 56.6422 39.8772C56.684 39.9013 56.7172 39.9378 56.7371 39.9817C57.5118 41.3336 58.2896 42.6835 59.0705 44.0313C59.0984 44.0705 59.1134 44.1173 59.1134 44.1654C59.1134 44.2134 59.0984 44.2603 59.0705 44.2994C58.2906 45.632 57.5142 46.9665 56.7413 48.3029C56.7196 48.3486 56.6843 48.3865 56.6401 48.4112C56.596 48.4359 56.5453 48.4463 56.495 48.4409C55.7213 48.4378 54.9467 48.4403 54.172 48.4403ZM54.172 40.9788C53.6146 40.9788 53.0571 40.9819 52.5002 40.9762C52.4523 40.9709 52.404 40.9809 52.362 41.0047C52.3201 41.0286 52.2868 41.065 52.2669 41.1089C51.7138 42.0858 51.1552 43.0608 50.591 44.0339C50.5631 44.0729 50.548 44.1197 50.548 44.1677C50.548 44.2157 50.5631 44.2625 50.591 44.3015C51.15 45.2438 51.7046 46.1882 52.255 47.1347C52.2774 47.1827 52.314 47.2226 52.36 47.2488C52.406 47.2751 52.4589 47.2865 52.5117 47.2814C53.445 47.2763 54.382 47.2814 55.3169 47.2814C55.4963 47.2814 55.6757 47.2763 55.8551 47.2814C55.899 47.2879 55.9439 47.2799 55.9828 47.2584C56.0216 47.237 56.0524 47.2033 56.0703 47.1627C56.1507 47.0071 56.2435 46.8594 56.3322 46.7085C56.8096 45.8941 57.2878 45.08 57.7669 44.2662C57.7933 44.231 57.8081 44.1884 57.8092 44.1443C57.8103 44.1003 57.7977 44.057 57.7732 44.0205C57.1993 43.0436 56.6289 42.0648 56.062 41.0841C56.0445 41.0492 56.0167 41.0206 55.9824 41.0021C55.9481 40.9835 55.9089 40.976 55.8702 40.9803C55.3065 40.9814 54.7398 40.9814 54.173 40.9814L54.172 40.9788Z" fill="#373737"/>
<path d="M46.0362 43.813C45.2585 43.813 44.4775 43.813 43.6982 43.813C43.6524 43.8177 43.6062 43.808 43.5661 43.7853C43.5261 43.7625 43.4941 43.7278 43.4747 43.686C42.6973 42.3413 41.9162 40.9986 41.1315 39.6581C41.106 39.6228 41.0923 39.5803 41.0923 39.5367C41.0923 39.4932 41.106 39.4507 41.1315 39.4154C41.9152 38.0631 42.6955 36.7092 43.4726 35.3538C43.4929 35.31 43.5264 35.2736 43.5682 35.2497C43.6101 35.2257 43.6585 35.2153 43.7065 35.22C45.2621 35.2235 46.8161 35.2235 48.3686 35.22C48.4167 35.2155 48.465 35.226 48.5068 35.2502C48.5486 35.2743 48.5819 35.3109 48.6019 35.3549C49.3766 36.7065 50.1544 38.0562 50.9353 39.404C50.9635 39.443 50.9787 39.4899 50.9787 39.538C50.9787 39.5862 50.9635 39.6331 50.9353 39.6721C50.1561 41.0061 49.3808 42.3411 48.6092 43.6772C48.5876 43.7229 48.5522 43.7608 48.5081 43.7855C48.4639 43.8102 48.4132 43.8206 48.3629 43.8151C47.5856 43.8099 46.8109 43.813 46.0362 43.813ZM46.0362 36.3509C45.4788 36.3509 44.9214 36.354 44.3645 36.3509C44.3166 36.3458 44.2683 36.3559 44.2264 36.3797C44.1846 36.4035 44.1512 36.4399 44.1312 36.4837C43.5763 37.4609 43.0177 38.4359 42.4553 39.4087C42.4271 39.4476 42.4119 39.4944 42.4119 39.5425C42.4119 39.5905 42.4271 39.6373 42.4553 39.6762C43.0136 40.6182 43.5682 41.5628 44.1192 42.51C44.1415 42.558 44.1782 42.5979 44.2242 42.6241C44.2702 42.6503 44.3232 42.6615 44.3759 42.6562C45.3093 42.6515 46.2457 42.6562 47.1812 42.6562C47.3606 42.6562 47.54 42.6515 47.7194 42.6562C47.7635 42.663 47.8087 42.6549 47.8478 42.6332C47.8868 42.6116 47.9175 42.5775 47.9351 42.5364C48.0155 42.3809 48.1088 42.2331 48.197 42.0827C48.675 41.2679 49.1533 40.4537 49.6317 39.6399C49.6583 39.6049 49.6733 39.5623 49.6744 39.5183C49.6755 39.4743 49.6627 39.431 49.6379 39.3947C49.0645 38.4178 48.4941 37.439 47.9268 36.4583C47.9099 36.4228 47.8824 36.3935 47.8482 36.3744C47.8139 36.3552 47.7745 36.3472 47.7355 36.3515C47.1703 36.353 46.6035 36.3509 46.0373 36.3509H46.0362Z" fill="#373737"/>
<path d="M46.0397 34.5915C45.2619 34.5915 44.481 34.5915 43.7016 34.5941C43.6558 34.5988 43.6096 34.589 43.5696 34.5663C43.5296 34.5435 43.4976 34.5088 43.4781 34.4671C42.7007 33.122 41.9196 31.7794 41.1349 30.4392C41.1094 30.4039 41.0957 30.3614 41.0957 30.3179C41.0957 30.2743 41.1094 30.2319 41.1349 30.1965C41.9186 28.8442 42.699 27.4902 43.4761 26.1344C43.4964 26.0907 43.5298 26.0543 43.5717 26.0305C43.6136 26.0066 43.6619 25.9963 43.7099 26.0012C45.2655 26.0046 46.8195 26.0046 48.372 26.0012C48.42 25.9965 48.4683 26.007 48.5101 26.0311C48.5519 26.0551 48.5852 26.0916 48.6053 26.1355C49.38 27.4871 50.1578 28.837 50.9387 30.1851C50.9669 30.2241 50.9821 30.271 50.9821 30.3192C50.9821 30.3673 50.9669 30.4142 50.9387 30.4532C50.1595 31.7858 49.3831 33.1203 48.6095 34.4567C48.5878 34.5024 48.5525 34.5403 48.5083 34.565C48.4642 34.5897 48.4135 34.6001 48.3632 34.5947C47.589 34.5889 46.8143 34.5915 46.0397 34.5915ZM46.0397 27.13C45.4822 27.13 44.9248 27.1331 44.3679 27.1274C44.32 27.122 44.2716 27.132 44.2297 27.1558C44.1877 27.1797 44.1545 27.2162 44.1346 27.2601C43.5798 28.2377 43.0211 29.2127 42.4587 30.1851C42.4305 30.224 42.4154 30.2709 42.4154 30.3189C42.4154 30.3669 42.4305 30.4138 42.4587 30.4527C43.017 31.395 43.5716 32.3394 44.1227 33.2859C44.145 33.3339 44.1817 33.3738 44.2277 33.4C44.2737 33.4263 44.3266 33.4377 44.3793 33.4326C45.3127 33.4275 46.2491 33.43 47.1846 33.43C47.364 33.43 47.5434 33.4254 47.7228 33.43C47.7667 33.4365 47.8114 33.4284 47.8502 33.4069C47.889 33.3855 47.9197 33.3519 47.9375 33.3113C48.0178 33.1557 48.1112 33.008 48.1967 32.8571C48.6793 32.044 49.1591 31.2305 49.6362 30.4164C49.6628 30.3812 49.6777 30.3386 49.6788 30.2945C49.6799 30.2504 49.6672 30.2071 49.6424 30.1706C49.0689 29.1941 48.4985 28.2153 47.9313 27.2342C47.9139 27.1993 47.8862 27.1707 47.852 27.1521C47.8177 27.1335 47.7786 27.126 47.7399 27.1305C47.1737 27.1315 46.6069 27.13 46.0407 27.13H46.0397Z" fill="#373737"/>
</svg>
