<svg width="128" height="128" viewBox="0 0 128 128" fill="none" xmlns="http://www.w3.org/2000/svg">
<path d="M95.2432 116.152C94.5788 116.152 94.0075 116.002 93.5293 115.702C93.0553 115.401 92.6893 114.989 92.4312 114.464C92.1772 113.935 92.0503 113.334 92.0503 112.661C92.0503 111.98 92.1836 111.375 92.4502 110.846C92.7168 110.317 93.085 109.902 93.5547 109.602C94.0244 109.297 94.564 109.145 95.1733 109.145C95.8081 109.145 96.3582 109.293 96.8237 109.589C97.2935 109.885 97.6574 110.298 97.9155 110.827C98.1737 111.351 98.3027 111.959 98.3027 112.648V113.01H93.3706C93.396 113.615 93.5695 114.104 93.8911 114.477C94.217 114.849 94.674 115.035 95.2622 115.035C95.7023 115.035 96.0641 114.936 96.3477 114.737C96.6312 114.538 96.8195 114.28 96.9126 113.962H98.2012C98.1208 114.394 97.9409 114.775 97.6616 115.105C97.3866 115.435 97.0396 115.693 96.6206 115.879C96.2059 116.061 95.7467 116.152 95.2432 116.152ZM93.3833 111.995H96.9951C96.9401 111.461 96.7518 111.04 96.4302 110.731C96.1086 110.418 95.6938 110.262 95.186 110.262C94.6782 110.262 94.2635 110.418 93.9419 110.731C93.6245 111.04 93.4383 111.461 93.3833 111.995Z" fill="black"/>
<path d="M88.4893 116.159C87.9772 116.159 87.516 116.076 87.1055 115.911C86.695 115.746 86.3628 115.501 86.1089 115.175C85.8592 114.849 85.7196 114.445 85.6899 113.962H87.0103C87.0864 114.716 87.571 115.092 88.4639 115.092C88.887 115.092 89.2214 115.006 89.4668 114.832C89.7165 114.659 89.8413 114.438 89.8413 114.172C89.8413 113.943 89.7524 113.761 89.5747 113.626C89.397 113.486 89.1642 113.385 88.8765 113.321L87.7656 113.074C86.4834 112.794 85.8423 112.155 85.8423 111.157C85.8423 110.564 86.0771 110.082 86.5469 109.709C87.0208 109.337 87.6408 109.151 88.4067 109.151C89.1642 109.151 89.7863 109.348 90.2729 109.741C90.7638 110.131 91.0177 110.664 91.0347 111.341H89.7524C89.7482 111.015 89.6255 110.746 89.3843 110.535C89.1431 110.319 88.8236 110.211 88.4258 110.211C88.0449 110.211 87.7424 110.3 87.5181 110.478C87.2938 110.655 87.1816 110.873 87.1816 111.131C87.1816 111.36 87.2663 111.544 87.4355 111.684C87.609 111.823 87.846 111.927 88.1465 111.995L89.2891 112.249C89.9408 112.392 90.4211 112.615 90.73 112.915C91.0389 113.215 91.1934 113.609 91.1934 114.096C91.1934 114.523 91.0749 114.891 90.8379 115.2C90.6051 115.505 90.2856 115.742 89.8794 115.911C89.4731 116.076 89.0098 116.159 88.4893 116.159Z" fill="black"/>
<path d="M83.1509 116V109.297H84.4902V116H83.1509ZM83.8174 108.142C83.5804 108.142 83.3794 108.063 83.2144 107.907C83.0535 107.746 82.9731 107.551 82.9731 107.323C82.9731 107.09 83.0535 106.895 83.2144 106.739C83.3794 106.578 83.5804 106.498 83.8174 106.498C84.0544 106.498 84.2554 106.578 84.4204 106.739C84.5854 106.895 84.668 107.09 84.668 107.323C84.668 107.551 84.5854 107.746 84.4204 107.907C84.2554 108.063 84.0544 108.142 83.8174 108.142Z" fill="black"/>
<path d="M72.0425 116V109.297H73.3438V110.42C73.5511 110.006 73.8325 109.693 74.188 109.481C74.5435 109.269 74.9285 109.164 75.3433 109.164C75.8003 109.164 76.2002 109.28 76.543 109.513C76.89 109.745 77.1333 110.042 77.2729 110.401C77.4549 110.037 77.73 109.741 78.0981 109.513C78.4705 109.28 78.9043 109.164 79.3994 109.164C79.8141 109.164 80.1908 109.255 80.5293 109.437C80.8678 109.618 81.1366 109.889 81.3354 110.249C81.5343 110.604 81.6338 111.051 81.6338 111.588V116H80.2881V111.703C80.2881 111.224 80.1548 110.877 79.8882 110.662C79.6216 110.446 79.3063 110.338 78.9424 110.338C78.4938 110.338 78.1405 110.478 77.8823 110.757C77.6242 111.032 77.4951 111.383 77.4951 111.811V116H76.1748V111.614C76.1748 111.229 76.05 110.92 75.8003 110.687C75.5549 110.454 75.2417 110.338 74.8608 110.338C74.4715 110.338 74.1266 110.475 73.8262 110.75C73.5299 111.026 73.3818 111.428 73.3818 111.957V116H72.0425Z" fill="black"/>
<path d="M67.8213 116.152C67.1569 116.152 66.5856 116.002 66.1074 115.702C65.6335 115.401 65.2674 114.989 65.0093 114.464C64.7554 113.935 64.6284 113.334 64.6284 112.661C64.6284 111.98 64.7617 111.375 65.0283 110.846C65.2949 110.317 65.6631 109.902 66.1328 109.602C66.6025 109.297 67.1421 109.145 67.7515 109.145C68.3862 109.145 68.9364 109.293 69.4019 109.589C69.8716 109.885 70.2355 110.298 70.4937 110.827C70.7518 111.351 70.8809 111.959 70.8809 112.648V113.01H65.9487C65.9741 113.615 66.1476 114.104 66.4692 114.477C66.7951 114.849 67.2521 115.035 67.8403 115.035C68.2804 115.035 68.6423 114.936 68.9258 114.737C69.2093 114.538 69.3976 114.28 69.4907 113.962H70.7793C70.6989 114.394 70.519 114.775 70.2397 115.105C69.9647 115.435 69.6177 115.693 69.1987 115.879C68.784 116.061 68.3249 116.152 67.8213 116.152ZM65.9614 111.995H69.5732C69.5182 111.461 69.3299 111.04 69.0083 110.731C68.6867 110.418 68.272 110.262 67.7642 110.262C67.2563 110.262 66.8416 110.418 66.52 110.731C66.2026 111.04 66.0164 111.461 65.9614 111.995Z" fill="black"/>
<path d="M60.6421 116V109.297H61.9243V110.382H61.9497C62.0724 110.014 62.265 109.729 62.5273 109.525C62.7939 109.318 63.141 109.214 63.5684 109.214C63.6699 109.214 63.763 109.219 63.8477 109.227C63.9323 109.236 64.0021 109.242 64.0571 109.246V110.497C64.0063 110.484 63.9154 110.471 63.7842 110.458C63.653 110.442 63.5091 110.433 63.3525 110.433C62.9759 110.433 62.6522 110.564 62.3813 110.827C62.1147 111.089 61.9814 111.493 61.9814 112.039V116H60.6421Z" fill="black"/>
<path d="M52.8154 116V106.542H56.3193C57.3307 106.542 58.1326 106.806 58.7251 107.335C59.3175 107.864 59.6138 108.582 59.6138 109.487C59.6138 110.092 59.4762 110.617 59.2012 111.062C58.9261 111.502 58.5389 111.842 58.0396 112.083C57.5402 112.32 56.952 112.439 56.2749 112.439H54.2246V116H52.8154ZM54.2246 111.22H56.2495C56.8589 111.22 57.3392 111.066 57.6904 110.757C58.0459 110.444 58.2236 110.021 58.2236 109.487C58.2236 108.954 58.0459 108.535 57.6904 108.23C57.3392 107.922 56.8589 107.767 56.2495 107.767H54.2246V111.22Z" fill="black"/>
<path d="M51.2222 111.595V112.775H47.0264V111.595H51.2222Z" fill="black"/>
<path d="M41.123 112.141V116H39.7837V109.297H41.0977V110.306C41.5547 109.544 42.2297 109.164 43.1226 109.164C43.5838 109.164 43.9964 109.265 44.3604 109.468C44.7285 109.667 45.0184 109.963 45.23 110.357C45.4416 110.75 45.5474 111.239 45.5474 111.823V116H44.208V111.988C44.208 111.451 44.0789 111.047 43.8208 110.776C43.5627 110.501 43.203 110.363 42.7417 110.363C42.2847 110.363 41.8996 110.505 41.5864 110.789C41.2775 111.068 41.123 111.519 41.123 112.141Z" fill="black"/>
<path d="M34.1533 116.152C33.3154 116.152 32.5685 115.947 31.9126 115.537C31.2567 115.126 30.7404 114.555 30.3638 113.823C29.9914 113.091 29.8052 112.242 29.8052 111.277C29.8052 110.308 29.9914 109.458 30.3638 108.726C30.7404 107.989 31.2567 107.416 31.9126 107.005C32.5685 106.595 33.3154 106.39 34.1533 106.39C34.9954 106.39 35.7445 106.595 36.4004 107.005C37.0563 107.416 37.5705 107.989 37.9429 108.726C38.3195 109.458 38.5078 110.308 38.5078 111.277C38.5078 112.242 38.3195 113.091 37.9429 113.823C37.5705 114.555 37.0563 115.126 36.4004 115.537C35.7445 115.947 34.9954 116.152 34.1533 116.152ZM34.1533 114.864C34.6992 114.864 35.1943 114.726 35.6387 114.451C36.083 114.172 36.4364 113.766 36.6987 113.232C36.9611 112.695 37.0923 112.043 37.0923 111.277C37.0923 110.507 36.9611 109.853 36.6987 109.316C36.4364 108.778 36.083 108.372 35.6387 108.097C35.1943 107.818 34.6992 107.678 34.1533 107.678C33.6117 107.678 33.1187 107.818 32.6743 108.097C32.23 108.372 31.8766 108.778 31.6143 109.316C31.3519 109.853 31.2207 110.507 31.2207 111.277C31.2207 112.043 31.3519 112.695 31.6143 113.232C31.8766 113.766 32.23 114.172 32.6743 114.451C33.1187 114.726 33.6117 114.864 34.1533 114.864Z" fill="black"/>
<path d="M28.9994 39.7647C30.5 29.2645 42 27.7645 46.5 30.2645C62 1.76452 100 13.7642 100 42.765C121.5 48.7646 114 76.7646 95.0001 75.2647C76.1668 75.4313 38.2007 75.2647 33.0013 75.2647C9.99936 74.7647 9.49993 43.7647 28.9994 39.7647Z" fill="white"/>
<path d="M97 74.2646V76.2646H33V74.2646H97Z" fill="black"/>
<path d="M14 57.2646C14 46.7712 22.5066 38.2646 33 38.2646V40.2646C23.6112 40.2646 16 47.8758 16 57.2646C16 66.6535 23.6112 74.2646 33 74.2646V76.2646C22.5066 76.2646 14 67.7581 14 57.2646Z" fill="black"/>
<path d="M41 28.2646C43.1457 28.2647 45.1728 28.7853 46.959 29.708L46.041 31.4854C44.532 30.7058 42.8189 30.2647 41 30.2646C35.2341 30.2646 30.5039 34.7016 30.0381 40.3467L28.0439 40.1826C28.5945 33.5088 34.1846 28.2646 41 28.2646Z" fill="black"/>
<path d="M112 58.7646C112 50.2042 105.06 43.2646 96.5 43.2646V41.2646C106.165 41.2646 114 49.0997 114 58.7646C114 68.4296 106.165 76.2646 96.5 76.2646V74.2646C105.06 74.2646 112 67.3251 112 58.7646Z" fill="black"/>
<path d="M98.999 42.2646C98.999 27.353 86.9107 15.2646 71.999 15.2646C59.9464 15.2647 49.7361 23.163 46.2656 34.0684L44.3594 33.4609C48.0864 21.75 59.0506 13.2647 71.999 13.2646C88.0153 13.2646 100.999 26.2484 100.999 42.2646C100.999 42.6111 100.993 42.9562 100.98 43.2998L98.9824 43.2295C98.9937 42.9093 98.999 42.5877 98.999 42.2646Z" fill="black"/>
<path d="M48.5459 48.7192C48.5459 45.4055 51.2322 42.7192 54.5459 42.7192H86.1831C89.4968 42.7192 92.1831 45.4055 92.1831 48.7192V79.2656C92.1831 82.5794 89.4968 85.2657 86.1831 85.2657H54.5459C51.2322 85.2657 48.5459 82.5794 48.5459 79.2657V48.7192Z" fill="#D7ECFF"/>
<path d="M86.1826 83.2661V85.2661H54.5459V83.2661H86.1826ZM90.1826 79.2661V48.7192C90.1826 46.5101 88.3918 44.7192 86.1826 44.7192H54.5459C52.4059 44.7192 50.658 46.3998 50.5508 48.5132L50.5459 48.7192V79.2661C50.5461 81.475 52.3369 83.2661 54.5459 83.2661V85.2661L54.2373 85.2583C51.1694 85.1029 48.7094 82.6426 48.5537 79.5747L48.5459 79.2661V48.7192C48.5459 45.4055 51.2322 42.7192 54.5459 42.7192H86.1826C89.4963 42.7192 92.1826 45.4055 92.1826 48.7192V79.2661L92.1748 79.5747C92.0191 82.6424 89.5599 85.1026 86.4922 85.2583L86.1826 85.2661V83.2661C88.3916 83.2661 90.1824 81.475 90.1826 79.2661Z" fill="#0487FF"/>
<path d="M42 43.2656C42 39.9519 44.6863 37.2656 48 37.2656H79.6372C82.9509 37.2656 85.6372 39.9519 85.6372 43.2656V73.812C85.6372 77.1257 82.9509 79.812 79.6372 79.812H48C44.6863 79.812 42 77.1257 42 73.812V43.2656Z" fill="#D7ECFF"/>
<path d="M79.6367 77.8125V79.8125H48V77.8125H79.6367ZM83.6367 73.8125V43.2656C83.6367 41.0565 81.8459 39.2656 79.6367 39.2656H48C45.86 39.2656 44.1121 40.9462 44.0049 43.0596L44 43.2656V73.8125C44.0002 76.0214 45.791 77.8125 48 77.8125V79.8125L47.6914 79.8047C44.6235 79.6493 42.1635 77.189 42.0078 74.1211L42 73.8125V43.2656C42 39.9519 44.6863 37.2656 48 37.2656H79.6367C82.9504 37.2656 85.6367 39.9519 85.6367 43.2656V73.8125L85.6289 74.1211C85.4732 77.1888 83.014 79.649 79.9463 79.8047L79.6367 79.8125V77.8125C81.8457 77.8125 83.6365 76.0214 83.6367 73.8125Z" fill="#0487FF"/>
<path d="M76.3515 49.2704C76.1773 48.7127 75.7593 48.2597 75.2365 47.9812L64.6098 42.8937C64.3313 42.7541 64.0176 42.7192 63.7387 42.7192C63.4599 42.7192 63.1465 42.7192 62.8677 42.789L52.241 47.9114C51.9791 48.0313 51.7483 48.2099 51.5668 48.4336C51.3852 48.6572 51.2577 48.9197 51.1942 49.2006L48.5797 60.6648C48.5282 60.9551 48.5356 61.2527 48.6015 61.5401C48.6674 61.8274 48.7904 62.0986 48.9632 62.3375L56.3156 71.432C56.7337 71.8505 57.3259 72.1299 57.9185 72.1639H69.6265C70.2537 72.2337 70.8459 71.9548 71.2294 71.432L78.5818 62.3375C78.9254 61.8518 79.0746 61.255 78.9999 60.6648L76.3515 49.2704V49.2704Z" fill="#326DE6"/>
<path d="M74.7113 60.2131C74.6764 60.2131 74.6415 60.2131 74.6415 60.1782C74.6415 60.1433 74.5717 60.1446 74.5007 60.1446C74.3614 60.1097 74.2222 60.1097 74.0826 60.1097C74.0111 60.1152 73.9394 60.1032 73.8735 60.0748H73.8386C73.4385 60.0389 73.0421 59.969 72.6538 59.8657C72.5983 59.8446 72.5479 59.8119 72.5059 59.7699C72.4639 59.7278 72.4313 59.6774 72.4102 59.6218L72.1314 59.552C72.2707 58.5417 72.2009 57.4961 71.9918 56.4858C71.7459 55.4725 71.3339 54.507 70.7724 53.6283L70.9828 53.4196V53.3847C70.9828 53.28 71.0177 53.1408 71.0871 53.071C71.4009 52.7925 71.7146 52.5834 72.0629 52.3731L72.2719 52.2687C72.4115 52.199 72.5159 52.1292 72.6551 52.0597C72.69 52.0248 72.7249 52.0248 72.7598 51.9899C72.7947 51.955 72.7598 51.955 72.7598 51.9201C73.0732 51.6749 73.143 51.2578 72.8991 50.9453C72.8397 50.8725 72.7655 50.8131 72.6815 50.771C72.5974 50.729 72.5054 50.7052 72.4115 50.7014C72.2345 50.7059 72.0635 50.767 71.9236 50.8755V50.8755L71.8887 50.9104C71.8538 50.9453 71.8189 50.9799 71.784 50.9799C71.6797 51.0846 71.575 51.1893 71.5052 51.2936C71.4706 51.3634 71.4009 51.3983 71.366 51.4332C71.1091 51.7244 70.8165 51.982 70.4949 52.1996C70.4251 52.2345 70.3553 52.2694 70.2858 52.2694C70.2509 52.2694 70.1812 52.2694 70.1463 52.2345H70.1117L69.8329 52.4086C69.554 52.1298 69.2403 51.8513 68.9618 51.5725C67.6723 50.5618 66.0694 49.9347 64.4316 49.7605L64.3968 49.4817V49.5166C64.2924 49.4468 64.2575 49.3424 64.2226 49.2377C64.2226 48.8545 64.2226 48.471 64.2924 48.0529V48.018C64.2924 47.9486 64.3273 47.8788 64.3273 47.809C64.3622 47.6697 64.3622 47.5305 64.3968 47.3909V47.1819C64.4316 46.8329 64.1528 46.484 63.8045 46.45C63.5955 46.4152 63.3864 46.5198 63.2123 46.694C63.1468 46.7574 63.0946 46.8332 63.0586 46.9169C63.0227 47.0007 63.0038 47.0907 63.0029 47.1819V47.1819V47.356C63.0029 47.4956 63.0378 47.6348 63.0727 47.7741C63.1011 47.84 63.1131 47.9119 63.1076 47.9835V48.018C63.1761 48.4006 63.1761 48.7838 63.1761 49.2006C63.1412 49.3053 63.1063 49.4097 63.0016 49.4795V49.5496L62.9671 49.8284C62.5836 49.863 62.2004 49.9328 61.7823 50.0025C60.1445 50.3515 58.646 51.2219 57.4961 52.4416L57.287 52.3024H57.2521C57.2176 52.3024 57.1827 52.3373 57.1129 52.3373C57.0431 52.3373 56.9736 52.3024 56.9038 52.2675C56.5894 52.0277 56.2978 51.7593 56.0328 51.4659V51.4659C55.9979 51.3964 55.9281 51.3615 55.8932 51.3266C55.7888 51.2219 55.719 51.1176 55.6147 51.0129C55.5798 50.978 55.5449 50.978 55.51 50.9434L55.4751 50.9085C55.3352 50.8 55.1643 50.7389 54.9872 50.7344C54.7782 50.7344 54.604 50.8038 54.4993 50.978C54.4007 51.13 54.3605 51.3126 54.3862 51.492C54.4119 51.6714 54.5016 51.8355 54.6389 51.9537C54.6435 51.9537 54.6481 51.9545 54.6524 51.9562C54.6566 51.9579 54.6605 51.9605 54.6638 51.9638C54.667 51.967 54.6696 51.9709 54.6713 51.9752C54.6731 51.9795 54.6739 51.984 54.6738 51.9886C54.6738 51.9886 54.7433 52.0584 54.7782 52.0584C54.902 52.1353 55.03 52.2051 55.1617 52.2675L55.3726 52.3728C55.7216 52.5821 56.0705 52.7912 56.3481 53.0707C56.4179 53.1404 56.4876 53.2797 56.4528 53.3844V53.3495L56.6618 53.5585C56.6269 53.6283 56.592 53.6632 56.5574 53.733C55.4764 55.4393 55.0237 57.4603 55.3371 59.4467L55.0583 59.5162C55.0584 59.5208 55.0575 59.5254 55.0558 59.5296C55.0541 59.5339 55.0515 59.5378 55.0482 59.541C55.045 59.5443 55.0411 59.5469 55.0368 59.5486C55.0326 59.5503 55.028 59.5512 55.0234 59.5511C54.9885 59.6557 54.8841 59.7252 54.7794 59.795C54.3924 59.9013 53.9963 59.9713 53.5962 60.0041V60.0041C53.5248 59.9986 53.453 60.0105 53.3872 60.0389C53.2479 60.0389 53.1087 60.0738 52.9691 60.0738C52.9342 60.0738 52.8993 60.1087 52.8298 60.1087C52.795 60.1087 52.795 60.1087 52.7601 60.1436C52.67 60.1581 52.5839 60.1905 52.5066 60.239C52.4294 60.2875 52.3627 60.351 52.3105 60.4257C52.2583 60.5005 52.2217 60.5849 52.2028 60.6741C52.1839 60.7633 52.1831 60.8554 52.2005 60.9449V60.9449C52.2703 61.2586 52.584 61.4677 52.8984 61.4328C52.9587 61.4382 53.0192 61.4261 53.0728 61.3979V61.3979C53.1077 61.3979 53.1077 61.3979 53.1077 61.363C53.1077 61.3281 53.2121 61.363 53.247 61.363C53.3862 61.3281 53.5258 61.2586 53.6302 61.2237C53.7 61.1889 53.7698 61.154 53.8392 61.154H53.8741C54.2464 61.0129 54.6313 60.9079 55.0237 60.8406H55.0586C55.1616 60.8377 55.2616 60.8751 55.3374 60.9449C55.342 60.9448 55.3466 60.9457 55.3509 60.9474C55.3552 60.9491 55.359 60.9517 55.3623 60.9549C55.3655 60.9582 55.3681 60.9621 55.3698 60.9664C55.3716 60.9706 55.3724 60.9752 55.3723 60.9798V60.9798L55.6857 60.9449C56.2085 62.5478 57.1842 63.9765 58.5432 65.0218C58.8569 65.2657 59.1354 65.4748 59.4841 65.6492L59.3099 65.8932C59.3098 65.8977 59.3107 65.9023 59.3124 65.9065C59.3141 65.9107 59.3166 65.9146 59.3198 65.9178C59.3231 65.921 59.3269 65.9236 59.3311 65.9253C59.3354 65.927 59.3399 65.9278 59.3445 65.9277C59.4143 66.0324 59.4143 66.1717 59.3794 66.2767C59.2401 66.6256 59.0304 66.9746 58.822 67.2873V67.3219C58.7871 67.3917 58.7522 67.4266 58.6825 67.4964C58.6127 67.5662 58.5432 67.7054 58.4385 67.8453C58.4036 67.8802 58.4036 67.9151 58.369 67.95C58.3691 67.9546 58.3683 67.9592 58.3666 67.9634C58.3648 67.9677 58.3623 67.9715 58.359 67.9748C58.3557 67.978 58.3519 67.9805 58.3476 67.9822C58.3433 67.9839 58.3387 67.9847 58.3342 67.9846C58.16 68.3335 58.2993 68.7513 58.613 68.9254C58.6889 68.9646 58.7718 68.9884 58.8569 68.9952C59.1354 68.9952 59.3794 68.8211 59.5189 68.5771C59.5188 68.5725 59.5196 68.568 59.5213 68.5637C59.523 68.5594 59.5255 68.5555 59.5288 68.5523C59.532 68.549 59.5359 68.5464 59.5401 68.5447C59.5444 68.543 59.5489 68.5422 59.5535 68.5422C59.5535 68.5073 59.5884 68.4725 59.6233 68.4379C59.6582 68.2983 59.728 68.1939 59.7629 68.0544L59.8324 67.8453C59.937 67.4621 60.1112 67.1135 60.2853 66.7652C60.3528 66.6667 60.4508 66.5933 60.5642 66.5561C60.5991 66.5561 60.5991 66.5561 60.5991 66.5213L60.7383 66.2424C61.7141 66.6256 62.7247 66.8001 63.7699 66.8001C64.405 66.8044 65.0376 66.722 65.6504 66.5552C66.0336 66.4854 66.4171 66.3462 66.7654 66.2415L66.9047 66.4854C66.9395 66.4854 66.9395 66.4854 66.9395 66.5203C67.053 66.5573 67.151 66.6308 67.2184 66.7293C67.3925 67.0783 67.5673 67.4272 67.6714 67.8079V67.8428L67.7411 68.0518C67.776 68.1914 67.8109 68.3307 67.8804 68.435C67.9153 68.4699 67.9153 68.5048 67.9502 68.5397C67.9501 68.5443 67.9509 68.5489 67.9527 68.5532C67.9544 68.5574 67.957 68.5613 67.9602 68.5646C67.9635 68.5678 67.9674 68.5704 67.9716 68.5721C67.9759 68.5738 67.9805 68.5747 67.9851 68.5746V68.5746C68.1247 68.8201 68.3692 68.9949 68.6481 68.9949C68.7524 68.9949 68.8222 68.96 68.9269 68.9251C69.0662 68.8556 69.2054 68.7161 69.2403 68.5419C69.281 68.3681 69.2689 68.186 69.2054 68.0191V68.0191C69.2055 68.0146 69.2047 68.01 69.203 68.0057C69.2014 68.0014 69.1988 67.9976 69.1956 67.9943C69.1924 67.991 69.1885 67.9885 69.1842 67.9867C69.18 67.985 69.1754 67.9842 69.1708 67.9843C69.1708 67.9497 69.1359 67.9148 69.101 67.8799C69.0402 67.7505 68.9577 67.6325 68.8571 67.531C68.8222 67.4615 68.7873 67.4266 68.7179 67.3568V67.2873C68.4739 66.9736 68.2994 66.625 68.1602 66.2767C68.1253 66.172 68.1253 66.0327 68.1951 65.9277C68.195 65.9232 68.1958 65.9186 68.1976 65.9143C68.1993 65.9101 68.2019 65.9062 68.2051 65.903C68.2084 65.8998 68.2123 65.8972 68.2165 65.8955C68.2208 65.8938 68.2254 65.893 68.23 65.8932V65.8932L68.1253 65.6143C69.9017 64.5339 71.2616 62.8615 71.8887 60.8751L72.1676 60.91C72.1722 60.9101 72.1767 60.9093 72.181 60.9075C72.1852 60.9058 72.1891 60.9032 72.1923 60.9C72.1955 60.8967 72.1981 60.8928 72.1998 60.8886C72.2015 60.8843 72.2023 60.8797 72.2021 60.8751C72.278 60.8055 72.378 60.7681 72.481 60.7708H72.5159C72.8969 60.8382 73.2704 60.9432 73.6309 61.0842H73.6658C73.7355 61.1191 73.805 61.154 73.8748 61.154C74.0144 61.2237 74.1187 61.2935 74.258 61.3281C74.2929 61.3281 74.3278 61.363 74.3976 61.363C74.4325 61.363 74.4325 61.363 74.4674 61.3979C74.5208 61.4261 74.5813 61.4382 74.6415 61.4328C74.7933 61.4307 74.941 61.3831 75.0654 61.2961C75.1898 61.2091 75.2853 61.0868 75.3394 60.9449C75.3252 60.7724 75.2569 60.6088 75.1443 60.4774C75.0317 60.346 74.8805 60.2535 74.7123 60.2131H74.7113ZM64.6407 59.1346L63.6998 59.5875L62.7593 59.1346L62.5154 58.1239L63.1761 57.2861H64.2229L64.8849 58.1223L64.6407 59.1346ZM70.3207 56.8696C70.4883 57.5886 70.5354 58.3304 70.46 59.0648L67.1495 58.1223C66.8361 58.0529 66.662 57.7391 66.7315 57.4245C66.7566 57.3326 66.8046 57.2487 66.871 57.1805L69.4842 54.8112C69.8694 55.4486 70.1517 56.1428 70.3207 56.8681V56.8696ZM68.439 53.5227L65.5816 55.5449C65.3376 55.6842 64.9893 55.6493 64.8152 55.4054C64.7811 55.3747 64.7541 55.337 64.7361 55.2949C64.718 55.2528 64.7093 55.2072 64.7105 55.1614L64.5014 51.6422C66.0345 51.8164 67.3935 52.4784 68.439 53.5236V53.5227ZM62.1318 51.7463L62.8297 51.607L62.6556 55.0916C62.6556 55.4051 62.3767 55.649 62.0633 55.649C61.9586 55.649 61.8889 55.6141 61.7845 55.5792L58.8921 53.5233C59.7971 52.6516 60.9125 52.0238 62.1318 51.7457V51.7463ZM57.8812 54.8128L60.4598 57.1126C60.7034 57.3217 60.7383 57.67 60.5293 57.9139C60.4598 58.0186 60.39 58.0535 60.2504 58.0884L56.8702 59.0632C56.7674 57.5764 57.12 56.0936 57.8809 54.8122L57.8812 54.8128ZM57.2883 60.701L60.738 60.1087C61.0168 60.1087 61.2957 60.2829 61.3306 60.5617C61.3655 60.6661 61.3655 60.8057 61.2957 60.9107L59.9722 64.1158C58.7519 63.3145 57.7762 62.0948 57.2883 60.701ZM65.1984 65.0218C64.7105 65.1265 64.2226 65.1962 63.6998 65.1962C62.9683 65.1962 62.2016 65.0567 61.5047 64.8473L63.2123 61.7462C63.3864 61.5372 63.6653 61.4674 63.9101 61.6066C64.0113 61.6779 64.1047 61.7597 64.1887 61.8506L65.8613 64.8822C65.6378 64.9156 65.4164 64.9622 65.1984 65.0218V65.0218ZM69.449 61.9905C68.9179 62.8353 68.2034 63.5498 67.3586 64.0809L65.9993 60.8057C65.9299 60.5268 66.0691 60.248 66.313 60.1436C66.4177 60.1087 66.5221 60.0738 66.6268 60.0738L70.1114 60.6661C69.9372 61.154 69.7282 61.6069 69.4493 61.9905H69.449Z" fill="white"/>
</svg>
