<svg width="128" height="128" viewBox="0 0 128 128" fill="none" xmlns="http://www.w3.org/2000/svg">
<path d="M28.9994 54.5C30.5 43.9999 42 42.4999 46.5 44.9999C62 16.4999 100 28.4996 100 57.5004C121.5 63.5 114 91.5 95.0001 90C76.1668 90.1667 38.2007 90 33.0013 90C9.99936 89.5 9.49993 58.5 28.9994 54.5Z" fill="white"/>
<path d="M97 89V91H33V89H97Z" fill="black"/>
<path d="M14 72C14 61.5066 22.5066 53 33 53V55C23.6112 55 16 62.6112 16 72C16 81.3888 23.6112 89 33 89V91C22.5066 91 14 82.4934 14 72Z" fill="black"/>
<path d="M41 43C43.1457 43 45.1728 43.5206 46.959 44.4434L46.041 46.2207C44.532 45.4411 42.8189 45 41 45C35.2341 45 30.5039 49.4369 30.0381 55.082L28.0439 54.918C28.5945 48.2441 34.1846 43 41 43Z" fill="black"/>
<path d="M112 73.5C112 64.9396 105.06 58 96.5 58V56C106.165 56 114 63.835 114 73.5C114 83.165 106.165 91 96.5 91V89C105.06 89 112 82.0604 112 73.5Z" fill="black"/>
<path d="M98.999 57C98.999 42.0883 86.9107 30 71.999 30C59.9464 30 49.7361 37.8984 46.2656 48.8037L44.3594 48.1963C48.0864 36.4853 59.0506 28 71.999 28C88.0153 28 100.999 40.9837 100.999 57C100.999 57.3464 100.993 57.6916 100.98 58.0352L98.9824 57.9648C98.9937 57.6447 98.999 57.323 98.999 57Z" fill="black"/>
<path d="M48.5459 63.4546C48.5459 60.1409 51.2322 57.4546 54.5459 57.4546H86.1831C89.4968 57.4546 92.1831 60.1409 92.1831 63.4546V94.001C92.1831 97.3147 89.4968 100.001 86.1831 100.001H54.5459C51.2322 100.001 48.5459 97.3147 48.5459 94.001V63.4546Z" fill="#D7ECFF"/>
<path d="M86.1826 98.0015V100.001H54.5459V98.0015H86.1826ZM90.1826 94.0015V63.4546C90.1826 61.2454 88.3918 59.4546 86.1826 59.4546H54.5459C52.4059 59.4546 50.658 61.1351 50.5508 63.2485L50.5459 63.4546V94.0015C50.5461 96.2104 52.3369 98.0015 54.5459 98.0015V100.001L54.2373 99.9937C51.1694 99.8382 48.7094 97.3779 48.5537 94.3101L48.5459 94.0015V63.4546C48.5459 60.1409 51.2322 57.4546 54.5459 57.4546H86.1826C89.4963 57.4546 92.1826 60.1409 92.1826 63.4546V94.0015L92.1748 94.3101C92.0191 97.3777 89.5599 99.838 86.4922 99.9937L86.1826 100.001V98.0015C88.3916 98.0015 90.1824 96.2104 90.1826 94.0015Z" fill="#0487FF"/>
<path d="M42 58.001C42 54.6873 44.6863 52.001 48 52.001H79.6372C82.9509 52.001 85.6372 54.6873 85.6372 58.001V88.5474C85.6372 91.8611 82.9509 94.5474 79.6372 94.5474H48C44.6863 94.5474 42 91.8611 42 88.5474V58.001Z" fill="#D7ECFF"/>
<path d="M79.6367 92.5479V94.5479H48V92.5479H79.6367ZM83.6367 88.5479V58.001C83.6367 55.7918 81.8459 54.001 79.6367 54.001H48C45.86 54.001 44.1121 55.6815 44.0049 57.7949L44 58.001V88.5479C44.0002 90.7568 45.791 92.5479 48 92.5479V94.5479L47.6914 94.54C44.6235 94.3846 42.1635 91.9243 42.0078 88.8564L42 88.5479V58.001C42 54.6873 44.6863 52.001 48 52.001H79.6367C82.9504 52.001 85.6367 54.6873 85.6367 58.001V88.5479L85.6289 88.8564C85.4732 91.9241 83.014 94.3844 79.9463 94.54L79.6367 94.5479V92.5479C81.8457 92.5479 83.6365 90.7568 83.6367 88.5479Z" fill="#0487FF"/>
<path d="M76.3515 64.0057C76.1773 63.4481 75.7593 62.9951 75.2365 62.7166L64.6098 57.6291C64.3313 57.4895 64.0176 57.4546 63.7387 57.4546C63.4599 57.4546 63.1465 57.4546 62.8677 57.5244L52.241 62.6468C51.9791 62.7666 51.7483 62.9453 51.5668 63.1689C51.3852 63.3925 51.2577 63.655 51.1942 63.9359L48.5797 75.4001C48.5282 75.6904 48.5356 75.9881 48.6015 76.2754C48.6674 76.5628 48.7904 76.834 48.9632 77.0728L56.3156 86.1674C56.7337 86.5858 57.3259 86.8653 57.9185 86.8992H69.6265C70.2537 86.969 70.8459 86.6902 71.2294 86.1674L78.5818 77.0728C78.9254 76.5871 79.0746 75.9904 78.9999 75.4001L76.3515 64.0057V64.0057Z" fill="#326DE6"/>
<path d="M74.7113 74.9484C74.6764 74.9484 74.6415 74.9484 74.6415 74.9136C74.6415 74.8787 74.5717 74.8799 74.5007 74.8799C74.3614 74.845 74.2222 74.845 74.0826 74.845C74.0111 74.8505 73.9394 74.8386 73.8735 74.8101H73.8386C73.4385 74.7742 73.0421 74.7043 72.6538 74.6011C72.5983 74.5799 72.5479 74.5473 72.5059 74.5052C72.4639 74.4632 72.4313 74.4127 72.4102 74.3572L72.1314 74.2874C72.2707 73.277 72.2009 72.2315 71.9918 71.2212C71.7459 70.2079 71.3339 69.2423 70.7724 68.3637L70.9828 68.155V68.1201C70.9828 68.0154 71.0177 67.8761 71.0871 67.8063C71.4009 67.5278 71.7146 67.3188 72.0629 67.1085L72.2719 67.0041C72.4115 66.9343 72.5159 66.8645 72.6551 66.795C72.69 66.7602 72.7249 66.7602 72.7598 66.7253C72.7947 66.6904 72.7598 66.6904 72.7598 66.6555C73.0732 66.4103 73.143 65.9931 72.8991 65.6807C72.8397 65.6078 72.7655 65.5484 72.6815 65.5064C72.5974 65.4643 72.5054 65.4406 72.4115 65.4367C72.2345 65.4413 72.0635 65.5023 71.9236 65.6109V65.6109L71.8887 65.6458C71.8538 65.6807 71.8189 65.7152 71.784 65.7152C71.6797 65.8199 71.575 65.9246 71.5052 66.029C71.4706 66.0988 71.4009 66.1337 71.366 66.1685C71.1091 66.4598 70.8165 66.7173 70.4949 66.9349C70.4251 66.9698 70.3553 67.0047 70.2858 67.0047C70.2509 67.0047 70.1812 67.0047 70.1463 66.9698H70.1117L69.8329 67.144C69.554 66.8652 69.2403 66.5866 68.9618 66.3078C67.6723 65.2972 66.0694 64.67 64.4316 64.4959L64.3968 64.217V64.2519C64.2924 64.1821 64.2575 64.0778 64.2226 63.9731C64.2226 63.5899 64.2226 63.2064 64.2924 62.7883V62.7534C64.2924 62.6839 64.3273 62.6141 64.3273 62.5444C64.3622 62.4051 64.3622 62.2658 64.3968 62.1263V61.9172C64.4316 61.5683 64.1528 61.2193 63.8045 61.1854C63.5955 61.1505 63.3864 61.2552 63.2123 61.4293C63.1468 61.4927 63.0946 61.5685 63.0586 61.6523C63.0227 61.736 63.0038 61.8261 63.0029 61.9172V61.9172V62.0914C63.0029 62.2309 63.0378 62.3702 63.0727 62.5095C63.1011 62.5754 63.1131 62.6472 63.1076 62.7188V62.7534C63.1761 63.136 63.1761 63.5192 63.1761 63.936C63.1412 64.0407 63.1063 64.145 63.0016 64.2148V64.2849L62.9671 64.5637C62.5836 64.5983 62.2004 64.6681 61.7823 64.7379C60.1445 65.0868 58.646 65.9573 57.4961 67.177L57.287 67.0377H57.2521C57.2176 67.0377 57.1827 67.0726 57.1129 67.0726C57.0431 67.0726 56.9736 67.0377 56.9038 67.0028C56.5894 66.763 56.2978 66.4947 56.0328 66.2012V66.2012C55.9979 66.1317 55.9281 66.0969 55.8932 66.062C55.7888 65.9573 55.719 65.8529 55.6147 65.7482C55.5798 65.7133 55.5449 65.7133 55.51 65.6788L55.4751 65.6439C55.3352 65.5353 55.1643 65.4743 54.9872 65.4697C54.7782 65.4697 54.604 65.5392 54.4993 65.7133C54.4007 65.8654 54.3605 66.048 54.3862 66.2274C54.4119 66.4068 54.5016 66.5708 54.6389 66.6891C54.6435 66.689 54.6481 66.6899 54.6524 66.6916C54.6566 66.6933 54.6605 66.6959 54.6638 66.6991C54.667 66.7024 54.6696 66.7063 54.6713 66.7105C54.6731 66.7148 54.6739 66.7194 54.6738 66.724C54.6738 66.724 54.7433 66.7938 54.7782 66.7938C54.902 66.8706 55.03 66.9404 55.1617 67.0028L55.3726 67.1081C55.7216 67.3175 56.0705 67.5265 56.3481 67.806C56.4179 67.8758 56.4876 68.0151 56.4528 68.1197V68.0848L56.6618 68.2939C56.6269 68.3637 56.592 68.3986 56.5574 68.4684C55.4764 70.1747 55.0237 72.1956 55.3371 74.1821L55.0583 74.2515C55.0584 74.2561 55.0575 74.2607 55.0558 74.265C55.0541 74.2693 55.0515 74.2731 55.0482 74.2764C55.045 74.2796 55.0411 74.2822 55.0368 74.2839C55.0326 74.2857 55.028 74.2865 55.0234 74.2864C54.9885 74.3911 54.8841 74.4606 54.7794 74.5304C54.3924 74.6367 53.9963 74.7066 53.5962 74.7394V74.7394C53.5248 74.7339 53.453 74.7459 53.3872 74.7743C53.2479 74.7743 53.1087 74.8092 52.9691 74.8092C52.9342 74.8092 52.8993 74.8441 52.8298 74.8441C52.795 74.8441 52.795 74.8441 52.7601 74.879C52.67 74.8935 52.5839 74.9259 52.5066 74.9744C52.4294 75.0228 52.3627 75.0863 52.3105 75.1611C52.2583 75.2358 52.2217 75.3203 52.2028 75.4095C52.1839 75.4987 52.1831 75.5908 52.2005 75.6803V75.6803C52.2703 75.994 52.584 76.203 52.8984 76.1681C52.9587 76.1735 53.0192 76.1614 53.0728 76.1333V76.1333C53.1077 76.1333 53.1077 76.1332 53.1077 76.0984C53.1077 76.0635 53.2121 76.0984 53.247 76.0984C53.3862 76.0635 53.5258 75.994 53.6302 75.9591C53.7 75.9242 53.7698 75.8893 53.8392 75.8893H53.8741C54.2464 75.7482 54.6313 75.6433 55.0237 75.5759H55.0586C55.1616 75.573 55.2616 75.6105 55.3374 75.6803C55.342 75.6802 55.3466 75.681 55.3509 75.6827C55.3552 75.6845 55.359 75.687 55.3623 75.6903C55.3655 75.6936 55.3681 75.6974 55.3698 75.7017C55.3716 75.706 55.3724 75.7106 55.3723 75.7152V75.7152L55.6857 75.6803C56.2085 77.2832 57.1842 78.7119 58.5432 79.7571C58.8569 80.0011 59.1354 80.2101 59.4841 80.3846L59.3099 80.6285C59.3098 80.6331 59.3107 80.6376 59.3124 80.6419C59.3141 80.6461 59.3166 80.6499 59.3198 80.6532C59.3231 80.6564 59.3269 80.6589 59.3311 80.6606C59.3354 80.6623 59.3399 80.6632 59.3445 80.6631C59.4143 80.7678 59.4143 80.907 59.3794 81.012C59.2401 81.361 59.0304 81.7099 58.822 82.0227V82.0573C58.7871 82.127 58.7522 82.1619 58.6825 82.2317C58.6127 82.3015 58.5432 82.4408 58.4385 82.5807C58.4036 82.6156 58.4036 82.6505 58.369 82.6853C58.3691 82.6899 58.3683 82.6945 58.3666 82.6988C58.3648 82.703 58.3623 82.7069 58.359 82.7101C58.3557 82.7133 58.3519 82.7159 58.3476 82.7176C58.3433 82.7193 58.3387 82.7201 58.3342 82.7199C58.16 83.0689 58.2993 83.4866 58.613 83.6608C58.6889 83.7 58.7718 83.7237 58.8569 83.7306C59.1354 83.7306 59.3794 83.5564 59.5189 83.3125C59.5188 83.3079 59.5196 83.3033 59.5213 83.2991C59.523 83.2948 59.5255 83.2909 59.5288 83.2876C59.532 83.2844 59.5359 83.2818 59.5401 83.2801C59.5444 83.2783 59.5489 83.2775 59.5535 83.2776C59.5535 83.2427 59.5884 83.2078 59.6233 83.1732C59.6582 83.0337 59.728 82.9293 59.7629 82.7897L59.8324 82.5807C59.937 82.1975 60.1112 81.8488 60.2853 81.5005C60.3528 81.4021 60.4508 81.3286 60.5642 81.2915C60.5991 81.2915 60.5991 81.2915 60.5991 81.2566L60.7383 80.9778C61.7141 81.361 62.7247 81.5354 63.7699 81.5354C64.405 81.5397 65.0376 81.4573 65.6504 81.2906C66.0336 81.2208 66.4171 81.0815 66.7654 80.9768L66.9047 81.2208C66.9395 81.2208 66.9395 81.2208 66.9395 81.2557C67.053 81.2927 67.151 81.3662 67.2184 81.4647C67.3925 81.8136 67.5673 82.1626 67.6714 82.5432V82.5781L67.7411 82.7872C67.776 82.9267 67.8109 83.066 67.8804 83.1704C67.9153 83.2053 67.9153 83.2402 67.9502 83.2751C67.9501 83.2797 67.9509 83.2842 67.9527 83.2885C67.9544 83.2928 67.957 83.2967 67.9602 83.2999C67.9635 83.3032 67.9674 83.3057 67.9716 83.3075C67.9759 83.3092 67.9805 83.31 67.9851 83.3099V83.3099C68.1247 83.5555 68.3692 83.7303 68.6481 83.7303C68.7524 83.7303 68.8222 83.6954 68.9269 83.6605C69.0662 83.591 69.2054 83.4514 69.2403 83.2773C69.281 83.1034 69.2689 82.9214 69.2054 82.7545V82.7545C69.2055 82.7499 69.2047 82.7453 69.203 82.7411C69.2014 82.7368 69.1988 82.7329 69.1956 82.7297C69.1924 82.7264 69.1885 82.7238 69.1842 82.7221C69.18 82.7204 69.1754 82.7195 69.1708 82.7196C69.1708 82.685 69.1359 82.6501 69.101 82.6152C69.0402 82.4859 68.9577 82.3679 68.8571 82.2663C68.8222 82.1968 68.7873 82.1619 68.7179 82.0922V82.0227C68.4739 81.709 68.2994 81.3603 68.1602 81.012C68.1253 80.9074 68.1253 80.7681 68.1951 80.6631C68.195 80.6585 68.1958 80.6539 68.1976 80.6497C68.1993 80.6454 68.2019 80.6416 68.2051 80.6383C68.2084 80.6351 68.2123 80.6326 68.2165 80.6309C68.2208 80.6292 68.2254 80.6284 68.23 80.6285V80.6285L68.1253 80.3497C69.9017 79.2692 71.2616 77.5969 71.8887 75.6105L72.1676 75.6454C72.1722 75.6455 72.1767 75.6446 72.181 75.6429C72.1852 75.6412 72.1891 75.6386 72.1923 75.6353C72.1955 75.6321 72.1981 75.6282 72.1998 75.6239C72.2015 75.6196 72.2023 75.6151 72.2021 75.6105C72.278 75.5409 72.378 75.5034 72.481 75.5061H72.5159C72.8969 75.5736 73.2704 75.6786 73.6309 75.8195H73.6658C73.7355 75.8544 73.805 75.8893 73.8748 75.8893C74.0144 75.9591 74.1187 76.0289 74.258 76.0635C74.2929 76.0635 74.3278 76.0984 74.3976 76.0984C74.4325 76.0984 74.4325 76.0984 74.4674 76.1333C74.5208 76.1614 74.5813 76.1736 74.6415 76.1681C74.7933 76.166 74.941 76.1184 75.0654 76.0314C75.1898 75.9444 75.2853 75.8221 75.3394 75.6803C75.3252 75.5078 75.2569 75.3442 75.1443 75.2128C75.0317 75.0814 74.8805 74.9889 74.7123 74.9484H74.7113ZM64.6407 73.8699L63.6998 74.3229L62.7593 73.8699L62.5154 72.8593L63.1761 72.0215H64.2229L64.8849 72.8577L64.6407 73.8699ZM70.3207 71.605C70.4883 72.324 70.5354 73.0658 70.46 73.8001L67.1495 72.8577C66.8361 72.7882 66.662 72.4745 66.7315 72.1598C66.7566 72.068 66.8046 71.9841 66.871 71.9159L69.4842 69.5466C69.8694 70.184 70.1517 70.8781 70.3207 71.6034V71.605ZM68.439 68.258L65.5816 70.2803C65.3376 70.4196 64.9893 70.3847 64.8152 70.1407C64.7811 70.11 64.7541 70.0723 64.7361 70.0302C64.718 69.9881 64.7093 69.9426 64.7105 69.8968L64.5014 66.3776C66.0345 66.5517 67.3935 67.2138 68.439 68.259V68.258ZM62.1318 66.4816L62.8297 66.3424L62.6556 69.827C62.6556 70.1404 62.3767 70.3843 62.0633 70.3843C61.9586 70.3843 61.8889 70.3495 61.7845 70.3146L58.8921 68.2587C59.7971 67.387 60.9125 66.7592 62.1318 66.481V66.4816ZM57.8812 69.5482L60.4598 71.848C60.7034 72.057 60.7383 72.4053 60.5293 72.6493C60.4598 72.7539 60.39 72.7888 60.2504 72.8237L56.8702 73.7985C56.7674 72.3118 57.12 70.829 57.8809 69.5475L57.8812 69.5482ZM57.2883 75.4363L60.738 74.8441C61.0168 74.8441 61.2957 75.0182 61.3306 75.2971C61.3655 75.4014 61.3655 75.541 61.2957 75.646L59.9722 78.8512C58.7519 78.0499 57.7762 76.8302 57.2883 75.4363ZM65.1984 79.7571C64.7105 79.8618 64.2226 79.9316 63.6998 79.9316C62.9683 79.9316 62.2016 79.792 61.5047 79.5827L63.2123 76.4816C63.3864 76.2725 63.6653 76.2027 63.9101 76.342C64.0113 76.4133 64.1047 76.495 64.1887 76.5859L65.8613 79.6176C65.6378 79.6509 65.4164 79.6975 65.1984 79.7571V79.7571ZM69.449 76.7258C68.9179 77.5707 68.2034 78.2851 67.3586 78.8163L65.9993 75.541C65.9299 75.2622 66.0691 74.9833 66.313 74.879C66.4177 74.8441 66.5221 74.8092 66.6268 74.8092L70.1114 75.4014C69.9372 75.8893 69.7282 76.3423 69.4493 76.7258H69.449Z" fill="white"/>
</svg>
