<svg width="128" height="128" viewBox="0 0 128 128" fill="none" xmlns="http://www.w3.org/2000/svg">
<path d="M28.9992 52.7648C30.4998 42.2646 41.9998 40.7646 46.4998 43.2646C61.9998 14.7646 99.9998 26.7644 99.9998 55.7651C121.5 61.7648 114 89.7648 94.9999 88.2648C76.1666 88.4315 38.2004 88.2648 33.001 88.2648C9.99912 87.7648 9.49969 56.7648 28.9992 52.7648Z" fill="white"/>
<path d="M96 87.2648V89.2648H32V87.2648H96Z" fill="black"/>
<path d="M13 70.2648C13 59.7714 21.5066 51.2648 32 51.2648V53.2648C22.6112 53.2648 15 60.876 15 70.2648C15 79.6537 22.6112 87.2648 32 87.2648V89.2648C21.5066 89.2648 13 80.7582 13 70.2648Z" fill="black"/>
<path d="M40 41.2648C42.1457 41.2648 44.1728 41.7855 45.959 42.7082L45.041 44.4855C43.532 43.706 41.8189 43.2648 40 43.2648C34.2341 43.2648 29.5039 47.7018 29.0381 53.3469L27.0439 53.1828C27.5945 46.5089 33.1846 41.2648 40 41.2648Z" fill="black"/>
<path d="M111 71.7648C111 63.2044 104.06 56.2648 95.5 56.2648V54.2648C105.165 54.2648 113 62.0998 113 71.7648C113 81.4298 105.165 89.2648 95.5 89.2648V87.2648C104.06 87.2648 111 80.3252 111 71.7648Z" fill="black"/>
<path d="M97.999 55.2648C97.999 40.3531 85.9107 28.2648 70.999 28.2648C58.9464 28.2648 48.7361 36.1632 45.2656 47.0685L43.3594 46.4611C47.0864 34.7502 58.0506 26.2648 70.999 26.2648C87.0153 26.2648 99.999 39.2486 99.999 55.2648C99.999 55.6113 99.9925 55.9564 99.9805 56.3L97.9824 56.2297C97.9937 55.9095 97.999 55.5878 97.999 55.2648Z" fill="black"/>
<g filter="url(#filter0_d_194_1121)">
<path d="M53 67.2648C53 63.9511 55.6863 61.2648 59 61.2648H89C92.3137 61.2648 95 63.9511 95 67.2648V94.2648C95 97.5785 92.3137 100.265 89 100.265H59C55.6863 100.265 53 97.5785 53 94.2648V67.2648Z" fill="#F1F1F1"/>
</g>
<path d="M89 98.2648V100.265H59V98.2648H89ZM93 94.2648V67.2648C93 65.1248 91.3194 63.3769 89.2061 63.2697L89 63.2648H59C56.7909 63.2648 55 65.0557 55 67.2648V94.2648C55 96.474 56.7909 98.2648 59 98.2648V100.265L58.6914 100.257C55.6233 100.102 53.1633 97.6415 53.0078 94.5734L53 94.2648V67.2648C53 63.9511 55.6863 61.2648 59 61.2648H89C92.3137 61.2648 95 63.9511 95 67.2648V94.2648C95 97.475 92.4789 100.096 89.3086 100.257L89 100.265V98.2648C91.2091 98.2648 93 96.474 93 94.2648Z" fill="#9F9F9F"/>
<path d="M41 57.2658C41 53.9521 43.6863 51.2658 47 51.2658H83C86.3137 51.2658 89 53.9521 89 57.2658V89.2658C89 92.5795 86.3137 95.2658 83 95.2658H47C43.6863 95.2658 41 92.5795 41 89.2658V57.2658Z" fill="#F1F1F1"/>
<path d="M83 93.2658V95.2658H47V93.2658H83ZM87 89.2658V57.2658C87 55.0567 85.2091 53.2658 83 53.2658H47C44.7909 53.2658 43 55.0567 43 57.2658V89.2658C43 91.4749 44.7909 93.2658 47 93.2658V95.2658C43.7898 95.2658 41.1684 92.7447 41.0078 89.5744L41 89.2658V57.2658C41 53.9521 43.6863 51.2658 47 51.2658H83C86.3137 51.2658 89 53.9521 89 57.2658V89.2658C89 92.5795 86.3137 95.2658 83 95.2658V93.2658C85.2091 93.2658 87 91.4749 87 89.2658Z" fill="#9F9F9F"/>
<path d="M63.9751 56.2648H46V90.2648H63.9751V56.2648Z" fill="#292F38"/>
<path d="M50.7765 63.4902H47.6045V71.1641H50.7765V63.4902Z" fill="black"/>
<path d="M62.4201 59.0354H47.5493V60.9563H62.4201V59.0354Z" fill="black"/>
<path d="M62.4201 61.2618H47.5493V63.1828H62.4201V61.2618Z" fill="black"/>
<path d="M62.4716 63.4902H59.2996V71.1641H62.4716V63.4902Z" fill="black"/>
<path d="M54.8231 63.4902H51.1106V71.1641H54.8231V63.4902Z" fill="black"/>
<path opacity="0.3" d="M62.4753 72.0898H47.6045V74.6177H62.4753V72.0898Z" fill="black"/>
<path d="M47.9393 73.0594H48.5493V72.3921H47.9393V73.0594Z" fill="#00FF00"/>
<path d="M48.9486 73.0594H49.5586V72.3921H48.9486V73.0594Z" fill="white"/>
<path d="M49.9525 73.0594H50.5625V72.3921H49.9525V73.0594Z" fill="white"/>
<path d="M50.9579 73.0594H51.5679V72.3921H50.9579V73.0594Z" fill="white"/>
<path d="M51.9615 73.0594H52.5715V72.3921H51.9615V73.0594Z" fill="white"/>
<path d="M47.9393 74.286H48.5493V73.6187H47.9393V74.286Z" fill="#00FF00"/>
<path d="M48.9486 74.286H49.5586V73.6187H48.9486V74.286Z" fill="#00FF00"/>
<path d="M49.9525 74.286H50.5625V73.6187H49.9525V74.286Z" fill="#00FF00"/>
<path d="M50.9579 74.286H51.5679V73.6187H50.9579V74.286Z" fill="#00FF00"/>
<path d="M51.9615 74.286H52.5715V73.6187H51.9615V74.286Z" fill="#00FF00"/>
<path d="M57.4867 73.0594H58.0967V72.3921H57.4867V73.0594Z" fill="#00FF00"/>
<path d="M58.4903 73.0594H59.1003V72.3921H58.4903V73.0594Z" fill="#00FF00"/>
<path d="M59.5016 73.0594H60.1116V72.3921H59.5016V73.0594Z" fill="#00FF00"/>
<path d="M60.5033 73.0594H61.1133V72.3921H60.5033V73.0594Z" fill="#00FF00"/>
<path d="M61.5145 73.0594H62.1245V72.3921H61.5145V73.0594Z" fill="#00FF00"/>
<path d="M57.4867 74.286H58.0967V73.6187H57.4867V74.286Z" fill="#00FF00"/>
<path d="M53.0157 74.286H57.0112V72.3913H53.0157V74.286Z" fill="#00FF00"/>
<path d="M47.6038 77.9668H62.4661V75.2614H47.6038V77.9668Z" fill="#1A1F21"/>
<path d="M47.9248 77.5504H51.1182V75.6551H47.9248V77.5504Z" fill="#00FF00"/>
<path opacity="0.3" d="M51.3733 76.1843H62.0088V75.6555H51.3733V76.1843Z" fill="black"/>
<path opacity="0.3" d="M51.3733 76.8787H62.0088V76.3498H51.3733V76.8787Z" fill="black"/>
<path opacity="0.3" d="M51.3733 77.5751H62.0088V77.0462H51.3733V77.5751Z" fill="black"/>
<path d="M47.6038 81.3165H62.4661V78.6111H47.6038V81.3165Z" fill="#1A1F21"/>
<path d="M47.9248 80.8992H51.1182V79.0039H47.9248V80.8992Z" fill="#00FF00"/>
<path opacity="0.3" d="M51.3733 79.5341H62.0088V79.0052H51.3733V79.5341Z" fill="black"/>
<path opacity="0.3" d="M51.3733 80.2275H62.0088V79.6987H51.3733V80.2275Z" fill="black"/>
<path opacity="0.3" d="M51.3733 80.9248H62.0088V80.3959H51.3733V80.9248Z" fill="black"/>
<path d="M47.6038 84.6663H62.4661V81.9609H47.6038V84.6663Z" fill="#1A1F21"/>
<path d="M47.9248 84.2489H51.1182V82.3536H47.9248V84.2489Z" fill="#00FF00"/>
<path opacity="0.3" d="M51.3733 82.8809H62.0088V82.352H51.3733V82.8809Z" fill="black"/>
<path opacity="0.3" d="M51.3733 83.5781H62.0088V83.0492H51.3733V83.5781Z" fill="black"/>
<path opacity="0.3" d="M51.3733 84.2716H62.0088V83.7427H51.3733V84.2716Z" fill="black"/>
<path d="M47.6038 88.0132H62.4661V85.3078H47.6038V88.0132Z" fill="#1A1F21"/>
<path d="M47.9248 87.5986H51.1182V85.7033H47.9248V87.5986Z" fill="#00FF00"/>
<path opacity="0.3" d="M51.3733 86.2306H62.0088V85.7017H51.3733V86.2306Z" fill="black"/>
<path opacity="0.3" d="M51.3733 86.9279H62.0088V86.399H51.3733V86.9279Z" fill="black"/>
<path opacity="0.3" d="M51.3733 87.6213H62.0088V87.0925H51.3733V87.6213Z" fill="black"/>
<path d="M58.4903 74.286H59.1003V73.6187H58.4903V74.286Z" fill="#00FF00"/>
<path d="M59.5016 74.286H60.1116V73.6187H59.5016V74.286Z" fill="#00FF00"/>
<path d="M60.5033 74.286H61.1133V73.6187H60.5033V74.286Z" fill="#00FF00"/>
<path d="M61.5145 74.286H62.1245V73.6187H61.5145V74.286Z" fill="#00FF00"/>
<path d="M59.0067 63.4902H55.2942V71.1641H59.0067V63.4902Z" fill="black"/>
<path d="M83.9751 56.2648H66V90.2648H83.9751V56.2648Z" fill="#292F38"/>
<path d="M70.7765 63.4902H67.6045V71.1641H70.7765V63.4902Z" fill="black"/>
<path d="M82.4201 59.0354H67.5493V60.9563H82.4201V59.0354Z" fill="black"/>
<path d="M82.4201 61.2618H67.5493V63.1828H82.4201V61.2618Z" fill="black"/>
<path d="M82.4716 63.4902H79.2996V71.1641H82.4716V63.4902Z" fill="black"/>
<path d="M74.8229 63.4902H71.1104V71.1641H74.8229V63.4902Z" fill="black"/>
<path opacity="0.3" d="M82.4753 72.0898H67.6045V74.6177H82.4753V72.0898Z" fill="black"/>
<path d="M67.9393 73.0594H68.5493V72.3921H67.9393V73.0594Z" fill="#00FF00"/>
<path d="M68.9486 73.0594H69.5586V72.3921H68.9486V73.0594Z" fill="white"/>
<path d="M69.9525 73.0594H70.5625V72.3921H69.9525V73.0594Z" fill="white"/>
<path d="M70.9579 73.0594H71.5679V72.3921H70.9579V73.0594Z" fill="white"/>
<path d="M71.9613 73.0594H72.5713V72.3921H71.9613V73.0594Z" fill="white"/>
<path d="M67.9393 74.286H68.5493V73.6187H67.9393V74.286Z" fill="#00FF00"/>
<path d="M68.9486 74.286H69.5586V73.6187H68.9486V74.286Z" fill="#00FF00"/>
<path d="M69.9525 74.286H70.5625V73.6187H69.9525V74.286Z" fill="#00FF00"/>
<path d="M70.9579 74.286H71.5679V73.6187H70.9579V74.286Z" fill="#00FF00"/>
<path d="M71.9613 74.286H72.5713V73.6187H71.9613V74.286Z" fill="#00FF00"/>
<path d="M77.4867 73.0594H78.0967V72.3921H77.4867V73.0594Z" fill="#00FF00"/>
<path d="M78.4903 73.0594H79.1003V72.3921H78.4903V73.0594Z" fill="#00FF00"/>
<path d="M79.5016 73.0594H80.1116V72.3921H79.5016V73.0594Z" fill="#00FF00"/>
<path d="M80.5033 73.0594H81.1133V72.3921H80.5033V73.0594Z" fill="#00FF00"/>
<path d="M81.5147 73.0594H82.1248V72.3921H81.5147V73.0594Z" fill="#00FF00"/>
<path d="M77.4867 74.286H78.0967V73.6187H77.4867V74.286Z" fill="#00FF00"/>
<path d="M73.0159 74.286H77.0115V72.3913H73.0159V74.286Z" fill="#00FF00"/>
<path d="M67.6036 77.9668H82.4658V75.2614H67.6036V77.9668Z" fill="#1A1F21"/>
<path d="M67.925 77.5504H71.1184V75.6551H67.925V77.5504Z" fill="#00FF00"/>
<path opacity="0.3" d="M71.3735 76.1843H82.009V75.6555H71.3735V76.1843Z" fill="black"/>
<path opacity="0.3" d="M71.3735 76.8787H82.009V76.3498H71.3735V76.8787Z" fill="black"/>
<path opacity="0.3" d="M71.3735 77.5751H82.009V77.0462H71.3735V77.5751Z" fill="black"/>
<path d="M67.6036 81.3165H82.4658V78.6111H67.6036V81.3165Z" fill="#1A1F21"/>
<path d="M67.925 80.8992H71.1184V79.0039H67.925V80.8992Z" fill="#00FF00"/>
<path opacity="0.3" d="M71.3735 79.5341H82.009V79.0052H71.3735V79.5341Z" fill="black"/>
<path opacity="0.3" d="M71.3735 80.2275H82.009V79.6987H71.3735V80.2275Z" fill="black"/>
<path opacity="0.3" d="M71.3735 80.9248H82.009V80.3959H71.3735V80.9248Z" fill="black"/>
<path d="M67.6036 84.6663H82.4658V81.9609H67.6036V84.6663Z" fill="#1A1F21"/>
<path d="M67.925 84.2489H71.1184V82.3536H67.925V84.2489Z" fill="#00FF00"/>
<path opacity="0.3" d="M71.3735 82.8809H82.009V82.352H71.3735V82.8809Z" fill="black"/>
<path opacity="0.3" d="M71.3735 83.5781H82.009V83.0492H71.3735V83.5781Z" fill="black"/>
<path opacity="0.3" d="M71.3735 84.2716H82.009V83.7427H71.3735V84.2716Z" fill="black"/>
<path d="M67.6036 88.0132H82.4658V85.3078H67.6036V88.0132Z" fill="#1A1F21"/>
<path d="M67.925 87.5986H71.1184V85.7033H67.925V87.5986Z" fill="#00FF00"/>
<path opacity="0.3" d="M71.3735 86.2306H82.009V85.7017H71.3735V86.2306Z" fill="black"/>
<path opacity="0.3" d="M71.3735 86.9279H82.009V86.399H71.3735V86.9279Z" fill="black"/>
<path opacity="0.3" d="M71.3735 87.6213H82.009V87.0925H71.3735V87.6213Z" fill="black"/>
<path d="M78.4903 74.286H79.1003V73.6187H78.4903V74.286Z" fill="#00FF00"/>
<path d="M79.5016 74.286H80.1116V73.6187H79.5016V74.286Z" fill="#00FF00"/>
<path d="M80.5033 74.286H81.1133V73.6187H80.5033V74.286Z" fill="#00FF00"/>
<path d="M81.5147 74.286H82.1248V73.6187H81.5147V74.286Z" fill="#00FF00"/>
<path d="M79.0064 63.4902H75.2939V71.1641H79.0064V63.4902Z" fill="black"/>
<defs>
<filter id="filter0_d_194_1121" x="48" y="57.2648" width="52" height="49" filterUnits="userSpaceOnUse" color-interpolation-filters="sRGB">
<feFlood flood-opacity="0" result="BackgroundImageFix"/>
<feColorMatrix in="SourceAlpha" type="matrix" values="0 0 0 0 0 0 0 0 0 0 0 0 0 0 0 0 0 0 127 0" result="hardAlpha"/>
<feOffset dy="1"/>
<feGaussianBlur stdDeviation="2.5"/>
<feComposite in2="hardAlpha" operator="out"/>
<feColorMatrix type="matrix" values="0 0 0 0 0.172266 0 0 0 0 0.291667 0 0 0 0 0.132465 0 0 0 0.1 0"/>
<feBlend mode="normal" in2="BackgroundImageFix" result="effect1_dropShadow_194_1121"/>
<feBlend mode="normal" in="SourceGraphic" in2="effect1_dropShadow_194_1121" result="shape"/>
</filter>
</defs>
</svg>
