<svg width="128" height="128" viewBox="0 0 128 128" fill="none" xmlns="http://www.w3.org/2000/svg">
<path d="M28.9992 36.7648C30.4998 26.2646 41.9998 24.7646 46.4998 27.2646C61.9998 -1.23535 99.9998 10.7644 99.9998 39.7651C121.5 45.7648 114 73.7648 94.9999 72.2648C76.1666 72.4315 38.2004 72.2648 33.001 72.2648C9.99912 71.7648 9.49969 40.7648 28.9992 36.7648Z" fill="white"/>
<path d="M96 71.2648V73.2648H32V71.2648H96Z" fill="black"/>
<path d="M13 54.2648C13 43.7714 21.5066 35.2648 32 35.2648V37.2648C22.6112 37.2648 15 44.876 15 54.2648C15 63.6537 22.6112 71.2648 32 71.2648V73.2648C21.5066 73.2648 13 64.7582 13 54.2648Z" fill="black"/>
<path d="M40 25.2648C42.1457 25.2648 44.1728 25.7855 45.959 26.7082L45.041 28.4855C43.532 27.706 41.8189 27.2648 40 27.2648C34.2341 27.2648 29.5039 31.7018 29.0381 37.3469L27.0439 37.1828C27.5945 30.5089 33.1846 25.2648 40 25.2648Z" fill="black"/>
<path d="M111 55.7648C111 47.2044 104.06 40.2648 95.5 40.2648V38.2648C105.165 38.2648 113 46.0998 113 55.7648C113 65.4298 105.165 73.2648 95.5 73.2648V71.2648C104.06 71.2648 111 64.3252 111 55.7648Z" fill="black"/>
<path d="M97.999 39.2648C97.999 24.3531 85.9107 12.2648 70.999 12.2648C58.9464 12.2648 48.7361 20.1632 45.2656 31.0685L43.3594 30.4611C47.0864 18.7502 58.0506 10.2648 70.999 10.2648C87.0153 10.2648 99.999 23.2486 99.999 39.2648C99.999 39.6113 99.9925 39.9564 99.9805 40.3L97.9824 40.2297C97.9937 39.9095 97.999 39.5878 97.999 39.2648Z" fill="black"/>
<g filter="url(#filter0_d_194_1460)">
<path d="M53 51.2648C53 47.9511 55.6863 45.2648 59 45.2648H89C92.3137 45.2648 95 47.9511 95 51.2648V78.2648C95 81.5785 92.3137 84.2648 89 84.2648H59C55.6863 84.2648 53 81.5785 53 78.2648V51.2648Z" fill="#F1F1F1"/>
</g>
<path d="M89 82.2648V84.2648H59V82.2648H89ZM93 78.2648V51.2648C93 49.1248 91.3194 47.3769 89.2061 47.2697L89 47.2648H59C56.7909 47.2648 55 49.0557 55 51.2648V78.2648C55 80.474 56.7909 82.2648 59 82.2648V84.2648L58.6914 84.257C55.6233 84.1016 53.1633 81.6415 53.0078 78.5734L53 78.2648V51.2648C53 47.9511 55.6863 45.2648 59 45.2648H89C92.3137 45.2648 95 47.9511 95 51.2648V78.2648C95 81.475 92.4789 84.0964 89.3086 84.257L89 84.2648V82.2648C91.2091 82.2648 93 80.474 93 78.2648Z" fill="#9F9F9F"/>
<path d="M41 41.2658C41 37.9521 43.6863 35.2658 47 35.2658H83C86.3137 35.2658 89 37.9521 89 41.2658V73.2658C89 76.5795 86.3137 79.2658 83 79.2658H47C43.6863 79.2658 41 76.5795 41 73.2658V41.2658Z" fill="#F1F1F1"/>
<path d="M83 77.2658V79.2658H47V77.2658H83ZM87 73.2658V41.2658C87 39.0567 85.2091 37.2658 83 37.2658H47C44.7909 37.2658 43 39.0567 43 41.2658V73.2658C43 75.4749 44.7909 77.2658 47 77.2658V79.2658C43.7898 79.2658 41.1684 76.7447 41.0078 73.5744L41 73.2658V41.2658C41 37.9521 43.6863 35.2658 47 35.2658H83C86.3137 35.2658 89 37.9521 89 41.2658V73.2658C89 76.5795 86.3137 79.2658 83 79.2658V77.2658C85.2091 77.2658 87 75.4749 87 73.2658Z" fill="#9F9F9F"/>
<path d="M63.9751 40.2648H46V74.2648H63.9751V40.2648Z" fill="#292F38"/>
<path d="M50.7765 47.4902H47.6045V55.1641H50.7765V47.4902Z" fill="black"/>
<path d="M62.4201 43.0354H47.5493V44.9563H62.4201V43.0354Z" fill="black"/>
<path d="M62.4201 45.2618H47.5493V47.1828H62.4201V45.2618Z" fill="black"/>
<path d="M62.4716 47.4902H59.2996V55.1641H62.4716V47.4902Z" fill="black"/>
<path d="M54.8231 47.4902H51.1106V55.1641H54.8231V47.4902Z" fill="black"/>
<path opacity="0.3" d="M62.4753 56.0898H47.6045V58.6177H62.4753V56.0898Z" fill="black"/>
<path d="M47.9393 57.0594H48.5493V56.3921H47.9393V57.0594Z" fill="#00FF00"/>
<path d="M48.9486 57.0594H49.5586V56.3921H48.9486V57.0594Z" fill="white"/>
<path d="M49.9525 57.0594H50.5625V56.3921H49.9525V57.0594Z" fill="white"/>
<path d="M50.9579 57.0594H51.5679V56.3921H50.9579V57.0594Z" fill="white"/>
<path d="M51.9615 57.0594H52.5715V56.3921H51.9615V57.0594Z" fill="white"/>
<path d="M47.9393 58.286H48.5493V57.6187H47.9393V58.286Z" fill="#00FF00"/>
<path d="M48.9486 58.286H49.5586V57.6187H48.9486V58.286Z" fill="#00FF00"/>
<path d="M49.9525 58.286H50.5625V57.6187H49.9525V58.286Z" fill="#00FF00"/>
<path d="M50.9579 58.286H51.5679V57.6187H50.9579V58.286Z" fill="#00FF00"/>
<path d="M51.9615 58.286H52.5715V57.6187H51.9615V58.286Z" fill="#00FF00"/>
<path d="M57.4867 57.0594H58.0967V56.3921H57.4867V57.0594Z" fill="#00FF00"/>
<path d="M58.4903 57.0594H59.1003V56.3921H58.4903V57.0594Z" fill="#00FF00"/>
<path d="M59.5016 57.0594H60.1116V56.3921H59.5016V57.0594Z" fill="#00FF00"/>
<path d="M60.5033 57.0594H61.1133V56.3921H60.5033V57.0594Z" fill="#00FF00"/>
<path d="M61.5145 57.0594H62.1245V56.3921H61.5145V57.0594Z" fill="#00FF00"/>
<path d="M57.4867 58.286H58.0967V57.6187H57.4867V58.286Z" fill="#00FF00"/>
<path d="M53.0157 58.286H57.0112V56.3913H53.0157V58.286Z" fill="#00FF00"/>
<path d="M47.6038 61.9668H62.4661V59.2614H47.6038V61.9668Z" fill="#1A1F21"/>
<path d="M47.9248 61.5504H51.1182V59.6551H47.9248V61.5504Z" fill="#00FF00"/>
<path opacity="0.3" d="M51.3733 60.1843H62.0088V59.6555H51.3733V60.1843Z" fill="black"/>
<path opacity="0.3" d="M51.3733 60.8787H62.0088V60.3498H51.3733V60.8787Z" fill="black"/>
<path opacity="0.3" d="M51.3733 61.5751H62.0088V61.0462H51.3733V61.5751Z" fill="black"/>
<path d="M47.6038 65.3165H62.4661V62.6111H47.6038V65.3165Z" fill="#1A1F21"/>
<path d="M47.9248 64.8992H51.1182V63.0039H47.9248V64.8992Z" fill="#00FF00"/>
<path opacity="0.3" d="M51.3733 63.5341H62.0088V63.0052H51.3733V63.5341Z" fill="black"/>
<path opacity="0.3" d="M51.3733 64.2275H62.0088V63.6987H51.3733V64.2275Z" fill="black"/>
<path opacity="0.3" d="M51.3733 64.9248H62.0088V64.3959H51.3733V64.9248Z" fill="black"/>
<path d="M47.6038 68.6663H62.4661V65.9609H47.6038V68.6663Z" fill="#1A1F21"/>
<path d="M47.9248 68.2489H51.1182V66.3536H47.9248V68.2489Z" fill="#00FF00"/>
<path opacity="0.3" d="M51.3733 66.8809H62.0088V66.352H51.3733V66.8809Z" fill="black"/>
<path opacity="0.3" d="M51.3733 67.5781H62.0088V67.0492H51.3733V67.5781Z" fill="black"/>
<path opacity="0.3" d="M51.3733 68.2716H62.0088V67.7427H51.3733V68.2716Z" fill="black"/>
<path d="M47.6038 72.0132H62.4661V69.3078H47.6038V72.0132Z" fill="#1A1F21"/>
<path d="M47.9248 71.5986H51.1182V69.7033H47.9248V71.5986Z" fill="#00FF00"/>
<path opacity="0.3" d="M51.3733 70.2306H62.0088V69.7017H51.3733V70.2306Z" fill="black"/>
<path opacity="0.3" d="M51.3733 70.9279H62.0088V70.399H51.3733V70.9279Z" fill="black"/>
<path opacity="0.3" d="M51.3733 71.6213H62.0088V71.0925H51.3733V71.6213Z" fill="black"/>
<path d="M58.4903 58.286H59.1003V57.6187H58.4903V58.286Z" fill="#00FF00"/>
<path d="M59.5016 58.286H60.1116V57.6187H59.5016V58.286Z" fill="#00FF00"/>
<path d="M60.5033 58.286H61.1133V57.6187H60.5033V58.286Z" fill="#00FF00"/>
<path d="M61.5145 58.286H62.1245V57.6187H61.5145V58.286Z" fill="#00FF00"/>
<path d="M59.0067 47.4902H55.2942V55.1641H59.0067V47.4902Z" fill="black"/>
<path d="M83.9751 40.2648H66V74.2648H83.9751V40.2648Z" fill="#292F38"/>
<path d="M70.7765 47.4902H67.6045V55.1641H70.7765V47.4902Z" fill="black"/>
<path d="M82.4201 43.0354H67.5493V44.9563H82.4201V43.0354Z" fill="black"/>
<path d="M82.4201 45.2618H67.5493V47.1828H82.4201V45.2618Z" fill="black"/>
<path d="M82.4716 47.4902H79.2996V55.1641H82.4716V47.4902Z" fill="black"/>
<path d="M74.8229 47.4902H71.1104V55.1641H74.8229V47.4902Z" fill="black"/>
<path opacity="0.3" d="M82.4753 56.0898H67.6045V58.6177H82.4753V56.0898Z" fill="black"/>
<path d="M67.9393 57.0594H68.5493V56.3921H67.9393V57.0594Z" fill="#00FF00"/>
<path d="M68.9486 57.0594H69.5586V56.3921H68.9486V57.0594Z" fill="white"/>
<path d="M69.9525 57.0594H70.5625V56.3921H69.9525V57.0594Z" fill="white"/>
<path d="M70.9579 57.0594H71.5679V56.3921H70.9579V57.0594Z" fill="white"/>
<path d="M71.9613 57.0594H72.5713V56.3921H71.9613V57.0594Z" fill="white"/>
<path d="M67.9393 58.286H68.5493V57.6187H67.9393V58.286Z" fill="#00FF00"/>
<path d="M68.9486 58.286H69.5586V57.6187H68.9486V58.286Z" fill="#00FF00"/>
<path d="M69.9525 58.286H70.5625V57.6187H69.9525V58.286Z" fill="#00FF00"/>
<path d="M70.9579 58.286H71.5679V57.6187H70.9579V58.286Z" fill="#00FF00"/>
<path d="M71.9613 58.286H72.5713V57.6187H71.9613V58.286Z" fill="#00FF00"/>
<path d="M77.4867 57.0594H78.0967V56.3921H77.4867V57.0594Z" fill="#00FF00"/>
<path d="M78.4903 57.0594H79.1003V56.3921H78.4903V57.0594Z" fill="#00FF00"/>
<path d="M79.5016 57.0594H80.1116V56.3921H79.5016V57.0594Z" fill="#00FF00"/>
<path d="M80.5033 57.0594H81.1133V56.3921H80.5033V57.0594Z" fill="#00FF00"/>
<path d="M81.5147 57.0594H82.1248V56.3921H81.5147V57.0594Z" fill="#00FF00"/>
<path d="M77.4867 58.286H78.0967V57.6187H77.4867V58.286Z" fill="#00FF00"/>
<path d="M73.0159 58.286H77.0115V56.3913H73.0159V58.286Z" fill="#00FF00"/>
<path d="M67.6036 61.9668H82.4658V59.2614H67.6036V61.9668Z" fill="#1A1F21"/>
<path d="M67.925 61.5504H71.1184V59.6551H67.925V61.5504Z" fill="#00FF00"/>
<path opacity="0.3" d="M71.3735 60.1843H82.009V59.6555H71.3735V60.1843Z" fill="black"/>
<path opacity="0.3" d="M71.3735 60.8787H82.009V60.3498H71.3735V60.8787Z" fill="black"/>
<path opacity="0.3" d="M71.3735 61.5751H82.009V61.0462H71.3735V61.5751Z" fill="black"/>
<path d="M67.6036 65.3165H82.4658V62.6111H67.6036V65.3165Z" fill="#1A1F21"/>
<path d="M67.925 64.8992H71.1184V63.0039H67.925V64.8992Z" fill="#00FF00"/>
<path opacity="0.3" d="M71.3735 63.5341H82.009V63.0052H71.3735V63.5341Z" fill="black"/>
<path opacity="0.3" d="M71.3735 64.2275H82.009V63.6987H71.3735V64.2275Z" fill="black"/>
<path opacity="0.3" d="M71.3735 64.9248H82.009V64.3959H71.3735V64.9248Z" fill="black"/>
<path d="M67.6036 68.6663H82.4658V65.9609H67.6036V68.6663Z" fill="#1A1F21"/>
<path d="M67.925 68.2489H71.1184V66.3536H67.925V68.2489Z" fill="#00FF00"/>
<path opacity="0.3" d="M71.3735 66.8809H82.009V66.352H71.3735V66.8809Z" fill="black"/>
<path opacity="0.3" d="M71.3735 67.5781H82.009V67.0492H71.3735V67.5781Z" fill="black"/>
<path opacity="0.3" d="M71.3735 68.2716H82.009V67.7427H71.3735V68.2716Z" fill="black"/>
<path d="M67.6036 72.0132H82.4658V69.3078H67.6036V72.0132Z" fill="#1A1F21"/>
<path d="M67.925 71.5986H71.1184V69.7033H67.925V71.5986Z" fill="#00FF00"/>
<path opacity="0.3" d="M71.3735 70.2306H82.009V69.7017H71.3735V70.2306Z" fill="black"/>
<path opacity="0.3" d="M71.3735 70.9279H82.009V70.399H71.3735V70.9279Z" fill="black"/>
<path opacity="0.3" d="M71.3735 71.6213H82.009V71.0925H71.3735V71.6213Z" fill="black"/>
<path d="M78.4903 58.286H79.1003V57.6187H78.4903V58.286Z" fill="#00FF00"/>
<path d="M79.5016 58.286H80.1116V57.6187H79.5016V58.286Z" fill="#00FF00"/>
<path d="M80.5033 58.286H81.1133V57.6187H80.5033V58.286Z" fill="#00FF00"/>
<path d="M81.5147 58.286H82.1248V57.6187H81.5147V58.286Z" fill="#00FF00"/>
<path d="M79.0064 47.4902H75.2939V55.1641H79.0064V47.4902Z" fill="black"/>
<path d="M90.957 118.159C90.445 118.159 89.9837 118.076 89.5732 117.911C89.1628 117.746 88.8306 117.501 88.5767 117.175C88.327 116.849 88.1873 116.445 88.1577 115.962H89.478C89.5542 116.716 90.0387 117.092 90.9316 117.092C91.3548 117.092 91.6891 117.006 91.9346 116.832C92.1842 116.659 92.3091 116.438 92.3091 116.172C92.3091 115.943 92.2202 115.761 92.0425 115.626C91.8647 115.486 91.632 115.385 91.3442 115.321L90.2334 115.074C88.9512 114.794 88.3101 114.155 88.3101 113.157C88.3101 112.564 88.5449 112.082 89.0146 111.709C89.4886 111.337 90.1086 111.151 90.8745 111.151C91.632 111.151 92.2541 111.348 92.7407 111.741C93.2316 112.131 93.4855 112.664 93.5024 113.341H92.2202C92.216 113.015 92.0933 112.746 91.8521 112.535C91.6108 112.319 91.2913 112.211 90.8936 112.211C90.5127 112.211 90.2101 112.3 89.9858 112.478C89.7616 112.655 89.6494 112.873 89.6494 113.131C89.6494 113.36 89.734 113.544 89.9033 113.684C90.0768 113.823 90.3138 113.927 90.6143 113.995L91.7568 114.249C92.4085 114.392 92.8888 114.615 93.1978 114.915C93.5067 115.215 93.6611 115.609 93.6611 116.096C93.6611 116.523 93.5426 116.891 93.3057 117.2C93.0729 117.505 92.7534 117.742 92.3472 117.911C91.9409 118.076 91.4775 118.159 90.957 118.159Z" fill="black"/>
<path d="M83.562 118.133C82.978 118.133 82.4681 117.987 82.0322 117.695C81.5964 117.399 81.2578 116.991 81.0166 116.47C80.7754 115.945 80.6548 115.338 80.6548 114.648C80.6548 113.959 80.7754 113.354 81.0166 112.833C81.262 112.308 81.6027 111.9 82.0386 111.608C82.4744 111.312 82.9801 111.164 83.5557 111.164C83.9915 111.164 84.3893 111.255 84.749 111.437C85.1087 111.618 85.3965 111.896 85.6123 112.268H85.625V108.542H86.9644V118H85.6504V116.978H85.6377C85.4134 117.367 85.1193 117.657 84.7554 117.848C84.3957 118.038 83.9979 118.133 83.562 118.133ZM83.835 116.978C84.4062 116.978 84.8612 116.766 85.1997 116.343C85.5425 115.916 85.7139 115.351 85.7139 114.648C85.7139 113.942 85.5425 113.377 85.1997 112.954C84.8612 112.526 84.4062 112.312 83.835 112.312C83.2933 112.312 82.8532 112.514 82.5146 112.916C82.1803 113.313 82.0132 113.891 82.0132 114.648C82.0132 115.406 82.1803 115.984 82.5146 116.381C82.8532 116.779 83.2933 116.978 83.835 116.978Z" fill="black"/>
<path d="M76.1479 118.108C75.4793 118.108 74.925 117.939 74.4849 117.6C74.0448 117.257 73.8247 116.752 73.8247 116.083C73.8247 115.575 73.9495 115.186 74.1992 114.915C74.4531 114.64 74.7811 114.443 75.1831 114.325C75.5894 114.206 76.0189 114.119 76.4717 114.064C76.8906 114.014 77.2228 113.971 77.4683 113.938C77.7137 113.904 77.8872 113.853 77.9888 113.785C78.0946 113.717 78.1475 113.601 78.1475 113.436V113.379C78.1475 113.053 78.029 112.786 77.792 112.579C77.555 112.368 77.2228 112.262 76.7954 112.262C76.368 112.262 76.0189 112.365 75.748 112.573C75.4772 112.776 75.3291 113.032 75.3037 113.341H73.9897C74.0194 112.702 74.2881 112.179 74.7959 111.773C75.3037 111.367 75.9766 111.164 76.8145 111.164C77.6396 111.164 78.2892 111.367 78.7632 111.773C79.2371 112.179 79.4741 112.723 79.4741 113.404V118H78.1538V117.048H78.1284C77.9888 117.319 77.7666 117.564 77.4619 117.784C77.1615 118 76.7235 118.108 76.1479 118.108ZM76.4209 117.029C77.0133 117.029 77.4492 116.876 77.7285 116.572C78.012 116.263 78.1538 115.903 78.1538 115.493V114.706C78.0649 114.778 77.8639 114.843 77.5508 114.902C77.2376 114.957 76.9033 115.01 76.5479 115.061C76.1797 115.116 75.856 115.22 75.5767 115.372C75.2974 115.524 75.1577 115.77 75.1577 116.108C75.1577 116.396 75.2699 116.623 75.4941 116.788C75.7227 116.948 76.0316 117.029 76.4209 117.029Z" fill="black"/>
<path d="M69.6353 118.152C68.9963 118.152 68.4355 118.004 67.9531 117.708C67.4707 117.412 67.0941 117.001 66.8232 116.477C66.5566 115.952 66.4233 115.347 66.4233 114.661C66.4233 113.967 66.5566 113.358 66.8232 112.833C67.0941 112.304 67.4707 111.891 67.9531 111.595C68.4355 111.295 68.9963 111.145 69.6353 111.145C70.2743 111.145 70.8328 111.295 71.311 111.595C71.7935 111.891 72.168 112.304 72.4346 112.833C72.7054 113.358 72.8408 113.967 72.8408 114.661C72.8408 115.347 72.7054 115.952 72.4346 116.477C72.168 117.001 71.7935 117.412 71.311 117.708C70.8328 118.004 70.2743 118.152 69.6353 118.152ZM69.6353 116.997C70.2108 116.997 70.6636 116.785 70.9937 116.362C71.3237 115.939 71.4888 115.372 71.4888 114.661C71.4888 113.942 71.3216 113.368 70.9873 112.941C70.6572 112.514 70.2065 112.3 69.6353 112.3C69.064 112.3 68.6112 112.514 68.2769 112.941C67.9468 113.364 67.7817 113.938 67.7817 114.661C67.7817 115.376 67.9468 115.945 68.2769 116.369C68.6069 116.788 69.0597 116.997 69.6353 116.997Z" fill="black"/>
<path d="M65.2363 108.542V118H63.897V108.542H65.2363Z" fill="black"/>
<path d="M57.1177 118V108.542H58.457V114.16H58.4761L61.3325 111.297H62.9956L60.1582 114.179L63.186 118H61.542L59.1362 114.985L58.457 115.645V118H57.1177Z" fill="black"/>
<path d="M52.7886 118V111.297H54.0708V112.382H54.0962C54.2189 112.014 54.4115 111.729 54.6738 111.525C54.9404 111.318 55.2874 111.214 55.7148 111.214C55.8164 111.214 55.9095 111.219 55.9941 111.227C56.0788 111.236 56.1486 111.242 56.2036 111.246V112.497C56.1528 112.484 56.0618 112.471 55.9307 112.458C55.7995 112.442 55.6556 112.433 55.499 112.433C55.1224 112.433 54.7987 112.564 54.5278 112.827C54.2612 113.089 54.1279 113.493 54.1279 114.039V118H52.7886Z" fill="black"/>
<path d="M48.396 118.152C47.757 118.152 47.1963 118.004 46.7139 117.708C46.2314 117.412 45.8548 117.001 45.584 116.477C45.3174 115.952 45.1841 115.347 45.1841 114.661C45.1841 113.967 45.3174 113.358 45.584 112.833C45.8548 112.304 46.2314 111.891 46.7139 111.595C47.1963 111.295 47.757 111.145 48.396 111.145C49.035 111.145 49.5936 111.295 50.0718 111.595C50.5542 111.891 50.9287 112.304 51.1953 112.833C51.4661 113.358 51.6016 113.967 51.6016 114.661C51.6016 115.347 51.4661 115.952 51.1953 116.477C50.9287 117.001 50.5542 117.412 50.0718 117.708C49.5936 118.004 49.035 118.152 48.396 118.152ZM48.396 116.997C48.9715 116.997 49.4243 116.785 49.7544 116.362C50.0845 115.939 50.2495 115.372 50.2495 114.661C50.2495 113.942 50.0824 113.368 49.748 112.941C49.418 112.514 48.9673 112.3 48.396 112.3C47.8247 112.3 47.3719 112.514 47.0376 112.941C46.7075 113.364 46.5425 113.938 46.5425 114.661C46.5425 115.376 46.7075 115.945 47.0376 116.369C47.3677 116.788 47.8205 116.997 48.396 116.997Z" fill="black"/>
<path d="M37.1353 118L35.0596 111.297H36.4624L37.2305 114.039C37.3447 114.445 37.4526 114.86 37.5542 115.283C37.66 115.706 37.7637 116.125 37.8652 116.54C37.9753 116.125 38.0832 115.706 38.189 115.283C38.299 114.86 38.409 114.445 38.519 114.039L39.2998 111.297H40.5757L41.3438 114.039C41.458 114.441 41.568 114.852 41.6738 115.271C41.7796 115.689 41.8854 116.104 41.9912 116.515C42.0928 116.104 42.1943 115.689 42.2959 115.271C42.4017 114.852 42.5117 114.441 42.626 114.039L43.4004 111.297H44.8159L42.7402 118H41.3438L40.4932 115.08C40.3958 114.742 40.3006 114.395 40.2075 114.039C40.1187 113.684 40.0298 113.33 39.9409 112.979C39.8478 113.33 39.7547 113.684 39.6616 114.039C39.5728 114.395 39.4775 114.742 39.376 115.08L38.5127 118H37.1353Z" fill="black"/>
<path d="M87.3896 92.542V102H86.0503V92.542H87.3896Z" fill="black"/>
<path d="M81.2134 102.108C80.5448 102.108 79.9904 101.939 79.5503 101.6C79.1102 101.257 78.8901 100.752 78.8901 100.083C78.8901 99.5752 79.015 99.1859 79.2646 98.915C79.5186 98.64 79.8465 98.4432 80.2485 98.3247C80.6548 98.2062 81.0843 98.1195 81.5371 98.0645C81.9561 98.0137 82.2882 97.9714 82.5337 97.9375C82.7791 97.9036 82.9526 97.8529 83.0542 97.7852C83.16 97.7174 83.2129 97.6011 83.2129 97.436V97.3789C83.2129 97.0531 83.0944 96.7865 82.8574 96.5791C82.6204 96.3675 82.2882 96.2617 81.8608 96.2617C81.4334 96.2617 81.0843 96.3654 80.8135 96.5728C80.5426 96.7759 80.3945 97.0319 80.3691 97.3408H79.0552C79.0848 96.7018 79.3535 96.1792 79.8613 95.7729C80.3691 95.3667 81.042 95.1636 81.8799 95.1636C82.7051 95.1636 83.3547 95.3667 83.8286 95.7729C84.3026 96.1792 84.5396 96.723 84.5396 97.4043V102H83.2192V101.048H83.1938C83.0542 101.319 82.832 101.564 82.5273 101.784C82.2269 102 81.7889 102.108 81.2134 102.108ZM81.4863 101.029C82.0788 101.029 82.5146 100.876 82.7939 100.572C83.0775 100.263 83.2192 99.9032 83.2192 99.4927V98.7056C83.1304 98.7775 82.9294 98.8431 82.6162 98.9023C82.3031 98.9574 81.9688 99.0103 81.6133 99.061C81.2451 99.116 80.9214 99.2197 80.6421 99.3721C80.3628 99.5244 80.2231 99.7699 80.2231 100.108C80.2231 100.396 80.3353 100.623 80.5596 100.788C80.7881 100.948 81.097 101.029 81.4863 101.029Z" fill="black"/>
<path d="M73.2344 98.1406V102H71.895V95.2969H73.209V96.3062C73.666 95.5444 74.341 95.1636 75.2339 95.1636C75.6951 95.1636 76.1077 95.2651 76.4717 95.4683C76.8398 95.6672 77.1297 95.9634 77.3413 96.3569C77.5529 96.7505 77.6587 97.2393 77.6587 97.8232V102H76.3193V97.9883C76.3193 97.4508 76.1903 97.0467 75.9321 96.7759C75.674 96.5008 75.3143 96.3633 74.853 96.3633C74.396 96.3633 74.0109 96.505 73.6978 96.7886C73.3888 97.0679 73.2344 97.5186 73.2344 98.1406Z" fill="black"/>
<path d="M67.439 102V95.2969H68.7212V96.3823H68.7466C68.8693 96.0142 69.0618 95.7285 69.3242 95.5254C69.5908 95.318 69.9378 95.2144 70.3652 95.2144C70.4668 95.2144 70.5599 95.2186 70.6445 95.2271C70.7292 95.2355 70.799 95.2419 70.854 95.2461V96.4966C70.8032 96.4839 70.7122 96.4712 70.5811 96.4585C70.4499 96.4416 70.306 96.4331 70.1494 96.4331C69.7728 96.4331 69.4491 96.5643 69.1782 96.8267C68.9116 97.089 68.7783 97.4932 68.7783 98.0391V102H67.439Z" fill="black"/>
<path d="M63.2178 102.152C62.5534 102.152 61.9821 102.002 61.5039 101.702C61.0299 101.401 60.6639 100.989 60.4058 100.464C60.1519 99.9349 60.0249 99.334 60.0249 98.6611C60.0249 97.9798 60.1582 97.3747 60.4248 96.8457C60.6914 96.3167 61.0596 95.902 61.5293 95.6016C61.999 95.2969 62.5386 95.1445 63.1479 95.1445C63.7827 95.1445 64.3328 95.2926 64.7983 95.5889C65.2681 95.8851 65.632 96.2977 65.8901 96.8267C66.1483 97.3514 66.2773 97.9587 66.2773 98.6484V99.0103H61.3452C61.3706 99.6154 61.5441 100.104 61.8657 100.477C62.1916 100.849 62.6486 101.035 63.2368 101.035C63.6769 101.035 64.0387 100.936 64.3223 100.737C64.6058 100.538 64.7941 100.28 64.8872 99.9624H66.1758C66.0954 100.394 65.9155 100.775 65.6362 101.105C65.3612 101.435 65.0142 101.693 64.5952 101.879C64.1805 102.061 63.7214 102.152 63.2178 102.152ZM61.3579 97.9946H64.9697C64.9147 97.4614 64.7264 97.0404 64.4048 96.7314C64.0832 96.4183 63.6685 96.2617 63.1606 96.2617C62.6528 96.2617 62.2381 96.4183 61.9165 96.7314C61.5991 97.0404 61.4129 97.4614 61.3579 97.9946Z" fill="black"/>
<path d="M59.4092 95.2969V96.4014H58.0508V100.229C58.0508 100.479 58.1016 100.652 58.2031 100.75C58.3047 100.847 58.4888 100.896 58.7554 100.896H59.4092V102H58.5649C57.325 102 56.7051 101.467 56.7051 100.4V96.4014H55.5244V95.2969H56.7051V93.4688H58.0508V95.2969H59.4092Z" fill="black"/>
<path d="M48.6562 102L51.1255 98.585L48.8086 95.2969H50.3384L51.1382 96.4902C51.2651 96.6891 51.39 96.8838 51.5127 97.0742C51.6396 97.2646 51.7624 97.4572 51.8809 97.6519C52.0078 97.4572 52.1326 97.2646 52.2554 97.0742C52.3781 96.8838 52.5072 96.6891 52.6426 96.4902L53.4551 95.2969H54.9595L52.6362 98.5659L55.0737 102H53.5439L52.6108 100.642C52.4839 100.447 52.359 100.257 52.2363 100.07C52.1136 99.8841 51.993 99.6979 51.8745 99.5117C51.7518 99.6979 51.627 99.8841 51.5 100.07C51.3773 100.257 51.2524 100.447 51.1255 100.642L50.1733 102H48.6562Z" fill="black"/>
<path d="M41.7119 102V92.542H48.0723V93.7798H43.1211V96.5664H47.7041V97.7915H43.1211V100.762H48.0723V102H41.7119Z" fill="black"/>
<defs>
<filter id="filter0_d_194_1460" x="48" y="41.2648" width="52" height="49" filterUnits="userSpaceOnUse" color-interpolation-filters="sRGB">
<feFlood flood-opacity="0" result="BackgroundImageFix"/>
<feColorMatrix in="SourceAlpha" type="matrix" values="0 0 0 0 0 0 0 0 0 0 0 0 0 0 0 0 0 0 127 0" result="hardAlpha"/>
<feOffset dy="1"/>
<feGaussianBlur stdDeviation="2.5"/>
<feComposite in2="hardAlpha" operator="out"/>
<feColorMatrix type="matrix" values="0 0 0 0 0.172266 0 0 0 0 0.291667 0 0 0 0 0.132465 0 0 0 0.1 0"/>
<feBlend mode="normal" in2="BackgroundImageFix" result="effect1_dropShadow_194_1460"/>
<feBlend mode="normal" in="SourceGraphic" in2="effect1_dropShadow_194_1460" result="shape"/>
</filter>
</defs>
</svg>
