<svg width="128" height="128" viewBox="0 0 128 128" fill="none" xmlns="http://www.w3.org/2000/svg">
<path d="M47.0117 25.7412C60.8698 20.4426 77.4335 27.6233 82.1152 41.9775L82.5273 43.2422L83.6279 42.4951C86.0349 40.8595 88.9026 40.0374 91.8105 40.1494H91.8203C99.2339 40.3636 105.464 46.6067 105.552 53.7295L105.551 54.0693C105.538 54.9073 105.486 55.6405 105.271 56.293L105.27 56.2959C105.183 56.5587 105.119 56.865 105.157 57.1836C105.2 57.5408 105.364 57.8533 105.628 58.083C105.86 58.2849 106.118 58.3788 106.287 58.4287C106.454 58.478 106.636 58.5103 106.755 58.5332V58.5342C110.006 59.1855 112.942 60.5101 115.443 62.6152C118.777 65.42 121.059 68.5796 122.252 72.0469C123.369 75.2937 123.551 78.8648 122.689 82.751L122.503 83.5322C120.463 91.5239 115.162 96.4149 107.207 98.4404L106.429 98.6279C105.075 98.9343 103.675 99 102.205 99H25.9395C16.027 98.9999 7.83691 92.5962 5.54883 83.1543C2.89659 72.2092 10.135 60.8497 21.2334 58.5693H21.2363C22.5812 58.2892 23.9476 58.1218 25.3203 58.0684L25.334 58.0674C26.6405 57.9981 27.9614 58.1699 29.4824 58.3682L30.9209 58.5557L30.585 57.1445C27.3699 43.6608 34.2506 30.6103 47.0107 25.7412H47.0117Z" fill="#F2F2F2" stroke="#AFAFAF" stroke-width="2"/>
</svg>
