<svg width="128" height="128" viewBox="0 0 128 128" fill="none" xmlns="http://www.w3.org/2000/svg">
<path d="M91.3408 53.7979L105.825 78.8984L91.3408 104H62.3604L47.8633 78.8984L62.3604 53.7979H91.3408ZM66.7715 67.002C63.4862 67.002 60.8223 69.6649 60.8223 72.9502C60.8223 76.2355 63.4862 78.8984 66.7715 78.8984C70.0566 78.8982 72.7197 76.2354 72.7197 72.9502C72.7197 69.665 70.0567 67.0021 66.7715 67.002Z" fill="url(#paint0_linear_202_6690)"/>
<path d="M92.0635 52.5475L107.268 78.8991L92.0635 105.25H61.6387L46.4199 78.8991L61.6387 52.5475H92.0635ZM49.3057 78.8981L63.082 102.75H90.6201L104.382 78.8981L90.6191 55.0475H63.082L49.3057 78.8981Z" fill="url(#paint1_linear_202_6690)"/>
<path d="M74.9385 104H91.3414L105.825 78.8988L97.644 64.7283L74.9385 104Z" fill="#A3D3FF"/>
<path d="M106.907 78.2742L107.269 78.8982L92.0635 105.25H72.7715L97.6445 62.2292L106.907 78.2742ZM77.1055 102.75H90.6201L104.381 78.8992L97.6426 67.2273L77.1055 102.75Z" fill="#0067FF"/>
<path d="M71.47 72.9498C71.4698 70.355 69.3656 68.2515 66.7708 68.2515C64.1761 68.2517 62.0727 70.3551 62.0725 72.9498C62.0725 75.5446 64.1759 77.6488 66.7708 77.649C69.3657 77.649 71.47 75.5447 71.47 72.9498ZM73.97 72.9498C73.97 76.9255 70.7464 80.149 66.7708 80.149C62.7952 80.1488 59.5725 76.9253 59.5725 72.9498C59.5727 68.9744 62.7954 65.7517 66.7708 65.7515C70.7463 65.7515 73.9698 68.9743 73.97 72.9498Z" fill="#2284FF"/>
<path d="M54.7787 51.3916C54.9496 50.7229 55.6304 50.3195 56.2992 50.4903C56.9679 50.6612 57.3713 51.342 57.2006 52.0108C56.8976 53.1973 56.7336 54.4089 56.7084 55.6201V55.625C56.6197 59.2754 57.7089 62.9861 60.0648 66.128L60.4486 66.6182C62.2712 68.8661 64.5675 70.5344 67.0834 71.5664L67.6263 71.7774L67.7435 71.8282C68.3126 72.1067 68.59 72.7767 68.3656 73.3838C68.1411 73.9908 67.4947 74.3198 66.8812 74.1612L66.7592 74.1231L66.1351 73.8789C63.0305 72.6054 60.2216 70.4935 58.0678 67.6309L58.0658 67.6289C55.3588 64.0195 54.1075 59.7532 54.2094 55.5635C54.2389 54.1629 54.4287 52.7624 54.7787 51.3916Z" fill="#6B6B6B"/>
<path d="M37.3545 36.6055C41.4654 29.029 50.287 25.6487 58.21 28.1045C57.0687 29.5014 56.0574 31.0555 55.1904 32.7197C52.8982 32.712 50.5922 33.6433 49.3613 35.9111C47.374 39.5728 50.6137 40.6747 54.2754 42.6621C57.9371 44.6495 60.6317 46.773 62.6191 43.1113C64.2191 40.1632 62.9333 36.9249 60.8086 34.9219C61.6655 33.372 62.6442 32.0359 63.7051 30.9248C70.6015 36.1366 72.8309 45.7481 68.582 53.5664C64.6889 60.7265 56.5889 64.1428 49.0068 62.4004L32.1006 93.5049L25.5664 95.2881L22 84.1807L27.5127 81.8799L26.4512 75.999L31.9639 73.6992L30.9023 67.8184L36.416 65.5176L40.5947 57.8408C35.0138 52.4232 33.4616 43.7655 37.3545 36.6055Z" fill="#EFEFEF"/>
<path d="M36.2568 36.0078C40.7479 27.7322 50.4886 24.1363 59.0996 27.081C58.4989 27.7365 57.9282 28.4326 57.3916 29.166C50.1443 27.1445 42.1969 30.3013 38.4531 37.2011C34.8358 43.8541 36.2746 51.9047 41.4648 56.9433L42.1465 57.6045L37.3027 66.5019L36.8965 66.6718L32.3105 68.584L33.373 74.4658L27.8594 76.7656L28.9219 82.6465L23.541 84.8916L26.3906 93.7666L31.2568 92.4384L48.3623 60.9697L49.2871 61.1826C56.3361 62.8024 63.8649 59.6236 67.4834 52.9687C71.4489 45.6711 69.3435 36.6943 62.8721 31.8632C63.4265 31.1901 64.0102 30.5849 64.6143 30.0468C71.8752 35.6516 74.1956 45.8532 69.6797 54.1631C65.6719 61.5339 57.5014 65.1955 49.6641 63.8076L33.1982 94.1015L32.9443 94.5703L24.7422 96.8086L20.459 83.4687L26.1035 81.1132L25.043 75.2324L30.5557 72.9316L29.4941 67.0517L35.5273 64.5332L39.0557 58.0527C33.6342 52.2295 32.2484 43.3801 36.2568 36.0078Z" fill="#6B6B6B"/>
<path d="M53.6699 31.5888C54.3954 31.4703 55.1363 31.442 55.8672 31.4951C55.3969 32.2999 54.9628 33.1357 54.5654 33.9961C54.4004 34.0103 54.2361 34.03 54.0732 34.0566C52.5569 34.3044 51.2355 35.0782 50.46 36.5068C50.0383 37.2838 49.9776 37.7729 50.0156 38.0761C50.0515 38.3609 50.1955 38.6573 50.5664 39.0146C50.9556 39.3894 51.526 39.7648 52.293 40.1933C53.1001 40.6443 53.8726 41.0225 54.8711 41.5644C55.8721 42.1077 56.6068 42.5473 57.4277 42.9804C58.2054 43.3907 58.8311 43.6651 59.3584 43.7881C59.8618 43.9054 60.1898 43.8651 60.4482 43.7402C60.7229 43.6074 61.0991 43.2919 61.5205 42.5156C62.296 41.0867 62.225 39.5569 61.6074 38.1504C61.2722 37.3869 60.7817 36.6819 60.207 36.0849C60.5946 35.2806 61.0142 34.5266 61.459 33.8232C62.474 34.7271 63.3366 35.8704 63.8965 37.1455C64.7626 39.1182 64.9296 41.4752 63.7178 43.708C63.1456 44.7621 62.44 45.5543 61.5361 45.9912C60.6159 46.4358 59.6675 46.4279 58.791 46.2236C57.9386 46.0249 57.08 45.6236 56.2607 45.1914C55.4845 44.7818 54.5084 44.212 53.6787 43.7617C52.8466 43.3101 51.8411 42.805 51.0732 42.3759C50.2651 41.9244 49.4621 41.4223 48.832 40.8154C48.1841 40.1912 47.6624 39.4003 47.5352 38.3867C47.4103 37.3913 47.6908 36.3682 48.2627 35.3144C49.4745 33.082 51.542 31.9366 53.6699 31.5888Z" fill="#6B6B6B"/>
<path d="M44.6606 64.9166L32.2329 87.7994L30.0356 86.606L42.4644 63.7232L44.6606 64.9166Z" fill="#D3D3D3"/>
<path d="M44.4977 36.1015C41.2111 39.178 39.7692 43.9444 41.152 48.537C41.9172 51.0794 43.4464 53.1902 45.4117 54.6982L43.8902 56.6816C41.527 54.8682 39.6802 52.3234 38.7574 49.2578C37.091 43.7229 38.8345 37.9798 42.7897 34.2773L44.4977 36.1015Z" fill="#D3D3D3"/>
<path d="M71.9301 22.75C77.2732 22.75 81.9855 25.8341 85.3109 30.5654C88.639 35.3006 90.6586 41.7765 90.6586 48.8701C90.6586 50.1185 90.5932 51.3461 90.472 52.5479H87.9594C88.0892 51.3503 88.1586 50.1223 88.1586 48.8701C88.1586 42.2288 86.2643 36.2689 83.266 32.0029C80.2651 27.7333 76.238 25.25 71.9301 25.25C65.8523 25.2501 60.3009 30.2215 57.5082 38.0459C57.2762 38.6959 56.5606 39.0355 55.9105 38.8037C55.2605 38.5717 54.9209 37.8561 55.1527 37.2061C58.1317 28.8594 64.3684 22.7501 71.9301 22.75Z" fill="#6B6B6B"/>
<defs>
<linearGradient id="paint0_linear_202_6690" x1="53.2914" y1="59.2032" x2="116.373" y2="88.7874" gradientUnits="userSpaceOnUse">
<stop stop-color="white"/>
<stop offset="1" stop-color="#AAD6FF"/>
</linearGradient>
<linearGradient id="paint1_linear_202_6690" x1="38.3528" y1="42.3114" x2="122.791" y2="91.2054" gradientUnits="userSpaceOnUse">
<stop stop-color="#37A8FF"/>
<stop offset="1" stop-color="#0856FF"/>
</linearGradient>
</defs>
</svg>
