<svg width="128" height="128" viewBox="0 0 128 128" fill="none" xmlns="http://www.w3.org/2000/svg">
<path d="M64.0146 113H64.0029C64.0049 113 64.0068 112.999 64.0088 112.999C64.0106 112.999 64.0128 113 64.0146 113ZM65.1816 108.516L66.876 106.361C67.2652 105.869 67.9864 105.778 68.4785 106.167C68.9704 106.556 69.0619 107.277 68.6729 107.77L64.9072 112.565C64.691 112.839 64.3613 112.997 64.0088 112.999C63.6561 112.997 63.3267 112.838 63.1104 112.554L59.3789 107.735C58.9897 107.232 59.0813 106.511 59.585 106.133C60.0886 105.744 60.7983 105.835 61.1875 106.339L62.8926 108.547V93.8398H65.1816V108.516ZM38.2793 80.2002L25.6162 87.6055L28.3369 87.9795C28.9664 88.0711 29.402 88.643 29.3105 89.2725C29.2304 89.8448 28.7376 90.2568 28.1768 90.2568H28.0283L21.9844 89.4209C21.6297 89.375 21.3325 89.1693 21.1494 88.8604C20.9778 88.5514 20.9429 88.1853 21.0801 87.8535L23.3584 82.1992C23.5988 81.6155 24.2629 81.329 24.8467 81.5693C25.4302 81.8098 25.7159 82.474 25.4756 83.0576L24.4326 85.6455L37.124 78.2246L38.2793 80.2002ZM103.653 85.6211L102.622 83.0576C102.382 82.4739 102.667 81.7983 103.251 81.5693C103.835 81.3404 104.499 81.6155 104.739 82.1992L107.017 87.8535C107.154 88.1854 107.12 88.5514 106.948 88.8604C106.765 89.1694 106.467 89.3761 106.112 89.4219L100.069 90.2568C100.069 90.2568 99.9784 90.2568 99.9199 90.2568C99.3593 90.2566 98.8672 89.8446 98.7871 89.2725C98.6957 88.6431 99.1419 88.0712 99.7598 87.9795L102.505 87.6025L89.835 80.1895L90.9912 78.2129L103.653 85.6211ZM100.092 37.7549L106.135 38.5898C106.49 38.6356 106.788 38.8423 106.971 39.1514C107.142 39.4603 107.176 39.8264 107.039 40.1582L104.762 45.8125C104.579 46.2588 104.155 46.5331 103.697 46.5332L103.686 46.5107C103.548 46.5107 103.399 46.4879 103.262 46.4307C102.678 46.1902 102.392 45.526 102.633 44.9424L103.667 42.3721L90.9883 49.7871L89.833 47.8115L102.511 40.3965L99.7715 40.0205C99.142 39.9289 98.7064 39.357 98.7979 38.7275C98.878 38.098 99.4623 37.6519 100.092 37.7549ZM28.0283 37.7314C28.6576 37.6286 29.2295 38.0863 29.3213 38.7041C29.4129 39.3222 28.9667 39.9065 28.3486 39.998L25.5938 40.376L38.2822 47.7988L37.126 49.7744L24.457 42.3623L25.4873 44.9199C25.7275 45.5036 25.4411 46.1669 24.8574 46.4072C24.7202 46.4644 24.5718 46.4873 24.4346 46.4873L24.4229 46.5107C23.9652 46.5107 23.5416 46.2362 23.3584 45.79L21.0801 40.1357C20.9427 39.8038 20.9777 39.437 21.1494 39.1279C21.3325 38.8191 21.6298 38.6133 21.9844 38.5674L28.0283 37.7314ZM64.0146 15C64.3693 15.0001 64.7016 15.16 64.9189 15.4346L68.6846 20.2305C69.0737 20.7226 68.9929 21.4438 68.4893 21.833C67.9856 22.2221 67.2759 22.1423 66.8867 21.6387L65.1816 19.4697V34.1494H62.8926V19.4658L61.1982 21.6611C60.9693 21.9473 60.6373 22.1084 60.2939 22.1084H60.2832C60.0428 22.1084 59.791 22.0274 59.585 21.8672C59.0813 21.478 58.9897 20.7568 59.3789 20.2646L63.1104 15.4463C63.3278 15.1717 63.6599 15 64.0146 15Z" fill="#D3D3D3"/>
<path d="M61.7368 91.8252L60.5923 93.8047L58.7153 92.7178L59.8599 90.7373L61.7368 91.8252ZM69.3481 92.7178L67.4712 93.8047L66.3267 91.8252L68.2036 90.7373L69.3481 92.7178ZM57.9937 89.6621L56.8491 91.6416L54.9722 90.5547L56.1167 88.5742L57.9937 89.6621ZM73.1021 90.5547L71.2251 91.6416L70.0806 89.6621L71.9575 88.5742L73.1021 90.5547ZM65.1821 91.1611H62.8931V88.998H65.1821V91.1611ZM54.2397 87.498L53.0952 89.4785L51.2183 88.3916L52.3628 86.4111L54.2397 87.498ZM76.856 88.3916L74.979 89.4785L73.8345 87.498L75.7114 86.4111L76.856 88.3916ZM50.4849 85.3242L49.3403 87.3037L47.4634 86.2168L48.6079 84.2363L50.4849 85.3242ZM80.6108 86.2168L78.7339 87.3037L77.5894 85.3242L79.4663 84.2363L80.6108 86.2168ZM65.1821 86.8232H62.8931V84.6602H65.1821V86.8232ZM46.731 83.1602L45.5864 85.1406L43.7095 84.0537L44.854 82.0732L46.731 83.1602ZM84.3647 84.0537L82.4878 85.1406L81.3433 83.1602L83.2202 82.0732L84.3647 84.0537ZM42.9771 80.9971L41.8325 82.9775L39.9556 81.8896L41.1001 79.9102L42.9771 80.9971ZM88.1196 81.8896L86.2417 82.9775L85.0972 80.9971L86.9741 79.9102L88.1196 81.8896ZM65.1821 82.4971H62.8931V80.333H65.1821V82.4971ZM65.1821 78.1582H62.8931V75.9951H65.1821V78.1582ZM38.7993 75.9385H36.5093V73.7744H38.7993V75.9385ZM91.5532 75.9385H89.2642V73.7744H91.5532V75.9385ZM65.1821 73.832H62.8931V71.6689H65.1821V73.832ZM38.7993 71.5996H36.5093V69.4365H38.7993V71.5996ZM91.5532 71.5996H89.2642V69.4365H91.5532V71.5996ZM65.1821 69.4941H62.8931V67.3311H65.1821V69.4941ZM38.7993 67.2617H36.5093V65.0986H38.7993V67.2617ZM91.5532 67.2617H89.2642V65.0986H91.5532V67.2617ZM38.7993 62.9355H36.5093V60.7725H38.7993V62.9355ZM91.5532 62.9355H89.2642V60.7725H91.5532V62.9355ZM38.7993 58.5977H36.5093V56.4346H38.7993V58.5977ZM91.5532 58.5977H89.2642V56.4346H91.5532V58.5977ZM38.7993 54.2705H36.5093V52.1074H38.7993V54.2705ZM91.5532 54.2705H89.2642V52.1074H91.5532V54.2705Z" fill="#D3D3D3"/>
<path d="M64.0368 65.4536C63.785 65.4536 63.5447 65.3849 63.3272 65.259L36.9558 50.0359C36.5094 49.7727 36.2347 49.3034 36.2462 48.7883C36.2576 48.2733 36.5323 47.804 36.9787 47.5522L63.3501 32.9128C63.785 32.6725 64.3115 32.6725 64.735 32.9128L91.1064 47.5522C91.5528 47.804 91.8389 48.2733 91.8389 48.7883C91.8389 49.3034 91.5642 49.7841 91.1293 50.0359L64.7579 65.259C64.5405 65.3849 64.2887 65.4536 64.0483 65.4536H64.0368ZM40.5613 48.8112L64.0368 62.3632L87.5124 48.8112L64.0368 35.7858L40.5613 48.8112Z" fill="#6AB0FC"/>
<path d="M65.1822 93.3245H62.8931V94.4691H65.1822V93.3245Z" fill="#B7BBBC"/>
<path d="M65.1822 64.0229H62.8931V65.1675H65.1822V64.0229Z" fill="#B7BBBC"/>
<path d="M91.5529 48.7884H89.2637V49.933H91.5529V48.7884Z" fill="#B7BBBC"/>
<path d="M89.9966 80.814L88.8521 78.8339L89.2756 78.5935V78.1128H91.5647V79.2574C91.5647 79.6694 91.3473 80.0472 90.9924 80.2532L89.9966 80.8255V80.814Z" fill="#B7BBBC"/>
<path d="M64.0378 95.6136C63.8432 95.6136 63.6372 95.5678 63.4655 95.4648L62.4697 94.8925L63.6143 92.9124L64.0378 93.1527L64.4613 92.9124L65.6059 94.8925L64.6101 95.4648C64.4384 95.5678 64.2324 95.6136 64.0378 95.6136Z" fill="#B7BBBC"/>
<path d="M38.0779 80.814L37.0821 80.2417C36.7272 80.0357 36.5098 79.658 36.5098 79.2459V78.1013H38.7989V78.5821L39.2224 78.8224L38.0779 80.8026V80.814Z" fill="#B7BBBC"/>
<path d="M38.7989 48.7884H36.5098V49.933H38.7989V48.7884Z" fill="#B7BBBC"/>
<path d="M64.0374 86.9723C67.8302 86.9723 70.9055 90.0466 70.9055 93.8395C70.9055 97.6323 67.8302 100.707 64.0374 100.707C60.2446 100.707 57.1702 97.6323 57.1702 93.8395C57.1702 90.0467 60.2446 86.9724 64.0374 86.9723ZM37.6545 72.3785C41.4471 72.3787 44.5216 75.4531 44.5217 79.2457C44.5217 83.0385 41.4472 86.1137 37.6545 86.1139C33.8617 86.1139 30.7864 83.0386 30.7864 79.2457C30.7865 75.453 33.8618 72.3785 37.6545 72.3785ZM90.4084 72.3785C94.2012 72.3785 97.2765 75.453 97.2766 79.2457C97.2766 83.0386 94.2013 86.1139 90.4084 86.1139C86.6158 86.1137 83.5413 83.0384 83.5413 79.2457C83.5414 75.4531 86.6159 72.3787 90.4084 72.3785ZM64.0374 57.1442C67.8302 57.1442 70.9055 60.2186 70.9055 64.0114C70.9055 67.8042 67.8302 70.8785 64.0374 70.8785C60.2446 70.8785 57.1702 67.8042 57.1702 64.0114C57.1702 60.2186 60.2446 57.1442 64.0374 57.1442ZM37.6545 41.9205C41.4472 41.9207 44.5217 44.996 44.5217 48.7887C44.5215 52.5813 41.4471 55.6557 37.6545 55.6559C33.8618 55.6559 30.7866 52.5814 30.7864 48.7887C30.7864 44.9959 33.8617 41.9205 37.6545 41.9205ZM90.4084 41.9205C94.2013 41.9205 97.2766 44.9959 97.2766 48.7887C97.2764 52.5814 94.2012 55.6559 90.4084 55.6559C86.6159 55.6557 83.5415 52.5813 83.5413 48.7887C83.5413 44.996 86.6158 41.9207 90.4084 41.9205ZM64.0374 27.3278C67.8302 27.3278 70.9055 30.4021 70.9055 34.1949C70.9055 37.9877 67.8302 41.0621 64.0374 41.0621C60.2446 41.0621 57.1702 37.9877 57.1702 34.1949C57.1702 30.4021 60.2446 27.3278 64.0374 27.3278Z" fill="url(#paint0_linear_202_6584)"/>
<path d="M64.0371 85.541C68.6155 85.541 72.3359 89.2615 72.3359 93.8399C72.3357 98.4181 68.6153 102.138 64.0371 102.138C59.459 102.138 55.7395 98.418 55.7393 93.8399C55.7393 89.2616 59.4588 85.5411 64.0371 85.541ZM64.0371 88.4024C61.0384 88.4025 58.6006 90.8411 58.6006 93.8399C58.6008 96.8385 61.0385 99.2763 64.0371 99.2764C67.0358 99.2764 69.4734 96.8385 69.4736 93.8399C69.4736 90.841 67.0359 88.4024 64.0371 88.4024ZM37.6543 70.9473C42.2325 70.9475 45.9521 74.6679 45.9521 79.2461C45.952 83.8243 42.2325 87.5438 37.6543 87.544C33.076 87.544 29.3556 83.8244 29.3555 79.2461C29.3555 74.6678 33.0759 70.9473 37.6543 70.9473ZM90.4082 70.9473C94.9866 70.9473 98.707 74.6678 98.707 79.2461C98.7069 83.8244 94.9865 87.544 90.4082 87.544C85.83 87.5439 82.1105 83.8244 82.1104 79.2461C82.1104 74.6678 85.8299 70.9474 90.4082 70.9473ZM37.6543 73.8096C34.6555 73.8096 32.2168 76.2473 32.2168 79.2461C32.2169 82.2449 34.6555 84.6826 37.6543 84.6826C40.6529 84.6825 43.0907 82.2448 43.0908 79.2461C43.0908 76.2474 40.653 73.8098 37.6543 73.8096ZM90.4082 73.8096C87.4095 73.8097 84.9717 76.2473 84.9717 79.2461C84.9718 82.2448 87.4095 84.6826 90.4082 84.6826C93.407 84.6826 95.8446 82.2449 95.8447 79.2461C95.8447 76.2473 93.407 73.8096 90.4082 73.8096ZM64.0371 55.7246C68.6153 55.7246 72.3357 59.4443 72.3359 64.0225C72.3359 68.6009 68.6155 72.3213 64.0371 72.3213C59.4588 72.3212 55.7393 68.6008 55.7393 64.0225C55.7395 59.4444 59.459 55.7247 64.0371 55.7246ZM64.0371 58.586C61.0385 58.5861 58.6008 61.0239 58.6006 64.0225C58.6006 67.0213 61.0384 69.4599 64.0371 69.46C67.0359 69.46 69.4736 67.0213 69.4736 64.0225C69.4734 61.0238 67.0358 58.586 64.0371 58.586ZM37.6543 40.4903C42.2324 40.4904 45.952 44.21 45.9521 48.7881C45.9521 53.3664 42.2325 57.0868 37.6543 57.0869C33.0759 57.0869 29.3555 53.3665 29.3555 48.7881C29.3556 44.2099 33.076 40.4903 37.6543 40.4903ZM90.4082 40.4903C94.9865 40.4903 98.7069 44.2099 98.707 48.7881C98.707 53.3665 94.9866 57.0869 90.4082 57.0869C85.8299 57.0869 82.1104 53.3664 82.1104 48.7881C82.1105 44.2099 85.83 40.4904 90.4082 40.4903ZM37.6543 43.3516C34.6556 43.3516 32.2169 45.7894 32.2168 48.7881C32.2168 51.7869 34.6555 54.2256 37.6543 54.2256C40.653 54.2255 43.0908 51.7869 43.0908 48.7881C43.0907 45.7895 40.6529 43.3518 37.6543 43.3516ZM90.4082 43.3516C87.4095 43.3517 84.9718 45.7894 84.9717 48.7881C84.9717 51.7869 87.4095 54.2255 90.4082 54.2256C93.407 54.2256 95.8447 51.7869 95.8447 48.7881C95.8446 45.7894 93.4069 43.3516 90.4082 43.3516ZM64.0371 25.8848C68.6155 25.8848 72.3359 29.6053 72.3359 34.1836C72.3358 38.7619 68.6154 42.4815 64.0371 42.4815C59.4589 42.4814 55.7394 38.7618 55.7393 34.1836C55.7393 29.6053 59.4588 25.8849 64.0371 25.8848ZM64.0371 28.7461C61.0384 28.7462 58.6006 31.1849 58.6006 34.1836C58.6007 37.1823 61.0384 39.62 64.0371 39.6201C67.0359 39.6201 69.4735 37.1824 69.4736 34.1836C69.4736 31.1848 67.0359 28.7461 64.0371 28.7461Z" fill="url(#paint1_linear_202_6584)"/>
<defs>
<linearGradient id="paint0_linear_202_6584" x1="22.1449" y1="27.5904" x2="99.8978" y2="39.6491" gradientUnits="userSpaceOnUse">
<stop stop-color="white"/>
<stop offset="1" stop-color="#BCDFFF"/>
</linearGradient>
<linearGradient id="paint1_linear_202_6584" x1="34.7353" y1="39.6087" x2="95.9709" y2="86.5368" gradientUnits="userSpaceOnUse">
<stop stop-color="#3B98FF"/>
<stop offset="1" stop-color="#156CFF"/>
</linearGradient>
</defs>
</svg>
