<svg width="128" height="128" viewBox="0 0 128 128" fill="none" xmlns="http://www.w3.org/2000/svg">
<path d="M29.1944 55.7899L28.1914 57.5202L30.3543 58.774L31.3573 57.0437L29.1944 55.7899Z" fill="#D3D3D3"/>
<path d="M37.82 60.79L36.82 62.52L32.79 60.18L33.79 58.45L37.82 60.79ZM44.27 64.53L43.27 66.26L39.24 63.92L40.24 62.19L44.27 64.53ZM50.73 68.27L49.73 70L45.69 67.66L46.69 65.93L50.72 68.27H50.73Z" fill="#D3D3D3"/>
<path d="M53.1527 69.6855L52.1497 71.4158L54.3125 72.6696L55.3156 70.9393L53.1527 69.6855Z" fill="#D3D3D3"/>
<path d="M100.258 54.8764L98.0955 56.1301L99.0985 57.8604L101.261 56.6067L100.258 54.8764Z" fill="#D3D3D3"/>
<path d="M96.68 59.27L92.64 61.61L91.64 59.88L95.68 57.54L96.68 59.27ZM90.23 63.01L86.2 65.35L85.2 63.62L89.23 61.28L90.23 63.01ZM83.77 66.76L79.73 69.1L78.73 67.37L82.77 65.03L83.77 66.76Z" fill="#D3D3D3"/>
<path d="M76.304 68.7745L74.1411 70.0283L75.1441 71.7586L77.307 70.5048L76.304 68.7745Z" fill="#D3D3D3"/>
<path fill-rule="evenodd" clip-rule="evenodd" d="M64.24 53.48L84.5299 65.2V88.63L64.24 100.34L43.95 88.63V65.2L64.24 53.48Z" fill="#EFEFEF"/>
<path d="M64.24 52.04L42.7 64.48V89.35L64.24 101.79L85.7799 89.35V64.48L64.24 52.04ZM83.2799 87.9L65.49 98.17V76.43H62.99V98.17L45.2 87.9V65.91L64.24 54.92L83.2799 65.91V87.9Z" fill="#D3D3D3"/>
<path fill-rule="evenodd" clip-rule="evenodd" d="M84.5299 65.2L64.24 76.91L43.95 65.2L64.24 53.48L84.5299 65.2Z" fill="url(#paint0_linear_202_6529)"/>
<path d="M65.24 60.47H63.24V54.28H65.24V60.47ZM65.24 51.16H63.24V46.97H65.24V51.16Z" fill="#2A84FF"/>
<path d="M64.24 78.16C64.02 78.16 63.81 78.1 63.62 77.99L43.33 66.27C42.94 66.05 42.71 65.63 42.71 65.19C42.71 64.75 42.95 64.33 43.33 64.11L63.62 52.39C64.01 52.17 64.48 52.17 64.87 52.39L85.16 64.11C85.55 64.33 85.78 64.75 85.78 65.19C85.78 65.63 85.54 66.05 85.16 66.27L64.87 77.99C64.68 78.1 64.46 78.16 64.25 78.16H64.24ZM46.45 65.2L64.24 75.47L82.03 65.2L64.24 54.93L46.45 65.2Z" fill="url(#paint1_linear_202_6529)"/>
<path d="M99.1085 96.0667L98.1055 97.797L100.268 99.0508L101.271 97.3205L99.1085 96.0667Z" fill="#D3D3D3"/>
<path d="M95.68 96.39L91.64 94.05L92.64 92.32L96.68 94.66L95.68 96.39ZM89.22 92.65L85.19 90.31L86.19 88.58L90.22 90.92L89.22 92.65ZM82.77 88.9L78.73 86.56L79.73 84.83L83.77 87.17L82.77 88.9Z" fill="#D3D3D3"/>
<path d="M75.1502 82.1811L74.1472 83.9114L76.3101 85.1652L77.3131 83.4349L75.1502 82.1811Z" fill="#D3D3D3"/>
<path d="M65.24 41.36H63.24V43.86H65.24V41.36Z" fill="#5AA4FD"/>
<path d="M65.24 63.58H63.24V66.08H65.24V63.58Z" fill="#2A84FF"/>
<path d="M30.3714 96.0575L28.2085 97.3113L29.2115 99.0416L31.3744 97.7878L30.3714 96.0575Z" fill="#D3D3D3"/>
<path d="M33.78 96.39L32.78 94.66L36.81 92.32L37.81 94.05L33.78 96.39ZM40.24 92.65L39.24 90.92L43.27 88.58L44.27 90.31L40.24 92.65ZM46.69 88.9L45.69 87.17L49.73 84.83L50.73 86.56L46.7 88.9H46.69Z" fill="#D3D3D3"/>
<path d="M54.3157 82.1694L52.1528 83.4232L53.1559 85.1535L55.3187 83.8997L54.3157 82.1694Z" fill="#D3D3D3"/>
<path fill-rule="evenodd" clip-rule="evenodd" d="M103.53 89.58L112.23 94.61V104.65L103.53 109.67L94.8301 104.65V94.61L103.53 89.58Z" fill="#E0E0E0"/>
<path d="M112.85 93.52L104.15 88.5C103.76 88.28 103.29 88.28 102.9 88.5L94.2001 93.52C93.8101 93.74 93.5801 94.16 93.5801 94.6V104.64C93.5801 105.09 93.8201 105.5 94.2001 105.72L102.9 110.74C103.09 110.85 103.31 110.91 103.52 110.91C103.73 110.91 103.95 110.85 104.14 110.74L112.84 105.72C113.23 105.5 113.46 105.08 113.46 104.64V94.6C113.46 94.15 113.22 93.74 112.84 93.52H112.85ZM103.53 91.03L109.73 94.61L103.53 98.19L97.3301 94.61L103.53 91.03ZM96.0801 96.77L102.28 100.35V107.51L96.0801 103.93V96.78V96.77ZM104.78 107.5V100.34L110.98 96.76V103.91L104.78 107.49V107.5Z" fill="#5E6466"/>
<path fill-rule="evenodd" clip-rule="evenodd" d="M25.45 89.58L34.14 94.61V104.65L25.45 109.67L16.75 104.65V94.61L25.45 89.58Z" fill="#E0E0E0"/>
<path d="M34.77 93.52L26.07 88.5C25.68 88.28 25.21 88.28 24.82 88.5L16.12 93.52C15.73 93.74 15.5 94.16 15.5 94.6V104.64C15.5 105.09 15.74 105.5 16.12 105.72L24.82 110.74C25.01 110.85 25.23 110.91 25.44 110.91C25.65 110.91 25.87 110.85 26.06 110.74L34.76 105.72C35.15 105.5 35.38 105.08 35.38 104.64V94.6C35.38 94.15 35.14 93.74 34.76 93.52H34.77ZM25.45 91.03L31.65 94.61L25.45 98.19L19.25 94.61L25.45 91.03ZM18 96.77L24.2 100.35V107.51L18 103.93V96.78V96.77ZM26.7 107.5V100.34L32.9 96.76V103.91L26.7 107.49V107.5Z" fill="#5E6466"/>
<path fill-rule="evenodd" clip-rule="evenodd" d="M103.53 43.23L112.23 48.26V58.3L103.53 63.32L94.8301 58.3V48.26L103.53 43.23Z" fill="#E0E0E0"/>
<path d="M112.85 47.17L104.15 42.15C103.76 41.93 103.29 41.93 102.9 42.15L94.2001 47.17C93.8101 47.39 93.5801 47.81 93.5801 48.25V58.29C93.5801 58.74 93.8201 59.15 94.2001 59.37L102.9 64.39C103.09 64.5 103.31 64.56 103.52 64.56C103.73 64.56 103.95 64.5 104.14 64.39L112.84 59.37C113.23 59.15 113.46 58.73 113.46 58.29V48.25C113.46 47.8 113.22 47.39 112.84 47.17H112.85ZM103.53 44.68L109.73 48.26L103.53 51.84L97.3301 48.26L103.53 44.68ZM96.0801 50.42L102.28 54V61.16L96.0801 57.58V50.43V50.42ZM104.78 61.15V53.99L110.98 50.41V57.56L104.78 61.14V61.15Z" fill="#5E6466"/>
<path fill-rule="evenodd" clip-rule="evenodd" d="M25.45 43.23L34.14 48.26V58.3L25.45 63.32L16.75 58.3V48.26L25.45 43.23Z" fill="#E0E0E0"/>
<path d="M34.77 47.17L26.07 42.15C25.68 41.93 25.21 41.93 24.82 42.15L16.12 47.17C15.73 47.39 15.5 47.81 15.5 48.25V58.29C15.5 58.74 15.74 59.15 16.12 59.37L24.82 64.39C25.01 64.5 25.23 64.56 25.44 64.56C25.65 64.56 25.87 64.5 26.06 64.39L34.76 59.37C35.15 59.15 35.38 58.73 35.38 58.29V48.25C35.38 47.8 35.14 47.39 34.76 47.17H34.77ZM25.45 44.68L31.65 48.26L25.45 51.84L19.25 48.26L25.45 44.68ZM18 50.42L24.2 54V61.16L18 57.58V50.43V50.42ZM26.7 61.15V53.99L32.9 50.41V57.56L26.7 61.14V61.15Z" fill="#5E6466"/>
<path d="M64 41C71.732 41 78 34.732 78 27C78 19.268 71.732 13 64 13C56.268 13 50 19.268 50 27C50 34.732 56.268 41 64 41Z" fill="url(#paint2_linear_202_6529)"/>
<path d="M63.9998 40.9512C68.1145 40.9512 71.4502 34.6996 71.4502 26.9877C71.4502 19.2759 68.1145 13.0243 63.9998 13.0243C59.885 13.0243 56.5493 19.2759 56.5493 26.9877C56.5493 34.6996 59.885 40.9512 63.9998 40.9512Z" stroke="#3693FF" stroke-width="2" stroke-miterlimit="10"/>
<path d="M75.0907 18.3686C75.1759 18.673 75.2124 18.9895 75.2124 19.3182C75.2124 22.7878 70.1846 25.6121 64.0003 25.6121C57.8159 25.6121 52.7881 22.8 52.7881 19.3182C52.7881 18.9895 52.8368 18.6608 52.922 18.3443" stroke="#3693FF" stroke-width="2" stroke-miterlimit="10"/>
<path d="M77.9512 27.8157C77.9512 31.2853 71.706 34.1096 63.9999 34.1096C56.2938 34.1096 50.0486 31.2975 50.0486 27.8157" stroke="#3693FF" stroke-width="2" stroke-miterlimit="10"/>
<path d="M64 41V13" stroke="#3693FF" stroke-width="2" stroke-miterlimit="10"/>
<path d="M64 40.9512C71.732 40.9512 78 34.6996 78 26.9877C78 19.2759 71.732 13.0243 64 13.0243C56.268 13.0243 50 19.2759 50 26.9877C50 34.6996 56.268 40.9512 64 40.9512Z" stroke="url(#paint3_linear_202_6529)" stroke-width="2" stroke-miterlimit="10"/>
<defs>
<linearGradient id="paint0_linear_202_6529" x1="53.5" y1="58" x2="77" y2="72" gradientUnits="userSpaceOnUse">
<stop stop-color="white"/>
<stop offset="1" stop-color="#BCDFFF"/>
</linearGradient>
<linearGradient id="paint1_linear_202_6529" x1="51" y1="55" x2="77" y2="72.5" gradientUnits="userSpaceOnUse">
<stop stop-color="#42A2FF"/>
<stop offset="1" stop-color="#1268FF"/>
</linearGradient>
<linearGradient id="paint2_linear_202_6529" x1="56.5895" y1="18.4016" x2="76.2349" y2="25.159" gradientUnits="userSpaceOnUse">
<stop stop-color="white"/>
<stop offset="1" stop-color="#BCDFFF"/>
</linearGradient>
<linearGradient id="paint3_linear_202_6529" x1="54" y1="15.5" x2="73.5" y2="39.5" gradientUnits="userSpaceOnUse">
<stop stop-color="#3B99FF"/>
<stop offset="1" stop-color="#166DFF"/>
</linearGradient>
</defs>
</svg>
