<svg width="128" height="128" viewBox="0 0 128 128" fill="none" xmlns="http://www.w3.org/2000/svg">
<path d="M4 58.2769C4 33.2444 4 20.7281 11.5055 12.7356C11.9025 12.3128 12.3128 11.9025 12.7356 11.5055C20.7281 4 33.2444 4 58.2769 4H69.7231C94.7556 4 107.272 4 115.264 11.5055C115.687 11.9025 116.097 12.3128 116.495 12.7356C124 20.7281 124 33.2444 124 58.2769V69.7231C124 94.7556 124 107.272 116.495 115.264C116.097 115.687 115.687 116.097 115.264 116.495C107.272 124 94.7556 124 69.7231 124H58.2769C33.2444 124 20.7281 124 12.7356 116.495C12.3128 116.097 11.9025 115.687 11.5055 115.264C4 107.272 4 94.7556 4 69.7231V58.2769Z" fill="#0D62FF"/>
<path d="M83.7281 63.1604L62.3233 98.1873L33.4141 66.6503L39.2013 61.3498L61.0613 85.1975L76.8363 59.3847L83.7281 63.1604Z" fill="#97CDFF"/>
<path d="M104.483 49.6264C104.483 59.5312 96.4541 67.5605 86.5494 67.5605C76.6447 67.5605 68.6154 59.5312 68.6154 49.6264C68.6154 39.7217 76.6447 31.6924 86.5494 31.6924C96.4541 31.6924 104.483 39.7217 104.483 49.6264Z" fill="#3A7FFF"/>
<path d="M95.2528 49.6264C95.2528 44.8198 91.356 40.9232 86.5494 40.9231C81.7428 40.9231 77.8461 44.8198 77.8461 49.6264C77.8461 54.4331 81.7428 58.3298 86.5494 58.3298V67.5605L85.6255 67.538C76.4562 67.0727 69.1033 59.7197 68.6379 50.5504L68.6154 49.6264C68.6154 39.7218 76.6448 31.6924 86.5494 31.6924L87.4734 31.7149C96.9486 32.1958 104.483 40.0317 104.483 49.6264L104.461 50.5504C103.98 60.0256 96.1441 67.5604 86.5494 67.5605V58.3298C91.356 58.3297 95.2527 54.433 95.2528 49.6264Z" fill="white"/>
<path d="M73.2308 89.3847C73.2308 95.7572 68.0648 100.923 61.6923 100.923C55.3198 100.923 50.1539 95.7572 50.1539 89.3847C50.1539 83.0121 55.3198 77.8462 61.6923 77.8462C68.0648 77.8462 73.2308 83.0121 73.2308 89.3847Z" fill="white"/>
<path d="M45.5385 61.6924C45.5385 68.0649 40.3725 73.2309 34 73.2309C27.6275 73.2309 22.4615 68.0649 22.4615 61.6924C22.4615 55.3199 27.6275 50.1539 34 50.1539C40.3725 50.1539 45.5385 55.3199 45.5385 61.6924Z" fill="white"/>
</svg>
