<svg width="128" height="128" viewBox="0 0 128 128" fill="none" xmlns="http://www.w3.org/2000/svg">
<path d="M32.5694 37.4512H10.8061V61.0256H32.5694V37.4512Z" fill="url(#paint0_linear_72_1394)"/>
<path d="M115.99 4.81104H94.2267V28.3854H115.99V4.81104Z" fill="url(#paint1_linear_72_1394)"/>
<path d="M115.99 37.4512H94.2267V61.0256H115.99V37.4512Z" fill="url(#paint2_linear_72_1394)"/>
<path d="M117.801 70.0966H96.0375V93.6709H117.801V70.0966Z" fill="url(#paint3_linear_72_1394)"/>
<path fill-rule="evenodd" clip-rule="evenodd" d="M96.2739 7.47373V25.379H114.179V7.47373H96.2739ZM94.0422 3C92.8057 3 91.8002 4.00556 91.8002 5.242V27.621C91.8002 28.8574 92.8057 29.863 94.0422 29.863H116.421C117.658 29.863 118.663 28.8574 118.663 27.621V5.242C118.663 4.00556 117.658 3 116.421 3H94.0422ZM96.2739 58.9475V41.0422H114.179V58.9475H96.2739ZM91.8002 38.8105C91.8002 37.5741 92.8057 36.5685 94.0422 36.5685H116.421C117.658 36.5685 118.663 37.5741 118.663 38.8105V61.1895C118.663 62.4259 117.658 63.4315 116.421 63.4315H94.0422C92.8057 63.4315 91.8002 62.4259 91.8002 61.1895V38.8105ZM96.2739 92.5211V74.6159H114.179V92.5211H96.2739ZM91.8002 72.379C91.8002 71.1426 92.8057 70.137 94.0422 70.137H116.421C117.658 70.137 118.663 71.1426 118.663 72.379V94.758C118.663 95.9944 117.658 97 116.421 97H94.0422C92.8057 97 91.8002 95.9944 91.8002 94.758V72.379ZM13.4737 58.9475V41.0422H31.379V58.9475H13.4737ZM9 38.8105C9 37.5741 10.0056 36.5685 11.242 36.5685H33.621C34.8574 36.5685 35.863 37.5741 35.863 38.8105V47.7631H60.4788V20.9052C60.4788 17.1959 63.4853 14.1895 67.1946 14.1895H91.8156V18.6632H67.1946C65.9582 18.6632 64.9526 19.6688 64.9526 20.9052V47.7631H91.8053V52.242H64.9526V79.0999C64.9526 80.3363 65.9582 81.3419 67.1946 81.3419H91.8156V85.8156H67.1946C63.4853 85.8156 60.4788 82.8092 60.4788 79.105V52.2471H35.863V61.1998C35.863 62.4362 34.8574 63.4418 33.621 63.4418H11.242C10.0056 63.4418 9 62.4362 9 61.1998V38.8208V38.8105Z" fill="url(#paint4_linear_72_1394)"/>
<path d="M31.3516 124.188C28.1562 124.188 25.8203 121.883 25.8203 118.188C25.8203 114.469 28.1484 112.172 31.3516 112.172C34.0781 112.172 36.1094 113.859 36.4766 116.461H34.0469C33.7734 115.086 32.7656 114.297 31.3828 114.297C29.4062 114.297 28.2422 115.805 28.2422 118.188C28.2422 120.555 29.3984 122.062 31.3828 122.062C32.7578 122.062 33.7578 121.281 34.0547 119.914H36.4766C36.1094 122.508 34.0781 124.188 31.3516 124.188ZM42.9297 124.188C39.7969 124.188 37.4453 121.875 37.4453 118.188C37.4453 114.477 39.7969 112.172 42.9297 112.172C46.0625 112.172 48.4219 114.477 48.4219 118.188C48.4219 121.891 46.0625 124.188 42.9297 124.188ZM42.9297 122.062C44.7266 122.062 46 120.656 46 118.188C46 115.703 44.7266 114.297 42.9297 114.297C41.1328 114.297 39.8672 115.703 39.8672 118.188C39.8672 120.656 41.1328 122.062 42.9297 122.062ZM49.7891 124V112.359H52.3203L56.0625 118.312C56.3359 118.75 56.8359 119.633 57.2969 120.469C57.2656 119.57 57.2578 118.609 57.2578 118.117V112.359H59.6562V124H57.1172L53.7266 118.609C53.3906 118.078 52.7969 117.07 52.1406 115.891C52.1875 117.109 52.1953 118.102 52.1953 118.602V124H49.7891ZM61.3984 124V112.359H63.9297L67.6719 118.312C67.9453 118.75 68.4453 119.633 68.9062 120.469C68.875 119.57 68.8672 118.609 68.8672 118.117V112.359H71.2656V124H68.7266L65.3359 118.609C65 118.078 64.4062 117.07 63.75 115.891C63.7969 117.109 63.8047 118.102 63.8047 118.602V124H61.3984ZM73.0078 124V112.359H81.3594V114.422H75.4141V117.117H80.9141V119.125H75.4141V121.938H81.3594V124H73.0078ZM87.8984 124.188C84.7031 124.188 82.3672 121.883 82.3672 118.188C82.3672 114.469 84.6953 112.172 87.8984 112.172C90.625 112.172 92.6562 113.859 93.0234 116.461H90.5938C90.3203 115.086 89.3125 114.297 87.9297 114.297C85.9531 114.297 84.7891 115.805 84.7891 118.188C84.7891 120.555 85.9453 122.062 87.9297 122.062C89.3047 122.062 90.3047 121.281 90.6016 119.914H93.0234C92.6562 122.508 90.625 124.188 87.8984 124.188ZM93.8516 114.422V112.359H103.312V114.422H99.7891V124H97.3828V114.422H93.8516Z" fill="black"/>
<defs>
<linearGradient id="paint0_linear_72_1394" x1="21.6929" y1="37.4512" x2="21.6929" y2="61.0256" gradientUnits="userSpaceOnUse">
<stop stop-color="#FFE0A6"/>
<stop offset="1" stop-color="#FFEDC9"/>
</linearGradient>
<linearGradient id="paint1_linear_72_1394" x1="105.108" y1="4.81104" x2="105.108" y2="28.3854" gradientUnits="userSpaceOnUse">
<stop stop-color="#FFE0A6"/>
<stop offset="1" stop-color="#FFEDC9"/>
</linearGradient>
<linearGradient id="paint2_linear_72_1394" x1="105.108" y1="37.4512" x2="105.108" y2="61.0256" gradientUnits="userSpaceOnUse">
<stop stop-color="#FFE0A6"/>
<stop offset="1" stop-color="#FFEDC9"/>
</linearGradient>
<linearGradient id="paint3_linear_72_1394" x1="106.919" y1="70.0966" x2="106.919" y2="93.6709" gradientUnits="userSpaceOnUse">
<stop stop-color="#FFE0A6"/>
<stop offset="1" stop-color="#FFEDC9"/>
</linearGradient>
<linearGradient id="paint4_linear_72_1394" x1="63.829" y1="3" x2="63.829" y2="96.9949" gradientUnits="userSpaceOnUse">
<stop stop-color="#FDD236"/>
<stop offset="0.35" stop-color="#D78F28"/>
<stop offset="1" stop-color="#F89942"/>
</linearGradient>
</defs>
</svg>
