<svg width="128" height="128" viewBox="0 0 128 128" fill="none" xmlns="http://www.w3.org/2000/svg">
<path d="M32.5694 51.4512H10.8061V75.0256H32.5694V51.4512Z" fill="url(#paint0_linear_72_1278)"/>
<path d="M115.99 18.811H94.2267V42.3854H115.99V18.811Z" fill="url(#paint1_linear_72_1278)"/>
<path d="M115.99 51.4512H94.2267V75.0256H115.99V51.4512Z" fill="url(#paint2_linear_72_1278)"/>
<path d="M117.801 84.0966H96.0375V107.671H117.801V84.0966Z" fill="url(#paint3_linear_72_1278)"/>
<path fill-rule="evenodd" clip-rule="evenodd" d="M96.2739 21.4737V39.379H114.179V21.4737H96.2739ZM94.0422 17C92.8057 17 91.8002 18.0056 91.8002 19.242V41.621C91.8002 42.8574 92.8057 43.863 94.0422 43.863H116.421C117.658 43.863 118.663 42.8574 118.663 41.621V19.242C118.663 18.0056 117.658 17 116.421 17H94.0422ZM96.2739 72.9475V55.0422H114.179V72.9475H96.2739ZM91.8002 52.8105C91.8002 51.5741 92.8057 50.5685 94.0422 50.5685H116.421C117.658 50.5685 118.663 51.5741 118.663 52.8105V75.1895C118.663 76.4259 117.658 77.4315 116.421 77.4315H94.0422C92.8057 77.4315 91.8002 76.4259 91.8002 75.1895V52.8105ZM96.2739 106.521V88.6159H114.179V106.521H96.2739ZM91.8002 86.379C91.8002 85.1426 92.8057 84.137 94.0422 84.137H116.421C117.658 84.137 118.663 85.1426 118.663 86.379V108.758C118.663 109.994 117.658 111 116.421 111H94.0422C92.8057 111 91.8002 109.994 91.8002 108.758V86.379ZM13.4737 72.9475V55.0422H31.379V72.9475H13.4737ZM9 52.8105C9 51.5741 10.0056 50.5685 11.242 50.5685H33.621C34.8574 50.5685 35.863 51.5741 35.863 52.8105V61.7631H60.4788V34.9052C60.4788 31.1959 63.4853 28.1895 67.1946 28.1895H91.8156V32.6632H67.1946C65.9582 32.6632 64.9526 33.6688 64.9526 34.9052V61.7631H91.8053V66.242H64.9526V93.0999C64.9526 94.3363 65.9582 95.3419 67.1946 95.3419H91.8156V99.8156H67.1946C63.4853 99.8156 60.4788 96.8092 60.4788 93.105V66.2471H35.863V75.1998C35.863 76.4362 34.8574 77.4418 33.621 77.4418H11.242C10.0056 77.4418 9 76.4362 9 75.1998V52.8208V52.8105Z" fill="url(#paint4_linear_72_1278)"/>
<defs>
<linearGradient id="paint0_linear_72_1278" x1="21.6929" y1="51.4512" x2="21.6929" y2="75.0256" gradientUnits="userSpaceOnUse">
<stop stop-color="#FFE0A6"/>
<stop offset="1" stop-color="#FFEDC9"/>
</linearGradient>
<linearGradient id="paint1_linear_72_1278" x1="105.108" y1="18.811" x2="105.108" y2="42.3854" gradientUnits="userSpaceOnUse">
<stop stop-color="#FFE0A6"/>
<stop offset="1" stop-color="#FFEDC9"/>
</linearGradient>
<linearGradient id="paint2_linear_72_1278" x1="105.108" y1="51.4512" x2="105.108" y2="75.0256" gradientUnits="userSpaceOnUse">
<stop stop-color="#FFE0A6"/>
<stop offset="1" stop-color="#FFEDC9"/>
</linearGradient>
<linearGradient id="paint3_linear_72_1278" x1="106.919" y1="84.0966" x2="106.919" y2="107.671" gradientUnits="userSpaceOnUse">
<stop stop-color="#FFE0A6"/>
<stop offset="1" stop-color="#FFEDC9"/>
</linearGradient>
<linearGradient id="paint4_linear_72_1278" x1="63.829" y1="17" x2="63.829" y2="110.995" gradientUnits="userSpaceOnUse">
<stop stop-color="#FDD236"/>
<stop offset="0.35" stop-color="#D78F28"/>
<stop offset="1" stop-color="#F89942"/>
</linearGradient>
</defs>
</svg>
