<svg width="128" height="128" viewBox="0 0 128 128" fill="none" xmlns="http://www.w3.org/2000/svg">
<path d="M88.0117 29.0225C97.4869 29.5034 105.021 37.3398 105.021 46.9346L104.999 47.8584C104.518 57.3334 96.6825 64.8681 87.0879 64.8682L86.1641 64.8457C84.7321 64.773 83.3445 64.5319 82.0205 64.1426L71.9951 80.5479C73.1172 82.3273 73.7695 84.4332 73.7695 86.6924C73.7695 93.0649 68.603 98.2305 62.2305 98.2305C55.8581 98.2303 50.6924 93.0648 50.6924 86.6924C50.6924 85.3684 50.9177 84.0974 51.3281 82.9131L39.1162 69.5918C37.7125 70.1993 36.165 70.5381 34.5381 70.5381C28.1657 70.5379 23 65.3724 23 59C23 52.6276 28.1658 47.4621 34.5381 47.4619C40.9106 47.4619 46.0771 52.6275 46.0771 59C46.0771 60.876 45.6264 62.6461 44.832 64.2119L56.3418 76.7695C58.0658 75.7442 60.079 75.1543 62.2305 75.1543C63.4598 75.1543 64.6438 75.348 65.7549 75.7041L75.1553 60.3223C71.687 57.2288 69.4281 52.8086 69.1768 47.8584L69.1543 46.9346C69.1543 37.0299 77.1833 29 87.0879 29L88.0117 29.0225ZM87.0879 38.2305C82.2812 38.2305 78.3848 42.1279 78.3848 46.9346C78.3851 51.741 82.2814 55.6377 87.0879 55.6377C91.8943 55.6376 95.7907 51.7409 95.791 46.9346C95.791 42.1279 91.8945 38.2305 87.0879 38.2305Z" fill="url(#paint0_linear_205_6849)"/>
<defs>
<linearGradient id="paint0_linear_205_6849" x1="64.0107" y1="29" x2="64.0107" y2="98.2305" gradientUnits="userSpaceOnUse">
<stop stop-color="#27B0FF"/>
<stop offset="1" stop-color="#177CFF"/>
</linearGradient>
</defs>
</svg>
