<svg width="128" height="128" viewBox="0 0 128 128" fill="none" xmlns="http://www.w3.org/2000/svg">
<path d="M122.741 107.392L30.6562 124.942L31.071 60.229L122.778 77.2318L122.741 107.392ZM30.9579 3L122.741 37.5523V72.1046L31.1275 52.5947" fill="#0091FF"/>
<path d="M31.1282 52.599L6.17017 64.2296V18.141L30.9774 3.02319M118.594 68.1316L35.3507 49.0741V7.81113L118.594 38.5368V68.1316ZM72.8254 53.3342L81.1196 55.6151V28.6217L72.8254 25.6999V53.3342ZM64.4558 23.0797L56.1616 20.0826V48.829L64.4558 51.1853V23.0797ZM89.508 57.8771L97.7268 60.0637L97.8965 34.371L89.508 31.6188V57.8771ZM39.4978 44.6254L47.792 46.7367V17.3116L39.4978 14.5406V44.6254ZM114.466 39.9883L106.172 37.0665V62.1938L114.466 64.4746V39.9883ZM35.3695 67.0571V120.46L118.613 105.172V79.9129L35.3695 67.0571ZM39.5166 114.22V73.0891L47.8108 74.1447V112.806L39.5166 114.22ZM64.4746 110.073L56.1804 111.619V75.2758L64.4746 76.501C64.4746 76.4068 64.4746 110.073 64.4746 110.073ZM72.8442 108.848V77.3116L81.1384 78.3672V107.321L72.8442 108.848ZM97.8022 104.456L89.508 105.832V79.3285L97.8022 80.5538V104.456ZM114.711 101.779L106.096 103.249V81.4586L114.146 82.4388L114.711 101.779Z" fill="#0076F7"/>
<path d="M14.6146 51.7876L10.4675 54.2193V21.4578L14.6146 19.1769V51.7876ZM22.9088 14.4644L18.7617 17.3107V49.1863L22.9088 46.9054V14.4644Z" fill="#0091FF"/>
<path d="M6.16965 110.146L6 72.2574L31.0334 60.1367L31.203 125" fill="#0076F7"/>
<path d="M14.0498 109.996L10.2231 108.054V76.0846L14.0498 74.4069V109.996ZM23.0226 70.3918L18.8755 72.1826L18.7058 112.541L23.0226 114.727V70.3918Z" fill="#0091FF"/>
<path d="M114.371 42.6783L39.5725 17.5511L39.6479 14.3088L114.352 40.0016V42.6783H114.371ZM114.126 82.5086L39.6291 73.159V76.4012L114.183 85.1853L114.126 82.5086ZM22.9276 18.7009V14.6293L10.8067 21.3022L10.6371 24.7141L22.9276 18.7009ZM10.3166 78.5312L23.003 73.8941V70.388L10.2412 76.0807L10.3166 78.5312Z" fill="#0066D4"/>
</svg>
