<svg width="128" height="128" viewBox="0 0 128 128" fill="none" xmlns="http://www.w3.org/2000/svg">
<path d="M7 68.3745C7 63.4206 8.15016 58.5343 10.3599 54.1006L24.1499 26.4315C25.5032 23.7162 28.276 22 31.3099 22H94.776C97.6852 22 100.365 23.5794 101.775 26.1244L116.994 53.6085C119.622 58.353 121 63.6874 121 69.1108V73.9474C121 75.0519 120.105 75.9474 119 75.9474H9C7.89543 75.9474 7 75.0519 7 73.9474V68.3745Z" fill="#DC9100"/>
<path d="M7 66.8421C7 63.5284 9.68629 60.8421 13 60.8421H115C118.314 60.8421 121 63.5284 121 66.8421V98C121 101.314 118.314 104 115 104H13C9.68629 104 7 101.314 7 98V66.8421Z" fill="url(#paint0_linear_198_2810)"/>
<path d="M19.906 87.7368C19.906 87.1846 20.3537 86.7368 20.906 86.7368H61.9249C62.4772 86.7368 62.9249 87.1846 62.9249 87.7368V92.2105C62.9249 92.7628 62.4772 93.2105 61.9249 93.2105H20.906C20.3537 93.2105 19.906 92.7628 19.906 92.2105V87.7368Z" fill="#DC9100"/>
<path d="M19.906 74.7895C19.906 74.2372 20.3537 73.7895 20.906 73.7895H61.9249C62.4772 73.7895 62.9249 74.2372 62.9249 74.7895V79.2632C62.9249 79.8155 62.4772 80.2632 61.9249 80.2632H20.906C20.3537 80.2632 19.906 79.8155 19.906 79.2632V74.7895Z" fill="#DC9100"/>
<ellipse cx="83.1377" cy="75.6311" rx="4.85985" ry="4.87556" fill="#FFF1D6"/>
<ellipse cx="99.3379" cy="75.6311" rx="4.85985" ry="4.87556" fill="#FFF1D6"/>
<defs>
<linearGradient id="paint0_linear_198_2810" x1="12.1578" y1="60.8421" x2="84.6718" y2="151.112" gradientUnits="userSpaceOnUse">
<stop stop-color="#FFD583"/>
<stop offset="1" stop-color="#F0A410"/>
</linearGradient>
</defs>
</svg>
