<svg width="128" height="128" viewBox="0 0 128 128" fill="none" xmlns="http://www.w3.org/2000/svg">
<path d="M62.4573 68.0833L35.322 84.1442L71.7482 106.266" stroke="#9AD3D0" stroke-width="2.5" stroke-linejoin="round"/>
<path d="M93.7966 50.4935L93.9786 79.2577" stroke="#97CBFF" stroke-width="2.5" stroke-miterlimit="10"/>
<path d="M93.7966 50.4935L120.086 64.7709" stroke="#97CBFF" stroke-width="2.5" stroke-miterlimit="10"/>
<path d="M3 64.498L40.327 87.1744" stroke="#9AD3D0" stroke-width="2.5" stroke-linejoin="round"/>
<path d="M39.2078 81.751L12.0815 97.8029" stroke="#9AD3D0" stroke-width="2.5" stroke-linejoin="round"/>
<path d="M91.003 51.822L63.8677 67.883" stroke="#97CBFF" stroke-width="2.5" stroke-miterlimit="10"/>
<path d="M60.4558 33.6682L37.4426 47.4997L38.4982 49.9203L59.7096 62.4779" stroke="#C5AFE8" stroke-width="2.5" stroke-miterlimit="10"/>
<path d="M14.6294 33.5499L38.2795 46.6079" stroke="#C5AFE8" stroke-width="2.5" stroke-miterlimit="10"/>
<path d="M93.7969 59.5841C99.1342 59.5841 103.461 55.2575 103.461 49.9202C103.461 44.583 99.1342 40.2563 93.7969 40.2563C88.4597 40.2563 84.1331 44.583 84.1331 49.9202C84.1331 55.2575 88.4597 59.5841 93.7969 59.5841Z" fill="#AEDAFF"/>
<path d="M93.7969 59.5568C99.1342 59.5568 103.461 55.2424 103.461 49.9203C103.461 44.5981 99.1342 40.2837 93.7969 40.2837C88.4597 40.2837 84.1331 44.5981 84.1331 49.9203C84.1331 55.2424 88.4597 59.5568 93.7969 59.5568Z" stroke="#2487FF" stroke-width="2.5" stroke-miterlimit="10"/>
<path d="M93.7968 59.5568C96.0583 59.5568 97.8916 55.2424 97.8916 49.9203C97.8916 44.5981 96.0583 40.2837 93.7968 40.2837C91.5352 40.2837 89.7019 44.5981 89.7019 49.9203C89.7019 55.2424 91.5352 59.5568 93.7968 59.5568Z" stroke="#2487FF" stroke-width="2.5" stroke-miterlimit="10"/>
<path d="M103.251 48.0093C103.324 48.2186 103.361 48.437 103.361 48.6645C103.361 51.0577 99.0837 53.005 93.8059 53.005C88.5281 53.005 84.2512 51.0668 84.2512 48.6645C84.2512 48.437 84.2876 48.2095 84.3695 47.9911" stroke="#2487FF" stroke-width="2.5" stroke-miterlimit="10"/>
<path d="M37.8883 56.2718C43.2255 56.2718 47.5521 51.9451 47.5521 46.6079C47.5521 41.2707 43.2255 36.944 37.8883 36.944C32.551 36.944 28.2244 41.2707 28.2244 46.6079C28.2244 51.9451 32.551 56.2718 37.8883 56.2718Z" fill="#DDC7FF"/>
<path d="M37.8883 56.2445C43.2255 56.2445 47.5521 51.9301 47.5521 46.6079C47.5521 41.2858 43.2255 36.9713 37.8883 36.9713C32.551 36.9713 28.2244 41.2858 28.2244 46.6079C28.2244 51.9301 32.551 56.2445 37.8883 56.2445Z" stroke="#8162AA" stroke-width="2.5" stroke-miterlimit="10"/>
<path d="M37.8883 56.2445C40.1499 56.2445 41.9832 51.9301 41.9832 46.6079C41.9832 41.2858 40.1499 36.9713 37.8883 36.9713C35.6268 36.9713 33.7935 41.2858 33.7935 46.6079C33.7935 51.9301 35.6268 56.2445 37.8883 56.2445Z" stroke="#8162AA" stroke-width="2.5" stroke-miterlimit="10"/>
<path d="M47.3337 44.6879C47.4065 44.8972 47.4429 45.1156 47.4429 45.3431C47.4429 47.7363 43.166 49.6836 37.8882 49.6836C32.6104 49.6836 28.3335 47.7454 28.3335 45.3431C28.3335 45.1156 28.3699 44.8881 28.4518 44.6697" stroke="#8162AA" stroke-width="2.5" stroke-miterlimit="10"/>
<path d="M93.9788 83.8076C96.4916 83.8076 98.5287 81.7705 98.5287 79.2577C98.5287 76.7449 96.4916 74.7079 93.9788 74.7079C91.466 74.7079 89.429 76.7449 89.429 79.2577C89.429 81.7705 91.466 83.8076 93.9788 83.8076Z" fill="#AEDAFF"/>
<path d="M93.9788 83.7982C96.4916 83.7982 98.5287 81.7653 98.5287 79.2575C98.5287 76.7497 96.4916 74.7167 93.9788 74.7167C91.466 74.7167 89.429 76.7497 89.429 79.2575C89.429 81.7653 91.466 83.7982 93.9788 83.7982Z" stroke="#2487FF" stroke-width="2.5" stroke-miterlimit="10"/>
<path d="M60.4554 38.218C62.9682 38.218 65.0052 36.181 65.0052 33.6682C65.0052 31.1554 62.9682 29.1183 60.4554 29.1183C57.9426 29.1183 55.9055 31.1554 55.9055 33.6682C55.9055 36.181 57.9426 38.218 60.4554 38.218Z" fill="#DDC7FF" stroke="#8162AA" stroke-width="2.5" stroke-miterlimit="10"/>
<path d="M60.4554 38.2087C62.9682 38.2087 65.0052 36.1757 65.0052 33.668C65.0052 31.1602 62.9682 29.1272 60.4554 29.1272C57.9426 29.1272 55.9055 31.1602 55.9055 33.668C55.9055 36.1757 57.9426 38.2087 60.4554 38.2087Z" fill="#DDC7FF" stroke="#8162AA" stroke-width="2.5" stroke-miterlimit="10"/>
<path d="M14.6297 38.0997C17.1425 38.0997 19.1795 36.0627 19.1795 33.5499C19.1795 31.037 17.1425 29 14.6297 29C12.1169 29 10.0798 31.037 10.0798 33.5499C10.0798 36.0627 12.1169 38.0997 14.6297 38.0997Z" fill="#DDC7FF" stroke="#8162AA" stroke-width="2.5" stroke-miterlimit="10"/>
<path d="M14.6297 38.0904C17.1425 38.0904 19.1795 36.0574 19.1795 33.5496C19.1795 31.0418 17.1425 29.0089 14.6297 29.0089C12.1169 29.0089 10.0798 31.0418 10.0798 33.5496C10.0798 36.0574 12.1169 38.0904 14.6297 38.0904Z" fill="#DDC7FF" stroke="#8162AA" stroke-width="2.5" stroke-miterlimit="10"/>
<path d="M120.086 69.3208C122.599 69.3208 124.636 67.2837 124.636 64.7709C124.636 62.2581 122.599 60.2211 120.086 60.2211C117.573 60.2211 115.536 62.2581 115.536 64.7709C115.536 67.2837 117.573 69.3208 120.086 69.3208Z" fill="#AEDAFF"/>
<path d="M120.086 69.3115C122.599 69.3115 124.636 67.2785 124.636 64.7707C124.636 62.2629 122.599 60.23 120.086 60.23C117.573 60.23 115.536 62.2629 115.536 64.7707C115.536 67.2785 117.573 69.3115 120.086 69.3115Z" stroke="#2487FF" stroke-width="2.5" stroke-miterlimit="10"/>
<path fill-rule="evenodd" clip-rule="evenodd" d="M16.8589 57.1545L24.7756 61.7225V70.8677L10.9167 78.8937L3 74.3256V65.1895L16.8589 57.1545Z" fill="#B2EBE8"/>
<path d="M24.7756 61.7226L10.9167 69.7576L3 65.1896" stroke="#00877C" stroke-width="2.5" stroke-linejoin="round"/>
<path d="M10.9167 78.8937V69.7576" stroke="#00877C" stroke-width="2.5" stroke-linejoin="round"/>
<path d="M16.8589 57.1545L24.7756 61.7225V70.8677L10.9167 78.8937L3 74.3256V65.1895L16.8589 57.1545Z" stroke="#00877C" stroke-width="2.5" stroke-linejoin="round"/>
<path fill-rule="evenodd" clip-rule="evenodd" d="M69.5278 88.1208L77.4354 92.6888V101.825L63.5766 109.86L55.6689 105.292V96.1558L69.5278 88.1208Z" fill="#B2EBE8"/>
<path d="M77.4354 92.6888L63.5766 100.724L55.6689 96.1558" stroke="#00877C" stroke-width="2.5" stroke-linejoin="round"/>
<path d="M63.5769 109.86V100.724" stroke="#00877C" stroke-width="2.5" stroke-linejoin="round"/>
<path d="M69.5278 88.1208L77.4354 92.6888V101.825L63.5766 109.86L55.6689 105.292V96.1558L69.5278 88.1208Z" stroke="#00877C" stroke-width="2.5" stroke-linejoin="round"/>
<path fill-rule="evenodd" clip-rule="evenodd" d="M35.3222 78.2203L40.3271 81.1049V86.8923L35.3222 89.7769L30.3174 86.8923V81.1049L35.3222 78.2203Z" fill="#B2EBE8"/>
<path d="M40.3271 81.1049L35.3222 83.9986L30.3174 81.1049" stroke="#00877C" stroke-width="2.5" stroke-linejoin="round"/>
<path d="M35.322 89.777V83.9987" stroke="#00877C" stroke-width="2.5" stroke-linejoin="round"/>
<path d="M35.3222 78.2203L40.3271 81.1049V86.8923L35.3222 89.7769L30.3174 86.8923V81.1049L35.3222 78.2203Z" stroke="#00877C" stroke-width="2.5" stroke-linejoin="round"/>
<path fill-rule="evenodd" clip-rule="evenodd" d="M16.1582 89.6404L21.163 92.5341V98.3125L16.1582 101.197L11.1533 98.3125V92.5341L16.1582 89.6404Z" fill="#B2EBE8"/>
<path d="M21.163 92.5342L16.1582 95.4188L11.1533 92.5342" stroke="#00877C" stroke-width="2.5" stroke-linejoin="round"/>
<path d="M16.1584 101.197V95.4188" stroke="#00877C" stroke-width="2.5" stroke-linejoin="round"/>
<path d="M16.1582 89.6404L21.163 92.5341V98.3125L16.1582 101.197L11.1533 98.3125V92.5341L16.1582 89.6404Z" stroke="#00877C" stroke-width="2.5" stroke-linejoin="round"/>
<path fill-rule="evenodd" clip-rule="evenodd" d="M62.4576 55.9988L72.9222 62.041V74.1255L62.4576 80.1677L51.9929 74.1255V62.041L62.4576 55.9988Z" fill="#FFC9BB"/>
<path d="M72.9222 62.0411L62.4576 68.0833L51.9929 62.0411" stroke="#E04C26" stroke-width="2.5" stroke-linejoin="round"/>
<path d="M62.4575 80.1677V68.0833" stroke="#E04C26" stroke-width="2.5" stroke-linejoin="round"/>
<path d="M62.4576 55.9988L72.9222 62.041V74.1255L62.4576 80.1677L51.9929 74.1255V62.041L62.4576 55.9988Z" stroke="#E04C26" stroke-width="2.5" stroke-linejoin="round"/>
</svg>
