<svg width="128" height="128" viewBox="0 0 128 128" fill="none" xmlns="http://www.w3.org/2000/svg">
<path d="M76.2289 31.8524C79.49 31.8524 82.1336 29.2088 82.1336 25.9478C82.1336 22.6868 79.49 20.0432 76.2289 20.0432C72.9678 20.0432 70.3242 22.6868 70.3242 25.9478C70.3242 29.2088 72.9678 31.8524 76.2289 31.8524Z" fill="#FFEBC3"/>
<path d="M76.2289 105.962C79.49 105.962 82.1336 103.318 82.1336 100.057C82.1336 96.7963 79.49 94.1527 76.2289 94.1527C72.9678 94.1527 70.3242 96.7963 70.3242 100.057C70.3242 103.318 72.9678 105.962 76.2289 105.962Z" fill="#FFEBC3"/>
<path d="M78.2664 30.3574H74.1914V93.8788H78.2664V30.3574Z" fill="#F9BB33"/>
<path d="M110.082 102.377L93.6042 85.9002V41.9274L110.011 23.7017L113.037 26.4284L97.6793 43.4884V84.2124L112.966 99.4985L110.082 102.377Z" fill="#FBAC31"/>
<path d="M42.3765 102.377L39.4977 99.4985L54.779 84.2124V43.4884L39.4216 26.4284L42.4525 23.7017L58.859 41.9274V85.9002L42.3765 102.377Z" fill="#F9BB33"/>
<path fill-rule="evenodd" clip-rule="evenodd" d="M26.8216 86.8237C35.8231 86.8237 43.6538 81.8364 47.7086 74.4722H80.6432L85.9346 70.9446L91.2311 74.4722L96.5276 70.9446L101.819 74.4722L107.116 70.9446L112.407 74.4722H117.703L124.764 63.8844L115.94 53.2967H48.5854C44.8703 44.9796 36.5226 39.1814 26.8216 39.1814C13.664 39.1814 3 49.8452 3 63.0025C3 76.1599 13.664 86.8237 26.8216 86.8237ZM26.8216 74.4722C33.1571 74.4722 38.2914 69.3379 38.2914 63.0025C38.2914 56.6671 33.1571 51.5329 26.8216 51.5329C20.4861 51.5329 15.3517 56.6671 15.3517 63.0025C15.3517 69.3379 20.4861 74.4722 26.8216 74.4722Z" fill="#FFEBC3"/>
<path d="M108.874 60.355H50.6433V64.0599H108.874V60.355Z" fill="url(#paint0_linear_72_1302)"/>
<path d="M26.8216 43.2361C34.6118 43.2361 41.7025 47.833 44.8804 54.949L45.9549 57.3514H114.034L119.7 64.1531L115.524 70.4175H113.628L109.356 67.5691L107.105 66.0689L104.855 67.5691L101.809 69.6015L98.7679 67.5742L96.5175 66.0739L94.2671 67.5742L91.221 69.6066L88.1749 67.5742L85.9245 66.0739L83.6741 67.5742L79.4014 70.4226H45.296L44.1404 72.5209C40.6584 78.8461 34.0188 82.7741 26.8064 82.7741C15.9093 82.7741 7.03953 73.9096 7.03953 63.0076C7.03953 52.1056 15.9042 43.2411 26.8064 43.2411M26.8216 39.1814C13.664 39.1814 3 49.8452 3 63.0025C3 76.1599 13.664 86.8237 26.8216 86.8237C35.8231 86.8237 43.6538 81.8364 47.7086 74.4722H80.6432L85.9346 70.9446L91.2311 74.4722L96.5276 70.9446L101.819 74.4722L107.116 70.9446L112.407 74.4722H117.703L124.764 63.8844L115.94 53.2967H48.5854C44.8703 44.9796 36.5226 39.1814 26.8216 39.1814Z" fill="url(#paint1_linear_72_1302)"/>
<path d="M26.8226 74.472C20.4972 74.472 15.3528 69.3276 15.3528 63.0023C15.3528 56.6771 20.4972 51.5327 26.8226 51.5327C33.148 51.5327 38.2925 56.6771 38.2925 63.0023C38.2925 69.3276 33.148 74.472 26.8226 74.472ZM26.8226 55.6076C22.7476 55.6076 19.4278 58.9223 19.4278 63.0023C19.4278 67.0823 22.7425 70.397 26.8226 70.397C30.9027 70.397 34.2174 67.0823 34.2174 63.0023C34.2174 58.9223 30.9027 55.6076 26.8226 55.6076Z" fill="#FAA534"/>
<path d="M111.519 105.962C114.781 105.962 117.424 103.318 117.424 100.057C117.424 96.7962 114.781 94.1526 111.519 94.1526C108.258 94.1526 105.615 96.7962 105.615 100.057C105.615 103.318 108.258 105.962 111.519 105.962Z" fill="#FFEBC3"/>
<path d="M111.52 108C107.141 108 103.578 104.437 103.578 100.058C103.578 95.6789 107.141 92.1158 111.52 92.1158C115.899 92.1158 119.462 95.6789 119.462 100.058C119.462 104.437 115.899 108 111.52 108ZM111.52 96.1908C109.386 96.1908 107.653 97.9241 107.653 100.058C107.653 102.192 109.386 103.925 111.52 103.925C113.654 103.925 115.387 102.192 115.387 100.058C115.387 97.9241 113.654 96.1908 111.52 96.1908Z" fill="#FAA331"/>
<path d="M111.519 31.8524C114.781 31.8524 117.424 29.2088 117.424 25.9478C117.424 22.6868 114.781 20.0432 111.519 20.0432C108.258 20.0432 105.615 22.6868 105.615 25.9478C105.615 29.2088 108.258 31.8524 111.519 31.8524Z" fill="#FFEBC3"/>
<path d="M111.52 33.8841C107.141 33.8841 103.578 30.3211 103.578 25.9421C103.578 21.563 107.141 18 111.52 18C115.899 18 119.462 21.563 119.462 25.9421C119.462 30.3211 115.899 33.8841 111.52 33.8841ZM111.52 22.08C109.386 22.08 107.653 23.8134 107.653 25.9421C107.653 28.0708 109.386 29.8092 111.52 29.8092C113.654 29.8092 115.387 28.0758 115.387 25.9421C115.387 23.8083 113.654 22.08 111.52 22.08Z" fill="#FAA331"/>
<path d="M76.2296 108C71.8505 108 68.2874 104.437 68.2874 100.058C68.2874 95.6789 71.8505 92.1158 76.2296 92.1158C80.6087 92.1158 84.1718 95.6789 84.1718 100.058C84.1718 104.437 80.6087 108 76.2296 108ZM76.2296 96.1908C74.0958 96.1908 72.3624 97.9241 72.3624 100.058C72.3624 102.192 74.0958 103.925 76.2296 103.925C78.3634 103.925 80.0968 102.192 80.0968 100.058C80.0968 97.9241 78.3634 96.1908 76.2296 96.1908Z" fill="#F9BB33"/>
<path d="M76.2296 33.8841C71.8505 33.8841 68.2874 30.3211 68.2874 25.9421C68.2874 21.563 71.8505 18 76.2296 18C80.6087 18 84.1718 21.563 84.1718 25.9421C84.1718 30.3211 80.6087 33.8841 76.2296 33.8841ZM76.2296 22.08C74.0958 22.08 72.3624 23.8134 72.3624 25.9421C72.3624 28.0708 74.0958 29.8092 76.2296 29.8092C78.3634 29.8092 80.0968 28.0758 80.0968 25.9421C80.0968 23.8083 78.3634 22.08 76.2296 22.08Z" fill="#F9BB33"/>
<path d="M40.9384 105.962C44.1995 105.962 46.8431 103.318 46.8431 100.057C46.8431 96.7962 44.1995 94.1526 40.9384 94.1526C37.6773 94.1526 35.0337 96.7962 35.0337 100.057C35.0337 103.318 37.6773 105.962 40.9384 105.962Z" fill="#FFEBC3"/>
<path d="M40.9373 108C36.5582 108 32.9951 104.437 32.9951 100.058C32.9951 95.6789 36.5582 92.1158 40.9373 92.1158C45.3165 92.1158 48.8796 95.6789 48.8796 100.058C48.8796 104.437 45.3165 108 40.9373 108ZM40.9373 96.1908C38.8086 96.1908 37.0752 97.9241 37.0752 100.058C37.0752 102.192 38.8086 103.925 40.9373 103.925C43.0661 103.925 44.8045 102.192 44.8045 100.058C44.8045 97.9241 43.0711 96.1908 40.9373 96.1908Z" fill="#F9AA33"/>
<path d="M40.9384 31.8524C44.1995 31.8524 46.8431 29.2088 46.8431 25.9478C46.8431 22.6868 44.1995 20.0432 40.9384 20.0432C37.6773 20.0432 35.0337 22.6868 35.0337 25.9478C35.0337 29.2088 37.6773 31.8524 40.9384 31.8524Z" fill="#FFEBC3"/>
<path d="M40.9373 33.8837C36.5582 33.8837 32.9951 30.3207 32.9951 25.9416C32.9951 21.5626 36.5582 18.0046 40.9373 18.0046C45.3165 18.0046 48.8796 21.5677 48.8796 25.9467C48.8796 30.3257 45.3165 33.8888 40.9373 33.8888V33.8837ZM40.9373 22.0796C38.8086 22.0796 37.0752 23.8129 37.0752 25.9416C37.0752 28.0703 38.8086 29.8088 40.9373 29.8088C43.0661 29.8088 44.8045 28.0754 44.8045 25.9416C44.8045 23.8079 43.0711 22.0796 40.9373 22.0796Z" fill="#F9AA33"/>
<defs>
<linearGradient id="paint0_linear_72_1302" x1="50.6433" y1="62.2049" x2="108.874" y2="62.2049" gradientUnits="userSpaceOnUse">
<stop stop-color="#FED037"/>
<stop offset="1" stop-color="#FAA732"/>
</linearGradient>
<linearGradient id="paint1_linear_72_1302" x1="3" y1="63.0025" x2="124.754" y2="63.0025" gradientUnits="userSpaceOnUse">
<stop stop-color="#F89933"/>
<stop offset="0.36" stop-color="#FDD138"/>
<stop offset="1" stop-color="#F89A2F"/>
</linearGradient>
</defs>
</svg>
