<svg width="128" height="128" viewBox="0 0 128 128" fill="none" xmlns="http://www.w3.org/2000/svg">
<path d="M76.2289 18.8524C79.49 18.8524 82.1336 16.2088 82.1336 12.9478C82.1336 9.68679 79.49 7.04321 76.2289 7.04321C72.9678 7.04321 70.3242 9.68679 70.3242 12.9478C70.3242 16.2088 72.9678 18.8524 76.2289 18.8524Z" fill="#FFEBC3"/>
<path d="M76.2289 92.9619C79.49 92.9619 82.1336 90.3183 82.1336 87.0573C82.1336 83.7963 79.49 81.1527 76.2289 81.1527C72.9678 81.1527 70.3242 83.7963 70.3242 87.0573C70.3242 90.3183 72.9678 92.9619 76.2289 92.9619Z" fill="#FFEBC3"/>
<path d="M78.2664 17.3574H74.1914V80.8788H78.2664V17.3574Z" fill="#F9BB33"/>
<path d="M110.082 89.3773L93.6042 72.9002V28.9274L110.011 10.7017L113.037 13.4284L97.6793 30.4884V71.2124L112.966 86.4985L110.082 89.3773Z" fill="#FBAC31"/>
<path d="M42.3765 89.3773L39.4977 86.4985L54.779 71.2124V30.4884L39.4216 13.4284L42.4525 10.7017L58.859 28.9274V72.9002L42.3765 89.3773Z" fill="#F9BB33"/>
<path fill-rule="evenodd" clip-rule="evenodd" d="M26.8216 73.8237C35.8231 73.8237 43.6538 68.8364 47.7086 61.4722H80.6432L85.9346 57.9446L91.2311 61.4722L96.5276 57.9446L101.819 61.4722L107.116 57.9446L112.407 61.4722H117.703L124.764 50.8844L115.94 40.2967H48.5854C44.8703 31.9796 36.5226 26.1814 26.8216 26.1814C13.664 26.1814 3 36.8452 3 50.0025C3 63.1599 13.664 73.8237 26.8216 73.8237ZM26.8216 61.4722C33.1571 61.4722 38.2914 56.3379 38.2914 50.0025C38.2914 43.6671 33.1571 38.5329 26.8216 38.5329C20.4861 38.5329 15.3517 43.6671 15.3517 50.0025C15.3517 56.3379 20.4861 61.4722 26.8216 61.4722Z" fill="#FFEBC3"/>
<path d="M108.874 47.355H50.6433V51.0599H108.874V47.355Z" fill="url(#paint0_linear_72_1413)"/>
<path d="M26.8216 30.2361C34.6118 30.2361 41.7025 34.833 44.8804 41.949L45.9549 44.3514H114.034L119.7 51.1531L115.524 57.4175H113.628L109.356 54.5691L107.105 53.0689L104.855 54.5691L101.809 56.6015L98.7679 54.5742L96.5175 53.0739L94.2671 54.5742L91.221 56.6066L88.1749 54.5742L85.9245 53.0739L83.6741 54.5742L79.4014 57.4226H45.296L44.1404 59.5209C40.6584 65.8461 34.0188 69.7741 26.8064 69.7741C15.9093 69.7741 7.03953 60.9096 7.03953 50.0076C7.03953 39.1056 15.9042 30.2411 26.8064 30.2411M26.8216 26.1814C13.664 26.1814 3 36.8452 3 50.0025C3 63.1599 13.664 73.8237 26.8216 73.8237C35.8231 73.8237 43.6538 68.8364 47.7086 61.4722H80.6432L85.9346 57.9446L91.2311 61.4722L96.5276 57.9446L101.819 61.4722L107.116 57.9446L112.407 61.4722H117.703L124.764 50.8844L115.94 40.2967H48.5854C44.8703 31.9796 36.5226 26.1814 26.8216 26.1814Z" fill="url(#paint1_linear_72_1413)"/>
<path d="M26.8226 61.472C20.4972 61.472 15.3528 56.3276 15.3528 50.0023C15.3528 43.6771 20.4972 38.5327 26.8226 38.5327C33.148 38.5327 38.2925 43.6771 38.2925 50.0023C38.2925 56.3276 33.148 61.472 26.8226 61.472ZM26.8226 42.6076C22.7476 42.6076 19.4278 45.9223 19.4278 50.0023C19.4278 54.0823 22.7425 57.397 26.8226 57.397C30.9027 57.397 34.2174 54.0823 34.2174 50.0023C34.2174 45.9223 30.9027 42.6076 26.8226 42.6076Z" fill="#FAA534"/>
<path d="M111.519 92.9618C114.781 92.9618 117.424 90.3182 117.424 87.0572C117.424 83.7962 114.781 81.1526 111.519 81.1526C108.258 81.1526 105.615 83.7962 105.615 87.0572C105.615 90.3182 108.258 92.9618 111.519 92.9618Z" fill="#FFEBC3"/>
<path d="M111.52 95C107.141 95 103.578 91.4369 103.578 87.0579C103.578 82.6789 107.141 79.1158 111.52 79.1158C115.899 79.1158 119.462 82.6789 119.462 87.0579C119.462 91.4369 115.899 95 111.52 95ZM111.52 83.1908C109.386 83.1908 107.653 84.9241 107.653 87.0579C107.653 89.1917 109.386 90.925 111.52 90.925C113.654 90.925 115.387 89.1917 115.387 87.0579C115.387 84.9241 113.654 83.1908 111.52 83.1908Z" fill="#FAA331"/>
<path d="M111.519 18.8524C114.781 18.8524 117.424 16.2088 117.424 12.9478C117.424 9.68679 114.781 7.04321 111.519 7.04321C108.258 7.04321 105.615 9.68679 105.615 12.9478C105.615 16.2088 108.258 18.8524 111.519 18.8524Z" fill="#FFEBC3"/>
<path d="M111.52 20.8841C107.141 20.8841 103.578 17.3211 103.578 12.9421C103.578 8.56303 107.141 5 111.52 5C115.899 5 119.462 8.56303 119.462 12.9421C119.462 17.3211 115.899 20.8841 111.52 20.8841ZM111.52 9.08C109.386 9.08 107.653 10.8134 107.653 12.9421C107.653 15.0708 109.386 16.8092 111.52 16.8092C113.654 16.8092 115.387 15.0758 115.387 12.9421C115.387 10.8083 113.654 9.08 111.52 9.08Z" fill="#FAA331"/>
<path d="M76.2296 95C71.8505 95 68.2874 91.4369 68.2874 87.0579C68.2874 82.6789 71.8505 79.1158 76.2296 79.1158C80.6087 79.1158 84.1718 82.6789 84.1718 87.0579C84.1718 91.4369 80.6087 95 76.2296 95ZM76.2296 83.1908C74.0958 83.1908 72.3624 84.9241 72.3624 87.0579C72.3624 89.1917 74.0958 90.925 76.2296 90.925C78.3634 90.925 80.0968 89.1917 80.0968 87.0579C80.0968 84.9241 78.3634 83.1908 76.2296 83.1908Z" fill="#F9BB33"/>
<path d="M76.2296 20.8841C71.8505 20.8841 68.2874 17.3211 68.2874 12.9421C68.2874 8.56303 71.8505 5 76.2296 5C80.6087 5 84.1718 8.56303 84.1718 12.9421C84.1718 17.3211 80.6087 20.8841 76.2296 20.8841ZM76.2296 9.08C74.0958 9.08 72.3624 10.8134 72.3624 12.9421C72.3624 15.0708 74.0958 16.8092 76.2296 16.8092C78.3634 16.8092 80.0968 15.0758 80.0968 12.9421C80.0968 10.8083 78.3634 9.08 76.2296 9.08Z" fill="#F9BB33"/>
<path d="M40.9384 92.9618C44.1995 92.9618 46.8431 90.3182 46.8431 87.0572C46.8431 83.7962 44.1995 81.1526 40.9384 81.1526C37.6773 81.1526 35.0337 83.7962 35.0337 87.0572C35.0337 90.3182 37.6773 92.9618 40.9384 92.9618Z" fill="#FFEBC3"/>
<path d="M40.9373 95C36.5582 95 32.9951 91.4369 32.9951 87.0579C32.9951 82.6789 36.5582 79.1158 40.9373 79.1158C45.3165 79.1158 48.8796 82.6789 48.8796 87.0579C48.8796 91.4369 45.3165 95 40.9373 95ZM40.9373 83.1908C38.8086 83.1908 37.0752 84.9241 37.0752 87.0579C37.0752 89.1917 38.8086 90.925 40.9373 90.925C43.0661 90.925 44.8045 89.1917 44.8045 87.0579C44.8045 84.9241 43.0711 83.1908 40.9373 83.1908Z" fill="#F9AA33"/>
<path d="M40.9384 18.8524C44.1995 18.8524 46.8431 16.2088 46.8431 12.9478C46.8431 9.68679 44.1995 7.04321 40.9384 7.04321C37.6773 7.04321 35.0337 9.68679 35.0337 12.9478C35.0337 16.2088 37.6773 18.8524 40.9384 18.8524Z" fill="#FFEBC3"/>
<path d="M40.9373 20.8837C36.5582 20.8837 32.9951 17.3207 32.9951 12.9416C32.9951 8.5626 36.5582 5.00464 40.9373 5.00464C45.3165 5.00464 48.8796 8.56767 48.8796 12.9467C48.8796 17.3257 45.3165 20.8888 40.9373 20.8888V20.8837ZM40.9373 9.07957C38.8086 9.07957 37.0752 10.8129 37.0752 12.9416C37.0752 15.0703 38.8086 16.8088 40.9373 16.8088C43.0661 16.8088 44.8045 15.0754 44.8045 12.9416C44.8045 10.8079 43.0711 9.07957 40.9373 9.07957Z" fill="#F9AA33"/>
<path d="M30.3125 124V112.359H38.6641V114.422H32.7188V117.117H38.2188V119.125H32.7188V121.938H38.6641V124H30.3125ZM40.0469 124V112.359H42.5781L46.3203 118.312C46.5938 118.75 47.0938 119.633 47.5547 120.469C47.5234 119.57 47.5156 118.609 47.5156 118.117V112.359H49.9141V124H47.375L43.9844 118.609C43.6484 118.078 43.0547 117.07 42.3984 115.891C42.4453 117.109 42.4531 118.102 42.4531 118.602V124H40.0469ZM56.8125 124.188C53.6172 124.188 51.2812 121.883 51.2812 118.188C51.2812 114.469 53.6094 112.172 56.8125 112.172C59.5391 112.172 61.5703 113.859 61.9375 116.461H59.5078C59.2344 115.086 58.2266 114.297 56.8438 114.297C54.8672 114.297 53.7031 115.805 53.7031 118.188C53.7031 120.555 54.8594 122.062 56.8438 122.062C58.2188 122.062 59.2188 121.281 59.5156 119.914H61.9375C61.5703 122.508 59.5391 124.188 56.8125 124.188ZM63.2812 124V112.359H67.9375C70.5625 112.359 72.2031 113.836 72.2031 116.18C72.2031 117.719 71.4297 118.875 70.125 119.477L72.4609 124H69.8828L67.8203 119.93C67.8125 119.93 67.8047 119.93 67.7969 119.93H65.6875V124H63.2812ZM65.6875 118H67.7969C69.0625 118 69.8516 117.289 69.8516 116.18C69.8516 115.07 69.0625 114.359 67.7891 114.359H65.6875V118ZM76.7344 124V119.648L72.4219 112.359H75.1797L77.1562 115.852C77.4219 116.32 77.6719 116.789 77.9219 117.258C78.1562 116.789 78.4062 116.32 78.6641 115.852L80.5781 112.359H83.3203L79.0781 119.648V124H76.7344ZM84.2656 124V112.359H88.8594C91.4766 112.359 93.1172 113.836 93.1172 116.18C93.1172 118.523 91.4453 120 88.8281 120H86.6719V124H84.2656ZM86.6719 117.984H88.7031C89.9766 117.984 90.7656 117.289 90.7656 116.18C90.7656 115.07 89.9766 114.375 88.7031 114.375H86.6719V117.984ZM93.7344 114.422V112.359H103.195V114.422H99.6719V124H97.2656V114.422H93.7344Z" fill="black"/>
<defs>
<linearGradient id="paint0_linear_72_1413" x1="50.6433" y1="49.2049" x2="108.874" y2="49.2049" gradientUnits="userSpaceOnUse">
<stop stop-color="#FED037"/>
<stop offset="1" stop-color="#FAA732"/>
</linearGradient>
<linearGradient id="paint1_linear_72_1413" x1="3" y1="50.0025" x2="124.754" y2="50.0025" gradientUnits="userSpaceOnUse">
<stop stop-color="#F89933"/>
<stop offset="0.36" stop-color="#FDD138"/>
<stop offset="1" stop-color="#F89A2F"/>
</linearGradient>
</defs>
</svg>
