<svg width="128" height="128" viewBox="0 0 128 128" fill="none" xmlns="http://www.w3.org/2000/svg">
<path d="M50.627 41.7173C51.29 41.7173 51.9257 41.9809 52.3945 42.4497L59.8799 49.9351H108.892V87.522C108.891 88.9024 107.772 90.0218 106.392 90.022H22.2393V41.7173H50.627Z" fill="#23B82E" stroke="#19A824"/>
<rect x="19" y="33" width="5.47825" height="63" rx="2.73913" fill="black"/>
<rect x="38.1738" y="49.4348" width="8.21738" height="10.9565" rx="3" fill="black"/>
<path d="M24.4785 49.4348H29.6959C31.3527 49.4348 32.6959 50.778 32.6959 52.4348V57.3913C32.6959 59.0482 31.3528 60.3913 29.6959 60.3913H24.4785V49.4348Z" fill="black"/>
<rect x="92.9558" y="38.4783" width="8.21738" height="10.9565" fill="#FF8A00"/>
<path d="M76.5215 44.4783C76.5215 41.1646 79.2078 38.4783 82.5215 38.4783H84.7389V49.4348H76.5215V44.4783Z" fill="#FF8A00"/>
<path d="M101.174 38.4783H103.391C106.705 38.4783 109.391 41.1646 109.391 44.4783V49.4348H101.174V38.4783Z" fill="#FFC683"/>
<rect x="84.7393" y="38.4783" width="8.21738" height="10.9565" fill="#FFC683"/>
<rect x="92.9561" y="57.6521" width="8.21738" height="24.6522" rx="1" fill="black"/>
<rect x="68.3047" y="74.0869" width="16.4348" height="8.21739" rx="1" fill="black"/>
<rect x="68.3047" y="63.1304" width="16.4348" height="5.47826" rx="1" fill="#D3F8D6"/>
<ellipse cx="36.8039" cy="75.4565" rx="6.84782" ry="6.84783" fill="#D3F8D6"/>
<ellipse cx="55.9778" cy="67.2391" rx="4.10869" ry="4.1087" fill="#D3F8D6"/>
<ellipse cx="55.9778" cy="78.1956" rx="4.10869" ry="4.1087" fill="#D3F8D6"/>
</svg>
