<svg width="128" height="128" viewBox="0 0 128 128" fill="none" xmlns="http://www.w3.org/2000/svg">
<path d="M50.627 41.7173C51.29 41.7173 51.9257 41.9809 52.3945 42.4497L59.8799 49.9351H108.892V87.522C108.891 88.9024 107.772 90.0218 106.392 90.022H22.2393V41.7173H50.627Z" fill="#23B82E" stroke="#19A824"/>
<rect x="19" y="33" width="5.47825" height="63" rx="2.73913" fill="black"/>
<rect x="38.1738" y="49.4348" width="8.21738" height="10.9565" rx="3" fill="black"/>
<path d="M24.4785 49.4348H29.6959C31.3527 49.4348 32.6959 50.778 32.6959 52.4348V57.3913C32.6959 59.0482 31.3528 60.3913 29.6959 60.3913H24.4785V49.4348Z" fill="black"/>
<rect x="92.9558" y="38.4783" width="8.21738" height="10.9565" fill="#FF8A00"/>
<path d="M76.5215 44.4783C76.5215 41.1646 79.2078 38.4783 82.5215 38.4783H84.7389V49.4348H76.5215V44.4783Z" fill="#FF8A00"/>
<path d="M101.174 38.4783H103.391C106.705 38.4783 109.391 41.1646 109.391 44.4783V49.4348H101.174V38.4783Z" fill="#FFC683"/>
<rect x="84.7393" y="38.4783" width="8.21738" height="10.9565" fill="#FFC683"/>
<path d="M56.0859 67.4158H60.3848V71.0369H56.0859V77.2996C56.0859 78.4634 56.5705 79.0535 57.5322 79.0535C58.1222 79.0535 58.8332 78.8674 59.6494 78.5037L60.6924 82.3758C60.0782 82.7233 59.3743 82.9973 58.5742 83.1912C57.7743 83.3851 56.9665 83.4822 56.1504 83.4822C54.5098 83.4822 53.1841 83.0138 52.1738 82.0682C51.1636 81.1226 50.6543 79.8296 50.6543 78.1649V71.0369H48.3506V67.4158H50.6543V62.8094H56.0859V67.4158ZM38.6641 66.4393C41.3793 66.4312 43.4564 67.2309 44.9111 68.8309C46.3659 70.4311 47.0938 72.622 47.0938 75.4022C47.0937 75.8302 47.0848 76.1613 47.0605 76.3875H35.5117C35.7784 77.3329 36.2391 78.0525 36.8936 78.5535C37.5482 79.0546 38.3486 79.3055 39.2861 79.3055C40.0054 79.3055 40.6927 79.1596 41.3555 78.8768C42.018 78.5939 42.6322 78.1736 43.1816 77.616L46.0342 80.4695C45.1776 81.4311 44.1353 82.1668 42.915 82.6678C41.6947 83.1689 40.3207 83.4188 38.7852 83.4188C37.0071 83.4188 35.4468 83.0718 34.1133 82.3768C32.7799 81.6817 31.7617 80.6954 31.0586 79.4266C30.3555 78.1577 30 76.6867 30 75.0057C30 73.3087 30.356 71.8058 31.0752 70.5047C31.7944 69.2036 32.8042 68.201 34.1133 67.4979C35.4226 66.7947 36.9426 66.4393 38.6641 66.4393ZM92.9072 61.5154C95.9622 61.5154 98.3064 62.4615 99.9551 64.3445C101.604 66.2276 102.428 68.9273 102.428 72.451C102.428 75.9745 101.604 78.682 99.9551 80.5731C98.3064 82.4642 95.9541 83.41 92.9072 83.41C89.8121 83.4099 87.4446 82.464 85.7959 80.5731C84.1472 78.682 83.3223 75.9745 83.3223 72.451C83.3223 68.9273 84.1472 66.2276 85.7959 64.3445C87.4446 62.4617 89.8121 61.5155 92.9072 61.5154ZM68.9307 69.3162C69.5206 68.3545 70.2884 67.6266 71.2178 67.1336C72.1472 66.6407 73.2226 66.3983 74.4268 66.3983C76.2692 66.4064 77.732 66.9805 78.8311 68.1199C79.9301 69.2675 80.4716 70.8111 80.4717 72.7586V83.2332H75.0078V74.327C75.0078 73.3815 74.7578 72.646 74.2568 72.0965C73.7558 71.555 73.0603 71.2801 72.1875 71.2801C71.1855 71.3044 70.3936 71.6519 69.8037 72.3387C69.2218 73.0256 68.9307 73.9231 68.9307 75.0223V83.2332H63.4668V60.4422H68.9307V69.3162ZM92.9072 65.6942C91.5578 65.6942 90.5883 66.2196 89.9902 67.2781C89.3922 68.3369 89.1006 70.0587 89.1006 72.451C89.1006 74.8672 89.4003 76.6045 89.9902 77.6551C90.5802 78.7137 91.5577 79.239 92.9072 79.2391C94.2164 79.2391 95.1702 78.7061 95.7764 77.6395C96.3825 76.5727 96.6816 74.8431 96.6816 72.451C96.6816 70.0587 96.3744 68.3288 95.7764 67.2781C95.1702 66.2276 94.2164 65.6942 92.9072 65.6942ZM38.7041 70.2781C37.8475 70.2782 37.12 70.5689 36.5381 71.1346C35.9562 71.7003 35.5684 72.4846 35.3906 73.4705H41.7754C41.7754 72.5088 41.4922 71.7331 40.9346 71.1512C40.3688 70.5693 39.6254 70.2781 38.7041 70.2781Z" fill="white"/>
</svg>
