<svg width="128" height="128" viewBox="0 0 128 128" fill="none" xmlns="http://www.w3.org/2000/svg">
<path d="M42.2529 34.1069C54.0989 27.6648 70.5227 26.9569 85.8139 34.0597" stroke="#5E6466" stroke-width="3" stroke-linecap="round" stroke-linejoin="round"/>
<path d="M32 54.8727C42.0997 33.222 81.3541 30.5319 96.2206 54.7547" stroke="#5E6466" stroke-width="3" stroke-linecap="round" stroke-linejoin="round"/>
<path d="M55.385 98.5752C52.3999 95.5429 50.7835 93.5844 48.4827 89.3722C46.1112 85.0775 44.8723 79.8506 44.8723 74.2344C44.8723 63.8751 53.0252 55.1087 63.7385 55.1087C74.4518 55.1087 83.9615 63.5448 82.3923 74.1636" stroke="#5E6466" stroke-width="3" stroke-linecap="round" stroke-linejoin="round"/>
<path d="M63.3613 74.3996C62.7005 82.4346 69.9804 92.4281 82.2511 92.4281" stroke="#5E6466" stroke-width="3" stroke-linecap="round" stroke-linejoin="round"/>
<path d="M38.0764 88.5463C36.3774 83.8268 35.5515 79.1309 35.5515 74.2698C35.5515 69.9397 36.3538 66.0107 37.9113 62.5891C42.5246 52.5248 52.7423 46.0001 63.9275 46.0001C79.6906 46.0001 94.38 58.7663 92.5158 74.2344C90.8522 87.9918 71.8208 86.6939 71.8798 73.0192C71.927 60.8429 54.9722 62.5537 54.6773 73.0546C54.3469 84.6291 60.4351 94.9294 70.5702 99" stroke="#5E6466" stroke-width="3" stroke-linecap="round" stroke-linejoin="round"/>
</svg>
