<svg width="128" height="128" viewBox="0 0 128 128" fill="none" xmlns="http://www.w3.org/2000/svg">
<path d="M10.0142 81.3387H38.0787V95.371H10.0142V81.3387Z" fill="#FF9882"/>
<path d="M38.0787 81.3387V95.371H10.0142V81.3387H38.0787ZM11.4174 93.9678H36.6754V82.742H11.4174V93.9678Z" fill="#BE330C"/>
<path d="M36.675 82.7419V84.1451H12.8202V92.5645H11.417V82.7419H36.675Z" fill="#FFBEAF"/>
<path d="M36.675 84.1452V93.9678H11.417V92.5645H35.2718V84.1452H36.675Z" fill="#F97C60"/>
<path d="M36.6802 81.3387H64.7447V95.3709H36.6802V81.3387Z" fill="#FF9882"/>
<path d="M64.7447 81.3387V95.3709H36.6802V81.3387H64.7447ZM38.0834 93.9677H63.3415V82.7419H38.0834V93.9677Z" fill="#BE330C"/>
<path d="M63.3411 82.7419V84.1451H39.4862V92.5645H38.083V82.7419H63.3411Z" fill="#FFBEAF"/>
<path d="M63.3411 84.1452V93.9678H38.083V92.5645H61.9378V84.1452H63.3411Z" fill="#F97C60"/>
<path d="M63.3401 81.3387H91.4046V95.3709H63.3401V81.3387Z" fill="#FF9882"/>
<path d="M91.4046 81.3387V95.3709H63.3401V81.3387H91.4046ZM64.7433 93.9677H90.0014V82.7419H64.7433V93.9677Z" fill="#BE330C"/>
<path d="M90.001 82.7419V84.1451H66.1461V92.5645H64.7429V82.7419H90.001Z" fill="#FFBEAF"/>
<path d="M90.001 84.1452V93.9678H64.7429V92.5645H88.5978V84.1452H90.001Z" fill="#F97C60"/>
<path d="M90 81.3387H118.065V95.3709H90V81.3387Z" fill="#FF9882"/>
<path d="M118.065 81.3387V95.3709H90V81.3387H118.065ZM91.4032 93.9677H116.661V82.7419H91.4032V93.9677Z" fill="#BE330C"/>
<path d="M116.661 82.7419V84.1451H92.8061V92.5645H91.4028V82.7419H116.661Z" fill="#FFBEAF"/>
<path d="M116.661 84.1452V93.9678H91.4028V92.5645H115.258V84.1452H116.661Z" fill="#F97C60"/>
<path d="M10.0142 56.0806H38.0787V70.1129H10.0142V56.0806Z" fill="#FF9882"/>
<path d="M38.0787 56.0806V70.1129H10.0142V56.0806H38.0787ZM11.4174 68.7097H36.6754V57.4839H11.4174V68.7097Z" fill="#BE330C"/>
<path d="M36.675 57.4839V58.8871H12.8202V67.3064H11.417V57.4839H36.675Z" fill="#FFBEAF"/>
<path d="M36.675 58.8871V68.7097H11.417V67.3065H35.2718V58.8871H36.675Z" fill="#F97C60"/>
<path d="M36.6802 56.0806H64.7447V70.1129H36.6802V56.0806Z" fill="#FF9882"/>
<path d="M64.7447 56.0806V70.1129H36.6802V56.0806H64.7447ZM38.0834 68.7097H63.3415V57.4839H38.0834V68.7097Z" fill="#BE330C"/>
<path d="M63.3411 57.4839V58.8871H39.4862V67.3064H38.083V57.4839H63.3411Z" fill="#FFBEAF"/>
<path d="M63.3411 58.8871V68.7097H38.083V67.3065H61.9378V58.8871H63.3411Z" fill="#F97C60"/>
<path d="M63.3401 56.0806H91.4046V70.1129H63.3401V56.0806Z" fill="#FF9882"/>
<path d="M91.4046 56.0806V70.1129H63.3401V56.0806H91.4046ZM64.7433 68.7097H90.0014V57.4839H64.7433V68.7097Z" fill="#BE330C"/>
<path d="M90.001 57.4839V58.8871H66.1461V67.3064H64.7429V57.4839H90.001Z" fill="#FFBEAF"/>
<path d="M90.001 58.8871V68.7097H64.7429V67.3065H88.5978V58.8871H90.001Z" fill="#F97C60"/>
<path d="M90 56.0806H118.065V70.1129H90V56.0806Z" fill="#FF9882"/>
<path d="M118.065 56.0806V70.1129H90V56.0806H118.065ZM91.4032 68.7097H116.661V57.4839H91.4032V68.7097Z" fill="#BE330C"/>
<path d="M116.661 57.4839V58.8871H92.8061V67.3064H91.4028V57.4839H116.661Z" fill="#FFBEAF"/>
<path d="M116.661 58.8871V68.7097H91.4028V67.3065H115.258V58.8871H116.661Z" fill="#F97C60"/>
<path d="M10.0142 30.8226H38.0787V44.8548H10.0142V30.8226Z" fill="#FF9882"/>
<path d="M38.0787 30.8226V44.8548H10.0142V30.8226H38.0787ZM11.4174 43.4516H36.6754V32.2258H11.4174V43.4516Z" fill="#BE330C"/>
<path d="M36.675 32.2258V33.629H12.8202V42.0484H11.417V32.2258H36.675Z" fill="#FFBEAF"/>
<path d="M36.675 33.629V43.4516H11.417V42.0484H35.2718V33.629H36.675Z" fill="#F97C60"/>
<path d="M36.6802 30.8226H64.7447V44.8548H36.6802V30.8226Z" fill="#FF9882"/>
<path d="M64.7447 30.8226V44.8548H36.6802V30.8226H64.7447ZM38.0834 43.4516H63.3415V32.2258H38.0834V43.4516Z" fill="#BE330C"/>
<path d="M63.3411 32.2258V33.629H39.4862V42.0484H38.083V32.2258H63.3411Z" fill="#FFBEAF"/>
<path d="M63.3411 33.629V43.4516H38.083V42.0484H61.9378V33.629H63.3411Z" fill="#F97C60"/>
<path d="M63.3401 30.8226H91.4046V44.8548H63.3401V30.8226Z" fill="#FF9882"/>
<path d="M91.4046 30.8226V44.8548H63.3401V30.8226H91.4046ZM64.7433 43.4516H90.0014V32.2258H64.7433V43.4516Z" fill="#BE330C"/>
<path d="M90.001 32.2258V33.629H66.1461V42.0484H64.7429V32.2258H90.001Z" fill="#FFBEAF"/>
<path d="M90.001 33.629V43.4516H64.7429V42.0484H88.5978V33.629H90.001Z" fill="#F97C60"/>
<path d="M90 30.8226H118.065V44.8548H90V30.8226Z" fill="#FF9882"/>
<path d="M118.065 30.8226V44.8548H90V30.8226H118.065ZM91.4032 43.4516H116.661V32.2258H91.4032V43.4516Z" fill="#BE330C"/>
<path d="M116.661 32.2258V33.629H92.8061V42.0484H91.4028V32.2258H116.661Z" fill="#FFBEAF"/>
<path d="M116.661 33.629V43.4516H91.4028V42.0484H115.258V33.629H116.661Z" fill="#F97C60"/>
<path d="M22.6458 93.9677H52.1135V108H22.6458V93.9677Z" fill="#FF9882"/>
<path d="M52.1135 93.9677V108H22.6458V93.9677H52.1135ZM24.049 106.597H50.7102V95.371H24.049V106.597Z" fill="#BE330C"/>
<path d="M50.7099 95.371V96.7742H25.4518V105.194H24.0486V95.371H50.7099Z" fill="#FFBEAF"/>
<path d="M50.7099 96.7742V106.597H24.0486V105.194H49.3066V96.7742H50.7099Z" fill="#F97C60"/>
<path d="M50.7085 93.9677H78.773V108H50.7085V93.9677Z" fill="#FF9882"/>
<path d="M78.773 93.9677V108H50.7085V93.9677H78.773ZM52.1117 106.597H77.3698V95.371H52.1117V106.597Z" fill="#BE330C"/>
<path d="M77.3694 95.371V96.7742H53.5146V105.194H52.1113V95.371H77.3694Z" fill="#FFBEAF"/>
<path d="M77.3694 96.7742V106.597H52.1113V105.194H75.9662V96.7742H77.3694Z" fill="#F97C60"/>
<path d="M77.3684 93.9677H105.433V108H77.3684V93.9677Z" fill="#FF9882"/>
<path d="M105.433 93.9677V108H77.3684V93.9677H105.433ZM78.7716 106.597H104.03V95.371H78.7716V106.597Z" fill="#BE330C"/>
<path d="M104.029 95.371V96.7742H80.1745V105.194H78.7712V95.371H104.029Z" fill="#FFBEAF"/>
<path d="M104.029 96.7742V106.597H78.7712V105.194H102.626V96.7742H104.029Z" fill="#F97C60"/>
<path d="M104.034 93.9677H118.067V108H104.034V93.9677Z" fill="#FF9882"/>
<path d="M118.067 93.9677V108H104.034V93.9677H118.067ZM105.438 106.597H116.663V95.371H105.438V106.597Z" fill="#BE330C"/>
<path d="M116.663 95.371V96.7742H106.84V105.194H105.437V95.371H116.663Z" fill="#FFBEAF"/>
<path d="M116.663 96.7742V106.597H105.437V105.194H115.26V96.7742H116.663Z" fill="#F97C60"/>
<path d="M10.0142 93.9677H24.0464V108H10.0142V93.9677Z" fill="#FF9882"/>
<path d="M24.0464 93.9677V108H10.0142V93.9677H24.0464ZM11.4174 106.597H22.6432V95.3709H11.4174V106.597Z" fill="#BE330C"/>
<path d="M22.6428 95.371V96.7742H12.8202V105.194H11.417V95.371H22.6428Z" fill="#FFBEAF"/>
<path d="M22.6428 96.7742V106.597H11.417V105.194H21.2396V96.7742H22.6428Z" fill="#F97C60"/>
<path d="M22.6458 68.7097H52.1135V82.7419H22.6458V68.7097Z" fill="#FF9882"/>
<path d="M52.1135 68.7097V82.7419H22.6458V68.7097H52.1135ZM24.049 81.3387H50.7102V70.1129H24.049V81.3387Z" fill="#BE330C"/>
<path d="M50.7099 70.1129V71.5161H25.4518V79.9355H24.0486V70.1129H50.7099Z" fill="#FFBEAF"/>
<path d="M50.7099 71.5161V81.3387H24.0486V79.9355H49.3066V71.5161H50.7099Z" fill="#F97C60"/>
<path d="M50.7085 68.7097H78.773V82.7419H50.7085V68.7097Z" fill="#FF9882"/>
<path d="M78.773 68.7097V82.7419H50.7085V68.7097H78.773ZM52.1117 81.3387H77.3698V70.1129H52.1117V81.3387Z" fill="#BE330C"/>
<path d="M77.3694 70.1129V71.5161H53.5146V79.9355H52.1113V70.1129H77.3694Z" fill="#FFBEAF"/>
<path d="M77.3694 71.5161V81.3387H52.1113V79.9355H75.9662V71.5161H77.3694Z" fill="#F97C60"/>
<path d="M77.3684 68.7097H105.433V82.7419H77.3684V68.7097Z" fill="#FF9882"/>
<path d="M105.433 68.7097V82.7419H77.3684V68.7097H105.433ZM78.7716 81.3387H104.03V70.1129H78.7716V81.3387Z" fill="#BE330C"/>
<path d="M104.029 70.1129V71.5161H80.1745V79.9355H78.7712V70.1129H104.029Z" fill="#FFBEAF"/>
<path d="M104.029 71.5161V81.3387H78.7712V79.9355H102.626V71.5161H104.029Z" fill="#F97C60"/>
<path d="M104.034 68.7097H118.067V82.7419H104.034V68.7097Z" fill="#FF9882"/>
<path d="M118.067 68.7097V82.7419H104.034V68.7097H118.067ZM105.438 81.3387H116.663V70.1129H105.438V81.3387Z" fill="#BE330C"/>
<path d="M116.663 70.1129V71.5161H106.84V79.9355H105.437V70.1129H116.663Z" fill="#FFBEAF"/>
<path d="M116.663 71.5161V81.3387H105.437V79.9355H115.26V71.5161H116.663Z" fill="#F97C60"/>
<path d="M10.0142 68.7096H24.0464V82.7419H10.0142V68.7096Z" fill="#FF9882"/>
<path d="M24.0464 68.7096V82.7419H10.0142V68.7096H24.0464ZM11.4174 81.3387H22.6432V70.1129H11.4174V81.3387Z" fill="#BE330C"/>
<path d="M22.6428 70.1129V71.5161H12.8202V79.9355H11.417V70.1129H22.6428Z" fill="#FFBEAF"/>
<path d="M22.6428 71.5161V81.3387H11.417V79.9355H21.2396V71.5161H22.6428Z" fill="#F97C60"/>
<path d="M22.6458 43.4516H52.1135V57.4839H22.6458V43.4516Z" fill="#FF9882"/>
<path d="M52.1135 43.4516V57.4839H22.6458V43.4516H52.1135ZM24.049 56.0806H50.7102V44.8548H24.049V56.0806Z" fill="#BE330C"/>
<path d="M50.7099 44.8548V46.2581H25.4518V54.6774H24.0486V44.8548H50.7099Z" fill="#FFBEAF"/>
<path d="M50.7099 46.2581V56.0806H24.0486V54.6774H49.3066V46.2581H50.7099Z" fill="#F97C60"/>
<path d="M50.7085 43.4516H78.773V57.4839H50.7085V43.4516Z" fill="#FF9882"/>
<path d="M78.773 43.4516V57.4839H50.7085V43.4516H78.773ZM52.1117 56.0806H77.3698V44.8548H52.1117V56.0806Z" fill="#BE330C"/>
<path d="M77.3694 44.8548V46.2581H53.5146V54.6774H52.1113V44.8548H77.3694Z" fill="#FFBEAF"/>
<path d="M77.3694 46.2581V56.0806H52.1113V54.6774H75.9662V46.2581H77.3694Z" fill="#F97C60"/>
<path d="M77.3684 43.4516H105.433V57.4839H77.3684V43.4516Z" fill="#FF9882"/>
<path d="M105.433 43.4516V57.4839H77.3684V43.4516H105.433ZM78.7716 56.0806H104.03V44.8548H78.7716V56.0806Z" fill="#BE330C"/>
<path d="M104.029 44.8548V46.2581H80.1745V54.6774H78.7712V44.8548H104.029Z" fill="#FFBEAF"/>
<path d="M104.029 46.2581V56.0806H78.7712V54.6774H102.626V46.2581H104.029Z" fill="#F97C60"/>
<path d="M104.034 43.4516H118.067V57.4839H104.034V43.4516Z" fill="#FF9882"/>
<path d="M118.067 43.4516V57.4839H104.034V43.4516H118.067ZM105.438 56.0806H116.663V44.8548H105.438V56.0806Z" fill="#BE330C"/>
<path d="M116.663 44.8548V46.2581H106.84V54.6774H105.437V44.8548H116.663Z" fill="#FFBEAF"/>
<path d="M116.663 46.2581V56.0806H105.437V54.6774H115.26V46.2581H116.663Z" fill="#F97C60"/>
<path d="M10.0142 43.4516H24.0464V57.4839H10.0142V43.4516Z" fill="#FF9882"/>
<path d="M24.0464 43.4516V57.4839H10.0142V43.4516H24.0464ZM11.4174 56.0806H22.6432V44.8548H11.4174V56.0806Z" fill="#BE330C"/>
<path d="M22.6428 44.8548V46.2581H12.8202V54.6774H11.417V44.8548H22.6428Z" fill="#FFBEAF"/>
<path d="M22.6428 46.2581V56.0806H11.417V54.6774H21.2396V46.2581H22.6428Z" fill="#F97C60"/>
<path d="M3 21H125.081V32.2258H3V21Z" fill="#E6E6E6"/>
<path d="M125.081 21V32.2258H3V21H125.081ZM4.40323 30.8226H123.677V22.4032H4.40323V30.8226Z" fill="#8A8A8A"/>
<path d="M123.677 22.4032V23.8064H5.80606V30.8226H4.40283V22.4032H123.677Z" fill="white"/>
<path d="M123.677 23.8064V30.8226H4.40283V29.4193H122.274V23.8064H123.677Z" fill="#DADADA"/>
<path d="M105.955 55.6201H105.954C103.713 60.2208 105.467 64.3776 107.875 68.2178C108.48 69.1831 109.136 70.1429 109.792 71.0928C110.45 72.0466 111.107 72.9886 111.729 73.9385C112.974 75.8415 114.041 77.722 114.633 79.6436V79.6445C114.633 79.6469 114.636 79.6572 114.642 79.6787C114.648 79.7039 114.655 79.7367 114.664 79.7773C114.682 79.8594 114.702 79.96 114.727 80.0791C114.774 80.312 114.834 80.6043 114.902 80.8818C114.968 81.1467 115.053 81.45 115.16 81.6836C115.207 81.7851 115.299 81.9696 115.463 82.1133C115.553 82.1925 115.708 82.2972 115.924 82.3242C116.158 82.3533 116.363 82.2797 116.51 82.1758L116.659 82.0703L116.743 81.9072C118.431 78.6433 118.629 76.3994 118.693 73.4268C120.437 76.2227 121.996 79.9188 122.369 82.6475C123.858 93.5619 118.012 105.122 106.151 106.952L106.136 106.954C102.259 107.634 98.424 107.091 95.1045 105.833L95.0967 105.83L95.0879 105.827L94.7197 105.692C87.0271 102.788 81.8116 94.7414 80.8848 87.0986C80.243 81.8092 81.9217 76.5979 85.2412 72.3213C85.3456 72.9639 85.4765 73.6427 85.6514 74.3076C85.9665 75.5057 86.4444 76.745 87.2373 77.6758L87.3994 77.8574C87.4333 77.8935 87.4537 77.9204 87.5166 77.9951C87.5668 78.0548 87.6508 78.1522 87.7607 78.2412C87.8792 78.337 88.0327 78.4281 88.2275 78.4766C88.4201 78.5244 88.6123 78.5207 88.7949 78.4863L89.4062 78.3711V72.5898C89.4063 72.5139 89.4324 72.316 89.5039 71.9902C89.5709 71.6851 89.6647 71.3225 89.7686 70.9492C89.9763 70.2024 90.2153 69.4453 90.3418 69.0811L90.3428 69.082C92.6304 62.5535 99.2284 57.9685 106.092 55.3809C106.036 55.4687 105.988 55.5532 105.955 55.6201Z" fill="#E85035" stroke="#B41500" stroke-width="1.5"/>
<path d="M95.4715 103.533C96.1604 104.084 98.0129 105.271 98.7976 105.575H98.8018C108.12 109.191 116.399 98.5222 113.032 90.5866L111.782 94.8657L110.021 97.5931C110.626 94.2602 109.873 91.3011 108.029 88.4588C106.305 85.8033 103.718 83.6521 102.361 80.7261C101.578 79.0382 101.216 77.2354 101.083 75.4016C99.6635 75.8785 98.6207 76.9278 97.7985 78.0648C94.7367 82.2971 95.0614 87.8085 96.5122 92.5315C95.6172 91.9766 95.024 91.1239 94.3891 90.3374L92.8801 87.6664C89.0107 92.4731 90.7862 99.7852 95.4715 103.533Z" fill="#FFB300"/>
</svg>
