<svg width="128" height="128" viewBox="0 0 128 128" fill="none" xmlns="http://www.w3.org/2000/svg">
<path d="M57.7926 9.01321H72.3534C72.7696 11.6358 73.1792 14.2056 73.5822 16.782C73.7672 18.0041 73.9522 19.2262 74.0843 20.4484C74.1504 21.1024 74.4146 21.4062 75.0753 21.5582C79.7527 22.6482 84.1263 24.4715 88.1761 27.0743C88.3941 27.213 88.9028 27.1535 89.134 26.9818C92.0409 24.8348 94.9412 22.6812 97.782 20.455C98.4889 19.9001 98.8324 19.9991 99.4204 20.6003C102.552 23.8175 105.73 26.9884 109.046 30.3311C107.778 32.0553 106.489 33.7993 105.201 35.5433C104.137 36.9768 103.054 38.3971 102.037 39.8637C101.871 40.1015 101.865 40.6168 102.017 40.8678C104.494 44.99 106.357 49.3566 107.441 54.0535C107.513 54.3772 108.042 54.767 108.405 54.8198C111.933 55.3814 115.474 55.89 119.015 56.3921C119.564 56.4714 120.006 56.478 120 57.2443C119.973 61.9016 119.987 66.5589 119.987 71.3549C118.196 71.6324 116.439 71.9098 114.682 72.1741C112.521 72.5044 110.361 72.8148 108.207 73.1782C107.936 73.2244 107.573 73.5415 107.507 73.7925C106.364 78.4631 104.613 82.8825 102.037 86.9453C101.568 87.6852 102.043 88.0551 102.367 88.4911C104.355 91.1798 106.37 93.842 108.372 96.5175C108.63 96.861 108.874 97.2178 109.291 97.8057C106.278 100.739 103.298 103.645 100.312 106.546C99.1892 107.638 97.9846 107.706 96.6985 106.75C94.3136 104.96 91.922 103.19 89.5701 101.353C88.9424 100.864 88.4668 100.778 87.7731 101.208C83.8554 103.626 79.6536 105.37 75.1612 106.38C74.342 106.565 74.2032 107.074 74.1041 107.735C73.6417 110.925 73.1792 114.11 72.7102 117.294C72.6309 117.842 72.5054 118.384 72.393 118.998H57.5746C57.1914 116.408 56.8082 113.852 56.4316 111.295C56.24 109.994 56.1013 108.686 55.8304 107.404C55.7512 107.041 55.335 106.572 54.9914 106.479C50.4197 105.33 46.099 103.573 42.069 101.129C41.4744 100.765 41.0912 100.904 40.5892 101.294C37.8474 103.401 35.0661 105.449 32.3376 107.57C31.6835 108.078 31.2871 108.131 30.6661 107.49C27.4553 104.194 24.1917 100.944 20.8686 97.6075C22.5995 95.2822 24.3238 92.9568 26.0548 90.6315C26.6493 89.8321 27.2109 89.0064 27.8451 88.2467C28.2812 87.7182 28.2019 87.335 27.8583 86.7867C25.3875 82.8363 23.716 78.5489 22.5929 74.0436C22.441 73.4358 22.2164 73.2244 21.5953 73.1319C17.8957 72.6167 14.2092 72.0419 10.5162 71.4804C10.3642 71.4606 10.2189 71.4011 9.98765 71.3351C9.98765 67.2988 9.92158 63.2823 10.0075 59.2724C10.0735 56.2666 10.1726 56.326 13.3372 55.9561C16.0987 55.6324 18.847 55.1898 21.5887 54.734C21.9587 54.6745 22.4806 54.2782 22.5599 53.9545C23.6566 49.4293 25.3809 45.175 27.8055 41.2113C28.2812 40.4318 28.0962 39.9231 27.6271 39.3088C25.7112 36.772 23.8151 34.2155 21.9191 31.6655C21.5887 31.2229 21.3113 30.7473 21.0536 30.3575C24.5353 26.8497 27.9508 23.4145 31.4787 19.8538C32.179 20.3691 32.9718 20.9372 33.7514 21.5185C36.0703 23.2626 38.3892 24.9933 40.6816 26.7638C41.1903 27.1535 41.5273 27.2064 42.1219 26.8364C46.0197 24.379 50.2611 22.7076 54.7073 21.5846C55.6521 21.3468 55.8833 20.9042 56.0022 20.0652C56.4647 16.7556 56.98 13.4591 57.4887 10.1561C57.5415 9.80594 57.6539 9.46903 57.7662 9L57.7926 9.01321ZM65.0201 81.6274C74.3618 81.7132 82.5803 73.7529 82.6794 64.5176C82.7917 54.4697 75.1876 46.5556 65.4496 46.3178C55.8569 46.08 47.5723 53.7431 47.4203 63.7249C47.275 73.4953 55.216 81.5349 65.0268 81.6274H65.0201Z" fill="url(#paint0_linear_198_2841)"/>
<path d="M65.0473 90.6118C50.3543 90.6118 38.4031 78.6614 38.4031 63.9695C38.4031 49.2775 50.3543 37.3271 65.0473 37.3271C79.7402 37.3271 91.6915 49.2775 91.6915 63.9695C91.6915 78.6614 79.7402 90.6118 65.0473 90.6118ZM65.0473 41.2842C52.5411 41.2842 42.367 51.4575 42.367 63.9629C42.367 76.4682 52.5411 86.6416 65.0473 86.6416C77.5534 86.6416 87.7275 76.4682 87.7275 63.9629C87.7275 51.4575 77.5534 41.2842 65.0473 41.2842Z" fill="url(#paint1_linear_198_2841)"/>
<path opacity="0.4" d="M65.0473 90.6118C50.3543 90.6118 38.4031 78.6613 38.4031 63.9694C38.4031 59.1668 39.6781 54.6614 41.9112 50.7638C30.3827 71.8703 51.8936 101.228 80.1432 85.9148C75.849 88.8744 70.6496 90.6118 65.0473 90.6118Z" fill="white"/>
<defs>
<linearGradient id="paint0_linear_198_2841" x1="98.958" y1="23.2361" x2="28.8814" y2="108.05" gradientUnits="userSpaceOnUse">
<stop stop-color="#A3C6FF"/>
<stop offset="0.99" stop-color="#1F68FF"/>
</linearGradient>
<linearGradient id="paint1_linear_198_2841" x1="42.2254" y1="83.6666" x2="88.8924" y2="43.2191" gradientUnits="userSpaceOnUse">
<stop offset="0.0973426" stop-color="#A3C6FF"/>
<stop offset="0.99" stop-color="#1F68FF"/>
</linearGradient>
</defs>
</svg>
