<svg width="128" height="128" viewBox="0 0 128 128" fill="none" xmlns="http://www.w3.org/2000/svg">
<path d="M20 92C27.1797 92 33 97.8203 33 105C33 112.18 27.1797 118 20 118C12.8203 118 7 112.18 7 105C7 97.8203 12.8203 92 20 92ZM64 92C71.1797 92 77 97.8203 77 105C77 112.18 71.1797 118 64 118C56.8203 118 51 112.18 51 105C51 97.8203 56.8203 92 64 92ZM108 92C115.18 92 121 97.8203 121 105C121 112.18 115.18 118 108 118C100.82 118 95 112.18 95 105C95 97.8203 100.82 92 108 92ZM67 61H111V86H105V67H67V86H61V67H23V86H17V61H61V43H67V61ZM64 10C71.1797 10 77 15.8203 77 23C77 30.1797 71.1797 36 64 36C56.8203 36 51 30.1797 51 23C51 15.8203 56.8203 10 64 10Z" fill="#C56308"/>
</svg>
