<svg width="128" height="128" viewBox="0 0 128 128" fill="none" xmlns="http://www.w3.org/2000/svg">
<path d="M104 37C107.866 37 111 40.134 111 44V63C111 66.866 107.866 70 104 70H66V78.5137C68.5568 79.4176 70.5824 81.4432 71.4863 84H85C86.1046 84 87 84.8954 87 86V88C87 89.1046 86.1046 90 85 90H71.4863C70.2507 93.4953 66.9185 96 63 96C59.0815 96 55.7493 93.4953 54.5137 90H41C39.8954 90 39 89.1046 39 88V86C39 84.8954 39.8954 84 41 84H54.5137C55.4176 81.4432 57.4432 79.4176 60 78.5137V70H24C20.134 70 17 66.866 17 63V44C17 40.134 20.134 37 24 37H104ZM32 84C33.1046 84 34 84.8954 34 86V88C34 89.1046 33.1046 90 32 90H28C26.8954 90 26 89.1046 26 88V86C26 84.8954 26.8954 84 28 84H32ZM98 84C99.1046 84 100 84.8954 100 86V88C100 89.1046 99.1046 90 98 90H94C92.8954 90 92 89.1046 92 88V86C92 84.8954 92.8954 84 94 84H98Z" fill="black"/>
<path d="M98.5855 49.692C98.3765 47.877 97.5735 47.239 96.0115 47.239C94.4165 47.239 93.7015 47.888 93.7015 48.944C93.7015 50.352 94.9555 50.781 96.7815 51.386C99.7185 52.398 101.776 53.399 101.776 56.292C101.776 59.493 99.2455 61.275 95.7255 61.275C92.3925 61.275 90.2145 59.867 89.8955 56.424L92.9975 55.962C93.2835 57.733 94.1305 58.613 95.9455 58.613C97.7605 58.613 98.3985 57.766 98.3985 56.743C98.3985 55.522 97.4745 55.071 95.0655 54.213C92.6015 53.333 90.5005 52.046 90.5005 49.241C90.5005 46.315 92.5685 44.687 96.2095 44.687C99.5755 44.687 101.589 46.183 101.622 49.384L98.5855 49.692Z" fill="white"/>
<path d="M84.7889 61.44C83.4249 61.44 82.3029 60.527 82.3029 59.042C82.3029 57.535 83.4249 56.655 84.7889 56.655C86.1309 56.655 87.2419 57.535 87.2419 59.042C87.2419 60.527 86.1309 61.44 84.7889 61.44Z" fill="white"/>
<path d="M72.0043 61H68.7483V44.94H74.4023C77.6143 44.94 79.7043 46.194 79.7043 49.549C79.7043 52.904 77.6913 55.467 72.7633 55.467H72.0043V61ZM72.0043 52.992H73.1923C75.6343 52.992 76.3493 51.749 76.3493 49.901C76.3493 48.042 75.4473 47.327 73.4123 47.327H72.0043V52.992Z" fill="white"/>
<path d="M62.7837 61.44C61.4197 61.44 60.2977 60.527 60.2977 59.042C60.2977 57.535 61.4197 56.655 62.7837 56.655C64.1257 56.655 65.2367 57.535 65.2367 59.042C65.2367 60.527 64.1257 61.44 62.7837 61.44Z" fill="white"/>
<path d="M46.6992 61V58.316H50.2082V47.624H46.6992V44.94H56.9512V47.624H53.4532V58.316H56.9512V61H46.6992Z" fill="white"/>
<path d="M40.7786 61.44C39.4146 61.44 38.2926 60.527 38.2926 59.042C38.2926 57.535 39.4146 56.655 40.7786 56.655C42.1206 56.655 43.2316 57.535 43.2316 59.042C43.2316 60.527 42.1206 61.44 40.7786 61.44Z" fill="white"/>
<path d="M23.572 44.94H27.015L29.853 55.83H30.029L32.812 44.94H36.068L31.558 61H28.115L23.572 44.94Z" fill="white"/>
</svg>
