<svg width="128" height="128" viewBox="0 0 128 128" fill="none" xmlns="http://www.w3.org/2000/svg">
<rect x="60" y="63" width="6" height="21" rx="2" fill="#43B8FF"/>
<rect x="39" y="90" width="6" height="48" rx="2" transform="rotate(-90 39 90)" fill="#8AD2FC"/>
<rect x="26" y="90" width="6" height="8" rx="2" transform="rotate(-90 26 90)" fill="#8AD2FC"/>
<rect x="92" y="90" width="6" height="8" rx="2" transform="rotate(-90 92 90)" fill="#8AD2FC"/>
<circle cx="63" cy="87" r="9" fill="#1A84FF"/>
<rect x="17" y="37" width="94" height="33" rx="7" fill="url(#paint0_linear_205_6914)"/>
<path d="M98.5854 49.692C98.3764 47.877 97.5735 47.239 96.0115 47.239C94.4165 47.239 93.7014 47.888 93.7014 48.944C93.7014 50.352 94.9554 50.781 96.7814 51.386C99.7184 52.398 101.775 53.399 101.775 56.292C101.775 59.493 99.2454 61.275 95.7254 61.275C92.3924 61.275 90.2144 59.867 89.8954 56.424L92.9975 55.962C93.2835 57.733 94.1304 58.613 95.9454 58.613C97.7604 58.613 98.3985 57.766 98.3985 56.743C98.3985 55.522 97.4745 55.071 95.0655 54.213C92.6015 53.333 90.5005 52.046 90.5005 49.241C90.5005 46.315 92.5684 44.687 96.2094 44.687C99.5754 44.687 101.588 46.183 101.621 49.384L98.5854 49.692Z" fill="white"/>
<path d="M84.7889 61.44C83.4249 61.44 82.3029 60.527 82.3029 59.042C82.3029 57.535 83.4249 56.655 84.7889 56.655C86.1309 56.655 87.2419 57.535 87.2419 59.042C87.2419 60.527 86.1309 61.44 84.7889 61.44Z" fill="white"/>
<path d="M72.0043 61H68.7483V44.94H74.4023C77.6143 44.94 79.7043 46.194 79.7043 49.549C79.7043 52.904 77.6913 55.467 72.7633 55.467H72.0043V61ZM72.0043 52.992H73.1923C75.6343 52.992 76.3493 51.749 76.3493 49.901C76.3493 48.042 75.4473 47.327 73.4123 47.327H72.0043V52.992Z" fill="white"/>
<path d="M62.7837 61.44C61.4197 61.44 60.2977 60.527 60.2977 59.042C60.2977 57.535 61.4197 56.655 62.7837 56.655C64.1257 56.655 65.2367 57.535 65.2367 59.042C65.2367 60.527 64.1257 61.44 62.7837 61.44Z" fill="white"/>
<path d="M46.6992 61V58.316H50.2082V47.624H46.6992V44.94H56.9512V47.624H53.4532V58.316H56.9512V61H46.6992Z" fill="white"/>
<path d="M40.7786 61.44C39.4146 61.44 38.2926 60.527 38.2926 59.042C38.2926 57.535 39.4146 56.655 40.7786 56.655C42.1206 56.655 43.2316 57.535 43.2316 59.042C43.2316 60.527 42.1206 61.44 40.7786 61.44Z" fill="white"/>
<path d="M23.572 44.94H27.015L29.853 55.83H30.029L32.812 44.94H36.068L31.558 61H28.115L23.572 44.94Z" fill="white"/>
<defs>
<linearGradient id="paint0_linear_205_6914" x1="64" y1="37" x2="64" y2="72.8085" gradientUnits="userSpaceOnUse">
<stop stop-color="#27B0FF"/>
<stop offset="1" stop-color="#177CFF"/>
</linearGradient>
</defs>
</svg>
