<svg width="128" height="128" viewBox="0 0 128 128" fill="none" xmlns="http://www.w3.org/2000/svg">
<path d="M48.6748 105H27V92.2119H48.6748V105ZM74.8125 105H53.1377V92.2129H74.8125V105ZM100.95 105H79.2754V92.2129H100.95V105ZM48.6748 88H27V75.2119H48.6748V88ZM74.8125 88H53.1377V75.2129H74.8125V88ZM100.95 88H79.2754V75.2129H100.95V88ZM66.5254 61.8252H92.6621V72.0254H87.5625V66.9248H66.5254V72.0254H61.4248V66.9248H40.3877V72.0254H35.2871V61.8252H61.4248V58H66.5254V61.8252Z" fill="url(#paint0_linear_205_6896)"/>
<path d="M67.6764 30.2106C68.3704 30.0469 68.9543 29.7165 69.6735 29.5654C74.4938 28.5472 79.2653 31.1454 80.762 35.854C83.3555 35.5849 85.8341 36.1357 87.9712 37.6575C95.3583 42.9153 92.0188 54.4523 83.1682 55.31H44.8731C38.1548 54.616 34.0427 47.5641 36.9431 41.362C38.5955 37.8275 42.6824 35.3882 46.5853 35.8666C45.6442 30.8857 48.181 25.9112 52.866 23.9487C58.81 21.4591 65.6274 23.9802 67.6764 30.2106Z" fill="#71CBFF"/>
<path d="M52.8662 23.9492C58.7173 21.4985 65.4148 23.9024 67.5772 29.9209L67.6768 30.2109C68.2838 30.0677 68.8064 29.7966 69.4092 29.6299L69.6739 29.5654C74.4939 28.5474 79.265 31.1453 80.7618 35.8535C83.3553 35.5844 85.8346 36.1354 87.9717 37.6572C95.3585 42.9151 92.0186 54.4519 83.168 55.3096H44.8731C38.2598 54.6263 34.172 47.7829 36.8125 41.6533L36.9434 41.3623C38.5958 37.8278 42.6823 35.388 46.585 35.8662C45.6735 31.041 48.0263 26.2221 52.4336 24.1416L52.8662 23.9492ZM64.8262 31.1474C63.4004 26.8129 58.5902 24.804 54.0254 26.7158C50.7058 28.1063 48.8429 31.6558 49.5332 35.3096L50.295 39.3437L46.2207 38.8447C43.6952 38.5351 40.8025 40.1915 39.6612 42.6328H39.6602C37.6676 46.8938 40.4297 51.7516 45.0586 52.3096H83.002C89.0249 51.6246 91.1544 43.9019 86.462 40.2724L86.2315 40.1016C84.7546 39.0499 83.0228 38.6354 81.0713 38.8379L78.6426 39.0898L77.9034 36.7627C76.9007 33.6082 73.695 31.7827 70.294 32.501H70.2901C70.1841 32.5232 70.0561 32.5649 69.7266 32.6894C69.4508 32.7937 68.9389 32.9955 68.3653 33.1308L65.6866 33.7617L64.8262 31.1474Z" fill="#24A5FF"/>
<defs>
<linearGradient id="paint0_linear_205_6896" x1="63.9751" y1="58" x2="63.9751" y2="109" gradientUnits="userSpaceOnUse">
<stop stop-color="#27B0FF"/>
<stop offset="1" stop-color="#177CFF"/>
</linearGradient>
</defs>
</svg>
