<svg width="128" height="128" viewBox="0 0 128 128" fill="none" xmlns="http://www.w3.org/2000/svg">
<path d="M20 23C20 18.0294 24.0294 14 29 14H67.7157C73.0201 14 78.1071 16.1071 81.8579 19.8579L101.142 39.1421C104.893 42.8929 107 47.9799 107 53.2843V104C107 108.971 102.971 113 98 113H29C24.0294 113 20 108.971 20 104V23Z" fill="white"/>
<mask id="mask0_196_2200" style="mask-type:alpha" maskUnits="userSpaceOnUse" x="20" y="16" width="85" height="97">
<path d="M20 16H72.6863C74.808 16 76.8429 16.8429 78.3431 18.3431L102.657 42.6569C104.157 44.1571 105 46.192 105 48.3137V113H20V16Z" fill="white"/>
</mask>
<g mask="url(#mask0_196_2200)">
<path d="M70 11H76L110 45V51H80C74.4772 51 70 46.5228 70 41V11Z" fill="#F8F8F8"/>
<path d="M70 41V11H76L110 45V51H80V48H107V46.2422L74.7578 14H73V41C73 44.866 76.134 48 80 48V51L79.4854 50.9873C74.2017 50.7195 70 46.3502 70 41Z" fill="#CECECE"/>
</g>
<path d="M20 104V23C20 18.1847 23.7817 14.2526 28.5371 14.0117L29 14H67.7158L68.2119 14.0059C73.3362 14.1329 78.2238 16.2241 81.8574 19.8574L101.143 39.1426C104.893 42.8932 107 47.9801 107 53.2842V104L106.988 104.463C106.747 109.218 102.815 113 98 113V110C101.314 110 104 107.314 104 104V53.2842C104 48.7755 102.209 44.4518 99.0205 41.2637L79.7363 21.9795C76.5482 18.7914 72.2245 17 67.7158 17H29C25.6863 17 23 19.6863 23 23V104C23 107.314 25.6863 110 29 110V113L28.5371 112.988C23.935 112.755 20.2449 109.065 20.0117 104.463L20 104ZM98 110V113H29V110H98Z" fill="#CECECE"/>
<path d="M32 73C32 70.7909 33.7909 69 36 69H90C92.2091 69 94 70.7909 94 73V95C94 97.2091 92.2091 99 90 99H36C33.7909 99 32 97.2091 32 95V73Z" fill="#6C51BA"/>
<path d="M39 86.0745C39 88.5277 40.6805 90.0854 43.2563 90.0854C45.8321 90.0854 47.5125 88.5767 47.5125 85.866V77.2187H44.8877V85.8537C44.8877 87.0926 44.2989 87.7427 43.2195 87.7427C42.2137 87.7427 41.5513 87.0926 41.539 86.0868H39V86.0745ZM49.1193 86.2708C49.2175 88.6135 51.1555 90.0731 54.1361 90.0731C57.2884 90.0731 59.2265 88.5277 59.2265 86.001C59.2265 84.0507 58.1348 82.9713 55.6203 82.4439L54.1116 82.125C52.6397 81.8061 52.0386 81.3645 52.0386 80.5918C52.0386 79.6351 52.9095 79.0218 54.222 79.0218C55.5344 79.0218 56.4176 79.6841 56.528 80.6776H58.9934C58.9198 78.4453 56.9572 76.8998 54.1974 76.8998C51.4376 76.8998 49.4015 78.4576 49.4015 80.8249C49.4015 82.7383 50.5177 83.928 52.8114 84.4064L54.4428 84.7498C55.976 85.081 56.6016 85.5349 56.6016 86.3444C56.6016 87.2888 55.6325 87.9512 54.271 87.9512C52.7991 87.9512 51.7688 87.3011 51.6461 86.283H49.1071L49.1193 86.2708ZM66.3038 76.8876C62.6241 76.8876 60.269 79.4143 60.269 83.4742C60.269 87.5341 62.5873 90.0731 66.3038 90.0731C70.0204 90.0731 72.3264 87.5464 72.3264 83.4742C72.3264 79.402 70.0081 76.8876 66.3038 76.8876ZM66.3038 79.1935C68.34 79.1935 69.6525 80.8494 69.6525 83.4742C69.6525 86.099 68.3522 87.7672 66.3038 87.7672C64.2554 87.7672 62.9553 86.0868 62.9553 83.4742C62.9553 80.8616 64.28 79.1935 66.3038 79.1935ZM76.4354 89.7542V81.9042H76.5949L82.3844 89.7542H84.5554V77.2065H82.041V85.0197H81.8815L76.1165 77.2065H73.921V89.7542H76.4354Z" fill="white"/>
<path d="M38.324 38.9024V38.4976C40.3601 38.2768 41.5132 37.2465 41.5132 35.6274V33.2356C41.5132 31.776 41.9792 31.2486 43.3162 31.2486H43.8314V28.452H42.8992C39.2195 28.452 37.7353 29.7031 37.7353 32.7941V34.6707C37.7353 36.2407 36.938 36.8785 35 36.8908V40.5092C36.9503 40.546 37.7353 41.1715 37.7353 42.7293V44.6059C37.7353 47.7337 39.2317 49.0338 42.8992 49.0338H43.8314V46.2372H43.3162C41.9915 46.2372 41.5132 45.7098 41.5132 44.2502V41.7725C41.5132 40.1535 40.3601 39.1232 38.324 38.9024ZM52.6996 38.9024C50.6635 39.1232 49.5105 40.1535 49.5105 41.7725V44.2502C49.5105 45.7098 49.0321 46.2372 47.7074 46.2372H47.1923V49.0338H48.1245C51.792 49.0338 53.2884 47.7337 53.2884 44.6059V42.7293C53.2884 41.1593 54.0612 40.5337 56.0237 40.5092V36.8908C54.0734 36.8663 53.2884 36.2285 53.2884 34.6707V32.7941C53.2884 29.7154 51.8042 28.452 48.1245 28.452H47.1923V31.2486H47.7074C49.0199 31.2486 49.5105 31.776 49.5105 33.2356V35.6274C49.5105 37.2465 50.6635 38.2768 52.6996 38.4976V38.9024Z" fill="#767676"/>
</svg>
