<svg width="128" height="128" viewBox="0 0 128 128" fill="none" xmlns="http://www.w3.org/2000/svg">
<rect x="18.6003" y="26.8" width="90" height="57.6" fill="#70CDFF"/>
<path d="M18.6003 26.8L108.6 85.6L18.6003 85V26.8Z" fill="#09A8FD"/>
<path d="M123.529 98.886L114.235 88.3204C113.828 87.8567 113.24 87.5911 112.622 87.5911H112.197C112.859 86.7733 113.257 85.7349 113.257 84.6032V26.7556C113.257 24.1331 111.123 22 108.501 22H18.5026C15.8801 22 13.7454 24.1331 13.7454 26.7556V84.6032C13.7454 85.7333 14.143 86.7733 14.8047 87.5911H14.3797C13.7631 87.5911 13.1755 87.8567 12.7682 88.3204L3.4744 98.886C3.14599 99.2595 2.985 99.7247 3.0011 100.195C3.0011 100.2 3.0011 100.206 3.0011 100.211V102.616C3.0011 104.482 4.52243 106 6.39149 106H120.615C122.484 106 124.004 104.482 124.004 102.616V100.211C124.004 100.211 124.004 100.2 124.004 100.195C124.02 99.7247 123.859 99.2578 123.531 98.8843L123.529 98.886ZM19.9659 29.1511C19.9659 28.6633 20.362 28.2672 20.8498 28.2672H106.154C106.642 28.2672 107.038 28.6633 107.038 29.1511V82.2077C107.038 82.6955 106.642 83.0915 106.154 83.0915H20.8498C20.362 83.0915 19.9659 82.6955 19.9659 82.2077V29.1511Z" fill="#637A92"/>
<path d="M49.8647 102.143H76.9412C76.9412 103.133 76.1379 103.935 75.1494 103.935H51.6581C50.6681 103.935 49.8664 103.131 49.8664 102.143H49.8647Z" fill="white"/>
<path d="M108.643 96.6723H103.062L102.255 94.7663H107.681L108.643 96.6723ZM106.402 92.2323L107.309 94.0273H101.945L101.185 92.2323H106.402ZM101.843 96.6723H95.2638L94.6198 94.7663H101.037L101.843 96.6723ZM105.068 89.5889L106.029 91.4934H100.873L100.068 89.5889H105.068ZM100.724 94.0273H94.3703L93.7634 92.2323H99.9662L100.724 94.0273ZM94.0596 96.6723H87.4687L86.9842 94.7663H93.414L94.0596 96.6723ZM98.849 89.5889L99.6539 91.4934H93.5138L92.8699 89.5889H98.849ZM93.1661 94.0273H86.799L86.3434 92.2323H92.5592L93.1677 94.0273H93.1661ZM91.6641 89.5889L92.308 91.4934H86.1551L85.6721 89.5889H91.6641ZM86.2742 96.6723H79.6737L79.3518 94.7663H85.7929L86.2758 96.6723H86.2742ZM85.6045 94.0273H79.2278L78.9235 92.2323H85.1489L85.6045 94.0273ZM84.4776 89.5889L84.9606 91.4934H78.798L78.476 89.5889H84.4776ZM78.4889 96.6723H71.8819L71.721 94.7663H78.1685L78.4905 96.6723H78.4889ZM78.0413 94.0273H71.6566L71.5052 92.2323H77.7371L78.0413 94.0273ZM77.2911 89.5889L77.6131 91.4934H71.4441L71.2831 89.5889H77.2927H77.2911ZM64.0902 89.5889H70.103L70.264 91.4934H64.0918V89.5889H64.0902ZM64.0902 92.2323H70.3252L70.4765 94.0273H64.0885V92.2323H64.0902ZM64.0902 94.7663H70.5409L70.7019 96.6723H64.0918V94.7663H64.0902ZM56.9005 89.5889H62.9117V91.4934H56.7395L56.9005 89.5889ZM56.6767 92.2323H62.9117V94.0273H56.5237L56.6751 92.2323H56.6767ZM56.461 94.7663H62.9101V96.6723H56.3L56.461 94.7663ZM49.7108 89.5889H55.7188L55.5578 91.4934H49.3888L49.7108 89.5889ZM49.2632 92.2323H55.495L55.3437 94.0273H48.9605L49.2648 92.2323H49.2632ZM55.2809 94.7663L55.1199 96.6723H48.513L48.835 94.7663H55.2809ZM42.5227 89.5889H48.5243L48.2023 91.4934H42.0397L42.5227 89.5889ZM41.853 92.2323H48.0783L47.7741 94.0273H41.3957L41.8513 92.2323H41.853ZM47.6501 94.7663L47.3281 96.6723H40.7277L41.2106 94.7663H47.6501ZM35.3378 89.5889H41.3297L40.8468 91.4934H34.6938L35.3378 89.5889ZM40.6584 92.2323L40.2028 94.0273H33.8358L34.4427 92.2323H40.6584ZM40.0161 94.7663L39.5331 96.6723H32.9423L33.5862 94.7663H40.0161ZM28.1529 89.5889H34.132L33.488 91.4934H27.348L28.1529 89.5889ZM33.2385 92.2323L32.6316 94.0273H26.2774L27.0373 92.2323H33.2401H33.2385ZM32.3805 94.7663L31.7365 96.6723H25.1586L25.9651 94.7663H32.3821H32.3805ZM21.9324 89.5889H26.9326L26.1277 91.4934H20.9713L21.9324 89.5889ZM20.5978 92.2323H25.8154L25.0555 94.0273H19.6898L20.5962 92.2323H20.5978ZM19.3179 94.7663H24.7432L23.9367 96.6723H18.3552L19.3163 94.7663H19.3179Z" fill="white"/>
</svg>
