<svg width="128" height="128" viewBox="0 0 128 128" fill="none" xmlns="http://www.w3.org/2000/svg">
<path d="M21.6477 61.7418H105.648V72.1289H21.6477V61.7418Z" fill="black"/>
<mask id="mask0_196_1996" style="mask-type:luminance" maskUnits="userSpaceOnUse" x="8" y="68" width="112" height="52">
<path d="M17.4791 68.5159H109.816C110.538 68.5159 111.157 69.0353 111.284 69.7488L119.227 115.208C119.679 117.701 117.764 120 115.231 120H12.0642C9.52617 120 7.61133 117.701 8.06746 115.208L16.0113 69.7488C16.1378 69.0353 16.7565 68.5159 17.4791 68.5159Z" fill="white"/>
</mask>
<g mask="url(#mask0_196_1996)">
<path d="M14.2048 70.5211C14.3313 69.6269 15.0945 68.9676 15.9932 68.9676H111.302C112.2 68.9676 112.964 69.6315 113.09 70.5211L119.738 117.877C119.927 119.237 118.875 120.451 117.502 120.451H9.79255C8.41965 120.451 7.36739 119.237 7.55707 117.877L14.2048 70.5211Z" fill="#777A7F"/>
<path d="M14.2046 68.715C14.3311 67.8209 15.0943 67.1615 15.993 67.1615H111.301C112.2 67.1615 112.963 67.8254 113.09 68.715L119.286 115.62C119.476 116.979 118.423 118.645 117.05 118.645H10.244C8.87106 118.645 7.81881 116.979 8.00848 115.62L14.2046 68.715Z" fill="url(#paint0_linear_196_1996)"/>
</g>
<path d="M50.7945 101.475C50.8307 101.222 51.0429 101.032 51.3004 101.032H75.9945C76.252 101.032 76.4687 101.222 76.5004 101.475L78.4107 115.805C78.4513 116.112 78.212 116.383 77.9049 116.383H49.39C49.0784 116.383 48.8436 116.112 48.8842 115.805L50.7945 101.475Z" fill="url(#paint1_linear_196_1996)"/>
<path d="M15.7773 10.2581C15.7773 9.01161 16.789 8 18.0354 8H109.261C110.508 8 111.519 9.01161 111.519 10.2581V65.3548C111.519 66.6013 110.508 67.6129 109.261 67.6129H18.0354C16.789 67.6129 15.7773 66.6013 15.7773 65.3548V10.2581Z" fill="#3A4246"/>
<mask id="mask1_196_1996" style="mask-type:luminance" maskUnits="userSpaceOnUse" x="15" y="8" width="97" height="60">
<path d="M15.7773 10.2581C15.7773 9.01161 16.789 8 18.0354 8H109.261C110.508 8 111.519 9.01161 111.519 10.2581V65.3548C111.519 66.6013 110.508 67.6129 109.261 67.6129H18.0354C16.789 67.6129 15.7773 66.6013 15.7773 65.3548V10.2581Z" fill="white"/>
</mask>
<g mask="url(#mask1_196_1996)">
<path d="M53.7714 2.32307C52.9359 0.819203 54.0243 -1.03241 55.745 -1.03241H122.809C124.056 -1.03241 125.068 -0.0207971 125.068 1.22565V69.8708C125.068 71.1172 124.056 72.1289 122.809 72.1289H93.8792C93.0572 72.1289 92.303 71.6863 91.9056 70.9682L53.7714 2.32307Z" fill="url(#paint2_linear_196_1996)"/>
</g>
<path d="M19.5699 74.9654C19.728 74.1073 20.4732 73.4841 21.3493 73.4841H105.945C106.817 73.4841 107.567 74.1073 107.72 74.9654L111.582 96.1912C111.785 97.3021 110.931 98.3228 109.802 98.3228H17.488C16.359 98.3228 15.5099 97.3021 15.7086 96.1912L19.5699 74.9654Z" fill="url(#paint3_linear_196_1996)"/>
<mask id="mask2_196_1996" style="mask-type:luminance" maskUnits="userSpaceOnUse" x="18" y="75" width="92" height="22">
<path d="M26.6386 91.9998C26.914 91.9998 27.1218 92.2437 27.0856 92.5147L26.6476 95.676C26.616 95.8972 26.4263 96.0643 26.2005 96.0643H18.5773C18.2973 96.0643 18.085 95.8114 18.1347 95.536L18.6947 92.3747C18.7308 92.1579 18.9205 91.9998 19.1373 91.9998H26.6386ZM34.3431 91.9998C34.614 91.9998 34.8218 92.2347 34.7902 92.5011L34.4334 95.6624C34.4063 95.8927 34.2166 96.0643 33.9863 96.0643H29.8269C29.5515 96.0643 29.3437 95.8205 29.3798 95.5495L29.8179 92.3882C29.8495 92.1669 30.0392 91.9998 30.265 91.9998H34.3385H34.3431ZM42.2282 91.9998C42.4902 91.9998 42.6979 92.2211 42.6798 92.4831L42.4495 95.6443C42.4315 95.8792 42.2373 96.0643 41.9979 96.0643H37.6082C37.3373 96.0643 37.1295 95.8295 37.1611 95.563L37.5179 92.4018C37.545 92.1714 37.7347 91.9998 37.965 91.9998H42.2282ZM49.8424 91.9998C50.0998 91.9998 50.3031 92.2121 50.294 92.465L50.1856 95.6263C50.1766 95.8701 49.9779 96.0643 49.734 96.0643H45.6108C45.3489 96.0643 45.1411 95.843 45.1592 95.5811L45.3895 92.4198C45.4076 92.185 45.6018 91.9998 45.8411 91.9998H49.8424ZM81.0127 91.9998C81.2521 91.9998 81.4508 92.185 81.4643 92.4243L81.6495 95.5856C81.6631 95.843 81.4598 96.0643 81.1979 96.0643H53.3334C53.076 96.0643 52.8727 95.8521 52.8818 95.5992L52.9902 92.4379C52.9992 92.194 53.1979 91.9998 53.4418 91.9998H81.0127ZM88.8798 91.9998C89.1192 91.9998 89.3134 92.185 89.3314 92.4198L89.5527 95.5811C89.5708 95.843 89.3631 96.0643 89.1011 96.0643H84.8018C84.5624 96.0643 84.3637 95.8792 84.3502 95.6398L84.165 92.4785C84.1514 92.2211 84.3547 91.9998 84.6166 91.9998H88.8798ZM96.6295 91.9998C96.8598 91.9998 97.054 92.1759 97.0766 92.4063L97.3882 95.5676C97.4153 95.834 97.2076 96.0643 96.9366 96.0643H92.705C92.4656 96.0643 92.2714 95.8792 92.2534 95.6443L92.0321 92.4831C92.014 92.2211 92.2218 91.9998 92.4837 91.9998H96.625H96.6295ZM109.166 95.536C109.216 95.8114 109.004 96.0643 108.724 96.0643H100.559C100.328 96.0643 100.13 95.8882 100.107 95.6579L99.7953 92.4966C99.7682 92.2301 99.976 91.9998 100.242 91.9998H108.159C108.376 91.9998 108.566 92.1579 108.602 92.3747L109.162 95.536H109.166ZM108.128 89.665C108.177 89.9405 107.965 90.1934 107.68 90.1934H103.634C103.404 90.1934 103.21 90.0218 103.187 89.7914L102.893 87.0818C102.866 86.8153 103.074 86.5805 103.34 86.5805H107.202C107.423 86.5805 107.608 86.7385 107.649 86.9553L108.128 89.665ZM24.245 86.5805C24.5205 86.5805 24.7282 86.8243 24.6921 87.0953L24.3173 89.805C24.2856 90.0263 24.096 90.1934 23.8702 90.1934H19.616C19.336 90.1934 19.1237 89.9405 19.1734 89.665L19.6521 86.9553C19.6882 86.7385 19.8779 86.5805 20.0947 86.5805H24.245ZM31.8005 86.5805C32.0669 86.5805 32.2747 86.8108 32.2521 87.0727L32.0037 89.7824C31.9811 90.0127 31.7869 90.1934 31.5521 90.1934H27.5011C27.2256 90.1934 27.0179 89.9495 27.054 89.6785L27.4289 86.9689C27.4605 86.7476 27.6502 86.5805 27.876 86.5805H31.796H31.8005ZM39.4689 86.5805C39.7308 86.5805 39.934 86.8018 39.9205 87.0592L39.7534 89.7689C39.7398 90.0082 39.5411 90.1934 39.3018 90.1934H35.165C34.8986 90.1934 34.6908 89.9631 34.7134 89.7011L34.9618 86.9914C34.9844 86.7611 35.1786 86.5805 35.4134 86.5805H39.4689ZM47.196 86.5805C47.4534 86.5805 47.6566 86.7927 47.6476 87.0501L47.5437 89.7598C47.5347 90.0037 47.336 90.1934 47.0921 90.1934H42.9102C42.6482 90.1934 42.445 89.9721 42.4585 89.7147L42.6256 87.005C42.6392 86.7656 42.8379 86.5805 43.0773 86.5805H47.196ZM54.7695 86.5805C55.0224 86.5805 55.2256 86.7882 55.2211 87.0366L55.185 89.7463C55.185 89.9947 54.9818 90.1934 54.7334 90.1934H50.7818C50.5244 90.1934 50.3211 89.9811 50.3302 89.7237L50.425 87.014C50.434 86.7701 50.6327 86.5805 50.8766 86.5805H54.7695ZM62.1218 86.5805C62.3702 86.5805 62.5734 86.7792 62.5734 87.0276L62.6005 89.7372C62.6005 89.9901 62.4018 90.1934 62.1489 90.1934H58.3282C58.0753 90.1934 57.8721 89.9856 57.8766 89.7372L57.9127 87.0276C57.9127 86.7792 58.116 86.5805 58.3644 86.5805H62.1218ZM69.4379 86.5805C69.6818 86.5805 69.8805 86.7747 69.8895 87.014L69.9843 89.7237C69.9934 89.9811 69.7902 90.1934 69.5327 90.1934H65.7437C65.4953 90.1934 65.2966 89.9947 65.2921 89.7463L65.265 87.0366C65.265 86.7837 65.4637 86.5805 65.7166 86.5805H69.4379ZM76.8353 86.5805C77.0747 86.5805 77.2734 86.7656 77.2869 87.005L77.4495 89.7147C77.4631 89.9721 77.2598 90.1934 76.9979 90.1934H73.1321C72.8882 90.1934 72.6895 89.9992 72.6805 89.7598L72.5856 87.0501C72.5766 86.7927 72.7798 86.5805 73.0372 86.5805H76.8353ZM84.4631 86.5805C84.6979 86.5805 84.8966 86.7611 84.9147 86.996L85.1314 89.7056C85.154 89.9676 84.9463 90.1934 84.6798 90.1934H80.5972C80.3579 90.1934 80.1592 90.0082 80.1456 89.7689L79.9831 87.0592C79.9695 86.8018 80.1727 86.5805 80.4347 86.5805H84.4585H84.4631ZM92.0682 86.5805C92.2985 86.5805 92.4927 86.7566 92.5153 86.9869L92.7908 89.6966C92.8179 89.963 92.6101 90.1934 92.3437 90.1934H88.2882C88.0534 90.1934 87.8547 90.0127 87.8366 89.7779L87.6198 87.0682C87.5972 86.8063 87.805 86.5805 88.0714 86.5805H92.0637H92.0682ZM99.7231 86.5805C99.9534 86.5805 100.148 86.7521 100.17 86.9824L100.464 89.6921C100.491 89.9585 100.283 90.1934 100.017 90.1934H95.9656C95.7353 90.1934 95.5411 90.0172 95.5185 89.7869L95.2431 87.0772C95.216 86.8108 95.4237 86.5805 95.6947 86.5805H99.7321H99.7231ZM107.17 84.2456C107.22 84.5211 107.008 84.774 106.723 84.774H100.297C100.071 84.774 99.8766 84.6069 99.8495 84.3811L99.4972 81.6714C99.4611 81.4005 99.6734 81.1611 99.9443 81.1611H106.244C106.466 81.1611 106.651 81.3192 106.691 81.536L107.17 84.2456ZM29.0411 81.1611C29.3166 81.1611 29.5244 81.405 29.4882 81.676L29.1134 84.3856C29.0818 84.6069 28.8921 84.774 28.6663 84.774H20.5734C20.2934 84.774 20.0811 84.5211 20.1308 84.2456L20.6095 81.536C20.6457 81.3192 20.8353 81.1611 21.0521 81.1611H29.0456H29.0411ZM36.7502 81.1611C37.0166 81.1611 37.2244 81.3914 37.2018 81.6534L36.9534 84.363C36.9308 84.5979 36.7366 84.774 36.5018 84.774H32.2973C32.0218 84.774 31.814 84.5301 31.8502 84.2592L32.225 81.5495C32.2566 81.3282 32.4463 81.1611 32.6721 81.1611H36.7456H36.7502ZM44.2966 81.1611C44.5585 81.1611 44.7618 81.3824 44.7482 81.6398L44.5811 84.3495C44.5676 84.5889 44.3689 84.774 44.1295 84.774H40.1147C39.8482 84.774 39.6405 84.5437 39.6631 84.2818L39.9115 81.5721C39.934 81.3372 40.1282 81.1611 40.3631 81.1611H44.2966ZM51.5585 81.1611C51.816 81.1611 52.0192 81.3734 52.0102 81.6263L51.9198 84.336C51.9108 84.5798 51.7121 84.774 51.4682 84.774H47.7379C47.476 84.774 47.2727 84.5527 47.2863 84.2953L47.4534 81.5856C47.4669 81.3463 47.6656 81.1611 47.905 81.1611H51.5631H51.5585ZM58.9289 81.1611C59.1773 81.1611 59.3805 81.3643 59.3805 81.6127V84.3224C59.3805 84.5708 59.1773 84.774 58.9289 84.774H55.0676C54.8102 84.774 54.6069 84.5618 54.616 84.3089L54.7063 81.5992C54.7153 81.3553 54.914 81.1611 55.1579 81.1611H58.9244H58.9289ZM66.1005 81.1611C66.3443 81.1611 66.5431 81.3553 66.5521 81.5992L66.6469 84.3089C66.656 84.5663 66.4527 84.774 66.1953 84.774H62.5282C62.2798 84.774 62.0766 84.5708 62.0766 84.3224V81.6127C62.0766 81.3643 62.2798 81.1611 62.5282 81.1611H66.105H66.1005ZM73.5973 81.1611C73.8366 81.1611 74.0353 81.3463 74.0489 81.5901L74.1934 84.2998C74.2069 84.5572 73.9992 84.774 73.7418 84.774H69.7902C69.5463 84.774 69.3476 84.5798 69.3385 84.336L69.2437 81.6263C69.2347 81.3689 69.4379 81.1611 69.6953 81.1611H73.5927H73.5973ZM81.0805 81.1611C81.3153 81.1611 81.5095 81.3418 81.5321 81.5766L81.7624 84.2863C81.785 84.5482 81.5772 84.774 81.3108 84.774H77.3411C77.1018 84.774 76.9031 84.5889 76.8895 84.345L76.745 81.6353C76.7314 81.3779 76.9392 81.1611 77.1966 81.1611H81.0805ZM88.7985 81.1611C89.0289 81.1611 89.2231 81.3327 89.2456 81.563L89.5437 84.2727C89.5753 84.5392 89.3631 84.774 89.0966 84.774H84.9237C84.6889 84.774 84.4947 84.5934 84.4721 84.3585L84.2418 81.6489C84.2192 81.3869 84.4269 81.1611 84.6934 81.1611H88.794H88.7985ZM96.3179 81.1611C96.5437 81.1611 96.7379 81.3282 96.765 81.554L97.1172 84.2637C97.1534 84.5347 96.9411 84.774 96.6701 84.774H92.7185C92.4882 84.774 92.294 84.6024 92.2714 84.3721L91.9734 81.6624C91.9418 81.396 92.154 81.1611 92.4205 81.1611H96.3179ZM106.213 78.8263C106.262 79.1018 106.05 79.3547 105.766 79.3547H87.1592C86.9243 79.3547 86.7302 79.174 86.7076 78.9392L86.4772 76.2295C86.4547 75.9676 86.6624 75.7418 86.9289 75.7418H105.282C105.504 75.7418 105.689 75.8998 105.725 76.1166L106.204 78.8263H106.213ZM32.5456 78.9437C32.5231 79.174 32.3289 79.3547 32.094 79.3547H21.5263C21.2463 79.3547 21.034 79.1018 21.0837 78.8263L21.5624 76.1166C21.5986 75.8998 21.7882 75.7418 22.005 75.7418H32.3469C32.6134 75.7418 32.8211 75.9721 32.7986 76.234L32.5456 78.9437ZM40.2005 78.9347C40.1824 79.1695 39.9882 79.3547 39.7489 79.3547H35.7115C35.445 79.3547 35.2373 79.1243 35.2598 78.8624L35.5127 76.1527C35.5353 75.9224 35.7295 75.7418 35.9644 75.7418H39.9521C40.214 75.7418 40.4218 75.9631 40.4037 76.225L40.205 78.9347H40.2005ZM47.625 78.9256C47.6114 79.165 47.4127 79.3547 47.1734 79.3547H43.3527C43.0908 79.3547 42.8831 79.1334 42.9011 78.8714L43.0998 76.1618C43.1179 75.9269 43.3121 75.7418 43.5515 75.7418H47.3134C47.5708 75.7418 47.7785 75.9585 47.765 76.216L47.625 78.9256ZM55.0224 78.9166C55.0134 79.1605 54.8147 79.3547 54.5708 79.3547H50.7682C50.5108 79.3547 50.3031 79.1379 50.3166 78.8805L50.4566 76.1708C50.4702 75.9314 50.6689 75.7418 50.9082 75.7418H54.6521C54.905 75.7418 55.1082 75.9495 55.1037 76.2069L55.0269 78.9166H55.0224ZM62.1714 78.9031C62.1714 79.1514 61.9682 79.3547 61.7198 79.3547H58.1566C57.9037 79.3547 57.7005 79.1469 57.705 78.8895L57.7818 76.1798C57.7908 75.936 57.9895 75.7418 58.2334 75.7418H61.7198C61.9682 75.7418 62.1714 75.945 62.1714 76.1934V78.9031ZM69.605 78.8895C69.614 79.1469 69.4108 79.3547 69.1534 79.3547H65.2921C65.0437 79.3547 64.8405 79.1514 64.8405 78.9031V76.1934C64.8405 75.945 65.0437 75.7418 65.2966 75.7418H69.0631C69.3069 75.7418 69.5056 75.936 69.5147 76.1798L69.6095 78.8895H69.605ZM76.885 78.876C76.9031 79.1379 76.6953 79.3547 76.4334 79.3547H72.7527C72.5089 79.3547 72.3102 79.1605 72.3011 78.9166L72.2063 76.2069C72.1973 75.9495 72.4005 75.7418 72.6579 75.7418H76.2663C76.5056 75.7418 76.7043 75.9269 76.7179 76.1663L76.885 78.876ZM83.9979 78.8669C84.0205 79.1289 83.8127 79.3547 83.5463 79.3547H80.0327C79.7934 79.3547 79.5947 79.1695 79.5811 78.9301L79.414 76.2205C79.396 75.9585 79.6037 75.7418 79.8656 75.7418H83.316C83.5508 75.7418 83.745 75.9224 83.7676 76.1572L83.9979 78.8669Z" fill="white"/>
</mask>
<g mask="url(#mask2_196_1996)">
<path d="M18.4861 72.1291H107.914L112.408 98.7742H13.988L18.4816 72.1291H18.4861Z" fill="black"/>
<path d="M111.068 95.1614H16.9243V91.4762H111.068V95.1614ZM111.068 85.5646H16.9243V89.2498H111.068V85.5646ZM109.175 80.1994H18.4463V83.8846H109.175V80.1994ZM109.175 74.6852H18.4463V78.3704H109.175V74.6852Z" fill="#3D3D3D"/>
</g>
<path d="M18.9386 64.4516H108.358V11.1613H18.9386V64.4516ZM111.519 65.3548V65.4723C111.456 66.6284 110.53 67.5542 109.379 67.6129H109.261H18.0354H17.918C16.7619 67.5497 15.8361 66.6239 15.7773 65.4723V65.3548V10.2581C15.7773 9.01161 16.789 8 18.0354 8H109.261C110.508 8 111.519 9.01161 111.519 10.2581V65.3548Z" fill="black"/>
<mask id="mask3_196_1996" style="mask-type:luminance" maskUnits="userSpaceOnUse" x="15" y="8" width="97" height="60">
<path d="M109.261 66.7097V67.6129H18.0354V66.7097H109.261ZM110.616 65.3548V10.2581C110.616 9.50839 110.011 8.90323 109.261 8.90323H18.0354C17.3083 8.90323 16.7167 9.47226 16.6806 10.1903V10.2581V65.3548C16.6806 66.1045 17.2857 66.7097 18.0354 66.7097V67.6129H17.918C16.7619 67.5497 15.8361 66.6239 15.7773 65.4723V65.3548V10.2581C15.7773 9.01161 16.789 8 18.0354 8H109.261C110.508 8 111.519 9.01161 111.519 10.2581V65.4723C111.456 66.6284 110.53 67.5542 109.379 67.6129H109.261V66.7142C110.011 66.7142 110.616 66.109 110.616 65.3594V65.3548Z" fill="white"/>
</mask>
<g mask="url(#mask3_196_1996)">
<path d="M15.3247 7.54834H111.97V68.5161H15.3247V7.54834Z" fill="url(#paint4_linear_196_1996)"/>
<path d="M16.228 10.2581C16.228 9.26005 17.0364 8.45166 18.0345 8.45166H109.26C110.258 8.45166 111.067 9.26005 111.067 10.2581V65.3549C111.067 66.353 110.258 67.1613 109.26 67.1613H18.0345C17.0364 67.1613 16.228 66.353 16.228 65.3549V10.2581Z" fill="url(#paint5_linear_196_1996)"/>
</g>
<path d="M34.7163 82.367L34.6576 83.2025L34.3188 83.1889L34.3776 82.3535L34.7163 82.367Z" fill="white"/>
<path d="M22.4736 87.8725C22.5188 87.9086 22.5369 87.9493 22.5323 87.9989C22.5278 88.0486 22.4962 88.0893 22.442 88.1209C22.3878 88.157 22.3156 88.1841 22.2252 88.2022C22.1304 88.2202 22.022 88.2338 21.9001 88.2338H21.5975L21.5704 88.4776H21.2317L21.3085 87.7641H21.9588C22.0807 87.7641 22.1846 87.7731 22.2704 87.7912C22.3562 87.8093 22.4285 87.8364 22.4736 87.8725ZM22.1123 88.0802C22.1665 88.0577 22.1936 88.0306 22.1981 87.9989C22.1981 87.9628 22.1801 87.9357 22.1304 87.9177C22.0807 87.8996 22.0085 87.886 21.9181 87.886H21.6336L21.611 88.1073H21.8956C21.9859 88.1073 22.0581 88.0983 22.1123 88.0757" fill="#FCFCFC"/>
<path d="M29.7993 87.7641L30.2916 88.4776H29.9167L29.8219 88.3241H29.2077L29.0677 88.4776H28.7019L29.3567 87.7641H29.7948H29.7993ZM29.3161 88.2067H29.7496L29.7 88.1344C29.6819 88.0983 29.6593 88.0622 29.6367 88.0215C29.6187 87.9809 29.5916 87.9402 29.569 87.8996C29.5374 87.9447 29.5013 87.9854 29.4742 88.0215C29.4426 88.0577 29.4155 88.0938 29.3793 88.1344L29.3161 88.2067Z" fill="#FCFCFC"/>
<path d="M37.5171 88.2022L37.8152 88.4776H37.4539L37.1874 88.2293H36.8848L36.8578 88.4776H36.519L36.5958 87.7641H37.2552C37.3771 87.7641 37.4855 87.7731 37.5713 87.7912C37.6571 87.8093 37.7248 87.8364 37.77 87.8725C37.8152 87.9086 37.8332 87.9493 37.8287 87.9989C37.8242 88.0486 37.7926 88.0893 37.7384 88.1209C37.6797 88.157 37.6119 88.1841 37.5126 88.2022H37.5171ZM37.4132 88.0802C37.4674 88.0577 37.4945 88.0306 37.499 87.9989C37.499 87.9628 37.481 87.9357 37.4313 87.9177C37.3816 87.8951 37.3139 87.886 37.2236 87.886H36.9255L36.9029 88.1073H37.201C37.2913 88.1073 37.3636 88.0983 37.4132 88.0757" fill="#FCFCFC"/>
<path d="M45.6741 87.7641L45.6605 87.8906H45.1637L45.1005 88.4776H44.7573L44.825 87.8906H44.3237L44.3373 87.7641H45.6741Z" fill="#FCFCFC"/>
<path d="M53.5269 87.9263C53.5902 87.9805 53.6263 88.0482 53.6263 88.1295C53.6263 88.2108 53.5902 88.2695 53.5224 88.3282C53.4547 88.387 53.3599 88.4276 53.2469 88.4592C53.1295 88.4863 52.9986 88.5044 52.8495 88.5044C52.7005 88.5044 52.5695 88.4863 52.4566 88.4592C52.3392 88.4276 52.2444 88.387 52.1811 88.3282C52.1134 88.2741 52.0818 88.2063 52.0818 88.1295C52.0818 88.0528 52.1134 87.985 52.1857 87.9308C52.2489 87.8766 52.3437 87.8315 52.4611 87.8044C52.574 87.7728 52.7095 87.7592 52.854 87.7592C52.9986 87.7592 53.134 87.7728 53.2515 87.8044C53.3644 87.836 53.4592 87.8766 53.5269 87.9353V87.9263ZM53.1657 88.3012C53.2469 88.2605 53.2876 88.1973 53.2876 88.125C53.2876 88.0528 53.2469 87.985 53.1657 87.9444C53.0844 87.8992 52.9805 87.8812 52.854 87.8812C52.7276 87.8812 52.6282 87.9037 52.5469 87.9444C52.4657 87.985 52.425 88.0437 52.425 88.125C52.425 88.2063 52.4657 88.2605 52.5469 88.3012C52.6282 88.3418 52.7276 88.3644 52.854 88.3644C52.9805 88.3644 53.0844 88.3418 53.1657 88.3012Z" fill="#FDFDFD"/>
<path d="M60.7217 87.7592V87.8902L59.9178 87.8857V88.0663H60.6675L60.663 88.1928H59.9178V88.4818H59.5791V87.7592H60.7217Z" fill="#FDFDFD"/>
<path d="M42.0698 82.3311C42.2549 82.3356 42.4039 82.3672 42.5123 82.4169C42.6252 82.4711 42.6794 82.5388 42.6794 82.6247L42.3633 82.6156C42.3633 82.575 42.3317 82.5388 42.2775 82.5163C42.2233 82.4892 42.151 82.4801 42.0652 82.4756C41.9794 82.4711 41.9162 82.4801 41.862 82.4982C41.8033 82.5163 41.7807 82.5388 41.7762 82.5705C41.7762 82.5976 41.7943 82.6201 41.8394 82.6382C41.8846 82.6563 41.9568 82.6698 42.0562 82.6879L42.2098 82.7105C42.3859 82.733 42.5123 82.7692 42.5936 82.8098C42.6749 82.8505 42.711 82.9046 42.711 82.9724C42.711 83.0537 42.6478 83.1169 42.5304 83.1621C42.413 83.2072 42.2504 83.2253 42.0517 83.2163C41.8394 83.2118 41.6768 83.1801 41.5639 83.1259C41.4465 83.0672 41.3878 82.995 41.3923 82.9001L41.722 82.9092C41.722 82.9543 41.7491 82.995 41.8123 83.0221C41.871 83.0537 41.9523 83.0672 42.0607 83.0717C42.1556 83.0717 42.2323 83.0672 42.291 83.0492C42.3498 83.0311 42.3768 83.004 42.3814 82.9724C42.3814 82.9453 42.3588 82.9227 42.3136 82.9047C42.2685 82.8866 42.1917 82.8685 42.0923 82.855L41.9162 82.8279C41.5956 82.7827 41.4375 82.6969 41.442 82.575C41.442 82.5208 41.4736 82.4801 41.5278 82.4395C41.5775 82.3988 41.6543 82.3717 41.7446 82.3537C41.8394 82.3311 41.9478 82.3266 42.0743 82.3311H42.0698Z" fill="white"/>
<path d="M50.2429 82.5612C50.3107 82.6289 50.3423 82.7102 50.3378 82.8005C50.3333 82.8908 50.2926 82.9676 50.2249 83.0308C50.1571 83.0941 50.0623 83.1437 49.9449 83.1753C49.832 83.207 49.6965 83.2205 49.5475 83.216C49.3984 83.2115 49.2675 83.1889 49.15 83.1528C49.0371 83.1121 48.9468 83.0579 48.8791 82.9902C48.8159 82.9224 48.7842 82.8412 48.7888 82.7508C48.7933 82.6605 48.8339 82.5837 48.9017 82.5205C48.9739 82.4528 49.0688 82.4076 49.1817 82.376C49.2991 82.3444 49.4346 82.3263 49.5836 82.3308C49.7326 82.3353 49.8636 82.3579 49.9765 82.3986C50.0939 82.4347 50.1842 82.4889 50.2475 82.5612H50.2429ZM49.8681 82.9947C49.9494 82.9495 49.99 82.8773 49.9946 82.787C49.9991 82.6966 49.9584 82.6244 49.8862 82.5702C49.8049 82.5205 49.701 82.4889 49.5746 82.4889C49.4481 82.4889 49.3442 82.507 49.2584 82.5521C49.1771 82.6018 49.132 82.6695 49.1275 82.7599C49.1229 82.8502 49.1636 82.9224 49.2404 82.9721C49.3217 83.0263 49.4255 83.0534 49.552 83.0579C49.6784 83.0624 49.7823 83.0399 49.8681 82.9902" fill="white"/>
<path d="M57.8131 82.34L57.2847 83.2116H56.8556L56.2415 82.34H56.6118L56.8918 82.7645C56.9189 82.8096 56.946 82.8503 56.9731 82.9C57.0047 82.9496 57.0318 82.9948 57.0634 83.049C57.0905 82.9948 57.1131 82.9451 57.1402 82.9C57.1627 82.8548 57.1853 82.8096 57.2079 82.7645L57.4473 82.3445H57.8131V82.34Z" fill="white"/>
<path d="M64.3878 82.3401L65.0336 83.2163H64.6543L64.5278 83.0221H63.9136L63.8098 83.2072H63.4395L63.9453 82.3356H64.3833L64.3878 82.3401ZM63.9949 82.8776H64.4285L64.3698 82.7872C64.3382 82.7421 64.3111 82.6969 64.284 82.6518C64.2524 82.6066 64.2253 82.5569 64.1891 82.5027C64.1665 82.5569 64.1395 82.6066 64.1214 82.6518C64.0988 82.6969 64.0762 82.7421 64.0491 82.7872L63.9995 82.8776" fill="white"/>
<path d="M71.4609 82.3401L71.5151 83.0537L72.2603 83.0627L72.2738 83.2163L71.1854 83.2072L71.1177 82.3356L71.4609 82.3401Z" fill="white"/>
<path d="M67.6123 87.6735C67.7388 87.6735 67.8562 87.6871 67.9601 87.7142C68.064 87.7413 68.1498 87.7819 68.222 87.8271C68.2943 87.8722 68.3349 87.9355 68.362 87.9987H68.0188C67.9962 87.9445 67.951 87.9039 67.8788 87.8768C67.811 87.8497 67.7298 87.8316 67.6304 87.8316C67.4904 87.8316 67.3865 87.8587 67.3098 87.9084C67.2375 87.9581 67.2059 88.0303 67.2149 88.1206C67.224 88.211 67.2646 88.2787 67.3459 88.3329C67.4317 88.3871 67.5401 88.4097 67.6801 88.4142C67.7794 88.4142 67.8562 88.4006 67.9194 88.3735C67.9827 88.3464 68.0233 88.3058 68.0414 88.2516H68.3846C68.3711 88.3193 68.3349 88.3781 68.2717 88.4232C68.2085 88.4684 68.1272 88.5045 68.0278 88.5316C67.9285 88.5587 67.8111 88.5677 67.6846 88.5677C67.5356 88.5677 67.4001 88.5451 67.2781 88.5135C67.1562 88.4774 67.0614 88.4232 66.9846 88.3555C66.9123 88.2877 66.8762 88.2064 66.8672 88.1161C66.8581 88.0258 66.8852 87.94 66.944 87.8768C67.0072 87.809 67.0975 87.7593 67.2104 87.7232C67.3233 87.6871 67.4588 87.669 67.6078 87.6735H67.6123Z" fill="white"/>
<path d="M75.0769 87.6873L75.1446 88.5589L74.8014 88.5543L74.7336 87.6827L75.0769 87.6873Z" fill="white"/>
<path d="M79.6217 82.3447L79.6352 82.4982L78.7998 82.4937L78.8178 82.6969L79.5901 82.7014L79.6036 82.8505L78.8269 82.846L78.8449 83.0537L79.6804 83.0627L79.694 83.2163L78.5152 83.2072L78.4475 82.3356L79.6217 82.3447Z" fill="white"/>
<path d="M87.412 82.3445L87.4797 83.2161H87.1229L86.6126 82.8096C86.5855 82.7871 86.5539 82.76 86.5133 82.7238C86.4726 82.6877 86.4275 82.6471 86.3733 82.6019C86.3823 82.6471 86.3868 82.6877 86.3913 82.7238V82.8051L86.4275 83.2116H86.0887L86.021 82.34H86.3778L86.9423 82.7916C86.9604 82.8096 86.992 82.8322 87.0236 82.8638C87.0552 82.8955 87.0913 82.9225 87.1229 82.9542C87.1229 82.9225 87.1184 82.8864 87.1094 82.8548V82.778L87.0687 82.3445H87.4075H87.412Z" fill="white"/>
<path d="M82.5112 87.6238C82.6963 87.6238 82.8499 87.6509 82.9628 87.7006C83.0802 87.7503 83.1434 87.8226 83.1525 87.9084H82.8363C82.8273 87.8632 82.7957 87.8316 82.7415 87.8045C82.6828 87.7819 82.615 87.7684 82.5247 87.7684C82.4434 87.7684 82.3757 87.7774 82.326 87.7955C82.2718 87.8135 82.2492 87.8406 82.2492 87.8722C82.2492 87.8993 82.2718 87.9219 82.3215 87.9355C82.3667 87.9535 82.4434 87.9671 82.5428 87.9806L82.6963 87.9987C82.8725 88.0213 83.0034 88.0484 83.0892 88.089C83.175 88.1296 83.2202 88.1838 83.2247 88.2516C83.2292 88.3329 83.1796 88.4006 83.0667 88.4503C82.9583 88.4955 82.7957 88.518 82.597 88.518C82.3847 88.518 82.2221 88.4909 82.1002 88.4367C81.9783 88.3826 81.9105 88.3103 81.906 88.2155H82.2357C82.2447 88.2651 82.2763 88.3058 82.3396 88.3284C82.4028 88.3555 82.4841 88.369 82.5925 88.369C82.6873 88.369 82.7641 88.36 82.8183 88.3419C82.8725 88.3193 82.8996 88.2967 82.895 88.2606C82.895 88.2335 82.8679 88.2109 82.8228 88.1929C82.7776 88.1748 82.6963 88.1613 82.597 88.1477L82.4209 88.1251C82.0957 88.0845 81.9286 88.0077 81.9196 87.8813C81.9196 87.8316 81.9421 87.7819 81.9918 87.7458C82.037 87.7051 82.1092 87.6735 82.1996 87.6555C82.2899 87.6329 82.3983 87.6238 82.5247 87.6238H82.5112Z" fill="white"/>
<path d="M90.148 87.66C90.2745 87.66 90.3919 87.6691 90.5003 87.6917C90.6042 87.7142 90.699 87.7549 90.7713 87.8C90.8435 87.8452 90.8932 87.9039 90.9248 87.9716L90.5816 87.9807C90.5545 87.9265 90.5048 87.8858 90.4325 87.8587C90.3648 87.8316 90.279 87.8181 90.1842 87.8181C90.0442 87.8181 89.9403 87.8542 89.868 87.9084C89.8003 87.9626 89.7732 88.0349 89.7867 88.1297C89.8003 88.2245 89.85 88.2923 89.9313 88.342C90.0216 88.3916 90.13 88.4187 90.27 88.4142C90.3693 88.4142 90.4461 88.3962 90.5048 88.3691C90.5635 88.3375 90.6042 88.2968 90.6132 88.2426L90.9564 88.2336C90.9474 88.3013 90.9158 88.36 90.8571 88.4097C90.7984 88.4594 90.7216 88.5 90.6222 88.5317C90.5229 88.5587 90.41 88.5768 90.2835 88.5768C90.1345 88.5768 89.999 88.5633 89.8726 88.5317C89.7506 88.4955 89.6467 88.4458 89.57 88.3781C89.4932 88.3104 89.448 88.2291 89.4345 88.1387C89.4209 88.0484 89.439 87.9581 89.4932 87.8904C89.5519 87.8181 89.6377 87.7639 89.7461 87.7233C89.8545 87.6826 89.99 87.6646 90.139 87.66H90.148Z" fill="white"/>
<path d="M98.5117 87.863C98.593 87.9308 98.6381 88.0121 98.6517 88.1069C98.6652 88.2017 98.6472 88.283 98.5885 88.3508C98.5298 88.423 98.4485 88.4772 98.3401 88.5179C98.2272 88.554 98.1007 88.5766 97.9517 88.5811C97.8027 88.5856 97.6717 88.5676 97.5498 88.5359C97.4278 88.4998 97.3285 88.4501 97.2517 88.3824C97.1704 88.3146 97.1252 88.2334 97.1117 88.143C97.0981 88.0527 97.1162 87.9624 97.1749 87.8946C97.2336 87.8224 97.3149 87.7682 97.4278 87.7275C97.5407 87.6869 97.6672 87.6688 97.8117 87.6643C97.9562 87.6598 98.0917 87.6779 98.2181 87.7095C98.3446 87.7411 98.4394 87.7953 98.5162 87.863H98.5117ZM98.2227 88.3372C98.2949 88.283 98.3265 88.2063 98.3085 88.1159C98.2904 88.0256 98.2407 87.9443 98.1549 87.8992C98.0646 87.8495 97.9607 87.8224 97.8298 87.8269C97.6988 87.8314 97.6085 87.8585 97.5362 87.9127C97.4639 87.9669 97.4323 88.0392 97.4504 88.1385C97.4685 88.2379 97.5181 88.3056 97.6039 88.3553C97.6898 88.405 97.7981 88.4275 97.9246 88.4275C98.051 88.4275 98.1504 88.3959 98.2227 88.3417" fill="white"/>
<path d="M95.1018 82.3221L95.1199 82.4801L94.6231 82.4847L94.7089 83.2208L94.3702 83.2253L94.2844 82.4892L93.7876 82.4937L93.7695 82.3356L95.1018 82.3221Z" fill="white"/>
<defs>
<linearGradient id="paint0_linear_196_1996" x1="63.6472" y1="68.0647" x2="63.6472" y2="117.742" gradientUnits="userSpaceOnUse">
<stop stop-color="#EEEEEE"/>
<stop offset="1" stop-color="#CACACA"/>
</linearGradient>
<linearGradient id="paint1_linear_196_1996" x1="63.6474" y1="101.032" x2="63.6474" y2="116.387" gradientUnits="userSpaceOnUse">
<stop stop-color="#ADADAD"/>
<stop offset="1" stop-color="#BCBCBC"/>
</linearGradient>
<linearGradient id="paint2_linear_196_1996" x1="89.2772" y1="-1.03241" x2="89.2772" y2="72.1289" gradientUnits="userSpaceOnUse">
<stop stop-color="#41494C"/>
<stop offset="1" stop-color="#54595C"/>
</linearGradient>
<linearGradient id="paint3_linear_196_1996" x1="63.2273" y1="73.4389" x2="63.6789" y2="98.2776" gradientUnits="userSpaceOnUse">
<stop stop-color="#B5B5B5"/>
<stop offset="1" stop-color="#BFBFBF"/>
</linearGradient>
<linearGradient id="paint4_linear_196_1996" x1="63.6473" y1="7.54834" x2="63.6473" y2="68.5161" gradientUnits="userSpaceOnUse">
<stop stop-color="#7F7F7F"/>
<stop offset="1" stop-color="#5D5D5D"/>
</linearGradient>
<linearGradient id="paint5_linear_196_1996" x1="63.6474" y1="8.45166" x2="63.6474" y2="67.1613" gradientUnits="userSpaceOnUse">
<stop stop-color="#7E7E7E"/>
<stop offset="1" stop-color="#999999"/>
</linearGradient>
</defs>
</svg>
