<svg width="128" height="128" viewBox="0 0 128 128" fill="none" xmlns="http://www.w3.org/2000/svg">
<path d="M86.6477 46.5645C86.6477 34.0634 76.5136 23.9293 64.0125 23.9293C51.5114 23.9293 41.3773 34.0634 41.3773 46.5645V104.023H27.448V46.5645C27.448 26.3705 43.8185 10 64.0125 10C84.2065 10 100.577 26.3705 100.577 46.5645V51.788H86.6477V46.5645Z" fill="#236BFE"/>
<rect x="15" y="61" width="98" height="58" rx="10" fill="url(#paint0_linear_198_3988)"/>
<path d="M63.7539 76.6471C68.5619 76.6472 72.46 80.5451 72.46 85.3531C72.4599 88.9228 70.3098 91.9882 67.2354 93.3317V103.882C67.2353 104.435 66.7876 104.882 66.2354 104.882H61.2705C60.7185 104.882 60.2706 104.435 60.2705 103.882V93.3317C57.1967 91.9879 55.0479 88.9223 55.0479 85.3531C55.0479 80.5451 58.9458 76.6471 63.7539 76.6471Z" fill="white"/>
<defs>
<linearGradient id="paint0_linear_198_3988" x1="64" y1="61" x2="64" y2="119" gradientUnits="userSpaceOnUse">
<stop stop-color="#A1C6FF"/>
<stop offset="1" stop-color="#3477FF"/>
</linearGradient>
</defs>
</svg>
