<svg width="128" height="128" viewBox="0 0 128 128" fill="none" xmlns="http://www.w3.org/2000/svg">
<path d="M69.1162 20L43.4811 24.835V65.4514C43.4811 82.859 51.7931 97.364 69.1162 108C87.4098 99.4876 93.8252 76.0874 94.7513 65.4514V24.835L69.1162 20Z" fill="url(#paint0_linear_72_1364)"/>
<path fill-rule="evenodd" clip-rule="evenodd" d="M47.7729 28.3922V65.4469C47.7729 80.5217 54.5445 93.2636 69.3433 103.054C76.2084 99.1671 81.1546 92.6937 84.5827 85.6416C88.2913 78.0107 90.0098 70.1216 90.455 65.251V28.3877L69.1117 24.363L47.7729 28.3877V28.3922ZM69.1162 20L43.4811 24.835V65.4514C43.4811 82.859 51.7931 97.364 69.1162 108C87.4098 99.4876 93.8252 76.0874 94.7513 65.4514V24.835L69.1162 20Z" fill="url(#paint1_linear_72_1364)"/>
<path fill-rule="evenodd" clip-rule="evenodd" d="M68.9302 51.3735C69.4065 51.191 69.8829 51.0129 70.3682 50.8259C57.0787 44.3169 43.8382 37.8392 30.5621 31.3391C26.297 29.2511 22.0275 27.163 17.7535 25.0706C18.5771 29.4781 19.3785 33.7388 20.1843 38.0217C17.8603 38.9432 15.5675 39.8515 13.2569 40.7642C11.9524 41.2806 10.6435 41.8015 9.31678 42.3224C9.40582 42.3758 9.47705 42.4114 9.53047 42.4426C9.60616 42.4871 9.65514 42.5138 9.70411 42.5361C11.8767 43.6536 14.0538 44.7755 16.2264 45.893C22.0141 48.8714 27.7974 51.8499 33.5851 54.815C37.2491 56.6982 40.9221 58.5592 44.6084 60.4068C44.8444 60.5225 45.1961 60.5537 45.4365 60.4647C48.5752 59.2938 51.7006 58.1095 54.8259 56.8985C57.1232 56.0081 59.4205 55.0999 61.7134 54.1917C63.0045 53.6797 64.3 53.1677 65.5956 52.6601C66.6997 52.2283 67.8038 51.8054 68.9346 51.3735H68.9302ZM6 90.1423L37.5697 102.332L33.3625 90.592C42.516 86.5539 51.8876 82.9789 61.2414 79.4127C64.6339 78.1216 68.022 76.8261 71.4011 75.5127C71.9665 75.2901 72.2025 75.0141 72.2381 74.3952C72.4518 70.4062 72.6744 66.4171 72.9014 62.4236C73.035 60.0283 73.173 57.6376 73.3021 55.2424C73.3199 54.9129 73.3154 54.5879 73.3065 54.2184C73.3065 54.018 73.3021 53.8088 73.3021 53.5817C73.0082 53.7197 72.7278 53.8622 72.4562 54.0002C71.9042 54.2807 71.3788 54.5434 70.8312 54.7526C67.8305 55.9102 64.8254 57.0633 61.8202 58.2119C57.8935 59.7167 53.9667 61.2171 50.0489 62.7397C42.2355 65.7715 26.6354 71.9021 26.6354 71.9021L21.8093 60.4691L6 90.1468V90.1423Z" fill="url(#paint2_linear_72_1364)"/>
<path fill-rule="evenodd" clip-rule="evenodd" d="M70.8312 54.7526C71.134 54.6369 71.4278 54.5078 71.7261 54.3653C71.8151 54.3252 71.8997 54.2807 71.9887 54.2406C72.1446 54.165 72.3004 54.0848 72.4607 54.0047C72.7323 53.8667 73.0127 53.7242 73.3065 53.5862C73.3065 53.8132 73.3065 54.0225 73.311 54.2228C73.311 54.2495 73.311 54.2762 73.311 54.303C73.3155 54.6369 73.3199 54.9441 73.3021 55.2468C73.2932 55.3759 73.2888 55.5095 73.2799 55.6386C73.2264 56.5735 73.1775 57.5129 73.1241 58.4478C73.0484 59.7701 72.9727 61.0968 72.9015 62.4236C72.6744 66.4171 72.4518 70.4062 72.2381 74.3952C72.2025 75.0141 71.9665 75.2901 71.4011 75.5127C68.022 76.8261 64.6339 78.1216 61.2414 79.4127C51.8831 82.9833 42.5115 86.5539 33.3625 90.592L37.5697 102.332L6 90.1423L21.8093 60.4647L26.6354 71.8976L28.207 75.8911L24.3114 77.4226L21.3641 70.4373L12.0726 87.8806L30.3662 94.9416L27.9755 88.2724L31.6306 86.6607C40.882 82.5782 50.3383 78.972 59.6654 75.4148L59.7144 75.397C62.5058 74.3329 65.2884 73.2733 68.0576 72.2004C68.2401 68.8568 68.4271 65.5133 68.6141 62.1787V62.1698C68.6542 61.4976 68.6898 60.8297 68.7299 60.153C66.9357 60.8431 65.1459 61.5287 63.3562 62.2143C59.4294 63.7191 55.5116 65.2195 51.6026 66.7332C47.7026 68.2469 41.8571 70.5353 36.982 72.4452C34.5467 73.398 32.3519 74.2617 30.7669 74.8805L28.207 75.8867L26.6354 71.8932C26.6354 71.8932 36.7283 67.9264 44.742 64.7965C45.4232 64.5294 46.091 64.2712 46.7321 64.0219C46.741 64.0219 46.7455 64.0174 46.7544 64.013C47.9475 63.5455 49.0605 63.1136 50.0489 62.7308C52.0879 61.9383 54.127 61.1547 56.1705 60.3712C58.0537 59.6499 59.937 58.9287 61.8202 58.2074C62.2476 58.0427 62.675 57.8825 63.1024 57.7177C64.398 57.2235 65.6935 56.7249 66.9846 56.2307C66.9846 56.2307 66.9891 56.2307 66.9935 56.2307C67.6613 55.9769 68.3247 55.7187 68.9925 55.465C69.3175 55.3403 69.6425 55.2156 69.9675 55.091C69.9897 55.0821 70.012 55.0732 70.0343 55.0643C70.1233 55.0287 70.2123 54.9975 70.3014 54.9619C70.4795 54.8951 70.6576 54.8239 70.8312 54.7571V54.7526ZM9.31232 42.3224C9.40136 42.3758 9.47259 42.4114 9.52601 42.4426C9.6017 42.4871 9.65068 42.5138 9.69965 42.5361C11.2534 43.3375 12.8117 44.1344 14.3655 44.9358C14.9843 45.2519 15.6031 45.5724 16.2175 45.8885H16.222C22.0052 48.867 27.7929 51.8454 33.5806 54.815C37.1868 56.667 40.7974 58.4968 44.4214 60.3133C44.4838 60.3444 44.5417 60.3756 44.604 60.4068C44.8399 60.5225 45.1917 60.5537 45.4321 60.4647C46.5228 60.0595 47.6092 59.6499 48.6955 59.2403C50.739 58.4701 52.7825 57.691 54.8215 56.8985C56.7048 56.1684 58.588 55.4249 60.4712 54.6814C60.8853 54.5167 61.2949 54.3564 61.7089 54.1917C62.773 53.7687 63.8414 53.3458 64.9055 52.9273C65.1325 52.8382 65.3641 52.7447 65.5911 52.6557C66.6952 52.2238 67.7993 51.8009 68.9302 51.369H68.9346C69.1083 51.3023 69.2775 51.2355 69.4511 51.1687C69.4555 51.1687 69.4599 51.1687 69.4644 51.1642C69.7627 51.0485 70.0654 50.9327 70.3682 50.817C70.1723 50.719 69.972 50.6211 69.7761 50.5276C69.2997 50.2916 68.8233 50.0601 68.347 49.8286C67.2651 49.2988 66.1833 48.769 65.1058 48.2437C53.5928 42.6073 42.1064 36.9843 30.5933 31.3524L17.758 25.0706C18.0874 26.8425 18.4169 28.5966 18.7419 30.3329C19.2271 32.9107 19.7035 35.4617 20.1888 38.0217C18.3145 38.7652 16.4624 39.4998 14.6014 40.2344C14.1562 40.4125 13.7065 40.5861 13.2613 40.7642C12.1617 41.2005 11.0576 41.6368 9.94454 42.0775C9.94454 42.0775 9.94008 42.0775 9.93563 42.082C9.85549 42.1131 9.77093 42.1443 9.69079 42.1799C9.57059 42.2289 9.4459 42.2779 9.32569 42.3269L9.31232 42.3224ZM19.6634 42.8433C24.9569 45.568 30.2416 48.2882 35.5351 51.004C38.7718 52.6691 42.0129 54.3119 45.2673 55.9502C47.943 54.9485 50.6054 53.9379 53.2633 52.905C55.4003 52.0769 57.5373 51.231 59.6832 50.3807C49.3633 45.3275 39.0567 40.2833 28.7323 35.2302L23.5368 32.6881C23.8217 34.2018 24.1066 35.7155 24.3915 37.2292L25.046 40.7107L21.7559 42.0152C21.0525 42.2912 20.3535 42.5717 19.659 42.8477L19.6634 42.8433Z" fill="url(#paint3_linear_72_1364)"/>
<path fill-rule="evenodd" clip-rule="evenodd" d="M105.468 33.0177C106.652 32.9553 107.663 33.8636 107.73 35.0478C108.496 49.1654 108.113 61.2439 106.862 70.8426C105.619 80.3656 103.483 87.7027 100.553 92.1325C99.8986 93.1209 98.5674 93.3924 97.579 92.738C96.5907 92.0835 96.3191 90.7523 96.9736 89.764C99.351 86.1711 101.386 79.6355 102.605 70.2861C103.816 61.0124 104.195 49.2099 103.442 35.2793C103.38 34.0951 104.288 33.0845 105.468 33.0177Z" fill="url(#paint4_linear_72_1364)"/>
<path fill-rule="evenodd" clip-rule="evenodd" d="M119.123 25.4356C120.307 25.3733 121.318 26.277 121.385 27.4613C122.146 41.5566 122.15 57.2324 120.423 71.3322C118.709 85.3429 115.241 98.1694 108.785 106.241C108.046 107.167 106.693 107.318 105.771 106.575C104.845 105.831 104.694 104.482 105.437 103.556C111.109 96.4642 114.471 84.6573 116.162 70.8068C117.85 57.0454 117.854 41.6412 117.097 27.6884C117.035 26.5041 117.943 25.4935 119.123 25.4312V25.4356Z" fill="url(#paint5_linear_72_1364)"/>
<defs>
<linearGradient id="paint0_linear_72_1364" x1="69.1162" y1="20" x2="69.1162" y2="108" gradientUnits="userSpaceOnUse">
<stop stop-color="#FFE0A6"/>
<stop offset="1" stop-color="#FFEDC9"/>
</linearGradient>
<linearGradient id="paint1_linear_72_1364" x1="79.2847" y1="112.243" x2="62.3757" y2="4.02146" gradientUnits="userSpaceOnUse">
<stop stop-color="#EA9523"/>
<stop offset="1" stop-color="#FCD037"/>
</linearGradient>
<linearGradient id="paint2_linear_72_1364" x1="39.6577" y1="25.075" x2="39.6577" y2="102.332" gradientUnits="userSpaceOnUse">
<stop stop-color="#FFE0A6"/>
<stop offset="1" stop-color="#FFEDC9"/>
</linearGradient>
<linearGradient id="paint3_linear_72_1364" x1="43.3307" y1="107.069" x2="33.269" y2="10.7883" gradientUnits="userSpaceOnUse">
<stop stop-color="#F09726"/>
<stop offset="1" stop-color="#FCD037"/>
</linearGradient>
<linearGradient id="paint4_linear_72_1364" x1="102.369" y1="94.2918" x2="102.369" y2="31.3704" gradientUnits="userSpaceOnUse">
<stop stop-color="#F3A228"/>
<stop offset="1" stop-color="#F8BF2E"/>
</linearGradient>
<linearGradient id="paint5_linear_72_1364" x1="113.415" y1="94.2916" x2="113.415" y2="31.3702" gradientUnits="userSpaceOnUse">
<stop stop-color="#F3A228"/>
<stop offset="1" stop-color="#F8BF2E"/>
</linearGradient>
</defs>
</svg>
