<svg width="128" height="128" viewBox="0 0 128 128" fill="none" xmlns="http://www.w3.org/2000/svg">
<path d="M27.9609 124V112.359H31.4688L33.3906 117.781C33.6094 118.469 33.9766 119.695 34.2578 120.695C34.5391 119.695 34.9062 118.469 35.1172 117.781L37.0156 112.359H40.5234V124H38.1719V118.469C38.1719 117.656 38.2188 116.273 38.25 114.992C37.8516 116.352 37.4453 117.727 37.1953 118.469L35.2266 124H33.2734L31.2812 118.469C31.0391 117.75 30.6484 116.461 30.25 115.156C30.2812 116.391 30.3203 117.695 30.3203 118.469V124H27.9609ZM44.6797 112.359V124H42.2734V112.359H44.6797ZM45.8984 114.422V112.359H55.3594V114.422H51.8359V124H49.4297V114.422H45.8984ZM58.9922 112.359V124H56.5859V112.359H58.9922ZM65.8906 124.188C62.5938 124.188 60.3516 121.781 60.3516 118.188C60.3516 114.469 62.7109 112.172 65.8516 112.172C68.5234 112.172 70.6719 113.82 70.9688 116.258H68.5312C68.2734 115.07 67.3125 114.297 65.9219 114.297C63.9609 114.297 62.7734 115.789 62.7734 118.188C62.7734 120.578 63.9688 122.062 65.9531 122.062C67.5547 122.062 68.6719 121.086 68.6953 119.641H66.1562V117.812H71.0469V119.297C71.0469 122.188 68.9062 124.188 65.8906 124.188ZM71.2109 124L75.2969 112.359H78.3906L82.4766 124H79.8125L79 121.461H74.6484L73.8047 124H71.2109ZM75.2969 119.539H78.375L77.9844 118.336C77.625 117.148 77.2656 115.961 76.8516 114.516C76.4297 115.961 76.0703 117.148 75.6953 118.336L75.2969 119.539ZM81.3516 114.422V112.359H90.8125V114.422H87.2891V124H84.8828V114.422H81.3516ZM92.0391 124V112.359H100.391V114.422H94.4453V117.117H99.9453V119.125H94.4453V121.938H100.391V124H92.0391Z" fill="black"/>
<path d="M68.1162 5L42.4811 9.83496V50.4514C42.4811 67.859 50.7931 82.364 68.1162 93C86.4098 84.4876 92.8252 61.0874 93.7513 50.4514V9.83496L68.1162 5Z" fill="url(#paint0_linear_72_1444)"/>
<path fill-rule="evenodd" clip-rule="evenodd" d="M46.7729 13.3922V50.4469C46.7729 65.5217 53.5445 78.2636 68.3433 88.0537C75.2084 84.1671 80.1546 77.6937 83.5827 70.6416C87.2913 63.0107 89.0098 55.1216 89.455 50.251V13.3877L68.1117 9.36304L46.7729 13.3877V13.3922ZM68.1162 5L42.4811 9.83496V50.4514C42.4811 67.859 50.7931 82.364 68.1162 93C86.4098 84.4876 92.8252 61.0874 93.7513 50.4514V9.83496L68.1162 5Z" fill="url(#paint1_linear_72_1444)"/>
<path fill-rule="evenodd" clip-rule="evenodd" d="M67.9302 36.3735C68.4065 36.191 68.8829 36.0129 69.3682 35.8259C56.0787 29.3169 42.8382 22.8392 29.5621 16.3391C25.297 14.2511 21.0275 12.163 16.7535 10.0706C17.5771 14.4781 18.3785 18.7388 19.1843 23.0217C16.8603 23.9432 14.5675 24.8515 12.2569 25.7642C10.9524 26.2806 9.6435 26.8015 8.31678 27.3224C8.40582 27.3758 8.47705 27.4114 8.53047 27.4426C8.60616 27.4871 8.65514 27.5138 8.70411 27.5361C10.8767 28.6536 13.0538 29.7755 15.2264 30.893C21.0141 33.8714 26.7974 36.8499 32.5851 39.815C36.2491 41.6982 39.9221 43.5592 43.6084 45.4068C43.8444 45.5225 44.1961 45.5537 44.4365 45.4647C47.5752 44.2938 50.7006 43.1095 53.8259 41.8985C56.1232 41.0081 58.4205 40.0999 60.7134 39.1917C62.0045 38.6797 63.3 38.1677 64.5956 37.6601C65.6997 37.2283 66.8038 36.8054 67.9346 36.3735H67.9302ZM5 75.1423L36.5697 87.3321L32.3625 75.592C41.516 71.5539 50.8876 67.9789 60.2414 64.4127C63.6339 63.1216 67.022 61.8261 70.4011 60.5127C70.9665 60.2901 71.2025 60.0141 71.2381 59.3952C71.4518 55.4062 71.6744 51.4171 71.9014 47.4236C72.035 45.0283 72.173 42.6376 72.3021 40.2424C72.3199 39.9129 72.3154 39.5879 72.3065 39.2184C72.3065 39.018 72.3021 38.8088 72.3021 38.5817C72.0082 38.7197 71.7278 38.8622 71.4562 39.0002C70.9042 39.2807 70.3788 39.5434 69.8312 39.7526C66.8305 40.9102 63.8254 42.0633 60.8202 43.2119C56.8935 44.7167 52.9667 46.2171 49.0489 47.7397C41.2355 50.7715 25.6354 56.9021 25.6354 56.9021L20.8093 45.4691L5 75.1468V75.1423Z" fill="url(#paint2_linear_72_1444)"/>
<path fill-rule="evenodd" clip-rule="evenodd" d="M69.8312 39.7526C70.134 39.6369 70.4278 39.5078 70.7261 39.3653C70.8151 39.3252 70.8997 39.2807 70.9887 39.2406C71.1446 39.165 71.3004 39.0848 71.4607 39.0047C71.7323 38.8667 72.0127 38.7242 72.3065 38.5862C72.3065 38.8132 72.3065 39.0225 72.311 39.2228C72.311 39.2495 72.311 39.2762 72.311 39.303C72.3155 39.6369 72.3199 39.9441 72.3021 40.2468C72.2932 40.3759 72.2888 40.5095 72.2799 40.6386C72.2264 41.5735 72.1775 42.5129 72.1241 43.4478C72.0484 44.7701 71.9727 46.0968 71.9015 47.4236C71.6744 51.4171 71.4518 55.4062 71.2381 59.3952C71.2025 60.0141 70.9665 60.2901 70.4011 60.5127C67.022 61.8261 63.6339 63.1216 60.2414 64.4127C50.8831 67.9833 41.5115 71.5539 32.3625 75.592L36.5697 87.3321L5 75.1423L20.8093 45.4647L25.6354 56.8976L27.207 60.8911L23.3114 62.4226L20.3641 55.4373L11.0726 72.8806L29.3662 79.9416L26.9755 73.2724L30.6306 71.6607C39.882 67.5782 49.3383 63.972 58.6654 60.4148L58.7144 60.397C61.5058 59.3329 64.2884 58.2733 67.0576 57.2004C67.2401 53.8568 67.4271 50.5133 67.6141 47.1787V47.1698C67.6542 46.4976 67.6898 45.8297 67.7299 45.153C65.9357 45.8431 64.1459 46.5287 62.3562 47.2143C58.4294 48.7191 54.5116 50.2195 50.6026 51.7332C46.7026 53.2469 40.8571 55.5353 35.982 57.4452C33.5467 58.398 31.3519 59.2617 29.7669 59.8805L27.207 60.8867L25.6354 56.8932C25.6354 56.8932 35.7283 52.9264 43.742 49.7965C44.4232 49.5294 45.091 49.2712 45.7321 49.0219C45.741 49.0219 45.7455 49.0174 45.7544 49.013C46.9475 48.5455 48.0605 48.1136 49.0489 47.7308C51.0879 46.9383 53.127 46.1547 55.1705 45.3712C57.0537 44.6499 58.937 43.9287 60.8202 43.2074C61.2476 43.0427 61.675 42.8825 62.1024 42.7177C63.398 42.2235 64.6935 41.7249 65.9846 41.2307C65.9846 41.2307 65.9891 41.2307 65.9935 41.2307C66.6613 40.9769 67.3247 40.7187 67.9925 40.465C68.3175 40.3403 68.6425 40.2156 68.9675 40.091C68.9897 40.0821 69.012 40.0732 69.0343 40.0643C69.1233 40.0287 69.2123 39.9975 69.3014 39.9619C69.4795 39.8951 69.6576 39.8239 69.8312 39.7571V39.7526ZM8.31232 27.3224C8.40136 27.3758 8.47259 27.4114 8.52601 27.4426C8.6017 27.4871 8.65068 27.5138 8.69965 27.5361C10.2534 28.3375 11.8117 29.1344 13.3655 29.9358C13.9843 30.2519 14.6031 30.5724 15.2175 30.8885H15.222C21.0052 33.867 26.7929 36.8454 32.5806 39.815C36.1868 41.667 39.7974 43.4968 43.4214 45.3133C43.4838 45.3444 43.5417 45.3756 43.604 45.4068C43.8399 45.5225 44.1917 45.5537 44.4321 45.4647C45.5228 45.0595 46.6092 44.6499 47.6955 44.2403C49.739 43.4701 51.7825 42.691 53.8215 41.8985C55.7048 41.1684 57.588 40.4249 59.4712 39.6814C59.8853 39.5167 60.2949 39.3564 60.7089 39.1917C61.773 38.7687 62.8414 38.3458 63.9055 37.9273C64.1325 37.8382 64.3641 37.7447 64.5911 37.6557C65.6952 37.2238 66.7993 36.8009 67.9302 36.369H67.9346C68.1083 36.3023 68.2775 36.2355 68.4511 36.1687C68.4555 36.1687 68.4599 36.1687 68.4644 36.1642C68.7627 36.0485 69.0654 35.9327 69.3682 35.817C69.1723 35.719 68.972 35.6211 68.7761 35.5276C68.2997 35.2916 67.8233 35.0601 67.347 34.8286C66.2651 34.2988 65.1833 33.769 64.1058 33.2437C52.5928 27.6073 41.1064 21.9843 29.5933 16.3524L16.758 10.0706C17.0874 11.8425 17.4169 13.5966 17.7419 15.3329C18.2271 17.9107 18.7035 20.4617 19.1888 23.0217C17.3145 23.7652 15.4624 24.4998 13.6014 25.2344C13.1562 25.4125 12.7065 25.5861 12.2613 25.7642C11.1617 26.2005 10.0576 26.6368 8.94454 27.0775C8.94454 27.0775 8.94008 27.0775 8.93563 27.082C8.85549 27.1131 8.77093 27.1443 8.69079 27.1799C8.57059 27.2289 8.4459 27.2779 8.32569 27.3269L8.31232 27.3224ZM18.6634 27.8433C23.9569 30.568 29.2416 33.2882 34.5351 36.004C37.7718 37.6691 41.0129 39.3119 44.2673 40.9502C46.943 39.9485 49.6054 38.9379 52.2633 37.905C54.4003 37.0769 56.5373 36.231 58.6832 35.3807C48.3633 30.3275 38.0567 25.2833 27.7323 20.2302L22.5368 17.6881C22.8217 19.2018 23.1066 20.7155 23.3915 22.2292L24.046 25.7107L20.7559 27.0152C20.0525 27.2912 19.3535 27.5717 18.659 27.8477L18.6634 27.8433Z" fill="url(#paint3_linear_72_1444)"/>
<path fill-rule="evenodd" clip-rule="evenodd" d="M104.468 18.0177C105.652 17.9553 106.663 18.8636 106.73 20.0478C107.496 34.1654 107.113 46.2439 105.862 55.8426C104.619 65.3656 102.483 72.7027 99.553 77.1325C98.8986 78.1209 97.5674 78.3924 96.579 77.738C95.5907 77.0835 95.3191 75.7523 95.9736 74.764C98.351 71.1711 100.386 64.6355 101.605 55.2861C102.816 46.0124 103.195 34.2099 102.442 20.2793C102.38 19.0951 103.288 18.0845 104.468 18.0177Z" fill="url(#paint4_linear_72_1444)"/>
<path fill-rule="evenodd" clip-rule="evenodd" d="M118.123 10.4356C119.307 10.3733 120.318 11.277 120.385 12.4613C121.146 26.5566 121.15 42.2324 119.423 56.3322C117.709 70.3429 114.241 83.1694 107.785 91.241C107.046 92.167 105.693 92.3184 104.771 91.5749C103.845 90.8314 103.694 89.4825 104.437 88.5564C110.109 81.4642 113.471 69.6573 115.162 55.8068C116.85 42.0454 116.854 26.6412 116.097 12.6884C116.035 11.5041 116.943 10.4935 118.123 10.4312V10.4356Z" fill="url(#paint5_linear_72_1444)"/>
<defs>
<linearGradient id="paint0_linear_72_1444" x1="68.1162" y1="5" x2="68.1162" y2="93" gradientUnits="userSpaceOnUse">
<stop stop-color="#FFE0A6"/>
<stop offset="1" stop-color="#FFEDC9"/>
</linearGradient>
<linearGradient id="paint1_linear_72_1444" x1="78.2847" y1="97.2428" x2="61.3757" y2="-10.9785" gradientUnits="userSpaceOnUse">
<stop stop-color="#EA9523"/>
<stop offset="1" stop-color="#FCD037"/>
</linearGradient>
<linearGradient id="paint2_linear_72_1444" x1="38.6577" y1="10.075" x2="38.6577" y2="87.3321" gradientUnits="userSpaceOnUse">
<stop stop-color="#FFE0A6"/>
<stop offset="1" stop-color="#FFEDC9"/>
</linearGradient>
<linearGradient id="paint3_linear_72_1444" x1="42.3307" y1="92.0691" x2="32.269" y2="-4.21174" gradientUnits="userSpaceOnUse">
<stop stop-color="#F09726"/>
<stop offset="1" stop-color="#FCD037"/>
</linearGradient>
<linearGradient id="paint4_linear_72_1444" x1="101.369" y1="79.2918" x2="101.369" y2="16.3704" gradientUnits="userSpaceOnUse">
<stop stop-color="#F3A228"/>
<stop offset="1" stop-color="#F8BF2E"/>
</linearGradient>
<linearGradient id="paint5_linear_72_1444" x1="112.415" y1="79.2916" x2="112.415" y2="16.3702" gradientUnits="userSpaceOnUse">
<stop stop-color="#F3A228"/>
<stop offset="1" stop-color="#F8BF2E"/>
</linearGradient>
</defs>
</svg>
