<svg width="128" height="128" viewBox="0 0 128 128" fill="none" xmlns="http://www.w3.org/2000/svg">
<path d="M32 39.2656V60.666L32.04 62.5176C32.867 81.6021 46.3641 99.1088 64.3076 103.462L66.0293 103.002C83.1087 97.9801 95.7739 80.9869 96.5742 62.5176L96.6152 60.666V39.2656L64.3076 25L32 39.2656ZM87.3848 45.2783V57.9863L72.377 52.4775C72.2187 48.2797 68.6667 44.9238 64.3066 44.9238C59.8461 44.924 56.2306 48.4364 56.2305 52.7695C56.2305 57.1027 59.846 60.6161 64.3066 60.6162C66.3671 60.6162 68.2469 59.8655 69.6738 58.6318L87.1025 65.0293C85.3913 78.3235 76.0543 89.968 64.3076 93.8564C54.0139 90.449 45.5723 81.0852 42.4893 69.875L56.3369 74.958C56.9601 78.6892 60.2897 81.538 64.3066 81.5381C68.7673 81.5381 72.3837 78.0256 72.3838 73.6924C72.3838 69.3591 68.7674 65.8457 64.3066 65.8457C61.8906 65.8458 59.7242 66.8784 58.2441 68.5117L41.2715 62.2812C41.2459 61.7446 41.2305 61.2062 41.2305 60.666V45.2783L64.3076 35.0869L87.3848 45.2783Z" fill="black"/>
</svg>
