<svg width="128" height="128" viewBox="0 0 128 128" fill="none" xmlns="http://www.w3.org/2000/svg">
<path d="M33.0811 70.5625C34.2071 70.5625 35.1162 70.9187 35.8076 71.6299C36.4891 72.3411 36.835 73.2895 36.835 74.4648H29.0322C29.2495 73.26 29.7236 72.3008 30.4346 71.6094C31.1455 70.9183 32.0346 70.5628 33.0811 70.5625Z" fill="#CE6706"/>
<path d="M99.3291 64.96C100.929 64.96 102.095 65.6118 102.836 66.8955C103.567 68.1796 103.942 70.2949 103.942 73.2188C103.942 76.1419 103.577 78.2558 102.836 79.5596C102.095 80.863 100.929 81.5146 99.3291 81.5146C97.68 81.5144 96.4846 80.8729 95.7637 79.5791C95.0427 78.2951 94.6768 76.1716 94.6768 73.2188C94.6768 70.2952 95.0329 68.1895 95.7637 66.8955C96.4945 65.6021 97.6802 64.9602 99.3291 64.96Z" fill="#CE6706"/>
<path fill-rule="evenodd" clip-rule="evenodd" d="M12.3477 25C14.1965 25 15.6952 26.4988 15.6953 28.3477V34.7783H46.8535C47.6578 34.7784 48.4283 35.1013 48.9922 35.6748L58.9268 45.7783H80.0762L84.7773 39.667H111.666C115.3 39.667 118.315 42.31 118.896 45.7783H118.999V92.8896C118.999 94.5463 117.656 95.8896 115.999 95.8896H15.6953V98.6523C15.6952 100.501 14.1965 102 12.3477 102C10.4988 102 9.00007 100.501 9 98.6523V28.3477C9.00007 26.4988 10.4988 25.0001 12.3477 25ZM47.6875 61.4346V67.0645H44.8711V71.4902H47.6875V80.2021C47.6876 82.2365 48.3096 83.8171 49.5439 84.9727C50.7785 86.1282 52.3994 86.701 54.4043 86.7012C55.4015 86.7011 56.3897 86.5826 57.3672 86.3457C58.3449 86.1087 59.2055 85.7732 59.9561 85.3486L58.6807 80.6162C57.6836 81.0604 56.8145 81.288 56.0938 81.2881C54.9187 81.2879 54.3263 80.5665 54.3262 79.1445V71.4902H59.5801V67.0645H54.3262V61.4346H47.6875ZM33.0322 65.8711C30.9287 65.8712 29.0706 66.3049 27.4707 67.1641C25.8709 68.0234 24.6368 69.2498 23.7578 70.8398C22.879 72.43 22.4434 74.2669 22.4434 76.3408C22.4434 78.3952 22.878 80.1934 23.7373 81.7441C24.5966 83.2947 25.8412 84.5002 27.4707 85.3496C29.1004 86.199 31.0077 86.623 33.1807 86.623C35.0572 86.623 36.7371 86.3174 38.2285 85.7051C39.7195 85.0928 40.9932 84.1935 42.04 83.0186L38.5537 79.5312C37.8823 80.2124 37.1318 80.7266 36.3223 81.0723C35.5125 81.4178 34.6719 81.5957 33.793 81.5957C32.6474 81.5956 31.6691 81.289 30.8691 80.6768C30.0694 80.0644 29.5056 79.1847 29.1797 78.0293H43.2949C43.3245 77.7528 43.3359 77.348 43.3359 76.8252C43.3359 73.4274 42.4459 70.7497 40.668 68.7939C38.89 66.8385 36.3508 65.8613 33.0322 65.8711ZM99.3291 59.8525C95.5465 59.8527 92.6526 61.0094 90.6377 63.3105C88.6228 65.6121 87.6143 68.9122 87.6143 73.2188C87.6144 77.5249 88.6228 80.8343 90.6377 83.1455C92.6526 85.4564 95.5466 86.6121 99.3291 86.6123C103.053 86.6123 105.928 85.4567 107.943 83.1455C109.958 80.8343 110.965 77.525 110.965 73.2188C110.965 68.9121 109.958 65.6121 107.943 63.3105C105.928 61.0091 103.063 59.8525 99.3291 59.8525ZM63.3467 58.541V86.3965H70.0244V76.3613C70.0244 75.0181 70.3808 73.9206 71.0918 73.0811C71.8126 72.2418 72.7806 71.817 74.0049 71.7871C75.0716 71.7871 75.9218 72.1235 76.5342 72.7852C77.1464 73.4567 77.4521 74.3554 77.4521 75.5107V86.3965H84.1299V73.5947C84.1298 71.2144 83.4683 69.3274 82.125 67.9248C80.7817 66.5323 78.994 65.8303 76.7422 65.8203C75.2706 65.8204 73.9561 66.1173 72.8203 66.7197C71.6846 67.3223 70.7454 68.2114 70.0244 69.3867V58.541H63.3467ZM16.917 45.0869V57.2559H23.96C25.6167 57.2559 26.9598 55.9126 26.96 54.2559V48.0869C26.9598 46.4302 25.6167 45.0869 23.96 45.0869H16.917ZM34.4336 45.0869C33.3294 45.0873 32.4337 45.9827 32.4336 47.0869V57.2559H41.2549V45.0869H34.4336Z" fill="#CE6706"/>
</svg>
