<svg width="128" height="128" viewBox="0 0 128 128" fill="none" xmlns="http://www.w3.org/2000/svg">
<path d="M4 58.2769C4 33.2444 4 20.7281 11.5055 12.7356C11.9025 12.3128 12.3128 11.9025 12.7356 11.5055C20.7281 4 33.2444 4 58.2769 4H69.7231C94.7556 4 107.272 4 115.264 11.5055C115.687 11.9025 116.097 12.3128 116.495 12.7356C124 20.7281 124 33.2444 124 58.2769V69.7231C124 94.7556 124 107.272 116.495 115.264C116.097 115.687 115.687 116.097 115.264 116.495C107.272 124 94.7556 124 69.7231 124H58.2769C33.2444 124 20.7281 124 12.7356 116.495C12.3128 116.097 11.9025 115.687 11.5055 115.264C4 107.272 4 94.7556 4 69.7231V58.2769Z" fill="#00CCAE"/>
<path d="M64.9238 58.6995L37.2872 67.6483L36.2108 61.6923L63.0759 52.9934L64.9238 58.6995Z" fill="#24FFDE"/>
<path d="M91.6923 70.9546L64.924 79.6222L63.076 73.9161L91.6923 64.6501V70.9546Z" fill="#24FFDE"/>
<path d="M72.0774 55.8467C72.0774 60.18 68.4613 63.6929 64.0005 63.6929C59.5397 63.6929 55.9236 60.18 55.9236 55.8467C55.9236 51.5134 59.5397 48.0005 64.0005 48.0005C68.4613 48.0005 72.0774 51.5134 72.0774 55.8467Z" fill="white"/>
<path d="M72.0774 76.7691C72.0774 81.1024 68.4613 84.6153 64.0005 84.6153C59.5397 84.6153 55.9236 81.1024 55.9236 76.7691C55.9236 72.4358 59.5397 68.923 64.0005 68.923C68.4613 68.923 72.0774 72.4358 72.0774 76.7691Z" fill="white"/>
<path d="M87.0769 47.3548L64 37.164L40.923 47.3548V62.7425C40.9236 77.7909 50.9827 91.6246 64 95.9336C77.0172 91.6246 87.0763 77.7909 87.0769 62.7425V47.3548ZM96.2671 64.5949C95.4401 83.6794 81.9435 101.185 64 105.538L62.2782 105.079C45.1988 100.057 32.5332 83.0642 31.7328 64.5949L31.6923 62.7425V41.3422L64 27.0769L96.3076 41.3422V62.7425L96.2671 64.5949Z" fill="white"/>
</svg>
