<svg width="128" height="128" viewBox="0 0 128 128" fill="none" xmlns="http://www.w3.org/2000/svg">
<path d="M45.9086 74.0934L26.186 79.3794L24.4227 72.8052L44.1452 67.5192L45.9086 74.0934Z" fill="#FFDB93"/>
<path d="M55.0613 103.444L48.4871 101.68L53.771 81.9599L60.3472 83.7212L55.0613 103.444Z" fill="#FFDB93"/>
<path d="M53.4369 18.7543C63.013 28.3313 63.0136 43.8601 53.4369 53.4369C43.86 63.0123 28.3309 63.0125 18.7543 53.4369L5 39.6826L14.5513 30.1313L28.3056 43.8856C32.6073 48.1863 39.5837 48.1861 43.8856 43.8856C48.1874 39.5838 48.1867 32.6077 43.8856 28.3056L30.1313 14.5513L39.6826 5L53.4369 18.7543Z" fill="#FFDB93"/>
<path d="M114.181 98.6007L100.209 84.6291C95.907 80.3273 88.9311 80.3271 84.6291 84.6291C80.3287 88.9312 80.3299 95.9055 84.6311 100.207L98.6027 114.179L89.0514 123.73L75.0798 109.758C65.5036 100.182 65.5024 84.6549 75.0778 75.0778C84.6547 65.5008 100.183 65.5011 109.76 75.0778L123.732 89.0494L114.181 98.6007Z" fill="#FFDB93"/>
<path d="M73.0548 46.9553L66.4806 45.196L71.7645 25.4714L78.3387 27.2347L73.0548 46.9553Z" fill="#FFDB93"/>
<path d="M102.403 56.11L82.6806 61.3959L80.9172 54.8218L100.642 49.5378L102.403 56.11Z" fill="#FFDB93"/>
<path d="M45.9092 74.094L26.1867 79.38L24.4233 72.8058L44.1459 67.5198L45.9092 74.094Z" fill="#E79800"/>
<path d="M55.062 103.444L48.4878 101.681L53.7717 81.9605L60.3479 83.7218L55.062 103.444Z" fill="#E79800"/>
<path d="M73.0555 46.9559L66.4813 45.1966L71.7652 25.472L78.3394 27.2353L73.0555 46.9559Z" fill="#E79800"/>
<path d="M102.404 56.1106L82.6813 61.3965L80.9179 54.8224L100.643 49.5384L102.404 56.1106Z" fill="#E79800"/>
<path d="M29.3682 29.3656C33.6292 25.1045 40.5377 25.1046 44.7988 29.3656L68.3661 52.933L61.1434 53.6765L52.9356 68.3635L29.3682 44.7962C25.1072 40.5351 25.1072 33.6266 29.3682 29.3656V29.3656Z" fill="url(#paint0_linear_198_2786)"/>
<path d="M99.1578 99.1567C103.419 94.8957 103.419 87.9872 99.1578 83.7262L75.5904 60.1588L66.5463 61.7818L60.1598 75.5894L83.7272 99.1567C87.9882 103.418 94.8967 103.418 99.1578 99.1567V99.1567Z" fill="url(#paint1_linear_198_2786)"/>
<defs>
<linearGradient id="paint0_linear_198_2786" x1="45.1412" y1="29.708" x2="33.2328" y2="50.3829" gradientUnits="userSpaceOnUse">
<stop stop-color="#FFC85E"/>
<stop offset="1" stop-color="#DA9206"/>
</linearGradient>
<linearGradient id="paint1_linear_198_2786" x1="97.8596" y1="82.428" x2="77.3717" y2="94.9712" gradientUnits="userSpaceOnUse">
<stop stop-color="#FFC85E"/>
<stop offset="1" stop-color="#DA9206"/>
</linearGradient>
</defs>
</svg>
