<svg width="128" height="128" viewBox="0 0 128 128" fill="none" xmlns="http://www.w3.org/2000/svg">
<path d="M57.32 85.28C70.7736 85.28 81.68 74.3737 81.68 60.92C81.68 47.4663 70.7736 36.56 57.32 36.56C43.8663 36.56 32.96 47.4663 32.96 60.92C32.96 74.3737 43.8663 85.28 57.32 85.28Z" fill="white" stroke="#D3D3D3" stroke-width="2.5" stroke-miterlimit="10"/>
<path d="M55.0599 67.35L40.1899 78.24" stroke="#A8D2FF" stroke-width="2.5" stroke-miterlimit="10"/>
<path d="M51.82 60.1801L32.96 60.9201" stroke="#A8D2FF" stroke-width="2.5" stroke-miterlimit="10"/>
<path d="M54.1101 52.92L42.8201 41.34" stroke="#A8D2FF" stroke-width="2.5" stroke-miterlimit="10"/>
<path d="M70.4299 52.06L75.9799 45.27" stroke="#A8D2FF" stroke-width="2.5" stroke-miterlimit="10"/>
<path d="M73.8799 60.55L81.6699 60.92" stroke="#A8D2FF" stroke-width="2.5" stroke-miterlimit="10"/>
<path d="M62.0801 46.57L74.3101 53.63V67.75L62.0801 74.81L49.8501 67.75V53.63L62.0801 46.57Z" fill="url(#paint0_linear_200_5863)"/>
<path d="M62.0801 46.57L74.3101 53.63L62.0801 60.69L49.8501 53.63L62.0801 46.57Z" fill="#A2D2FF"/>
<path d="M62.0801 46.57L74.3101 53.63L62.0801 60.69L49.8501 53.63L62.0801 46.57Z" stroke="#6AB0FC" stroke-width="2.5" stroke-linejoin="round"/>
<path d="M62.0801 74.81V60.69" stroke="#6AB0FC" stroke-width="2.5"/>
<path d="M62.0801 46.57L74.3101 53.63V67.75L62.0801 74.81L49.8501 67.75V53.63L62.0801 46.57Z" stroke="url(#paint1_linear_200_5863)" stroke-width="2.5" stroke-miterlimit="10"/>
<path d="M14.1799 98.58L33.9899 92.37L45.6899 82.2" stroke="#D3D3D3" stroke-width="2.5" stroke-miterlimit="10"/>
<path d="M58.97 107.55L33.99 92.37" stroke="#D3D3D3" stroke-width="2.5" stroke-miterlimit="10"/>
<path d="M34.41 67.65L10.98 70.57" stroke="#D3D3D3" stroke-width="2.5" stroke-miterlimit="10"/>
<path d="M7.52002 31.91L27.2 35.55" stroke="#A8D2FF" stroke-width="2.5" stroke-miterlimit="10"/>
<path d="M71.8101 41.34L84.7501 26.54" stroke="#D3D3D3" stroke-width="2.5" stroke-miterlimit="10"/>
<path d="M81.6699 57L96.9799 58.33L119.83 63.75" stroke="#A8D2FF" stroke-width="2.5" stroke-miterlimit="10"/>
<path d="M96.98 58.33L103.79 77.24" stroke="#A8D2FF" stroke-width="2.5" stroke-miterlimit="10"/>
<path d="M37.52 46.37L27.2 35.55L38.72 19.52" stroke="#A8D2FF" stroke-width="2.5" stroke-miterlimit="10"/>
<path d="M57.32 85.28C70.7736 85.28 81.68 74.3737 81.68 60.92C81.68 47.4663 70.7736 36.56 57.32 36.56C43.8663 36.56 32.96 47.4663 32.96 60.92C32.96 74.3737 43.8663 85.28 57.32 85.28Z" stroke="#6B6B6B" stroke-width="2.5" stroke-miterlimit="10"/>
<path d="M80.9499 85.5L74.4399 78.98" stroke="#6B6B6B" stroke-width="2.5" stroke-miterlimit="10"/>
<path d="M94.1781 94.6974L83.72 84.2393C82.6695 83.1888 80.9678 83.1872 79.9193 84.2358C78.8707 85.2844 78.8723 86.986 79.9228 88.0365L90.3809 98.4946C91.4314 99.5451 93.1331 99.5467 94.1816 98.4981C95.2302 97.4496 95.2286 95.748 94.1781 94.6974Z" fill="#D3D3D3" stroke="#6B6B6B" stroke-width="2.5" stroke-miterlimit="10"/>
<path d="M97.03 63.74C100.079 63.74 102.55 61.2686 102.55 58.22C102.55 55.1714 100.079 52.7 97.03 52.7C93.9814 52.7 91.51 55.1714 91.51 58.22C91.51 61.2686 93.9814 63.74 97.03 63.74Z" fill="url(#paint2_linear_200_5863)" stroke="url(#paint3_linear_200_5863)" stroke-width="2.5" stroke-miterlimit="10"/>
<path d="M27.1999 41.07C30.2485 41.07 32.7199 38.5986 32.7199 35.55C32.7199 32.5014 30.2485 30.03 27.1999 30.03C24.1513 30.03 21.6799 32.5014 21.6799 35.55C21.6799 38.5986 24.1513 41.07 27.1999 41.07Z" fill="url(#paint4_linear_200_5863)" stroke="url(#paint5_linear_200_5863)" stroke-width="2.5" stroke-miterlimit="10"/>
<path d="M10.9299 76.09C13.9785 76.09 16.4499 73.6186 16.4499 70.57C16.4499 67.5214 13.9785 65.05 10.9299 65.05C7.8813 65.05 5.40991 67.5214 5.40991 70.57C5.40991 73.6186 7.8813 76.09 10.9299 76.09Z" fill="#D3D3D3" stroke="#6B6B6B" stroke-width="2.5" stroke-miterlimit="10"/>
<path d="M103.79 80.51C105.596 80.51 107.06 79.0459 107.06 77.24C107.06 75.434 105.596 73.97 103.79 73.97C101.984 73.97 100.52 75.434 100.52 77.24C100.52 79.0459 101.984 80.51 103.79 80.51Z" fill="url(#paint6_linear_200_5863)" stroke="url(#paint7_linear_200_5863)" stroke-width="2.5" stroke-miterlimit="10"/>
<path d="M119.83 67.02C121.636 67.02 123.1 65.556 123.1 63.75C123.1 61.944 121.636 60.48 119.83 60.48C118.024 60.48 116.56 61.944 116.56 63.75C116.56 65.556 118.024 67.02 119.83 67.02Z" fill="url(#paint8_linear_200_5863)" stroke="url(#paint9_linear_200_5863)" stroke-width="2.5" stroke-miterlimit="10"/>
<path d="M38.72 22.79C40.5259 22.79 41.99 21.326 41.99 19.52C41.99 17.714 40.5259 16.25 38.72 16.25C36.914 16.25 35.45 17.714 35.45 19.52C35.45 21.326 36.914 22.79 38.72 22.79Z" fill="url(#paint10_linear_200_5863)" stroke="url(#paint11_linear_200_5863)" stroke-width="2.5" stroke-miterlimit="10"/>
<path d="M7.52 35.18C9.32597 35.18 10.79 33.716 10.79 31.91C10.79 30.104 9.32597 28.64 7.52 28.64C5.71403 28.64 4.25 30.104 4.25 31.91C4.25 33.716 5.71403 35.18 7.52 35.18Z" fill="url(#paint12_linear_200_5863)" stroke="url(#paint13_linear_200_5863)" stroke-width="2.5" stroke-miterlimit="10"/>
<path d="M90.1301 21.05H79.3301V31.85H90.1301V21.05Z" fill="#D3D3D3" stroke="#6B6B6B" stroke-width="2.5" stroke-miterlimit="10"/>
<path d="M37.52 88.85H30.47V95.9H37.52V88.85Z" fill="#D3D3D3" stroke="#6B6B6B" stroke-width="2.5" stroke-miterlimit="10"/>
<path d="M62.5 104.02H55.45V111.07H62.5V104.02Z" fill="#D3D3D3" stroke="#6B6B6B" stroke-width="2.5" stroke-miterlimit="10"/>
<path d="M17.7099 95.06H10.6599V102.11H17.7099V95.06Z" fill="#D3D3D3" stroke="#6B6B6B" stroke-width="2.5" stroke-miterlimit="10"/>
<defs>
<linearGradient id="paint0_linear_200_5863" x1="52.1408" y1="49.6108" x2="81.0394" y2="59.7782" gradientUnits="userSpaceOnUse">
<stop stop-color="white"/>
<stop offset="1" stop-color="#AAD6FF"/>
</linearGradient>
<linearGradient id="paint1_linear_200_5863" x1="45.8367" y1="40.1088" x2="85.8643" y2="57.4969" gradientUnits="userSpaceOnUse">
<stop stop-color="#37A8FF"/>
<stop offset="1" stop-color="#0856FF"/>
</linearGradient>
<linearGradient id="paint2_linear_200_5863" x1="92.5439" y1="53.8888" x2="105.126" y2="58.9996" gradientUnits="userSpaceOnUse">
<stop stop-color="white"/>
<stop offset="1" stop-color="#AAD6FF"/>
</linearGradient>
<linearGradient id="paint3_linear_200_5863" x1="89.6985" y1="50.1741" x2="106.858" y2="58.7802" gradientUnits="userSpaceOnUse">
<stop stop-color="#37A8FF"/>
<stop offset="1" stop-color="#0856FF"/>
</linearGradient>
<linearGradient id="paint4_linear_200_5863" x1="22.7138" y1="31.2188" x2="35.2957" y2="36.3296" gradientUnits="userSpaceOnUse">
<stop stop-color="white"/>
<stop offset="1" stop-color="#AAD6FF"/>
</linearGradient>
<linearGradient id="paint5_linear_200_5863" x1="19.8685" y1="27.5041" x2="37.0279" y2="36.1102" gradientUnits="userSpaceOnUse">
<stop stop-color="#37A8FF"/>
<stop offset="1" stop-color="#0856FF"/>
</linearGradient>
<linearGradient id="paint6_linear_200_5863" x1="101.132" y1="74.6742" x2="108.586" y2="77.7018" gradientUnits="userSpaceOnUse">
<stop stop-color="white"/>
<stop offset="1" stop-color="#AAD6FF"/>
</linearGradient>
<linearGradient id="paint7_linear_200_5863" x1="99.4469" y1="72.4736" x2="109.612" y2="77.5718" gradientUnits="userSpaceOnUse">
<stop stop-color="#37A8FF"/>
<stop offset="1" stop-color="#0856FF"/>
</linearGradient>
<linearGradient id="paint8_linear_200_5863" x1="117.173" y1="61.1842" x2="124.626" y2="64.2118" gradientUnits="userSpaceOnUse">
<stop stop-color="white"/>
<stop offset="1" stop-color="#AAD6FF"/>
</linearGradient>
<linearGradient id="paint9_linear_200_5863" x1="115.487" y1="58.9837" x2="125.652" y2="64.0818" gradientUnits="userSpaceOnUse">
<stop stop-color="#37A8FF"/>
<stop offset="1" stop-color="#0856FF"/>
</linearGradient>
<linearGradient id="paint10_linear_200_5863" x1="36.0624" y1="16.9542" x2="43.5158" y2="19.9818" gradientUnits="userSpaceOnUse">
<stop stop-color="white"/>
<stop offset="1" stop-color="#AAD6FF"/>
</linearGradient>
<linearGradient id="paint11_linear_200_5863" x1="34.3769" y1="14.7537" x2="44.542" y2="19.8518" gradientUnits="userSpaceOnUse">
<stop stop-color="#37A8FF"/>
<stop offset="1" stop-color="#0856FF"/>
</linearGradient>
<linearGradient id="paint12_linear_200_5863" x1="4.86247" y1="29.3442" x2="12.3159" y2="32.3718" gradientUnits="userSpaceOnUse">
<stop stop-color="white"/>
<stop offset="1" stop-color="#AAD6FF"/>
</linearGradient>
<linearGradient id="paint13_linear_200_5863" x1="3.17691" y1="27.1437" x2="13.342" y2="32.2418" gradientUnits="userSpaceOnUse">
<stop stop-color="#37A8FF"/>
<stop offset="1" stop-color="#0856FF"/>
</linearGradient>
</defs>
</svg>
