<svg width="128" height="128" viewBox="0 0 128 128" fill="none" xmlns="http://www.w3.org/2000/svg">
<path d="M57.6052 84.0059C79.1533 84.0059 96.6151 66.5388 96.6151 44.996C96.6151 23.4531 79.148 5.98608 57.6052 5.98608C36.0623 5.98608 18.5953 23.4531 18.5953 44.996C18.5953 66.5388 36.0623 84.0059 57.6052 84.0059Z" fill="url(#paint0_linear_72_1439)"/>
<path fill-rule="evenodd" clip-rule="evenodd" d="M57.3743 81.162C77.685 81.162 94.1515 64.6955 94.1515 44.3848C94.1515 24.0742 77.685 7.60768 57.3743 7.60768C37.0637 7.60768 20.5971 24.0794 20.5971 44.3848C20.5971 64.6902 37.0584 81.162 57.3743 81.162ZM57.3743 85.7591C80.2231 85.7591 98.7486 67.2336 98.7486 44.3796C98.7486 21.5255 80.2231 3 57.3743 3C34.5255 3 16 21.5255 16 44.3796C16 67.2336 34.5255 85.7591 57.3743 85.7591ZM92.9982 79.0135L88.7065 74.7218L85.3047 78.1288L89.3595 82.1836C88.2958 84.4216 88.6907 87.1704 90.539 89.024L100.75 99.2346C103.104 101.588 106.911 101.588 109.259 99.2346C111.613 96.886 111.613 93.0735 109.259 90.7249L99.0487 80.5143C97.411 78.8766 95.073 78.3816 93.0035 79.024L92.9982 79.0135ZM95.6417 83.9055L105.852 94.1214C106.321 94.5901 106.321 95.3536 105.852 95.8223C105.384 96.291 104.62 96.291 104.151 95.8223L93.9408 85.6117C93.4721 85.143 93.4721 84.3795 93.9408 83.9108C94.4095 83.4421 95.173 83.4421 95.6417 83.9108V83.9055ZM32.4929 37.5602C36.99 25.7909 48.3854 17.4444 61.7292 17.4444V12.6261C46.3316 12.6261 33.188 22.268 28.001 35.8383L32.4929 37.5602Z" fill="url(#paint1_linear_72_1439)"/>
<path d="M31.1875 124.188C28.0547 124.188 25.7031 121.875 25.7031 118.188C25.7031 114.477 28.0547 112.172 31.1875 112.172C34.3203 112.172 36.6797 114.477 36.6797 118.188C36.6797 121.891 34.3203 124.188 31.1875 124.188ZM31.1875 122.062C32.9844 122.062 34.2578 120.656 34.2578 118.188C34.2578 115.703 32.9844 114.297 31.1875 114.297C29.3906 114.297 28.125 115.703 28.125 118.188C28.125 120.656 29.3906 122.062 31.1875 122.062ZM38.0469 124V112.359H42.7109C45.2188 112.359 46.625 113.562 46.625 115.352C46.625 116.695 45.8203 117.594 44.5391 117.914V117.93C45.9609 118.062 47.0547 119.062 47.0547 120.719C47.0547 122.664 45.625 124 42.9766 124H38.0469ZM40.3984 122.109H42.6406C43.875 122.109 44.6016 121.555 44.6016 120.586C44.6016 119.617 43.8906 119.008 42.6797 119.008H40.3984V122.109ZM40.3984 117.195H42.5312C43.5859 117.195 44.2344 116.625 44.2344 115.727C44.2344 114.82 43.5859 114.25 42.5312 114.25H40.3984V117.195ZM52.7656 124.188C49.7812 124.188 48.0391 122.711 48.0391 120.18H50.3594C50.3906 121.461 51.2891 122.211 52.7812 122.211C54.1172 122.211 55 121.625 55 120.719C55 119.969 54.3906 119.531 52.9141 119.211L51.6875 118.945C49.3828 118.445 48.2656 117.375 48.2656 115.711C48.2656 113.594 50.0391 112.172 52.6875 112.172C55.3672 112.172 57.0312 113.586 57.1016 115.93H54.8516C54.7656 114.828 53.9453 114.148 52.6953 114.148C51.5078 114.148 50.6719 114.742 50.6719 115.594C50.6719 116.312 51.25 116.711 52.6797 117.023L53.7969 117.266C56.2812 117.789 57.3828 118.812 57.3828 120.562C57.3828 122.805 55.6328 124.188 52.7656 124.188ZM58.7969 124V112.359H67.1484V114.422H61.2031V117.117H66.7031V119.125H61.2031V121.938H67.1484V124H58.7969ZM68.5312 124V112.359H73.1875C75.8125 112.359 77.4531 113.836 77.4531 116.18C77.4531 117.719 76.6797 118.875 75.375 119.477L77.7109 124H75.1328L73.0703 119.93C73.0625 119.93 73.0547 119.93 73.0469 119.93H70.9375V124H68.5312ZM70.9375 118H73.0469C74.3125 118 75.1016 117.289 75.1016 116.18C75.1016 115.07 74.3125 114.359 73.0391 114.359H70.9375V118ZM81.9141 124L77.8281 112.359H80.4453L82.3281 118.023C82.6797 119.133 83.0469 120.383 83.4688 121.812C83.875 120.383 84.2344 119.133 84.5703 118.023L86.3906 112.359H88.9766L84.9766 124H81.9141ZM89.9219 124V112.359H98.2734V114.422H92.3281V117.117H97.8281V119.125H92.3281V121.938H98.2734V124H89.9219Z" fill="black"/>
<defs>
<linearGradient id="paint0_linear_72_1439" x1="57.6052" y1="5.98608" x2="57.6052" y2="84.0059" gradientUnits="userSpaceOnUse">
<stop stop-color="#FFE0A6"/>
<stop offset="1" stop-color="#FFEDC9"/>
</linearGradient>
<linearGradient id="paint1_linear_72_1439" x1="63.5091" y1="2.99473" x2="63.5091" y2="100.993" gradientUnits="userSpaceOnUse">
<stop stop-color="#FDD236"/>
<stop offset="0.35" stop-color="#D78F28"/>
<stop offset="1" stop-color="#F89942"/>
</linearGradient>
</defs>
</svg>
