<svg width="128" height="128" viewBox="0 0 128 128" fill="none" xmlns="http://www.w3.org/2000/svg">
<path d="M57.6052 96.0059C79.1533 96.0059 96.6151 78.5388 96.6151 56.996C96.6151 35.4531 79.148 17.9861 57.6052 17.9861C36.0623 17.9861 18.5953 35.4531 18.5953 56.996C18.5953 78.5388 36.0623 96.0059 57.6052 96.0059Z" fill="url(#paint0_linear_72_1336)"/>
<path fill-rule="evenodd" clip-rule="evenodd" d="M57.3743 93.162C77.685 93.162 94.1515 76.6955 94.1515 56.3848C94.1515 36.0742 77.685 19.6077 57.3743 19.6077C37.0637 19.6077 20.5971 36.0794 20.5971 56.3848C20.5971 76.6902 37.0584 93.162 57.3743 93.162ZM57.3743 97.7591C80.2231 97.7591 98.7486 79.2336 98.7486 56.3796C98.7486 33.5255 80.2231 15 57.3743 15C34.5255 15 16 33.5255 16 56.3796C16 79.2336 34.5255 97.7591 57.3743 97.7591ZM92.9982 91.0135L88.7065 86.7218L85.3047 90.1288L89.3595 94.1836C88.2958 96.4216 88.6907 99.1704 90.539 101.024L100.75 111.235C103.104 113.588 106.911 113.588 109.259 111.235C111.613 108.886 111.613 105.074 109.259 102.725L99.0487 92.5143C97.411 90.8766 95.073 90.3816 93.0035 91.024L92.9982 91.0135ZM95.6417 95.9055L105.852 106.121C106.321 106.59 106.321 107.354 105.852 107.822C105.384 108.291 104.62 108.291 104.151 107.822L93.9408 97.6117C93.4721 97.143 93.4721 96.3795 93.9408 95.9108C94.4095 95.4421 95.173 95.4421 95.6417 95.9108V95.9055ZM32.4929 49.5602C36.99 37.7909 48.3854 29.4444 61.7292 29.4444V24.6261C46.3316 24.6261 33.188 34.268 28.001 47.8383L32.4929 49.5602Z" fill="url(#paint1_linear_72_1336)"/>
<defs>
<linearGradient id="paint0_linear_72_1336" x1="57.6052" y1="17.9861" x2="57.6052" y2="96.0059" gradientUnits="userSpaceOnUse">
<stop stop-color="#FFE0A6"/>
<stop offset="1" stop-color="#FFEDC9"/>
</linearGradient>
<linearGradient id="paint1_linear_72_1336" x1="63.5091" y1="14.9947" x2="63.5091" y2="112.993" gradientUnits="userSpaceOnUse">
<stop stop-color="#FDD236"/>
<stop offset="0.35" stop-color="#D78F28"/>
<stop offset="1" stop-color="#F89942"/>
</linearGradient>
</defs>
</svg>
