<svg width="128" height="128" viewBox="0 0 128 128" fill="none" xmlns="http://www.w3.org/2000/svg">
<path opacity="0.8" d="M6 63.9933C6 31.9753 32.0037 5.98132 64.0146 5.99998C95.9988 6.01864 122.069 32.0206 122 64.2838C121.931 96.0593 95.9082 121.992 63.9746 122C32.0677 122.008 6.00533 96.0886 6 63.9933ZM63.8573 116.706C67.0102 116.653 67.8337 115.923 68.1829 112.751C68.3294 111.407 69.0144 110.645 70.3736 110.52C70.816 110.48 71.2584 110.456 71.6982 110.408C73.1533 110.245 73.7716 109.533 73.5664 108.086C73.4412 107.214 73.1027 106.377 72.9188 105.511C72.3938 103.075 73.4438 101.47 75.9037 101.217C77.5561 101.046 78.3503 100.151 78.6968 98.6821C79.1365 96.827 79.4857 94.9504 79.9707 93.1086C80.7809 90.0379 82.1535 88.2281 85.6608 88.2467C87.0173 88.2547 87.8782 87.4657 88.1607 86.125C88.2993 85.4746 88.4485 84.8162 88.4672 84.1578C88.5231 82.3746 89.2747 80.9512 90.45 79.6425C91.3908 78.5949 92.305 77.4754 92.9766 76.2466C93.968 74.4314 93.315 73.16 91.2762 72.7148C89.7624 72.3843 88.222 72.1817 86.6869 71.9578C83.1369 71.4407 80.1067 70.2546 78.6861 66.5095C78.3823 65.7072 77.4362 65.0435 76.642 64.5531C74.7311 63.3722 72.7189 62.354 70.776 61.2238C69.073 60.2323 68.1509 60.3122 66.5864 61.557C65.8295 62.1594 65.0113 62.7139 64.1478 63.1483C62.109 64.1772 61.4987 63.988 60.1955 62.1168C59.1614 60.6348 57.7435 60.2003 56.1471 61.0666C54.4174 62.0048 53.0316 63.3349 52.7784 65.4114C52.5492 67.3012 52.384 69.207 52.368 71.1075C52.3493 73.3466 51.6324 75.3297 50.7849 77.3608C50.2092 78.7362 49.7188 80.4048 49.9587 81.8149C50.8009 86.794 52.8503 91.0055 58.1353 92.8234C61.2322 93.8896 62.7167 96.3845 62.6261 99.5191C62.5594 101.827 61.9305 104.133 61.4347 106.412C60.9364 108.699 60.1795 110.933 59.7557 113.23C59.4759 114.739 60.326 115.973 61.6293 116.373C62.3382 116.592 63.1111 116.6 63.8547 116.704L63.8573 116.706ZM43.7543 46.1958C43.9541 45.3881 44.2686 44.0127 44.6417 42.6533C45.5852 39.2255 46.4487 38.6844 49.7721 40.0171C52.1814 40.982 54.4334 42.3468 56.7601 43.5196C58.5804 44.4392 59.1347 44.2153 59.4812 42.2401C59.8037 40.4089 60.0915 38.5564 60.1635 36.7039C60.2381 34.7821 61.1736 33.6279 62.8712 33.0495C64.8354 32.3778 66.8849 31.938 68.8225 31.2023C71.0399 30.36 73.2972 29.5017 75.3041 28.2729C77.0471 27.2067 76.7859 25.1943 74.955 24.2267C74.1607 23.8082 73.1826 23.5123 72.2978 23.5363C69.5554 23.6083 66.813 23.8135 64.0812 24.0641C62.9032 24.1707 61.9491 24.7278 61.3015 25.858C60.8271 26.6816 60.1368 27.4359 59.3906 28.0277C58.6763 28.5954 57.6556 29.1632 56.8427 28.3875C55.0864 26.7109 53.6685 24.8158 53.9857 22.1316C54.0843 21.3106 54.1003 20.4363 53.9297 19.634C53.5619 17.9068 52.2747 17.435 50.8622 18.4585C50.2945 18.8717 49.7455 19.3568 49.3217 19.9112C48.5915 20.8655 47.8852 20.8761 46.9844 20.1698C46.0782 19.4608 45.1135 18.829 44.1647 18.1733C42.4377 16.9792 40.644 16.8219 38.7838 17.8508C33.5788 20.7295 28.9255 24.312 24.9944 28.7847C22.5745 31.5382 22.9129 35.3312 25.9832 37.3436C29.0534 39.3587 31.0123 41.9416 31.8065 45.5267C32.1823 47.222 32.4728 47.3126 34.1598 46.8488C35.4097 46.5049 36.3585 46.8381 37.0648 47.8484C37.5685 48.5707 37.9203 49.4023 38.4293 50.1194C39.9618 52.2758 41.4542 54.4721 43.1439 56.5006C43.6583 57.1163 44.799 57.5934 45.5932 57.5135C47.1416 57.3615 48.7381 56.967 50.1452 56.314C51.8269 55.533 51.763 53.6645 50.1239 52.7902C49.1938 52.2944 48.1624 51.9879 47.1603 51.636C44.9802 50.871 43.7356 49.1225 43.7543 46.2011V46.1958ZM116.678 63.9L116.899 63.8574C116.395 60.1337 116.059 56.3753 115.345 52.6916C114.274 47.1713 112.136 42.0162 109.237 37.1944C108.386 35.779 107.219 35.0806 105.956 35.5204C104.207 36.1282 102.384 36.8985 101.588 38.7297C100.247 41.8083 99.0797 44.967 97.8591 48.0989C97.366 49.3597 97.6006 50.5165 98.4161 51.5907C100.359 54.1443 100.993 56.8764 99.5968 59.9258C98.9998 61.2265 99.253 62.5219 99.9006 63.7561C101.31 66.4482 102.816 69.0418 105.82 70.3052C106.385 70.5424 106.915 70.905 107.39 71.2994C109.063 72.6882 110.988 72.8534 113.037 72.5816C114.964 72.3283 116.086 71.3048 116.304 69.3376C116.504 67.5331 116.56 65.7152 116.68 63.9027L116.678 63.9Z" fill="url(#paint0_linear_198_4003)"/>
<path d="M66.5731 61.5606C68.1377 60.3132 69.0604 60.2352 70.7635 61.2266C72.7067 62.3568 74.7196 63.3759 76.6307 64.5567C77.4249 65.0471 78.3708 65.7106 78.6747 66.5127C80.0954 70.2578 83.1235 71.4412 86.6766 71.961C88.2119 72.1849 89.7525 72.39 91.2665 72.7178C93.3056 73.1603 93.9592 74.4348 92.9676 76.2501C92.2959 77.4788 91.3812 78.598 90.4403 79.6456C89.2648 80.9543 88.5102 82.3753 88.4569 84.1612C88.4356 84.8195 88.2888 85.4803 88.1503 86.128C87.8651 87.4687 87.007 88.2581 85.6503 88.2501C82.1427 88.2315 80.7701 90.0384 79.9598 93.1114C79.4747 94.9532 79.1252 96.8304 78.6854 98.6856C78.3362 100.154 77.5446 101.049 75.8924 101.22C73.4322 101.473 72.3847 103.078 72.9071 105.515C73.0937 106.381 73.4319 107.218 73.5546 108.089C73.7625 109.536 73.1434 110.249 71.6854 110.411C71.2458 110.459 70.8008 110.483 70.3612 110.523C69.0018 110.648 68.3164 111.413 68.1698 112.754C67.8206 115.926 66.9969 116.656 63.8436 116.709L63.8417 116.707C63.098 116.603 62.3241 116.595 61.6151 116.376C60.312 115.976 59.4622 114.742 59.7421 113.233C60.1685 110.936 60.925 108.702 61.4208 106.415C61.9165 104.134 62.5455 101.831 62.6122 99.5225C62.7028 96.3879 61.2209 93.8924 58.121 92.8262C52.8356 91.0084 50.7855 86.7974 49.9432 81.8184C49.706 80.4111 50.1964 78.7396 50.7694 77.3643C51.617 75.3332 52.3374 73.3494 52.3534 71.1104C52.3694 69.21 52.5343 67.3012 52.7635 65.4141C53.0169 63.338 54.4002 62.0076 56.1327 61.0694C57.7292 60.2059 59.15 60.6382 60.1815 62.1202C61.4849 63.9913 62.0956 64.183 64.1346 63.1514C64.9954 62.717 65.8163 62.1629 66.5731 61.5606ZM105.984 35.5157C107.248 35.0759 108.415 35.7742 109.265 37.1895C112.166 42.0114 114.303 47.1664 115.375 52.6866C116.089 56.3703 116.425 60.1289 116.929 63.8526L116.708 63.8956L116.711 63.8975C116.591 65.7101 116.535 67.5312 116.335 69.3331C116.116 71.3027 114.991 72.323 113.066 72.5762C111.019 72.8454 109.095 72.6833 107.419 71.295C106.944 70.9032 106.414 70.5381 105.849 70.3008C102.844 69.0374 101.339 66.4432 99.9286 63.751C99.2809 62.5143 99.0278 61.2217 99.6249 59.921C101.019 56.8743 100.384 54.1395 98.4432 51.586C97.6277 50.5118 97.3935 49.3545 97.8866 48.0938C99.11 44.9619 100.275 41.8059 101.616 38.7247C102.413 36.8937 104.236 36.1234 105.984 35.5157ZM38.7889 17.8448C40.6494 16.816 42.4436 16.9739 44.1708 18.168C45.1169 18.8237 46.0849 19.4552 46.9911 20.1641C47.8945 20.8729 48.6004 20.8594 49.328 19.9053C49.7518 19.351 50.3013 18.8636 50.869 18.4532C52.2817 17.4297 53.5695 17.9009 53.9374 19.628C54.108 20.4303 54.0917 21.3051 53.993 22.126C53.6759 24.8101 55.0939 26.7053 56.8505 28.3819C57.6634 29.1575 58.684 28.5866 59.3983 28.0215C60.1445 27.4272 60.8377 26.6761 61.3094 25.8526C61.9598 24.7225 62.9117 24.1653 64.0897 24.0586C66.8245 23.8108 69.5647 23.6023 72.3075 23.5303C73.1923 23.5063 74.1705 23.8024 74.9647 24.2208C76.7959 25.1883 77.0576 27.2014 75.3143 28.2676C73.3046 29.4963 71.0468 30.3541 68.8319 31.1963C66.8941 31.9347 64.8469 32.375 62.8798 33.044C61.1845 33.6224 60.249 34.7765 60.1717 36.6983C60.0998 38.5508 59.8116 40.4033 59.4891 42.2344C59.1426 44.2122 58.588 44.4333 56.7674 43.5137C54.4407 42.3383 52.1912 40.9766 49.7792 40.0118C46.4553 38.679 45.5883 39.2197 44.6473 42.6475C44.2742 44.0069 43.9605 45.3855 43.7606 46.1905V46.1954C43.742 49.1168 44.9865 50.8649 47.1669 51.6299C48.169 51.9818 49.2005 52.2885 50.1307 52.7842C51.77 53.6585 51.8341 55.5276 50.1522 56.3086C48.7449 56.9643 47.1481 57.3559 45.5995 57.5079C44.8052 57.5852 43.6637 57.1109 43.1493 56.4952C41.4594 54.4667 39.9671 52.2724 38.4344 50.1133C37.9255 49.3965 37.5738 48.565 37.0702 47.8428C36.3638 46.8299 35.4141 46.499 34.1639 46.8428C32.4769 47.3065 32.1862 47.2157 31.8104 45.5206C31.016 41.9357 29.0567 39.3503 25.9862 37.3379C22.9158 35.3255 22.5778 31.5327 24.9979 28.7794C28.9295 24.304 33.5832 20.7209 38.7889 17.8448Z" fill="#276BF0"/>
<defs>
<linearGradient id="paint0_linear_198_4003" x1="24" y1="103" x2="123.993" y2="69.2808" gradientUnits="userSpaceOnUse">
<stop stop-color="#296FFF"/>
<stop offset="1" stop-color="#A2C6FF"/>
</linearGradient>
</defs>
</svg>
