<svg width="128" height="128" viewBox="0 0 128 128" fill="none" xmlns="http://www.w3.org/2000/svg">
<path opacity="0.8" d="M6 63.9933C6 31.9753 32.0037 5.98132 64.0146 5.99998C95.9988 6.01864 122.069 32.0206 122 64.2838C121.931 96.0593 95.9082 121.992 63.9746 122C32.0677 122.008 6.00533 96.0886 6 63.9933ZM63.8573 116.706C67.0102 116.653 67.8337 115.923 68.1829 112.751C68.3294 111.407 69.0144 110.645 70.3736 110.52C70.816 110.48 71.2584 110.456 71.6982 110.408C73.1533 110.245 73.7716 109.533 73.5664 108.086C73.4412 107.214 73.1027 106.377 72.9188 105.511C72.3938 103.075 73.4438 101.47 75.9037 101.217C77.5561 101.046 78.3503 100.151 78.6968 98.6821C79.1365 96.827 79.4857 94.9504 79.9707 93.1086C80.7809 90.0379 82.1535 88.2281 85.6608 88.2467C87.0173 88.2547 87.8782 87.4657 88.1607 86.125C88.2993 85.4746 88.4485 84.8162 88.4672 84.1578C88.5231 82.3746 89.2747 80.9512 90.45 79.6425C91.3908 78.5949 92.305 77.4754 92.9766 76.2466C93.968 74.4314 93.315 73.16 91.2762 72.7148C89.7624 72.3843 88.222 72.1817 86.6869 71.9578C83.1369 71.4407 80.1067 70.2546 78.6861 66.5095C78.3823 65.7072 77.4362 65.0435 76.642 64.5531C74.7311 63.3722 72.7189 62.354 70.776 61.2238C69.073 60.2323 68.1509 60.3122 66.5864 61.557C65.8295 62.1594 65.0113 62.7139 64.1478 63.1483C62.109 64.1772 61.4987 63.988 60.1955 62.1168C59.1614 60.6348 57.7435 60.2003 56.1471 61.0666C54.4174 62.0048 53.0316 63.3349 52.7784 65.4114C52.5492 67.3012 52.384 69.207 52.368 71.1075C52.3493 73.3466 51.6324 75.3297 50.7849 77.3608C50.2092 78.7362 49.7188 80.4048 49.9587 81.8149C50.8009 86.794 52.8503 91.0055 58.1353 92.8234C61.2322 93.8896 62.7167 96.3845 62.6261 99.5191C62.5594 101.827 61.9305 104.133 61.4347 106.412C60.9364 108.699 60.1795 110.933 59.7557 113.23C59.4759 114.739 60.326 115.973 61.6293 116.373C62.3382 116.592 63.1111 116.6 63.8547 116.704L63.8573 116.706ZM43.7543 46.1958C43.9541 45.3881 44.2686 44.0127 44.6417 42.6533C45.5852 39.2255 46.4487 38.6844 49.7721 40.0171C52.1814 40.982 54.4334 42.3468 56.7601 43.5196C58.5804 44.4392 59.1347 44.2153 59.4812 42.2401C59.8037 40.4089 60.0915 38.5564 60.1635 36.7039C60.2381 34.7821 61.1736 33.6279 62.8712 33.0495C64.8354 32.3778 66.8849 31.938 68.8225 31.2023C71.0399 30.36 73.2972 29.5017 75.3041 28.2729C77.0471 27.2067 76.7859 25.1943 74.955 24.2267C74.1607 23.8082 73.1826 23.5123 72.2978 23.5363C69.5554 23.6083 66.813 23.8135 64.0812 24.0641C62.9032 24.1707 61.9491 24.7278 61.3015 25.858C60.8271 26.6816 60.1368 27.4359 59.3906 28.0277C58.6763 28.5954 57.6556 29.1632 56.8427 28.3875C55.0864 26.7109 53.6685 24.8158 53.9857 22.1316C54.0843 21.3106 54.1003 20.4363 53.9297 19.634C53.5619 17.9068 52.2747 17.435 50.8622 18.4585C50.2945 18.8717 49.7455 19.3568 49.3217 19.9112C48.5915 20.8655 47.8852 20.8761 46.9844 20.1698C46.0782 19.4608 45.1135 18.829 44.1647 18.1733C42.4377 16.9792 40.644 16.8219 38.7838 17.8508C33.5788 20.7295 28.9255 24.312 24.9944 28.7847C22.5745 31.5382 22.9129 35.3312 25.9832 37.3436C29.0534 39.3587 31.0123 41.9416 31.8065 45.5267C32.1823 47.222 32.4728 47.3126 34.1598 46.8488C35.4097 46.5049 36.3585 46.8381 37.0648 47.8484C37.5685 48.5707 37.9203 49.4023 38.4293 50.1194C39.9618 52.2758 41.4542 54.4721 43.1439 56.5006C43.6583 57.1163 44.799 57.5934 45.5932 57.5135C47.1416 57.3615 48.7381 56.967 50.1452 56.314C51.8269 55.533 51.763 53.6645 50.1239 52.7902C49.1938 52.2944 48.1624 51.9879 47.1603 51.636C44.9802 50.871 43.7356 49.1225 43.7543 46.2011V46.1958ZM116.678 63.9L116.899 63.8574C116.395 60.1337 116.059 56.3753 115.345 52.6916C114.274 47.1713 112.136 42.0162 109.237 37.1944C108.386 35.779 107.219 35.0806 105.956 35.5204C104.207 36.1282 102.384 36.8985 101.588 38.7297C100.247 41.8083 99.0797 44.967 97.8591 48.0989C97.366 49.3597 97.6006 50.5165 98.4161 51.5907C100.359 54.1443 100.993 56.8764 99.5968 59.9258C98.9998 61.2265 99.253 62.5219 99.9006 63.7561C101.31 66.4482 102.816 69.0418 105.82 70.3052C106.385 70.5424 106.915 70.905 107.39 71.2994C109.063 72.6882 110.988 72.8534 113.037 72.5816C114.964 72.3283 116.086 71.3048 116.304 69.3376C116.504 67.5331 116.56 65.7152 116.68 63.9027L116.678 63.9Z" fill="url(#paint0_linear_198_2826)"/>
<path d="M66.573 61.5605C68.1376 60.3131 69.0603 60.2351 70.7634 61.2265C72.7066 62.3567 74.7194 63.3758 76.6306 64.5566C77.4248 65.047 78.3707 65.7105 78.6746 66.5127C80.0953 70.2577 83.1234 71.4411 86.6765 71.9609C88.2118 72.1848 89.7524 72.3899 91.2664 72.7177C93.3055 73.1602 93.9591 74.4348 92.9675 76.25C92.2958 77.4787 91.3811 78.5979 90.4402 79.6455C89.2647 80.9542 88.5101 82.3752 88.4568 84.1611C88.4354 84.8194 88.2887 85.4803 88.1501 86.1279C87.8649 87.4686 87.0069 88.258 85.6501 88.25C82.1426 88.2314 80.77 90.0383 79.9597 93.1113C79.4746 94.9532 79.1251 96.8303 78.6853 98.6855C78.3361 100.154 77.5445 101.049 75.8923 101.22C73.4321 101.473 72.3845 103.078 72.907 105.515C73.0936 106.381 73.4318 107.217 73.5544 108.089C73.7624 109.536 73.1433 110.249 71.6853 110.411C71.2457 110.459 70.8007 110.482 70.3611 110.522C69.0017 110.648 68.3163 111.413 68.1697 112.754C67.8205 115.926 66.9968 116.656 63.8435 116.709L63.8416 116.707C63.0979 116.603 62.324 116.595 61.615 116.376C60.3118 115.976 59.4621 114.742 59.7419 113.233C60.1684 110.936 60.9249 108.702 61.4207 106.415C61.9164 104.133 62.5454 101.831 62.6121 99.5224C62.7027 96.3878 61.2208 93.8923 58.1208 92.8261C52.8354 91.0083 50.7854 86.7973 49.9431 81.8183C49.7059 80.4111 50.1963 78.7396 50.7693 77.3642C51.6169 75.3331 52.3373 73.3493 52.3533 71.1103C52.3693 69.2099 52.5342 67.3011 52.7634 65.414C53.0168 63.3379 54.4001 62.0075 56.1326 61.0693C57.7291 60.2058 59.1499 60.6381 60.1814 62.1201C61.4848 63.9912 62.0954 64.1829 64.1345 63.1513C64.9953 62.7169 65.8161 62.1628 66.573 61.5605ZM105.984 35.5156C107.248 35.0758 108.415 35.7741 109.265 37.1894C112.165 42.0113 114.303 47.1663 115.375 52.6865C116.089 56.3702 116.425 60.1288 116.928 63.8525L116.708 63.8955L116.711 63.8974C116.591 65.71 116.535 67.5311 116.335 69.333C116.116 71.3026 114.991 72.3229 113.066 72.5761C111.019 72.8453 109.095 72.6832 107.419 71.2949C106.944 70.9031 106.413 70.538 105.848 70.3008C102.844 69.0373 101.339 66.4431 99.9285 63.7509C99.2808 62.5142 99.0277 61.2216 99.6248 59.9209C101.019 56.8742 100.384 54.1394 98.4431 51.5859C97.6276 50.5118 97.3934 49.3544 97.8865 48.0937C99.1099 44.9618 100.275 41.8058 101.616 38.7246C102.413 36.8937 104.236 36.1233 105.984 35.5156ZM38.7888 17.8447C40.6493 16.8159 42.4434 16.9738 44.1707 18.1679C45.1168 18.8236 46.0848 19.4551 46.991 20.164C47.8944 20.8728 48.6003 20.8593 49.3279 19.9052C49.7517 19.3509 50.3012 18.8636 50.8689 18.4531C52.2816 17.4296 53.5694 17.9008 53.9373 19.6279C54.1078 20.4302 54.0915 21.305 53.9929 22.1259C53.6758 24.81 55.0938 26.7052 56.8503 28.3818C57.6633 29.1574 58.6839 28.5865 59.3982 28.0215C60.1444 27.4271 60.8375 26.676 61.3093 25.8525C61.9597 24.7224 62.9115 24.1652 64.0896 24.0586C66.8244 23.8107 69.5646 23.6022 72.3074 23.5302C73.1922 23.5063 74.1704 23.8023 74.9646 24.2207C76.7958 25.1883 77.0574 27.2013 75.3142 28.2675C73.3045 29.4963 71.0467 30.354 68.8318 31.1963C66.894 31.9346 64.8468 32.3749 62.8796 33.0439C61.1844 33.6223 60.2489 34.7764 60.1716 36.6982C60.0997 38.5507 59.8115 40.4032 59.489 42.2343C59.1425 44.2121 58.5879 44.4332 56.7673 43.5136C54.4406 42.3383 52.1911 40.9765 49.7791 40.0117C46.4552 38.6789 45.5881 39.2196 44.6472 42.6474C44.2741 44.0068 43.9604 45.3854 43.7605 46.1904V46.1953C43.7418 49.1167 44.9864 50.8649 47.1667 51.6299C48.1689 51.9817 49.2004 52.2884 50.1306 52.7841C51.7699 53.6584 51.834 55.5276 50.1521 56.3086C48.7448 56.9643 47.148 57.3558 45.5994 57.5078C44.805 57.5851 43.6636 57.1108 43.1492 56.4951C41.4593 54.4666 39.967 52.2723 38.4343 50.1133C37.9254 49.3964 37.5737 48.5649 37.0701 47.8427C36.3637 46.8299 35.4139 46.4989 34.1638 46.8427C32.4768 47.3064 32.1861 47.2156 31.8103 45.5205C31.0159 41.9356 29.0566 39.3502 25.9861 37.3379C22.9157 35.3254 22.5777 31.5327 24.9978 28.7793C28.9294 24.3039 33.5831 20.7208 38.7888 17.8447Z" fill="#CF8900"/>
<defs>
<linearGradient id="paint0_linear_198_2826" x1="24" y1="103" x2="123.993" y2="69.2808" gradientUnits="userSpaceOnUse">
<stop stop-color="#DB9307"/>
<stop offset="1" stop-color="#FFC95F"/>
</linearGradient>
</defs>
</svg>
