<svg width="128" height="128" viewBox="0 0 128 128" fill="none" xmlns="http://www.w3.org/2000/svg">
<path d="M60.9512 95.0898H28V86.8515H60.9512V95.0898ZM61.6768 33.9384C62.5947 32.8339 64.2334 32.6826 65.3379 33.6005L76.7656 43.0976C77.8701 44.0155 78.0214 45.6552 77.1035 46.7597L74.0166 50.4736C73.0987 51.578 71.4589 51.7294 70.3545 50.8115L70.165 50.6532C69.5251 50.6022 68.8712 50.8534 68.4297 51.3847C67.988 51.9162 67.8607 52.6055 68.0283 53.2255L68.2178 53.3827C69.322 54.3006 69.4733 55.9394 68.5557 57.0439L67.0117 58.9023C67.0434 58.9273 67.0743 58.9535 67.1055 58.9794L98.0156 84.6689C100.146 86.4392 100.437 89.6013 98.667 91.7314C96.8968 93.8609 93.7354 94.1525 91.6055 92.3827L60.6953 66.6923C60.6641 66.6664 60.6329 66.6407 60.6025 66.6142L59.0586 68.4716C58.1407 69.5761 56.5009 69.7274 55.3965 68.8095L55.207 68.6523C54.5669 68.6011 53.9123 68.8514 53.4707 69.3827C53.029 69.9142 52.9028 70.6036 53.0703 71.2236L53.2598 71.3808C54.3642 72.2987 54.5155 73.9384 53.5977 75.0429L50.5107 78.7568C49.5928 79.8612 47.9531 80.0126 46.8486 79.0947L35.4219 69.5966C34.3174 68.6787 34.1661 67.0399 35.084 65.9355L38.1699 62.2216C39.0878 61.1171 40.7276 60.9658 41.832 61.8837L42.0215 62.0409C42.6616 62.0922 43.3161 61.8418 43.7578 61.3105C44.1994 60.7791 44.3256 60.0896 44.1582 59.4697L43.9688 59.3124C42.8643 58.3945 42.7131 56.7548 43.6309 55.6503L53.1289 44.2226C54.0468 43.1185 55.6857 42.9671 56.79 43.8847L56.9795 44.0429C57.6196 44.0941 58.2742 43.8429 58.7158 43.3115C59.1573 42.7802 59.2845 42.0914 59.1172 41.4716L58.9277 41.3134C57.8233 40.3955 57.672 38.7567 58.5898 37.6523L61.6768 33.9384Z" fill="url(#paint0_linear_205_6865)"/>
<defs>
<linearGradient id="paint0_linear_205_6865" x1="63.9126" y1="33" x2="63.9126" y2="95.0897" gradientUnits="userSpaceOnUse">
<stop stop-color="#27B0FF"/>
<stop offset="1" stop-color="#177CFF"/>
</linearGradient>
</defs>
</svg>
