<svg width="128" height="128" viewBox="0 0 128 128" fill="none" xmlns="http://www.w3.org/2000/svg">
<path d="M20 23C20 18.0294 24.0294 14 29 14H67.7157C73.0201 14 78.1071 16.1071 81.8579 19.8579L101.142 39.1421C104.893 42.8929 107 47.9799 107 53.2843V104C107 108.971 102.971 113 98 113H29C24.0294 113 20 108.971 20 104V23Z" fill="white"/>
<mask id="mask0_196_2236" style="mask-type:alpha" maskUnits="userSpaceOnUse" x="20" y="16" width="85" height="97">
<path d="M20 16H72.6863C74.808 16 76.8429 16.8429 78.3431 18.3431L102.657 42.6569C104.157 44.1571 105 46.192 105 48.3137V113H20V16Z" fill="white"/>
</mask>
<g mask="url(#mask0_196_2236)">
<path d="M70 11H76L110 45V51H80C74.4772 51 70 46.5228 70 41V11Z" fill="#F8F8F8"/>
<path d="M70 41V11H76L110 45V51H80V48H107V46.2422L74.7578 14H73V41C73 44.866 76.134 48 80 48V51L79.4854 50.9873C74.2017 50.7195 70 46.3502 70 41Z" fill="#CECECE"/>
</g>
<path d="M20 104V23C20 18.1847 23.7817 14.2526 28.5371 14.0117L29 14H67.7158L68.2119 14.0059C73.3362 14.1329 78.2238 16.2241 81.8574 19.8574L101.143 39.1426C104.893 42.8932 107 47.9801 107 53.2842V104L106.988 104.463C106.747 109.218 102.815 113 98 113V110C101.314 110 104 107.314 104 104V53.2842C104 48.7755 102.209 44.4518 99.0205 41.2637L79.7363 21.9795C76.5482 18.7914 72.2245 17 67.7158 17H29C25.6863 17 23 19.6863 23 23V104C23 107.314 25.6863 110 29 110V113L28.5371 112.988C23.935 112.755 20.2449 109.065 20.0117 104.463L20 104ZM98 110V113H29V110H98Z" fill="#CECECE"/>
<path d="M20 69H107V99H20V69Z" fill="#2587C4"/>
<path d="M50 34.5C50 32.0147 47.9853 30 45.5 30C43.0147 30 41 32.0147 41 34.5V40H50V34.5ZM53 41C53 42.0357 52.2128 42.887 51.2041 42.9893L51 43H40L39.7959 42.9893C38.7872 42.887 38 42.0357 38 41V34.5C38 30.3579 41.3579 27 45.5 27C49.6421 27 53 30.3579 53 34.5V41Z" fill="#767676"/>
<path d="M54 40C55.1046 40 56 40.8954 56 42V50C56 51.1046 55.1046 52 54 52H37C35.8954 52 35 51.1046 35 50V42C35 40.8954 35.8954 40 37 40H54ZM45.5 43C44.6716 43 44 43.6716 44 44.5V47.5C44 48.3284 44.6716 49 45.5 49C46.3284 49 47 48.3284 47 47.5V44.5C47 43.6716 46.3284 43 45.5 43Z" fill="#767676"/>
<path d="M89.0137 90V85.1045L84.1621 76.9043H87.2646L89.4883 80.833C89.7871 81.3604 90.0684 81.8877 90.3496 82.415C90.6133 81.8877 90.8945 81.3604 91.1846 80.833L93.3379 76.9043H96.4229L91.6504 85.1045V90H89.0137Z" fill="white"/>
<path d="M77.7812 90.2109C74.1865 90.2109 71.5586 87.6182 71.5586 83.4609C71.5586 79.2773 74.1777 76.6934 77.7812 76.6934C80.8486 76.6934 83.1338 78.5918 83.5469 81.5186H80.8135C80.5059 79.9717 79.3721 79.084 77.8164 79.084C75.5928 79.084 74.2832 80.7803 74.2832 83.4609C74.2832 86.124 75.584 87.8203 77.8164 87.8203C79.3633 87.8203 80.4883 86.9414 80.8223 85.4033H83.5469C83.1338 88.3213 80.8486 90.2109 77.7812 90.2109Z" fill="white"/>
<path d="M70.0293 76.9043V90H67.3223V76.9043H70.0293Z" fill="white"/>
<path d="M57.3027 90V76.9043H60.0098V87.6797H65.96V90H57.3027Z" fill="white"/>
<path d="M49.5859 90.2109C46.0615 90.2109 43.416 87.6094 43.416 83.4609C43.416 79.2861 46.0615 76.6934 49.5859 76.6934C53.1104 76.6934 55.7646 79.2861 55.7646 83.4609C55.7646 87.627 53.1104 90.2109 49.5859 90.2109ZM49.5859 87.8203C51.6074 87.8203 53.04 86.2383 53.04 83.4609C53.04 80.666 51.6074 79.084 49.5859 79.084C47.5645 79.084 46.1406 80.666 46.1406 83.4609C46.1406 86.2383 47.5645 87.8203 49.5859 87.8203Z" fill="white"/>
<path d="M32.4648 90V76.9043H37.6328C40.5771 76.9043 42.4229 78.5654 42.4229 81.2021C42.4229 83.8389 40.542 85.5 37.5977 85.5H35.1719V90H32.4648ZM35.1719 83.2324H37.457C38.8896 83.2324 39.7773 82.4502 39.7773 81.2021C39.7773 79.9541 38.8896 79.1719 37.457 79.1719H35.1719V83.2324Z" fill="white"/>
</svg>
