<svg width="128" height="128" viewBox="0 0 128 128" fill="none" xmlns="http://www.w3.org/2000/svg">
<path d="M4 58.2769C4 33.2444 4 20.7281 11.5055 12.7356C11.9025 12.3128 12.3128 11.9025 12.7356 11.5055C20.7281 4 33.2444 4 58.2769 4H69.7231C94.7556 4 107.272 4 115.264 11.5055C115.687 11.9025 116.097 12.3128 116.495 12.7356C124 20.7281 124 33.2444 124 58.2769V69.7231C124 94.7556 124 107.272 116.495 115.264C116.097 115.687 115.687 116.097 115.264 116.495C107.272 124 94.7556 124 69.7231 124H58.2769C33.2444 124 20.7281 124 12.7356 116.495C12.3128 116.097 11.9025 115.687 11.5055 115.264C4 107.272 4 94.7556 4 69.7231V58.2769Z" fill="#FF6E00"/>
<path fill-rule="evenodd" clip-rule="evenodd" d="M62.8563 29.2129C63.8315 28.0395 65.5734 27.8788 66.7468 28.8541L78.8879 38.9446C80.0613 39.9198 80.222 41.6617 79.2467 42.8351L75.9673 46.7809C74.9921 47.9544 73.2502 48.115 72.0768 47.1398L71.8753 46.9723C71.1953 46.918 70.5003 47.1842 70.0312 47.7487C69.5618 48.3134 69.4273 49.0457 69.6054 49.7045L69.8063 49.8715C70.9797 50.8467 71.1404 52.5886 70.1651 53.762L68.5244 55.7361C68.5581 55.7628 68.5915 55.7899 68.6248 55.8176L101.465 83.1112C103.728 84.992 104.038 88.3513 102.157 90.6144C100.276 92.8774 96.917 93.1873 94.6539 91.3064L61.8137 64.0128C61.7805 63.9852 61.7477 63.9572 61.7153 63.929L60.0746 65.9031C59.0994 67.0765 57.3575 67.2372 56.1841 66.2619L55.9828 66.0947C55.3028 66.0403 54.6077 66.3065 54.1385 66.871C53.6692 67.4356 53.5347 68.1677 53.7126 68.8264L53.914 68.9938C55.0875 69.9691 55.2481 71.7109 54.2729 72.8843L50.9935 76.8302C50.0182 78.0036 48.2764 78.1643 47.1029 77.189L34.9619 67.0986C33.7884 66.1233 33.6278 64.3815 34.603 63.208L37.8824 59.2622C38.8577 58.0887 40.5995 57.9281 41.7729 58.9033L41.9741 59.0705C42.6542 59.1249 43.3494 58.8587 43.8186 58.2941C44.2878 57.7296 44.4224 56.9975 44.2445 56.3389L44.043 56.1714C42.8696 55.1962 42.7089 53.4543 43.6842 52.2809L53.7747 40.1398C54.7499 38.9664 56.4918 38.8057 57.6652 39.781L57.8666 39.9483C58.5467 40.0028 59.2418 39.7366 59.711 39.172C60.1803 38.6073 60.3148 37.8752 60.1368 37.2165L59.9357 37.0493C58.7623 36.0741 58.6016 34.3322 59.5769 33.1588L62.8563 29.2129Z" fill="white"/>
<path d="M27.0769 87.5552H62.0856V96.3074H27.0769V87.5552Z" fill="#A24600"/>
</svg>
