<svg width="128" height="128" viewBox="0 0 128 128" fill="none" xmlns="http://www.w3.org/2000/svg">
<path d="M121.134 53.1523H6.42944C5.08674 53.1523 4 52.0656 4 50.7229C4 49.3802 5.08674 48.2935 6.42944 48.2935H121.134C122.477 48.2935 123.563 49.3802 123.563 50.7229C123.563 52.0656 122.477 53.1523 121.134 53.1523Z" fill="#FBAE3A"/>
<path d="M117.179 66.9995H10.3857C9.04303 66.9995 7.9563 65.9127 7.9563 64.57C7.9563 63.2273 9.04303 62.1406 10.3857 62.1406H117.179C118.522 62.1406 119.608 63.2273 119.608 64.57C119.608 65.9127 118.522 66.9995 117.179 66.9995Z" fill="#FBAE3A"/>
<path d="M111.247 80.8422H16.3203C14.9776 80.8422 13.8909 79.7555 13.8909 78.4128C13.8909 77.0701 14.9776 75.9834 16.3203 75.9834H111.247C112.589 75.9834 113.676 77.0701 113.676 78.4128C113.676 79.7555 112.589 80.8422 111.247 80.8422Z" fill="#FBAE3A"/>
<path d="M30.6133 67.9558V29.0031L64.3693 24.4437L98.1252 29.0031V67.8061C96.8405 77.9391 88.3206 99.9729 64.4803 108.382C41.0796 97.8623 30.6133 83.9957 30.6133 67.9558Z" fill="url(#paint0_linear_72_1285)"/>
<path d="M64.3738 110.995L63.4851 110.599C40.0603 100.07 28.1836 85.725 28.1836 67.9608V26.8878L64.3642 22L100.55 26.8878L100.53 68.1153C99.1489 79.026 90.0011 101.958 65.2867 110.676L64.369 111L64.3738 110.995ZM33.0424 31.1236V67.956C33.0424 83.4163 43.6537 96.1333 64.5863 105.759C86.2724 97.6402 94.4011 77.4514 95.7004 67.6469V31.1236L64.369 26.8926L33.0424 31.1236Z" fill="url(#paint1_linear_72_1285)"/>
<path d="M30.6133 67.9556V39.4741L64.3693 34.9147L98.1252 39.4741V67.8059C96.8405 77.9389 88.3206 99.9727 64.4803 108.382C41.0796 97.8621 30.6133 83.9956 30.6133 67.9556Z" fill="url(#paint2_linear_72_1285)"/>
<path d="M64.3738 110.995L63.4851 110.599C40.0603 100.07 28.1836 85.7254 28.1836 67.9612V37.3545L64.3642 32.4667L100.55 37.3545L100.53 68.1158C99.1489 79.0264 90.0011 101.959 65.2867 110.676L64.369 111L64.3738 110.995ZM33.0424 41.5951V67.9564C33.0424 83.4167 43.6537 96.1337 64.5863 105.76C86.2724 97.6406 94.4011 77.4519 95.7004 67.6473V41.5903L64.369 37.3593L33.0424 41.5903V41.5951Z" fill="url(#paint3_linear_72_1285)"/>
<path d="M62.2488 79.0969C61.5823 79.0969 60.9399 78.8216 60.4811 78.3337L51.6569 68.9687C50.7392 67.9931 50.7827 66.4572 51.7583 65.5395C52.734 64.6218 54.2699 64.6653 55.1875 65.6409L62.1667 73.0451L74.2704 59.0289C75.1446 58.0146 76.6756 57.9035 77.6947 58.7777C78.709 59.6519 78.8201 61.1878 77.9459 62.2021L64.0842 78.2565C63.635 78.7781 62.9878 79.0824 62.2971 79.0969C62.2778 79.0969 62.2633 79.0969 62.244 79.0969H62.2488Z" fill="#FBAE3A"/>
<defs>
<linearGradient id="paint0_linear_72_1285" x1="64.3693" y1="21.995" x2="64.3693" y2="110.99" gradientUnits="userSpaceOnUse">
<stop stop-color="#FFE0A6"/>
<stop offset="1" stop-color="#FFEDC9"/>
</linearGradient>
<linearGradient id="paint1_linear_72_1285" x1="37.0416" y1="94.6457" x2="87.4892" y2="15.1269" gradientUnits="userSpaceOnUse">
<stop stop-color="#F89A3F"/>
<stop offset="1" stop-color="#FCD036"/>
</linearGradient>
<linearGradient id="paint2_linear_72_1285" x1="64.3693" y1="21.9948" x2="64.3693" y2="110.99" gradientUnits="userSpaceOnUse">
<stop stop-color="#FFE6B6"/>
<stop offset="1" stop-color="#FFF1D3"/>
</linearGradient>
<linearGradient id="paint3_linear_72_1285" x1="39.4082" y1="96.1482" x2="89.8558" y2="16.6294" gradientUnits="userSpaceOnUse">
<stop stop-color="#F89A3F"/>
<stop offset="1" stop-color="#FCD036"/>
</linearGradient>
</defs>
</svg>
