<svg width="128" height="128" viewBox="0 0 128 128" fill="none" xmlns="http://www.w3.org/2000/svg">
<path d="M121.134 36.1523H6.42944C5.08674 36.1523 4 35.0656 4 33.7229C4 32.3802 5.08674 31.2935 6.42944 31.2935H121.134C122.477 31.2935 123.563 32.3802 123.563 33.7229C123.563 35.0656 122.477 36.1523 121.134 36.1523Z" fill="#FBAE3A"/>
<path d="M117.179 49.9995H10.3857C9.04303 49.9995 7.9563 48.9127 7.9563 47.57C7.9563 46.2273 9.04303 45.1406 10.3857 45.1406H117.179C118.522 45.1406 119.608 46.2273 119.608 47.57C119.608 48.9127 118.522 49.9995 117.179 49.9995Z" fill="#FBAE3A"/>
<path d="M111.247 63.8422H16.3203C14.9776 63.8422 13.8909 62.7555 13.8909 61.4128C13.8909 60.0701 14.9776 58.9834 16.3203 58.9834H111.247C112.589 58.9834 113.676 60.0701 113.676 61.4128C113.676 62.7555 112.589 63.8422 111.247 63.8422Z" fill="#FBAE3A"/>
<path d="M30.6133 50.9558V12.0031L64.3693 7.44373L98.1252 12.0031V50.8061C96.8405 60.9391 88.3206 82.9729 64.4803 91.3817C41.0796 80.8623 30.6133 66.9957 30.6133 50.9558Z" fill="url(#paint0_linear_72_1402)"/>
<path d="M64.3738 93.9947L63.4851 93.5987C40.0603 83.0696 28.1836 68.725 28.1836 50.9608V9.8878L64.3642 5L100.55 9.8878L100.53 51.1153C99.1489 62.026 90.0011 84.9581 65.2867 93.676L64.369 93.9995L64.3738 93.9947ZM33.0424 14.1236V50.956C33.0424 66.4163 43.6537 79.1333 64.5863 88.7591C86.2724 80.6402 94.4011 60.4514 95.7004 50.6469V14.1236L64.369 9.89263L33.0424 14.1236Z" fill="url(#paint1_linear_72_1402)"/>
<path d="M30.6133 50.9556V22.4741L64.3693 17.9147L98.1252 22.4741V50.8059C96.8405 60.9389 88.3206 82.9727 64.4803 91.3815C41.0796 80.8621 30.6133 66.9956 30.6133 50.9556Z" fill="url(#paint2_linear_72_1402)"/>
<path d="M64.3738 93.9951L63.4851 93.5991C40.0603 83.07 28.1836 68.7254 28.1836 50.9612V20.3545L64.3642 15.4667L100.55 20.3545L100.53 51.1158C99.1489 62.0264 90.0011 84.9585 65.2867 93.6764L64.369 94L64.3738 93.9951ZM33.0424 24.5951V50.9564C33.0424 66.4167 43.6537 79.1337 64.5863 88.7596C86.2724 80.6406 94.4011 60.4519 95.7004 50.6473V24.5903L64.369 20.3593L33.0424 24.5903V24.5951Z" fill="url(#paint3_linear_72_1402)"/>
<path d="M62.2488 62.0969C61.5823 62.0969 60.9399 61.8216 60.4811 61.3337L51.6569 51.9687C50.7392 50.9931 50.7827 49.4572 51.7583 48.5395C52.734 47.6218 54.2699 47.6653 55.1875 48.6409L62.1667 56.0451L74.2704 42.0289C75.1446 41.0146 76.6756 40.9035 77.6947 41.7777C78.709 42.6519 78.8201 44.1878 77.9459 45.2021L64.0842 61.2565C63.635 61.7781 62.9878 62.0824 62.2971 62.0969C62.2778 62.0969 62.2633 62.0969 62.244 62.0969H62.2488Z" fill="#FBAE3A"/>
<path d="M28.1094 124V112.359H32.7031C35.3203 112.359 36.9609 113.836 36.9609 116.18C36.9609 118.523 35.2891 120 32.6719 120H30.5156V124H28.1094ZM30.5156 117.984H32.5469C33.8203 117.984 34.6094 117.289 34.6094 116.18C34.6094 115.07 33.8203 114.375 32.5469 114.375H30.5156V117.984ZM38.2188 124V112.359H42.875C45.5 112.359 47.1406 113.836 47.1406 116.18C47.1406 117.719 46.3672 118.875 45.0625 119.477L47.3984 124H44.8203L42.7578 119.93C42.75 119.93 42.7422 119.93 42.7344 119.93H40.625V124H38.2188ZM40.625 118H42.7344C44 118 44.7891 117.289 44.7891 116.18C44.7891 115.07 44 114.359 42.7266 114.359H40.625V118ZM53.6875 124.188C50.5547 124.188 48.2031 121.875 48.2031 118.188C48.2031 114.477 50.5547 112.172 53.6875 112.172C56.8203 112.172 59.1797 114.477 59.1797 118.188C59.1797 121.891 56.8203 124.188 53.6875 124.188ZM53.6875 122.062C55.4844 122.062 56.7578 120.656 56.7578 118.188C56.7578 115.703 55.4844 114.297 53.6875 114.297C51.8906 114.297 50.625 115.703 50.625 118.188C50.625 120.656 51.8906 122.062 53.6875 122.062ZM59.4062 114.422V112.359H68.8672V114.422H65.3438V124H62.9375V114.422H59.4062ZM70.0938 124V112.359H78.4453V114.422H72.5V117.117H78V119.125H72.5V121.938H78.4453V124H70.0938ZM84.9844 124.188C81.7891 124.188 79.4531 121.883 79.4531 118.188C79.4531 114.469 81.7812 112.172 84.9844 112.172C87.7109 112.172 89.7422 113.859 90.1094 116.461H87.6797C87.4062 115.086 86.3984 114.297 85.0156 114.297C83.0391 114.297 81.875 115.805 81.875 118.188C81.875 120.555 83.0312 122.062 85.0156 122.062C86.3906 122.062 87.3906 121.281 87.6875 119.914H90.1094C89.7422 122.508 87.7109 124.188 84.9844 124.188ZM90.9375 114.422V112.359H100.398V114.422H96.875V124H94.4688V114.422H90.9375Z" fill="black"/>
<defs>
<linearGradient id="paint0_linear_72_1402" x1="64.3693" y1="4.99499" x2="64.3693" y2="93.9898" gradientUnits="userSpaceOnUse">
<stop stop-color="#FFE0A6"/>
<stop offset="1" stop-color="#FFEDC9"/>
</linearGradient>
<linearGradient id="paint1_linear_72_1402" x1="37.0416" y1="77.6457" x2="87.4892" y2="-1.87313" gradientUnits="userSpaceOnUse">
<stop stop-color="#F89A3F"/>
<stop offset="1" stop-color="#FCD036"/>
</linearGradient>
<linearGradient id="paint2_linear_72_1402" x1="64.3693" y1="4.99483" x2="64.3693" y2="93.9896" gradientUnits="userSpaceOnUse">
<stop stop-color="#FFE6B6"/>
<stop offset="1" stop-color="#FFF1D3"/>
</linearGradient>
<linearGradient id="paint3_linear_72_1402" x1="39.4082" y1="79.1482" x2="89.8558" y2="-0.370629" gradientUnits="userSpaceOnUse">
<stop stop-color="#F89A3F"/>
<stop offset="1" stop-color="#FCD036"/>
</linearGradient>
</defs>
</svg>
