<svg width="128" height="128" viewBox="0 0 128 128" fill="none" xmlns="http://www.w3.org/2000/svg">
<path fill-rule="evenodd" clip-rule="evenodd" d="M51.9088 15.5099C62.5824 14.639 73.2379 14.852 83.8469 16.3945C89.9767 17.2839 96.0478 18.4882 101.658 21.2443C103.459 22.1289 105.147 23.3411 106.689 24.6379C108.27 25.9649 109.056 27.7814 108.97 29.9559C108.88 32.2629 108.95 34.5813 108.95 36.8905C108.95 40.6835 108.771 41.1595 106.222 44.0243C106.678 44.5493 107.137 45.0168 107.529 45.5349C108.45 46.7602 109.007 48.0959 108.968 49.6941C108.901 52.39 108.885 55.0888 108.97 57.7824C109.042 60.0567 108.292 61.9214 106.676 63.4754C106.516 63.6306 106.384 63.8131 106.204 64.0238C106.472 64.3086 106.71 64.55 106.936 64.8023C108.234 66.2523 109.053 67.8627 108.968 69.9057C108.876 72.0966 108.851 74.3025 108.973 76.4911C109.137 79.4184 108.599 82.02 106.168 83.9353C106.68 84.5256 107.167 85.0165 107.573 85.5674C108.457 86.7672 109.002 88.0742 108.965 89.6283C108.905 92.2453 108.84 94.8715 108.978 97.4838C109.142 100.588 107.767 102.801 105.412 104.568C102.028 107.109 98.1177 108.494 94.0959 109.545C82.3255 112.625 70.3214 113.317 58.2232 112.882C50.0363 112.588 41.9184 111.7 33.9763 109.576C30.6307 108.682 27.3266 107.617 24.3874 105.745C22.9815 104.851 21.6978 103.712 20.525 102.517C19.4446 101.42 19.0238 99.9563 19.0398 98.3839C19.0652 96.0355 19.1441 93.6793 19.0218 91.3355C18.874 88.4798 19.4413 85.9658 21.8374 84.0827C21.4914 83.6986 21.2149 83.395 20.9427 83.0895C19.6866 81.6905 18.9839 80.0964 19.0347 78.1646C19.0924 75.9712 19.0476 73.7724 19.0476 71.5766C19.0476 67.2877 19.0591 67.2549 21.7626 64.0031C21.5225 63.7344 21.2766 63.4516 21.0226 63.1806C19.7046 61.7724 18.9931 60.1412 19.0347 58.1704C19.0832 55.9379 19.0522 53.7032 19.0476 51.4685C19.0383 47.3572 19.1143 47.1389 21.7626 44.0166C21.3493 43.5418 20.9113 43.0738 20.5095 42.5759C19.5377 41.3669 19.0335 39.9917 19.045 38.4192C19.0635 35.6472 19.108 32.8705 19.0295 30.1008C18.9649 27.81 19.8212 25.9853 21.4351 24.4543C24.1273 21.8972 27.4624 20.5241 30.9003 19.3846C37.7206 17.1193 44.7814 16.0913 51.9088 15.5099ZM26.8368 87.034C26.3504 86.8091 25.9757 86.78 25.6637 86.8633C25.6056 86.8786 25.55 86.8975 25.4961 86.9202C25.4221 86.9516 25.3497 86.9857 25.2821 87.0288C24.9031 87.2688 24.6116 87.6721 24.2713 88.0091C23.5443 88.7269 23.2536 89.6575 24.0238 90.4819C24.7738 91.2853 25.5895 92.171 26.5609 92.5926C29.5411 93.8871 32.5413 95.2378 35.6599 96.0948C44.9437 98.6495 54.4832 99.2328 64.0786 99.4806C69.2826 99.1355 74.503 98.9219 79.6932 98.4124C82.4115 98.1441 85.1142 97.7683 87.7841 97.2432C89.5182 96.9025 91.2387 96.5009 92.9382 96.0094C93.2266 95.9261 93.5147 95.8417 93.8019 95.7534C95.1585 95.3363 96.5028 94.8676 97.8293 94.3308C99.6254 93.6035 101.378 92.6501 102.955 91.5269C104.959 90.1001 104.856 88.6922 102.855 87.2099C102.571 87.0012 102.072 86.8331 101.73 86.8814C101.671 86.8892 101.616 86.9013 101.568 86.9228C100.7 87.3115 99.8264 87.6741 98.9458 88.0091C96.9919 88.7521 95.0069 89.3652 93.0001 89.8844C88.6193 91.0186 84.1298 91.6889 79.6055 92.1787C79.4595 92.1945 79.3132 92.2073 79.1672 92.2227C77.1783 92.4323 75.1896 92.6034 73.2009 92.7322C70.9393 92.8787 68.6781 92.9737 66.4172 93.0142C59.1314 93.1438 51.8509 92.7157 44.5837 91.7002C38.4905 90.8478 32.4635 89.6421 26.8368 87.034ZM103.744 68.0485C103.137 67.4857 102.726 66.3698 101.514 66.9233C100.456 67.4064 99.3868 67.8446 98.3063 68.2425C96.5045 68.9061 94.6731 69.4593 92.8196 69.9289C92.0778 70.1169 91.3325 70.2911 90.5842 70.454C88.3408 70.9424 86.0697 71.3259 83.785 71.6516C83.6786 71.6668 83.5717 71.6781 83.4653 71.693C82.0637 71.8892 80.6621 72.0647 79.26 72.2181C78.306 72.3225 77.3522 72.4179 76.398 72.5026C73.2789 72.7793 70.1591 72.953 67.0386 73.0199C66.2135 73.0375 65.3885 73.0453 64.5634 73.0484C59.7559 73.0666 54.9475 72.8409 50.14 72.3681C48.5372 72.2104 46.9339 72.0237 45.3314 71.812C44.5219 71.7052 43.7138 71.5929 42.9077 71.4706L40.497 71.0748C38.381 70.7005 36.2837 70.2488 34.2135 69.6884C32.4983 69.2242 30.8025 68.6836 29.1315 68.0459C28.8419 67.9354 28.5534 67.821 28.2652 67.7045C27.6591 67.4594 27.0541 67.2039 26.4552 66.9311C26.4281 66.919 26.3983 66.911 26.3675 66.9026C26.3081 66.8863 26.2431 66.8751 26.1742 66.8716C25.8597 66.856 25.4707 66.9647 25.2408 67.1277C23.7854 68.1598 23.3159 69.1451 23.8124 70.1798C23.8571 70.2733 23.9092 70.3675 23.9697 70.4618C24.0996 70.6642 24.2676 70.8673 24.4699 71.0748C24.6473 71.257 24.8505 71.4437 25.0835 71.6309C25.2774 71.7872 25.4726 71.9532 25.674 72.1043C25.8744 72.2555 26.0826 72.3909 26.3057 72.4845C29.0228 73.6239 31.6882 74.9627 34.5023 75.785C37.6036 76.6907 40.7359 77.3666 43.8566 77.8723C44.893 78.0404 45.9282 78.1903 46.9609 78.3224C47.7041 78.4174 48.446 78.503 49.186 78.5811C50.2555 78.6941 51.3208 78.7917 52.3806 78.8733C52.4958 78.8822 52.611 78.8907 52.7261 78.8992C56.2505 79.1604 59.7103 79.2623 63.0447 79.2898C72.0124 79.2666 79.9687 78.7593 87.8305 77.1843C89.185 76.9129 90.5342 76.6192 91.8708 76.2868C92.6561 76.0915 93.4355 75.8784 94.2093 75.6479C94.559 75.5437 94.9068 75.4348 95.2536 75.322C95.802 75.1434 96.3482 74.959 96.8882 74.7555C97.1014 74.6752 97.3134 74.5918 97.5251 74.5072C97.8431 74.3801 98.1595 74.2489 98.4739 74.1114C98.6769 74.0228 98.8784 73.9305 99.0798 73.8373C99.4406 73.6701 99.7997 73.4976 100.155 73.3148C100.508 73.1334 100.86 72.9463 101.207 72.7483C102.25 72.1531 103.186 71.3028 104.015 70.423C104.739 69.652 104.445 68.6993 103.744 68.0485ZM25.9679 46.8463C25.7795 46.8457 25.5944 46.8799 25.4651 46.9575C23.1451 48.3424 23.0319 50.0176 25.1274 51.678C25.6376 52.0811 26.171 52.5031 26.762 52.7463C29.4169 53.8371 32.0335 55.0961 34.7807 55.8812C44.3113 58.6025 54.1103 59.2217 63.2922 59.2981L63.2948 59.3007L63.2974 59.2981L63.3 59.3007C69.2575 59.279 74.7895 59.0374 80.2011 58.3928C81.7168 58.2123 83.2253 58.0083 84.7287 57.7591C87.0518 57.3744 89.3625 56.9334 91.6361 56.3649C94.5256 55.6436 97.3535 54.7102 100.057 53.3671C101.378 52.7116 102.608 51.8022 103.721 50.827C104.686 49.9794 104.611 49.0522 103.778 48.0749C103.736 48.0267 103.689 47.9834 103.646 47.9352C103.544 47.8186 103.44 47.7011 103.329 47.5912C103.127 47.3924 102.912 47.2092 102.677 47.0739C102.564 47.0094 102.422 46.96 102.274 46.9239C102.024 46.8617 101.755 46.8468 101.568 46.9317C98.7603 48.1958 95.8801 49.1586 92.9511 49.914C92.4472 50.0438 91.9417 50.166 91.435 50.2839C88.255 51.0245 85.0227 51.5382 81.7662 51.9393C81.0487 52.0276 80.3301 52.1142 79.6107 52.1928C68.5792 53.3948 57.5376 53.3484 46.52 51.9703C39.6495 51.1133 32.8709 49.8351 26.499 46.9472C26.3537 46.8826 26.1612 46.8469 25.9731 46.8463H25.9679ZM65.1203 19.5837C55.2107 19.5976 46.4152 20.2068 37.7639 22.1988C33.6408 23.1483 29.5706 24.2952 25.9576 26.6063C24.1383 27.7694 23.3587 28.8791 23.6577 29.9559C23.8701 30.7264 24.6306 31.4813 25.9731 32.2244C28.6046 33.6786 31.4378 34.8742 34.314 35.7473C41.9285 38.0611 49.8012 38.8633 57.7204 39.1667C61.7695 39.3223 65.812 39.3543 69.8413 39.2107C69.8885 39.209 69.9358 39.2073 69.9831 39.2055C71.9795 39.1323 73.9728 39.0182 75.9623 38.8512C76.6339 38.7948 77.3052 38.7331 77.976 38.6649C82.0049 38.2558 86.0168 37.6291 90.0066 36.7328C94.2456 35.7808 98.4318 34.6109 102.135 32.2114C102.607 31.906 102.998 31.6032 103.321 31.3113C103.614 31.0469 103.847 30.7902 104.017 30.5327C104.301 30.1044 104.415 29.6865 104.363 29.2627C104.263 28.4324 103.526 27.5918 102.146 26.6761C99.3222 24.8051 96.1499 23.7522 92.9227 22.879C83.4725 20.3242 73.8019 19.6275 65.1229 19.5812L65.1203 19.5837Z" fill="black"/>
</svg>
