<svg width="128" height="128" viewBox="0 0 128 128" fill="none" xmlns="http://www.w3.org/2000/svg">
<path d="M81.4729 42.0719L81.1788 44.9685L52.1902 73.9569L54.1929 75.9596L83.1815 46.9712L86.0894 46.677L92.4596 38.7001L89.4499 35.6904L81.4729 42.0719Z" fill="#6B6B6B"/>
<path d="M54.2944 79.0706L59.0805 77.0226L61.1851 74.9181L53.2308 66.9752L51.1375 69.0684L49.0896 73.8545L47.7205 72.4854L35.6362 84.5696L43.5906 92.5125L55.6635 80.4397L54.2944 79.0706Z" fill="url(#paint0_linear_200_5749)" stroke="url(#paint1_linear_200_5749)" stroke-width="2.5" stroke-miterlimit="10"/>
<path d="M41.5574 84.598L43.5576 86.5981L49.4142 80.7416L47.414 78.7414L41.5574 84.598Z" fill="#5B92FF"/>
<path d="M57.3379 50.5805L57.9036 43.6106L52.0199 37.7269L44.9934 38.3606L50.2321 43.5993L43.5338 50.2976L38.295 45.0589L37.6614 52.0853L43.5451 57.969L50.515 57.4033L82.1852 89.0732C84.0635 90.9515 87.1185 90.9515 88.9967 89.0732C90.875 87.195 90.875 84.14 88.9967 82.2617L57.3265 50.5918L57.3379 50.5805Z" fill="#D3D3D3" stroke="#6B6B6B" stroke-width="2.5" stroke-miterlimit="10" stroke-linecap="round"/>
<path d="M53.9365 48.9895L51.9363 46.9893L46.9358 51.9898L48.936 53.99L53.9365 48.9895Z" fill="#666666"/>
<path d="M56.8159 54.871L54.8157 56.8712L81.2423 83.2975L83.2425 81.2974L56.8159 54.871Z" fill="#C2C2C2"/>
<path d="M85.5696 87.0479C86.3508 87.0479 86.984 86.4146 86.984 85.6335C86.984 84.8524 86.3508 84.2192 85.5696 84.2192C84.7885 84.2192 84.1553 84.8524 84.1553 85.6335C84.1553 86.4146 84.7885 87.0479 85.5696 87.0479Z" fill="#666666"/>
<path d="M47.1999 117.824L49.8363 109.689C50.1871 108.614 51.5109 108.218 52.3934 108.942L61.4566 116.376C62.5881 117.303 61.9884 119.148 60.5288 119.227L48.8293 119.917C47.6978 119.985 46.8492 118.887 47.1999 117.812V117.824Z" fill="#C2C2C2"/>
<path d="M80.2059 10.1189L77.5695 18.2541C77.2188 19.329 75.8949 19.7251 75.0124 19.0009L65.9492 11.5671C64.8177 10.6393 65.4174 8.79503 66.877 8.71582L78.5765 8.003C79.708 7.93511 80.5566 9.03264 80.2059 10.1075V10.1189Z" fill="#C2C2C2"/>
<path d="M56.2183 12.6424C31.1899 16.4215 12 38.0213 12 64.1018C12 90.1823 31.1899 111.782 56.2183 115.561" stroke="#C2C2C2" stroke-width="2.5" stroke-miterlimit="10" stroke-linecap="round"/>
<path d="M71.8772 115.561C96.9056 111.782 116.096 90.1823 116.096 64.1018C116.096 38.0213 96.9056 16.4215 71.8772 12.6424" stroke="#C2C2C2" stroke-width="2.5" stroke-miterlimit="10" stroke-linecap="round"/>
<defs>
<linearGradient id="paint0_linear_200_5749" x1="38.0289" y1="69.725" x2="67.1423" y2="81.5562" gradientUnits="userSpaceOnUse">
<stop stop-color="white"/>
<stop offset="1" stop-color="#AAD6FF"/>
</linearGradient>
<linearGradient id="paint1_linear_200_5749" x1="31.4441" y1="61.1323" x2="71.1475" y2="81.0539" gradientUnits="userSpaceOnUse">
<stop stop-color="#37A8FF"/>
<stop offset="1" stop-color="#0856FF"/>
</linearGradient>
</defs>
</svg>
