<svg width="128" height="128" viewBox="0 0 128 128" fill="none" xmlns="http://www.w3.org/2000/svg">
<path d="M29.4538 59.6573C30.9343 63.3952 33.9837 65.535 37.3991 67.2207C42.3683 69.6834 47.704 70.8862 53.1715 71.6045C58.3313 72.2788 63.506 72.2933 68.651 71.8243C74.8077 71.2672 80.8327 69.9473 86.4323 67.1768C88.631 66.0921 90.7125 64.7875 92.2956 62.8526C93.0871 61.8998 93.7034 60.8005 94.3336 59.8477V60.4786C94.3336 63.073 94.2603 65.6527 94.3629 68.2471C94.4509 70.5484 93.5123 72.3661 92.0319 73.9786C89.9797 76.2213 87.4146 77.7023 84.6735 78.9043C79.6016 81.1031 74.2359 82.2761 68.7389 82.6719C65.0746 82.9357 61.3808 83.0968 57.7311 82.9063C51.3106 82.5838 45.0067 81.4843 39.0553 78.9043C36.6955 77.8783 34.4823 76.588 32.5622 74.8584C30.3635 72.8796 29.1755 70.461 29.2633 67.4414C29.3513 64.8615 29.278 62.2665 29.278 59.6866L29.4538 59.6573ZM94.3249 45.9776C94.3249 48.4256 94.2369 50.8743 94.3542 53.3077C94.4567 55.6676 93.401 57.456 91.8913 59.0684C89.2967 61.8389 85.9689 63.4513 82.4508 64.6973C76.5875 66.7641 70.5478 67.8633 64.3327 67.8633C60.4923 67.8633 56.6369 67.8197 52.8258 67.3799C46.8599 66.7056 41.0696 65.2541 35.8366 62.1758C33.2862 60.6807 30.9995 58.8485 29.8268 56.0049C29.6363 55.5506 29.446 55.0374 29.446 54.5537C29.4167 51.2754 29.4303 47.9967 29.4303 44.6162C31.2806 48.7157 34.703 50.966 38.5338 52.6768C44.1627 55.1834 50.1146 56.3415 56.2272 56.8252C61.167 57.221 66.0921 57.1333 70.9879 56.4737C76.7341 55.6968 82.3486 54.377 87.4792 51.5332C89.8829 50.1994 92.0524 48.5288 93.5182 46.125C93.6648 45.8758 93.8121 45.6262 93.9294 45.3623C94.0466 45.1279 94.1344 44.8781 94.3249 44.4385V45.9776ZM94.3385 30.2911C94.3385 32.8563 94.2506 35.4221 94.3678 37.9873C94.4703 40.3179 93.5329 42.165 92.0377 43.8067C90.0003 46.0493 87.4496 47.5588 84.6794 48.7315C79.6808 50.857 74.4175 51.942 69.0377 52.5137C62.9253 53.1586 56.827 52.9685 50.7585 51.9864C46.0386 51.2241 41.4653 49.9926 37.1706 47.8379C35.0159 46.7532 33.0808 45.3752 31.4684 43.543C29.9146 41.784 29.2692 39.7312 29.2985 37.4151C29.3278 34.806 29.2985 32.197 29.2985 29.5879L29.4889 29.544H29.5036C30.9255 33.0326 33.726 35.1288 36.9069 36.7852C41.5828 39.233 46.6545 40.435 51.8288 41.2559C56.9299 42.0621 62.0459 42.0764 67.1618 41.7539C73.8314 41.3435 80.3402 40.01 86.3942 37.0049C89.1939 35.6124 91.7446 33.8827 93.445 31.1563C93.6062 30.8924 93.7671 30.6135 93.8991 30.335C94.031 30.0565 94.148 29.763 94.3385 29.3086V30.2911ZM29.4313 44.5996C29.4313 44.605 29.4303 44.6109 29.4303 44.6162C29.4257 44.606 29.4213 44.5953 29.4167 44.585L29.4313 44.5996ZM55.2282 9.30277C61.59 8.74574 67.9377 8.93577 74.2262 10.0498C79.1808 10.9294 83.9742 12.337 88.2838 15.0196C89.5883 15.8257 90.8193 16.808 91.904 17.8926C95.2167 21.2054 95.2321 25.3541 92.0221 28.7989C89.6474 31.3641 86.6415 32.9621 83.4313 34.1787C76.5126 36.7879 69.3301 37.8429 61.5612 37.6817C55.478 37.8869 49.1308 37.0228 42.945 35.0733C39.3096 33.9299 35.8054 32.4345 32.9176 29.8692C32.0089 29.063 31.1739 28.11 30.4997 27.084C28.638 24.2402 29.1512 20.7949 31.6579 18.1123C33.754 15.8404 36.3485 14.3309 39.1481 13.1289C44.2785 10.9302 49.6874 9.80118 55.2282 9.30277Z" fill="#8E8E8E"/>
<path d="M36.7959 95.813C38.042 95.813 39.2588 95.9446 40.4902 96.1938C41.7216 96.4431 42.8215 96.7804 43.7891 97.2202V101.97H43.3193C42.5424 101.311 41.6044 100.753 40.4756 100.298C39.3615 99.8439 38.2323 99.6099 37.0449 99.6099C36.5906 99.6099 36.1799 99.6391 35.8135 99.7124C35.4471 99.7711 35.0656 99.9027 34.6699 100.093C34.3475 100.24 34.0548 100.46 33.8203 100.768C33.5859 101.061 33.4679 101.383 33.4678 101.75C33.4678 102.277 33.659 102.702 34.0254 103.025C34.4065 103.333 35.1398 103.612 36.2246 103.861C36.9281 104.022 37.5876 104.168 38.2324 104.315C38.8921 104.462 39.5815 104.667 40.3145 104.931C41.751 105.459 42.8354 106.163 43.5244 107.042C44.228 107.922 44.5947 109.08 44.5947 110.531C44.5947 112.598 43.7737 114.269 42.1465 115.53C40.5193 116.79 38.3351 117.421 35.5645 117.421V117.377C33.9666 117.377 32.5741 117.23 31.3574 116.922C30.1553 116.615 29.0408 116.233 28 115.779V110.825H28.4697C29.5104 111.704 30.6683 112.393 31.9287 112.862C33.1894 113.331 34.4064 113.581 35.5938 113.581C35.9016 113.581 36.2829 113.551 36.7666 113.478C37.265 113.419 37.6609 113.316 37.9541 113.169C38.3205 113.008 38.6288 112.789 38.8779 112.51C39.1271 112.217 39.2588 111.85 39.2588 111.381C39.2588 110.854 39.0538 110.428 38.6436 110.106C38.2331 109.783 37.7485 109.548 37.1768 109.387C36.4733 109.197 35.7112 109.021 34.9053 108.86C34.0991 108.699 33.351 108.494 32.6621 108.245C31.0496 107.673 29.8912 106.91 29.1875 105.958C28.4839 104.99 28.1319 103.788 28.1318 102.351C28.1318 100.401 28.9529 98.8325 30.6094 97.6304C32.2659 96.4136 34.3185 95.813 36.7959 95.813ZM75.2197 100.157H66.3359V103.807H74.5156V107.78H66.3359V113.042H75.2197V117.015H61.1318V96.1841H75.2197V100.157ZM57.6436 99.8198H54.6533V113.366H57.6436V117H46.4297V113.366H49.4199V99.8198H46.4297V96.1841H57.6436V99.8198ZM89.3721 106.46L93.9746 96.1841H100V117H94.8105V103.191L91.0137 112.105H87.4512L83.6543 103.191V117H78.7285V96.1841H84.7539L89.3721 106.46Z" fill="black"/>
</svg>
