<svg width="128" height="128" viewBox="0 0 128 128" fill="none" xmlns="http://www.w3.org/2000/svg">
<path fill-rule="evenodd" clip-rule="evenodd" d="M64.3373 14C76.7167 14 88.3505 15.6016 97.1018 18.5184C101.353 19.9414 104.7 21.5974 107.03 23.4295C109.448 25.3324 110.675 27.3604 110.675 29.4411C110.675 31.3248 109.662 33.1571 107.678 34.9006C107.508 35.8137 107.015 36.5442 106.393 37.2253C100.933 43.0774 95.4542 48.9301 89.9934 54.7822C85.707 59.371 81.4395 63.9787 77.1353 68.5497C76.655 69.0478 76.5126 69.565 76.5126 70.2587V108.752C76.5122 111.508 75.1239 113.215 72.67 113.518C71.4604 113.66 70.357 113.339 69.5032 112.414C62.229 106.438 58.8844 103.913 53.5845 98.2217C52.6951 97.279 52.4275 96.067 52.4275 94.7507C52.4275 84.6839 52.4274 80.3081 52.4452 70.2233C52.4452 69.5296 52.2495 69.0301 51.7871 68.532C42.0396 58.1264 32.3082 47.6841 22.5785 37.2607C21.8825 36.513 21.1863 35.5727 20.6537 34.5963C18.8948 32.9451 18 31.2137 18 29.4411C18.0001 27.3601 19.2292 25.3326 21.648 23.4295C23.9959 21.5974 27.3218 19.9414 31.5729 18.5184C40.3241 15.6013 51.9576 14.0001 64.3373 14ZM64.3373 21.3844C52.9007 21.3845 41.8198 22.8954 33.9046 25.5277C30.5605 26.6483 27.8204 27.9659 26.2017 29.2288L25.9364 29.4411H25.9541C25.9643 29.4502 26.1163 29.5845 26.2194 29.6534C27.8381 30.9341 30.5782 32.2516 33.9223 33.3544C41.8197 35.9868 52.9183 37.4976 64.355 37.4977C75.7924 37.4977 86.8937 35.987 94.7913 33.3544C98.1351 32.2338 100.876 30.9162 102.476 29.6534C102.582 29.5826 102.671 29.5118 102.742 29.4411C102.671 29.3703 102.583 29.2996 102.476 29.2288C100.858 27.9659 98.1353 26.6483 94.7737 25.5277C86.876 22.8952 75.7748 21.3844 64.3373 21.3844Z" fill="black"/>
</svg>
