<svg width="128" height="128" viewBox="0 0 128 128" fill="none" xmlns="http://www.w3.org/2000/svg">
<rect x="35.9492" y="19.75" width="56.05" height="88.5" fill="#70CDFF"/>
<path d="M94.7064 115.552C94.7064 119.709 91.816 123 87.6481 123H39.9609C35.8039 123 33 119.709 33 115.552V12.6213C33 8.46422 35.793 5 39.9609 5H87.6589C91.816 5 94.7173 8.46422 94.7173 12.6213V115.552H94.7064ZM90.3762 21.2385H37.3303V106.761H90.3762V21.2385ZM63.8099 110.031C61.2875 110.031 59.2523 112.077 59.2523 114.588C59.2523 117.1 61.2875 119.146 63.8099 119.146C66.3323 119.146 68.3675 117.1 68.3675 114.588C68.3675 112.077 66.3323 110.031 63.8099 110.031ZM76.3028 13.8338C76.3028 13.1409 75.7398 12.578 75.047 12.578H52.6595C51.9666 12.578 51.4037 13.1409 51.4037 13.8338V14.5699C51.4037 15.2628 51.9666 15.8257 52.6595 15.8257H75.047C75.7398 15.8257 76.3028 15.2628 76.3028 14.5699V13.8338Z" fill="#637A92"/>
<path d="M90.2131 106.761H37.3296V21.2384L90.2131 106.761Z" fill="#09A8FD"/>
</svg>
