<svg width="128" height="128" viewBox="0 0 128 128" fill="none" xmlns="http://www.w3.org/2000/svg">
<path d="M114.997 84.5784C117.366 85.5344 117.532 88.825 115.272 90.0149L66.794 115.53C65.0448 116.45 62.9542 116.45 61.2051 115.53L12.7276 90.0149C10.4672 88.8251 10.6335 85.5347 13.002 84.5784L25.2823 79.6224L61.2051 98.5296C62.9542 99.4501 65.0448 99.45 66.794 98.5296L102.716 79.6224L114.997 84.5784ZM114.997 57.5784C117.366 58.5344 117.532 61.825 115.272 63.0149L66.794 88.5296C65.0448 89.45 62.9542 89.4501 61.2051 88.5296L12.7276 63.0149C10.4672 61.8251 10.6335 58.5347 13.002 57.5784L25.2823 52.6224L61.2051 71.5296C62.9542 72.4501 65.0448 72.45 66.794 71.5296L102.716 52.6224L114.997 57.5784ZM61.7549 10.9056C63.1952 10.3244 64.8049 10.3245 66.2451 10.9056L114.997 30.5774C117.366 31.5334 117.533 34.8249 115.272 36.0149L66.7949 61.5296C65.0457 62.4502 62.9543 62.4502 61.2051 61.5296L12.7276 36.0149C10.467 34.8249 10.6338 31.5334 13.003 30.5774L61.7549 10.9056Z" fill="white"/>
</svg>
