<svg width="128" height="128" viewBox="0 0 128 128" fill="none" xmlns="http://www.w3.org/2000/svg">
<path d="M114.997 84.5778C117.366 85.5338 117.532 88.8244 115.271 90.0143L66.7939 115.529C65.0448 116.449 62.9542 116.45 61.2051 115.529L12.7275 90.0143C10.4673 88.8243 10.6333 85.5339 13.002 84.5778L25.2822 79.6217L61.2051 98.5289C62.9542 99.4495 65.0448 99.4494 66.7939 98.5289L102.716 79.6217L114.997 84.5778ZM114.997 57.5778C117.366 58.5338 117.532 61.8244 115.271 63.0143L66.7939 88.5289C65.0448 89.4494 62.9542 89.4495 61.2051 88.5289L12.7275 63.0143C10.4673 61.8243 10.6333 58.5339 13.002 57.5778L25.2822 52.6217L61.2051 71.5289C62.9542 72.4495 65.0448 72.4494 66.7939 71.5289L102.716 52.6217L114.997 57.5778ZM61.7549 10.9059C63.1952 10.3247 64.8048 10.3247 66.2451 10.9059L114.997 30.5778C117.366 31.5337 117.533 34.8242 115.272 36.0143L66.7949 61.5289C65.0457 62.4496 62.9543 62.4496 61.2051 61.5289L12.7275 36.0143C10.4672 34.8242 10.6339 31.5337 13.0029 30.5778L61.7549 10.9059Z" fill="#CE6706"/>
</svg>
