<svg width="128" height="128" viewBox="0 0 128 128" fill="none" xmlns="http://www.w3.org/2000/svg">
<path d="M48.3423 64.6665C48.2401 61.1924 51.0391 58.4004 54.6933 58.34C57.8307 58.2906 60.6954 61.0847 60.7746 64.2698C60.863 67.7799 58.0444 70.6723 54.5088 70.7025C51.27 70.7289 48.4395 67.959 48.3423 64.6665Z" fill="#CE6706"/>
<path fill-rule="evenodd" clip-rule="evenodd" d="M10.0025 28.4148C10.0025 25.7106 10.7203 25 13.4157 25L115.577 25C118.278 25 118.997 25.7082 118.998 28.4006C119.001 52.4307 119.001 76.463 118.998 100.493C118.998 103.296 118.297 104 115.506 104L13.3376 104C10.7611 103.997 10.0025 103.249 10.0025 100.67C9.99918 76.5841 9.99918 52.501 10.0025 28.4148ZM106.622 33.5511C106.588 35.5817 108.139 37.216 110.17 37.2917C112.287 37.3692 113.987 35.78 114.03 33.6928C114.068 31.6658 112.519 30.0287 110.482 29.9521C108.361 29.8731 106.662 31.4563 106.622 33.5511ZM106.622 95.3993C106.632 97.4315 108.217 99.0182 110.262 99.0479C112.378 99.0793 114.031 97.4595 114.023 95.3639C114.013 93.3284 112.432 91.7379 110.383 91.7083C108.269 91.6763 106.613 93.299 106.622 95.3993ZM28.2109 46.0766C18.0417 60.3744 21.4979 80.4963 35.9172 90.6668C51.2676 101.493 69.3849 96.046 77.4148 86.9191C77.0223 86.5569 76.6321 86.1837 76.2297 85.8281C72.7295 82.755 69.2129 79.7024 65.7489 76.5898C65.0368 75.9478 64.3509 75.153 63.9749 74.2873C63.0117 72.0645 64.4139 69.9323 66.8346 69.9941C67.877 70.0204 68.9883 70.414 69.9285 70.908C74.4346 73.2825 78.8924 75.7507 83.4677 78.2405C89.6137 67.3121 87.8268 48.6345 73.2423 38.3119C58.6276 27.9664 38.6326 31.4262 28.2109 46.0766ZM14.9768 33.6219C14.9768 35.6508 16.5608 37.2522 18.6029 37.2917C20.7166 37.3342 22.3841 35.7156 22.385 33.6219C22.385 31.5897 20.8011 29.9916 18.759 29.9521C16.6422 29.9134 14.9742 31.5283 14.9768 33.6219ZM14.9768 95.3568C14.9636 97.4539 16.6212 99.0759 18.7377 99.0479C20.7823 99.0183 22.3668 97.4337 22.378 95.3993C22.3879 93.3012 20.735 91.6716 18.6171 91.7012C16.5693 91.7317 14.9902 93.3188 14.9768 95.3568Z" fill="#CE6706"/>
</svg>
