<svg width="128" height="128" viewBox="0 0 128 128" fill="none" xmlns="http://www.w3.org/2000/svg">
<path d="M65.8933 101H61.116L61.116 75.5625H65.8933V101ZM65.8933 52.4375H61.116V27H65.8933V52.4375Z" fill="#CF8900"/>
<path d="M37.8147 36.2896C38.2084 35.9823 38.783 36.2628 38.7834 36.7623V57.2222H89.2004V70.7779L38.7834 70.7779V91.2359C38.7834 91.7359 38.2085 92.0165 37.8147 91.7086L3.38399 64.7877C2.872 64.3873 2.87201 63.6119 3.38399 63.2115L37.8147 36.2896ZM89.217 36.7623C89.2174 36.2628 89.792 35.9824 90.1858 36.2896L124.616 63.2115C125.128 63.6119 125.128 64.3873 124.616 64.7877L90.1858 91.7086C89.7919 92.0165 89.217 91.7359 89.217 91.2359V36.7623Z" fill="url(#paint0_linear_198_2741)"/>
<rect x="83.5967" y="57.2218" width="5.60081" height="13.556" fill="#E49F17"/>
<rect x="38.7969" y="57.2218" width="5.60081" height="13.556" fill="#DB950C"/>
<defs>
<linearGradient id="paint0_linear_198_2741" x1="56.8763" y1="90.8611" x2="92.0362" y2="8.66885" gradientUnits="userSpaceOnUse">
<stop stop-color="#DC9100"/>
<stop offset="1" stop-color="#FFC961"/>
</linearGradient>
</defs>
</svg>
