<svg width="128" height="128" viewBox="0 0 128 128" fill="none" xmlns="http://www.w3.org/2000/svg">
<path d="M60.183 99.3151C52.9044 106.593 41.6648 107.497 33.4034 102.024L18.0549 117.373L12.0369 111.355L27.3847 96.0067C21.9101 87.7451 22.8123 76.5031 30.0916 69.2237L39.2805 60.0347L45.3158 66.07L54.194 57.1918L60.212 63.2098L51.3338 72.088L57.3463 78.1005L66.2182 69.2285L72.2362 75.2465L63.3643 84.1185L69.3719 90.1261L60.183 99.3151Z" fill="black"/>
<path d="M57.1757 42.1437L69.2117 30.1077C76.4957 22.8237 87.7467 21.9257 96.0099 27.4119L111.369 12.0523L117.388 18.071L102.023 33.4361C107.483 41.696 106.577 52.9255 99.3031 60.1991L87.2671 72.2351L57.1757 42.1437Z" fill="black"/>
</svg>
