<svg width="128" height="128" viewBox="0 0 128 128" fill="none" xmlns="http://www.w3.org/2000/svg">
<path d="M60.183 99.315C52.9044 106.593 41.6648 107.496 33.4034 102.024L18.0549 117.372L12.0369 111.354L27.3847 96.0067C21.9101 87.745 22.8123 76.503 30.0916 69.2236L39.2805 60.0347L45.3158 66.07L54.194 57.1918L60.212 63.2098L51.3338 72.088L57.3463 78.1004L66.2182 69.2285L72.2362 75.2465L63.3643 84.1184L69.3719 90.1261L60.183 99.315Z" fill="white"/>
<path d="M57.1757 42.1436L69.2117 30.1076C76.4957 22.8236 87.7467 21.9256 96.0099 27.4118L111.369 12.0522L117.388 18.0709L102.023 33.436C107.483 41.6959 106.577 52.9254 99.3031 60.199L87.2671 72.235L57.1757 42.1436Z" fill="white"/>
</svg>
