<svg width="128" height="128" viewBox="0 0 128 128" fill="none" xmlns="http://www.w3.org/2000/svg">
<path d="M91.5869 12C100.327 12 107.412 19.0856 107.412 27.8262C107.412 36.5667 100.327 43.6523 91.5869 43.6523C87.6172 43.6523 83.989 42.1901 81.2109 39.7754L48.168 60.1094C48.4826 61.3541 48.6504 62.6575 48.6504 64C48.6504 65.3408 48.4828 66.6425 48.1689 67.8857L81.2119 88.2217C83.9897 85.808 87.6181 84.3477 91.5869 84.3477C100.327 84.3477 107.412 91.4333 107.412 100.174C107.412 108.914 100.327 116 91.5869 116C82.847 116 75.7617 108.914 75.7617 100.174C75.7617 98.8261 75.9301 97.5177 76.2471 96.2686L43.2119 75.9385C40.4323 78.3592 36.8005 79.8262 32.8252 79.8262C24.0852 79.8262 17 72.7405 17 64C17.0001 55.2595 24.0852 48.1738 32.8252 48.1738C36.8007 48.1738 40.4332 49.6406 43.2129 52.0615L76.2471 31.7314C75.9301 30.4823 75.7617 29.1739 75.7617 27.8262C75.7617 19.0857 82.847 12.0002 91.5869 12Z" fill="black"/>
</svg>
