<svg width="128" height="128" viewBox="0 0 128 128" fill="none" xmlns="http://www.w3.org/2000/svg">
<g clip-path="url(#clip0_72_1456)">
<path d="M22.8874 59.2035C22.7619 58.4728 22.9368 58.0964 23.7526 58.1996C24.035 58.2354 24.3265 58.2035 24.6178 58.2035C26.2447 58.2035 26.2091 58.213 26.5632 60.0101C27.8318 66.4655 30.4905 72.2713 34.7223 77.3236C40.2273 83.9 47.1804 88.1501 55.5231 90.1361C55.9399 90.2391 56.3661 90.3238 56.7829 90.4134C57.4418 90.5567 58.4772 90.3734 58.6657 90.9154C58.966 91.7895 58.8353 92.8299 58.777 93.7982C58.7367 94.4213 58.1586 94.1655 57.8268 94.1117C53.0976 93.3496 48.579 91.911 44.3698 89.6204C36.5023 85.3348 30.5798 79.1618 26.6169 71.1195C24.7609 67.3448 23.5957 63.3457 22.8874 59.2035ZM102.508 58.1898C105.328 58.1046 105.306 58.0826 104.786 60.8665C103.23 69.1552 99.4107 76.2827 93.5114 82.2494C87.0785 88.754 79.2512 92.6498 70.2272 94.1292C69.5234 94.2458 69.0882 94.1382 69.2048 93.2865C69.2406 93.0041 69.2096 92.7126 69.2096 92.4212V92.4173C69.2096 90.7542 69.2182 90.798 70.9977 90.4574C77.3097 89.2425 83.0125 86.6607 87.984 82.5902C94.7352 77.0583 99.1197 70.0245 101.132 61.516C101.33 60.6777 101.536 59.835 101.643 58.9788C101.715 58.405 101.908 58.2077 102.508 58.1898ZM69.1872 14.1322C69.2723 11.6534 69.2141 11.6398 71.6169 12.1195C80.2823 13.8364 87.7643 17.791 93.9059 24.1478C100.043 30.5 103.724 38.1206 105.149 46.8353C105.275 47.6107 105.028 47.9114 104.253 47.8128C103.97 47.777 103.674 47.8079 103.387 47.8079H103.382C101.773 47.8079 101.818 47.7991 101.486 46.1898C98.5631 32.2839 90.5212 22.6415 77.3327 17.3382C75.0957 16.4372 72.7644 15.782 70.3571 15.4906C69.5233 15.3875 69.1513 15.1005 69.1872 14.1322ZM57.7809 11.8812C58.5923 11.7467 58.9381 11.9759 58.8171 12.8187C58.7813 13.065 58.8121 13.3202 58.8122 13.5755H58.8171C58.8171 15.2835 58.8078 15.235 57.1491 15.5443C50.5683 16.7816 44.6777 19.5113 39.5583 23.8372C32.4573 29.8399 28.0859 37.4388 26.5124 46.6019C26.3016 47.8298 25.7015 47.8386 24.7692 47.8206C22.725 47.7758 22.7157 47.8031 23.0788 45.7904C24.6344 37.2414 28.4498 29.8443 34.569 23.6937C40.9974 17.234 48.7974 13.374 57.7809 11.8812Z" fill="#FFEBC3"/>
<path d="M50.839 33.9557C51.9059 33.9871 53.0311 34.525 53.865 35.5471C54.4343 36.2465 54.9319 36.2689 55.6806 35.834C56.4203 35.4037 57.2451 35.0988 58.07 34.8433C58.6662 34.6595 58.8231 34.3726 58.8321 33.7674C58.8724 30.2662 60.4549 28.7421 63.974 28.7421C66.8834 28.7421 68.551 29.809 69.089 32.0729C69.219 32.6243 69.2369 33.2205 69.201 33.7898C69.1607 34.4129 69.4117 34.6595 69.9811 34.8478C70.9001 35.1526 71.8146 35.5202 72.6618 35.9865C73.2312 36.2958 73.5495 36.2061 73.944 35.7533C75.2978 34.2067 77.0013 33.3909 78.9559 34.2561C80.9822 35.1526 82.5915 36.6589 83.0129 38.9855C83.2774 40.429 82.7574 41.738 81.6411 42.675C80.7894 43.3878 80.6818 44.0154 81.2915 44.9344C81.6591 45.4948 81.8878 46.1762 82.0447 46.8351C82.233 47.6062 82.605 47.911 83.3985 47.8169C84.0396 47.7452 84.6895 47.8079 85.3216 48.0231C87.0072 48.5969 88.1907 50.1346 88.2714 51.9143C88.2893 52.385 88.2804 52.8512 88.2804 53.3219C88.2804 56.4913 86.5813 58.2262 83.4119 58.1769C82.5691 58.168 82.215 58.4369 81.9908 59.2125C81.7756 59.9701 81.4753 60.7277 81.0628 61.3912C80.619 62.104 80.8298 62.5074 81.3588 63.0319C83.672 65.3227 83.6226 67.6449 81.3588 69.9984C79.9198 71.4957 78.3731 72.4999 76.1944 71.8409C75.2216 71.545 74.4999 70.8905 73.8544 70.1553C73.4464 69.6891 73.0967 69.6622 72.5542 69.9401C71.7249 70.3615 70.8507 70.7202 69.9631 71.0115C69.3893 71.1998 69.1562 71.4688 69.201 72.083C69.2503 72.8002 69.2504 73.522 69.0173 74.2258C68.4479 75.9741 66.9103 77.1756 65.0768 77.2563C64.7181 77.2697 64.355 77.2607 63.9919 77.2607C60.4235 77.2607 58.8455 75.7231 58.8276 72.1502C58.8276 71.5181 58.6931 71.1147 58.0251 71.016C57.9175 71.0026 57.8055 70.9802 57.7114 70.9309C55.9585 69.9401 54.3581 69.3439 52.7218 71.3567C51.9911 72.2578 50.5745 72.2219 49.3506 71.8723C46.5174 71.0609 44.3926 67.6718 45.1681 65.1927C45.473 64.2199 46.1096 63.4892 46.8492 62.8526C47.3199 62.4447 47.4096 62.0636 47.042 61.5615C46.9165 61.3867 46.8044 61.1895 46.7506 60.9832C46.2575 59.1587 45.5267 57.9752 43.1866 58.0156C41.1917 58.0514 39.811 55.9938 39.7617 53.9316C39.7483 53.5371 39.7617 53.1381 39.7617 52.7436C39.7617 49.489 41.4159 47.799 44.675 47.8214C45.4102 47.8214 45.8406 47.6555 45.9527 46.8979C45.984 46.6872 46.0602 46.472 46.1678 46.2882C47.1137 44.6744 47.4499 43.2622 45.7061 41.7874C44.8095 41.0297 44.7871 39.658 45.1278 38.4252C45.7374 36.2196 48.481 33.9423 50.8435 33.9512L50.839 33.9557ZM79.6283 66.56C79.5207 66.1296 79.3414 65.8652 79.1083 65.632C78.5749 65.0941 78.0324 64.5606 77.5034 64.0227C76.5889 63.0947 76.5037 62.4402 77.1717 61.3374C77.8845 60.1629 78.5883 58.9525 78.8842 57.6166C79.6508 54.1333 80.4084 54.7654 82.8112 54.743C84.8285 54.7251 84.842 54.7251 84.8151 52.6629V52.3402C84.8151 51.6274 84.4609 51.2777 83.7481 51.2777C82.9143 51.2777 82.085 51.2732 81.2602 51.2777C80.2156 51.2822 79.5387 50.7891 79.3011 49.7759C78.8528 47.8662 78.1355 46.073 77.0731 44.4099C76.5889 43.6522 76.6875 42.8902 77.2927 42.2222C77.6289 41.8456 78.0011 41.5005 78.3597 41.1463C80.0274 39.4787 80.0094 39.4966 78.3014 37.8827C77.7276 37.3403 77.2479 37.3403 76.7189 37.8603C76.1003 38.47 75.4996 39.0931 74.872 39.6894C74.1861 40.3394 73.3971 40.4514 72.5991 39.9314C70.918 38.8286 69.0935 38.0979 67.1434 37.6451C66.2424 37.4344 65.8165 36.8293 65.7672 35.9416C65.7358 35.4037 65.7582 34.8568 65.7582 34.3188C65.7582 32.1984 65.7134 32.1581 63.5616 32.2163H63.3463C62.6335 32.2163 62.2929 32.5884 62.2929 33.2967V35.462C62.2839 36.9099 61.9432 37.3941 60.5222 37.7482C58.7514 38.1831 57.1017 38.869 55.5775 39.8597C54.6495 40.4649 53.8111 40.3528 53.049 39.5683C52.7442 39.259 52.435 38.9542 52.1301 38.6493C50.5163 37.0355 50.5342 37.0534 48.9338 38.7031C48.3465 39.3038 48.342 39.8014 48.9113 40.3663C49.4986 40.9535 50.0904 41.5408 50.6687 42.1326C51.3277 42.805 51.4935 43.594 50.9825 44.3964C49.929 46.0596 49.1983 47.8483 48.7545 49.7625C48.5034 50.8294 47.7951 51.3136 46.7013 51.2912C45.9795 51.2732 45.2577 51.3136 44.536 51.2822C43.6304 51.2418 43.1642 51.6005 43.227 52.5419C43.2449 52.9005 43.2405 53.2636 43.227 53.6268C43.2091 54.3889 43.5722 54.7609 44.3388 54.7565C45.1726 54.7475 46.0019 54.7833 46.8268 54.7475C47.8579 54.7071 48.5258 55.2451 48.7455 56.1596C49.2117 58.1142 49.9827 59.9118 51.0272 61.6153C51.48 62.3505 51.4218 63.135 50.7718 63.7985C50.4176 64.1616 50.059 64.5158 49.7003 64.8744C48.0282 66.5466 48.0462 66.5331 49.7362 68.1469C50.3638 68.7477 50.8569 68.658 51.3994 68.1111C51.9866 67.5238 52.5873 66.95 53.1611 66.3493C53.9053 65.5737 54.7302 65.511 55.5954 66.0624C57.2272 67.1024 58.9756 67.8152 60.8673 68.2232C61.7863 68.4249 62.2794 69.048 62.2839 70.0119C62.2884 70.8771 62.3063 71.7467 62.2839 72.612C62.257 73.4951 62.6739 73.8716 63.5347 73.8268C63.8574 73.8089 64.1847 73.8089 64.5119 73.8268C65.3726 73.8716 65.7896 73.4951 65.7627 72.612C65.7358 71.7467 65.7537 70.8815 65.7627 70.0119C65.7671 69.0525 66.2602 68.4249 67.1792 68.2232C69.071 67.8152 70.8194 67.098 72.4511 66.0624C73.3208 65.511 74.1458 65.5738 74.8855 66.3538C75.41 66.9052 75.9478 67.4387 76.4948 67.9587C76.8758 68.3263 77.3017 68.8822 77.871 68.4652C78.5793 67.9452 79.2742 67.3535 79.6373 66.5824L79.6283 66.56Z" fill="url(#paint0_linear_72_1456)"/>
<path d="M79.6329 66.559C79.2653 67.3346 78.5705 67.9263 77.8622 68.4419C77.2929 68.8588 76.8714 68.3029 76.4859 67.9353C75.939 67.4108 75.4011 66.8773 74.8766 66.3304C74.1414 65.5549 73.312 65.4876 72.4423 66.039C70.815 67.079 69.0622 67.7918 67.1704 68.1998C66.2514 68.4015 65.7583 69.0247 65.7493 69.984C65.7448 70.8492 65.7269 71.7189 65.7493 72.5841C65.7762 73.4672 65.3593 73.8438 64.4986 73.7945C64.1758 73.7766 63.8486 73.7766 63.5258 73.7945C62.6651 73.8393 62.2482 73.4672 62.2751 72.5841C62.302 71.7189 62.284 70.8537 62.2751 69.984C62.2706 69.0247 61.7775 68.397 60.854 68.1998C58.9622 67.7873 57.2139 67.0746 55.5821 66.039C54.7124 65.4876 53.883 65.5504 53.1478 66.3259C52.574 66.9266 51.9733 67.5004 51.386 68.0877C50.8436 68.6301 50.3505 68.7198 49.7229 68.1236C48.0328 66.5097 48.0148 66.5277 49.687 64.851C50.0411 64.4969 50.3998 64.1383 50.7584 63.7751C51.404 63.1161 51.4623 62.3272 51.014 61.592C49.9695 59.884 49.1984 58.0863 48.7322 56.1362C48.5125 55.2172 47.8445 54.6838 46.8135 54.7241C45.9841 54.7555 45.1503 54.7241 44.3254 54.7331C43.5588 54.7421 43.1957 54.37 43.2137 53.6034C43.2226 53.2403 43.2361 52.8816 43.2137 52.5185C43.1554 51.5771 43.6171 51.2185 44.5271 51.2588C45.2489 51.2902 45.9707 51.2543 46.6924 51.2678C47.7818 51.2947 48.4946 50.806 48.7456 49.7391C49.1939 47.8249 49.9201 46.0407 50.9781 44.3731C51.4892 43.5661 51.3188 42.7816 50.6643 42.1092C50.086 41.5174 49.4942 40.9302 48.9069 40.3429C48.3421 39.7781 48.3466 39.2849 48.9294 38.6797C50.5298 37.03 50.5074 37.0121 52.1258 38.626C52.4351 38.9308 52.7443 39.2356 53.0447 39.5449C53.8113 40.3295 54.6496 40.4415 55.5731 39.8363C57.0973 38.8411 58.7515 38.1597 60.5178 37.7204C61.9344 37.3707 62.2796 36.8866 62.2885 35.4341C62.2885 34.7124 62.2885 33.9906 62.2885 33.2689C62.2885 32.565 62.6248 32.1929 63.3421 32.1929H63.5617C65.7135 32.1347 65.7538 32.175 65.7538 34.2954C65.7538 34.8379 65.7314 35.3803 65.7628 35.9182C65.8166 36.8059 66.2425 37.4111 67.1436 37.6218C69.0936 38.0701 70.9181 38.8053 72.5948 39.9081C73.3927 40.4281 74.1817 40.3205 74.8676 39.666C75.4952 39.0698 76.0959 38.4421 76.7145 37.837C77.2435 37.3169 77.7187 37.3169 78.2925 37.8594C80.0005 39.4732 80.0185 39.4553 78.3554 41.1229C78.0012 41.4771 77.6246 41.8267 77.2884 42.1988C76.6877 42.8668 76.589 43.6334 77.0732 44.3865C78.1312 46.0497 78.8484 47.8428 79.2967 49.7526C79.5388 50.7702 80.2113 51.2633 81.2558 51.2543C82.0896 51.2499 82.9189 51.2543 83.7437 51.2543C84.452 51.2543 84.8107 51.604 84.8107 52.3168V52.6396C84.8376 54.7062 84.8242 54.7062 82.8069 54.7196C80.3995 54.742 79.6419 54.1055 78.8798 57.5932C78.5884 58.9291 77.8846 60.1395 77.1673 61.314C76.4949 62.4168 76.589 63.0758 77.4991 63.9993C78.0325 64.5417 78.5705 65.0752 79.104 65.6087C79.3371 65.8463 79.5164 66.1063 79.624 66.5366L79.6329 66.559ZM74.4149 53.0251C74.4014 47.2466 69.7212 42.5933 63.9247 42.6068C58.2449 42.6202 53.6006 47.3407 53.6185 53.0923C53.632 58.7767 58.3436 63.4076 64.1041 63.3986C69.7257 63.3941 74.4238 58.6601 74.4149 53.0206V53.0251Z" fill="#FFEBC3"/>
<path d="M116.003 52.586C116.025 55.8047 113.779 58.1224 110.91 58.203C109.484 58.2434 108.655 58.9696 108.431 60.3728C105.49 78.7528 90.8444 93.7885 72.5451 97.209C72.0161 97.3076 71.4783 97.3973 70.9493 97.4914C69.8061 97.6931 69.2278 98.3925 69.2188 99.5849C69.1919 103.306 65.9328 105.803 62.4675 104.763C60.3516 104.131 58.8633 102.1 58.8185 99.7867C58.7826 97.7738 58.7736 97.8097 56.8639 97.4421C38.8874 93.9678 26.9538 83.5226 20.9915 66.2454C20.2025 63.9591 19.7094 61.5832 19.436 59.1848C19.3418 58.3779 19.0773 58.1358 18.3018 58.1986C16.4279 58.3465 14.702 57.9879 13.3885 56.4906C11.9674 54.8767 11.6178 53.0298 12.4292 51.0573C13.2361 49.0893 14.7783 48.0223 16.9121 47.8161C17.6877 47.7399 18.6874 48.1613 19.185 47.5965C19.6064 47.1123 19.4988 46.1664 19.6288 45.4267C22.722 27.235 36.8162 12.6565 54.9631 8.89088C55.9135 8.69363 56.8774 8.47847 57.8412 8.42915C58.6616 8.38433 58.8902 8.075 58.8319 7.29945C58.6885 5.46593 59.0157 3.7714 60.4592 2.46238C62.0865 0.983018 63.9514 0.606449 65.9732 1.42234C67.9547 2.2203 68.9992 3.78036 69.2143 5.90527C69.2906 6.68081 68.8647 7.70292 69.434 8.17362C69.9585 8.60847 70.9313 8.50534 71.7114 8.63086C88.9258 11.3654 103.814 25.2894 107.763 42.3738C108.104 43.8487 108.418 45.3371 108.597 46.8299C108.691 47.6278 108.947 47.8878 109.731 47.8251C111.605 47.6726 113.317 48.0447 114.649 49.5196C115.536 50.5059 115.967 51.649 116.007 52.5904V52.5815L116.003 52.586ZM58.6974 18.8295C55.1335 19.3585 51.7355 20.412 48.5481 22.0707C38.5557 27.2754 32.4051 35.4343 30.0336 46.4399C29.7467 47.7758 29.7826 47.7847 31.0647 47.8071C34.0011 47.8609 36.3007 50.1696 36.2828 53.0477C36.2649 55.9123 33.9517 58.2031 30.9795 58.1806C30.0336 58.1762 29.6301 58.351 29.9933 59.3328C30.0426 59.4628 30.0291 59.6197 30.065 59.7586C33.593 74.3775 42.6755 83.4419 57.2898 86.952C58.7602 87.3062 58.7647 87.2614 58.814 85.7865C58.9081 82.9892 61.2124 80.7342 64.0008 80.7342C66.7936 80.7342 69.0978 82.9622 69.2099 85.7685C69.2278 86.2303 69.1112 86.701 69.3264 87.1762C72.3479 86.7369 75.2529 85.9075 78.0099 84.6209C88.8227 79.5866 95.4439 71.1856 97.9947 59.5614C98.2816 58.2389 98.2413 58.2255 96.9547 58.203C94.0139 58.1448 91.7231 55.8405 91.741 52.9535C91.759 50.0845 94.0677 47.8027 97.0444 47.8296C97.9992 47.8385 98.3802 47.6503 98.0261 46.673C97.9768 46.543 97.9903 46.3861 97.9589 46.2471C94.4263 31.6328 85.3574 22.5548 70.7341 19.0537C69.2682 18.704 69.2592 18.7444 69.2099 20.2237C69.1157 23.03 66.8159 25.2715 64.0231 25.276C61.2347 25.276 58.9171 23.039 58.814 20.2416C58.7961 19.7799 58.9081 19.3092 58.6974 18.8295ZM24.6182 58.203C24.3269 58.203 24.0355 58.2344 23.7531 58.1986C22.9372 58.0955 22.7623 58.472 22.8878 59.2027C23.5916 63.3405 24.7572 67.3392 26.6176 71.1184C30.576 79.1562 36.5025 85.3337 44.37 89.6194C48.584 91.9146 53.0983 93.3536 57.8278 94.1113C58.1595 94.1606 58.7377 94.4206 58.7781 93.7975C58.8409 92.8336 58.9709 91.7891 58.6705 90.9149C58.4867 90.3725 57.4467 90.5563 56.7877 90.4128C56.3663 90.3187 55.9404 90.2335 55.5235 90.1349C47.1852 88.149 40.2323 83.8992 34.7228 77.3227C30.4909 72.2705 27.8281 66.4651 26.5639 60.0097C26.2097 58.212 26.25 58.203 24.6182 58.203ZM103.383 47.8071C103.675 47.8071 103.966 47.7803 104.248 47.8116C105.02 47.9058 105.271 47.6054 105.145 46.8344C103.719 38.1196 100.034 30.4986 93.9018 24.1463C87.7647 17.7895 80.2782 13.8356 71.6127 12.1186C69.2054 11.6389 69.2681 11.6524 69.1829 14.1314C69.1516 15.0997 69.5192 15.3867 70.353 15.4898C72.7603 15.7856 75.0915 16.4357 77.3285 17.3367C90.5172 22.64 98.5551 32.2828 101.482 46.1888C101.819 47.7937 101.769 47.8071 103.379 47.8071H103.383ZM58.814 13.5755C58.814 13.3245 58.7871 13.0645 58.8185 12.8179C58.9395 11.9751 58.5943 11.742 57.7829 11.881C48.7991 13.3738 40.9988 17.2336 34.5703 23.6935C28.4511 29.8441 24.6362 37.2409 23.0806 45.7898C22.7175 47.8071 22.7265 47.7758 24.7707 47.8206C25.7031 47.8385 26.2993 47.8296 26.5145 46.6012C28.088 37.4381 32.4634 29.8396 39.5599 23.837C44.6794 19.5065 50.5699 16.7764 57.1508 15.5436C58.805 15.2342 58.814 15.2791 58.814 13.5755ZM69.2143 92.4167C69.2143 92.7081 69.2457 92.9995 69.2099 93.2819C69.0978 94.1337 69.5282 94.2413 70.232 94.1247C79.2561 92.6409 87.0877 88.7497 93.5162 82.245C99.4158 76.2782 103.231 69.1548 104.791 60.8614C105.315 58.082 105.338 58.1044 102.514 58.1851C101.913 58.2031 101.72 58.4003 101.648 58.9741C101.541 59.8304 101.33 60.6731 101.133 61.5114C99.1244 70.0156 94.7357 77.0537 87.9844 82.5857C83.0128 86.6607 77.3105 89.2428 70.9985 90.4532C69.2233 90.7939 69.2143 90.7491 69.2143 92.4123V92.4167ZM62.2838 13.1497C62.2838 15.3104 62.2793 17.4712 62.2838 19.632C62.2838 21.0127 62.9069 21.7838 63.9918 21.8017C65.0767 21.8151 65.7401 21.0262 65.7446 19.6723C65.7491 15.3149 65.7491 10.9575 65.7446 6.59563C65.7446 5.25075 65.0677 4.46174 63.9828 4.48416C62.9338 4.50657 62.2927 5.27315 62.2883 6.55527C62.2793 8.7519 62.2883 10.953 62.2883 13.1497H62.2838ZM24.1834 54.7378C26.38 54.7378 28.5767 54.7467 30.7733 54.7378C32.042 54.7333 32.813 54.0653 32.813 53.0074C32.813 51.9494 32.0464 51.2814 30.7733 51.2814C26.38 51.2724 21.9823 51.2724 17.5935 51.2814C16.298 51.2814 15.5358 51.909 15.4999 52.958C15.4641 54.0429 16.2666 54.7378 17.5935 54.7422C19.7902 54.7512 21.9868 54.7422 24.1834 54.7422V54.7378ZM103.872 51.2724C101.711 51.2724 99.5503 51.2724 97.3895 51.2724C96.0133 51.2724 95.2377 51.8956 95.2198 52.9804C95.2063 54.0743 95.9908 54.7333 97.3402 54.7333C101.698 54.7378 106.055 54.7378 110.417 54.7333C111.762 54.7333 112.551 54.0608 112.533 52.9715C112.51 51.8866 111.735 51.2769 110.354 51.2724C108.193 51.268 106.033 51.2724 103.872 51.2724ZM65.7446 92.9816C65.7446 90.7132 65.758 88.4404 65.7401 86.1765C65.7311 84.9796 65.0631 84.2309 64.0455 84.2085C62.9876 84.1861 62.2838 84.9571 62.2838 86.2123C62.2703 90.6415 62.2703 95.0751 62.2838 99.5042C62.2838 100.768 62.9741 101.535 64.0321 101.526C65.0855 101.513 65.7401 100.742 65.7446 99.4684C65.758 97.3076 65.7446 95.1468 65.7446 92.986V92.9816Z" fill="url(#paint1_linear_72_1456)"/>
<path d="M74.4143 53.0262C74.4233 58.6657 69.7252 63.3952 64.1036 63.4041C58.343 63.4086 53.6314 58.7778 53.6179 53.0979C53.6045 47.3508 58.2443 42.6258 63.9242 42.6123C69.7161 42.5989 74.4008 47.2522 74.4143 53.0307V53.0262ZM64.0497 46.0731C60.2617 46.0552 57.1236 49.126 57.0877 52.8872C57.0474 56.7425 60.1137 59.9075 63.9242 59.9388C67.7661 59.9657 70.9131 56.886 70.949 53.0665C70.9849 49.2426 67.8781 46.0956 64.0542 46.0776L64.0497 46.0731Z" fill="#DE9227"/>
<path d="M0.351562 114.422V112.359H9.8125V114.422H6.28906V124H3.88281V114.422H0.351562ZM11.0391 124V112.359H15.6953C18.3203 112.359 19.9609 113.836 19.9609 116.18C19.9609 117.719 19.1875 118.875 17.8828 119.477L20.2188 124H17.6406L15.5781 119.93C15.5703 119.93 15.5625 119.93 15.5547 119.93H13.4453V124H11.0391ZM13.4453 118H15.5547C16.8203 118 17.6094 117.289 17.6094 116.18C17.6094 115.07 16.8203 114.359 15.5469 114.359H13.4453V118ZM26.5078 124.188C23.375 124.188 21.0234 121.875 21.0234 118.188C21.0234 114.477 23.375 112.172 26.5078 112.172C29.6406 112.172 32 114.477 32 118.188C32 121.891 29.6406 124.188 26.5078 124.188ZM26.5078 122.062C28.3047 122.062 29.5781 120.656 29.5781 118.188C29.5781 115.703 28.3047 114.297 26.5078 114.297C24.7109 114.297 23.4453 115.703 23.4453 118.188C23.4453 120.656 24.7109 122.062 26.5078 122.062ZM38.1328 124.188C35.2266 124.188 33.3438 122.469 33.3438 119.945V112.359H35.6953V119.75C35.6953 121.117 36.6562 122.109 38.1328 122.109C39.6172 122.109 40.5781 121.125 40.5781 119.75V112.359H42.9297V119.945C42.9297 122.461 41.0391 124.188 38.1328 124.188ZM44.6328 124V112.359H49.2969C51.8047 112.359 53.2109 113.562 53.2109 115.352C53.2109 116.695 52.4062 117.594 51.125 117.914V117.93C52.5469 118.062 53.6406 119.062 53.6406 120.719C53.6406 122.664 52.2109 124 49.5625 124H44.6328ZM46.9844 122.109H49.2266C50.4609 122.109 51.1875 121.555 51.1875 120.586C51.1875 119.617 50.4766 119.008 49.2656 119.008H46.9844V122.109ZM46.9844 117.195H49.1172C50.1719 117.195 50.8203 116.625 50.8203 115.727C50.8203 114.82 50.1719 114.25 49.1172 114.25H46.9844V117.195ZM54.9453 124V112.359H57.3516V121.938H62.6406V124H54.9453ZM63.8516 124V112.359H72.2031V114.422H66.2578V117.117H71.7578V119.125H66.2578V121.938H72.2031V124H63.8516ZM77.9922 124.188C75.0078 124.188 73.2656 122.711 73.2656 120.18H75.5859C75.6172 121.461 76.5156 122.211 78.0078 122.211C79.3438 122.211 80.2266 121.625 80.2266 120.719C80.2266 119.969 79.6172 119.531 78.1406 119.211L76.9141 118.945C74.6094 118.445 73.4922 117.375 73.4922 115.711C73.4922 113.594 75.2656 112.172 77.9141 112.172C80.5938 112.172 82.2578 113.586 82.3281 115.93H80.0781C79.9922 114.828 79.1719 114.148 77.9219 114.148C76.7344 114.148 75.8984 114.742 75.8984 115.594C75.8984 116.312 76.4766 116.711 77.9062 117.023L79.0234 117.266C81.5078 117.789 82.6094 118.812 82.6094 120.562C82.6094 122.805 80.8594 124.188 77.9922 124.188ZM84.0234 124V112.359H86.4297V117.031H91.375V112.359H93.7734V124H91.375V119.094H86.4297V124H84.0234ZM100.633 124.188C97.5 124.188 95.1484 121.875 95.1484 118.188C95.1484 114.477 97.5 112.172 100.633 112.172C103.766 112.172 106.125 114.477 106.125 118.188C106.125 121.891 103.766 124.188 100.633 124.188ZM100.633 122.062C102.43 122.062 103.703 120.656 103.703 118.188C103.703 115.703 102.43 114.297 100.633 114.297C98.8359 114.297 97.5703 115.703 97.5703 118.188C97.5703 120.656 98.8359 122.062 100.633 122.062ZM112.602 124.188C109.469 124.188 107.117 121.875 107.117 118.188C107.117 114.477 109.469 112.172 112.602 112.172C115.734 112.172 118.094 114.477 118.094 118.188C118.094 121.891 115.734 124.188 112.602 124.188ZM112.602 122.062C114.398 122.062 115.672 120.656 115.672 118.188C115.672 115.703 114.398 114.297 112.602 114.297C110.805 114.297 109.539 115.703 109.539 118.188C109.539 120.656 110.805 122.062 112.602 122.062ZM118.32 114.422V112.359H127.781V114.422H124.258V124H121.852V114.422H118.32Z" fill="black"/>
</g>
<defs>
<linearGradient id="paint0_linear_72_1456" x1="89.2308" y1="53.0126" x2="40.08" y2="53.0126" gradientUnits="userSpaceOnUse">
<stop stop-color="#DD9A27"/>
<stop offset="0.35" stop-color="#DC9227"/>
<stop offset="1" stop-color="#EF9624"/>
</linearGradient>
<linearGradient id="paint1_linear_72_1456" x1="117.325" y1="52.1152" x2="11.9988" y2="53.8681" gradientUnits="userSpaceOnUse">
<stop stop-color="#FDD236"/>
<stop offset="0.35" stop-color="#D78F28"/>
<stop offset="1" stop-color="#F89942"/>
</linearGradient>
<clipPath id="clip0_72_1456">
<rect width="128" height="128" fill="white"/>
</clipPath>
</defs>
</svg>
