<svg width="128" height="128" viewBox="0 0 128 128" fill="none" xmlns="http://www.w3.org/2000/svg">
<path d="M18.1431 70.9192C18.0031 70.1042 18.1989 69.6841 19.109 69.7991C19.4239 69.839 19.7489 69.8039 20.0738 69.8039C21.8888 69.8039 21.8487 69.8145 22.2437 71.8196C23.6588 79.0197 26.6242 85.495 31.3443 91.1301C37.4844 98.4651 45.2395 103.205 54.5445 105.42C55.0095 105.535 55.4848 105.631 55.9498 105.731C56.6848 105.891 57.8404 105.685 58.0504 106.29C58.3853 107.265 58.2404 108.425 58.1754 109.505C58.1304 110.2 57.4848 109.916 57.1148 109.856C51.8397 109.006 46.7992 107.4 42.1041 104.845C33.329 100.065 26.7243 93.1794 22.3043 84.2092C20.2342 79.9991 18.9332 75.5393 18.1431 70.9192ZM106.952 69.7883C110.097 69.6933 110.072 69.6686 109.492 72.7737C107.757 82.0189 103.497 89.9691 96.9166 96.6243C89.7414 103.879 81.0111 108.225 70.9459 109.875C70.1608 110.005 69.6752 109.885 69.8052 108.935C69.8452 108.62 69.8101 108.295 69.8101 107.97V107.965C69.8101 106.11 69.8204 106.16 71.8052 105.78C78.8455 104.424 85.2063 101.544 90.7515 97.0041C98.2816 90.834 103.172 82.9885 105.417 73.4983C105.637 72.5634 105.867 71.6231 105.987 70.6682C106.067 70.0285 106.282 69.8083 106.952 69.7883ZM69.7857 20.6477C69.8807 17.8826 69.8157 17.8676 72.4957 18.4026C82.161 20.3177 90.5068 24.7283 97.357 31.8186C104.202 38.9038 108.307 47.4041 109.897 57.1243C110.037 57.9891 109.762 58.3241 108.897 58.2141C108.582 58.1741 108.252 58.2092 107.932 58.2092H107.927C106.132 58.2092 106.182 58.1986 105.812 56.4036C102.552 40.8932 93.5811 30.1381 78.8707 24.2229C76.3757 23.2179 73.7754 22.4873 71.0904 22.1623C70.1606 22.0473 69.7457 21.7276 69.7857 20.6477ZM57.064 18.137C57.969 17.987 58.3543 18.2419 58.2193 19.1819C58.1793 19.4568 58.2134 19.7417 58.2135 20.0266H58.2193C58.2193 21.9316 58.209 21.8769 56.359 22.2219C49.0187 23.602 42.4481 26.6467 36.7379 31.4719C28.8176 38.1672 23.9431 46.6431 22.1881 56.8635C21.953 58.2333 21.2826 58.2429 20.2427 58.2229C17.9627 58.1729 17.952 58.2032 18.357 55.9582C20.092 46.4231 24.3475 38.1729 31.1724 31.3127C38.3427 24.1075 47.0437 19.802 57.064 18.137Z" fill="#FFEBC3"/>
<path d="M49.3204 42.7582C50.5104 42.7932 51.7654 43.3932 52.6955 44.5333C53.3305 45.3133 53.8855 45.3383 54.7206 44.8533C55.5456 44.3732 56.4657 44.0332 57.3857 43.7482C58.0507 43.5432 58.2257 43.2232 58.2357 42.5482C58.2807 38.643 60.0458 36.943 63.9709 36.943C67.216 36.943 69.0761 38.133 69.6761 40.6581C69.8211 41.2731 69.8411 41.9382 69.8011 42.5732C69.7561 43.2682 70.0361 43.5432 70.6711 43.7532C71.6961 44.0933 72.7162 44.5033 73.6612 45.0233C74.2962 45.3683 74.6513 45.2683 75.0913 44.7633C76.6014 43.0382 78.5014 42.1282 80.6815 43.0932C82.9416 44.0933 84.7367 45.7733 85.2067 48.3684C85.5017 49.9785 84.9216 51.4385 83.6766 52.4835C82.7266 53.2786 82.6065 53.9786 83.2866 55.0037C83.6966 55.6287 83.9517 56.3887 84.1267 57.1237C84.3367 57.9838 84.7517 58.3238 85.6367 58.2188C86.3518 58.1388 87.0767 58.2088 87.7817 58.4488C89.6618 59.0888 90.9819 60.8039 91.0719 62.7889C91.0919 63.314 91.0819 63.834 91.0819 64.359C91.0819 67.8941 89.1868 69.8292 85.6516 69.7742C84.7116 69.7642 84.3166 70.0642 84.0666 70.9292C83.8266 71.7743 83.4916 72.6193 83.0315 73.3593C82.5365 74.1543 82.7716 74.6044 83.3616 75.1894C85.9417 77.7445 85.8867 80.3346 83.3616 82.9597C81.7566 84.6297 80.0315 85.7498 77.6014 85.0147C76.5164 84.6847 75.7114 83.9547 74.9913 83.1347C74.5363 82.6147 74.1462 82.5847 73.5412 82.8947C72.6162 83.3647 71.6411 83.7647 70.6511 84.0897C70.0111 84.2997 69.7511 84.5997 69.8011 85.2848C69.8561 86.0848 69.8561 86.8898 69.5961 87.6748C68.9611 89.6249 67.246 90.965 65.2009 91.055C64.8009 91.07 64.3959 91.06 63.9909 91.06C60.0108 91.06 58.2507 89.3449 58.2307 85.3598C58.2307 84.6547 58.0807 84.2047 57.3357 84.0947C57.2157 84.0797 57.0907 84.0547 56.9857 83.9997C55.0306 82.8947 53.2455 82.2297 51.4204 84.4747C50.6054 85.4798 49.0253 85.4398 47.6603 85.0497C44.5001 84.1447 42.1301 80.3646 42.9952 77.5995C43.3352 76.5145 44.0452 75.6994 44.8702 74.9894C45.3953 74.5344 45.4952 74.1093 45.0852 73.5493C44.9452 73.3543 44.8202 73.1343 44.7602 72.9043C44.2102 70.8692 43.3951 69.5492 40.785 69.5942C38.5599 69.6342 37.0199 67.3391 36.9649 65.039C36.9499 64.599 36.9649 64.154 36.9649 63.714C36.9649 60.0838 38.81 58.1988 42.4451 58.2238C43.2651 58.2238 43.7452 58.0388 43.8702 57.1937C43.9052 56.9587 43.9902 56.7187 44.1102 56.5137C45.1652 54.7136 45.5402 53.1386 43.5952 51.4935C42.5951 50.6485 42.5701 49.1184 42.9501 47.7434C43.6301 45.2833 46.6903 42.7432 49.3254 42.7532L49.3204 42.7582ZM81.4315 79.1245C81.3115 78.6445 81.1115 78.3495 80.8515 78.0895C80.2565 77.4895 79.6514 76.8944 79.0614 76.2944C78.0414 75.2594 77.9464 74.5294 78.6914 73.2993C79.4864 71.9893 80.2715 70.6392 80.6015 69.1492C81.4566 65.264 82.3016 65.9691 84.9817 65.9441C87.2318 65.9241 87.2468 65.9241 87.2168 63.624V63.2639C87.2168 62.4689 86.8217 62.0789 86.0266 62.0789C85.0966 62.0789 84.1717 62.0739 83.2516 62.0789C82.0866 62.0839 81.3315 61.5339 81.0665 60.4038C80.5665 58.2738 79.7665 56.2737 78.5814 54.4186C78.0414 53.5736 78.1514 52.7235 78.8264 51.9785C79.2014 51.5585 79.6165 51.1735 80.0165 50.7785C81.8766 48.9184 81.8565 48.9384 79.9515 47.1383C79.3115 46.5333 78.7764 46.5333 78.1864 47.1134C77.4964 47.7934 76.8264 48.4884 76.1264 49.1534C75.3614 49.8785 74.4813 50.0035 73.5913 49.4234C71.7162 48.1934 69.6812 47.3784 67.5061 46.8734C66.501 46.6383 66.026 45.9633 65.971 44.9733C65.936 44.3733 65.961 43.7632 65.961 43.1632C65.961 40.7981 65.911 40.7531 63.5109 40.8181H63.2708C62.4758 40.8181 62.0958 41.2331 62.0958 42.0232V44.4383C62.0858 46.0533 61.7059 46.5933 60.1208 46.9883C58.1457 47.4734 56.3056 48.2384 54.6056 49.3434C53.5705 50.0185 52.6354 49.8935 51.7854 49.0184C51.4454 48.6734 51.1005 48.3334 50.7605 47.9934C48.9604 46.1933 48.9803 46.2133 47.1953 48.0534C46.5402 48.7234 46.5352 49.2784 47.1702 49.9085C47.8253 50.5635 48.4854 51.2185 49.1304 51.8785C49.8654 52.6286 50.0504 53.5086 49.4804 54.4036C48.3053 56.2587 47.4903 58.2538 46.9953 60.3888C46.7153 61.5789 45.9252 62.1189 44.7052 62.0939C43.9002 62.0739 43.0951 62.1189 42.2901 62.0839C41.28 62.0389 40.76 62.4389 40.83 63.489C40.8501 63.889 40.8451 64.294 40.83 64.699C40.81 65.549 41.2151 65.964 42.0701 65.959C43.0001 65.949 43.9252 65.989 44.8452 65.949C45.9953 65.904 46.7403 66.5041 46.9853 67.5241C47.5053 69.7042 48.3653 71.7093 49.5303 73.6093C50.0353 74.4294 49.9704 75.3044 49.2454 76.0444C48.8504 76.4494 48.4503 76.8445 48.0503 77.2445C46.1852 79.1095 46.2053 79.0945 48.0903 80.8946C48.7904 81.5646 49.3404 81.4646 49.9454 80.8546C50.6004 80.1996 51.2704 79.5595 51.9104 78.8895C52.7404 78.0245 53.6606 77.9545 54.6256 78.5695C56.4457 79.7296 58.3957 80.5246 60.5058 80.9796C61.5309 81.2046 62.0808 81.8996 62.0858 82.9747C62.0908 83.9397 62.1108 84.9098 62.0858 85.8748C62.0558 86.8598 62.5209 87.2798 63.4809 87.2298C63.8409 87.2098 64.2059 87.2098 64.5709 87.2298C65.5309 87.2798 65.996 86.8598 65.966 85.8748C65.936 84.9098 65.956 83.9447 65.966 82.9747C65.971 81.9046 66.521 81.2046 67.546 80.9796C69.6561 80.5246 71.6061 79.7246 73.4262 78.5695C74.3962 77.9545 75.3164 78.0245 76.1414 78.8945C76.7264 79.5095 77.3264 80.1046 77.9364 80.6846C78.3614 81.0946 78.8365 81.7146 79.4715 81.2496C80.2615 80.6696 81.0365 80.0096 81.4415 79.1495L81.4315 79.1245Z" fill="url(#paint0_linear_72_1375)"/>
<path d="M81.4367 79.1236C81.0267 79.9886 80.2517 80.6486 79.4616 81.2236C78.8266 81.6887 78.3566 81.0686 77.9265 80.6586C77.3165 80.0736 76.7166 79.4786 76.1315 78.8685C75.3115 78.0035 74.3864 77.9285 73.4164 78.5435C71.6013 79.7036 69.6462 80.4986 67.5361 80.9536C66.5111 81.1786 65.9611 81.8737 65.9511 82.9437C65.9461 83.9087 65.9261 84.8788 65.9511 85.8438C65.9811 86.8288 65.5161 87.2489 64.556 87.1939C64.196 87.1739 63.8311 87.1739 63.471 87.1939C62.511 87.2439 62.046 86.8288 62.076 85.8438C62.106 84.8788 62.086 83.9137 62.076 82.9437C62.071 81.8737 61.521 81.1736 60.491 80.9536C58.3809 80.4936 56.4308 79.6986 54.6107 78.5435C53.6407 77.9285 52.7156 77.9985 51.8955 78.8635C51.2555 79.5336 50.5855 80.1736 49.9305 80.8286C49.3255 81.4336 48.7755 81.5336 48.0755 80.8686C46.1904 79.0686 46.1703 79.0886 48.0354 77.2185C48.4304 76.8235 48.8305 76.4235 49.2305 76.0184C49.9505 75.2834 50.0156 74.4034 49.5156 73.5834C48.3505 71.6783 47.4904 69.6732 46.9704 67.4981C46.7254 66.4731 45.9804 65.8781 44.8303 65.9231C43.9053 65.9581 42.9752 65.9231 42.0552 65.9331C41.2002 65.9431 40.7952 65.5281 40.8152 64.673C40.8252 64.268 40.8402 63.868 40.8152 63.463C40.7502 62.4129 41.2652 62.0129 42.2802 62.0579C43.0852 62.0929 43.8903 62.0529 44.6953 62.0679C45.9104 62.0979 46.7054 61.5529 46.9854 60.3629C47.4855 58.2278 48.2955 56.2377 49.4755 54.3777C50.0455 53.4776 49.8556 52.6026 49.1255 51.8525C48.4805 51.1925 47.8204 50.5375 47.1654 49.8825C46.5354 49.2525 46.5404 48.7024 47.1904 48.0274C48.9755 46.1874 48.9505 46.1674 50.7556 47.9674C51.1006 48.3074 51.4455 48.6474 51.7805 48.9925C52.6356 49.8675 53.5707 49.9925 54.6007 49.3175C56.3008 48.2074 58.1459 47.4474 60.1159 46.9574C61.696 46.5674 62.081 46.0274 62.091 44.4073C62.091 43.6023 62.091 42.7972 62.091 41.9922C62.091 41.2072 62.466 40.7921 63.2661 40.7921H63.5111C65.9112 40.7271 65.9561 40.7721 65.9561 43.1372C65.9561 43.7423 65.9311 44.3473 65.9661 44.9473C66.0261 45.9373 66.5012 46.6124 67.5062 46.8474C69.6813 47.3474 71.7163 48.1674 73.5864 49.3975C74.4764 49.9775 75.3565 49.8575 76.1215 49.1275C76.8216 48.4624 77.4915 47.7624 78.1815 47.0874C78.7716 46.5074 79.3016 46.5074 79.9416 47.1124C81.8467 48.9124 81.8668 48.8925 80.0117 50.7525C79.6167 51.1475 79.1966 51.5375 78.8216 51.9526C78.1516 52.6976 78.0416 53.5526 78.5816 54.3926C79.7616 56.2477 80.5616 58.2478 81.0617 60.3779C81.3317 61.5129 82.0818 62.0629 83.2468 62.0529C84.1768 62.0479 85.1018 62.0529 86.0218 62.0529C86.8118 62.0529 87.2119 62.4429 87.2119 63.238V63.598C87.2419 65.9031 87.2269 65.9031 84.9768 65.9181C82.2917 65.9431 81.4467 65.2331 80.5967 69.1232C80.2717 70.6133 79.4866 71.9633 78.6866 73.2733C77.9365 74.5034 78.0415 75.2384 79.0566 76.2684C79.6516 76.8735 80.2517 77.4685 80.8467 78.0635C81.1067 78.3285 81.3067 78.6185 81.4267 79.0986L81.4367 79.1236ZM75.6165 64.028C75.6015 57.5828 70.3812 52.3926 63.916 52.4076C57.5808 52.4226 52.4006 57.6878 52.4206 64.103C52.4356 70.4432 57.6908 75.6084 64.1161 75.5984C70.3863 75.5934 75.6265 70.3132 75.6165 64.023V64.028Z" fill="#FFEBC3"/>
<path d="M122.003 63.5382C122.028 67.1283 119.523 69.7134 116.323 69.8034C114.733 69.8484 113.808 70.6584 113.558 72.2235C110.277 92.7243 93.9418 109.495 73.5311 113.31C72.9411 113.42 72.3411 113.52 71.7511 113.625C70.4761 113.85 69.831 114.63 69.821 115.96C69.791 120.11 66.1558 122.895 62.2907 121.735C59.9306 121.03 58.2706 118.765 58.2206 116.185C58.1806 113.94 58.1706 113.98 56.0405 113.57C35.9897 109.695 22.6792 98.0444 16.029 78.7737C15.149 76.2236 14.599 73.5735 14.294 70.8984C14.1889 69.9984 13.8939 69.7284 13.0289 69.7984C10.9388 69.9634 9.01377 69.5634 7.54871 67.8933C5.96365 66.0933 5.57369 64.0332 6.47873 61.8331C7.37876 59.638 9.09882 58.448 11.4789 58.218C12.3439 58.133 13.459 58.603 14.014 57.973C14.4841 57.433 14.364 56.3779 14.509 55.5529C17.9592 35.2621 33.6797 19.0015 53.9204 14.8014C54.9804 14.5814 56.0556 14.3414 57.1306 14.2864C58.0456 14.2364 58.3006 13.8913 58.2356 13.0263C58.0756 10.9812 58.4406 9.09117 60.0506 7.63112C61.8657 5.98106 63.9458 5.56104 66.2009 6.47107C68.411 7.36111 69.576 9.10117 69.816 11.4713C69.901 12.3363 69.426 13.4763 70.061 14.0014C70.646 14.4864 71.7311 14.3713 72.6011 14.5113C91.8018 17.5615 108.407 33.092 112.813 52.1477C113.193 53.7928 113.543 55.4529 113.743 57.1179C113.848 58.008 114.133 58.298 115.008 58.228C117.098 58.058 119.008 58.473 120.493 60.118C121.483 61.2181 121.963 62.4931 122.008 63.5432V63.5332L122.003 63.5382ZM58.0856 25.8868C54.1104 26.4768 50.3204 27.6519 46.7652 29.5019C35.6198 35.3071 28.7596 44.4075 26.1145 56.6829C25.7944 58.173 25.8345 58.183 27.2645 58.208C30.5396 58.268 33.1047 60.8431 33.0847 64.0532C33.0647 67.2483 30.4845 69.8034 27.1694 69.7784C26.1144 69.7734 25.6644 69.9684 26.0694 71.0635C26.1244 71.2085 26.1094 71.3835 26.1494 71.5385C30.0845 87.8441 40.215 97.9544 56.5156 101.87C58.1556 102.265 58.1606 102.215 58.2156 100.57C58.3206 97.4494 60.8907 94.9343 64.0008 94.9343C67.116 94.9343 69.686 97.4194 69.811 100.55C69.831 101.065 69.701 101.59 69.941 102.12C73.3111 101.63 76.5513 100.705 79.6264 99.2695C91.6869 93.6543 99.072 84.284 101.917 71.3185C102.237 69.8434 102.192 69.8284 100.757 69.8034C97.4771 69.7384 94.9219 67.1683 94.9419 63.9482C94.9619 60.7481 97.537 58.203 100.857 58.233C101.922 58.243 102.347 58.033 101.952 56.9429C101.897 56.7979 101.912 56.6229 101.877 56.4679C97.9371 40.1673 87.8217 30.0419 71.5111 26.1368C69.8761 25.7468 69.866 25.7918 69.811 27.4418C69.706 30.572 67.1409 33.072 64.0257 33.077C60.9156 33.077 58.3306 30.582 58.2156 27.4618C58.1956 26.9468 58.3206 26.4218 58.0856 25.8868ZM20.0742 69.8034C19.7492 69.8034 19.4242 69.8384 19.1092 69.7984C18.1992 69.6834 18.0041 70.1034 18.1441 70.9184C18.9291 75.5336 20.2292 79.9938 22.3043 84.2089C26.7194 93.1743 33.3297 100.064 42.105 104.845C46.8052 107.405 51.8404 109.01 57.1156 109.855C57.4856 109.91 58.1306 110.2 58.1756 109.505C58.2456 108.43 58.3906 107.265 58.0556 106.29C57.8506 105.685 56.6905 105.89 55.9555 105.73C55.4855 105.625 55.0104 105.53 54.5454 105.42C45.2451 103.205 37.4898 98.4645 31.3446 91.1292C26.6245 85.494 23.6544 79.0188 22.2443 71.8185C21.8493 69.8134 21.8943 69.8034 20.0742 69.8034ZM107.927 58.208C108.252 58.208 108.577 58.178 108.892 58.213C109.753 58.318 110.033 57.983 109.893 57.1229C108.302 47.4026 104.192 38.9023 97.352 31.817C90.5068 24.7267 82.1565 20.3166 72.4911 18.4015C69.806 17.8665 69.876 17.8815 69.781 20.6466C69.746 21.7266 70.156 22.0467 71.0861 22.1617C73.7712 22.4917 76.3713 23.2167 78.8664 24.2217C93.5769 30.1369 102.542 40.8923 105.807 56.4029C106.182 58.193 106.127 58.208 107.922 58.208H107.927ZM58.2156 20.0266C58.2156 19.7466 58.1856 19.4565 58.2206 19.1815C58.3556 18.2415 57.9706 17.9815 57.0655 18.1365C47.0452 19.8015 38.3448 24.1067 31.1746 31.312C24.3493 38.1722 20.0942 46.4225 18.3592 55.9579C17.9542 58.208 17.9642 58.173 20.2442 58.223C21.2843 58.243 21.9493 58.233 22.1893 56.8629C23.9443 46.6425 28.8246 38.1672 36.7398 31.472C42.4501 26.6418 49.0203 23.5967 56.3606 22.2217C58.2056 21.8766 58.2156 21.9266 58.2156 20.0266ZM69.816 107.965C69.816 108.29 69.851 108.615 69.811 108.93C69.686 109.88 70.166 110 70.951 109.87C81.0164 108.215 89.7517 103.875 96.922 96.6194C103.502 89.9641 107.757 82.0188 109.497 72.7685C110.083 69.6684 110.107 69.6934 106.957 69.7834C106.287 69.8034 106.072 70.0234 105.992 70.6634C105.872 71.6185 105.637 72.5585 105.417 73.4935C103.177 82.9789 98.2821 90.8292 90.7518 96.9994C85.2066 101.545 78.8463 104.425 71.8061 105.775C69.826 106.155 69.816 106.105 69.816 107.96V107.965ZM62.0857 19.5515C62.0857 21.9616 62.0807 24.3717 62.0857 26.7818C62.0857 28.3219 62.7808 29.1819 63.9908 29.2019C65.2009 29.2169 65.9409 28.3369 65.9459 26.8268C65.9509 21.9666 65.9509 17.1065 65.9459 12.2413C65.9459 10.7412 65.1909 9.86118 63.9808 9.88618C62.8108 9.91118 62.0957 10.7662 62.0907 12.1963C62.0807 14.6464 62.0907 17.1015 62.0907 19.5515H62.0857ZM19.5892 65.9383C22.0393 65.9383 24.4893 65.9483 26.9394 65.9383C28.3545 65.9333 29.2145 65.1882 29.2145 64.0082C29.2145 62.8282 28.3595 62.0831 26.9394 62.0831C22.0393 62.0731 17.1341 62.0731 12.2389 62.0831C10.7939 62.0831 9.94378 62.7831 9.90378 63.9532C9.86378 65.1632 10.7589 65.9383 12.2389 65.9433C14.689 65.9533 17.1391 65.9433 19.5892 65.9433V65.9383ZM108.472 62.0731C106.062 62.0731 103.652 62.0731 101.242 62.0731C99.7071 62.0731 98.8421 62.7681 98.8221 63.9782C98.8071 65.1982 99.6821 65.9333 101.187 65.9333C106.047 65.9383 110.907 65.9383 115.773 65.9333C117.273 65.9333 118.153 65.1832 118.133 63.9682C118.108 62.7581 117.243 62.0781 115.703 62.0731C113.293 62.0681 110.883 62.0731 108.472 62.0731ZM65.9459 108.595C65.9459 106.065 65.9609 103.53 65.9409 101.005C65.9309 99.6695 65.1858 98.8345 64.0508 98.8095C62.8707 98.7845 62.0857 99.6445 62.0857 101.045C62.0707 105.985 62.0707 110.93 62.0857 115.87C62.0857 117.28 62.8557 118.135 64.0358 118.125C65.2108 118.11 65.9409 117.25 65.9459 115.83C65.9609 113.42 65.9459 111.01 65.9459 108.6V108.595Z" fill="url(#paint1_linear_72_1375)"/>
<path d="M75.6159 64.0293C75.6259 70.3195 70.3857 75.5947 64.1155 75.6047C57.6902 75.6097 52.435 70.4445 52.42 64.1093C52.405 57.699 57.5801 52.4289 63.9154 52.4139C70.3756 52.3989 75.6009 57.589 75.6159 64.0343V64.0293ZM64.0554 56.274C59.8302 56.254 56.3301 59.6791 56.2901 63.8743C56.2451 68.1744 59.6652 71.7046 63.9154 71.7396C68.2005 71.7696 71.7107 68.3344 71.7507 64.0743C71.7907 59.8091 68.3256 56.299 64.0604 56.279L64.0554 56.274Z" fill="#DE9227"/>
<defs>
<linearGradient id="paint0_linear_72_1375" x1="92.1419" y1="64.014" x2="37.3199" y2="64.014" gradientUnits="userSpaceOnUse">
<stop stop-color="#DD9A27"/>
<stop offset="0.35" stop-color="#DC9227"/>
<stop offset="1" stop-color="#EF9624"/>
</linearGradient>
<linearGradient id="paint1_linear_72_1375" x1="123.478" y1="63.0132" x2="5.99869" y2="64.9682" gradientUnits="userSpaceOnUse">
<stop stop-color="#FDD236"/>
<stop offset="0.35" stop-color="#D78F28"/>
<stop offset="1" stop-color="#F89942"/>
</linearGradient>
</defs>
</svg>
