<svg width="128" height="128" viewBox="0 0 128 128" fill="none" xmlns="http://www.w3.org/2000/svg">
<path d="M102.28 114.503V111.977L94.9482 111.636C83.78 111.111 80.1283 110.004 78.5653 106.74C77.7838 105.066 77.7412 104.399 78.3237 100.667C78.679 98.3539 79.2047 96.1969 79.5031 95.828C79.9294 95.3313 84.4904 95.1752 99.1825 95.1752C117.384 95.1752 118.35 95.1326 119.601 94.1535C120.325 93.6001 121.178 92.479 121.505 91.6702C121.945 90.6201 122.059 80.2469 121.974 52.9589L121.832 15.7091L120.567 14.361C119.871 13.6231 118.464 12.7859 117.441 12.5021C114.827 11.821 13.1755 11.8352 10.5895 12.5305C9.53804 12.8285 8.07451 13.7651 7.33564 14.659L6 16.2342V91.6418L7.76191 93.4014L9.52383 95.161H28.5497C50.602 95.161 48.5843 94.5508 49.0106 101.334C49.309 106.173 48.3002 108.202 44.8758 109.72C42.6166 110.714 34.2759 111.792 28.8196 111.792H25.7505V117H102.266V114.474L102.28 114.503ZM13.8007 53.5974V19.8101L63.9016 19.9521L114.003 20.094L114.145 53.7535L114.287 87.4131H13.8007V53.6116V53.5974ZM62.4523 65.1058V54.3211L55.8167 50.5607C52.165 48.4889 47.9449 46.0907 46.453 45.2109L43.7249 43.6358V54.4347L43.7533 65.2335L52.9607 70.5265C58.0191 73.4356 62.225 75.8337 62.3244 75.8479C62.3955 75.8479 62.4523 71.0374 62.4523 65.0916H62.4665L62.4523 65.1058ZM75.4961 70.3137L84.2915 65.2477V54.7185C84.2915 48.9288 84.1636 44.1892 83.9931 44.1892C83.8226 44.1892 79.7304 46.4597 74.8852 49.2552L66.0898 54.3211V64.8504C66.0898 70.6401 66.2177 75.3796 66.3882 75.3796C66.5445 75.3796 70.6509 73.1092 75.4819 70.3137H75.4961ZM73.379 45.8637C78.2385 43.0682 82.1886 40.6416 82.217 40.4571C82.217 40.0172 65.0099 29.9988 64.2142 29.9846C63.177 29.9563 45.7852 40.2017 46.183 40.6132C46.7656 41.1808 63.6885 50.8871 64.1432 50.9154C64.3563 50.9154 68.5195 48.6734 73.379 45.8779V45.8637Z" fill="white"/>
</svg>
