<svg width="128" height="128" viewBox="0 0 128 128" fill="none" xmlns="http://www.w3.org/2000/svg">
<path d="M14 28.2222C14 24.7858 16.7858 22 20.2222 22H107.333C110.77 22 113.556 24.7858 113.556 28.2222V37.5556H14V28.2222Z" fill="#4B5C6B"/>
<path d="M107.333 102.889V106H20.2222V102.889H107.333ZM110.444 99.7778V28.2222C110.444 26.504 109.052 25.1111 107.333 25.1111H20.2222C18.504 25.1111 17.1111 26.504 17.1111 28.2222V99.7778C17.1111 101.496 18.504 102.889 20.2222 102.889V106L19.9017 105.992C16.7204 105.831 14.169 103.28 14.0076 100.098L14 99.7778V28.2222C14 24.8933 16.6142 22.1744 19.9017 22.0076L20.2222 22H107.333C110.77 22 113.556 24.7858 113.556 28.2222V99.7778L113.548 100.098C113.381 103.386 110.662 106 107.333 106V102.889C109.052 102.889 110.444 101.496 110.444 99.7778Z" fill="#4B5C6B"/>
<path d="M28.0003 29.7778C28.0003 31.496 26.6074 32.8889 24.8892 32.8889C23.171 32.8889 21.7781 31.496 21.7781 29.7778C21.7781 28.0596 23.171 26.6667 24.8892 26.6667C26.6074 26.6667 28.0003 28.0596 28.0003 29.7778Z" fill="white"/>
<path d="M37.3336 29.7778C37.3336 31.496 35.9407 32.8889 34.2224 32.8889C32.5042 32.8889 31.1113 31.496 31.1113 29.7778C31.1113 28.0596 32.5042 26.6667 34.2224 26.6667C35.9407 26.6667 37.3336 28.0596 37.3336 29.7778Z" fill="white"/>
<path d="M46.6668 29.7778C46.6668 31.496 45.2739 32.8889 43.5557 32.8889C41.8375 32.8889 40.4446 31.496 40.4446 29.7778C40.4446 28.0596 41.8375 26.6667 43.5557 26.6667C45.2739 26.6667 46.6668 28.0596 46.6668 29.7778Z" fill="white"/>
<path d="M24.8892 45.3333H45.1114V95.1111H24.8892V45.3333Z" fill="#E4EBF0"/>
<path d="M51.333 45.3333H102.666V95.1111H51.333V45.3333Z" fill="#E4EBF0"/>
</svg>
