<svg width="128" height="128" viewBox="0 0 128 128" fill="none" xmlns="http://www.w3.org/2000/svg">
<path d="M20 23C20 18.0294 24.0294 14 29 14H67.7157C73.0201 14 78.1071 16.1071 81.8579 19.8579L101.142 39.1421C104.893 42.8929 107 47.9799 107 53.2843V104C107 108.971 102.971 113 98 113H29C24.0294 113 20 108.971 20 104V23Z" fill="white"/>
<mask id="mask0_196_2218" style="mask-type:alpha" maskUnits="userSpaceOnUse" x="20" y="16" width="85" height="97">
<path d="M20 16H72.6863C74.808 16 76.8429 16.8429 78.3431 18.3431L102.657 42.6569C104.157 44.1571 105 46.192 105 48.3137V113H20V16Z" fill="white"/>
</mask>
<g mask="url(#mask0_196_2218)">
<path d="M70 11H76L110 45V51H80C74.4772 51 70 46.5228 70 41V11Z" fill="#F8F8F8"/>
<path d="M70 41V11H76L110 45V51H80V48H107V46.2422L74.7578 14H73V41C73 44.866 76.134 48 80 48V51L79.4854 50.9873C74.2017 50.7195 70 46.3502 70 41Z" fill="#CECECE"/>
</g>
<path d="M20 104V23C20 18.1847 23.7817 14.2526 28.5371 14.0117L29 14H67.7158L68.2119 14.0059C73.3362 14.1329 78.2238 16.2241 81.8574 19.8574L101.143 39.1426C104.893 42.8932 107 47.9801 107 53.2842V104L106.988 104.463C106.747 109.218 102.815 113 98 113V110C101.314 110 104 107.314 104 104V53.2842C104 48.7755 102.209 44.4518 99.0205 41.2637L79.7363 21.9795C76.5482 18.7914 72.2245 17 67.7158 17H29C25.6863 17 23 19.6863 23 23V104C23 107.314 25.6863 110 29 110V113L28.5371 112.988C23.935 112.755 20.2449 109.065 20.0117 104.463L20 104ZM98 110V113H29V110H98Z" fill="#CECECE"/>
<path d="M32 73C32 70.7909 33.7909 69 36 69H90C92.2091 69 94 70.7909 94 73V95C94 97.2091 92.2091 99 90 99H36C33.7909 99 32 97.2091 32 95V73Z" fill="#2587C4"/>
<path d="M77.6885 90V76.9043H80.3955V87.6797H86.3457V90H77.6885Z" fill="white"/>
<path d="M61.5869 90V76.9043H65.5332L67.6953 83.0039C67.9414 83.7773 68.3545 85.1572 68.6709 86.2822C68.9873 85.1572 69.4004 83.7773 69.6377 83.0039L71.7734 76.9043H75.7197V90H73.0742V83.7773C73.0742 82.8633 73.127 81.3076 73.1621 79.8662C72.7139 81.3955 72.2568 82.9424 71.9756 83.7773L69.7607 90H67.5635L65.3223 83.7773C65.0498 82.9688 64.6104 81.5186 64.1621 80.0508C64.1973 81.4395 64.2412 82.9072 64.2412 83.7773V90H61.5869Z" fill="white"/>
<path d="M47.8408 90L52.4375 76.9043H55.918L60.5146 90H57.5176L56.6035 87.1436H51.708L50.7588 90H47.8408ZM52.4375 84.9814H55.9004L55.4609 83.6279C55.0566 82.292 54.6523 80.9561 54.1865 79.3301C53.7119 80.9561 53.3076 82.292 52.8857 83.6279L52.4375 84.9814Z" fill="white"/>
<path d="M42.1982 90V85.1045L37.3467 76.9043H40.4492L42.6729 80.833C42.9717 81.3604 43.2529 81.8877 43.5342 82.415C43.7979 81.8877 44.0791 81.3604 44.3691 80.833L46.5225 76.9043H49.6074L44.835 85.1045V90H42.1982Z" fill="white"/>
<path d="M38.324 38.9024V38.4976C40.3601 38.2768 41.5132 37.2465 41.5132 35.6274V33.2356C41.5132 31.776 41.9792 31.2486 43.3162 31.2486H43.8314V28.452H42.8992C39.2195 28.452 37.7353 29.7031 37.7353 32.7941V34.6707C37.7353 36.2407 36.938 36.8785 35 36.8908V40.5092C36.9503 40.546 37.7353 41.1715 37.7353 42.7293V44.6059C37.7353 47.7337 39.2317 49.0338 42.8992 49.0338H43.8314V46.2372H43.3162C41.9915 46.2372 41.5132 45.7098 41.5132 44.2502V41.7725C41.5132 40.1535 40.3601 39.1232 38.324 38.9024ZM52.6996 38.9024C50.6635 39.1232 49.5105 40.1535 49.5105 41.7725V44.2502C49.5105 45.7098 49.0321 46.2372 47.7074 46.2372H47.1923V49.0338H48.1245C51.792 49.0338 53.2884 47.7337 53.2884 44.6059V42.7293C53.2884 41.1593 54.0612 40.5337 56.0237 40.5092V36.8908C54.0734 36.8663 53.2884 36.2285 53.2884 34.6707V32.7941C53.2884 29.7154 51.8042 28.452 48.1245 28.452H47.1923V31.2486H47.7074C49.0199 31.2486 49.5105 31.776 49.5105 33.2356V35.6274C49.5105 37.2465 50.6635 38.2768 52.6996 38.4976V38.9024Z" fill="#767676"/>
</svg>
