<svg width="128" height="128" viewBox="0 0 128 128" fill="none" xmlns="http://www.w3.org/2000/svg">
<path d="M60.6373 23.6352C59.6153 23.5125 58.3072 23.6352 57.3669 23.5125C56.4267 23.3899 57.1216 23.1446 57.0399 23.2264C56.0588 17.0127 58.6751 10.104 63.8259 6.42481C65.3793 5.32106 68.4862 4.09467 69.917 5.97513C72.5333 9.44991 65.6655 12.9656 63.7442 14.8052C61.3323 17.1353 60.4738 20.3239 60.6782 23.6352H60.6373Z" fill="#1C1E21"/>
<path d="M34.4336 49.2258C35.0877 50.0434 35.66 51.1881 36.3141 52.1283C38.1537 54.1314 40.1568 56.0119 42.2416 57.7288L42.6095 58.4238L42.6913 58.7917C42.2007 59.6093 41.7102 60.4269 41.3014 61.2853L39.9932 64.1469C35.1694 67.8261 32.9619 66.8041 29.4872 71.9958C28.8331 72.282 27.3614 72.2002 26.7482 71.8323C19.2672 68.889 11.6636 63.6972 10.2737 55.1943C8.92469 46.773 14.934 40.8864 23.3552 42.8077C26.4212 43.5027 32.4714 46.7322 34.4336 49.1849V49.2258Z" fill="#5DC1ED"/>
<path d="M29.4869 72.0368C25.2355 78.414 24.377 89.983 26.2983 97.5866C19.1035 100.53 11.0911 99.3444 8.88358 93.703C4.55034 82.6246 17.0595 73.3858 26.748 71.8733C27.6065 71.7506 28.5876 71.7506 29.4869 72.0368Z" fill="#38A0CE"/>
<mask id="mask0_126_303" style="mask-type:luminance" maskUnits="userSpaceOnUse" x="8" y="42" width="35" height="58">
<path d="M42.6096 58.4238L42.2417 57.7289C40.1568 55.9711 38.1946 54.1315 36.3141 52.1284C35.66 51.1881 35.0877 50.0435 34.4336 49.2259C32.4714 46.7322 26.4212 43.5436 23.3552 42.8487C14.934 40.8864 8.92472 46.814 10.2738 55.2352C11.6637 63.7791 19.2673 68.9299 26.7483 71.8733C17.0598 73.3858 4.59148 82.6246 8.88384 93.703C11.0913 99.3444 19.0629 100.489 26.2986 97.5866C24.3772 89.983 25.2357 78.4549 29.4872 72.0368C32.962 66.8042 35.1695 67.8262 39.9933 64.1879L41.3014 61.3263C41.7511 60.4678 42.2008 59.6502 42.6913 58.8326L42.6096 58.4647V58.4238Z" fill="white"/>
</mask>
<g mask="url(#mask0_126_303)">
<path d="M17.2169 62.1574C19.6014 62.1095 22.3927 62.7264 25.0244 63.5451C30.3037 65.1875 35.2141 67.7316 35.4946 67.8718L34.7633 69.3341C34.4702 69.1876 29.6725 66.7036 24.5386 65.1065C21.9632 64.3053 19.3709 63.7495 17.2497 63.7922C15.1154 63.8352 13.6978 64.4675 13.0511 65.7763L11.5852 65.0522C12.635 62.9272 14.8456 62.2052 17.2169 62.1574ZM19.5867 36.9961C18.9252 41.6166 20.1913 45.1789 22.4487 47.9617C24.7277 50.7713 28.0484 52.8219 31.5252 54.3045C34.9947 55.7839 38.5618 56.6732 41.2705 57.1924C42.6225 57.4515 43.7555 57.6172 44.5484 57.7182C44.9448 57.7686 45.256 57.8029 45.4666 57.8244C45.572 57.8351 45.6522 57.8427 45.7054 57.8475C45.7318 57.8499 45.7516 57.8516 45.7645 57.8527C45.7708 57.8532 45.7755 57.8537 45.7784 57.8539C45.7799 57.854 45.7811 57.8543 45.7816 57.8543C45.7814 57.8564 45.7786 57.8968 45.7169 58.6691C45.653 59.4707 45.6516 59.4841 45.6511 59.4843C45.6508 59.4843 45.6501 59.4839 45.6495 59.4839C45.6482 59.4838 45.6464 59.4837 45.6443 59.4835C45.64 59.4831 45.6338 59.4826 45.6259 59.4819C45.6102 59.4806 45.5875 59.4786 45.5581 59.4759C45.4989 59.4706 45.4126 59.4625 45.301 59.4512C45.0776 59.4284 44.7529 59.3929 44.342 59.3406C43.5206 59.236 42.3533 59.065 40.9627 58.7984C38.1859 58.2662 34.4969 57.3489 30.8841 55.8083C27.2785 54.2709 23.6903 52.088 21.1788 48.9917C18.6455 45.8687 17.2395 41.8528 17.9679 36.7645L19.5867 36.9961Z" fill="#9FDAFF"/>
<path d="M35.5133 73.7244C35.5572 73.7165 35.804 73.6676 36.067 73.799L35.3356 75.2618C35.5805 75.3842 35.7985 75.3349 35.8031 75.334C35.8524 75.3251 35.8792 75.3136 35.8706 75.3168C35.8573 75.3218 35.8109 75.3419 35.7217 75.3891C35.5492 75.4803 35.2929 75.6322 34.9587 75.8458C34.2946 76.2704 33.3695 76.9088 32.2812 77.7153C30.1046 79.3283 27.3025 81.5931 24.6626 84.1243C22.0147 86.6633 19.569 89.4335 18.0667 92.0564C16.5443 94.7145 16.1191 96.9859 17.0452 98.7129L15.604 99.4858C14.2612 96.9817 15.052 94.0305 16.6479 91.244C18.2641 88.4222 20.8389 85.5255 23.5308 82.9443C26.2308 80.3553 29.0883 78.0465 31.3075 76.4019C32.417 75.5797 33.3739 74.9183 34.0781 74.4681C34.428 74.2444 34.7274 74.0652 34.9576 73.9435C35.0695 73.8843 35.1862 73.8274 35.2945 73.7867C35.3465 73.7671 35.4241 73.7404 35.5133 73.7244Z" fill="#4EB3E5"/>
<path d="M10.9272 46.6096C10.9272 50.3631 13.244 54.3033 15.6966 57.3944C16.9076 58.9206 18.1205 60.2017 19.0313 61.1012C19.4861 61.5504 19.8643 61.9033 20.1275 62.1427C20.259 62.2623 20.3618 62.3535 20.4309 62.4142C20.4654 62.4445 20.4916 62.4672 20.5088 62.482C20.5173 62.4894 20.5235 62.495 20.5275 62.4984C20.5295 62.5001 20.5311 62.5013 20.5319 62.502L20.5327 62.5024C20.5326 62.5024 20.5299 62.5057 20.0025 63.1252C19.4726 63.7477 19.4722 63.7473 19.472 63.7472L19.4716 63.7468C19.4711 63.7463 19.4704 63.7458 19.4696 63.7452C19.468 63.7438 19.4656 63.7419 19.4628 63.7396C19.4573 63.7348 19.4494 63.728 19.4393 63.7192C19.4189 63.7016 19.3897 63.6758 19.3518 63.6426C19.276 63.576 19.1661 63.4786 19.0273 63.3523C18.7495 63.0996 18.3549 62.7312 17.8823 62.2645C16.9381 61.332 15.6778 60.0017 14.4155 58.4108C11.9217 55.2678 9.29199 50.9503 9.29199 46.6096H10.9272Z" fill="#9FDAFF"/>
<path d="M27.7755 81.5267C25.8788 83.4234 22.5907 85.3229 15.9144 85.3229C13.0565 85.3229 11.1175 87.0894 9.84556 89.0044C9.21375 89.9558 8.76916 90.9134 8.48264 91.6361C8.3399 91.9961 8.23759 92.2947 8.17165 92.5008C8.13871 92.6037 8.11495 92.6835 8.09979 92.7359C8.09223 92.762 8.08674 92.7814 8.08342 92.7934C8.0818 92.7993 8.08085 92.8034 8.08023 92.8058L8.07943 92.807C8.07523 92.8056 8.01937 92.7912 7.28898 92.5994C6.53959 92.4026 6.5005 92.3919 6.49854 92.391V92.3902C6.4987 92.3896 6.4991 92.3887 6.49933 92.3878C6.4998 92.3861 6.50021 92.3837 6.50093 92.381C6.50239 92.3756 6.50439 92.3682 6.50692 92.3591C6.51204 92.3405 6.51931 92.3143 6.52888 92.2812C6.54802 92.2151 6.57646 92.1209 6.61431 92.0026C6.69 91.766 6.80474 91.432 6.96282 91.0333C7.278 90.2383 7.77136 89.172 8.48343 88.0998C9.89931 85.968 12.2729 83.6878 15.9144 83.6877C22.2379 83.6877 25.0822 81.9078 26.6194 80.3706L27.7755 81.5267Z" fill="#4EB3E5"/>
</g>
<path d="M73.5551 60.8357C73.4324 61.2036 75.5991 63.8608 75.3538 64.1878C74.5362 65.1689 68.6904 69.2569 67.6684 69.911C66.6464 70.565 64.9295 73.3857 64.7251 73.3857C63.9892 73.3857 53.8102 72.5682 52.9517 72.3229C49.109 71.3009 38.3986 67.172 41.2601 61.2854C47.3921 62.6753 67.5458 62.7979 73.5551 60.7948V60.8357Z" fill="#131416"/>
<path d="M80.0554 36.9619C79.6466 36.0217 78.5837 33.7324 77.3573 32.2199C75.3134 29.6445 68.6091 24.6163 60.6376 23.676L60.3923 23.3899L57.4081 23.3081C57.2854 23.0628 57.1628 23.0219 57.0401 23.3081C57.0401 23.3081 57.081 23.5534 56.9584 23.5943C56.3861 23.7578 55.1188 23.6351 54.4647 23.7169C50.3359 24.2075 46.4932 25.3112 42.9775 27.6005L42.6096 27.5187L40.1977 29.3992C40.1977 29.6853 40.0342 29.808 39.8298 29.9715C36.028 33.3645 33.4526 37.4525 32.3897 42.3989C32.1035 43.8297 31.7765 45.6693 32.0218 48.9397C32.1444 50.4113 32.5941 53.232 34.7198 55.8075C40.0751 62.3073 49.1504 63.6155 57.1219 63.9834C64.4394 64.3513 72.3291 63.2476 77.4391 57.6062C77.5617 57.6062 79.851 54.7446 80.546 52.6188C83.1623 44.6882 80.546 38.3927 79.9736 37.0028L80.0554 36.9619Z" fill="#3A3C40"/>
<path d="M42.9764 27.5188C42.2406 28.0093 41.3004 28.7861 40.5645 29.3175C39.8287 29.8489 40.4419 29.481 40.4419 29.6036C40.2784 29.6036 40.2784 29.4401 40.1557 29.3175C35.6181 23.6761 35.6999 15.541 40.4828 10.1449C41.9953 8.42796 45.511 6.22045 47.3914 8.67324C49.6398 11.6575 44.8569 15.1322 43.3035 17.2171C40.8507 20.5283 41.2595 23.9214 42.9356 27.4779L42.9764 27.5188ZM77.4789 57.5654C76.3751 58.9553 74.3312 60.059 73.4318 61.6124C72.1645 63.7791 65.3785 67.3765 63.5389 67.6626C61.6993 67.9488 51.2341 66.0275 48.0864 64.5149C45.5927 63.9426 41.9953 62.3483 39.8696 60.9175C37.7438 59.4867 36.1495 57.7289 34.7188 55.7667L35.4955 56.1755C41.096 61.4081 49.9669 63.4112 57.4887 63.6973C64.3974 63.9426 71.674 63.0024 76.7839 57.9333L77.4789 57.5654ZM44.7343 33.8143C37.1715 50.1253 61.4132 49.88 62.5987 47.509C68.0766 36.6758 48.7814 28.3364 44.7343 33.8143Z" fill="#1C1E21"/>
<path d="M44.7358 33.8142C37.1731 50.1252 58.3079 51.9648 62.6002 47.5089C49.2326 50.7384 41.0975 41.7449 44.7358 33.8142Z" fill="#00D7D2"/>
<path d="M78.2975 32.0973C85.8602 48.4083 72.2473 48.9397 71.0618 46.6096C65.5839 35.7764 74.2504 26.6194 78.2975 32.0973Z" fill="#1C1E21"/>
<path d="M79.7691 35.7765C83.5709 49.4303 72.983 50.6158 70.8164 46.1599C77.4798 49.3894 81.1181 42.8487 79.7691 35.7765Z" fill="#00D7D2"/>
<path d="M58.916 42.9545C59.446 42.7605 59.6053 41.8642 59.2716 40.9525C58.938 40.0408 58.2378 39.459 57.7078 39.6529C57.1777 39.8469 57.0185 40.7432 57.3521 41.6549C57.6858 42.5666 58.3859 43.1484 58.916 42.9545Z" fill="white"/>
<path d="M74.3028 39.4437C74.3435 38.4737 73.9193 37.6682 73.3553 37.6446C72.7914 37.621 72.3013 38.3881 72.2606 39.3581C72.22 40.3281 72.6442 41.1335 73.2081 41.1572C73.772 41.1808 74.2622 40.4137 74.3028 39.4437Z" fill="white"/>
<path d="M81.3635 39.4964C81.3635 37.06 80.5586 34.829 79.359 33.0962C78.1518 31.3525 76.586 30.1699 75.1193 29.7512C73.6982 29.3455 72.3816 29.6448 71.4011 30.863C70.3666 32.1481 69.6128 34.5706 69.7531 38.6098L69.7643 38.8733C69.8998 41.5866 70.6618 43.9898 71.8039 45.7074C72.9839 47.4822 74.5072 48.4493 76.131 48.4493C77.7882 48.4492 79.0505 47.6534 79.9399 46.1562C80.8531 44.6187 81.3635 42.3407 81.3635 39.4964ZM82.9987 39.4964C82.9987 42.4979 82.4664 45.1051 81.3459 46.9913C80.2016 48.9177 78.4389 50.0844 76.131 50.0845C73.7894 50.0845 71.817 48.6803 70.4421 46.6125C69.1091 44.6075 68.2785 41.9069 68.1311 38.9531L68.1191 38.6665C67.9733 34.4685 68.7318 31.5714 70.1272 29.8378C71.5764 28.0373 73.6068 27.6186 75.5685 28.1787C77.4846 28.7258 79.3376 30.1928 80.7032 32.1652C82.0763 34.1486 82.9986 36.7005 82.9987 39.4964Z" fill="#4E6084"/>
<path d="M62.3132 41.2545C62.3132 35.6109 58.474 31.2797 54.0147 31.2797C49.5555 31.2798 45.7162 35.6109 45.7162 41.2545C45.7163 46.898 49.5555 51.2289 54.0147 51.2289C58.474 51.2289 62.3132 46.8981 62.3132 41.2545ZM63.9484 41.2545C63.9483 47.5316 59.6249 52.8641 54.0147 52.8641C48.4047 52.8641 44.0811 47.5316 44.0811 41.2545C44.0811 34.9774 48.4046 29.6446 54.0147 29.6445C59.6249 29.6445 63.9484 34.9774 63.9484 41.2545Z" fill="#4E6084"/>
<path d="M45.1052 42.553L31.9419 44.597L31.6912 42.9809L44.8545 40.9369L45.1052 42.553ZM66.7279 37.7795C67.5331 37.7795 67.9869 37.8062 68.3328 37.9005C68.5228 37.9523 68.6616 38.0192 68.7639 38.069C68.8598 38.1156 68.9358 38.1533 69.0589 38.1995L68.4845 39.7305C68.2807 39.6541 68.1416 39.5846 68.0485 39.5393C67.9619 39.4971 67.9371 39.4873 67.9024 39.4778C67.7985 39.4495 67.5573 39.4147 66.7279 39.4147C65.2899 39.4147 64.089 39.9538 63.3649 40.7437L62.1597 39.6391C63.2343 38.4668 64.8956 37.7795 66.7279 37.7795Z" fill="#4E6084"/>
<path d="M108.426 76.5335C107.077 75.7568 105.85 74.8166 104.706 73.672C102.335 71.3009 100.372 68.6438 98.3694 65.9457C98.1241 66.0683 97.8788 66.191 97.6336 66.2319C95.3034 68.1123 92.3601 70.1563 89.2532 69.8702C86.3916 69.6249 79.0742 65.9457 76.4579 64.3105L76.0491 64.6376C74.7001 68.562 69.2631 75.021 65.3795 76.37C63.2538 77.1059 57.3262 75.1436 55.1596 74.2034C49.8043 71.8733 43.8768 68.7664 40.1159 64.3514L39.7888 64.2696C39.6662 64.2696 39.5435 64.2288 39.4209 64.2288C38.2354 64.2288 33.6978 67.4174 32.594 68.3985C31.5311 69.2978 28.0972 72.8544 27.9337 73.999V74.3669C27.852 74.3669 27.7293 74.4078 27.6476 74.4487C27.1161 74.694 25.3992 78.3323 25.0313 79.1498C23.069 83.4422 21.3521 88.4295 21.1477 93.1716C21.1477 93.9483 21.1068 96.6872 21.5565 97.1369C21.6383 97.2187 21.72 97.2595 21.8018 97.3004C22.8646 101.47 27.0752 104.413 30.7135 106.212L30.9588 106.662C32.7166 107.479 34.5562 108.093 36.3958 108.706L36.8864 108.542C38.031 109.36 39.9932 110.137 41.424 109.932C41.5467 109.891 41.5058 109.156 41.5058 109.156C41.1787 104.454 43.2227 99.7532 45.8799 95.9105L45.6346 95.5835L36.2732 91.332L36.1097 91.0867C37.2543 91.4137 38.358 91.8225 39.4618 92.354L39.8297 92.2313C40.8517 88.5931 42.0372 84.873 43.3862 81.3982C44.6126 78.2914 43.8768 81.3982 43.3862 82.6246C42.2825 85.8132 41.2196 89.0427 40.1976 92.2722C40.075 92.8445 43.3454 94.3162 43.5498 94.2344C43.5906 94.2344 43.6724 94.1527 43.7133 94.1118C43.9177 93.9483 44.0812 93.7439 44.2038 93.4986C44.9805 90.8414 45.9617 88.1843 47.1063 85.6906C47.9239 83.9328 48.8232 83.1561 50.7855 83.9328C55.8954 85.3636 61.2915 86.8761 66.565 88.3478L68.1593 89.0836C68.6499 89.2471 69.5492 89.0836 69.9989 89.3289C70.8165 89.7377 71.5115 90.0647 71.5932 91.1685C71.675 92.2313 69.5492 96.8099 69.4675 97.0551C68.8951 98.5677 68.2411 100.326 67.7914 101.879C67.7096 102.124 67.7914 102.37 67.7914 102.615L67.6688 102.983C68.282 103.964 68.1593 105.068 67.5461 106.008C67.6688 106.13 67.7096 106.253 67.6688 106.376C67.1782 106.253 66.4424 107.112 66.9329 107.398L66.7694 107.684C67.3008 108.951 66.4424 110.178 65.0933 110.382L65.0116 110.75C64.6028 110.75 64.0714 111.077 64.4393 111.486C63.9487 111.486 63.5808 112.753 63.867 113.08C63.7034 113.243 63.4173 113.489 63.4173 113.652C62.9267 114.143 62.7223 114.674 62.8858 115.247C62.6814 115.41 62.5588 115.615 62.477 115.86C62.3953 116.105 61.7821 118.19 61.9456 118.231C63.7034 118.517 72.2064 118.926 80.9547 115.124C80.9955 115.206 81.0364 115.206 81.1182 115.124C81.159 115.001 82.0175 114.593 82.2219 114.388C82.9169 113.693 82.9986 112.549 83.0395 111.608H82.3446C77.3572 113.284 71.8794 114.306 66.6468 114.306C65.3795 114.306 65.9109 114.184 66.892 114.102C72.2473 113.693 77.8887 113.08 82.8351 110.791L83.0395 110.3C85.2879 108.461 84.7565 104.373 84.6338 101.756C84.4294 96.1558 83.8162 91.2502 82.7534 85.7724C82.7534 85.568 82.8351 85.3636 82.8351 85.1592V84.546C82.2628 81.1938 81.4043 77.9643 80.4232 74.7757C81.7722 78.2096 82.7534 81.7253 83.2848 85.2818C83.3257 85.568 83.571 85.7724 83.9389 85.895C84.6747 86.0585 85.3697 86.3038 86.1055 86.4264C91.5834 87.2849 96.7342 86.3447 101.272 83.4422C101.762 83.1152 108.017 77.2694 108.017 77.2694C108.14 77.1059 108.303 76.9423 108.467 76.8197V76.4518L108.426 76.5335Z" fill="#1561BC"/>
<path opacity="0.3" d="M80.107 91.4072L73.2868 102.68L68.388 94.0237L69.8112 93.2185L73.3335 99.4431L78.2866 91.2563L74.597 81.9985L69.0843 90.2335L67.7253 89.3237L74.9667 78.5082L80.107 91.4072Z" fill="white"/>
<path d="M103.888 63.6155C103.479 62.9615 104.951 60.1816 105.36 59.4867C106.463 57.6471 107.731 56.666 109.039 55.1534C110.715 53.1912 112.268 51.0655 113.985 49.1441C115.702 47.2228 117.705 44.6474 119.218 46.5278C120.73 48.4083 119.136 49.512 118.4 50.6567C117.337 52.2919 116.029 53.7635 114.762 55.2761C117.746 54.949 119.381 57.0748 118.686 59.9364C118.032 61.2854 117.296 62.3483 115.784 63.0023C113.576 63.9835 111.328 61.8986 113.903 60.6722C117.787 57.1566 113.413 55.1126 109.938 56.1754C111.246 56.1754 114.598 56.2981 115.007 57.8515C115.539 59.8955 113.004 61.6124 111.164 61.2036C111.083 62.4709 110.592 63.6973 109.979 64.8011C110.756 64.147 111.164 63.125 111.41 62.1439C111.859 61.081 112.554 61.3672 112.8 62.3892C113.249 63.0023 113.944 63.3703 114.844 63.5338L114.966 63.7791C114.721 65.496 115.293 66.1501 116.888 66.5589C116.969 66.7224 116.888 66.9268 116.683 67.213C115.62 68.3167 115.13 69.2978 113.617 70.1154C111.982 71.0148 111.164 70.5651 109.734 69.5431C109.325 69.2569 108.957 68.9299 108.589 68.6029C107.077 66.8042 105.482 65.1281 103.806 63.5747L103.888 63.6155Z" fill="#3A3C40"/>
<path d="M116.765 67.2538C116.765 66.9268 117.092 66.9268 116.724 66.8041C116.356 66.6815 115.866 66.5997 115.457 66.3136C114.271 65.4142 114.926 64.0243 114.721 63.779C114.517 63.5338 113.249 63.8199 112.555 62.5118C112.391 62.2256 112.391 61.408 111.9 62.0212C111.41 62.6344 111.614 63.0023 111.451 63.3294C110.96 64.3922 110.388 65.3325 109.202 65.6595C110.224 64.3514 110.797 62.7979 111.001 61.1219C111.165 60.8766 112.064 60.9992 112.432 60.9583C114.271 60.6313 116.111 58.0968 113.904 57.0748C112.841 56.5842 110.838 56.4616 109.652 56.5433C108.467 56.6251 109.202 56.7477 109.366 56.3798C109.693 55.6031 112.35 55.644 113.086 55.7257C116.275 56.0528 116.724 58.9144 114.394 60.8357C112.064 62.757 112.841 61.3263 113.331 62.1847C114.558 64.474 118.441 61.4898 118.564 59.6502C118.768 59.6093 118.727 59.8546 118.85 59.9364C118.973 60.0181 118.973 59.9364 119.014 59.9364C119.218 61.6942 117.542 63.2476 115.988 63.8199C115.293 64.9237 116.602 65.5777 117.583 65.823L117.705 66.2318C117.419 66.518 117.174 66.8859 116.847 67.2538H116.765Z" fill="#1E1F21"/>
<path d="M117.624 66.2319C116.847 65.7822 115.661 65.7822 115.457 64.6785C115.212 63.3703 116.07 63.6156 116.929 63.0024C117.787 62.3892 118.196 61.8169 118.482 61.2037C118.768 60.5905 118.564 60.2635 118.932 59.9773C120.935 61.0402 120.812 62.8798 119.504 64.5558C118.932 65.2508 118.155 65.6596 117.624 66.2319Z" fill="#3A3C40"/>
<path d="M103.888 63.6156C103.888 63.6156 104.052 63.4929 104.174 63.5747C105.523 64.3514 107.976 67.7444 109.489 69.0117C111.001 70.279 111.165 69.9519 111.86 70.606L113.659 70.1563C113.291 70.3607 112.596 70.7695 112.187 70.8104C111.778 70.8513 111.451 70.6878 111.165 70.8513C110.388 70.3607 109.366 69.8293 108.671 69.257C107.976 68.6847 108.589 69.1752 108.508 69.0935H108.058C107.118 68.235 106.259 67.2947 105.401 66.3136C105.483 66.1501 105.483 66.0275 105.401 65.864C105.401 65.864 105.401 65.7004 105.237 65.5778C104.665 64.9237 104.256 64.147 103.766 63.5338L103.888 63.6156Z" fill="#1E1F21"/>
<path d="M61.7414 119.703C61.9458 119.212 62.1911 118.721 62.3955 118.272C62.2728 118.272 62.1093 118.231 61.9458 118.231C62.0684 117.25 62.3955 116.146 62.9269 115.247C62.8043 114.756 62.9269 114.266 63.3766 113.816V113.734C63.2539 113.693 63.1313 113.693 63.0087 113.734L62.3955 113.448C57.449 113.284 52.8296 111.281 48.4964 109.278L48.2511 109.523C48.1285 109.033 47.4335 109.033 47.3926 109.523C47.27 109.891 47.0247 110.178 46.7794 110.3C46.7794 110.3 43.9996 110.055 41.2607 109.646C39.3393 109.36 37.2953 108.91 36.8865 108.624C35.2922 108.256 34.1476 110.096 35.9463 110.75L37.8268 110.872C39.9934 111.69 43.4682 112.876 45.7166 113.121C47.1065 113.284 47.7605 113.039 48.9869 112.589C52.6252 114.225 56.3862 115.328 60.3515 115.901C60.0653 117.045 59.7792 118.272 59.166 119.335C58.5528 120.357 57.9396 120.643 56.7949 120.397C53.3202 119.171 39.2167 114.633 35.701 112.957C35.701 112.957 34.8834 115.124 35.2922 115.655C35.701 116.187 40.5248 118.026 44.0814 119.089C47.27 120.03 50.4995 121.379 53.729 122.155C55.3233 122.523 57.2446 123.136 58.9207 122.973C60.515 122.809 60.8829 121.583 61.5779 120.357H61.7005C61.7005 120.152 61.7005 119.948 61.8231 119.784L61.7414 119.703Z" fill="#001A23"/>
<path d="M36.1502 110.75L36.3955 111.077C35.9867 113.325 35.1691 113.816 35.1691 113.816C35.1691 113.816 30.5497 110.873 30.6314 109.278C30.6314 108.706 30.795 108.42 31.0811 108.461L36.1093 110.423V110.75H36.1502Z" fill="#1561BC"/>
<path d="M36.8859 108.583C37.2129 109.156 37.0085 109.973 36.4362 110.341C36.8041 110.586 36.5179 110.913 36.15 110.791L30.9583 108.747C30.7539 108.624 30.6313 109.278 30.6313 109.319C30.6313 108.297 30.5904 107.275 30.7948 106.253C32.5117 107.112 35.0054 107.97 36.9267 108.583H36.8859Z" fill="#0D4D8E"/>
<path d="M37.6217 110.464C40.238 111.118 44.8165 113.203 47.4737 112.794C50.1309 112.385 48.2913 112.303 48.7001 112.262C49.3133 112.14 51.0303 113.08 51.7661 113.366C54.6277 114.429 57.6119 115.41 60.7187 115.574C60.5143 116.514 59.7785 118.517 59.2471 119.825C58.9609 120.52 58.1842 120.929 57.4484 120.684L35.1689 113.816C35.1689 113.816 36.1092 110.954 36.1909 110.75C36.2727 110.545 36.4362 110.423 36.4771 110.3C36.8859 110.423 37.2129 110.3 37.6626 110.464H37.6217Z" fill="#003147"/>
<path d="M83.0393 111.649C81.4449 112.344 79.7689 112.794 78.0928 113.203C74.7816 113.979 71.3477 114.511 67.9546 114.593C64.5616 114.674 65.6245 114.879 65.5427 114.388C65.461 113.898 65.7063 114.061 65.9107 114.02C67.1779 113.816 68.6905 113.857 69.9986 113.693C72.942 113.325 80.9953 112.058 83.0801 110.341V111.649H83.0393ZM41.2602 109.605C40.8105 107.439 41.4646 104.904 42.0778 102.778C42.691 100.653 43.9583 97.9545 45.6343 95.9514L36.0276 91.5773L35.7415 91.005C35.8641 90.6371 36.6817 90.8823 36.927 91.005C37.3766 91.1276 39.5024 92.2722 39.6659 92.1496C40.3609 89.2063 41.3829 86.1812 42.4457 83.3196C43.5086 80.458 43.3042 80.785 43.7948 80.0083C44.2853 79.2316 44.4488 80.0492 44.4079 80.3354C44.3671 80.6215 44.0809 81.5209 43.9992 81.807C42.9772 85.3636 41.5464 88.7975 40.5244 92.354C40.5244 92.5584 40.647 92.5993 40.7697 92.7219C41.2193 93.0898 42.8545 93.6213 43.4677 93.9074C44.0809 94.1936 43.6721 94.1527 43.7539 94.1936C45.9614 95.2156 48.8638 95.9923 50.9078 97.2187C51.1531 97.4231 51.0305 98.2407 50.7034 98.4451C50.3764 98.6495 46.9425 96.8508 46.5746 96.5646C45.8387 97.6275 45.1029 98.7721 44.5306 99.9576L44.2853 100.121C45.9205 100.693 47.4739 101.266 49.0682 101.879C48.9047 102.901 48.5368 103.105 47.5557 102.697C46.3702 102.165 45.1438 101.715 43.9174 101.307C43.713 101.388 42.6501 104.863 42.8136 105.027L47.4739 106.376L47.5557 106.703C47.8827 106.948 47.801 107.071 47.3922 106.989C47.2286 107.398 47.0651 107.561 46.8607 107.52C45.4299 107.234 44.04 106.825 42.6092 106.376C42.4866 107.357 42.4457 108.379 42.5275 109.442C42.6092 110.178 41.669 109.81 41.2193 109.646L41.2602 109.605Z" fill="#11487F"/>
<path d="M42.3644 109.81C42.2826 108.583 42.2009 107.316 42.2826 106.049C42.8958 105.926 43.3455 106.294 43.877 106.417C44.4084 106.539 46.8203 107.234 47.0247 107.193C47.2291 107.152 47.2291 106.539 47.3926 106.948C47.6788 107.52 47.7196 108.869 47.3926 109.442C47.5152 110.3 47.3926 110.218 46.6568 110.627C46.0436 111.077 42.3644 109.85 42.3644 109.85V109.81Z" fill="#12569B"/>
<path d="M76.4578 64.3105C76.0899 65.7413 75.354 67.0903 74.5773 68.3167C72.983 70.7286 68.1592 75.7977 65.4203 76.6561C63.2128 77.3511 57.367 75.348 55.1186 74.4486C50.7853 72.7317 43.9993 68.8072 40.6881 65.496C40.3201 65.1281 39.9931 64.801 39.8296 64.2696C40.034 64.1878 40.1157 64.2696 40.2793 63.9834L40.6063 63.8608L42.732 65.7821C43.1408 64.801 43.6314 63.779 44.6534 64.8419C44.3672 65.4551 44.0402 66.0274 43.7132 66.6406C44.122 67.0085 47.1879 69.1343 47.3515 69.0116L48.6596 66.518C49.4363 66.4771 50.2539 66.6815 49.5998 67.6217L48.2508 69.7475C49.3546 70.5242 50.6218 71.2191 51.7665 71.7506C52.1753 70.3198 52.6658 69.6657 53.279 68.3167L54.5054 68.889C53.9331 70.238 53.4425 70.933 52.9928 72.3229C53.4834 72.6908 56.5085 74.0807 56.7129 73.8763L57.6531 70.5242C57.6531 70.4424 57.6531 70.3607 57.7349 70.3198C58.3481 70.5242 58.6751 70.3198 59.043 70.7695C58.5525 72.0367 58.1846 73.0587 57.8166 74.3669C59.8606 75.021 61.9864 75.675 64.153 75.7568L63.6624 72.1185C63.7033 71.9141 63.9077 71.8732 64.2348 71.9141C64.5618 71.7097 64.7662 71.6279 64.9297 72.0776C65.0524 73.304 65.2159 74.5304 65.3794 75.7159C66.0335 75.9203 69.2221 72.977 69.7535 72.3638L67.7095 69.7066C67.3007 69.2978 67.9548 68.6028 68.3636 68.8072L70.5711 71.5053C71.2252 70.8103 71.8793 70.1154 72.4107 69.3387L70.7755 67.7444C70.4894 67.54 70.3258 67.3356 70.2032 67.0903C70.5711 66.6815 70.8573 66.3545 71.1025 66.1909C71.2252 66.2727 71.3069 66.3545 71.4296 66.4771C71.9201 67.2538 72.4925 67.8261 73.1874 68.2349C74.0459 66.9677 74.7408 65.6186 75.3132 64.2287C75.0679 63.9426 75.1496 63.6564 75.5176 63.779C75.7219 63.9426 76.1307 64.1878 76.376 64.3514L76.4578 64.3105Z" fill="#11487F"/>
<path d="M75.5582 63.7382C75.2721 63.82 75.6809 63.9426 75.64 64.1879C75.5991 64.7194 73.596 68.4803 73.269 68.562C72.3696 68.4394 71.6338 66.8042 71.0614 66.5589C70.4891 66.3137 70.6935 66.5998 70.6527 66.8451C70.53 67.4174 72.4105 68.7665 72.7375 69.257C72.7784 69.5023 70.857 71.628 70.4891 71.9551L67.9955 68.8891C67.9137 68.9708 67.7502 69.0935 67.7093 69.1752C67.6276 69.3796 69.7942 72.0777 70.1212 72.4456C68.7722 73.5085 67.0552 75.4707 65.4201 76.043C63.7849 76.6154 65.2157 76.2474 65.093 76.043C64.766 75.4298 64.7251 73.0179 64.5616 72.2003C64.5207 71.9551 64.3163 72.0368 64.1528 71.9551C64.1528 71.9551 73.5142 64.0653 74.8224 63.0433C74.9859 63.2886 75.3129 63.6156 75.5582 63.7791V63.7382ZM53.5241 68.3577C53.197 68.8891 52.5838 70.5652 51.9706 71.9959C51.3574 73.4267 52.0524 72.2412 51.7662 72.2003C51.2348 71.7507 47.9644 70.1972 47.8827 69.7884C48.455 68.7664 49.2726 67.908 49.6405 66.8042C49.4361 66.8042 49.0682 66.5589 48.9047 66.6816C48.7411 66.8042 47.6783 68.9708 47.5148 69.2979L47.106 69.4205C46.5336 68.8482 43.7129 67.3357 43.4268 66.8042C43.1815 66.3546 44.1217 65.4552 44.3261 65.0464C44.5305 64.6376 44.3261 64.6376 44.1626 64.5967C43.5494 64.4332 43.1815 65.6596 42.9362 66.0275C42.691 66.3954 42.9771 66.2728 42.691 66.2319L40.2791 64.0244C40.4835 63.6156 40.5243 62.9615 40.8514 62.5527C43.9582 64.7194 49.5996 66.2728 53.5241 68.3168V68.3577Z" fill="#12569B"/>
<path d="M64.1935 71.9142C64.1118 71.9959 63.9482 72.0368 63.9074 72.1594L64.4797 76.1248C62.1086 75.9204 59.7376 75.3889 57.5301 74.5305C57.3257 74.2443 58.266 71.9142 58.6339 70.8922C59.0018 69.8702 58.0207 70.279 57.9389 70.5242C57.571 71.5054 56.9578 73.999 56.8761 74.3669C56.2629 74.1217 52.7472 72.8953 52.6654 72.3638C52.5837 71.8324 53.6874 69.2161 53.9736 68.562C56.4673 69.911 59.3288 70.4834 62.0269 71.3418C64.7249 72.2003 63.4986 71.628 64.1935 71.8733V71.9142Z" fill="#12569B"/>
<path d="M98.4922 65.4959L98.8192 65.4142L101.517 68.5619C102.58 67.4582 103.684 66.4771 104.91 65.5777L105.36 65.6595C105.728 65.4959 105.81 65.6595 105.523 65.9456C105.769 66.2727 105.769 66.5179 105.564 66.6815L102.417 69.6248L104.665 72.3229C105.769 71.1782 106.954 70.0745 108.14 68.9707L108.63 69.1342C108.835 68.9298 108.916 69.0116 108.794 69.2978C109.08 69.5839 109.162 69.8701 108.998 70.1154L105.687 73.1813C105.605 73.3448 108.058 75.3888 108.753 75.2253C109.448 75.0618 111.533 72.4046 111.819 71.587H112.187C112.514 72.282 111.737 73.304 111.328 73.8763C110.552 75.0209 109.611 76.0429 108.508 76.8196L106.75 75.7159C103.398 73.0996 100.822 69.5839 98.3286 66.15C98.1651 65.823 97.879 66.5179 97.6746 66.15L98.533 65.4142L98.4922 65.4959Z" fill="#11487F"/>
<path d="M103.888 63.6156C104.542 63.9426 105.4 64.9238 105.359 65.6596C103.888 66.4363 102.743 67.908 101.476 69.0117L98.4915 65.4961C99.3499 64.7602 101.394 62.471 102.498 62.5936C103.601 62.7163 103.561 63.2068 103.888 63.6156ZM111.205 70.8922C111.532 71.0966 111.9 71.1783 112.064 71.628C111.859 71.7915 111.941 72.0777 111.777 72.2821C111.409 72.8135 110.551 73.8764 110.101 74.4078C109.652 74.9393 109.243 75.3481 109.079 75.4298C108.139 75.9613 106.913 74.7758 106.218 74.2034C105.523 73.6311 105.155 73.3041 105.196 73.1815L108.711 69.952V69.2979L109.12 69.257L111.082 70.5243L111.164 70.9331L111.205 70.8922Z" fill="#12569B"/>
<path opacity="0.3" d="M57.6143 87.0647C57.8396 86.8246 58.2609 86.2823 58.7964 85.5488C59.3347 84.8114 59.9562 83.9272 60.5473 83.0737C61.1379 82.2209 61.6959 81.4021 62.1062 80.7962C62.3114 80.4933 62.4793 80.2437 62.5961 80.07C62.6545 79.9832 62.7001 79.9153 62.731 79.8692C62.7464 79.8462 62.7583 79.8287 62.7662 79.8169C62.7701 79.811 62.773 79.8063 62.7749 79.8033C62.7759 79.8019 62.7768 79.8008 62.7773 79.8001L62.7777 79.7993C62.7804 79.8011 62.8196 79.8269 63.3805 80.2021L62.7781 79.7989L63.5702 78.6149L69.1392 90.0751L67.6685 90.7901L63.3418 81.8864C62.9435 82.4738 62.4315 83.2249 61.8915 84.0047C61.2971 84.8629 60.667 85.76 60.117 86.5133C59.58 87.2488 59.0846 87.8966 58.7732 88.22L57.6502 87.1389L58.8786 89.6663L57.4079 90.3813L53.0812 81.4776C52.6828 82.065 52.1709 82.8161 51.6308 83.5959C51.0365 84.4541 50.4059 85.3512 49.8559 86.1045C49.319 86.84 48.8235 87.4878 48.5122 87.8112L47.3345 86.677C47.5545 86.4485 47.9839 85.8953 48.5353 85.14C49.0737 84.4026 49.6956 83.5184 50.2867 82.6649C50.8772 81.8122 51.4349 80.9933 51.8452 80.3874C52.0503 80.0845 52.2187 79.8349 52.3354 79.6612C52.3938 79.5744 52.4395 79.5065 52.4704 79.4604C52.4858 79.4374 52.4976 79.4199 52.5055 79.4081C52.5095 79.4022 52.5123 79.3975 52.5143 79.3945C52.5152 79.3931 52.5162 79.392 52.5167 79.3913L52.5171 79.3905C52.5171 79.3905 52.5172 79.3903 53.155 79.8169L52.5171 79.3905L53.3095 78.2061L57.6143 87.0647Z" fill="white"/>
<path d="M82.7122 85.7724C82.3034 83.6058 81.8538 81.4392 81.3632 79.3134C80.8727 77.1877 80.3003 75.9613 79.9733 74.4078C79.9324 74.1217 79.7689 73.672 80.2186 73.7946C81.3223 76.043 82.0173 78.3732 82.6305 80.7851C82.9575 82.1341 83.1619 84.3825 83.6116 85.5271C84.0613 86.6718 84.2657 85.7724 83.8569 85.895C83.5298 85.8133 83.0393 85.895 82.6714 85.7315L82.7122 85.7724Z" fill="#11487F"/>
<path d="M69.7533 97.1369C69.0992 98.9356 68.6086 100.816 67.8319 102.574C64.9295 101.593 61.9044 101.061 58.9202 100.244C59.3698 99.6715 60.5145 99.835 61.1277 99.6715L66.2376 100.857C66.7282 99.2627 67.2596 97.6684 67.8319 96.1149C68.486 94.398 69.4671 92.5175 69.9577 90.8006C70.0803 90.3509 70.3256 89.8195 70.0394 89.3289C70.53 88.9201 72.0017 90.1465 71.9608 90.6779C71.8381 91.8226 69.835 96.9734 69.7942 97.1778L69.7533 97.1369Z" fill="#001A23"/>
<path d="M108.589 69.1343C108.344 69.1343 108.14 69.2569 107.935 69.4204C107.077 70.0745 105.523 72.2003 104.788 72.5682C104.052 72.9361 104.624 72.6908 104.501 72.5682L102.049 69.6248C102.049 69.2978 104.788 67.0903 105.237 66.5589C105.687 66.0274 105.564 66.2318 105.523 65.9048C106.259 66.8041 107.731 68.3576 108.589 69.1343Z" fill="#12569B"/>
<path d="M54.0151 84.5051C53.034 84.2598 49.8862 83.2378 49.1504 83.3196C47.8423 83.4831 47.0655 85.2409 46.575 86.3038C45.4304 88.7566 44.6536 91.5364 43.7952 94.1118L43.9587 94.398C45.9618 95.2565 47.9649 96.1558 49.968 97.0552C50.7056 97.0552 50.3323 99.519 50.9082 99.0583C58.8488 97.657 59.9501 98.3695 60.515 99.8759C61.1281 100.039 65.7067 101.184 66.0337 101.143C66.1563 101.143 66.279 101.143 66.4425 101.061C67.628 97.7092 68.8953 94.398 70.2034 91.1276C70.4487 90.5962 70.7758 89.5742 70.0399 89.2471C69.3041 88.9201 58.5527 85.7724 54.056 84.5869L54.0151 84.5051Z" fill="#003147"/>
<path d="M47.5563 106.662L42.4463 105.19C42.2828 104.945 43.4274 101.02 43.7136 100.939C44.6538 100.857 48.0877 102.942 48.7418 102.492C49.3959 102.042 48.9462 102.083 48.8644 101.961C48.7827 101.838 47.5154 101.593 47.2292 101.47C46.1664 101.061 45.1035 100.53 44.0406 100.121C44.7765 98.7721 45.4305 97.3822 46.4525 96.2375C48.6478 97.0048 51.3786 96.585 50.377 98.7312C49.3959 101.02 48.0877 104.25 47.5154 106.621L47.5563 106.662Z" fill="#12569B"/>
<path d="M61.1278 99.6715C61.1278 99.7941 61.1278 99.9168 61.0051 99.9985L59.697 100.162L66.7283 101.961C67.178 102.043 67.5459 102.288 67.8321 102.615C68.6905 104.005 68.5679 105.108 67.6685 106.417C66.156 106.866 64.7252 106.703 63.1309 106.417C61.8227 106.09 60.5146 105.803 59.2064 105.558C61.6183 106.498 64.1938 106.907 66.7283 107.234L66.9327 107.48C67.4641 108.134 67.178 109.278 66.7692 109.851C66.2377 110.586 66.0742 110.464 65.5837 110.832L64.6843 111.036L58.4706 109.81C60.2693 110.464 62.1089 110.954 64.0302 111.2L65.2975 111.649C65.9107 112.017 64.6434 114.184 63.4171 114.02C59.8196 114.02 55.7726 112.63 52.4613 111.363C49.15 110.096 49.2318 109.728 48.2507 109.483C47.9237 109.074 47.8419 108.501 47.9645 107.807C48.6186 104.495 49.5588 100.693 51.4802 97.9545C52.8701 97.7092 54.1782 97.1369 55.5273 96.8508C56.8763 96.5646 58.5524 96.4829 59.9832 96.1967C61.4139 95.9105 62.7221 95.1338 63.2127 95.2156C63.7032 95.2973 64.0711 95.8697 64.1529 96.1967C64.3982 97.3005 63.9894 98.2407 63.0491 98.8539C62.1089 99.4671 61.3731 99.6715 61.0869 99.7532L61.1278 99.6715Z" fill="#3A3C40"/>
<path d="M66.9735 107.398C66.6465 107.602 61.5774 106.539 60.8007 106.335C60.024 106.13 57.9391 105.517 58.5114 105.068C60.4328 105.231 62.2315 105.967 64.1528 106.212C66.0742 106.457 65.8698 106.457 66.483 106.376C67.0962 106.294 67.7911 105.722 67.7094 106.376C67.4641 106.744 67.0553 106.948 66.9735 107.398ZM65.5836 110.75C65.5019 110.791 65.3383 111.486 65.2975 111.567C63.5396 111.24 60.7189 110.872 59.0429 110.259C57.3668 109.646 57.8165 109.891 57.7756 109.278L65.6245 110.75H65.5836ZM50.7443 97.1777C50.857 96.9523 51.0936 98.7945 50.9487 99.1808C50.2537 100.612 48.4142 106.13 48.2915 107.643C48.2506 108.256 48.2915 108.869 48.2915 109.483C47.9645 109.401 47.7601 109.483 47.433 109.483C47.3104 108.624 47.2695 107.888 47.433 106.989C47.5966 106.09 47.5557 106.825 47.5966 106.703L47.433 106.212C47.7601 104.74 48.2506 103.432 48.9865 102.247C48.9047 102.124 48.823 102.042 48.8638 101.92C48.9902 101.288 50.4725 97.2927 50.7443 97.1777Z" fill="#1E1F21"/>
</svg>
