<svg width="128" height="128" viewBox="0 0 128 128" fill="none" xmlns="http://www.w3.org/2000/svg">
<path d="M62.4662 64.8232C55.8015 68.1785 50.4641 72.8645 42.4897 69.6924C38.7014 68.1855 35.061 65.5379 31.7832 63.1579C32.1212 63.2424 34.0998 63.6332 34.2794 63.6332H38.3247C39.3105 63.6332 42.2749 62.82 43.2678 62.3939C46.9786 60.7955 47.0913 57.8452 51.9252 59.7886C55.4917 61.2215 58.8892 63.3833 62.4697 64.8232H62.4662Z" fill="#E6E6E6"/>
<path d="M67.4626 55.7857C67.9695 56.5462 68.6596 57.458 69.244 58.1657C69.5926 58.5882 71.7719 60.4084 71.5043 60.7745L63.4173 64.3445C63.2659 63.9396 62.8821 63.8481 62.5512 63.665C60.1289 62.3518 52.2637 58.1657 49.9822 57.9228C46.5742 57.5601 45.8982 59.9472 43.2823 61.2181C42.3282 61.6794 39.2793 62.6792 38.3216 62.6792H33.4455C32.685 62.6792 31.0479 61.8167 30.1113 61.9716C28.5693 58.979 28.182 55.5568 28.689 52.2192C30.8648 53.5007 32.1146 54.6274 34.6918 53.5817C35.9733 53.0607 40.3601 50.1209 41.1734 50.1068C41.9163 50.0927 45.0286 51.7087 46.1059 52.0502C48.3697 52.7684 50.6512 53.1839 53.0453 52.9093C54.3268 52.7614 55.4851 51.9833 56.6998 51.8073C60.6148 51.244 63.97 54.733 67.4626 55.7857Z" fill="#E6E6E6"/>
<path d="M104.547 47.6703C104.547 47.6703 104.652 53.395 109.68 53.1697C114.704 52.9444 115.366 46.9732 115.366 45.3009C115.366 43.6286 114.405 43.2695 114.405 43.787C114.405 44.3045 113.549 50.3637 110.201 50.3637C106.853 50.3637 105.336 48.9026 104.554 47.6739L104.547 47.6703Z" fill="#FBFBFB"/>
<path d="M93.4245 45.3819L94.8152 46.9486C97.4979 59.9576 76.7011 54.1555 74.1099 43.3575L74.4655 40.8754C75.9336 42.5231 81.1055 49.3286 83.0842 50.3144C86.7915 52.1628 92.6886 51.0713 93.4245 45.3784V45.3819Z" fill="#E6E6E6"/>
<path d="M32.4943 45.0862C34.4835 46.7691 37.2261 47.7126 39.3245 49.0716C39.5533 49.2195 39.7505 49.047 39.6273 49.5997C37.2719 50.4412 34.5645 53.3035 32.0049 52.8247C30.9628 52.6311 29.8819 51.9445 28.9243 51.508C29.5968 48.5506 30.2164 47.1951 32.4908 45.0897L32.4943 45.0862Z" fill="#E6E6E6"/>
<path d="M40.581 41.2839C46.2107 40.2558 51.1326 41.224 56.1285 43.6955C60.3463 45.7833 65.4795 49.6526 66.747 54.3598C65.7189 53.5148 60.2477 50.751 58.9944 50.575C55.5687 50.1032 54.5125 51.772 51.8755 51.9762C48.9463 52.2051 44.1264 50.1103 41.3697 48.9308C38.5144 47.7056 35.307 45.734 32.5081 44.3891C35.0113 42.2908 36.416 42.3119 39.6269 41.5197C39.634 41.9915 39.9156 42.1852 40.2255 42.4668C42.0069 44.0899 46.1684 46.4065 48.5836 46.4945C50.0799 46.5508 54.4914 45.2341 54.6111 43.4209C53.0584 43.3787 51.8896 44.7729 50.3933 45.0264C47.1507 45.5791 44.0349 44.3962 41.3767 42.7555C41.0669 42.5654 40.4437 41.8683 40.5775 41.2803L40.581 41.2839Z" fill="#E6E6E6"/>
<path d="M60.1326 87.9333C52.1512 89.2888 40.2829 105.646 35.3503 98.1081L38.8006 98.601C42.8882 98.3616 46.4582 94.4466 49.581 92.137L60.1291 84.564V87.9298L60.1326 87.9333Z" fill="#9C9C9C"/>
<path d="M72.2199 91.9256C68.5373 90.5173 75.1351 86.3277 77.8918 85.3595C82.3173 83.8069 88.5102 84.6694 90.5346 86.6938C95.2031 88.5 97.5056 91.3905 101.505 93.4395C103.98 94.707 106.927 95.7702 109.564 96.6821C110.141 97.2489 107.769 97.5552 107.508 97.5975C104.927 98.0235 101.977 98.0763 99.3329 98.3439C99.4667 97.6221 98.157 98.2594 97.6993 98.2418C92.3443 98.0305 87.3695 97.9742 82.0885 98.6924C81.5357 98.7664 80.0359 98.5164 79.5888 98.8192C77.6172 97.8122 73.2937 93.8198 72.2164 91.9256H72.2199Z" fill="#A5A5A5"/>
<path d="M122.646 51.2685C120.601 52.0255 119.006 53.5429 117.527 55.0709C116.379 56.2539 116.404 56.5531 115.034 57.4509C115.499 56.6939 117.006 49.3533 116.936 48.6526C119.027 47.0331 120.548 44.4841 120.675 41.8084C120.71 41.1113 120.15 40.2029 120.742 39.615C124.491 42.3823 123.854 47.1986 122.643 51.265L122.646 51.2685Z" fill="#E6E6E6"/>
<path d="M94.1038 47.2268C94.3714 54.3598 86.742 52.9339 83.0875 50.9869C72.2226 45.2095 74.3385 39.5798 76.1799 38.1188C82.7073 32.9292 92.442 38.668 94.1073 47.2268H94.1038Z" fill="#373737"/>
<path d="M115.986 100.724C114.511 100.925 113.053 100.058 111.603 100.259C109.001 100.622 105.209 101.917 102.431 102.509C97.6677 103.523 89.9784 105.769 85.4332 105.963C81.2541 106.142 79.6945 103.78 76.8673 101.428C76.5153 101.136 76.3287 100.872 75.79 100.963C75.4379 99.8367 74.857 98.7065 74.5437 97.5694C74.4768 97.3299 74.1176 97.0131 74.7197 97.1539C75.6914 97.3792 77.6841 99.5973 79.029 100.217C82.0885 101.636 86.3944 101.196 89.7003 100.956C95.1821 100.562 101.896 100.066 107.272 99.2593C108.057 99.1431 108.878 99.0199 109.631 98.7629C110.258 98.5516 111.691 97.506 111.814 97.4849C112.025 97.4532 115.592 98.3298 115.754 98.4531C116.123 98.7312 116.018 100.178 115.986 100.717V100.724Z" fill="#E6E6E6"/>
<path d="M124.55 79.3251L118.843 81.4657C118.146 78.5576 116.808 75.5861 115.28 73.0195C115.041 72.6146 114.643 71.6711 114.086 71.7169C113.551 70.6325 111.904 67.668 110.84 67.235C109.485 66.6858 111.46 69.2735 111.601 69.5657C113.643 73.8046 114.741 78.3851 115.991 82.8916C109.548 82.2297 103.563 81.9551 97.1518 82.962C96.0428 83.138 94.9584 83.7577 93.8142 83.5535C92.5679 82.6029 87.4699 81.6664 86.7376 80.8672C86.4313 80.5327 85.3962 76.8148 84.8751 75.8326C84.6216 75.3573 84.2801 74.5897 83.6429 74.5651C83.1464 73.5441 82.4564 72.2133 81.2664 71.9527C82.8437 75.5615 84.0513 79.6244 83.3823 83.5781C78.3864 83.6063 73.0737 84.997 70.6796 89.7816C67.3983 85.4582 65.4056 79.7617 65.3281 74.3327C65.9689 74.47 65.7858 74.0088 65.9196 73.6286C66.754 71.238 69.9825 64.686 72.6406 64.1438C73.3976 63.9889 75.1509 65.5274 75.9607 65.964C83.0866 69.8227 91.7651 70.3438 99.6304 68.7947C103.954 67.9426 108.742 66.2738 111.713 62.9221C118.66 65.5098 121.941 72.9068 124.557 79.3286L124.55 79.3251Z" fill="#FBFBFB"/>
<path d="M106.472 36.7667C103.701 39.0411 103.187 45.22 103.923 48.4696C105.388 54.9653 110.739 55.9264 114.517 50.6313L115.51 48.6562C115.739 49.7934 115.869 51.0679 115.749 52.2226C115.362 52.6099 115.263 52.7402 115.01 53.0641C105.504 65.1577 87.0449 63.5523 74.1309 57.803C72.4163 57.039 70.8989 55.9264 69.128 55.3138C68.6069 54.4583 68.3605 54.2611 67.938 53.1732C68.5471 49.3638 69.3357 45.6354 71.5502 42.3999C71.9938 41.7485 72.5959 40.7134 73.4092 40.5726C71.8284 47.7619 80.5245 53.6521 86.6822 54.7681C94.5264 56.1905 97.0507 52.191 94.287 45.0263C92.2731 39.8086 86.1506 35.5169 80.1795 35.5943C81.3096 34.8409 82.2954 34.6402 82.6792 34.51C89.5164 32.1898 97.7302 33.1369 104.391 35.6366C105.074 35.8936 106.06 36.1295 106.472 36.7667Z" fill="#8B8B8B"/>
<path d="M64.1316 71.7168C63.702 77.5224 65.1702 83.4091 68.1769 88.3557C67.3671 88.2958 66.8531 87.7677 66.0363 87.5248C62.9345 86.6024 61.1742 86.877 58.1851 87.8804C56.0727 88.3381 54.5623 89.2887 54.1398 89.5457C52.0978 90.7779 51.024 91.7215 49.1439 93.1122C46.021 95.4253 42.8876 98.358 38.8001 98.6009L35.3498 98.108C33.8922 96.7878 32.9029 93.1403 32.7339 91.2145C39.3493 90.9328 45.926 86.2608 50.9254 82.1733C54.6714 79.1103 58.171 75.146 62.2515 72.5723C62.8078 72.2203 63.4556 71.7309 64.1351 71.7203L64.1316 71.7168Z" fill="#5A5A5A"/>
<path d="M49.8597 72.4316C53.405 70.9775 62.9919 65.8091 67.2942 63.5101C67.6463 63.32 66.6147 65.7845 66.8929 65.6331L61.0661 68.9214C56.9821 71.3613 53.1586 73.8786 48.6767 76.3642C35.9916 83.3915 18.9056 83.3247 5.61843 78.1422C5.48464 77.5507 5.93529 77.6634 6.24512 77.4732C11.5438 74.199 11.4558 72.6499 13.9449 67.4427C14.9413 67.7314 15.4166 68.851 16.1982 69.5868C19.6625 72.8435 26.7004 76.4452 31.4569 76.924C39.0124 77.6845 43.283 75.132 49.8632 72.4351L49.8597 72.4316Z" fill="#949494"/>
<path d="M21.5529 60.7815C21.5494 61.2498 21.8733 61.4399 22.1444 61.7356C25.4328 65.3584 29.133 68.6045 33.8015 70.2945C36.4244 71.2451 39.7198 72.164 42.4871 71.4774C44.9903 72.4562 47.1837 72.8188 49.8594 72.428C43.2792 75.1249 39.0121 77.6774 31.4532 76.9169C26.7002 76.4381 19.6623 72.84 16.1944 69.5798C15.4128 68.8439 14.9375 67.7208 13.9412 67.4357C14.589 66.0837 15.7367 64.5135 16.3212 63.1545C16.9866 63.0242 17.6449 62.4151 17.7471 61.7286C18.8173 61.2639 20.3876 60.7674 21.5529 60.778V60.7815Z" fill="#B4B4B4"/>
<path d="M113.922 97.0342C114.052 96.4427 110.711 95.9569 110.394 95.7738C104.937 92.6439 102.293 90.0456 96.4805 87.6445C96.7586 87.1762 96.9522 87.053 97.4205 86.7995C100.645 85.0744 115.922 85.1483 119.844 85.8067C120.654 85.944 121.907 86.1869 122.579 86.6376C124.699 88.0564 127.508 94.2634 125.632 96.4568C123.569 98.8685 116.64 97.7137 113.919 97.0342H113.922Z" fill="#A5A5A5"/>
<path d="M32.7338 91.211C32.5049 88.6444 32.6317 85.7257 32.4944 83.1275C41.1765 82.712 48.5559 79.0645 55.5022 74.1461C57.6182 72.6463 59.5405 70.8507 61.6775 69.3826C62.3922 68.8932 64.0329 67.7208 64.73 67.4392C65.0363 67.3159 65.1454 67.4638 65.0715 67.7807C64.737 69.1678 64.2477 70.1642 64.1315 71.7168C63.452 71.7274 62.8042 72.2168 62.2479 72.5688C58.1709 75.1425 54.6713 79.1068 50.9218 82.1698C45.9224 86.2574 39.3457 90.9293 32.7303 91.211H32.7338Z" fill="#474747"/>
<path d="M116.393 50.5397C115.122 62.327 103.951 65.7843 96.5962 66.3301C86.4812 67.08 72.9265 64.0838 68.4763 54.9863C70.2472 55.5989 72.4125 57.0354 74.1271 57.7994C87.041 63.5522 105.405 64.7809 114.911 52.6873C115.164 52.3634 115.791 51.4234 116.393 50.5397Z" fill="#5A5A5A"/>
<path d="M115.791 64.8092C118.397 66.7351 120.798 69.8122 120.742 70.0621C120.728 70.129 120.428 70.1396 120.069 69.8685C113.366 64.7529 110.898 64.8656 110.021 64.5064C107.099 66.8266 103.201 68.0905 99.6208 68.7947C91.7556 70.3473 83.077 69.8227 75.9511 65.964C75.1413 65.5239 73.388 63.9889 72.6311 64.1438C69.9729 64.686 66.748 71.238 65.91 73.6286C65.7763 74.0088 65.9593 74.4736 65.3186 74.3327C65.2658 70.7416 65.7727 67.6751 67.9767 64.7459C68.7548 63.7108 71.8812 61.2075 73.0923 61.6723C74.1837 62.0912 75.9335 63.5206 77.289 64.1509C85.5521 67.9849 98.0224 68.2947 106.391 64.6261C107.377 64.1931 109.584 62.644 110.218 62.4891C110.968 62.306 113.936 63.4397 115.791 64.8092Z" fill="#DADADA"/>
<path d="M67.938 53.1733C64.6074 44.6039 70.9553 37.1752 78.4825 33.8728C86.464 30.3732 96.5719 30.4119 104.49 34.1122C104.955 34.3304 107.553 35.7141 107.659 35.9394C107.88 36.4147 106.666 36.6083 106.472 36.7703C106.06 36.133 105.074 35.8972 104.391 35.6401C97.7267 33.1404 87.9532 31.454 79.0564 36.1471C77.2256 36.1718 73.6838 39.3228 73.4092 40.5727C72.5959 40.7135 71.9939 41.7486 71.5503 42.3999C69.3357 45.6354 68.5471 49.3639 67.938 53.1733Z" fill="#F2F2F2"/>
<path d="M105.281 48.8921C104.676 46.1319 104.69 43.7906 105.648 41.055C106.887 37.5132 110.126 35.5557 112.893 39.0236C113.918 40.3051 115.157 44.111 115.006 45.6953C114.196 49.642 111.334 51.4341 109.489 51.6031C108.778 51.6699 106.781 51.6136 105.281 48.8921Z" fill="#373737"/>
<path d="M82.2107 17.2691C81.9678 18.2056 81.5841 18.709 80.7673 19.2759C78.8203 20.6278 71.5606 21.4024 71.3001 21.8178C70.6487 22.8599 72.1591 23.0677 72.9302 22.7367C72.7858 26.4616 74.1694 30.2816 76.2607 33.3165C76.2854 33.3728 75.2538 33.8727 75.1482 33.8833C74.7081 33.9255 73.0675 30.9963 72.7436 30.4154C70.9902 27.2503 69.5925 24.0464 69.6031 20.3602C70.7227 16.8783 74.9053 11.7697 78.9576 13.7413C80.8482 14.6602 80.5701 16.4699 82.2072 17.2691H82.2107Z" fill="#9C9C9C"/>
<path d="M117.858 22.934C116.474 24.1592 115.21 24.0747 113.238 23.9338C112.056 23.8493 107.51 22.1348 107.179 22.3706C106.088 23.1452 108.366 23.8845 108.369 24.043C106.44 26.3209 105.422 30.0352 105.141 32.9891C104.155 32.968 103.592 32.4469 103.595 31.4153C103.606 28.1059 105.092 21.8003 107.024 19.114C107.433 18.6 107.838 17.931 108.285 17.4874C111.834 12.7028 122.364 16.146 117.861 22.9304L117.858 22.934Z" fill="#9C9C9C"/>
<path d="M115.985 82.8916C116.097 83.3 116.53 83.5992 116.46 84.078C111.08 84.2893 105.299 83.6027 100 84.6237C99.1309 84.7927 97.881 85.1342 97.1029 85.5321C96.3249 85.9299 95.6841 86.877 95.2827 87.0566C94.6032 87.3593 92.5577 85.9616 91.7198 85.6271C89.6214 84.7857 87.333 84.0534 85.0762 83.8281C85.4388 80.6101 85.0692 77.5049 83.6362 74.5686C84.2735 74.5932 84.615 75.3608 84.8685 75.8361C85.3895 76.8148 86.4246 80.5362 86.7309 80.8707C87.4632 81.6664 92.5612 82.6029 93.8076 83.557C94.9518 83.7577 96.0362 83.138 97.1452 82.9655C103.556 81.9586 109.545 82.2332 115.985 82.8951V82.8916Z" fill="#DADADA"/>
<path d="M42.4859 71.4774C39.7186 72.1604 36.4233 71.2415 33.8003 70.2944C29.1319 68.6045 25.4351 65.3549 22.1433 61.7356C21.8757 61.4399 21.5483 61.2497 21.5518 60.7815C28.4559 60.8484 36.0536 68.9636 42.4824 71.4809L42.4859 71.4774Z" fill="#949494"/>
<path d="M32.5128 44.3926C35.3083 45.734 38.5192 47.7091 41.3745 48.9343C44.1312 50.1173 48.951 52.2086 51.8803 51.9797C54.5173 51.7755 55.57 50.1032 58.9991 50.5785C60.2525 50.751 65.7237 53.5183 66.7517 54.3632C67.3256 54.835 67.227 55.4335 67.4664 55.7891C63.9774 54.7364 60.6222 51.2474 56.7036 51.8107C55.489 51.9867 54.3307 52.7613 53.0491 52.9127C50.6551 53.1908 48.3736 52.7719 46.1098 52.0536C45.0325 51.7121 41.9202 50.0926 41.1773 50.1102C40.364 50.1278 35.9772 53.0641 34.6957 53.5852C32.122 54.6308 30.8687 53.5042 28.6929 52.2226C28.7492 51.853 28.89 51.6804 28.9323 51.5079C29.8899 51.9445 30.9708 52.631 32.0129 52.8247C34.5725 53.3035 37.2799 50.4447 39.6352 49.5997C36.8891 48.202 33.65 46.5543 31.7876 45.2974C31.953 45.1425 32.4459 44.4524 32.5199 44.3926H32.5128Z" fill="#C1C1C1"/>
<path d="M63.418 64.3444C63.1997 64.7422 62.7349 64.6824 62.4674 64.8197C58.8868 63.3797 55.4893 61.218 51.9228 59.7851C47.0889 57.8417 46.9763 60.792 43.2654 62.3904C42.2726 62.8164 38.5265 64.9429 31.7809 63.1544C30.2846 62.7566 30.8056 62.6017 30.355 61.7285C34.2982 62.9185 38.0865 62.4432 38.0865 62.4432C39.0406 62.4432 42.0965 61.4504 43.0507 60.9856C45.663 59.7182 46.5714 57.5635 49.9794 57.9226C52.2608 58.1656 60.1261 62.3482 62.5484 63.6649C62.8828 63.8445 63.2631 63.936 63.4144 64.3444H63.418Z" fill="#C1C1C1"/>
<path d="M119.316 38.6679C119.295 40.5867 119.802 41.988 119.197 43.8962C118.866 44.9383 117.778 47.0015 116.701 47.4627C116.359 45.3678 115.602 41.4493 114.651 39.6432C114.468 39.2946 112.969 37.3829 113.134 37.2385C115.07 37.2456 117.144 37.4216 118.912 38.249C119.172 38.3687 119.257 38.6292 119.32 38.6644L119.316 38.6679Z" fill="#E6E6E6"/>
<path d="M121.932 53.1733C120.587 56.8454 118.664 59.9366 116.119 62.9397C115.182 63.6474 114.147 62.387 113.366 61.9715C113.383 61.5315 113.598 61.2463 113.845 60.9048C115.436 58.6938 118.781 54.7787 120.999 53.3141C121.22 53.1698 121.78 52.6804 121.932 53.1733Z" fill="#E6E6E6"/>
<path d="M16.3216 62.6826C16.2935 62.827 16.3639 63.0558 16.3216 63.1579C15.7407 64.5169 14.5895 66.0836 13.9416 67.4391C11.4525 72.6462 11.5405 74.1953 6.24185 77.4696C5.93203 77.6597 5.48138 77.5506 5.61517 78.1385C5.44617 78.0716 2.64369 77.54 3.23517 76.9521C3.32319 76.864 5.00961 76.4416 5.61869 76.1212C11.2131 73.1602 11.3715 66.2984 16.3181 62.6826H16.3216Z" fill="#E6E6E6"/>
<path d="M96.4794 87.6445C102.292 90.0457 110.647 93.2389 116.023 97.1152C113.882 96.5801 109.851 95.281 107.774 94.5416C104 93.2002 101.366 92.306 98.3841 89.6619C97.694 89.0493 96.0357 88.3839 96.4794 87.6445Z" fill="#717171"/>
<path d="M82.2103 17.2691C80.5732 16.4699 80.8478 14.6602 78.9607 13.7413C74.9049 11.7697 70.7223 16.8747 69.6062 20.3602C69.6203 15.6847 72.546 11.1782 77.7531 11.8648C80.2247 12.1922 82.8828 14.7025 82.2139 17.2691H82.2103Z" fill="#F2F2F2"/>
<path d="M114.084 71.7168C114.644 71.671 115.038 72.6146 115.278 73.0195C116.806 75.5826 118.143 78.5576 118.841 81.4657C120.615 79.4694 123.122 79.149 124.548 79.3251C124.812 79.9694 125.653 80.765 125.498 81.7015C123.597 81.191 121.632 81.5713 119.865 82.3705C119.499 82.536 117.788 83.7612 117.651 83.6027C117.066 79.5504 115.894 75.3924 114.081 71.7168H114.084Z" fill="#DADADA"/>
<path d="M79.5911 98.8193C80.0382 98.5166 80.8585 98.4532 81.4077 98.3792C86.6888 97.6575 93.1564 97.6575 98.5114 97.8687C98.969 97.8864 103.162 97.6822 103.028 98.4039C99.1486 98.7982 91.4594 99.3721 87.569 99.5446C85.1256 99.6537 81.6718 99.8826 79.5911 98.8229V98.8193Z" fill="#717171"/>
<path d="M40.5822 41.2838C41.8602 43.0019 47.1553 45.5826 50.3979 45.0298C51.8942 44.7763 53.3518 42.6357 54.908 42.678C54.908 42.678 55.7916 42.671 56.1367 43.2941C54.6192 44.5228 51.3239 46.8676 48.3982 46.5684C45.9935 46.3219 42.0116 44.0933 40.2301 42.4668C39.9238 42.1851 39.6386 41.9915 39.6316 41.5197C39.9625 41.4387 40.209 41.3507 40.5822 41.2803V41.2838Z" fill="#C1C1C1"/>
<path d="M117.176 22.7403C118.443 16.3925 112.496 15.5193 106.3 20.3638C106.332 20.23 107.972 17.7585 107.994 17.6071C110.271 15.4665 113.644 14.361 116.591 16.0826C118.732 17.3325 119.471 20.473 117.76 22.5044C117.566 22.7333 117.235 22.691 117.176 22.7438V22.7403Z" fill="#F2F2F2"/>
<path d="M122.646 51.2686C122.449 52.029 122.174 52.5114 121.931 53.1697C121.78 52.6768 121.22 53.1627 120.998 53.3106C118.78 54.7752 115.439 58.6902 113.844 60.9012C113.598 61.2427 113.386 61.5279 113.365 61.968C112.957 61.7497 111.485 61.6441 111.704 61.1406C112.897 60.4611 114.126 58.0424 115.031 57.4509C116.404 56.5531 116.376 56.2539 117.523 55.0709C119.002 53.5465 120.593 52.0255 122.642 51.2686H122.646Z" fill="#C1C1C1"/>
<path d="M120.745 39.6185C120.154 40.2064 120.714 41.1148 120.679 41.8119C120.548 44.4876 119.031 47.0366 116.94 48.6561C116.922 48.466 116.76 47.8287 116.7 47.4661C117.774 47.0049 118.865 44.9382 119.196 43.8996C119.805 41.9879 119.295 40.5902 119.316 38.6714C119.999 39.0587 120.094 39.0164 120.742 39.622L120.745 39.6185Z" fill="#C1C1C1"/>
<path d="M123.121 85.8244C122.036 85.0604 120.927 84.2647 119.554 84.3175L121.811 83.0465C125.135 82.0783 125.216 83.1134 125.698 85.0709C125.099 85.0815 123.36 85.1413 123.121 85.8244Z" fill="#717171"/>
<path d="M125.726 84.6202C125.737 84.6695 125.515 87.1411 125.497 87.8839C124.709 87.0847 123.557 86.4264 122.628 85.768C122.864 85.085 125.131 84.6308 125.73 84.6202H125.726Z" fill="#949494"/>
<path d="M17.7479 61.7321C17.6457 62.4187 16.9838 63.0278 16.3218 63.1581C16.3641 63.056 16.2936 62.8271 16.3218 62.6828C16.9626 62.2144 16.7655 62.1581 17.7479 61.7321Z" fill="#C1C1C1"/>
<path d="M81.971 35.1015C87.9422 35.0241 92.2691 39.8087 94.283 45.0264C97.0502 52.1875 94.5224 56.187 86.6782 54.7682C80.524 53.6521 71.8279 47.762 73.4052 40.5727C73.6798 39.3264 75.5986 37.3865 76.7534 36.6682C78.3201 35.6965 80.1368 35.1262 81.9675 35.1015H81.971ZM75.074 44.3751C77.9856 51.9411 87.2451 54.0253 90.2553 53.8422C92.7691 53.6909 94.628 52.2755 94.3428 48.4168C94.3217 48.1493 94.1809 47.512 94.1034 47.2268C92.329 40.5797 83.499 33.1158 76.9716 38.3054C75.1303 39.77 74.2889 42.3295 75.074 44.3751Z" fill="#0E0E0E"/>
<path d="M107.63 44.794C109.838 44.0053 110.401 47.6528 108.76 48.2372C106.553 49.0259 105.99 45.3784 107.63 44.794Z" fill="#F2F2F2"/>
<path d="M88.5591 45.6881C90.3089 44.3644 91.8193 47.7231 90.5201 48.7054C88.7703 50.0292 87.26 46.6704 88.5591 45.6881Z" fill="#F2F2F2"/>
<path d="M107.617 43.2097C108.233 43.0019 108.388 43.9597 107.93 44.1146C107.314 44.3223 107.159 43.3646 107.617 43.2097Z" fill="#F2F2F2"/>
<path d="M87.7975 44.1673C88.3363 43.8046 88.7412 44.6849 88.3433 44.9525C87.8046 45.3152 87.3997 44.4349 87.7975 44.1673Z" fill="#F2F2F2"/>
<path d="M64.2128 49.3955C56.5482 42.6568 28.9282 33.8832 28.6923 59.6795C21.5559 42.2273 47.1268 31.5384 64.2128 49.3955Z" fill="white"/>
<path d="M75.7855 100.96C76.4157 102.981 77.9472 107.73 77.6902 109.642C77.6479 109.966 77.5599 110.343 77.2184 109.994C75.7925 105.977 74.9194 101.734 73.4125 97.7454C72.5007 95.3302 71.9479 94.6859 70.5854 92.7249C68.8779 90.2604 68.9659 89.4859 65.5649 88.7078C53.2565 85.8912 47.3804 103.336 36.8183 100.798C31.9879 99.6361 31.0619 93.0664 30.819 88.9648C30.7627 88.0353 31.0584 83.7858 30.6077 83.4725C22.4362 83.5675 7.69849 81.5819 0.026865 77.276C-0.24775 76.4452 1.66047 76.5472 2.22027 76.2867C10.508 72.4386 8.88497 66.8371 14.2963 61.9609C18.7535 57.9438 23.4466 58.9824 28.4531 61.2533C22.7495 48.033 33.0969 38.6468 46.1728 39.622C53.6754 40.1818 60.5549 44.1849 65.5578 49.6033C65.2515 44.7341 67.5963 39.9776 71.1558 36.7703C71.705 36.2739 74.1096 34.7353 74.1272 34.2776C72.3598 31.4575 70.3178 28.7677 69.3003 25.5357C67.8921 21.075 67.9132 15.47 71.9796 12.3858C75.2398 9.9143 81.7636 10.7276 83.1755 14.9947C84.9921 20.4905 78.2113 21.6523 74.3948 22.529C73.9864 26.1342 75.5073 29.5282 76.891 32.7391C78.6091 32.3342 80.1758 31.5491 81.8763 31.0738C88.6748 29.1726 96.0225 29.412 102.67 31.7673C102.796 24.9301 105.55 13.6779 114.446 14.6497C119.361 15.1848 122.037 21.339 117.499 24.3598C114.436 26.3983 112.901 24.828 110.13 24.6485C108.965 24.571 108.458 26.0673 108.028 27.0179C107.662 27.8312 105.792 32.9609 106.042 33.3904C106.141 33.5594 108.982 35.2493 109.355 35.4324C113.225 37.3265 116.344 35.4254 120.256 37.8511C127.987 42.6463 123.273 54.5428 119.28 60.3731C118.802 61.0737 116.647 63.4784 116.696 63.9713C117.939 65.5239 119.312 66.9111 120.47 68.5447C122.438 71.3225 125.73 77.3183 126.537 80.5503C126.674 81.1066 126.892 81.9199 126.572 82.4128C126.473 82.5677 126.103 82.5888 126.037 82.6944C125.769 83.1169 127.174 88.6691 127.343 89.7288C128.1 94.4677 128.726 98.7488 122.533 99.284C121.586 99.365 117.833 98.8333 117.527 99.2734C117.383 99.4812 117.038 103.509 116.879 104.329C116.668 105.428 115.369 110.663 114.446 110.941C114.108 111.043 113.802 111.061 113.862 110.589C114.024 109.241 114.865 107.202 115.168 105.709C115.471 104.217 115.904 102.227 115.999 100.713C116.034 100.175 116.136 98.7277 115.767 98.4496C115.605 98.3264 112.038 97.4497 111.827 97.4814C111.7 97.499 110.271 98.5446 109.644 98.7594C108.891 99.0129 108.07 99.1361 107.285 99.2558C101.909 100.062 95.1952 100.558 89.7134 100.953C86.4075 101.189 82.1016 101.629 79.0421 100.213C77.6972 99.5903 75.7045 97.3758 74.7328 97.1504C74.1272 97.0096 74.4899 97.3265 74.5568 97.5659C74.8666 98.6996 75.451 99.8297 75.8031 100.96H75.7855ZM69.6031 20.3602C69.5926 24.0464 70.9903 27.2503 72.7436 30.4154C73.0675 30.9963 74.7082 33.9255 75.1482 33.8833C75.2539 33.8727 76.2889 33.3763 76.2608 33.3165C74.1695 30.2781 72.7858 26.4581 72.9302 22.7367C72.1556 23.0677 70.6488 22.8564 71.3001 21.8178C71.5606 21.4024 78.8203 20.6278 80.7673 19.2759C81.5841 18.709 81.9678 18.2056 82.2108 17.2691C82.8797 14.7025 80.2216 12.1887 77.75 11.8648C72.5429 11.1782 69.6172 15.6847 69.6031 20.3602ZM108.373 17.9838C107.799 18.5224 107.592 18.8428 107.183 19.4097C105.254 22.0924 103.606 28.1093 103.592 31.4188C103.592 32.4468 104.106 32.4046 105.039 32.8482C105.321 29.8943 106.437 26.3243 108.366 24.0464C108.366 23.888 106.085 23.1487 107.176 22.3741C107.511 22.1382 112.052 23.8493 113.235 23.9373C115.203 24.0781 115.77 23.9479 117.168 22.7402C119.361 20.8461 118.527 17.762 116.386 16.5086C113.439 14.787 110.648 15.8467 108.37 17.9838H108.373ZM67.9378 53.1733C68.3603 54.2612 68.6068 54.4583 69.1278 55.3139C74.6941 64.4431 86.4849 66.7597 96.5964 66.0098C103.951 65.4641 114.901 60.5949 115.749 52.2227C115.865 51.0679 115.738 49.7934 115.51 48.6562L114.517 50.6313C110.739 55.9265 105.388 54.9618 103.923 48.4696C103.191 45.2165 103.701 39.0411 106.472 36.7668C106.666 36.6083 107.884 36.4112 107.658 35.9359C107.553 35.7105 104.955 34.3269 104.49 34.1086C96.5718 30.4084 86.4603 30.3696 78.4824 33.8692C70.9551 37.1681 64.6072 44.6003 67.9378 53.1697V53.1733ZM105.282 48.8921C105.321 49.0716 106.05 52.867 109.352 52.867C111.774 52.867 114.837 49.3568 115.006 45.6953C115.08 44.1074 113.918 40.3086 112.894 39.0235C110.126 35.5556 106.887 37.5131 105.648 41.055C104.691 43.7906 104.676 46.1318 105.282 48.8921ZM116.7 47.4662C116.76 47.8253 116.911 48.4661 116.939 48.6562C117.523 52.6522 116.362 57.7572 111.707 61.1406C111.489 61.6441 112.961 61.7497 113.369 61.968C114.151 62.3834 115.186 63.6438 116.122 62.9362C118.664 59.933 120.587 56.8418 121.935 53.1697C122.178 52.5114 122.47 52.0326 122.65 51.2686C124.674 42.5442 121.896 40.1185 119.319 38.6679C117.478 37.6293 115.073 37.2491 113.137 37.242C112.971 37.3864 114.471 39.2946 114.654 39.6467C115.605 41.4493 116.362 45.3714 116.703 47.4662H116.7ZM40.5819 41.2838C40.2087 41.3507 39.9588 41.4387 39.6313 41.5232C36.4204 42.3154 33.6074 43.8117 32.0829 45.4805C30.5549 47.1528 29.6008 48.5506 28.9284 51.508C28.8896 51.6805 28.7453 51.853 28.689 52.2227C28.182 55.5603 28.8122 58.7395 30.3543 61.7321C30.8049 62.6088 31.1218 62.8341 31.7801 63.158C35.0579 65.538 38.6983 68.1856 42.4866 69.6924C50.461 72.8646 55.7667 68.1081 62.4631 64.8233C64.0087 64.0628 66.9168 62.6228 71.5008 60.778C71.7684 60.4083 69.589 58.5916 69.2405 58.1691C68.6561 57.4615 67.966 56.5496 67.459 55.7891C67.2196 55.43 67.0612 55.3455 66.7443 54.3633C65.6987 51.1312 60.3401 45.7868 56.1258 43.699C51.13 41.2275 46.208 40.2593 40.5784 41.2873L40.5819 41.2838ZM17.7466 61.7321C16.7608 62.1581 16.9615 62.2144 16.3207 62.6827C11.3741 66.2949 11.2157 73.1568 5.62127 76.1212C5.01571 76.4416 3.32929 76.8641 3.23775 76.9521C2.64275 77.5401 5.44876 78.0717 5.61775 78.1386C18.9084 83.3211 35.8571 83.1451 48.676 76.3607C54.7035 73.1709 60.4528 67.9884 63.4137 66.6048C64.6108 66.045 66.7514 65.3373 66.7514 64.4712C66.7514 64.4712 53.6966 70.8613 49.859 72.4351C47.1832 72.8223 44.9898 72.4632 42.4866 71.4845C36.0543 68.9672 28.4566 60.8554 21.556 60.785C20.3906 60.7745 18.8204 61.2744 17.7501 61.7356L17.7466 61.7321ZM65.3219 74.3327C65.4029 79.7652 67.3956 85.4582 70.6734 89.7816C73.064 84.997 78.3767 83.6098 83.3761 83.5781C84.0451 79.6279 82.8375 75.5615 81.2602 71.9527C82.4537 72.2168 83.1403 73.5476 83.6367 74.5651C85.0696 77.5014 85.4428 80.6066 85.0766 83.8246C87.3299 84.0499 89.6183 84.7822 91.7202 85.6236C92.5581 85.9616 94.6037 87.3594 95.2832 87.053C95.6845 86.8735 96.3007 85.9405 97.1034 85.5286C97.9061 85.1167 99.1313 84.7857 100.001 84.6202C105.3 83.5992 111.081 84.2858 116.46 84.0745C116.531 83.5957 116.098 83.2964 115.985 82.888C114.735 78.3815 113.637 73.8046 111.595 69.5622C111.454 69.2699 109.479 66.6822 110.834 67.2315C111.901 67.6645 113.549 70.6289 114.08 71.7133C115.893 75.3889 117.062 79.5469 117.65 83.5992C117.788 83.7577 119.495 82.5325 119.865 82.367C121.632 81.5678 123.6 81.1875 125.498 81.698C125.653 80.7651 124.811 79.9659 124.547 79.3216C121.931 72.9033 118.65 65.5063 111.704 62.9151C111.214 62.732 110.971 62.2989 110.218 62.4855C109.588 62.6404 107.377 64.1896 106.391 64.6226C98.0223 68.2912 85.5519 67.9814 77.2888 64.1473C75.9298 63.5171 74.1836 62.0842 73.0921 61.6687C71.881 61.2075 68.7546 63.7072 67.9766 64.7423C65.7726 67.6715 65.2656 70.7416 65.3184 74.3292L65.3219 74.3327ZM64.1319 71.7168C64.2481 70.1642 64.7375 69.1678 65.072 67.7807C65.1494 67.4673 65.0368 67.3159 64.7305 67.4392C64.0369 67.7208 62.3927 68.8932 61.678 69.3826C59.5409 70.8507 57.6186 72.6463 55.5027 74.1461C48.5563 79.0646 41.1769 82.712 32.4948 83.1275C32.6322 85.7293 32.5054 88.6444 32.7343 91.211C32.9068 93.1404 33.8961 96.7878 35.3501 98.1046C39.9306 102.255 46.0461 95.9569 49.3837 93.3481C50.9293 92.1405 52.4678 90.8096 54.1402 89.7816C55.5203 88.9331 56.6434 88.398 58.1855 87.8804C61.171 86.877 62.9314 86.6024 66.0366 87.5248C66.8535 87.7678 67.3675 88.2923 68.1772 88.3557C65.1705 83.4056 63.7024 77.519 64.1319 71.7168ZM122.171 83.2507L119.555 84.3175C120.928 84.2682 122.037 84.7435 123.121 85.5075C124.054 86.1623 124.709 87.0883 125.498 87.8839C125.276 87.3488 125.625 84.4442 124.618 83.2824C124.16 82.7543 123.209 82.9444 122.171 83.2472V83.2507ZM79.5914 98.8193C81.6721 99.8825 85.1259 99.6501 87.5693 99.541C91.4597 99.3685 95.4522 98.7383 99.3355 98.344C101.976 98.0764 104.93 98.0236 107.511 97.5976C107.771 97.5553 110.141 97.249 109.567 96.6822C106.93 95.7703 103.983 94.7106 101.508 93.4396C97.5083 91.3906 95.2057 88.5001 90.5373 86.6939C85.9568 84.9195 79.7146 84.1097 75.3348 86.8312C74.0991 87.5988 72.0078 89.7041 71.7789 91.1512C71.6733 91.8166 77.6268 97.8123 79.5949 98.8193H79.5914ZM96.4802 87.6445C96.0366 88.3839 97.6949 89.0493 98.3849 89.6619C101.367 92.3059 104 93.2002 107.775 94.5416C109.855 95.2809 111.94 95.9041 114.084 96.4393C116.802 97.1188 123.572 98.8685 125.635 96.4533C127.512 94.2599 124.706 88.0529 122.583 86.6341C121.907 86.1834 120.657 85.9405 119.847 85.8032C115.925 85.1448 100.649 85.0709 97.4238 86.796C96.9555 87.046 96.7619 87.1728 96.4837 87.641L96.4802 87.6445Z" fill="#0E0E0E"/>
<path d="M101.695 71.0091C103.17 70.8682 104.167 71.6639 104.526 73.3715C104.885 75.079 104.251 76.1775 102.804 76.3148L101.628 76.4274L101.885 77.6562C102.005 78.223 102.184 79.0644 102.191 79.1067L100.709 79.2475C100.699 79.2053 100.526 78.392 100.406 77.8252L99.315 72.6356C99.2058 72.1181 99.0368 71.3048 99.0298 71.2625L100.061 71.164L101.691 71.0091H101.695ZM102.396 74.6882C102.917 74.6389 103.142 74.2376 103.005 73.5757C102.867 72.9138 102.501 72.5969 101.966 72.6462L100.854 72.7518L101.283 74.7938L102.396 74.6882Z" fill="black"/>
<path d="M98.631 75.6529C99.0288 75.9838 99.2999 76.4873 99.4337 77.121C99.7224 78.5011 99.1344 79.3884 97.8388 79.5116L95.8144 79.7052C95.2511 79.758 94.8004 79.8073 94.7758 79.8109C94.7688 79.7756 94.6209 79.0961 94.48 78.4237L94.2899 77.5224C94.2266 77.7583 94.1315 78.0505 94.0681 78.1737C93.6809 78.9166 93.1598 79.4623 92.4768 79.7721C92.2444 79.8742 92.005 79.9446 91.755 79.9693C91.6142 79.9834 91.4734 79.9834 91.3255 79.9658C90.4453 79.8601 89.7306 79.3144 89.1779 78.3392C89.0722 78.1491 88.9842 77.9519 88.9068 77.7548C88.6955 77.1703 88.6075 76.6246 88.5829 76.1564C88.5653 75.6247 88.6498 75.1389 88.8047 74.6847C88.9948 74.1319 89.2694 73.6672 89.6672 73.3327C89.9137 73.125 90.1848 72.9842 90.5016 72.956C90.5157 72.956 90.5333 72.956 90.5474 72.9525C90.8854 72.9314 91.2164 73.0229 91.5332 73.287C91.9029 73.5968 92.1106 74.0052 92.1458 74.5227C92.1669 74.8114 92.1177 75.072 92.0332 75.3149C91.8923 75.7268 91.6846 76.0719 91.4346 76.3782C91.0579 76.8394 90.6073 77.1774 90.0932 77.4027C89.9947 77.4449 89.8926 77.4766 89.7905 77.5154C89.7236 77.54 89.7201 77.547 89.7588 77.6351C90.0686 78.3146 90.5017 78.7652 91.1002 78.899C91.2656 78.9342 91.4241 78.9448 91.579 78.9307C91.7339 78.9166 91.8712 78.8814 92.0085 78.8251C92.688 78.554 93.1457 77.9766 93.4872 77.3992C93.6914 77.0541 93.8815 76.5718 94.0048 76.1564L93.3781 73.1778C93.2725 72.6709 93.107 71.8681 93.0964 71.8259L94.128 71.7273L96.0785 71.5407C97.2861 71.4245 98.1486 72.1075 98.4162 73.375C98.5394 73.9594 98.4866 74.4347 98.2754 74.7868C98.1486 74.984 98.036 75.0931 97.7614 75.2656C98.1486 75.3396 98.3669 75.4346 98.631 75.6529ZM89.4842 76.6387C89.4947 76.7161 89.5053 76.7408 89.5475 76.7373C89.5581 76.7373 89.5687 76.7373 89.5792 76.7302C89.625 76.7161 89.6672 76.7021 89.7095 76.6845C90.139 76.5296 90.5157 76.2725 90.8432 75.9205C91.0826 75.6564 91.2832 75.3501 91.417 74.9734C91.4593 74.8572 91.4875 74.734 91.498 74.6037C91.5191 74.3185 91.3994 74.0862 91.1671 73.9665C91.0403 73.8996 90.9136 73.882 90.7868 73.8855C90.7411 73.8996 90.6953 73.9066 90.6495 73.9172C90.4594 73.97 90.301 74.0862 90.1637 74.234C89.7834 74.6495 89.5651 75.1952 89.4806 75.8501C89.4454 76.1035 89.449 76.3676 89.4806 76.6387M97.2685 77.9554C97.7402 77.9097 97.948 77.54 97.8318 76.9802C97.7156 76.4204 97.3635 76.1247 96.8847 76.1704L95.5222 76.3007L95.8989 78.0857L97.2685 77.9554ZM94.8849 73.2588L95.2018 74.7657L96.5115 74.6424C96.9058 74.6037 97.0889 74.2833 96.9903 73.8151C96.8917 73.3468 96.603 73.0969 96.1806 73.1391L94.8849 73.2623" fill="black"/>
<path d="M109.152 70.3015L109.507 71.9915L108.261 72.1112L106.546 72.2731L106.877 73.8469L108.279 73.7131C108.859 73.6567 109.437 73.6075 109.469 73.6039L109.814 75.2446C109.782 75.2446 109.19 75.3009 108.624 75.3537L107.222 75.4875L107.518 76.8958L107.87 78.5681L106.395 78.709L106.05 77.0648L105.004 72.0971L104.716 70.724L105.74 70.6254L107.895 70.4212L109.148 70.3015H109.152Z" fill="black"/>
</svg>
