<svg width="128" height="128" viewBox="0 0 128 128" fill="none" xmlns="http://www.w3.org/2000/svg">
<path d="M56.2733 57.7177C54.292 57.3987 48.692 57.9944 47.785 58.1578C41.6066 59.2628 40.3421 64.1497 44.2874 65.3739" fill="#02529B"/>
<path d="M16.1631 71.0273H3.16064V71.6039H16.1631V71.0273Z" fill="#BCC7CE"/>
<path d="M96.0999 54.9411H72.8161L64.4431 45.369H52.1401V44.7925H64.7045L73.0775 54.3646H96.0999V54.9411Z" fill="#BCC7CE"/>
<path d="M51.9392 45.9449C52.4169 45.9449 52.804 45.5577 52.804 45.0801C52.804 44.6025 52.4169 44.2153 51.9392 44.2153C51.4616 44.2153 51.0745 44.6025 51.0745 45.0801C51.0745 45.5577 51.4616 45.9449 51.9392 45.9449Z" fill="#BCC7CE"/>
<path d="M23.4007 59.7952C23.8783 59.7952 24.2655 59.4081 24.2655 58.9305C24.2655 58.4528 23.8783 58.0657 23.4007 58.0657C22.9231 58.0657 22.5359 58.4528 22.5359 58.9305C22.5359 59.4081 22.9231 59.7952 23.4007 59.7952Z" fill="#BCC7CE"/>
<path d="M25.6682 56.1841C26.1459 56.1841 26.533 55.797 26.533 55.3194C26.533 54.8418 26.1459 54.4546 25.6682 54.4546C25.1906 54.4546 24.8035 54.8418 24.8035 55.3194C24.8035 55.797 25.1906 56.1841 25.6682 56.1841Z" fill="#BCC7CE"/>
<path d="M2.86478 52.4622C3.34239 52.4622 3.72957 52.075 3.72957 51.5974C3.72957 51.1198 3.34239 50.7327 2.86478 50.7327C2.38718 50.7327 2 51.1198 2 51.5974C2 52.075 2.38718 52.4622 2.86478 52.4622Z" fill="#BCC7CE"/>
<path d="M2.86478 43.7296C3.34239 43.7296 3.72957 43.3424 3.72957 42.8648C3.72957 42.3872 3.34239 42 2.86478 42C2.38718 42 2 42.3872 2 42.8648C2 43.3424 2.38718 43.7296 2.86478 43.7296Z" fill="#BCC7CE"/>
<path d="M8.01786 47.9813C8.49547 47.9813 8.88264 47.5941 8.88264 47.1165C8.88264 46.6389 8.49547 46.2517 8.01786 46.2517C7.54025 46.2517 7.15308 46.6389 7.15308 47.1165C7.15308 47.5941 7.54025 47.9813 8.01786 47.9813Z" fill="#BCC7CE"/>
<path d="M2.86478 72.1805C3.34239 72.1805 3.72957 71.7933 3.72957 71.3157C3.72957 70.8381 3.34239 70.4509 2.86478 70.4509C2.38718 70.4509 2 70.8381 2 71.3157C2 71.7933 2.38718 72.1805 2.86478 72.1805Z" fill="#BCC7CE"/>
<path d="M2.86478 78.0384C3.34239 78.0384 3.72957 77.6512 3.72957 77.1736C3.72957 76.696 3.34239 76.3088 2.86478 76.3088C2.38718 76.3088 2 76.696 2 77.1736C2 77.6512 2.38718 78.0384 2.86478 78.0384Z" fill="#BCC7CE"/>
<path d="M70.7002 45.9449C71.1778 45.9449 71.565 45.5577 71.565 45.0801C71.565 44.6025 71.1778 44.2153 70.7002 44.2153C70.2226 44.2153 69.8354 44.6025 69.8354 45.0801C69.8354 45.5577 70.2226 45.9449 70.7002 45.9449Z" fill="#BCC7CE"/>
<path d="M81.1043 59.1683C81.5819 59.1683 81.9691 58.7811 81.9691 58.3035C81.9691 57.8259 81.5819 57.4387 81.1043 57.4387C80.6267 57.4387 80.2395 57.8259 80.2395 58.3035C80.2395 58.7811 80.6267 59.1683 81.1043 59.1683Z" fill="#BCC7CE"/>
<path d="M87.9112 62.7794C88.3888 62.7794 88.776 62.3922 88.776 61.9146C88.776 61.437 88.3888 61.0498 87.9112 61.0498C87.4336 61.0498 87.0464 61.437 87.0464 61.9146C87.0464 62.3922 87.4336 62.7794 87.9112 62.7794Z" fill="#BCC7CE"/>
<path d="M7.77448 77.4794H3.32373V76.9029H7.53618L11.1913 73.29H26.6018V73.8666H11.4277L7.77448 77.4794Z" fill="#BCC7CE"/>
<path d="M122.931 79.5366H17.174L8.24365 72.826L22.6836 68.0889C22.6836 68.0889 25.4644 63.8842 25.9275 63.74C27.9184 63.1213 40.8114 59.591 43.3519 59.591H50.8179C52.3457 59.591 53.5852 58.9088 53.5852 60.4366V66.6861H77.432C77.432 66.6861 77.5358 64.6183 77.9778 60.8517C83.939 60.9535 82.8571 64.3608 87.525 65.7925C91.1936 66.9186 94.0935 67.1377 99.1208 68.4675C104.907 69.9972 118.259 72.6492 119.074 76.3639C119.474 78.1799 121.609 78.0973 122.929 79.5366H122.931Z" fill="#DD4F13"/>
<path d="M105.974 77.3118V81.6875H126.986L126.512 81.0841C125.063 79.245 123.004 77.7941 120.708 77.3406L105.974 77.3118Z" fill="#E3831F"/>
<path d="M94.4549 73.0518L68.5537 74.814L69.3858 79.4377H94.8546L94.4549 73.0518Z" fill="#4F1616"/>
<path d="M25.9279 72.3343L53.893 69.469H62.8599C68.2234 69.469 71.2617 72.3247 73.9521 76.9656L75.8066 80.1615H34.6295L25.115 75.8876L25.9279 72.3362V72.3343Z" fill="#DD4F13"/>
<path d="M28.6457 73.6912L48.9508 71.4543H55.9498C60.1353 71.4543 64.0057 73.6835 66.1061 77.3041L67.5532 79.7985H34.7626L28.0134 76.4624L28.6476 73.6893L28.6457 73.6912Z" fill="#E3831F"/>
<path d="M90.5924 80.342L90.1004 79.5003C89.2472 78.0436 87.3024 78.6874 85.6151 78.6874L36.1899 78.5202L28.5183 74.3193L25.9316 80.342H90.5963H90.5924Z" fill="#343438"/>
<path d="M7.2827 72.8267L4.2771 55.6177L19.6203 55.8713L19.4915 64.865L21.5305 79.5374H17.1739L7.2827 72.8267Z" fill="#DD4F13"/>
<path d="M124.096 80.0747H106.448V80.6512H124.096V80.0747Z" fill="#070C01"/>
<path d="M71.9975 79.6909H29.1235V80.2674H71.9975V79.6909Z" fill="#070C01"/>
<path d="M51.1737 66.6849H55.6283L54.8673 63.8388L53.6643 60.372C53.6643 58.8788 52.4536 59.5898 50.9604 59.5898H48.6716V64.1828C48.6716 65.5645 49.792 66.6829 51.1718 66.6829L51.1737 66.6849Z" fill="#DD4F13"/>
<mask id="mask0_199_4332" style="mask-type:luminance" maskUnits="userSpaceOnUse" x="5" y="59" width="13" height="20">
<path d="M15.3793 78.4644L8.24388 72.826L5.56689 59.5027L15.754 61.1842L17.916 74.1136L15.3793 78.4644Z" fill="white"/>
</mask>
<g mask="url(#mask0_199_4332)">
<path d="M19.3252 65.5598H5.46753V66.1363H19.3252V65.5598Z" fill="#343438"/>
<path d="M17.5272 67.1477H5.2876V67.7242H17.5272V67.1477Z" fill="#070C01"/>
<path d="M17.1243 68.7356H4.59644V69.3121H17.1243V68.7356Z" fill="#070C01"/>
<path d="M16.7569 70.3206H0.00512695V70.8971H16.7569V70.3206Z" fill="#E3831F"/>
<path d="M17.0009 71.9075H-1.51123V72.484H17.0009V71.9075Z" fill="#E3831F"/>
<path d="M16.7574 73.4954H-3.02686V74.0719H16.7574V73.4954Z" fill="#E3831F"/>
</g>
<path d="M21.6666 70.0976L21.5513 69.5326C22.1893 69.4019 37.1769 66.3329 38.5279 66.3156L57.5051 66.0735L57.5128 66.65L38.5356 66.8921C37.4998 66.9056 27.0494 68.9945 21.6685 70.0976H21.6666Z" fill="#070C01"/>
<mask id="mask1_199_4332" style="mask-type:luminance" maskUnits="userSpaceOnUse" x="69" y="68" width="29" height="10">
<path d="M84.9426 77.7612H97.7682V68.6656H94.0381C92.2356 67.6913 86.9047 71.8211 85.7458 71.6078C84.5198 72.6052 83.4551 73.7255 82.7806 74.8113C82.2848 74.8113 69.9914 74.8152 69.9914 74.8152L69.78 77.7612H84.9406H84.9426Z" fill="white"/>
</mask>
<g mask="url(#mask1_199_4332)">
<path d="M97.1642 69.1365H85.4685V69.713H97.1642V69.1365Z" fill="#070C01"/>
<path d="M95.6483 70.7239H83.9526V71.3004H95.6483V70.7239Z" fill="#070C01"/>
<path d="M94.1322 72.3115H82.4365V72.888H94.1322V72.3115Z" fill="#070C01"/>
<path d="M94.5974 73.8992H80.9204V74.4757H94.5974V73.8992Z" fill="#070C01"/>
<path d="M94.8416 75.4841H77.0981V76.0606H94.8416V75.4841Z" fill="#070C01"/>
<path d="M94.5965 77.0715H77.887V77.6481H94.5965V77.0715Z" fill="#070C01"/>
</g>
<path d="M81.9215 79.6909H73.6138V80.2674H81.9215V79.6909Z" fill="#070C01"/>
<path d="M105.767 73.1398H106.603C107.533 73.1398 108.286 72.3865 108.286 71.4564C108.286 70.5263 107.533 69.7729 106.603 69.7729H105.767V73.1417V73.1398Z" fill="#E3831F"/>
<path d="M108.916 73.1051H105.715V71.3198H108.916V73.1051ZM106.289 72.5286H108.338V71.8963H106.289V72.5286Z" fill="#070C01"/>
<path d="M107.603 72.8169H107.027V73.918H107.603V72.8169Z" fill="#070C01"/>
<path d="M48.2302 63.9175H45.6743V64.494H48.2302V63.9175Z" fill="#343438"/>
<path d="M48.2274 62.2717H44.1533V62.8482H48.2274V62.2717Z" fill="#343438"/>
<path d="M48.2274 60.6292H44.1533V61.2057H48.2274V60.6292Z" fill="#343438"/>
<path d="M67.322 66.7963C67.4238 65.626 66.5591 59.905 63.0615 59.0633C59.5293 58.2139 56.9407 58.0775 56.0894 58.9288C55.2381 59.7801 54.1369 63.8926 54.7692 66.7233L67.322 66.7944V66.7963Z" fill="#FF8600"/>
<mask id="mask2_199_4332" style="mask-type:luminance" maskUnits="userSpaceOnUse" x="54" y="58" width="14" height="9">
<path d="M67.322 66.7963C67.4238 65.626 66.5591 59.905 63.0615 59.0633C59.5293 58.2139 56.9407 58.0775 56.0894 58.9288C55.2381 59.7801 54.1369 63.8926 54.7692 66.7233L67.322 66.7944V66.7963Z" fill="white"/>
</mask>
<g mask="url(#mask2_199_4332)">
<path d="M49.2051 64.6189C49.2051 64.6189 61.1276 61.0541 68.2304 61.6633C75.3331 62.2725 76.2094 65.574 74.4875 66.1294C72.7657 66.6848 56.1907 68.2971 54.1728 68.2971C52.155 68.2971 47.81 65.4088 49.2051 64.617V64.6189Z" fill="#380F0F"/>
</g>
<path d="M57.3571 63.9885C56.8998 63.5312 56.4155 62.6203 56.6403 61.7728C56.6403 61.767 56.6442 61.7593 56.6461 61.7536C56.6999 61.6306 57.288 60.5775 58.4641 60.097C59.2001 59.7972 60.872 60.2431 60.8758 60.245C62.5055 61.1059 64.3196 62.4819 65.7763 63.7983C65.807 63.8252 65.8474 63.8329 65.8858 63.8194C67.0908 63.3966 68.8607 63.0603 71.1591 63.3736C71.1956 63.3793 71.2263 63.4005 71.2436 63.4332C71.5261 64.2537 72.4236 65.2031 72.4236 65.2031C70.9938 66.6328 67.012 68.8409 65.6994 68.8409C65.6302 68.8409 65.5687 68.8351 65.513 68.8217C61.7522 67.7397 58.5582 64.9974 58.5275 64.9705L57.507 64.1115L57.3591 63.9866L57.3571 63.9885Z" fill="#002A32"/>
<path d="M64.9886 64.4749C64.5024 64.7363 64.1431 64.5614 64.1431 64.5614C64.1661 64.5422 66.5472 62.6512 71.2189 63.3123L71.5014 64.0425C66.9181 63.3949 65.4748 64.2136 64.9886 64.4749Z" fill="#4F5159"/>
<path d="M56.2061 57.7216C55.4855 57.7523 49.8567 58.8535 45.5366 63.529C41.2146 68.2046 45.9844 71.0449 49.1995 69.0617C52.4145 67.0804 55.1203 64.5783 56.7481 60.0757C56.7481 60.0757 57.9011 57.6486 56.208 57.7216H56.2061Z" fill="#2EA6FF"/>
<mask id="mask3_199_4332" style="mask-type:luminance" maskUnits="userSpaceOnUse" x="43" y="57" width="15" height="13">
<path d="M56.2061 57.7216C55.4855 57.7523 49.8567 58.8535 45.5366 63.529C41.2146 68.2046 45.9844 71.0449 49.1995 69.0617C52.4145 67.0804 55.1203 64.5783 56.7481 60.0757C56.7481 60.0757 57.9011 57.6486 56.208 57.7216H56.2061Z" fill="white"/>
</mask>
<g mask="url(#mask3_199_4332)">
<path d="M46.0676 70.397L45.5564 70.1299C45.7351 69.7879 50.0129 61.7185 57.2117 59.5681L57.377 60.1197C50.4165 62.199 46.1118 70.3144 46.0676 70.3951V70.397Z" fill="#6BBFF2"/>
<path d="M49.506 70.4322C49.4675 70.34 48.5855 68.1492 48.868 65.4934L49.4406 65.5549C49.1754 68.0589 50.0306 70.192 50.0402 70.2151L49.506 70.4342V70.4322Z" fill="#6BBFF2"/>
<path d="M51.6279 63.1158C49.7004 61.9166 47.1656 62.0992 47.1406 62.1011L47.0945 61.5265C47.2059 61.5169 49.8407 61.3248 51.9315 62.6258L51.6279 63.1158Z" fill="#6BBFF2"/>
</g>
<path d="M67.0803 57.136C67.0342 58.6523 65.4564 59.3691 64.1823 59.763C63.7019 59.8899 63.2138 59.9552 62.7526 59.9591C62.1722 60.0052 61.5688 59.986 60.9557 59.9014C60.3427 59.8169 59.72 59.6631 59.1012 59.4383C58.4824 59.2134 57.9059 58.9309 57.3813 58.6023C56.8567 58.2737 56.382 57.899 55.9669 57.4916C53.9837 55.7851 53.5532 52.6296 55.1309 50.4792C55.9919 49.3319 57.4255 48.7592 58.9187 48.7996C59.4548 48.8092 59.9891 48.888 60.5118 49.0244C63.6481 49.8469 66.3923 52.7929 67.0476 55.8619C67.1207 56.3078 67.138 56.7363 67.0803 57.136Z" fill="#3D3E42"/>
<mask id="mask4_199_4332" style="mask-type:luminance" maskUnits="userSpaceOnUse" x="54" y="48" width="14" height="12">
<path d="M67.0803 57.136C67.0342 58.6523 65.4564 59.3691 64.1823 59.763C63.7019 59.8899 63.2138 59.9552 62.7526 59.9591C62.1722 60.0052 61.5688 59.986 60.9557 59.9014C60.3427 59.8169 59.72 59.6631 59.1012 59.4383C58.4824 59.2134 57.9059 58.9309 57.3813 58.6023C56.8567 58.2737 56.382 57.899 55.9669 57.4916C53.9837 55.7851 53.5532 52.6296 55.1309 50.4792C55.9919 49.3319 57.4255 48.7592 58.9187 48.7996C59.4548 48.8092 59.9891 48.888 60.5118 49.0244C63.6481 49.8469 66.3923 52.7929 67.0476 55.8619C67.1207 56.3078 67.138 56.7363 67.0803 57.136Z" fill="white"/>
</mask>
<g mask="url(#mask4_199_4332)">
<path opacity="0.5" d="M73.7636 53.9347C74.0942 55.5873 71.5325 55.9467 69.4147 56.0332C68.6095 56.0409 67.7736 55.9813 66.9703 55.8602C65.9691 55.7526 64.9083 55.5681 63.8148 55.3087C62.7194 55.0493 61.5894 54.711 60.4479 54.2959C59.3064 53.8809 58.2225 53.4139 57.2155 52.9104C56.2086 52.4069 55.2784 51.8669 54.4425 51.3057C50.5144 48.8921 48.9059 45.308 51.0775 43.3748C52.269 42.3486 54.6193 42.1064 57.2386 42.558C58.1783 42.7137 59.1315 42.9462 60.0828 43.2383C65.7846 44.9929 71.3807 48.9747 73.3601 52.526C73.6099 53.0353 73.754 53.51 73.7636 53.9347Z" fill="#73757E"/>
</g>
<path d="M66.4473 55.1588C66.1975 57.1959 61.9139 55.3145 60.7397 53.1545C60.4745 52.6664 60.4303 52.0745 60.7397 51.6113C61.2029 50.9945 62.0945 50.6735 62.9536 50.8023C64.3564 51.0137 66.6433 53.5523 66.4454 55.1588H66.4473Z" fill="#00E889"/>
<path d="M77.7671 66.6906H72.3267L76.0741 65.7086V62.261H77.7671V66.6906Z" fill="#002A32"/>
<path d="M65.983 54.4316C65.7331 56.4687 59.7892 53.6649 60.7405 51.6124C61.0652 50.9129 62.0953 50.6746 62.9543 50.8034C64.3572 51.0148 66.179 52.827 65.981 54.4316H65.983Z" fill="#242426"/>
<path d="M58.2484 49.8494C58.2484 49.8494 53.4095 49.8974 52.2968 49.8974C51.1841 49.8974 47.8249 49.7437 48.3918 51.6596C48.8492 53.2066 51.0073 52.2054 52.268 51.3156C52.389 51.1946 53.0405 51.0216 54.0994 50.8813L58.1158 50.3529L58.2465 49.8494H58.2484Z" fill="#3D3E42"/>
<mask id="mask5_199_4332" style="mask-type:luminance" maskUnits="userSpaceOnUse" x="48" y="49" width="11" height="4">
<path d="M58.2484 49.8494C58.2484 49.8494 53.4095 49.8974 52.2968 49.8974C51.1841 49.8974 47.8249 49.7437 48.3918 51.6596C48.8492 53.2066 51.0073 52.2054 52.268 51.3156C52.5851 51.2753 53.6439 51.1984 54.0994 51.0735L58.1158 50.3529L58.2465 49.8494H58.2484Z" fill="white"/>
</mask>
<g mask="url(#mask5_199_4332)">
<path d="M58.247 49.0803C58.247 49.0803 53.4081 49.1283 52.2954 49.1283C51.1827 49.1283 49.9163 48.5057 48.7594 50.1353C47.7024 51.6265 50.5428 51.1403 51.8034 50.2525C52.1205 50.2121 58.4046 50.068 58.4046 50.068L58.2451 49.0822L58.247 49.0803Z" fill="#73757E"/>
</g>
<path d="M78.0512 62.543C78.032 62.7064 77.9916 62.864 77.932 63.0081C77.4535 64.0381 76.2793 63.9113 75.3185 63.673C75.1263 63.625 74.9437 63.5731 74.7765 63.5269C73.7734 63.5269 73.6293 62.3797 74.0597 61.6629C74.7765 60.8019 75.7797 60.9461 76.6156 60.9883C76.8443 61.0383 77.0653 61.1363 77.269 61.2651C77.4727 61.3938 77.6592 61.5553 77.8148 61.7321C77.9724 61.9723 78.057 62.249 78.0493 62.543H78.0512Z" fill="#3D3E42"/>
<path d="M74.06 61.6626L73.7064 61.7663C71.9826 62.2756 71.5502 62.3621 71.2043 62.5658C70.8584 62.7695 70.966 62.9924 70.966 62.9924C70.966 63.3076 72.1786 65.2158 72.661 65.358C73.1434 65.5003 74.7326 63.9014 75.0344 63.5977C74.9652 63.5574 74.8902 63.5555 74.823 63.5132C74.0696 63.567 73.4489 62.7445 74.06 61.6606V61.6626Z" fill="#E3831F"/>
<path d="M62.9967 63.1702C62.9967 63.1702 62.0416 61.3715 60.435 60.9526C58.8285 60.5336 58.0444 62.4304 59.895 63.4162C61.7457 64.4021 63.8019 64.6653 62.9948 63.1702H62.9967Z" fill="#4F5159"/>
<path d="M63.0826 52.8694C63.3098 52.8694 63.4939 52.6388 63.4939 52.3544C63.4939 52.0699 63.3098 51.8394 63.0826 51.8394C62.8555 51.8394 62.6714 52.0699 62.6714 52.3544C62.6714 52.6388 62.8555 52.8694 63.0826 52.8694Z" fill="#EFEFEF"/>
<path d="M68.4763 70.4856C68.3552 70.4856 68.2495 70.4683 68.1631 70.4318C68.0766 70.3953 68.0112 70.3396 67.9709 70.2666C67.9305 70.1916 67.9171 70.0994 67.9325 69.9879H68.263C68.2553 70.059 68.2726 70.1109 68.3149 70.1474C68.3572 70.1839 68.4187 70.2012 68.4974 70.2012C68.5686 70.2012 68.6281 70.1859 68.6742 70.157C68.7204 70.1282 68.7473 70.0898 68.755 70.0436C68.7626 70.0033 68.7492 69.9706 68.7146 69.9456C68.68 69.9207 68.6243 69.8995 68.5474 69.8822L68.3994 69.8457C68.2803 69.8169 68.19 69.7708 68.1285 69.7073C68.067 69.642 68.0458 69.5555 68.0631 69.4441C68.0766 69.3537 68.1131 69.275 68.1688 69.2077C68.2246 69.1404 68.2976 69.0885 68.386 69.0501C68.4744 69.0117 68.5743 68.9944 68.6839 68.9944C68.7934 68.9944 68.8914 69.0136 68.9721 69.052C69.0528 69.0905 69.1105 69.1424 69.1489 69.2115C69.1873 69.2788 69.1989 69.3576 69.1854 69.4479H68.8549C68.8587 69.396 68.8434 69.3537 68.8107 69.3249C68.778 69.2961 68.7261 69.2807 68.6569 69.2807C68.5878 69.2807 68.534 69.2942 68.4936 69.3211C68.4532 69.348 68.4302 69.3807 68.4244 69.4229C68.4167 69.4671 68.4302 69.5017 68.4667 69.5267C68.5013 69.5517 68.5513 69.5709 68.6128 69.5863L68.7338 69.6151C68.8703 69.6458 68.9702 69.6977 69.0375 69.7688C69.1047 69.8399 69.1278 69.9341 69.1086 70.0494C69.0855 70.1878 69.0202 70.2954 68.9145 70.3742C68.8068 70.453 68.6627 70.4914 68.484 70.4914L68.4763 70.4856Z" fill="white"/>
<path d="M69.218 70.4662L69.4602 69.0115H70.471L70.4249 69.292H69.758L69.7081 69.5938H70.3211L70.275 69.8686H69.6619L69.6101 70.1856H70.275L70.2289 70.4662H69.2199H69.218Z" fill="white"/>
<path d="M70.4519 70.4662L70.694 69.0115H71.2898C71.4551 69.0115 71.5761 69.0557 71.6568 69.1422C71.7376 69.2286 71.7645 69.3459 71.7395 69.4958C71.7241 69.5957 71.6876 69.6822 71.6319 69.7513C71.5761 69.8224 71.505 69.8743 71.4185 69.9108L71.6299 70.4662H71.2513L71.0669 69.9647H70.8785L70.7959 70.4662H70.4519ZM70.9247 69.6918H71.1034C71.2686 69.6918 71.3609 69.6264 71.382 69.4938C71.3936 69.4246 71.382 69.3728 71.3436 69.3401C71.3071 69.3074 71.2475 69.2901 71.1687 69.2901H70.99L70.9227 69.6918H70.9247Z" fill="white"/>
<path d="M72.1686 70.4662L71.9092 69.0114H72.2974L72.3935 69.6475C72.405 69.7321 72.4146 69.8186 72.4242 69.907C72.4338 69.9954 72.4396 70.0876 72.4473 70.1837C72.4857 70.0876 72.5241 69.9954 72.5606 69.905C72.5972 69.8166 72.6356 69.7302 72.674 69.6456L72.9738 69.0095H73.3562L72.6279 70.4643H72.1667L72.1686 70.4662Z" fill="white"/>
<path d="M73.8613 69.0095L73.6191 70.4643H73.2751L73.5173 69.0095H73.8613Z" fill="white"/>
<path d="M74.5191 70.4861C74.4019 70.4861 74.2981 70.463 74.2097 70.4169C74.1213 70.3708 74.0522 70.3035 74.0022 70.2132C73.9522 70.1248 73.9272 70.0152 73.9272 69.8884C73.9272 69.7693 73.9465 69.654 73.983 69.5463C74.0195 69.4387 74.0752 69.3426 74.1444 69.2581C74.2136 69.1735 74.3001 69.1082 74.3981 69.0621C74.4961 69.016 74.6075 68.991 74.7305 68.991C74.8478 68.991 74.9496 69.0121 75.0361 69.0525C75.1245 69.0947 75.1918 69.1543 75.2379 69.2331C75.284 69.3119 75.3071 69.4099 75.3013 69.5233H74.9535C74.9535 69.4522 74.9362 69.3965 74.8958 69.3542C74.8554 69.3138 74.7997 69.2927 74.7248 69.2927C74.6498 69.2927 74.5845 69.31 74.5288 69.3465C74.473 69.3811 74.425 69.4291 74.3885 69.4868C74.35 69.5444 74.3231 69.6098 74.3039 69.6789C74.2847 69.7481 74.2751 69.8173 74.2751 69.8865C74.2751 69.9864 74.2981 70.0594 74.3462 70.1094C74.3942 70.1594 74.4596 70.1824 74.5422 70.1824C74.6248 70.1824 74.6979 70.1613 74.7594 70.1209C74.8209 70.0806 74.8631 70.0229 74.8881 69.9518H75.236C75.2187 70.0172 75.1898 70.0806 75.1495 70.144C75.1091 70.2074 75.0592 70.2651 74.9977 70.317C74.9362 70.3688 74.867 70.4092 74.7863 70.4399C74.7056 70.4707 74.6172 70.4861 74.5211 70.4861H74.5191Z" fill="white"/>
<path d="M75.3357 70.4662L75.5778 69.0115H76.5887L76.5425 69.292H75.8757L75.8257 69.5938H76.4388L76.3927 69.8686H75.7796L75.7277 70.1856H76.3927L76.3465 70.4662H75.3376H75.3357Z" fill="white"/>
<path d="M77.1536 69.292L77.1997 69.0115H78.4238L78.3777 69.292H77.9376L77.7435 70.4662H77.3995L77.5956 69.292H77.1555H77.1536Z" fill="white"/>
<path d="M78.3596 70.4662L78.6018 69.0115H79.1975C79.3628 69.0115 79.4838 69.0557 79.5645 69.1422C79.6453 69.2286 79.6722 69.3459 79.6472 69.4958C79.6318 69.5957 79.5953 69.6822 79.5396 69.7513C79.4838 69.8224 79.4127 69.8743 79.3263 69.9108L79.5376 70.4662H79.1591L78.9746 69.9647H78.7862L78.7036 70.4662H78.3596ZM78.8324 69.6918H79.0111C79.1764 69.6918 79.2686 69.6264 79.2897 69.4938C79.3013 69.4246 79.2897 69.3728 79.2513 69.3401C79.2148 69.3074 79.1552 69.2901 79.0764 69.2901H78.8977L78.8304 69.6918H78.8324Z" fill="white"/>
<path d="M79.6196 70.4662L80.346 69.0115H80.8073L81.0667 70.4662H80.6939L80.6478 70.1568H80.1635L80.0174 70.4662H79.6196ZM80.2865 69.8916H80.6074L80.5978 69.8282C80.5863 69.7456 80.5767 69.6591 80.567 69.5688C80.5574 69.4765 80.5497 69.3824 80.5421 69.2844C80.5036 69.3804 80.4671 69.4765 80.4306 69.5669C80.3941 69.6591 80.3557 69.7456 80.3191 69.8282L80.2884 69.8916H80.2865Z" fill="white"/>
<path d="M81.2253 70.4662L81.4675 69.0115H82.4572L82.4111 69.292H81.7654L81.7039 69.661H82.2842L82.2381 69.9358H81.6577L81.5713 70.4643H81.2273L81.2253 70.4662Z" fill="white"/>
<path d="M82.3958 70.4662L82.6379 69.0115H83.6276L83.5815 69.292H82.9358L82.8743 69.661H83.4546L83.4085 69.9358H82.8281L82.7417 70.4643H82.3977L82.3958 70.4662Z" fill="white"/>
<path d="M84.154 69.0095L83.9119 70.4643H83.5679L83.81 69.0095H84.154Z" fill="white"/>
<path d="M84.8121 70.4861C84.6949 70.4861 84.5911 70.463 84.5027 70.4169C84.4143 70.3708 84.3451 70.3035 84.2952 70.2132C84.2452 70.1248 84.2202 70.0152 84.2202 69.8884C84.2202 69.7693 84.2394 69.654 84.2759 69.5463C84.3125 69.4387 84.3682 69.3426 84.4374 69.2581C84.5066 69.1735 84.593 69.1082 84.691 69.0621C84.7891 69.016 84.9005 68.991 85.0235 68.991C85.1407 68.991 85.2426 69.0121 85.3291 69.0525C85.4175 69.0947 85.4847 69.1543 85.5308 69.2331C85.577 69.3119 85.6 69.4099 85.5943 69.5233H85.2464C85.2464 69.4522 85.2291 69.3965 85.1888 69.3542C85.1484 69.3138 85.0927 69.2927 85.0177 69.2927C84.9428 69.2927 84.8775 69.31 84.8217 69.3465C84.766 69.3811 84.7179 69.4291 84.6814 69.4868C84.643 69.5444 84.6161 69.6098 84.5969 69.6789C84.5777 69.7481 84.568 69.8173 84.568 69.8865C84.568 69.9864 84.5911 70.0594 84.6392 70.1094C84.6872 70.1594 84.7525 70.1824 84.8352 70.1824C84.9178 70.1824 84.9908 70.1613 85.0523 70.1209C85.1138 70.0806 85.1561 70.0229 85.1811 69.9518H85.5289C85.5116 70.0172 85.4828 70.0806 85.4424 70.144C85.4021 70.2074 85.3521 70.2651 85.2906 70.317C85.2291 70.3688 85.1599 70.4092 85.0792 70.4399C84.9985 70.4707 84.9101 70.4861 84.814 70.4861H84.8121Z" fill="white"/>
<path d="M68.4744 72.8671H67.896L68.1381 71.4124H68.6551C68.8031 71.4124 68.9261 71.4412 69.0279 71.5008C69.1278 71.5584 69.1989 71.643 69.2431 71.7506C69.2854 71.8601 69.295 71.9889 69.2681 72.1407C69.2297 72.3674 69.1432 72.5462 69.0087 72.6749C68.8742 72.8037 68.6954 72.8671 68.4744 72.8671ZM68.29 72.5731H68.4668C68.5917 72.5731 68.6935 72.5404 68.7704 72.4751C68.8473 72.4097 68.8991 72.2983 68.9261 72.1407C68.953 71.9831 68.9376 71.8716 68.8838 71.8063C68.83 71.741 68.7396 71.7083 68.6128 71.7083H68.436L68.2919 72.5731H68.29Z" fill="white"/>
<path d="M69.9279 71.4124L69.6858 72.8671H69.3418L69.5839 71.4124H69.9279Z" fill="white"/>
<path d="M70.4949 72.8863C70.3738 72.8863 70.2681 72.869 70.1816 72.8325C70.0951 72.796 70.0298 72.7402 69.9894 72.6672C69.9491 72.5923 69.9356 72.5 69.951 72.3886H70.2815C70.2739 72.4597 70.2912 72.5115 70.3334 72.5481C70.3757 72.5846 70.4372 72.6019 70.516 72.6019C70.5871 72.6019 70.6467 72.5865 70.6928 72.5577C70.7389 72.5288 70.7658 72.4904 70.7735 72.4443C70.7812 72.4039 70.7678 72.3713 70.7332 72.3463C70.6986 72.3213 70.6428 72.3002 70.566 72.2829L70.418 72.2463C70.2988 72.2175 70.2085 72.1714 70.147 72.108C70.0855 72.0426 70.0644 71.9562 70.0817 71.8447C70.0951 71.7544 70.1317 71.6756 70.1874 71.6083C70.2431 71.5411 70.3161 71.4892 70.4045 71.4507C70.4929 71.4123 70.5929 71.395 70.7024 71.395C70.812 71.395 70.91 71.4142 70.9907 71.4527C71.0714 71.4911 71.129 71.543 71.1675 71.6122C71.2059 71.6794 71.2174 71.7582 71.204 71.8485H70.8734C70.8773 71.7967 70.8619 71.7544 70.8292 71.7256C70.7966 71.6967 70.7447 71.6814 70.6755 71.6814C70.6063 71.6814 70.5525 71.6948 70.5122 71.7217C70.4718 71.7486 70.4487 71.7813 70.443 71.8236C70.4353 71.8678 70.4487 71.9024 70.4853 71.9273C70.5198 71.9523 70.5698 71.9715 70.6313 71.9869L70.7524 72.0157C70.8888 72.0465 70.9887 72.0984 71.056 72.1695C71.1233 72.2406 71.1463 72.3347 71.1271 72.45C71.1041 72.5884 71.0387 72.696 70.933 72.7748C70.8254 72.8536 70.6813 72.892 70.5025 72.892L70.4949 72.8863Z" fill="white"/>
<path d="M71.3813 71.6929L71.4275 71.4124H72.6516L72.6055 71.6929H72.1654L71.9713 72.8671H71.6273L71.8233 71.6929H71.3833H71.3813Z" fill="white"/>
<path d="M72.5891 72.8671L72.8312 71.4124H73.427C73.5923 71.4124 73.7133 71.4566 73.794 71.543C73.8748 71.6295 73.9017 71.7467 73.8767 71.8966C73.8613 71.9966 73.8248 72.083 73.7691 72.1522C73.7133 72.2233 73.6422 72.2752 73.5557 72.3117L73.7671 72.8671H73.3886L73.2041 72.3655H73.0157L72.9331 72.8671H72.5891ZM73.0619 72.0946H73.2406C73.4058 72.0946 73.4981 72.0292 73.5192 71.8966C73.5308 71.8274 73.5192 71.7756 73.4808 71.7429C73.4443 71.7102 73.3847 71.6929 73.3059 71.6929H73.1272L73.0599 72.0946H73.0619Z" fill="white"/>
<path d="M74.4987 71.4124L74.2566 72.8671H73.9126L74.1547 71.4124H74.4987Z" fill="white"/>
<path d="M74.4851 72.8671L74.7272 71.4124H75.323C75.4863 71.4124 75.6036 71.4489 75.6785 71.5219C75.7515 71.5949 75.7804 71.6891 75.7611 71.8025C75.7477 71.8813 75.7112 71.9447 75.6497 71.9966C75.5882 72.0484 75.5171 72.083 75.4344 72.1003V72.1119C75.4921 72.1138 75.544 72.1311 75.5901 72.1618C75.6362 72.1926 75.6689 72.2349 75.69 72.2906C75.7112 72.3444 75.7169 72.4097 75.7054 72.4828C75.6881 72.5942 75.6285 72.6865 75.5325 72.7595C75.4364 72.8325 75.3076 72.8671 75.1462 72.8671H74.487H74.4851ZM74.8771 72.5884H75.0905C75.1692 72.5884 75.2307 72.5712 75.2769 72.5366C75.323 72.502 75.3499 72.4558 75.3595 72.3982C75.3672 72.3463 75.3557 72.306 75.323 72.2771C75.2903 72.2483 75.2423 72.2329 75.175 72.2329H74.9348L74.8771 72.5865V72.5884ZM74.9713 72.0119H75.1635C75.2211 72.0119 75.273 71.9946 75.3191 71.962C75.3653 71.9293 75.3941 71.8832 75.4037 71.8255C75.4114 71.7813 75.3999 71.7487 75.373 71.7237C75.346 71.7006 75.3018 71.6872 75.2403 71.6872H75.0251L74.9713 72.0119Z" fill="white"/>
<path d="M76.4429 72.8863C76.318 72.8863 76.2104 72.8633 76.1239 72.8171C76.0374 72.771 75.974 72.7076 75.9337 72.625C75.8952 72.5423 75.8837 72.4482 75.9029 72.3386L76.0567 71.4124H76.4007L76.2488 72.3329C76.2373 72.4097 76.2488 72.4712 76.2873 72.5173C76.3257 72.5635 76.3834 72.5865 76.4564 72.5865C76.5121 72.5865 76.564 72.575 76.612 72.55C76.6601 72.525 76.6985 72.4924 76.7312 72.452C76.7619 72.4097 76.7831 72.3636 76.7908 72.3136L76.9387 71.4143H77.2827L77.1252 72.3636C77.1079 72.4731 77.0675 72.5654 77.0041 72.6442C76.9407 72.723 76.8619 72.7825 76.7658 72.8248C76.6697 72.8671 76.5621 72.8882 76.441 72.8882L76.4429 72.8863Z" fill="white"/>
<path d="M77.4143 71.6929L77.4604 71.4124H78.6846L78.6385 71.6929H78.1984L78.0043 72.8671H77.6603L77.8563 71.6929H77.4162H77.4143Z" fill="white"/>
<path d="M79.2097 71.4124L78.9675 72.8671H78.6235L78.8657 71.4124H79.2097Z" fill="white"/>
<path d="M79.8704 72.8858C79.7531 72.8858 79.6494 72.8627 79.559 72.8166C79.4687 72.7705 79.3976 72.7013 79.3476 72.6129C79.2977 72.5245 79.2727 72.4149 79.2727 72.2881C79.2727 72.167 79.2919 72.0537 79.3284 71.946C79.3669 71.8384 79.4207 71.7423 79.4918 71.6597C79.5629 71.5771 79.6474 71.5117 79.7474 71.4637C79.8473 71.4156 79.9588 71.3926 80.0818 71.3926C80.199 71.3926 80.3008 71.4156 80.3912 71.4618C80.4815 71.5079 80.5507 71.5771 80.6025 71.6655C80.6544 71.7539 80.6794 71.8634 80.6794 71.9902C80.6794 72.1113 80.6602 72.2247 80.6218 72.3323C80.5833 72.4399 80.5295 72.536 80.4584 72.6186C80.3873 72.7013 80.3028 72.7666 80.2028 72.8147C80.1029 72.8627 79.9914 72.8858 79.8704 72.8858ZM79.8838 72.584C79.9588 72.584 80.026 72.5668 80.0818 72.5302C80.1375 72.4937 80.1836 72.4476 80.2201 72.39C80.2566 72.3304 80.2835 72.267 80.3028 72.1978C80.322 72.1286 80.3297 72.0594 80.3297 71.9902C80.3297 71.8941 80.3066 71.8192 80.2605 71.7692C80.2144 71.7193 80.1509 71.6943 80.0664 71.6943C79.9895 71.6943 79.9242 71.7116 79.8684 71.7481C79.8127 71.7846 79.7666 71.8307 79.7301 71.8884C79.6936 71.948 79.6667 72.0114 79.6474 72.0806C79.6282 72.1497 79.6205 72.2189 79.6205 72.2881C79.6205 72.3842 79.6436 72.4591 79.6897 72.5091C79.7358 72.5591 79.8012 72.584 79.8857 72.584H79.8838Z" fill="white"/>
<path d="M80.7415 72.8671L80.9836 71.4124H81.3622L81.6581 72.0696C81.6812 72.1215 81.7042 72.1791 81.7254 72.2387C81.7465 72.2983 81.7657 72.3694 81.785 72.4501C81.7926 72.3771 81.8003 72.3021 81.808 72.2252C81.8157 72.1484 81.8253 72.083 81.833 72.0331L81.9349 71.4143H82.2885L82.0463 72.869H81.6677L81.3948 72.2656C81.3641 72.1964 81.3372 72.1292 81.3161 72.0657C81.2949 72.0023 81.2699 71.9274 81.243 71.839C81.2353 71.9274 81.2257 72.0081 81.218 72.083C81.2104 72.158 81.2027 72.2195 81.195 72.2656L81.0951 72.869H80.7415V72.8671Z" fill="white"/>
<path d="M81.273 66.5942C80.9117 65.8986 81.2557 65.324 81.2557 65.324L81.1174 65.1318L80.8944 65.0549C80.8944 65.0549 80.439 65.5469 79.6703 65.3951C79.4704 65.9178 79.4628 66.2195 79.922 66.7307C80.5428 67.0266 80.8291 66.9344 81.2749 66.5962L81.273 66.5942Z" fill="#FFE100"/>
<path d="M81.01 64.4762C80.862 64.2878 79.9876 64.038 79.3112 64.2648C78.4252 64.5626 79.3285 65.5715 80.2144 65.4063C80.7794 65.3006 81.2656 64.8009 81.01 64.4762Z" fill="#D9F1FD"/>
<path d="M80.0203 64.6957L79.9838 64.6303C79.9838 64.6303 79.9415 64.6553 79.8935 64.7033C79.807 64.711 79.7186 64.7226 79.6302 64.7399L79.636 64.7245C79.4073 64.6342 79.3266 64.3325 79.3247 64.3286L79.2478 64.3478L79.1709 64.367C79.1748 64.3805 79.2401 64.6303 79.4323 64.786C79.2939 64.8283 79.1555 64.884 79.0229 64.9628L79.1037 65.0992C79.3151 64.9743 79.5476 64.9071 79.7724 64.8763C79.7148 64.9993 79.6725 65.1742 79.7013 65.4163L79.8589 65.3971C79.8262 65.1165 79.8993 64.9493 79.9665 64.8571C80.4758 64.8283 80.9043 64.9589 80.912 64.9609L80.9601 64.809C80.9332 64.8014 80.5238 64.6764 80.0203 64.6937V64.6957Z" fill="#32A4D5"/>
<path d="M81.7794 65.0517C82.0004 65.1401 82.4885 65.9088 82.4597 66.6237C82.4231 67.5576 81.2009 66.9754 81.1106 66.0779C81.0529 65.5072 81.3969 64.898 81.7794 65.0517Z" fill="#D9F1FD"/>
<path d="M82.3996 66.7858L82.3938 66.6263C82.3938 66.6263 82.0787 66.634 81.9269 66.4399L81.9134 66.4495C81.9057 66.3591 81.8923 66.2707 81.875 66.1862C81.9076 66.1266 81.9192 66.0843 81.9211 66.0805L81.8481 66.0632C81.7232 65.5751 81.4887 65.2176 81.4714 65.1946L81.3388 65.283C81.3388 65.283 81.5886 65.6635 81.7039 66.1593C81.6348 66.2496 81.4945 66.3688 81.2158 66.4149L81.2427 66.5725C81.4829 66.5321 81.6386 66.4437 81.7405 66.3515C81.7731 66.5763 81.775 66.8165 81.7136 67.0567L81.8673 67.0952C81.9057 66.9453 81.9211 66.7973 81.9211 66.6532C82.1037 66.7781 82.3285 66.7877 82.3842 66.7877C82.39 66.7877 82.3958 66.7877 82.3958 66.7877L82.3996 66.7858Z" fill="#32A4D5"/>
<path d="M82.9902 63.8518C82.9422 63.8057 82.8672 63.8076 82.8211 63.8537C82.5943 64.0862 82.3406 64.167 82.1696 64.1919C82.112 64.1208 82.0428 64.0536 81.9659 63.9959C81.8641 63.919 81.7526 63.8633 81.6411 63.8268C81.6123 63.6577 81.6065 63.3771 81.7776 63.0716C81.8103 63.0139 81.7891 62.9409 81.7315 62.9082C81.6738 62.8756 81.6008 62.8967 81.5681 62.9543C81.3894 63.2695 81.3721 63.5674 81.3932 63.7788C81.1261 63.7615 80.8744 63.8576 80.7225 64.0613C80.6976 64.0939 80.6783 64.1285 80.6591 64.1631C80.2805 64.0459 79.7386 63.994 79.2716 64.1516C78.9296 64.2669 78.7701 64.5052 78.8431 64.7896C78.9103 65.0471 79.1698 65.3027 79.5042 65.4411C79.4215 65.6159 79.3889 65.8062 79.4081 65.9926C79.4311 66.2213 79.5349 66.4327 79.7079 66.6152L79.6137 67.1379L80.0884 66.8996C80.2536 66.9861 80.4247 67.0284 80.5938 67.0284C80.6534 67.0284 80.7129 67.0226 80.7706 67.013C80.9551 66.9784 81.128 66.892 81.2722 66.7651C81.4932 67.0419 81.8026 67.2187 82.0658 67.2187C82.0716 67.2187 82.0774 67.2187 82.0831 67.2187C82.3772 67.209 82.5597 66.988 82.5751 66.6287C82.5943 66.1348 82.3906 65.6275 82.1696 65.2988C82.1984 65.2719 82.2253 65.2431 82.2484 65.2104C82.3772 65.0375 82.4175 64.8146 82.3599 64.584C82.3445 64.5263 82.3253 64.4687 82.2984 64.4129C82.4982 64.3668 82.7538 64.2611 82.9844 64.0247C83.0306 63.9767 83.0286 63.9018 82.9825 63.8556L82.9902 63.8518ZM81.4701 65.2393C81.5335 65.3488 81.6604 65.589 81.7584 65.8888H81.7545C81.7545 65.8888 81.6911 66.2059 81.301 66.3231C81.2626 66.2328 81.2376 66.1425 81.2299 66.0618C81.1953 65.7178 81.3183 65.3911 81.4701 65.2393ZM81.1165 65.3411C81.0339 65.516 80.9858 65.7274 80.9839 65.9388C80.907 65.9484 80.7533 65.9484 80.5938 65.8292C80.4343 65.7101 80.392 65.564 80.3805 65.4872C80.5842 65.4257 80.7725 65.3219 80.9166 65.1932C80.9455 65.2201 80.9781 65.247 81.0108 65.2719C81.0454 65.2969 81.08 65.32 81.1165 65.3411ZM80.2114 64.7319C80.5265 64.7415 80.7936 64.7954 80.9166 64.8242C80.8129 65.0125 80.5342 65.2239 80.1941 65.2873C80.1018 65.3046 80.0115 65.3065 79.9231 65.2988C79.9231 64.8895 80.1998 64.7415 80.2133 64.7358V64.7319H80.2114ZM79.9097 64.2938C80.3978 64.2938 80.8436 64.4552 80.9186 64.5494C80.9589 64.6013 80.9704 64.6589 80.957 64.7243C80.8513 64.6973 80.6226 64.6474 80.3382 64.6301C80.1499 64.6186 79.9193 64.6186 79.679 64.6589C79.5368 64.5974 79.4504 64.4591 79.4062 64.3591C79.5695 64.3111 79.7425 64.2919 79.9097 64.2919V64.2938ZM79.0775 64.7281C79.0391 64.582 79.116 64.4687 79.3024 64.3937C79.3408 64.4821 79.4119 64.6032 79.5234 64.6897C79.3869 64.7223 79.2524 64.7685 79.1217 64.8338C79.1006 64.7973 79.0852 64.7627 79.0756 64.7281H79.0775ZM79.1852 64.9222C79.458 64.7896 79.7636 64.7396 80.0423 64.7319C79.9423 64.8261 79.8193 65.001 79.8174 65.2835C79.5503 65.2316 79.3178 65.0817 79.1852 64.9222ZM80.7302 66.7747C80.5015 66.817 80.2613 66.7478 80.0326 66.5787C79.7136 66.3385 79.5157 65.9292 79.7367 65.5122C79.7751 65.5198 79.8116 65.5275 79.8501 65.5333C79.8731 65.7389 79.9788 66.0349 80.2748 66.2559C80.4996 66.4231 80.7341 66.4749 80.9243 66.4749C80.9858 66.4749 81.0416 66.4692 81.0915 66.4615C81.1069 66.4961 81.1242 66.5288 81.1415 66.5614C81.0243 66.6729 80.882 66.7478 80.7302 66.7767V66.7747ZM81.8641 66.9362C81.6488 66.8497 81.4624 66.6421 81.3471 66.4211C81.6123 66.3385 81.743 66.1732 81.8064 66.0522C81.8775 66.3251 81.9159 66.6344 81.8641 66.9362ZM82.0812 66.9765C82.0428 66.9765 82.0043 66.9746 81.9659 66.9669C81.9928 66.8228 81.9986 66.6786 81.9909 66.5384C82.1062 66.621 82.2407 66.6537 82.3368 66.6671C82.3176 66.8689 82.2311 66.9727 82.0793 66.9784L82.0812 66.9765ZM82.3426 66.5595C82.235 66.5441 82.0774 66.4999 81.9774 66.3808C81.9486 66.1406 81.8852 65.9176 81.8199 65.7408C81.7219 65.4737 81.6104 65.2681 81.5547 65.1739C81.5893 65.1547 81.6238 65.1451 81.6584 65.1451C81.6834 65.1451 81.7084 65.1509 81.7353 65.1605C81.8833 65.2201 82.3407 65.8927 82.3426 66.5595Z" fill="#010201"/>
<path d="M44.556 51.6729L40.2109 48.5962H24.9254L18.1993 43.1231L2.86572 43.1462V42.5697L18.4049 42.5447L25.1291 48.0197H40.3935L44.8884 51.2021L44.556 51.6729Z" fill="#BCC7CE"/>
<path d="M39.8384 52.1381H22.3487L16.4451 47.4029H7.95483V46.8264H16.6469L22.5504 51.5615H39.8384V52.1381Z" fill="#BCC7CE"/>
<path d="M89.1903 50.9497H75.125L70.4783 45.3421L70.9241 44.9751L75.396 50.3732H89.1903V50.9497Z" fill="#BCC7CE"/>
<path d="M31.2588 59.2188H22.98V58.6422H31.0532L35.3963 55.0947L35.7615 55.5425L31.2588 59.2188Z" fill="#BCC7CE"/>
<path d="M46.2574 55.0312H25.8716V55.6078H46.2574V55.0312Z" fill="#BCC7CE"/>
<path d="M15.7784 51.3091H2.77588V51.8856H15.7784V51.3091Z" fill="#BCC7CE"/>
<path d="M93.5924 62.1401L89.2493 58.5926H81.176V58.0161H89.4549L93.9575 61.6924L93.5924 62.1401Z" fill="#BCC7CE"/>
<path d="M101.29 65.5254L97.6563 62.2027H87.9111V61.6262H97.8792L101.513 64.9489L117.836 64.922V65.4985L101.29 65.5254Z" fill="#BCC7CE"/>
<path d="M6.72241 59.1343V63.1872H8.37511C8.57881 63.1872 8.7806 63.1699 8.97854 63.1353C9.17647 63.1007 9.35327 63.0373 9.50701 62.9431C9.66075 62.8509 9.78759 62.7241 9.88367 62.5646C9.97976 62.4051 10.0278 62.1994 10.0278 61.9477C10.0278 61.7248 9.98168 61.5403 9.88752 61.3942C9.79527 61.2463 9.67036 61.129 9.5147 61.0387C9.64154 60.9388 9.73762 60.8235 9.80488 60.6928C9.87214 60.5602 9.90674 60.4084 9.90674 60.2373C9.90674 60.0067 9.86061 59.8184 9.76645 59.6743C9.6742 59.5302 9.55121 59.4187 9.40132 59.338C9.25142 59.2592 9.08231 59.2054 8.89398 59.1766C8.70565 59.1477 8.51732 59.1343 8.32899 59.1343H6.72241ZM7.91966 60.2316H8.4097C8.51155 60.2316 8.58842 60.245 8.63646 60.2719C8.68643 60.2988 8.71141 60.3488 8.71141 60.4199C8.71141 60.5064 8.68451 60.5621 8.6307 60.5852C8.57689 60.6082 8.50386 60.6198 8.4097 60.6198H7.91966V60.2316ZM7.91966 61.6825H8.50002C8.60572 61.6825 8.68835 61.694 8.74985 61.719C8.81134 61.744 8.84209 61.7978 8.84209 61.8862C8.84209 61.9381 8.83248 61.9765 8.81519 62.0053C8.79789 62.0342 8.77291 62.0553 8.74024 62.0707C8.70949 62.086 8.67106 62.0957 8.6307 62.0995C8.59034 62.1033 8.54422 62.1072 8.50002 62.1072H7.91966V61.6844V61.6825Z" fill="white"/>
<path d="M14.021 60.7367H12.2741V61.7821H12.8372V62.1107C12.7795 62.1165 12.7277 62.1203 12.6796 62.1242C12.6316 62.128 12.5874 62.128 12.5489 62.128C12.3952 62.128 12.2607 62.1107 12.1415 62.0781C12.0224 62.0454 11.9224 61.9916 11.8417 61.9166C11.761 61.8417 11.6995 61.7418 11.6572 61.6188C11.615 61.4958 11.5938 61.344 11.5938 61.1633C11.5938 60.9654 11.615 60.802 11.6592 60.6752C11.7034 60.5484 11.7687 60.4465 11.8571 60.3735C11.9455 60.3005 12.055 60.2486 12.1857 60.2197C12.3164 60.1909 12.4663 60.1775 12.6373 60.1775C12.7104 60.1775 12.8026 60.1832 12.9141 60.1948C13.0255 60.2063 13.1428 60.2217 13.26 60.239C13.3772 60.2563 13.4906 60.2793 13.5963 60.3043C13.702 60.3293 13.7846 60.3562 13.8442 60.3831V59.3338C13.7904 59.3031 13.7154 59.2723 13.6193 59.2416C13.5233 59.2108 13.4176 59.182 13.3042 59.1551C13.1908 59.1301 13.0716 59.109 12.9506 59.0936C12.8295 59.0782 12.7142 59.0706 12.6066 59.0706C12.276 59.0706 11.9763 59.1051 11.7091 59.1724C11.4401 59.2397 11.2095 59.355 11.0173 59.5145C10.8251 59.6759 10.6772 59.8892 10.5734 60.1583C10.4696 60.4273 10.4177 60.7617 10.4177 61.1595C10.4177 62.5431 11.0923 63.2349 12.4394 63.2349C12.5509 63.2349 12.67 63.2273 12.7968 63.21C12.9237 63.1927 13.0563 63.1658 13.1946 63.1292C13.333 63.0908 13.4714 63.0428 13.6117 62.9813C13.7519 62.9198 13.8865 62.8448 14.0191 62.7545V60.7328L14.021 60.7367Z" fill="white"/>
<path d="M14.6372 59.1343V63.1872H15.8479V62.0803H16.2034C16.7818 62.0803 17.2046 61.9611 17.4679 61.7228C17.7312 61.4845 17.8638 61.1137 17.8638 60.6121C17.8638 60.3219 17.8196 60.0798 17.7331 59.8895C17.6466 59.6993 17.5275 59.5474 17.3757 59.4379C17.2238 59.3264 17.0451 59.2496 16.8376 59.2035C16.63 59.1593 16.409 59.1362 16.1707 59.1362H14.6353L14.6372 59.1343ZM16.065 60.2316C16.1553 60.2316 16.2361 60.2354 16.311 60.2412C16.384 60.247 16.4475 60.2623 16.4993 60.2892C16.5512 60.3142 16.5916 60.3527 16.6204 60.4026C16.6492 60.4526 16.6627 60.5198 16.6627 60.6082C16.6627 60.7562 16.6166 60.8523 16.5224 60.9003C16.4302 60.9484 16.2764 60.9734 16.0631 60.9734H15.8459V60.2354H16.0631L16.065 60.2316Z" fill="white"/>
<path d="M16.737 63.637L16.5698 62.655H16.8715L16.9215 63.0355C16.9292 63.097 16.9369 63.1585 16.9426 63.2219C16.9484 63.2854 16.9522 63.3488 16.9561 63.4122C16.9811 63.3488 17.0061 63.2854 17.031 63.2219C17.056 63.1585 17.0829 63.097 17.1118 63.0355L17.2847 62.655H17.5826L17.1002 63.637H16.737Z" fill="white"/>
<path d="M17.5159 63.6365L17.5485 63.4444L17.9656 63.1407C18.0059 63.11 18.0405 63.0812 18.0674 63.0543C18.0943 63.0254 18.1116 62.9947 18.1174 62.9601C18.1231 62.9236 18.1174 62.8947 18.0962 62.8755C18.0751 62.8563 18.0482 62.8467 18.0117 62.8467C17.9752 62.8467 17.9425 62.8582 17.9137 62.8794C17.8848 62.9005 17.8675 62.9332 17.8618 62.9735H17.6081C17.6254 62.8698 17.6696 62.7891 17.7446 62.7295C17.8176 62.6699 17.9117 62.6392 18.0251 62.6392C18.1039 62.6392 18.1712 62.6526 18.2269 62.6776C18.2826 62.7026 18.3249 62.7372 18.3518 62.7833C18.3787 62.8294 18.3864 62.8813 18.3768 62.9428C18.371 62.9716 18.3634 62.9985 18.3518 63.0273C18.3403 63.0543 18.3211 63.085 18.298 63.1157C18.273 63.1465 18.2404 63.1792 18.1981 63.2176C18.1558 63.2541 18.1039 63.2964 18.0405 63.3425L17.9348 63.4194V63.4251H18.3076L18.273 63.6385H17.5178L17.5159 63.6365Z" fill="white"/>
<path d="M23.0382 83.9228C28.0446 83.9228 32.1031 79.8643 32.1031 74.858C32.1031 69.8517 28.0446 65.7932 23.0382 65.7932C18.0319 65.7932 13.9734 69.8517 13.9734 74.858C13.9734 79.8643 18.0319 83.9228 23.0382 83.9228Z" fill="#3D3E44"/>
<path d="M28.6094 80.4288C31.6864 77.3518 31.6864 72.363 28.6094 69.2861C25.5324 66.2091 20.5436 66.2091 17.4667 69.2861C14.3897 72.363 14.3897 77.3518 17.4667 80.4288C20.5436 83.5057 25.5324 83.5057 28.6094 80.4288Z" fill="#343438"/>
<path d="M23.0374 68.9866C19.7954 68.9866 17.1665 71.6155 17.1665 74.8574C17.1665 78.0994 19.7954 80.7283 23.0374 80.7283C26.2794 80.7283 28.9083 78.0994 28.9083 74.8574C28.9083 71.6155 26.2794 68.9866 23.0374 68.9866ZM23.0374 80.3132C20.0241 80.3132 17.5816 77.8707 17.5816 74.8574C17.5816 71.8442 20.0241 69.4017 23.0374 69.4017C26.0507 69.4017 28.4932 71.8442 28.4932 74.8574C28.4932 77.8707 26.0507 80.3132 23.0374 80.3132Z" fill="white"/>
<path d="M26.3157 78.135C28.1259 76.3248 28.1259 73.39 26.3157 71.5798C24.5056 69.7697 21.5707 69.7697 19.7605 71.5798C17.9503 73.39 17.9503 76.3248 19.7605 78.135C21.5707 79.9452 24.5056 79.9452 26.3157 78.135Z" fill="#73757E"/>
<path d="M23.038 78.7973C25.2137 78.7973 26.9775 77.0335 26.9775 74.8578C26.9775 72.682 25.2137 70.9182 23.038 70.9182C20.8622 70.9182 19.0984 72.682 19.0984 74.8578C19.0984 77.0335 20.8622 78.7973 23.038 78.7973Z" fill="#343438"/>
<path d="M96.4251 83.1213C100.989 83.1213 104.689 79.4217 104.689 74.8579C104.689 70.2941 100.989 66.5945 96.4251 66.5945C91.8613 66.5945 88.1616 70.2941 88.1616 74.8579C88.1616 79.4217 91.8613 83.1213 96.4251 83.1213Z" fill="#3D3E44"/>
<path d="M101.505 79.9369C104.31 77.1316 104.31 72.5833 101.505 69.778C98.6992 66.9727 94.1509 66.9727 91.3456 69.778C88.5403 72.5833 88.5403 77.1316 91.3456 79.9369C94.1509 82.7422 98.6992 82.7422 101.505 79.9369Z" fill="#343438"/>
<path d="M96.4248 69.5032C93.4692 69.5032 91.0728 71.8996 91.0728 74.8552C91.0728 77.8108 93.4692 80.2072 96.4248 80.2072C99.3804 80.2072 101.777 77.8108 101.777 74.8552C101.777 71.8996 99.3804 69.5032 96.4248 69.5032ZM96.4248 79.8305C93.6767 79.8305 91.4513 77.6033 91.4513 74.8571C91.4513 72.111 93.6786 69.8818 96.4248 69.8818C99.171 69.8818 101.4 72.109 101.4 74.8571C101.4 77.6052 99.1729 79.8305 96.4248 79.8305Z" fill="white"/>
<path d="M99.4142 77.8456C101.065 76.1953 101.065 73.5196 99.4142 71.8693C97.7639 70.219 95.0882 70.219 93.4379 71.8693C91.7876 73.5196 91.7876 76.1953 93.4379 77.8456C95.0882 79.4959 97.7639 79.4959 99.4142 77.8456Z" fill="#73757E"/>
<path d="M96.4252 78.4495C98.4089 78.4495 100.017 76.8415 100.017 74.8578C100.017 72.8742 98.4089 71.2661 96.4252 71.2661C94.4416 71.2661 92.8335 72.8742 92.8335 74.8578C92.8335 76.8415 94.4416 78.4495 96.4252 78.4495Z" fill="#343438"/>
<path d="M116.626 66.6787L116.645 63.7961L118.969 65.2586L116.626 66.6787Z" fill="#BCC7CE"/>
<path d="M29.0714 63.7409C29.2386 63.7409 29.4057 63.7352 29.5691 63.7832C29.9131 63.8831 30.161 64.0965 30.2667 64.475C30.3032 64.6057 30.2936 64.623 30.1706 64.6499C29.9823 64.6941 29.792 64.7345 29.6037 64.7806C29.5326 64.7979 29.4884 64.7864 29.4557 64.7037C29.3961 64.5538 29.2904 64.4981 29.1425 64.5154C28.8523 64.55 28.6563 64.7095 28.564 65.0054C28.466 65.3225 28.4756 65.6434 28.6005 65.9605C28.6678 66.1316 28.7927 66.2257 28.9637 66.22C29.2117 66.2123 29.4269 66.1316 29.5556 65.8875C29.571 65.8587 29.5806 65.8279 29.5902 65.7953C29.6075 65.7357 29.5902 65.7088 29.5287 65.7242C29.425 65.7491 29.3193 65.7703 29.2155 65.7972C29.1386 65.8164 29.1079 65.7914 29.104 65.7049C29.0983 65.5589 29.0848 65.4128 29.0714 65.2668C29.0656 65.2034 29.0848 65.1688 29.1425 65.1553C29.5114 65.0727 29.8785 64.9881 30.2475 64.9036C30.2955 64.8921 30.332 64.8978 30.3359 64.9612C30.3628 65.3264 30.4223 65.6934 30.2897 66.047C30.1129 66.5159 29.7901 66.8022 29.3404 66.9291C29.1944 66.9694 29.0464 67.0098 28.8907 67.0079C28.4526 67.0002 28.1143 66.8022 27.8953 66.3795C27.8722 66.3372 27.8511 66.293 27.828 66.2507C27.7838 66.0605 27.7415 65.8683 27.6973 65.678C27.6973 65.6511 27.6973 65.6262 27.6973 65.5992C27.6704 64.9401 27.8587 64.3924 28.368 64.0119C28.4775 63.9293 28.6044 63.8812 28.7255 63.8217L29.0694 63.7429L29.0714 63.7409Z" fill="white"/>
<path d="M34.0298 63.7383C34.1086 64.3782 34.1413 64.9874 34.1913 65.5966C34.2066 65.7715 34.2047 65.7715 34.0471 65.808C33.8742 65.8484 33.7012 65.8849 33.5302 65.9272C33.4552 65.9464 33.4264 65.9272 33.4187 65.8368C33.3611 65.0182 33.2996 64.1976 33.2381 63.3789C33.2265 63.229 33.2189 63.0792 33.2054 62.9293C33.1996 62.862 33.2246 62.8332 33.2803 62.8197C33.6109 62.7448 33.9434 62.6698 34.2739 62.593C34.3584 62.5737 34.3815 62.6275 34.4065 62.6967C34.5814 63.2079 34.7678 63.7152 34.9465 64.2341C34.9657 64.1111 34.983 63.9901 35.0022 63.8671C35.0772 63.4058 35.156 62.9446 35.229 62.4815C35.2424 62.3989 35.277 62.3604 35.352 62.3451C35.6633 62.2778 35.9746 62.2028 36.284 62.1337C36.4051 62.1068 36.4186 62.1183 36.4282 62.247C36.4973 63.1887 36.5646 64.1323 36.6357 65.0739C36.6434 65.1738 36.6223 65.2238 36.5242 65.2411C36.3436 65.2738 36.1649 65.316 35.9881 65.3641C35.892 65.391 35.8632 65.3564 35.8574 65.2584C35.819 64.63 35.7556 64.0016 35.7267 63.3693C35.6998 63.5442 35.6748 63.721 35.6441 63.8959C35.5557 64.3975 35.4634 64.8971 35.377 65.3968C35.3635 65.4775 35.327 65.5159 35.2521 65.5294C35.1022 65.5582 34.9542 65.5947 34.8062 65.6312C34.7447 65.6466 34.7101 65.6312 34.6851 65.562C34.4853 65.0124 34.2681 64.4686 34.0932 63.9093C34.0779 63.8613 34.0567 63.8133 34.0279 63.7364L34.0298 63.7383Z" fill="white"/>
<path d="M38.4316 63.4521C38.5142 62.8679 38.6218 62.2933 38.7141 61.7129C38.7314 61.6072 38.7717 61.563 38.8678 61.5438C39.1695 61.4804 39.4693 61.4074 39.771 61.3401C39.9017 61.3094 39.9113 61.319 39.9209 61.4669C39.9901 62.4124 40.0574 63.3598 40.1304 64.3053C40.1362 64.3899 40.1131 64.4264 40.0362 64.4418C39.8537 64.4783 39.6711 64.5244 39.4885 64.5648C39.3694 64.5917 39.3598 64.5821 39.3502 64.4475C39.3079 63.8307 39.2502 63.2138 39.2349 62.595C39.2349 62.5892 39.2291 62.5835 39.2233 62.57C39.1734 62.8794 39.1253 63.185 39.0734 63.4867C39.0081 63.8595 38.9389 64.2323 38.8736 64.6051C38.8601 64.6801 38.8294 64.7204 38.7564 64.7339C38.6065 64.7627 38.4585 64.7973 38.3105 64.8357C38.2317 64.8569 38.1991 64.828 38.1721 64.7473C37.9723 64.1804 37.7436 63.625 37.5687 63.0505C37.563 63.0293 37.5514 63.0101 37.5361 62.9928C37.5995 63.5924 37.6379 64.192 37.684 64.7915C37.6975 64.9741 37.6994 64.9741 37.538 65.0106C37.3689 65.049 37.1997 65.0836 37.0306 65.1278C36.948 65.149 36.9192 65.1278 36.9134 65.0337C36.8731 64.4572 36.8308 63.8826 36.7885 63.306C36.7597 62.9217 36.7347 62.5354 36.702 62.1511C36.6943 62.0704 36.7193 62.0358 36.7904 62.0204C37.1113 61.9493 37.4323 61.8744 37.7532 61.8013C37.8186 61.786 37.8647 61.7917 37.8935 61.8744C38.0741 62.399 38.2663 62.9198 38.4354 63.4521H38.4316Z" fill="white"/>
<path d="M31.6249 63.2007C31.7594 63.1699 31.8959 63.143 32.0304 63.1065C32.1072 63.0854 32.1495 63.1065 32.1841 63.1911C32.4032 63.7445 32.628 64.296 32.851 64.8495C32.9874 65.1897 33.1219 65.5317 33.2622 65.8719C33.2968 65.9545 33.2814 65.9852 33.2026 66.0025C32.9797 66.0506 32.7568 66.1025 32.5339 66.1544C32.4743 66.1678 32.4359 66.1582 32.4128 66.0871C32.3821 65.9872 32.3398 65.8911 32.3071 65.7892C32.2879 65.7258 32.2591 65.7047 32.1995 65.7181C31.9497 65.7758 31.6998 65.8334 31.45 65.8892C31.3943 65.9007 31.3693 65.9353 31.3616 65.9929C31.3424 66.1063 31.3193 66.2197 31.302 66.3331C31.2905 66.408 31.2598 66.4484 31.1867 66.4638C30.9561 66.5118 30.7274 66.5656 30.4968 66.6213C30.4219 66.6386 30.3931 66.629 30.4123 66.5368C30.6352 65.4933 30.8562 64.4517 31.0753 63.4082C31.0887 63.3448 31.1214 63.316 31.179 63.3025C31.3289 63.2698 31.4769 63.2353 31.6249 63.2007ZM31.721 64.1C31.721 64.1 31.7056 64.1 31.6998 64.1C31.6806 64.2134 31.6614 64.3249 31.6422 64.4383C31.6057 64.6496 31.5711 64.863 31.5326 65.0743C31.5192 65.1474 31.5365 65.1704 31.6076 65.1531C31.7287 65.1224 31.8497 65.0955 31.9708 65.0686C32.0169 65.059 32.0477 65.0455 32.0246 64.9802C31.9228 64.6881 31.8228 64.3941 31.7229 64.1H31.721Z" fill="white"/>
<path d="M41.4834 60.9481C41.6218 60.9174 41.7601 60.8866 41.8985 60.852C41.9754 60.8328 42.0176 60.852 42.0522 60.9385C42.4058 61.8225 42.7633 62.7046 43.1188 63.5886C43.1726 63.7212 43.1707 63.725 43.0381 63.7558C42.8286 63.8038 42.6191 63.848 42.4097 63.9018C42.3309 63.9229 42.2924 63.8903 42.2694 63.8134C42.2406 63.7231 42.2098 63.6347 42.181 63.5463C42.1579 63.479 42.1233 63.4521 42.0522 63.4694C41.8101 63.529 41.566 63.5828 41.322 63.6366C41.2624 63.6501 41.2355 63.6827 41.2259 63.7461C41.2067 63.8634 41.1817 63.9787 41.1644 64.0959C41.1548 64.1651 41.1221 64.1958 41.0606 64.2093C40.8338 64.2573 40.6071 64.3111 40.3822 64.363C40.2708 64.388 40.265 64.3822 40.29 64.2631C40.4783 63.3676 40.6667 62.472 40.8531 61.5784C40.8819 61.4439 40.9126 61.3113 40.9376 61.1768C40.9511 61.1018 40.9857 61.0615 41.0568 61.048C41.199 61.0192 41.3412 60.9846 41.4834 60.952V60.9481ZM41.5872 61.8456C41.5872 61.8456 41.5718 61.8513 41.5641 61.8532C41.5084 62.178 41.4526 62.5028 41.3969 62.8276C41.3854 62.891 41.4065 62.9102 41.4642 62.8967C41.5795 62.8698 41.6929 62.8391 41.8082 62.8199C41.9023 62.8026 41.9062 62.7507 41.8754 62.6681C41.8331 62.5566 41.7947 62.4413 41.7563 62.3279C41.7005 62.1665 41.6448 62.0051 41.5891 61.8436L41.5872 61.8456Z" fill="white"/>
<path d="M42.1557 74.2138C42.1557 73.2914 42.1653 72.4189 42.1499 71.5465C42.1461 71.2832 42.221 71.189 42.4881 71.2063C42.8456 71.2275 43.2049 71.2159 43.5624 71.2102C43.7334 71.2063 43.818 71.2563 43.818 71.4465C43.8141 73.1569 43.8141 74.8691 43.818 76.5795C43.818 76.7524 43.743 76.8082 43.5797 76.8043C43.178 76.7986 42.7764 76.7947 42.3747 76.8062C42.1845 76.812 42.0711 76.739 41.9712 76.5833C41.4485 75.7685 40.9161 74.9575 40.3877 74.1447C40.3415 74.0735 40.2897 74.0044 40.2358 73.9275C40.1628 74.0044 40.1936 74.087 40.1936 74.16C40.1897 74.946 40.184 75.732 40.1916 76.518C40.1916 76.7313 40.1205 76.8139 39.9015 76.8062C39.5094 76.7928 39.1155 76.7986 38.7215 76.8043C38.5543 76.8062 38.4871 76.7409 38.4871 76.5737C38.489 74.8634 38.489 73.1511 38.4871 71.4408C38.4871 71.2717 38.5543 71.2083 38.7215 71.2102C39.1501 71.2159 39.5786 71.2198 40.0052 71.2102C40.2032 71.2044 40.2743 71.3389 40.3608 71.4696C40.9469 72.369 41.5349 73.2664 42.1537 74.2158L42.1557 74.2138Z" fill="white"/>
<path d="M54.7813 74.1059C54.9639 74.0328 55.035 73.9022 55.108 73.7753C55.3521 73.3429 55.6 72.9105 55.8345 72.4724C55.9094 72.334 55.994 72.261 56.1592 72.2629C56.6301 72.2706 57.1028 72.2668 57.5736 72.2629C57.7716 72.261 57.81 72.3283 57.7005 72.4935C57.2988 73.095 56.9894 73.758 56.4975 74.298C56.4167 74.3864 56.4475 74.4441 56.5032 74.5229C56.9548 75.1667 57.318 75.8662 57.7235 76.5368C57.8715 76.7809 57.8561 76.802 57.564 76.804C57.1451 76.804 56.7261 76.7924 56.3072 76.8097C56.0843 76.8174 55.9555 76.7425 55.8594 76.5407C55.6154 76.0295 55.3521 75.526 55.0946 75.0206C55.0292 74.8918 54.9639 74.7592 54.7717 74.6805V76.0929C54.7717 76.5682 54.5315 76.8059 54.0511 76.8059C53.7801 76.8059 53.5091 76.802 53.2382 76.8059C53.0941 76.8078 53.0287 76.7425 53.0287 76.6041C53.0287 76.5599 53.0268 76.5176 53.0268 76.4734C53.0268 74.7285 53.0306 72.9817 53.0229 71.2367C53.0229 70.9927 53.0941 70.8947 53.3496 70.8985C53.7244 70.9043 54.0991 70.8793 54.4739 70.8505C54.7064 70.8332 54.7775 70.9235 54.7756 71.1502C54.766 72.0746 54.7717 73.0009 54.7717 73.9252C54.7717 73.9771 54.7775 74.029 54.7813 74.1097V74.1059Z" fill="white"/>
<path d="M47.1066 74.9495C46.8798 74.9495 46.6531 74.9495 46.4244 74.9495C46.2514 74.9495 46.213 75.0283 46.2687 75.184C46.3648 75.4569 46.582 75.551 46.8395 75.5606C47.3199 75.5799 47.7984 75.5914 48.2789 75.5318C48.6229 75.4895 48.6478 75.5145 48.694 75.8566C48.7132 76.0026 48.717 76.1564 48.7593 76.2948C48.8285 76.5215 48.7228 76.6157 48.5287 76.6772C47.6889 76.9462 46.8356 77.0269 45.9728 76.8309C45.0984 76.633 44.593 76.0219 44.4815 75.0283C44.4085 74.3788 44.4969 73.7408 44.7313 73.1258C44.8505 72.8145 45.0542 72.5935 45.3674 72.4724C46.1092 72.1861 46.8702 72.0862 47.6524 72.2707C48.252 72.4129 48.6248 72.7991 48.7747 73.391C48.8784 73.808 48.9073 74.2327 48.9053 74.6632C48.9053 74.8515 48.8208 74.9092 48.6517 74.9073C48.1367 74.9053 47.6216 74.9073 47.1066 74.9073C47.1066 74.9207 47.1066 74.9322 47.1066 74.9457V74.9495ZM46.7549 74.1001C46.8164 74.1001 46.876 74.1001 46.9375 74.1001C47.3161 74.1001 47.3718 74.0175 47.2507 73.6485C47.245 73.6312 47.243 73.6139 47.2354 73.5986C47.1297 73.3411 46.8625 73.2373 46.532 73.3238C46.2803 73.3891 46.1553 73.6178 46.2264 73.9445C46.2899 74.2385 46.5435 74.0444 46.703 74.1001C46.7184 74.1059 46.7376 74.1001 46.7549 74.1001Z" fill="white"/>
<path d="M61.0908 74.6119C61.0908 74.2544 61.085 73.8951 61.0927 73.5376C61.0966 73.3647 61.0447 73.2782 60.8563 73.284C60.324 73.3013 60.3586 73.3205 60.3586 72.7651C60.3586 72.3558 60.3586 72.35 60.7814 72.3116C61.0139 72.2904 61.1465 72.1944 61.2407 71.9676C61.627 71.0432 61.3618 71.2008 62.4033 71.1605C62.4648 71.1585 62.5263 71.1566 62.5859 71.1451C62.7608 71.1105 62.828 71.1912 62.83 71.3565C62.83 71.5832 62.8357 71.81 62.83 72.0368C62.8261 72.204 62.8992 72.2751 63.0663 72.2693C63.2316 72.2635 63.3988 72.2751 63.5641 72.2674C63.7582 72.2578 63.8446 72.325 63.8485 72.5364C63.8639 73.2782 63.8696 73.2859 63.1336 73.284C62.9088 73.284 62.8204 73.3493 62.8261 73.5818C62.8396 74.1315 62.8396 74.683 62.8319 75.2326C62.8281 75.4747 62.9203 75.5747 63.1701 75.5785C63.689 75.5843 63.689 75.5939 63.7563 76.1032C63.837 76.7258 63.8024 76.77 63.1893 76.8526C62.8242 76.9007 62.4629 76.9391 62.0959 76.8661C61.4329 76.7354 61.1119 76.3683 61.0966 75.69C61.0889 75.3325 61.0966 74.9732 61.0966 74.6157L61.0908 74.6119Z" fill="white"/>
<path d="M49.8627 74.6594C49.8627 74.2847 49.857 73.908 49.8647 73.5333C49.8685 73.3565 49.8128 73.2796 49.6264 73.2835C49.0787 73.2931 49.1286 73.3334 49.1306 72.7684C49.1306 72.3975 49.0421 72.3111 49.5418 72.3072C49.7647 72.3053 49.9146 72.2131 49.98 71.9805C50.0318 71.796 50.1318 71.6269 50.1913 71.4463C50.2567 71.2503 50.3835 71.1753 50.5834 71.1715C50.8447 71.1676 51.1061 71.1542 51.3675 71.1369C51.5193 71.1273 51.5731 71.1945 51.5712 71.3348C51.5692 71.5443 51.5865 71.7557 51.5673 71.9632C51.5443 72.215 51.6519 72.2899 51.8863 72.2688C52.0516 72.2553 52.2188 72.2688 52.3841 72.2669C52.5378 72.263 52.6108 72.3341 52.607 72.4859C52.607 72.4955 52.607 72.5032 52.607 72.5128C52.6012 73.4622 52.7108 73.2738 51.8882 73.2796C51.6327 73.2796 51.5577 73.3622 51.5654 73.6102C51.5827 74.1425 51.5788 74.6748 51.5673 75.2071C51.5635 75.4589 51.648 75.5703 51.9132 75.5742C52.4974 75.5818 52.4974 75.5914 52.5128 76.1949C52.5282 76.7464 52.5282 76.7483 51.9863 76.8386C51.5788 76.9059 51.1714 76.9424 50.764 76.8483C50.1721 76.7118 49.8666 76.339 49.8608 75.7337C49.857 75.3762 49.8608 75.0169 49.8608 74.6594H49.8627Z" fill="white"/>
<path d="M58.2005 74.539C58.2005 73.8837 58.2063 73.2284 58.1967 72.575C58.1928 72.352 58.2582 72.2579 58.4926 72.2656C58.877 72.279 59.2613 72.2733 59.6457 72.2675C59.8282 72.2636 59.9147 72.3232 59.9147 72.5231C59.909 73.8683 59.9109 75.2135 59.9147 76.5568C59.9147 76.7336 59.8571 76.8104 59.6726 76.8066C59.2613 76.7989 58.852 76.7989 58.4408 76.8066C58.2563 76.8104 58.1986 76.7336 58.1986 76.5568C58.2044 75.8842 58.2005 75.2116 58.2005 74.539Z" fill="white"/>
<path d="M59.0579 71.7692C58.5928 71.7692 58.2123 71.4137 58.2181 70.9813C58.2238 70.547 58.6063 70.1915 59.0636 70.1953C59.5229 70.1992 59.9015 70.5682 59.8938 71.0005C59.8842 71.4214 59.5076 71.7673 59.0579 71.7692Z" fill="white"/>
</svg>
