<svg width="128" height="128" viewBox="0 0 128 128" fill="none" xmlns="http://www.w3.org/2000/svg">
<path d="M28.0218 79.8077L32.7736 85.2407L27.5125 88.9621L20.977 82.2322C20.815 82.5633 20.4721 82.4634 19.9492 81.9334C16.2639 78.8132 12.5345 75.7371 8.76008 72.7052C8.47479 72.5549 8.23541 72.3875 8.04102 72.2039C10.1055 67.6681 14.3776 67.9363 18.287 69.6372C23.6678 71.9789 28.0218 79.8077 28.0218 79.8077Z" fill="#C1D9CB"/>
<path d="M128 116H0V128H128V116Z" fill="#D79134"/>
<path d="M58.8242 128C66.1356 127.2 74.2647 126.659 81.8965 126.866C85.4629 126.963 88.8608 127.018 92.1465 127.072C99.5762 127.194 105.994 127.298 111.255 127.83C111.77 127.882 112.268 127.94 112.751 128H110.105C105.027 127.553 98.918 127.453 92.1426 127.342C88.857 127.288 85.4587 127.233 81.8906 127.136C75.1548 126.953 68.0321 127.354 61.4287 128H58.8242Z" fill="#C37B1E"/>
<path d="M6.63281 125.898C16.663 125.841 23.5156 126.547 27.0889 128H26.2852C22.5706 126.745 15.9085 126.116 6.63477 126.168C4.36576 126.181 2.12389 126.232 0 126.305V126.035C2.12349 125.962 4.3646 125.911 6.63281 125.898Z" fill="#C37B1E"/>
<path d="M0 122.193C7.56049 122.368 17.2327 122.762 23.9072 123.661C35.7523 125.258 51.0062 125.442 61.4492 125.442C64.2696 125.442 68.4257 125.341 73.2383 125.225C82.9289 124.991 94.9903 124.7 104.707 124.996C113.799 125.274 122.651 125.937 128 126.395V126.666C122.657 126.209 113.798 125.544 104.698 125.267C94.9896 124.971 82.9321 125.261 73.2441 125.495C68.4299 125.611 64.2723 125.712 61.4492 125.712C50.9989 125.712 35.7324 125.527 23.8711 123.929C17.2091 123.031 7.55207 122.637 0 122.463V122.193Z" fill="#C37B1E"/>
<path d="M128 119.728C127.098 119.939 126.078 120.17 124.927 120.421C120.228 121.445 116.099 121.499 112.457 121.546C109.995 121.577 107.869 121.605 106.063 121.937C103.326 122.44 102.694 122.711 102.551 122.816C103.016 123.066 106.16 123.065 107.373 123.065H107.613C109.297 123.065 120.587 123.302 128 123.46V123.729C120.589 123.571 109.296 123.335 107.613 123.335H107.276C103.019 123.335 102.284 123.182 102.252 122.843C102.234 122.642 102.477 122.494 103.148 122.297C103.757 122.119 104.722 121.908 106.015 121.671C107.842 121.335 109.979 121.308 112.453 121.276C116.083 121.23 120.198 121.176 124.869 120.157C126.044 119.901 127.083 119.664 128 119.449V119.728Z" fill="#C37B1E"/>
<path d="M91.335 120.438C91.2655 120.454 87.331 121.337 82.6182 122.065C79.4577 122.553 75.4692 123.042 72.1621 123.042C70.8943 123.042 69.7258 122.97 68.7432 122.799C62.6011 121.731 58.2384 121.404 53.6865 121.672C49.6905 121.907 32.6178 122.321 32.4424 122.324L32.4365 122.055C32.6375 122.049 49.6826 121.637 53.6709 121.402C58.2453 121.133 62.6264 121.46 68.79 122.532C72.3007 123.142 78.224 122.47 82.5752 121.798C87.2909 121.07 91.2264 120.186 91.2764 120.175L91.335 120.438Z" fill="#C37B1E"/>
<path d="M23.9131 118.675C35.2126 117.623 41.8507 118.443 44.8018 119.026C45.2476 119.115 46.6959 119.448 46.6387 120.041C46.5978 120.457 45.8313 120.667 44.3594 120.667C41.3677 120.667 33.457 121.078 33.377 121.082L33.3643 120.812C33.4687 120.807 41.3662 120.397 44.3594 120.397C45.9784 120.397 46.3602 120.121 46.3701 120.015C46.3813 119.89 45.9902 119.537 44.749 119.291C41.8123 118.711 35.2036 117.894 23.9385 118.943C18.4497 119.455 7.54076 119.493 0 119.496V119.226C7.53592 119.224 18.436 119.185 23.9131 118.675Z" fill="#C37B1E"/>
<path d="M107.526 117.246C107.58 117.234 112.99 116.123 120.107 117.125C123.001 117.533 123.219 117.824 123.195 118.064C123.178 118.243 123.134 118.66 118.379 118.92C116.825 119.005 115.107 119.05 113.621 119.05L113.62 119.052C112.704 119.052 111.876 119.034 111.229 118.999C106.888 118.764 103.196 118.762 103.159 118.762V118.491C103.196 118.491 106.896 118.495 111.245 118.729C112.882 118.818 115.743 118.79 118.201 118.66C121.605 118.481 122.752 118.196 122.916 118.043C122.839 117.966 122.413 117.724 120.069 117.394C113.002 116.397 107.636 117.5 107.582 117.511L107.526 117.246Z" fill="#C37B1E"/>
<path d="M28.373 114.882C28.4666 114.923 40.6551 118.859 70.4219 117.245L70.4365 117.515C65.3636 117.79 60.812 117.901 56.7686 117.901L56.7695 117.9C48.5828 117.9 42.4806 117.445 38.3525 116.972C31.2213 116.154 28.3001 115.142 28.2549 115.124L28.373 114.882Z" fill="#C37B1E"/>
<path d="M83.1976 93.7658C79.1145 92.9441 76.5955 94.2914 76.3894 94.3265H76.2994C76.3273 94.3283 75.0908 93.8297 74.4545 93.7883C72.669 93.6704 70.7638 93.8711 68.9657 93.791L65.0572 93.5174C64.2553 93.3194 63.4292 93.2375 62.6291 93.0224C60.399 92.4249 53.1058 87.3185 52.717 87.1169C52.4587 87.0368 52.123 86.4536 50.702 86.4104C50.4572 86.5481 50.2079 86.7407 49.9829 86.8604C44.9315 89.5216 37.1964 88.4011 32.2655 85.8714C31.9586 85.7139 31.5653 85.5087 31.2765 85.3323C31.2198 85.4241 24.39 90.4305 23.1823 91.7157C22.8808 91.6851 22.2877 92.2026 22.4182 92.4987C21.3167 93.4346 20.5193 94.8349 19.7588 96.0841C19.7192 96.1489 19.7039 96.229 19.6895 96.3127C19.6751 96.3973 19.6733 96.4837 19.6742 96.571C19.3106 96.805 19.0389 97.1658 18.858 97.6554C18.516 98.1315 18.3387 98.6094 18.3252 99.0891C18.2478 99.1422 18.1731 99.198 18.1074 99.2636C18.0426 99.3275 17.9805 99.3905 17.9445 99.4652C17.086 101.24 16.2976 103.277 15.9097 105.211C15.8935 105.293 15.9034 105.382 15.9169 105.472C15.9304 105.563 15.9565 105.653 15.9862 105.743C15.0719 110.63 16.4974 113.419 20.8424 115.633C21.4921 115.964 22.3759 116.45 23.0005 116.712C23.0266 116.771 23.0554 116.83 23.0941 116.88C23.2579 117.096 25.5113 117.825 25.973 117.945L26.3285 117.881C26.351 117.891 26.3726 117.899 26.3933 117.905C27.3149 118.246 28.105 118.61 29.0977 118.844C29.3704 118.908 30.588 119.191 30.7356 119.099C31.0515 118.901 31.2153 116.778 31.317 116.259C31.6598 114.504 32.7803 111.212 34.0636 109.969C34.1014 109.932 34.123 109.808 34.1536 109.789C33.1394 109.129 32.0126 108.673 30.9156 108.171C29.7357 107.63 28.5307 107.078 27.3176 106.642C27.3644 106.506 27.3679 106.314 27.4084 106.192C27.988 104.452 28.8205 102.258 29.5503 100.567C29.5566 100.556 29.5629 100.543 29.5665 100.528C30.0534 99.4022 30.2028 98.7174 31.6157 99.0639C34.267 99.9026 39.646 101.867 43.0821 103.34C43.4043 103.502 43.7183 103.701 43.9496 103.985C44.5346 104.771 41.1931 111.966 41.3938 112.317C41.7042 112.856 41 116 41 116H60C59.7669 114.336 58.9285 107.796 58.4047 103.909C62.6507 104.704 68.7857 103.316 71.0824 102.689C71.6971 102.56 72.2838 102.331 72.8814 102.15C73.1217 102.077 73.6869 101.851 73.8452 101.788C74.522 101.601 76.4443 101.28 77.0131 101.188C77.4343 101.112 80.4797 101.253 80.8595 99.5408C81.2393 97.8282 80.0216 98.5095 78.8562 98.5392C78.4719 98.5491 80.6984 97.9164 81.5309 97.7517C82.483 97.3539 83.4964 97.2621 84.2379 96.5359C85.2324 95.5072 84.3567 94.0007 83.1985 93.7676L83.1976 93.7658ZM20.2277 99.4049C20.243 99.395 20.2682 99.4085 20.3033 99.4472C20.2826 99.4445 20.2556 99.4256 20.2277 99.4049ZM23.4054 113.932H23.4036L23.4063 113.924V113.933L23.4054 113.932Z" fill="#AA6928"/>
<mask id="mask0_199_4682" style="mask-type:luminance" maskUnits="userSpaceOnUse" x="15" y="85" width="70" height="35">
<path d="M83.1976 93.7165C79.1145 92.8948 76.5955 94.2421 76.3894 94.2772H76.2994C76.3273 94.279 75.0908 93.7804 74.4545 93.739C72.669 93.6211 70.7638 93.8218 68.9657 93.7417L65.0572 93.4681C64.2553 93.2701 63.4292 93.1882 62.6291 92.9731C60.399 92.3755 51.9151 86.4934 50.702 86.3611C50.4572 86.4988 50.2079 86.6914 49.9829 86.8111C44.9315 89.4723 37.1964 88.3518 32.2655 85.822C31.9586 85.6645 31.5653 85.4594 31.2765 85.283C31.2198 85.3748 24.39 90.3812 23.1823 91.6664C22.8808 91.6358 20.5193 94.7847 19.7588 96.0348C19.7192 96.0996 19.7039 96.1797 19.6895 96.2634C19.6751 96.348 19.6733 96.4344 19.6742 96.5216C19.3106 96.7556 19.0389 97.1165 18.858 97.6061C18.516 98.0822 18.3387 98.5601 18.3252 99.0397C18.2478 99.0928 18.1731 99.1486 18.1074 99.2143C18.0426 99.2782 17.9805 99.3412 17.9445 99.4159C17.086 101.191 16.2976 103.228 15.9097 105.162C15.8935 105.244 15.9034 105.332 15.9169 105.422C15.9304 105.514 15.9565 105.604 15.9862 105.694C15.0719 110.581 16.4974 113.37 20.8424 115.584C21.4921 115.915 22.3759 116.401 23.0005 116.663C23.0266 116.722 23.0554 116.781 23.0941 116.831C23.2579 117.047 25.5113 117.776 25.973 117.896L26.3285 117.832C26.351 117.842 26.3726 117.85 26.3933 117.856C27.3149 118.196 28.105 118.561 29.0977 118.795C29.3704 118.859 30.588 119.142 30.7356 119.049C31.0515 118.851 31.2153 116.728 31.317 116.21C31.6598 114.455 32.7803 111.163 34.0636 109.919C34.1014 109.882 34.123 109.758 34.1536 109.739C33.1394 109.08 32.0126 108.623 30.9156 108.121C29.7357 107.58 28.5307 107.029 27.3176 106.592C27.3644 106.456 27.3679 106.265 27.4084 106.143C27.988 104.403 28.8205 102.208 29.5503 100.517C29.5566 100.507 29.5629 100.494 29.5665 100.479C30.0534 99.3529 30.2028 98.6681 31.6157 99.0145C34.267 99.8533 39.646 101.818 43.0821 103.291C43.4043 103.452 43.7183 103.652 43.9496 103.936C44.5346 104.722 43.9874 105.741 43.6913 106.635C43.5689 106.954 41.1994 112.328 40.9069 112.885C40.7845 113.118 39.5477 115.812 39.5 116C39.4847 116.06 60 116 60 116C59.7669 114.336 58.9285 107.748 58.4047 103.861C62.6507 104.655 71.3092 103.362 71.0824 102.64C71.6971 102.512 72.2838 102.282 72.8814 102.101C73.1217 102.028 73.6869 101.803 73.8452 101.74C74.522 101.552 76.4443 101.231 77.0131 101.139C77.4343 101.064 80.4797 101.205 80.8595 99.4924C81.2393 97.7798 80.0216 98.4611 78.8562 98.4908C78.4719 98.5007 80.6984 97.868 81.5309 97.7033C82.483 97.3055 83.4964 97.2137 84.2379 96.4875C85.2324 95.4588 84.3567 93.9523 83.1985 93.7192L83.1976 93.7165ZM20.2277 99.3556C20.243 99.3457 20.2682 99.3592 20.3033 99.3979C20.2826 99.3952 20.2556 99.3763 20.2277 99.3556ZM23.4054 113.883H23.4036L23.4063 113.875V113.884L23.4054 113.883Z" fill="white"/>
</mask>
<g mask="url(#mask0_199_4682)">
<path opacity="0.5" d="M28.9161 85.9114C28.9161 85.9114 21.3025 93.0697 18.7826 104.296C16.2636 115.523 22.2627 114.367 32.2423 118.004C42.2219 121.641 28.9161 126.689 28.9161 126.689C28.9161 126.689 14.3791 128.056 9.61924 113.324C4.85938 98.5928 28.0287 83.9306 28.6785 84.5804C29.3283 85.2302 28.9161 85.9105 28.9161 85.9105V85.9114Z" fill="#935619"/>
</g>
<path d="M47.5153 106.525L47.2139 106.191C49.4818 104.143 52.9529 100.132 54.8365 96.9635C55.6428 95.7089 55.0795 95.2104 53.8447 94.1205C53.5063 93.8217 53.1239 93.4833 52.7252 93.0847L52.4687 92.8282L52.8116 92.7121C52.8116 92.7121 53.1437 92.5978 53.7079 92.3008C54.4891 91.8886 54.8482 91.4584 54.6952 91.1192C54.2911 90.2255 53.4316 88.7568 52.4237 87.4905C52.1537 87.0972 51.7721 86.7174 51.0135 86.3809C51.6974 86.4268 52.2986 86.6715 52.7756 87.2106C53.8078 88.5075 54.6889 90.0149 55.1047 90.9347C55.4664 91.7347 54.5161 92.3836 53.9176 92.6995C53.6584 92.8363 53.4452 92.9362 53.2868 93.0064C53.5882 93.2953 53.8789 93.5517 54.1417 93.7839C55.354 94.8549 56.2296 95.628 55.2181 97.2011C53.3174 100.4 49.8075 104.456 47.5144 106.526L47.5153 106.525Z" fill="#89510E"/>
<path d="M37.0477 101.129C37.0333 101.118 35.5727 100.04 33.9105 98.8671C33.1419 98.3244 32.7423 97.7926 32.6901 97.2418C32.6235 96.5425 33.1122 95.9279 33.6504 95.369C34.1067 94.8947 34.0734 94.6976 34.0617 94.6634C34.0356 94.5842 33.9006 94.5455 33.8664 94.5392L33.8295 94.5302C33.312 94.3529 32.8431 94.2125 32.43 94.0874C30.8362 93.6078 29.8733 93.3189 29.8733 91.9734C29.8733 90.214 29.5583 87.0524 29.5547 87.0209C29.6618 86.1165 30.5284 85.6395 31.2286 85.0698L31.5643 85.194C30.8803 85.8375 29.912 86.4324 30.0029 86.9759C30.0065 87.0074 30.3232 90.1906 30.3232 91.9734C30.3232 92.9355 30.8974 93.1569 32.5596 93.6564C32.9727 93.7805 33.4407 93.9209 33.9591 94.0982C34.0554 94.1171 34.3821 94.2044 34.4882 94.5167C34.5944 94.8299 34.427 95.2106 33.9753 95.6804C33.3498 96.331 33.0996 96.7846 33.1392 97.1986C33.1788 97.6108 33.5163 98.0365 34.1706 98.499C35.8364 99.6744 37.3006 100.756 37.315 100.766L37.0477 101.128V101.129Z" fill="#89510E"/>
<path d="M27.1997 106.947L22.9861 104.587L23.2057 104.195L26.8388 106.229C27.0242 105.001 27.808 100.58 29.9382 96.8015L30.3306 97.0229C27.8881 101.356 27.2456 106.562 27.2393 106.614L27.1997 106.948V106.947Z" fill="#89510E"/>
<path d="M48.7697 115.667L48.3333 115.558L48.552 115.613L48.3324 115.564C48.3801 115.311 48.6609 111.267 48.6744 110.469C48.686 109.759 48.6969 109.087 47.4432 108.116C46.1626 107.124 44.0099 105.302 43.9883 105.284L44.279 104.94C44.3006 104.958 46.4452 106.774 47.7177 107.76C49.0442 108.787 49.1387 109.565 49.1234 110.475C49.1108 111.23 48.8237 115.452 48.7697 115.667Z" fill="#89510E"/>
<path d="M49.1178 110.045L48.6696 110.005C48.855 107.89 46.1569 105.671 46.1416 105.657L46.4278 105.197C46.4989 105.257 49.3805 107.743 49.1178 110.044V110.045Z" fill="#89510E"/>
<path d="M32.0085 84.6196C32.9633 84.2039 34.9234 87.3501 40.8038 87.3501C46.6841 87.3501 47.6542 85.7716 48.4606 85.4629C49.2678 85.1542 50.0697 85.8553 50.634 88.5192C51.1982 91.1831 51.0479 100.775 46.0631 105.76C46.0631 105.76 42.7629 102.38 37.0608 94.332C31.3587 86.2837 31.0527 85.0363 32.0076 84.6196H32.0085Z" fill="#F3D7AD"/>
<path d="M36.0178 90.3914C36.9456 90.728 39.9947 92.2921 40.6678 92.2921C41.341 92.2921 41.9944 91.2247 42.2716 90.9467C42.5487 90.6686 43.6962 90.4508 44.0535 91.3417C44.2083 91.7269 44.4531 92.1337 44.6267 92.6728C44.6573 92.7673 47.4049 89.855 47.4301 89.9576C47.4598 90.0782 50.0742 88.4583 50.8652 88.5996C51.155 88.6518 52.2503 93.5493 49.8744 100.975C49.7943 101.225 47.3464 101.797 48.3499 99.9625C49.32 98.1886 50.0427 92.6467 49.9095 91.4029C49.8924 91.24 49.5603 91.9996 48.9069 92.8105C48.6135 93.1741 48.0772 93.2227 47.7235 92.9167C47.1817 92.4469 46.4834 91.87 46.4294 91.9654C45.7049 93.2362 44.7572 95.0739 44.5826 95.7245C43.9149 98.212 43.5927 102.746 43.5927 102.746C43.5927 102.746 42.1618 101.424 42.1825 101.128C42.4651 97.0277 43.518 95.3286 43.4154 93.7167C43.3776 93.1201 42.7278 92.8456 42.6144 92.8348C41.1583 95.5284 40.2134 93.1057 38.741 93.1921C36.5685 93.3208 37.3803 95.3835 37.3803 95.3835L35.5984 89.9567L36.0169 90.3905L36.0178 90.3914Z" fill="#E9C18A"/>
<path d="M43.1702 102.221C43.1702 102.221 42.7491 98.6776 44.1998 93.9078C44.2691 93.681 44.2223 93.4344 44.0765 93.2472L42.282 90.946L43.2971 88.6268C43.2971 88.6268 44.6012 87.1995 45.7576 88.4999C45.8368 88.589 47.1246 90.4853 47.1246 90.4853L46.4965 92.7505C46.4083 93.1437 46.3876 93.4803 46.5244 93.7089C47.1831 94.8105 49.0928 98.2087 49.5095 101.239L45.8962 106.103L43.1702 102.222V102.221Z" fill="#D08F3B"/>
<mask id="mask1_199_4682" style="mask-type:luminance" maskUnits="userSpaceOnUse" x="42" y="87" width="8" height="20">
<path d="M43.1702 102.221C43.1702 102.221 42.7491 98.6776 44.1998 93.9078C44.2691 93.681 44.2223 93.4344 44.0765 93.2472L42.282 90.946L43.2971 88.6268C43.2971 88.6268 44.6012 87.1995 45.7576 88.4999C45.8368 88.589 47.1246 90.4853 47.1246 90.4853L46.4965 92.7505C46.4083 93.1437 46.3876 93.4803 46.5244 93.7089C47.1831 94.8105 49.0928 98.2087 49.5095 101.239L45.8962 106.103L43.1702 102.222V102.221Z" fill="white"/>
</mask>
<g mask="url(#mask1_199_4682)">
<path d="M51.6024 94.0579L51.2434 93.787L48.3761 97.5831C47.8775 97.0152 47.3636 96.459 46.8372 95.9172C48.3176 94.174 49.8682 92.4758 51.0526 91.4804L50.7637 91.1357C49.6 92.1131 48.0314 93.8257 46.5213 95.5968C45.2056 94.2721 43.8178 93.041 42.4121 91.9637L42.1385 92.321C43.5388 93.3937 44.9203 94.6204 46.2288 95.9415C45.7743 96.4788 45.3289 97.0179 44.9041 97.5399L42.4283 95.2351L42.1214 95.5644L44.6197 97.8899C44.041 98.6054 43.51 99.2777 43.0601 99.8573L41.7299 98.7881L41.4482 99.1391L42.7856 100.214C42.0827 101.127 41.6372 101.74 41.6219 101.8L42.0584 101.909C42.0503 101.941 42.0377 101.961 42.035 101.966C42.0809 101.893 42.4958 101.333 43.1393 100.499L45.0283 102.017L43.7296 103.736L44.0887 104.007L45.3793 102.299L47.8406 104.277L48.1223 103.926L45.6501 101.939L47.0208 100.125L49.6063 102.532L49.9132 102.203L47.2935 99.7637L48.4004 98.2985C49.0655 99.077 49.6999 99.8735 50.2912 100.681L50.6539 100.414C50.0365 99.5729 49.3733 98.7422 48.6767 97.9313L51.6015 94.0588L51.6024 94.0579ZM45.3001 101.655L43.4155 100.141C43.8565 99.5729 44.3803 98.9078 44.9527 98.1977L46.6905 99.815L45.3001 101.655ZM46.9623 99.4541L45.2362 97.8467C45.6546 97.3302 46.0956 96.7956 46.5456 96.261C47.0784 96.81 47.5967 97.3734 48.0998 97.9484L46.9632 99.4532L46.9623 99.4541Z" fill="#BC7031"/>
<path d="M43.0935 93.9238C44.3741 92.4488 45.661 91.0755 46.678 90.2214L46.3891 89.8767C45.3874 90.7173 44.0861 92.1041 42.7803 93.6025C42.8847 93.7096 42.99 93.8158 43.0935 93.9238Z" fill="#BC7031"/>
</g>
<path d="M30.7228 86.5907C30.7228 86.1281 30.4456 86.2811 31.0396 85.6871C31.6336 85.0932 31.8315 84.8763 31.8315 85.0689C31.8315 85.1516 33.6414 87.3242 35.7239 90.6972C38.5164 95.2204 42.1387 101.517 46.5206 106.102C46.5206 106.102 46.616 106.367 46.3487 106.367C46.0814 106.367 45.6324 105.895 45.3795 105.642C45.1266 105.389 40.8896 100.722 40.355 99.8309C39.8205 98.94 33.2274 91.0401 32.6928 90.5055C32.1582 89.9709 30.7228 87.0524 30.7228 86.5898V86.5907Z" fill="#AA6928"/>
<path d="M30.8508 84.1982C30.8508 84.1982 32.2971 86.3806 35.725 90.6978L40.5992 93.0574C40.9447 93.2248 41.3596 93.1303 41.5981 92.8298L44.5608 89.1084C44.5608 89.1084 46.5605 90.4674 48.0094 92.1314C48.1669 92.3123 48.4441 92.3222 48.6115 92.1503C49.0047 91.7444 49.7148 90.9371 50.5158 89.6871C51.7334 87.7864 49.3872 85.5446 49.3872 85.5446L30.8517 84.1982H30.8508Z" fill="#FDEED7"/>
<path d="M46.1404 111.013C46.7582 111.013 47.259 110.512 47.259 109.894C47.259 109.276 46.7582 108.775 46.1404 108.775C45.5226 108.775 45.0217 109.276 45.0217 109.894C45.0217 110.512 45.5226 111.013 46.1404 111.013Z" fill="#312818"/>
<path d="M49.801 86.5354C49.801 86.5354 52.0041 98.0324 45.9465 105.915C45.9465 105.915 46.8627 105.263 47.0094 105.197C47.1561 105.131 50.5291 103.645 51.8655 99.9619C53.202 96.2793 52.2219 91.7354 52.1031 90.785C51.9843 89.8347 50.5597 86.4508 50.4103 86.3023C50.2609 86.1529 49.621 86.2609 49.8019 86.5354H49.801Z" fill="#AA6928"/>
<path d="M34.0849 109.883C34.2136 110.011 32.5018 114.438 32.3344 115.306C33.5935 117.31 34.6383 118.223 36.7469 119.278C37.3769 119.676 39.112 119.632 39.1282 119.627C38.8339 120.64 38.5 121.768 38.0357 122.715C37.6307 123.542 37.2914 123.924 36.2898 123.945C35.0379 123.97 25.3094 120.045 24.4454 119.694C22.659 118.969 21.9858 118.807 22.9389 116.66C23.9361 117.076 25.1996 117.438 26.2669 117.829C26.3857 117.856 30.2906 119.085 30.6002 118.861L30.8009 118.127C31.1312 115.271 31.9241 112.243 33.7447 109.923L34.0858 109.883H34.0849Z" fill="#2F2718"/>
<path d="M44.0904 103.79C44.5917 104.149 44.6232 104.579 44.5314 105.054C44.4909 105.267 42.6586 110.489 42.1177 111.561C41.7182 112.351 40.424 112.366 39.6798 112.137C39.327 112.028 37.771 111.845 37.7125 111.694C37.663 111.512 37.1599 109.02 36.2536 109.249C35.9287 109.331 34.3691 109.75 34.2044 109.852C34.0694 109.866 33.9317 109.866 33.804 109.814C33.4359 109.664 28.064 107.237 27.5331 106.954C26.931 106.696 27.3819 105.919 27.4008 105.864C27.9704 104.171 29.9521 99.327 30.2653 99.0957C30.7396 98.7456 31.3219 98.8446 31.8582 98.9913C33.2397 99.3684 42.6829 102.782 44.0904 103.79Z" fill="#2F2718"/>
<path d="M33.5677 109.23C33.8683 109.328 34.0096 109.671 33.8647 109.952C33.2042 111.238 31.5788 114.493 31.3071 115.885C31.2054 116.404 31.0425 118.527 30.7257 118.725C30.5781 118.817 29.3596 118.534 29.0878 118.47C28.0717 118.231 27.2681 117.854 26.3186 117.507C26.6831 117.56 26.4914 117.082 26.4986 116.968C26.3996 116.673 26.4545 116.34 26.5886 116.069C26.6138 115.896 26.7218 115.572 26.7686 115.35C26.918 114.638 27.0548 114.112 27.3068 113.415C27.9826 111.548 28.3597 109.961 29.6007 108.581C29.9139 108.233 30.4098 108.114 30.8463 108.283C31.7075 108.615 32.8775 109.005 33.5677 109.23Z" fill="#864E18"/>
<path d="M33.2445 109.621C35.0912 108.994 37.7667 108.153 39.7502 108.117C40.0949 108.111 40.9193 108.266 41.1722 108.449C41.3891 108.606 41.4314 109.111 41.4017 109.369C41.2397 110.791 38.9718 111.323 37.8279 111.491C38.7999 111.888 42.2494 111.554 42.4519 113.233C42.5509 114.05 42.1918 114.443 41.5699 114.954C42.0721 115.324 41.2874 117.548 40.2245 117.576C40.0976 119.237 38.1051 120.328 36.0955 119.671C34.904 119.327 33.7853 118.844 32.7306 118.203C32.4165 118.007 32.1024 117.773 31.7442 117.56C31.2781 117.01 31.1233 116.279 31.2826 115.58C31.4284 114.939 33.2445 109.619 33.2445 109.619V109.621Z" fill="#463724"/>
<path d="M8.08911 80.8367L8.69478 80.8538C12.2856 82.0318 16.0672 82.3684 19.8191 82.6186C21.5524 83.8821 23.1805 85.2789 24.7023 86.807C24.8022 86.6441 27.2564 88.354 27.2564 88.354C27.2564 88.354 23.5198 91.0593 22.0546 92.9159C22.0546 92.9159 21.6514 91.9485 20.0504 91.6263C14.9072 89.2108 10.2868 86.4425 8.08911 80.8376V80.8367Z" fill="#BFD6C6"/>
<path d="M7.81903 72.695L7.98192 72.5969L19.001 81.7459C19.0154 81.8215 19.0208 82.0177 19.0109 82.0285C18.7589 82.2913 15.4479 81.8494 14.7406 81.7531C12.7328 81.4804 10.2579 81.0763 8.3779 80.3537C8.16551 80.2718 7.98642 80.1287 7.81813 79.9775C6.99647 77.382 6.84978 75.2545 7.81813 72.695H7.81903Z" fill="#BED6C9"/>
<path d="M20.051 70.6273C20.3497 71.0602 20.5027 71.5786 20.5099 72.1833C20.77 75.6365 21.2533 79.6017 21.8275 83.0072C21.8275 83.0072 27.2632 88.1279 27.2578 88.3529C27.0148 88.5293 26.7016 88.784 26.4559 88.9532C24.8054 87.4908 21.6196 83.9404 19.7666 82.7354C15.8185 82.4906 11.8344 82.1153 8.09054 80.787C7.98165 80.5098 7.90965 80.2587 7.82056 79.9779C11.3916 81.2108 15.1957 81.7625 18.9728 81.9551L7.82056 72.6954C7.88985 72.5118 7.91595 72.4326 8.00055 72.2454C8.25614 72.151 8.74121 72.537 8.9464 72.6936C11.8164 74.8841 14.6557 77.4184 17.4852 79.7115C18.5849 80.6025 19.6253 81.578 20.7709 82.4051L19.3328 70.2673C19.5632 70.4041 19.7558 70.4266 20.0519 70.6273H20.051Z" fill="#E7E4CC"/>
<path d="M20.0504 91.5752C20.1629 91.6283 22.3309 92.2664 22.3885 92.4743C21.4102 93.7342 20.4139 95.1507 19.6004 96.5205L19.3025 96.7419C16.1176 97.172 12.9335 97.6022 9.75038 98.0324L9.61719 97.8686C11.7042 94.1887 15.9268 92.0351 20.0495 91.5752H20.0504Z" fill="#B8CEC0"/>
<path d="M9.25969 98.5894L9.47298 98.3797L18.5715 97.1675C18.8676 97.3619 18.8613 97.5104 18.5022 97.7813C16.0931 100.179 13.539 102.449 10.8913 104.526L10.5187 104.613C8.55683 103.09 8.32374 100.813 9.25969 98.5894Z" fill="#B7CDBF"/>
<path d="M18.2524 99.0382C17.2246 101.14 16.3463 103.382 15.9143 105.692C14.2845 106.064 12.6141 105.847 11.1472 105.062C11.2579 104.841 11.4001 104.641 11.5747 104.465C13.7202 102.75 15.8477 100.952 17.6755 99.0085C17.8816 98.8285 18.2218 98.6728 18.2524 99.0382Z" fill="#B6CDBD"/>
<path d="M19.6012 96.5207C19.1369 97.3018 18.6518 98.2198 18.2522 99.0379C17.9894 98.8876 17.7788 99.1693 17.6051 99.3151C17.0796 99.7569 16.5792 100.441 16.05 100.923C14.4742 102.361 12.767 103.675 11.1471 105.061C10.7979 104.874 10.7835 104.818 10.5171 104.611C11.0211 104.153 11.5808 103.755 12.1046 103.322C12.4754 103.014 12.875 102.684 13.2575 102.361C15.151 100.768 16.9428 99.0703 18.7013 97.3297L9.25806 98.5879C9.38585 98.2846 9.45875 98.1496 9.61804 97.8688L19.6012 96.5198V96.5207Z" fill="#D7DCC9"/>
<path d="M38.475 47.4984C37.9071 45.8793 35.7004 46.3536 34.5431 46.9926C31.3266 48.7682 29.7436 51.9514 29.7832 55.283C29.7994 56.686 30.1513 58.5706 31.4787 60.9951C32.25 61.3622 33.527 60.7782 33.3884 59.9466C32.1465 57.9865 32.3049 55.7258 33.7592 53.9403C35.1442 52.2393 39.4172 50.182 38.4759 47.4984H38.475Z" fill="#3B3023"/>
<path d="M48.8601 48.2707C45.4367 50.7942 43.8528 54.421 44.0472 58.7867C44.6042 59.8442 45.1631 59.9936 46.1162 59.2367C45.9605 56.6304 47.1313 54.6091 49.2642 53.2133C50.579 52.352 53.3518 51.5123 54.0475 50.2173C54.2653 49.8114 54.3805 49.4235 54.4057 49.0663C54.501 47.7397 51.7382 46.1504 48.8601 48.2716V48.2707Z" fill="#3A2F21"/>
<path d="M58.7524 75.4631C59.7075 67.2959 52.8008 59.7767 43.3258 58.6687C33.8509 57.5607 25.3956 63.2833 24.4405 71.4506C23.4854 79.6179 30.3922 87.137 39.8671 88.245C49.3421 89.3531 57.7973 83.6304 58.7524 75.4631Z" fill="#4F3E2A"/>
<mask id="mask2_199_4682" style="mask-type:luminance" maskUnits="userSpaceOnUse" x="24" y="58" width="35" height="31">
<path d="M58.7524 75.4634C59.7075 67.2961 52.8008 59.777 43.3258 58.6689C33.8509 57.5609 25.3956 63.2836 24.4405 71.4508C23.4854 79.6181 30.3922 87.1372 39.8671 88.2453C49.3421 89.3533 57.7973 83.6307 58.7524 75.4634Z" fill="white"/>
</mask>
<g mask="url(#mask2_199_4682)">
<path d="M52.085 57.9002C34.7284 64.5536 39.6593 86.7692 50.2617 86.4722C37.3041 91.0107 21.0707 86.1095 21.5036 71.6831C21.9788 55.8627 39.7988 53.0116 52.0841 57.9002H52.085Z" fill="#4B3B28"/>
<path d="M50.8927 86.2951C42.3017 86.5021 31.4096 82.5594 33.9826 68.8287C35.0859 62.943 37.874 59.4871 41.5953 57.2966C30.9623 57.2966 22.0014 63.2805 21.1699 72.3872C19.8803 86.5111 31.8299 96.3621 50.8927 86.2942V86.2951Z" fill="#312919"/>
</g>
<path d="M33.0147 67.5113C27.5916 79.2081 44.9751 79.0317 45.8256 77.3317C49.7539 69.5632 35.9171 63.583 33.0147 67.5113Z" fill="#1C1E21"/>
<path d="M33.0132 67.5115C27.59 79.2082 42.7453 80.5276 45.824 77.3318C36.2377 79.6474 30.4042 73.1983 33.0132 67.5115Z" fill="#00D7D2"/>
<path d="M57.0821 66.2802C62.5053 77.977 52.7434 78.3577 51.893 76.6874C47.9647 68.9189 54.1798 62.3519 57.0821 66.2802Z" fill="#1C1E21"/>
<path d="M58.1378 68.9182C60.8638 78.7098 53.2718 79.5593 51.7175 76.3645C56.4963 78.6801 59.1053 73.9904 58.1378 68.9182Z" fill="#00D7D2"/>
<path d="M43.1822 74.0673C43.5622 73.9282 43.6762 73.2854 43.4369 72.6315C43.1976 71.9775 42.6956 71.5601 42.3156 71.6992C41.9357 71.8382 41.8217 72.481 42.061 73.135C42.3003 73.7889 42.8023 74.2063 43.1822 74.0673Z" fill="white"/>
<path d="M54.2166 71.5484C54.2458 70.8527 53.9417 70.275 53.5375 70.258C53.1332 70.2411 52.7819 70.7914 52.7527 71.4871C52.7236 72.1828 53.0276 72.7606 53.4319 72.7775C53.8361 72.7944 54.1874 72.2442 54.2166 71.5484Z" fill="white"/>
<path d="M49.9693 71.6429C48.8569 70.8518 47.1146 71.0489 46.1472 72.002C45.1968 67.3663 42.2621 66.6418 40.1832 66.6418C37.6678 66.6418 34.5404 68.3103 33.933 72.4483C33.303 72.3628 32.6244 72.2503 31.972 72.0956C29.6528 71.5286 27.3255 70.9562 24.9964 70.3829C24.8371 70.3442 24.6778 70.3055 24.5176 70.2677C24.4555 70.535 24.3835 70.8059 24.3376 71.0768C27.3372 71.9606 30.5293 72.514 33.5109 73.414C33.8709 73.6066 34.0023 73.9837 34.0374 74.3778C34.0761 74.6847 34.1355 74.9835 34.2246 75.2796C35.1425 78.4754 38.5237 80.4049 41.7392 79.5049C44.0179 78.8021 45.5703 76.5747 46.077 74.3329C46.1526 74.0008 46.1481 73.1989 46.275 73.0027C46.4874 72.676 48.2702 71.3495 49.8874 72.6409C50.0719 73.6138 50.2717 74.6262 50.7091 75.5397C51.6648 77.4872 53.4638 78.6725 55.3969 78.5852C59.3189 78.4079 60.8039 74.8242 60.9964 72.6661C61.2916 69.357 58.9913 65.8075 55.3429 66.0262C53.0669 66.163 50.6605 68.034 49.9684 71.6429H49.9693ZM40.9328 78.785C33.7269 80.1322 32.5965 68.0592 39.8133 67.5067C46.5144 66.9937 47.0408 77.6429 40.9328 78.785ZM52.8725 76.6997C51.3939 75.4605 50.7909 73.4086 51.1149 71.5547C51.7683 67.809 54.6059 66.9739 55.738 66.9739C57.5568 66.9739 59.3765 68.3373 59.9102 70.805C59.3927 70.6484 58.8222 70.2857 58.2732 70.148C58.3362 70.4279 58.4649 70.85 58.5261 71.1137C59.1119 71.2991 59.7293 71.5196 60.1325 71.705C60.4286 74.1106 58.5027 77.3639 55.5805 77.5844C54.6167 77.6573 53.6942 77.3873 52.8725 76.6988V76.6997Z" fill="#BA7B35"/>
<path d="M57.7696 99.8914L58.4049 103.859L59.1024 103.971C59.1024 103.971 58.5633 101.713 58.0801 99.3973C58.0513 99.2587 57.5221 98.4542 57.7696 99.8905V99.8914Z" fill="#89510E"/>
<path d="M41.7055 115.198C41.7055 115 41.5975 114.876 41.5975 114.876C40.8848 115.159 39.974 115.054 39.9587 115.054C39.6914 115.085 39.6383 115.139 40.0829 115.248C40.8011 115.416 41.4139 115.319 41.7055 115.198Z" fill="#2F2718"/>
<path d="M40.2144 117.882C40.2846 117.697 40.2261 117.543 40.2261 117.543C39.4594 117.556 38.5702 117.401 38.5558 117.395C38.2948 117.33 38.2264 117.361 38.6035 117.62C39.0337 117.825 39.8986 117.892 40.2144 117.882Z" fill="#2F2718"/>
<path d="M83.1975 93.8067C79.8893 93.1407 77.6079 93.8994 76.7512 94.2297C75.574 96.4409 73.9694 99.8895 73.6013 101.924C73.7075 101.883 73.7966 101.847 73.8452 101.827C74.522 101.64 76.4443 101.319 77.0131 101.227C77.4342 101.151 80.4797 101.293 80.8595 99.5799C81.2392 97.8673 80.0216 98.5486 78.8562 98.5783C78.4719 98.5882 80.6984 97.9555 81.5308 97.7908C82.483 97.393 83.4963 97.3012 84.2379 96.575C85.2323 95.5463 84.3567 94.0398 83.1984 93.8067H83.1975Z" fill="#463724"/>
<path d="M22.3995 92.4978C22.197 92.3772 20.5798 91.8282 20.0515 91.5753C20.3152 91.4916 23.9177 91.0723 23.9177 91.0723C23.9177 91.0723 22.5948 92.2458 22.3995 92.4978Z" fill="#9EBEAC"/>
<path d="M24.8961 87.1291L17.2924 90.242L16.4626 89.7902L24.124 86.3965L24.8961 87.1291Z" fill="#E7E4CC"/>
<path d="M73.5992 93.5413C73.1213 93.5818 70.1605 102.889 71.0811 102.688C71.4267 102.613 73.1492 102.177 73.5992 101.924C74.3489 101.502 74.0438 101.003 74.2292 100.434C74.5261 99.5233 76.4619 94.7427 76.749 94.2297C76.9119 93.9399 75.94 93.3451 73.5992 93.5422V93.5413Z" fill="#864E18"/>
<path d="M101.101 75.9103C104.067 75.9076 107.038 75.9067 110.005 75.9103C109.912 76.0597 109.664 76.0003 109.512 76.0021C105.047 76.057 100.576 75.9571 96.1109 76.0012C95.9651 75.8734 96.2117 75.913 96.2891 75.9112C97.8874 75.8635 99.5028 75.913 101.102 75.9112L101.101 75.9103Z" fill="#DB9334"/>
<path d="M95.6533 85.3105C95.6533 85.3105 97.5783 81.7989 98.0355 80.5137C98.1201 80.2762 98.481 78.9037 98.6457 78.8704C98.9346 78.8821 99.4457 78.9685 99.7112 78.8884C99.9173 78.8263 99.8093 78.7003 99.8894 78.6958C99.9389 78.6931 99.9254 78.9514 100.254 78.9604C101.357 78.991 102.551 78.8947 103.674 78.9199C107.426 79.0054 111.337 79.2322 115.096 79.2268C115.154 79.2268 115.111 79.0387 115.178 79.0558C116.344 79.3618 117.698 79.1872 118.888 79.2997C119.06 79.3159 119.211 79.2097 119.362 79.3258C119.238 79.7506 119.177 80.2357 119.047 80.6739C117.466 85.9918 115.779 91.2872 114.146 96.5879C114.187 96.1766 114.195 94.6242 114.035 94.3155C113.906 94.0662 113.255 93.9915 112.976 93.9807C114.007 92.0836 114.304 89.8373 113.606 87.7773L113.603 87.2895C114.084 85.8631 97.878 86.0476 97.7322 86.0395C97.6242 86.0332 95.6551 85.3096 95.6551 85.3096L95.6533 85.3105Z" fill="#CC8935"/>
<path d="M113.346 106.196C113.393 108.354 113.454 110.95 113.526 114.377C113.452 114.805 113.203 115.219 112.74 114.984C112.494 115.13 112.241 115.252 111.981 115.349C112.005 115.65 111.701 115.806 111.532 115.521C106.514 117.343 101.498 119.191 96.4848 121.066C96.0663 121.286 96.0033 121.157 95.9178 120.782C95.9079 118.604 95.8944 116.429 95.8773 114.255C95.6091 114.119 95.6847 113.923 95.9142 113.767C95.8647 113.546 95.817 113.325 95.772 113.106C95.8575 112.701 95.9016 112.258 95.9034 111.777C96.3066 111.514 96.7791 111.324 97.3208 111.207C97.3676 110.947 97.5206 110.834 97.7528 110.999L100.866 109.968C103.312 109.327 113.059 105.978 113.059 105.978C113.235 105.94 113.318 106.008 113.345 106.195L113.346 106.196Z" fill="#C88635"/>
<path d="M113.55 88.6793C113.63 88.4021 115.966 81.1133 115.966 81.1133L101.248 80.7983L99.1357 87.333L113.55 88.6784V88.6793Z" fill="#F5D8AB"/>
<path d="M94.4407 111.404C94.3948 111.375 94.3435 111.35 94.2886 111.326C94.1932 111.334 94.0987 111.342 94.0051 111.352C94.1482 111.366 94.294 111.385 94.4407 111.403V111.404Z" fill="#B47026"/>
<path d="M113.603 114.57C113.605 114.48 113.603 114.39 113.603 114.3C113.457 114.458 113.229 114.787 113.016 114.84C112.961 114.853 112.983 114.691 112.961 114.675C112.857 114.597 112.647 114.833 112.527 114.889C112.172 115.053 111.776 115.007 111.892 115.468C111.672 115.451 111.815 115.205 111.803 115.199C111.688 115.144 111.41 115.373 111.262 115.426C110.597 115.665 109.958 115.852 109.185 116.138C106.813 117.016 104.249 118 101.801 118.823C100.885 119.131 99.6165 119.663 98.6733 120.004C97.8328 120.308 96.1544 120.952 96.1544 120.952L96.1724 111.712L113.421 106.117C113.411 105.677 113.439 105.2 113.421 104.768C113.421 104.755 113.334 104.663 113.328 104.55C113.305 104.071 113.351 103.585 113.332 103.105C113.285 102.977 113.246 103.149 113.242 103.15L113.062 103.28C113.095 104.014 113.072 104.721 112.993 105.398L96.6872 110.53L96.6107 107.721L95.5712 107.737L95.7377 120.854L65.6648 117.127C65.7584 117.606 65.8214 117.694 66.2471 117.928C67.2631 118.137 96.0311 122.017 96.0311 122.017C96.0311 122.017 112.693 115.697 113.308 115.288C113.406 115.222 113.535 115.255 113.605 115.131C113.695 114.972 113.597 114.727 113.602 114.569L113.603 114.57Z" fill="#B47026"/>
<path d="M113.244 103.152V105.353L113.156 105.537L96.2563 111.124L96.3157 107.921C96.3157 107.921 101.031 106.606 102.896 106.069C105.59 105.295 108.287 104.513 110.994 103.736C111.685 103.538 112.615 103.405 113.244 103.153V103.152Z" fill="#C78635"/>
<path d="M65.667 106.119C65.9271 105.871 66.3114 105.799 66.8198 105.902C75.4621 106.704 84.135 107.141 92.7952 107.816C93.8248 107.903 94.8543 107.978 95.8848 108.046L95.7759 121.013C95.7759 121.013 75.6394 118.287 65.667 117.13C65.667 117.13 65.6895 106.986 65.667 106.12V106.119Z" fill="#D59B4C"/>
<path d="M111.883 85.6557C111.737 85.6458 109.895 85.3632 109.367 85.4496C108.842 85.4307 108.35 85.6431 108.167 85.8501C108.035 85.8096 107.587 85.5729 107.16 85.5009C106.332 85.3596 105.532 85.3497 105.244 85.3497C104.88 85.3461 104.586 85.3515 104.384 85.3929C103.907 85.4928 103.457 85.7079 103.156 86.103C102.97 85.8744 102.743 85.5495 102.299 85.5C101.327 85.3911 99.4356 85.311 98.9955 85.3362C98.3133 85.3767 97.956 85.6494 97.7463 85.8681C97.4997 85.3614 96.3325 85.3974 96.0013 85.3281C95.2652 85.1742 95.2427 84.9879 95.2427 84.9879C93.5975 84.4966 92.3619 86.2659 91.8363 87.6401C91.066 89.6587 90.8221 91.7916 91.7472 93.6942C92.0118 93.6924 92.829 93.5565 93.0972 93.5304C92.1756 92.1966 92.0568 90.4804 92.2989 88.9118C92.3529 88.559 92.4681 88.3448 92.5581 88.0469C92.8218 88.0064 92.856 87.848 92.6481 87.6869C92.8398 87.7544 92.9001 87.6347 92.8281 87.3269L93.063 87.2612C93.3114 86.7708 93.9899 86.6142 94.6802 86.5251C93.9395 87.6392 92.7588 90.6163 94.6721 93.5295C94.8917 93.7131 96.8752 93.876 97.2999 93.8895C97.4655 93.8949 97.7553 93.9129 97.7859 93.6816C97.8012 93.5682 97.1821 92.6493 97.1146 92.3469C96.8698 91.2481 97.2109 87.6707 99.3654 86.2227C99.4463 86.4468 99.557 86.697 99.5048 86.7825C99.0045 87.6095 98.5968 88.775 98.7633 89.6641C98.6238 91.0222 98.7201 92.5566 99.5426 93.6951L103.529 93.7995C103.485 93.5493 103.241 93.7365 103.188 93.6996C103.15 93.6726 102.808 93.0102 102.767 92.9004C102.624 92.5152 102.542 92.0859 102.492 91.6791C102.68 90.0889 102.332 91.8456 104.768 93.7311L108.546 93.8724C108.546 93.8724 110.739 93.9821 111.278 93.9803C111.071 93.2316 112.569 93.237 112.523 93.9803C112.545 93.9731 112.921 93.9785 112.973 93.9803C113.555 93.597 113.802 92.5764 113.96 91.878C114.109 91.222 114.124 90.3076 114.159 89.8729C114.348 87.5366 113.226 85.7448 111.882 85.6539L111.883 85.6557Z" fill="#2F2718"/>
<path d="M112.714 93.7353C112.34 91.7697 112.219 89.86 111.821 90.0337C111.396 90.2191 111.028 93.8765 111.017 93.8756C110.916 93.8639 93.1813 93.5625 92.5297 93.5202C92.5846 93.6318 90.2007 93.162 89.3205 93.4428C89.2071 93.2673 89.0748 93.2682 88.9605 93.4428C88.8201 93.4257 88.6572 93.4509 88.5105 93.4428C86.9527 93.3546 84.9881 93.2241 83.5644 93.8927C82.9515 94.1798 82.4268 94.6415 81.9031 95.0636C80.1455 96.4801 73.097 102.588 73.1321 102.793C73.0547 102.828 71.3556 103.746 70.7175 103.53L70.524 103.692C70.1317 103.701 66.3438 105.395 66.3438 105.395L96.1404 107.731C96.1404 107.731 96.9593 106.518 97.3184 106.199C98.7763 104.864 100.259 103.554 101.786 102.27C103.044 100.825 104.307 99.3771 105.573 97.9246C107.264 95.9204 109.443 94.7252 112.044 94.4012C112.25 94.3346 112.566 94.2221 112.526 93.9809L112.716 93.7344L112.714 93.7353Z" fill="#60482F"/>
<path d="M85.5189 96.8801C87.0803 96.6236 86.6835 98.1688 85.3173 98.1247C84.2131 98.0887 84.5902 97.0331 85.5189 96.8801Z" fill="#DAB382"/>
<path d="M104.497 95.1669C105.539 94.9617 105.508 96.309 104.163 96.5493C102.813 96.7905 103.512 95.3604 104.497 95.1669Z" fill="#D7B07F"/>
<path d="M92.3531 97.1491C93.2746 96.9583 94.0891 97.644 93.0352 98.1903C91.5539 98.9589 91.139 97.4001 92.3531 97.1491Z" fill="#D6B07F"/>
<path d="M89.1157 94.7204C90.4072 94.4963 90.4459 95.6968 89.2543 95.938C87.8144 96.2296 88.0079 94.912 89.1157 94.7204Z" fill="#D8B281"/>
<path d="M96.0418 94.9901C97.2585 94.7786 97.3053 95.9702 96.1804 96.2078C94.6162 96.5371 94.9969 95.1719 96.0418 94.9901Z" fill="#D7B180"/>
<path d="M93.3417 95.0832C93.9672 95.7645 91.9387 96.606 91.6255 95.8446C91.3762 95.238 92.8251 94.5199 93.3417 95.0832Z" fill="#D6B080"/>
<path d="M82.1902 96.6091C83.5114 96.3373 83.4763 97.8744 82.2532 97.9311C81.0968 97.9842 81.2372 96.8053 82.1902 96.6091Z" fill="#D9B482"/>
<path d="M96.3106 97.2382C97.5831 96.9772 97.728 98.2947 96.3718 98.4693C94.9165 98.6565 95.326 97.4407 96.3106 97.2382Z" fill="#D6B07F"/>
<path d="M89.1154 96.9692C90.7615 96.6992 90.0874 98.285 88.8508 98.1869C87.77 98.1014 88.2641 97.1087 89.1154 96.9692Z" fill="#D8B181"/>
<path d="M100.536 97.4184C101.956 97.125 101.996 98.2671 100.746 98.5263C99.2759 98.8305 99.5792 97.6164 100.536 97.4184Z" fill="#D8B280"/>
<path d="M86.6001 94.812C87.3462 95.5554 85.0693 96.3905 84.8362 95.5347C84.6742 94.9398 86.0781 94.2927 86.6001 94.812Z" fill="#D8B180"/>
<path d="M99.907 95.1702C100.946 94.9542 101.504 95.6858 100.415 96.2168C98.936 96.9386 98.7029 95.4204 99.907 95.1702Z" fill="#DBB483"/>
<path d="M121.158 75.9997L125.53 79.1442L125.616 79.3323L118.828 101.564L113.424 102.792L113.258 102.576C113.738 100.314 114.378 98.0173 115.174 95.6882C117.315 89.2516 119.271 82.7953 121.039 76.3192C120.782 76.0915 120.809 75.9916 121.158 75.9997Z" fill="#D49542"/>
<path d="M101.102 75.9104L100.841 75.9527C103.963 75.9968 107.018 75.9824 110.006 75.9104C113.716 75.9149 117.476 75.8321 121.158 76.0004C120.708 76.0301 121.257 76.0913 121.238 76.2983C121.23 76.3865 121.081 76.5845 121.044 76.7393C119.158 84.7588 116.116 92.6668 113.9 100.617C113.701 101.333 113.448 102.102 113.424 102.793C113.402 103.45 113.44 104.114 113.424 104.771L113.332 104.817C113.3 104.258 113.271 103.704 113.244 103.152L113.14 103.383C108.177 104.626 102.939 106.22 98.053 107.798C97.4509 107.98 96.839 108.105 96.2243 108.226C96.1748 108.236 96.119 108.215 96.0587 108.193C87.6153 107.653 65.6672 106.119 65.6672 106.119C65.7455 105.846 65.9309 105.616 66.1811 105.482L66.344 105.395C66.344 105.395 82.14 106.62 84.7382 106.785C88.0689 106.978 95.9093 107.463 95.9093 107.463L112.194 102.656C112.872 100.723 113.53 98.7118 113.948 96.6968L114.143 96.5897L114.38 95.4188C116.052 90.0317 117.636 84.721 119.132 79.4841L119.359 79.3276L119.3 79.108C119.512 78.3799 119.709 77.6698 119.891 76.9769L95.6069 76.8554C93.5577 82.3523 91.5247 87.8646 89.5079 93.393L89.3198 93.4425C89.2001 93.4425 88.7376 93.4704 88.5108 93.4425L94.7286 75.833L101.101 75.9104H101.102Z" fill="#E2AC63"/>
<path d="M119.358 79.326L98.7135 79.0551L95.9992 85.3287C95.9992 85.3287 95.2487 85.2253 94.8419 85.2658C90.9046 85.659 90.8209 92.0056 92.1375 93.5274L89.3188 93.4419L95.434 76.6738L119.943 76.8088L120.163 76.9429C119.92 77.7367 119.59 78.534 119.358 79.3269V79.326Z" fill="#B67326"/>
<path d="M82.8243 100.582H81.6958V103.012H82.8243V100.582Z" fill="#2F2718"/>
<path d="M83.5643 99.6455C83.6804 100.347 83.4527 100.7 82.7552 100.815C82.578 100.843 82.1316 100.837 81.9462 100.815C81.1551 100.717 80.8185 100.492 80.9571 99.6455L81.1929 99.5708C81.8643 99.9155 82.6581 99.9389 83.3267 99.5771L83.5652 99.6455H83.5643Z" fill="#B69161"/>
<path d="M83.5636 99.6448C82.7618 100.159 81.7646 100.128 80.9556 99.6448C81.0798 98.8825 83.4376 98.8816 83.5636 99.6448Z" fill="#DAB482"/>
<path d="M83.5936 103.214C83.7097 103.915 83.482 104.269 82.7845 104.383C82.6073 104.412 82.1609 104.406 81.9755 104.383C81.1844 104.286 80.8478 104.061 80.9864 103.214L81.2222 103.14C81.8936 103.484 82.6873 103.508 83.356 103.146L83.5945 103.214H83.5936Z" fill="#B69161"/>
<path d="M83.5942 103.215C82.7923 103.729 81.7951 103.698 80.9861 103.215C81.1103 102.453 83.4682 102.452 83.5942 103.215Z" fill="#DAB482"/>
<path d="M79.3683 100.414H78.2397V102.844H79.3683V100.414Z" fill="#2F2718"/>
<path d="M80.1068 99.4775C80.2229 100.179 79.9952 100.532 79.2977 100.647C79.1204 100.675 78.6741 100.669 78.4887 100.647C77.6976 100.549 77.361 100.324 77.4996 99.4775L77.7354 99.4028C78.4068 99.7475 79.2005 99.7709 79.8692 99.4091L80.1077 99.4775H80.1068Z" fill="#B69161"/>
<path d="M80.1078 99.4768C79.306 99.9907 78.3088 99.9601 77.4998 99.4768C77.6239 98.7146 79.9818 98.7137 80.1078 99.4768Z" fill="#DAB482"/>
<path d="M79.9591 103.136C80.0752 103.837 79.8475 104.191 79.15 104.305C78.9727 104.334 78.5264 104.328 78.341 104.305C77.5499 104.208 77.2133 103.983 77.3519 103.136L77.5877 103.062C78.2591 103.406 79.0528 103.43 79.7215 103.068L79.96 103.136H79.9591Z" fill="#B69161"/>
<path d="M79.9584 103.137C79.1566 103.651 78.1594 103.62 77.3503 103.137C77.4745 102.374 79.8324 102.374 79.9584 103.137Z" fill="#DAB482"/>
<path d="M75.9686 100.354H74.8401V102.784H75.9686V100.354Z" fill="#2F2718"/>
<path d="M76.7086 99.4165C76.8247 100.118 76.597 100.471 75.8995 100.586C75.7223 100.614 75.2759 100.608 75.0905 100.586C74.2994 100.488 73.9628 100.263 74.1014 99.4165L74.3372 99.3418C75.0086 99.6865 75.8023 99.7099 76.471 99.3481L76.7095 99.4165H76.7086Z" fill="#B69161"/>
<path d="M76.7074 99.4168C75.9056 99.9306 74.9084 99.9 74.0994 99.4168C74.2236 98.6545 76.5814 98.6536 76.7074 99.4168Z" fill="#DAB482"/>
<path d="M73.1444 102.832C73.2605 103.533 73.0328 103.887 72.3353 104.001C72.158 104.03 71.7117 104.024 71.5263 104.001C70.7352 103.904 70.3986 103.679 70.5372 102.832L70.773 102.758C71.4444 103.102 72.2381 103.126 72.9068 102.764L73.1453 102.832H73.1444Z" fill="#B69161"/>
<path d="M73.1457 102.832C72.3438 103.346 71.3467 103.315 70.5376 102.832C70.6618 102.07 73.0197 102.069 73.1457 102.832Z" fill="#DAB482"/>
<path d="M76.3785 103.076C76.4946 103.777 76.2669 104.131 75.5695 104.245C75.3922 104.274 74.9458 104.268 74.7604 104.245C73.9693 104.148 73.6328 103.923 73.7713 103.076L74.0071 103.002C74.6785 103.346 75.4723 103.37 76.1409 103.008L76.3794 103.076H76.3785Z" fill="#B69161"/>
<path d="M76.3793 103.076C75.5774 103.59 74.5803 103.559 73.7712 103.076C73.8954 102.313 76.2533 102.313 76.3793 103.076Z" fill="#DAB482"/>
<path d="M86.2594 100.67H85.1309V103.1H86.2594V100.67Z" fill="#2F2718"/>
<path d="M89.5877 100.809H88.5762V103.239H89.5877V100.809Z" fill="#2F2718"/>
<path d="M93.1151 101.005H92.1035V103.435H93.1151V101.005Z" fill="#2F2718"/>
<path d="M95.5549 100.957H96.499V104.211C96.184 104.467 95.8699 104.467 95.5549 104.211V100.957Z" fill="#2F2718"/>
<path d="M99.0105 100.992H99.9546V102.535C99.6396 102.792 99.3255 102.792 99.0105 102.535V100.992Z" fill="#2F2718"/>
<path d="M86.9994 99.7344C87.1155 100.435 86.8878 100.789 86.1903 100.903C86.013 100.932 85.5666 100.926 85.3812 100.903C84.5902 100.806 84.2536 100.581 84.3922 99.7344L84.628 99.6597C85.2994 100.004 86.0931 100.028 86.7618 99.666L87.0003 99.7344H86.9994Z" fill="#B69161"/>
<path d="M86.9984 99.7349C86.1966 100.249 85.1994 100.218 84.3904 99.7349C84.5146 98.9726 86.8725 98.9717 86.9984 99.7349Z" fill="#DAB482"/>
<path d="M90.3854 99.8772C90.5014 100.578 90.2738 100.932 89.5763 101.046C89.399 101.075 88.9526 101.069 88.7672 101.046C87.9762 100.949 87.6396 100.724 87.7782 99.8772L88.014 99.8025C88.6853 100.147 89.4791 100.171 90.1478 99.8088L90.3863 99.8772H90.3854Z" fill="#B69161"/>
<path d="M90.3842 99.8767C89.5823 100.391 88.5852 100.36 87.7761 99.8767C87.9003 99.1145 90.2582 99.1136 90.3842 99.8767Z" fill="#DAB482"/>
<path d="M93.9147 99.9824C94.0307 100.683 93.8031 101.037 93.1056 101.151C92.9283 101.18 92.4819 101.174 92.2965 101.151C91.5055 101.054 91.1689 100.829 91.3075 99.9824L91.5433 99.9077C92.2146 100.252 93.0084 100.276 93.6771 99.914L93.9156 99.9824H93.9147Z" fill="#B69161"/>
<path d="M93.9135 99.9829C93.1116 100.497 92.1145 100.466 91.3054 99.9829C91.4296 99.2207 93.7875 99.2198 93.9135 99.9829Z" fill="#DAB482"/>
<path d="M97.2994 100.145C97.4155 100.846 97.1878 101.199 96.4904 101.314C96.3131 101.342 95.8667 101.336 95.6813 101.314C94.8902 101.216 94.5537 100.991 94.6922 100.145L94.928 100.07C95.5994 100.415 96.3932 100.438 97.0618 100.076L97.3003 100.145H97.2994Z" fill="#B69161"/>
<path d="M97.2995 100.145C96.4976 100.659 95.5005 100.628 94.6914 100.145C94.8156 99.3828 97.1735 99.3819 97.2995 100.145Z" fill="#DAB482"/>
<path d="M100.787 100.363C100.903 101.064 100.675 101.417 99.9777 101.532C99.8004 101.56 99.354 101.554 99.1686 101.532C98.3775 101.434 98.041 101.209 98.1796 100.363L98.4153 100.288C99.0867 100.633 99.8805 100.656 100.549 100.294L100.788 100.363H100.787Z" fill="#B69161"/>
<path d="M100.786 100.362C99.9839 100.876 98.9868 100.846 98.1777 100.362C98.3019 99.6001 100.66 99.5992 100.786 100.362Z" fill="#DAB482"/>
<path d="M87.2538 103.368C87.3699 104.069 87.1422 104.422 86.4447 104.537C86.2674 104.566 85.821 104.559 85.6356 104.537C84.8446 104.44 84.508 104.215 84.6466 103.368L84.8824 103.293C85.5537 103.638 86.3475 103.661 87.0162 103.299L87.2547 103.368H87.2538Z" fill="#B69161"/>
<path d="M87.255 103.367C86.4532 103.881 85.456 103.85 84.647 103.367C84.7712 102.605 87.129 102.604 87.255 103.367Z" fill="#DAB482"/>
<path d="M90.8529 103.434C90.969 104.135 90.7413 104.488 90.0438 104.603C89.8665 104.631 89.4202 104.625 89.2348 104.603C88.4437 104.505 88.1071 104.28 88.2457 103.434L88.4815 103.359C89.1529 103.704 89.9466 103.727 90.6153 103.365L90.8538 103.434H90.8529Z" fill="#B69161"/>
<path d="M90.8534 103.434C90.0516 103.948 89.0544 103.918 88.2454 103.434C88.3696 102.672 90.7274 102.671 90.8534 103.434Z" fill="#DAB482"/>
<path d="M94.4828 103.5C94.5989 104.201 94.3712 104.554 93.6737 104.669C93.4964 104.698 93.05 104.691 92.8646 104.669C92.0736 104.572 91.737 104.347 91.8756 103.5L92.1114 103.425C92.7828 103.77 93.5765 103.793 94.2452 103.431L94.4837 103.5H94.4828Z" fill="#B69161"/>
<path d="M94.4838 103.5C93.6819 104.014 92.6848 103.983 91.8757 103.5C91.9999 102.738 94.3578 102.737 94.4838 103.5Z" fill="#DAB482"/>
<path d="M83.4346 113.345C83.5678 113.492 83.6317 113.688 83.6227 113.921C83.6038 114.428 83.2645 114.698 82.7048 114.646L81.8309 114.565C81.5861 114.542 81.3926 114.524 81.3818 114.523C81.3818 114.51 81.3899 114.261 81.3998 114.015L81.4124 113.684C81.362 113.764 81.2909 113.859 81.2513 113.898C81.0119 114.131 80.7356 114.285 80.4144 114.343C80.3064 114.363 80.1984 114.37 80.0895 114.36C80.0292 114.355 79.9689 114.344 79.9086 114.327C79.5477 114.225 79.302 113.981 79.1706 113.597C79.1454 113.523 79.1283 113.447 79.1157 113.37C79.0869 113.15 79.1049 112.951 79.1436 112.785C79.1913 112.597 79.2759 112.432 79.3884 112.283C79.5252 112.102 79.6899 111.959 79.8915 111.871C80.0148 111.817 80.1444 111.787 80.2794 111.8C80.2866 111.8 80.2938 111.802 80.3019 111.803C80.4459 111.821 80.5764 111.877 80.6826 111.992C80.8077 112.127 80.8535 112.288 80.8149 112.472C80.7933 112.575 80.7465 112.663 80.6871 112.742C80.5854 112.877 80.4612 112.983 80.3244 113.073C80.1174 113.208 79.8933 113.294 79.6539 113.334C79.6071 113.342 79.5603 113.346 79.5144 113.352C79.4847 113.355 79.4811 113.359 79.4883 113.392C79.5486 113.655 79.6854 113.844 79.9248 113.935C79.9905 113.96 80.0571 113.975 80.1237 113.98C80.1903 113.986 80.2515 113.984 80.3154 113.975C80.6295 113.929 80.8832 113.759 81.0857 113.582C81.2072 113.475 81.3368 113.319 81.4331 113.182L81.4745 112.089C81.4817 111.902 81.4943 111.607 81.4952 111.591C81.5042 111.591 81.677 111.609 81.9407 111.633L82.7831 111.712C83.3041 111.76 83.5993 112.064 83.5813 112.528C83.5732 112.743 83.5021 112.906 83.3761 113.015C83.3023 113.076 83.2429 113.106 83.1088 113.145C83.2654 113.199 83.3473 113.249 83.4364 113.346L83.4346 113.345ZM79.4739 113.018C79.4703 113.046 79.473 113.056 79.4901 113.058C79.4937 113.058 79.4991 113.058 79.5045 113.058C79.5243 113.056 79.545 113.055 79.5648 113.053C79.7619 113.029 79.9482 112.967 80.121 112.866C80.2497 112.792 80.3658 112.698 80.4603 112.576C80.4891 112.538 80.5152 112.496 80.5323 112.451C80.571 112.352 80.5449 112.262 80.4603 112.203C80.4126 112.17 80.3613 112.154 80.3073 112.147C80.2875 112.147 80.2668 112.147 80.247 112.147C80.1615 112.152 80.0823 112.181 80.0085 112.224C79.806 112.342 79.6584 112.519 79.5549 112.742C79.5144 112.829 79.4874 112.921 79.4739 113.018ZM82.6238 114.054C82.8262 114.073 82.9531 113.962 82.9612 113.754C82.9693 113.546 82.8514 113.418 82.6454 113.399L82.0568 113.344L82.0316 113.999L82.6238 114.054ZM82.0991 112.226L82.0784 112.779L82.6445 112.832C82.8145 112.848 82.9252 112.748 82.9315 112.576C82.9378 112.403 82.8424 112.296 82.6589 112.279L82.0991 112.226Z" fill="#7F4F1C"/>
<path d="M85.204 111.936C85.8403 111.996 86.1787 112.363 86.1553 112.976C86.131 113.603 85.7503 113.942 85.1266 113.884L84.6182 113.836L84.6011 114.288C84.593 114.495 84.5822 114.805 84.5813 114.821L83.9414 114.761C83.9414 114.746 83.9522 114.447 83.9603 114.239L84.0332 112.333C84.0404 112.142 84.0521 111.845 84.053 111.828C84.0647 111.829 84.2933 111.852 84.4985 111.871L85.2031 111.936H85.204ZM85.1203 113.283C85.3453 113.303 85.483 113.178 85.492 112.935C85.501 112.692 85.3795 112.554 85.1491 112.532L84.6695 112.487L84.6407 113.238L85.1203 113.283Z" fill="#7F4F1C"/>
<path d="M88.4244 112.235L88.401 112.856C88.3875 112.856 88.1337 112.83 87.8628 112.805L87.124 112.737L87.1024 113.315L87.7062 113.371C87.9573 113.395 88.2057 113.419 88.2192 113.42L88.1967 114.023C88.1832 114.022 87.9285 113.997 87.6837 113.974L87.0799 113.918L87.0601 114.436C87.0475 114.767 87.0376 115.036 87.0376 115.05L86.4004 114.99C86.4004 114.975 86.4121 114.693 86.4229 114.386L86.4922 112.561C86.5012 112.328 86.5111 112.07 86.5111 112.056C86.521 112.057 86.7073 112.075 86.9548 112.099L87.8835 112.185C88.167 112.211 88.4118 112.234 88.4244 112.235V112.235Z" fill="#7F4F1C"/>
<path d="M78.4728 110.819C78.5547 110.919 78.5511 111.07 78.4638 111.156C78.0256 111.59 77.554 111.758 77.1859 111.815C77.2282 111.93 77.2615 112.048 77.284 112.168C77.3695 112.637 77.2813 113.075 77.0329 113.398C76.9861 113.458 76.9357 113.511 76.8817 113.561C77.2561 114.257 77.5891 115.301 77.5171 116.283C77.464 117 77.113 117.408 76.5775 117.377C76.5667 117.377 76.5559 117.376 76.5442 117.374C76.0655 117.329 75.5138 116.924 75.1331 116.334C74.8586 116.565 74.5382 116.708 74.2008 116.744C74.0928 116.755 73.9848 116.756 73.8768 116.746C73.5699 116.717 73.263 116.601 72.9687 116.402L72.0868 116.795L72.2992 115.769C71.9968 115.378 71.8249 114.939 71.7988 114.479C71.7772 114.104 71.8537 113.732 72.0157 113.396C71.4181 113.067 70.9636 112.512 70.8619 111.987C70.7485 111.407 71.0581 110.958 71.6881 110.787C72.0697 110.684 72.4746 110.664 72.867 110.701C73.3602 110.747 73.8336 110.882 74.2125 111.047C74.2485 110.98 74.2881 110.915 74.3349 110.854C74.6057 110.503 75.0224 110.35 75.4661 110.391C75.503 110.395 75.5399 110.399 75.5777 110.406C75.5543 109.984 75.6101 109.392 75.9575 108.793C76.0007 108.719 76.0763 108.682 76.1519 108.689C76.1879 108.693 76.2239 108.706 76.2572 108.73C76.3598 108.804 76.3903 108.953 76.3273 109.062C75.9926 109.639 75.9827 110.201 76.0232 110.543C76.2239 110.634 76.4209 110.765 76.6018 110.935C76.7377 111.063 76.8574 111.207 76.9573 111.36C77.2705 111.338 77.7349 111.222 78.1669 110.795C78.2119 110.751 78.2695 110.732 78.3262 110.738C78.3829 110.743 78.435 110.77 78.4755 110.82L78.4728 110.819ZM74.1396 116.266C74.4176 116.237 74.6813 116.111 74.9045 115.907C74.8748 115.839 74.846 115.77 74.8217 115.699C74.7308 115.707 74.6282 115.708 74.5175 115.699C74.172 115.667 73.7481 115.525 73.3521 115.15C72.8301 114.658 72.6591 114.051 72.633 113.637C72.5628 113.621 72.4944 113.6 72.4269 113.578C71.9959 114.374 72.3207 115.225 72.885 115.757C73.209 116.063 73.5546 116.236 73.8957 116.268C73.9767 116.275 74.0586 116.275 74.1387 116.266M77.0878 116.109C77.1373 114.779 76.3544 113.361 76.0898 113.217C76.0439 113.192 75.998 113.177 75.9512 113.173C75.8891 113.168 75.8261 113.181 75.7613 113.213C75.8549 113.411 76.043 113.838 76.2005 114.388C76.304 114.751 76.4029 115.206 76.438 115.692C76.6099 115.947 76.8934 116.059 77.0878 116.109ZM72.8319 111.178C72.5268 111.149 72.211 111.16 71.9095 111.226C71.9842 111.431 72.1309 111.722 72.3846 111.87C72.6744 111.844 72.957 111.851 73.2144 111.875C73.3458 111.888 73.47 111.904 73.5852 111.923C74.1009 112.008 74.5112 112.144 74.7038 112.215C74.7353 112.085 74.7173 111.968 74.648 111.859C74.5211 111.66 73.7193 111.261 72.8319 111.178ZM75.1016 114.931C75.1106 115.093 75.1493 115.276 75.2105 115.464C75.9296 115.298 76.0673 114.68 76.0691 114.674L76.0754 114.676C75.9206 114.059 75.7082 113.56 75.6011 113.33C75.3149 113.609 75.0638 114.241 75.1007 114.931M73.3485 112.104L73.3512 112.11C73.3269 112.122 72.8094 112.37 72.7815 113.186C72.8382 113.197 72.8949 113.205 72.9525 113.211C73.0587 113.221 73.1667 113.221 73.2756 113.209C73.8975 113.141 74.4212 112.765 74.6246 112.408C74.4023 112.329 73.9236 112.175 73.3494 112.104M74.9513 113.473C74.8874 113.424 74.8253 113.372 74.7659 113.316C74.7074 113.261 74.6534 113.204 74.6012 113.143C74.3276 113.375 73.9767 113.553 73.6023 113.64C73.6167 113.795 73.6833 114.092 73.9641 114.357C74.1837 114.564 74.4014 114.626 74.5526 114.64C74.5967 114.644 74.6345 114.644 74.666 114.643C74.684 114.22 74.7875 113.808 74.9513 113.473ZM71.4658 112.31C71.6953 112.652 72.1066 112.989 72.5889 113.138C72.6159 112.574 72.8535 112.246 73.0407 112.075C72.5313 112.043 71.9734 112.09 71.4658 112.31ZM76.1888 116.779C76.3076 116.186 76.2617 115.564 76.151 115.008C76.0286 115.237 75.7784 115.545 75.2879 115.667C75.4805 116.124 75.8045 116.573 76.1888 116.78M71.2858 111.905C71.2993 111.975 71.3245 112.05 71.3596 112.125C71.6008 112.017 71.851 111.947 72.1012 111.906C71.9041 111.714 71.7871 111.462 71.7214 111.278C71.374 111.396 71.2264 111.607 71.2858 111.905ZM76.5811 116.898C76.8565 116.914 77.0212 116.72 77.0707 116.322C76.897 116.28 76.6531 116.192 76.4506 116.006C76.4533 116.288 76.4308 116.575 76.3715 116.858C76.4317 116.877 76.492 116.89 76.5541 116.896C76.5631 116.896 76.5721 116.898 76.5811 116.898Z" fill="#7F4F1C"/>
<path d="M80.2276 116.262C80.2654 116.362 80.2816 116.477 80.2762 116.604C80.2708 116.731 80.2465 116.845 80.2024 116.938C80.1574 117.031 80.098 117.101 80.0224 117.148C79.9477 117.195 79.8604 117.215 79.7623 117.206C79.6084 117.191 79.5013 117.11 79.441 116.964L79.4113 117.64L79.0955 117.611L79.1612 115.879L79.4734 115.908L79.4671 116.076C79.5076 116.016 79.5553 115.972 79.6138 115.944C79.6732 115.917 79.7389 115.907 79.8127 115.914C79.909 115.923 79.9927 115.957 80.0638 116.02C80.1349 116.082 80.1898 116.162 80.2267 116.263L80.2276 116.262ZM79.8784 116.837C79.927 116.777 79.954 116.69 79.9585 116.573C79.963 116.457 79.9432 116.365 79.8991 116.298C79.8559 116.229 79.7956 116.192 79.7191 116.185C79.6381 116.178 79.5733 116.205 79.522 116.267C79.4707 116.329 79.4437 116.416 79.4392 116.525C79.4347 116.637 79.4554 116.728 79.5013 116.799C79.5481 116.869 79.6102 116.909 79.6912 116.916C79.7677 116.923 79.8307 116.897 79.8784 116.838" fill="#7F4F1C"/>
<path d="M84.5273 116.995L84.5237 117.087L83.7182 117.013C83.7182 117.105 83.7389 117.18 83.7839 117.239C83.828 117.298 83.8919 117.331 83.9747 117.339C84.0359 117.345 84.0881 117.336 84.1304 117.311C84.1727 117.285 84.2015 117.249 84.2177 117.203L84.5066 117.23C84.4895 117.312 84.4553 117.381 84.4031 117.438C84.35 117.496 84.2852 117.539 84.2087 117.568C84.1322 117.597 84.0476 117.607 83.9558 117.599C83.8415 117.588 83.7425 117.551 83.6606 117.487C83.5778 117.424 83.5158 117.341 83.4726 117.239C83.4294 117.137 83.4105 117.024 83.415 116.898C83.4195 116.772 83.4473 116.662 83.4986 116.568C83.5499 116.475 83.6183 116.404 83.7047 116.357C83.7902 116.308 83.8865 116.29 83.9945 116.3C84.1025 116.31 84.2024 116.347 84.2843 116.408C84.3653 116.47 84.4274 116.552 84.4706 116.654C84.5138 116.754 84.5327 116.869 84.5282 116.995H84.5273ZM83.729 116.791L84.2339 116.838C84.2285 116.76 84.2051 116.696 84.1628 116.646C84.1196 116.597 84.0629 116.569 83.9909 116.563C83.9189 116.556 83.8613 116.574 83.8163 116.614C83.7695 116.655 83.7407 116.714 83.7299 116.79" fill="#7F4F1C"/>
<path d="M83.3932 116.272L82.9972 117.481L82.6705 117.45L82.558 116.945C82.5463 116.891 82.5346 116.837 82.5238 116.781C82.513 116.725 82.5022 116.668 82.4923 116.612C82.477 116.666 82.4626 116.72 82.4473 116.774C82.4329 116.827 82.4167 116.879 82.4005 116.93L82.2484 117.411L81.9236 117.38L81.6221 116.107L81.9524 116.137L82.0397 116.58C82.0541 116.656 82.0675 116.733 82.0801 116.812C82.0936 116.891 82.1062 116.97 82.1188 117.048C82.1386 116.972 82.1593 116.897 82.1791 116.821C82.1989 116.745 82.2196 116.671 82.2403 116.599L82.3645 116.176L82.6498 116.203L82.7407 116.646C82.7551 116.72 82.7704 116.798 82.7839 116.876C82.7983 116.955 82.8127 117.035 82.8253 117.112C82.8433 117.037 82.8631 116.962 82.8802 116.885C82.8991 116.81 82.9171 116.736 82.9369 116.663L83.0557 116.239L83.3914 116.27L83.3932 116.272Z" fill="#7F4F1C"/>
<path d="M81.4922 116.377C81.5372 116.479 81.5561 116.594 81.5507 116.724C81.5453 116.855 81.5183 116.965 81.4661 117.057C81.4139 117.15 81.3437 117.219 81.2555 117.265C81.1673 117.311 81.0656 117.329 80.9504 117.318C80.8352 117.308 80.7371 117.271 80.6525 117.21C80.5688 117.147 80.504 117.066 80.459 116.965C80.4149 116.863 80.3951 116.748 80.4005 116.617C80.4059 116.487 80.4338 116.376 80.4851 116.283C80.5373 116.191 80.6075 116.121 80.6957 116.075C80.7839 116.029 80.8847 116.011 80.9999 116.022C81.1151 116.032 81.2141 116.069 81.2987 116.13C81.3824 116.193 81.4472 116.275 81.4913 116.377H81.4922ZM81.152 116.958C81.2015 116.898 81.2285 116.811 81.233 116.695C81.2375 116.579 81.2177 116.486 81.1727 116.417C81.1277 116.348 81.0674 116.31 80.9891 116.302C80.9108 116.295 80.8496 116.322 80.8001 116.382C80.7506 116.443 80.7236 116.532 80.7191 116.648C80.7146 116.764 80.7344 116.855 80.7794 116.924C80.8244 116.993 80.8847 117.031 80.9612 117.039C81.0377 117.046 81.1016 117.019 81.152 116.958Z" fill="#7F4F1C"/>
<path d="M85.3045 116.442C85.3225 116.443 85.3395 116.445 85.3548 116.447C85.3701 116.449 85.3845 116.451 85.3971 116.452L85.3863 116.747C85.3746 116.746 85.3557 116.742 85.3296 116.739C85.3035 116.734 85.2765 116.731 85.2504 116.729C85.1857 116.722 85.1308 116.742 85.0867 116.787C85.0426 116.831 85.0183 116.901 85.0147 116.994L84.9895 117.666L84.6736 117.637L84.7204 116.396L85.0246 116.424L85.0165 116.635C85.0435 116.562 85.0777 116.511 85.1236 116.479C85.1686 116.447 85.2289 116.435 85.3045 116.443V116.442Z" fill="#7F4F1C"/>
<path d="M86.5696 117.185L86.566 117.278L85.7606 117.203C85.7606 117.295 85.7822 117.371 85.8263 117.429C85.8704 117.488 85.9343 117.523 86.0171 117.53C86.0783 117.535 86.1296 117.526 86.1728 117.501C86.2142 117.476 86.2438 117.44 86.26 117.393L86.548 117.42C86.5318 117.502 86.4967 117.571 86.4445 117.629C86.3923 117.686 86.3275 117.73 86.2501 117.758C86.1728 117.787 86.0882 117.797 85.9964 117.789C85.8821 117.778 85.784 117.741 85.7012 117.677C85.6193 117.614 85.5563 117.532 85.5131 117.429C85.4699 117.327 85.451 117.214 85.4555 117.088C85.46 116.962 85.4888 116.852 85.5401 116.759C85.5905 116.665 85.6598 116.595 85.7453 116.547C85.8308 116.499 85.928 116.481 86.036 116.49C86.144 116.5 86.2438 116.537 86.3248 116.598C86.4067 116.661 86.4688 116.742 86.5111 116.844C86.5543 116.945 86.5732 117.059 86.5687 117.185H86.5696ZM85.7714 116.982L86.2762 117.029C86.2708 116.95 86.2474 116.886 86.2043 116.837C86.1611 116.787 86.1044 116.76 86.0333 116.753C85.9622 116.747 85.9037 116.764 85.8578 116.804C85.8119 116.845 85.7831 116.904 85.7714 116.981" fill="#7F4F1C"/>
<path d="M87.5554 116.147L87.8703 116.177L87.8038 117.928L87.4924 117.9L87.4996 117.709C87.4627 117.778 87.4159 117.828 87.3556 117.858C87.2962 117.889 87.2296 117.901 87.1549 117.893C87.0568 117.884 86.9713 117.849 86.9002 117.788C86.8282 117.728 86.7742 117.647 86.7382 117.546C86.7004 117.445 86.6851 117.33 86.6905 117.2C86.6959 117.071 86.7202 116.964 86.7652 116.87C86.8102 116.777 86.8696 116.706 86.9452 116.659C87.0208 116.611 87.1063 116.592 87.2026 116.601C87.2755 116.608 87.3403 116.63 87.3952 116.668C87.4501 116.705 87.4951 116.759 87.5293 116.83L87.5563 116.148L87.5554 116.147ZM87.4447 117.538C87.496 117.476 87.5239 117.389 87.5284 117.278C87.5329 117.166 87.5113 117.077 87.4654 117.006C87.4195 116.935 87.3574 116.896 87.2764 116.888C87.1999 116.881 87.1369 116.907 87.0892 116.966C87.0406 117.026 87.0136 117.113 87.0091 117.229C87.0046 117.345 87.0244 117.438 87.0685 117.506C87.1117 117.573 87.172 117.611 87.2485 117.618C87.3295 117.625 87.3943 117.598 87.4447 117.537" fill="#7F4F1C"/>
<path d="M96.5254 111.229L80.7753 109.956L80.7627 110.187L96.0304 111.548L96.5254 111.229Z" fill="#B47026"/>
<path d="M73.4276 109.213L65.6979 108.591L65.6853 108.821L72.9326 109.532L73.4276 109.213Z" fill="#B47026"/>
<path d="M96.3292 107.557L112.322 102.76L114.282 96.5883L114.378 95.4175C114.378 94.7479 114.535 94.118 113.496 93.866H112.738C112.738 93.866 109.694 94.2673 107.466 96.034C105.239 97.8006 102.239 101.445 102.239 101.445L96.3742 106.636L66.3418 105.394C66.1501 105.473 66.0061 105.574 65.9089 105.693L96.3292 107.557Z" fill="#2F2718"/>
<path d="M110.674 94.2082C110.64 94.2001 110.607 94.1902 110.574 94.1785C110.205 94.0525 109.906 93.7348 109.701 93.4144C109.589 93.2398 109.498 93.0536 109.419 92.8619C109.38 92.7674 109.344 92.672 109.31 92.5766C109.303 92.5559 109.229 92.2985 109.224 92.2985L107.158 92.1941C107.479 93.3775 108.085 93.9328 108.406 94.0426C108.439 94.0543 108.473 94.0642 108.506 94.0723C108.542 94.0813 108.579 94.0876 108.616 94.093C108.64 94.0966 108.666 94.0984 108.69 94.1002L110.858 94.237C110.833 94.2352 110.808 94.2334 110.784 94.2298C110.747 94.2253 110.711 94.2181 110.674 94.2091V94.2082Z" fill="#60482F"/>
<path d="M109.487 87.8193C109.721 87.2118 110.156 86.3568 110.999 85.915C111.067 85.879 109.59 85.8484 109.59 85.8484C108.895 85.8043 107.156 87.3063 107.058 89.6399L109.021 89.7137C109.023 89.6849 109.258 88.4141 109.487 87.8193Z" fill="#836746"/>
<path d="M109.017 89.744C109.017 89.7386 109.018 89.7332 109.019 89.7278C109.019 89.7233 109.02 89.7179 109.021 89.7134L107.045 89.5361C106.855 91.2074 107.155 92.1829 107.191 92.3053C107.191 92.3053 109.265 92.4358 109.266 92.4358C109.042 91.6888 108.964 90.8951 108.997 90.1004C109.002 89.9825 109.018 89.8628 109.018 89.7449L109.017 89.744Z" fill="#6A5438"/>
<path d="M105.847 94.2082C105.813 94.2001 105.779 94.1902 105.746 94.1785C105.377 94.0525 105.078 93.7348 104.873 93.4144C104.762 93.2398 104.671 93.0536 104.591 92.8619C104.553 92.7674 104.517 92.672 104.483 92.5766C104.475 92.5559 104.402 92.2985 104.396 92.2985L102.331 92.1941C102.651 93.3775 103.258 93.9328 103.578 94.0426C103.611 94.0543 103.646 94.0642 103.679 94.0723C103.715 94.0813 103.752 94.0876 103.789 94.093C103.813 94.0966 103.838 94.0984 103.863 94.1002L106.031 94.237C106.005 94.2352 105.981 94.2334 105.957 94.2298C105.92 94.2253 105.884 94.2181 105.847 94.2091V94.2082Z" fill="#60482F"/>
<path d="M104.659 87.8193C104.893 87.2118 105.329 86.3568 106.171 85.915C106.24 85.879 104.763 85.8484 104.763 85.8484C104.067 85.8043 102.328 87.3063 102.23 89.6399L104.193 89.7137C104.196 89.6849 104.431 88.4141 104.659 87.8193Z" fill="#836746"/>
<path d="M104.19 89.744C104.19 89.7386 104.19 89.7332 104.191 89.7278C104.191 89.7233 104.192 89.7179 104.193 89.7134L102.217 89.5361C102.027 91.2074 102.327 92.1829 102.364 92.3053C102.364 92.3053 104.437 92.4358 104.438 92.4358C104.214 91.6888 104.136 90.8951 104.169 90.1004C104.174 89.9825 104.19 89.8628 104.19 89.7449L104.19 89.744Z" fill="#6A5438"/>
<path d="M100.394 94.2082C100.36 94.2001 100.326 94.1902 100.293 94.1785C99.924 94.0525 99.6252 93.7348 99.4201 93.4144C99.3085 93.2398 99.2176 93.0536 99.1384 92.8619C99.0997 92.7674 99.0637 92.672 99.0295 92.5766C99.0223 92.5559 98.9485 92.2985 98.9431 92.2985L96.8777 92.1941C97.1981 93.3775 97.8046 93.9328 98.125 94.0426C98.1583 94.0543 98.1925 94.0642 98.2258 94.0723C98.2618 94.0813 98.2987 94.0876 98.3356 94.093C98.3599 94.0966 98.3851 94.0984 98.4094 94.1002L100.577 94.237C100.552 94.2352 100.528 94.2334 100.504 94.2298C100.467 94.2253 100.431 94.2181 100.394 94.2091V94.2082Z" fill="#60482F"/>
<path d="M99.2063 87.8193C99.4403 87.2118 99.8759 86.3568 100.718 85.915C100.787 85.879 99.3098 85.8484 99.3098 85.8484C98.6142 85.8043 96.8754 87.3063 96.7773 89.6399L98.7401 89.7137C98.7428 89.6849 98.9777 88.4141 99.2063 87.8193Z" fill="#836746"/>
<path d="M98.7364 89.744C98.7364 89.7386 98.7373 89.7332 98.7382 89.7278C98.7382 89.7233 98.7391 89.7179 98.74 89.7134L96.7637 89.5361C96.5738 91.2074 96.8735 92.1829 96.9104 92.3053C96.9104 92.3053 98.9839 92.4358 98.9848 92.4358C98.7607 91.6888 98.6833 90.8951 98.7157 90.1004C98.7211 89.9825 98.7373 89.8628 98.7373 89.7449L98.7364 89.744Z" fill="#6A5438"/>
<path d="M95.6094 94.2082C95.5752 94.2001 95.5419 94.1902 95.5086 94.1785C95.1396 94.0525 94.8408 93.7348 94.6356 93.4144C94.524 93.2398 94.4331 93.0536 94.3539 92.8619C94.3153 92.7674 94.2793 92.672 94.2451 92.5766C94.2379 92.5559 94.1641 92.2985 94.1587 92.2985L92.0933 92.1941C92.4136 93.3775 93.0202 93.9328 93.3406 94.0426C93.3739 94.0543 93.4081 94.0642 93.4414 94.0723C93.4774 94.0813 93.5143 94.0876 93.5512 94.093C93.5755 94.0966 93.6007 94.0984 93.625 94.1002L95.793 94.237C95.7678 94.2352 95.7435 94.2334 95.7192 94.2298C95.6823 94.2253 95.6463 94.2181 95.6094 94.2091V94.2082Z" fill="#60482F"/>
<path d="M94.4197 87.8193C94.6537 87.2118 95.0893 86.3568 95.9316 85.915C96 85.879 94.5232 85.8484 94.5232 85.8484C93.8275 85.8043 92.0888 87.3063 91.9907 89.6399L93.9535 89.7137C93.9562 89.6849 94.1911 88.4141 94.4197 87.8193Z" fill="#836746"/>
<path d="M93.9522 89.744C93.9522 89.7386 93.9531 89.7332 93.954 89.7278C93.954 89.7233 93.9549 89.7179 93.9558 89.7134L91.9795 89.5361C91.7896 91.2074 92.0893 92.1829 92.1262 92.3053C92.1262 92.3053 94.1997 92.4358 94.2006 92.4358C93.9765 91.6888 93.8991 90.8951 93.9315 90.1004C93.9369 89.9825 93.9531 89.8628 93.9531 89.7449L93.9522 89.744Z" fill="#6A5438"/>
<path d="M113.026 90.1615C113.126 89.247 112.702 88.4501 112.077 88.3816C111.453 88.3131 110.865 88.9989 110.765 89.9134C110.664 90.828 111.089 91.6249 111.714 91.6934C112.338 91.7619 112.926 91.076 113.026 90.1615Z" fill="#60482F"/>
</svg>
