<svg width="128" height="128" viewBox="0 0 128 128" fill="none" xmlns="http://www.w3.org/2000/svg">
<path d="M20.9818 59.8242C21.0413 59.9168 29.4543 79.1013 29.4516 79.1006H23.9184C23.9184 79.0404 21.3005 72.8234 21.3275 72.7813H15.3637C15.4229 72.7844 21.0706 59.776 20.9818 59.8154V59.8242ZM39.2377 79.0723C39.1747 79.0243 25.85 48.0183 25.8422 48H39.2377V79.0723ZM15.9662 48C15.9858 48.0396 3.08749 79.0957 3.04239 79.0566C2.99738 78.9709 3.01242 47.9868 3.0004 48H15.9662Z" fill="#E30613"/>
<path d="M88.3045 59.6171C92.5745 59.6061 94.944 62.6753 94.9441 66.5321C94.9441 70.8849 92.1885 73.5575 88.2215 73.5575C83.4558 73.5574 81.4999 70.0588 81.4998 66.5878C81.4998 62.538 84.1721 59.6171 88.3045 59.6171ZM78.3582 53.7382C78.4682 53.7382 78.4958 53.7933 78.4959 53.9032V70.1581C78.4959 70.7365 78.5513 71.4801 78.5789 71.9208C78.6064 72.0584 78.5786 72.1136 78.4412 72.1962C76.7289 73.0529 74.8458 73.5149 72.9314 73.5468C68.8817 73.5468 65.989 71.3145 65.989 66.7137C65.9892 62.7192 68.9366 59.6063 73.6199 59.6063C74.1499 59.592 74.6794 59.6566 75.1902 59.7987V53.9315C75.1902 53.7938 75.2451 53.7382 75.3552 53.7382H78.3582ZM119.352 59.6044C123.402 59.6044 125.027 62.6907 125.027 65.2528C125.027 66.437 124.89 66.9884 124.78 67.0712C124.449 67.2089 123.402 67.2362 121.886 67.2362H116.267C116.323 69.3298 117.617 70.8172 120.399 70.8173C121.582 70.8267 122.754 70.5924 123.843 70.1288C123.925 70.1012 124.009 70.1287 124.009 70.2665V72.4706C124.009 72.6633 123.953 72.7182 123.843 72.7733C122.768 73.3242 121.474 73.5172 119.711 73.5448C114.697 73.5448 112.879 70.1283 112.879 66.6571C112.879 62.7178 115.22 59.6044 119.352 59.6044ZM101.03 53.7382C101.223 53.7382 101.278 53.7662 101.278 53.9315V60.2128C102.239 59.8163 103.269 59.6101 104.308 59.6063C108.138 59.6063 110.452 62.3611 110.452 65.9149C110.452 70.7085 106.678 73.5184 102.325 73.5184C100.899 73.5375 99.4782 73.3429 98.1101 72.9403C98.0596 72.9145 98.0173 72.8747 97.9881 72.826C97.9589 72.7774 97.9431 72.7216 97.9441 72.6649V53.9315C97.9441 53.7938 97.9997 53.7382 98.1375 53.7382H101.03ZM57.7224 55.3094C57.8601 55.3095 57.8881 55.337 57.9431 55.4471C59.9817 61.0946 62.2127 67.3208 64.3064 73.0233C64.3615 73.1886 64.3066 73.2713 64.1414 73.2714H61.0554C61.0016 73.2758 60.948 73.2613 60.9031 73.2313C60.8582 73.2014 60.824 73.1577 60.8074 73.1063L59.0447 68.2577H52.7361L51.0554 73.0507C51.0279 73.2159 50.9452 73.2713 50.78 73.2714H47.9695C47.777 73.2713 47.7221 73.1886 47.7771 72.996C49.2648 68.7809 51.7718 61.7552 53.5349 56.9891C53.6782 56.4969 53.7527 55.9871 53.7556 55.4745C53.7549 55.4526 53.7583 55.4304 53.7664 55.41C53.7744 55.3897 53.7861 55.3708 53.8015 55.3553C53.817 55.3399 53.8359 55.3282 53.8562 55.3202C53.8766 55.3122 53.8988 55.3087 53.9207 55.3094H57.7224ZM88.1394 62.0692C86.2386 62.0582 84.8885 63.7387 84.8884 66.5321C84.8884 69.287 86.1005 71.1053 88.3045 71.1053C90.0125 71.1053 91.5554 69.8381 91.5554 66.6425C91.5554 64.0254 90.536 62.0694 88.1394 62.0692ZM103.482 62.2782C102.72 62.2464 101.962 62.4079 101.278 62.7469V70.8192C101.763 70.9482 102.264 71.0037 102.765 70.9843C104.804 70.9843 107.036 69.4688 107.036 66.3007C107.036 63.6286 105.576 62.2783 103.482 62.2782ZM73.5642 62.1688C71.085 62.169 69.4051 63.7388 69.405 66.5487C69.405 69.6616 71.2226 70.9011 73.3162 70.9012C73.951 70.9052 74.5834 70.8124 75.1902 70.6259V62.4159C74.6678 62.236 74.1165 62.1528 73.5642 62.1688ZM55.8211 58.0643C55.4078 59.8826 54.2783 62.9956 53.4519 65.5575H58.3006C57.7496 63.7118 56.4004 59.9929 55.8494 58.0643H55.8211ZM119.215 61.9852C117.424 61.9852 116.488 63.3627 116.267 65.1259L120.675 65.1151C121.693 65.1151 121.859 65.0045 121.886 64.8944V64.6024C121.886 63.7759 121.336 61.9852 119.215 61.9852Z" fill="#E30613"/>
</svg>
