<svg width="128" height="128" viewBox="0 0 128 128" fill="none" xmlns="http://www.w3.org/2000/svg">
<path d="M66.5999 102.636C71.6127 102.623 74.3938 106.225 74.3938 110.753C74.3938 115.863 71.1601 119 66.5032 119C60.9083 119 58.6116 114.892 58.6116 110.818C58.6117 106.064 61.7489 102.636 66.5999 102.636ZM54.9241 95.7335C55.0533 95.7336 55.0852 95.7986 55.0852 95.9279V115.009C55.0852 115.688 55.1506 116.561 55.1829 117.078C55.2152 117.24 55.1825 117.305 55.0208 117.402C53.0107 118.408 50.8003 118.949 48.553 118.986C43.7989 118.986 40.4026 116.367 40.4026 110.966C40.4028 106.277 43.8638 102.622 49.3616 102.622C49.9837 102.605 50.6048 102.682 51.2044 102.849V95.9601C51.2044 95.7984 51.2694 95.7335 51.3987 95.7335H54.9241ZM103.048 102.62C107.802 102.62 109.71 106.243 109.71 109.25C109.71 110.64 109.549 111.287 109.419 111.385C109.031 111.547 107.801 111.579 106.023 111.579H99.4261C99.4908 114.037 101.01 115.783 104.277 115.783C105.665 115.794 107.042 115.519 108.32 114.975C108.417 114.943 108.513 114.975 108.513 115.137V117.724C108.513 117.95 108.449 118.015 108.32 118.079C107.058 118.726 105.538 118.953 103.468 118.985C97.5822 118.985 95.4475 114.974 95.4475 110.9C95.4477 106.275 98.1972 102.62 103.048 102.62ZM81.5384 95.7335C81.7648 95.7335 81.8304 95.766 81.8304 95.9601V103.334C82.9587 102.869 84.1665 102.627 85.387 102.622C89.8823 102.622 92.5989 105.856 92.5989 110.028C92.5989 115.656 88.1687 118.954 83.0589 118.954C81.3848 118.977 79.7167 118.748 78.1106 118.276C78.0513 118.245 78.0014 118.199 77.9671 118.142C77.9328 118.085 77.9152 118.019 77.9163 117.952V95.9601C77.9163 95.7984 77.9813 95.7336 78.1429 95.7335H81.5384ZM30.6995 97.5773C30.8608 97.5773 30.8927 97.6102 30.9573 97.7394C33.3505 104.369 35.9701 111.679 38.428 118.373C38.4925 118.567 38.4284 118.664 38.2347 118.664H34.5647C34.5178 118.66 34.4725 118.644 34.4329 118.617C34.3802 118.582 34.3411 118.53 34.3216 118.47L32.2513 112.777H24.845L22.8724 118.405C22.84 118.599 22.743 118.664 22.5491 118.664H19.2503C19.024 118.664 18.9591 118.566 19.0237 118.34C20.7701 113.392 23.7137 105.145 25.7835 99.5499C25.9517 98.972 26.0389 98.3735 26.0423 97.7716C26.0414 97.7459 26.0456 97.7203 26.055 97.6964C26.0644 97.6725 26.0788 97.6502 26.097 97.632C26.1151 97.6139 26.1366 97.5994 26.1604 97.59C26.1843 97.5806 26.21 97.5764 26.2356 97.5773H30.6995ZM66.4056 105.514C64.1742 105.501 62.5901 107.474 62.5901 110.753C62.5901 113.987 64.0127 116.121 66.5999 116.121C68.6049 116.121 70.4161 114.634 70.4163 110.883C70.4163 107.811 69.2192 105.514 66.4056 105.514ZM84.4173 105.759C83.5225 105.722 82.6326 105.911 81.8304 106.309V115.785C82.3994 115.937 82.9881 116.001 83.5765 115.979C85.9695 115.979 88.5889 114.2 88.5891 110.482C88.5891 107.345 86.8751 105.759 84.4173 105.759ZM49.2962 105.63C46.3858 105.63 44.4134 107.474 44.4134 110.773C44.4135 114.427 46.5475 115.882 49.0052 115.882C49.7503 115.887 50.4921 115.778 51.2044 115.559V105.921C50.5912 105.71 49.9444 105.611 49.2962 105.63ZM28.4671 100.812C27.9819 102.946 26.656 106.601 25.6858 109.609H31.3782C30.7314 107.442 29.1471 103.076 28.5003 100.812H28.4671ZM102.886 105.415C100.784 105.415 99.6848 107.032 99.4261 109.102L104.6 109.089C105.796 109.089 105.99 108.959 106.023 108.83V108.487C106.023 107.517 105.376 105.415 102.886 105.415Z" fill="#E30613"/>
<path d="M63.5746 38.3115C63.6865 38.46 84.5247 85.9749 84.5717 86.0957H70.8539C70.8457 85.9274 64.3727 70.5539 64.432 70.4317H49.6479C49.7798 70.4683 63.3507 39.2143 63.5746 38.3086V38.3115ZM108.831 86.0254C108.689 85.9396 75.6234 9.00001 75.6234 9.00001H108.831V86.0254ZM51.142 9.00001C51.1884 9.10325 19.2454 86.0157 19.1049 85.9883C18.993 85.8913 19.0302 8.96737 19.0004 9.00001H51.142Z" fill="#E30613"/>
</svg>
