<svg width="128" height="128" viewBox="0 0 128 128" fill="none" xmlns="http://www.w3.org/2000/svg">
<path d="M4.92435 55.1185C4.2314 55.2861 3.57965 55.5931 3.00867 56.021C2.43769 56.4488 1.9594 56.9886 1.60284 57.6075C1.01182 58.7927 1 59.0415 1 63.9127L1.10638 68.9854C1.29646 69.9517 1.76881 70.8395 2.46339 71.5359C3.15796 72.2324 4.04338 72.706 5.00709 72.8966C5.60993 73.0033 13.3995 73.0625 13.3995 72.8966C13.3995 72.7307 12.7376 70.1825 12.6903 70.1706C12.643 70.1588 11.2955 69.8388 9.61702 69.4832C5.71631 68.6299 5.83451 68.6536 5.50355 68.298L5.21986 67.9543V60.0608L5.50355 59.7053C5.83451 59.3141 5.71631 59.3379 9.61702 58.5201L12.6903 57.8326C12.6903 57.8326 13.3995 55.1778 13.3995 55.1067C13.3995 55.0356 5.44444 55.1067 4.92435 55.1067V55.1185ZM17.5366 55.1185C17.7201 56.0146 17.9489 56.9007 18.2222 57.7734C18.2222 57.7734 19.7352 58.1526 21.5319 58.5319L25.078 59.3853C25.2706 59.4935 25.4331 59.6483 25.5508 59.8356C25.7163 60.1438 25.74 60.4756 25.74 63.9839L25.5508 68.1321C25.4299 68.3167 25.2681 68.4708 25.078 68.5824C24.9362 68.6654 23.3641 69.0447 21.5319 69.4358L18.2222 70.1943C17.9504 71.0714 17.7258 71.9484 17.5366 72.8492C17.5366 72.9677 18.3168 72.9914 21.7565 72.9559C26.4846 72.9559 26.5556 72.9559 27.7612 72.0907C28.6267 71.4913 29.2805 70.6324 29.6288 69.6373C29.8771 68.9025 29.8771 68.8313 29.8771 63.9839L29.6288 58.3304C29.2835 57.3337 28.629 56.474 27.7612 55.8771C26.5792 55.0474 26.4965 55.0474 21.7565 55C18.3168 55 17.5366 55 17.5366 55.1067V55.1185ZM37.773 58.8282C36.8907 60.7528 36.1327 62.7322 35.5035 64.7542L33.9433 70.0284H34.818H35.6809L35.7991 69.5543L36.2246 68.061L36.5201 67.0298H42.4894L42.7967 68.1202L43.2104 69.6136L43.3168 70.0284H44.1678H45.0425C45.0425 70.0284 44.8298 69.1988 44.5579 68.215C43.7012 65.018 42.5905 61.8948 41.2364 58.8756L40.669 57.6904H38.305L37.773 58.8282ZM40.3499 61.009L41.8983 65.1928C41.8983 65.1928 40.8345 65.1928 39.5343 65.1928C38.745 65.2199 37.9548 65.1882 37.1702 65.0979C37.1702 64.9202 38.2695 61.9809 38.8014 60.7127C39.2151 59.7408 39.4279 59.3971 39.5579 59.3971C39.6879 59.3971 39.9244 59.8001 40.409 60.9497L40.3499 61.009ZM46.1418 63.8772V70.0403H47.8794V57.7378H46.1418V63.8772ZM50.0544 57.8563C49.8495 57.9907 49.6859 58.1795 49.5816 58.4015C49.504 58.5259 49.4628 58.6697 49.4628 58.8164C49.4628 58.9631 49.504 59.1068 49.5816 59.2312C49.6733 59.4929 49.862 59.7091 50.1085 59.8349C50.3551 59.9607 50.6405 59.9864 50.9054 59.9068C51.1432 59.8556 51.3539 59.7187 51.4977 59.5221C51.6415 59.3255 51.7084 59.0828 51.6856 58.8401C51.7067 58.6847 51.6835 58.5266 51.6186 58.384C51.5537 58.2413 51.4499 58.12 51.3191 58.0341C51.1667 57.8817 50.969 57.7831 50.7558 57.7532C50.5426 57.7233 50.3254 57.7636 50.1371 57.8682L50.0544 57.8563ZM53.2104 63.8535V70.0165L54.5461 70.1114L57.0756 70.2062C57.6998 70.3104 58.3408 70.215 58.9078 69.9336C59.2413 69.7787 59.5375 69.5534 59.7762 69.2732C60.0149 68.993 60.1904 68.6644 60.2908 68.3099C60.3916 67.3137 60.4192 66.3115 60.3735 65.3113C60.3735 62.8698 60.3735 62.7038 60.1017 62.2653C59.875 61.8645 59.547 61.5307 59.1506 61.2976C58.7542 61.0646 58.3035 60.9405 57.844 60.9379C56.9507 60.8604 56.051 60.9123 55.1726 61.092C54.9598 61.092 54.9598 61.092 54.9598 59.4682V57.7378H53.2104V63.8535ZM58.1631 62.6683C58.3744 62.7473 58.5477 62.9041 58.6478 63.1068C58.7868 64.684 58.7868 66.2704 58.6478 67.8476C58.4941 68.298 57.9385 68.4995 56.9102 68.4995C56.432 68.5076 55.9539 68.4799 55.4799 68.4165L54.948 68.3454V62.8224L55.5863 62.7157C56.436 62.537 57.3134 62.537 58.1631 62.7157V62.6683ZM70.5154 63.8535V70.0165H71.5792L73.7896 70.1588C74.3229 70.2638 74.873 70.2469 75.3989 70.1094C75.9248 69.9719 76.4131 69.7174 76.8274 69.3647C77.6194 68.5587 77.6312 68.4639 77.6549 65.7143C77.7474 64.6941 77.7077 63.6663 77.5366 62.6564C77.3715 62.1355 77.0479 61.6794 76.6112 61.3521C76.1746 61.0247 75.6467 60.8426 75.1017 60.8312C74.1965 60.7666 73.2868 60.8184 72.3948 60.9853C72.2884 60.9853 72.253 60.6534 72.253 59.3497V57.7497H70.5154V63.8535ZM75.3972 62.6683C75.5713 62.7293 75.7234 62.8406 75.8345 62.9883C75.9472 64.6773 75.9472 66.372 75.8345 68.061C75.6572 68.535 74.1797 68.7484 72.7258 68.5113L72.2057 68.4284V62.8224L72.8322 62.7157C73.6659 62.579 74.5162 62.579 75.3499 62.7157L75.3972 62.6683ZM92.6785 57.8445C91.8449 57.9123 91.062 58.2733 90.4681 58.8638C89.6052 59.7408 89.5461 60.049 89.5461 64.0076C89.5461 67.9661 89.5461 68.2743 90.4917 69.1513C90.8607 69.5434 91.3382 69.8158 91.8629 69.9336C92.6716 70.1711 93.5174 70.2555 94.357 70.1825C95.217 70.2196 96.0783 70.152 96.922 69.981C97.2709 69.9099 97.6145 69.8148 97.9504 69.6965C98.0331 69.6373 98.0213 69.4477 97.9504 68.9262C97.891 68.6585 97.8079 68.3968 97.7021 68.1439C97.4974 68.1184 97.2896 68.147 97.0993 68.2269C95.8878 68.5363 94.632 68.6326 93.3877 68.5113C92.3239 68.381 91.9338 68.2032 91.6147 67.7765C91.2955 67.3498 91.3783 67.3735 91.3783 63.972C91.3783 60.5705 91.3783 60.4164 91.6147 60.1675C91.8511 59.9186 92.3239 59.5749 93.3877 59.4327C94.6319 59.3055 95.8888 59.4018 97.0993 59.7171L97.6903 59.883C97.9042 59.3773 98.0397 58.8417 98.0922 58.2949C97.7939 58.1845 97.4901 58.0895 97.182 58.0104C95.7249 57.7377 94.237 57.6699 92.7612 57.8089L92.6785 57.8445ZM99.5579 63.9009V70.064H101.189V57.7378H99.5579V63.9009ZM124.262 59.3734V61.009L123.636 60.9379L122.773 60.8312C122.045 60.8186 121.321 60.935 120.634 61.1749C120.132 61.4455 119.721 61.8576 119.452 62.3601C119.239 62.7631 119.215 62.9883 119.18 65.2046C119.18 68.1795 119.18 68.618 120.007 69.3884C120.408 69.7415 120.882 69.9994 121.396 70.1431C121.91 70.2867 122.449 70.3123 122.974 70.218L124.995 70.0995H126V57.7497H124.251L124.262 59.3734ZM124.073 62.692C124.251 62.7749 124.262 63.012 124.262 65.5957V68.4165L123.861 68.4876C123.076 68.6212 122.273 68.6011 121.496 68.4284C121.317 68.3587 121.162 68.2395 121.047 68.0847C120.951 67.231 120.915 66.3715 120.941 65.5128C120.941 62.9053 120.941 62.8224 121.532 62.6446C122.395 62.5258 123.27 62.5258 124.132 62.6446L124.073 62.692ZM64.4279 60.9023C63.9433 60.9734 63.4586 61.0564 62.9858 61.1749C62.513 61.2934 62.253 61.3883 62.3002 61.5305C62.3475 61.6727 62.4066 61.9453 62.4775 62.2535C62.5176 62.4668 62.5851 62.6739 62.6785 62.8698C63.0284 62.8661 63.3769 62.8264 63.7187 62.7512C65.539 62.3601 66.7683 62.5379 66.9456 63.1898C66.9966 63.4834 67.0242 63.7806 67.0284 64.0787V64.6831H66C63.234 64.5409 61.5674 65.572 61.5437 67.4328C61.5213 67.8285 61.5871 68.2242 61.7364 68.5912C61.8856 68.9582 62.1146 69.2872 62.4066 69.5543C62.7897 69.8819 63.2419 70.1182 63.7291 70.2454C64.2164 70.3727 64.726 70.3877 65.2199 70.2891L67.5012 70.1706L68.6832 70.0877V62.7631L68.3759 62.2535C67.7612 61.2105 66.3191 60.7364 64.487 60.9734L64.4279 60.9023ZM66.9693 66.378C67.0759 67.0374 67.0759 67.7097 66.9693 68.3691L65.7872 68.4876C63.9669 68.6654 63.305 68.3928 63.305 67.4565C63.2817 67.311 63.2992 67.162 63.3555 67.0259C63.4119 66.8899 63.5049 66.7722 63.6241 66.6861C63.8743 66.5034 64.1676 66.389 64.4752 66.3543L65.1489 66.2476C65.7782 66.2286 66.4077 66.2723 67.0284 66.378H66.9693ZM81.7801 60.8431L80.3381 61.1275C79.6052 61.2934 79.5461 61.3408 79.5934 61.5542L79.7943 62.3601C79.9125 62.9053 79.9362 62.9409 80.1962 62.8698C81.3022 62.5135 82.4748 62.4162 83.6241 62.5853C84.1324 62.7868 84.2388 63.0001 84.2388 63.8298V64.612H82.8913C82.3187 64.5317 81.7357 64.5702 81.1786 64.7251C80.6214 64.8801 80.102 65.1482 79.6525 65.5128C79.3374 65.7821 79.0985 66.1297 78.9595 66.5207C78.8205 66.9118 78.7864 67.3325 78.8605 67.741C79.0378 69.5188 80.3026 70.384 82.5721 70.2417L84.8416 70.1232L86.0236 70.0403V66.4846C86.0236 63.012 86.0236 62.8461 85.7518 62.4194C85.1253 61.2342 83.7187 60.7364 81.8511 60.9497L81.7801 60.8431ZM83.9314 66.378H84.227V68.4402L83.6123 68.5113C82.7272 68.6886 81.8134 68.6602 80.9409 68.4284C80.7994 68.3276 80.684 68.1943 80.6044 68.0396C80.5248 67.885 80.4832 67.7135 80.4832 67.5395C80.4832 67.3654 80.5248 67.1939 80.6044 67.0393C80.684 66.8846 80.7994 66.7514 80.9409 66.6506C81.6089 66.3857 82.3292 66.2802 83.0449 66.3424H83.896L83.9314 66.378ZM105.019 60.9142C104.359 61.0649 103.766 61.4269 103.329 61.9453C102.773 62.6801 102.726 63.0357 102.726 65.655C102.726 68.2743 102.797 68.6536 103.518 69.4121C104.239 70.1706 104.558 70.2417 106.201 70.2417C107.844 70.2417 108.27 70.1232 108.967 69.2936C109.664 68.4639 109.712 68.1084 109.676 65.3468C109.676 63.1068 109.676 62.8816 109.404 62.4668C109.081 61.8714 108.581 61.3911 107.974 61.092C107.018 60.8161 106.014 60.7514 105.031 60.9023L105.019 60.9142ZM107.383 62.7275C107.939 63.012 108.033 63.4031 108.033 65.5602C108.033 67.7172 107.95 67.9306 107.489 68.3928C106.739 68.7076 105.901 68.7454 105.125 68.4995C104.463 68.1913 104.392 67.8832 104.392 65.5602C104.392 63.2372 104.452 63.0357 105.019 62.7275C105.797 62.4975 106.622 62.4852 107.407 62.692L107.383 62.7275ZM49.747 65.5246V70.0521H51.3782V60.9971H49.747V65.5246ZM111.035 61.1394C111.035 61.2223 111.035 62.8579 111.035 64.7661C111.035 67.9069 111.035 68.3217 111.272 68.6299C111.91 69.8151 112.998 70.3366 114.818 70.218L117.915 70.0403V61.009H116.26V68.4165L115.752 68.4876C114.886 68.6603 113.991 68.6279 113.139 68.3928L112.761 68.1676C112.761 68.1676 112.761 66.5557 112.667 64.612V61.0564H111.875C111.272 61.0564 111.071 61.0564 111.024 61.1749L111.035 61.1394ZM12.6667 63.7705C12.6371 63.8912 12.6371 64.0173 12.6667 64.1379C12.6667 64.3157 12.8913 64.3276 15.4563 64.3631H18.1986V63.6046H15.4799C13.1986 63.6046 12.7376 63.6046 12.6903 63.7587L12.6667 63.7705Z" fill="#FF6A00"/>
</svg>
