<svg width="128" height="128" viewBox="0 0 128 128" fill="none" xmlns="http://www.w3.org/2000/svg">
<path d="M27.5898 33.4082C25.1902 33.9854 22.9332 35.0429 20.9559 36.5167C18.9787 37.9904 17.3224 39.8495 16.0876 41.9812C14.0409 46.0636 14 46.9209 14 63.6994L14.3684 81.172C15.0266 84.5004 16.6624 87.5583 19.0676 89.9572C21.4729 92.356 24.5391 93.9874 27.8764 94.6438C29.964 95.0112 56.939 95.2154 56.939 94.6438C56.939 94.0723 54.6467 85.2952 54.483 85.2544C54.3193 85.2136 49.6529 84.1113 43.8404 82.8866C30.3324 79.9473 30.7417 80.0289 29.5956 78.8042L28.6132 77.6203V50.4317L29.5956 49.207C30.7417 47.8598 30.3324 47.9415 43.8404 45.1247L54.483 42.7569C54.483 42.7569 56.939 33.6124 56.939 33.3674C56.939 33.1225 29.3909 33.3674 27.5898 33.3674V33.4082ZM71.2657 33.4082C71.9009 36.4946 72.6933 39.5468 73.6398 42.5528C73.6398 42.5528 78.8792 43.8591 85.1011 45.1655L97.3811 48.1048C98.048 48.4776 98.6109 49.0109 99.0184 49.6561C99.5915 50.7175 99.6734 51.8606 99.6734 63.9444L99.0184 78.2327C98.5997 78.8686 98.0394 79.3995 97.3811 79.784C96.8899 80.0698 91.4458 81.3761 85.1011 82.7233L73.6398 85.336C72.6983 88.357 71.9206 91.3779 71.2657 94.4805C71.2657 94.8888 73.9673 94.9704 85.8788 94.8479C102.252 94.8479 102.498 94.8479 106.673 91.8678C109.67 89.8034 111.934 86.845 113.14 83.4173C114 80.8862 114 80.6413 114 63.9444L113.14 44.4715C111.944 41.0383 109.678 38.077 106.673 36.021C102.58 33.1633 102.293 33.1633 85.8788 33C73.9673 33 71.2657 33 71.2657 33.3674V33.4082ZM54.4011 63.2096C54.2988 63.6252 54.2988 64.0594 54.4011 64.4751C54.4011 65.0875 55.1789 65.1283 64.0614 65.2507H73.5579V62.638H64.1433C56.2431 62.638 54.6467 62.638 54.483 63.1687L54.4011 63.2096Z" fill="#373C41"/>
</svg>
