<svg width="128" height="128" viewBox="0 0 128 128" fill="none" xmlns="http://www.w3.org/2000/svg">
<path fill-rule="evenodd" clip-rule="evenodd" d="M78.0745 80.1366C71.1371 85.2547 61.0811 87.9793 52.421 87.9793C40.849 88.0392 29.6717 83.7758 21.0792 76.0245C20.4295 75.4376 21.0122 74.637 21.7918 75.0897C31.341 80.5476 42.1515 83.4131 53.1503 83.4019C61.3676 83.3608 69.4959 81.697 77.0685 78.506C78.238 78.0197 79.2104 79.2898 78.0745 80.1366Z" fill="#FF9900"/>
<path fill-rule="evenodd" clip-rule="evenodd" d="M80.9642 76.8432C80.0756 75.7072 75.0958 76.3025 72.8616 76.5707C72.1825 76.6546 72.0777 76.0635 72.6897 75.6318C76.6593 72.8443 83.1691 73.6491 83.9236 74.5838C84.6781 75.5186 83.7224 82.0494 80.0043 85.1596C79.43 85.6417 78.8851 85.386 79.1408 84.7405C79.975 82.6613 81.8529 77.9792 80.9642 76.8432Z" fill="#FF9900"/>
<path fill-rule="evenodd" clip-rule="evenodd" d="M73.0196 55.9348V53.227C73.0173 53.1361 73.0335 53.0456 73.0673 52.9612C73.101 52.8767 73.1516 52.8 73.2159 52.7357C73.2802 52.6714 73.3569 52.6209 73.4413 52.5871C73.5257 52.5534 73.6162 52.5372 73.7071 52.5395H85.8632C85.9546 52.5367 86.0457 52.5523 86.1311 52.5854C86.2164 52.6185 86.2942 52.6683 86.3599 52.7321C86.4256 52.7958 86.4778 52.8721 86.5134 52.9564C86.5491 53.0407 86.5674 53.1312 86.5674 53.2228V55.5492C86.5674 55.939 86.2362 56.4462 85.6536 57.2552L79.3659 66.2382C81.7007 66.1837 84.1739 66.5316 86.2949 67.7262C86.4845 67.8317 86.6435 67.9844 86.7566 68.1694C86.8698 68.3545 86.9331 68.5657 86.9404 68.7825V71.6707C86.9437 71.779 86.9198 71.8865 86.8709 71.9833C86.8221 72.0801 86.7498 72.1631 86.6606 72.2247C86.5714 72.2864 86.4682 72.3248 86.3604 72.3364C86.2526 72.3479 86.1436 72.3324 86.0434 72.291C84.0579 71.2708 81.8571 70.7407 79.6249 70.7451C77.3926 70.7495 75.1939 71.2882 73.2124 72.3162C72.7933 72.5384 72.3448 72.0857 72.3448 71.6874V68.9376C72.306 68.2859 72.4637 67.6376 72.7975 67.0765L80.0869 56.5971H73.7196C73.6298 56.6011 73.5402 56.5869 73.4559 56.5555C73.3717 56.5241 73.2946 56.4761 73.2293 56.4143C73.164 56.3525 73.1118 56.2782 73.0758 56.1959C73.0398 56.1135 73.0207 56.0247 73.0196 55.9348Z" fill="black"/>
<path fill-rule="evenodd" clip-rule="evenodd" d="M28.7095 72.859H25.0166C24.8499 72.851 24.6915 72.7836 24.5701 72.6691C24.4486 72.5546 24.3721 72.4004 24.3543 72.2345V53.2668C24.3587 53.0819 24.4361 52.9062 24.5697 52.7782C24.7032 52.6501 24.882 52.5802 25.0669 52.5835H28.5083C28.6788 52.5891 28.8412 52.6571 28.9649 52.7745C29.0885 52.892 29.1647 53.0507 29.179 53.2207V55.698H29.2503C30.1473 53.3003 31.8366 52.1853 34.1127 52.1853C36.3888 52.1853 37.8853 53.3003 38.9081 55.698C39.2499 54.795 39.8254 53.9991 40.5758 53.3916C41.3263 52.7841 42.2246 52.387 43.1789 52.2407C44.1333 52.0944 45.1094 52.2043 46.0073 52.5592C46.9052 52.914 47.6927 53.5011 48.2892 54.2602C49.4629 55.8573 49.2198 58.1711 49.2198 60.2083V72.1758C49.2154 72.3607 49.138 72.5364 49.0044 72.6644C48.8709 72.7924 48.6921 72.8624 48.5072 72.859H44.8394C44.6629 72.8505 44.4962 72.7752 44.3732 72.6483C44.2502 72.5214 44.1801 72.3525 44.1771 72.1758V62.1156C44.1771 61.3149 44.2442 59.3197 44.0723 58.561C43.7957 57.3035 42.9699 56.9262 41.901 56.9262C41.4209 56.9406 40.9557 57.0957 40.563 57.3721C40.1703 57.6486 39.8674 58.0343 39.6919 58.4813C39.3105 59.4412 39.3482 61.0383 39.3482 62.1156V72.1758C39.3438 72.3607 39.2664 72.5364 39.1329 72.6644C38.9993 72.7924 38.8206 72.8624 38.6356 72.859H34.9427C34.7658 72.8515 34.5986 72.7765 34.4754 72.6494C34.3521 72.5223 34.2824 72.3528 34.2804 72.1758V62.1156C34.2804 59.9987 34.6241 56.8843 32.0043 56.8843C29.3844 56.8843 29.4515 59.9191 29.4515 62.1156V72.1758C29.4494 72.2699 29.4283 72.3627 29.3896 72.4485C29.3508 72.5343 29.2951 72.6114 29.2258 72.6752C29.1566 72.739 29.0751 72.7882 28.9864 72.8197C28.8977 72.8513 28.8035 72.8647 28.7095 72.859Z" fill="black"/>
<path fill-rule="evenodd" clip-rule="evenodd" d="M97.0105 52.1867C102.498 52.1867 105.461 56.8941 105.461 62.8841C105.461 68.6687 102.187 73.2586 97.0105 73.2586C91.6283 73.2586 88.6983 68.5513 88.6983 62.6829C88.6983 56.8144 91.6619 52.1867 97.0105 52.1867ZM97.0441 56.0557C94.3194 56.0557 94.1476 59.7696 94.1476 62.0834C94.1476 64.3973 94.114 69.3477 97.0105 69.3477C99.907 69.3477 100.012 65.3572 100.012 62.9218C100.012 61.3247 99.9448 59.4091 99.4585 57.8917C99.0435 56.5797 98.2178 56.0557 97.0441 56.0557Z" fill="black"/>
<path fill-rule="evenodd" clip-rule="evenodd" d="M112.574 72.8595H108.894C108.717 72.852 108.55 72.777 108.427 72.6499C108.304 72.5228 108.234 72.3533 108.232 72.1763V53.2044C108.252 53.0318 108.336 52.8729 108.467 52.7584C108.598 52.6439 108.766 52.5818 108.94 52.584H112.369C112.522 52.5894 112.668 52.6443 112.787 52.7403C112.906 52.8363 112.99 52.9683 113.027 53.1164V56.0171H113.094C114.13 53.4224 115.58 52.1858 118.124 52.1858C118.976 52.1461 119.824 52.3317 120.581 52.724C121.338 53.1162 121.979 53.7012 122.438 54.42C123.402 55.9374 123.402 58.4902 123.402 60.3262V72.2601C123.377 72.4293 123.292 72.5837 123.161 72.6941C123.031 72.8045 122.864 72.8633 122.693 72.8595H118.988C118.826 72.8515 118.671 72.7873 118.551 72.6779C118.431 72.5686 118.353 72.4209 118.33 72.2601V61.9652C118.33 59.8693 118.573 56.8554 116.02 56.8554C115.555 56.8756 115.107 57.0295 114.727 57.2987C114.348 57.5679 114.055 57.9409 113.882 58.3728C113.426 59.5129 113.226 60.7392 113.295 61.9652V72.1763C113.288 72.3616 113.208 72.5366 113.074 72.6642C112.939 72.7918 112.76 72.8619 112.574 72.8595Z" fill="black"/>
<path fill-rule="evenodd" clip-rule="evenodd" d="M63.3367 63.7998C63.3367 65.2418 63.3702 66.4406 62.645 67.7191C62.4071 68.2021 62.044 68.6125 61.5935 68.9074C61.1431 69.2023 60.6217 69.3709 60.0839 69.3958C58.6671 69.3958 57.8371 68.3143 57.8371 66.7172C57.8371 63.5692 60.6623 62.995 63.3367 62.995V63.7998ZM67.0589 72.8121C66.9395 72.9133 66.792 72.9757 66.6361 72.9907C66.4803 73.0056 66.3236 72.9726 66.1871 72.8959C65.3382 72.2107 64.621 71.377 64.0702 70.4353C62.0414 72.5019 60.6036 73.118 57.9754 73.118C54.8651 73.118 52.4465 71.1982 52.4465 67.3586C52.4042 66.0691 52.7597 64.7979 53.4645 63.7174C54.1694 62.6368 55.1896 61.7992 56.3867 61.3183C58.3904 60.4422 61.1905 60.2787 63.3367 60.0398V59.5619C63.3367 58.6817 63.4037 57.6421 62.884 56.8792C62.6418 56.5641 62.327 56.3123 61.9664 56.1451C61.6058 55.978 61.2102 55.9005 60.8132 55.9193C59.4006 55.9193 58.1473 56.6445 57.8413 58.1409C57.822 58.3082 57.7492 58.4647 57.6336 58.5871C57.518 58.7095 57.3658 58.7912 57.1999 58.82L53.616 58.4302C53.5278 58.4187 53.443 58.3892 53.3668 58.3435C53.2906 58.2978 53.2246 58.2368 53.1731 58.1644C53.1215 58.092 53.0855 58.0097 53.0672 57.9227C53.0489 57.8357 53.0488 57.7459 53.0669 57.6589C53.9052 53.312 57.8119 52 61.3288 52C63.1271 52 65.4787 52.4821 66.8955 53.8402C68.6937 55.5169 68.5219 57.7595 68.5219 60.1991V65.9585C68.5219 67.6897 69.2387 68.4484 69.9135 69.3832C70.0431 69.5136 70.1157 69.6899 70.1157 69.8736C70.1157 70.0574 70.0431 70.2337 69.9135 70.3641C69.1548 70.997 67.8176 72.1623 67.0757 72.8204L67.0589 72.8121Z" fill="black"/>
<path fill-rule="evenodd" clip-rule="evenodd" d="M14.8935 63.7998C14.8935 65.2418 14.9271 66.4406 14.2019 67.7191C13.9651 68.202 13.6028 68.6125 13.153 68.9075C12.7031 69.2024 12.1823 69.3711 11.6449 69.3958C10.2239 69.3958 9.39397 68.3143 9.39397 66.7172C9.39397 63.5692 12.2192 62.995 14.8935 62.995V63.7998ZM18.62 72.8121C18.4997 72.9132 18.3515 72.9753 18.195 72.9903C18.0386 73.0053 17.8813 72.9723 17.7439 72.8959C16.8951 72.2107 16.1778 71.377 15.6271 70.4353C13.5983 72.5019 12.1605 73.118 9.5323 73.118C6.42202 73.118 4.00337 71.1982 4.00337 67.3586C3.96112 66.0691 4.31654 64.7979 5.02141 63.7174C5.72628 62.6368 6.74649 61.7992 7.94362 61.3183C9.94728 60.4422 12.7474 60.2787 14.8935 60.0398V59.5619C14.8935 58.6817 14.9606 57.6421 14.445 56.8792C14.1996 56.5613 13.8807 56.3078 13.5155 56.1406C13.1504 55.9734 12.7501 55.8974 12.3492 55.9193C10.9407 55.9193 9.68739 56.6445 9.3772 58.1409C9.35795 58.3082 9.28507 58.4647 9.16947 58.5871C9.05387 58.7095 8.90175 58.7912 8.73586 58.82L5.15611 58.4302C5.06759 58.4193 4.98229 58.3901 4.90559 58.3446C4.82889 58.2991 4.76245 58.2382 4.71046 58.1657C4.65847 58.0933 4.62206 58.0108 4.60353 57.9236C4.585 57.8363 4.58475 57.7462 4.60279 57.6589C5.44114 53.312 9.34786 52 12.8647 52C14.663 52 17.0146 52.4821 18.4314 53.8402C20.2296 55.5169 20.0578 57.7595 20.0578 60.1991V65.9585C20.0578 67.6897 20.7746 68.4484 21.4536 69.3832C21.5822 69.5141 21.6542 69.6902 21.6542 69.8736C21.6542 70.0571 21.5822 70.2332 21.4536 70.3641C20.6991 70.997 19.3578 72.1623 18.62 72.8204V72.8121Z" fill="black"/>
</svg>
