<svg width="128" height="128" viewBox="0 0 128 128" fill="none" xmlns="http://www.w3.org/2000/svg">
<path d="M7.08594 111.412H10.7363L8.89062 105.321L7.08594 111.412ZM12.418 117L11.3823 113.678H6.40918L5.4248 117H2.12305L7.25 102.45H10.7158L15.8428 117H12.418ZM30.7109 105.957C31.6885 105.957 32.4473 106.23 32.9873 106.777C33.5273 107.317 33.7974 108.079 33.7974 109.063V117H30.7314V109.73C30.7314 108.78 30.3042 108.305 29.4497 108.305C28.6909 108.305 27.9287 108.486 27.1631 108.848V117H24.0972V109.73C24.0972 108.78 23.6699 108.305 22.8154 108.305C22.0293 108.305 21.2568 108.493 20.498 108.869V117H17.4321V106.264H19.9546L20.2314 107.3C20.9766 106.808 21.6431 106.462 22.231 106.264C22.8257 106.059 23.4409 105.957 24.0767 105.957C25.3345 105.957 26.2231 106.404 26.7427 107.3C28.0757 106.404 29.3984 105.957 30.7109 105.957ZM40.3086 115.277C41.0264 115.277 41.7305 114.99 42.4209 114.416V112.591C41.8057 112.495 41.2554 112.447 40.77 112.447C39.5532 112.447 38.9414 112.936 38.9346 113.914C38.9346 114.344 39.0542 114.679 39.2935 114.918C39.5396 115.158 39.8779 115.277 40.3086 115.277ZM39.4473 117.338C38.4082 117.338 37.5776 117.044 36.9556 116.457C36.3335 115.869 36.0225 115.083 36.0225 114.098C36.0225 112.724 36.6719 111.733 37.9707 111.125C38.5996 110.831 39.2935 110.684 40.0522 110.684C40.8179 110.684 41.6074 110.772 42.4209 110.95V109.904C42.4209 109.262 42.2876 108.821 42.021 108.582C41.7612 108.342 41.1631 108.223 40.2266 108.223C39.2969 108.223 38.1416 108.438 36.7607 108.869V106.838C37.2803 106.572 37.9297 106.36 38.709 106.203C39.4951 106.039 40.2915 105.957 41.0981 105.957C42.5405 105.957 43.5933 106.247 44.2563 106.828C44.9263 107.409 45.2612 108.322 45.2612 109.566V117H42.8413L42.5952 116.057C42.1646 116.446 41.6621 116.757 41.0879 116.99C40.5205 117.222 39.9736 117.338 39.4473 117.338ZM47.3633 117V114.816L52.8799 108.541H47.5684V106.264H56.2637V108.448L50.6753 114.734H56.3662V117H47.3633ZM63.0723 114.959C64.542 114.953 65.2769 113.842 65.2769 111.627C65.2769 109.412 64.542 108.305 63.0723 108.305C61.6025 108.305 60.8677 109.412 60.8677 111.627C60.8677 113.842 61.6025 114.953 63.0723 114.959ZM66.979 115.821C66.0425 116.819 64.7402 117.318 63.0723 117.318C61.4111 117.318 60.1089 116.819 59.1655 115.821C58.229 114.816 57.7607 113.421 57.7607 111.637C57.7607 109.853 58.229 108.462 59.1655 107.464C60.1089 106.459 61.4111 105.957 63.0723 105.957C64.7402 105.957 66.0425 106.459 66.979 107.464C67.9155 108.462 68.3838 109.853 68.3838 111.637C68.3838 113.421 67.9155 114.816 66.979 115.821ZM77.6636 109.966C77.6636 108.858 77.1543 108.305 76.1357 108.305C75.3633 108.305 74.5977 108.544 73.8389 109.022V117H70.7729V106.264H73.2954L73.5928 107.423C74.8506 106.445 76.1938 105.957 77.6226 105.957C78.6138 105.957 79.3794 106.227 79.9194 106.767C80.4595 107.3 80.7295 108.065 80.7295 109.063V117H77.6636V109.966ZM89.4248 117V102.45H98.479V104.172H91.5679V108.643H97.3613V110.366H91.5679V115.277H98.479V117H89.4248ZM101.196 117V102.45H103.339V108.961L109.328 102.45H111.84L105.38 109.402L112.414 117H109.789L103.339 110.048V117H101.196ZM114.383 108.52C113.87 107.898 113.614 107.156 113.614 106.295C113.614 105.434 113.809 104.699 114.198 104.09C114.588 103.482 115.152 103.003 115.89 102.655C116.628 102.306 117.558 102.132 118.679 102.132C119.807 102.132 121.038 102.385 122.371 102.891V104.593C120.956 104.162 119.749 103.947 118.751 103.947C117.76 103.94 117.015 104.125 116.516 104.5C116.023 104.87 115.777 105.365 115.777 105.987C115.777 106.609 115.945 107.084 116.28 107.413C116.615 107.741 117.237 108.072 118.146 108.407L120.063 109.125C121.198 109.542 122.012 110.051 122.504 110.653C123.003 111.248 123.252 112.013 123.252 112.95C123.252 114.296 122.771 115.37 121.807 116.169C120.85 116.962 119.561 117.359 117.941 117.359C116.328 117.359 114.926 117.072 113.737 116.498V114.816C115.207 115.308 116.516 115.554 117.664 115.554C118.812 115.554 119.67 115.339 120.238 114.908C120.805 114.471 121.089 113.879 121.089 113.134C121.089 112.615 120.925 112.184 120.597 111.842C120.269 111.5 119.711 111.176 118.925 110.868L116.885 110.089C115.736 109.658 114.902 109.135 114.383 108.52Z" fill="black"/>
<path d="M63.9783 96.9999C63.6863 97.0027 63.3987 96.9284 63.1447 96.7845L24.8336 74.6626C24.5795 74.5162 24.3685 74.3052 24.2222 74.051C24.0758 73.7968 23.9991 73.5084 24 73.2151V28.9778C23.999 28.6842 24.0755 28.3955 24.2219 28.1409C24.3683 27.8864 24.5793 27.675 24.8336 27.5282L59.8146 7.22213C60.0684 7.07609 60.3562 6.99948 60.649 7C60.9419 7.00053 61.2294 7.07818 61.4827 7.22513C61.736 7.37208 61.9461 7.58316 62.0919 7.83712C62.2377 8.09107 62.314 8.37895 62.3132 8.67179V27.8426C62.314 28.1362 62.2374 28.4249 62.091 28.6794C61.9447 28.9339 61.7338 29.1453 61.4796 29.2923L43.9891 39.511V62.6151L63.9783 74.1586L81.4257 64.1639C81.6788 64.0178 81.9659 63.9408 82.2582 63.9408C82.5505 63.9408 82.8376 64.0178 83.0907 64.1639L99.7476 73.7816C100.004 73.9264 100.218 74.1368 100.367 74.3914C100.516 74.6459 100.594 74.9354 100.594 75.2302C100.594 75.525 100.516 75.8145 100.367 76.0691C100.218 76.3236 100.004 76.534 99.7476 76.6788L64.8076 96.7824C64.5548 96.9259 64.2689 97.0009 63.9783 96.9999ZM27.3279 72.2458L63.974 93.4178L95.6227 75.0934L82.298 67.3993L64.8076 77.5426C64.554 77.6887 64.2666 77.7656 63.974 77.7656C63.6814 77.7656 63.3939 77.6887 63.1404 77.5426L41.4862 65.0341C41.232 64.8871 41.0211 64.6757 40.8748 64.4212C40.7284 64.1667 40.6518 63.8781 40.6526 63.5845V38.5977C40.6518 38.3041 40.7284 38.0155 40.8748 37.761C41.0211 37.5065 41.232 37.295 41.4862 37.1481L58.9767 26.9703V11.5625L27.3279 29.8847V72.2458Z" fill="url(#paint0_linear_73_9)"/>
<path d="M102.288 71.0461C101.996 71.049 101.709 70.9747 101.455 70.8307L84.7978 61.2518C84.5412 61.114 84.3322 60.9018 84.1985 60.6431C84.0647 60.3843 84.0123 60.0912 84.0482 59.8021V39.5133L66.4737 29.5186C66.2196 29.3716 66.0087 29.1602 65.8623 28.9057C65.716 28.6512 65.6393 28.3625 65.6401 28.0689V8.86362C65.6391 8.56997 65.7157 8.28127 65.8621 8.02671C66.0084 7.77216 66.2194 7.56078 66.4737 7.41396C66.7299 7.27706 67.0158 7.20544 67.3063 7.20544C67.5967 7.20544 67.8826 7.27706 68.1388 7.41396L103.12 27.5197C103.374 27.6667 103.585 27.8781 103.731 28.1326C103.878 28.3871 103.954 28.6757 103.953 28.9693V69.3811C103.953 69.5997 103.91 69.8163 103.827 70.0183C103.743 70.2203 103.62 70.4038 103.466 70.5585C103.311 70.7131 103.128 70.8357 102.926 70.9194C102.723 71.0031 102.507 71.0461 102.288 71.0461ZM87.2965 58.8522L100.621 66.4818V29.9386L68.9724 11.7457V27.1233L86.4672 37.118C86.719 37.2639 86.9283 37.473 87.0745 37.7246C87.2208 37.9762 87.2987 38.2616 87.3008 38.5526L87.2965 58.8522Z" fill="url(#paint1_linear_73_9)"/>
<path d="M55.6494 63.6577V38.671H58.9924V50.0485L69.8206 38.671H74.2169L62.9127 50.8391L75.1905 63.6663H70.6413L58.9924 51.9958V63.6577H55.6494Z" fill="url(#paint2_linear_73_9)"/>
<defs>
<linearGradient id="paint0_linear_73_9" x1="30.6063" y1="28.3962" x2="87.63" y2="85.4191" gradientUnits="userSpaceOnUse">
<stop stop-color="#C8511B"/>
<stop offset="1" stop-color="#FF9900"/>
</linearGradient>
<linearGradient id="paint1_linear_73_9" x1="52.505" y1="2.93573" x2="111.028" y2="61.4556" gradientUnits="userSpaceOnUse">
<stop stop-color="#C8511B"/>
<stop offset="1" stop-color="#FF9900"/>
</linearGradient>
<linearGradient id="paint2_linear_73_9" x1="35.7486" y1="21.9729" x2="93.8471" y2="80.0706" gradientUnits="userSpaceOnUse">
<stop stop-color="#C8511B"/>
<stop offset="1" stop-color="#FF9900"/>
</linearGradient>
</defs>
</svg>
