<svg width="128" height="128" viewBox="0 0 128 128" fill="none" xmlns="http://www.w3.org/2000/svg">
<path d="M7.08594 111.312H10.7363L8.89062 105.221L7.08594 111.312ZM12.418 116.9L11.3823 113.578H6.40918L5.4248 116.9H2.12305L7.25 102.35H10.7158L15.8428 116.9H12.418ZM30.7109 105.857C31.6885 105.857 32.4473 106.13 32.9873 106.677C33.5273 107.217 33.7974 107.979 33.7974 108.964V116.9H30.7314V109.63C30.7314 108.68 30.3042 108.205 29.4497 108.205C28.6909 108.205 27.9287 108.386 27.1631 108.748V116.9H24.0972V109.63C24.0972 108.68 23.6699 108.205 22.8154 108.205C22.0293 108.205 21.2568 108.393 20.498 108.769V116.9H17.4321V106.164H19.9546L20.2314 107.2C20.9766 106.708 21.6431 106.362 22.231 106.164C22.8257 105.959 23.4409 105.857 24.0767 105.857C25.3345 105.857 26.2231 106.304 26.7427 107.2C28.0757 106.304 29.3984 105.857 30.7109 105.857ZM40.3086 115.177C41.0264 115.177 41.7305 114.89 42.4209 114.316V112.491C41.8057 112.395 41.2554 112.347 40.77 112.347C39.5532 112.347 38.9414 112.836 38.9346 113.814C38.9346 114.244 39.0542 114.579 39.2935 114.818C39.5396 115.058 39.8779 115.177 40.3086 115.177ZM39.4473 117.238C38.4082 117.238 37.5776 116.944 36.9556 116.357C36.3335 115.769 36.0225 114.983 36.0225 113.998C36.0225 112.624 36.6719 111.633 37.9707 111.025C38.5996 110.731 39.2935 110.584 40.0522 110.584C40.8179 110.584 41.6074 110.672 42.4209 110.85V109.804C42.4209 109.162 42.2876 108.721 42.021 108.482C41.7612 108.242 41.1631 108.123 40.2266 108.123C39.2969 108.123 38.1416 108.338 36.7607 108.769V106.738C37.2803 106.472 37.9297 106.26 38.709 106.103C39.4951 105.939 40.2915 105.857 41.0981 105.857C42.5405 105.857 43.5933 106.147 44.2563 106.728C44.9263 107.309 45.2612 108.222 45.2612 109.466V116.9H42.8413L42.5952 115.957C42.1646 116.346 41.6621 116.657 41.0879 116.89C40.5205 117.122 39.9736 117.238 39.4473 117.238ZM47.3633 116.9V114.716L52.8799 108.441H47.5684V106.164H56.2637V108.348L50.6753 114.634H56.3662V116.9H47.3633ZM63.0723 114.859C64.542 114.853 65.2769 113.742 65.2769 111.527C65.2769 109.312 64.542 108.205 63.0723 108.205C61.6025 108.205 60.8677 109.312 60.8677 111.527C60.8677 113.742 61.6025 114.853 63.0723 114.859ZM66.979 115.721C66.0425 116.719 64.7402 117.218 63.0723 117.218C61.4111 117.218 60.1089 116.719 59.1655 115.721C58.229 114.716 57.7607 113.321 57.7607 111.537C57.7607 109.753 58.229 108.362 59.1655 107.364C60.1089 106.359 61.4111 105.857 63.0723 105.857C64.7402 105.857 66.0425 106.359 66.979 107.364C67.9155 108.362 68.3838 109.753 68.3838 111.537C68.3838 113.321 67.9155 114.716 66.979 115.721ZM77.6636 109.866C77.6636 108.758 77.1543 108.205 76.1357 108.205C75.3633 108.205 74.5977 108.444 73.8389 108.922V116.9H70.7729V106.164H73.2954L73.5928 107.323C74.8506 106.345 76.1938 105.857 77.6226 105.857C78.6138 105.857 79.3794 106.127 79.9194 106.667C80.4595 107.2 80.7295 107.965 80.7295 108.964V116.9H77.6636V109.866ZM89.4248 116.9V102.35H98.479V104.072H91.5679V108.543H97.3613V110.266H91.5679V115.177H98.479V116.9H89.4248ZM102.55 115.259C101.367 113.988 100.776 112.135 100.776 109.702C100.776 107.268 101.388 105.399 102.611 104.093C103.835 102.794 105.588 102.141 107.872 102.134C109.061 102.134 110.182 102.326 111.235 102.709V104.452C109.963 104.158 108.928 104.011 108.128 104.011C106.364 104.004 105.076 104.431 104.262 105.293C103.449 106.154 103.042 107.525 103.042 109.404V109.907C103.042 111.753 103.438 113.109 104.231 113.978C105.024 114.846 106.282 115.28 108.005 115.28C108.887 115.28 110.032 115.106 111.44 114.757V116.5C110.305 116.931 109.082 117.15 107.769 117.156C105.472 117.163 103.732 116.531 102.55 115.259ZM114.178 108.42C113.665 107.798 113.409 107.056 113.409 106.195C113.409 105.334 113.604 104.599 113.993 103.99C114.383 103.382 114.947 102.903 115.685 102.555C116.423 102.206 117.353 102.032 118.474 102.032C119.602 102.032 120.833 102.285 122.166 102.791V104.493C120.75 104.062 119.544 103.847 118.546 103.847C117.555 103.84 116.81 104.025 116.311 104.401C115.818 104.77 115.572 105.265 115.572 105.887C115.572 106.509 115.74 106.984 116.075 107.313C116.41 107.641 117.032 107.972 117.941 108.307L119.858 109.025C120.993 109.442 121.807 109.951 122.299 110.553C122.798 111.148 123.047 111.913 123.047 112.85C123.047 114.196 122.565 115.27 121.602 116.069C120.645 116.862 119.356 117.259 117.736 117.259C116.123 117.259 114.721 116.972 113.532 116.398V114.716C115.001 115.208 116.311 115.454 117.459 115.454C118.607 115.454 119.465 115.239 120.033 114.808C120.6 114.371 120.884 113.779 120.884 113.034C120.884 112.515 120.72 112.084 120.392 111.742C120.063 111.401 119.506 111.076 118.72 110.768L116.68 109.989C115.531 109.558 114.697 109.035 114.178 108.42Z" fill="black"/>
<path d="M63.9783 96.9999C63.6863 97.0027 63.3987 96.9284 63.1447 96.7845L24.8336 74.6626C24.5795 74.5162 24.3685 74.3052 24.2222 74.051C24.0758 73.7968 23.9991 73.5084 24 73.2151V28.9778C23.999 28.6842 24.0755 28.3955 24.2219 28.1409C24.3683 27.8864 24.5793 27.675 24.8336 27.5282L59.8146 7.22213C60.0684 7.07609 60.3562 6.99948 60.649 7C60.9419 7.00053 61.2294 7.07818 61.4827 7.22513C61.736 7.37208 61.9461 7.58316 62.0919 7.83712C62.2377 8.09107 62.314 8.37895 62.3132 8.67179V27.8426C62.314 28.1362 62.2374 28.4249 62.091 28.6794C61.9447 28.9339 61.7338 29.1453 61.4796 29.2923L43.9891 39.511V62.6151L63.9783 74.1586L81.4257 64.1639C81.6788 64.0178 81.9659 63.9408 82.2582 63.9408C82.5505 63.9408 82.8376 64.0178 83.0907 64.1639L99.7476 73.7816C100.004 73.9264 100.218 74.1368 100.367 74.3914C100.516 74.6459 100.594 74.9354 100.594 75.2302C100.594 75.525 100.516 75.8145 100.367 76.0691C100.218 76.3236 100.004 76.534 99.7476 76.6788L64.8076 96.7824C64.5548 96.9259 64.2689 97.0009 63.9783 96.9999ZM27.3279 72.2458L63.974 93.4178L95.6227 75.0934L82.298 67.3993L64.8076 77.5426C64.554 77.6887 64.2666 77.7656 63.974 77.7656C63.6814 77.7656 63.3939 77.6887 63.1404 77.5426L41.4862 65.0341C41.232 64.8871 41.0211 64.6757 40.8748 64.4212C40.7284 64.1667 40.6518 63.8781 40.6526 63.5845V38.5977C40.6518 38.3041 40.7284 38.0155 40.8748 37.761C41.0211 37.5065 41.232 37.295 41.4862 37.1481L58.9767 26.9703V11.5625L27.3279 29.8847V72.2458Z" fill="url(#paint0_linear_73_16)"/>
<path d="M102.288 71.0461C101.996 71.049 101.709 70.9747 101.455 70.8307L84.7978 61.2518C84.5412 61.114 84.3322 60.9018 84.1985 60.6431C84.0647 60.3843 84.0123 60.0912 84.0482 59.8021V39.5133L66.4737 29.5186C66.2196 29.3716 66.0087 29.1602 65.8623 28.9057C65.716 28.6512 65.6393 28.3625 65.6401 28.0689V8.86362C65.6391 8.56997 65.7157 8.28127 65.8621 8.02671C66.0084 7.77216 66.2194 7.56078 66.4737 7.41396C66.7299 7.27706 67.0158 7.20544 67.3063 7.20544C67.5967 7.20544 67.8826 7.27706 68.1388 7.41396L103.12 27.5197C103.374 27.6667 103.585 27.8781 103.731 28.1326C103.878 28.3871 103.954 28.6757 103.953 28.9693V69.3811C103.953 69.5997 103.91 69.8163 103.827 70.0183C103.743 70.2203 103.62 70.4038 103.466 70.5585C103.311 70.7131 103.128 70.8357 102.926 70.9194C102.723 71.0031 102.507 71.0461 102.288 71.0461ZM87.2965 58.8522L100.621 66.4818V29.9386L68.9724 11.7457V27.1233L86.4672 37.118C86.719 37.2639 86.9283 37.473 87.0745 37.7246C87.2208 37.9762 87.2987 38.2616 87.3008 38.5526L87.2965 58.8522Z" fill="url(#paint1_linear_73_16)"/>
<defs>
<linearGradient id="paint0_linear_73_16" x1="30.6063" y1="28.3962" x2="87.63" y2="85.4191" gradientUnits="userSpaceOnUse">
<stop stop-color="#C8511B"/>
<stop offset="1" stop-color="#FF9900"/>
</linearGradient>
<linearGradient id="paint1_linear_73_16" x1="52.505" y1="2.93573" x2="111.028" y2="61.4556" gradientUnits="userSpaceOnUse">
<stop stop-color="#C8511B"/>
<stop offset="1" stop-color="#FF9900"/>
</linearGradient>
</defs>
</svg>
