<svg width="128" height="128" viewBox="0 0 128 128" fill="none" xmlns="http://www.w3.org/2000/svg">
<path d="M20.392 42.3123C19.4214 42.3121 18.4602 42.5031 17.5633 42.8744C16.6665 43.2457 15.8516 43.79 15.1652 44.4763C14.4787 45.1626 13.9342 45.9774 13.5627 46.8741C13.1912 47.7709 13 48.732 13 49.7027V80.7545C13 82.715 13.7788 84.5952 15.1651 85.9814C16.5513 87.3677 18.4315 88.1465 20.392 88.1465C22.3525 88.1465 24.2327 87.3677 25.619 85.9814C27.0052 84.5952 27.784 82.715 27.784 80.7545V49.7027C27.784 48.732 27.5928 47.7709 27.2213 46.8741C26.8498 45.9774 26.3053 45.1626 25.6189 44.4763C24.9324 43.79 24.1175 43.2457 23.2207 42.8744C22.3239 42.5031 21.3627 42.3121 20.392 42.3123Z" fill="#A4CA39"/>
<path d="M114.774 49.7025C114.774 47.742 113.995 45.8618 112.609 44.4756C111.222 43.0893 109.342 42.3105 107.382 42.3105C105.421 42.3105 103.541 43.0893 102.155 44.4756C100.769 45.8618 99.9897 47.742 99.9897 49.7025V80.7543C99.9897 82.7148 100.769 84.595 102.155 85.9813C103.541 87.3675 105.421 88.1464 107.382 88.1464C109.342 88.1464 111.222 87.3675 112.609 85.9813C113.995 84.595 114.774 82.7148 114.774 80.7543V49.7025Z" fill="#A4CA39"/>
<path d="M30.8021 43.6047H30.4341V92.3381C30.4398 94.2973 31.2206 96.1746 32.6059 97.5599C33.9913 98.9453 35.8686 99.7261 37.8278 99.7318H44.0558V116.717C44.0849 118.659 44.8766 120.511 46.2599 121.874C47.6431 123.236 49.5069 124 51.4486 124C53.3903 124 55.2541 123.236 56.6374 121.874C58.0206 120.511 58.8123 118.659 58.8415 116.717V99.7318H68.9295V116.717C68.9587 118.659 69.7504 120.511 71.1336 121.874C72.5169 123.236 74.3807 124 76.3224 124C78.2641 124 80.1279 123.236 81.5111 121.874C82.8944 120.511 83.6861 118.659 83.7152 116.717V99.7318H89.9449C91.9041 99.7261 93.7814 98.9453 95.1667 97.5599C96.5521 96.1746 97.3329 94.2973 97.3386 92.3381V43.6047H30.8021Z" fill="#A4CA39"/>
<path d="M97.2773 41.0168V37.4532C97.1814 36.4496 97.029 35.4522 96.821 34.4657C94.9892 25.7965 88.9411 18.4528 80.6448 14.1881L85.7488 4.77278C85.8239 4.63413 85.871 4.48205 85.8873 4.32521C85.9037 4.16837 85.889 4.00985 85.844 3.8587C85.7991 3.70755 85.7249 3.56672 85.6255 3.44426C85.5262 3.32181 85.4037 3.22012 85.265 3.145C85.1264 3.06988 84.9743 3.02281 84.8175 3.00647C84.6606 2.99012 84.5021 3.00483 84.351 3.04975C84.1998 3.09467 84.059 3.16893 83.9365 3.26827C83.8141 3.36762 83.7124 3.49011 83.6373 3.62875L78.475 13.1639C73.8641 11.2118 68.907 10.2094 63.8999 10.2165C58.8928 10.2237 53.9385 11.2403 49.3332 13.2056L44.141 3.62875C44.0659 3.49011 43.9642 3.36762 43.8417 3.26827C43.7193 3.16893 43.5784 3.09467 43.4273 3.04975C43.2761 3.00483 43.1176 2.99012 42.9608 3.00647C42.8039 3.02281 42.6519 3.06988 42.5132 3.145C42.3746 3.22012 42.2521 3.32181 42.1527 3.44426C42.0534 3.56672 41.9791 3.70755 41.9342 3.8587C41.8893 4.00985 41.8746 4.16837 41.8909 4.32521C41.9073 4.48205 41.9543 4.63413 42.0295 4.77278L47.1601 14.238C39.2518 18.3345 33.4002 25.2286 31.3253 33.41C30.7777 35.5648 30.5008 37.7794 30.501 40.0027C30.501 40.3357 30.511 40.6804 30.5226 41.0168H97.2773ZM79.1028 22.904C79.7243 22.904 80.3318 23.0883 80.8486 23.4335C81.3653 23.7788 81.7681 24.2696 82.0059 24.8438C82.2438 25.4179 82.306 26.0498 82.1847 26.6593C82.0635 27.2689 81.7642 27.8288 81.3248 28.2682C80.8853 28.7077 80.3254 29.007 79.7158 29.1282C79.1063 29.2495 78.4745 29.1872 77.9003 28.9494C77.3261 28.7116 76.8354 28.3088 76.4901 27.7921C76.1448 27.2753 75.9605 26.6678 75.9605 26.0463C75.9605 25.2129 76.2916 24.4136 76.8809 23.8243C77.4702 23.235 78.2694 22.904 79.1028 22.904ZM48.6688 22.904C49.2903 22.904 49.8978 23.0883 50.4146 23.4335C50.9313 23.7788 51.3341 24.2696 51.5719 24.8438C51.8098 25.4179 51.872 26.0498 51.7507 26.6593C51.6295 27.2689 51.3302 27.8288 50.8908 28.2682C50.4513 28.7077 49.8914 29.007 49.2818 29.1282C48.6723 29.2495 48.0405 29.1872 47.4663 28.9494C46.8921 28.7116 46.4013 28.3088 46.0561 27.7921C45.7108 27.2753 45.5265 26.6678 45.5265 26.0463C45.5265 25.2129 45.8575 24.4136 46.4468 23.8243C47.0361 23.235 47.8354 22.904 48.6688 22.904Z" fill="#A4CA39"/>
</svg>
