<svg width="128" height="128" viewBox="0 0 128 128" fill="none" xmlns="http://www.w3.org/2000/svg">
<path d="M109.188 102.207C110.53 102.207 112.967 99.8519 113.652 95.361C113.675 95.149 113.711 94.9386 113.761 94.7312C113.021 94.4785 112.218 94.4756 111.476 94.7229C110.734 94.9702 110.094 95.4541 109.654 96.1004C108.771 97.3816 108.294 98.8986 108.284 100.454C108.284 101.604 108.613 102.207 109.161 102.207H109.188ZM104.779 100.975C104.794 98.5601 105.723 96.2408 107.381 94.4848C109.133 92.6592 111.269 92.2347 113.213 92.2347C114.608 92.3221 115.992 92.5344 117.348 92.8691C117.074 94.074 116.436 98.6197 116.116 101.248C115.985 102.329 115.939 103.419 115.979 104.507C114.988 104.825 113.954 104.991 112.912 105C112.666 105 112.611 103.877 112.693 102.809C112.721 102.453 112.775 101.933 112.803 101.714C111.735 103.494 109.608 105 107.408 105C105.82 105 104.779 103.686 104.779 101.002V100.975Z" fill="#373535"/>
<path d="M99.5223 96.1825C100.974 92.9467 102.717 92.2347 103.822 92.2347C104.251 92.2584 104.658 92.433 104.972 92.7276C105.081 93.6404 104.369 95.4386 103.739 96.1232C103.369 95.9211 102.956 95.8085 102.534 95.7946C101.622 95.7946 99.7687 97.2505 98.6186 103.494C98.5365 104.014 98.3722 104.233 98.071 104.37C97.6146 104.644 95.789 104.863 94.8762 104.89C95.287 102.645 95.9989 98.072 96.2728 95.3838C96.3575 94.5743 96.3758 93.7592 96.3276 92.9467C97.3117 92.5993 98.331 92.3605 99.3671 92.2347C99.6136 92.2347 99.8235 93.7454 99.4219 96.1825H99.5223Z" fill="#373535"/>
<path d="M85.2821 102.179C86.487 102.179 88.9332 99.9336 89.6087 95.963C89.6361 95.744 89.7182 95.3332 89.773 95.0822C89.562 94.8922 89.3154 94.7459 89.0475 94.6519C88.7795 94.5578 88.4956 94.518 88.2121 94.5345C85.4464 94.5345 84.2141 97.8525 84.2141 100.235C84.2141 101.522 84.6705 102.179 85.2547 102.179H85.2821ZM83.4565 105C81.704 105 80.6086 103.439 80.6086 100.755C80.6086 96.319 83.3744 92.2343 88.0296 92.2343C88.7359 92.224 89.4333 92.3936 90.056 92.7272C90.3024 91.4676 90.8775 87.5791 90.9048 86.429C91.9455 86.2355 92.9973 86.1075 94.0539 86.0457C94.3552 86.0457 94.4373 86.3469 94.3278 87.0315C93.6706 91.139 92.5022 99.03 92.274 100.783C92.1366 102.028 92.0817 103.281 92.1097 104.534C91.2334 104.917 89.4535 104.99 88.988 104.99C88.7963 104.99 88.6868 103.731 88.7415 102.608C88.7689 102.252 88.8237 101.732 88.8237 101.65C87.4545 103.895 85.5651 104.99 83.4839 104.99L83.4565 105Z" fill="#373535"/>
<path d="M71.3729 95.7946C72.6325 93.7682 74.2755 92.2347 76.5757 92.2347C78.52 92.2347 79.1498 94.0603 78.7938 96.6161C78.6021 97.8255 78.2735 99.5507 78.0544 101.139C77.8674 102.252 77.7667 103.378 77.7532 104.507C77.0412 104.863 74.9601 105 74.4946 105C74.3029 105 74.2755 103.494 74.522 101.906C74.741 100.591 75.2066 98.2089 75.4348 96.8352C75.5717 96.0456 75.5443 95.0826 74.7776 95.0826C73.7644 95.0826 71.3546 96.7028 70.1497 103.33C70.1355 103.541 70.074 103.747 69.9698 103.932C69.8655 104.117 69.7212 104.276 69.5473 104.398C69.1365 104.644 68.2603 104.854 66.4803 104.89C66.8089 103.22 67.3292 99.7971 67.7126 97.2779C68.0686 94.9959 68.2055 93.4944 68.1234 92.9193C69.1747 92.6317 70.2412 92.4032 71.3181 92.2347C71.6193 92.2347 71.6741 93.0836 71.4002 95.142C71.3729 95.3336 71.3455 95.6303 71.3181 95.7946H71.3729Z" fill="#373535"/>
<path d="M57.0218 102.207C58.3636 102.207 60.8007 99.8519 61.4853 95.361C61.5085 95.149 61.5451 94.9386 61.5948 94.7312C60.8547 94.4785 60.0521 94.4756 59.3101 94.7229C58.5681 94.9702 57.9278 95.4541 57.4873 96.1004C56.6047 97.3816 56.1277 98.8986 56.1181 100.454C56.1181 101.604 56.4467 102.207 56.9944 102.207H57.0218ZM52.613 100.975C52.6275 98.5601 53.5571 96.2408 55.2145 94.4848C56.967 92.6592 59.1029 92.2347 61.0472 92.2347C62.4417 92.3221 63.8255 92.5344 65.1821 92.8691C64.9082 94.074 64.2693 98.6197 63.9498 101.248C63.8187 102.329 63.7729 103.419 63.8129 104.507C62.8213 104.825 61.7873 104.991 60.7459 105C60.4995 105 60.4447 103.877 60.5269 102.809C60.5543 102.453 60.609 101.933 60.6364 101.714C59.5684 103.494 57.4417 105 55.2419 105C53.6536 105 52.613 103.686 52.613 101.002V100.975Z" fill="#373535"/>
<path d="M48.3969 92.2346C49.3737 92.1953 50.3303 92.5206 51.0805 93.1474C51.0531 93.9187 50.4507 95.2011 49.4923 94.8451C49.0531 94.6867 48.59 94.6049 48.1231 94.6033C47.3837 94.6033 46.7539 94.9319 46.7539 95.6119C46.7539 96.1322 47.1373 96.5247 48.972 97.8071C50.2864 98.7656 50.7976 99.6327 50.7976 100.819C50.7976 102.818 48.9081 104.982 45.6221 104.982C44.2803 104.982 43.1028 104.461 42.7194 103.914C42.2265 103.092 42.6099 101.477 43.1758 101.75C44.0603 102.193 45.0268 102.448 46.0146 102.499C46.9273 102.499 47.4933 102.088 47.4933 101.54C47.4933 101.084 47.0825 100.664 45.4121 99.4866C44.0156 98.4461 43.5866 97.4877 43.5866 96.3923C43.5866 94.1104 45.5308 92.2255 48.3787 92.2255L48.3969 92.2346Z" fill="#373535"/>
<path d="M38.9512 92.2346C39.9281 92.1953 40.8846 92.5206 41.6348 93.1474C41.6075 93.9187 41.005 95.2011 40.0466 94.8451C39.6074 94.6867 39.1443 94.6049 38.6774 94.6033C37.9381 94.6033 37.3082 94.9319 37.3082 95.6119C37.3082 96.1322 37.6916 96.5247 39.5263 97.8071C40.8407 98.7656 41.3519 99.6327 41.3519 100.819C41.3519 102.818 39.4624 104.982 36.1764 104.982C34.8346 104.982 33.6571 104.461 33.2737 103.914C32.7808 103.092 33.1642 101.477 33.7301 101.75C34.6146 102.193 35.5811 102.448 36.5689 102.499C37.4817 102.499 38.0476 102.088 38.0476 101.54C38.0476 101.084 37.6368 100.664 35.9664 99.4866C34.5699 98.4461 34.1409 97.4877 34.1409 96.3923C34.1409 94.1104 36.0851 92.2255 38.933 92.2255L38.9512 92.2346Z" fill="#373535"/>
<path d="M23.993 102.207C25.3348 102.207 27.772 99.8519 28.4566 95.361C28.4771 95.1522 28.5106 94.9449 28.557 94.7403C27.8168 94.4876 27.0142 94.4847 26.2722 94.732C25.5303 94.9793 24.8899 95.4633 24.4494 96.1095C23.5668 97.3907 23.0898 98.9077 23.0803 100.463C23.0803 101.614 23.4089 102.216 23.9565 102.216L23.993 102.207ZM19.5843 100.975C19.5938 98.5625 20.5168 96.2436 22.1675 94.4848C23.92 92.6592 26.0559 92.2347 28.0002 92.2347C29.3947 92.3221 30.7785 92.5344 32.1351 92.8691C31.8612 94.074 31.2223 98.6197 30.9028 101.248C30.7717 102.329 30.7259 103.419 30.7659 104.507C29.7743 104.825 28.7403 104.991 27.6989 105C27.4525 105 27.3977 103.877 27.4799 102.809C27.5073 102.453 27.562 101.933 27.5894 101.714C26.5215 103.494 24.3947 105 22.1949 105C20.6066 105 19.566 103.686 19.566 101.002L19.5843 100.975Z" fill="#373535"/>
<path d="M15.9194 92.2347C16.96 92.2347 17.9458 92.4812 18.4387 92.9741C18.5208 93.7454 17.8362 94.9777 17.3981 94.9777C16.8831 94.7766 16.3353 94.6729 15.7825 94.6719C13.2906 94.6719 12.0583 97.2505 12.0583 99.7971C12.0583 101.385 12.606 102.344 13.8839 102.344C15.2257 102.344 16.5949 101.431 17.3616 100.756C17.5075 100.892 17.6235 101.058 17.702 101.242C17.7806 101.425 17.8201 101.624 17.818 101.824C17.8217 102.116 17.7638 102.406 17.6483 102.675C17.5327 102.944 17.362 103.186 17.1471 103.384C16.2708 104.261 14.7921 105 12.6562 105C10.1917 105 8.4939 103.603 8.4939 100.345C8.4939 96.073 11.3144 92.2347 15.9148 92.2347H15.9194Z" fill="#373535"/>
<path d="M101.145 45.8295C102.058 56.3584 85.4815 66.3671 64.1407 68.1927C42.7998 70.0182 24.7723 62.9852 23.8687 52.4608C22.965 41.9365 39.532 31.9232 60.8729 30.0977C82.2138 28.2721 100.241 35.3142 101.145 45.8432" fill="#BBE6FB"/>
<path opacity="0.35" d="M61.501 31.3021C53.359 31.1835 43.8341 34.4147 36.7737 37.4406C36.0127 39.6037 35.6209 41.8793 35.6145 44.1724C35.6145 56.6592 46.8874 66.782 60.7982 66.782C74.709 66.782 85.9819 56.6592 85.9819 44.1724C85.9767 40.3209 84.8989 36.547 82.8693 33.2737C75.7986 32.1398 68.6598 31.4811 61.501 31.3021Z" fill="white"/>
<path d="M60.7972 31.3026C56.2926 31.0242 48.5248 33.3746 42.0486 35.7205C41.0358 38.1018 40.5142 40.6632 40.5151 43.2509C40.5151 54.2043 50.4371 63.0629 60.9295 63.0629C71.3535 63.0629 80.5544 54.1815 81.3439 43.2509C81.5904 39.6957 80.3672 36.3412 78.6649 33.4522C72.7501 32.4277 66.7862 31.7102 60.7972 31.3026Z" fill="white"/>
<path d="M49.2331 41.8318C49.7854 40.6041 50.6023 40.0062 51.4329 38.9794C51.2922 38.5523 51.1958 38.1118 51.1454 37.6649C51.1455 37.3012 51.2348 36.9429 51.4054 36.6216C51.5759 36.3003 51.8226 36.0256 52.1238 35.8216C52.4251 35.6177 52.7717 35.4906 53.1334 35.4515C53.4951 35.4124 53.8608 35.4626 54.1987 35.5975C56.0861 34.1583 58.2661 33.1504 60.5852 32.645C62.9043 32.1395 65.306 32.1488 67.6211 32.672C68.0775 32.7724 68.502 32.8911 68.931 33.0234C64.1115 32.3389 58.6804 34.0412 54.9745 37.0306C55.1746 37.4543 55.3188 37.9023 55.4035 38.3632C55.4035 39.5955 54.6048 39.8967 53.3772 39.8967C53.1054 39.8965 52.836 39.8454 52.583 39.7461C51.6237 41.183 50.832 42.725 50.2235 44.342C52.2909 46.1721 54.1165 46.8202 56.5217 47.7329C56.5217 47.6188 56.6038 47.5139 56.6038 47.3952C56.6038 43.6848 59.8716 40.668 63.5821 40.668C65.1669 40.6694 66.7002 41.2314 67.9105 42.2546C69.1209 43.2778 69.9301 44.6962 70.1952 46.2588C71.8565 45.2045 73.4584 44.3967 74.6815 42.8313C74.3373 42.2805 74.1335 41.6537 74.0882 41.0057C74.0882 40.4695 74.3012 39.9553 74.6804 39.5761C75.0595 39.1969 75.5738 38.9839 76.11 38.9839C76.2637 38.9862 76.4166 39.0045 76.5664 39.0387C77.182 37.758 77.6417 36.4081 77.9356 35.0179C72.1577 30.7324 60.9304 31.3028 60.9304 31.3028C60.9304 31.3028 51.9989 30.8465 45.9517 33.7856C46.3661 36.6928 47.4934 39.4523 49.2331 41.8181" fill="#373535"/>
<path d="M76.9621 40.1568C77.2888 40.4438 77.5636 40.785 77.7745 41.1654C78.3176 42.1421 77.2269 43.0366 76.1087 43.0366C75.9983 43.0335 75.8884 43.0212 75.7801 43.0001C74.5204 44.9671 72.3161 47.491 70.3582 48.7597C73.3181 49.207 76.1076 50.427 78.4454 52.2968C80.2458 48.9781 81.2387 45.2818 81.3435 41.5077C81.357 40.3062 81.0892 39.1183 80.5614 38.039C80.0336 36.9596 79.2605 36.0187 78.3039 35.2916C78.2081 36.7612 77.4231 38.8195 76.9621 40.1568Z" fill="#373535"/>
<path d="M52.6004 58.7685C53.5999 56.0073 56.0599 53.8668 58.3875 51.9865C57.9595 51.3002 57.5988 50.5742 57.3104 49.8186C54.5045 48.9653 51.9814 47.3695 50.0081 45.2C50.0081 45.2638 49.9762 45.3232 49.9625 45.3871C49.6049 46.9938 49.52 48.6493 49.7114 50.2842C50.3822 50.4098 50.9879 50.7659 51.4238 51.291C51.8597 51.8161 52.0983 52.477 52.0984 53.1594C52.0984 54.0083 51.3545 55.2406 50.7748 55.7745C51.2532 56.8463 51.8667 57.8524 52.6004 58.7685Z" fill="#373535"/>
<path d="M52.4224 61.0868C51.2312 59.9002 50.4052 57.5361 49.6338 56.0665C49.483 56.0921 49.3304 56.1059 49.1775 56.1075C47.5618 56.1075 45.8641 54.7384 46.2474 53.1775C46.4619 52.3058 47.0598 51.7399 48.0365 51.2652C47.7653 49.1797 47.8145 47.065 48.1825 44.9944C48.3363 44.5515 48.5177 44.1186 48.7256 43.6983C46.842 40.9066 45.8199 37.6231 45.7865 34.2555C45.7865 34.1277 45.7865 34.0045 45.7865 33.8813C42.7788 35.4102 40.5151 37.7697 40.5151 41.5213C40.5151 49.823 45.2981 57.9514 52.4087 61.1461V61.0777" fill="#373535"/>
<path d="M69.9116 49.6131C69.5602 50.624 68.972 51.5361 68.196 52.2731C67.4201 53.0101 66.4789 53.5507 65.4513 53.8496C64.4237 54.1485 63.3394 54.1971 62.2892 53.9912C61.239 53.7854 60.2533 53.3311 59.4146 52.6664C57.0642 54.4919 54.9283 57.7232 53.842 60.5163C54.2667 61.0191 54.7241 61.4932 55.2112 61.9357C56.8542 62.3647 59.1225 61.9357 60.907 61.9357C68.0769 61.9357 74.4299 58.7409 78.0719 53.1501C75.6484 51.4752 72.796 49.8778 69.8888 49.6131" fill="#373535"/>
<path d="M49.0489 42.7987C49.5941 41.5924 50.2837 40.4568 51.1027 39.4168C51.011 39.1667 50.9632 38.9027 50.9612 38.6364C50.9618 38.3429 51.0203 38.0525 51.1333 37.7816C51.2463 37.5108 51.4116 37.2649 51.6197 37.058C51.8278 36.8511 52.0747 36.6874 52.3463 36.576C52.6178 36.4647 52.9086 36.408 53.2021 36.4092C53.4838 36.4075 53.763 36.4618 54.0236 36.5689C55.9101 35.126 58.0901 34.1142 60.4099 33.6048C62.7298 33.0954 65.1331 33.1008 67.4506 33.6206C67.907 33.7211 68.3315 33.8443 68.7605 33.9766C66.3701 33.6664 63.9416 33.8425 61.621 34.4942C59.3003 35.146 57.1353 36.2599 55.2558 37.7692C55.4052 38.109 55.4672 38.4808 55.436 38.8507C55.4048 39.2206 55.2814 39.5767 55.0772 39.8867C54.873 40.1967 54.5944 40.4505 54.2669 40.6252C53.9393 40.7998 53.5732 40.8896 53.2021 40.8864C52.9321 40.8873 52.6643 40.8378 52.4125 40.7404C51.5687 41.8718 50.8881 43.1162 50.3907 44.4371C52.1362 46.3384 54.3003 47.8072 56.7117 48.7272C56.7117 48.6085 56.7117 48.499 56.7117 48.3803C56.7125 46.6983 57.3447 45.0778 58.4832 43.8395C59.6216 42.6013 61.1835 41.8355 62.8596 41.6938C64.5357 41.552 66.2039 42.0447 67.5342 43.0741C68.8644 44.1036 69.7597 45.595 70.0429 47.2531C71.7114 46.1874 73.1842 44.8428 74.3969 43.2779C74.152 42.9852 73.9953 42.6289 73.9452 42.2506C73.8951 41.8722 73.9536 41.4874 74.1138 41.1411C74.2741 40.7947 74.5296 40.501 74.8504 40.2943C75.1712 40.0876 75.5442 39.9764 75.9258 39.9736C76.0798 39.9745 76.2331 39.9944 76.3822 40.0329C77.0057 38.7517 77.473 37.4002 77.7742 36.0076C71.9689 31.7129 60.7462 32.3017 60.7462 32.3017C60.7462 32.3017 51.8146 31.8453 45.7675 34.7799C46.1806 37.6874 47.3081 40.4472 49.0489 42.8124" fill="#1287B1"/>
<path d="M77.277 40.4902C77.6058 40.7802 77.8306 41.1698 77.9171 41.5996C78.0037 42.0294 77.9472 42.4757 77.7564 42.8703C77.5655 43.265 77.2507 43.5864 76.8601 43.7854C76.4694 43.9844 76.0244 44.0501 75.5929 43.9724C74.3368 45.9396 72.6731 47.6143 70.7141 48.8832C73.6061 49.3369 76.3233 50.5584 78.5823 52.4202C80.2749 49.3859 81.1612 45.9682 81.1564 42.4937C81.1735 41.2898 80.9073 40.0986 80.3793 39.0165C79.8513 37.9343 79.0763 36.9915 78.1168 36.264C78.0236 37.7035 77.7413 39.1244 77.277 40.4902Z" fill="#1287B1"/>
<path d="M52.9098 59.4346C53.9128 56.6374 55.6634 54.1687 57.9712 52.2967C57.629 51.827 57.3497 51.3145 57.1406 50.7723C54.3354 49.9199 51.8125 48.3257 49.8383 46.1582C49.8383 46.2175 49.8063 46.2814 49.7881 46.3408C49.4358 47.953 49.3556 49.6128 49.5508 51.2515C50.083 51.3519 50.577 51.5981 50.9776 51.9626C51.3783 52.3272 51.6698 52.7958 51.8198 53.3163C51.9698 53.8367 51.9724 54.3886 51.8272 54.9105C51.682 55.4323 51.3948 55.9036 50.9975 56.2718C51.5246 57.3895 52.1686 58.4482 52.9189 59.4301" fill="#1287B1"/>
<path d="M52.4177 61.054C51.2262 59.8696 50.2241 58.5088 49.4465 57.0195C49.2957 57.0441 49.143 57.0563 48.9901 57.056C48.3294 57.0514 47.6896 56.8236 47.1746 56.4096C46.6596 55.9956 46.2997 55.4197 46.1533 54.7753C46.0069 54.131 46.0825 53.456 46.368 52.8601C46.6535 52.2642 47.1321 51.7823 47.7259 51.4926C47.4996 49.6437 47.5922 47.7696 47.9998 45.952C48.1249 45.4227 48.2772 44.9002 48.4562 44.3866C46.6089 41.6843 45.6225 38.4864 45.6265 35.2131C45.6265 35.0899 45.6265 34.9667 45.6265 34.8434C42.5961 36.3541 40.3324 38.741 40.3324 42.4926C40.3335 46.4307 41.4732 50.2846 43.6141 53.5899C45.7551 56.8952 48.806 59.5111 52.3994 61.1225C52.3973 61.0997 52.3973 61.0768 52.3994 61.054" fill="#1287B1"/>
<path d="M69.7286 50.5844C69.3772 51.5953 68.789 52.5074 68.013 53.2444C67.2371 53.9815 66.2959 54.522 65.2683 54.8209C64.2407 55.1198 63.1564 55.1684 62.1062 54.9625C61.056 54.7567 60.0703 54.3024 59.2316 53.6377C56.8821 55.4985 55.0796 57.9602 54.015 60.7619C54.5032 61.2875 55.023 61.7828 55.5713 62.2452C59.7208 63.3296 64.1065 63.0789 68.1054 61.5288C72.1044 59.9788 75.5132 57.2081 77.8478 53.6103C75.4427 51.9181 72.6412 50.8758 69.7149 50.5844" fill="#1287B1"/>
<path d="M69.968 48.8505L76.175 47.3717L69.9452 47.0523L75.0112 43.1684L69.2606 45.2313L73.1719 39.8139L67.7682 43.4011L69.6577 37.0619L65.9518 42.2875L65.8651 35.6836L63.4234 41.5665L61.3924 35.6334L61.502 42.6481L57.9832 36.3636L59.8863 43.036L54.186 38.8783L58.6541 44.4919L51.5709 41.8859L57.1617 46.0208L49.9963 46.2399L57.2986 48.1294L50.01 49.7176L57.2484 50.2425L51.1464 54.1492L57.431 51.8672L53.0679 57.3895L58.5811 52.9443L56.5958 60.3561L60.8493 54.3272L60.2515 61.4469L62.6703 54.9935L64.7241 61.78L65.2216 54.9707L68.2657 60.7851L66.4401 54.1218L72.0264 58.4484L68.4209 52.9306L74.5502 55.3221L69.8631 50.7125L76.1476 51.21L69.968 48.8505Z" fill="white"/>
<path opacity="0.35" d="M3.91333 60.7251C23.1411 41.479 38.5124 35.5368 52.4643 32.8259C54.3127 32.4653 54.6595 28.4308 54.6595 28.4308C54.6595 28.4308 54.9197 31.4019 56.2113 31.7898C57.5029 32.1778 59.1824 27.1392 59.1824 27.1392C59.1824 27.1392 57.6307 31.6621 59.1824 31.9176C60.7341 32.1732 63.5729 27.5272 63.5729 27.5272C63.5729 27.5272 62.4136 31.5297 63.1849 31.7898C63.9562 32.05 67.8356 25.9754 67.8356 25.9754C67.8356 25.9754 65.5262 29.9825 67.7078 30.3887C69.8893 30.7949 73.1069 27.6504 73.1069 27.6504C73.1069 27.6504 70.5876 30.5028 71.7103 30.8999C76.4933 32.5794 80.359 26.3679 80.359 26.3679C79.5911 28.4241 78.5037 30.3463 77.1368 32.0637C82.1572 33.3553 85.9178 25.7655 85.9178 25.7655L82.1754 33.3553C84.1151 34.3867 91.8646 25.4734 91.8646 25.4734C91.8646 25.4734 87.862 32.4516 85.5344 33.871C86.826 34.9024 91.4675 30.7721 91.4675 30.7721C91.4675 30.7721 87.7297 35.409 89.1536 35.6646C91.2211 37.3441 98.8383 26.9932 98.8383 26.9932C98.8383 26.9932 95.8717 33.0632 91.4767 37.8416C95.1278 39.6672 104.256 27.8968 104.256 27.8968C104.256 27.8968 104 31.6438 97.4098 37.586C102.33 36.9562 108.66 27.6504 108.66 27.6504C108.66 27.6504 106.332 34.6286 100.778 39.5166C105.597 39.0602 113.31 27.1392 113.31 27.1392C113.31 27.1392 110.339 35.409 104.265 40.1875C110.983 41.6707 120.672 31.6621 120.672 31.6621C120.672 31.6621 116.861 38.7681 111.887 41.6707C117.445 43.8021 125.067 35.0211 125.067 35.0211C125.067 35.0211 117.445 46.7732 105.301 46.2575C101.316 46.0886 89.2632 34.1722 63.4451 35.1489C29.3389 36.4405 22.1051 50.9264 3.91333 60.7251Z" fill="#373535"/>
<path d="M4.67988 59.2654C23.9305 40.0193 39.3018 34.0771 53.2537 31.3616C55.0792 31.0056 55.4489 26.9711 55.4489 26.9711C55.4489 26.9711 55.709 29.9422 57.0006 30.3301C58.2922 30.7181 59.9717 25.6795 59.9717 25.6795C59.9717 25.6795 58.42 30.2024 59.9717 30.4579C61.5235 30.7135 64.3622 26.0675 64.3622 26.0675C64.3622 26.0675 63.1984 30.07 63.9743 30.3301C64.7502 30.5903 68.6249 24.5157 68.6249 24.5157C68.6249 24.5157 66.3019 28.5183 68.4971 28.9062C70.6924 29.2941 73.8963 26.1679 73.8963 26.1679C73.8963 26.1679 71.377 29.0203 72.4997 29.4174C77.2827 31.106 81.1483 24.9128 81.1483 24.9128C80.3782 26.9679 79.291 28.8898 77.9262 30.6085C82.9465 31.9001 86.7072 24.3103 86.7072 24.3103L82.9648 31.9001C84.9044 32.9133 92.654 24 92.654 24C92.654 24 88.6514 30.9737 86.3238 32.3976C87.6154 33.429 92.2569 29.2941 92.2569 29.2941C92.2569 29.2941 88.5099 33.9448 89.9339 34.2049C91.9967 35.8844 99.6185 25.5335 99.6185 25.5335C99.6185 25.5335 96.6474 31.608 92.2569 36.3865C95.908 38.212 105.036 26.4417 105.036 26.4417C105.036 26.4417 104.78 30.1887 98.19 36.1309C103.101 35.4828 109.431 26.1816 109.431 26.1816C109.431 26.1816 107.103 33.1552 101.549 38.0477C106.369 37.5457 114.077 25.6476 114.077 25.6476C114.077 25.6476 111.11 33.9128 105.036 38.6958C111.754 40.1791 121.443 30.1704 121.443 30.1704C121.443 30.1704 117.632 37.2719 112.658 40.1791C118.212 42.3104 125.834 33.5249 125.834 33.5249C125.834 33.5249 118.212 45.2815 106.072 44.7658C102.088 44.5969 90.0343 32.676 64.2162 33.6572C30.11 34.9488 22.8762 49.4164 4.66162 59.2152" fill="#373535"/>
<path opacity="0.35" d="M3.38733 62.8346C13.5603 67.937 22.8616 62.0587 34.5863 65.363C43.495 67.8731 54.348 70.972 69.0758 68.8407C83.8036 66.7094 96.3954 60.3153 102.392 48.8827C104.264 43.7802 111.885 50.0419 111.885 50.0419C111.885 50.0419 106.345 47.7326 106.473 48.8188C106.6 49.905 114.815 53.725 114.815 53.725C114.815 53.725 107.376 51.3837 107.833 53.1454C108.289 54.9071 117.129 61.8807 117.129 61.8807C117.129 61.8807 107.121 54.259 106.281 55.295C105.441 56.331 110.544 60.5116 110.544 60.5116C110.544 60.5116 102.082 55.2813 99.1338 56.8239C96.975 57.9284 107.896 65.0755 107.896 65.0755C107.896 65.0755 100.79 59.649 99.1109 61.0684C97.4314 62.4877 107.121 74.1166 107.121 74.1166C107.121 74.1166 96.1398 62.2504 95.0399 62.8163C93.94 63.3823 98.0749 69.078 98.0749 69.078C98.0749 69.078 92.653 63.1449 91.1652 64.1718C89.6773 65.1987 98.9238 80.643 98.9238 80.643C98.9238 80.643 88.9151 64.8153 84.7757 67.4624C91.2656 81.7064 88.8467 83.7419 88.8467 83.7419C88.8467 83.7419 88.0161 69.2104 79.9334 69.5937C75.8623 69.7854 81.8685 80.4422 81.8685 80.4422C81.8685 80.4422 76.3416 70.7073 72.6585 70.9036C79.445 83.7464 77.0261 88.9676 77.0261 88.9676C77.0261 88.9676 78.1489 78.0142 68.9434 71.8985C72.4303 74.9974 66.7573 88.9676 66.7573 88.9676C66.7573 88.9676 71.7503 68.3797 63.0742 72.3047C61.7051 72.9254 62.9738 82.5735 62.9738 82.5735C62.9738 82.5735 61.2304 71.5288 58.6153 72.113C57.091 72.4508 48.9261 87.4204 48.9261 87.4204C48.9261 87.4204 55.6122 71.2368 53.5767 71.9031C52.098 72.396 49.314 79.073 49.314 79.073C49.314 79.073 50.6832 72.4827 49.314 72.0993C47.9449 71.716 40.4007 79.073 40.4007 79.073C40.4007 79.073 46.0234 72.4827 45.0513 71.1272C43.5818 69.0735 41.8566 68.9776 39.8211 69.758C36.85 70.9173 32.8429 76.3483 32.8429 76.3483C32.8429 76.3483 36.8363 70.8716 36.138 68.7905C35.0198 65.4817 23.5416 75.18 23.5416 75.18C23.5416 75.18 30.3236 68.7905 28.7764 67.4213C27.2292 66.0521 18.8088 66.5085 16.18 66.4812C8.42133 66.4538 5.74231 64.6556 3.40102 62.7753" fill="#373535"/>
<path d="M3 61.6707C13.173 66.7731 22.4742 60.8948 34.1989 64.1991C43.1077 66.7092 53.9607 69.8081 68.6884 67.6768C83.4162 65.5454 96.0126 59.1423 102.037 47.7325C103.908 42.63 111.53 48.8963 111.53 48.8963C111.53 48.8963 105.976 46.5687 106.103 47.6686C106.231 48.7685 114.437 52.5748 114.437 52.5748C114.437 52.5748 107.007 50.2518 107.463 51.9952C107.92 53.7386 116.765 60.7168 116.765 60.7168C116.765 60.7168 106.733 53.0768 105.893 54.122C105.054 55.1671 110.156 59.3522 110.156 59.3522C110.156 59.3522 101.695 54.122 98.7464 55.6646C96.5876 56.7645 107.514 63.9298 107.514 63.9298C107.514 63.9298 100.408 58.5033 98.7281 59.9273C97.0486 61.3512 106.738 72.9755 106.738 72.9755C106.738 72.9755 95.757 61.1093 94.6571 61.6707C93.5572 62.232 97.6967 67.9369 97.6967 67.9369C97.6967 67.9369 92.2702 62.0039 90.7823 63.0262C89.2945 64.0485 98.541 79.4973 98.541 79.4973C98.541 79.4973 88.5278 63.6742 84.3929 66.3213C90.8873 80.5607 88.4639 82.5962 88.4639 82.5962C88.4639 82.5962 87.6332 68.0693 79.5505 68.4481C75.4795 68.6398 81.4856 79.2965 81.4856 79.2965C81.4856 79.2965 75.9587 69.5663 72.2757 69.7579C79.0622 82.6008 76.6433 87.8265 76.6433 87.8265C76.6433 87.8265 77.7661 76.8731 68.5606 70.7529C72.0475 73.8518 66.3745 87.8265 66.3745 87.8265C66.3745 87.8265 71.3674 67.2341 62.6914 71.1591C61.3223 71.7798 62.5956 81.4324 62.5956 81.4324C62.5956 81.4324 60.8476 70.3832 58.2371 70.9674C56.7081 71.3051 48.5433 86.2747 48.5433 86.2747C48.5433 86.2747 55.2294 70.0957 53.1985 70.7574C51.7152 71.2549 48.9312 77.9273 48.9312 77.9273C48.9312 77.9273 50.3004 71.3416 48.9312 70.9537C47.5621 70.5658 40.0088 77.9456 40.0088 77.9456C40.0088 77.9456 45.6315 71.3599 44.6594 69.9998C43.1944 67.9461 41.4647 67.8502 39.4292 68.6307C36.4581 69.7899 32.4555 75.2209 32.4555 75.2209C32.4555 75.2209 36.4444 69.7214 35.7461 67.6631C34.6279 64.3543 23.1542 74.0526 23.1542 74.0526C23.1542 74.0526 29.9362 67.6631 28.3845 66.2939C26.8328 64.9248 18.4169 65.3811 15.7881 65.3492C8.02943 65.3218 5.35498 63.5236 3.00913 61.6433" fill="#373535"/>
</svg>
