<svg width="128" height="128" viewBox="0 0 128 128" fill="none" xmlns="http://www.w3.org/2000/svg">
<path d="M124 63.9988C124 97.1388 97.1378 124 63.9984 124C30.8614 124 4 97.1388 4 63.9988C4 30.8616 30.8614 4 63.9984 4C97.1378 4 124 30.8616 124 63.9988Z" fill="#F22E46"/>
<path d="M58.8551 51.2921L73.2415 65.6739C75.3183 67.753 78.6895 67.753 80.7713 65.6739C82.8485 63.5944 82.8531 60.2259 80.7713 58.1464L66.3841 43.7592C56.0897 33.4628 39.4519 33.2971 28.9395 43.2362C28.8423 43.3179 28.7451 43.4039 28.6557 43.4933C28.6101 43.5393 28.5725 43.5881 28.5268 43.6292C28.4796 43.6741 28.4324 43.7147 28.3875 43.7596C28.2969 43.8502 28.2137 43.945 28.1343 44.0395C18.1902 54.5569 18.3613 71.1951 28.6561 81.4911L43.0433 95.8744C45.1244 97.9528 48.4913 97.9528 50.572 95.8744C52.6546 93.795 52.6546 90.4218 50.5774 88.347L36.1902 73.9601C29.9095 67.6822 29.8673 57.4934 36.0597 51.1617C42.3907 44.9693 52.5741 45.0142 58.8551 51.2921Z" fill="white"/>
<path d="M77.4234 32.1331C75.3443 34.2129 75.3443 37.5811 77.4288 39.6606L91.8106 54.0478C98.0874 60.3257 98.128 70.5129 91.936 76.8462C85.6031 83.0332 75.4232 82.9926 69.1441 76.7139L54.7573 62.3286C52.6767 60.2487 49.3043 60.2487 47.2263 62.3286C45.1438 64.4065 45.1438 67.7855 47.2263 69.8591L61.6085 84.2468C71.9061 94.5428 88.5419 94.7104 99.0563 84.7697C99.1538 84.6838 99.2459 84.6037 99.3427 84.5127C99.3865 84.4682 99.4275 84.4225 99.4705 84.3768C99.5169 84.3323 99.5626 84.2909 99.6063 84.2413C99.6985 84.1554 99.7774 84.0609 99.8595 83.9626C109.804 73.4495 109.638 56.8167 99.3427 46.5149L84.9559 32.1327C82.8768 30.0501 79.5005 30.0501 77.4234 32.1331Z" fill="#F5B1B2"/>
</svg>
