<svg width="128" height="128" viewBox="0 0 128 128" fill="none" xmlns="http://www.w3.org/2000/svg">
<path fill-rule="evenodd" clip-rule="evenodd" d="M35.1909 81.9654L30.9345 68.9998L42.0743 60.9887H28.3057L24.0512 48.0231H37.8218L42.0781 60.9906C43.311 64.7658 43.3077 68.8357 42.0687 72.6089C40.8298 76.382 38.4198 79.6617 35.189 81.9712L35.1909 81.9654ZM12.9095 81.9654L24.0512 89.9784L35.1948 81.9634L24.0551 73.9504L12.9134 81.9634L12.9095 81.9654ZM6.02233 60.9848C4.78863 64.7598 4.79108 68.8299 6.02934 72.6034C7.2676 76.377 9.67711 79.6572 12.9076 81.9673L17.164 68.9998L6.02817 60.9887H19.7929L24.0473 48.0231H10.2787L6.02233 60.9887V60.9848Z" fill="#E9521F"/>
<path fill-rule="evenodd" clip-rule="evenodd" d="M115.116 57.1891C113.076 57.1891 111.351 58.1419 110.126 59.9405C108.901 61.7392 108.266 64.2183 108.266 67.1622C108.266 70.1061 108.909 72.595 110.126 74.3839C111.344 76.1728 113.076 77.1333 115.116 77.1333C117.156 77.1333 118.88 76.1825 120.105 74.3839C121.33 72.5853 121.964 70.0964 121.964 67.1622C121.964 64.228 121.323 61.7294 120.105 59.9405C118.888 58.1516 117.156 57.1891 115.116 57.1891ZM115.116 74.6639C114.144 74.6639 113.366 74.1175 112.759 72.9936C112.022 71.6325 111.616 69.5636 111.616 67.1603C111.616 64.7569 112.022 62.688 112.759 61.3269C113.37 60.203 114.14 59.6566 115.116 59.6566C116.092 59.6566 116.866 60.203 117.473 61.3269C118.209 62.688 118.614 64.755 118.614 67.1603C118.614 69.5655 118.209 71.6325 117.473 72.9936C116.862 74.1175 116.09 74.6639 115.116 74.6639ZM70.907 64.4555V73.0325C70.9137 74.1254 71.3537 75.1711 72.1306 75.9399C72.9075 76.7088 73.9576 77.138 75.0506 77.1333C76.5146 77.1074 77.9326 76.6179 79.1009 75.7353C79.1162 75.7237 79.1341 75.7159 79.153 75.7125C79.1719 75.7092 79.1914 75.7103 79.2098 75.7158C79.228 75.7215 79.2447 75.7316 79.2582 75.7451C79.2718 75.7587 79.2818 75.7753 79.2875 75.7936L79.622 76.8767H82.0914V64.4555H78.9181V73.7442C78.9179 73.7656 78.9118 73.7865 78.9005 73.8047C78.8892 73.8229 78.8731 73.8376 78.8539 73.8472C78.257 74.1525 77.0806 74.6639 75.9023 74.6639C75.4214 74.6654 74.9596 74.4764 74.6177 74.1383C74.2759 73.8001 74.082 73.3403 74.0784 72.8594V64.4555H70.907ZM102.671 76.8767H105.843V68.2997C105.837 67.2067 105.397 66.1609 104.621 65.3917C103.844 64.6225 102.794 64.1928 101.701 64.1969C100.386 64.2182 99.1041 64.6149 98.0067 65.3403C97.9881 65.3512 97.967 65.357 97.9454 65.357C97.9239 65.357 97.9028 65.3512 97.8842 65.3403C97.8656 65.3302 97.85 65.3153 97.8391 65.2972C97.8281 65.2791 97.8222 65.2584 97.822 65.2372V57.4478H94.6603V76.8767H97.8414V67.588C97.8417 67.5664 97.8478 67.5452 97.8591 67.5267C97.8704 67.5083 97.8865 67.4932 97.9056 67.483C98.5025 67.1797 99.6789 66.6683 100.859 66.6683C101.341 66.6671 101.804 66.8574 102.146 67.1972C102.316 67.3635 102.451 67.562 102.543 67.781C102.634 68.0001 102.681 68.2353 102.681 68.4728V76.8767H102.671ZM84.3762 66.925H86.307C86.3384 66.925 86.3686 66.9375 86.3909 66.9597C86.4131 66.982 86.4256 67.0121 86.4256 67.0436V73.8764C86.4312 74.7445 86.781 75.5749 87.3981 76.1855C88.0153 76.7961 88.8494 77.1369 89.7175 77.1333C90.3712 77.1338 91.0215 77.0402 91.6484 76.8553V74.6114C91.2848 74.6425 90.8706 74.6639 90.5692 74.6639C90.313 74.6639 90.0672 74.5628 89.8852 74.3826C89.7031 74.2023 89.5995 73.9575 89.597 73.7014V67.0436C89.597 67.0121 89.6095 66.982 89.6317 66.9597C89.654 66.9375 89.6841 66.925 89.7156 66.925H91.6464V64.4555H89.7156C89.6841 64.4555 89.654 64.443 89.6317 64.4208C89.6095 64.3986 89.597 64.3684 89.597 64.3369V60.2361H86.4256V64.333C86.4256 64.3645 86.4131 64.3947 86.3909 64.4169C86.3686 64.4392 86.3384 64.4516 86.307 64.4516H84.3762V66.9211V66.925ZM65.8339 76.8767H69.1395L64.115 59.5497C63.9094 58.8708 63.4908 58.276 62.9211 57.8533C62.3514 57.4306 61.6608 57.2024 60.9514 57.2024C60.2421 57.2024 59.5515 57.4306 58.9818 57.8533C58.4121 58.276 57.9935 58.8708 57.7878 59.5497L52.7692 76.8767H56.0748L57.5273 71.8619C57.5341 71.8373 57.5488 71.8155 57.5692 71.8001C57.5896 71.7846 57.6145 71.7763 57.6401 71.7764H64.2706C64.2965 71.7759 64.3219 71.784 64.3426 71.7995C64.3634 71.815 64.3784 71.837 64.3853 71.8619L65.8378 76.8767H65.8339ZM63.4851 69.3069H58.4198C58.4018 69.3063 58.3842 69.3017 58.3683 69.2934C58.3524 69.2851 58.3385 69.2733 58.3277 69.259C58.3168 69.2446 58.3094 69.228 58.3058 69.2104C58.3022 69.1928 58.3026 69.1746 58.307 69.1572L60.8348 60.4072C60.842 60.3827 60.857 60.3611 60.8775 60.3458C60.898 60.3305 60.9229 60.3222 60.9485 60.3222C60.9741 60.3222 60.999 60.3305 61.0195 60.3458C61.04 60.3611 61.055 60.3827 61.0623 60.4072L63.5901 69.1572C63.5944 69.1746 63.5948 69.1928 63.5912 69.2104C63.5877 69.228 63.5802 69.2446 63.5694 69.259C63.5586 69.2733 63.5447 69.2851 63.5288 69.2934C63.5128 69.3017 63.4952 69.3063 63.4773 69.3069H63.4851Z" fill="#171C4E"/>
</svg>
