<svg width="128" height="128" viewBox="0 0 128 128" fill="none" xmlns="http://www.w3.org/2000/svg">
<path d="M37.3119 54.4443C37.2806 55.6611 37.4307 56.8757 37.7574 58.0483C38.1171 59.0507 38.5502 60.0252 39.0532 60.9639C39.2333 61.2416 39.3315 61.5644 39.3366 61.8953C39.3106 62.1433 39.2276 62.382 39.0941 62.5928C38.9607 62.8035 38.7804 62.9805 38.5673 63.1101L36.0161 64.8109C35.7083 65.0327 35.3423 65.1594 34.9632 65.1753C34.502 65.1437 34.069 64.9416 33.7484 64.6084C33.2028 64.0221 32.7146 63.3847 32.2906 62.7052C31.8857 62.0168 31.4807 61.2474 31.0353 60.316C27.8767 64.0415 23.9083 65.9042 19.1299 65.9042C15.7284 65.9042 13.0153 64.9324 11.031 62.9886C9.04682 61.0449 8.03445 58.4532 8.03445 55.2137C8.03445 51.7716 9.24929 48.9775 11.7194 46.8718C14.1896 44.7661 17.4697 43.7132 21.6406 43.7132C23.077 43.7249 24.5111 43.8332 25.933 44.0372C27.4313 44.2396 28.9701 44.5636 30.5898 44.9281V41.972C30.5898 38.8944 29.9419 36.7482 28.6866 35.4928C27.4313 34.2375 25.2041 33.6301 22.086 33.6301C20.6124 33.63 19.1441 33.8068 17.7126 34.1565C16.224 34.5112 14.7625 34.9713 13.3392 35.5333C12.8787 35.7394 12.4053 35.9152 11.9219 36.0597C11.7123 36.1289 11.4944 36.1697 11.274 36.1812C10.7071 36.1812 10.4236 35.7763 10.4236 34.9259V32.9417C10.3802 32.4518 10.4786 31.9598 10.7071 31.5244C11.0126 31.1553 11.4011 30.8639 11.8409 30.674C13.4651 29.8703 15.1774 29.2588 16.9432 28.8517C19.0066 28.3223 21.1302 28.0636 23.2604 28.0823C28.0792 28.0823 31.6022 29.1757 33.8699 31.3624C36.1376 33.5491 37.2309 36.8696 37.2309 41.324V54.4443H37.3119ZM20.8712 60.5995C22.2918 60.5838 23.7004 60.3377 25.0421 59.8706C26.5284 59.3567 27.8545 58.4633 28.8891 57.2789C29.5418 56.5328 30.013 55.6458 30.2659 54.6872C30.5441 53.5338 30.6801 52.3507 30.6708 51.1642V49.4635C29.4428 49.1645 28.1991 48.9347 26.9454 48.775C25.6828 48.6147 24.4115 48.5336 23.1389 48.5321C20.4257 48.5321 18.4415 49.0585 17.1052 50.1519C15.7689 51.2452 15.121 52.784 15.121 54.8087C15.121 56.712 15.6069 58.1293 16.6193 59.1012C17.6316 60.073 19.0084 60.5995 20.8712 60.5995ZM53.3882 64.9729C52.8432 65.0289 52.2963 64.885 51.8494 64.5679C51.4256 64.1301 51.1313 63.5835 50.999 62.9886L41.4828 31.6863C41.2984 31.1625 41.1761 30.6189 41.1184 30.0666C41.0984 29.9325 41.1095 29.7957 41.1506 29.6666C41.1918 29.5375 41.262 29.4195 41.3558 29.3218C41.4496 29.224 41.5646 29.1491 41.692 29.1027C41.8193 29.0563 41.9555 29.0397 42.0903 29.0542H46.0587C46.8281 29.0542 47.3545 29.1757 47.638 29.4591C47.9215 29.7426 48.2049 30.269 48.4479 31.0384L55.251 57.8458L61.5681 31.0384C61.7706 30.2285 62.0135 29.7021 62.3375 29.4591C62.8233 29.1617 63.3886 29.0204 63.9573 29.0542H67.1968C67.9662 29.0542 68.4926 29.1757 68.8166 29.4591C69.2401 29.8864 69.5106 30.4416 69.586 31.0384L75.9841 58.1698L82.9896 31.0384C83.1183 30.4508 83.3974 29.9066 83.7995 29.4591C84.2701 29.1609 84.8228 29.0192 85.3788 29.0542H89.1448C89.2821 29.0354 89.422 29.0487 89.5533 29.0929C89.6847 29.1372 89.8041 29.2112 89.9021 29.3092C90.0001 29.4073 90.0742 29.5266 90.1184 29.658C90.1626 29.7894 90.1759 29.9292 90.1571 30.0666C90.1476 30.2844 90.1206 30.501 90.0762 30.7145C90.0127 31.0599 89.9178 31.3987 89.7927 31.7268L80.0335 63.0291C79.7906 63.839 79.5071 64.3654 79.1832 64.6084C78.7254 64.9014 78.1871 65.0431 77.6444 65.0134H74.1618C73.3924 65.0134 72.866 64.8919 72.5421 64.6084C72.1192 64.1645 71.8496 63.5969 71.7727 62.9886L65.496 36.8696L59.2599 62.9481C59.1651 63.551 58.8979 64.1135 58.4905 64.5679C58.0126 64.8837 57.441 65.0266 56.8707 64.9729H53.3882ZM105.424 66.0662C103.323 66.0685 101.23 65.8238 99.1874 65.3373C97.1627 64.8514 95.5834 64.325 94.5305 63.7175C94.0094 63.4717 93.5726 63.0772 93.2752 62.5837C93.1176 62.2263 93.0349 61.8404 93.0322 61.4498V59.3846C93.0322 58.5342 93.3562 58.1293 93.9636 58.1293C94.2116 58.1301 94.4577 58.1711 94.6925 58.2508C94.9355 58.3318 95.2999 58.4937 95.7049 58.6557C97.1352 59.2848 98.6284 59.7599 100.159 60.073C101.745 60.395 103.36 60.5577 104.978 60.559C107.529 60.559 109.513 60.1135 110.89 59.2226C111.55 58.8245 112.092 58.2588 112.462 57.5831C112.832 56.9074 113.016 56.1457 112.996 55.3757C113.01 54.8543 112.921 54.3354 112.733 53.8488C112.546 53.3623 112.263 52.9178 111.903 52.541C111.174 51.7716 109.797 51.0832 107.813 50.4353L101.941 48.6131C98.9849 47.6817 96.7982 46.3049 95.4619 44.4826C94.1584 42.802 93.4466 40.7378 93.4372 38.6109C93.4044 37.043 93.7813 35.4937 94.5305 34.116C95.2536 32.8133 96.2479 31.6809 97.4461 30.7955C98.7083 29.8402 100.136 29.1263 101.658 28.6897C103.316 28.2121 105.035 27.9801 106.76 28.0013C107.667 27.9947 108.573 28.0489 109.473 28.1633C110.404 28.2848 111.255 28.4468 112.105 28.6087C112.956 28.7707 113.684 29.0137 114.413 29.2567C115.004 29.4394 115.574 29.6837 116.114 29.9856C116.591 30.226 117.006 30.5723 117.329 30.9979C117.592 31.392 117.72 31.8611 117.693 32.3343V34.2375C117.693 35.0879 117.369 35.5333 116.762 35.5333C116.223 35.472 115.7 35.307 115.223 35.0474C112.776 33.9657 110.124 33.4269 107.448 33.4681C105.14 33.4681 103.318 33.8325 102.062 34.6019C100.807 35.3713 100.159 36.5457 100.159 38.206C100.148 38.7437 100.251 39.2777 100.46 39.7732C100.669 40.2686 100.981 40.7143 101.374 41.0811C102.184 41.8505 103.682 42.6199 105.828 43.3083L111.579 45.1305C114.494 46.0619 116.6 47.3577 117.855 49.018C119.091 50.647 119.747 52.6426 119.718 54.6872C119.739 56.3138 119.378 57.9226 118.665 59.3846C117.947 60.7706 116.939 61.9859 115.709 62.9481C114.372 63.9886 112.846 64.7588 111.214 65.2158C109.339 65.7927 107.386 66.0795 105.424 66.0662Z" fill="#252F3E"/>
<path d="M113.077 85.746C99.7542 95.5862 80.3979 100.81 63.7546 100.81C40.4298 100.81 19.4132 92.1846 3.53939 77.8496C2.28406 76.7157 3.41791 75.1769 4.9162 76.0678C22.0859 86.0295 43.2645 92.0632 65.1719 92.0632C80.9606 91.9795 96.5781 88.7871 111.133 82.6684C113.36 81.6561 115.264 84.1262 113.077 85.746ZM118.625 79.4289C116.924 77.2422 107.367 78.376 103.034 78.9024C101.738 79.0644 101.536 77.9306 102.71 77.0802C110.323 71.7349 122.836 73.2737 124.294 75.0554C125.752 76.8372 123.889 89.3905 116.762 95.3837C115.669 96.3151 114.616 95.8292 115.102 94.6143C116.721 90.6054 120.325 81.5751 118.625 79.4289Z" fill="#FF9900"/>
</svg>
