<svg width="128" height="128" viewBox="0 0 128 128" fill="none" xmlns="http://www.w3.org/2000/svg">
<path d="M59.9698 101.337C74.4001 98.7909 86.3185 96.6774 86.4571 96.6428L86.7169 96.5908L73.0835 80.3936C65.5998 71.4894 59.4501 64.1617 59.4501 64.1097C59.4501 64.0231 73.5166 25.2883 73.6032 25.1671C73.6378 25.1324 83.2003 41.6415 96.8164 65.2184C109.549 87.2882 120.064 105.495 120.151 105.668L120.324 105.98H33.725L59.9525 101.337H59.9698ZM8 96.4003C8 96.4003 14.4269 85.2441 22.2744 71.628L36.5487 46.9077L53.1791 32.9625C62.3084 25.3057 69.8094 19 69.8267 19C69.8441 19 69.7401 19.2945 69.5669 19.6583C69.3937 20.0394 61.269 37.4493 51.516 58.3757L33.7943 96.4003H20.9058C13.8206 96.4349 8.01732 96.4003 8.01732 96.4003H8Z" fill="#0089D6"/>
</svg>
