<svg width="128" height="128" viewBox="0 0 128 128" fill="none" xmlns="http://www.w3.org/2000/svg">
<path d="M66.6662 117.99C63.0974 117.766 61.0068 115.736 60.4543 111.913C60.305 110.898 60.305 110.868 60.2901 104.282V97.9063H63.4408V104.073C63.4707 109.628 63.4707 110.27 63.5155 110.659C63.7395 112.241 64.1576 113.317 64.8893 114.078C65.4716 114.69 66.1585 115.049 67.0993 115.243C67.5472 115.332 68.8165 115.332 69.2197 115.243C70.1903 115.034 70.9518 114.616 71.6238 113.929C72.4003 113.152 72.9677 112.062 73.2365 110.823L73.3261 110.405V104.193L73.356 97.981H76.5814V117.528H73.3709V115.975C73.3709 114.914 73.3709 114.422 73.341 114.437C73.3112 114.437 73.2365 114.571 73.1618 114.705C72.6093 115.721 71.6985 116.632 70.683 117.184C69.4735 117.856 68.2789 118.08 66.6214 117.976L66.6662 117.99ZM102.952 117.961C101.683 117.871 100.354 117.438 99.2786 116.751C96.994 115.332 95.6351 113.003 95.232 109.778C95.0976 108.658 95.0826 107.164 95.2021 106.224C95.4559 104.118 96.2922 102.043 97.4569 100.564C97.7555 100.191 98.4424 99.4892 98.8307 99.1905C99.8461 98.3692 101.056 97.8018 102.325 97.5181C103.071 97.3538 104.371 97.2792 105.162 97.3538C107.133 97.533 108.955 98.4738 110.179 99.9371C111.434 101.43 112.121 103.506 112.21 106.074C112.21 106.478 112.21 107.179 112.21 107.642L112.18 108.478H105.252L98.323 108.508V108.822C98.323 109.763 98.547 110.838 98.9501 111.749C99.2936 112.525 99.8759 113.391 100.369 113.809C101.354 114.661 102.564 115.183 103.878 115.288C104.371 115.332 105.61 115.288 106.177 115.198C107.775 114.959 109.283 114.332 110.508 113.421C110.657 113.317 110.792 113.212 110.821 113.197C110.851 113.167 110.866 113.466 110.866 114.646V116.109L110.538 116.318C109.164 117.169 107.581 117.722 105.894 117.931C105.386 117.99 103.564 118.02 102.952 117.976V117.946V117.961ZM108.985 105.567C108.985 103.999 108.313 102.237 107.372 101.341C106.7 100.699 105.894 100.31 104.923 100.161C104.46 100.086 103.505 100.116 103.027 100.221C102.011 100.43 101.16 100.878 100.428 101.595C99.652 102.356 99.0696 103.282 98.7112 104.342C98.5918 104.716 98.4275 105.343 98.3827 105.701L98.3528 105.865H108.97V105.597L108.985 105.567ZM15 117.483C15 117.483 17.3593 111.286 20.2264 103.745L25.4378 90.0519H28.7976L28.932 90.4103C29.3501 91.5003 39.3697 117.498 39.3697 117.513C39.3697 117.513 38.5634 117.513 37.5928 117.513H35.8158L34.3674 113.66L32.9189 109.807H21.3015L21.2567 109.927C21.2567 109.927 20.6146 111.734 19.8829 113.779L18.5689 117.483H16.777C15.3584 117.483 15 117.483 15.0149 117.438H15V117.483ZM31.8736 106.911C31.8736 106.911 30.903 104.268 29.7084 101.072C27.4984 95.0692 27.3641 94.6959 27.1998 93.7402C27.1251 93.2922 27.0803 93.2773 27.0206 93.6805C26.9907 93.9791 26.8414 94.6361 26.722 94.9945C26.6622 95.1737 25.6618 97.9213 24.497 101.087C23.3323 104.253 22.3916 106.881 22.3916 106.881C22.3916 106.881 24.5269 106.911 27.1401 106.911H31.8886H31.8736ZM40.4598 117.02V116.512L46.2536 108.553L52.0474 100.594L46.8061 100.564L41.5648 100.534V99.2055L41.5349 97.8765H56.6914V98.7724L50.8976 106.776C47.717 111.181 45.1038 114.78 45.1038 114.795C45.1038 114.81 47.6722 114.795 50.8229 114.795H56.542V117.468H40.4449V116.96V116.99L40.4598 117.02ZM82.9276 117.498C82.9276 117.498 82.8978 113.078 82.8978 107.687V97.9063H86.0635V99.9222C86.0635 101.042 86.0635 101.938 86.0933 101.938C86.1232 101.938 86.1829 101.759 86.2725 101.535C86.6309 100.52 87.2431 99.5788 88.0345 98.8172C88.7513 98.1452 89.5726 97.7271 90.5432 97.5778C90.812 97.533 91.0509 97.5181 91.5885 97.548C92.2604 97.5778 92.6188 97.6226 93.0369 97.757L93.1564 97.8018V101.087L92.783 100.908C92.1111 100.579 91.469 100.445 90.6925 100.49C90.1848 100.52 89.8414 100.579 89.4382 100.729C88.602 101.042 87.93 101.595 87.4372 102.356C86.7503 103.461 86.2576 104.865 86.1232 106.164C86.0933 106.388 86.0784 108.284 86.0784 112.032V117.557H84.5105C83.6444 117.557 82.9426 117.557 82.9276 117.528V117.498Z" fill="#0089D6"/>
<path d="M59.7973 82.9738C72.236 80.7787 82.5095 78.9569 82.629 78.9271L82.853 78.8823L71.1012 64.9205C64.6503 57.2452 59.3493 50.9288 59.3493 50.884C59.3493 50.8093 71.4745 17.4205 71.5491 17.3159C71.579 17.2861 79.8217 31.5167 91.5586 51.8397C102.534 70.8636 111.598 86.5575 111.673 86.7069L111.822 86.9757H37.1747L59.7824 82.9738H59.7973ZM15 78.718C15 78.718 20.5399 69.1016 27.3043 57.3647L39.6087 36.0561L53.9438 24.0355C61.8132 17.4354 68.2789 12 68.2939 12C68.3088 12 68.2192 12.2539 68.0699 12.5674C67.9205 12.8959 60.9172 27.903 52.5103 45.9414L37.2344 78.718H26.1247C20.0173 78.7479 15.0149 78.718 15.0149 78.718H15Z" fill="#0089D6"/>
</svg>
