<svg width="128" height="128" viewBox="0 0 128 128" fill="none" xmlns="http://www.w3.org/2000/svg">
<path fill-rule="evenodd" clip-rule="evenodd" d="M104.583 32.6317L71.006 12.7639C69.0552 11.6093 66.8284 11 64.5597 11C62.291 11 60.0642 11.6093 58.1134 12.7639L24.5296 32.6317C22.5336 33.8189 20.8819 35.5036 19.7371 37.52C18.5923 39.5365 17.9937 41.8153 18.0002 44.1323V83.8677C17.9879 86.1793 18.5779 88.4545 19.7126 90.4705C20.8472 92.4864 22.4876 94.1741 24.4731 95.3684L58.0503 115.236C60.001 116.391 62.2278 117 64.4966 117C66.7653 117 68.9921 116.391 70.9428 115.236L104.527 95.3684C106.512 94.1741 108.153 92.4864 109.287 90.4705C110.422 88.4545 111.012 86.1793 111 83.8677V44.1323C111.018 41.8264 110.437 39.5551 109.313 37.5396C108.189 35.5241 106.561 33.8332 104.587 32.6317H104.583ZM78.5754 94.6794V97.528C78.5733 97.7036 78.5272 97.8759 78.4413 98.0292C78.3554 98.1825 78.2325 98.312 78.0836 98.4058L76.3823 99.3764C76.1165 99.5155 75.8905 99.3764 75.8905 99.002V96.1964C74.6895 96.7848 73.3149 96.9178 72.0228 96.5708C71.8167 96.4316 71.737 96.1666 71.8367 95.9083L72.4448 93.3246C72.4955 93.106 72.6141 92.909 72.7837 92.7615C72.8321 92.7137 72.8882 92.6745 72.9498 92.6456C73.0353 92.6123 73.1302 92.6123 73.2157 92.6456C74.4016 92.963 75.6653 92.8036 76.7345 92.2017C77.4941 91.8319 78.1391 91.264 78.6013 90.5584C79.0634 89.8528 79.3254 89.0357 79.3596 88.1937C79.3596 86.7429 78.5621 86.14 76.6349 86.1235C74.1959 86.1235 71.9829 85.6597 71.8832 82.0691C71.9111 80.5363 72.2789 79.0286 72.9603 77.6541C73.6416 76.2797 74.6196 75.0726 75.8241 74.1194V71.231C75.8307 71.055 75.8787 70.883 75.9641 70.7288C76.0495 70.5746 76.17 70.4426 76.3159 70.3432L77.9573 69.3031C78.2232 69.164 78.4491 69.3031 78.4491 69.6874V72.5758C79.4547 72.1201 80.5771 71.9859 81.6623 72.1915C81.8949 72.324 81.9879 72.6155 81.875 72.854L81.3001 75.4145C81.2351 75.68 81.0711 75.911 80.8416 76.0604C80.7751 76.1002 80.6754 76.0869 80.5957 76.0604C79.5378 75.8295 78.4314 76.0096 77.5021 76.5639C76.8243 76.8554 76.2437 77.3332 75.8283 77.9415C75.4129 78.5497 75.1797 79.2634 75.1562 79.9989C75.1562 81.3073 75.8473 81.7047 78.17 81.7544C81.2768 81.7544 82.6126 83.1556 82.6492 86.2659C82.6199 87.8743 82.2397 89.457 81.5351 90.9042C80.8304 92.3513 79.8182 93.6283 78.5687 94.6463L78.5754 94.6794ZM96.1631 89.8764C96.1832 89.9969 96.1697 90.1206 96.124 90.234C96.0782 90.3473 96.0021 90.4459 95.9039 90.519L87.4473 95.6599C87.3676 95.7261 87.248 95.736 87.1583 95.683C87.0685 95.63 87.0254 95.5174 87.0486 95.418V93.2319C87.0544 93.115 87.0938 93.0022 87.1622 92.9071C87.2305 92.8119 87.3249 92.7384 87.4341 92.6953L95.7943 87.7035C95.874 87.6372 95.9937 87.6273 96.0834 87.6803C96.1731 87.7333 96.2163 87.8459 96.193 87.9453V89.8731L96.1631 89.8764ZM102.028 41.012L70.255 60.575C66.2909 62.9135 63.3768 65.4707 63.3768 70.2273V109.241C63.3768 112.089 64.5497 113.878 66.3075 114.474C65.7265 114.582 65.1374 114.641 64.5464 114.65C62.6803 114.646 60.8497 114.141 59.2465 113.189L25.6693 93.3246C24.0344 92.3467 22.6835 90.9607 21.75 89.3035C20.8165 87.6462 20.3326 85.775 20.3461 83.8744V44.1323C20.3311 42.2291 20.8141 40.355 21.7476 38.6948C22.6812 37.0346 24.0329 35.6458 25.6693 34.6655L59.2465 14.7977C62.5029 12.8765 66.5434 12.8765 69.7998 14.7977L103.377 34.6655C106.145 36.3349 108.029 39.1372 108.534 42.284C107.444 39.9222 104.935 39.3028 102.015 40.9756H102.025L102.028 41.012Z" fill="#1B1B1F"/>
</svg>
