<svg width="128" height="128" viewBox="0 0 128 128" fill="none" xmlns="http://www.w3.org/2000/svg">
<path d="M48.7266 81.3728C47.2348 88.6016 43.1772 92.9832 37.5084 92.9832C30.8508 92.9832 26.3073 86.7774 25.6594 77.1703L25.7106 72.1579C26.4863 62.8492 30.9787 56.8139 37.5084 56.8139C39.0201 56.8079 40.5127 57.1509 41.87 57.8162C43.2273 58.4816 44.4128 59.4513 45.3339 60.6499H63.2949C59.7317 49.7727 51.7954 44.3426 42.0861 44.3426C38.8658 44.289 35.6857 45.0627 32.8499 46.5895C30.0142 48.1163 27.6176 50.3453 25.8896 53.0631L26.1965 22H10V104.858H22.2241L24.9263 98.4985C24.9773 98.3752 25.0598 98.2675 25.1657 98.1864C25.2715 98.1052 25.3969 98.0533 25.5291 98.036C25.6614 98.0187 25.7959 98.0366 25.919 98.0879C26.0422 98.1391 26.1496 98.222 26.2306 98.328C30.3223 103.613 35.258 106 42.2736 106C54.0118 106 63.0989 97.5437 64.9913 81.3643L48.7266 81.3728Z" fill="#5A2A7A"/>
<path d="M114.134 81.2021H91.6469C88.9339 81.2021 86.3321 80.1244 84.4137 78.206C82.4953 76.2876 81.4176 73.6858 81.4176 70.9728C81.4176 68.2598 82.4953 65.6579 84.4137 63.7395C86.3321 61.8212 88.9339 60.7434 91.6469 60.7434H114.134C113.59 59.5608 112.958 58.4209 112.242 57.3336C116.155 52.5258 118.422 49.3633 118.422 49.3633L113.308 44.2486C113.308 44.2486 110.145 46.5076 105.329 50.4203C102.678 48.6589 99.7106 47.4285 96.5911 46.7974C95.9518 40.6257 95.3124 36.7982 95.3124 36.7982H88.0326C88.0326 36.7982 87.4017 40.6342 86.7624 46.7974C83.6382 47.4261 80.667 48.6597 78.0163 50.4288C73.2 46.5161 70.0374 44.2486 70.0374 44.2486L64.9227 49.3633C64.9227 49.3633 67.1817 52.5173 71.103 57.3422C69.3163 59.9818 68.0598 62.9436 67.4034 66.0627C61.2402 66.6935 57.4042 67.3328 57.4042 67.3328V74.6127C57.4042 74.6127 61.2317 75.2435 67.4034 75.8829C68.0389 79.005 69.272 81.9748 71.0348 84.629C67.1135 89.4453 64.8545 92.5993 64.8545 92.5993L69.9692 97.714C69.9692 97.714 73.1318 95.455 77.9481 91.5423C80.6012 93.3051 83.5717 94.5356 86.6942 95.1652C87.3336 101.337 87.9644 105.173 87.9644 105.173H95.2443C95.2443 105.173 95.8836 101.345 96.5229 95.1652C99.6424 94.5341 102.61 93.3037 105.261 91.5423C110.077 95.4635 113.239 97.714 113.239 97.714L118.354 92.5993C118.354 92.5993 116.087 89.4453 112.174 84.629C112.916 83.5397 113.571 82.3939 114.134 81.2021Z" fill="#4D4D4D"/>
</svg>
