<svg width="128" height="128" viewBox="0 0 128 128" fill="none" xmlns="http://www.w3.org/2000/svg">
<path d="M93.2109 68.2594C92.6443 65.432 91.4347 62.7729 89.6757 60.4879C86.1516 55.8365 80.4504 52.8955 72.7177 52.8955C60.7044 52.8955 53.3205 61.0525 51.1304 69.6506C49.1672 63.5895 43.9106 59.5027 38.357 57.7702C42.5361 54.7239 44.7243 50.3659 44.7243 45.3897C44.7243 40.7771 42.8018 36.5685 39.584 33.8322C34.8624 29.8192 28.4268 29 20.4986 29H5V95.9317C9.39126 95.9317 13.9061 95.9114 18.3066 95.9317C22.2219 95.9502 26.0448 95.9317 29.6114 95.7841C40.8976 95.3302 48.6156 89.6492 51.0935 81.1195C51.9441 84.913 53.577 88.0034 55.7062 90.3448C60.0531 95.1291 66.354 97 72.6992 97C80.5131 97 86.1682 94.7343 90.0207 91.26L84.4929 84.7746C81.7142 86.8706 78.1422 88.0957 74.131 88.0957C66.2618 88.0717 62.7931 83.0919 62.4812 78.3058H93.2109V95.9225H104.72V29.334H93.2109V68.2594ZM16.825 38.0427H20.0225C23.1112 38.0427 25.5577 38.3748 27.305 39.0556C30.7738 40.4007 32.4214 43.1591 32.4214 46.6038C32.4214 49.5153 31.3144 54.0929 25.185 55.3439C24.1592 55.5468 22.6831 55.6668 20.5982 55.6668H16.825V38.0427ZM29.8346 86.1362C28.3955 86.3945 26.6334 86.4517 25.2016 86.4517H16.825V64.6154H24.3216C26.6869 64.6154 29.3641 64.8829 30.8974 65.2833C36.1577 66.6634 39.178 70.4347 39.178 75.4311C39.178 80.5973 36.3957 84.9535 29.8346 86.1362ZM62.699 69.9937C63.7137 65.1191 67.3116 61.6097 72.6273 61.6097C77.9429 61.6097 81.4836 64.7464 82.4061 69.9937H62.699Z" fill="#0066A4"/>
<path d="M123.716 29.3354H112.404V95.9331H123.716V29.3354Z" fill="#0066A4"/>
</svg>
