<svg width="128" height="128" viewBox="0 0 128 128" fill="none" xmlns="http://www.w3.org/2000/svg">
<path fill-rule="evenodd" clip-rule="evenodd" d="M57.3677 58.2827C57.9944 58.2828 58.5956 58.3509 59.1709 58.4878L59.1698 58.4889C59.7432 58.6165 60.2427 58.7992 60.6637 59.0424L60.7721 59.1051V61.2599L60.4778 61.1473C59.9274 60.9377 59.423 60.7823 58.9658 60.6787C58.5127 60.5762 58.051 60.5247 57.5802 60.5247C57.091 60.5247 56.6047 60.6048 56.1214 60.7659C55.6496 60.9232 55.2255 61.1835 54.8495 61.5511L54.8474 61.5532C54.4776 61.9068 54.1693 62.3859 53.9305 62.9993L53.9315 63.0004C53.7049 63.5966 53.5873 64.3526 53.5873 65.2742C53.5873 65.9357 53.673 66.5419 53.8423 67.0932L53.9124 67.2962C54.0856 67.762 54.3197 68.1698 54.6126 68.5213C54.9521 68.9093 55.3753 69.2173 55.8855 69.4436L56.08 69.5201C56.5434 69.6864 57.0735 69.7719 57.6727 69.7719C58.1699 69.7719 58.672 69.7197 59.1794 69.6167L59.5597 69.5254C59.9375 69.4249 60.3079 69.2994 60.6711 69.1503L60.9718 69.027V71.1893L60.8645 71.253C60.6984 71.3507 60.4852 71.4428 60.2313 71.5335L60.2323 71.5346C59.9834 71.6268 59.7086 71.7037 59.4099 71.7673L59.411 71.7684C59.109 71.8416 58.7895 71.8957 58.4536 71.932L58.4526 71.9309C58.1176 71.9759 57.7826 72 57.4474 72C56.5752 72 55.7451 71.8684 54.96 71.6037L54.959 71.6026C54.1781 71.3361 53.4915 70.9259 52.9019 70.3733C52.3095 69.8178 51.8447 69.1168 51.5068 68.2769C51.1666 67.4308 51.0001 66.4365 51 65.3007C51 64.4543 51.0859 63.6872 51.2593 63.0025L51.2603 63.0004L51.408 62.5042C51.5684 62.023 51.7663 61.5853 52.0009 61.1919C52.3121 60.6702 52.6755 60.2224 53.0921 59.8521L53.0942 59.85L53.4141 59.5886C53.7381 59.34 54.0761 59.1289 54.4277 58.9564L54.7879 58.7906C55.1514 58.6373 55.5235 58.5224 55.9036 58.4464C56.4033 58.3376 56.8917 58.2827 57.3677 58.2827ZM59.7776 71.4528C59.645 71.4904 59.5058 71.5249 59.36 71.5559C59.0679 71.6267 58.7577 71.6798 58.4303 71.7152C58.1846 71.7484 57.9385 71.7696 57.6929 71.7779L57.9394 71.7652C58.103 71.7542 58.2668 71.7373 58.4303 71.7152C58.7577 71.6798 59.0679 71.6267 59.36 71.5559C59.652 71.4939 59.918 71.4191 60.1569 71.3306L59.7776 71.4528ZM54.7518 71.2945C54.8431 71.3309 54.936 71.3654 55.0302 71.3975C54.8422 71.3334 54.6594 71.2599 54.483 71.1787L54.7518 71.2945ZM54.7337 68.9559C54.7599 68.9797 54.7876 69.0018 54.8145 69.0249C54.7355 68.9568 54.6587 68.8867 54.586 68.8124L54.7337 68.9559ZM54.195 68.3279C54.2397 68.3941 54.2871 68.4581 54.3353 68.5213C54.2451 68.403 54.1605 68.2796 54.0824 68.1505L54.195 68.3279ZM53.8242 62.6901C53.791 62.7656 53.7595 62.8433 53.7286 62.9228C53.7906 62.7634 53.857 62.6125 53.9283 62.4691L53.8242 62.6901ZM56.4317 60.4482C56.3049 60.4797 56.1785 60.5166 56.0523 60.5587C55.9068 60.6072 55.7662 60.666 55.6294 60.7329C55.7068 60.6951 55.7852 60.6597 55.8653 60.6277L56.0523 60.5587C56.3047 60.4745 56.5584 60.4117 56.8131 60.3695L56.4317 60.4482ZM53.9453 59.4791C53.9293 59.4895 53.9135 59.5004 53.8975 59.511C53.9942 59.4472 54.0919 59.3865 54.1908 59.3293L53.9453 59.4791Z" fill="black"/>
<path fill-rule="evenodd" clip-rule="evenodd" d="M84.985 66.562C84.985 67.2435 85.0759 67.7985 85.2485 68.2344L85.3282 68.414C85.5247 68.8184 85.8094 69.1437 86.1846 69.3926C86.6189 69.6658 87.1832 69.8112 87.8889 69.8112C88.6379 69.8111 89.2134 69.6489 89.6346 69.3469L89.6368 69.3458L89.7951 69.2247C90.1016 68.9726 90.3376 68.6611 90.5027 68.2875L90.5792 68.0952C90.7188 67.6917 90.7928 67.1826 90.7928 66.562V58.6142H93.2866V66.5885C93.2866 67.0225 93.2595 67.4314 93.2048 67.8147L93.2037 67.8136C93.1578 68.1885 93.0801 68.5388 92.9689 68.8634L92.9678 68.8687C92.801 69.3227 92.5677 69.7435 92.2718 70.1321L92.2729 70.1331C91.9823 70.5174 91.6222 70.8493 91.1955 71.1277C90.7669 71.4072 90.2712 71.6174 89.7133 71.7641L89.7143 71.7652C89.1605 71.9221 88.5378 71.9989 87.8496 71.9989C87.1792 71.9989 86.5695 71.9265 86.0252 71.779C85.4846 71.6323 85.0029 71.4245 84.5834 71.1542L84.5813 71.1532C84.1728 70.8839 83.8232 70.562 83.5336 70.1884L83.5315 70.1863C83.2444 69.8066 83.0171 69.3941 82.8504 68.9495C82.7203 68.6142 82.6281 68.248 82.5731 67.854C82.5184 67.4619 82.4913 67.0355 82.4913 66.5758V58.6142H84.985V66.562ZM89.6548 71.5559C89.1236 71.7064 88.5215 71.7811 87.8485 71.7811L87.8496 71.7822C88.5221 71.7821 89.1239 71.7063 89.6548 71.5559C89.7897 71.5205 89.9214 71.4811 90.048 71.4379L89.6548 71.5559ZM85.7022 71.4528C85.825 71.4954 85.9521 71.5343 86.0826 71.5697C85.8215 71.4989 85.5754 71.4132 85.3452 71.3136L85.7022 71.4528ZM86.0688 69.5774C86.138 69.621 86.211 69.6592 86.2856 69.6964C86.2755 69.6914 86.2647 69.6878 86.2547 69.6826L86.0688 69.5774ZM92.7627 68.7933C92.6867 69.0002 92.596 69.1997 92.4918 69.3926C92.5413 69.3008 92.5889 69.208 92.632 69.1131L92.7627 68.7933C92.7892 68.716 92.8145 68.6369 92.8371 68.5563L92.7627 68.7933ZM84.7672 66.562C84.7672 66.7887 84.7785 67.0033 84.798 67.2059C84.786 67.0815 84.7771 66.9526 84.7725 66.8191L84.7672 66.562Z" fill="black"/>
<path fill-rule="evenodd" clip-rule="evenodd" d="M66.2845 71.6674H63.7907V58.6142H66.2845V71.6674Z" fill="black"/>
<path fill-rule="evenodd" clip-rule="evenodd" d="M72.6065 71.6674H70.1128V52H72.6065V71.6674Z" fill="black"/>
<path fill-rule="evenodd" clip-rule="evenodd" d="M78.9286 71.6674H76.4348V58.6142H78.9286V71.6674Z" fill="black"/>
<path fill-rule="evenodd" clip-rule="evenodd" d="M111.252 58.2827C111.714 58.2828 112.202 58.3476 112.712 58.4751C113.238 58.6068 113.722 58.852 114.161 59.2061C114.609 59.5586 114.974 60.0443 115.26 60.6522C115.552 61.275 115.692 62.0637 115.692 63.0036V71.6674H113.212V63.3351C113.212 62.8015 113.151 62.3604 113.037 62.008L113.035 62.0027C112.927 61.6393 112.769 61.3512 112.566 61.1324L112.563 61.1293C112.366 60.9091 112.127 60.7478 111.842 60.6447L111.839 60.6437C111.558 60.5391 111.234 60.4844 110.866 60.4843C110.173 60.4843 109.542 60.6723 108.966 61.0474C108.408 61.4089 107.9 61.9096 107.445 62.5541V71.6674H104.951V63.3351C104.951 62.8015 104.89 62.3604 104.776 62.008L104.774 62.0027C104.666 61.6393 104.508 61.3512 104.305 61.1324L104.302 61.1293C104.105 60.9091 103.865 60.7478 103.58 60.6447L103.578 60.6437C103.297 60.5391 102.973 60.4844 102.605 60.4843C101.999 60.4843 101.443 60.628 100.935 60.9146L100.72 61.0464L100.718 61.0474C100.159 61.4091 99.6514 61.9101 99.1964 62.5552V71.6674H96.7026V58.6153H98.6874L98.7267 58.7843L99.0359 60.1454C99.1987 59.9596 99.3695 59.7829 99.5481 59.6162L99.768 59.4218C99.9185 59.2968 100.077 59.1818 100.241 59.0754L100.492 58.9224C100.845 58.7178 101.23 58.5603 101.645 58.4496C102.064 58.3379 102.518 58.2827 103.003 58.2827C103.977 58.2828 104.805 58.5179 105.47 59.0021C106.043 59.4199 106.499 59.9698 106.838 60.6447C107.292 60.0522 107.795 59.5604 108.351 59.1731L108.626 58.9925C109.382 58.517 110.261 58.2827 111.252 58.2827ZM98.9785 62.485V71.4496H96.9204L98.9796 71.4507L98.9785 62.485C99.0309 62.4095 99.0841 62.3349 99.1379 62.263L98.9785 62.485ZM115.474 63.0025V71.4496H113.43L115.475 71.4507V63.0036C115.475 62.8911 115.472 62.7806 115.468 62.6731C115.472 62.7804 115.474 62.8902 115.474 63.0025ZM104.464 60.9848C104.409 60.9229 104.35 60.8641 104.289 60.8105L104.464 60.9848ZM112.726 60.9848C112.67 60.9229 112.612 60.8641 112.55 60.8105L112.726 60.9848ZM115.075 60.7733C115.134 60.9037 115.188 61.042 115.234 61.1888C115.211 61.1145 115.187 61.042 115.16 60.972L115.075 60.7733ZM101.063 60.6022C100.904 60.677 100.75 60.765 100.599 60.8647C100.51 60.9221 100.424 60.9835 100.338 61.0474C100.351 61.0376 100.364 61.0273 100.377 61.0177L100.599 60.8647C100.825 60.7154 101.06 60.5935 101.304 60.5002L101.063 60.6022ZM103.724 60.4694C103.856 60.5226 103.981 60.5845 104.096 60.6617L103.883 60.5374C103.832 60.5117 103.778 60.4912 103.724 60.4694ZM111.985 60.4694C112.117 60.5226 112.242 60.5845 112.357 60.6617L112.144 60.5374C112.093 60.5117 112.039 60.4912 111.985 60.4694ZM102.605 60.2665C102.329 60.2665 102.063 60.2944 101.806 60.3504L102.066 60.3047C102.242 60.2799 102.421 60.2665 102.605 60.2665L102.89 60.2782C102.908 60.2796 102.925 60.2818 102.943 60.2835C102.834 60.2732 102.721 60.2665 102.605 60.2665ZM110.866 60.2665C110.591 60.2665 110.323 60.2944 110.065 60.3504L110.326 60.3047C110.502 60.2799 110.682 60.2665 110.866 60.2665L111.151 60.2782C111.169 60.2796 111.186 60.2818 111.204 60.2835C111.095 60.2732 110.982 60.2665 110.866 60.2665ZM108.249 59.5163C108.24 59.5234 108.231 59.5304 108.221 59.5376C108.305 59.4727 108.39 59.4113 108.475 59.3516L108.249 59.5163ZM112.659 58.6865C112.781 58.717 112.9 58.7536 113.018 58.797C112.96 58.7757 112.902 58.7557 112.843 58.7375L112.659 58.6865Z" fill="black"/>
<path fill-rule="evenodd" clip-rule="evenodd" d="M66.3376 56.1141H63.7376V53.3813H66.3376V56.1141Z" fill="black"/>
<path fill-rule="evenodd" clip-rule="evenodd" d="M78.9817 56.1141H76.3817V53.3813H78.9817V56.1141Z" fill="black"/>
<path d="M25.6738 71.2222C27.8055 71.2274 29.9351 71.2274 32.0625 71.2222C32.1283 71.2158 32.1947 71.2303 32.252 71.2632C32.3093 71.2962 32.3552 71.3467 32.3828 71.4067C33.4443 73.2593 34.51 75.1091 35.5801 76.9556C35.6186 77.009 35.6396 77.0733 35.6396 77.1392C35.6396 77.2052 35.6187 77.2701 35.5801 77.3237C34.5138 79.1499 33.4503 80.9787 32.3906 82.8101C32.3609 82.8725 32.3124 82.9238 32.252 82.9575C32.1916 82.9912 32.1224 83.006 32.0537 82.9985C30.9921 82.9914 29.9298 82.9946 28.8682 82.9946H25.665C25.6023 83.0017 25.5386 82.9891 25.4834 82.9585C25.4282 82.9279 25.3837 82.8806 25.3564 82.8237C24.2906 80.9815 23.2204 79.1408 22.1455 77.3032C22.1107 77.2548 22.0918 77.1968 22.0918 77.1372C22.0918 77.0776 22.1106 77.0196 22.1455 76.9712C23.2189 75.1185 24.2881 73.2627 25.3535 71.4048C25.3813 71.3449 25.427 71.2949 25.4844 71.2622C25.5418 71.2295 25.6081 71.2155 25.6738 71.2222ZM28.8691 72.769H26.5781C26.5125 72.7621 26.446 72.7754 26.3887 72.8081C26.3314 72.8409 26.2861 72.8916 26.2588 72.9517C25.4985 74.2903 24.7326 75.6265 23.9619 76.9595C23.9234 77.0128 23.9023 77.0773 23.9023 77.1431C23.9024 77.2089 23.9233 77.2733 23.9619 77.3267C24.7269 78.6174 25.4872 79.9112 26.2422 81.2085C26.2728 81.2743 26.3237 81.3297 26.3867 81.3657C26.4495 81.4015 26.5218 81.4165 26.5938 81.4097C27.8728 81.4026 29.1566 81.4058 30.4385 81.4058C30.6842 81.4058 30.93 81.3994 31.1758 81.4058C31.2359 81.4145 31.2975 81.4031 31.3506 81.3735C31.4035 81.3441 31.4453 81.2981 31.4697 81.2427C31.5799 81.0295 31.708 80.8274 31.8252 80.6206C32.4803 79.5046 33.1354 78.3885 33.791 77.2729C33.8275 77.2249 33.8481 77.1663 33.8496 77.106C33.851 77.0458 33.8337 76.9867 33.7998 76.937C33.0139 75.5983 32.2324 74.2565 31.4551 72.9126C31.432 72.8644 31.3944 72.8244 31.3477 72.7983C31.3008 72.7723 31.2466 72.7612 31.1934 72.7671C30.4231 72.7714 29.6458 72.769 28.8691 72.769ZM14.582 64.9839C16.7137 64.9891 18.8433 64.9891 20.9707 64.9839C21.0365 64.9776 21.1029 64.9919 21.1602 65.0249C21.2173 65.0579 21.2635 65.1075 21.291 65.1675C22.3526 67.0196 23.4182 68.8699 24.4883 70.7173C24.5266 70.7708 24.5469 70.8351 24.5469 70.9009C24.5468 70.9667 24.5267 71.031 24.4883 71.0845C23.4196 72.9106 22.3551 74.7394 21.2959 76.5708C21.2662 76.6333 21.2176 76.6854 21.1572 76.7192C21.0969 76.7529 21.0277 76.7666 20.959 76.7593C19.8981 76.7515 18.836 76.7554 17.7744 76.7554C16.7087 76.7554 15.6382 76.7557 14.5703 76.7593C14.5077 76.7655 14.4444 76.7523 14.3896 76.7212C14.3348 76.69 14.2913 76.6417 14.2646 76.5845C13.1999 74.7415 12.1294 72.9018 11.0537 71.0649C11.019 71.0167 11.0001 70.9584 11 70.8989C11 70.8394 11.019 70.7812 11.0537 70.7329C12.1276 68.8798 13.1969 67.0243 14.2617 65.1665C14.2894 65.1066 14.3353 65.0567 14.3926 65.0239C14.45 64.9912 14.5163 64.9772 14.582 64.9839ZM43.21 64.9761C43.2755 64.9698 43.3414 64.9842 43.3984 65.0171C43.4555 65.05 43.5009 65.0998 43.5283 65.1597C44.5899 67.0124 45.6565 68.8625 46.7266 70.7095C46.7648 70.763 46.7851 70.8273 46.7852 70.8931C46.7852 70.9587 46.7646 71.0231 46.7266 71.0767C45.6579 72.9028 44.5934 74.7317 43.5342 76.563C43.5045 76.6256 43.456 76.6776 43.3955 76.7114C43.3352 76.7452 43.266 76.7597 43.1973 76.7524C42.1372 76.7482 41.0752 76.7515 40.0137 76.7515H36.8096C36.7469 76.7579 36.6837 76.7446 36.6289 76.7134C36.5742 76.6822 36.5304 76.6348 36.5039 76.5776C35.4381 74.7344 34.3673 72.8947 33.292 71.0581C33.2572 71.0098 33.2384 70.9516 33.2383 70.8921C33.2383 70.8324 33.2571 70.7735 33.292 70.7251C34.3649 68.872 35.4342 67.0165 36.5 65.1587C36.5276 65.0988 36.5736 65.0489 36.6309 65.0161C36.6882 64.9834 36.7546 64.9694 36.8203 64.9761C38.952 64.9808 41.0821 64.9808 43.21 64.9761ZM15.4834 66.5269C15.4179 66.5196 15.3513 66.5333 15.2939 66.5659C15.2367 66.5986 15.1912 66.6485 15.1641 66.7085C14.4038 68.0472 13.6379 69.3833 12.8672 70.7163C12.8286 70.7697 12.8076 70.834 12.8076 70.8999C12.8076 70.9657 12.8287 71.0301 12.8672 71.0835C13.6327 72.3743 14.3929 73.6688 15.1475 74.9663C15.1781 75.0321 15.229 75.0865 15.292 75.1226C15.3548 75.1584 15.427 75.1743 15.499 75.1675H20.0811C20.1413 75.1765 20.2035 75.1648 20.2568 75.1353C20.3098 75.1058 20.3517 75.0599 20.376 75.0044C20.4854 74.7912 20.6135 74.5891 20.7314 74.3823C21.3865 73.2659 22.0417 72.1502 22.6973 71.0356C22.7336 70.9875 22.7543 70.929 22.7559 70.8687C22.7574 70.8083 22.7399 70.7487 22.7061 70.6987C21.9202 69.36 21.1387 68.0182 20.3613 66.6743C20.3377 66.6266 20.2997 66.5874 20.2529 66.562C20.206 66.5366 20.1517 66.5264 20.0986 66.5327C19.3286 66.5299 18.5521 66.5298 17.7764 66.5298L17.7744 66.5308C17.0106 66.5308 16.2465 66.5347 15.4834 66.5269ZM37.7227 66.5229C37.657 66.5157 37.5906 66.5294 37.5332 66.562C37.4759 66.5946 37.4307 66.6446 37.4033 66.7046C36.6454 68.0433 35.8795 69.3799 35.1064 70.7134C35.0682 70.7668 35.0479 70.8312 35.0479 70.897C35.0479 70.9625 35.0683 71.0263 35.1064 71.0796C35.8724 72.3709 36.6326 73.6654 37.3867 74.9624C37.4173 75.0281 37.4674 75.0826 37.5303 75.1187C37.5933 75.1547 37.6661 75.1705 37.7383 75.1636H42.3203C42.3804 75.1724 42.4419 75.1617 42.4951 75.1323C42.5484 75.1029 42.5907 75.0561 42.6152 75.0005C42.7253 74.7875 42.8522 74.585 42.9736 74.3784C43.6278 73.2624 44.2829 72.1468 44.9395 71.0317C44.9755 70.9834 44.9965 70.925 44.998 70.8647C44.9996 70.8044 44.9819 70.7449 44.9482 70.6948C44.1619 69.3561 43.3804 68.0143 42.6035 66.6704C42.5795 66.6228 42.541 66.5835 42.4941 66.5581C42.4473 66.5329 42.3937 66.5229 42.3408 66.5288C41.5684 66.5302 40.7913 66.5298 40.0146 66.5298L40.0137 66.5269C39.2498 66.5269 38.4858 66.5308 37.7227 66.5229ZM32.0615 58.6353C32.1271 58.6291 32.1929 58.6434 32.25 58.6763C32.3073 58.7094 32.3534 58.7596 32.3809 58.8198C33.4424 60.672 34.508 62.5217 35.5781 64.3687C35.6168 64.4221 35.6377 64.4863 35.6377 64.5522C35.6377 64.6182 35.6168 64.6824 35.5781 64.7358C34.5104 66.5638 33.4479 68.3933 32.3906 70.2241C32.361 70.2868 32.3125 70.3387 32.252 70.3726C32.1916 70.4063 32.1224 70.421 32.0537 70.4136C30.9887 70.4065 29.9267 70.4106 28.8652 70.4106H25.6611C25.5985 70.4171 25.5353 70.4036 25.4805 70.3726C25.4256 70.3414 25.3811 70.294 25.3545 70.2368C24.2891 68.3941 23.2189 66.5534 22.1436 64.7163C22.1088 64.668 22.0898 64.6098 22.0898 64.5503C22.0899 64.4907 22.1087 64.4326 22.1436 64.3843C23.2175 62.5311 24.2867 60.6753 25.3516 58.8179C25.3794 58.758 25.4252 58.7081 25.4824 58.6753C25.5397 58.6425 25.6062 58.6289 25.6719 58.6353C27.8036 58.64 29.9341 58.64 32.0615 58.6353ZM26.5742 60.1851C26.5086 60.178 26.4421 60.1915 26.3848 60.2241C26.3274 60.2568 26.2814 60.3067 26.2539 60.3667C25.4937 61.7057 24.7286 63.0417 23.958 64.3745C23.9194 64.4278 23.8985 64.4923 23.8984 64.5581C23.8984 64.6239 23.9194 64.6884 23.958 64.7417C24.723 66.0325 25.4832 67.3266 26.2383 68.6245C26.2688 68.6903 26.3188 68.7458 26.3818 68.7817C26.4448 68.8176 26.5177 68.833 26.5898 68.8257H31.1719C31.2322 68.8349 31.2943 68.8231 31.3477 68.7935C31.401 68.7637 31.4428 68.7168 31.4668 68.6606C31.5769 68.4476 31.7054 68.2455 31.8262 68.0396C32.4813 66.923 33.1364 65.807 33.792 64.6919C33.8285 64.6438 33.8491 64.5852 33.8506 64.5249C33.8521 64.4648 33.8346 64.4057 33.8008 64.356C33.0149 63.0172 32.2334 61.6755 31.4561 60.3315C31.4329 60.283 31.3946 60.2425 31.3477 60.2163C31.3008 60.1902 31.2467 60.1793 31.1934 60.1851H26.5742ZM43.207 52.2954C43.2728 52.2889 43.3392 52.3025 43.3965 52.3354C43.4537 52.3684 43.499 52.4189 43.5264 52.479C44.5879 54.3312 45.6536 56.1809 46.7236 58.0278C46.7622 58.0813 46.7831 58.1455 46.7832 58.2114C46.7832 58.2775 46.7623 58.3424 46.7236 58.396C45.6555 60.2221 44.5924 62.0511 43.5332 63.8823C43.5036 63.9449 43.455 63.997 43.3945 64.0308C43.334 64.0645 43.2642 64.0785 43.1953 64.0708C42.1338 64.0665 41.0723 64.0698 40.0107 64.0698H36.8066C36.7438 64.0765 36.6799 64.063 36.625 64.0317C36.5703 64.0005 36.5263 63.9532 36.5 63.896C35.4347 62.0538 34.3643 60.2139 33.2891 58.3765C33.2541 58.3281 33.2354 58.2692 33.2354 58.2095C33.2354 58.1499 33.2542 58.0918 33.2891 58.0435C34.3629 56.1909 35.4323 54.3358 36.4971 52.478C36.5248 52.418 36.5715 52.3682 36.6289 52.3354C36.6863 52.3028 36.7526 52.2887 36.8184 52.2954C38.9499 52.3001 41.0797 52.3001 43.207 52.2954ZM14.5918 52.2896C16.7235 52.2948 18.8536 52.2948 20.9814 52.2896C21.0471 52.2835 21.1129 52.2976 21.1699 52.3306C21.2271 52.3637 21.2724 52.414 21.2998 52.4741C22.3614 54.3263 23.4279 56.176 24.498 58.0229C24.5362 58.0765 24.5566 58.1408 24.5566 58.2065C24.5566 58.2723 24.5362 58.3366 24.498 58.3901C23.4289 60.2163 22.3649 62.0451 21.3066 63.8765C21.277 63.9391 21.2284 63.991 21.168 64.0249C21.1075 64.0587 21.0376 64.0725 20.9688 64.0649C19.906 64.0571 18.8446 64.061 17.7832 64.061C16.7174 64.061 15.647 64.0614 14.5791 64.0649C14.5165 64.0715 14.4532 64.058 14.3984 64.0269C14.3436 63.9956 14.2998 63.9474 14.2734 63.8901C13.2076 62.048 12.1368 60.208 11.0615 58.3706C11.0267 58.3222 11.0078 58.2642 11.0078 58.2046C11.0078 58.145 11.0267 58.0869 11.0615 58.0386C12.1359 56.1855 13.2066 54.33 14.2725 52.4722C14.3 52.4123 14.3452 52.3623 14.4023 52.3296C14.4597 52.2969 14.5261 52.2829 14.5918 52.2896ZM40.0117 53.8442H40.0107C39.2477 53.8442 38.4837 53.8481 37.7207 53.8403C37.655 53.8334 37.5886 53.8476 37.5312 53.8804C37.4739 53.9131 37.4278 53.9628 37.4004 54.0229C36.6401 55.3616 35.8752 56.6978 35.1045 58.0308C35.0658 58.0842 35.0449 58.1484 35.0449 58.2144C35.0449 58.2803 35.0658 58.3445 35.1045 58.3979C35.8695 59.6893 36.6297 60.9838 37.3848 62.2808C37.4156 62.3469 37.4659 62.402 37.5293 62.438C37.5929 62.474 37.6666 62.4896 37.7393 62.4819C39.0183 62.4748 40.3021 62.4771 41.584 62.4771C41.8297 62.477 42.0755 62.4707 42.3213 62.4771C42.3814 62.4859 42.443 62.4753 42.4961 62.4458C42.5492 62.4163 42.5909 62.3697 42.6152 62.314C42.7254 62.1008 42.8535 61.8987 42.9707 61.6919C43.6257 60.5761 44.2811 59.4606 44.9365 58.3452C44.973 58.2972 44.9936 58.2385 44.9951 58.1782C44.9966 58.1179 44.9793 58.0581 44.9453 58.0083C44.1595 56.6697 43.3779 55.3286 42.6006 53.9849C42.5774 53.9364 42.54 53.8958 42.4932 53.8696C42.4462 53.8434 42.3914 53.8327 42.3379 53.8384C41.5644 53.8469 40.7881 53.8442 40.0117 53.8442ZM17.7842 53.8364H17.7832C17.0194 53.8364 16.2553 53.8403 15.4922 53.8325C15.4266 53.8256 15.3601 53.839 15.3027 53.8716C15.2454 53.9042 15.1995 53.9542 15.1719 54.0142C14.4116 55.3538 13.6467 56.6904 12.876 58.0229C12.8378 58.0763 12.8165 58.14 12.8164 58.2056C12.8164 58.2713 12.8377 58.3357 12.876 58.3892C13.6415 59.6805 14.4016 60.9754 15.1562 62.2729C15.187 62.3383 15.2371 62.3924 15.2998 62.4282C15.3628 62.4641 15.4357 62.4801 15.5078 62.4731C16.7867 62.466 18.0705 62.4692 19.3516 62.4692C19.5974 62.4692 19.844 62.4628 20.0898 62.4692C20.1499 62.478 20.2115 62.4673 20.2646 62.438C20.3177 62.4087 20.3592 62.3625 20.3838 62.3071C20.4939 62.094 20.6217 61.8911 20.7432 61.6851C21.3973 60.5685 22.0524 59.4525 22.709 58.3374C22.7452 58.2892 22.7661 58.2306 22.7676 58.1704C22.769 58.1103 22.7514 58.0513 22.7178 58.0015C21.931 56.6629 21.1494 55.3213 20.373 53.9771C20.3498 53.9286 20.3116 53.8879 20.2646 53.8618C20.2178 53.8359 20.1636 53.8247 20.1104 53.8306C19.3367 53.8384 18.5607 53.8364 17.7842 53.8364ZM32.0654 46.0015C32.1312 45.9952 32.1976 46.0095 32.2549 46.0425C32.3121 46.0755 32.3572 46.126 32.3848 46.186C33.4463 48.0382 34.5129 49.8875 35.583 51.7349C35.6217 51.7883 35.6426 51.8535 35.6426 51.9194C35.6425 51.9852 35.6216 52.0497 35.583 52.103C34.5153 53.9292 33.4508 55.758 32.3906 57.5894C32.3609 57.6518 32.3123 57.704 32.252 57.7378C32.1917 57.7714 32.1224 57.7851 32.0537 57.7778C30.9928 57.77 29.9307 57.7739 28.8691 57.7739C27.8033 57.7739 26.733 57.7733 25.665 57.7769C25.6023 57.7832 25.5392 57.7699 25.4844 57.7388C25.4296 57.7076 25.386 57.6602 25.3594 57.603C24.294 55.7598 23.2228 53.9201 22.1475 52.0835C22.1127 52.0352 22.0948 51.977 22.0947 51.9175C22.0947 51.8578 22.1125 51.7989 22.1475 51.7505C23.2213 49.8974 24.2916 48.0419 25.3564 46.1841C25.3843 46.1243 25.43 46.0742 25.4873 46.0415C25.5447 46.0089 25.6111 45.9949 25.6768 46.0015C27.8084 46.0062 29.938 46.0062 32.0654 46.0015ZM26.5781 47.5454C26.5125 47.5381 26.4461 47.5518 26.3887 47.5845C26.3314 47.6172 26.286 47.667 26.2588 47.7271C25.4985 49.0666 24.7326 50.4024 23.9619 51.7349C23.9233 51.7881 23.9024 51.8527 23.9023 51.9185C23.9023 51.9843 23.9233 52.0487 23.9619 52.1021C24.727 53.3934 25.4871 54.6878 26.2422 55.9849C26.2728 56.0504 26.323 56.1051 26.3857 56.1411C26.4487 56.1771 26.5216 56.1929 26.5938 56.186C27.8728 56.1789 29.1566 56.1821 30.4385 56.1821C30.6842 56.1821 30.93 56.1757 31.1758 56.1821C31.2358 56.191 31.2975 56.1803 31.3506 56.1509C31.4037 56.1215 31.4453 56.0746 31.4697 56.019C31.5798 55.806 31.708 55.6037 31.8252 55.397C32.4865 54.2828 33.1441 53.1678 33.7979 52.0522C33.8342 52.0041 33.8549 51.9456 33.8564 51.8853C33.858 51.8249 33.8405 51.7653 33.8066 51.7153C33.0208 50.3771 32.2383 49.0362 31.4609 47.6919C31.4372 47.6441 31.3995 47.604 31.3525 47.5786C31.3057 47.5533 31.2521 47.5432 31.1992 47.5493C30.4234 47.5507 29.6469 47.5483 28.8711 47.5483H28.8691C28.1053 47.5483 27.3413 47.5532 26.5781 47.5454Z" fill="black"/>
</svg>
