<svg width="128" height="128" viewBox="0 0 128 128" fill="none" xmlns="http://www.w3.org/2000/svg">
<path d="M24.5518 102.425C25.492 102.425 26.3939 102.526 27.2568 102.731L27.2549 102.733C28.1151 102.925 28.8635 103.2 29.4951 103.564L29.6582 103.658V106.89L29.2168 106.721C28.3913 106.406 27.6347 106.174 26.9492 106.019C26.2701 105.865 25.5775 105.787 24.8711 105.787C24.1368 105.787 23.4074 105.907 22.6826 106.148C21.9749 106.385 21.3383 106.775 20.7744 107.326L20.7715 107.33C20.2165 107.86 19.7535 108.579 19.3955 109.499L19.3975 109.501C19.0573 110.396 18.8819 111.529 18.8818 112.911C18.8818 113.903 19.0096 114.813 19.2637 115.64L19.3691 115.943C19.6289 116.642 19.9808 117.254 20.4199 117.781C20.9287 118.363 21.5637 118.825 22.3291 119.164L22.6201 119.279C23.3158 119.529 24.1107 119.657 25.0098 119.657C25.7554 119.657 26.5086 119.578 27.2695 119.424L27.8398 119.287C28.4063 119.136 28.962 118.948 29.5068 118.725L29.5059 118.726L29.957 118.54V121.784L29.7969 121.88C29.5479 122.026 29.2274 122.164 28.8467 122.3L28.8486 122.302C28.4755 122.44 28.0631 122.556 27.6152 122.651L27.6172 122.653C27.1643 122.763 26.6852 122.844 26.1816 122.898L26.1797 122.896C25.6772 122.964 25.174 123 24.6709 123C23.3633 123 22.1182 122.803 20.9404 122.406L20.9385 122.404C19.7672 122.005 18.7379 121.389 17.8535 120.561C16.9647 119.727 16.2676 118.675 15.7607 117.416C15.2507 116.148 15 114.656 15 112.952C15 111.682 15.1283 110.531 15.3887 109.504L15.3906 109.501L15.6123 108.757C15.8524 108.035 16.1503 107.378 16.502 106.788C16.9689 106.006 17.514 105.334 18.1387 104.778L18.1416 104.775L18.6211 104.383C19.107 104.01 19.6145 103.693 20.1416 103.435L20.6816 103.186C21.2265 102.956 21.7852 102.784 22.3555 102.67C23.105 102.507 23.8377 102.425 24.5518 102.425Z" fill="white"/>
<path d="M65.9766 114.844C65.9766 115.865 66.1121 116.698 66.3711 117.352L66.4912 117.621C66.7858 118.228 67.2129 118.716 67.7754 119.089C68.4267 119.499 69.2733 119.717 70.332 119.717C71.4554 119.717 72.3195 119.474 72.9512 119.021L72.9541 119.019L73.1914 118.837C73.6508 118.459 74.0052 117.991 74.2529 117.431L74.3672 117.143C74.5769 116.537 74.6885 115.774 74.6885 114.843V102.922H78.4287V114.883C78.4287 115.534 78.388 116.148 78.3057 116.723L78.3047 116.721C78.2356 117.283 78.1187 117.808 77.9521 118.295L77.9502 118.304C77.7006 118.985 77.3497 119.615 76.9062 120.198L76.9082 120.2C76.4723 120.776 75.931 121.275 75.291 121.692C74.6481 122.112 73.905 122.427 73.0684 122.646L73.0703 122.648C72.2397 122.883 71.3055 122.999 70.2734 122.999C69.268 122.999 68.3531 122.89 67.5371 122.669C66.7261 122.449 66.0032 122.138 65.374 121.732L65.3711 121.73C64.7585 121.327 64.2344 120.843 63.7998 120.283L63.7969 120.279C63.3668 119.71 63.0256 119.091 62.7754 118.425C62.5802 117.922 62.4408 117.372 62.3584 116.781C62.2761 116.193 62.2363 115.553 62.2363 114.864V102.922H65.9766V114.844Z" fill="white"/>
<path d="M105.376 102.425C106.07 102.425 106.801 102.522 107.565 102.713C108.355 102.911 109.081 103.279 109.739 103.81C110.411 104.338 110.958 105.067 111.387 105.979C111.825 106.912 112.036 108.096 112.036 109.506V122.502H108.316V110.004C108.316 109.204 108.224 108.541 108.053 108.013L108.05 108.005C107.889 107.46 107.652 107.027 107.348 106.699L107.342 106.694C107.047 106.364 106.687 106.122 106.26 105.968L106.257 105.966C105.834 105.809 105.349 105.727 104.797 105.727C103.758 105.727 102.81 106.009 101.947 106.571C101.11 107.114 100.347 107.864 99.665 108.831V122.501H95.9248V110.003C95.9248 109.203 95.8338 108.54 95.6621 108.012L95.6582 108.004C95.4973 107.459 95.2602 107.026 94.9561 106.698L94.9512 106.693C94.6565 106.363 94.2958 106.121 93.8682 105.967L93.8652 105.965C93.4433 105.808 92.957 105.727 92.4053 105.727C91.4962 105.727 90.6631 105.943 89.9004 106.372L89.5781 106.569L89.5752 106.571C88.737 107.114 87.9753 107.866 87.293 108.833V122.501H83.5527V102.923H86.5293L86.5889 103.177L87.0527 105.218C87.2966 104.939 87.5524 104.674 87.8203 104.424L88.1504 104.133C88.3759 103.945 88.6129 103.773 88.8594 103.613L89.2354 103.384C89.7663 103.077 90.344 102.841 90.9668 102.675C91.5953 102.508 92.2759 102.425 93.0039 102.425C94.4643 102.425 95.7065 102.777 96.7031 103.503C97.5629 104.13 98.2464 104.955 98.7559 105.968C99.4363 105.079 100.192 104.341 101.025 103.76L101.438 103.489C102.571 102.776 103.889 102.425 105.376 102.425Z" fill="white"/>
<path d="M37.9268 122.501H34.1865V102.921H37.9268V122.501Z" fill="white"/>
<path d="M47.4092 122.501H43.6689V93H47.4092V122.501Z" fill="white"/>
<path d="M56.8916 122.501H53.1523V102.921H56.8916V122.501Z" fill="white"/>
<path d="M38.0059 99.1709H34.1064V95.0723H38.0059V99.1709Z" fill="white"/>
<path d="M56.9717 95.0723V99.1709H53.0723V95.0723H56.9717Z" fill="white"/>
<path d="M36.9491 44.4676C34.4429 44.4676 31.9267 44.4676 29.4155 44.476C29.268 44.4913 29.1194 44.4601 28.9906 44.3867C28.8617 44.3133 28.7591 44.2014 28.6971 44.0667C26.1909 39.7348 23.6736 35.4086 21.1451 31.0879C21.063 30.974 21.0188 30.8373 21.0188 30.6969C21.0188 30.5566 21.063 30.4198 21.1451 30.3059C23.6713 25.9485 26.1875 21.5855 28.6937 17.2169C28.7587 17.0759 28.8661 16.9588 29.0009 16.8818C29.1357 16.8048 29.2911 16.7718 29.4456 16.7875C34.458 16.7997 39.4659 16.7997 44.4693 16.7875C44.624 16.7731 44.7793 16.8072 44.9137 16.885C45.0481 16.9629 45.155 17.0806 45.2195 17.2219C47.7157 21.5771 50.2219 25.9262 52.7381 30.2692C52.828 30.3952 52.8764 30.5462 52.8764 30.7011C52.8764 30.8559 52.828 31.0069 52.7381 31.133C50.2241 35.4269 47.7229 39.727 45.2346 44.0332C45.165 44.1807 45.0511 44.3027 44.9088 44.3824C44.7666 44.4621 44.603 44.4954 44.4409 44.4777C41.9414 44.4593 39.4453 44.4676 36.9491 44.4676ZM36.9491 20.4248C35.153 20.4248 33.3569 20.4348 31.5625 20.4165C31.4082 20.4002 31.2526 20.4327 31.1178 20.5094C30.9829 20.5861 30.8755 20.7032 30.8106 20.8442C29.0229 23.9942 27.2229 27.1359 25.4106 30.2692C25.3206 30.3949 25.2721 30.5456 25.2721 30.7002C25.2721 30.8549 25.3206 31.0056 25.4106 31.1313C27.2106 34.1677 28.9978 37.2114 30.7722 40.2622C30.8445 40.4166 30.9629 40.5447 31.111 40.629C31.259 40.7134 31.4296 40.7499 31.5992 40.7334C34.6067 40.7167 37.6258 40.725 40.6382 40.725C41.2163 40.725 41.7944 40.71 42.3725 40.725C42.514 40.746 42.6585 40.7199 42.7838 40.6508C42.909 40.5817 43.0081 40.4733 43.0659 40.3424C43.3248 39.8412 43.6239 39.365 43.9096 38.8805C45.4479 36.2551 46.9889 33.6314 48.5327 31.0093C48.6178 30.896 48.6654 30.759 48.669 30.6174C48.6726 30.4758 48.632 30.3365 48.5528 30.2191C46.7026 27.0713 44.8648 23.9168 43.0391 20.7556C42.9845 20.6417 42.8959 20.5476 42.7854 20.4862C42.675 20.4249 42.5482 20.3993 42.4226 20.4131C40.6031 20.4315 38.7786 20.4248 36.9524 20.4248H36.9491Z" fill="white"/>
<path d="M36.9297 74.3163C34.4235 74.3163 31.9073 74.3163 29.3961 74.3247C29.2484 74.3396 29.0998 74.3083 28.9707 74.2349C28.8417 74.1616 28.7387 74.0499 28.676 73.9153C26.172 69.5813 23.6553 65.2545 21.1257 60.9349C21.044 60.8212 21 60.6848 21 60.5448C21 60.4048 21.044 60.2683 21.1257 60.1546C23.6508 55.7972 26.1653 51.4342 28.6693 47.0656C28.7346 46.9245 28.8423 46.8073 28.9774 46.7303C29.1124 46.6533 29.2682 46.6204 29.4228 46.6362C34.4352 46.6484 39.4426 46.6484 44.4449 46.6362C44.5997 46.6213 44.7552 46.655 44.8899 46.7325C45.0247 46.8101 45.1319 46.9276 45.1968 47.0689C47.6929 51.4241 50.1991 55.7738 52.7153 60.1179C52.8058 60.2437 52.8544 60.3948 52.8544 60.5498C52.8544 60.7048 52.8058 60.8558 52.7153 60.9817C50.2025 65.2756 47.7007 69.5757 45.2101 73.8819C45.1403 74.0292 45.0264 74.1511 44.8842 74.2308C44.742 74.3104 44.5786 74.3438 44.4165 74.3264C41.922 74.308 39.4259 74.3163 36.9297 74.3163ZM36.9297 50.2735C35.1336 50.2735 33.3375 50.2835 31.5431 50.2652C31.3886 50.2478 31.2327 50.2799 31.0976 50.3567C30.9625 50.4336 30.8552 50.5513 30.7912 50.6929C29.0035 53.8407 27.2035 56.9818 25.3912 60.1162C25.3003 60.2419 25.2514 60.393 25.2514 60.5481C25.2514 60.7032 25.3003 60.8543 25.3912 60.98C27.1912 64.0153 28.9784 67.0584 30.7528 70.1093C30.8249 70.2639 30.9431 70.3924 31.0912 70.4771C31.2393 70.5617 31.41 70.5984 31.5798 70.5821C34.5872 70.5654 37.6047 70.5821 40.6188 70.5821C41.1969 70.5821 41.775 70.5654 42.3531 70.5821C42.4948 70.6032 42.6396 70.577 42.7649 70.5075C42.8903 70.4381 42.9892 70.3292 43.0465 70.1978C43.3038 69.6966 43.6045 69.2221 43.8819 68.7359C45.4223 66.1105 46.9634 63.4873 48.5049 60.8664C48.5906 60.753 48.6386 60.6157 48.6422 60.4736C48.6458 60.3316 48.6048 60.192 48.525 60.0744C46.6771 56.9266 44.8392 53.7727 43.0114 50.6127C42.9557 50.5002 42.8665 50.4076 42.7561 50.3478C42.6457 50.288 42.5195 50.2638 42.3949 50.2785C40.5837 50.2718 38.7575 50.2718 36.933 50.2718L36.9297 50.2735Z" fill="white"/>
<path d="M63.0156 88.9868C60.5095 88.9868 57.9932 88.9868 55.482 88.9868C55.3343 89.0033 55.1851 88.9735 55.0551 88.9013C54.9252 88.8291 54.8209 88.7182 54.7569 88.5841C52.2507 84.2523 49.734 79.926 47.2066 75.6053C47.1245 75.4915 47.0803 75.3547 47.0803 75.2143C47.0803 75.074 47.1245 74.9372 47.2066 74.8234C49.7306 70.467 52.2452 66.1046 54.7502 61.736C54.8155 61.5949 54.9232 61.4777 55.0583 61.4007C55.1934 61.3237 55.3491 61.2908 55.5038 61.3066C60.5161 61.3188 65.5235 61.3188 70.5259 61.3066C70.6806 61.2917 70.8361 61.3254 70.9709 61.4029C71.1056 61.4805 71.2128 61.5981 71.2777 61.7393C73.7739 66.0957 76.2801 70.4448 78.7963 74.7866C78.8871 74.9126 78.936 75.064 78.936 75.2193C78.936 75.3747 78.8871 75.5261 78.7963 75.6521C76.289 79.946 73.7895 84.2461 71.2978 88.5523C71.2279 88.6995 71.1139 88.8212 70.9717 88.9005C70.8295 88.9799 70.666 89.0129 70.5041 88.9951C68.008 88.9784 65.5118 88.9868 63.0156 88.9868ZM63.0156 64.9422C61.2212 64.9422 59.4251 64.9523 57.6307 64.9422C57.4762 64.9258 57.3204 64.9585 57.1854 65.0355C57.0505 65.1126 56.9432 65.2302 56.8788 65.3716C55.0911 68.5194 53.2911 71.6605 51.4788 74.795C51.3879 74.9206 51.339 75.0718 51.339 75.2269C51.339 75.382 51.3879 75.5331 51.4788 75.6588C53.2777 78.6941 55.0649 81.7371 56.8404 84.788C56.9125 84.9427 57.0307 85.0711 57.1788 85.1558C57.3269 85.2405 57.4976 85.2772 57.6674 85.2609C60.6749 85.2442 63.6923 85.2508 66.7064 85.2508C67.2845 85.2508 67.8626 85.2358 68.4407 85.2508C68.5822 85.2713 68.7264 85.2448 68.8514 85.1753C68.9763 85.1059 69.075 84.9975 69.1324 84.8666C69.3914 84.3653 69.6921 83.8908 69.9678 83.4046C71.5083 80.7803 73.0493 78.1566 74.5909 75.5335C74.6767 75.4205 74.7247 75.2834 74.7283 75.1415C74.7319 74.9997 74.6909 74.8604 74.6109 74.7432C72.7631 71.5954 70.9252 68.4415 69.0973 65.2814C69.0429 65.1673 68.9543 65.0731 68.8438 65.0117C68.7333 64.9503 68.6064 64.9249 68.4808 64.9389C66.6697 64.9489 64.8435 64.9422 63.0173 64.9422H63.0156Z" fill="white"/>
<path d="M89.214 44.488C86.7078 44.488 84.1916 44.488 81.6804 44.488C81.5326 44.5037 81.3837 44.4727 81.2545 44.3992C81.1253 44.3258 81.0224 44.2137 80.9603 44.0787C78.4552 39.7469 75.9384 35.4206 73.41 31.0999C73.3279 30.9861 73.2837 30.8493 73.2837 30.7089C73.2837 30.5686 73.3279 30.4318 73.41 30.318C75.9351 25.9616 78.4496 21.5992 80.9536 17.2306C81.0189 17.0895 81.1266 16.9723 81.2617 16.8953C81.3967 16.8183 81.5525 16.7855 81.7071 16.8012C86.7195 16.8124 91.7269 16.8124 96.7292 16.8012C96.884 16.7858 97.0398 16.8193 97.1746 16.8969C97.3094 16.9745 97.4166 17.0924 97.4811 17.2339C99.9772 21.5892 102.483 25.9383 105 30.2812C105.09 30.4072 105.139 30.5586 105.139 30.714C105.139 30.8693 105.09 31.0207 105 31.1467C102.488 35.4407 99.9867 39.7407 97.4961 44.0469C97.4264 44.1942 97.3125 44.3161 97.1702 44.3955C97.0279 44.4748 96.8644 44.5078 96.7025 44.4897C94.2063 44.4797 91.7102 44.488 89.214 44.488ZM89.214 20.4436C87.4196 20.4436 85.6235 20.4536 83.829 20.4352C83.6745 20.4188 83.5187 20.4514 83.3838 20.5285C83.2488 20.6056 83.1416 20.7232 83.0772 20.8646C81.2894 24.0124 79.4894 27.1535 77.6772 30.2879C77.5863 30.4136 77.5373 30.5647 77.5373 30.7198C77.5373 30.8749 77.5863 31.026 77.6772 31.1517C79.4761 34.1881 81.2633 37.2312 83.0388 40.281C83.1113 40.437 83.2309 40.5665 83.3806 40.6513C83.5304 40.7361 83.703 40.7719 83.8742 40.7538C86.8816 40.7371 89.899 40.7438 92.9131 40.7438C93.4912 40.7438 94.0693 40.7287 94.6474 40.7438C94.7889 40.7645 94.9333 40.7381 95.0583 40.6686C95.1833 40.5992 95.282 40.4906 95.3391 40.3595C95.5981 39.8582 95.8988 39.3837 96.1745 38.8975C97.715 36.2733 99.256 33.6496 100.798 31.0264C100.883 30.9134 100.931 30.7763 100.935 30.6345C100.939 30.4927 100.898 30.3533 100.818 30.2361C98.9698 27.0883 97.1319 23.9344 95.304 20.7744C95.2495 20.6603 95.1609 20.5659 95.0505 20.5043C94.9401 20.4427 94.8133 20.4168 94.6875 20.4302C92.868 20.4502 91.0418 20.4436 89.2157 20.4436H89.214Z" fill="white"/>
<path d="M89.2211 74.308C86.7149 74.308 84.1987 74.308 81.6875 74.308C81.54 74.3231 81.3915 74.2918 81.2627 74.2184C81.1339 74.145 81.0313 74.0332 80.969 73.8987C78.4629 69.5646 75.9455 65.2384 73.4171 60.9199C73.335 60.8061 73.2908 60.6693 73.2908 60.5289C73.2908 60.3886 73.335 60.2518 73.4171 60.138C75.94 55.7805 78.4545 51.4175 80.9607 47.0489C81.0257 46.908 81.1331 46.7908 81.2679 46.7138C81.4026 46.6368 81.5581 46.6039 81.7125 46.6195C86.7249 46.6307 91.7328 46.6307 96.7363 46.6195C96.8908 46.6045 97.0462 46.6381 97.1807 46.7157C97.3152 46.7933 97.4221 46.911 97.4865 47.0523C99.9826 51.4086 102.489 55.7582 105.005 60.1012C105.095 60.2273 105.143 60.3783 105.143 60.5331C105.143 60.688 105.095 60.839 105.005 60.965C102.492 65.259 99.9904 69.5591 97.4999 73.8653C97.43 74.0126 97.3161 74.1345 97.1739 74.2141C97.0317 74.2937 96.8683 74.3271 96.7062 74.3097C94.2134 74.2997 91.7172 74.308 89.2211 74.308ZM89.2211 50.2652C87.425 50.2652 85.6289 50.2752 83.8345 50.2569C83.68 50.2398 83.5242 50.272 83.3891 50.3488C83.2541 50.4256 83.1468 50.5431 83.0826 50.6846C81.3004 53.8324 79.5004 56.974 77.6826 60.1096C77.5925 60.2353 77.5441 60.386 77.5441 60.5406C77.5441 60.6953 77.5925 60.846 77.6826 60.9717C79.4837 64.0081 81.2709 67.0512 83.0442 70.101C83.1162 70.2556 83.2345 70.3841 83.3826 70.4688C83.5307 70.5534 83.7014 70.5901 83.8712 70.5738C86.8786 70.5571 89.8977 70.5738 92.9102 70.5738C93.4883 70.5738 94.0664 70.5571 94.6445 70.5738C94.786 70.5947 94.9305 70.5687 95.0557 70.4995C95.181 70.4304 95.2801 70.3221 95.3379 70.1912C95.5968 69.6899 95.8959 69.2138 96.1816 68.7276C97.7198 66.1033 99.2609 63.4801 100.805 60.8581C100.89 60.7444 100.937 60.6072 100.941 60.4653C100.944 60.3234 100.904 60.1839 100.825 60.0661C98.9757 56.9183 97.1378 53.7644 95.3111 50.6044C95.2546 50.4922 95.165 50.4 95.0545 50.3403C94.9439 50.2805 94.8178 50.2561 94.6929 50.2702C92.8768 50.2736 91.0506 50.2736 89.2244 50.2736L89.2211 50.2652Z" fill="white"/>
<path d="M63.0068 59.3976C60.5006 59.3976 57.9843 59.3976 55.4731 59.3976C55.3254 59.4128 55.1767 59.3816 55.0476 59.3082C54.9185 59.2348 54.8155 59.123 54.753 58.9883C52.248 54.6554 49.7312 50.3291 47.2027 46.0095C47.1206 45.8957 47.0764 45.7589 47.0764 45.6185C47.0764 45.4782 47.1206 45.3414 47.2027 45.2276C49.7278 40.8701 52.2424 36.5077 54.7463 32.1402C54.8118 31.9991 54.9194 31.8818 55.0544 31.8046C55.1894 31.7274 55.3451 31.694 55.4999 31.7091C60.5123 31.7203 65.5196 31.7203 70.522 31.7091C70.6769 31.6944 70.8326 31.7283 70.9673 31.8062C71.1021 31.884 71.2092 32.0019 71.2738 32.1435C73.77 36.4988 76.2762 40.8478 78.7924 45.1908C78.8833 45.3165 78.9323 45.4676 78.9323 45.6227C78.9323 45.7778 78.8833 45.929 78.7924 46.0546C76.2818 50.353 73.7834 54.6548 71.2972 58.9599C71.2276 59.1073 71.1138 59.2294 70.9715 59.309C70.8293 59.3887 70.6657 59.422 70.5036 59.4043C67.9991 59.3876 65.5029 59.3976 63.0068 59.3976ZM63.0068 35.3531C61.2106 35.3531 59.4145 35.3632 57.6201 35.3531C57.4658 35.3366 57.3101 35.369 57.1752 35.4457C57.0403 35.5225 56.9329 35.6397 56.8683 35.7809C55.0805 38.9298 53.2805 42.0714 51.4682 45.2059C51.3775 45.3313 51.3286 45.4821 51.3286 45.6369C51.3286 45.7917 51.3775 45.9426 51.4682 46.068C53.2671 49.1033 55.0543 52.1469 56.8298 55.1989C56.9016 55.3537 57.0198 55.4823 57.168 55.5667C57.3163 55.6512 57.4871 55.6873 57.6569 55.6701C60.6643 55.6551 63.6817 55.6701 66.6959 55.6701C67.274 55.6701 67.8521 55.6551 68.4302 55.6701C68.5724 55.6921 68.7179 55.666 68.8438 55.5962C68.9696 55.5263 69.0686 55.4165 69.1252 55.2841C69.3842 54.7829 69.6849 54.3067 69.9689 53.8222C71.5094 51.1968 73.0504 48.5731 74.592 45.951C74.6778 45.838 74.7259 45.7009 74.7295 45.5591C74.7331 45.4173 74.692 45.278 74.6121 45.1607C72.7642 42.013 70.9263 38.859 69.0985 35.699C69.0441 35.5848 68.9556 35.4903 68.8451 35.4286C68.7346 35.3669 68.6077 35.3411 68.4819 35.3548C66.6608 35.3598 64.8346 35.3531 63.0101 35.3531H63.0068Z" fill="white"/>
<path d="M63.017 29.6839C60.5108 29.6839 57.9946 29.6839 55.4834 29.6922C55.3357 29.7072 55.1871 29.6758 55.058 29.6024C54.929 29.5291 54.826 29.4174 54.7633 29.2829C52.2582 24.9488 49.7414 20.6226 47.213 16.3041C47.1309 16.1903 47.0867 16.0535 47.0867 15.9131C47.0867 15.7728 47.1309 15.636 47.213 15.5222C49.7381 11.1647 52.2526 6.80172 54.7566 2.43313C54.8221 2.29219 54.9298 2.17512 55.0648 2.09818C55.1999 2.02123 55.3555 1.98823 55.5101 2.00374C60.5225 2.01488 65.5299 2.01488 70.5322 2.00374C70.687 1.98886 70.8425 2.02253 70.9772 2.10008C71.112 2.17763 71.2192 2.2952 71.2841 2.43647C73.7803 6.79169 76.2864 11.1413 78.8027 15.4854C78.8936 15.6111 78.9425 15.7622 78.9425 15.9173C78.9425 16.0724 78.8936 16.2236 78.8027 16.3492C76.292 20.6432 73.7903 24.9433 71.2975 29.2495C71.2277 29.3967 71.1137 29.5187 70.9715 29.5983C70.8293 29.6779 70.6659 29.7113 70.5038 29.6939C68.0093 29.6755 65.5132 29.6839 63.017 29.6839ZM63.017 5.64107C61.2209 5.64107 59.4248 5.65109 57.6304 5.63271C57.4759 5.61538 57.32 5.64744 57.1849 5.72429C57.0498 5.80114 56.9425 5.91882 56.8785 6.06044C55.0908 9.21045 53.2908 12.3521 51.4785 15.4854C51.3877 15.6108 51.3389 15.7617 51.3389 15.9165C51.3389 16.0713 51.3877 16.2222 51.4785 16.3476C53.2774 19.384 55.0646 22.427 56.8401 25.4768C56.9122 25.6314 57.0304 25.7599 57.1785 25.8446C57.3266 25.9293 57.4973 25.966 57.6671 25.9496C60.6746 25.9329 63.692 25.9413 66.7061 25.9413C67.2842 25.9413 67.8623 25.9262 68.4404 25.9413C68.5817 25.9621 68.7259 25.936 68.8509 25.8668C68.9759 25.7977 69.0747 25.6894 69.1321 25.5587C69.3911 25.0574 69.6918 24.5813 69.9675 24.0951C71.5225 21.4752 73.0685 18.8538 74.6056 16.2306C74.6913 16.1172 74.7393 15.9799 74.7429 15.8378C74.7465 15.6958 74.7055 15.5562 74.6257 15.4386C72.7778 12.292 70.9399 9.13805 69.1121 5.9769C69.0562 5.86453 68.967 5.77214 68.8566 5.71234C68.7463 5.65254 68.6202 5.62823 68.4955 5.64274C66.671 5.64608 64.8449 5.64107 63.0203 5.64107H63.017Z" fill="white"/>
</svg>
