<svg width="128" height="128" viewBox="0 0 128 128" fill="none" xmlns="http://www.w3.org/2000/svg">
<path fill-rule="evenodd" clip-rule="evenodd" d="M14.0987 54.9372C15.2893 54.9373 16.4317 55.0666 17.5246 55.3268L17.5226 55.3289C18.612 55.5714 19.5611 55.9185 20.361 56.3807L20.567 56.4998V60.5939L20.0078 60.3799C18.962 59.9815 18.0037 59.6863 17.135 59.4896C16.2741 59.2947 15.3969 59.197 14.5025 59.1969C13.5728 59.1969 12.6489 59.3491 11.7306 59.6552C10.8342 59.954 10.0285 60.4487 9.31414 61.1471L9.3101 61.1511C8.60735 61.8229 8.0217 62.7332 7.56787 63.8987L7.56989 63.9007C7.13927 65.0335 6.91579 66.47 6.91579 68.221C6.91588 69.4779 7.07865 70.6296 7.40031 71.6772L7.53355 72.0627C7.86258 72.9478 8.30752 73.7226 8.86394 74.3904C9.50907 75.1278 10.313 75.7129 11.2825 76.1428L11.6519 76.2881C12.5326 76.6042 13.5396 76.7666 14.6781 76.7666C15.6227 76.7666 16.5768 76.6674 17.5408 76.4718L18.2635 76.2982C18.9812 76.1073 19.6851 75.869 20.3752 75.5856L20.9465 75.3514V79.4597L20.7426 79.5808C20.4269 79.7664 20.0218 79.9413 19.5394 80.1137L19.5414 80.1158C19.0685 80.2909 18.5463 80.4371 17.9789 80.5579L17.9809 80.5599C17.4071 80.699 16.8001 80.8018 16.1619 80.8708L16.1599 80.8688C15.5235 80.9543 14.887 81 14.2501 81C12.5929 81 11.0157 80.7499 9.52409 80.247L9.52207 80.245C8.03847 79.7387 6.73389 78.9593 5.61366 77.9092C4.48799 76.8538 3.60488 75.5219 2.96297 73.9261C2.31663 72.3185 2.0001 70.4294 2 68.2714C2 66.6632 2.16313 65.2057 2.49259 63.9047L2.49461 63.9007L2.77522 62.9579C3.07995 62.0438 3.45605 61.212 3.90172 60.4647C4.49306 59.4733 5.18352 58.6227 5.97503 57.919L5.97907 57.9149L6.58673 57.4183C7.20243 56.946 7.84454 56.5449 8.51267 56.2171L9.19705 55.9022C9.88763 55.6109 10.5947 55.3925 11.3168 55.2481C12.2662 55.0414 13.1942 54.9372 14.0987 54.9372ZM18.6774 79.9603C18.4254 80.0317 18.1611 80.0973 17.884 80.1561C17.3291 80.2907 16.7396 80.3917 16.1175 80.459C15.6508 80.522 15.1832 80.5623 14.7165 80.5781L15.1848 80.5538C15.4958 80.5331 15.8068 80.5009 16.1175 80.459C16.7396 80.3917 17.3291 80.2907 17.884 80.1561C18.4387 80.0384 18.9441 79.8963 19.3981 79.7282L18.6774 79.9603ZM9.12841 79.6595C9.30187 79.7288 9.47836 79.7943 9.65733 79.8553C9.30017 79.7335 8.95277 79.5939 8.61765 79.4395L9.12841 79.6595ZM9.09409 75.2161C9.14374 75.2615 9.19647 75.3034 9.24752 75.3473C9.09748 75.218 8.95153 75.0848 8.81347 74.9436L9.09409 75.2161ZM8.07055 74.023C8.15547 74.1489 8.24556 74.2704 8.33703 74.3904C8.16575 74.1657 8.00494 73.9313 7.85656 73.6859L8.07055 74.023ZM7.36599 63.3112C7.30281 63.4546 7.24303 63.6023 7.1843 63.7533C7.30205 63.4505 7.42829 63.1637 7.56383 62.8913L7.36599 63.3112ZM12.3201 59.0515C12.0794 59.1115 11.8392 59.1816 11.5994 59.2615C11.3229 59.3537 11.0557 59.4654 10.7959 59.5926C10.9428 59.5207 11.0919 59.4534 11.2441 59.3927L11.5994 59.2615C12.079 59.1016 12.5609 58.9823 13.0449 58.9021L12.3201 59.0515ZM7.59613 57.2104C7.56561 57.2301 7.53569 57.2509 7.50529 57.2709C7.68898 57.1496 7.87454 57.0343 8.06248 56.9257L7.59613 57.2104Z" fill="black"/>
<path fill-rule="evenodd" clip-rule="evenodd" d="M66.5715 70.6677C66.5715 71.9627 66.7443 73.0172 67.0722 73.8454L67.2236 74.1865C67.5969 74.955 68.1379 75.5731 68.8508 76.0459C69.676 76.5651 70.7481 76.8413 72.0889 76.8413C73.5121 76.8411 74.6054 76.5328 75.4058 75.959L75.4099 75.957L75.7107 75.7269C76.2931 75.2479 76.7414 74.6561 77.0552 73.9463L77.2006 73.5809C77.4657 72.8142 77.6063 71.8469 77.6063 70.6677V55.5671H82.3445V70.7182C82.3445 71.5428 82.293 72.3197 82.189 73.0479L82.187 73.0459C82.0997 73.7581 81.9523 74.4237 81.7408 75.0405L81.7388 75.0506C81.4219 75.9131 80.9787 76.7126 80.4165 77.4509L80.4185 77.453C79.8665 78.1831 79.1823 78.8137 78.3715 79.3426C77.5571 79.8736 76.6152 80.2731 75.5552 80.5518L75.5572 80.5538C74.5049 80.8519 73.3219 80.9978 72.0142 80.998C70.7405 80.998 69.582 80.8604 68.5479 80.5801C67.5207 80.3014 66.6055 79.9066 65.8084 79.393L65.8044 79.391C65.0283 78.8795 64.3641 78.2677 63.8138 77.5579L63.8098 77.5539C63.2644 76.8326 62.8326 76.0488 62.5158 75.204C62.2687 74.567 62.0933 73.8712 61.9888 73.1226C61.8849 72.3776 61.8334 71.5675 61.8334 70.694V55.5671H66.5715V70.6677ZM75.4442 80.1561C74.4348 80.4421 73.2908 80.5841 72.0122 80.5841L72.0142 80.5861C73.292 80.586 74.4353 80.442 75.4442 80.1561C75.7004 80.0889 75.9507 80.014 76.1911 79.9321L75.4442 80.1561ZM67.9342 79.9603C68.1674 80.0413 68.4091 80.1152 68.657 80.1824C68.1609 80.0479 67.6932 79.885 67.2559 79.6959L67.9342 79.9603ZM68.6307 76.3971C68.7622 76.4799 68.9009 76.5525 69.0426 76.6232C69.0234 76.6137 69.003 76.6068 68.984 76.597L68.6307 76.3971ZM81.3492 74.9072C81.2048 75.3004 81.0324 75.6795 80.8344 76.0459C80.9284 75.8716 81.0189 75.6951 81.1009 75.5149L81.3492 74.9072C81.3995 74.7604 81.4476 74.6102 81.4905 74.4571L81.3492 74.9072ZM66.1577 70.6677C66.1577 71.0986 66.1791 71.5062 66.2162 71.8911C66.1935 71.6548 66.1766 71.41 66.1678 71.1563L66.1577 70.6677Z" fill="black"/>
<path fill-rule="evenodd" clip-rule="evenodd" d="M31.0405 80.3681H26.3024V55.5671H31.0405V80.3681Z" fill="black"/>
<path fill-rule="evenodd" clip-rule="evenodd" d="M43.0524 80.3681H38.3143V43H43.0524V80.3681Z" fill="black"/>
<path fill-rule="evenodd" clip-rule="evenodd" d="M55.0643 80.3681H50.3262V55.5671H55.0643V80.3681Z" fill="black"/>
<path fill-rule="evenodd" clip-rule="evenodd" d="M116.478 54.9372C117.357 54.9374 118.283 55.0604 119.252 55.3026C120.253 55.553 121.172 56.0187 122.006 56.6915C122.856 57.3613 123.551 58.2842 124.093 59.4391C124.649 60.6226 124.915 62.1211 124.915 63.9068V80.3681H120.203V64.5366C120.203 63.5229 120.088 62.6848 119.87 62.0151L119.866 62.005C119.662 61.3146 119.361 60.7673 118.976 60.3516L118.97 60.3456C118.596 59.9272 118.141 59.6209 117.599 59.425L117.595 59.423C117.06 59.2243 116.445 59.1203 115.746 59.1202C114.429 59.1202 113.229 59.4774 112.136 60.1901C111.075 60.877 110.109 61.8283 109.245 63.0528V80.3681H104.507V64.5366C104.507 63.5229 104.392 62.6848 104.174 62.0151L104.17 62.005C103.966 61.3146 103.665 60.7673 103.279 60.3516L103.273 60.3456C102.9 59.9272 102.444 59.6209 101.903 59.425L101.899 59.423C101.364 59.2243 100.749 59.1203 100.049 59.1202C98.8974 59.1202 97.8418 59.3933 96.8758 59.9378L96.468 60.1881L96.464 60.1901C95.402 60.8773 94.4377 61.8293 93.5731 63.0548V80.3681H88.8349V55.5691H92.6061L92.6808 55.8901L93.2682 58.4762C93.5776 58.1231 93.9021 57.7874 94.2413 57.4708L94.6592 57.1014C94.9451 56.8639 95.2454 56.6455 95.5576 56.4432L96.034 56.1525C96.7059 55.7639 97.4375 55.4646 98.2264 55.2542C99.0224 55.042 99.884 54.9372 100.806 54.9372C102.657 54.9374 104.229 55.384 105.492 56.3039C106.581 57.0979 107.447 58.1426 108.092 59.425C108.954 58.2991 109.911 57.3647 110.967 56.629L111.49 56.2858C112.926 55.3823 114.595 54.9372 116.478 54.9372ZM93.1592 62.9216V79.9543H89.2488L93.1612 79.9563L93.1592 62.9216C93.2586 62.778 93.3598 62.6364 93.462 62.4997L93.1592 62.9216ZM124.501 63.9047V79.9543H120.617L124.503 79.9563V63.9068C124.503 63.6931 124.497 63.4831 124.489 63.2789C124.497 63.4828 124.501 63.6914 124.501 63.9047ZM103.582 60.071C103.477 59.9535 103.366 59.8418 103.249 59.7399L103.582 60.071ZM119.279 60.071C119.174 59.9535 119.062 59.8418 118.945 59.7399L119.279 60.071ZM123.742 59.6693C123.856 59.917 123.957 60.1797 124.045 60.4586C124 60.3176 123.955 60.1799 123.904 60.0468L123.742 59.6693ZM97.1201 59.3443C96.8181 59.4863 96.5241 59.6535 96.2379 59.8429C96.0694 59.9519 95.9047 60.0687 95.7413 60.1901C95.7663 60.1715 95.7908 60.1519 95.816 60.1336L96.2379 59.8429C96.6666 59.5593 97.1143 59.3277 97.5784 59.1505L97.1201 59.3443ZM102.175 59.0919C102.427 59.193 102.664 59.3105 102.882 59.4573L102.478 59.2211C102.381 59.1721 102.278 59.1333 102.175 59.0919ZM117.871 59.0919C118.123 59.193 118.36 59.3105 118.578 59.4573L118.174 59.2211C118.077 59.1721 117.974 59.1333 117.871 59.0919ZM100.049 58.7063C99.526 58.7063 99.0192 58.7594 98.5313 58.8658L99.0259 58.779C99.3589 58.7318 99.7006 58.7063 100.049 58.7063L100.59 58.7285C100.624 58.7312 100.658 58.7355 100.691 58.7386C100.484 58.7191 100.27 58.7063 100.049 58.7063ZM115.746 58.7063C115.222 58.7063 114.714 58.7594 114.223 58.8658L114.72 58.779C115.054 58.7318 115.397 58.7063 115.746 58.7063L116.287 58.7285C116.321 58.7312 116.354 58.7355 116.388 58.7386C116.18 58.7191 115.966 58.7063 115.746 58.7063ZM110.773 57.281C110.756 57.2945 110.738 57.3078 110.721 57.3214C110.879 57.1982 111.041 57.0815 111.203 56.9681L110.773 57.281ZM119.151 55.7044C119.383 55.7624 119.611 55.8318 119.834 55.9143C119.724 55.8738 119.614 55.8358 119.503 55.8013L119.151 55.7044Z" fill="black"/>
<path fill-rule="evenodd" clip-rule="evenodd" d="M31.1415 50.8168H26.2015V45.6244H31.1415V50.8168Z" fill="black"/>
<path fill-rule="evenodd" clip-rule="evenodd" d="M55.1653 50.8168H50.2253V45.6244H55.1653V50.8168Z" fill="black"/>
</svg>
