<svg width="128" height="128" viewBox="0 0 128 128" fill="none" xmlns="http://www.w3.org/2000/svg">
<path d="M72.3787 121.513H53.3225C53.175 121.283 53.0229 121.052 52.8846 120.822C49.9394 115.81 46.9919 110.8 44.0421 105.791C43.8974 105.596 43.8182 105.36 43.8157 105.117C43.8133 104.874 43.8876 104.637 44.0282 104.439C46.995 99.3225 49.9409 94.1964 52.8662 89.0603C53.1704 88.5234 53.5022 88.2975 54.1452 88.2998C59.9603 88.3275 65.7747 88.3275 71.5883 88.2998C72.2796 88.2998 72.6806 88.5026 73.024 89.1041C75.96 94.2279 78.9151 99.3463 81.8895 104.459C82.0249 104.647 82.0978 104.873 82.0978 105.105C82.0978 105.336 82.0249 105.562 81.8895 105.75C78.8322 110.811 75.7864 115.881 72.752 120.96C72.6299 121.137 72.5009 121.319 72.3787 121.513Z" fill="#6389C6"/>
<path d="M108.511 101.273H89.4545C89.307 101.042 89.155 100.812 89.0167 100.581C86.0715 95.5698 83.124 90.5597 80.1741 85.5512C80.0295 85.3559 79.9503 85.12 79.9478 84.877C79.9453 84.634 80.0197 84.3965 80.1603 84.1984C83.1255 79.0853 86.0715 73.9592 88.9982 68.8201C89.3024 68.2854 89.6343 68.0573 90.2773 68.0596C96.0924 68.0872 101.907 68.0872 107.72 68.0596C108.412 68.0596 108.813 68.2624 109.156 68.8639C112.092 73.9938 115.047 79.113 118.022 84.2214C118.157 84.4093 118.23 84.6351 118.23 84.8667C118.23 85.0983 118.157 85.3241 118.022 85.512C114.964 90.5728 111.918 95.6428 108.884 100.722C108.762 100.904 108.633 101.086 108.511 101.273Z" fill="#8162AA"/>
<path d="M108.511 60.6333H89.4545C89.307 60.4029 89.155 60.1724 89.0167 59.9419C86.0715 54.9318 83.124 49.9225 80.1741 44.9139C80.0295 44.7187 79.9503 44.4828 79.9478 44.2398C79.9453 43.9968 80.0197 43.7593 80.1603 43.5612C83.1255 38.4451 86.0715 33.319 88.9982 28.1829C89.3024 27.6459 89.6343 27.4201 90.2773 27.4224C96.0924 27.45 101.907 27.45 107.72 27.4224C108.412 27.4224 108.813 27.6252 109.156 28.2267C112.092 33.3566 115.047 38.4758 118.022 43.5842C118.157 43.7721 118.23 43.9979 118.23 44.2295C118.23 44.4611 118.157 44.6869 118.022 44.8748C114.964 49.9356 111.918 55.0056 108.884 60.0848C108.762 60.2646 108.633 60.4443 108.511 60.6333Z" fill="#F07525"/>
<path d="M72.3663 39.703H53.31C53.1625 39.4725 53.0104 39.2421 52.8721 39.0116C49.9269 34 46.9794 28.9899 44.0296 23.9813C43.885 23.7861 43.8058 23.5501 43.8033 23.3072C43.8008 23.0642 43.8752 22.8267 44.0158 22.6286C46.9825 17.514 49.9285 12.3879 52.8537 7.25026C53.1579 6.71561 53.4898 6.48746 54.1327 6.48976C59.9478 6.51742 65.7622 6.51742 71.5758 6.48976C72.2672 6.48976 72.6681 6.69487 73.0115 7.29405C75.9475 12.424 78.9027 17.5432 81.8771 22.6516C82.0125 22.8395 82.0853 23.0653 82.0853 23.2969C82.0853 23.5285 82.0125 23.7542 81.8771 23.9421C78.8197 29.0029 75.7739 34.073 72.7396 39.1522C72.6175 39.3412 72.4884 39.5232 72.3663 39.703Z" fill="#F8C519"/>
<path d="M72.3787 80.6087H53.3225C53.175 80.3783 53.0229 80.1478 52.8846 79.9174C49.9394 74.9057 46.9919 69.8956 44.0421 64.8871C43.8974 64.6919 43.8182 64.4559 43.8157 64.2129C43.8133 63.97 43.8876 63.7325 44.0282 63.5343C46.995 58.4213 49.9409 53.2952 52.8662 48.156C53.1704 47.6214 53.5022 47.3932 54.1452 47.3955C59.9603 47.4232 65.7747 47.4232 71.5883 47.3955C72.2796 47.3955 72.6806 47.5983 73.024 48.1998C75.96 53.3297 78.9151 58.4489 81.8895 63.5574C82.0249 63.7453 82.0978 63.971 82.0978 64.2026C82.0978 64.4342 82.0249 64.66 81.8895 64.8479C78.8322 69.9087 75.7864 74.9787 72.752 80.058C72.6299 80.24 72.5009 80.4221 72.3787 80.6087Z" fill="#E8282B"/>
<path d="M36.4213 101.273H17.3627C17.2152 101.042 17.0632 100.812 16.9249 100.581C13.9797 95.5698 11.0322 90.5597 8.08235 85.5512C7.93772 85.3559 7.8585 85.12 7.85602 84.877C7.85353 84.634 7.92791 84.3965 8.06852 84.1984C11.0337 79.0853 13.9797 73.9592 16.9064 68.8201C17.2106 68.2854 17.5425 68.0573 18.1855 68.0596C24.0006 68.0872 29.815 68.0872 35.6285 68.0596C36.3199 68.0596 36.7209 68.2624 37.0643 68.8639C40.0003 73.9938 42.9555 79.113 45.9299 84.2214C46.0659 84.4091 46.1392 84.6349 46.1392 84.8667C46.1392 85.0985 46.0659 85.3243 45.9299 85.512C42.8725 90.5728 39.8267 95.6428 36.7923 100.722C36.6702 100.904 36.5411 101.086 36.4213 101.273Z" fill="#98CA3F"/>
<path d="M36.9959 60.1287H17.9396C17.7898 59.8983 17.6378 59.6678 17.4995 59.4374C14.5497 54.4227 11.6029 49.411 8.65925 44.4025C8.51462 44.2072 8.4354 43.9713 8.43292 43.7283C8.43044 43.4854 8.50482 43.2478 8.64543 43.0497C11.6091 37.9336 14.5543 32.8075 17.481 27.6714C17.7875 27.1344 18.1194 26.9086 18.7624 26.9109C24.5775 26.9386 30.3911 26.9386 36.2031 26.9109C36.8945 26.9109 37.2955 27.1137 37.6412 27.7152C40.5772 32.8451 43.5324 37.9643 46.5068 43.0727C46.6411 43.2616 46.7124 43.4881 46.7103 43.7199C46.7082 43.9517 46.633 44.1769 46.4952 44.3633C43.4394 49.4241 40.3943 54.4941 37.36 59.5733C37.2448 59.7508 37.118 59.9421 36.9959 60.1287Z" fill="#CBDD72"/>
<path d="M26.999 62.5761C23.5422 62.5761 20.0715 62.5761 16.6078 62.5877C16.4043 62.6088 16.1994 62.5657 16.0217 62.4645C15.8439 62.3632 15.7024 62.2088 15.6168 62.023C12.16 56.0481 8.68786 50.0808 5.20032 44.1213C5.08707 43.9643 5.02612 43.7756 5.02612 43.582C5.02612 43.3884 5.08707 43.1997 5.20032 43.0427C8.68478 37.0325 12.1554 31.0145 15.6122 24.9889C15.7019 24.7944 15.85 24.6328 16.0359 24.5267C16.2218 24.4205 16.4363 24.375 16.6493 24.3966C23.5629 24.4135 30.4704 24.4135 37.3717 24.3966C37.585 24.3768 37.7992 24.4238 37.9846 24.5312C38.17 24.6385 38.3175 24.8009 38.4064 24.9958C41.8494 31.003 45.3062 37.0017 48.7769 42.992C48.901 43.1659 48.9677 43.3742 48.9677 43.5878C48.9677 43.8014 48.901 44.0096 48.7769 44.1835C45.3093 50.1062 41.8594 56.0373 38.4272 61.9769C38.3312 62.1803 38.1741 62.3487 37.9779 62.4585C37.7817 62.5684 37.5561 62.6144 37.3325 62.59C33.8849 62.5646 30.442 62.5761 26.999 62.5761ZM26.999 29.4136C24.5216 29.4136 22.0442 29.4274 19.5691 29.4021C19.3563 29.3796 19.1418 29.4244 18.9557 29.5303C18.7697 29.6361 18.6215 29.7976 18.5321 29.9921C16.0662 34.3369 13.5835 38.6702 11.0838 42.992C10.9596 43.1654 10.8928 43.3733 10.8928 43.5866C10.8928 43.7999 10.9596 44.0078 11.0838 44.1812C13.5666 48.3693 16.0317 52.5675 18.4791 56.7756C18.5789 56.9884 18.7421 57.1651 18.9463 57.2815C19.1506 57.3979 19.3859 57.4482 19.6198 57.4255C23.768 57.4024 27.9323 57.4139 32.0874 57.4139C32.8848 57.4139 33.6821 57.3932 34.4795 57.4139C34.6747 57.4428 34.874 57.4068 35.0468 57.3115C35.2196 57.2162 35.3563 57.0667 35.4359 56.8862C35.7931 56.1948 36.2056 55.538 36.5997 54.8697C38.7214 51.2485 40.847 47.6296 42.9763 44.013C43.0937 43.8567 43.1594 43.6677 43.1643 43.4723C43.1693 43.277 43.1132 43.0849 43.004 42.9229C40.4521 38.5811 37.9171 34.2301 35.399 29.8699C35.3237 29.7128 35.2014 29.5829 35.0491 29.4983C34.8967 29.4137 34.7219 29.3784 34.5486 29.3975C32.039 29.4228 29.5224 29.4136 27.0036 29.4136H26.999Z" fill="#373737"/>
<path d="M26.972 103.747C23.5152 103.747 20.0446 103.747 16.5808 103.758C16.3772 103.779 16.1721 103.736 15.9941 103.635C15.8162 103.533 15.6741 103.379 15.5876 103.194C12.1338 97.2158 8.66244 91.2477 5.17336 85.2897C5.06064 85.1329 5 84.9447 5 84.7516C5 84.5585 5.06064 84.3703 5.17336 84.2135C8.65629 78.2032 12.1246 72.1852 15.5784 66.1596C15.6684 65.965 15.8169 65.8033 16.0033 65.6971C16.1896 65.591 16.4044 65.5456 16.6177 65.5673C23.5313 65.5842 30.438 65.5842 37.3378 65.5673C37.5513 65.5468 37.7658 65.5932 37.9516 65.7002C38.1375 65.8072 38.2854 65.9693 38.3749 66.1642C41.8179 72.1714 45.2747 78.1709 48.7453 84.1628C48.87 84.3364 48.9371 84.5447 48.9371 84.7585C48.9371 84.9723 48.87 85.1806 48.7453 85.3542C45.2793 91.2769 41.8286 97.2081 38.3933 103.148C38.297 103.351 38.1399 103.519 37.9438 103.629C37.7476 103.739 37.5222 103.785 37.2986 103.761C33.858 103.735 30.415 103.747 26.972 103.747ZM26.972 70.5843C24.4946 70.5843 22.0172 70.5982 19.5422 70.5728C19.3291 70.5489 19.114 70.5931 18.9277 70.6991C18.7414 70.8051 18.5934 70.9674 18.5051 71.1628C16.0393 75.5046 13.5565 79.8371 11.0569 84.1605C10.9315 84.3338 10.8639 84.5423 10.8639 84.7562C10.8639 84.9701 10.9315 85.1786 11.0569 85.3519C13.5396 89.5385 16.0047 93.7359 18.4521 97.944C18.5515 98.1573 18.7146 98.3345 18.9189 98.4513C19.1232 98.5681 19.3586 98.6187 19.5929 98.5962C23.741 98.5731 27.903 98.5962 32.0604 98.5962C32.8578 98.5962 33.6552 98.5731 34.4525 98.5962C34.6481 98.6253 34.8477 98.5892 35.0206 98.4933C35.1935 98.3975 35.33 98.2474 35.4089 98.0661C35.7638 97.3748 36.1786 96.7203 36.5612 96.0497C38.686 92.4284 40.8115 88.8103 42.9379 85.1952C43.056 85.0388 43.1222 84.8494 43.1272 84.6535C43.1321 84.4575 43.0756 84.265 42.9655 84.1028C40.4167 79.7611 37.8817 75.4108 35.3605 71.0522C35.2837 70.897 35.1607 70.7693 35.0085 70.6868C34.8562 70.6043 34.6821 70.5709 34.5102 70.5913C32.012 70.582 29.4932 70.582 26.9766 70.582L26.972 70.5843Z" fill="#373737"/>
<path d="M62.9529 123.982C59.4961 123.982 56.0255 123.982 52.5617 123.982C52.358 124.005 52.1522 123.964 51.9729 123.864C51.7936 123.765 51.6499 123.612 51.5616 123.427C48.1047 117.452 44.6333 111.484 41.1473 105.525C41.0341 105.368 40.9731 105.179 40.9731 104.986C40.9731 104.792 41.0341 104.603 41.1473 104.446C44.6287 98.4375 48.0971 92.4203 51.5523 86.3947C51.6424 86.2001 51.7909 86.0384 51.9772 85.9322C52.1636 85.8261 52.3784 85.7807 52.5917 85.8024C59.5053 85.8193 66.412 85.8193 73.3118 85.8024C73.5253 85.7819 73.7398 85.8284 73.9256 85.9353C74.1115 86.0423 74.2594 86.2045 74.3489 86.3993C77.7919 92.4081 81.2487 98.4068 84.7193 104.396C84.8446 104.569 84.912 104.778 84.912 104.992C84.912 105.207 84.8446 105.416 84.7193 105.589C81.261 111.512 77.8134 117.443 74.3765 123.383C74.2802 123.586 74.123 123.754 73.9268 123.863C73.7306 123.972 73.5052 124.018 73.2819 123.993C69.8389 123.97 66.3959 123.982 62.9529 123.982ZM62.9529 90.8171C60.4778 90.8171 58.0005 90.831 55.5254 90.8171C55.3122 90.7945 55.0973 90.8395 54.9112 90.9458C54.7251 91.0521 54.5771 91.2143 54.4883 91.4094C52.0225 95.7512 49.5397 100.084 47.0401 104.407C46.9147 104.58 46.8471 104.789 46.8471 105.003C46.8471 105.217 46.9147 105.425 47.0401 105.599C49.5213 109.785 51.9864 113.983 54.4353 118.191C54.5348 118.404 54.6978 118.581 54.9021 118.698C55.1064 118.815 55.3418 118.865 55.5761 118.843C59.7242 118.82 63.8862 118.829 68.0436 118.829C68.841 118.829 69.6384 118.808 70.4358 118.829C70.6309 118.857 70.8298 118.821 71.0022 118.725C71.1745 118.629 71.3107 118.479 71.3898 118.299C71.747 117.608 72.1619 116.953 72.5421 116.282C74.6669 112.663 76.7925 109.044 78.9188 105.426C79.0371 105.27 79.1034 105.081 79.1083 104.885C79.1133 104.69 79.0567 104.497 78.9464 104.336C76.3976 99.9939 73.8626 95.6436 71.3414 91.285C71.2664 91.1276 71.1441 90.9976 70.9917 90.9129C70.8393 90.8282 70.6643 90.7932 70.4911 90.8125C67.9929 90.8264 65.4741 90.8171 62.9552 90.8171H62.9529Z" fill="#373737"/>
<path d="M99.0883 62.6042C95.6315 62.6042 92.1609 62.6042 88.6972 62.6042C88.4933 62.6258 88.2879 62.583 88.1097 62.4817C87.9315 62.3804 87.7896 62.2258 87.7039 62.0396C84.2486 56.0646 80.7772 50.0974 77.2897 44.1378C77.1764 43.9808 77.1155 43.7921 77.1155 43.5985C77.1155 43.405 77.1764 43.2163 77.2897 43.0593C80.7726 37.0506 84.2409 31.0334 87.6947 25.0077C87.7847 24.8131 87.9333 24.6514 88.1196 24.5453C88.3059 24.4391 88.5207 24.3937 88.734 24.4155C95.6476 24.4308 102.554 24.4308 109.454 24.4155C109.668 24.3942 109.883 24.4404 110.068 24.5474C110.254 24.6545 110.402 24.817 110.491 25.0123C113.934 31.0195 117.391 37.0183 120.862 43.0086C120.987 43.1824 121.054 43.3912 121.054 43.6055C121.054 43.8197 120.987 44.0285 120.862 44.2023C117.397 50.125 113.947 56.0562 110.512 61.9958C110.416 62.1989 110.259 62.367 110.062 62.4765C109.866 62.586 109.641 62.6314 109.417 62.6065C105.974 62.5927 102.531 62.6042 99.0883 62.6042ZM99.0883 29.4394C96.6132 29.4394 94.1359 29.4532 91.6608 29.4279C91.4476 29.4052 91.2328 29.4502 91.0466 29.5565C90.8605 29.6628 90.7125 29.825 90.6237 30.0201C88.1579 34.3619 85.6751 38.6945 83.1755 43.0178C83.0501 43.1911 82.9826 43.3996 82.9826 43.6135C82.9826 43.8275 83.0501 44.0359 83.1755 44.2093C85.6567 48.3974 88.1218 52.5948 90.5707 56.8013C90.6708 57.0166 90.8357 57.1952 91.0423 57.3122C91.2489 57.4291 91.4869 57.4785 91.723 57.4535C95.8712 57.4305 100.033 57.4397 104.191 57.4397C104.988 57.4397 105.785 57.4189 106.583 57.4397C106.778 57.4683 106.977 57.4319 107.149 57.3361C107.322 57.2403 107.458 57.0904 107.537 56.9096C107.894 56.2183 108.309 55.5638 108.689 54.8932C110.814 51.2735 112.939 47.6546 115.066 44.0364C115.184 43.8805 115.25 43.6915 115.255 43.4958C115.26 43.3002 115.204 43.108 115.093 42.9464C112.545 38.6046 110.01 34.2544 107.488 29.8957C107.413 29.7383 107.291 29.6082 107.139 29.5232C106.986 29.4382 106.811 29.4024 106.638 29.421C104.128 29.4486 101.609 29.4394 99.0906 29.4394H99.0883Z" fill="#373737"/>
<path d="M99.0979 103.735C95.641 103.735 92.1704 103.735 88.7067 103.735C88.5033 103.756 88.2985 103.713 88.1208 103.611C87.9432 103.51 87.8015 103.356 87.7157 103.171C84.2589 97.1925 80.7867 91.2252 77.2992 85.2687C77.1859 85.1117 77.125 84.9231 77.125 84.7295C77.125 84.5359 77.1859 84.3472 77.2992 84.1902C80.779 78.1799 84.2474 72.162 87.7042 66.1363C87.7938 65.9419 87.942 65.7803 88.1279 65.6741C88.3138 65.5679 88.5282 65.5225 88.7412 65.5441C95.6549 65.5594 102.562 65.5594 109.464 65.5441C109.677 65.5233 109.891 65.5697 110.077 65.6767C110.262 65.7838 110.41 65.946 110.498 66.1409C113.941 72.1497 117.398 78.1492 120.869 84.1395C120.993 84.3134 121.06 84.5216 121.06 84.7352C121.06 84.9488 120.993 85.1571 120.869 85.331C117.403 91.2537 113.952 97.1848 110.517 103.124C110.421 103.328 110.263 103.496 110.067 103.606C109.871 103.715 109.646 103.761 109.422 103.737C105.984 103.724 102.541 103.735 99.0979 103.735ZM99.0979 70.5726C96.6205 70.5726 94.1431 70.5864 91.668 70.5611C91.455 70.5375 91.2401 70.5819 91.0538 70.6879C90.8676 70.7938 90.7196 70.9559 90.631 71.151C88.1728 75.4928 85.69 79.8261 83.1827 84.151C83.0585 84.3244 82.9917 84.5323 82.9917 84.7456C82.9917 84.9589 83.0585 85.1668 83.1827 85.3402C85.667 89.5283 88.1321 93.7257 90.578 97.9323C90.6774 98.1455 90.8405 98.3228 91.0447 98.4396C91.249 98.5563 91.4845 98.607 91.7187 98.5844C95.8669 98.5614 100.031 98.5844 104.186 98.5844C104.984 98.5844 105.781 98.5614 106.578 98.5844C106.774 98.6133 106.973 98.5774 107.146 98.482C107.318 98.3867 107.455 98.2373 107.535 98.0567C107.892 97.3653 108.304 96.7085 108.699 96.0379C110.82 92.4182 112.946 88.8001 115.075 85.1835C115.192 85.0267 115.258 84.8374 115.263 84.6417C115.268 84.446 115.212 84.2536 115.103 84.0911C112.553 79.7493 110.018 75.3991 107.498 71.0404C107.42 70.8857 107.296 70.7585 107.144 70.6761C106.991 70.5937 106.817 70.56 106.645 70.5795C104.14 70.5841 101.621 70.5841 99.1025 70.5841L99.0979 70.5726Z" fill="#373737"/>
<path d="M62.9407 83.1691C59.4838 83.1691 56.0132 83.1691 52.5495 83.1691C52.3457 83.1901 52.1405 83.1469 51.9625 83.0457C51.7845 82.9445 51.6424 82.7903 51.5562 82.6045C48.1009 76.628 44.6295 70.6608 41.142 64.7027C41.0287 64.5457 40.9678 64.357 40.9678 64.1635C40.9678 63.9699 41.0287 63.7812 41.142 63.6242C44.6249 57.6139 48.0932 51.5967 51.547 45.5726C51.6372 45.378 51.7857 45.2162 51.9719 45.1097C52.1581 45.0032 52.3728 44.9572 52.5863 44.978C59.5 44.9934 66.4067 44.9934 73.3065 44.978C73.5202 44.9577 73.7349 45.0045 73.9208 45.1119C74.1067 45.2193 74.2544 45.3819 74.3435 45.5772C77.7865 51.5844 81.2433 57.5832 84.714 63.5735C84.8394 63.7468 84.9069 63.9553 84.9069 64.1692C84.9069 64.3832 84.8394 64.5916 84.714 64.765C81.251 70.6938 77.805 76.6273 74.3758 82.5653C74.2798 82.7687 74.1227 82.937 73.9265 83.0469C73.7303 83.1568 73.5047 83.2027 73.2811 83.1783C69.8266 83.1553 66.3836 83.1691 62.9407 83.1691ZM62.9407 50.0043C60.4633 50.0043 57.9859 50.0181 55.5108 50.0043C55.2979 49.9814 55.0832 50.0261 54.8971 50.132C54.711 50.2379 54.5629 50.3996 54.4738 50.5942C52.0079 54.9376 49.5251 59.2709 47.0255 63.5942C46.9003 63.7672 46.8329 63.9753 46.8329 64.1888C46.8329 64.4023 46.9003 64.6104 47.0255 64.7834C49.5067 68.97 51.9718 73.1681 54.4208 77.3778C54.5197 77.5913 54.6828 77.7686 54.8872 77.8851C55.0917 78.0016 55.3274 78.0514 55.5615 78.0277C59.7097 78.0069 63.8717 78.0277 68.0291 78.0277C68.8265 78.0277 69.6238 78.0069 70.4212 78.0277C70.6174 78.058 70.8182 78.0221 70.9917 77.9257C71.1653 77.8293 71.3019 77.6779 71.3799 77.4953C71.7371 76.8039 72.1519 76.1471 72.5437 75.4788C74.6685 71.8576 76.794 68.2387 78.9204 64.6221C79.0386 64.4662 79.105 64.2771 79.1099 64.0815C79.1149 63.8859 79.0583 63.6937 78.948 63.532C76.3992 59.1902 73.8642 54.84 71.343 50.4813C71.268 50.3238 71.1459 50.1934 70.9935 50.1084C70.8412 50.0233 70.6661 49.9877 70.4926 50.0066C67.9807 50.0135 65.4618 50.0043 62.9453 50.0043H62.9407Z" fill="#373737"/>
<path d="M62.9546 42.1847C59.4977 42.1847 56.0271 42.1847 52.5634 42.1962C52.3597 42.2168 52.1546 42.1735 51.9767 42.0723C51.7987 41.9712 51.6566 41.8171 51.5701 41.6316C48.1148 35.6536 44.6434 29.6863 41.1559 23.7298C41.0426 23.5728 40.9817 23.3841 40.9817 23.1905C40.9817 22.997 41.0426 22.8083 41.1559 22.6513C44.6388 16.641 48.1072 10.6231 51.5609 4.59742C51.6512 4.40302 51.7998 4.24155 51.9861 4.13542C52.1723 4.02929 52.387 3.98376 52.6002 4.00516C59.5139 4.02052 66.4206 4.02052 73.3204 4.00516C73.5338 3.98464 73.7484 4.03108 73.9342 4.13804C74.12 4.245 74.268 4.40717 74.3574 4.60203C77.8004 10.6092 81.2573 16.6087 84.7279 22.6006C84.8533 22.7739 84.9208 22.9824 84.9208 23.1963C84.9208 23.4102 84.8533 23.6187 84.7279 23.792C81.2649 29.7147 77.8143 35.6459 74.3759 41.5855C74.2796 41.7886 74.1225 41.9568 73.9263 42.0666C73.7302 42.1765 73.5047 42.2225 73.2812 42.1985C69.8405 42.1731 66.3976 42.1847 62.9546 42.1847ZM62.9546 9.02216C60.4772 9.02216 57.9998 9.03599 55.5247 9.01064C55.3117 8.98674 55.0966 9.03095 54.9102 9.13695C54.7239 9.24295 54.576 9.40527 54.4877 9.60061C52.0218 13.9455 49.539 18.2788 47.0394 22.6006C46.9142 22.7736 46.8468 22.9816 46.8468 23.1952C46.8468 23.4087 46.9142 23.6168 47.0394 23.7897C49.5206 27.9779 51.9857 32.1752 54.4347 36.3818C54.5341 36.5951 54.6972 36.7723 54.9014 36.8891C55.1057 37.0059 55.3412 37.0565 55.5754 37.034C59.7236 37.0109 63.8856 37.0225 68.043 37.0225C68.8404 37.0225 69.6377 37.0017 70.4351 37.0225C70.63 37.0512 70.8289 37.0151 71.0013 36.9198C71.1737 36.8244 71.31 36.6751 71.3892 36.4947C71.7464 35.8034 72.1612 35.1466 72.5415 34.4759C74.6862 30.8624 76.8187 27.2466 78.9389 23.6284C79.057 23.472 79.1232 23.2826 79.1282 23.0867C79.1332 22.8908 79.0766 22.6982 78.9665 22.5361C76.4177 18.1958 73.8827 13.8456 71.3615 9.48538C71.2844 9.33039 71.1614 9.20295 71.0092 9.12047C70.857 9.03798 70.6831 9.00446 70.5112 9.02447C67.9946 9.02908 65.4757 9.02216 62.9592 9.02216H62.9546Z" fill="#373737"/>
</svg>
