<svg width="128" height="128" viewBox="0 0 128 128" fill="none" xmlns="http://www.w3.org/2000/svg">
<path fill-rule="evenodd" clip-rule="evenodd" d="M57.3677 58.2827C57.9944 58.2828 58.5956 58.3509 59.1709 58.4878L59.1698 58.4889C59.7432 58.6165 60.2427 58.7992 60.6637 59.0424L60.7721 59.1051V61.2599L60.4778 61.1473C59.9274 60.9377 59.423 60.7823 58.9658 60.6787C58.5127 60.5762 58.051 60.5247 57.5802 60.5247C57.091 60.5247 56.6047 60.6048 56.1214 60.7659C55.6496 60.9232 55.2255 61.1835 54.8495 61.5511L54.8474 61.5532C54.4776 61.9068 54.1693 62.3859 53.9305 62.9993L53.9315 63.0004C53.7049 63.5966 53.5873 64.3526 53.5873 65.2742C53.5873 65.9357 53.673 66.5419 53.8423 67.0932L53.9124 67.2962C54.0856 67.762 54.3197 68.1698 54.6126 68.5213C54.9521 68.9093 55.3753 69.2173 55.8855 69.4436L56.08 69.5201C56.5434 69.6864 57.0735 69.7719 57.6727 69.7719C58.1699 69.7719 58.672 69.7197 59.1794 69.6167L59.5597 69.5254C59.9375 69.4249 60.3079 69.2994 60.6711 69.1503L60.9718 69.027V71.1893L60.8645 71.253C60.6984 71.3507 60.4852 71.4428 60.2313 71.5335L60.2323 71.5346C59.9834 71.6268 59.7086 71.7037 59.4099 71.7673L59.411 71.7684C59.109 71.8416 58.7895 71.8957 58.4536 71.932L58.4526 71.9309C58.1176 71.9759 57.7826 72 57.4474 72C56.5752 72 55.7451 71.8684 54.96 71.6037L54.959 71.6026C54.1781 71.3361 53.4915 70.9259 52.9019 70.3733C52.3095 69.8178 51.8447 69.1168 51.5068 68.2769C51.1666 67.4308 51.0001 66.4365 51 65.3007C51 64.4543 51.0859 63.6872 51.2593 63.0025L51.2603 63.0004L51.408 62.5042C51.5684 62.023 51.7663 61.5853 52.0009 61.1919C52.3121 60.6702 52.6755 60.2224 53.0921 59.8521L53.0942 59.85L53.4141 59.5886C53.7381 59.34 54.0761 59.1289 54.4277 58.9564L54.7879 58.7906C55.1514 58.6373 55.5235 58.5224 55.9036 58.4464C56.4033 58.3376 56.8917 58.2827 57.3677 58.2827ZM59.7776 71.4528C59.645 71.4904 59.5058 71.5249 59.36 71.5559C59.0679 71.6267 58.7577 71.6798 58.4303 71.7152C58.1846 71.7484 57.9385 71.7696 57.6929 71.7779L57.9394 71.7652C58.103 71.7542 58.2668 71.7373 58.4303 71.7152C58.7577 71.6798 59.0679 71.6267 59.36 71.5559C59.652 71.4939 59.918 71.4191 60.1569 71.3306L59.7776 71.4528ZM54.7518 71.2945C54.8431 71.3309 54.936 71.3654 55.0302 71.3975C54.8422 71.3334 54.6594 71.2599 54.483 71.1787L54.7518 71.2945ZM54.7337 68.9559C54.7599 68.9797 54.7876 69.0018 54.8145 69.0249C54.7355 68.9568 54.6587 68.8867 54.586 68.8124L54.7337 68.9559ZM54.195 68.3279C54.2397 68.3941 54.2871 68.4581 54.3353 68.5213C54.2451 68.403 54.1605 68.2796 54.0824 68.1505L54.195 68.3279ZM53.8242 62.6901C53.791 62.7656 53.7595 62.8433 53.7286 62.9228C53.7906 62.7634 53.857 62.6125 53.9283 62.4691L53.8242 62.6901ZM56.4317 60.4482C56.3049 60.4797 56.1785 60.5166 56.0523 60.5587C55.9068 60.6072 55.7662 60.666 55.6294 60.7329C55.7068 60.6951 55.7852 60.6597 55.8653 60.6277L56.0523 60.5587C56.3047 60.4745 56.5584 60.4117 56.8131 60.3695L56.4317 60.4482ZM53.9453 59.4791C53.9293 59.4895 53.9135 59.5004 53.8975 59.511C53.9942 59.4472 54.0919 59.3865 54.1908 59.3293L53.9453 59.4791Z" fill="white"/>
<path fill-rule="evenodd" clip-rule="evenodd" d="M84.985 66.562C84.985 67.2435 85.0759 67.7985 85.2485 68.2344L85.3282 68.414C85.5247 68.8184 85.8094 69.1437 86.1846 69.3926C86.6189 69.6658 87.1832 69.8112 87.8889 69.8112C88.6379 69.8111 89.2134 69.6489 89.6346 69.3469L89.6368 69.3458L89.7951 69.2247C90.1016 68.9726 90.3376 68.6611 90.5027 68.2875L90.5792 68.0952C90.7188 67.6917 90.7928 67.1826 90.7928 66.562V58.6142H93.2866V66.5885C93.2866 67.0225 93.2595 67.4314 93.2048 67.8147L93.2037 67.8136C93.1578 68.1885 93.0801 68.5388 92.9689 68.8634L92.9678 68.8687C92.801 69.3227 92.5677 69.7435 92.2718 70.1321L92.2729 70.1331C91.9823 70.5174 91.6222 70.8493 91.1955 71.1277C90.7669 71.4072 90.2712 71.6174 89.7133 71.7641L89.7143 71.7652C89.1605 71.9221 88.5378 71.9989 87.8496 71.9989C87.1792 71.9989 86.5695 71.9265 86.0252 71.779C85.4846 71.6323 85.0029 71.4245 84.5834 71.1542L84.5813 71.1532C84.1728 70.8839 83.8232 70.562 83.5336 70.1884L83.5315 70.1863C83.2444 69.8066 83.0171 69.3941 82.8504 68.9495C82.7203 68.6142 82.6281 68.248 82.5731 67.854C82.5184 67.4619 82.4913 67.0355 82.4913 66.5758V58.6142H84.985V66.562ZM89.6548 71.5559C89.1236 71.7064 88.5215 71.7811 87.8485 71.7811L87.8496 71.7822C88.5221 71.7821 89.1239 71.7063 89.6548 71.5559C89.7897 71.5205 89.9214 71.4811 90.048 71.4379L89.6548 71.5559ZM85.7022 71.4528C85.825 71.4954 85.9521 71.5343 86.0826 71.5697C85.8215 71.4989 85.5754 71.4132 85.3452 71.3136L85.7022 71.4528ZM86.0688 69.5774C86.138 69.621 86.211 69.6592 86.2856 69.6964C86.2755 69.6914 86.2647 69.6878 86.2547 69.6826L86.0688 69.5774ZM92.7627 68.7933C92.6867 69.0002 92.596 69.1997 92.4918 69.3926C92.5413 69.3008 92.5889 69.208 92.632 69.1131L92.7627 68.7933C92.7892 68.716 92.8145 68.6369 92.8371 68.5563L92.7627 68.7933ZM84.7672 66.562C84.7672 66.7887 84.7785 67.0033 84.798 67.2059C84.786 67.0815 84.7771 66.9526 84.7725 66.8191L84.7672 66.562Z" fill="white"/>
<path fill-rule="evenodd" clip-rule="evenodd" d="M66.2845 71.6674H63.7907V58.6142H66.2845V71.6674Z" fill="white"/>
<path fill-rule="evenodd" clip-rule="evenodd" d="M72.6065 71.6674H70.1128V52H72.6065V71.6674Z" fill="white"/>
<path fill-rule="evenodd" clip-rule="evenodd" d="M78.9286 71.6674H76.4348V58.6142H78.9286V71.6674Z" fill="white"/>
<path fill-rule="evenodd" clip-rule="evenodd" d="M111.252 58.2827C111.714 58.2828 112.202 58.3476 112.712 58.4751C113.238 58.6068 113.722 58.852 114.161 59.2061C114.609 59.5586 114.974 60.0443 115.26 60.6522C115.552 61.275 115.692 62.0637 115.692 63.0036V71.6674H113.212V63.3351C113.212 62.8015 113.151 62.3604 113.037 62.008L113.035 62.0027C112.927 61.6393 112.769 61.3512 112.566 61.1324L112.563 61.1293C112.366 60.9091 112.127 60.7478 111.842 60.6447L111.839 60.6437C111.558 60.5391 111.234 60.4844 110.866 60.4843C110.173 60.4843 109.542 60.6723 108.966 61.0474C108.408 61.4089 107.9 61.9096 107.445 62.5541V71.6674H104.951V63.3351C104.951 62.8015 104.89 62.3604 104.776 62.008L104.774 62.0027C104.666 61.6393 104.508 61.3512 104.305 61.1324L104.302 61.1293C104.105 60.9091 103.865 60.7478 103.58 60.6447L103.578 60.6437C103.297 60.5391 102.973 60.4844 102.605 60.4843C101.999 60.4843 101.443 60.628 100.935 60.9146L100.72 61.0464L100.718 61.0474C100.159 61.4091 99.6514 61.9101 99.1964 62.5552V71.6674H96.7026V58.6153H98.6874L98.7267 58.7843L99.0359 60.1454C99.1987 59.9596 99.3695 59.7829 99.5481 59.6162L99.768 59.4218C99.9185 59.2968 100.077 59.1818 100.241 59.0754L100.492 58.9224C100.845 58.7178 101.23 58.5603 101.645 58.4496C102.064 58.3379 102.518 58.2827 103.003 58.2827C103.977 58.2828 104.805 58.5179 105.47 59.0021C106.043 59.4199 106.499 59.9698 106.838 60.6447C107.292 60.0522 107.795 59.5604 108.351 59.1731L108.626 58.9925C109.382 58.517 110.261 58.2827 111.252 58.2827ZM98.9785 62.485V71.4496H96.9204L98.9796 71.4507L98.9785 62.485C99.0309 62.4095 99.0841 62.3349 99.1379 62.263L98.9785 62.485ZM115.474 63.0025V71.4496H113.43L115.475 71.4507V63.0036C115.475 62.8911 115.472 62.7806 115.468 62.6731C115.472 62.7804 115.474 62.8902 115.474 63.0025ZM104.464 60.9848C104.409 60.9229 104.35 60.8641 104.289 60.8105L104.464 60.9848ZM112.726 60.9848C112.67 60.9229 112.612 60.8641 112.55 60.8105L112.726 60.9848ZM115.075 60.7733C115.134 60.9037 115.188 61.042 115.234 61.1888C115.211 61.1145 115.187 61.042 115.16 60.972L115.075 60.7733ZM101.063 60.6022C100.904 60.677 100.75 60.765 100.599 60.8647C100.51 60.9221 100.424 60.9835 100.338 61.0474C100.351 61.0376 100.364 61.0273 100.377 61.0177L100.599 60.8647C100.825 60.7154 101.06 60.5935 101.304 60.5002L101.063 60.6022ZM103.724 60.4694C103.856 60.5226 103.981 60.5845 104.096 60.6617L103.883 60.5374C103.832 60.5117 103.778 60.4912 103.724 60.4694ZM111.985 60.4694C112.117 60.5226 112.242 60.5845 112.357 60.6617L112.144 60.5374C112.093 60.5117 112.039 60.4912 111.985 60.4694ZM102.605 60.2665C102.329 60.2665 102.063 60.2944 101.806 60.3504L102.066 60.3047C102.242 60.2799 102.421 60.2665 102.605 60.2665L102.89 60.2782C102.908 60.2796 102.925 60.2818 102.943 60.2835C102.834 60.2732 102.721 60.2665 102.605 60.2665ZM110.866 60.2665C110.591 60.2665 110.323 60.2944 110.065 60.3504L110.326 60.3047C110.502 60.2799 110.682 60.2665 110.866 60.2665L111.151 60.2782C111.169 60.2796 111.186 60.2818 111.204 60.2835C111.095 60.2732 110.982 60.2665 110.866 60.2665ZM108.249 59.5163C108.24 59.5234 108.231 59.5304 108.221 59.5376C108.305 59.4727 108.39 59.4113 108.475 59.3516L108.249 59.5163ZM112.659 58.6865C112.781 58.717 112.9 58.7536 113.018 58.797C112.96 58.7757 112.902 58.7557 112.843 58.7375L112.659 58.6865Z" fill="white"/>
<path fill-rule="evenodd" clip-rule="evenodd" d="M66.3376 56.1141H63.7376V53.3813H66.3376V56.1141Z" fill="white"/>
<path fill-rule="evenodd" clip-rule="evenodd" d="M78.9817 56.1141H76.3817V53.3813H78.9817V56.1141Z" fill="white"/>
<path d="M31.7752 82.2329H25.8995C25.854 82.1619 25.8071 82.0908 25.7645 82.0198C24.8564 80.4745 23.9476 78.9297 23.0381 77.3854C22.9935 77.3252 22.969 77.2525 22.9683 77.1776C22.9675 77.1026 22.9904 77.0294 23.0338 76.9683C23.9485 75.3908 24.8569 73.8103 25.7588 72.2267C25.8526 72.0611 25.9549 71.9915 26.1532 71.9922C27.9462 72.0007 29.7389 72.0007 31.5315 71.9922C31.7446 71.9922 31.8683 72.0547 31.9741 72.2402C32.8794 73.82 33.7906 75.3982 34.7077 76.9747C34.7494 77.0327 34.7719 77.1023 34.7719 77.1737C34.7719 77.2451 34.7494 77.3147 34.7077 77.3726C33.765 78.933 32.8259 80.4963 31.8903 82.0624C31.8526 82.1171 31.8129 82.1732 31.7752 82.2329Z" fill="#6389C6"/>
<path d="M42.9158 75.9927H37.0401C36.9947 75.9216 36.9478 75.8506 36.9051 75.7795C35.997 74.2343 35.0882 72.6895 34.1787 71.1452C34.1341 71.085 34.1097 71.0122 34.1089 70.9373C34.1081 70.8624 34.1311 70.7892 34.1744 70.7281C35.0887 69.1516 35.997 67.571 36.8995 65.9864C36.9932 65.8216 37.0956 65.7512 37.2938 65.752C39.0868 65.7605 40.8796 65.7605 42.6721 65.752C42.8853 65.752 43.0089 65.8145 43.1148 65.9999C44.02 67.5817 44.9312 69.1601 45.8483 70.7352C45.8901 70.7931 45.9125 70.8627 45.9125 70.9341C45.9125 71.0056 45.8901 71.0752 45.8483 71.1331C44.9056 72.6935 43.9665 74.2568 43.0309 75.8229C42.9933 75.879 42.9535 75.9351 42.9158 75.9927Z" fill="#8162AA"/>
<path d="M42.9158 63.4617H37.0401C36.9947 63.3907 36.9478 63.3196 36.9051 63.2485C35.997 61.7038 35.0882 60.1592 34.1787 58.6149C34.1341 58.5547 34.1097 58.482 34.1089 58.4071C34.1081 58.3321 34.1311 58.2589 34.1744 58.1978C35.0887 56.6203 35.997 55.0398 36.8995 53.4562C36.9932 53.2906 37.0956 53.221 37.2938 53.2217C39.0868 53.2302 40.8796 53.2302 42.6721 53.2217C42.8853 53.2217 43.0089 53.2842 43.1148 53.4697C44.02 55.0514 44.9312 56.6298 45.8483 58.2049C45.8901 58.2629 45.9125 58.3325 45.9125 58.4039C45.9125 58.4753 45.8901 58.5449 45.8483 58.6028C44.9056 60.1632 43.9665 61.7265 43.0309 63.2926C42.9933 63.348 42.9535 63.4035 42.9158 63.4617Z" fill="#F07525"/>
<path d="M31.7713 57.0083H25.8956C25.8501 56.9373 25.8032 56.8662 25.7606 56.7952C24.8525 55.2499 23.9437 53.7051 23.0342 52.1608C22.9896 52.1006 22.9651 52.0279 22.9644 51.953C22.9636 51.878 22.9865 51.8048 23.0299 51.7437C23.9446 50.1667 24.853 48.5862 25.7549 47.0021C25.8487 46.8372 25.951 46.7669 26.1493 46.7676C27.9423 46.7761 29.735 46.7761 31.5276 46.7676C31.7407 46.7676 31.8644 46.8308 31.9702 47.0156C32.8755 48.5973 33.7867 50.1757 34.7038 51.7508C34.7455 51.8088 34.768 51.8784 34.768 51.9498C34.768 52.0212 34.7455 52.0908 34.7038 52.1487C33.7611 53.7091 32.822 55.2724 31.8864 56.8385C31.8487 56.8968 31.8089 56.9529 31.7713 57.0083Z" fill="#F8C519"/>
<path d="M31.7752 69.6211H25.8995C25.854 69.5501 25.8071 69.479 25.7645 69.4079C24.8564 67.8627 23.9476 66.3179 23.0381 64.7736C22.9935 64.7134 22.969 64.6407 22.9683 64.5657C22.9675 64.4908 22.9904 64.4176 23.0338 64.3565C23.9485 62.78 24.8569 61.1994 25.7588 59.6149C25.8526 59.45 25.9549 59.3797 26.1532 59.3804C27.9462 59.3889 29.7389 59.3889 31.5315 59.3804C31.7446 59.3804 31.8683 59.4429 31.9741 59.6284C32.8794 61.2101 33.7906 62.7885 34.7077 64.3636C34.7494 64.4215 34.7719 64.4912 34.7719 64.5626C34.7719 64.634 34.7494 64.7036 34.7077 64.7615C33.765 66.3219 32.8259 67.8852 31.8903 69.4513C31.8526 69.5074 31.8129 69.5636 31.7752 69.6211Z" fill="#E8282B"/>
<path d="M20.6883 75.9927H14.8119C14.7664 75.9216 14.7195 75.8506 14.6769 75.7795C13.7688 74.2343 12.8599 72.6895 11.9504 71.1452C11.9058 71.085 11.8814 71.0122 11.8806 70.9373C11.8799 70.8624 11.9028 70.7892 11.9462 70.7281C12.8604 69.1516 13.7688 67.571 14.6712 65.9864C14.765 65.8216 14.8673 65.7512 15.0655 65.752C16.8585 65.7605 18.6513 65.7605 20.4438 65.752C20.657 65.752 20.7806 65.8145 20.8865 65.9999C21.7918 67.5817 22.703 69.1601 23.6201 70.7352C23.662 70.793 23.6846 70.8627 23.6846 70.9341C23.6846 71.0056 23.662 71.0753 23.6201 71.1331C22.6774 72.6935 21.7382 74.2568 20.8027 75.8229C20.765 75.879 20.7252 75.9351 20.6883 75.9927Z" fill="#98CA3F"/>
<path d="M20.8653 63.3061H14.9896C14.9434 63.2351 14.8965 63.164 14.8539 63.093C13.9444 61.5468 13.0358 60.0015 12.1282 58.4572C12.0836 58.397 12.0591 58.3242 12.0584 58.2493C12.0576 58.1744 12.0805 58.1012 12.1239 58.0401C13.0377 56.4626 13.9458 54.8821 14.8482 53.2985C14.9427 53.1329 15.045 53.0633 15.2433 53.064C17.0363 53.0725 18.8288 53.0725 20.6208 53.064C20.834 53.064 20.9577 53.1265 21.0642 53.312C21.9695 54.8937 22.8807 56.4721 23.7978 58.0472C23.8392 58.1054 23.8612 58.1753 23.8606 58.2467C23.8599 58.3182 23.8367 58.3876 23.7942 58.4451C22.852 60.0055 21.9131 61.5688 20.9776 63.1349C20.942 63.1896 20.9029 63.2486 20.8653 63.3061Z" fill="#CBDD72"/>
<path d="M17.7828 64.0607C16.7169 64.0607 15.6468 64.0607 14.5788 64.0643C14.5161 64.0708 14.4529 64.0575 14.3981 64.0263C14.3433 63.9951 14.2997 63.9475 14.2733 63.8902C13.2074 62.0479 12.1368 60.208 11.0615 58.3705C11.0266 58.3221 11.0078 58.2639 11.0078 58.2042C11.0078 58.1445 11.0266 58.0864 11.0615 58.0379C12.1359 56.1848 13.206 54.3292 14.2719 52.4713C14.2995 52.4114 14.3452 52.3616 14.4025 52.3288C14.4598 52.2961 14.5259 52.2821 14.5916 52.2887C16.7233 52.2939 18.8531 52.2939 20.981 52.2887C21.0468 52.2826 21.1129 52.2971 21.17 52.3302C21.2272 52.3633 21.2726 52.4134 21.3001 52.4735C22.3617 54.3257 23.4275 56.1753 24.4976 58.0223C24.5359 58.0759 24.5564 58.1401 24.5564 58.206C24.5564 58.2719 24.5359 58.3361 24.4976 58.3897C23.4285 60.2158 22.3647 62.0446 21.3065 63.876C21.2769 63.9387 21.2284 63.9906 21.1679 64.0245C21.1074 64.0584 21.0379 64.0725 20.9689 64.065C19.9059 64.0572 18.8444 64.0607 17.7828 64.0607ZM17.7828 53.8356C17.0189 53.8356 16.2551 53.8399 15.4919 53.8321C15.4263 53.8252 15.3601 53.839 15.3028 53.8716C15.2454 53.9042 15.1997 53.954 15.1721 54.014C14.4118 55.3537 13.6463 56.6898 12.8756 58.0223C12.8373 58.0758 12.8167 58.1399 12.8167 58.2056C12.8167 58.2714 12.8373 58.3355 12.8756 58.389C13.6411 59.6803 14.4012 60.9747 15.1558 62.2722C15.1866 62.3379 15.2369 62.3924 15.2999 62.4282C15.3629 62.4641 15.4354 62.4796 15.5075 62.4726C16.7866 62.4655 18.0705 62.4691 19.3517 62.4691C19.5976 62.4691 19.8434 62.4627 20.0893 62.4691C20.1495 62.478 20.2109 62.4669 20.2642 62.4375C20.3174 62.4081 20.3596 62.362 20.3842 62.3063C20.4943 62.0932 20.6215 61.8907 20.743 61.6846C21.3972 60.5681 22.0526 59.4522 22.7091 58.3371C22.7453 58.2889 22.7656 58.2306 22.7671 58.1704C22.7686 58.1102 22.7513 58.051 22.7177 58.001C21.9308 56.6623 21.1492 55.3207 20.3728 53.9763C20.3496 53.9279 20.3118 53.8878 20.2649 53.8617C20.2179 53.8357 20.164 53.8248 20.1106 53.8307C19.3368 53.8385 18.5608 53.8356 17.7842 53.8356H17.7828Z" fill="#373737"/>
<path d="M17.7747 76.7551C16.7088 76.7551 15.6387 76.7551 14.5708 76.7587C14.508 76.765 14.4447 76.7517 14.3899 76.7205C14.335 76.6893 14.2912 76.6418 14.2645 76.5846C13.1996 74.7413 12.1293 72.9012 11.0535 71.0641C11.0187 71.0158 11 70.9578 11 70.8982C11 70.8387 11.0187 70.7807 11.0535 70.7323C12.1274 68.8791 13.1968 67.0236 14.2617 65.1657C14.2894 65.1057 14.3352 65.0558 14.3927 65.0231C14.4501 64.9904 14.5163 64.9764 14.5821 64.9831C16.7138 64.9883 18.8434 64.9883 20.9708 64.9831C21.0366 64.9768 21.1028 64.9911 21.1601 65.0241C21.2174 65.057 21.263 65.107 21.2906 65.1671C22.3522 67.0193 23.418 68.8692 24.4881 70.7167C24.5266 70.7702 24.5473 70.8344 24.5473 70.9004C24.5473 70.9663 24.5266 71.0305 24.4881 71.084C23.4194 72.9102 22.3555 74.739 21.2963 76.5704C21.2666 76.633 21.2181 76.6848 21.1577 76.7187C21.0972 76.7526 21.0277 76.7668 20.9587 76.7594C19.8979 76.7515 18.8363 76.7551 17.7747 76.7551ZM17.7747 66.53C17.0108 66.53 16.247 66.5343 15.4838 66.5264C15.4181 66.5191 15.3518 66.5327 15.2944 66.5654C15.2369 66.5981 15.1913 66.6481 15.1641 66.7083C14.4038 68.0471 13.6383 69.3829 12.8675 70.716C12.8289 70.7694 12.808 70.8337 12.808 70.8996C12.808 70.9656 12.8289 71.0299 12.8675 71.0833C13.633 72.3742 14.3931 73.6684 15.1477 74.9659C15.1784 75.0316 15.2287 75.0863 15.2917 75.1223C15.3546 75.1583 15.4272 75.1739 15.4995 75.167C16.7785 75.1599 18.0618 75.167 19.3436 75.167C19.5895 75.167 19.8353 75.1599 20.0812 75.167C20.1415 75.176 20.203 75.1648 20.2563 75.1353C20.3097 75.1057 20.3517 75.0594 20.3761 75.0035C20.4855 74.7904 20.6134 74.5886 20.7314 74.3818C21.3865 73.2653 22.0419 72.1497 22.6975 71.035C22.7339 70.9868 22.7543 70.9284 22.7559 70.868C22.7574 70.8076 22.74 70.7482 22.706 70.6982C21.9201 69.3595 21.1385 68.0182 20.3612 66.6742C20.3375 66.6264 20.2995 66.587 20.2526 66.5616C20.2057 66.5361 20.152 66.5259 20.099 66.5321C19.3287 66.5293 18.5521 66.5293 17.7761 66.5293L17.7747 66.53Z" fill="#373737"/>
<path d="M28.8686 82.9944C27.8028 82.9944 26.7327 82.9944 25.6647 82.9944C25.6019 83.0014 25.5384 82.9887 25.4831 82.958C25.4279 82.9273 25.3835 82.8802 25.3563 82.8231C24.2905 80.9808 23.2201 79.1409 22.1453 77.3034C22.1103 77.255 22.0916 77.1968 22.0916 77.1371C22.0916 77.0774 22.1103 77.0193 22.1453 76.9709C23.2187 75.1182 24.2881 73.2629 25.3535 71.405C25.3812 71.3449 25.427 71.2951 25.4845 71.2624C25.5419 71.2296 25.6082 71.2156 25.6739 71.2223C27.8056 71.2276 29.9352 71.2276 32.0626 71.2223C32.1284 71.216 32.1946 71.2303 32.2519 71.2633C32.3092 71.2963 32.3548 71.3463 32.3824 71.4064C33.444 73.2591 34.5098 75.1087 35.5799 76.9552C35.6186 77.0088 35.6393 77.0732 35.6393 77.1393C35.6393 77.2053 35.6186 77.2697 35.5799 77.3233C34.5136 79.1495 33.4506 80.9782 32.3909 82.8096C32.3612 82.8722 32.3127 82.9239 32.2522 82.9577C32.1918 82.9914 32.1223 83.0055 32.0534 82.9979C30.9918 82.9908 29.9302 82.9944 28.8686 82.9944ZM28.8686 72.7685C28.1055 72.7685 27.3416 72.7728 26.5785 72.7685C26.5128 72.7616 26.4465 72.7754 26.3891 72.8082C26.3317 72.841 26.2861 72.891 26.2587 72.9512C25.4984 74.2899 24.7329 75.6257 23.9622 76.9588C23.9235 77.0122 23.9027 77.0765 23.9027 77.1425C23.9027 77.2084 23.9235 77.2727 23.9622 77.3261C24.7272 78.617 25.4873 79.9112 26.2424 81.2087C26.273 81.2745 26.3233 81.3291 26.3863 81.3651C26.4493 81.4011 26.5219 81.4167 26.5941 81.4098C27.8731 81.4027 29.1564 81.4055 30.4383 81.4055C30.6841 81.4055 30.93 81.3991 31.1759 81.4055C31.236 81.4142 31.2974 81.4029 31.3505 81.3734C31.4036 81.3439 31.4456 81.2978 31.47 81.2421C31.5802 81.0289 31.7081 80.8271 31.8253 80.6203C32.4805 79.5043 33.1358 78.3884 33.7914 77.2728C33.8279 77.2248 33.8484 77.1665 33.8499 77.1062C33.8514 77.0459 33.834 76.9866 33.8 76.9368C33.0141 75.598 32.2325 74.2567 31.4551 72.9128C31.432 72.8643 31.3943 72.8242 31.3473 72.7981C31.3003 72.772 31.2463 72.7611 31.1929 72.7671C30.4227 72.7714 29.646 72.7685 28.8694 72.7685H28.8686Z" fill="#373737"/>
<path d="M40.0106 64.0695C38.9447 64.0695 37.8746 64.0695 36.8066 64.0695C36.7438 64.0761 36.6804 64.0629 36.6255 64.0317C36.5705 64.0005 36.5268 63.9528 36.5004 63.8954C35.435 62.0531 34.3646 60.2132 33.2893 58.3757C33.2544 58.3273 33.2356 58.2691 33.2356 58.2094C33.2356 58.1497 33.2544 58.0915 33.2893 58.0431C34.3632 56.1904 35.4326 54.3351 36.4975 52.4772C36.5253 52.4172 36.5711 52.3674 36.6285 52.3346C36.686 52.3019 36.7522 52.2879 36.818 52.2946C38.9497 52.2993 41.0792 52.2993 43.2067 52.2946C43.2725 52.2881 43.3388 52.3023 43.3961 52.3353C43.4534 52.3683 43.499 52.4184 43.5264 52.4786C44.588 54.3309 45.6539 56.1805 46.724 58.0275C46.7626 58.0811 46.7834 58.1455 46.7834 58.2115C46.7834 58.2776 46.7626 58.342 46.724 58.3956C45.6558 60.2217 44.592 62.0505 43.5328 63.8819C43.5032 63.9445 43.4547 63.9963 43.3942 64.0301C43.3337 64.0638 43.2642 64.0779 43.1953 64.0702C42.1337 64.0659 41.0721 64.0695 40.0106 64.0695ZM40.0106 53.8436C39.2474 53.8436 38.4835 53.8479 37.7204 53.8401C37.6547 53.8331 37.5884 53.847 37.531 53.8798C37.4736 53.9125 37.428 53.9626 37.4006 54.0227C36.6403 55.3614 35.8748 56.6973 35.1041 58.0303C35.0654 58.0838 35.0446 58.148 35.0446 58.214C35.0446 58.28 35.0654 58.3442 35.1041 58.3977C35.8691 59.689 36.6292 60.9832 37.3843 62.2802C37.4152 62.3466 37.466 62.4017 37.5297 62.4377C37.5934 62.4738 37.6668 62.489 37.7396 62.4813C39.0186 62.4742 40.3019 62.4771 41.5837 62.4771C41.8296 62.4771 42.0755 62.4707 42.3213 62.4771C42.3815 62.4859 42.4429 62.4747 42.4961 62.4451C42.5492 62.4156 42.5912 62.3694 42.6155 62.3136C42.7256 62.1005 42.8535 61.8987 42.9708 61.6919C43.6259 60.5758 44.2813 59.46 44.9369 58.3444C44.9734 58.2963 44.9938 58.238 44.9954 58.1777C44.9969 58.1174 44.9794 58.0581 44.9454 58.0083C44.1596 56.6696 43.3779 55.3283 42.6006 53.9843C42.5774 53.9358 42.5397 53.8957 42.4927 53.8695C42.4458 53.8433 42.3918 53.8323 42.3384 53.838C41.5646 53.8465 40.7879 53.8436 40.0113 53.8436H40.0106Z" fill="#373737"/>
<path d="M40.0135 76.7518C38.9476 76.7518 37.8775 76.7518 36.8095 76.7518C36.7468 76.7582 36.6837 76.7449 36.6289 76.7137C36.5741 76.6825 36.5305 76.6349 36.504 76.5777C35.4381 74.7345 34.3676 72.8946 33.2922 71.058C33.2573 71.0096 33.2385 70.9514 33.2385 70.8917C33.2385 70.832 33.2573 70.7739 33.2922 70.7254C34.3652 68.8723 35.4346 67.0167 36.5004 65.1588C36.5281 65.0989 36.5738 65.0491 36.6311 65.0163C36.6884 64.9836 36.7545 64.9696 36.8202 64.9762C38.9519 64.981 41.0817 64.981 43.2096 64.9762C43.2753 64.9698 43.3414 64.9841 43.3986 65.0171C43.4558 65.0501 43.5013 65.1002 43.5287 65.1603C44.5902 67.013 45.6561 68.8628 46.7262 70.7098C46.7645 70.7634 46.785 70.8276 46.785 70.8935C46.785 70.9594 46.7645 71.0236 46.7262 71.0772C45.6575 72.9033 44.5936 74.7321 43.5343 76.5635C43.5047 76.6261 43.4562 76.678 43.3957 76.7118C43.3353 76.7457 43.2657 76.7599 43.1968 76.7525C42.1367 76.7482 41.0751 76.7518 40.0135 76.7518ZM40.0135 66.5267C39.2496 66.5267 38.4858 66.531 37.7226 66.5231C37.6569 66.5159 37.5907 66.5296 37.5332 66.5622C37.4758 66.5949 37.4302 66.6449 37.4029 66.705C36.6449 68.0438 35.8794 69.3799 35.1063 70.7134C35.068 70.7668 35.0474 70.8309 35.0474 70.8967C35.0474 70.9625 35.068 71.0266 35.1063 71.08C35.8723 72.3714 36.6324 73.6656 37.3865 74.9626C37.4172 75.0283 37.4675 75.083 37.5304 75.119C37.5934 75.155 37.666 75.1706 37.7382 75.1637C39.0173 75.1566 40.3013 75.1637 41.5824 75.1637C41.8283 75.1637 42.0741 75.1566 42.32 75.1637C42.3802 75.1726 42.4416 75.1615 42.4949 75.1321C42.5482 75.1027 42.5903 75.0566 42.6149 75.001C42.725 74.7878 42.8522 74.5853 42.9737 74.3785C43.6279 73.2624 44.2833 72.1468 44.9398 71.0317C44.976 70.9834 44.9962 70.925 44.9977 70.8647C44.9993 70.8043 44.982 70.745 44.9484 70.6949C44.162 69.3562 43.3804 68.0149 42.6035 66.6709C42.5794 66.6232 42.5414 66.584 42.4943 66.5586C42.4473 66.5332 42.3937 66.5228 42.3406 66.5288C41.5682 66.5302 40.7916 66.5302 40.0149 66.5302L40.0135 66.5267Z" fill="#373737"/>
<path d="M28.8651 70.4104C27.7992 70.4104 26.7291 70.4104 25.6611 70.4104C25.5983 70.4168 25.535 70.4035 25.4801 70.3723C25.4252 70.3411 25.3814 70.2936 25.3549 70.2363C24.2895 68.3936 23.2191 66.5536 22.1438 64.7166C22.1089 64.6682 22.0901 64.61 22.0901 64.5503C22.0901 64.4906 22.1089 64.4324 22.1438 64.384C23.2177 62.5309 24.2871 60.6756 25.352 58.8181C25.3798 58.7581 25.4256 58.7083 25.483 58.6754C25.5404 58.6426 25.6066 58.6284 25.6725 58.6348C27.8042 58.6395 29.9337 58.6395 32.0612 58.6348C32.1271 58.6285 32.1933 58.643 32.2506 58.6761C32.3079 58.7092 32.3535 58.7593 32.3809 58.8196C33.4425 60.6718 34.5084 62.5214 35.5785 64.3684C35.6172 64.4218 35.638 64.4861 35.638 64.5521C35.638 64.6181 35.6172 64.6823 35.5785 64.7358C34.5107 66.5638 33.4482 68.3933 32.3909 70.2242C32.3613 70.2869 32.3129 70.3388 32.2524 70.3727C32.1919 70.4066 32.1223 70.4208 32.0534 70.4132C30.9882 70.4061 29.9266 70.4104 28.8651 70.4104ZM28.8651 60.1846C28.1012 60.1846 27.3373 60.1888 26.5742 60.1846C26.5085 60.1775 26.4424 60.1913 26.385 60.2239C26.3276 60.2566 26.2819 60.3065 26.2544 60.3665C25.4941 61.7057 24.7286 63.0418 23.9579 64.3748C23.9193 64.4281 23.8985 64.4923 23.8985 64.5581C23.8985 64.624 23.9193 64.6881 23.9579 64.7415C24.7229 66.0323 25.483 67.3267 26.2381 68.6247C26.2686 68.6906 26.3189 68.7452 26.3819 68.7811C26.445 68.8171 26.5176 68.8324 26.5898 68.8251C27.8688 68.8187 29.1521 68.8251 30.434 68.8251C30.6798 68.8251 30.9257 68.8187 31.1716 68.8251C31.2321 68.8344 31.2939 68.8234 31.3475 68.7937C31.401 68.7639 31.4431 68.7173 31.4672 68.661C31.5773 68.4478 31.7052 68.2453 31.826 68.0392C32.4811 66.9227 33.1365 65.8068 33.7921 64.6917C33.8286 64.6437 33.849 64.5854 33.8506 64.525C33.8521 64.4647 33.8346 64.4055 33.8007 64.3556C33.0148 63.0169 32.2331 61.6756 31.4558 60.3317C31.4327 60.2831 31.395 60.2429 31.348 60.2167C31.301 60.1904 31.2471 60.1795 31.1936 60.1853C30.4191 60.1874 29.6424 60.1846 28.8665 60.1846H28.8651Z" fill="#373737"/>
<path d="M28.8692 57.7736C27.8034 57.7736 26.7332 57.7736 25.6653 57.7772C25.6025 57.7835 25.5392 57.7702 25.4844 57.739C25.4295 57.7078 25.3857 57.6603 25.359 57.6031C24.2936 55.7598 23.2233 53.9199 22.1479 52.0834C22.113 52.0349 22.0942 51.9768 22.0942 51.9171C22.0942 51.8574 22.113 51.7992 22.1479 51.7508C23.2219 49.8976 24.2913 48.0421 25.3562 46.1842C25.384 46.1243 25.4298 46.0745 25.4872 46.0418C25.5447 46.009 25.6109 45.995 25.6766 46.0016C27.8083 46.0063 29.9379 46.0063 32.0653 46.0016C32.1311 45.9953 32.1973 46.0096 32.2546 46.0426C32.3119 46.0755 32.3575 46.1255 32.3851 46.1856C33.4467 48.0378 34.5125 49.8877 35.5826 51.7352C35.6213 51.7886 35.6421 51.8529 35.6421 51.9189C35.6421 51.9848 35.6213 52.0491 35.5826 52.1025C34.5149 53.9287 33.4509 55.7575 32.3908 57.5889C32.3611 57.6515 32.3126 57.7033 32.2522 57.7372C32.1917 57.7711 32.1222 57.7853 32.0533 57.7779C30.9924 57.77 29.9308 57.7736 28.8692 57.7736ZM28.8692 47.5485C28.1053 47.5485 27.3415 47.5528 26.5783 47.5449C26.5127 47.5376 26.4463 47.5512 26.3889 47.5839C26.3314 47.6166 26.2858 47.6666 26.2586 47.7269C25.4983 49.0665 24.7328 50.4026 23.962 51.7352C23.9234 51.7885 23.9026 51.8527 23.9026 51.9185C23.9026 51.9843 23.9234 52.0485 23.962 52.1018C24.7271 53.3932 25.4871 54.6874 26.2422 55.9844C26.2729 56.0501 26.3232 56.1048 26.3862 56.1408C26.4491 56.1768 26.5217 56.1924 26.594 56.1855C27.873 56.1784 29.1563 56.1819 30.4381 56.1819C30.684 56.1819 30.9299 56.1755 31.1757 56.1819C31.2358 56.1908 31.2971 56.1797 31.3503 56.1503C31.4034 56.1209 31.4455 56.0748 31.4699 56.0192C31.58 55.806 31.7079 55.6035 31.8252 55.3967C32.4865 54.2826 33.144 53.1677 33.7977 52.0521C33.8341 52.0039 33.8545 51.9455 33.8561 51.8851C33.8576 51.8246 33.8402 51.7653 33.8062 51.7153C33.0203 50.377 32.2387 49.0357 31.4614 47.6913C31.4376 47.6435 31.3996 47.6042 31.3527 47.5788C31.3058 47.5534 31.2522 47.543 31.1992 47.5492C30.4232 47.5506 29.6466 47.5485 28.8706 47.5485H28.8692Z" fill="#373737"/>
</svg>
