<svg width="128" height="128" viewBox="0 0 128 128" fill="none" xmlns="http://www.w3.org/2000/svg">
<path d="M26.999 62.5759C23.5422 62.5759 20.0715 62.5759 16.6078 62.5874C16.4043 62.6086 16.1994 62.5655 16.0217 62.4642C15.8439 62.363 15.7024 62.2086 15.6168 62.0228C12.16 56.0479 8.68786 50.0806 5.20032 44.121C5.08707 43.964 5.02612 43.7753 5.02612 43.5818C5.02612 43.3882 5.08707 43.1995 5.20032 43.0425C8.68478 37.0322 12.1554 31.0143 15.6122 24.9886C15.7019 24.7942 15.85 24.6326 16.0359 24.5264C16.2218 24.4202 16.4363 24.3748 16.6493 24.3964C23.5629 24.4133 30.4704 24.4133 37.3717 24.3964C37.585 24.3765 37.7992 24.4235 37.9846 24.5309C38.17 24.6383 38.3175 24.8006 38.4064 24.9955C41.8494 31.0027 45.3062 37.0015 48.7769 42.9918C48.901 43.1657 48.9677 43.3739 48.9677 43.5875C48.9677 43.8011 48.901 44.0094 48.7769 44.1832C45.3093 50.106 41.8594 56.0371 38.4272 61.9767C38.3312 62.1801 38.1741 62.3484 37.9779 62.4583C37.7817 62.5682 37.5561 62.6141 37.3325 62.5897C33.8849 62.5644 30.442 62.5759 26.999 62.5759ZM26.999 29.4134C24.5216 29.4134 22.0442 29.4272 19.5691 29.4018C19.3563 29.3794 19.1418 29.4242 18.9557 29.53C18.7697 29.6359 18.6215 29.7974 18.5321 29.9918C16.0662 34.3367 13.5835 38.67 11.0838 42.9918C10.9596 43.1652 10.8928 43.3731 10.8928 43.5864C10.8928 43.7996 10.9596 44.0076 11.0838 44.1809C13.5666 48.3691 16.0317 52.5672 18.4791 56.7753C18.5789 56.9882 18.7421 57.1649 18.9463 57.2813C19.1506 57.3976 19.3859 57.4479 19.6198 57.4252C23.768 57.4022 27.9323 57.4137 32.0874 57.4137C32.8848 57.4137 33.6821 57.3929 34.4795 57.4137C34.6747 57.4426 34.874 57.4066 35.0468 57.3113C35.2196 57.2159 35.3563 57.0665 35.4359 56.8859C35.7931 56.1946 36.2056 55.5378 36.5997 54.8695C38.7214 51.2482 40.847 47.6293 42.9763 44.0127C43.0937 43.8564 43.1594 43.6675 43.1643 43.4721C43.1693 43.2767 43.1132 43.0847 43.004 42.9227C40.4521 38.5809 37.9171 34.2299 35.399 29.8697C35.3237 29.7125 35.2014 29.5827 35.0491 29.4981C34.8967 29.4134 34.7219 29.3782 34.5486 29.3972C32.039 29.4226 29.5224 29.4134 27.0036 29.4134H26.999Z" fill="white"/>
<path d="M26.972 103.747C23.5152 103.747 20.0446 103.747 16.5808 103.758C16.3772 103.779 16.1721 103.736 15.9941 103.635C15.8162 103.533 15.6741 103.379 15.5876 103.194C12.1338 97.2158 8.66244 91.2477 5.17336 85.2897C5.06064 85.1329 5 84.9447 5 84.7516C5 84.5585 5.06064 84.3703 5.17336 84.2135C8.65629 78.2032 12.1246 72.1852 15.5784 66.1596C15.6684 65.965 15.8169 65.8033 16.0033 65.6971C16.1896 65.591 16.4044 65.5456 16.6177 65.5673C23.5313 65.5842 30.438 65.5842 37.3378 65.5673C37.5513 65.5468 37.7658 65.5932 37.9516 65.7002C38.1375 65.8072 38.2854 65.9693 38.3749 66.1642C41.8179 72.1714 45.2747 78.1709 48.7453 84.1628C48.87 84.3364 48.9371 84.5447 48.9371 84.7585C48.9371 84.9723 48.87 85.1806 48.7453 85.3542C45.2793 91.2769 41.8286 97.2081 38.3933 103.148C38.297 103.351 38.1399 103.519 37.9438 103.629C37.7476 103.739 37.5222 103.785 37.2986 103.761C33.858 103.735 30.415 103.747 26.972 103.747ZM26.972 70.5843C24.4946 70.5843 22.0172 70.5982 19.5422 70.5728C19.3291 70.5489 19.114 70.5931 18.9277 70.6991C18.7414 70.8051 18.5934 70.9674 18.5051 71.1628C16.0393 75.5046 13.5565 79.8371 11.0569 84.1605C10.9315 84.3338 10.8639 84.5423 10.8639 84.7562C10.8639 84.9701 10.9315 85.1786 11.0569 85.3519C13.5396 89.5385 16.0047 93.7359 18.4521 97.944C18.5515 98.1573 18.7146 98.3345 18.9189 98.4513C19.1232 98.5681 19.3586 98.6187 19.5929 98.5962C23.741 98.5731 27.903 98.5962 32.0604 98.5962C32.8578 98.5962 33.6552 98.5731 34.4525 98.5962C34.6481 98.6253 34.8477 98.5892 35.0206 98.4933C35.1935 98.3975 35.33 98.2474 35.4089 98.0661C35.7638 97.3748 36.1786 96.7203 36.5612 96.0497C38.686 92.4284 40.8115 88.8103 42.9379 85.1952C43.056 85.0388 43.1222 84.8494 43.1272 84.6535C43.1321 84.4575 43.0756 84.265 42.9655 84.1028C40.4167 79.7611 37.8817 75.4108 35.3605 71.0522C35.2837 70.897 35.1607 70.7693 35.0085 70.6868C34.8562 70.6043 34.6821 70.5709 34.5102 70.5913C32.012 70.582 29.4932 70.582 26.9766 70.582L26.972 70.5843Z" fill="white"/>
<path d="M62.9529 123.982C59.4961 123.982 56.0255 123.982 52.5617 123.982C52.358 124.005 52.1522 123.964 51.9729 123.864C51.7936 123.765 51.6499 123.612 51.5616 123.427C48.1047 117.452 44.6333 111.485 41.1473 105.525C41.0341 105.368 40.9731 105.179 40.9731 104.986C40.9731 104.792 41.0341 104.604 41.1473 104.447C44.6287 98.4378 48.0971 92.4206 51.5523 86.3949C51.6424 86.2003 51.7909 86.0387 51.9772 85.9325C52.1636 85.8263 52.3784 85.7809 52.5917 85.8027C59.5053 85.8196 66.412 85.8196 73.3118 85.8027C73.5253 85.7822 73.7398 85.8286 73.9256 85.9356C74.1115 86.0425 74.2594 86.2047 74.3489 86.3996C77.7919 92.4083 81.2487 98.407 84.7193 104.396C84.8446 104.57 84.912 104.778 84.912 104.993C84.912 105.207 84.8446 105.416 84.7193 105.59C81.261 111.512 77.8134 117.443 74.3765 123.383C74.2802 123.586 74.123 123.754 73.9268 123.863C73.7306 123.973 73.5052 124.018 73.2819 123.994C69.8389 123.971 66.3959 123.982 62.9529 123.982ZM62.9529 90.8174C60.4778 90.8174 58.0005 90.8312 55.5254 90.8174C55.3122 90.7947 55.0973 90.8398 54.9112 90.9461C54.7251 91.0524 54.5771 91.2146 54.4883 91.4097C52.0225 95.7514 49.5397 100.084 47.0401 104.407C46.9147 104.581 46.8471 104.789 46.8471 105.003C46.8471 105.217 46.9147 105.425 47.0401 105.599C49.5213 109.785 51.9864 113.983 54.4353 118.191C54.5348 118.404 54.6978 118.581 54.9021 118.698C55.1064 118.815 55.3418 118.866 55.5761 118.843C59.7242 118.82 63.8862 118.829 68.0436 118.829C68.841 118.829 69.6384 118.808 70.4358 118.829C70.6309 118.857 70.8298 118.821 71.0022 118.725C71.1745 118.629 71.3107 118.48 71.3898 118.299C71.747 117.608 72.1619 116.953 72.5421 116.283C74.6669 112.663 76.7925 109.044 78.9188 105.426C79.0371 105.27 79.1034 105.081 79.1083 104.885C79.1133 104.69 79.0567 104.498 78.9464 104.336C76.3976 99.9941 73.8626 95.6439 71.3414 91.2852C71.2664 91.1279 71.1441 90.9978 70.9917 90.9131C70.8393 90.8285 70.6643 90.7934 70.4911 90.8128C67.9929 90.8266 65.4741 90.8174 62.9552 90.8174H62.9529Z" fill="white"/>
<path d="M99.0883 62.6042C95.6315 62.6042 92.1609 62.6042 88.6972 62.6042C88.4933 62.6258 88.2879 62.583 88.1097 62.4817C87.9315 62.3804 87.7896 62.2258 87.7039 62.0396C84.2486 56.0646 80.7772 50.0974 77.2897 44.1378C77.1764 43.9808 77.1155 43.7921 77.1155 43.5985C77.1155 43.405 77.1764 43.2163 77.2897 43.0593C80.7726 37.0506 84.2409 31.0334 87.6947 25.0077C87.7847 24.8131 87.9333 24.6514 88.1196 24.5453C88.3059 24.4391 88.5207 24.3937 88.734 24.4155C95.6476 24.4308 102.554 24.4308 109.454 24.4155C109.668 24.3942 109.883 24.4404 110.068 24.5474C110.254 24.6545 110.402 24.817 110.491 25.0123C113.934 31.0195 117.391 37.0183 120.862 43.0086C120.987 43.1824 121.054 43.3912 121.054 43.6055C121.054 43.8197 120.987 44.0285 120.862 44.2023C117.397 50.125 113.947 56.0562 110.512 61.9958C110.416 62.1989 110.259 62.367 110.062 62.4765C109.866 62.586 109.641 62.6314 109.417 62.6065C105.974 62.5927 102.531 62.6042 99.0883 62.6042ZM99.0883 29.4394C96.6132 29.4394 94.1359 29.4532 91.6608 29.4279C91.4476 29.4052 91.2328 29.4502 91.0466 29.5565C90.8605 29.6628 90.7125 29.825 90.6237 30.0201C88.1579 34.3619 85.6751 38.6945 83.1755 43.0178C83.0501 43.1911 82.9826 43.3996 82.9826 43.6135C82.9826 43.8275 83.0501 44.0359 83.1755 44.2093C85.6567 48.3974 88.1218 52.5948 90.5707 56.8013C90.6708 57.0166 90.8357 57.1952 91.0423 57.3122C91.2489 57.4291 91.4869 57.4785 91.723 57.4535C95.8712 57.4305 100.033 57.4397 104.191 57.4397C104.988 57.4397 105.785 57.4189 106.583 57.4397C106.778 57.4683 106.977 57.4319 107.149 57.3361C107.322 57.2403 107.458 57.0904 107.537 56.9096C107.894 56.2183 108.309 55.5638 108.689 54.8932C110.814 51.2735 112.939 47.6546 115.066 44.0364C115.184 43.8805 115.25 43.6915 115.255 43.4958C115.26 43.3002 115.204 43.108 115.093 42.9464C112.545 38.6046 110.01 34.2544 107.488 29.8957C107.413 29.7383 107.291 29.6082 107.139 29.5232C106.986 29.4382 106.811 29.4024 106.638 29.421C104.128 29.4486 101.609 29.4394 99.0906 29.4394H99.0883Z" fill="white"/>
<path d="M99.0979 103.735C95.641 103.735 92.1704 103.735 88.7067 103.735C88.5033 103.756 88.2985 103.712 88.1208 103.611C87.9432 103.51 87.8015 103.356 87.7157 103.17C84.2589 97.1923 80.7867 91.225 77.2992 85.2685C77.1859 85.1115 77.125 84.9228 77.125 84.7292C77.125 84.5356 77.1859 84.347 77.2992 84.19C80.779 78.1797 84.2474 72.1617 87.7042 66.1361C87.7938 65.9416 87.942 65.7801 88.1279 65.6739C88.3138 65.5677 88.5282 65.5222 88.7412 65.5438C95.6549 65.5592 102.562 65.5592 109.464 65.5438C109.677 65.5231 109.891 65.5695 110.077 65.6765C110.262 65.7835 110.41 65.9458 110.498 66.1407C113.941 72.1494 117.398 78.149 120.869 84.1393C120.993 84.3131 121.06 84.5214 121.06 84.735C121.06 84.9486 120.993 85.1568 120.869 85.3307C117.403 91.2534 113.952 97.1846 110.517 103.124C110.421 103.327 110.263 103.495 110.067 103.605C109.871 103.715 109.646 103.761 109.422 103.737C105.984 103.723 102.541 103.735 99.0979 103.735ZM99.0979 70.5724C96.6205 70.5724 94.1431 70.5862 91.668 70.5608C91.455 70.5373 91.2401 70.5817 91.0538 70.6876C90.8676 70.7936 90.7196 70.9557 90.631 71.1508C88.1728 75.4926 85.69 79.8259 83.1827 84.1508C83.0585 84.3242 82.9917 84.5321 82.9917 84.7454C82.9917 84.9586 83.0585 85.1666 83.1827 85.3399C85.667 89.5281 88.1321 93.7254 90.578 97.932C90.6774 98.1453 90.8405 98.3225 91.0447 98.4393C91.249 98.5561 91.4845 98.6067 91.7187 98.5842C95.8669 98.5612 100.031 98.5842 104.186 98.5842C104.984 98.5842 105.781 98.5612 106.578 98.5842C106.774 98.6131 106.973 98.5771 107.146 98.4818C107.318 98.3864 107.455 98.237 107.535 98.0565C107.892 97.3651 108.304 96.7083 108.699 96.0377C110.82 92.418 112.946 88.7998 115.075 85.1832C115.192 85.0264 115.258 84.8371 115.263 84.6414C115.268 84.4458 115.212 84.2534 115.103 84.0909C112.553 79.7491 110.018 75.3989 107.498 71.0402C107.42 70.8854 107.296 70.7583 107.144 70.6759C106.991 70.5935 106.817 70.5598 106.645 70.5793C104.14 70.5839 101.621 70.5839 99.1025 70.5839L99.0979 70.5724Z" fill="white"/>
<path d="M62.9407 83.1691C59.4838 83.1691 56.0132 83.1691 52.5495 83.1691C52.3457 83.1901 52.1405 83.1469 51.9625 83.0457C51.7845 82.9445 51.6424 82.7903 51.5562 82.6045C48.1009 76.628 44.6295 70.6608 41.142 64.7027C41.0287 64.5457 40.9678 64.357 40.9678 64.1635C40.9678 63.9699 41.0287 63.7812 41.142 63.6242C44.6249 57.6139 48.0932 51.5967 51.547 45.5726C51.6372 45.378 51.7857 45.2162 51.9719 45.1097C52.1581 45.0032 52.3728 44.9572 52.5863 44.978C59.5 44.9934 66.4067 44.9934 73.3065 44.978C73.5202 44.9577 73.7349 45.0045 73.9208 45.1119C74.1067 45.2193 74.2544 45.3819 74.3435 45.5772C77.7865 51.5844 81.2433 57.5832 84.714 63.5735C84.8394 63.7468 84.9069 63.9553 84.9069 64.1692C84.9069 64.3832 84.8394 64.5916 84.714 64.765C81.251 70.6938 77.805 76.6273 74.3758 82.5653C74.2798 82.7687 74.1227 82.937 73.9265 83.0469C73.7303 83.1568 73.5047 83.2027 73.2811 83.1783C69.8266 83.1553 66.3836 83.1691 62.9407 83.1691ZM62.9407 50.0043C60.4633 50.0043 57.9859 50.0181 55.5108 50.0043C55.2979 49.9814 55.0832 50.0261 54.8971 50.132C54.711 50.2379 54.5629 50.3996 54.4738 50.5942C52.0079 54.9376 49.5251 59.2709 47.0255 63.5942C46.9003 63.7672 46.8329 63.9753 46.8329 64.1888C46.8329 64.4023 46.9003 64.6104 47.0255 64.7834C49.5067 68.97 51.9718 73.1681 54.4208 77.3778C54.5197 77.5913 54.6828 77.7686 54.8872 77.8851C55.0917 78.0016 55.3274 78.0514 55.5615 78.0277C59.7097 78.0069 63.8717 78.0277 68.0291 78.0277C68.8265 78.0277 69.6238 78.0069 70.4212 78.0277C70.6174 78.058 70.8182 78.0221 70.9917 77.9257C71.1653 77.8293 71.3019 77.6779 71.3799 77.4953C71.7371 76.8039 72.1519 76.1471 72.5437 75.4788C74.6685 71.8576 76.794 68.2387 78.9204 64.6221C79.0386 64.4662 79.105 64.2771 79.1099 64.0815C79.1149 63.8859 79.0583 63.6937 78.948 63.532C76.3992 59.1902 73.8642 54.84 71.343 50.4813C71.268 50.3238 71.1459 50.1934 70.9935 50.1084C70.8412 50.0233 70.6661 49.9877 70.4926 50.0066C67.9807 50.0135 65.4618 50.0043 62.9453 50.0043H62.9407Z" fill="white"/>
<path d="M62.9546 42.1847C59.4977 42.1847 56.0271 42.1847 52.5634 42.1962C52.3597 42.2168 52.1546 42.1735 51.9767 42.0723C51.7987 41.9712 51.6566 41.8171 51.5701 41.6316C48.1148 35.6536 44.6434 29.6863 41.1559 23.7298C41.0426 23.5728 40.9817 23.3841 40.9817 23.1905C40.9817 22.997 41.0426 22.8083 41.1559 22.6513C44.6388 16.641 48.1072 10.6231 51.5609 4.59742C51.6512 4.40302 51.7998 4.24155 51.9861 4.13542C52.1723 4.02929 52.387 3.98376 52.6002 4.00516C59.5139 4.02052 66.4206 4.02052 73.3204 4.00516C73.5338 3.98464 73.7484 4.03108 73.9342 4.13804C74.12 4.245 74.268 4.40717 74.3574 4.60203C77.8004 10.6092 81.2573 16.6087 84.7279 22.6006C84.8533 22.7739 84.9208 22.9824 84.9208 23.1963C84.9208 23.4102 84.8533 23.6187 84.7279 23.792C81.2649 29.7147 77.8143 35.6459 74.3759 41.5855C74.2796 41.7886 74.1225 41.9568 73.9263 42.0666C73.7302 42.1765 73.5047 42.2225 73.2812 42.1985C69.8405 42.1731 66.3976 42.1847 62.9546 42.1847ZM62.9546 9.02216C60.4772 9.02216 57.9998 9.03599 55.5247 9.01064C55.3117 8.98674 55.0966 9.03095 54.9102 9.13695C54.7239 9.24295 54.576 9.40527 54.4877 9.60061C52.0218 13.9455 49.539 18.2788 47.0394 22.6006C46.9142 22.7736 46.8468 22.9816 46.8468 23.1952C46.8468 23.4087 46.9142 23.6168 47.0394 23.7897C49.5206 27.9779 51.9857 32.1752 54.4347 36.3818C54.5341 36.5951 54.6972 36.7723 54.9014 36.8891C55.1057 37.0059 55.3412 37.0565 55.5754 37.034C59.7236 37.0109 63.8856 37.0225 68.043 37.0225C68.8404 37.0225 69.6377 37.0017 70.4351 37.0225C70.63 37.0512 70.8289 37.0151 71.0013 36.9198C71.1737 36.8244 71.31 36.6751 71.3892 36.4947C71.7464 35.8034 72.1612 35.1466 72.5415 34.4759C74.6862 30.8624 76.8187 27.2466 78.9389 23.6284C79.057 23.472 79.1232 23.2826 79.1282 23.0867C79.1332 22.8908 79.0766 22.6982 78.9665 22.5361C76.4177 18.1958 73.8827 13.8456 71.3615 9.48538C71.2844 9.33039 71.1614 9.20295 71.0092 9.12047C70.857 9.03798 70.6831 9.00446 70.5112 9.02447C67.9946 9.02908 65.4757 9.02216 62.9592 9.02216H62.9546Z" fill="white"/>
</svg>
