<svg width="128" height="128" viewBox="0 0 128 128" fill="none" xmlns="http://www.w3.org/2000/svg">
<path d="M62.795 74.486C62.634 74.442 60.1566 73.8031 57.524 73.8031C52.5395 73.8031 49.5386 76.4946 49.5386 80.5026C49.5386 84.0505 52.0491 85.8199 55.062 86.7717C55.396 86.8819 55.8882 87.036 56.2159 87.1445C57.5571 87.5665 58.6276 88.1934 58.6276 89.2793C58.6276 90.4937 57.3903 91.2799 54.7006 91.2799C52.3369 91.2799 50.0707 90.6039 49.5934 90.4834V95.4148C49.8595 95.4713 52.5527 96 55.4297 96C59.568 96 64.3017 94.1918 64.3017 88.8088C64.3017 86.1979 62.7031 83.7942 59.1934 82.6785L57.7015 82.2035C56.8114 81.9226 55.2224 81.4676 55.2224 80.1629C55.2224 79.1324 56.3997 78.4067 58.5676 78.4067C60.4381 78.4067 62.7145 79.0353 62.795 79.0604V74.486ZM108.495 84.9018C108.495 88.0198 106.106 90.5423 102.901 90.5423C99.6933 90.5423 97.3113 88.0198 97.3113 84.9018C97.3113 81.7901 99.6933 79.2665 102.901 79.2665C106.106 79.2665 108.495 81.7901 108.495 84.9018ZM102.901 73.81C96.3104 73.81 91.5835 78.7812 91.5835 84.9018C91.5835 91.0321 96.3104 96 102.901 96C109.492 96 114.226 91.0321 114.226 84.9018C114.226 78.7812 109.492 73.81 102.901 73.81ZM42.287 95.6186H36.8789V74.1896H42.287" fill="#049FD9"/>
<path d="M29.4457 74.5779C28.9376 74.4272 27.0592 73.81 24.515 73.81C17.9342 73.81 13.1034 78.5021 13.1034 84.9019C13.1034 91.8064 18.4361 96 24.515 96C26.9301 96 28.7737 95.4279 29.4457 95.2372V89.4849C29.2134 89.6139 27.4457 90.6222 24.9027 90.6222C21.3 90.6222 18.9762 88.0866 18.9762 84.9019C18.9762 81.62 21.4005 79.1861 24.9027 79.1861C27.4891 79.1861 29.2282 80.2166 29.4457 80.3303" fill="#049FD9"/>
<path d="M85.8898 74.5779C85.3817 74.4272 83.5033 73.81 80.9591 73.81C74.3783 73.81 69.5475 78.5021 69.5475 84.9019C69.5475 91.8064 74.8802 96 80.9591 96C83.3742 96 85.2178 95.4279 85.8898 95.2372V89.4849C85.6575 89.6139 83.8898 90.6222 81.3468 90.6222C77.7441 90.6222 75.4203 88.0866 75.4203 84.9019C75.4203 81.62 77.8446 79.1861 81.3468 79.1861C83.9332 79.1861 85.6723 80.2166 85.8898 80.3303" fill="#049FD9"/>
<path d="M90.4627 33.6749C90.4627 32.1979 91.6691 31 93.1479 31C94.6261 31 95.8325 32.1979 95.8325 33.6749V62.1311C95.8325 63.6167 94.6261 64.814 93.1479 64.814C91.6691 64.814 90.4627 63.6167 90.4627 62.1311V33.6749ZM105.21 43.7762C105.21 42.2997 106.416 41.1001 107.894 41.1001C109.373 41.1001 110.579 42.2997 110.579 43.7762V56.7853C110.579 58.2704 109.373 59.4682 107.894 59.4682C106.416 59.4682 105.21 58.2704 105.21 56.7853V43.7762ZM119.956 51.1597C119.956 49.6827 121.162 48.4854 122.641 48.4854C124.118 48.4854 125.326 49.6827 125.326 51.1597V56.7853C125.326 58.2704 124.118 59.4682 122.641 59.4682C121.162 59.4682 119.956 58.2704 119.956 56.7853" fill="#049FD9"/>
<path d="M95.8325 33.6749C95.8325 32.1979 94.6261 31 93.1473 31C91.6691 31 90.4627 32.1979 90.4627 33.6749V62.1311C90.4627 63.6167 91.6691 64.814 93.1473 64.814C94.6261 64.814 95.8325 63.6167 95.8325 62.1311V33.6749ZM81.0854 43.7762C81.0854 42.2997 79.8795 41.1001 78.4008 41.1001C76.922 41.1001 75.7161 42.2997 75.7161 43.7762V56.7853C75.7161 58.2704 76.922 59.4682 78.4008 59.4682C79.8795 59.4682 81.0854 58.2704 81.0854 56.7853V43.7762ZM66.3388 51.1597C66.3388 49.6827 65.133 48.4854 63.6542 48.4854C62.1772 48.4854 60.9696 49.6827 60.9696 51.1597V56.7853C60.9696 58.2704 62.1772 59.4682 63.6542 59.4682C65.133 59.4682 66.3388 58.2704 66.3388 56.7853" fill="#049FD9"/>
<path d="M36.8629 33.6749C36.8629 32.1979 35.6565 31 34.1777 31C32.6995 31 31.4931 32.1979 31.4931 33.6749V62.1311C31.4931 63.6167 32.6995 64.814 34.1777 64.814C35.6565 64.814 36.8629 63.6167 36.8629 62.1311V33.6749ZM22.1158 43.7762C22.1158 42.2997 20.9099 41.1001 19.4312 41.1001C17.9524 41.1001 16.7465 42.2997 16.7465 43.7762V56.7853C16.7465 58.2704 17.9524 59.4682 19.4312 59.4682C20.9099 59.4682 22.1158 58.2704 22.1158 56.7853V43.7762ZM7.36923 51.1597C7.36923 49.6827 6.16338 48.4854 4.68462 48.4854C3.20756 48.4854 2 49.6827 2 51.1597V56.7853C2 58.2704 3.20756 59.4682 4.68462 59.4682C6.16338 59.4682 7.36923 58.2704 7.36923 56.7853" fill="#049FD9"/>
<path d="M31.4933 33.6749C31.4933 32.1979 32.6997 31 34.1785 31C35.6567 31 36.8631 32.1979 36.8631 33.6749V62.1311C36.8631 63.6167 35.6567 64.814 34.1785 64.814C32.6997 64.814 31.4933 63.6167 31.4933 62.1311V33.6749ZM46.2404 43.7762C46.2404 42.2997 47.4463 41.1001 48.925 41.1001C50.4038 41.1001 51.6097 42.2997 51.6097 43.7762V56.7853C51.6097 58.2704 50.4038 59.4682 48.925 59.4682C47.4463 59.4682 46.2404 58.2704 46.2404 56.7853V43.7762ZM60.987 51.1597C60.987 49.6827 62.1928 48.4854 63.6716 48.4854C65.1486 48.4854 66.3562 49.6827 66.3562 51.1597V56.7853C66.3562 58.2704 65.1486 59.4682 63.6716 59.4682C62.1928 59.4682 60.987 58.2704 60.987 56.7853" fill="#049FD9"/>
</svg>
