<svg width="128" height="128" viewBox="0 0 128 128" fill="none" xmlns="http://www.w3.org/2000/svg">
<path d="M24.498 73.8164C26.1747 73.8195 27.8413 74.0772 29.4404 74.5811V80.335C28.0471 79.5719 26.4821 79.1766 24.8936 79.1865C21.394 79.1865 18.9698 81.6226 18.9697 84.9033C18.9697 88.0876 21.2904 90.6221 24.8936 90.6221C26.4802 90.6275 28.043 90.2368 29.4404 89.4854V95.2373C27.8386 95.7292 26.1737 95.9862 24.498 96C18.4261 95.9999 13.0957 91.8061 13.0957 84.9033C13.0958 78.5043 17.9249 73.8165 24.498 73.8164ZM80.9336 73.8164C82.6058 73.8181 84.2683 74.0758 85.8623 74.5811V80.335C84.4686 79.5727 82.903 79.1775 81.3145 79.1865C77.8269 79.1867 75.3956 81.6228 75.3955 84.9033C75.3955 88.0875 77.721 90.6218 81.3145 90.6221C82.9013 90.6297 84.4657 90.2389 85.8623 89.4854V95.2373C84.2649 95.7277 82.6045 95.9847 80.9336 96C74.8569 96 69.5264 91.8061 69.5264 84.9033C69.5265 78.5043 74.3487 73.8164 80.9336 73.8164ZM102.876 73.8164C109.473 73.8164 114.191 78.7843 114.191 84.9033C114.191 91.0224 109.461 96 102.876 96C96.291 95.9999 91.5605 91.0318 91.5605 84.9033C91.5607 78.775 96.2794 73.8165 102.876 73.8164ZM57.5098 73.8066C59.2882 73.8309 61.0582 74.06 62.7842 74.4893L62.7812 79.0625C62.6958 79.0405 60.4263 78.4131 58.5449 78.4131C56.3706 78.4132 55.1964 79.1353 55.1963 80.166C55.1963 81.4722 56.785 81.9238 57.6699 82.2109L59.167 82.6816C62.6804 83.7972 64.2782 86.2122 64.2783 88.8008C64.2783 94.1856 59.5478 95.9932 55.4033 95.9932C53.444 95.9768 51.4899 95.7807 49.5664 95.4072V90.4863C50.0489 90.604 52.3182 91.2793 54.6787 91.2793C57.3612 91.2792 58.6043 90.4958 58.6045 89.2793C58.6045 88.1921 57.5335 87.5701 56.1875 87.1465C55.8651 87.0359 55.368 86.8858 55.0361 86.7705C52.0191 85.8291 49.508 84.0543 49.5078 80.5078C49.5078 76.5069 52.5133 73.8066 57.5098 73.8066ZM42.2764 95.6182H36.8682V74.1943H42.2764V95.6182ZM102.876 79.2695C101.444 79.3622 100.101 79.9962 99.1201 81.043C98.1387 82.0899 97.5918 83.4713 97.5918 84.9062C97.5919 86.3411 98.1388 87.7218 99.1201 88.7686C100.101 89.8154 101.444 90.4504 102.876 90.543C106.074 90.543 108.459 88.0174 108.459 84.8945C108.459 81.7714 106.065 79.2695 102.876 79.2695ZM34.168 31C34.8807 31 35.5644 31.2832 36.0684 31.7871C36.5723 32.2911 36.8564 32.9747 36.8564 33.6875V62.1396C36.8563 62.8523 36.5723 63.5361 36.0684 64.04C35.5644 64.5438 34.8806 64.8271 34.168 64.8271C33.4553 64.8271 32.7715 64.544 32.2676 64.04C31.7636 63.5361 31.4806 62.8523 31.4805 62.1396V33.6875C31.4805 32.9748 31.7636 32.2911 32.2676 31.7871C32.7715 31.2831 33.4553 31.0001 34.168 31ZM93.1436 31.0107C93.8532 31.0107 94.5343 31.2921 95.0361 31.7939C95.5379 32.2958 95.8193 32.9768 95.8193 33.6865V62.1377C95.8193 62.8474 95.538 63.5284 95.0361 64.0303C94.5343 64.5321 93.8532 64.8135 93.1436 64.8135C92.4341 64.8134 91.7537 64.5318 91.252 64.0303C90.7501 63.5284 90.4678 62.8474 90.4678 62.1377V33.6865C90.4678 32.9768 90.7501 32.2958 91.252 31.7939C91.7537 31.2923 92.4341 31.0108 93.1436 31.0107ZM48.9082 41.1797C49.606 41.1797 50.2767 41.4524 50.7773 41.9385C51.2778 42.4244 51.5691 43.086 51.5898 43.7832V56.791C51.6005 57.1499 51.5392 57.5081 51.4092 57.8428C51.2793 58.177 51.0837 58.4819 50.834 58.7393C50.5839 58.9969 50.2838 59.202 49.9531 59.3418C49.6225 59.4816 49.2671 59.5537 48.9082 59.5537C48.5493 59.5537 48.1939 59.4816 47.8633 59.3418C47.5327 59.202 47.2334 58.9968 46.9834 58.7393C46.7335 58.4818 46.5372 58.1772 46.4072 57.8428C46.2772 57.5081 46.2159 57.1499 46.2266 56.791V43.7832C46.2473 43.0859 46.5395 42.4245 47.04 41.9385C47.5406 41.4525 48.2105 41.1798 48.9082 41.1797ZM122.614 48.5664C123.311 48.5664 123.981 48.838 124.48 49.3232C124.98 49.8084 125.271 50.469 125.292 51.165V56.793C125.303 57.1511 125.241 57.5078 125.111 57.8418C124.982 58.1758 124.786 58.4802 124.536 58.7373C124.287 58.9944 123.988 59.1993 123.658 59.3389C123.328 59.4785 122.973 59.5498 122.614 59.5498C122.256 59.5498 121.901 59.4784 121.571 59.3389C121.241 59.1993 120.942 58.9945 120.692 58.7373C120.443 58.4803 120.248 58.1756 120.118 57.8418C119.988 57.5078 119.927 57.1511 119.938 56.793V51.165C119.958 50.4689 120.249 49.8084 120.749 49.3232C121.249 48.8381 121.918 48.5665 122.614 48.5664ZM78.3975 41.1846C79.094 41.1846 79.7639 41.4562 80.2637 41.9414C80.7634 42.4266 81.0546 43.088 81.0752 43.7842V56.792C81.0858 57.1501 81.0242 57.5069 80.8945 57.8408C80.7648 58.1749 80.5689 58.4792 80.3193 58.7363C80.0697 58.9934 79.7714 59.1983 79.4414 59.3379C79.1113 59.4775 78.7559 59.5488 78.3975 59.5488C78.0392 59.5488 77.6845 59.4774 77.3545 59.3379C77.0245 59.1983 76.7262 58.9934 76.4766 58.7363C76.227 58.4792 76.0311 58.1748 75.9014 57.8408C75.7717 57.5069 75.7101 57.1501 75.7207 56.792V43.7842C75.7413 43.0879 76.0324 42.4266 76.5322 41.9414C77.0319 41.4563 77.701 41.1847 78.3975 41.1846ZM19.4258 41.1006C20.1373 41.1006 20.8201 41.3836 21.3232 41.8867C21.8264 42.3899 22.1094 43.0726 22.1094 43.7842V56.792C22.1093 57.1441 22.04 57.493 21.9053 57.8184C21.7705 58.1438 21.5723 58.4394 21.3232 58.6885C21.0741 58.9376 20.7786 59.1357 20.4531 59.2705C20.1276 59.4053 19.7781 59.4746 19.4258 59.4746C19.0736 59.4746 18.7248 59.4053 18.3994 59.2705C18.0739 59.1357 17.7784 58.9376 17.5293 58.6885C17.2802 58.4393 17.0821 58.1439 16.9473 57.8184C16.8125 57.493 16.7432 57.1442 16.7432 56.792V43.7842C16.7432 43.0726 17.0261 42.3899 17.5293 41.8867C18.0324 41.3837 18.7144 41.1007 19.4258 41.1006ZM4.68262 48.4805C5.39418 48.4805 6.07692 48.7634 6.58008 49.2666C7.08307 49.7696 7.36608 50.4517 7.36621 51.1631V56.791C7.36615 57.5024 7.08305 58.1844 6.58008 58.6875C6.07692 59.1907 5.39418 59.4736 4.68262 59.4736C3.97118 59.4735 3.2892 59.1906 2.78613 58.6875C2.28308 58.1844 2.00006 57.5025 2 56.791V51.1631C2.00013 50.4517 2.28309 49.7696 2.78613 49.2666C3.2892 48.7636 3.9712 48.4806 4.68262 48.4805ZM63.6494 48.4893C64.3589 48.4893 65.0393 48.7709 65.541 49.2725C66.0428 49.7743 66.3252 50.4553 66.3252 51.165V56.792C66.3252 57.5017 66.0428 58.1827 65.541 58.6846C65.0393 59.1862 64.3589 59.4677 63.6494 59.4678C62.9397 59.4678 62.2587 59.1864 61.7568 58.6846C61.255 58.1827 60.9736 57.5017 60.9736 56.792V51.165C60.9736 50.4553 61.255 49.7743 61.7568 49.2725C62.2587 48.7707 62.9398 48.4893 63.6494 48.4893ZM107.879 41.1777C108.578 41.1778 109.25 41.4497 109.751 41.9365C110.253 42.4235 110.545 43.0874 110.565 43.7861V56.7939C110.545 57.4925 110.252 58.1557 109.751 58.6426C109.249 59.1294 108.578 59.4013 107.879 59.4014C107.18 59.4014 106.508 59.1294 106.007 58.6426C105.505 58.1557 105.213 57.4926 105.192 56.7939V43.7861C105.213 43.0874 105.505 42.4235 106.007 41.9365C106.508 41.4498 107.18 41.1777 107.879 41.1777Z" fill="#1D1D1B"/>
</svg>
