<svg width="128" height="128" viewBox="0 0 128 128" fill="none" xmlns="http://www.w3.org/2000/svg">
<path d="M31.0658 62.75C31.5592 62.75 32.0198 62.6513 32.4803 62.4539C32.9079 62.2566 33.3027 61.9276 33.5987 61.5329L34.9474 62.9145C33.8948 64.0987 32.6777 64.6908 31.2303 64.6908C30.5724 64.7237 29.9474 64.625 29.3224 64.3618C28.7303 64.1316 28.1711 63.7697 27.6777 63.3421C27.2171 62.9145 26.8553 62.3552 26.625 61.796C26.3948 61.2039 26.2632 60.5789 26.2961 59.9539C26.2632 59.3289 26.3948 58.671 26.625 58.0789C26.8553 57.4868 27.2171 56.9605 27.6777 56.5C28.1711 56.0395 28.7632 55.6776 29.3882 55.4474C30.0132 55.2171 30.704 55.1184 31.3948 55.1513C32.0856 55.1842 32.7434 55.3487 33.3684 55.6447C33.9934 55.9408 34.5198 56.3684 34.9803 56.8947L33.6974 58.375C33.4013 57.9803 33.0395 57.6842 32.6119 57.4868C32.1842 57.2895 31.7237 57.1579 31.2303 57.1579C30.5066 57.1579 29.7829 57.421 29.2237 57.9145C28.9277 58.1776 28.7303 58.5066 28.5658 58.8684C28.4342 59.2303 28.3684 59.625 28.3684 59.9868C28.3356 60.3816 28.4013 60.7434 28.5329 61.1053C28.6645 61.4671 28.8619 61.796 29.1579 62.0592C29.6842 62.4868 30.375 62.75 31.0658 62.75ZM36.5263 64.5592V55.2829H38.5987V62.7171H42.579V64.5592H36.5263ZM51.6579 63.2763C50.704 64.1645 49.4869 64.6579 48.1711 64.6579C46.8553 64.6579 45.6382 64.1645 44.6842 63.2763C44.2237 62.8487 43.8619 62.3224 43.6316 61.7302C43.4013 61.1381 43.2698 60.5131 43.2698 59.8881C43.2369 59.2631 43.3684 58.6053 43.5987 58.046C43.829 57.4539 44.1908 56.9276 44.6513 56.5C45.6053 55.6118 46.8224 55.1184 48.1382 55.1184C49.454 55.1184 50.6711 55.6118 51.625 56.5C52.0855 56.9276 52.4474 57.4539 52.6777 58.046C52.9079 58.6381 53.0395 59.2631 53.0066 59.8881C53.0395 60.5131 52.9079 61.171 52.6777 61.7302C52.4803 62.3224 52.1184 62.8487 51.6579 63.2763ZM50.9342 59.8881C50.9342 59.0987 50.6382 58.3421 50.1119 57.75C49.8487 57.4868 49.5527 57.2566 49.2237 57.0921C48.8948 56.9276 48.5 56.8618 48.1382 56.8618C47.7763 56.8618 47.4145 56.9276 47.0527 57.0921C46.7237 57.2566 46.3948 57.4539 46.1645 57.75C45.6382 58.3421 45.3421 59.0987 45.3421 59.8881C45.3421 60.6776 45.6382 61.4342 46.1645 62.0263C46.4277 62.2895 46.7237 62.5197 47.0527 62.6842C47.3816 62.8487 47.7763 62.9145 48.1382 62.9145C48.5 62.9145 48.8619 62.8487 49.2237 62.6842C49.5527 62.5197 49.8816 62.3224 50.1119 62.0263C50.375 61.7303 50.6053 61.4013 50.7369 61.0395C50.9013 60.6447 50.9671 60.2829 50.9342 59.8881ZM57.2829 62.1908C57.4474 62.421 57.6777 62.5855 57.9079 62.6842C58.1382 62.7829 58.4342 62.8487 58.6974 62.8487C58.9605 62.8487 59.2237 62.8158 59.454 62.6842C59.6842 62.5855 59.9145 62.3881 60.0461 62.1908C60.4079 61.6645 60.5724 61.0724 60.5395 60.4474V55.3158H62.6119V60.5131C62.6119 61.8618 62.25 62.8816 61.4934 63.6053C61.0987 63.9671 60.6711 64.2631 60.1777 64.4276C59.6842 64.625 59.1579 64.6908 58.6316 64.6908C58.1053 64.6908 57.579 64.625 57.0856 64.4276C56.5921 64.2303 56.1316 63.9671 55.7698 63.6053C55.0132 62.8816 54.6513 61.8618 54.6513 60.5131V55.3158H56.7237V60.4474C56.7237 61.0724 56.9211 61.6974 57.2829 62.1908ZM71.9211 56.5C72.8092 57.3224 73.2698 58.4408 73.2698 59.8881C73.2698 61.3355 72.8421 62.4868 71.9869 63.3421C71.1316 64.1974 69.7829 64.5921 68.0395 64.5921H64.8158V55.2829H68.1053C69.75 55.2829 71.0329 55.6776 71.9211 56.5ZM70.4079 62.0263C70.9013 61.5658 71.1645 60.8421 71.1645 59.921C71.1645 59 70.9013 58.3092 70.4079 57.8158C69.9145 57.3224 69.125 57.0592 68.0724 57.0592H66.9211V62.7171H68.2369C69.0263 62.7829 69.8158 62.5526 70.4079 62.0263ZM85.079 55.2829H87.1513V64.5921H85.079L80.6382 58.7697V64.5921H78.5658V55.2829H80.5066L85.079 61.2697V55.2829ZM96.0658 64.5592L95.1777 62.5526H91.2632L90.375 64.5592H88.1382L92.1513 55.25H94.1579L98.204 64.5592H96.0658ZM93.2698 58.046L92.1184 60.7434H94.4211L93.2698 58.046ZM102.645 57.0921V64.5921H100.572V57.0921H97.9408V55.3158H105.309V57.0921H102.645ZM106.757 55.2829H108.829V64.5921H106.757C106.757 64.5592 106.757 55.2829 106.757 55.2829ZM114.586 61.2039L116.954 55.2829H119.224L115.507 64.5921H113.763L110.046 55.2829H112.316L114.586 61.2039ZM126.987 55.2829V57.125H122.349V59.0329H126.526V60.8092H122.349V62.75H127.151V64.5921H120.309V55.3158L126.987 55.2829ZM28.6645 72.4868C28.9277 72.4868 29.1908 72.421 29.454 72.3224C29.6842 72.1908 29.9145 72.0263 30.079 71.796L30.8356 72.5855C30.5724 72.8816 30.2763 73.1447 29.8816 73.3092C29.5198 73.4737 29.125 73.5724 28.7303 73.5724C28.3684 73.5724 28.0066 73.5395 27.6777 73.4079C27.3487 73.2763 27.0198 73.0789 26.7566 72.8158C26.4934 72.5855 26.2961 72.2895 26.1645 71.9605C26.0329 71.6316 25.9671 71.2697 25.9671 70.9079C25.9671 70.546 26.0329 70.1842 26.1645 69.8553C26.2961 69.5263 26.4934 69.2302 26.7566 68.9671C27.0198 68.7039 27.3158 68.5066 27.6448 68.375C27.9737 68.2434 28.3356 68.1776 28.6974 68.1776C29.0921 68.1776 29.5198 68.2434 29.8816 68.4079C30.2434 68.5724 30.5724 68.8355 30.8684 69.1316L30.1448 69.9539C29.9803 69.7237 29.7829 69.5592 29.5527 69.4276C29.3224 69.296 29.0592 69.2631 28.7632 69.2631C28.3356 69.2631 27.9408 69.4276 27.6448 69.6908C27.4803 69.8224 27.3487 70.0197 27.2829 70.2171C27.2171 70.4145 27.1513 70.6447 27.1842 70.8421C27.1842 71.0395 27.2171 71.2697 27.2829 71.4671C27.3487 71.6645 27.4803 71.8618 27.6119 71.9934C27.7434 72.125 27.9079 72.2566 28.1053 72.3224C28.3027 72.3881 28.4671 72.4868 28.6645 72.4868ZM36 72.7829C35.4737 73.2763 34.7829 73.5724 34.0592 73.5724C33.6974 73.5724 33.3356 73.5066 33.0066 73.375C32.6777 73.2434 32.3816 73.046 32.1184 72.7829C31.625 72.2895 31.329 71.5987 31.329 70.875C31.329 70.1513 31.625 69.4605 32.1184 68.9671C32.6448 68.4737 33.3356 68.1776 34.0592 68.1776C34.4211 68.1776 34.7829 68.2434 35.1119 68.375C35.4408 68.5066 35.7369 68.7039 36 68.9671C36.4934 69.4605 36.7895 70.1513 36.7895 70.875C36.7895 71.5987 36.4934 72.2895 36 72.7829ZM35.6382 70.875C35.6382 70.4474 35.5066 70.0197 35.2106 69.6908C35.079 69.5263 34.9145 69.4276 34.7171 69.3289C34.5198 69.2303 34.3224 69.1974 34.125 69.1974C33.9277 69.1974 33.6974 69.2303 33.5329 69.3289C33.3356 69.4276 33.1711 69.5592 33.0395 69.7237C32.875 69.8881 32.7763 70.0526 32.7106 70.2829C32.6448 70.4802 32.6119 70.7105 32.6119 70.9079C32.6119 71.3355 32.7763 71.7631 33.0395 72.0921C33.1711 72.2566 33.3356 72.3553 33.5329 72.4539C33.7303 72.5526 33.9277 72.5855 34.125 72.5855C34.3224 72.5855 34.5527 72.5526 34.7171 72.4539C34.9145 72.3553 35.079 72.2237 35.2106 72.0592C35.4737 71.7631 35.6382 71.3355 35.6382 70.875ZM42.4474 70.2171L41.0329 73.0789H40.3421L38.9277 70.2171V73.5066H37.7763V68.3092H39.3553L40.704 71.171L42.0527 68.3092H43.6316V73.5395H42.4803L42.4474 70.2171ZM48.5 68.8026C48.6974 68.9671 48.8619 69.1974 48.9606 69.4605C49.0592 69.7237 49.0921 69.9868 49.0592 70.25C49.0592 70.9079 48.8619 71.3684 48.5 71.6645C48.1382 71.9934 47.5461 72.0921 46.7895 72.0921H46.0987V73.5395H44.9145V68.3092H46.7566C47.5461 68.3092 48.1053 68.4737 48.5 68.8026ZM47.6448 70.8421C47.8092 70.6447 47.875 70.4145 47.875 70.1513C47.875 70.0197 47.875 69.921 47.8092 69.7895C47.7434 69.6908 47.6777 69.5921 47.579 69.5263C47.3158 69.3947 47.0198 69.3289 46.7237 69.3289H46.0658V71.0724H46.8553C46.9869 71.0724 47.1513 71.0724 47.2829 71.0395C47.4145 70.9737 47.5461 70.9079 47.6448 70.8421ZM51.3619 72.1579C51.4606 72.2895 51.5592 72.3552 51.7237 72.421C51.8553 72.4868 52.0198 72.5197 52.1513 72.5197C52.3158 72.5197 52.4474 72.4868 52.579 72.421C52.7106 72.3552 52.8421 72.2566 52.9408 72.1579C53.1382 71.8618 53.2369 71.5 53.2369 71.171V68.2763H54.3882V71.171C54.4211 71.5 54.3553 71.796 54.2566 72.125C54.1579 72.421 53.9934 72.7171 53.7632 72.9474C53.3355 73.3421 52.7434 73.5395 52.1513 73.5395C51.5592 73.5395 51 73.3092 50.5724 72.9145C50.3421 72.6842 50.1777 72.3881 50.079 72.0921C49.9803 71.796 49.9145 71.4671 49.9474 71.1381V68.2434H51.0987V71.1381C51.0329 71.5 51.1316 71.8618 51.3619 72.1579ZM57.7763 69.3289V73.5066H56.625V69.3289H55.1448V68.3421H59.2895V69.3289C59.2566 69.3289 57.7763 69.3289 57.7763 69.3289ZM60.1119 68.3092H61.2632V73.5395H60.1119V68.3092ZM66.1974 68.3092H67.3487V73.5395H66.1974L63.7303 70.2829V73.5395H62.579V68.3092H63.6645L66.2303 71.6645L66.1974 68.3092ZM72.0527 70.875H73.204V72.7171C72.9408 73.0131 72.579 73.2434 72.2171 73.375C71.8553 73.5395 71.4277 73.6053 71.0329 73.5724C70.3092 73.5724 69.6184 73.3092 69.0921 72.8158C68.829 72.5855 68.6316 72.2895 68.5 71.9605C68.3684 71.6316 68.3027 71.2697 68.3027 70.9079C68.3027 70.546 68.3684 70.1842 68.5 69.8553C68.6316 69.5263 68.829 69.2302 69.0921 68.9671C69.3553 68.7039 69.6513 68.5066 69.9803 68.375C70.3092 68.2434 70.6711 68.1776 71.0329 68.1776C71.7566 68.1776 72.4474 68.4408 72.9737 68.9342L72.3816 69.8224C72.2171 69.625 71.9869 69.4934 71.7237 69.4276C71.5263 69.3618 71.2961 69.296 71.0987 69.296C70.6711 69.296 70.2763 69.4605 69.9803 69.7237C69.8158 69.8881 69.6842 70.0526 69.6184 70.2829C69.5527 70.5131 69.4869 70.7105 69.5198 70.9408C69.5198 71.3684 69.6513 71.796 69.9474 72.125C70.079 72.2566 70.2434 72.3881 70.4079 72.4539C70.5724 72.5197 70.7698 72.5526 70.9671 72.5526C71.329 72.5855 71.6579 72.4868 71.954 72.3224V70.8421H72.0527V70.875ZM79.7829 68.3092V69.3289H77.3816V70.4474H79.6513V71.5H77.3816V73.5395H76.2303V68.3092C76.1974 68.3092 79.7829 68.3092 79.7829 68.3092ZM85.1777 72.7829C84.6513 73.2763 83.9605 73.5724 83.2369 73.5724C82.875 73.5724 82.5132 73.5066 82.1842 73.375C81.8553 73.2434 81.5592 73.046 81.2961 72.7829C80.8027 72.2895 80.5066 71.5987 80.5066 70.875C80.5066 70.1513 80.8027 69.4605 81.2961 68.9671C81.8224 68.4737 82.5132 68.1776 83.2369 68.1776C83.5987 68.1776 83.9606 68.2434 84.2895 68.375C84.6185 68.5066 84.9145 68.7039 85.1777 68.9671C85.6711 69.4605 85.9671 70.1513 85.9671 70.875C85.9671 71.5987 85.6711 72.2895 85.1777 72.7829ZM84.75 70.875C84.75 70.4474 84.6184 70.0197 84.3224 69.6908C84.1908 69.5263 84.0263 69.4276 83.829 69.3289C83.6316 69.2303 83.4342 69.1974 83.2369 69.1974C83.0395 69.1974 82.8092 69.2303 82.6448 69.3289C82.4474 69.4276 82.2829 69.5592 82.1513 69.7237C81.9869 69.8881 81.8882 70.0526 81.8224 70.2829C81.7566 70.5131 81.7237 70.7105 81.7237 70.9079C81.7237 71.3355 81.8882 71.7631 82.1513 72.0921C82.2829 72.2566 82.4474 72.3553 82.6448 72.4539C82.8421 72.5526 83.0395 72.5855 83.2369 72.5855C83.4342 72.5855 83.6645 72.5526 83.829 72.4539C84.0263 72.3553 84.1908 72.2237 84.3224 72.0592C84.4869 71.8947 84.5855 71.7302 84.6513 71.5C84.7171 71.2697 84.7829 71.1052 84.75 70.875ZM88.3355 72.1579C88.4342 72.2895 88.5329 72.3552 88.6974 72.421C88.829 72.4868 88.9934 72.5197 89.125 72.5197C89.2566 72.5197 89.4211 72.4868 89.5527 72.421C89.6842 72.3552 89.8158 72.2566 89.9145 72.1579C90.1119 71.8618 90.2106 71.5 90.2106 71.171V68.2763H91.3619V71.171C91.3948 71.5 91.329 71.796 91.2303 72.125C91.1316 72.421 90.9671 72.7171 90.7369 72.9474C90.3092 73.3421 89.7171 73.5395 89.125 73.5395C88.5329 73.5395 87.9737 73.3092 87.5461 72.9145C87.3158 72.6842 87.1513 72.3881 87.0527 72.0921C86.954 71.796 86.8882 71.4671 86.9211 71.1381V68.2434H88.0724V71.1381C88.0066 71.5 88.1053 71.8947 88.3355 72.1579ZM96.1974 68.3092H97.3487V73.5395H96.1974L93.7303 70.2829V73.5395H92.579V68.3092H93.6645L96.2303 71.6645L96.1974 68.3092ZM102.612 69C102.875 69.2303 103.072 69.5592 103.204 69.8881C103.336 70.2171 103.401 70.5789 103.368 70.9079C103.401 71.2697 103.336 71.5987 103.204 71.9276C103.072 72.2566 102.875 72.5526 102.645 72.8158C102.184 73.2763 101.428 73.5395 100.408 73.5395H98.6316V68.3092H100.474C101.428 68.3092 102.151 68.5395 102.612 69ZM101.757 72.125C101.888 71.9605 102.02 71.796 102.086 71.5987C102.151 71.4013 102.184 71.171 102.184 70.9737C102.184 70.7434 102.151 70.546 102.086 70.3487C102.02 70.1513 101.888 69.9539 101.757 69.7895C101.559 69.625 101.362 69.5263 101.132 69.4605C100.901 69.3947 100.671 69.3618 100.441 69.3947H99.7829V72.5526H100.539C100.967 72.5197 101.428 72.3881 101.757 72.125ZM107.941 73.5066L107.48 72.3881H105.276L104.816 73.5066H103.566L105.836 68.2763H106.954L109.224 73.5066H107.941ZM106.362 69.8553L105.704 71.3684H107.02L106.362 69.8553ZM111.625 69.3289V73.5066H110.474V69.3289H108.961V68.3421H113.105V69.3289H111.625ZM113.928 68.3092H115.079V73.5395H113.928V68.3092ZM120.77 72.7829C120.243 73.2763 119.553 73.5724 118.829 73.5724C118.467 73.5724 118.105 73.5066 117.776 73.375C117.447 73.2434 117.151 73.046 116.888 72.7829C116.395 72.2895 116.099 71.5987 116.099 70.875C116.099 70.1513 116.395 69.4605 116.888 68.9671C117.414 68.4737 118.105 68.1776 118.829 68.1776C119.191 68.1776 119.553 68.2434 119.882 68.375C120.211 68.5066 120.507 68.7039 120.77 68.9671C121.263 69.4605 121.559 70.1513 121.559 70.875C121.559 71.5987 121.263 72.2895 120.77 72.7829ZM120.408 70.875C120.408 70.4474 120.243 70.0197 119.98 69.6908C119.849 69.5263 119.684 69.4276 119.487 69.3289C119.289 69.2303 119.092 69.1974 118.895 69.1974C118.697 69.1974 118.467 69.2303 118.303 69.3289C118.105 69.4276 117.941 69.5592 117.809 69.7237C117.645 69.8881 117.546 70.0526 117.48 70.2829C117.414 70.5131 117.382 70.7105 117.382 70.9079C117.382 71.3355 117.546 71.7631 117.809 72.0921C117.941 72.2566 118.105 72.3553 118.303 72.4539C118.5 72.5526 118.697 72.5855 118.895 72.5855C119.092 72.5855 119.322 72.5526 119.487 72.4539C119.684 72.3553 119.849 72.2237 119.98 72.0592C120.243 71.7631 120.408 71.3355 120.408 70.875ZM126.197 68.3092H127.349V73.5395H126.197L123.73 70.2829V73.5395H122.546V68.3092H123.632L126.197 71.6645C126.23 71.6645 126.197 68.3092 126.197 68.3092Z" fill="black"/>
<path d="M3.86184 67.3223H1V73.9999H7.67763V71.1381H3.86184V67.3223Z" fill="#0086FF"/>
<path d="M18.2039 67.3552V71.1381H14.3882V73.9999H21.0658V67.3223L18.2039 67.3552Z" fill="#0086FF"/>
<path d="M1 60.6776H3.89474L3.86184 60.6447V56.8618H7.67763V54H1V60.6776Z" fill="#0086FF"/>
<path d="M14.3882 54V56.8618H18.2039V60.6776H21.0658V54C21.0329 54 14.3882 54 14.3882 54Z" fill="#0086FF"/>
<path d="M13.9934 60.6776L10.1776 56.8618H14.3553V54H7.67764V56.8618L11.4934 60.6776H13.9934Z" fill="#93EAFF"/>
<path d="M10.5724 67.3223H8.07238L11.2303 70.4802L11.8553 71.1381H7.67764V73.9999H14.3882V71.1052L12.4803 69.2302L10.5724 67.3223Z" fill="#93EAFF"/>
<path d="M18.2039 60.6777V64.8225L17.546 64.1646L14.3882 61.0067V63.5396L16.2632 65.4146L18.171 67.3225H21.0658V60.6777H18.2039Z" fill="#93EAFF"/>
<path d="M7.67763 64.4606L3.89474 60.6777H1V67.3225H3.86184V63.1777L7.67763 66.9935V64.4606Z" fill="#93EAFF"/>
</svg>
