<svg width="128" height="128" viewBox="0 0 128 128" fill="none" xmlns="http://www.w3.org/2000/svg">
<path d="M24.7402 82.2731H9V119H45.727V103.26H24.7402V82.2731Z" fill="#0086FF"/>
<path d="M103.622 82.454V103.26H82.6349V119H119.362V82.2731L103.622 82.454Z" fill="#0086FF"/>
<path d="M9 45.727H24.9211L24.7402 45.5461V24.7401H45.727V9H9V45.727Z" fill="#0086FF"/>
<path d="M82.6349 9V24.7401H103.622V45.727H119.362V9C119.181 9 82.6349 9 82.6349 9Z" fill="#0086FF"/>
<path d="M80.4641 45.727L59.4772 24.7401H82.4542V9H45.7272V24.7401L66.714 45.727H80.4641Z" fill="#93EAFF"/>
<path d="M61.6482 82.2731H47.8982L65.2667 99.6415L68.7042 103.26H45.7272V119H82.6351V103.079L72.1417 92.7665L61.6482 82.2731Z" fill="#93EAFF"/>
<path d="M103.622 45.7274V68.5235L100.003 64.905L82.6349 47.5366V61.4675L92.9474 71.78L103.441 82.2735H119.362V45.7274H103.622Z" fill="#93EAFF"/>
<path d="M45.727 66.5333L24.9211 45.7274H9V82.2735H24.7402V59.4774L45.727 80.4642V66.5333Z" fill="#93EAFF"/>
</svg>
