<svg width="128" height="128" viewBox="0 0 128 128" fill="none" xmlns="http://www.w3.org/2000/svg">
<path d="M79.8737 73.4961C78.949 74.4539 77.8312 75.2042 76.5944 75.6972C75.3577 76.1902 74.0302 76.4146 72.7002 76.3556C66.3278 76.3556 61.903 71.4254 61.903 65.0161C61.903 58.6069 66.3278 53.6521 72.7002 53.6521C74.0272 53.5914 75.352 53.8115 76.5881 54.2978C77.8242 54.7842 78.9438 55.526 79.8737 56.4746L78.7151 58.0646C77.13 56.4875 74.9855 55.6013 72.7495 55.5995C67.6097 55.5995 64.1216 59.8641 64.1216 65.0161C64.1216 70.1682 67.6713 74.3958 72.7495 74.3958C73.857 74.3969 74.9539 74.1798 75.9775 73.7568C77.0011 73.3338 77.9314 72.7133 78.7151 71.9307L79.8737 73.4961Z" fill="#003B49"/>
<path d="M107.705 75.8503H106.103L91.8667 57.6086V75.8503H89.796V54.1205H91.4722L105.634 72.2266V54.1205H107.705V75.8503Z" fill="#003B49"/>
<path d="M123.925 75.8503H121.854V54.1205H123.925V75.8503Z" fill="#003B49"/>
<path d="M40.2355 49.4863L40.0259 49.3754L25.9131 39.1206L2.23566 56.8693L6.77147 60.1848L26.1966 74.3591L49.8987 56.5488L40.2355 49.4863ZM8.73124 53.5044L21.5006 43.9029L25.0133 46.5159L12.244 56.0928L8.73124 53.5044ZM29.6847 63.562L26.1103 66.2366L13.2424 56.82L25.9871 47.2308L34.3068 53.3072L25.0627 60.2588L29.6847 63.562ZM35.3792 54.0344L38.9289 56.6351L30.6708 62.7978L27.121 60.2095L35.3792 54.0344ZM40.6052 56.8816L40.8394 56.6721H40.9257L36.3652 53.3442L39.8903 50.7065L47.9882 56.6104L35.1573 66.1627L31.6322 63.5867L40.6052 56.8816ZM35.3792 52.5677L22.4373 43.1634L25.9871 40.538L38.855 49.9424L35.3792 52.5677ZM7.76985 54.244L11.3319 56.8323L7.76985 59.4576L4.20775 56.8569L7.76985 54.244ZM12.2564 57.6088L25.1613 66.9762L21.6608 69.6015L8.73124 60.1848L12.2564 57.6088ZM30.6461 64.3632L34.1713 66.9392L26.1843 72.8924L22.6592 70.3287L30.6461 64.3632Z" fill="#00B0AD"/>
<path d="M26.0599 90.9989C25.9261 91.0018 25.7954 90.9582 25.6901 90.8757L2.37009 74.1623C2.25119 74.0661 2.156 73.9437 2.09189 73.8048C2.02778 73.6659 1.99645 73.5141 2.00032 73.3612C1.99729 73.2066 2.02894 73.0533 2.09292 72.9125C2.15691 72.7717 2.25162 72.6471 2.37009 72.5477L14.0301 64.191L14.782 65.7934L4.24358 73.3612L26.0599 89.0022L47.8762 73.3612L37.3501 65.8057L38.102 64.2034L49.762 72.56C49.8805 72.6594 49.9752 72.7841 50.0392 72.9248C50.1031 73.0656 50.1348 73.2189 50.1318 73.3735C50.1356 73.5265 50.1043 73.6782 50.0402 73.8172C49.9761 73.9561 49.8809 74.0784 49.762 74.1747L26.4296 90.888C26.3236 90.9681 26.1924 91.0074 26.0599 90.9989Z" fill="url(#paint0_linear_25_2)"/>
<path d="M26.0611 74.2848C25.9283 74.2815 25.7995 74.2386 25.6913 74.1616L2.37132 57.4482C2.25619 57.3476 2.16391 57.2235 2.10069 57.0842C2.03747 56.945 2.00476 56.7938 2.00476 56.6409C2.00476 56.488 2.03747 56.3368 2.10069 56.1976C2.16391 56.0583 2.25619 55.9342 2.37132 55.8336L25.7037 39.1203C25.8111 39.0421 25.9406 39 26.0734 39C26.2063 39 26.3358 39.0421 26.4432 39.1203L49.7632 55.8459C49.8821 55.9442 49.9778 56.0676 50.0434 56.2071C50.1091 56.3467 50.1432 56.499 50.1432 56.6532C50.1432 56.8075 50.1091 56.9598 50.0434 57.0994C49.9778 57.2389 49.8821 57.3622 49.7632 57.4606L26.4309 74.1616C26.3266 74.246 26.1952 74.2898 26.0611 74.2848ZM4.24481 56.6471L26.0611 72.3004L47.8897 56.6471L26.0611 41.0061L4.24481 56.6471Z" fill="url(#paint1_linear_25_2)"/>
<path d="M3.49158 56.6598H2.00018V73.3731H3.49158V56.6598Z" fill="url(#paint2_linear_25_2)"/>
<defs>
<linearGradient id="paint0_linear_25_2" x1="29.123" y1="107.324" x2="29.123" y2="56.0989" gradientUnits="userSpaceOnUse">
<stop stop-color="#D1E1D7"/>
<stop offset="1" stop-color="#00B0AD"/>
</linearGradient>
<linearGradient id="paint1_linear_25_2" x1="220781" y1="-111276" x2="220781" y2="-94981.9" gradientUnits="userSpaceOnUse">
<stop stop-color="#D1E1D7"/>
<stop offset="1" stop-color="#00B0AD"/>
</linearGradient>
<linearGradient id="paint2_linear_25_2" x1="107.561" y1="4501.11" x2="107.561" y2="3806.5" gradientUnits="userSpaceOnUse">
<stop stop-color="#D1E1D7"/>
<stop offset="1" stop-color="#00B0AD"/>
</linearGradient>
</defs>
</svg>
