<svg width="128" height="128" viewBox="0 0 128 128" fill="none" xmlns="http://www.w3.org/2000/svg">
<path d="M90.5268 24.5286C94.1628 22.0076 96.7793 18.2745 97.9062 14C98.5903 16.9658 98.5645 20.0508 97.8309 23.0048C96.8984 25.4349 95.4601 27.6267 94.3439 29.9726C100.161 25.1068 106.564 20.9863 113.405 17.7073C111.39 23.9194 105.791 27.6766 101.677 32.4442C102.472 34.1519 102.848 36.5731 105.022 37.0741C108.396 38.1654 111.991 38.3879 115.474 37.7212C119.287 36.4146 121.098 32.4695 123 29.2254V35.3583C122.332 37.8363 121.52 40.2731 120.567 42.6562C121.403 44.9398 122.277 47.2149 123 49.5319V53.5063C122.105 55.0427 121.152 56.5372 120.228 58.053C118.991 56.2221 117.486 54.5869 115.763 53.2017C113.259 52.4292 110.609 52.2505 108.024 52.6798C109.126 54.4029 110.608 55.8517 112.356 56.9153C114.105 57.979 116.074 58.6293 118.113 58.8167C116.611 60.3615 115.34 62.6242 112.97 62.8624C106.109 63.8933 99.5617 60.7539 92.7384 60.7748C91.5592 60.8585 89.7825 60.875 89.4565 62.3281C89.4565 65.3963 90.3636 68.3937 90.2507 71.4624C90.0041 76.7145 88.1101 81.7577 88.0392 87.0178C88.5809 91.9468 89.7585 96.7852 91.5427 101.413C89.3561 101.091 87.1776 100.72 85.012 100.327C84.5941 101.196 84.2427 102.081 83.9251 102.974C85.1918 104.916 86.8061 106.607 88.6872 107.963C88.3478 108.669 88.0118 109.375 87.6793 110.084L85.2836 110.66C84.7359 111.694 84.1785 112.722 83.6112 113.745C80.5726 113.055 77.4086 113.142 74.4131 114C72.4723 113.224 70.5366 112.434 68.6061 111.633C69.8125 108.556 70.3909 105.271 70.3075 101.968C69.1283 97.8684 63.618 97.8599 61.9456 94.1317C59.5631 90.5753 58.0955 86.4872 57.6727 82.2293C54.2317 80.4217 51.5893 77.1317 47.6385 76.3845C47.4378 78.0923 47.2915 79.8081 46.9989 81.507C45.9246 85.246 43.9952 88.6847 41.3628 91.552C41.526 93.3137 41.6928 95.0669 41.8645 96.833C43.3102 98.182 44.7498 99.5374 46.1833 100.899C44.2808 102.052 42.2869 103.048 40.2216 103.876C37.882 104.162 35.524 104.269 33.1681 104.197C32.0893 103.137 31.0025 102.077 29.9197 101.008C31.0677 97.4894 31.2326 93.7249 30.3964 90.1199C31.1113 88.4499 31.7593 86.7297 32.3823 85.0223C28.3466 86.4608 23.9914 86.7583 19.7971 85.8822C16.0356 84.4632 12.7504 82.015 10.3178 78.8179C7.88518 75.6209 6.40353 71.8044 6.04254 67.8055C5.85465 65.2269 6.29106 62.641 7.31489 60.2663C8.33873 57.8915 9.91991 55.7978 11.9249 54.1618C10.8395 57.6928 10.4978 61.4099 10.9214 65.0792C11.3821 67.6646 12.635 70.0434 14.5072 71.8874C16.3795 73.7314 18.7788 74.9497 21.374 75.3741C24.3153 75.3317 27.1739 74.3953 29.5687 72.6897C28.4351 66.9103 28.9612 60.9286 31.0863 55.435C32.6739 52.644 34.8274 50.2147 37.4092 48.3025C39.9909 46.3903 42.9439 45.0373 46.0794 44.3301C49.4878 43.0648 52.4235 40.7821 54.4872 37.7924C56.437 35.7432 58.5776 33.8839 60.8802 32.2398C59.9267 31.3255 58.9861 30.4028 58.0371 29.4886C59.5924 28.9568 60.9721 28.01 62.0268 26.7509C63.0814 25.4917 63.7707 23.9682 64.0198 22.3457C69.3883 21.093 74.6856 19.5856 79.9912 18.1245C81.7693 19.3626 83.7827 20.2237 85.907 20.6544C87.2324 22.099 87.9727 25.4847 90.5063 24.5286M74.7146 80.3131C74.8903 83.5194 74.5139 87.264 77.5326 89.3098C77.5326 86.1579 77.3404 83.0184 77.1147 79.8749L74.7146 80.3131Z" fill="#005CA5"/>
</svg>
