<svg width="128" height="128" viewBox="0 0 128 128" fill="none" xmlns="http://www.w3.org/2000/svg">
<path d="M89.1547 84.4084C94.2485 84.5289 96.275 87.2958 95.6957 92.2639C95.3496 95.2385 93.0603 96.7031 90.2524 97.0012L38.4477 96.9807C30.8675 96.5253 31.3286 84.234 39.0365 84.4709V84.4729L89.1547 84.4084ZM23.6479 50.0578C28.0368 50.0245 29.7548 52.4304 30.0121 56.5491C30.7359 68.1776 29.6213 80.7615 29.7953 92.4475C28.8512 97.8026 21.9472 98.178 18.519 94.883C15.5332 92.0138 14.4611 85.3668 14.2611 81.3703C13.9539 75.26 13.8743 66.8803 14.2611 60.8088C14.6277 55.0501 17.2524 50.106 23.6479 50.0578ZM105.096 50.0578C111.419 49.9636 114.224 54.9498 114.605 60.6233C115.012 66.6873 114.89 75.0652 114.605 81.1867C114.399 85.6367 113.267 93.3614 109.102 95.8606C105.479 98.0356 99.8573 97.1566 99.0649 92.4514C99.2129 80.7933 98.1764 68.3408 98.852 56.7346C99.0926 52.5937 100.626 50.1245 105.094 50.0578H105.096ZM90.6039 68.8909C97.5027 69.2095 97.6302 80.7283 90.809 81.2688L37.8901 81.2502C31.3171 80.541 31.4079 69.3737 38.1068 68.9201L90.6039 68.8909ZM38.6049 31.2815C55.6626 30.3856 73.498 31.9775 90.6371 31.2815C92.9046 31.5499 95.2072 31.85 97.3266 32.7366C103.082 35.1448 105.457 41.0614 105.161 47.0256H105.159C101.122 46.7554 97.1955 48.8559 96.1791 52.9465C95.5609 55.4325 96.0438 58.0042 95.1664 60.4494C93.841 64.1386 90.8123 65.3641 87.1176 65.7287H41.7514C37.9735 65.3678 34.8216 64.0311 33.6147 60.1682C32.9834 58.1505 33.2626 56.0771 32.9164 54.0168C32.1001 49.1541 28.5092 46.8388 23.7113 47.0256C23.5262 41.7056 25.3159 36.1022 30.1879 33.4162C32.6591 32.052 35.8005 31.4296 38.6049 31.2815Z" fill="#E32428"/>
</svg>
