<svg width="128" height="128" viewBox="0 0 128 128" fill="none" xmlns="http://www.w3.org/2000/svg">
<path d="M113.667 40.9294C113.703 39.191 113.282 37.4736 112.446 35.9489C111.581 34.4775 110.336 33.266 108.841 32.4412C95.5794 24.7992 82.311 17.154 69.0361 9.50555C67.447 8.50411 65.6032 7.98159 63.725 8.0005C61.8468 8.0194 60.0138 8.57892 58.4452 9.61214C53.1643 12.7322 26.7308 27.8773 18.8531 32.4412C17.3285 33.2567 16.0651 34.4859 15.2081 35.9875C14.351 37.489 13.9351 39.202 14.0082 40.9294C14.0082 56.3103 14.0082 71.6911 14.0082 87.072C13.9782 88.7607 14.3819 90.4288 15.1807 91.9169C16.0432 93.4318 17.3074 94.6792 18.8337 95.5215C26.7114 100.085 53.1547 115.23 58.4355 118.351C60.0041 119.384 61.8371 119.943 63.7153 119.962C65.5935 119.981 67.4373 119.459 69.0264 118.457C82.2884 110.789 95.56 103.144 108.841 95.5215C110.368 94.6792 111.632 93.4318 112.494 91.9169C113.285 90.4259 113.685 88.7592 113.657 87.072V40.9294" fill="#5C8DBC"/>
<path d="M63.9973 63.854L15.1902 91.9543C16.0528 93.4692 17.3169 94.7166 18.8433 95.5589C26.721 100.123 53.1642 115.268 58.4451 118.388C60.0137 119.421 61.8467 119.981 63.7249 120C65.6031 120.018 67.4469 119.496 69.036 118.495C82.298 110.827 95.5696 103.181 108.851 95.5589C110.377 94.7166 111.641 93.4692 112.504 91.9543L63.9973 63.854Z" fill="#1A4674"/>
<path d="M49.5402 72.1775C50.9854 74.7078 53.076 76.8094 55.5986 78.2679C58.1212 79.7264 60.9856 80.4897 63.8995 80.4799C66.8134 80.47 69.6725 79.6874 72.1852 78.2118C74.6979 76.7363 76.7742 74.6206 78.2023 72.0806L63.9972 63.854L49.5402 72.1775Z" fill="#1A4674"/>
<path d="M113.667 40.9296C113.703 39.1912 113.282 37.4738 112.446 35.9491L63.9972 63.8556L112.504 91.9559C113.294 90.4649 113.694 88.7982 113.667 87.111V40.9296Z" fill="#1B598E"/>
<path d="M111.002 65.8628H107.204V69.6514H103.415V65.8628H99.6262V62.0644H103.415V58.266H107.204V62.0644H111.002V65.8531" fill="white"/>
<path d="M97.1644 65.8628H93.4048V69.6514H89.6161V65.8628H85.8274V62.0644H89.6161V58.266H93.4048V62.0644H97.1934V65.8531" fill="white"/>
<path d="M78.2024 72.0814C76.4207 75.2467 73.6427 77.7344 70.3006 79.1574C66.9586 80.5803 63.2399 80.8587 59.7232 79.9492C56.2066 79.0397 53.0892 76.9933 50.856 74.1285C48.6229 71.2637 47.3993 67.741 47.3756 64.1087C47.3519 60.4764 48.5295 56.9381 50.7251 54.0444C52.9207 51.1507 56.0111 49.0639 59.5156 48.1086C63.0201 47.1533 66.7421 47.3832 70.1024 48.7624C73.4628 50.1416 76.273 52.5929 78.0958 55.7348L92.5045 47.4403C88.8596 41.1222 83.2298 36.1849 76.49 33.3957C69.7503 30.6066 62.2779 30.1218 55.2342 32.0167C48.1906 33.9117 41.9701 38.0802 37.5394 43.8744C33.1087 49.6687 30.7161 56.7642 30.7332 64.0583C30.7504 71.3525 33.1764 78.4367 37.6343 84.21C42.0922 89.9834 48.3322 94.1226 55.3847 95.9843C62.4373 97.8461 69.9072 97.3261 76.6338 94.5053C83.3604 91.6845 88.9669 86.7208 92.582 80.3855L78.2024 72.0523" fill="white"/>
</svg>
