<svg width="128" height="128" viewBox="0 0 128 128" fill="none" xmlns="http://www.w3.org/2000/svg">
<path d="M112.086 41.7534C112.086 39.9375 111.695 38.3321 110.909 36.9561C110.075 35.537 108.875 34.3682 107.435 33.5724C94.6408 26.1884 81.8316 18.8383 69.0488 11.4543C65.6012 9.46169 62.2589 9.53688 58.8376 11.5558C53.747 14.556 28.2527 29.1623 20.6582 33.5611C17.5264 35.3808 16.0075 38.1517 16 41.7496V86.2527C16 88.0273 16.376 89.5988 17.1241 90.9561C17.8949 92.3547 19.0679 93.5202 20.6507 94.4375C28.249 98.8363 53.7432 113.443 58.8338 116.443C62.2589 118.465 65.6012 118.537 69.0488 116.544C81.8392 109.16 94.6446 101.806 107.435 94.4338C108.911 93.622 110.134 92.4186 110.969 90.9561C111.717 89.5988 112.089 88.0235 112.089 86.249L112.086 41.7534Z" fill="#A179DC"/>
<path d="M64.1913 63.8563L17.1204 90.9597C17.8949 92.3508 19.0679 93.5163 20.6544 94.4374C28.249 98.8362 53.7432 113.442 58.8338 116.443C62.2588 118.465 65.6012 118.537 69.0488 116.544C81.8392 109.16 94.6446 101.806 107.435 94.4336C108.911 93.6219 110.134 92.4184 110.969 90.9559L64.1913 63.8563Z" fill="#280068"/>
<path d="M112.086 41.7534C112.086 39.9375 111.695 38.3321 110.909 36.9561L64.1913 63.8564L110.965 90.9523C111.717 89.5988 112.089 88.0235 112.093 86.249C112.093 86.249 112.093 56.5852 112.086 41.7534Z" fill="#390091"/>
<path d="M91.9075 53.7282V58.7925H96.9717V53.7245H99.502V58.7925H104.57V61.3227H99.502V66.3908H104.57V68.9248H99.502V73.989H96.9717V68.9172H91.9037V73.9853H89.3734V68.9172H84.3054V66.387H89.3697V61.3227H84.3054V58.7887H89.3697V53.7207L91.9075 53.7282ZM96.9717 61.3227H91.9037V66.3908H96.9717V61.3227Z" fill="white"/>
<path d="M64.2964 28.2863C70.5636 28.2836 76.7212 29.9309 82.15 33.0624C87.5789 36.1939 92.0877 40.6994 95.2233 46.1258L95.1632 46.0243L79.617 54.9723C78.0637 52.3355 75.856 50.1443 73.2075 48.611C70.559 47.0776 67.5595 46.254 64.4994 46.2198H64.2964C59.58 46.2198 55.0567 48.0934 51.7217 51.4284C48.3868 54.7634 46.5132 59.2866 46.5132 64.003C46.5089 67.0986 47.3165 70.1411 48.8554 72.827C50.4141 75.5596 52.6701 77.8296 55.3931 79.4052C58.116 80.9808 61.2083 81.8055 64.3542 81.7952C67.5001 81.7849 70.5869 80.9399 73.2994 79.3464C76.0119 77.753 78.2529 75.4682 79.7937 72.7254L79.7185 72.857L95.2421 81.8464C92.1429 87.2235 87.6956 91.7 82.3389 94.8342C76.9821 97.9685 70.9009 99.6524 64.6949 99.7198H64.2964C59.6054 99.7218 54.9601 98.7993 50.6258 97.0051C46.2916 95.2108 42.3534 92.58 39.0364 89.263C35.7194 85.946 33.0886 82.0078 31.2943 77.6736C29.5001 73.3393 28.5776 68.694 28.5796 64.003C28.5796 54.5304 32.3426 45.4457 39.0408 38.7475C45.739 32.0493 54.8237 28.2863 64.2964 28.2863Z" fill="white"/>
</svg>
