<svg width="128" height="128" viewBox="0 0 128 128" fill="none" xmlns="http://www.w3.org/2000/svg">
<path d="M33.802 94.198L16.3521 76.748C14.2822 74.6263 13 71.6265 13 68.6944C13 67.3369 13.765 65.2148 14.3423 64L30.4499 30.45L33.802 94.198Z" fill="#01579B"/>
<path d="M93.53 33.802L76.08 16.3521C74.558 14.8221 71.3857 13 68.701 13C66.3917 13 64.1269 13.465 62.6647 14.3423L30.457 30.45L93.53 33.802ZM54.6035 115H96.882V96.8827L65.3418 86.8117L36.4862 96.8827L54.6035 115Z" fill="#40C4FF"/>
<path d="M30.4493 84.8019C30.4493 90.186 31.1243 91.5061 33.8014 94.1979L36.4861 96.8826H96.8819L67.3589 63.3325L30.4493 30.4495V84.8023V84.8019Z" fill="#29B6F6"/>
<path d="M84.1339 30.4426H30.4493L96.8819 96.8753H114.999V55.2717L93.5223 33.7947C90.5077 30.7725 87.8306 30.4426 84.1339 30.4426Z" fill="#01579B"/>
<path opacity="0.2" d="M34.4771 94.8652C31.7925 92.1734 31.1251 89.5186 31.1251 84.8019V31.1168L30.4577 30.4495V84.8015C30.4497 89.5182 30.4497 90.8231 34.4771 94.8648V94.8652Z" fill="white"/>
<path opacity="0.2" d="M114.333 54.6041V96.2078H96.2152L96.8826 96.8828H115V55.2715L114.333 54.6041Z" fill="#263238"/>
<path opacity="0.2" d="M93.53 33.802C90.2006 30.4723 87.4785 30.45 83.4667 30.45H30.457L31.1244 31.1173H83.4667C85.4688 31.1173 90.523 30.7799 93.53 33.802Z" fill="white"/>
<path opacity="0.2" d="M114.332 54.604L93.53 33.8016L76.0801 16.3525C74.5581 14.8221 71.3857 13 68.701 13C66.3917 13 64.127 13.465 62.6647 14.3423L30.4571 30.45L14.3494 64C13.7717 65.2224 13.0067 67.3445 13.0067 68.6944C13.0067 71.6265 14.2969 74.6184 16.3592 76.748L32.4365 92.7134C32.819 93.1855 33.2692 93.6657 33.8015 94.198L34.4689 94.8654L36.4786 96.8751L53.9286 114.325L54.596 114.992H96.8665V96.8755H114.984V55.271L114.332 54.6036L114.332 54.604Z" fill="url(#paint0_radial_69_89)"/>
<defs>
<radialGradient id="paint0_radial_69_89" cx="0" cy="0" r="1" gradientUnits="userSpaceOnUse" gradientTransform="translate(5111.86 5112.06) scale(5099.27 5099.26)">
<stop stop-color="white" stop-opacity="0.1"/>
<stop offset="1" stop-color="white" stop-opacity="0"/>
</radialGradient>
</defs>
</svg>
