<svg width="128" height="128" viewBox="0 0 128 128" fill="none" xmlns="http://www.w3.org/2000/svg">
<path fill-rule="evenodd" clip-rule="evenodd" d="M18.8078 115.883H12V100.214H18.8078C23.7121 100.214 26.1655 102.683 26.1681 107.621C26.1681 113.128 23.7147 115.885 18.8078 115.89V115.883ZM14.9111 113.361H18.3694C21.6261 113.361 23.2544 111.446 23.2544 107.617C23.2544 104.356 21.6261 102.726 18.3694 102.727H14.9111V113.361ZM29.217 115.883H26.2285L32.8945 100.214H36.0235L42.8365 115.883H39.7049L37.7284 111.607H32.7042L33.703 109.09H36.9658L34.396 103.202L29.217 115.883ZM41.1907 100.214H53.1079V102.734H48.6048V115.883H45.6977V102.731H41.1907V100.214ZM54.6041 115.886H51.6143L58.283 100.214H61.4119L68.2223 115.886H65.0908L63.1142 111.607H58.0835L59.0849 109.09H62.3477L59.7766 103.202L54.6041 115.886ZM76.9621 115.886H70.1543V100.214H76.9621C81.8698 100.214 84.3233 102.683 84.3224 107.621C84.3224 113.128 81.8689 115.885 76.9621 115.89V115.886ZM73.064 113.367H76.5237C79.7795 113.367 81.4087 111.453 81.4113 107.624C81.4113 104.363 79.7821 102.733 76.5237 102.734H73.064V113.367ZM86.2924 108.069C86.2924 102.754 88.9217 100.097 94.1804 100.098C99.3568 100.098 101.945 102.755 101.945 108.069C101.945 113.352 99.3568 115.994 94.1804 115.996C89.1562 115.996 86.5269 113.354 86.2924 108.069ZM94.1804 113.47C97.3434 113.47 98.9245 111.647 98.9236 108.002C98.9236 104.414 97.3425 102.621 94.1804 102.621C90.9377 102.621 89.3164 104.414 89.3164 108.002C89.3164 111.648 90.9377 113.47 94.1804 113.47ZM114.088 109.541V113.207C113.501 113.371 112.896 113.459 112.287 113.47C108.728 113.47 106.949 111.588 106.949 107.826C106.949 104.351 108.835 102.615 112.605 102.615C114.114 102.603 115.61 102.902 116.998 103.495V100.87C115.645 100.359 114.108 100.103 112.386 100.102C106.748 100.102 103.929 102.679 103.927 107.833C103.927 113.274 106.698 115.997 112.241 116C114.148 116 115.733 115.722 116.998 115.165V106.962H112.298L111.321 109.541H114.088Z" fill="#632CA6"/>
<path fill-rule="evenodd" clip-rule="evenodd" d="M90.766 70.1243L83.8374 65.5555L78.0626 75.2088L71.3414 73.2401L65.4222 82.2725L65.7214 85.1219L97.9006 79.1935L96.0303 59.0851L90.766 70.1243ZM60.7576 61.4619L65.9196 60.7519C66.7556 61.1273 67.3371 61.2769 68.3385 61.5249C69.8977 61.9318 71.7037 62.3216 74.3758 60.9737C74.998 60.6666 76.2947 59.4801 76.8183 58.8042L97.9701 54.9678L100.128 81.086L63.8918 87.6156L60.7576 61.4619ZM100.049 52.0476L97.9609 52.4413L93.95 11L25.6018 18.926L34.0174 87.256L42.0234 86.0944C41.3843 85.1836 40.3894 84.0785 38.6898 82.6662C36.3339 80.7094 37.1673 77.3849 38.5585 75.2849C40.396 71.7412 49.8707 67.2289 49.3352 61.5591C49.1423 59.4972 48.8102 56.8132 46.9006 54.9744C46.8613 55.4745 46.8807 55.9776 46.9583 56.4732C46.4305 55.7574 46.0309 54.9554 45.7771 54.1029C45.3834 53.5779 45.0828 53.4112 44.6694 52.7117C44.4833 53.2753 44.3945 53.8665 44.4069 54.4599C44.4069 54.4599 43.7638 52.9414 43.6601 51.6604C43.2795 52.2339 43.1824 53.3233 43.1824 53.3233C43.1824 53.3233 42.3476 50.9294 42.5379 49.6392C42.1573 48.517 41.0273 46.2911 41.3462 41.2289C43.433 42.6896 48.0241 42.3432 49.8143 39.7064C50.4075 38.8323 50.8144 36.4488 49.5163 31.7502C48.6842 28.7381 46.6197 24.252 45.8152 22.5498L45.7194 22.6193C46.1433 23.9909 47.0174 26.8652 47.3534 28.263C48.3679 32.4891 48.6409 33.9604 48.1632 35.9094C47.7589 37.6038 46.7864 38.7129 44.3216 39.9505C41.8568 41.1882 38.594 38.1656 38.3866 38.0041C35.9913 36.0958 34.1394 32.9839 33.9321 31.4719C33.7168 29.8169 34.8862 28.8221 35.4755 27.4689C34.868 27.6546 34.2727 27.8781 33.6932 28.1383C34.4715 27.3531 35.3091 26.6291 36.1987 25.9727C36.7266 25.6313 37.232 25.2565 37.712 24.8505C36.8379 24.8361 36.1265 24.861 36.1265 24.861C37.0892 24.3507 38.0804 23.8963 39.0953 23.5C37.9902 23.4501 36.9311 23.4921 36.9311 23.4921C36.9311 23.4921 40.186 22.03 42.7532 20.9617C44.5211 20.2372 46.247 20.4524 47.2156 21.8541C48.4887 23.6916 49.8261 24.6891 52.6584 25.3073C54.3987 24.5355 54.9277 24.1405 57.1142 23.5446C59.0383 21.4276 60.549 21.1546 60.549 21.1546C60.0659 21.6376 59.7355 22.2519 59.5987 22.9212C60.3322 22.3551 61.0958 21.8294 61.8864 21.3462C61.536 21.8063 61.2359 22.3026 60.9913 22.8267L61.091 22.975C61.9829 22.4583 62.9085 22.0023 63.8616 21.61C63.8616 21.61 63.4338 22.1508 62.9324 22.8503C63.8918 22.8424 65.8395 22.891 66.5942 22.9816C71.0566 23.0787 71.9753 18.2173 73.692 17.607C75.8353 16.8418 76.7934 16.3785 80.446 19.9694C83.5815 23.0419 86.0306 28.5543 84.81 29.7867C83.7902 30.8118 81.7808 29.393 79.5509 26.6092C78.2811 25.0395 77.4267 23.1754 77.0664 21.1887C76.8322 20.0442 76.2275 19.0086 75.3458 18.2422C75.3458 18.2422 76.1332 20.0127 76.1332 21.5746C76.1332 22.4277 76.2396 25.6157 77.6071 27.4059C77.4759 27.6684 77.4076 28.7 77.2593 28.8969C75.6686 26.9754 72.251 25.5999 71.6945 25.1931C73.5805 26.7379 77.9143 30.2868 79.5785 33.69C81.1534 36.9056 80.2255 39.8586 81.0222 40.6186C81.2493 40.8364 84.4084 44.7739 85.016 46.7518C86.0765 50.1983 85.079 53.822 83.6918 56.0703L79.8226 56.6727C79.2556 56.5152 78.8724 56.4365 78.3644 56.1477C78.6453 55.6516 79.2018 54.414 79.2084 54.1593L78.9892 53.7761C77.783 55.4823 75.7631 57.1439 74.0845 58.0968C71.8874 59.341 69.3596 59.1467 67.7072 58.6388C63.0295 57.1951 58.6052 54.0347 57.5382 53.2039C57.5382 53.2039 57.5053 53.868 57.7062 54.0163C58.8874 55.3471 61.5871 57.7542 64.2003 59.4315L58.6314 60.0432L61.2643 80.5414C60.0975 80.708 59.915 80.7894 58.6393 80.9718C57.5132 76.9937 55.3581 74.395 53.0049 72.8831C50.9286 71.5483 48.0647 71.2477 45.3243 71.7911L45.1484 71.9972C47.4176 71.7492 49.7026 72.2936 51.6163 73.538C53.8842 74.9725 55.7125 78.6763 56.3858 80.9075C57.2481 83.7582 57.844 86.8137 55.5248 90.041C53.8737 92.3392 49.057 93.6083 45.1655 90.8613C46.205 92.5321 47.6093 93.8997 49.4966 94.157C52.3053 94.5389 54.971 94.0519 56.8045 92.1672C58.3716 90.5568 59.2024 87.189 58.9832 83.6362L61.4624 83.2766L62.3575 89.642L103.392 84.7006L100.049 52.0476ZM75.0833 34.7597C74.9691 35.0222 74.7893 35.1915 75.0596 36.0433L75.0754 36.0918L75.1187 36.2021L75.2316 36.4567C75.7185 37.4529 76.2527 38.3926 77.1465 38.8717C77.3844 38.8314 77.6246 38.8056 77.8657 38.7942C78.7057 38.7575 79.2359 38.89 79.5719 39.0712C79.6069 38.815 79.6131 38.5557 79.5903 38.2981C79.526 37.0368 79.841 34.8857 77.4168 33.7635C76.4981 33.3383 75.2185 33.4695 74.7919 33.9998C74.8605 34.0085 74.9281 34.0234 74.994 34.0444C75.6411 34.2688 75.2027 34.4919 75.0859 34.7597H75.0833ZM81.8819 46.5273C81.5642 46.3514 80.0772 46.421 79.0338 46.5457C77.0428 46.7806 74.8956 47.4644 74.4257 47.8372C73.5687 48.4934 73.9585 49.6523 74.5911 50.1248C76.3629 51.4504 77.9169 52.3376 79.5575 52.1211C80.5641 51.9898 81.4527 50.3952 82.0814 48.9475C82.5119 47.9514 82.5118 46.8764 81.8819 46.5273ZM64.2646 36.3202C64.825 35.7874 61.469 35.0878 58.8651 36.8636C56.9449 38.1761 56.8832 40.9821 58.722 42.5742C58.8731 42.7049 59.0327 42.8255 59.1997 42.9351C59.8016 42.6519 60.421 42.4077 61.0543 42.204C62.0276 41.881 63.029 41.6494 64.0454 41.5124C64.4391 41.0766 64.8867 40.3114 64.7738 38.9255C64.6202 37.046 63.1988 37.3505 64.2672 36.3255" fill="#632CA6"/>
</svg>
