<svg width="128" height="128" viewBox="0 0 128 128" fill="none" xmlns="http://www.w3.org/2000/svg">
<path d="M43.3818 61.3258C42.45 60.6984 40.0022 60.4305 38.2228 60.9104C38.1273 59.1373 37.2125 57.643 35.5405 56.3391L34.9218 55.9236L34.5093 56.5471C33.6984 57.778 33.3566 59.4188 33.4775 60.9104C33.573 61.8294 33.8922 62.862 34.5093 63.6114C32.1931 64.9555 30.0578 64.6503 20.6021 64.6503H6.00323C5.96085 66.7861 6.30384 70.894 8.91554 74.2382C9.20429 74.6079 9.52015 74.9651 9.86371 75.3093C11.9872 77.4361 15.1956 78.996 19.9929 79C27.3121 79.0068 33.5826 75.0493 37.3973 65.4817C38.6523 65.502 41.9658 65.7066 43.5875 62.5726C43.6271 62.52 44 61.7418 44 61.7418L43.3818 61.3263V61.3258ZM15.5307 59.373H11.4255V63.4792H15.5307V59.373ZM20.8337 59.373H16.7286V63.4792H20.8337V59.373ZM26.1374 59.373H22.0322V63.4792H26.1374V59.373ZM31.441 59.373H27.3359V63.4792H31.441V59.373ZM10.227 59.373H6.12189V63.4792H10.227V59.373ZM15.5307 54.1868H11.4255V58.2929H15.5307V54.1868ZM20.8337 54.1868H16.7286V58.2929H20.8337V54.1868ZM26.1374 54.1868H22.0322V58.2929H26.1374V54.1868ZM26.1374 49H22.0322V53.1061H26.1374V49Z" fill="#1D63ED"/>
<path d="M121.239 74.3502C121.239 75.2474 120.535 75.9518 119.619 75.9518C118.703 75.9518 117.988 75.2474 117.988 74.3502C117.988 73.453 118.712 72.7681 119.619 72.7681C120.526 72.7681 121.239 73.4725 121.239 74.3502ZM118.394 74.3502C118.394 75.0546 118.915 75.6141 119.629 75.6141C120.343 75.6141 120.835 75.0546 120.835 74.3602C120.835 73.6657 120.323 73.0864 119.62 73.0864C118.916 73.0864 118.394 73.6558 118.394 74.3502H118.394ZM119.369 75.1802H119.002V73.598C119.146 73.5691 119.349 73.5497 119.609 73.5497C119.909 73.5497 120.043 73.598 120.159 73.6657C120.247 73.733 120.314 73.8585 120.314 74.013C120.314 74.1868 120.179 74.3218 119.987 74.3796V74.399C120.14 74.4563 120.227 74.5724 120.276 74.7846C120.323 75.0257 120.352 75.1224 120.392 75.1802H119.996C119.948 75.1224 119.918 74.9779 119.87 74.7941C119.842 74.6207 119.745 74.5435 119.542 74.5435H119.369V75.1806V75.1802ZM119.378 74.283H119.551C119.754 74.283 119.918 74.2157 119.918 74.0518C119.918 73.9069 119.812 73.8097 119.58 73.8097C119.484 73.8097 119.416 73.8197 119.378 73.8301V74.283Z" fill="#1D63ED"/>
<path d="M59.0762 58.3402C58.8492 58.1185 58.5769 58.0057 58.2505 58.0057C57.9241 58.0057 57.6437 58.1185 57.4253 58.3402C57.2064 58.5619 57.0994 58.8461 57.0994 59.1848V64.8408C55.9767 63.9128 54.6811 63.4448 53.2074 63.4448C51.4945 63.4448 50.0298 64.0635 48.8162 65.305C47.6026 66.5424 47 68.0393 47 69.7948C47 71.5504 47.6068 73.043 48.8162 74.2846C50.0298 75.5219 51.4907 76.1448 53.2074 76.1448C54.9241 76.1448 56.3689 75.5262 57.5987 74.2846C58.8123 73.0596 59.4149 71.5632 59.4149 69.7948V59.1848C59.4149 58.8461 59.3035 58.5619 59.0762 58.3402ZM56.7938 71.3249V71.3334C56.5916 71.8142 56.3149 72.2363 55.9644 72.5958C55.6138 72.9596 55.2008 73.2439 54.7304 73.457C54.2557 73.6702 53.7522 73.7749 53.2117 73.7749C52.6712 73.7749 52.1553 73.6702 51.6807 73.457C51.206 73.2439 50.7972 72.9596 50.4509 72.6001C50.1042 72.2405 49.828 71.8185 49.6257 71.3377C49.4235 70.8526 49.3202 70.3386 49.3202 69.7948C49.3202 69.251 49.4235 68.737 49.6257 68.252C49.828 67.7669 50.1047 67.3491 50.4509 66.9895C50.7977 66.63 51.2103 66.3458 51.6807 66.1326C52.1553 65.9194 52.6631 65.8148 53.2117 65.8148C53.7602 65.8148 54.2557 65.9194 54.7304 66.1326C55.205 66.3458 55.6138 66.63 55.9644 66.9938C56.3149 67.3576 56.5916 67.7797 56.7938 68.2562C56.9961 68.737 57.0994 69.2472 57.0994 69.7906C57.0994 70.3339 56.9961 70.8483 56.7938 71.3249Z" fill="#1D63ED"/>
<path d="M110.36 67.3562C110.059 66.6034 109.6 65.9222 108.997 65.3116L108.989 65.3074C107.764 64.0701 106.298 63.4471 104.598 63.4471C102.899 63.4471 101.42 64.0658 100.206 65.3074C98.9929 66.5447 98.3908 68.0416 98.3908 69.7972C98.3908 71.5527 98.9976 73.0453 100.206 74.2869C101.42 75.5242 102.881 76.1472 104.598 76.1472C106.158 76.1472 107.507 75.6332 108.655 74.6048C108.877 74.3708 108.989 74.0865 108.989 73.7559C108.989 73.4253 108.882 73.133 108.663 72.9113C108.445 72.6896 108.168 72.5768 107.838 72.5768C107.549 72.5854 107.293 72.6815 107.075 72.8739C106.728 73.1747 106.352 73.4049 105.944 73.5555C105.535 73.7062 105.089 73.7815 104.603 73.7815C104.173 73.7815 103.761 73.7147 103.369 73.5768C102.976 73.439 102.61 73.2505 102.283 73.0041C101.953 72.7573 101.668 72.4651 101.425 72.1178C101.181 71.7749 100.996 71.3945 100.872 70.9767H109.651C109.976 70.9767 110.249 70.8639 110.476 70.6422C110.703 70.4205 110.815 70.1363 110.815 69.7976C110.815 68.9198 110.661 68.1046 110.361 67.3562H110.36ZM100.863 68.6186C100.983 68.2046 101.164 67.8242 101.408 67.4774C101.652 67.1345 101.94 66.8379 102.27 66.5911C102.605 66.3443 102.968 66.1563 103.368 66.0184C103.768 65.8806 104.176 65.8138 104.598 65.8138C105.02 65.8138 105.428 65.8806 105.823 66.0184C106.22 66.1563 106.584 66.3443 106.909 66.5911C107.24 66.8379 107.528 67.1302 107.772 67.4774C108.019 67.8204 108.205 68.2008 108.333 68.6186H100.863H100.863Z" fill="#1D63ED"/>
<path d="M121.148 64.2412C120.942 64.0365 120.681 63.8774 120.368 63.7604C120.054 63.6434 119.712 63.5638 119.336 63.5178C118.965 63.4719 118.614 63.451 118.288 63.451C117.549 63.451 116.856 63.5723 116.204 63.8149C115.552 64.0574 114.949 64.4041 114.396 64.8556V64.6301C114.396 64.3042 114.285 64.028 114.057 63.7983C113.831 63.5685 113.562 63.4515 113.245 63.4515C112.927 63.4515 112.646 63.5685 112.42 63.7983C112.192 64.028 112.081 64.3085 112.081 64.6301V74.9687C112.081 75.2946 112.192 75.5708 112.42 75.8005C112.646 76.0303 112.918 76.1473 113.245 76.1473C113.571 76.1473 113.835 76.0303 114.057 75.8005C114.285 75.5708 114.396 75.2903 114.396 74.9687V69.7973C114.396 69.2454 114.499 68.7272 114.701 68.2421C114.904 67.757 115.18 67.3392 115.531 66.9797C115.882 66.6201 116.295 66.3359 116.765 66.1308C117.24 65.9219 117.744 65.8172 118.285 65.8172C118.826 65.8172 119.336 65.9134 119.803 66.1014C119.988 66.1853 120.15 66.227 120.29 66.227C120.451 66.227 120.604 66.1976 120.744 66.1351C120.884 66.0725 121.008 65.9887 121.112 65.8802C121.215 65.7717 121.297 65.6462 121.359 65.4998C121.421 65.3577 121.454 65.2028 121.454 65.0356C121.454 64.7097 121.351 64.4463 121.145 64.2412H121.149H121.148Z" fill="#1D63ED"/>
<path d="M72.6871 67.3599C72.3858 66.6115 71.9358 65.926 71.3295 65.3074C70.104 64.0701 68.6388 63.4471 66.9382 63.4471C65.2376 63.4471 63.7606 64.0658 62.547 65.3074C61.3334 66.5447 60.7313 68.0416 60.7313 69.7971C60.7313 71.5527 61.3381 73.0453 62.547 74.2869C63.7606 75.5242 65.2215 76.1472 66.9382 76.1472C68.655 76.1472 70.0997 75.5285 71.3295 74.2869C72.5431 73.0619 73.1457 71.5655 73.1457 69.7971C73.1371 68.9194 72.9846 68.1084 72.6876 67.3599H72.6871ZM70.5247 71.323V71.3315C70.3224 71.8123 70.0457 72.2344 69.6952 72.5939C69.3447 72.9577 68.9316 73.2419 68.4612 73.4551C67.9908 73.6683 67.483 73.7729 66.9425 73.7729C66.402 73.7729 65.8861 73.6683 65.4115 73.4551C64.9368 73.2419 64.528 72.9577 64.1818 72.5982C63.835 72.2386 63.5588 71.8166 63.3566 71.3357C63.1543 70.8507 63.051 70.3367 63.051 69.7929C63.051 69.2491 63.1543 68.7351 63.3566 68.25C63.5588 67.765 63.8355 67.3472 64.1818 66.9876C64.5285 66.6281 64.9411 66.3438 65.4115 66.1307C65.8861 65.9175 66.394 65.8128 66.9425 65.8128C67.4911 65.8128 67.9866 65.9175 68.4612 66.1307C68.9359 66.3438 69.3447 66.6281 69.6952 66.9919C70.0457 67.3557 70.3224 67.7777 70.5247 68.2543C70.7269 68.7351 70.8302 69.2453 70.8302 69.7886C70.8302 70.332 70.7269 70.8464 70.5247 71.323Z" fill="#1D63ED"/>
<path d="M97.5154 64.6257C97.5154 64.467 97.4822 64.3164 97.4206 64.1743C97.3586 64.0321 97.2762 63.9028 97.1729 63.7939C97.0696 63.6854 96.946 63.5973 96.8058 63.539C96.6656 63.4808 96.513 63.4471 96.352 63.4471C96.1208 63.4471 95.9143 63.5059 95.7328 63.6271L89.1048 68.0378V59.1914C89.1048 58.8569 88.9934 58.577 88.7665 58.3468C88.5396 58.117 88.2715 58 87.9537 58C87.6358 58 87.3554 58.117 87.128 58.3468C86.9011 58.5765 86.7898 58.8569 86.7898 59.1914V74.952C86.7898 75.2779 86.9011 75.5583 87.128 75.7923C87.3549 76.0263 87.6273 76.1433 87.9537 76.1433C88.28 76.1433 88.5439 76.0263 88.7665 75.7923C88.9934 75.5583 89.1048 75.2779 89.1048 74.952V70.8592L90.4586 69.952L95.5803 75.834C95.7868 76.0387 96.0469 76.1391 96.3562 76.1391C96.5173 76.1391 96.6698 76.1097 96.81 76.0472C96.9503 75.9884 97.0744 75.9008 97.1772 75.7923C97.2804 75.6838 97.3629 75.5583 97.4249 75.4119C97.487 75.2698 97.5196 75.1149 97.5196 74.9605C97.5196 74.6512 97.4126 74.375 97.1975 74.1329L92.4306 68.6441L97.0734 65.5589C97.3704 65.3543 97.5149 65.0407 97.5149 64.6181V64.6266L97.5154 64.6257Z" fill="#1D63ED"/>
<path d="M77.8917 66.9795C78.2465 66.62 78.6596 66.3358 79.1342 66.1306C79.6089 65.9217 80.1124 65.8171 80.6529 65.8171C81.1399 65.8171 81.5899 65.9009 82.0068 66.0676C82.4194 66.2349 82.8158 66.4817 83.191 66.8033C83.4137 66.9828 83.6657 67.0747 83.9461 67.0747C84.2805 67.0747 84.5529 66.962 84.7718 66.736C84.9906 66.5101 85.0977 66.2259 85.0977 65.8872C85.0977 65.5485 84.9655 65.2349 84.6974 64.9928C83.5581 63.9644 82.209 63.45 80.6529 63.45C78.94 63.45 77.4753 64.0686 76.2617 65.3102C75.048 66.5475 74.446 68.0444 74.446 69.8C74.446 71.5555 75.0528 73.0481 76.2617 74.2897C77.4753 75.527 78.9362 76.15 80.6529 76.15C82.2048 76.15 83.5544 75.636 84.6974 74.6071C84.9409 74.3565 85.065 74.068 85.065 73.7336C85.065 73.3992 84.9575 73.1107 84.7391 72.889C84.5202 72.6673 84.2441 72.5545 83.9139 72.5545C83.6335 72.5631 83.3895 72.6464 83.1834 72.8051C82.8121 73.131 82.4241 73.3736 82.0072 73.5365C81.5946 73.6995 81.1446 73.7791 80.6534 73.7791C80.1129 73.7791 79.6093 73.6744 79.1347 73.4655C78.66 73.2566 78.2474 72.9724 77.8922 72.6171C77.5374 72.2618 77.2564 71.8355 77.0542 71.3547C76.8519 70.8696 76.7486 70.3513 76.7486 69.7995C76.7486 69.2476 76.8519 68.7294 77.0542 68.2443C77.2564 67.7592 77.5369 67.3414 77.8922 66.9819V66.9776L77.8917 66.9795Z" fill="#1D63ED"/>
</svg>
