<svg width="128" height="128" viewBox="0 0 128 128" fill="none" xmlns="http://www.w3.org/2000/svg">
<path d="M119.145 55.9773C116.35 54.0952 109.007 53.2915 103.669 54.7311C103.382 49.412 100.638 44.9289 95.6215 41.0172L93.7653 39.7709L92.5279 41.6411C90.0953 45.3341 89.0697 50.2564 89.4325 54.7311C89.7189 57.4881 90.6767 60.5859 92.5279 62.8343C85.5793 66.8664 79.1733 65.9508 50.8062 65.9508H7.0097C6.88256 72.3584 7.91153 84.6819 15.7466 94.7147C16.6129 95.8236 17.5605 96.8952 18.5911 97.9278C24.9616 104.308 34.5868 108.988 48.9788 109C70.9364 109.02 89.7478 97.1478 101.192 68.445C104.957 68.506 114.897 69.1198 119.763 59.7178C119.881 59.5601 121 57.2253 121 57.2253L119.145 55.979V55.9773ZM35.592 50.1191H23.2766V62.4375H35.592V50.1191ZM51.5012 50.1191H39.1858V62.4375H51.5012V50.1191ZM67.4122 50.1191H55.0967V62.4375H67.4122V50.1191ZM83.3231 50.1191H71.0076V62.4375H83.3231V50.1191ZM19.6811 50.1191H7.36568V62.4375H19.6811V50.1191ZM35.592 34.5604H23.2766V46.8788H35.592V34.5604ZM51.5012 34.5604H39.1858V46.8788H51.5012V34.5604ZM67.4122 34.5604H55.0967V46.8788H67.4122V34.5604ZM67.4122 19H55.0967V31.3184H67.4122V19Z" fill="#1D63ED"/>
</svg>
