<svg width="128" height="128" viewBox="0 0 128 128" fill="none" xmlns="http://www.w3.org/2000/svg">
<path d="M123.233 75.2596C123.233 76.7005 122.102 77.8318 120.63 77.8318C119.159 77.8318 118.012 76.7005 118.012 75.2596C118.012 73.8186 119.174 72.7185 120.63 72.7185C122.087 72.7185 123.233 73.8498 123.233 75.2596ZM118.663 75.2596C118.663 76.3909 119.5 77.2894 120.646 77.2894C121.793 77.2894 122.583 76.3909 122.583 75.2755C122.583 74.1602 121.762 73.2298 120.632 73.2298C119.502 73.2298 118.664 74.1442 118.664 75.2596H118.663ZM120.229 76.5925H119.64V74.0514C119.871 74.005 120.198 73.9738 120.615 73.9738C121.096 73.9738 121.312 74.0514 121.499 74.1602C121.639 74.2683 121.747 74.4699 121.747 74.7179C121.747 74.9971 121.53 75.2139 121.221 75.3067V75.3379C121.467 75.43 121.607 75.6164 121.685 75.9572C121.762 76.3445 121.808 76.4997 121.871 76.5925H121.236C121.158 76.4997 121.111 76.2676 121.034 75.9724C120.988 75.694 120.833 75.57 120.507 75.57H120.229V76.5932V76.5925ZM120.243 75.1515H120.522C120.847 75.1515 121.111 75.0435 121.111 74.7803C121.111 74.5475 120.941 74.3915 120.568 74.3915C120.414 74.3915 120.305 74.4075 120.243 74.4242V75.1515Z" fill="#1D63ED"/>
<path d="M23.395 49.5464C23.0306 49.1903 22.5932 49.0093 22.069 49.0093C21.5448 49.0093 21.0944 49.1903 20.7437 49.5464C20.3922 49.9025 20.2202 50.3589 20.2202 50.9029V59.9868C18.4171 58.4964 16.3363 57.7448 13.9695 57.7448C11.2185 57.7448 8.86607 58.7384 6.9169 60.7324C4.96774 62.7196 4 65.1237 4 67.9432C4 70.7628 4.97458 73.16 6.9169 75.1541C8.86607 77.1413 11.2124 78.1417 13.9695 78.1417C16.7266 78.1417 19.0471 77.1481 21.0221 75.1541C22.9713 73.1867 23.939 70.7833 23.939 67.9432V50.9029C23.939 50.3589 23.7602 49.9025 23.395 49.5464ZM19.7295 70.4006V70.4143C19.4046 71.1865 18.9603 71.8644 18.3973 72.4418C17.8344 73.0261 17.1709 73.4826 16.4155 73.825C15.6531 74.1673 14.8444 74.3355 13.9763 74.3355C13.1083 74.3355 12.2798 74.1673 11.5174 73.825C10.7551 73.4826 10.0986 73.0261 9.54242 72.4487C8.98551 71.8712 8.54197 71.1934 8.2171 70.4212C7.89224 69.6421 7.72639 68.8166 7.72639 67.9432C7.72639 67.0699 7.89224 66.2444 8.2171 65.4653C8.54197 64.6863 8.98628 64.0152 9.54242 63.4378C10.0993 62.8604 10.762 62.4039 11.5174 62.0615C12.2798 61.7192 13.0953 61.551 13.9763 61.551C14.8574 61.551 15.6531 61.7192 16.4155 62.0615C17.1778 62.4039 17.8344 62.8604 18.3973 63.4447C18.9603 64.0289 19.4046 64.7068 19.7295 65.4722C20.0544 66.2444 20.2202 67.0638 20.2202 67.9364C20.2202 68.809 20.0544 69.6353 19.7295 70.4006Z" fill="#1D63ED"/>
<path d="M105.76 64.0266C105.276 62.8177 104.539 61.7237 103.572 60.743L103.559 60.7362C101.59 58.749 99.236 57.7485 96.5062 57.7485C93.7765 57.7485 91.4021 58.7421 89.4529 60.7362C87.5037 62.7234 86.5367 65.1275 86.5367 67.947C86.5367 70.7665 87.5113 73.1638 89.4529 75.1579C91.4021 77.1451 93.7491 78.1455 96.5062 78.1455C99.0108 78.1455 101.178 77.3201 103.022 75.6684C103.379 75.2925 103.559 74.8361 103.559 74.305C103.559 73.774 103.387 73.3046 103.035 72.9485C102.684 72.5925 102.24 72.4114 101.709 72.4114C101.246 72.4251 100.834 72.5795 100.484 72.8884C99.9268 73.3715 99.3235 73.7413 98.6677 73.9832C98.0111 74.2251 97.2952 74.3461 96.5139 74.3461C95.8238 74.3461 95.1611 74.2388 94.532 74.0174C93.9013 73.796 93.3124 73.4932 92.7882 73.0976C92.2572 72.7013 91.8007 72.2318 91.4097 71.6742C91.0186 71.1234 90.7204 70.5124 90.5218 69.8414H104.621C105.144 69.8414 105.581 69.6603 105.946 69.3043C106.311 68.9482 106.49 68.4918 106.49 67.9478C106.49 66.538 106.244 65.2287 105.761 64.0266H105.76ZM90.5074 66.0542C90.6998 65.3892 90.9912 64.7783 91.3823 64.2214C91.7741 63.6706 92.2374 63.1943 92.7677 62.798C93.3048 62.4016 93.8876 62.0995 94.5305 61.8781C95.1726 61.6568 95.8284 61.5495 96.5062 61.5495C97.1841 61.5495 97.8384 61.6568 98.4737 61.8781C99.1105 62.0995 99.6948 62.4016 100.217 62.798C100.748 63.1943 101.212 63.6637 101.603 64.2214C102 64.7722 102.3 65.3831 102.505 66.0542H90.5066H90.5074Z" fill="#1D63ED"/>
<path d="M123.086 59.0236C122.755 58.695 122.337 58.4394 121.833 58.2514C121.33 58.0635 120.78 57.9357 120.176 57.8619C119.58 57.7881 119.016 57.7546 118.493 57.7546C117.306 57.7546 116.193 57.9494 115.146 58.3389C114.098 58.7285 113.13 59.2854 112.242 60.0104V59.6483C112.242 59.1248 112.063 58.6813 111.698 58.3123C111.334 57.9433 110.903 57.7554 110.393 57.7554C109.883 57.7554 109.431 57.9433 109.068 58.3123C108.703 58.6813 108.524 59.1317 108.524 59.6483V76.2527C108.524 76.7761 108.703 77.2196 109.068 77.5886C109.431 77.9576 109.869 78.1455 110.393 78.1455C110.917 78.1455 111.34 77.9576 111.698 77.5886C112.063 77.2196 112.242 76.7693 112.242 76.2527V67.947C112.242 67.0607 112.408 66.2284 112.733 65.4493C113.057 64.6703 113.502 63.9993 114.065 63.4218C114.629 62.8444 115.292 62.3879 116.047 62.0585C116.809 61.723 117.618 61.5548 118.487 61.5548C119.356 61.5548 120.176 61.7093 120.926 62.0113C121.224 62.146 121.483 62.2129 121.708 62.2129C121.967 62.2129 122.212 62.1657 122.437 62.0653C122.663 61.9649 122.862 61.8302 123.028 61.656C123.194 61.4818 123.325 61.2802 123.425 61.0451C123.525 60.8168 123.578 60.5681 123.578 60.2995C123.578 59.7761 123.412 59.3531 123.081 59.0236H123.087H123.086Z" fill="#1D63ED"/>
<path d="M45.2551 64.0327C44.7712 62.8307 44.0485 61.7298 43.0746 60.7362C41.1064 58.749 38.7533 57.7485 36.022 57.7485C33.2908 57.7485 30.9186 58.7421 28.9694 60.7362C27.0203 62.7234 26.0533 65.1275 26.0533 67.947C26.0533 70.7665 27.0279 73.1638 28.9694 75.1579C30.9186 77.1451 33.2649 78.1455 36.022 78.1455C38.7792 78.1455 41.0996 77.1519 43.0746 75.1579C45.0238 73.1904 45.9915 70.7871 45.9915 67.947C45.9778 66.5373 45.7329 65.2348 45.2558 64.0327H45.2551ZM41.782 70.3976V70.4113C41.4572 71.1835 41.0129 71.8613 40.4499 72.4388C39.8869 73.0231 39.2235 73.4796 38.468 73.8219C37.7125 74.1643 36.8969 74.3324 36.0289 74.3324C35.1608 74.3324 34.3323 74.1643 33.57 73.8219C32.8077 73.4796 32.1511 73.0231 31.5949 72.4456C31.038 71.8682 30.5945 71.1903 30.2696 70.4181C29.9448 69.639 29.7789 68.8136 29.7789 67.9402C29.7789 67.0668 29.9448 66.2413 30.2696 65.4623C30.5945 64.6832 31.0388 64.0122 31.5949 63.4347C32.1518 62.8573 32.8145 62.4008 33.57 62.0585C34.3323 61.7161 35.1479 61.548 36.0289 61.548C36.9099 61.548 37.7057 61.7161 38.468 62.0585C39.2303 62.4008 39.8869 62.8573 40.4499 63.4416C41.0129 64.0259 41.4572 64.7037 41.782 65.4691C42.1069 66.2413 42.2728 67.0607 42.2728 67.9333C42.2728 68.806 42.1069 69.6322 41.782 70.3976Z" fill="#1D63ED"/>
<path d="M85.1308 59.6413C85.1308 59.3864 85.0775 59.1445 84.9786 58.9162C84.879 58.688 84.7466 58.4803 84.5807 58.3053C84.4149 58.1311 84.2163 57.9896 83.9911 57.896C83.7659 57.8024 83.5209 57.7484 83.2623 57.7484C82.891 57.7484 82.5593 57.8427 82.2679 58.0375L71.6228 65.1213V50.9134C71.6228 50.3763 71.444 49.9267 71.0796 49.5569C70.7152 49.1879 70.2846 49 69.7741 49C69.2636 49 68.8132 49.1879 68.448 49.5569C68.0836 49.9259 67.9048 50.3763 67.9048 50.9134V76.2259C67.9048 76.7493 68.0836 77.1997 68.448 77.5756C68.8124 77.9514 69.2499 78.1393 69.7741 78.1393C70.2983 78.1393 70.722 77.9514 71.0796 77.5756C71.444 77.1997 71.6228 76.7493 71.6228 76.2259V69.6526L73.7972 68.1957L82.0229 77.6425C82.3546 77.9712 82.7723 78.1325 83.2691 78.1325C83.5278 78.1325 83.7728 78.0853 83.998 77.9849C84.2232 77.8905 84.4225 77.7498 84.5876 77.5756C84.7534 77.4013 84.8858 77.1997 84.9855 76.9646C85.0851 76.7364 85.1376 76.4876 85.1376 76.2396C85.1376 75.7428 84.9657 75.2993 84.6203 74.9105L76.9644 66.0951L84.421 61.14C84.898 60.8114 85.13 60.3077 85.13 59.6291V59.6428L85.1308 59.6413Z" fill="#1D63ED"/>
<path d="M53.6139 63.4216C54.1838 62.8442 54.8472 62.3877 55.6095 62.0583C56.3718 61.7228 57.1806 61.5546 58.0486 61.5546C58.8307 61.5546 59.5535 61.6893 60.223 61.9571C60.8857 62.2257 61.5224 62.622 62.125 63.1386C62.4826 63.427 62.8873 63.5746 63.3377 63.5746C63.8748 63.5746 64.3123 63.3935 64.6638 63.0306C65.0153 62.6677 65.1872 62.2112 65.1872 61.6672C65.1872 61.1233 64.975 60.6196 64.5443 60.2308C62.7146 58.5792 60.5479 57.7529 58.0486 57.7529C55.2976 57.7529 52.9452 58.7465 50.996 60.7406C49.0469 62.7278 48.0799 65.1319 48.0799 67.9514C48.0799 70.7709 49.0545 73.1682 50.996 75.1623C52.9452 77.1495 55.2915 78.1499 58.0486 78.1499C60.541 78.1499 62.7085 77.3245 64.5443 75.672C64.9354 75.2695 65.1347 74.8062 65.1347 74.2691C65.1347 73.732 64.962 73.2686 64.6113 72.9126C64.2598 72.5565 63.8163 72.3755 63.286 72.3755C62.8356 72.3892 62.4438 72.5231 62.1128 72.7779C61.5164 73.3014 60.8933 73.6909 60.2238 73.9526C59.5611 74.2143 58.8384 74.3421 58.0494 74.3421C57.1813 74.3421 56.3726 74.174 55.6103 73.8385C54.848 73.503 54.1853 73.0465 53.6147 72.4759C53.0449 71.9053 52.5937 71.2206 52.2689 70.4484C51.944 69.6693 51.7781 68.837 51.7781 67.9507C51.7781 67.0643 51.944 66.232 52.2689 65.453C52.5937 64.6739 53.0441 64.0029 53.6147 63.4254V63.4186L53.6139 63.4216Z" fill="#1D63ED"/>
</svg>
