<svg width="128" height="128" viewBox="0 0 128 128" fill="none" xmlns="http://www.w3.org/2000/svg">
<path d="M2.00173 93.6271H22.0385C32.7778 93.6271 41.5089 85.1739 42.0119 74.512H2.00173V93.6271Z" fill="#6BBF4E"/>
<path d="M21.8626 52.9192H2.00173V72.838H41.6637C41.166 61.7276 32.449 52.9192 21.8644 52.9192H21.8626Z" fill="#6BBF4E"/>
<path d="M106.081 52.9192C95.4344 52.9192 86.7789 61.7276 86.2812 72.838H125.943C125.446 61.7276 116.728 52.9192 106.144 52.9192" fill="#6BBF4E"/>
<path d="M106.202 93.6271C116.941 93.6271 125.672 85.1739 126.175 74.512H86.1652C86.6681 85.1739 95.4608 93.6271 106.139 93.6271" fill="#6BBF4E"/>
<path d="M44.1397 52.9192V73.4922C44.1397 84.5199 52.3609 93.4848 62.731 94.0001V52.9192H44.1397Z" fill="#6BBF4E"/>
<path d="M65.1243 53.3777V93.6268H84.1551V53.3777H65.1243Z" fill="#6BBF4E"/>
<path d="M15.6339 33H13.1544V42.9585H15.6339V33Z" fill="#6BBF4E"/>
<path d="M28.0281 38.0097C28.0281 41.0519 30.4443 42.9599 33.2333 42.9599C36.0223 42.9599 35.1536 42.7208 35.4649 42.603V40.039C35.3418 40.039 34.5346 40.5156 33.3582 40.5156C31.6858 40.5156 30.6307 39.3831 30.6307 37.9517C30.6307 36.5202 31.7456 35.3877 33.3582 35.3877C34.9707 35.3877 35.3418 35.8643 35.4649 35.9241V33.3602C35.2169 33.3004 34.35 33.0032 33.2333 33.0032C30.1963 33.0032 28.0281 35.0905 28.0281 37.9534" fill="#6BBF4E"/>
<path d="M2 38.0097C2 41.0519 4.41622 42.9599 7.20526 42.9599C9.99429 42.9599 9.12558 42.7208 9.43684 42.603V40.039C9.31374 40.039 8.50657 40.5156 7.39166 40.5156C5.7193 40.5156 4.66418 39.3831 4.66418 37.9517C4.66418 36.5202 5.77909 35.3877 7.39166 35.3877C9.00424 35.3877 9.37529 35.8643 9.43684 35.9241V33.3602C9.18888 33.3004 8.32193 33.0032 7.20526 33.0032C4.22982 33.0032 2 35.0905 2 37.9534" fill="#6BBF4E"/>
<path d="M43.5207 33C40.2288 33 37.9427 35.2193 37.9427 37.9801C37.9427 40.741 40.2938 42.9603 43.5207 42.9603C46.7476 42.9603 49.0988 40.741 49.0988 37.9801C49.0988 35.2193 46.7476 33 43.5207 33ZM43.5207 40.5001C41.9081 40.5001 40.7651 39.3606 40.7651 37.9801C40.7651 36.5997 41.975 35.4602 43.5207 35.4602C45.0665 35.4602 46.2763 36.5997 46.2763 37.9801C46.2763 39.3606 45.0665 40.5001 43.5207 40.5001Z" fill="#6BBF4E"/>
<path d="M22.9564 36.9602L22.2055 36.721C21.7272 36.6015 20.9781 36.4203 20.9781 35.8207C20.9781 35.221 21.5918 35.0399 22.6838 35.0399C23.7759 35.0399 24.7994 35.3406 24.7994 35.3406V33.3007C24.7308 33.3007 23.5033 33 22.1387 33C19.6152 33 18.1134 34.1993 18.1134 36C18.1134 37.8008 19.4095 38.4004 20.9112 38.819C21.0484 38.819 21.321 38.9385 21.525 38.9983C22.2073 39.1777 22.7524 39.4784 22.7524 39.9585C22.7524 40.4386 22.1387 40.8588 20.7741 40.8588C19.4095 40.8588 18.4546 40.5581 18.182 40.4984V42.7176C18.3192 42.7176 19.682 42.9568 21.1152 42.9568C23.2307 42.9568 25.5502 42.176 25.5502 39.7176C25.5502 37.2591 24.7308 37.4983 22.9582 36.9584L22.9564 36.9602Z" fill="#6BBF4E"/>
</svg>
