<svg width="128" height="128" viewBox="0 0 128 128" fill="none" xmlns="http://www.w3.org/2000/svg">
<path d="M19.5171 50.4728C11.0531 50.4728 4 54.0571 4 64.8722C4 73.4401 8.74275 78.8353 19.7353 78.8353C32.6743 78.8353 33.5036 70.3266 33.5036 70.3266H27.2342C27.2342 70.3266 25.8902 74.9082 19.353 74.9082C14.0287 74.9082 10.1993 71.3175 10.1993 66.2851H34.1597V63.1268C34.1597 58.148 30.9935 50.4728 19.5171 50.4728ZM19.2982 54.509C24.3663 54.509 27.8214 57.6086 27.8214 62.2541H10.3378C10.3378 57.3221 14.848 54.509 19.2982 54.509Z" fill="#E53238"/>
<path d="M34.1552 40V73.4041C34.1552 75.3001 34.0195 77.9626 34.0195 77.9626H39.999C39.999 77.9626 40.214 76.0505 40.214 74.3028C40.214 74.3028 43.1684 78.9172 51.2017 78.9172C59.6609 78.9172 65.4071 73.0537 65.4071 64.654C65.4071 56.8393 60.1292 50.5542 51.2153 50.5542C42.8682 50.5542 40.2744 55.054 40.2744 55.054V40H34.1552ZM49.6719 54.6859C55.4165 54.6859 59.0697 58.9423 59.0697 64.654C59.0697 70.7788 54.8505 74.7855 49.7131 74.7855C43.5818 74.7855 40.2744 70.006 40.2744 64.7083C40.2744 59.7719 43.242 54.6859 49.6719 54.6859Z" fill="#0064D2"/>
<path d="M80.2688 50.4728C67.5355 50.4728 66.719 57.4327 66.719 58.5452H73.0568C73.0568 58.5452 73.389 54.4818 79.8317 54.4818C84.0181 54.4818 87.2622 56.395 87.2622 60.0724V61.3814H79.8317C69.9671 61.3814 64.7521 64.2624 64.7521 70.1088C64.7521 75.862 69.5705 78.9923 76.0824 78.9923C84.9571 78.9923 87.8158 74.097 87.8158 74.097C87.8158 76.0442 87.9659 77.963 87.9659 77.963H93.6001C93.6001 77.963 93.3819 75.5847 93.3819 74.0631V60.9111C93.3819 52.2873 86.4141 50.4728 80.2688 50.4728ZM87.2622 65.3086V67.0539C87.2622 69.3304 85.8549 74.9901 77.571 74.9901C73.0348 74.9901 71.0899 72.73 71.0899 70.1084C71.0899 65.3393 77.6394 65.3086 87.2622 65.3086Z" fill="#F5AF02"/>
<path d="M89.9688 51.5642H97.0987L107.331 72.0301L117.541 51.5642H124L105.404 87.9999H98.6285L103.994 77.8429L89.9688 51.5642Z" fill="#86B817"/>
</svg>
