<svg width="128" height="128" viewBox="0 0 128 128" fill="none" xmlns="http://www.w3.org/2000/svg">
<path d="M82.9254 46.0039C91.249 46.0039 95.8329 49.9997 95.8502 57.3135C95.85 64.7975 91.0577 69.2519 82.9009 69.252H76.2593V81H67.8951C67.8951 80.9971 67.8843 77.2412 67.8843 74.7627V52.0205C67.8843 49.7499 67.8951 46.0039 67.8951 46.0039H82.9254ZM125.005 46V53.4043H117.975L108.304 53.4004V60.2979H116.209C119.469 60.2979 122.877 60.3075 122.915 60.3076V67.4912C122.876 67.4911 119.387 67.4814 116.209 67.4814H108.314V80.998H99.9849V46H125.005ZM51.231 46.0098C58.0409 46.0098 62.0347 49.2822 62.0347 54.8389C62.0347 57.4006 61.1952 59.4202 59.5972 60.8496C58.6717 61.6486 57.9165 62.0698 56.192 62.7002C58.2518 63.162 59.3444 63.6658 60.565 64.7178C62.3642 66.3158 63.2975 68.5848 63.3013 71.3535C63.3013 77.4084 59.0126 80.9824 51.6968 80.9824H40.2613C37.0767 80.9824 34.3941 80.9971 34.3941 80.9971C34.3939 80.9623 34.3765 77.8534 34.3765 74.9268V70.9873C33.7519 71.9779 32.8845 73.1954 32.3843 73.7031C29.3856 76.7343 25.8521 78.8613 21.7056 79.9189C19.5366 80.4765 17.3307 80.6674 15.108 80.2842C10.3563 79.4774 7.04552 76.8373 5.12946 72.417C4.77274 71.5679 4.49659 70.687 4.30524 69.7861C3.87387 67.4775 3.89971 65.1065 4.38044 62.8076C4.91554 60.5458 5.91529 58.4202 7.31598 56.5654C9.01364 54.2662 11.0827 52.3808 13.6656 51.1123C15.3422 50.2865 17.1013 49.7842 18.983 49.8379C20.8645 49.8916 22.5948 50.4218 24.0338 51.6729C25.7257 53.1483 26.4058 55.004 25.9976 57.2305C25.7496 58.4511 25.2249 59.5985 24.4644 60.585C23.1976 62.2738 21.6573 63.7388 19.9068 64.9189C17.3001 66.7331 14.3744 68.0399 11.2838 68.7705C10.6879 68.9142 10.0806 69.0101 9.47712 69.127C9.08823 69.2036 9.04385 69.244 9.1568 69.627C10.0727 72.683 11.9505 74.7854 15.1119 75.6074C16.784 76.029 18.5334 76.0461 20.2134 75.6572C24.2831 74.7662 27.5019 72.4685 30.0465 70.1367C31.5793 68.7322 33.1933 66.7359 34.3736 64.9961V51.9492C34.3736 49.7277 34.39 46.0574 34.3902 46.0098H51.231ZM42.6129 74.0518H50.3482C52.9961 74.0516 54.5943 72.5798 54.5943 70.0986C54.5943 67.6615 52.9885 66.2316 50.3062 66.2314H42.6129V74.0518ZM19.2183 53.9404C18.954 53.9653 18.6897 53.9822 18.4293 54.0186C17.3355 54.1833 16.2893 54.5813 15.3629 55.1855C12.7782 56.8123 10.9445 59.0791 9.71247 61.8496C9.23454 62.9216 8.92479 64.0611 8.7945 65.2275C8.7466 65.6376 8.82163 65.7148 9.21442 65.6631C9.47679 65.6248 9.73908 65.584 9.99762 65.5342C12.5378 65.0429 14.9642 64.081 17.1509 62.6982C18.7911 61.6598 20.2604 60.4297 21.4273 58.8662C21.7944 58.3909 22.0911 57.865 22.3072 57.3047C22.7556 56.0841 22.3721 55.0496 21.234 54.4307C20.6117 54.1064 19.92 53.9383 19.2183 53.9404ZM76.2418 62.0996H82.5064V62.1172C85.4474 62.117 87.1714 60.4517 87.1715 57.5586C87.1715 54.6654 85.5317 53.1515 82.5064 53.1514H76.2418V62.0996ZM42.6129 59.5049H50.0103C52.2388 59.5049 53.6265 58.2014 53.6265 56.1416C53.6265 54.0818 52.3234 52.9053 49.9283 52.9053H42.6129V59.5049Z" fill="white"/>
</svg>
