<svg width="128" height="128" viewBox="0 0 128 128" fill="none" xmlns="http://www.w3.org/2000/svg">
<path d="M78.5977 94.2393C85.1993 94.2393 88.8348 97.4074 88.8486 103.208C88.8486 109.144 85.0477 112.678 78.5781 112.678H73.3105V121.995H66.6768C66.6767 121.961 66.668 119.004 66.668 117.049V99.0107C66.668 97.2223 66.6766 94.28 66.6768 94.2393H78.5977ZM111.974 94.2354V100.107H106.397L98.7275 100.104V105.576H104.997C107.58 105.576 110.28 105.583 110.315 105.583V111.281C110.28 111.281 107.515 111.273 104.997 111.273H98.7354V121.993H92.1289V94.2354H111.974ZM53.4609 94.2402C58.8621 94.2402 62.0293 96.8359 62.0293 101.243C62.0293 103.275 61.3641 104.877 60.0967 106.011C59.3626 106.644 58.7633 106.979 57.3955 107.479C59.0292 107.845 59.8962 108.245 60.8643 109.079C62.2911 110.347 63.0311 112.146 63.0342 114.342C63.0342 119.144 59.6325 121.979 53.8301 121.979H44.7607C42.2524 121.979 40.1366 121.991 40.1074 121.991C40.1074 121.991 40.0938 119.51 40.0938 117.176V114.052C39.5983 114.837 38.9093 115.802 38.5127 116.205C36.1343 118.609 33.3317 120.296 30.043 121.135C28.3227 121.577 26.5734 121.73 24.8105 121.426C21.0417 120.786 18.4152 118.692 16.8955 115.186C16.6126 114.512 16.394 113.813 16.2422 113.099C15.9001 111.268 15.9205 109.387 16.3018 107.563C16.7262 105.77 17.519 104.083 18.6299 102.612C19.9763 100.789 21.6175 99.2932 23.666 98.2871C24.9958 97.6321 26.3914 97.2338 27.8838 97.2764C29.3761 97.3189 30.7484 97.7402 31.8896 98.7324C33.2316 99.9026 33.7709 101.374 33.4473 103.14C33.2506 104.108 32.8347 105.018 32.2314 105.801C31.2266 107.14 30.0047 108.302 28.6162 109.238C26.5488 110.677 24.2287 111.713 21.7773 112.293C21.3048 112.407 20.8233 112.484 20.3447 112.576C20.0362 112.637 20.0012 112.669 20.0908 112.973C20.8172 115.396 22.3061 117.064 24.8135 117.716C26.1397 118.05 27.5269 118.063 28.8594 117.755C32.0873 117.048 34.641 115.226 36.6592 113.377C37.8749 112.263 39.1547 110.68 40.0908 109.3V98.9512C40.0908 97.1776 40.1045 94.2402 40.1045 94.2402H53.4609ZM46.625 116.481H52.7607C54.8608 116.481 56.1278 115.315 56.1279 113.347C56.1279 111.414 54.8549 110.279 52.7275 110.279H46.625V116.481ZM27.4443 100.593C26.5769 100.723 25.7475 101.039 25.0127 101.519C22.9628 102.809 21.5084 104.606 20.5312 106.804C20.1522 107.654 19.907 108.558 19.8037 109.483C19.7658 109.808 19.8245 109.869 20.1357 109.828C20.3439 109.798 20.5526 109.766 20.7578 109.727C22.7724 109.337 24.6964 108.574 26.4307 107.478C27.7316 106.654 28.8977 105.678 29.8232 104.438C30.1143 104.061 30.3491 103.643 30.5205 103.199C30.8761 102.231 30.5722 101.411 29.6699 100.92C29.1764 100.663 28.6269 100.529 28.0703 100.53C27.8607 100.55 27.6509 100.564 27.4443 100.593ZM73.2969 107.005H78.2656V107.019C80.598 107.018 81.9656 105.698 81.9658 103.403C81.9658 101.109 80.665 99.9074 78.2656 99.9072H73.2969V107.005ZM46.625 104.943H52.4932C54.2606 104.943 55.3613 103.91 55.3613 102.276C55.3612 100.643 54.3273 99.71 52.4277 99.71H46.625V104.943Z" fill="white"/>
<path d="M71.0745 76.642C63.8717 62.7928 70.7146 51.3429 70.7146 51.3429L67.9759 47.5143L67.9631 47.4964L63.5092 45.9497C63.5092 45.9497 54.4534 55.7432 39.1341 52.7314C35.1141 63.1144 34.9967 69.1329 44.1265 79.3118L44.1418 79.3297C56.4928 85.218 62.2228 83.4033 71.0745 76.642Z" fill="#FFE100"/>
<path d="M65.8586 34.4566C62.9158 30.7225 45.5213 25.7249 32.0346 30.2605C14.3925 36.1948 32.3766 56.259 50.0237 52.9767C61.2618 50.8633 70.9379 40.909 65.8586 34.4566Z" fill="#D9F1FD"/>
<path d="M46.1333 38.8497L45.3906 37.5378C44.734 37.9446 44.1334 38.4354 43.6039 38.9978C41.8435 39.1435 40.0925 39.3864 38.3588 39.7252L38.4762 39.4266C33.9406 37.6399 32.3148 31.6112 32.2969 31.5525L30.7655 31.9507L29.2341 32.3463C29.2979 32.6015 30.6277 37.5838 34.4511 40.6849C31.6007 41.5224 28.8631 42.7044 26.2988 44.2046L27.9119 46.9357C32.1336 44.4445 36.7457 43.1071 41.2149 42.492C40.051 44.9423 39.2394 48.4288 39.8009 53.2349L42.9505 52.8674C42.2946 47.2777 43.7596 43.9341 45.0996 42.1168C51.4379 41.8032 57.7858 42.4994 63.9055 44.1791L64.8576 41.1622C58.7726 39.4314 52.4566 38.6514 46.1333 38.8497Z" fill="#00AEEF"/>
<path d="M81.14 45.8959C85.553 47.6698 95.2495 62.9483 94.6956 77.1676C93.9733 95.7694 69.6543 84.1637 67.8421 66.3047C66.6884 54.9313 73.5288 42.8381 81.14 45.8959Z" fill="#D9F1FD"/>
<path d="M93.4837 80.442L93.3765 77.2745C93.3178 77.2745 87.1053 77.4379 84.0833 73.5633L83.8281 73.7624C83.6665 72.0035 83.4066 70.2549 83.0496 68.525C83.4418 67.8618 83.7439 67.1494 83.9481 66.4065L82.4779 66.0542C80.8906 59.9341 78.3672 54.096 74.9969 48.7466L72.3603 50.5103C75.7023 55.903 78.1614 61.7949 79.6448 67.9634C78.2792 69.7654 75.4844 72.1161 69.9304 73.0682L70.4613 76.1923C75.2394 75.3781 78.3558 73.6144 80.3773 71.8048C81.0384 76.2689 81.0588 81.0673 79.8668 85.8275L82.9297 86.5932C83.6489 83.7107 84.0124 80.7508 84.0119 77.7799C87.6311 80.2761 92.1284 80.442 93.2387 80.442C93.3689 80.4471 93.4557 80.4446 93.4837 80.442Z" fill="#00AEEF"/>
<path d="M105.239 22.046C105.016 21.828 104.751 21.6561 104.461 21.5403C104.171 21.4245 103.861 21.3669 103.548 21.371C103.236 21.375 102.927 21.4405 102.64 21.5638C102.353 21.6871 102.093 21.8657 101.875 22.0894C98.4196 25.7 93.8674 28.0672 88.927 28.8226C87.7452 27.3625 86.3872 26.0543 84.8841 24.9277C82.9289 23.4575 80.7445 22.32 78.4189 21.5611C77.5545 16.3944 78.5107 11.0879 81.1244 6.548C81.2776 6.27533 81.3756 5.97516 81.4127 5.66462C81.4499 5.35409 81.4256 5.03927 81.3411 4.73815C81.2566 4.43703 81.1136 4.1555 80.9203 3.90963C80.727 3.66377 80.4872 3.45838 80.2145 3.3052C79.9418 3.15203 79.6417 3.05405 79.3311 3.01688C79.0206 2.97971 78.7058 3.00406 78.4047 3.08856C78.1035 3.17305 77.822 3.31603 77.5761 3.50933C77.3303 3.70263 77.1249 3.94246 76.9717 4.21513C74.1267 9.18257 72.9109 14.917 73.4954 20.6116C68.1864 20.267 63.1812 22.1609 60.1439 26.2268C59.6677 26.8693 59.2492 27.5526 58.8932 28.2687C51.3612 25.9333 40.5748 24.897 31.2765 28.0135C24.4745 30.3106 21.2942 35.0453 22.7644 40.7065C24.0993 45.8393 29.2755 50.916 35.9321 53.6572C34.3018 57.0717 33.6363 60.867 34.0076 64.6325C34.4849 69.1859 36.537 73.3999 39.9929 77.0115L38.1144 87.4099L47.5581 82.6777C50.8482 84.3802 54.2352 85.2531 57.6017 85.2531C58.784 85.2529 59.9638 85.1453 61.1266 84.9315C64.8485 84.2164 68.304 82.497 71.1191 79.9595C75.5143 85.4803 81.691 89 86.9438 89H87.3012C93.1461 88.8162 96.8037 84.4261 97.0819 77.2591C97.4647 67.4299 93.409 57.3505 89.0291 50.7756C89.6077 50.2384 90.1373 49.6507 90.6116 49.0196C93.1869 45.579 93.9782 41.1531 92.8398 36.5512C92.5478 35.3776 92.1435 34.2348 91.6325 33.1387C96.8416 31.9467 101.589 29.2597 105.293 25.4075C105.731 24.9544 105.972 24.346 105.962 23.7157C105.952 23.0854 105.692 22.4849 105.239 22.046ZM74.9962 49.6781C77.3322 53.7912 79.2501 58.1281 80.7211 62.6237L80.6471 62.611C80.6471 62.6799 79.3914 68.9434 71.6219 71.2635C70.9012 69.6081 70.4249 67.8568 70.2079 66.0643C69.5137 59.2316 71.9869 52.7231 74.9962 49.6781ZM67.9618 51.6945C66.2458 55.4283 65.3511 59.4869 65.338 63.5962C63.827 63.7978 60.7641 63.7978 57.566 61.4037C54.3679 59.0096 53.546 56.133 53.324 54.6067C57.2641 53.4382 60.907 51.4361 64.0056 48.7362C65.2099 49.8653 66.5369 50.8558 67.9618 51.6893V51.6945ZM49.9293 39.5681C54.6545 39.7142 59.3532 40.3342 63.9546 41.4186C61.8821 45.1655 56.3332 49.3718 49.5822 50.6301C47.8047 50.9568 45.9905 51.035 44.1916 50.8624C44.1584 42.7254 49.7021 39.7697 49.9574 39.6319L49.9293 39.5681ZM43.9185 30.8364C53.6175 30.8364 62.5227 34.0652 63.9903 35.9412C64.3809 36.4243 64.6526 36.9925 64.7834 37.5999C64.9141 38.2072 64.9004 38.8368 64.7433 39.4379C60.7033 38.4543 56.5851 37.8257 52.4357 37.5594C48.0589 37.2561 43.6618 37.4522 39.3293 38.1439C36.4936 36.9136 34.7835 34.1545 33.8825 32.1892C37.1473 31.2675 40.5261 30.8121 43.9185 30.8364ZM27.3689 39.5145C26.6031 36.5971 28.1346 34.3664 31.861 32.8783C32.6446 34.6446 34.0254 37.0464 36.2562 38.7692C33.4935 39.4168 30.8139 40.3785 28.2698 41.6355C27.8737 40.9686 27.5706 40.2507 27.3689 39.5017V39.5145ZM29.4975 43.3609C34.9366 40.7039 40.9832 39.7212 46.5678 39.5681C44.5923 41.4467 42.1394 44.9153 42.0833 50.5586C36.7641 49.5198 32.1316 46.5514 29.4975 43.3609ZM60.269 80.2351C55.7232 81.0672 50.9273 79.7247 46.3968 76.3249C40.0159 71.5596 36.1261 63.3945 40.4983 55.0789C41.2461 55.2448 42.0016 55.3826 42.7699 55.4822C43.2268 59.566 45.3376 65.4518 51.2336 69.8648C54.9495 72.6922 59.4869 74.2292 64.1562 74.2421C65.2681 74.2439 66.378 74.1516 67.4743 73.9665C67.7755 74.648 68.1073 75.3116 68.4621 75.9599C66.2062 78.1532 63.3584 79.6392 60.269 80.2351ZM82.8141 83.4358C78.5389 81.7283 74.8201 77.5653 72.5357 73.1982C77.8319 71.5392 80.4353 68.2517 81.6706 65.8499C83.0974 71.2814 83.8631 77.425 82.8141 83.4358ZM87.1531 84.2475C86.3824 84.2706 85.6116 84.2046 84.856 84.0509C85.3554 81.2309 85.5267 78.3625 85.3665 75.503C87.6457 77.157 90.341 77.8002 92.2579 78.0554C91.8725 82.0728 90.1573 84.1556 87.1429 84.2475H87.1531ZM92.3472 75.9344C90.2083 75.623 87.0791 74.7628 85.0985 72.384C84.541 68.0335 83.4903 63.7606 81.9667 59.6477C80.5429 55.7383 78.7784 51.9616 76.6935 48.361C77.3145 48.0008 78.0175 47.8057 78.7354 47.7944C79.2611 47.7968 79.7813 47.9017 80.2668 48.1033C83.2123 49.2901 92.3191 62.6671 92.337 75.9344H92.3472Z" fill="black"/>
</svg>
