<svg width="128" height="128" viewBox="0 0 128 128" fill="none" xmlns="http://www.w3.org/2000/svg">
<path d="M60.8639 109.079C59.8958 108.245 59.0295 107.845 57.3958 107.479C58.7636 106.979 59.3624 106.645 60.0964 106.011C61.3639 104.877 62.0295 103.275 62.0295 101.243C62.0295 96.8362 58.8624 94.2405 53.4612 94.2405H44.7241C41.9886 94.2405 40.1041 94.2405 40.1041 94.2405C40.1041 94.2405 40.0904 97.1781 40.0904 98.9517V109.3C39.1542 110.68 37.8746 112.263 36.6588 113.377C34.6406 115.227 32.0874 117.049 28.8594 117.755C27.5269 118.064 26.1401 118.05 24.8139 117.716C22.3063 117.064 20.8169 115.397 20.0905 112.973C20.0008 112.669 20.0358 112.637 20.3443 112.576C20.823 112.483 21.3048 112.407 21.7774 112.294C24.2287 111.714 26.5488 110.678 28.6163 109.239C30.0048 108.303 31.2269 107.141 32.2318 105.801C32.835 105.019 33.2509 104.108 33.4476 103.14C33.7713 101.374 33.2318 99.903 31.8898 98.7328C30.7485 97.7404 29.3761 97.3195 27.8838 97.2769C26.3914 97.2344 24.9962 97.6325 23.6665 98.2876C21.6178 99.2936 19.9765 100.789 18.63 102.613C17.519 104.084 16.7261 105.77 16.3017 107.564C15.9205 109.387 15.9003 111.268 16.2425 113.099C16.3942 113.813 16.613 114.512 16.896 115.186C18.4157 118.692 21.0418 120.786 24.8108 121.426C26.5737 121.73 28.323 121.578 30.0433 121.135C33.3321 120.296 36.1345 118.61 38.5129 116.205C38.9095 115.803 39.598 114.838 40.0934 114.052V117.176C40.0934 119.511 40.1071 121.991 40.1071 121.991C40.1071 121.991 42.2348 121.979 44.7606 121.979H53.8305C59.6329 121.979 63.0341 119.145 63.0341 114.342C63.031 112.146 62.2909 110.347 60.8639 109.079ZM19.8032 109.483C19.9066 108.558 20.1521 107.655 20.5312 106.804C21.5084 104.607 22.9628 102.809 25.0129 101.519C25.7478 101.039 26.5771 100.724 27.4446 100.593C27.6512 100.564 27.861 100.55 28.0707 100.531C28.6273 100.529 29.1759 100.662 29.6695 100.92C30.5722 101.411 30.8761 102.231 30.5205 103.199C30.3491 103.644 30.1141 104.061 29.823 104.438C28.8974 105.678 27.7318 106.654 26.4309 107.477C24.6965 108.574 22.7724 109.337 20.7576 109.727C20.5525 109.766 20.3443 109.798 20.1361 109.828C19.8245 109.87 19.7652 109.809 19.8032 109.483ZM46.6253 99.71H52.4277C54.3274 99.71 55.3609 100.643 55.3609 102.277C55.3609 103.911 54.2606 104.944 52.4931 104.944H46.6253V99.71ZM52.7605 116.482H46.6253V110.28H52.7271C54.8548 110.28 56.1283 111.414 56.1283 113.347C56.1283 115.315 54.8608 116.482 52.7605 116.482Z" fill="black"/>
<path d="M78.598 94.239H71.3032H66.6771C66.6771 94.239 66.668 97.2101 66.668 99.011V117.049C66.668 119.015 66.6771 121.996 66.6771 121.996H73.3108C73.3108 121.996 73.3108 118.915 73.3108 116.949V112.678H78.5783C85.0478 112.678 88.8487 109.145 88.8487 103.209C88.8351 97.4077 85.1998 94.239 78.598 94.239ZM78.2652 107.005H73.2971V99.9077H78.2652C80.6649 99.9077 81.9658 101.108 81.9658 103.403C81.9658 105.698 80.598 107.019 78.2652 107.019V107.005Z" fill="black"/>
<path d="M106.398 100.108C109.199 100.108 111.974 100.108 111.974 100.108V94.2356C111.974 94.2356 109.297 94.2356 106.364 94.2356H96.7274C94.1591 94.2356 92.1287 94.2356 92.1287 94.2356C92.1287 94.2356 92.1287 96.807 92.1287 99.0076V116.279C92.1287 119.181 92.1287 121.994 92.1287 121.994H98.735C98.735 121.994 98.735 119.314 98.735 116.179V111.273H104.996C107.531 111.273 110.316 111.281 110.316 111.281V105.584C110.316 105.584 107.597 105.576 104.996 105.576H98.7274V100.105L106.398 100.108Z" fill="black"/>
<path d="M71.0745 76.642C63.8717 62.7928 70.7146 51.3429 70.7146 51.3429L67.9759 47.5143L67.9631 47.4964L63.5092 45.9497C63.5092 45.9497 54.4534 55.7432 39.1341 52.7314C35.1141 63.1144 34.9967 69.1329 44.1265 79.3118L44.1418 79.3297C56.4928 85.218 62.2228 83.4033 71.0745 76.642Z" fill="#FFE100"/>
<path d="M65.8586 34.4566C62.9158 30.7225 45.5213 25.7249 32.0346 30.2605C14.3925 36.1948 32.3766 56.259 50.0237 52.9767C61.2618 50.8633 70.9379 40.909 65.8586 34.4566Z" fill="#D9F1FD"/>
<path d="M46.1333 38.8497L45.3906 37.5378C44.734 37.9446 44.1334 38.4354 43.6039 38.9978C41.8435 39.1435 40.0925 39.3864 38.3588 39.7252L38.4762 39.4266C33.9406 37.6399 32.3148 31.6112 32.2969 31.5525L30.7655 31.9507L29.2341 32.3463C29.2979 32.6015 30.6277 37.5838 34.4511 40.6849C31.6007 41.5224 28.8631 42.7044 26.2988 44.2046L27.9119 46.9357C32.1336 44.4445 36.7457 43.1071 41.2149 42.492C40.051 44.9423 39.2394 48.4288 39.8009 53.2349L42.9505 52.8674C42.2946 47.2777 43.7596 43.9341 45.0996 42.1168C51.4379 41.8032 57.7858 42.4994 63.9055 44.1791L64.8576 41.1622C58.7726 39.4314 52.4566 38.6514 46.1333 38.8497Z" fill="#00AEEF"/>
<path d="M81.14 45.8959C85.553 47.6698 95.2495 62.9483 94.6956 77.1676C93.9733 95.7694 69.6543 84.1637 67.8421 66.3047C66.6884 54.9313 73.5288 42.8381 81.14 45.8959Z" fill="#D9F1FD"/>
<path d="M93.4837 80.442L93.3765 77.2745C93.3178 77.2745 87.1053 77.4379 84.0833 73.5633L83.8281 73.7624C83.6665 72.0035 83.4066 70.2549 83.0496 68.525C83.4418 67.8618 83.7439 67.1494 83.9481 66.4065L82.4779 66.0542C80.8906 59.9341 78.3672 54.096 74.9969 48.7466L72.3603 50.5103C75.7023 55.903 78.1614 61.7949 79.6448 67.9634C78.2792 69.7654 75.4844 72.1161 69.9304 73.0682L70.4613 76.1923C75.2394 75.3781 78.3558 73.6144 80.3773 71.8048C81.0384 76.2689 81.0588 81.0673 79.8668 85.8275L82.9297 86.5932C83.6489 83.7107 84.0124 80.7508 84.0119 77.7799C87.6311 80.2761 92.1284 80.442 93.2387 80.442C93.3689 80.4471 93.4557 80.4446 93.4837 80.442Z" fill="#00AEEF"/>
<path d="M105.239 22.046C105.016 21.828 104.751 21.6561 104.461 21.5403C104.171 21.4245 103.861 21.3669 103.548 21.371C103.236 21.375 102.927 21.4405 102.64 21.5638C102.353 21.6871 102.093 21.8657 101.875 22.0894C98.4196 25.7 93.8674 28.0672 88.927 28.8226C87.7452 27.3625 86.3872 26.0543 84.8841 24.9277C82.9289 23.4575 80.7445 22.32 78.4189 21.5611C77.5545 16.3944 78.5107 11.0879 81.1244 6.548C81.2776 6.27533 81.3756 5.97516 81.4127 5.66462C81.4499 5.35409 81.4256 5.03927 81.3411 4.73815C81.2566 4.43703 81.1136 4.1555 80.9203 3.90963C80.727 3.66377 80.4872 3.45838 80.2145 3.3052C79.9418 3.15203 79.6417 3.05405 79.3311 3.01688C79.0206 2.97971 78.7058 3.00406 78.4047 3.08856C78.1035 3.17305 77.822 3.31603 77.5761 3.50933C77.3303 3.70263 77.1249 3.94246 76.9717 4.21513C74.1267 9.18257 72.9109 14.917 73.4954 20.6116C68.1864 20.267 63.1812 22.1609 60.1439 26.2268C59.6677 26.8693 59.2492 27.5526 58.8932 28.2687C51.3612 25.9333 40.5748 24.897 31.2765 28.0135C24.4745 30.3106 21.2942 35.0453 22.7644 40.7065C24.0993 45.8393 29.2755 50.916 35.9321 53.6572C34.3018 57.0717 33.6363 60.867 34.0076 64.6325C34.4849 69.1859 36.537 73.3999 39.9929 77.0115L38.1144 87.4099L47.5581 82.6777C50.8482 84.3802 54.2352 85.2531 57.6017 85.2531C58.784 85.2529 59.9638 85.1453 61.1266 84.9315C64.8485 84.2164 68.304 82.497 71.1191 79.9595C75.5143 85.4803 81.691 89 86.9438 89H87.3012C93.1461 88.8162 96.8037 84.4261 97.0819 77.2591C97.4647 67.4299 93.409 57.3505 89.0291 50.7756C89.6077 50.2384 90.1373 49.6507 90.6116 49.0196C93.1869 45.579 93.9782 41.1531 92.8398 36.5512C92.5478 35.3776 92.1435 34.2348 91.6325 33.1387C96.8416 31.9467 101.589 29.2597 105.293 25.4075C105.731 24.9544 105.972 24.346 105.962 23.7157C105.952 23.0854 105.692 22.4849 105.239 22.046ZM74.9962 49.6781C77.3322 53.7912 79.2501 58.1281 80.7211 62.6237L80.6471 62.611C80.6471 62.6799 79.3914 68.9434 71.6219 71.2635C70.9012 69.6081 70.4249 67.8568 70.2079 66.0643C69.5137 59.2316 71.9869 52.7231 74.9962 49.6781ZM67.9618 51.6945C66.2458 55.4283 65.3511 59.4869 65.338 63.5962C63.827 63.7978 60.7641 63.7978 57.566 61.4037C54.3679 59.0096 53.546 56.133 53.324 54.6067C57.2641 53.4382 60.907 51.4361 64.0056 48.7362C65.2099 49.8653 66.5369 50.8558 67.9618 51.6893V51.6945ZM49.9293 39.5681C54.6545 39.7142 59.3532 40.3342 63.9546 41.4186C61.8821 45.1655 56.3332 49.3718 49.5822 50.6301C47.8047 50.9568 45.9905 51.035 44.1916 50.8624C44.1584 42.7254 49.7021 39.7697 49.9574 39.6319L49.9293 39.5681ZM43.9185 30.8364C53.6175 30.8364 62.5227 34.0652 63.9903 35.9412C64.3809 36.4243 64.6526 36.9925 64.7834 37.5999C64.9141 38.2072 64.9004 38.8368 64.7433 39.4379C60.7033 38.4543 56.5851 37.8257 52.4357 37.5594C48.0589 37.2561 43.6618 37.4522 39.3293 38.1439C36.4936 36.9136 34.7835 34.1545 33.8825 32.1892C37.1473 31.2675 40.5261 30.8121 43.9185 30.8364ZM27.3689 39.5145C26.6031 36.5971 28.1346 34.3664 31.861 32.8783C32.6446 34.6446 34.0254 37.0464 36.2562 38.7692C33.4935 39.4168 30.8139 40.3785 28.2698 41.6355C27.8737 40.9686 27.5706 40.2507 27.3689 39.5017V39.5145ZM29.4975 43.3609C34.9366 40.7039 40.9832 39.7212 46.5678 39.5681C44.5923 41.4467 42.1394 44.9153 42.0833 50.5586C36.7641 49.5198 32.1316 46.5514 29.4975 43.3609ZM60.269 80.2351C55.7232 81.0672 50.9273 79.7247 46.3968 76.3249C40.0159 71.5596 36.1261 63.3945 40.4983 55.0789C41.2461 55.2448 42.0016 55.3826 42.7699 55.4822C43.2268 59.566 45.3376 65.4518 51.2336 69.8648C54.9495 72.6922 59.4869 74.2292 64.1562 74.2421C65.2681 74.2439 66.378 74.1516 67.4743 73.9665C67.7755 74.648 68.1073 75.3116 68.4621 75.9599C66.2062 78.1532 63.3584 79.6392 60.269 80.2351ZM82.8141 83.4358C78.5389 81.7283 74.8201 77.5653 72.5357 73.1982C77.8319 71.5392 80.4353 68.2517 81.6706 65.8499C83.0974 71.2814 83.8631 77.425 82.8141 83.4358ZM87.1531 84.2475C86.3824 84.2706 85.6116 84.2046 84.856 84.0509C85.3554 81.2309 85.5267 78.3625 85.3665 75.503C87.6457 77.157 90.341 77.8002 92.2579 78.0554C91.8725 82.0728 90.1573 84.1556 87.1429 84.2475H87.1531ZM92.3472 75.9344C90.2083 75.623 87.0791 74.7628 85.0985 72.384C84.541 68.0335 83.4903 63.7606 81.9667 59.6477C80.5429 55.7383 78.7784 51.9616 76.6935 48.361C77.3145 48.0008 78.0175 47.8057 78.7354 47.7944C79.2611 47.7968 79.7813 47.9017 80.2668 48.1033C83.2123 49.2901 92.3191 62.6671 92.337 75.9344H92.3472Z" fill="black"/>
</svg>
