<svg width="128" height="128" viewBox="0 0 128 128" fill="none" xmlns="http://www.w3.org/2000/svg">
<path d="M121.573 30.5759C121.261 30.2716 120.892 30.0318 120.487 29.8702C120.083 29.7086 119.65 29.6283 119.214 29.6339C118.778 29.6395 118.347 29.731 117.947 29.903C117.546 30.075 117.184 30.3242 116.879 30.6364C112.058 35.6744 105.706 38.9774 98.8122 40.0315C97.1631 37.9942 95.2682 36.1687 93.1708 34.5967C90.4427 32.5453 87.3947 30.9582 84.1497 29.8992C82.9435 22.6899 84.2778 15.2854 87.9248 8.9507C88.1386 8.57023 88.2753 8.15138 88.3271 7.71808C88.379 7.28477 88.345 6.8455 88.2271 6.42533C88.1092 6.00516 87.9097 5.61232 87.64 5.26926C87.3703 4.92619 87.0356 4.6396 86.6552 4.42587C86.2747 4.21213 85.8559 4.07542 85.4225 4.02356C84.9892 3.97169 84.55 4.00567 84.1298 4.12357C83.7096 4.24147 83.3168 4.44098 82.9737 4.71069C82.6307 4.98041 82.3441 5.31506 82.1303 5.69553C78.1606 12.6268 76.4641 20.6284 77.2796 28.5743C69.8718 28.0935 62.8878 30.7361 58.6497 36.4095C57.9852 37.306 57.4013 38.2595 56.9046 39.2587C46.3947 36 31.344 34.554 18.3697 38.9025C8.87839 42.1079 4.44082 48.7144 6.49221 56.6137C8.35485 63.7758 15.5775 70.8595 24.8657 74.6845C22.591 79.4489 21.6624 84.7447 22.1804 89.9988C22.8464 96.3524 25.7098 102.232 30.532 107.272L27.9108 121.781L41.0882 115.178C45.6789 117.554 50.4049 118.772 55.1025 118.772C56.7521 118.771 58.3984 118.621 60.0209 118.323C65.2142 117.325 70.0358 114.926 73.9639 111.385C80.0968 119.089 88.7155 124 96.0449 124H96.5435C104.699 123.744 109.803 117.618 110.191 107.617C110.725 93.9021 105.066 79.8379 98.9546 70.6636C99.762 69.9141 100.501 69.0941 101.163 68.2133C104.756 63.4125 105.86 57.2369 104.272 50.8156C103.864 49.178 103.3 47.5835 102.587 46.054C109.856 44.3907 116.48 40.6414 121.648 35.2663C122.26 34.6341 122.595 33.7851 122.581 32.9056C122.567 32.0262 122.205 31.1882 121.573 30.5759ZM79.3738 69.1322C82.6333 74.8714 85.3095 80.9229 87.3621 87.1959L87.2588 87.1781C87.2588 87.2743 85.5066 96.0141 74.6655 99.2514C73.6598 96.9416 72.9952 94.4978 72.6925 91.9967C71.7238 82.4627 75.1748 73.381 79.3738 69.1322ZM69.5584 71.9457C67.164 77.1558 65.9155 82.819 65.8972 88.5528C63.7889 88.8342 59.5151 88.8342 55.0526 85.4935C50.5901 82.1529 49.4433 78.1391 49.1335 76.0094C54.6314 74.3788 59.7145 71.5853 64.0382 67.818C65.7186 69.3934 67.5702 70.7756 69.5584 71.9386V71.9457ZM44.3968 55.0253C50.9901 55.2292 57.5463 56.0942 63.9669 57.6073C61.075 62.8355 53.3324 68.7048 43.9124 70.4606C41.4322 70.9165 38.9008 71.0256 36.3906 70.7847C36.3443 59.4308 44.0798 55.3066 44.4359 55.1143L44.3968 55.0253ZM36.0095 42.8415C49.5431 42.8415 61.969 47.3468 64.0168 49.9644C64.5618 50.6386 64.9409 51.4314 65.1233 52.2789C65.3058 53.1264 65.2867 54.0049 65.0674 54.8436C59.4303 53.4711 53.684 52.594 47.8941 52.2224C41.7869 51.7992 35.6513 52.0728 29.606 53.038C25.6493 51.3214 23.2631 47.4714 22.0059 44.7291C26.5615 43.443 31.276 42.8075 36.0095 42.8415ZM12.9171 54.9505C11.8486 50.8797 13.9855 47.767 19.1852 45.6907C20.2786 48.1552 22.2053 51.5065 25.318 53.9105C21.463 54.8141 17.7241 56.156 14.1743 57.91C13.6215 56.9795 13.1985 55.9778 12.9171 54.9327V54.9505ZM15.8873 60.3176C23.4768 56.6101 31.9139 55.239 39.7063 55.0253C36.9498 57.6465 33.5272 62.4865 33.4488 70.3609C26.0268 68.9114 19.5627 64.7694 15.8873 60.3176ZM58.8242 111.77C52.4813 112.931 45.7893 111.058 39.4677 106.314C30.5641 99.6646 25.1364 88.2715 31.2372 76.6682C32.2807 76.8997 33.3349 77.0921 34.4069 77.2309C35.0444 82.9293 37.9897 91.142 46.2167 97.2998C51.4017 101.245 57.733 103.39 64.2483 103.408C65.7997 103.41 67.3485 103.281 68.8782 103.023C69.2984 103.974 69.7614 104.9 70.2565 105.805C67.1087 108.865 63.135 110.938 58.8242 111.77ZM90.2825 116.236C84.3171 113.853 79.128 108.045 75.9405 101.951C83.3306 99.6361 86.9632 95.0489 88.687 91.6976C90.6778 99.2764 91.7463 107.849 90.2825 116.236ZM96.337 117.369C95.2616 117.401 94.186 117.309 93.1317 117.094C93.8285 113.159 94.0675 109.157 93.844 105.167C97.0243 107.475 100.785 108.372 103.46 108.728C102.922 114.334 100.529 117.24 96.3227 117.369H96.337ZM103.585 105.769C100.6 105.334 96.2337 104.134 93.47 100.815C92.6922 94.7444 91.2261 88.7822 89.1001 83.0433C87.1134 77.5883 84.6512 72.3185 81.7421 67.2945C82.6087 66.7918 83.5896 66.5196 84.5913 66.5038C85.3248 66.5072 86.0507 66.6536 86.7282 66.9348C90.8381 68.5909 103.545 87.2564 103.57 105.769H103.585Z" fill="white"/>
</svg>
