<svg width="128" height="128" viewBox="0 0 128 128" fill="none" xmlns="http://www.w3.org/2000/svg">
<path d="M78.5978 94.2393C85.1995 94.2393 88.8349 97.4074 88.8488 103.208C88.8488 109.144 85.0478 112.678 78.5783 112.678H73.3107V121.995H66.6769C66.6768 121.961 66.6681 119.004 66.6681 117.049V99.0107C66.6681 97.2223 66.6768 94.28 66.6769 94.2393H78.5978ZM111.974 94.2354V100.107H106.398L98.7277 100.104V105.576H104.997C107.58 105.576 110.28 105.583 110.316 105.583V111.281C110.28 111.281 107.516 111.273 104.997 111.273H98.7355V121.993H92.129V94.2354H111.974ZM53.4611 94.2402C58.8622 94.2402 62.0294 96.8359 62.0294 101.243C62.0294 103.275 61.3642 104.877 60.0968 106.011C59.3628 106.644 58.7634 106.979 57.3956 107.479C59.0294 107.845 59.8963 108.245 60.8644 109.079C62.2912 110.347 63.0313 112.146 63.0343 114.342C63.0343 119.144 59.6326 121.979 53.8302 121.979H44.7609C42.2525 121.979 40.1367 121.991 40.1076 121.991C40.1076 121.991 40.0939 119.51 40.0939 117.176V114.052C39.5984 114.837 38.9095 115.802 38.5128 116.205C36.1344 118.609 33.3318 120.296 30.0431 121.135C28.3228 121.577 26.5735 121.73 24.8107 121.426C21.0418 120.786 18.4154 118.692 16.8956 115.186C16.6127 114.512 16.3941 113.813 16.2423 113.099C15.9002 111.268 15.9206 109.387 16.3019 107.563C16.7263 105.77 17.5191 104.083 18.63 102.612C19.9764 100.789 21.6177 99.2932 23.6661 98.2871C24.9959 97.6321 26.3915 97.2338 27.8839 97.2764C29.3762 97.3189 30.7485 97.7402 31.8898 98.7324C33.2317 99.9026 33.771 101.374 33.4474 103.14C33.2507 104.108 32.8348 105.018 32.2316 105.801C31.2267 107.14 30.0048 108.302 28.6163 109.238C26.5489 110.677 24.2288 111.713 21.7775 112.293C21.305 112.407 20.8234 112.484 20.3449 112.576C20.0363 112.637 20.0013 112.669 20.091 112.973C20.8174 115.396 22.3063 117.064 24.8136 117.716C26.1398 118.05 27.527 118.063 28.8595 117.755C32.0875 117.048 34.6411 115.226 36.6593 113.377C37.875 112.263 39.1548 110.68 40.091 109.3V98.9512C40.091 97.1776 40.1046 94.2402 40.1046 94.2402H53.4611ZM46.6251 116.481H52.7609C54.861 116.481 56.128 115.315 56.1281 113.347C56.1281 111.414 54.8551 110.279 52.7277 110.279H46.6251V116.481ZM27.4445 100.593C26.577 100.723 25.7476 101.039 25.0128 101.519C22.9629 102.809 21.5085 104.606 20.5314 106.804C20.1523 107.654 19.9072 108.558 19.8038 109.483C19.7659 109.808 19.8246 109.869 20.1359 109.828C20.3441 109.798 20.5528 109.766 20.7579 109.727C22.7725 109.337 24.6965 108.574 26.4308 107.478C27.7317 106.654 28.8978 105.678 29.8234 104.438C30.1144 104.061 30.3493 103.643 30.5206 103.199C30.8762 102.231 30.5724 101.411 29.6701 100.92C29.1765 100.663 28.627 100.529 28.0704 100.53C27.8608 100.55 27.651 100.564 27.4445 100.593ZM73.297 107.005H78.2658V107.019C80.5982 107.018 81.9658 105.698 81.966 103.403C81.966 101.109 80.6652 99.9074 78.2658 99.9072H73.297V107.005ZM46.6251 104.943H52.4933C54.2607 104.943 55.3615 103.91 55.3615 102.276C55.3613 100.643 54.3274 99.71 52.4279 99.71H46.6251V104.943Z" fill="white"/>
<path d="M105.239 22.046C105.016 21.828 104.751 21.6561 104.461 21.5403C104.171 21.4245 103.861 21.3669 103.548 21.371C103.236 21.375 102.927 21.4405 102.64 21.5638C102.353 21.6871 102.093 21.8657 101.875 22.0894C98.4196 25.7 93.8674 28.0672 88.927 28.8226C87.7452 27.3625 86.3872 26.0543 84.8841 24.9277C82.9289 23.4575 80.7445 22.32 78.4189 21.5611C77.5545 16.3944 78.5107 11.0879 81.1244 6.548C81.2776 6.27533 81.3756 5.97516 81.4127 5.66462C81.4499 5.35409 81.4256 5.03927 81.3411 4.73815C81.2566 4.43703 81.1136 4.1555 80.9203 3.90963C80.727 3.66377 80.4872 3.45838 80.2145 3.3052C79.9418 3.15203 79.6417 3.05405 79.3311 3.01688C79.0206 2.97971 78.7058 3.00406 78.4047 3.08856C78.1035 3.17305 77.822 3.31603 77.5761 3.50933C77.3303 3.70263 77.1249 3.94246 76.9717 4.21513C74.1267 9.18257 72.9109 14.917 73.4954 20.6116C68.1864 20.267 63.1812 22.1609 60.1439 26.2268C59.6677 26.8693 59.2492 27.5526 58.8932 28.2687C51.3612 25.9333 40.5748 24.897 31.2765 28.0135C24.4745 30.3106 21.2942 35.0453 22.7644 40.7065C24.0993 45.8393 29.2755 50.916 35.9321 53.6572C34.3018 57.0717 33.6363 60.867 34.0076 64.6325C34.4849 69.1859 36.537 73.3999 39.9929 77.0115L38.1144 87.4099L47.5581 82.6777C50.8482 84.3802 54.2352 85.2531 57.6017 85.2531C58.784 85.2529 59.9638 85.1453 61.1266 84.9315C64.8485 84.2164 68.304 82.497 71.1191 79.9595C75.5143 85.4803 81.691 89 86.9438 89H87.3012C93.1461 88.8162 96.8037 84.4261 97.0819 77.2591C97.4647 67.4299 93.409 57.3505 89.0291 50.7756C89.6077 50.2384 90.1373 49.6507 90.6116 49.0196C93.1869 45.579 93.9782 41.1531 92.8398 36.5512C92.5478 35.3776 92.1435 34.2348 91.6325 33.1387C96.8416 31.9467 101.589 29.2597 105.293 25.4075C105.731 24.9544 105.972 24.346 105.962 23.7157C105.952 23.0854 105.692 22.4849 105.239 22.046ZM74.9962 49.6781C77.3322 53.7912 79.2501 58.1281 80.7211 62.6237L80.6471 62.611C80.6471 62.6799 79.3914 68.9434 71.6219 71.2635C70.9012 69.6081 70.4249 67.8568 70.2079 66.0643C69.5137 59.2316 71.9869 52.7231 74.9962 49.6781ZM67.9618 51.6945C66.2458 55.4283 65.3511 59.4869 65.338 63.5962C63.827 63.7978 60.7641 63.7978 57.566 61.4037C54.3679 59.0096 53.546 56.133 53.324 54.6067C57.2641 53.4382 60.907 51.4361 64.0056 48.7362C65.2099 49.8653 66.5369 50.8558 67.9618 51.6893V51.6945ZM49.9293 39.5681C54.6545 39.7142 59.3532 40.3342 63.9546 41.4186C61.8821 45.1655 56.3332 49.3718 49.5822 50.6301C47.8047 50.9568 45.9905 51.035 44.1916 50.8624C44.1584 42.7254 49.7021 39.7697 49.9574 39.6319L49.9293 39.5681ZM43.9185 30.8364C53.6175 30.8364 62.5227 34.0652 63.9903 35.9412C64.3809 36.4243 64.6526 36.9925 64.7834 37.5999C64.9141 38.2072 64.9004 38.8368 64.7433 39.4379C60.7033 38.4543 56.5851 37.8257 52.4357 37.5594C48.0589 37.2561 43.6618 37.4522 39.3293 38.1439C36.4936 36.9136 34.7835 34.1545 33.8825 32.1892C37.1473 31.2675 40.5261 30.8121 43.9185 30.8364ZM27.3689 39.5145C26.6031 36.5971 28.1346 34.3664 31.861 32.8783C32.6446 34.6446 34.0254 37.0464 36.2562 38.7692C33.4935 39.4168 30.8139 40.3785 28.2698 41.6355C27.8737 40.9686 27.5706 40.2507 27.3689 39.5017V39.5145ZM29.4975 43.3609C34.9366 40.7039 40.9832 39.7212 46.5678 39.5681C44.5923 41.4467 42.1394 44.9153 42.0833 50.5586C36.7641 49.5198 32.1316 46.5514 29.4975 43.3609ZM60.269 80.2351C55.7232 81.0672 50.9273 79.7247 46.3968 76.3249C40.0159 71.5596 36.1261 63.3945 40.4983 55.0789C41.2461 55.2448 42.0016 55.3826 42.7699 55.4822C43.2268 59.566 45.3376 65.4518 51.2336 69.8648C54.9495 72.6922 59.4869 74.2292 64.1562 74.2421C65.2681 74.2439 66.378 74.1516 67.4743 73.9665C67.7755 74.648 68.1073 75.3116 68.4621 75.9599C66.2062 78.1532 63.3584 79.6392 60.269 80.2351ZM82.8141 83.4358C78.5389 81.7283 74.8201 77.5653 72.5357 73.1982C77.8319 71.5392 80.4353 68.2517 81.6706 65.8499C83.0974 71.2814 83.8631 77.425 82.8141 83.4358ZM87.1531 84.2475C86.3824 84.2706 85.6116 84.2046 84.856 84.0509C85.3554 81.2309 85.5267 78.3625 85.3665 75.503C87.6457 77.157 90.341 77.8002 92.2579 78.0554C91.8725 82.0728 90.1573 84.1556 87.1429 84.2475H87.1531ZM92.3472 75.9344C90.2083 75.623 87.0791 74.7628 85.0985 72.384C84.541 68.0335 83.4903 63.7606 81.9667 59.6477C80.5429 55.7383 78.7784 51.9616 76.6935 48.361C77.3145 48.0008 78.0175 47.8057 78.7354 47.7944C79.2611 47.7968 79.7813 47.9017 80.2668 48.1033C83.2123 49.2901 92.3191 62.6671 92.337 75.9344H92.3472Z" fill="white"/>
</svg>
