<svg width="128" height="128" viewBox="0 0 128 128" fill="none" xmlns="http://www.w3.org/2000/svg">
<path d="M106.345 118.857V117.032H107.343C107.589 117.032 107.762 116.978 107.862 116.868C107.963 116.763 108.056 116.579 108.143 116.314L108.266 115.986L105.49 108.781H107.951L109.018 112.104C109.095 112.354 109.17 112.605 109.243 112.855C109.316 113.106 109.389 113.359 109.462 113.614C109.53 113.359 109.601 113.106 109.674 112.855C109.751 112.605 109.829 112.354 109.906 112.104L110.993 108.781H113.427L110.316 117.019C110.07 117.67 109.76 118.14 109.387 118.427C109.018 118.714 108.53 118.857 107.924 118.857H106.345Z" fill="black"/>
<path d="M100.671 116.123C99.9463 116.123 99.3516 115.948 98.8867 115.597C98.4264 115.241 98.1963 114.703 98.1963 113.983C98.1963 113.441 98.3216 113.013 98.5723 112.698C98.8275 112.384 99.167 112.151 99.5908 112.001C100.015 111.851 100.484 111.755 100.999 111.714C101.646 111.659 102.102 111.593 102.366 111.516C102.631 111.438 102.763 111.29 102.763 111.071V111.037C102.763 110.823 102.672 110.65 102.489 110.518C102.312 110.381 102.068 110.312 101.758 110.312C101.43 110.312 101.168 110.385 100.972 110.531C100.78 110.677 100.673 110.873 100.65 111.119H98.4629C98.513 110.335 98.8252 109.725 99.3994 109.287C99.9782 108.845 100.792 108.624 101.84 108.624C102.888 108.624 103.692 108.845 104.253 109.287C104.813 109.725 105.094 110.342 105.094 111.14V116H102.797V114.988H102.77C102.555 115.376 102.28 115.663 101.942 115.85C101.605 116.032 101.181 116.123 100.671 116.123ZM101.389 114.585C101.781 114.585 102.111 114.478 102.38 114.264C102.649 114.045 102.783 113.758 102.783 113.402V112.746C102.66 112.805 102.489 112.858 102.271 112.903C102.052 112.949 101.797 112.997 101.505 113.047C101.19 113.097 100.931 113.188 100.726 113.32C100.525 113.452 100.425 113.637 100.425 113.874C100.425 114.097 100.514 114.273 100.691 114.4C100.869 114.523 101.102 114.585 101.389 114.585Z" fill="black"/>
<path d="M88.3936 116L86.1719 108.781H88.6465L89.207 111.037C89.3073 111.456 89.403 111.892 89.4941 112.343C89.5898 112.789 89.6855 113.236 89.7812 113.683C89.8861 113.236 89.9909 112.789 90.0957 112.343C90.2051 111.892 90.3145 111.456 90.4238 111.037L91.0186 108.781H93.1035L93.6982 111.037C93.8076 111.456 93.9147 111.892 94.0195 112.343C94.1289 112.789 94.236 113.236 94.3408 113.683C94.432 113.236 94.5208 112.789 94.6074 112.343C94.6986 111.896 94.7943 111.461 94.8945 111.037L95.4346 108.781H97.9502L95.7285 116H93.3018L92.502 113.3C92.4245 113.031 92.3493 112.757 92.2764 112.479C92.2035 112.197 92.1328 111.914 92.0645 111.632C91.9915 111.914 91.9186 112.197 91.8457 112.479C91.7728 112.757 91.6976 113.031 91.6201 113.3L90.8203 116H88.3936Z" fill="black"/>
<path d="M82.3711 116.164C81.6328 116.164 80.9834 116.002 80.4229 115.679C79.8669 115.355 79.4316 114.911 79.1172 114.346C78.8073 113.776 78.6523 113.124 78.6523 112.391C78.6523 111.657 78.8073 111.007 79.1172 110.442C79.4316 109.873 79.8646 109.426 80.416 109.103C80.9674 108.779 81.5986 108.617 82.3096 108.617C83.0342 108.617 83.6699 108.777 84.2168 109.096C84.7682 109.41 85.1989 109.848 85.5088 110.408C85.8187 110.964 85.9736 111.607 85.9736 112.336V112.972H80.9492C80.9629 113.432 81.0996 113.797 81.3594 114.065C81.6237 114.334 81.9883 114.469 82.4531 114.469C82.7995 114.469 83.0889 114.398 83.3213 114.257C83.5583 114.116 83.7201 113.926 83.8066 113.689H85.9189C85.8324 114.173 85.6227 114.601 85.29 114.975C84.9574 115.348 84.5381 115.64 84.0322 115.85C83.5309 116.059 82.9772 116.164 82.3711 116.164ZM80.9629 111.563H83.7793C83.7246 111.185 83.5742 110.889 83.3281 110.675C83.082 110.461 82.763 110.354 82.3711 110.354C81.9746 110.354 81.6533 110.461 81.4072 110.675C81.1611 110.889 81.013 111.185 80.9629 111.563Z" fill="black"/>
<path d="M78.085 108.781V110.6H76.6016V113.573C76.6016 113.806 76.6471 113.965 76.7383 114.052C76.8294 114.138 77.0072 114.182 77.2715 114.182H78.085V116H76.752C75.8861 116 75.2503 115.838 74.8447 115.515C74.4437 115.187 74.2432 114.672 74.2432 113.97V110.6H73.0127V108.781H74.2432V106.812H76.6016V108.781H78.085Z" fill="black"/>
<path d="M67.8037 116.123C67.0791 116.123 66.4844 115.948 66.0195 115.597C65.5592 115.241 65.3291 114.703 65.3291 113.983C65.3291 113.441 65.4544 113.013 65.7051 112.698C65.9603 112.384 66.2998 112.151 66.7236 112.001C67.1475 111.851 67.6169 111.755 68.1318 111.714C68.779 111.659 69.2347 111.593 69.499 111.516C69.7633 111.438 69.8955 111.29 69.8955 111.071V111.037C69.8955 110.823 69.8044 110.65 69.6221 110.518C69.4443 110.381 69.2005 110.312 68.8906 110.312C68.5625 110.312 68.3005 110.385 68.1045 110.531C67.9131 110.677 67.806 110.873 67.7832 111.119H65.5957C65.6458 110.335 65.958 109.725 66.5322 109.287C67.111 108.845 67.9245 108.624 68.9727 108.624C70.0208 108.624 70.8252 108.845 71.3857 109.287C71.9463 109.725 72.2266 110.342 72.2266 111.14V116H69.9297V114.988H69.9023C69.6882 115.376 69.4124 115.663 69.0752 115.85C68.738 116.032 68.3141 116.123 67.8037 116.123ZM68.5215 114.585C68.9134 114.585 69.2438 114.478 69.5127 114.264C69.7816 114.045 69.916 113.758 69.916 113.402V112.746C69.793 112.805 69.6221 112.858 69.4033 112.903C69.1846 112.949 68.9294 112.997 68.6377 113.047C68.3232 113.097 68.0635 113.188 67.8584 113.32C67.6579 113.452 67.5576 113.637 67.5576 113.874C67.5576 114.097 67.6465 114.273 67.8242 114.4C68.002 114.523 68.2344 114.585 68.5215 114.585Z" fill="black"/>
<path d="M59.8809 116.164C58.8965 116.164 58.0352 115.948 57.2969 115.515C56.5586 115.082 55.9844 114.473 55.5742 113.689C55.1641 112.901 54.959 111.976 54.959 110.914C54.959 109.807 55.1732 108.861 55.6016 108.077C56.0299 107.289 56.611 106.687 57.3447 106.272C58.083 105.858 58.9147 105.65 59.8398 105.65C60.6419 105.65 61.3734 105.803 62.0342 106.108C62.6995 106.409 63.2441 106.831 63.668 107.373C64.0918 107.915 64.3402 108.549 64.4131 109.273H61.9111C61.82 108.822 61.6035 108.465 61.2617 108.2C60.9245 107.931 60.4801 107.797 59.9287 107.797C59.1357 107.797 58.5205 108.073 58.083 108.624C57.6501 109.171 57.4336 109.934 57.4336 110.914C57.4336 111.894 57.6523 112.657 58.0898 113.204C58.5319 113.746 59.154 114.018 59.9561 114.018C60.6032 114.018 61.1159 113.856 61.4941 113.532C61.877 113.209 62.0729 112.785 62.082 112.261H60.0449V110.456H64.4883V111.837C64.4883 112.698 64.2923 113.455 63.9004 114.106C63.513 114.754 62.973 115.259 62.2803 115.624C61.5876 115.984 60.7878 116.164 59.8809 116.164Z" fill="black"/>
<path d="M48.0957 116.178C47.4303 116.178 46.8402 116.077 46.3252 115.877C45.8102 115.676 45.3978 115.389 45.0879 115.016C44.7826 114.642 44.6094 114.2 44.5684 113.689H46.8857C46.9222 113.958 47.0407 114.17 47.2412 114.325C47.4417 114.48 47.7152 114.558 48.0615 114.558C48.3851 114.558 48.638 114.501 48.8203 114.387C49.0026 114.273 49.0938 114.125 49.0938 113.942C49.0938 113.642 48.8021 113.439 48.2188 113.334L46.9131 113.102C46.2021 112.974 45.6598 112.73 45.2861 112.37C44.917 112.01 44.7324 111.545 44.7324 110.976C44.7324 110.265 45.0195 109.697 45.5938 109.273C46.168 108.845 46.9587 108.631 47.9658 108.631C48.973 108.631 49.7751 108.854 50.3721 109.301C50.9691 109.747 51.279 110.356 51.3018 111.126H49.1348C49.1302 110.875 49.0254 110.666 48.8203 110.497C48.6198 110.328 48.3623 110.244 48.0479 110.244C47.7425 110.244 47.5033 110.303 47.3301 110.422C47.1615 110.54 47.0771 110.688 47.0771 110.866C47.0771 111.162 47.3369 111.361 47.8564 111.461L49.3057 111.728C50.0485 111.864 50.5977 112.092 50.9531 112.411C51.3086 112.73 51.4863 113.159 51.4863 113.696C51.4863 114.188 51.3428 114.621 51.0557 114.995C50.7731 115.369 50.3766 115.66 49.8662 115.87C49.3604 116.075 48.7702 116.178 48.0957 116.178Z" fill="black"/>
<path d="M40.5488 116.178C39.8835 116.178 39.2933 116.077 38.7783 115.877C38.2633 115.676 37.8509 115.389 37.541 115.016C37.2357 114.642 37.0625 114.2 37.0215 113.689H39.3389C39.3753 113.958 39.4938 114.17 39.6943 114.325C39.8949 114.48 40.1683 114.558 40.5146 114.558C40.8382 114.558 41.0911 114.501 41.2734 114.387C41.4557 114.273 41.5469 114.125 41.5469 113.942C41.5469 113.642 41.2552 113.439 40.6719 113.334L39.3662 113.102C38.6553 112.974 38.113 112.73 37.7393 112.37C37.3701 112.01 37.1855 111.545 37.1855 110.976C37.1855 110.265 37.4727 109.697 38.0469 109.273C38.6211 108.845 39.4118 108.631 40.4189 108.631C41.4261 108.631 42.2282 108.854 42.8252 109.301C43.4222 109.747 43.7321 110.356 43.7549 111.126H41.5879C41.5833 110.875 41.4785 110.666 41.2734 110.497C41.0729 110.328 40.8154 110.244 40.501 110.244C40.1956 110.244 39.9564 110.303 39.7832 110.422C39.6146 110.54 39.5303 110.688 39.5303 110.866C39.5303 111.162 39.79 111.361 40.3096 111.461L41.7588 111.728C42.5016 111.864 43.0508 112.092 43.4062 112.411C43.7617 112.73 43.9395 113.159 43.9395 113.696C43.9395 114.188 43.7959 114.621 43.5088 114.995C43.2262 115.369 42.8298 115.66 42.3193 115.87C41.8135 116.075 41.2233 116.178 40.5488 116.178Z" fill="black"/>
<path d="M32.7695 116.164C32.0312 116.164 31.3818 116.002 30.8213 115.679C30.2653 115.355 29.8301 114.911 29.5156 114.346C29.2057 113.776 29.0508 113.124 29.0508 112.391C29.0508 111.657 29.2057 111.007 29.5156 110.442C29.8301 109.873 30.263 109.426 30.8145 109.103C31.3659 108.779 31.9971 108.617 32.708 108.617C33.4326 108.617 34.0684 108.777 34.6152 109.096C35.1667 109.41 35.5973 109.848 35.9072 110.408C36.2171 110.964 36.3721 111.607 36.3721 112.336V112.972H31.3477C31.3613 113.432 31.498 113.797 31.7578 114.065C32.0221 114.334 32.3867 114.469 32.8516 114.469C33.1979 114.469 33.4873 114.398 33.7197 114.257C33.9567 114.116 34.1185 113.926 34.2051 113.689H36.3174C36.2308 114.173 36.0212 114.601 35.6885 114.975C35.3558 115.348 34.9365 115.64 34.4307 115.85C33.9294 116.059 33.3757 116.164 32.7695 116.164ZM31.3613 111.563H34.1777C34.123 111.185 33.9727 110.889 33.7266 110.675C33.4805 110.461 33.1615 110.354 32.7695 110.354C32.373 110.354 32.0518 110.461 31.8057 110.675C31.5596 110.889 31.4115 111.185 31.3613 111.563Z" fill="black"/>
<path d="M23.8828 116V108.781H26.1592V110.053H26.1797C26.3118 109.592 26.5169 109.262 26.7949 109.062C27.0775 108.856 27.4603 108.754 27.9434 108.754C28.071 108.754 28.1849 108.756 28.2852 108.761C28.39 108.761 28.4902 108.763 28.5859 108.768V110.709C28.4993 110.704 28.3649 110.7 28.1826 110.695C28.0003 110.691 27.8249 110.688 27.6562 110.688C27.2324 110.688 26.8883 110.83 26.624 111.112C26.3643 111.395 26.2344 111.791 26.2344 112.302V116H23.8828Z" fill="black"/>
<path d="M18.8857 118.953C17.7738 118.953 16.9375 118.728 16.377 118.276C15.821 117.825 15.4883 117.253 15.3789 116.561H17.6279C17.6917 116.784 17.833 116.959 18.0518 117.087C18.2705 117.219 18.5485 117.285 18.8857 117.285C19.779 117.285 20.2256 116.802 20.2256 115.836V114.722H20.2188C20.0273 115.15 19.7516 115.462 19.3916 115.658C19.0316 115.854 18.6169 115.952 18.1475 115.952C17.514 115.952 16.9626 115.797 16.4932 115.487C16.0283 115.173 15.666 114.742 15.4062 114.195C15.151 113.648 15.0234 113.022 15.0234 112.315C15.0234 111.6 15.1556 110.964 15.4199 110.408C15.6842 109.852 16.0488 109.417 16.5137 109.103C16.9785 108.784 17.5163 108.624 18.127 108.624C19.0612 108.624 19.7585 109.014 20.2188 109.793H20.2256V108.781H22.5635V115.604C22.5635 116.779 22.2308 117.632 21.5654 118.16C20.9046 118.689 20.0114 118.953 18.8857 118.953ZM18.8037 114.106C19.2503 114.106 19.6104 113.942 19.8838 113.614C20.1618 113.282 20.3008 112.835 20.3008 112.274C20.3008 111.723 20.1618 111.281 19.8838 110.948C19.6104 110.616 19.2503 110.449 18.8037 110.449C18.3708 110.449 18.029 110.611 17.7783 110.935C17.5322 111.258 17.4092 111.705 17.4092 112.274C17.4092 112.849 17.5322 113.298 17.7783 113.621C18.029 113.945 18.3708 114.106 18.8037 114.106Z" fill="black"/>
<path d="M6.65625 116V105.814H14.2441V107.906H9.11719V109.868H13.8545V111.898H9.11719V113.908H14.2441V116H6.65625Z" fill="black"/>
<path d="M62.3203 90.4121V89.2695H69.1816V90.4121H66.4102V98H65.1035V90.4121H62.3203Z" fill="black"/>
<path d="M54.2578 98V89.2695H55.6992L59.0332 94.5488C59.1348 94.7129 59.2734 94.9453 59.4492 95.2461C59.625 95.5469 59.8008 95.8516 59.9766 96.1602C59.9648 95.8438 59.9551 95.5234 59.9473 95.1992C59.9434 94.8711 59.9414 94.627 59.9414 94.4668V89.2695H61.248V98H59.7949L56.8125 93.2832C56.6914 93.0918 56.5156 92.8066 56.2852 92.4277C56.0586 92.0449 55.8008 91.6055 55.5117 91.1094C55.5312 91.6211 55.543 92.0625 55.5469 92.4336C55.5547 92.8008 55.5586 93.082 55.5586 93.2773V98H54.2578Z" fill="black"/>
<path d="M47.1914 98V89.2695H53.0625V90.4121H48.4922V92.9844H52.7227V94.1152H48.4922V96.8574H53.0625V98H47.1914Z" fill="black"/>
<path d="M40.6758 98V89.2695H41.9766V96.8574H46.1074V98H40.6758Z" fill="black"/>
<path d="M31.8867 98L35.0566 89.2695H36.627L39.7734 98H38.3613L37.5879 95.7324H34.0664L33.2695 98H31.8867ZM34.459 94.625H37.207L36.6797 93.0781C36.5625 92.7188 36.4375 92.334 36.3047 91.9238C36.1719 91.5137 36.0195 91.0254 35.8477 90.459C35.6719 91.0254 35.5176 91.5137 35.3848 91.9238C35.252 92.334 35.125 92.7188 35.0039 93.0781L34.459 94.625Z" fill="black"/>
<path d="M28.2246 98L25.0547 89.2695H26.4551L28.1836 94.1914C28.2891 94.5078 28.4102 94.8809 28.5469 95.3105C28.6836 95.7402 28.8438 96.2422 29.0273 96.8164C29.2031 96.2422 29.3574 95.7402 29.4902 95.3105C29.627 94.8809 29.748 94.5078 29.8535 94.1914L31.5352 89.2695H32.9121L29.7891 98H28.2246Z" fill="black"/>
<path d="M20.9062 98.1406C20.1328 98.1406 19.4434 97.9512 18.8379 97.5723C18.2324 97.1934 17.7559 96.666 17.4082 95.9902C17.0645 95.3145 16.8926 94.5312 16.8926 93.6406C16.8926 92.7461 17.0645 91.9609 17.4082 91.2852C17.7559 90.6055 18.2324 90.0762 18.8379 89.6973C19.4434 89.3184 20.1328 89.1289 20.9062 89.1289C21.6836 89.1289 22.375 89.3184 22.9805 89.6973C23.5859 90.0762 24.0605 90.6055 24.4043 91.2852C24.752 91.9609 24.9258 92.7461 24.9258 93.6406C24.9258 94.5312 24.752 95.3145 24.4043 95.9902C24.0605 96.666 23.5859 97.1934 22.9805 97.5723C22.375 97.9512 21.6836 98.1406 20.9062 98.1406ZM20.9062 96.9512C21.4102 96.9512 21.8672 96.8242 22.2773 96.5703C22.6875 96.3125 23.0137 95.9375 23.2559 95.4453C23.498 94.9492 23.6191 94.3477 23.6191 93.6406C23.6191 92.9297 23.498 92.3262 23.2559 91.8301C23.0137 91.334 22.6875 90.959 22.2773 90.7051C21.8672 90.4473 21.4102 90.3184 20.9062 90.3184C20.4062 90.3184 19.9512 90.4473 19.541 90.7051C19.1309 90.959 18.8047 91.334 18.5625 91.8301C18.3203 92.3262 18.1992 92.9297 18.1992 93.6406C18.1992 94.3477 18.3203 94.9492 18.5625 95.4453C18.8047 95.9375 19.1309 96.3125 19.541 96.5703C19.9512 96.8242 20.4062 96.9512 20.9062 96.9512Z" fill="black"/>
<path d="M12.7148 98.1406C11.668 98.1406 10.8418 97.877 10.2363 97.3496C9.63477 96.8184 9.33398 96.0918 9.33398 95.1699H10.6348C10.6387 95.7441 10.8223 96.1934 11.1855 96.5176C11.5527 96.8418 12.0625 97.0039 12.7148 97.0039C13.3086 97.0039 13.7832 96.8789 14.1387 96.6289C14.498 96.375 14.6777 96.0352 14.6777 95.6094C14.6777 95.2734 14.5488 95.002 14.291 94.7949C14.0371 94.584 13.6074 94.4062 13.002 94.2617L12.0469 94.0332C11.1641 93.8223 10.5195 93.5293 10.1133 93.1543C9.71094 92.7754 9.50977 92.2832 9.50977 91.6777C9.50977 91.166 9.63867 90.7188 9.89648 90.3359C10.1543 89.9531 10.5156 89.6562 10.9805 89.4453C11.4492 89.2344 11.9961 89.1289 12.6211 89.1289C13.5625 89.1289 14.3105 89.375 14.8652 89.8672C15.4238 90.3594 15.7168 91.0312 15.7441 91.8828H14.4844C14.4531 91.3789 14.2695 90.9844 13.9336 90.6992C13.5977 90.4102 13.1543 90.2656 12.6035 90.2656C12.0762 90.2656 11.6445 90.3926 11.3086 90.6465C10.9727 90.8965 10.8047 91.2188 10.8047 91.6133C10.8047 91.9297 10.9336 92.1875 11.1914 92.3867C11.4492 92.582 11.877 92.752 12.4746 92.8965L13.418 93.1191C14.293 93.3262 14.9375 93.625 15.3516 94.0156C15.7695 94.4062 15.9785 94.9141 15.9785 95.5391C15.9785 96.0625 15.8438 96.5195 15.5742 96.9102C15.3047 97.3008 14.9258 97.6035 14.4375 97.8184C13.9492 98.0332 13.375 98.1406 12.7148 98.1406Z" fill="black"/>
<path d="M8.09766 89.2695V98H6.79688V89.2695H8.09766Z" fill="black"/>
<path fill-rule="evenodd" clip-rule="evenodd" d="M92.0987 60.8226L70.574 84.4998V74.4549H6V47.1904H70.574V37.1455L92.0987 60.8226ZM34.6996 54.3652V67.28H41.8744V54.3652H34.6996Z" fill="black"/>
<path d="M51.5605 29.9709C51.5605 21.8476 44.9752 15.2623 36.852 15.2623C28.7287 15.2623 22.1434 21.8476 22.1434 29.9709V40.7332H11.3811V29.9709C11.3811 15.9037 22.7848 4.5 36.852 4.5C50.9191 4.5 62.3228 15.9037 62.3228 29.9709V40.7332H51.5605V29.9709Z" fill="black"/>
</svg>
