<svg width="128" height="128" viewBox="0 0 128 128" fill="none" xmlns="http://www.w3.org/2000/svg">
<path d="M109.688 118.857V117.032H110.687C110.933 117.032 111.106 116.978 111.206 116.868C111.306 116.763 111.4 116.579 111.486 116.314L111.609 115.986L108.834 108.781H111.295L112.361 112.104C112.439 112.354 112.514 112.605 112.587 112.855C112.66 113.106 112.733 113.359 112.806 113.614C112.874 113.359 112.945 113.106 113.018 112.855C113.095 112.605 113.173 112.354 113.25 112.104L114.337 108.781H116.771L113.66 117.019C113.414 117.67 113.104 118.14 112.73 118.427C112.361 118.714 111.874 118.857 111.268 118.857H109.688Z" fill="white"/>
<path d="M104.015 116.123C103.29 116.123 102.695 115.948 102.23 115.597C101.77 115.241 101.54 114.703 101.54 113.983C101.54 113.441 101.665 113.013 101.916 112.698C102.171 112.384 102.511 112.151 102.935 112.001C103.358 111.851 103.828 111.755 104.343 111.714C104.99 111.659 105.446 111.593 105.71 111.516C105.974 111.438 106.106 111.29 106.106 111.071V111.037C106.106 110.823 106.015 110.65 105.833 110.518C105.655 110.381 105.411 110.312 105.102 110.312C104.773 110.312 104.511 110.385 104.315 110.531C104.124 110.677 104.017 110.873 103.994 111.119H101.807C101.857 110.335 102.169 109.725 102.743 109.287C103.322 108.845 104.135 108.624 105.184 108.624C106.232 108.624 107.036 108.845 107.597 109.287C108.157 109.725 108.438 110.342 108.438 111.14V116H106.141V114.988H106.113C105.899 115.376 105.623 115.663 105.286 115.85C104.949 116.032 104.525 116.123 104.015 116.123ZM104.732 114.585C105.124 114.585 105.455 114.478 105.724 114.264C105.993 114.045 106.127 113.758 106.127 113.402V112.746C106.004 112.805 105.833 112.858 105.614 112.903C105.396 112.949 105.14 112.997 104.849 113.047C104.534 113.097 104.274 113.188 104.069 113.32C103.869 113.452 103.769 113.637 103.769 113.874C103.769 114.097 103.857 114.273 104.035 114.4C104.213 114.523 104.445 114.585 104.732 114.585Z" fill="white"/>
<path d="M91.7373 116L89.5156 108.781H91.9902L92.5508 111.037C92.651 111.456 92.7467 111.892 92.8379 112.343C92.9336 112.789 93.0293 113.236 93.125 113.683C93.2298 113.236 93.3346 112.789 93.4395 112.343C93.5488 111.892 93.6582 111.456 93.7676 111.037L94.3623 108.781H96.4473L97.042 111.037C97.1514 111.456 97.2585 111.892 97.3633 112.343C97.4727 112.789 97.5798 113.236 97.6846 113.683C97.7757 113.236 97.8646 112.789 97.9512 112.343C98.0423 111.896 98.138 111.461 98.2383 111.037L98.7783 108.781H101.294L99.0723 116H96.6455L95.8457 113.3C95.7682 113.031 95.693 112.757 95.6201 112.479C95.5472 112.197 95.4766 111.914 95.4082 111.632C95.3353 111.914 95.2624 112.197 95.1895 112.479C95.1165 112.757 95.0413 113.031 94.9639 113.3L94.1641 116H91.7373Z" fill="white"/>
<path d="M85.7148 116.164C84.9766 116.164 84.3271 116.002 83.7666 115.679C83.2106 115.355 82.7754 114.911 82.4609 114.346C82.151 113.776 81.9961 113.124 81.9961 112.391C81.9961 111.657 82.151 111.007 82.4609 110.442C82.7754 109.873 83.2083 109.426 83.7598 109.103C84.3112 108.779 84.9424 108.617 85.6533 108.617C86.3779 108.617 87.0137 108.777 87.5605 109.096C88.112 109.41 88.5426 109.848 88.8525 110.408C89.1624 110.964 89.3174 111.607 89.3174 112.336V112.972H84.293C84.3066 113.432 84.4434 113.797 84.7031 114.065C84.9674 114.334 85.332 114.469 85.7969 114.469C86.1432 114.469 86.4326 114.398 86.665 114.257C86.902 114.116 87.0638 113.926 87.1504 113.689H89.2627C89.1761 114.173 88.9665 114.601 88.6338 114.975C88.3011 115.348 87.8818 115.64 87.376 115.85C86.8747 116.059 86.321 116.164 85.7148 116.164ZM84.3066 111.563H87.123C87.0684 111.185 86.918 110.889 86.6719 110.675C86.4258 110.461 86.1068 110.354 85.7148 110.354C85.3184 110.354 84.9971 110.461 84.751 110.675C84.5049 110.889 84.3568 111.185 84.3066 111.563Z" fill="white"/>
<path d="M81.4287 108.781V110.6H79.9453V113.573C79.9453 113.806 79.9909 113.965 80.082 114.052C80.1732 114.138 80.3509 114.182 80.6152 114.182H81.4287V116H80.0957C79.2298 116 78.5941 115.838 78.1885 115.515C77.7874 115.187 77.5869 114.672 77.5869 113.97V110.6H76.3564V108.781H77.5869V106.812H79.9453V108.781H81.4287Z" fill="white"/>
<path d="M71.1475 116.123C70.4229 116.123 69.8281 115.948 69.3633 115.597C68.903 115.241 68.6729 114.703 68.6729 113.983C68.6729 113.441 68.7982 113.013 69.0488 112.698C69.304 112.384 69.6436 112.151 70.0674 112.001C70.4912 111.851 70.9606 111.755 71.4756 111.714C72.1227 111.659 72.5785 111.593 72.8428 111.516C73.1071 111.438 73.2393 111.29 73.2393 111.071V111.037C73.2393 110.823 73.1481 110.65 72.9658 110.518C72.7881 110.381 72.5443 110.312 72.2344 110.312C71.9062 110.312 71.6442 110.385 71.4482 110.531C71.2568 110.677 71.1497 110.873 71.127 111.119H68.9395C68.9896 110.335 69.3018 109.725 69.876 109.287C70.4548 108.845 71.2682 108.624 72.3164 108.624C73.3646 108.624 74.1689 108.845 74.7295 109.287C75.29 109.725 75.5703 110.342 75.5703 111.14V116H73.2734V114.988H73.2461C73.0319 115.376 72.7562 115.663 72.4189 115.85C72.0817 116.032 71.6579 116.123 71.1475 116.123ZM71.8652 114.585C72.2572 114.585 72.5876 114.478 72.8564 114.264C73.1253 114.045 73.2598 113.758 73.2598 113.402V112.746C73.1367 112.805 72.9658 112.858 72.7471 112.903C72.5283 112.949 72.2731 112.997 71.9814 113.047C71.667 113.097 71.4072 113.188 71.2021 113.32C71.0016 113.452 70.9014 113.637 70.9014 113.874C70.9014 114.097 70.9902 114.273 71.168 114.4C71.3457 114.523 71.5781 114.585 71.8652 114.585Z" fill="white"/>
<path d="M63.2246 116.164C62.2402 116.164 61.3789 115.948 60.6406 115.515C59.9023 115.082 59.3281 114.473 58.918 113.689C58.5078 112.901 58.3027 111.976 58.3027 110.914C58.3027 109.807 58.5169 108.861 58.9453 108.077C59.3737 107.289 59.9548 106.687 60.6885 106.272C61.4268 105.858 62.2585 105.65 63.1836 105.65C63.9857 105.65 64.7171 105.803 65.3779 106.108C66.0433 106.409 66.5879 106.831 67.0117 107.373C67.4355 107.915 67.6839 108.549 67.7568 109.273H65.2549C65.1637 108.822 64.9473 108.465 64.6055 108.2C64.2682 107.931 63.8239 107.797 63.2725 107.797C62.4795 107.797 61.8643 108.073 61.4268 108.624C60.9938 109.171 60.7773 109.934 60.7773 110.914C60.7773 111.894 60.9961 112.657 61.4336 113.204C61.8757 113.746 62.4977 114.018 63.2998 114.018C63.9469 114.018 64.4596 113.856 64.8379 113.532C65.2207 113.209 65.4167 112.785 65.4258 112.261H63.3887V110.456H67.832V111.837C67.832 112.698 67.6361 113.455 67.2441 114.106C66.8568 114.754 66.3167 115.259 65.624 115.624C64.9313 115.984 64.1315 116.164 63.2246 116.164Z" fill="white"/>
<path d="M51.4395 116.178C50.7741 116.178 50.1839 116.077 49.6689 115.877C49.154 115.676 48.7415 115.389 48.4316 115.016C48.1263 114.642 47.9531 114.2 47.9121 113.689H50.2295C50.266 113.958 50.3844 114.17 50.585 114.325C50.7855 114.48 51.0589 114.558 51.4053 114.558C51.7288 114.558 51.9818 114.501 52.1641 114.387C52.3464 114.273 52.4375 114.125 52.4375 113.942C52.4375 113.642 52.1458 113.439 51.5625 113.334L50.2568 113.102C49.5459 112.974 49.0036 112.73 48.6299 112.37C48.2607 112.01 48.0762 111.545 48.0762 110.976C48.0762 110.265 48.3633 109.697 48.9375 109.273C49.5117 108.845 50.3024 108.631 51.3096 108.631C52.3167 108.631 53.1188 108.854 53.7158 109.301C54.3128 109.747 54.6227 110.356 54.6455 111.126H52.4785C52.474 110.875 52.3691 110.666 52.1641 110.497C51.9635 110.328 51.7061 110.244 51.3916 110.244C51.0863 110.244 50.847 110.303 50.6738 110.422C50.5052 110.54 50.4209 110.688 50.4209 110.866C50.4209 111.162 50.6807 111.361 51.2002 111.461L52.6494 111.728C53.3923 111.864 53.9414 112.092 54.2969 112.411C54.6523 112.73 54.8301 113.159 54.8301 113.696C54.8301 114.188 54.6865 114.621 54.3994 114.995C54.1169 115.369 53.7204 115.66 53.21 115.87C52.7041 116.075 52.1139 116.178 51.4395 116.178Z" fill="white"/>
<path d="M43.8926 116.178C43.2272 116.178 42.637 116.077 42.1221 115.877C41.6071 115.676 41.1947 115.389 40.8848 115.016C40.5794 114.642 40.4062 114.2 40.3652 113.689H42.6826C42.7191 113.958 42.8376 114.17 43.0381 114.325C43.2386 114.48 43.512 114.558 43.8584 114.558C44.182 114.558 44.4349 114.501 44.6172 114.387C44.7995 114.273 44.8906 114.125 44.8906 113.942C44.8906 113.642 44.599 113.439 44.0156 113.334L42.71 113.102C41.999 112.974 41.4567 112.73 41.083 112.37C40.7139 112.01 40.5293 111.545 40.5293 110.976C40.5293 110.265 40.8164 109.697 41.3906 109.273C41.9648 108.845 42.7555 108.631 43.7627 108.631C44.7699 108.631 45.5719 108.854 46.1689 109.301C46.766 109.747 47.0758 110.356 47.0986 111.126H44.9316C44.9271 110.875 44.8223 110.666 44.6172 110.497C44.4167 110.328 44.1592 110.244 43.8447 110.244C43.5394 110.244 43.3001 110.303 43.127 110.422C42.9583 110.54 42.874 110.688 42.874 110.866C42.874 111.162 43.1338 111.361 43.6533 111.461L45.1025 111.728C45.8454 111.864 46.3945 112.092 46.75 112.411C47.1055 112.73 47.2832 113.159 47.2832 113.696C47.2832 114.188 47.1396 114.621 46.8525 114.995C46.57 115.369 46.1735 115.66 45.6631 115.87C45.1572 116.075 44.5671 116.178 43.8926 116.178Z" fill="white"/>
<path d="M36.1133 116.164C35.375 116.164 34.7256 116.002 34.165 115.679C33.609 115.355 33.1738 114.911 32.8594 114.346C32.5495 113.776 32.3945 113.124 32.3945 112.391C32.3945 111.657 32.5495 111.007 32.8594 110.442C33.1738 109.873 33.6068 109.426 34.1582 109.103C34.7096 108.779 35.3408 108.617 36.0518 108.617C36.7764 108.617 37.4121 108.777 37.959 109.096C38.5104 109.41 38.9411 109.848 39.251 110.408C39.5609 110.964 39.7158 111.607 39.7158 112.336V112.972H34.6914C34.7051 113.432 34.8418 113.797 35.1016 114.065C35.3659 114.334 35.7305 114.469 36.1953 114.469C36.5417 114.469 36.8311 114.398 37.0635 114.257C37.3005 114.116 37.4622 113.926 37.5488 113.689H39.6611C39.5745 114.173 39.3649 114.601 39.0322 114.975C38.6995 115.348 38.2803 115.64 37.7744 115.85C37.2731 116.059 36.7194 116.164 36.1133 116.164ZM34.7051 111.563H37.5215C37.4668 111.185 37.3164 110.889 37.0703 110.675C36.8242 110.461 36.5052 110.354 36.1133 110.354C35.7168 110.354 35.3955 110.461 35.1494 110.675C34.9033 110.889 34.7552 111.185 34.7051 111.563Z" fill="white"/>
<path d="M27.2266 116V108.781H29.5029V110.053H29.5234C29.6556 109.592 29.8607 109.262 30.1387 109.062C30.4212 108.856 30.804 108.754 31.2871 108.754C31.4147 108.754 31.5286 108.756 31.6289 108.761C31.7337 108.761 31.834 108.763 31.9297 108.768V110.709C31.8431 110.704 31.7087 110.7 31.5264 110.695C31.3441 110.691 31.1686 110.688 31 110.688C30.5762 110.688 30.2321 110.83 29.9678 111.112C29.708 111.395 29.5781 111.791 29.5781 112.302V116H27.2266Z" fill="white"/>
<path d="M22.2295 118.953C21.1175 118.953 20.2812 118.728 19.7207 118.276C19.1647 117.825 18.832 117.253 18.7227 116.561H20.9717C21.0355 116.784 21.1768 116.959 21.3955 117.087C21.6143 117.219 21.8923 117.285 22.2295 117.285C23.1227 117.285 23.5693 116.802 23.5693 115.836V114.722H23.5625C23.3711 115.15 23.0954 115.462 22.7354 115.658C22.3753 115.854 21.9606 115.952 21.4912 115.952C20.8577 115.952 20.3063 115.797 19.8369 115.487C19.3721 115.173 19.0098 114.742 18.75 114.195C18.4948 113.648 18.3672 113.022 18.3672 112.315C18.3672 111.6 18.4993 110.964 18.7637 110.408C19.028 109.852 19.3926 109.417 19.8574 109.103C20.3223 108.784 20.86 108.624 21.4707 108.624C22.4049 108.624 23.1022 109.014 23.5625 109.793H23.5693V108.781H25.9072V115.604C25.9072 116.779 25.5745 117.632 24.9092 118.16C24.2484 118.689 23.3551 118.953 22.2295 118.953ZM22.1475 114.106C22.5941 114.106 22.9541 113.942 23.2275 113.614C23.5055 113.282 23.6445 112.835 23.6445 112.274C23.6445 111.723 23.5055 111.281 23.2275 110.948C22.9541 110.616 22.5941 110.449 22.1475 110.449C21.7145 110.449 21.3727 110.611 21.1221 110.935C20.876 111.258 20.7529 111.705 20.7529 112.274C20.7529 112.849 20.876 113.298 21.1221 113.621C21.3727 113.945 21.7145 114.106 22.1475 114.106Z" fill="white"/>
<path d="M10 116V105.814H17.5879V107.906H12.4609V109.868H17.1982V111.898H12.4609V113.908H17.5879V116H10Z" fill="white"/>
<path d="M88.5234 90.4121V89.2695H95.3848V90.4121H92.6133V98H91.3066V90.4121H88.5234Z" fill="white"/>
<path d="M80.4609 98V89.2695H81.9023L85.2363 94.5488C85.3379 94.7129 85.4766 94.9453 85.6523 95.2461C85.8281 95.5469 86.0039 95.8516 86.1797 96.1602C86.168 95.8438 86.1582 95.5234 86.1504 95.1992C86.1465 94.8711 86.1445 94.627 86.1445 94.4668V89.2695H87.4512V98H85.998L83.0156 93.2832C82.8945 93.0918 82.7188 92.8066 82.4883 92.4277C82.2617 92.0449 82.0039 91.6055 81.7148 91.1094C81.7344 91.6211 81.7461 92.0625 81.75 92.4336C81.7578 92.8008 81.7617 93.082 81.7617 93.2773V98H80.4609Z" fill="white"/>
<path d="M73.3945 98V89.2695H79.2656V90.4121H74.6953V92.9844H78.9258V94.1152H74.6953V96.8574H79.2656V98H73.3945Z" fill="white"/>
<path d="M66.8789 98V89.2695H68.1797V96.8574H72.3105V98H66.8789Z" fill="white"/>
<path d="M58.0898 98L61.2598 89.2695H62.8301L65.9766 98H64.5645L63.791 95.7324H60.2695L59.4727 98H58.0898ZM60.6621 94.625H63.4102L62.8828 93.0781C62.7656 92.7188 62.6406 92.334 62.5078 91.9238C62.375 91.5137 62.2227 91.0254 62.0508 90.459C61.875 91.0254 61.7207 91.5137 61.5879 91.9238C61.4551 92.334 61.3281 92.7188 61.207 93.0781L60.6621 94.625Z" fill="white"/>
<path d="M54.4277 98L51.2578 89.2695H52.6582L54.3867 94.1914C54.4922 94.5078 54.6133 94.8809 54.75 95.3105C54.8867 95.7402 55.0469 96.2422 55.2305 96.8164C55.4062 96.2422 55.5605 95.7402 55.6934 95.3105C55.8301 94.8809 55.9512 94.5078 56.0566 94.1914L57.7383 89.2695H59.1152L55.9922 98H54.4277Z" fill="white"/>
<path d="M47.1094 98.1406C46.3359 98.1406 45.6465 97.9512 45.041 97.5723C44.4355 97.1934 43.959 96.666 43.6113 95.9902C43.2676 95.3145 43.0957 94.5312 43.0957 93.6406C43.0957 92.7461 43.2676 91.9609 43.6113 91.2852C43.959 90.6055 44.4355 90.0762 45.041 89.6973C45.6465 89.3184 46.3359 89.1289 47.1094 89.1289C47.8867 89.1289 48.5781 89.3184 49.1836 89.6973C49.7891 90.0762 50.2637 90.6055 50.6074 91.2852C50.9551 91.9609 51.1289 92.7461 51.1289 93.6406C51.1289 94.5312 50.9551 95.3145 50.6074 95.9902C50.2637 96.666 49.7891 97.1934 49.1836 97.5723C48.5781 97.9512 47.8867 98.1406 47.1094 98.1406ZM47.1094 96.9512C47.6133 96.9512 48.0703 96.8242 48.4805 96.5703C48.8906 96.3125 49.2168 95.9375 49.459 95.4453C49.7012 94.9492 49.8223 94.3477 49.8223 93.6406C49.8223 92.9297 49.7012 92.3262 49.459 91.8301C49.2168 91.334 48.8906 90.959 48.4805 90.7051C48.0703 90.4473 47.6133 90.3184 47.1094 90.3184C46.6094 90.3184 46.1543 90.4473 45.7441 90.7051C45.334 90.959 45.0078 91.334 44.7656 91.8301C44.5234 92.3262 44.4023 92.9297 44.4023 93.6406C44.4023 94.3477 44.5234 94.9492 44.7656 95.4453C45.0078 95.9375 45.334 96.3125 45.7441 96.5703C46.1543 96.8242 46.6094 96.9512 47.1094 96.9512Z" fill="white"/>
<path d="M38.918 98.1406C37.8711 98.1406 37.0449 97.877 36.4395 97.3496C35.8379 96.8184 35.5371 96.0918 35.5371 95.1699H36.8379C36.8418 95.7441 37.0254 96.1934 37.3887 96.5176C37.7559 96.8418 38.2656 97.0039 38.918 97.0039C39.5117 97.0039 39.9863 96.8789 40.3418 96.6289C40.7012 96.375 40.8809 96.0352 40.8809 95.6094C40.8809 95.2734 40.752 95.002 40.4941 94.7949C40.2402 94.584 39.8105 94.4062 39.2051 94.2617L38.25 94.0332C37.3672 93.8223 36.7227 93.5293 36.3164 93.1543C35.9141 92.7754 35.7129 92.2832 35.7129 91.6777C35.7129 91.166 35.8418 90.7188 36.0996 90.3359C36.3574 89.9531 36.7188 89.6562 37.1836 89.4453C37.6523 89.2344 38.1992 89.1289 38.8242 89.1289C39.7656 89.1289 40.5137 89.375 41.0684 89.8672C41.627 90.3594 41.9199 91.0312 41.9473 91.8828H40.6875C40.6562 91.3789 40.4727 90.9844 40.1367 90.6992C39.8008 90.4102 39.3574 90.2656 38.8066 90.2656C38.2793 90.2656 37.8477 90.3926 37.5117 90.6465C37.1758 90.8965 37.0078 91.2188 37.0078 91.6133C37.0078 91.9297 37.1367 92.1875 37.3945 92.3867C37.6523 92.582 38.0801 92.752 38.6777 92.8965L39.6211 93.1191C40.4961 93.3262 41.1406 93.625 41.5547 94.0156C41.9727 94.4062 42.1816 94.9141 42.1816 95.5391C42.1816 96.0625 42.0469 96.5195 41.7773 96.9102C41.5078 97.3008 41.1289 97.6035 40.6406 97.8184C40.1523 98.0332 39.5781 98.1406 38.918 98.1406Z" fill="white"/>
<path d="M34.3008 89.2695V98H33V89.2695H34.3008Z" fill="white"/>
<path fill-rule="evenodd" clip-rule="evenodd" d="M116.099 60.8226L94.574 84.4998V74.4549H30V47.1904H94.574V37.1455L116.099 60.8226ZM58.6996 54.3652V67.28H65.8744V54.3652H58.6996Z" fill="white"/>
<path d="M75.5605 29.9709C75.5605 21.8476 68.9752 15.2623 60.852 15.2623C52.7287 15.2623 46.1434 21.8476 46.1434 29.9709V40.7332H35.3811V29.9709C35.3811 15.9037 46.7848 4.5 60.852 4.5C74.9191 4.5 86.3228 15.9037 86.3228 29.9709V40.7332H75.5605V29.9709Z" fill="white"/>
</svg>
