<svg width="128" height="128" viewBox="0 0 128 128" fill="none" xmlns="http://www.w3.org/2000/svg">
<path d="M120.207 76.1554V74.6986H121.004C121.2 74.6986 121.338 74.655 121.418 74.5677C121.498 74.484 121.573 74.3367 121.642 74.1258L121.74 73.8639L119.525 68.1133H121.489L122.34 70.7649C122.402 70.9649 122.462 71.165 122.52 71.365C122.579 71.5651 122.637 71.767 122.695 71.9707C122.75 71.767 122.806 71.5651 122.864 71.365C122.926 71.165 122.988 70.9649 123.05 70.7649L123.917 68.1133H125.859L123.377 74.6877C123.181 75.2079 122.933 75.5825 122.635 75.8117C122.34 76.0408 121.951 76.1554 121.467 76.1554H120.207Z" fill="white"/>
<path d="M115.678 73.973C115.1 73.973 114.625 73.833 114.254 73.5529C113.887 73.2692 113.703 72.84 113.703 72.2653C113.703 71.8324 113.803 71.4905 114.003 71.2396C114.207 70.9886 114.478 70.8031 114.816 70.683C115.154 70.563 115.529 70.4866 115.94 70.4539C116.457 70.4102 116.82 70.3575 117.031 70.2957C117.242 70.2338 117.348 70.1156 117.348 69.941V69.9138C117.348 69.7428 117.275 69.6046 117.129 69.4991C116.988 69.39 116.793 69.3354 116.546 69.3354C116.284 69.3354 116.075 69.3936 115.918 69.51C115.765 69.6264 115.68 69.7828 115.662 69.9792H113.916C113.956 69.3536 114.205 68.8662 114.663 68.517C115.125 68.1642 115.775 67.9878 116.611 67.9878C117.448 67.9878 118.09 68.1642 118.537 68.517C118.984 68.8662 119.208 69.3591 119.208 69.9956V73.8748H117.375V73.0673H117.353C117.182 73.3765 116.962 73.6056 116.693 73.7548C116.424 73.9003 116.086 73.973 115.678 73.973ZM116.251 72.7454C116.564 72.7454 116.828 72.6599 117.042 72.489C117.257 72.3144 117.364 72.0852 117.364 71.8015V71.2777C117.266 71.325 117.129 71.3669 116.955 71.4032C116.78 71.4396 116.577 71.4778 116.344 71.5178C116.093 71.5578 115.886 71.6306 115.722 71.736C115.562 71.8415 115.482 71.9888 115.482 72.178C115.482 72.3562 115.553 72.4962 115.695 72.5981C115.836 72.6963 116.022 72.7454 116.251 72.7454Z" fill="white"/>
<path d="M105.88 73.8748L104.106 68.1133H106.081L106.529 69.9138C106.609 70.2484 106.685 70.5958 106.758 70.9558C106.834 71.3123 106.911 71.6688 106.987 72.0252C107.071 71.6688 107.154 71.3123 107.238 70.9558C107.325 70.5958 107.413 70.2484 107.5 69.9138L107.975 68.1133H109.639L110.113 69.9138C110.201 70.2484 110.286 70.5958 110.37 70.9558C110.457 71.3123 110.543 71.6688 110.626 72.0252C110.699 71.6688 110.77 71.3123 110.839 70.9558C110.912 70.5994 110.988 70.252 111.068 69.9138L111.499 68.1133H113.507L111.734 73.8748H109.797L109.159 71.7197C109.097 71.5051 109.037 71.2868 108.979 71.065C108.92 70.8395 108.864 70.6139 108.809 70.3884C108.751 70.6139 108.693 70.8395 108.635 71.065C108.577 71.2868 108.517 71.5051 108.455 71.7197L107.816 73.8748H105.88Z" fill="white"/>
<path d="M101.073 74.0058C100.484 74.0058 99.9652 73.8767 99.5178 73.6184C99.0741 73.3602 98.7267 73.0056 98.4757 72.5545C98.2284 72.0999 98.1047 71.5797 98.1047 70.9941C98.1047 70.4085 98.2284 69.8902 98.4757 69.4392C98.7267 68.9845 99.0723 68.628 99.5124 68.3698C99.9525 68.1115 100.456 67.9824 101.024 67.9824C101.602 67.9824 102.109 68.1097 102.546 68.3643C102.986 68.6153 103.33 68.9645 103.577 69.4119C103.824 69.8556 103.948 70.3685 103.948 70.9505V71.4579H99.9379C99.9488 71.8252 100.058 72.1162 100.265 72.3308C100.476 72.5454 100.767 72.6527 101.138 72.6527C101.415 72.6527 101.646 72.5964 101.831 72.4836C102.02 72.3708 102.149 72.2199 102.219 72.0308H103.904C103.835 72.4163 103.668 72.7582 103.402 73.0565C103.137 73.3547 102.802 73.5875 102.399 73.7548C101.998 73.9222 101.557 74.0058 101.073 74.0058ZM99.9488 70.3339H102.197C102.153 70.0321 102.033 69.7956 101.837 69.6247C101.64 69.4537 101.386 69.3682 101.073 69.3682C100.756 69.3682 100.5 69.4537 100.303 69.6247C100.107 69.7956 99.9889 70.0321 99.9488 70.3339Z" fill="white"/>
<path d="M97.6518 68.1138V69.5651H96.4679V71.9384C96.4679 72.1239 96.5043 72.2513 96.577 72.3204C96.6497 72.3895 96.7916 72.424 97.0026 72.424H97.6518V73.8753H96.5879C95.8968 73.8753 95.3894 73.7462 95.0657 73.4879C94.7456 73.2261 94.5856 72.815 94.5856 72.2549V69.5651H93.6035V68.1138H94.5856V66.5425H96.4679V68.1138H97.6518Z" fill="white"/>
<path d="M89.4462 73.973C88.8679 73.973 88.3932 73.833 88.0222 73.5529C87.6549 73.2692 87.4712 72.84 87.4712 72.2653C87.4712 71.8324 87.5712 71.4905 87.7713 71.2396C87.975 70.9886 88.2459 70.8031 88.5842 70.683C88.9225 70.563 89.2971 70.4866 89.7081 70.4539C90.2246 70.4102 90.5884 70.3575 90.7993 70.2957C91.0103 70.2338 91.1158 70.1156 91.1158 69.941V69.9138C91.1158 69.7428 91.043 69.6046 90.8975 69.4991C90.7557 69.39 90.5611 69.3354 90.3137 69.3354C90.0519 69.3354 89.8427 69.3936 89.6863 69.51C89.5335 69.6264 89.4481 69.7828 89.4299 69.9792H87.684C87.724 69.3536 87.9731 68.8662 88.4314 68.517C88.8934 68.1642 89.5426 67.9878 90.3792 67.9878C91.2158 67.9878 91.8578 68.1642 92.3052 68.517C92.7525 68.8662 92.9762 69.3591 92.9762 69.9956V73.8748H91.143V73.0673H91.1212C90.9503 73.3765 90.7302 73.6056 90.461 73.7548C90.1919 73.9003 89.8536 73.973 89.4462 73.973ZM90.0191 72.7454C90.3319 72.7454 90.5956 72.6599 90.8102 72.489C91.0248 72.3144 91.1321 72.0852 91.1321 71.8015V71.2777C91.0339 71.325 90.8975 71.3669 90.7229 71.4032C90.5483 71.4396 90.3447 71.4778 90.1119 71.5178C89.8609 71.5578 89.6536 71.6306 89.4899 71.736C89.3298 71.8415 89.2498 71.9888 89.2498 72.178C89.2498 72.3562 89.3208 72.4962 89.4626 72.5981C89.6045 72.6963 89.79 72.7454 90.0191 72.7454Z" fill="white"/>
<path d="M83.1226 74.006C82.337 74.006 81.6495 73.8333 81.0603 73.4877C80.471 73.1422 80.0127 72.6566 79.6854 72.031C79.358 71.4017 79.1943 70.6633 79.1943 69.8158C79.1943 68.932 79.3653 68.1772 79.7072 67.5516C80.0491 66.9224 80.5129 66.4422 81.0985 66.1112C81.6877 65.7802 82.3515 65.6147 83.0899 65.6147C83.73 65.6147 84.3138 65.7366 84.8412 65.9803C85.3723 66.2204 85.8069 66.5568 86.1452 66.9897C86.4835 67.4225 86.6817 67.9281 86.7399 68.5064H84.743C84.6703 68.1463 84.4975 67.8608 84.2247 67.6498C83.9556 67.4352 83.6009 67.3279 83.1608 67.3279C82.5279 67.3279 82.0369 67.548 81.6877 67.9881C81.3422 68.4246 81.1694 69.0338 81.1694 69.8158C81.1694 70.5979 81.344 71.2071 81.6932 71.6436C82.046 72.0764 82.5425 72.2929 83.1826 72.2929C83.6991 72.2929 84.1083 72.1637 84.4102 71.9055C84.7157 71.6472 84.8722 71.309 84.8794 70.8907H83.2536V69.4503H86.7999V70.5524C86.7999 71.2399 86.6435 71.8437 86.3307 72.3638C86.0215 72.8803 85.5905 73.284 85.0377 73.575C84.4848 73.8624 83.8464 74.006 83.1226 74.006Z" fill="white"/>
<path d="M73.7166 74.0166C73.1856 74.0166 72.7146 73.9365 72.3035 73.7765C71.8925 73.6165 71.5634 73.3873 71.316 73.089C71.0723 72.7908 70.9341 72.438 70.9014 72.0306H72.7509C72.78 72.2452 72.8746 72.4143 73.0346 72.538C73.1947 72.6617 73.4129 72.7235 73.6894 72.7235C73.9476 72.7235 74.1495 72.678 74.295 72.5871C74.4405 72.4962 74.5132 72.378 74.5132 72.2325C74.5132 71.9924 74.2804 71.8305 73.8148 71.7469L72.7728 71.5614C72.2053 71.4595 71.7725 71.2649 71.4742 70.9776C71.1796 70.6902 71.0323 70.3192 71.0323 69.8646C71.0323 69.2971 71.2615 68.8443 71.7198 68.506C72.1781 68.1641 72.8091 67.9932 73.613 67.9932C74.4168 67.9932 75.057 68.1714 75.5335 68.5278C76.0099 68.8843 76.2573 69.3699 76.2755 69.9846H74.5459C74.5423 69.7845 74.4586 69.6172 74.295 69.4826C74.1349 69.3481 73.9294 69.2808 73.6784 69.2808C73.4347 69.2808 73.2438 69.3281 73.1056 69.4226C72.971 69.5172 72.9037 69.6354 72.9037 69.7773C72.9037 70.0137 73.111 70.1719 73.5257 70.2519L74.6823 70.4647C75.2752 70.5738 75.7135 70.7557 75.9972 71.0103C76.2809 71.2649 76.4228 71.6068 76.4228 72.036C76.4228 72.4289 76.3082 72.7744 76.0791 73.0727C75.8535 73.3709 75.5371 73.6037 75.1297 73.771C74.726 73.9347 74.255 74.0166 73.7166 74.0166Z" fill="white"/>
<path d="M67.693 74.0166C67.1619 74.0166 66.6909 73.9365 66.2799 73.7765C65.8688 73.6165 65.5397 73.3873 65.2923 73.089C65.0486 72.7908 64.9104 72.438 64.8777 72.0306H66.7273C66.7563 72.2452 66.8509 72.4143 67.011 72.538C67.171 72.6617 67.3892 72.7235 67.6657 72.7235C67.9239 72.7235 68.1258 72.678 68.2713 72.5871C68.4168 72.4962 68.4895 72.378 68.4895 72.2325C68.4895 71.9924 68.2567 71.8305 67.7912 71.7469L66.7491 71.5614C66.1817 71.4595 65.7488 71.2649 65.4506 70.9776C65.1559 70.6902 65.0086 70.3192 65.0086 69.8646C65.0086 69.2971 65.2378 68.8443 65.6961 68.506C66.1544 68.1641 66.7854 67.9932 67.5893 67.9932C68.3931 67.9932 69.0333 68.1714 69.5098 68.5278C69.9863 68.8843 70.2336 69.3699 70.2518 69.9846H68.5223C68.5186 69.7845 68.435 69.6172 68.2713 69.4826C68.1112 69.3481 67.9057 69.2808 67.6548 69.2808C67.4111 69.2808 67.2201 69.3281 67.0819 69.4226C66.9473 69.5172 66.88 69.6354 66.88 69.7773C66.88 70.0137 67.0873 70.1719 67.502 70.2519L68.6587 70.4647C69.2515 70.5738 69.6898 70.7557 69.9735 71.0103C70.2572 71.2649 70.3991 71.6068 70.3991 72.036C70.3991 72.4289 70.2845 72.7744 70.0554 73.0727C69.8299 73.3709 69.5134 73.6037 69.106 73.771C68.7023 73.9347 68.2313 74.0166 67.693 74.0166Z" fill="white"/>
<path d="M61.4849 74.0058C60.8956 74.0058 60.3773 73.8767 59.9299 73.6184C59.4862 73.3602 59.1388 73.0056 58.8878 72.5545C58.6405 72.0999 58.5168 71.5797 58.5168 70.9941C58.5168 70.4085 58.6405 69.8902 58.8878 69.4392C59.1388 68.9845 59.4844 68.628 59.9245 68.3698C60.3646 68.1115 60.8684 67.9824 61.4358 67.9824C62.0141 67.9824 62.5215 68.1097 62.958 68.3643C63.3981 68.6153 63.7418 68.9645 63.9892 69.4119C64.2365 69.8556 64.3602 70.3685 64.3602 70.9505V71.4579H60.35C60.361 71.8252 60.4701 72.1162 60.6774 72.3308C60.8884 72.5454 61.1793 72.6527 61.5503 72.6527C61.8268 72.6527 62.0578 72.5964 62.2433 72.4836C62.4324 72.3708 62.5615 72.2199 62.6306 72.0308H64.3165C64.2474 72.4163 64.0801 72.7582 63.8146 73.0565C63.549 73.3547 63.2144 73.5875 62.8107 73.7548C62.4106 73.9222 61.9686 74.0058 61.4849 74.0058ZM60.361 70.3339H62.6088C62.5652 70.0321 62.4451 69.7956 62.2487 69.6247C62.0523 69.4537 61.7977 69.3682 61.4849 69.3682C61.1684 69.3682 60.912 69.4537 60.7156 69.6247C60.5192 69.7956 60.401 70.0321 60.361 70.3339Z" fill="white"/>
<path d="M54.3916 73.8746V68.1131H56.2084V69.1279H56.2248C56.3303 68.7606 56.494 68.4969 56.7158 68.3368C56.9413 68.1731 57.2469 68.0913 57.6324 68.0913C57.7343 68.0913 57.8252 68.0931 57.9052 68.0968C57.9889 68.0968 58.0689 68.0986 58.1453 68.1022V69.6517C58.0762 69.6481 57.9689 69.6444 57.8234 69.6408C57.6779 69.6372 57.5379 69.6354 57.4033 69.6354C57.065 69.6354 56.7904 69.7481 56.5794 69.9736C56.3721 70.1991 56.2684 70.5156 56.2684 70.923V73.8746H54.3916Z" fill="white"/>
<path d="M50.4037 76.2318C49.5162 76.2318 48.8487 76.0517 48.4013 75.6916C47.9576 75.3315 47.692 74.8751 47.6048 74.3222H49.3998C49.4507 74.5004 49.5634 74.6404 49.738 74.7423C49.9126 74.8478 50.1345 74.9005 50.4037 74.9005C51.1166 74.9005 51.473 74.515 51.473 73.7438V72.8545H51.4676C51.3148 73.1964 51.0947 73.4456 50.8074 73.602C50.52 73.7584 50.1891 73.8366 49.8144 73.8366C49.3088 73.8366 48.8687 73.7129 48.4941 73.4656C48.1231 73.2146 47.8339 72.8709 47.6266 72.4344C47.4229 71.9979 47.321 71.4978 47.321 70.934C47.321 70.363 47.4265 69.8556 47.6375 69.4118C47.8485 68.9681 48.1394 68.6207 48.5104 68.3697C48.8814 68.1151 49.3106 67.9878 49.798 67.9878C50.5437 67.9878 51.1002 68.2988 51.4676 68.9208H51.473V68.1133H53.3389V73.5583C53.3389 74.4968 53.0734 75.177 52.5424 75.5989C52.015 76.0208 51.3021 76.2318 50.4037 76.2318ZM50.3382 72.3635C50.6946 72.3635 50.982 72.2325 51.2002 71.9707C51.4221 71.7051 51.533 71.3487 51.533 70.9013C51.533 70.4612 51.4221 70.1083 51.2002 69.8428C50.982 69.5773 50.6946 69.4445 50.3382 69.4445C49.9926 69.4445 49.7198 69.5737 49.5198 69.8319C49.3234 70.0902 49.2252 70.4466 49.2252 70.9013C49.2252 71.3596 49.3234 71.7179 49.5198 71.9761C49.7198 72.2344 49.9926 72.3635 50.3382 72.3635Z" fill="white"/>
<path d="M40.6428 73.8755V65.7461H46.6989V67.4156H42.607V68.9815H46.3879V70.6019H42.607V72.206H46.6989V73.8755H40.6428Z" fill="white"/>
<path d="M85.0696 53.4525V52.5405H90.5458V53.4525H88.3338V59.5086H87.2909V53.4525H85.0696Z" fill="white"/>
<path d="M78.635 59.5086V52.5405H79.7854L82.4464 56.7541C82.5274 56.885 82.6381 57.0705 82.7784 57.3106C82.9187 57.5507 83.059 57.7939 83.1993 58.0402C83.1899 57.7876 83.1821 57.532 83.1759 57.2732C83.1728 57.0113 83.1712 56.8165 83.1712 56.6886V52.5405H84.2141V59.5086H83.0543L80.674 55.744C80.5773 55.5912 80.437 55.3636 80.2531 55.0612C80.0723 54.7557 79.8665 54.4049 79.6358 54.009C79.6514 54.4174 79.6607 54.7697 79.6638 55.0659C79.6701 55.3589 79.6732 55.5834 79.6732 55.7393V59.5086H78.635Z" fill="white"/>
<path d="M72.9951 59.5086V52.5405H77.681V53.4525H74.0333V55.5055H77.4098V56.408H74.0333V58.5967H77.681V59.5086H72.9951Z" fill="white"/>
<path d="M67.7949 59.5086V52.5405H68.8331V58.5967H72.1301V59.5086H67.7949Z" fill="white"/>
<path d="M60.7803 59.5086L63.3103 52.5405H64.5636L67.0749 59.5086H65.9478L65.3305 57.6988H62.5199L61.8839 59.5086H60.7803ZM62.8333 56.8149H65.0266L64.6057 55.5803C64.5121 55.2935 64.4124 54.9864 64.3064 54.659C64.2004 54.3316 64.0788 53.9419 63.9416 53.4899C63.8013 53.9419 63.6782 54.3316 63.5722 54.659C63.4662 54.9864 63.3648 55.2935 63.2682 55.5803L62.8333 56.8149Z" fill="white"/>
<path d="M57.8569 59.5086L55.3269 52.5405H56.4446L57.8242 56.4688C57.9083 56.7214 58.005 57.0191 58.1141 57.3621C58.2232 57.705 58.3511 58.1056 58.4976 58.5639C58.6379 58.1056 58.761 57.705 58.867 57.3621C58.9762 57.0191 59.0728 56.7214 59.157 56.4688L60.4991 52.5405H61.5981L59.1055 59.5086H57.8569Z" fill="white"/>
<path d="M52.0157 59.6208C51.3984 59.6208 50.8481 59.4695 50.3649 59.1671C49.8816 58.8647 49.5013 58.4438 49.2238 57.9045C48.9494 57.3651 48.8123 56.74 48.8123 56.0292C48.8123 55.3152 48.9494 54.6886 49.2238 54.1492C49.5013 53.6067 49.8816 53.1843 50.3649 52.8818C50.8481 52.5794 51.3984 52.4282 52.0157 52.4282C52.6361 52.4282 53.1879 52.5794 53.6712 52.8818C54.1544 53.1843 54.5332 53.6067 54.8076 54.1492C55.085 54.6886 55.2238 55.3152 55.2238 56.0292C55.2238 56.74 55.085 57.3651 54.8076 57.9045C54.5332 58.4438 54.1544 58.8647 53.6712 59.1671C53.1879 59.4695 52.6361 59.6208 52.0157 59.6208ZM52.0157 58.6714C52.4179 58.6714 52.7826 58.5701 53.11 58.3674C53.4373 58.1617 53.6977 57.8624 53.891 57.4695C54.0843 57.0736 54.1809 56.5935 54.1809 56.0292C54.1809 55.4617 54.0843 54.9801 53.891 54.5841C53.6977 54.1882 53.4373 53.8889 53.11 53.6862C52.7826 53.4804 52.4179 53.3776 52.0157 53.3776C51.6166 53.3776 51.2534 53.4804 50.926 53.6862C50.5987 53.8889 50.3384 54.1882 50.1451 54.5841C49.9518 54.9801 49.8551 55.4617 49.8551 56.0292C49.8551 56.5935 49.9518 57.0736 50.1451 57.4695C50.3384 57.8624 50.5987 58.1617 50.926 58.3674C51.2534 58.5701 51.6166 58.6714 52.0157 58.6714Z" fill="white"/>
<path d="M45.4784 59.6208C44.6428 59.6208 43.9835 59.4103 43.5002 58.9894C43.0201 58.5654 42.78 57.9855 42.78 57.2497H43.8182C43.8213 57.708 43.9679 58.0666 44.2578 58.3254C44.5509 58.5841 44.9577 58.7135 45.4784 58.7135C45.9523 58.7135 46.3311 58.6137 46.6148 58.4142C46.9016 58.2116 47.045 57.9403 47.045 57.6005C47.045 57.3324 46.9421 57.1157 46.7364 56.9504C46.5337 56.7821 46.1908 56.6402 45.7075 56.5249L44.9453 56.3425C44.2407 56.1741 43.7262 55.9403 43.402 55.641C43.0809 55.3386 42.9203 54.9458 42.9203 54.4625C42.9203 54.0541 43.0232 53.6971 43.229 53.3916C43.4347 53.0861 43.7231 52.8491 44.0941 52.6808C44.4683 52.5124 44.9047 52.4282 45.4036 52.4282C46.1549 52.4282 46.752 52.6246 47.1947 53.0175C47.6405 53.4103 47.8743 53.9465 47.8961 54.6262H46.8907C46.8658 54.224 46.7192 53.9091 46.4511 53.6815C46.183 53.4508 45.8291 53.3355 45.3895 53.3355C44.9686 53.3355 44.6241 53.4368 44.356 53.6394C44.0879 53.839 43.9538 54.0962 43.9538 54.4111C43.9538 54.6636 44.0567 54.8694 44.2625 55.0284C44.4683 55.1843 44.8096 55.3199 45.2866 55.4352L46.0396 55.613C46.7379 55.7782 47.2523 56.0167 47.5828 56.3285C47.9164 56.6402 48.0832 57.0455 48.0832 57.5444C48.0832 57.9621 47.9756 58.3269 47.7605 58.6387C47.5454 58.9505 47.243 59.1921 46.8533 59.3635C46.4636 59.535 46.0053 59.6208 45.4784 59.6208Z" fill="white"/>
<path d="M41.7931 52.5405V59.5086H40.7549V52.5405H41.7931Z" fill="white"/>
<path fill-rule="evenodd" clip-rule="evenodd" d="M36.3632 69.8253L28.0224 79.0002V75.1078H3V64.5428H28.0224V60.6504L36.3632 69.8253ZM14.1211 67.323V72.3275H16.9013V67.323H14.1211Z" fill="white"/>
<path d="M20.6547 57.8699C20.6547 54.7222 18.1029 52.1704 14.9552 52.1704C11.8074 52.1704 9.25561 54.7222 9.25561 57.8699V62.0403H5.08521V57.8699C5.08521 52.4189 9.50414 48 14.9552 48C20.4062 48 24.8251 52.4189 24.8251 57.8699V62.0403H20.6547V57.8699Z" fill="white"/>
</svg>
