<svg width="128" height="128" viewBox="0 0 128 128" fill="none" xmlns="http://www.w3.org/2000/svg">
<path d="M116.646 80.8908V78.8101H117.784C118.064 78.8101 118.262 78.7477 118.376 78.623C118.49 78.5035 118.597 78.2931 118.696 77.9918L118.836 77.6177L115.672 69.4038H118.477L119.693 73.1913C119.781 73.477 119.867 73.7627 119.95 74.0485C120.033 74.3342 120.117 74.6226 120.2 74.9135C120.278 74.6226 120.358 74.3342 120.441 74.0485C120.53 73.7627 120.618 73.477 120.706 73.1913L121.945 69.4038H124.72L121.174 78.7945C120.893 79.5374 120.54 80.0726 120.114 80.3999C119.693 80.7272 119.137 80.8908 118.446 80.8908H116.646Z" fill="white"/>
<path d="M110.178 77.7741C109.352 77.7741 108.674 77.5741 108.144 77.1741C107.619 76.7688 107.357 76.1558 107.357 75.3349C107.357 74.7166 107.5 74.2283 107.786 73.8698C108.076 73.5113 108.464 73.2463 108.947 73.0749C109.43 72.9034 109.965 72.7943 110.552 72.7476C111.29 72.6852 111.809 72.6099 112.111 72.5216C112.412 72.4333 112.563 72.2644 112.563 72.015V71.9761C112.563 71.7319 112.459 71.5345 112.251 71.3838C112.048 71.2279 111.77 71.15 111.417 71.15C111.043 71.15 110.744 71.2331 110.521 71.3994C110.303 71.5656 110.181 71.789 110.155 72.0696H107.661C107.718 71.176 108.074 70.4798 108.729 69.981C109.388 69.4771 110.316 69.2251 111.511 69.2251C112.706 69.2251 113.623 69.4771 114.262 69.981C114.901 70.4798 115.22 71.1838 115.22 72.093V77.6339H112.602V76.4805H112.571C112.326 76.9221 112.012 77.2494 111.628 77.4624C111.243 77.6702 110.76 77.7741 110.178 77.7741ZM110.996 76.0207C111.443 76.0207 111.82 75.8986 112.126 75.6544C112.433 75.405 112.586 75.0777 112.586 74.6725V73.9243C112.446 73.9919 112.251 74.0516 112.002 74.1036C111.752 74.1555 111.461 74.2101 111.129 74.2672C110.77 74.3244 110.474 74.4283 110.24 74.579C110.012 74.7296 109.897 74.94 109.897 75.2102C109.897 75.4648 109.999 75.6648 110.201 75.8103C110.404 75.9505 110.669 76.0207 110.996 76.0207Z" fill="white"/>
<path d="M96.1824 77.6333L93.6497 69.4038H96.4708L97.1098 71.9755C97.2241 72.4535 97.3332 72.9497 97.4371 73.464C97.5462 73.9732 97.6553 74.4823 97.7644 74.9915C97.8839 74.4823 98.0034 73.9732 98.1229 73.464C98.2476 72.9497 98.3723 72.4535 98.497 71.9755L99.175 69.4038H101.552L102.23 71.9755C102.355 72.4535 102.477 72.9497 102.596 73.464C102.721 73.9732 102.843 74.4823 102.962 74.9915C103.066 74.4823 103.168 73.9732 103.266 73.464C103.37 72.9549 103.479 72.4587 103.594 71.9755L104.209 69.4038H107.077L104.544 77.6333H101.778L100.866 74.555C100.778 74.2485 100.692 73.9368 100.609 73.6199C100.526 73.2978 100.445 72.9756 100.367 72.6535C100.284 72.9756 100.201 73.2978 100.118 73.6199C100.035 73.9368 99.9491 74.2485 99.8608 74.555L98.949 77.6333H96.1824Z" fill="white"/>
<path d="M89.3171 77.8209C88.4754 77.8209 87.7351 77.6364 87.0961 77.2676C86.4622 76.8987 85.9661 76.3921 85.6076 75.7479C85.2543 75.0985 85.0776 74.3555 85.0776 73.5191C85.0776 72.6826 85.2543 71.9423 85.6076 71.298C85.9661 70.6486 86.4596 70.1395 87.0883 69.7706C87.7169 69.4017 88.4365 69.2173 89.247 69.2173C90.073 69.2173 90.7978 69.3991 91.4212 69.7628C92.0499 70.1213 92.5409 70.62 92.8941 71.2591C93.2474 71.8929 93.4241 72.6255 93.4241 73.4567V74.1815H87.6961C87.7117 74.7062 87.8676 75.1219 88.1637 75.4284C88.465 75.7349 88.8807 75.8882 89.4106 75.8882C89.8055 75.8882 90.1354 75.8076 90.4003 75.6466C90.6705 75.4855 90.8549 75.2699 90.9537 74.9998H93.3617C93.263 75.5505 93.024 76.0388 92.6448 76.4649C92.2655 76.8909 91.7875 77.2234 91.2108 77.4624C90.6393 77.7014 90.0081 77.8209 89.3171 77.8209ZM87.7117 72.5761H90.9225C90.8601 72.1449 90.6887 71.8072 90.4081 71.563C90.1276 71.3188 89.7639 71.1967 89.3171 71.1967C88.8651 71.1967 88.4988 71.3188 88.2183 71.563C87.9377 71.8072 87.7689 72.1449 87.7117 72.5761Z" fill="white"/>
<path d="M84.429 69.4046V71.4775H82.7379V74.8675C82.7379 75.1325 82.7898 75.3143 82.8937 75.413C82.9976 75.5118 83.2003 75.5611 83.5016 75.5611H84.429V77.6341H82.9093C81.9222 77.6341 81.1974 77.4496 80.735 77.0808C80.2778 76.7067 80.0492 76.1196 80.0492 75.3195V71.4775H78.6465V69.4046H80.0492V67.1602H82.7379V69.4046H84.429Z" fill="white"/>
<path d="M72.7115 77.7741C71.8854 77.7741 71.2074 77.5741 70.6775 77.1741C70.1527 76.7688 69.8904 76.1558 69.8904 75.3349C69.8904 74.7166 70.0333 74.2283 70.319 73.8698C70.6099 73.5113 70.997 73.2463 71.4802 73.0749C71.9634 72.9034 72.4985 72.7943 73.0856 72.7476C73.8233 72.6852 74.3429 72.6099 74.6442 72.5216C74.9455 72.4333 75.0962 72.2644 75.0962 72.015V71.9761C75.0962 71.7319 74.9923 71.5345 74.7845 71.3838C74.5818 71.2279 74.3039 71.15 73.9506 71.15C73.5765 71.15 73.2778 71.2331 73.0544 71.3994C72.8362 71.5656 72.7141 71.789 72.6881 72.0696H70.1943C70.2515 71.176 70.6073 70.4798 71.262 69.981C71.9218 69.4771 72.8492 69.2251 74.0441 69.2251C75.2391 69.2251 76.1561 69.4771 76.7951 69.981C77.4341 70.4798 77.7536 71.1838 77.7536 72.093V77.6339H75.1352V76.4805H75.104C74.8598 76.9221 74.5455 77.2494 74.161 77.4624C73.7766 77.6702 73.2934 77.7741 72.7115 77.7741ZM73.5298 76.0207C73.9766 76.0207 74.3532 75.8986 74.6598 75.6544C74.9663 75.405 75.1196 75.0777 75.1196 74.6725V73.9243C74.9793 73.9919 74.7845 74.0516 74.5351 74.1036C74.2857 74.1555 73.9948 74.2101 73.6623 74.2672C73.3038 74.3244 73.0076 74.4283 72.7738 74.579C72.5452 74.7296 72.4309 74.94 72.4309 75.2102C72.4309 75.4648 72.5323 75.6648 72.7349 75.8103C72.9375 75.9505 73.2025 76.0207 73.5298 76.0207Z" fill="white"/>
<path d="M63.6762 77.8207C62.554 77.8207 61.5721 77.574 60.7304 77.0804C59.8888 76.5868 59.2342 75.8933 58.7666 74.9996C58.299 74.1008 58.0652 73.0462 58.0652 71.8356C58.0652 70.5732 58.3094 69.4951 58.7977 68.6015C59.2861 67.7027 59.9485 67.0169 60.785 66.5441C61.6266 66.0714 62.5748 65.835 63.6295 65.835C64.5439 65.835 65.3777 66.009 66.1311 66.3571C66.8896 66.7 67.5105 67.1806 67.9936 67.7988C68.4768 68.4171 68.76 69.1392 68.8431 69.9653H65.9908C65.8869 69.451 65.6401 69.0431 65.2504 68.7418C64.866 68.4353 64.3594 68.282 63.7308 68.282C62.8268 68.282 62.1254 68.5963 61.6266 69.225C61.1331 69.8484 60.8863 70.7186 60.8863 71.8356C60.8863 72.9527 61.1357 73.8229 61.6344 74.4463C62.1384 75.0646 62.8476 75.3737 63.762 75.3737C64.4997 75.3737 65.0842 75.1893 65.5154 74.8204C65.9518 74.4515 66.1752 73.9684 66.1856 73.3709H63.8633V71.3135H68.9288V72.8877C68.9288 73.8696 68.7054 74.7321 68.2586 75.475C67.817 76.2128 67.2013 76.7895 66.4116 77.2051C65.6219 77.6155 64.7101 77.8207 63.6762 77.8207Z" fill="white"/>
<path d="M50.2434 77.8365C49.4849 77.8365 48.8121 77.7222 48.225 77.4936C47.6379 77.265 47.1677 76.9377 46.8144 76.5117C46.4664 76.0856 46.2689 75.5817 46.2222 74.9998H48.864C48.9056 75.3063 49.0407 75.5479 49.2693 75.7246C49.4979 75.9012 49.8096 75.9895 50.2045 75.9895C50.5733 75.9895 50.8617 75.9246 51.0695 75.7947C51.2773 75.6648 51.3812 75.496 51.3812 75.2881C51.3812 74.9453 51.0487 74.7141 50.3837 74.5946L48.8952 74.3296C48.0847 74.1841 47.4665 73.9062 47.0404 73.4957C46.6196 73.0853 46.4092 72.5554 46.4092 71.9059C46.4092 71.0955 46.7365 70.4486 47.3911 69.9655C48.0458 69.4771 48.9472 69.2329 50.0954 69.2329C51.2435 69.2329 52.1579 69.4875 52.8385 69.9966C53.5191 70.5058 53.8724 71.1994 53.8984 72.0774H51.428C51.4228 71.7916 51.3033 71.5527 51.0695 71.3604C50.8409 71.1682 50.5474 71.0721 50.1889 71.0721C49.8408 71.0721 49.568 71.1396 49.3706 71.2747C49.1784 71.4098 49.0822 71.5786 49.0822 71.7813C49.0822 72.119 49.3784 72.345 49.9707 72.4593L51.6228 72.7632C52.4697 72.919 53.0957 73.1788 53.5009 73.5425C53.9062 73.9062 54.1088 74.3945 54.1088 75.0076C54.1088 75.5687 53.9452 76.0623 53.6178 76.4883C53.2957 76.9143 52.8437 77.2468 52.2618 77.4858C51.6851 77.7196 51.0123 77.8365 50.2434 77.8365Z" fill="white"/>
<path d="M41.6409 77.8365C40.8824 77.8365 40.2095 77.7222 39.6225 77.4936C39.0354 77.265 38.5652 76.9377 38.2119 76.5117C37.8638 76.0856 37.6664 75.5817 37.6196 74.9998H40.2615C40.3031 75.3063 40.4381 75.5479 40.6667 75.7246C40.8953 75.9012 41.2071 75.9895 41.6019 75.9895C41.9708 75.9895 42.2591 75.9246 42.467 75.7947C42.6748 75.6648 42.7787 75.496 42.7787 75.2881C42.7787 74.9453 42.4462 74.7141 41.7812 74.5946L40.2927 74.3296C39.4822 74.1841 38.8639 73.9062 38.4379 73.4957C38.0171 73.0853 37.8067 72.5554 37.8067 71.9059C37.8067 71.0955 38.134 70.4486 38.7886 69.9655C39.4432 69.4771 40.3446 69.2329 41.4928 69.2329C42.641 69.2329 43.5554 69.4875 44.236 69.9966C44.9166 70.5058 45.2699 71.1994 45.2959 72.0774H42.8254C42.8202 71.7916 42.7007 71.5527 42.467 71.3604C42.2384 71.1682 41.9448 71.0721 41.5863 71.0721C41.2382 71.0721 40.9655 71.1396 40.7681 71.2747C40.5758 71.4098 40.4797 71.5786 40.4797 71.7813C40.4797 72.119 40.7758 72.345 41.3681 72.4593L43.0203 72.7632C43.8671 72.919 44.4932 73.1788 44.8984 73.5425C45.3037 73.9062 45.5063 74.3945 45.5063 75.0076C45.5063 75.5687 45.3426 76.0623 45.0153 76.4883C44.6932 76.9143 44.2412 77.2468 43.6593 77.4858C43.0826 77.7196 42.4098 77.8365 41.6409 77.8365Z" fill="white"/>
<path d="M32.77 77.8209C31.9283 77.8209 31.188 77.6364 30.5489 77.2676C29.9151 76.8987 29.4189 76.3921 29.0605 75.7479C28.7072 75.0985 28.5305 74.3555 28.5305 73.5191C28.5305 72.6826 28.7072 71.9423 29.0605 71.298C29.4189 70.6486 29.9125 70.1395 30.5411 69.7706C31.1698 69.4017 31.8894 69.2173 32.6998 69.2173C33.5259 69.2173 34.2507 69.3991 34.8741 69.7628C35.5028 70.1213 35.9937 70.62 36.347 71.2591C36.7003 71.8929 36.877 72.6255 36.877 73.4567V74.1815H31.149C31.1646 74.7062 31.3205 75.1219 31.6166 75.4284C31.9179 75.7349 32.3336 75.8882 32.8635 75.8882C33.2583 75.8882 33.5883 75.8076 33.8532 75.6466C34.1234 75.4855 34.3078 75.2699 34.4065 74.9998H36.8146C36.7159 75.5505 36.4769 76.0388 36.0976 76.4649C35.7184 76.8909 35.2404 77.2234 34.6637 77.4624C34.0922 77.7014 33.461 77.8209 32.77 77.8209ZM31.1646 72.5761H34.3754C34.313 72.1449 34.1416 71.8072 33.861 71.563C33.5805 71.3188 33.2168 71.1967 32.77 71.1967C32.318 71.1967 31.9517 71.3188 31.6711 71.563C31.3906 71.8072 31.2217 72.1449 31.1646 72.5761Z" fill="white"/>
<path d="M22.6384 77.6342V69.4047H25.2335V70.8542H25.2569C25.4076 70.3295 25.6414 69.9528 25.9583 69.7242C26.2804 69.4904 26.7168 69.3735 27.2675 69.3735C27.413 69.3735 27.5429 69.3761 27.6572 69.3813C27.7767 69.3813 27.891 69.3839 28.0001 69.3891V71.6024C27.9014 71.5972 27.7481 71.592 27.5403 71.5868C27.3325 71.5816 27.1325 71.579 26.9402 71.579C26.4571 71.579 26.0648 71.74 25.7635 72.0622C25.4673 72.3843 25.3193 72.8363 25.3193 73.4182V77.6342H22.6384Z" fill="white"/>
<path d="M16.94 81.0005C15.6723 81.0005 14.7189 80.7433 14.0799 80.229C13.4461 79.7146 13.0668 79.0626 12.9421 78.2729H15.506C15.5788 78.5275 15.7398 78.7275 15.9892 78.873C16.2386 79.0236 16.5555 79.099 16.94 79.099C17.9583 79.099 18.4674 78.5482 18.4674 77.4468V76.1765H18.4596C18.2414 76.6649 17.9271 77.0208 17.5167 77.2442C17.1062 77.4676 16.6335 77.5793 16.0983 77.5793C15.3762 77.5793 14.7475 77.4027 14.2124 77.0494C13.6825 76.6909 13.2694 76.1999 12.9733 75.5765C12.6823 74.953 12.5369 74.2387 12.5369 73.4334C12.5369 72.6177 12.6875 71.8929 12.9889 71.2591C13.2902 70.6253 13.7058 70.1291 14.2358 69.7706C14.7657 69.4069 15.3788 69.2251 16.0749 69.2251C17.14 69.2251 17.9349 69.6693 18.4596 70.5577H18.4674V69.4043H21.1327V77.1818C21.1327 78.5223 20.7534 79.4938 19.9949 80.0965C19.2416 80.6991 18.2232 81.0005 16.94 81.0005ZM16.8465 75.4752C17.3556 75.4752 17.7661 75.2881 18.0778 74.9141C18.3947 74.5348 18.5532 74.0256 18.5532 73.3866C18.5532 72.758 18.3947 72.254 18.0778 71.8748C17.7661 71.4955 17.3556 71.3059 16.8465 71.3059C16.3529 71.3059 15.9632 71.4903 15.6775 71.8592C15.3969 72.228 15.2567 72.7372 15.2567 73.3866C15.2567 74.0412 15.3969 74.553 15.6775 74.9219C15.9632 75.2907 16.3529 75.4752 16.8465 75.4752Z" fill="white"/>
<path d="M3 77.6332V66.0215H11.6504V68.4062H5.80553V70.6428H11.2062V72.9573H5.80553V75.2485H11.6504V77.6332H3Z" fill="white"/>
<path d="M92.5181 48.4622V47.1597H100.34V48.4622H97.1806V57.1126H95.691V48.4622H92.5181Z" fill="white"/>
<path d="M83.3264 57.1126V47.1597H84.9697L88.7705 53.1782C88.8863 53.3652 89.0443 53.6302 89.2447 53.9731C89.4451 54.316 89.6455 54.6633 89.8459 55.0151C89.8326 54.6544 89.8214 54.2892 89.8125 53.9196C89.8081 53.5456 89.8058 53.2672 89.8058 53.0846V47.1597H91.2954V57.1126H89.6388L86.2388 51.7353C86.1008 51.5171 85.9004 51.192 85.6376 50.7601C85.3793 50.3237 85.0854 49.8227 84.7559 49.2571C84.7782 49.8405 84.7915 50.3437 84.796 50.7668C84.8049 51.1854 84.8093 51.506 84.8093 51.7286V57.1126H83.3264Z" fill="white"/>
<path d="M75.2725 57.1126V47.1597H81.9656V48.4622H76.7554V51.3947H81.5782V52.6839H76.7554V55.81H81.9656V57.1126H75.2725Z" fill="white"/>
<path d="M67.8433 57.1126V47.1597H69.3262V55.81H74.0355V57.1126H67.8433Z" fill="white"/>
<path d="M57.8225 57.1126L61.4363 47.1597H63.2265L66.8135 57.1126H65.2037L64.322 54.5275H60.3074L59.3989 57.1126H57.8225ZM60.755 53.265H63.8878L63.2866 51.5015C63.153 51.0918 63.0105 50.6532 62.8591 50.1856C62.7077 49.718 62.534 49.1614 62.3381 48.5157C62.1377 49.1614 61.9618 49.718 61.8104 50.1856C61.659 50.6532 61.5142 51.0918 61.3762 51.5015L60.755 53.265Z" fill="white"/>
<path d="M53.6497 57.1126L50.0359 47.1597H51.6324L53.6029 52.7707C53.7232 53.1314 53.8612 53.5567 54.0171 54.0465C54.1729 54.5364 54.3555 55.1086 54.5648 55.7632C54.7652 55.1086 54.9411 54.5364 55.0925 54.0465C55.2484 53.5567 55.3864 53.1314 55.5067 52.7707L57.4238 47.1597H58.9935L55.4332 57.1126H53.6497Z" fill="white"/>
<path d="M45.3035 57.2735C44.4217 57.2735 43.6357 57.0575 42.9455 56.6256C42.2552 56.1936 41.7119 55.5924 41.3156 54.822C40.9237 54.0516 40.7278 53.1588 40.7278 52.1434C40.7278 51.1237 40.9237 50.2286 41.3156 49.4582C41.7119 48.6833 42.2552 48.0799 42.9455 47.6479C43.6357 47.216 44.4217 47 45.3035 47C46.1897 47 46.9779 47.216 47.6681 47.6479C48.3584 48.0799 48.8994 48.6833 49.2913 49.4582C49.6877 50.2286 49.8858 51.1237 49.8858 52.1434C49.8858 53.1588 49.6877 54.0516 49.2913 54.822C48.8994 55.5924 48.3584 56.1936 47.6681 56.6256C46.9779 57.0575 46.1897 57.2735 45.3035 57.2735ZM45.3035 55.9175C45.8779 55.9175 46.399 55.7728 46.8665 55.4833C47.3341 55.1894 47.706 54.7619 47.9821 54.2008C48.2582 53.6353 48.3962 52.9495 48.3962 52.1434C48.3962 51.333 48.2582 50.6449 47.9821 50.0794C47.706 49.5138 47.3341 49.0863 46.8665 48.7969C46.399 48.503 45.8779 48.356 45.3035 48.356C44.7334 48.356 44.2147 48.503 43.7471 48.7969C43.2795 49.0863 42.9076 49.5138 42.6315 50.0794C42.3554 50.6449 42.2174 51.333 42.2174 52.1434C42.2174 52.9495 42.3554 53.6353 42.6315 54.2008C42.9076 54.7619 43.2795 55.1894 43.7471 55.4833C44.2147 55.7728 44.7334 55.9175 45.3035 55.9175Z" fill="white"/>
<path d="M35.968 57.2735C34.7746 57.2735 33.8327 56.9729 33.1425 56.3718C32.4567 55.7661 32.1138 54.9378 32.1138 53.8869H33.5967C33.6011 54.5415 33.8104 55.0536 34.2246 55.4232C34.6432 55.7928 35.2243 55.9776 35.968 55.9776C36.6449 55.9776 37.186 55.8351 37.5912 55.5501C38.0009 55.2607 38.2058 54.8733 38.2058 54.3879C38.2058 54.0049 38.0588 53.6954 37.7649 53.4594C37.4754 53.2189 36.9856 53.0163 36.2953 52.8515L35.2065 52.591C34.2001 52.3505 33.4653 52.0165 33.0022 51.589C32.5435 51.1571 32.3142 50.596 32.3142 49.9057C32.3142 49.3223 32.4611 48.8125 32.755 48.376C33.0489 47.9396 33.4609 47.6012 33.9908 47.3607C34.5252 47.1202 35.1486 47 35.8611 47C36.9344 47 37.7872 47.2806 38.4195 47.8417C39.0563 48.4028 39.3903 49.1687 39.4215 50.1395H37.9853C37.9497 49.565 37.7404 49.1153 37.3574 48.7902C36.9745 48.4606 36.469 48.2959 35.8411 48.2959C35.2399 48.2959 34.7478 48.4406 34.3649 48.7301C33.9819 49.0151 33.7904 49.3825 33.7904 49.8322C33.7904 50.1929 33.9374 50.4869 34.2313 50.714C34.5252 50.9366 35.0128 51.1303 35.6942 51.2951L36.7696 51.5489C37.7671 51.785 38.5019 52.1256 38.9739 52.571C39.4504 53.0163 39.6887 53.5952 39.6887 54.3077C39.6887 54.9044 39.5351 55.4255 39.2278 55.8708C38.9205 56.3161 38.4885 56.6612 37.9319 56.9061C37.3752 57.1511 36.7206 57.2735 35.968 57.2735Z" fill="white"/>
<path d="M30.7051 47.1597V57.1126H29.2222V47.1597H30.7051Z" fill="white"/>
</svg>
