<svg width="128" height="128" viewBox="0 0 128 128" fill="none" xmlns="http://www.w3.org/2000/svg">
<path d="M104.192 48.35C104.199 45.1351 103.212 41.9966 101.367 39.3645C99.5209 36.7323 96.9064 34.7352 93.8815 33.6468C94.1567 32.2437 94.2955 30.8172 94.2959 29.3874C94.2986 24.6545 92.8004 20.0427 90.0167 16.215C87.2331 12.3873 83.3074 9.54087 78.804 8.08496C74.3007 6.62904 69.4516 6.63864 64.9541 8.11236C60.4565 9.58609 56.5421 12.448 53.7736 16.2867C51.7311 14.704 49.2285 13.83 46.6448 13.7971C44.061 13.7643 41.537 14.5743 39.4549 16.1047C37.3729 17.635 35.8463 19.8021 35.1064 22.2779C34.3664 24.7536 34.4535 27.403 35.3544 29.8248C32.3223 30.93 29.7013 32.9373 27.8441 35.5766C25.9869 38.2159 24.9825 41.3606 24.966 44.5878C24.9576 47.8138 25.9494 50.963 27.8049 53.6019C29.6603 56.2408 32.2883 58.2396 35.3268 59.3232C35.0578 60.7256 34.9206 62.1501 34.9169 63.578C34.9124 68.3054 36.4093 72.9121 39.1919 76.7338C41.9744 80.5556 45.8987 83.3949 50.399 84.8424C54.8993 86.2899 59.7431 86.2708 64.2318 84.7879C68.7206 83.3049 72.6224 80.4348 75.3747 76.5912C77.4112 78.1779 79.9096 79.0572 82.491 79.0957C85.0723 79.1342 87.5959 78.3299 89.6788 76.8047C91.7617 75.2794 93.2904 73.1166 94.0331 70.644C94.7757 68.1715 94.6918 65.5242 93.794 63.1037C96.8277 62.0004 99.4503 59.9938 101.309 57.3542C103.167 54.7146 104.171 51.5688 104.187 48.3407" fill="white"/>
<path d="M56.1128 40.9914L73.4499 48.9071L90.9481 33.5823C91.2002 32.3178 91.3251 31.0312 91.3211 29.7419C91.3202 25.5676 89.9834 21.5032 87.5062 18.1434C85.0291 14.7836 81.5417 12.3048 77.5543 11.0697C73.567 9.83459 69.289 9.90802 65.3464 11.2792C61.4038 12.6505 58.0035 15.2475 55.6431 18.6903L52.7283 33.7665L56.1128 40.9914Z" fill="#FEC514"/>
<path d="M38.168 59.3513C37.9124 60.6356 37.7843 61.9421 37.7858 63.2516C37.7859 67.4432 39.1296 71.5245 41.6197 74.8963C44.1098 78.2682 47.6151 80.7531 51.6212 81.9863C55.6274 83.2195 59.9233 83.1361 63.8785 81.7483C67.8338 80.3605 71.24 77.7414 73.5974 74.2755L76.4846 59.2316L72.6304 51.8639L55.2288 43.9344L38.168 59.3513Z" fill="#00BFB3"/>
<path d="M38.0621 29.3497L49.9425 32.154L52.5442 18.6435C50.9283 17.4182 48.9589 16.7493 46.931 16.737C44.9032 16.7246 42.9258 17.3695 41.2951 18.575C39.6644 19.7806 38.4681 21.4819 37.8853 23.4243C37.3024 25.3666 37.3645 27.4455 38.0621 29.3497Z" fill="#F04E98"/>
<path d="M37.0305 32.1781C34.4239 33.0577 32.1561 34.7278 30.5427 36.9561C28.9292 39.1844 28.0503 41.8601 28.0281 44.6111C28.0263 47.2698 28.8337 49.8661 30.343 52.0549C31.8524 54.2437 33.9922 55.9212 36.478 56.8644L53.1473 41.7975L50.0852 35.2587L37.0305 32.1781Z" fill="#1BA9F5"/>
<path d="M76.6459 74.2748C78.2592 75.4939 80.2236 76.1584 82.2456 76.1692C84.2677 76.1799 86.239 75.5363 87.8652 74.3344C89.4913 73.1325 90.6851 71.4369 91.2682 69.5007C91.8513 67.5645 91.7924 65.4916 91.1004 63.5916L79.2292 60.8287L76.6459 74.2748Z" fill="#93C90E"/>
<path d="M79.0587 57.6999L92.1271 60.7529C94.7353 59.8756 97.0046 58.2062 98.6184 55.9774C100.232 53.7485 101.11 51.0716 101.13 48.3199C101.127 45.6668 100.318 43.0771 98.8098 40.8944C97.3015 38.7117 95.1652 37.0392 92.6843 36.0988L75.5913 51.0644L79.0587 57.6999Z" fill="#0077CC"/>
<path d="M85.6611 97.2894H92.79V100.208H85.6455V110.95C85.6455 113.524 85.8331 115.216 86.207 116.025C86.5862 116.836 87.473 117.238 88.8789 117.238L92.8779 116.968L93.1045 119.754C91.5905 120.034 90.0573 120.2 88.5186 120.25C86.184 120.25 84.5665 119.681 83.667 118.541C82.7675 117.402 82.3197 115.23 82.3223 112.026V100.208H79.1455V97.2894H82.3369V90.4144H85.6611V97.2894ZM16.3916 96.8402C19.4237 96.8402 21.686 97.6873 23.1768 99.3802C24.6673 101.073 25.4149 103.726 25.4199 107.339L25.2422 109.902H10.415C10.4151 112.388 10.8652 114.229 11.7647 115.427C12.6641 116.625 14.2277 117.224 16.4561 117.224C18.6897 117.232 20.9593 117.146 23.2637 116.966L24.5674 116.833L24.6582 119.487C21.757 119.925 18.8294 120.166 15.8955 120.207C12.6615 120.207 10.3699 119.271 9.02051 117.399C7.67125 115.527 6.99752 112.613 7.00001 108.659C7.00001 100.783 10.1305 96.8429 16.3916 96.8402ZM115.44 96.8363C117.123 96.9081 118.8 97.0892 120.459 97.3783L121.535 97.5111L121.402 100.251C119.642 100.028 117.87 99.8945 116.096 99.85C113.549 99.85 111.819 100.457 110.907 101.669C109.995 102.882 109.538 105.129 109.535 108.409C109.535 111.693 109.962 113.978 110.816 115.261C111.67 116.545 113.452 117.189 116.16 117.194L121.467 116.792L121.604 119.578C119.538 119.927 117.451 120.138 115.357 120.207C111.855 120.207 109.437 119.307 108.103 117.508C106.769 115.709 106.102 112.677 106.102 108.411C106.102 104.144 106.82 101.148 108.258 99.4252C109.696 97.7019 112.09 96.8388 115.44 96.8363ZM67.6963 96.8344C69.516 96.8344 75.8101 97.2972 75.8633 97.3011V100.239C72.5167 100.091 69.7802 99.8519 67.8662 99.8519C64.5992 99.852 62.9658 100.989 62.9658 103.263C62.9659 104.314 63.3447 105.056 64.1025 105.488C64.8606 105.92 66.568 106.37 69.2236 106.837C71.8915 107.305 73.779 107.956 74.8857 108.792C75.9925 109.629 76.5473 111.201 76.5498 113.508C76.5497 115.817 75.8081 117.51 74.3252 118.586C72.842 119.663 70.6772 120.203 67.832 120.205C65.9755 120.205 59.7807 119.516 59.7744 119.515L59.9561 116.597C63.5187 116.938 66.0924 117.192 67.832 117.192C69.5717 117.192 70.8952 116.915 71.8086 116.362C72.7218 115.808 73.1768 114.879 73.1768 113.576C73.1767 112.272 72.7971 111.389 72.0088 110.923C71.2204 110.457 69.5227 110.017 66.8887 109.596C64.2545 109.175 62.3782 108.562 61.2715 107.754C60.1648 106.947 59.6074 105.446 59.6074 103.259C59.6074 101.072 60.3661 99.4688 61.9238 98.4076C63.4815 97.3465 65.392 96.8344 67.6963 96.8344ZM47.4336 96.8363C49.9804 96.8363 51.8302 97.4214 52.9824 98.5912C54.1346 99.7611 54.7109 101.589 54.7109 104.073V115.405C54.7109 116.539 57.4968 116.481 57.5078 116.481L57.3369 119.46C54.9684 119.46 53.0089 119.658 51.834 118.517C49.2897 119.647 46.5338 120.222 43.75 120.203C41.6858 120.203 40.1127 119.618 39.0313 118.449C37.9498 117.279 37.4096 115.597 37.4121 113.404C37.4121 111.215 37.9669 109.604 39.0762 108.571C40.1854 107.537 41.9232 106.906 44.2881 106.676L51.3408 106.005V104.073C51.3408 102.557 51.0124 101.462 50.3555 100.789C49.9956 100.452 49.571 100.19 49.1074 100.021C48.6437 99.8515 48.1503 99.7777 47.6572 99.8041H38.8037V96.8363H47.4336ZM33.4893 120.031H30.1201V90.4672H33.4893V120.031ZM100.845 120.03H97.4746V97.2885H100.845V120.03ZM44.6934 109.193C43.3443 109.314 42.3704 109.703 41.7715 110.36C41.1727 111.017 40.8703 111.976 40.8652 113.237C40.8652 115.993 42.0023 117.372 44.2764 117.372C46.3279 117.37 48.3642 117.02 50.2988 116.337L51.3301 115.977V108.564L44.6934 109.193ZM16.415 99.6683C14.4216 99.6683 12.9231 100.267 11.9199 101.464C10.9168 102.662 10.3995 104.58 10.3691 107.218H22.0508C22.0508 104.461 21.6094 102.514 20.7275 101.377C19.8457 100.24 18.4084 99.6709 16.415 99.6683ZM100.845 94.4193H97.4746V90.5072H100.845V94.4193Z" fill="#1C1E23"/>
</svg>
