<svg width="128" height="128" viewBox="0 0 128 128" fill="none" xmlns="http://www.w3.org/2000/svg">
<path fill-rule="evenodd" clip-rule="evenodd" d="M109.912 30.6965L109.918 30.6849C100.379 19.2683 86.039 12 69.9983 12C49.5858 12 31.9292 23.771 23.4187 40.8883H91.1947C96.0575 40.8883 100.791 39.2128 104.512 36.0813C106.446 34.4539 108.254 32.6821 109.912 30.6965Z" fill="#FEC514"/>
<path fill-rule="evenodd" clip-rule="evenodd" d="M18 63.9996C18 68.6641 18.624 73.1803 19.7757 77.4808H83.4802C90.9257 77.4808 96.9615 71.4451 96.9615 63.9996C96.9615 56.5542 90.9257 50.5184 83.4802 50.5184H19.7757C18.624 54.8189 18 59.3351 18 63.9996Z" fill="#343741"/>
<path fill-rule="evenodd" clip-rule="evenodd" d="M109.912 97.3035L109.918 97.315C100.379 108.732 86.039 116 69.9983 116C49.5858 116 31.9292 104.229 23.4187 87.1117H91.1947C96.0575 87.1117 100.791 88.7872 104.512 91.9187C106.446 93.5461 108.254 95.3179 109.912 97.3035Z" fill="#00BFB3"/>
</svg>
