<svg width="128" height="128" viewBox="0 0 128 128" fill="none" xmlns="http://www.w3.org/2000/svg">
<path fill-rule="evenodd" clip-rule="evenodd" d="M68.042 99.7708L76.1718 89.4908C81.3452 82.6896 84.6697 73.251 84.6025 63.8469C84.5371 54.6831 81.2122 45.5521 76.1718 38.9263L68.042 28.1958L72.2251 22.9516C76.4549 18.4281 82.1159 15 88.7114 15H109.44V113H88.7114C82.1159 113 76.0183 109.092 71.3764 103.677L68.042 99.7708Z" fill="#FEC514"/>
<path fill-rule="evenodd" clip-rule="evenodd" d="M19 113V15H37.2516C42.6221 15 47.7733 17.566 51.0298 21.8589L69.4186 46.0968C77.5792 56.8243 77.5792 71.2448 69.4148 81.978L51.0242 106.16C47.7659 110.443 42.6221 113 37.2628 113H19Z" fill="#F04E98"/>
<path fill-rule="evenodd" clip-rule="evenodd" d="M60.827 93.2556L50.2489 81.9035C41.2243 71.176 41.2243 56.7555 50.253 46.0223L60.4514 34.2677L69.4215 46.0223C77.7144 56.7499 77.7182 71.333 69.4215 82.0661L60.827 93.2556Z" fill="#343741"/>
</svg>
