<svg width="128" height="128" viewBox="0 0 128 128" fill="none" xmlns="http://www.w3.org/2000/svg">
<path d="M45.1658 65.0074C45.1698 63.2964 44.6447 61.626 43.6623 60.2251C42.68 58.8242 41.2885 57.7613 39.6785 57.1821C39.825 56.4353 39.8989 55.6761 39.8991 54.9151C39.9005 52.3962 39.1032 49.9416 37.6216 47.9044C36.1401 45.8672 34.0508 44.3523 31.654 43.5774C29.2572 42.8026 26.6764 42.8077 24.2827 43.592C21.889 44.3764 19.8056 45.8996 18.3322 47.9426C17.2451 47.1002 15.9131 46.6351 14.538 46.6176C13.1629 46.6001 11.8195 47.0312 10.7114 47.8457C9.60329 48.6602 8.79079 49.8136 8.39699 51.1312C8.00319 52.4489 8.04953 53.859 8.52901 55.1479C6.91524 55.7361 5.52031 56.8044 4.53185 58.2091C3.54339 59.6138 3.00881 61.2875 3.00003 63.0051C2.99555 64.722 3.52342 66.3981 4.51095 67.8026C5.49849 69.2071 6.89713 70.2709 8.5143 70.8476C8.37115 71.594 8.29812 72.3522 8.29618 73.1121C8.29378 75.6282 9.09047 78.0799 10.5714 80.114C12.0523 82.148 14.1409 83.6591 16.5361 84.4295C18.9313 85.2 21.5093 85.1898 23.8983 84.4005C26.2873 83.6113 28.364 82.0837 29.8288 80.0381C30.9127 80.8825 32.2424 81.3505 33.6162 81.371C34.9901 81.3915 36.3332 80.9634 37.4418 80.1517C38.5503 79.3399 39.364 78.1888 39.7592 76.8728C40.1545 75.5569 40.1098 74.148 39.632 72.8597C41.2466 72.2725 42.6424 71.2045 43.6314 69.7997C44.6205 68.3948 45.1551 66.7206 45.1634 65.0025" fill="white"/>
<path d="M19.5771 61.0909L28.8044 65.3038L38.1174 57.1476C38.2515 56.4746 38.318 55.7899 38.3159 55.1037C38.3154 52.882 37.6039 50.7189 36.2855 48.9307C34.9671 47.1425 33.111 45.8233 30.9888 45.1659C28.8667 44.5085 26.5898 44.5476 24.4915 45.2774C22.3931 46.0072 20.5834 47.3894 19.3272 49.2218L17.7758 57.2457L19.5771 61.0909Z" fill="#FEC514"/>
<path d="M10.0264 70.8624C9.89036 71.546 9.82223 72.2413 9.823 72.9383C9.82305 75.1691 10.5382 77.3413 11.8635 79.1359C13.1888 80.9304 15.0544 82.2529 17.1865 82.9093C19.3187 83.5656 21.6051 83.5212 23.7102 82.7826C25.8153 82.044 27.6282 80.6501 28.8828 78.8054L30.4194 70.7987L28.3681 66.8775L19.1066 62.6572L10.0264 70.8624Z" fill="#00BFB3"/>
<path d="M9.97005 54.8956L16.2931 56.3881L17.6778 49.1975C16.8178 48.5454 15.7696 48.1894 14.6903 48.1828C13.611 48.1763 12.5587 48.5195 11.6908 49.1611C10.8229 49.8027 10.1861 50.7082 9.87595 51.7419C9.56575 52.7757 9.59877 53.8822 9.97005 54.8956Z" fill="#F04E98"/>
<path d="M9.42105 56.4004C8.03372 56.8685 6.82676 57.7574 5.96805 58.9433C5.10933 60.1293 4.64155 61.5534 4.62976 63.0175C4.62877 64.4325 5.05849 65.8144 5.8618 66.9793C6.66512 68.1442 7.80397 69.037 9.12696 69.539L17.9988 61.5201L16.369 58.04L9.42105 56.4004Z" fill="#1BA9F5"/>
<path d="M30.5052 78.8052C31.3639 79.454 32.4093 79.8077 33.4855 79.8134C34.5617 79.8192 35.6109 79.4766 36.4764 78.837C37.3419 78.1973 37.9772 77.2948 38.2876 76.2643C38.5979 75.2339 38.5666 74.1306 38.1983 73.1194L31.8801 71.6489L30.5052 78.8052Z" fill="#93C90E"/>
<path d="M31.7894 69.9845L38.7447 71.6094C40.1329 71.1425 41.3406 70.254 42.1996 69.0678C43.0585 67.8815 43.5257 66.4568 43.536 64.9923C43.5348 63.5802 43.1042 62.2019 42.3014 61.0402C41.4987 59.8786 40.3617 58.9884 39.0413 58.4879L29.944 66.453L31.7894 69.9845Z" fill="#0077CC"/>
<path d="M102.303 59.7853H106.914V61.672H102.293V68.6173C102.293 70.2819 102.415 71.3756 102.657 71.8986C102.902 72.423 103.475 72.6837 104.384 72.6837L106.97 72.5089L107.117 74.3107C106.138 74.4916 105.147 74.5992 104.152 74.632C102.642 74.632 101.596 74.2634 101.014 73.5265C100.433 72.7896 100.142 71.3852 100.144 69.3136V61.672H98.0903V59.7853H100.154V55.339H102.303V59.7853ZM57.5132 59.4962C59.4736 59.4963 60.936 60.0433 61.8999 61.1378C62.8639 62.2325 63.3478 63.9489 63.3511 66.2853L63.2358 67.9415H53.648C53.648 69.5492 53.9393 70.7403 54.521 71.5148C55.1026 72.289 56.1135 72.6768 57.5542 72.6769C58.9985 72.6818 60.4665 72.6259 61.9565 72.5099L62.7993 72.424L62.8579 74.1398C60.982 74.423 59.0889 74.5788 57.1919 74.6056C55.1007 74.6056 53.6191 73.9998 52.7466 72.7892C51.8741 71.5785 51.4383 69.6947 51.4399 67.1378C51.4399 62.0451 53.4645 59.4978 57.5132 59.4962ZM121.559 59.4933C122.647 59.5397 123.731 59.656 124.804 59.8429L125.5 59.9288L125.415 61.7013C124.276 61.557 123.13 61.4703 121.983 61.4415C120.336 61.4416 119.218 61.8333 118.628 62.6173C118.039 63.4015 117.742 64.8542 117.741 66.9747C117.741 69.0987 118.018 70.5764 118.57 71.4064C119.122 72.2361 120.274 72.6531 122.025 72.6564L125.457 72.3966L125.544 74.1974C124.209 74.4236 122.859 74.56 121.505 74.6046C119.241 74.6046 117.678 74.0227 116.815 72.8595C115.952 71.6962 115.521 69.7356 115.521 66.9777C115.521 64.2181 115.986 62.2814 116.916 61.1671C117.845 60.0529 119.393 59.495 121.559 59.4933ZM90.687 59.4913C91.8652 59.4914 95.9458 59.7905 95.9683 59.7921V61.6915C93.8044 61.596 92.035 61.4415 90.7974 61.4415C88.6848 61.4415 87.6284 62.1771 87.6284 63.6476C87.6285 64.3272 87.8737 64.8067 88.3638 65.0861C88.854 65.3654 89.9575 65.6559 91.6743 65.9581C93.3997 66.2604 94.6208 66.682 95.3364 67.2228C96.052 67.7636 96.4099 68.7801 96.4116 70.2716C96.4116 71.7649 95.9322 72.8598 94.9731 73.5558C94.0141 74.2518 92.6146 74.601 90.7749 74.6027C89.5785 74.6026 85.5965 74.1599 85.5649 74.1564L85.6821 72.2697C87.9857 72.4902 89.65 72.6544 90.7749 72.6544C91.8998 72.6544 92.7556 72.4751 93.3462 72.1173C93.9367 71.7595 94.231 71.1585 94.231 70.3156C94.2309 69.4729 93.9856 68.9021 93.4761 68.6007C92.9663 68.2993 91.8679 68.0143 90.1646 67.7423C88.4615 67.4703 87.2483 67.0738 86.5327 66.5519C85.8171 66.0299 85.4565 65.0588 85.4565 63.6447C85.4566 62.2307 85.9474 61.1941 86.9546 60.5079C87.9618 59.8218 89.197 59.4913 90.687 59.4913ZM77.5845 59.4933C79.2314 59.4933 80.4283 59.8716 81.1733 60.6281C81.918 61.3845 82.2905 62.5655 82.2905 64.171V71.4991C82.2905 72.233 84.0926 72.1956 84.0991 72.1954L83.9888 74.1212C82.4572 74.1212 81.1899 74.2493 80.4302 73.5118C78.785 74.2425 77.0027 74.6136 75.2026 74.6017C73.8678 74.6017 72.8511 74.2234 72.1519 73.4669C71.4526 72.7104 71.1034 71.6234 71.105 70.2052C71.105 68.7903 71.4639 67.7484 72.1812 67.0802C72.8984 66.4121 74.0222 66.0043 75.5513 65.8556L80.1118 65.421V64.171C80.1118 63.1909 79.8989 62.4835 79.4741 62.049C79.2414 61.8306 78.9672 61.6614 78.6675 61.5519C78.3677 61.4424 78.0487 61.3952 77.73 61.4122H72.0044V59.4933H77.5845ZM68.5689 74.4894H66.3901V55.3732H68.5689V74.4894ZM112.122 74.4894H109.943V59.7853H112.122V74.4894ZM75.813 67.4825C74.9405 67.561 74.3106 67.8126 73.9233 68.2374C73.5362 68.6622 73.3407 69.2826 73.3374 70.0978C73.3375 71.8801 74.0731 72.7716 75.5435 72.7716C76.87 72.7701 78.187 72.544 79.438 72.1027L80.104 71.8693V67.0753L75.813 67.4825ZM57.5278 61.3243C56.2387 61.3243 55.2693 61.712 54.6206 62.4865C53.9722 63.2609 53.6383 64.5009 53.6187 66.2062H61.1724C61.1723 64.4239 60.887 63.165 60.3169 62.4298C59.7467 61.6946 58.8169 61.326 57.5278 61.3243ZM112.122 57.9298H109.943V55.4005H112.122V57.9298Z" fill="#1C1E23"/>
</svg>
