<svg width="128" height="128" viewBox="0 0 128 128" fill="none" xmlns="http://www.w3.org/2000/svg">
<path fill-rule="evenodd" clip-rule="evenodd" d="M73.7506 64.0012C73.7506 69.3861 69.3845 73.7503 64.0016 73.7503C58.6166 73.7503 54.2506 69.3861 54.2506 64.0012C54.2506 58.6163 58.6166 54.2522 64.0016 54.2522C69.3845 54.2522 73.7506 58.6163 73.7506 64.0012Z" fill="#343741"/>
<path fill-rule="evenodd" clip-rule="evenodd" d="M75.9851 48.7952C76.0679 48.8606 76.1526 48.928 76.2354 48.9955C78.0419 50.4669 80.536 50.7519 82.6391 49.7446L108.628 37.3109C102.278 26.7163 92.2649 18.5812 80.3377 14.635L73.8588 42.7054C73.333 44.976 74.1535 47.3526 75.9851 48.7952Z" fill="#F04E98"/>
<path fill-rule="evenodd" clip-rule="evenodd" d="M64.3584 87.4655C63.8441 85.191 62.0742 83.4056 59.7997 82.901C51.1291 80.979 44.6214 73.2425 44.6214 64C44.6214 54.7228 51.1773 46.9613 59.8998 45.0759C62.1763 44.5847 63.9539 42.8052 64.4778 40.5345L70.9547 12.4776C68.6782 12.1733 66.3594 12 64.0001 12C35.2806 12 12 35.2825 12 64C12 92.7194 35.2806 116 64.0001 116C66.2708 116 68.501 115.838 70.6927 115.557L64.3584 87.4655Z" fill="#0077CC"/>
<path fill-rule="evenodd" clip-rule="evenodd" d="M112.698 82.2542C114.827 76.5727 116.001 70.4252 116.001 64.0003C116.001 57.6698 114.867 51.6031 112.795 45.991L86.6347 58.5076C84.5181 59.5206 83.1873 61.6622 83.1854 64.008V64.1043C83.1796 66.4462 84.4989 68.5859 86.6059 69.6067L112.698 82.2542Z" fill="#343741"/>
<path fill-rule="evenodd" clip-rule="evenodd" d="M76.1545 79.0683C76.0717 79.1338 75.9888 79.1993 75.906 79.2647C74.0687 80.6976 73.2367 83.0684 73.749 85.343L80.0891 113.452C92.0415 109.563 102.099 101.478 108.499 90.9204L82.5659 78.3499C80.4666 77.333 77.9687 77.6046 76.1545 79.0683Z" fill="#F04E98"/>
</svg>
