<svg width="128" height="128" viewBox="0 0 128 128" fill="none" xmlns="http://www.w3.org/2000/svg">
<path fill-rule="evenodd" clip-rule="evenodd" d="M64.0102 80.0202C64.0102 80.0202 78.0741 72.9237 87.2202 61.6704L79.0777 55.566C70.1513 48.8683 57.8692 48.8683 48.9427 55.566L40.8003 61.6704C49.9463 72.9237 64.0102 80.0202 64.0102 80.0202Z" fill="#343741"/>
<path fill-rule="evenodd" clip-rule="evenodd" d="M94.9251 67.4504C92.3458 70.6808 89.2753 73.838 85.7001 76.8854C77.1935 84.1398 68.6947 88.445 68.3345 88.6261L64.01 90.8009L59.6854 88.6261C59.3271 88.445 50.8264 84.1398 42.3199 76.8854C38.7447 73.838 35.6742 70.6808 33.0949 67.4504L12 83.271L48.9425 110.977C57.8709 117.674 70.151 117.674 79.0774 110.977L116.02 83.271L94.9251 67.4504Z" fill="#FA744E"/>
<path fill-rule="evenodd" clip-rule="evenodd" d="M48.942 55.5649C57.8704 48.8672 70.1505 48.8672 79.0789 55.5649L87.231 61.6789C91.6287 56.2699 94.8918 49.8997 94.8918 42.8822C94.8918 25.8269 81.0649 12 64.0095 12C46.956 12 33.129 25.8269 33.129 42.8822C33.129 49.8997 36.3902 56.2699 40.7899 61.6789L48.942 55.5649Z" fill="#1BA9F5"/>
</svg>
