<svg width="128" height="128" viewBox="0 0 128 128" fill="none" xmlns="http://www.w3.org/2000/svg">
<path fill-rule="evenodd" clip-rule="evenodd" d="M75.753 14.1815C68.4077 9.93951 59.3546 9.93951 52.0092 14.1815L26.5674 28.8977L63.8811 50.4391L101.195 28.8977L75.753 14.1815Z" fill="#343741"/>
<path fill-rule="evenodd" clip-rule="evenodd" d="M63.8816 50.4402L26.5443 28.885L24.8719 29.8488C17.5266 34.0908 13 41.9308 13 50.4127V81.7473C13 90.2312 17.5266 98.0712 24.8719 102.311L50.3137 117V71.9836C50.3137 63.4997 54.8402 55.6616 62.1856 51.4197L63.8816 50.4402Z" fill="#0077CC"/>
<path fill-rule="evenodd" clip-rule="evenodd" d="M106.102 37.3965L72.1036 57.026C75.4897 61.1953 77.4487 66.4403 77.4487 71.9817V117L102.891 102.311C110.236 98.0693 114.762 90.2313 114.762 81.7474V50.4128C114.762 44.8792 112.809 39.6401 109.431 35.4747L106.102 37.3965Z" fill="#FA744E"/>
</svg>
