<svg width="128" height="128" viewBox="0 0 128 128" fill="none" xmlns="http://www.w3.org/2000/svg">
<path fill-rule="evenodd" clip-rule="evenodd" d="M64.0001 37.0374H56.4235C61.2209 44.8971 64.0001 54.1145 64.0001 64.0003C64.0001 73.8861 61.219 83.1036 56.4235 90.9633H64.0001C78.8913 90.9633 90.963 78.8916 90.963 64.0003C90.963 49.1091 78.8913 37.0374 64.0001 37.0374Z" fill="#343741"/>
<path fill-rule="evenodd" clip-rule="evenodd" d="M64 12C54.5167 12 45.6556 14.5788 38 19.0142C45.5496 23.3861 51.8879 29.603 56.4234 37.037H64C78.8913 37.037 90.963 49.1087 90.963 64C90.963 78.8913 78.8913 90.963 64 90.963H56.4234C51.8859 98.397 45.5496 104.614 38 108.986C45.6556 113.421 54.5167 116 64 116C92.7194 116 116 92.7194 116 64C116 35.2806 92.7194 12 64 12Z" fill="#00BFB3"/>
<path fill-rule="evenodd" clip-rule="evenodd" d="M38.963 90.9633H44.5867C50.792 83.4656 54.3704 73.9574 54.3704 64.0003C54.3704 54.0433 50.792 44.535 44.5886 37.0374H38.963C24.0717 37.0374 12 49.1091 12 64.0003C12 78.8916 24.0717 90.9633 38.963 90.9633Z" fill="#FEC514"/>
</svg>
