<svg width="128" height="128" viewBox="0 0 128 128" fill="none" xmlns="http://www.w3.org/2000/svg">
<path d="M42.2416 101.22L63.9665 70.2452L80.6377 84.8551L103.611 53.0665C106.368 58.4688 107.923 64.5803 107.923 71.0479C107.923 77.8541 106.199 84.2667 103.164 89.873L116.769 101.507L105.537 114L92.241 102.632C85.5429 107.742 77.1783 110.78 68.1152 110.78C58.2457 110.78 49.2044 107.177 42.2416 101.22ZM35.619 93.9729C31.0156 87.4911 28.3076 79.5788 28.3076 71.0479C28.3076 49.1345 46.1625 31.3076 68.1152 31.3076C79.9112 31.3076 90.524 36.4547 97.8193 44.6172L79.3304 70.2452L62.6338 55.6441L35.619 93.9729Z" fill="#1BA9F5"/>
<path d="M112.531 24.2245L79.3305 70.2453L62.6338 55.6442L21.703 113.717C15.5915 112.444 11 107.028 11 100.539V27.4616C11 20.0269 17.0269 14 24.4616 14H99.4616C105.78 14 111.082 18.3534 112.531 24.2245Z" fill="#FEC514"/>
<path d="M35.619 93.9729C31.0156 87.4911 28.3076 79.5788 28.3076 71.0479C28.3076 49.1345 46.1625 31.3076 68.1152 31.3076C79.9112 31.3076 90.524 36.4547 97.8193 44.6172L79.3304 70.2452L62.6338 55.6441L35.619 93.9729Z" fill="#343741"/>
</svg>
