<svg width="128" height="128" viewBox="0 0 128 128" fill="none" xmlns="http://www.w3.org/2000/svg">
<path fill-rule="evenodd" clip-rule="evenodd" d="M93.8101 35.7343L73.7209 54.2778V60.459C73.7209 67.3214 72.2228 73.8286 69.5433 79.6838C76.1787 85.0481 84.6144 88.2733 93.8101 88.2733C99.1396 88.2733 104.216 87.1946 108.833 85.2423L108.92 85.1947C112.108 78.6582 113.899 71.314 113.899 63.5505V54.2778L93.8101 35.7343Z" fill="#3EBEB0"/>
<path fill-rule="evenodd" clip-rule="evenodd" d="M70.2425 112.632C71.3817 112.498 72.5099 112.324 73.6271 112.115C73.9952 112.046 74.3706 111.989 74.7369 111.912C76.1105 111.621 77.4603 111.271 78.7899 110.87C79.2295 110.736 79.658 110.579 80.0921 110.432C81.0042 110.128 81.9034 109.8 82.7935 109.445C83.3301 109.229 83.8631 109.013 84.3905 108.779C85.2257 108.41 86.0388 108.007 86.8483 107.595C87.7293 107.145 88.5919 106.669 89.438 106.169C90.0497 105.81 90.6596 105.451 91.253 105.066C91.9269 104.628 92.5863 104.171 93.2364 103.702C93.6302 103.42 94.0148 103.127 94.3994 102.832C96.7931 100.997 99.022 98.9601 101.04 96.7257C101.15 96.6067 101.262 96.4876 101.368 96.3667C104.328 93.0316 106.848 89.2955 108.831 85.2479L108.833 85.2424C104.216 87.1948 99.1374 88.2753 93.8097 88.2753C84.614 88.2753 76.1765 85.0483 69.5448 79.684C63.7043 92.4474 52.2284 102.09 38.302 105.465H38.3038C40.9778 107.138 43.8275 108.551 46.8091 109.702C47.2486 109.87 47.6919 110.031 48.1351 110.187C48.9061 110.458 49.6772 110.727 50.4629 110.962C51.6496 111.31 52.8474 111.626 54.0672 111.888C54.5561 111.993 55.0561 112.066 55.5506 112.158C56.5543 112.341 57.5689 112.5 58.5945 112.623C59.0615 112.678 59.5249 112.733 59.9956 112.775C61.4662 112.905 62.946 113 64.4497 113C65.9716 113 67.4697 112.907 68.9587 112.771C69.3873 112.733 69.8158 112.681 70.2425 112.632Z" fill="#343741"/>
<path fill-rule="evenodd" clip-rule="evenodd" d="M36.1441 96.5659C48.8471 93.4872 58.6252 84.1834 62.6068 72.3558C57.9549 65.9769 55.1784 58.1437 55.1784 49.6421V15C32.3036 19.3424 15 39.4134 15 63.5502C15 77.07 20.4303 89.317 29.2231 98.2435L36.1441 96.5659Z" fill="#0077CC"/>
</svg>
