<svg width="128" height="128" viewBox="0 0 128 128" fill="none" xmlns="http://www.w3.org/2000/svg">
<path fill-rule="evenodd" clip-rule="evenodd" d="M89.0969 56.0514C84.0742 52.8698 78.1366 50.9998 71.7484 50.9998H23.0001V76.9994H58.7486C72.6228 76.9994 84.4343 68.2886 89.0969 56.0514Z" fill="#343741"/>
<path fill-rule="evenodd" clip-rule="evenodd" d="M96.731 62.7198C89.923 76.8521 75.4557 86.6299 58.7485 86.6299H23V116H71.7483C89.6996 116 104.248 101.448 104.248 83.5003C104.248 75.5945 101.423 68.3531 96.731 62.7198Z" fill="#00BFB3"/>
<path fill-rule="evenodd" clip-rule="evenodd" d="M89.0969 56.0512C90.4662 52.4574 91.2481 48.5748 91.2481 44.4996C91.2481 26.5521 76.6999 12 58.7486 12H23.0001V50.9995H71.7484C78.1366 50.9995 84.0742 52.8696 89.0969 56.0512Z" fill="#0077CC"/>
</svg>
