<svg width="128" height="128" viewBox="0 0 128 128" fill="none" xmlns="http://www.w3.org/2000/svg">
<path fill-rule="evenodd" clip-rule="evenodd" d="M86.2555 81.0982C83.3512 79.8675 80.0039 80.1121 77.3481 81.8108C74.0701 83.9062 70.1778 85.1253 65.9986 85.1253C61.8193 85.1253 57.9289 83.9062 54.651 81.8108C51.9952 80.1121 48.6479 79.8675 45.7436 81.0982C37.7491 84.4859 30.7772 89.8188 25.4193 96.4999C34.9507 108.383 49.582 116 65.9986 116C82.4171 116 97.0484 108.383 106.58 96.4999C101.222 89.8188 94.2481 84.4859 86.2555 81.0982Z" fill="#1BA9F5"/>
<path fill-rule="evenodd" clip-rule="evenodd" d="M86.2555 81.0982C83.3512 79.8675 80.0039 80.1121 77.3481 81.8108C74.0701 83.9062 70.1778 85.1253 65.9986 85.1253C61.8193 85.1253 57.9289 83.9062 54.651 81.8108C51.9952 80.1121 48.6479 79.8675 45.7436 81.0982C37.7491 84.4859 30.7772 89.8188 25.4193 96.4999C34.9507 108.383 49.582 116 65.9986 116C82.4171 116 97.0484 108.383 106.58 96.4999C101.222 89.8188 94.2481 84.4859 86.2555 81.0982Z" fill="#00BFB3"/>
<path fill-rule="evenodd" clip-rule="evenodd" d="M65.9989 12C49.5823 12 34.9511 19.6171 25.4197 31.5001C30.7776 38.1812 37.7495 43.5141 45.7421 46.9018C48.6463 48.1325 51.9955 47.8879 54.6495 46.1892C57.9293 44.0938 61.8197 42.8747 65.9989 42.8747C70.1782 42.8747 74.0686 44.0938 77.3484 46.1892C80.0024 47.8879 83.3515 48.1325 86.2558 46.9018C94.2484 43.5141 101.22 38.1812 106.578 31.5001C97.0468 19.6171 82.4155 12 65.9989 12Z" fill="#0077CC"/>
<path fill-rule="evenodd" clip-rule="evenodd" d="M45.7431 46.9024C37.7505 43.5147 30.7767 38.1817 25.4188 31.5007L25.4207 31.4968C18.2756 40.3985 14 51.698 14 64.0008C14 72.7041 16.1493 80.9028 19.9299 88.1097C26.0139 81.263 33.5751 75.7972 41.9856 72.2323C43.3165 71.6699 44.6916 71.2751 46.0956 71.0209C45.3175 68.8214 44.8745 66.466 44.8745 64.0008C44.8745 56.1854 49.1289 49.3791 55.4363 45.7256C55.1725 45.8778 54.9067 46.0261 54.6505 46.1898C51.9947 47.8885 48.6474 48.1331 45.7431 46.9024Z" fill="#343741"/>
</svg>
