<svg width="128" height="128" viewBox="0 0 128 128" fill="none" xmlns="http://www.w3.org/2000/svg">
<path fill-rule="evenodd" clip-rule="evenodd" d="M57.9261 64.0001L34.2154 23.0434C29.76 15.3522 18 18.5118 18 27.399V100.601C18 109.488 29.76 112.648 34.2154 104.955L57.9261 64.0001Z" fill="#F04E98"/>
<path fill-rule="evenodd" clip-rule="evenodd" d="M68.4104 64L65.7789 68.5461L42.0665 109.503C41.3151 110.799 40.4186 111.96 39.4186 113H68.6826C75.5427 113 81.9199 109.479 85.5768 103.674L110.556 64H68.4104Z" fill="#FA744E"/>
<path fill-rule="evenodd" clip-rule="evenodd" d="M85.5768 24.3263C81.9199 18.5207 75.5427 15 68.6826 15H39.4186C40.4186 16.0399 41.3151 17.1996 42.0665 18.4971L65.7789 59.4521L68.4104 64H110.556L85.5768 24.3263Z" fill="#343741"/>
</svg>
