<svg width="128" height="128" viewBox="0 0 128 128" fill="none" xmlns="http://www.w3.org/2000/svg">
<path fill-rule="evenodd" clip-rule="evenodd" d="M65.2018 56.299L54.1519 67.3471C59.8074 73.0026 67.6203 76.5007 76.2498 76.5007C84.8794 76.5007 92.6923 73.0026 98.346 67.3471L87.2979 56.299C81.1961 50.1972 71.3036 50.1972 65.2018 56.299Z" fill="#343741"/>
<path fill-rule="evenodd" clip-rule="evenodd" d="M58.6536 49.7515C63.3536 45.0516 69.6035 42.4627 76.2498 42.4627C82.896 42.4627 89.146 45.0516 93.8459 49.7515L103.894 59.7996C106.187 55.4533 107.5 50.5071 107.5 45.2497C107.5 27.9925 93.5089 14 76.2498 14C58.9906 14 45 27.9925 45 45.2497C45 50.5071 46.313 55.4533 48.6055 59.7996L58.6536 49.7515Z" fill="#FEC514"/>
<path fill-rule="evenodd" clip-rule="evenodd" d="M76.2496 76.5003C67.62 76.5003 59.8071 73.0022 54.1516 67.3485L20 101.5V114H107.499V76.5003L98.3475 67.3485C92.692 73.0022 84.8791 76.5003 76.2496 76.5003Z" fill="#F04E98"/>
</svg>
