<svg width="128" height="128" viewBox="0 0 128 128" fill="none" xmlns="http://www.w3.org/2000/svg">
<mask id="mask0_22_3254" style="mask-type:luminance" maskUnits="userSpaceOnUse" x="29" y="80" width="82" height="36">
<path d="M29.4193 80.3268H110.579V116H29.4193V80.3268Z" fill="white"/>
</mask>
<g mask="url(#mask0_22_3254)">
<path fill-rule="evenodd" clip-rule="evenodd" d="M90.2555 81.0983C87.3512 79.8676 84.004 80.1122 81.3481 81.8109C78.0702 83.9063 74.1779 85.1254 69.9986 85.1254C65.8194 85.1254 61.929 83.9063 58.651 81.8109C55.9952 80.1122 52.6479 79.8676 49.7436 81.0983C41.7491 84.486 34.7772 89.8189 29.4193 96.5C38.9507 108.383 53.582 116 69.9986 116C86.4171 116 101.048 108.383 110.58 96.5C105.222 89.8189 98.2481 84.486 90.2555 81.0983Z" fill="#1BA9F5"/>
</g>
<mask id="mask1_22_3254" style="mask-type:luminance" maskUnits="userSpaceOnUse" x="29" y="80" width="82" height="36">
<path d="M29.4193 80.3268H110.579V116H29.4193V80.3268Z" fill="white"/>
</mask>
<g mask="url(#mask1_22_3254)">
<path fill-rule="evenodd" clip-rule="evenodd" d="M90.2555 81.0983C87.3512 79.8676 84.004 80.1122 81.3481 81.8109C78.0702 83.9063 74.1779 85.1254 69.9986 85.1254C65.8194 85.1254 61.929 83.9063 58.651 81.8109C55.9952 80.1122 52.6479 79.8676 49.7436 81.0983C41.7491 84.486 34.7772 89.8189 29.4193 96.5C38.9507 108.383 53.582 116 69.9986 116C86.4171 116 101.048 108.383 110.58 96.5C105.222 89.8189 98.2481 84.486 90.2555 81.0983Z" fill="#1BA9F5"/>
</g>
<path fill-rule="evenodd" clip-rule="evenodd" d="M69.999 12C53.5824 12 38.9511 19.6171 29.4197 31.5C34.7776 38.1811 41.7495 43.514 49.7421 46.9017C52.6464 48.1324 55.9956 47.8878 58.6495 46.1891C61.9293 44.0937 65.8197 42.8746 69.999 42.8746C74.1782 42.8746 78.0686 44.0937 81.3485 46.1891C84.0024 47.8878 87.3516 48.1324 90.2559 46.9017C98.2485 43.514 105.22 38.1811 110.578 31.5C101.047 19.6171 86.4156 12 69.999 12Z" fill="#0077CC"/>
<path fill-rule="evenodd" clip-rule="evenodd" d="M81.3751 63.9999C81.3751 70.2823 76.2811 75.3744 70.0006 75.3744C63.7182 75.3744 58.6241 70.2823 58.6241 63.9999C58.6241 57.7175 63.7182 52.6254 70.0006 52.6254C76.2811 52.6254 81.3751 57.7175 81.3751 63.9999Z" fill="#343741"/>
<path fill-rule="evenodd" clip-rule="evenodd" d="M49.7432 46.902C41.7505 43.5143 34.7768 38.1814 29.4188 31.5003L29.4208 31.4965C22.2756 40.3981 18 51.6975 18 64.0004C18 72.7037 20.1493 80.9023 23.9299 88.1092C30.0139 81.2625 37.5751 75.7967 45.9857 72.2318C47.3165 71.6694 48.6916 71.2746 50.0956 71.0204C49.3175 68.821 48.8746 66.4656 48.8746 64.0004C48.8746 56.185 53.1289 49.3787 59.4363 45.7252C59.1725 45.8774 58.9067 46.0257 58.6506 46.1894C55.9947 47.888 52.6475 48.1326 49.7432 46.902Z" fill="#343741"/>
</svg>
