<svg width="128" height="128" viewBox="0 0 128 128" fill="none" xmlns="http://www.w3.org/2000/svg">
<path d="M124.606 81.1917C124.638 81.9452 124.616 82.6999 124.542 83.4503C124.427 84.0409 124.164 84.5929 123.779 85.0549C123.393 85.517 122.897 85.8742 122.337 86.0933L99.911 95.7577C95.9759 97.4503 92.0354 99.1322 88.1109 100.857C87.3059 101.237 86.4161 101.403 85.5281 101.337C84.6402 101.272 83.7843 100.977 83.0438 100.483C71.297 93.2214 59.5627 85.9545 47.8409 78.6822C47.0073 78.2197 46.3172 77.5366 45.8462 76.7078C45.3753 75.8789 45.1417 74.9363 45.1712 73.9835C45.1338 69.461 44.995 64.9385 44.8936 60.416C44.8153 56.8137 44.7316 53.2096 44.6426 49.6037C44.5536 45.9978 44.4664 42.351 44.381 38.6632C44.381 38.3002 44.3062 37.9371 44.3276 37.5954C44.3339 36.8637 44.5618 36.1512 44.9812 35.5516C45.4006 34.9521 45.9918 34.4937 46.6769 34.2369C58.0891 29.3175 69.5012 24.3945 80.9133 19.468C81.7217 19.0984 82.6118 18.9435 83.4976 19.0183C84.3833 19.0932 85.2348 19.3952 85.9698 19.8952L110.531 35.1018L121.141 41.6747C121.965 42.1132 122.652 42.7723 123.123 43.5786C123.595 44.3848 123.832 45.3062 123.81 46.2399C123.81 49.8867 123.96 53.5335 124.045 57.1804L124.302 67.9927C124.387 71.6626 124.474 75.3308 124.563 78.9972C124.526 79.7714 124.579 80.5563 124.606 81.1917ZM115.299 76.6158H115.171C115.171 75.548 115.171 74.4801 115.171 73.4122C115.096 69.9362 115 66.4709 114.925 62.9843C114.813 57.9492 114.701 52.9088 114.616 47.8737C114.632 47.6714 114.591 47.4685 114.497 47.2888C114.402 47.1091 114.258 46.9601 114.082 46.8592C104.115 40.694 94.1373 34.5127 84.149 28.3155C84.0115 28.2238 83.8509 28.1727 83.6857 28.168C83.5204 28.1632 83.3572 28.2051 83.2146 28.2887C73.5431 32.4642 63.8699 36.6325 54.1948 40.7937C54.0138 40.8404 53.8565 40.9524 53.753 41.1081C53.6495 41.2638 53.6072 41.4523 53.6342 41.6373C53.725 44.2376 53.789 46.8379 53.8585 49.4382L54.1147 60.1918C54.2109 64.3298 54.3123 68.4679 54.3817 72.6059C54.3771 72.7836 54.4254 72.9587 54.5205 73.1089C54.6155 73.2591 54.7531 73.3777 54.9157 73.4496C64.8256 79.5792 74.7285 85.7178 84.6242 91.8652C84.8172 92.0072 85.0462 92.0921 85.2851 92.11C85.524 92.1279 85.7631 92.0783 85.9751 91.9667C90.8447 89.8309 95.7178 87.7236 100.594 85.6448C105.293 83.6212 109.992 81.5868 114.701 79.5846C114.927 79.5252 115.121 79.3809 115.242 79.1818C115.363 78.9827 115.403 78.7443 115.353 78.5167C115.262 77.8973 115.299 77.2566 115.299 76.6158Z" fill="#D04A9B"/>
<path d="M73.3846 98.4174C72.1085 98.9513 70.9071 99.4853 69.7004 100.019C65.589 101.792 61.467 103.543 57.3663 105.359C56.65 105.697 55.8579 105.844 55.0679 105.784C54.2778 105.724 53.517 105.46 52.8598 105.017C50.1225 103.323 47.3852 101.625 44.6478 99.9231C38.3152 96.004 31.9987 92.0688 25.6501 88.1764C24.86 87.7501 24.2051 87.1109 23.7596 86.3314C23.3142 85.5519 23.0961 84.6632 23.1299 83.766C23.1299 80.7172 23.0338 77.6631 22.9697 74.6142C22.8914 70.9443 22.806 67.2761 22.7134 63.6097C22.6494 61.1803 22.5639 58.7508 22.4892 56.3214C22.4304 54.2497 22.9964 53.3313 24.9079 52.5091L40.766 45.6372C40.8835 45.5892 41.001 45.5571 41.3 45.4557C41.3 47.0575 41.3 48.5686 41.3 50.0796C41.3 51.1849 41.3267 52.2955 41.3961 53.4007C41.4281 53.8866 41.2092 54.0575 40.8088 54.223C37.6532 55.5685 34.5082 56.9408 31.3473 58.281C31.115 58.3359 30.9119 58.4763 30.7783 58.6741C30.6448 58.872 30.5905 59.1129 30.6265 59.3489C30.7546 64.0422 30.8294 68.7356 30.9362 73.4236C31.0002 76.4937 31.0963 79.5639 31.1604 82.6341C31.1488 82.8003 31.1855 82.9663 31.266 83.1122C31.3465 83.258 31.4675 83.3775 31.6143 83.4563C39.0895 88.0838 46.5647 92.7113 54.0399 97.3388C54.2821 97.5153 54.5701 97.6183 54.8693 97.6353C55.1686 97.6524 55.4664 97.5828 55.7271 97.4349C58.7279 96.1054 61.75 94.8293 64.7668 93.5211C64.8935 93.4454 65.0383 93.4054 65.1859 93.4054C65.3335 93.4054 65.4784 93.4454 65.6051 93.5211C68.1146 95.0963 70.6401 96.6554 73.1603 98.2198L73.3846 98.4174Z" fill="#BA69AA"/>
<path d="M43.6065 103.176L38.267 105.488C35.8429 106.535 33.4171 107.581 30.9894 108.628C30.3973 108.909 29.7429 109.035 29.0886 108.992C28.4343 108.949 27.802 108.739 27.2518 108.382C20.2536 104.05 13.2536 99.7127 6.25182 95.37C4.87424 94.5157 4.46846 93.1968 4.45778 91.6324C4.43108 88.2846 4.34565 84.9314 4.27089 81.5836C4.1908 78.0008 4.11606 74.4181 4.00927 70.8353C3.95896 70.224 4.11452 69.6133 4.45121 69.1005C4.7879 68.5878 5.28638 68.2023 5.86738 68.0055C10.1816 66.158 14.487 64.2981 18.7835 62.4258C19.3174 62.2015 19.3922 62.367 19.4028 62.8529C19.4295 64.8552 19.4669 66.8628 19.531 68.8651C19.5645 69.0575 19.5251 69.2555 19.4204 69.4204C19.3157 69.5853 19.1534 69.7052 18.965 69.7568C16.4448 70.8247 13.9513 71.8925 11.4364 72.9604C11.2771 73.0033 11.1398 73.1046 11.0518 73.2441C10.9637 73.3835 10.9314 73.5511 10.9612 73.7133C11.068 77.6591 11.1427 81.6049 11.2335 85.5508C11.2709 87.3235 11.3243 89.0908 11.351 90.8902C11.3371 91.028 11.3642 91.1668 11.4288 91.2893C11.4933 91.4118 11.5926 91.5125 11.7141 91.579C17.3205 95.0425 22.9233 98.5167 28.5226 102.002C28.6369 102.074 28.7692 102.112 28.9044 102.112C29.0395 102.112 29.1718 102.074 29.2861 102.002L36.158 99.0381C36.3609 98.9527 36.5477 98.8086 36.8094 98.9741C39.0306 100.346 41.2625 101.724 43.6065 103.176Z" fill="#A53895"/>
<path d="M41.7547 74.3853C41.2689 74.0916 40.783 73.7979 40.3024 73.4989C38.4176 72.3296 36.5328 71.1549 34.6426 70.0016C34.5018 69.934 34.3838 69.8268 34.3032 69.693C34.2226 69.5592 34.1828 69.4048 34.1888 69.2487C34.1567 67.1824 34.1033 65.1107 34.0339 63.0443C34.0339 62.5104 34.1728 62.4837 34.5946 62.7453C36.8371 64.1478 39.0833 65.5414 41.3329 66.9261C41.5358 67.0489 41.7174 67.1557 41.7227 67.46C41.7601 69.7186 41.8082 71.9772 41.8509 74.2411C41.8509 74.2624 41.8135 74.2945 41.7547 74.3853Z" fill="#A53895"/>
<path d="M45.7013 81.2429L52.2367 85.2795C52.3389 85.3275 52.4258 85.4028 52.488 85.497C52.5501 85.5912 52.5851 85.7007 52.5891 85.8135C52.6212 87.9492 52.6799 90.117 52.7279 92.2688C52.725 92.3424 52.7161 92.4156 52.7012 92.4877C52.493 92.5571 52.3862 92.4237 52.2688 92.3489L46.075 88.5099C45.8988 88.4031 45.6959 88.3283 45.6959 88.0507C45.703 85.7939 45.7048 83.5246 45.7013 81.2429Z" fill="#A53895"/>
<path d="M85.9228 85.9557C85.9228 86.6178 85.9228 87.2799 85.9228 87.9419C85.9228 88.4759 85.6878 88.6361 85.2126 88.3477C82.8312 86.8794 80.4605 85.4057 78.0738 83.9427C77.9569 83.8704 77.8631 83.7661 77.8034 83.6421C77.7438 83.5182 77.7209 83.3798 77.7374 83.2432C77.684 80.1962 77.6253 77.1456 77.5612 74.0915C77.4865 70.6582 77.3957 67.225 77.3263 63.7918C77.3329 63.6452 77.2964 63.4998 77.2215 63.3737C77.1465 63.2475 77.0363 63.146 76.9045 63.0816C70.4972 59.1126 64.0738 55.1401 57.6345 51.164C57.4598 51.0739 57.3159 50.9339 57.2208 50.7618C57.1258 50.5898 57.0839 50.3934 57.1005 50.1976C57.0738 48.0618 57.0098 45.9261 56.9671 43.7903C56.9671 43.5073 56.8763 43.203 57.2661 43.0374C57.416 42.9597 57.5844 42.9246 57.7529 42.9359C57.9214 42.9472 58.0836 43.0045 58.2218 43.1015L83.189 58.5858C83.8681 58.9775 84.4286 59.5456 84.8112 60.2299C85.1938 60.9142 85.3842 61.6892 85.3621 62.4729C85.4049 65.7353 85.4476 69.003 85.549 72.2654C85.6558 75.8695 85.7466 79.4683 85.8 83.0724C85.8053 84.0388 85.8747 84.9946 85.9228 85.9557Z" fill="#BA69AA"/>
</svg>
