<svg width="128" height="128" viewBox="0 0 128 128" fill="none" xmlns="http://www.w3.org/2000/svg">
<path d="M43.8841 70.1134C43.8954 70.3813 43.8878 70.6496 43.8614 70.9164C43.8204 71.1264 43.727 71.3227 43.59 71.487C43.4529 71.6513 43.2765 71.7783 43.0773 71.8562L35.1034 75.2925C33.7042 75.8944 32.3031 76.4924 30.9077 77.1056C30.6214 77.2409 30.3051 77.2997 29.9893 77.2764C29.6736 77.2531 29.3693 77.1485 29.106 76.9727C24.9292 74.3907 20.7569 71.8068 16.589 69.2211C16.2926 69.0566 16.0472 68.8137 15.8797 68.519C15.7123 68.2243 15.6292 67.8892 15.6397 67.5504C15.6264 65.9423 15.5771 64.3343 15.541 62.7262C15.5131 61.4453 15.4834 60.1638 15.4518 58.8817C15.4201 57.5996 15.3891 56.3029 15.3587 54.9916C15.3587 54.8625 15.3321 54.7334 15.3397 54.6119C15.342 54.3518 15.423 54.0984 15.5721 53.8852C15.7213 53.672 15.9315 53.509 16.1751 53.4177C20.2329 51.6686 24.2907 49.9181 28.3485 48.1664C28.6359 48.035 28.9524 47.9799 29.2673 48.0065C29.5823 48.0331 29.8851 48.1405 30.1464 48.3183L38.8796 53.7253L42.652 56.0624C42.9452 56.2183 43.1893 56.4527 43.3569 56.7393C43.5245 57.026 43.6091 57.3536 43.6013 57.6856C43.6013 58.9823 43.6544 60.279 43.6848 61.5757L43.7759 65.4202C43.8063 66.7251 43.8373 68.0294 43.8689 69.3331C43.8556 69.6084 43.8746 69.8874 43.8841 70.1134ZM40.575 68.4863H40.5294C40.5294 68.1066 40.5294 67.7269 40.5294 67.3472C40.5029 66.1113 40.4687 64.8791 40.4421 63.6394C40.4022 61.8491 40.3624 60.0569 40.332 58.2666C40.3379 58.1946 40.3232 58.1225 40.2896 58.0586C40.2559 57.9947 40.2048 57.9417 40.1421 57.9058C36.5982 55.7137 33.0505 53.5158 29.499 51.3123C29.4501 51.2797 29.393 51.2615 29.3342 51.2598C29.2755 51.2581 29.2174 51.273 29.1667 51.3028C25.7279 52.7874 22.2884 54.2695 18.8482 55.7491C18.7839 55.7657 18.7279 55.8056 18.6911 55.8609C18.6543 55.9163 18.6393 55.9833 18.6489 56.0491C18.6812 56.9737 18.7039 57.8983 18.7286 58.8228L18.8198 62.6465C18.8539 64.1178 18.89 65.5892 18.9147 67.0605C18.913 67.1237 18.9302 67.186 18.964 67.2394C18.9978 67.2928 19.0467 67.3349 19.1045 67.3605C22.6282 69.54 26.1493 71.7227 29.6679 73.9085C29.7365 73.959 29.818 73.9892 29.9029 73.9955C29.9879 74.0019 30.0729 73.9843 30.1483 73.9446C31.8797 73.1852 33.6125 72.4359 35.3465 71.6967C37.0172 70.9772 38.6879 70.2538 40.3624 69.5419C40.4426 69.5208 40.5115 69.4695 40.5546 69.3987C40.5978 69.3279 40.6119 69.2432 40.594 69.1622C40.5617 68.942 40.575 68.7141 40.575 68.4863Z" fill="#D04A9B"/>
<path d="M25.672 76.2381C25.2182 76.4279 24.791 76.6178 24.362 76.8076C22.9001 77.4379 21.4344 78.0607 19.9764 78.7062C19.7217 78.8265 19.44 78.8786 19.1591 78.8573C18.8782 78.836 18.6077 78.7421 18.374 78.5847C17.4007 77.9822 16.4274 77.3785 15.4541 76.7735C13.2024 75.3799 10.9565 73.9807 8.6991 72.5967C8.41816 72.4451 8.1853 72.2179 8.02691 71.9407C7.86853 71.6635 7.79097 71.3475 7.803 71.0285C7.803 69.9445 7.76883 68.8585 7.74604 67.7745C7.7182 66.4695 7.68782 65.1653 7.65491 63.8616C7.63213 62.9978 7.60176 62.1339 7.57518 61.2701C7.55429 60.5335 7.75554 60.2069 8.43521 59.9146L14.0738 57.4712C14.1156 57.4541 14.1574 57.4427 14.2637 57.4066C14.2637 57.9762 14.2637 58.5135 14.2637 59.0507C14.2637 59.4437 14.2732 59.8386 14.2979 60.2316C14.3093 60.4044 14.2314 60.4651 14.089 60.524C12.967 61.0024 11.8488 61.4903 10.7248 61.9669C10.6422 61.9864 10.57 62.0363 10.5225 62.1067C10.475 62.177 10.4558 62.2627 10.4685 62.3466C10.5141 64.0154 10.5407 65.6842 10.5787 67.3511C10.6014 68.4427 10.6356 69.5344 10.6584 70.626C10.6543 70.6851 10.6673 70.7442 10.6959 70.796C10.7246 70.8479 10.7676 70.8904 10.8198 70.9184C13.4777 72.5638 16.1356 74.2092 18.7936 75.8546C18.8797 75.9173 18.9821 75.9539 19.0885 75.96C19.1949 75.9661 19.3008 75.9413 19.3935 75.8888C20.4605 75.416 21.5351 74.9623 22.6077 74.4971C22.6528 74.4702 22.7043 74.456 22.7568 74.456C22.8092 74.456 22.8608 74.4702 22.9058 74.4971C23.7981 75.0572 24.6961 75.6116 25.5922 76.1678L25.672 76.2381Z" fill="#BA69AA"/>
<path d="M15.0828 77.9292L13.1843 78.7513C12.3223 79.1234 11.4598 79.4955 10.5966 79.8676C10.386 79.9678 10.1533 80.0123 9.9207 79.997C9.68806 79.9817 9.46321 79.9071 9.26759 79.7803C6.77925 78.2399 4.29028 76.6977 1.80067 75.1536C1.31085 74.8498 1.16657 74.3809 1.16277 73.8246C1.15328 72.6342 1.1229 71.442 1.09632 70.2516C1.06784 68.9777 1.04127 67.7038 1.00329 66.4299C0.985406 66.2125 1.04072 65.9953 1.16044 65.813C1.28015 65.6307 1.4574 65.4936 1.66398 65.4236C3.19799 64.7668 4.72884 64.1054 6.25652 63.4397C6.44637 63.3599 6.47295 63.4188 6.47675 63.5916C6.48624 64.3035 6.49954 65.0174 6.52232 65.7293C6.53423 65.7977 6.52021 65.8681 6.483 65.9267C6.44578 65.9854 6.38805 66.028 6.32107 66.0464C5.42497 66.4261 4.53836 66.8058 3.64415 67.1855C3.58751 67.2007 3.53869 67.2367 3.50738 67.2863C3.47607 67.3359 3.46458 67.3955 3.47518 67.4532C3.51315 68.8562 3.53973 70.2592 3.572 71.6622C3.58529 72.2925 3.60428 72.9209 3.61377 73.5607C3.60885 73.6097 3.61847 73.6591 3.64143 73.7026C3.66439 73.7462 3.69967 73.782 3.74287 73.8056C5.73633 75.0371 7.72852 76.2724 9.71944 77.5115C9.76008 77.5372 9.80714 77.5508 9.85519 77.5508C9.90323 77.5508 9.9503 77.5372 9.99093 77.5115L12.4343 76.4579C12.5065 76.4275 12.5729 76.3762 12.666 76.4351C13.4557 76.923 14.2493 77.4128 15.0828 77.9292Z" fill="#A53895"/>
<path d="M58.0937 65.1812C56.2256 65.1812 54.3593 65.1926 52.4911 65.1717C52.1418 65.1717 52.1114 65.297 52.157 65.5742C52.4171 67.3986 53.5239 68.5207 55.1814 69.1396C57.4064 69.973 59.3296 69.432 60.9776 67.5391C61.1845 67.3037 61.3022 67.2904 61.5471 67.486C62.0654 67.9131 62.6008 68.3213 63.1476 68.7124C63.3716 68.8738 63.3507 68.9687 63.1875 69.1624C61.9689 70.6513 60.2235 71.6134 58.3139 71.8488C56.7097 72.0709 55.1168 72.0102 53.5999 71.3647C51.035 70.273 49.649 68.2587 49.2333 65.5704C48.8763 63.2693 49.2883 61.1088 50.7388 59.2293C52.1893 57.3498 54.1372 56.4233 56.4951 56.334C58.0823 56.2733 59.586 56.5391 60.9301 57.4542C62.6388 58.6218 63.5387 60.2887 63.9032 62.2859C64.0396 63.1447 64.1031 64.0136 64.0931 64.8831C64.0931 65.128 64.0228 65.1888 63.7817 65.1869C61.8737 65.1774 59.9846 65.1812 58.0937 65.1812ZM56.5901 62.9029H60.7251C60.8845 62.9029 61.0497 62.9428 61.0307 62.6732C60.8409 60.1596 59.3733 58.8059 57.2223 58.618C56.0417 58.4948 54.8587 58.8285 53.9166 59.5506C52.9745 60.2728 52.3448 61.3284 52.157 62.5005C52.1038 62.8403 52.195 62.9086 52.5177 62.9048C53.879 62.8877 55.2345 62.8972 56.5901 62.8972V62.9029Z" fill="#4A2465"/>
<path d="M111.837 56.6941C112.856 56.6941 113.876 56.6941 114.893 56.6941C115.119 56.6941 115.121 56.8593 115.171 56.9865C116.031 59.2457 116.889 61.5062 117.745 63.768C118.269 65.1526 118.792 66.5373 119.315 67.9219C119.359 68.0359 119.412 68.1479 119.463 68.2675C119.594 68.1934 119.596 68.0662 119.634 67.9637C120.962 64.3223 122.285 60.6803 123.604 57.0377C123.623 56.9273 123.684 56.8288 123.775 56.7636C123.866 56.6985 123.979 56.6722 124.09 56.6903C124.967 56.7131 125.844 56.6903 126.769 56.6903C126.467 57.463 126.184 58.1939 125.897 58.9229C123.767 64.3742 121.636 69.8249 119.503 75.2749C119.351 75.6546 119.173 76.0343 118.994 76.414C118.104 78.2955 116.606 79.1707 114.537 79.1081C113.806 79.1126 113.079 79.0103 112.378 78.8043C112.179 78.7378 112.122 78.6505 112.156 78.4246C112.277 77.6652 112.368 76.8906 112.471 76.1065C113.039 76.3353 113.645 76.4557 114.257 76.4615C115.319 76.4463 116.101 75.9907 116.572 75.0319C117.082 73.9934 117.434 72.8866 117.878 71.8196C117.952 71.6412 117.863 71.5026 117.804 71.3564L112.642 58.8052C112.399 58.2167 112.156 57.6282 111.918 57.0396C111.851 56.9376 111.823 56.8153 111.837 56.6941Z" fill="#4A2465"/>
<path d="M103.646 71.9467C99.2239 71.9467 95.7667 68.5179 95.7496 64.1418C95.7325 59.7657 99.4099 56.2174 103.862 56.3199C108.132 56.4167 111.635 59.9404 111.583 64.2178C111.534 68.5483 108.082 71.9467 103.646 71.9467ZM104.175 69.302C105.639 69.2584 107.173 68.4686 108.035 66.6175C108.546 65.4878 108.691 64.2264 108.449 63.0103C108.259 61.9092 107.815 60.9219 106.966 60.1739C105.743 59.0899 104.291 58.7937 102.717 59.0557C101.976 59.1539 101.273 59.4406 100.675 59.8884C100.076 60.3361 99.603 60.9299 99.2998 61.613C98.8904 62.5176 98.7154 63.5107 98.791 64.5007C98.9448 67.4054 100.868 69.302 104.175 69.302Z" fill="#4A2465"/>
<path d="M69.3332 58.995C70.852 56.0751 74.9015 55.7865 77.0868 56.9693C78.6568 57.8198 79.3783 59.2285 79.6194 60.9353C79.67 61.3497 79.6903 61.7672 79.6801 62.1845C79.6801 65.1994 79.6801 68.2142 79.6801 71.2291C79.6801 71.5214 79.6061 71.5974 79.3175 71.5898C78.5885 71.567 77.8576 71.5708 77.1266 71.5898C76.876 71.5898 76.8248 71.5195 76.8267 71.2822C76.8267 68.3946 76.8399 65.5069 76.8267 62.6193C76.8267 61.5447 76.5628 60.5423 75.7369 59.7886C74.7706 58.9076 73.603 58.8298 72.4031 59.0918C70.6375 59.4715 69.804 60.7359 69.4604 62.4028C69.365 62.8925 69.3199 63.3906 69.3256 63.8894C69.3256 66.348 69.3256 68.8066 69.3256 71.2632C69.3256 71.5195 69.2705 71.5974 69.0047 71.5898C68.2643 71.5708 67.5201 71.5708 66.7796 71.5898C66.5063 71.5898 66.4607 71.5044 66.4607 71.2556C66.4683 66.5017 66.4683 61.7472 66.4607 56.992C66.4607 56.7509 66.5195 56.6769 66.7664 56.6826C67.5258 56.699 68.2795 56.699 69.0275 56.6826C69.2819 56.6826 69.3313 56.7623 69.3256 56.9958C69.3237 57.6375 69.3332 58.2754 69.3332 58.995Z" fill="#4A2465"/>
<path d="M88.2989 68.0446C88.5457 67.3896 88.7716 66.7973 88.9937 66.2049C90.1328 63.1502 91.2871 60.0993 92.4111 57.0407C92.4358 56.9264 92.5037 56.8261 92.6007 56.7607C92.6976 56.6952 92.816 56.6697 92.9313 56.6895C93.7989 56.7085 94.6665 56.6895 95.5892 56.6895C95.3994 57.1547 95.2418 57.5818 95.0747 58.009C93.3382 62.4389 91.6036 66.8637 89.8708 71.2835C89.8493 71.3809 89.7918 71.4665 89.7097 71.5232C89.6277 71.5799 89.5272 71.6035 89.4285 71.5891C88.5931 71.572 87.7597 71.5739 86.9243 71.5891C86.8376 71.6027 86.7489 71.5847 86.6743 71.5383C86.5997 71.492 86.5443 71.4204 86.518 71.3366C84.5752 66.546 82.6261 61.7592 80.6706 56.9762C80.5681 56.7237 80.6326 56.6952 80.8604 56.6971C81.7527 56.7085 82.6469 56.7104 83.5393 56.6971C83.6326 56.6841 83.7274 56.7062 83.8053 56.7592C83.8831 56.8122 83.9386 56.8922 83.9607 56.9838C85.3353 60.5188 86.7161 64.0514 88.1033 67.5814C88.1584 67.7086 88.2153 67.8433 88.2989 68.0446Z" fill="#4A2465"/>
<path d="M14.4231 67.6925C14.2504 67.588 14.0776 67.4836 13.9067 67.3773C13.2365 66.9615 12.5664 66.5438 11.8943 66.1338C11.8442 66.1097 11.8023 66.0716 11.7736 66.024C11.7449 65.9765 11.7308 65.9216 11.7329 65.8661C11.7215 65.1313 11.7025 64.3947 11.6779 63.66C11.6779 63.4701 11.7272 63.4606 11.8772 63.5537C12.6746 64.0523 13.4732 64.5479 14.2731 65.0402C14.3453 65.0839 14.4098 65.1218 14.4117 65.2301C14.425 66.0331 14.4421 66.8362 14.4573 67.6412C14.4573 67.6488 14.444 67.6602 14.4231 67.6925Z" fill="#A53895"/>
<path d="M15.8275 70.1315L18.1513 71.5668C18.1876 71.5838 18.2185 71.6106 18.2406 71.6441C18.2627 71.6776 18.2751 71.7165 18.2766 71.7566C18.288 72.516 18.3088 73.2868 18.3259 74.0519C18.3249 74.0781 18.3217 74.1041 18.3164 74.1298C18.2424 74.1544 18.2044 74.107 18.1627 74.0804L15.9604 72.7154C15.8977 72.6774 15.8256 72.6508 15.8256 72.5521C15.8281 71.7496 15.8287 70.9428 15.8275 70.1315Z" fill="#A53895"/>
<path d="M30.1297 71.8087C30.1297 72.0441 30.1297 72.2795 30.1297 72.5149C30.1297 72.7048 30.0461 72.7617 29.8772 72.6592C29.0304 72.1371 28.1875 71.6131 27.3388 71.0929C27.2972 71.0672 27.2639 71.0301 27.2427 70.986C27.2215 70.942 27.2134 70.8927 27.2192 70.8442C27.2002 69.7608 27.1794 68.6761 27.1566 67.5901C27.13 66.3694 27.0977 65.1486 27.073 63.9279C27.0754 63.8757 27.0624 63.8241 27.0358 63.7792C27.0091 63.7344 26.9699 63.6983 26.9231 63.6754C24.6448 62.2641 22.3609 60.8516 20.0713 59.4379C20.0092 59.4058 19.958 59.356 19.9242 59.2949C19.8904 59.2337 19.8755 59.1639 19.8814 59.0942C19.8719 58.3348 19.8491 57.5754 19.8339 56.816C19.8339 56.7154 19.8017 56.6072 19.9403 56.5483C19.9936 56.5207 20.0535 56.5082 20.1134 56.5122C20.1733 56.5162 20.231 56.5366 20.2801 56.5711L29.1576 62.0768C29.3991 62.2161 29.5984 62.4181 29.7344 62.6614C29.8705 62.9047 29.9382 63.1803 29.9303 63.4589C29.9455 64.6189 29.9607 65.7808 29.9968 66.9408C30.0347 68.2223 30.067 69.5019 30.086 70.7834C30.0879 71.1271 30.1126 71.4669 30.1297 71.8087Z" fill="#BA69AA"/>
</svg>
