<svg width="128" height="128" viewBox="0 0 128 128" fill="none" xmlns="http://www.w3.org/2000/svg">
<path d="M41.9936 76.9352L41.9278 76.8725C40.4343 78.366 38.9408 79.8865 37.501 81.4368C36.7423 82.2552 36.4615 83.2947 37.3367 84.2387C38.2119 85.1826 39.3619 85.1676 40.3716 84.4179C41.1149 83.8257 41.8138 83.1798 42.4625 82.4852C56.5815 68.3762 70.6894 54.2522 84.7865 40.1133L93.3713 38.6197C91.9704 37.1979 86.1426 32.8935 84.8134 34.2167C79.2554 39.7409 73.6925 45.27 68.1245 50.8041L41.9936 76.9352Z" fill="#00B4C8"/>
<path d="M49.1467 84.2776C50.5207 85.7711 51.8112 84.6987 52.9014 83.6085C64.5212 72.0066 76.134 60.3957 87.7398 48.7759C88.2894 48.2233 88.842 47.6677 88.8988 46.8194C88.9057 46.4256 88.7849 46.0402 88.5544 45.7208C88.3239 45.4015 87.9962 45.1654 87.6203 45.048C86.2522 44.5551 85.3113 45.3467 84.4331 46.2428L49.9681 80.705C48.9525 81.7206 47.9041 82.9334 49.1467 84.2776Z" fill="#00B4C8"/>
<path d="M54.0548 57.3069L56.5729 54.7918C56.3688 54.1574 55.9973 53.5898 55.4976 53.1489C50.3757 48.017 45.2479 42.8912 40.1141 37.7713C39.6939 37.3394 39.1951 36.9917 38.6445 36.7467C37.8021 36.4032 36.9329 36.448 36.2548 37.1948C35.9441 37.5074 35.7581 37.9226 35.7317 38.3625C35.7053 38.8025 35.8403 39.237 36.1114 39.5845C36.5992 40.2945 37.1533 40.9567 37.7663 41.5619C41.536 45.3575 45.3196 49.1412 49.1172 52.9129C50.3986 54.1914 51.6741 55.4818 53.0004 56.7095C53.2971 56.9927 53.6594 57.198 54.0548 57.3069Z" fill="#00B4C8"/>
<path d="M64.223 44.2268C64.6938 44.749 65.277 45.1575 65.9286 45.4217L68.3451 43.0051C68.0768 42.3503 67.662 41.7658 67.1324 41.2965C56.0842 30.2383 45.032 19.186 33.9758 8.13973C33.3575 7.5214 32.6943 6.9658 31.7385 7.00164C31.3892 6.99226 31.0454 7.08921 30.7526 7.27965C30.4597 7.4701 30.2316 7.74504 30.0985 8.06804C29.5937 9.31366 30.2389 10.2247 31.0694 11.0551C42.1255 22.1154 53.1767 33.1726 64.223 44.2268Z" fill="#00B4C8"/>
<path d="M58.1474 50.0219C58.669 50.5939 59.312 51.042 60.0293 51.3332L62.4339 48.9286C62.1352 48.0564 61.4033 47.4739 60.7731 46.8376C54.0023 40.049 47.2226 33.2662 40.434 26.4895C39.0301 25.0856 37.6321 23.6697 36.1834 22.3076C35.332 21.51 34.3194 21.3039 33.4114 22.203C32.5481 23.0603 32.6108 24.067 33.2919 25.0258C33.5989 25.4433 33.9396 25.8349 34.3105 26.1968C42.2462 34.1425 50.1918 42.0812 58.1474 50.0129V50.0219Z" fill="#00B4C8"/>
<path d="M84.2843 85.1682C84.6655 85.2184 85.0499 85.2404 85.4344 85.2339C86.8861 85.0995 88.7202 85.1951 88.765 83.1937C88.8128 81.1297 87.0265 81.1207 85.53 81.1774C84.0334 81.2342 82.9013 80.6069 81.8887 79.5435C80.3384 77.9125 78.7881 76.2726 77.1094 74.7642C75.6158 73.4379 75.8369 72.4671 77.187 71.1796C80.7387 67.7594 84.1918 64.2317 87.6568 60.7248C88.6813 59.6913 89.5894 58.4516 88.2094 57.1403C86.9727 55.9723 85.7898 56.7878 84.816 57.7556C80.3982 62.1467 76.0071 66.5676 71.5893 70.9586C70.0419 72.494 70.1136 73.9278 71.646 75.4392C74.2388 77.9872 76.8256 80.5412 79.3407 83.1639C80.7536 84.6395 82.3039 85.5595 84.2843 85.1682Z" fill="#00B4C8"/>
<path d="M28.7483 100.826C24.2139 100.862 19.6795 100.826 15.1481 100.859C14.5119 100.859 14.3536 100.683 14.3595 100.067C14.3894 96.8144 14.4014 93.5585 14.3595 90.3085C14.3595 89.5259 14.5716 89.3556 15.3244 89.3616C20.7011 89.3945 26.0779 89.3616 31.4695 89.3915C31.6923 89.4241 31.9189 89.3672 32.0998 89.2332V84.4538C31.9773 84.3104 31.7623 84.2596 31.4128 84.2596C23.8833 84.2875 16.3539 84.2875 8.82448 84.2596C8.1494 84.2596 7.99706 84.4538 8.00004 85.102C8.02394 91.1061 8.00004 97.1101 8.00004 103.114C8.00004 109.118 8.00004 115.173 8.00004 121.204C8.00004 121.801 8.12849 122.02 8.77668 121.999C10.3897 121.951 12.0117 121.948 13.6247 121.999C14.2908 122.02 14.3954 121.781 14.3924 121.189C14.3715 116.41 14.3924 111.615 14.3655 106.827C14.3655 106.125 14.5119 105.901 15.2616 105.907C19.796 105.946 24.3274 105.907 28.8618 105.94C29.4592 105.94 29.6474 105.803 29.6235 105.196C29.5757 104.034 29.5668 102.866 29.6235 101.707C29.6534 101.011 29.4592 100.82 28.7483 100.826Z" fill="#03B4C8"/>
<path d="M118.926 106C118.298 100.355 114.777 95.181 107.921 94.4432C102.347 93.8458 97.2544 96.4147 95.0021 101.729C93.637 104.949 93.4817 108.3 94.106 111.679C95.259 117.952 100.098 121.981 106.425 121.981C112.055 121.981 116.396 118.928 118.191 113.665C119.001 111.196 119.252 108.578 118.926 106ZM111.279 114.074C110.862 114.715 110.324 115.268 109.694 115.7C109.064 116.133 108.355 116.437 107.608 116.596C106.86 116.755 106.089 116.765 105.337 116.625C104.586 116.486 103.869 116.199 103.229 115.783C102.55 115.34 101.97 114.761 101.526 114.083C100.14 111.965 99.9786 109.579 100.08 107.15C100.112 105.641 100.491 104.158 101.188 102.819C102.291 100.779 103.972 99.7154 106.317 99.6915C108.662 99.6676 110.439 100.68 111.577 102.738C112.524 104.453 112.754 106.323 112.754 108.094C112.736 110.311 112.447 112.303 111.279 114.074Z" fill="#02B4C8"/>
<path d="M52.567 102.156C52.0532 98.1264 49.8577 95.6173 45.9177 94.7629C42.0345 93.9176 38.1782 94.4105 34.3786 95.438C33.9814 95.5456 33.9724 95.7367 34.0262 96.0713C34.2353 97.3199 34.4473 98.5715 34.5967 99.8291C34.6654 100.426 34.8715 100.489 35.4122 100.334C37.7562 99.6527 40.2049 99.4047 42.6379 99.602C44.711 99.7693 46.2224 101.036 46.6436 102.974C46.7809 103.648 46.8529 104.333 46.8587 105.021C46.8587 105.549 46.7631 105.687 46.1985 105.564C43.2625 104.909 40.2098 104.995 37.3149 105.812C31.8755 107.354 29.6262 113.28 32.6581 118.059C34.1845 120.467 36.5951 121.327 39.2565 121.644C43.6177 122.155 47.9191 121.605 52.2026 120.804C52.6715 120.715 52.7731 120.506 52.7701 120.067C52.7492 117.289 52.7701 114.514 52.7701 111.15C52.6476 108.548 52.9732 105.343 52.567 102.156ZM46.8587 110.696C46.8228 111.592 46.8587 112.488 46.8587 113.385C46.8587 114.281 46.8407 115.177 46.8587 116.073C46.8587 116.515 46.781 116.721 46.2792 116.775C44.4302 116.966 42.5782 117.13 40.7441 116.793C38.5038 116.381 37.6166 115.329 37.6017 113.301C37.5868 111.428 38.5964 110.239 40.6993 109.806C42.522 109.448 44.3981 109.459 46.2164 109.839C46.7661 109.946 46.8796 110.188 46.8617 110.687L46.8587 110.696Z" fill="#02B4C8"/>
<path d="M91.0855 116.21C91.0078 115.631 90.8196 115.613 90.3238 115.789C88.309 116.479 86.174 116.749 84.0509 116.581C81.0101 116.384 79.0714 114.923 78.1455 112.014C77.3066 109.456 77.3266 106.694 78.2022 104.149C79.1192 101.46 81.0519 99.9666 83.9195 99.7336C85.8256 99.5673 87.7443 99.8433 89.5262 100.54C90.0042 100.728 90.1505 100.6 90.2611 100.143C90.5598 98.8882 90.8585 97.6277 91.2498 96.394C91.438 95.7966 91.2289 95.6353 90.7181 95.4561C88.345 94.5963 85.8199 94.2363 83.3012 94.3986C79.2985 94.6764 76.0157 96.3402 73.7425 99.6977C71.9921 102.27 71.2991 105.17 71.32 108.519C71.3207 109.674 71.4388 110.826 71.6725 111.957C72.4342 115.729 74.2563 118.806 77.8258 120.509C82.2587 122.624 86.8199 122.256 91.3752 120.84C91.7785 120.715 91.7994 120.479 91.7337 120.118C91.4947 118.818 91.2647 117.519 91.0855 116.21Z" fill="#02B4C8"/>
<path d="M67.9866 116.584C66.048 116.195 65.34 115.446 65.0772 113.471C65.0314 113.105 65.0094 112.735 65.0115 112.366C65.0115 102.694 65.0115 93.0205 65.0115 83.3463C65.0115 83.1611 65.0115 82.9759 65.0115 82.7907C65.0383 82.4322 64.9069 82.3575 64.5485 82.4203C62.9354 82.719 61.3194 83.0177 59.6945 83.2089C59.0373 83.2895 58.8939 83.5076 58.8969 84.1438C58.9238 89.2458 58.9118 94.3477 58.9118 99.4467C58.9118 100.689 58.9118 101.932 58.9118 103.175C58.9118 107.058 58.867 110.941 58.9566 114.824C59.0283 118.128 60.504 120.12 63.3536 121.097C64.7426 121.575 66.1943 121.695 67.6461 121.802C68.121 121.844 68.2285 121.59 68.2883 121.205C68.4655 120.086 68.6487 118.965 68.8379 117.844C69.0201 116.778 69.0231 116.778 67.9866 116.584Z" fill="#02B4C8"/>
</svg>
