<svg width="128" height="128" viewBox="0 0 128 128" fill="none" xmlns="http://www.w3.org/2000/svg">
<path d="M107.394 39.6166H105.876C103.114 39.5822 97.8177 39.8776 93.0157 44.027C81.5499 53.954 78.9324 68.5662 59.312 76.4529C42.9686 83.0205 22.8192 76.8033 22.8192 76.8033C22.8192 76.8033 40.7977 75.5529 43.1815 61.8338C45.0433 51.103 35.2812 43.4843 29.1532 33.8046C22.9222 23.9464 21.3215 15.7574 24.3237 12.2195C32.8355 2.16881 56.2755 29.3392 67.9131 33.0009C79.3034 36.5801 86.9908 28.2675 96.4232 29.4903C99.4322 29.8751 100.902 31.1735 101.878 32.8291C102.208 33.3856 103.018 35.2817 103.74 35.9824C104.447 36.6694 105.388 37.1777 106.268 37.693C107.387 38.3525 108.494 39.6166 107.394 39.6166Z" fill="url(#paint0_linear_30_787)"/>
<path d="M53.5291 23.8965C50.7125 21.7531 47.8065 19.5067 44.9486 17.4595C44.3028 16.9992 43.6571 16.5458 43.0182 16.1061C35.3583 10.8644 28.2548 7.58058 24.3252 12.2177C21.3231 15.7557 22.9238 23.9446 29.1616 33.8029C29.2234 33.906 29.2921 34.0021 29.354 34.1052C32.6034 39.1339 42.0289 50.9158 64.3698 50.4143C65.84 48.8548 68.0727 45.9076 70.958 42.6994C66.2796 35.1357 59.2311 28.5406 53.5291 23.8965Z" fill="url(#paint1_linear_30_787)"/>
<path d="M76.0468 59.4394C76.1361 56.0869 75.5247 52.7825 74.3637 49.588C71.0526 50.0744 67.714 50.3498 64.368 50.4124C61.6338 53.3184 55.389 61.0813 45.043 68.0749C31.2689 77.3905 22.8258 76.7996 22.8258 76.7996C22.8258 76.7996 42.982 83.0169 59.3186 76.4493C65.1786 74.0929 69.5273 71.1389 73.0447 67.8825C73.6217 67.3336 75.9231 64.4613 76.0468 59.4394Z" fill="url(#paint2_linear_30_787)"/>
<path d="M70.9638 42.7007C68.0784 45.9021 65.8388 48.8561 64.3755 50.4156C67.7216 50.3536 71.0603 50.0782 74.3712 49.5912C74.0277 48.6363 73.6293 47.6951 73.1896 46.7677C72.5206 45.3734 71.7776 44.0158 70.9638 42.7007Z" fill="url(#paint3_linear_30_787)"/>
<path d="M87.7126 30.548C81.6808 32.3754 75.6559 35.4325 67.9136 33.0006C64.0802 31.7983 58.9621 28.0405 53.528 23.8979C59.23 28.542 66.2785 35.1302 70.9638 42.7008C75.2369 37.9675 80.9389 32.6777 87.7126 30.548Z" fill="url(#paint4_linear_30_787)"/>
<path d="M74.3715 49.5891C75.5325 52.7836 76.1439 56.088 76.0546 59.4405C75.9241 64.4555 73.6227 67.3271 73.0456 67.8836C81.2963 60.2511 84.9855 50.9837 93.0232 44.0245C94.3827 42.8447 95.9139 41.879 97.5642 41.1604H97.5574C92.2881 43.3718 86.5724 47.7479 74.3715 49.5891Z" fill="url(#paint5_linear_30_787)"/>
<path d="M107.396 39.6168C108.495 39.6168 107.389 38.3528 106.276 37.7001C105.397 37.178 104.456 36.6696 103.748 35.9895C103.02 35.2888 102.209 33.3858 101.886 32.8362C100.904 31.1737 99.4407 29.8822 96.4317 29.4975C93.4089 29.1059 90.5648 29.6967 87.7206 30.5554C80.9469 32.6851 75.2381 37.9749 70.965 42.7083C71.7813 44.0195 72.5244 45.3749 73.1908 46.7684C73.6305 47.7027 74.029 48.6439 74.3725 49.5919C86.5802 47.7508 92.2891 43.3746 97.5583 41.1625H97.5652C100.883 39.7199 103.989 39.5893 105.885 39.6168H107.396Z" fill="url(#paint6_linear_30_787)"/>
<path d="M45.043 68.0789C55.389 61.086 61.6338 53.3231 64.368 50.4164C42.0271 50.9179 32.6016 39.1361 29.3522 34.1073C35.487 43.6496 45.0292 51.2202 43.1881 61.8342C40.8043 75.5533 22.8258 76.8036 22.8258 76.8036C22.8258 76.8036 31.2689 77.3945 45.043 68.0789Z" fill="url(#paint7_linear_30_787)"/>
<path d="M95.8053 36.3762C96.7917 36.3762 97.5914 35.5826 97.5914 34.6037C97.5914 33.6248 96.7917 32.8313 95.8053 32.8313C94.8188 32.8313 94.0191 33.6248 94.0191 34.6037C94.0191 35.5826 94.8188 36.3762 95.8053 36.3762Z" fill="white"/>
<path d="M60.8803 97.1638C55.8378 97.1638 51.7433 101.231 51.7433 106.232V108.925C51.7433 113.926 55.8446 117.993 60.8803 117.993H66.6922V114.703H60.8803C57.7751 114.703 55.2263 112.271 55.0683 109.227H67.0082C67.8049 109.229 68.5696 108.914 69.1349 108.353C69.7002 107.791 70.0199 107.029 70.0241 106.232C70.0241 101.231 65.9228 97.1638 60.8803 97.1638ZM55.0683 105.937C55.2263 102.893 57.7751 100.461 60.8803 100.461C63.9855 100.461 66.5342 102.893 66.6922 105.937H55.0683Z" fill="#191D1E"/>
<path d="M6.9227 92.6555C5.63865 93.9655 4.91858 95.7262 4.9167 97.5606V98.0003H3V101.291H4.9167V117.985H8.23485V101.291H12.7003V98.0003H8.23485V97.5613C8.23485 95.5484 9.88363 93.8447 11.8415 93.8447H14.2941V90.5471H11.8415C10.922 90.5496 10.0124 90.7376 9.16719 91.0999C8.322 91.4621 7.5586 91.9912 6.9227 92.6555Z" fill="#191D1E"/>
<path d="M22.8273 90.5273H19.5092V118H22.8273V90.5273Z" fill="#191D1E"/>
<path d="M42.9753 109.523C42.9753 112.381 40.6327 114.703 37.7542 114.703C34.8757 114.703 32.5331 112.381 32.5331 109.523V97.1638H29.2149V109.523C29.2149 114.194 33.0414 117.993 37.7542 117.993C42.4669 117.993 46.2934 114.194 46.2934 109.523V97.1638H42.9753V109.523Z" fill="#191D1E"/>
<path d="M81.8938 97.1638C77.1879 97.1638 73.3545 100.963 73.3545 105.634V117.993H76.6727V105.634C76.6727 102.777 79.0153 100.454 81.8938 100.454C84.7723 100.454 87.1149 102.777 87.1149 105.634V117.993H90.4331V105.634C90.4331 100.963 86.5997 97.1638 81.8938 97.1638Z" fill="#191D1E"/>
<path d="M100.038 110.986V100.461H104.531V97.1637H100.038V90.5273H96.7198V97.1637H93.7727V100.454H96.7198V110.979C96.7198 114.771 99.825 117.856 103.645 117.856H105.115V114.558H103.645C103.173 114.561 102.706 114.471 102.269 114.292C101.833 114.114 101.435 113.852 101.1 113.52C100.765 113.188 100.499 112.794 100.317 112.359C100.135 111.924 100.04 111.457 100.038 110.986Z" fill="#191D1E"/>
<path d="M121.691 90.5273V98.943C120.196 97.7897 118.359 97.1662 116.47 97.1705C111.764 97.1705 107.931 100.97 107.931 105.641V109.529C107.931 114.201 111.764 118 116.47 118C121.176 118 125.01 114.201 125.01 109.529V90.5273H121.691ZM121.691 107.489V109.523C121.691 112.38 119.349 114.702 116.47 114.702C113.592 114.702 111.249 112.38 111.249 109.523V105.634C111.249 102.776 113.592 100.454 116.47 100.454C119.349 100.454 121.691 102.776 121.691 105.634V107.489Z" fill="#191D1E"/>
<defs>
<linearGradient id="paint0_linear_30_787" x1="22.8192" y1="44.7332" x2="107.848" y2="44.7332" gradientUnits="userSpaceOnUse">
<stop stop-color="#2A59A2"/>
<stop offset="1" stop-color="#2A59A2"/>
</linearGradient>
<linearGradient id="paint1_linear_30_787" x1="19.3871" y1="30.2148" x2="109.322" y2="30.2148" gradientUnits="userSpaceOnUse">
<stop stop-color="#91D3F2"/>
<stop offset="0.27" stop-color="#6FB2DE"/>
<stop offset="0.52" stop-color="#5598CE"/>
<stop offset="0.67" stop-color="#4B8FC8"/>
</linearGradient>
<linearGradient id="paint2_linear_30_787" x1="22.8258" y1="64.5245" x2="108.475" y2="64.5245" gradientUnits="userSpaceOnUse">
<stop stop-color="#2C9EC7"/>
<stop offset="0.4" stop-color="#2C63A5"/>
<stop offset="1" stop-color="#395DA1"/>
</linearGradient>
<linearGradient id="paint3_linear_30_787" x1="22.8251" y1="46.5574" x2="108.474" y2="46.5574" gradientUnits="userSpaceOnUse">
<stop stop-color="#2F75B1"/>
<stop offset="1" stop-color="#356EAC"/>
</linearGradient>
<linearGradient id="paint4_linear_30_787" x1="53.528" y1="33.2987" x2="108.967" y2="33.2987" gradientUnits="userSpaceOnUse">
<stop stop-color="#2F81B6"/>
<stop offset="1" stop-color="#3B5EA9"/>
</linearGradient>
<linearGradient id="paint5_linear_30_787" x1="53.5262" y1="54.521" x2="108.965" y2="54.521" gradientUnits="userSpaceOnUse">
<stop stop-color="#1E3773"/>
<stop offset="1" stop-color="#203370"/>
</linearGradient>
<linearGradient id="paint6_linear_30_787" x1="89.4072" y1="59.1548" x2="89.4072" y2="28.7541" gradientUnits="userSpaceOnUse">
<stop stop-color="#2C5A9A"/>
<stop offset="1" stop-color="#374580"/>
</linearGradient>
<linearGradient id="paint7_linear_30_787" x1="13.5782" y1="55.4589" x2="76.6671" y2="55.4589" gradientUnits="userSpaceOnUse">
<stop offset="0.11" stop-color="#38B1DA"/>
<stop offset="1" stop-color="#326FB5"/>
</linearGradient>
</defs>
</svg>
