<svg width="128" height="128" viewBox="0 0 128 128" fill="none" xmlns="http://www.w3.org/2000/svg">
<mask id="mask0_61_55" style="mask-type:luminance" maskUnits="userSpaceOnUse" x="9" y="9" width="111" height="110">
<path d="M9 9H119.005V119H9V9Z" fill="white"/>
</mask>
<g mask="url(#mask0_61_55)">
<path d="M25.1378 119C18.6342 119.002 9 107.649 9 102.759V25.0351C9 18.4538 20.3859 9 25.2998 9L103.168 9.0055C109.888 9.00587 119.005 19.9664 119.005 25.1891V102.989C119.005 110.654 108.737 118.971 102.948 118.973L25.1374 119L25.1378 119Z" fill="#734F96"/>
<path d="M24.1012 97.5979L28.328 97.339C36.9113 96.7783 36.8251 96.8216 37.2564 90.093C37.6447 83.7094 37.1555 33.7293 36.868 32.7271C36.395 31.0767 34.6184 30.1273 29.3198 30.1284L24.1012 30.0962V20.7366H104.327V56.5792L94.8807 56.4391C94.7946 56.3529 94.5357 53.8188 94.3633 51.4896C93.3711 40.5342 90.9128 34.2309 86.1683 31.7723C83.6664 30.4783 79.7602 30.0965 67.2482 30.0929L55.5876 30.0962V56.9675H57.6579C61.1517 56.9242 65.5941 56.1047 67.0608 55.199C68.9584 54.0344 70.5542 50.6701 71.1152 46.6156C71.5376 43.6565 71.864 41.4428 71.864 41.4428L81.0355 41.4399V84.141H71.5464V82.459C71.5464 79.6986 70.2524 73.2717 69.3467 71.3309C67.9232 68.3549 65.5079 67.3197 58.6498 66.6725L55.5011 66.3707L55.6738 80.216C55.8032 93.3715 55.8894 94.1045 56.7089 95.2262C57.7441 96.6064 58.8654 96.8652 65.7235 97.3826L70.3268 97.6016L70.2957 107.001H24.1008V97.5983L24.1012 97.5979Z" fill="white"/>
</g>
</svg>
