<svg width="128" height="128" viewBox="0 0 128 128" fill="none" xmlns="http://www.w3.org/2000/svg">
<path fill-rule="evenodd" clip-rule="evenodd" d="M64.0455 9.9165C33.6068 9.9165 9 34.7047 9 65.371C9 89.8843 24.7664 110.634 46.6386 117.978C49.3732 118.53 50.3748 116.785 50.3748 115.317C50.3748 114.031 50.2847 109.625 50.2847 105.033C34.9724 108.339 31.7837 98.4227 31.7837 98.4227C29.3229 91.9958 25.6768 90.344 25.6768 90.344C20.6651 86.9469 26.0419 86.9469 26.0419 86.9469C31.6012 87.3142 34.5183 92.6391 34.5183 92.6391C39.4387 101.085 47.3676 98.6987 50.5574 97.2294C51.0126 93.6487 52.4717 91.1699 54.021 89.793C41.8083 88.5074 28.959 83.7334 28.959 62.4325C28.959 56.3729 31.1448 51.4153 34.6084 47.5596C34.062 46.1827 32.1476 40.4893 35.156 32.8692C35.156 32.8692 39.8038 31.4 50.2836 38.5615C54.7703 37.3476 59.3974 36.7301 64.0455 36.7249C68.6933 36.7249 73.4312 37.3683 77.8063 38.5615C88.2872 31.4 92.935 32.8692 92.935 32.8692C95.9434 40.4893 94.0279 46.1827 93.4815 47.5596C97.0363 51.4153 99.132 56.3729 99.132 62.4325C99.132 83.7334 86.2828 88.415 73.9788 89.793C75.9844 91.5372 77.7151 94.8419 77.7151 100.076C77.7151 107.512 77.6249 113.48 77.6249 115.316C77.6249 116.785 78.6277 118.53 81.3612 117.979C103.233 110.633 119 89.8843 119 65.371C119.09 34.7047 94.393 9.9165 64.0455 9.9165Z" fill="#24292F"/>
</svg>
