<svg width="128" height="128" viewBox="0 0 128 128" fill="none" xmlns="http://www.w3.org/2000/svg">
<path d="M26.5056 61.123H16.2488C15.9845 61.123 15.771 61.3365 15.771 61.6008V66.6157C15.771 66.88 15.9845 67.0968 16.2488 67.0968H20.2505V73.3282C20.2505 73.3282 19.3526 73.6331 16.8689 73.6331C13.9379 73.6331 9.84464 72.5624 9.84464 63.5627C9.84464 54.563 14.1073 53.377 18.109 53.377C21.572 53.377 23.0663 53.987 24.0151 54.2818C24.3133 54.3732 24.5877 54.0751 24.5877 53.8108L25.733 48.9653C25.733 48.8399 25.6924 48.6908 25.55 48.5926C25.1638 48.3181 22.8122 47 16.8689 47C10.0242 46.9966 3 49.9107 3 63.9117C3 77.9127 11.0408 80 17.8176 80C23.4289 80 26.8309 77.601 26.8309 77.601C26.9698 77.5231 26.9867 77.3265 26.9867 77.2384V61.6008C26.9867 61.3365 26.7733 61.123 26.509 61.123H26.5056Z" fill="#100E0F"/>
<path d="M79.3618 48.6738C79.3618 48.4061 79.1518 48.1926 78.8875 48.1926H73.1136C72.8493 48.1926 72.6358 48.4095 72.6358 48.6738V59.8319H63.6361V48.6738C63.6361 48.4061 63.4226 48.1926 63.1583 48.1926H57.3844C57.1201 48.1926 56.9067 48.4095 56.9067 48.6738V78.8919C56.9067 79.1596 57.1201 79.3764 57.3844 79.3764H63.1583C63.4226 79.3764 63.6361 79.1596 63.6361 78.8919V65.9684H72.6358L72.6189 78.8919C72.6189 79.1596 72.8323 79.3764 73.0966 79.3764H78.8841C79.1484 79.3764 79.3585 79.1596 79.3618 78.8919V48.6738Z" fill="#100E0F"/>
<path d="M37.4028 52.6384C37.4028 50.5579 35.7357 48.8772 33.6789 48.8772C31.6221 48.8772 29.955 50.5579 29.955 52.6384C29.955 54.7189 31.6221 56.3995 33.6789 56.3995C35.7357 56.3995 37.4028 54.7155 37.4028 52.6384Z" fill="#100E0F"/>
<path d="M36.9895 72.5183V58.5715C36.9895 58.3072 36.776 58.0903 36.5117 58.0903H30.7548C30.4905 58.0903 30.2533 58.3614 30.2533 58.6291V78.6141C30.2533 79.2003 30.6192 79.3765 31.0936 79.3765H36.2813C36.8506 79.3765 36.9895 79.0986 36.9895 78.6039V72.5217V72.5183Z" fill="#100E0F"/>
<path d="M101.305 58.1344H95.5755C95.3112 58.1344 95.0977 58.3513 95.0977 58.6189V73.4366C95.0977 73.4366 93.6407 74.5006 91.5771 74.5006C89.5136 74.5006 88.9613 73.562 88.9613 71.5391V58.6189C88.9613 58.3513 88.7478 58.1344 88.4835 58.1344H82.6689C82.408 58.1344 82.1912 58.3513 82.1912 58.6189V72.5183C82.1912 78.526 85.5389 79.9966 90.1472 79.9966C93.9253 79.9966 96.9749 77.9093 96.9749 77.9093C96.9749 77.9093 97.1206 79.0106 97.185 79.1393C97.2494 79.2681 97.4222 79.4002 97.6052 79.4002L101.305 79.3833C101.566 79.3833 101.783 79.1664 101.783 78.9021V58.6189C101.783 58.3513 101.566 58.1344 101.302 58.1344H101.305Z" fill="#100E0F"/>
<path d="M116.97 57.4532C113.714 57.4532 111.501 58.9069 111.501 58.9069V48.6738C111.501 48.4061 111.288 48.1926 111.023 48.1926H105.233C104.968 48.1926 104.755 48.4095 104.755 48.6738V78.8919C104.755 79.1596 104.968 79.3764 105.233 79.3764H109.251C109.431 79.3764 109.57 79.2815 109.671 79.1189C109.77 78.9563 109.915 77.7263 109.915 77.7263C109.915 77.7263 112.284 79.9694 116.767 79.9694C122.029 79.9694 125.048 77.2993 125.048 67.9845C125.048 58.6697 120.226 57.4532 116.97 57.4532ZM114.71 74.4801C112.721 74.4191 111.376 73.5178 111.376 73.5178V63.9489C111.376 63.9489 112.704 63.1322 114.337 62.9865C116.401 62.8002 118.39 63.4237 118.39 68.3471C118.39 73.5381 117.492 74.5615 114.713 74.4801H114.71Z" fill="#100E0F"/>
<path d="M53.586 58.0836H49.2555C49.2555 58.0836 49.2488 52.364 49.2488 52.3606C49.2488 52.1437 49.1369 52.0353 48.8862 52.0353H42.9835C42.7531 52.0353 42.6311 52.1369 42.6311 52.3572V58.27C42.6311 58.27 39.673 58.985 39.4731 59.0426C39.2732 59.1002 39.1275 59.2831 39.1275 59.5034V63.2205C39.1275 63.4882 39.341 63.7017 39.6053 63.7017H42.6311V72.6404C42.6311 79.2817 47.2902 79.9323 50.4313 79.9323C51.868 79.9323 53.586 79.4715 53.8706 79.3664C54.0434 79.302 54.1417 79.1258 54.1417 78.9327V74.8462C54.145 74.5786 53.9214 74.3651 53.6673 74.3651C53.4131 74.3651 52.7693 74.4667 52.1052 74.4667C49.9773 74.4667 49.2555 73.4773 49.2555 72.1965C49.2555 70.9157 49.2555 63.7017 49.2555 63.7017H53.586C53.8502 63.7017 54.0637 63.4848 54.0637 63.2205V58.5648C54.0637 58.2971 53.8502 58.0836 53.586 58.0836Z" fill="#100E0F"/>
</svg>
