<svg width="128" height="128" viewBox="0 0 128 128" fill="none" xmlns="http://www.w3.org/2000/svg">
<path d="M100.061 107.496C100.061 114.419 84.0236 119.998 64.2504 119.998C44.4772 119.998 28.4395 114.37 28.4395 107.496C28.4395 100.623 44.4772 94.9949 64.2504 94.9949C84.0236 94.9949 100.061 100.573 100.061 107.496Z" fill="#9EDCF2"/>
<path d="M55.9332 105.556C53.4429 104.988 53.5425 106.298 53.8065 107.09C51.4108 102.991 44.9757 103.514 44.9757 103.514C42.7344 104.311 44.8263 105.755 44.8263 105.755C48.3128 107.05 48.6614 110.835 48.6614 110.835V118.755C50.579 119.078 52.5962 119.342 54.688 119.547V110.686C54.7075 109.661 54.5124 108.643 54.1153 107.698C56.4313 109.486 56.5807 114.008 56.5807 114.008V119.696C58.6477 119.855 60.7794 119.95 62.9609 119.975L62.9061 114.337C62.6073 106.552 55.9332 105.556 55.9332 105.556Z" fill="#7DBCE7"/>
<path d="M82.8763 105.755C82.8763 105.755 84.9184 104.311 82.7269 103.514C82.7269 103.514 76.3018 102.991 73.9061 107.08C74.1601 106.293 74.2348 105.028 71.7694 105.556C71.7694 105.556 65.0953 106.502 64.7965 114.322L64.7417 120C66.9182 120 69.055 119.91 71.1219 119.771V114.023C71.1219 114.023 71.2713 109.501 73.5874 107.713C73.1903 108.658 72.9952 109.676 73.0146 110.701V119.666C75.0998 119.48 77.1087 119.235 79.0412 118.929V110.851C79.0412 110.851 79.34 107 82.8763 105.755Z" fill="#7DBCE7"/>
<path d="M23.3614 70.6902L22.3155 74.2763C22.3155 74.2763 22.0665 75.5712 23.2618 75.8203C24.5568 75.7705 24.4572 74.5751 24.3576 74.2265L23.3614 70.6902Z" fill="#9EDCF2"/>
<path d="M127.405 55.5994L127.505 55.1511C116.996 53.0592 106.238 53.0094 99.7129 53.3083C100.759 49.4732 101.107 44.9906 101.107 40.0597C101.162 36.8885 100.572 33.7392 99.3732 30.8027C98.1746 27.8662 96.3924 25.2035 94.1345 22.976C94.8816 20.5355 95.8778 15.1066 93.1384 8.18347C93.1384 8.18347 88.2573 6.63946 77.1505 14.0607C72.7027 12.957 68.1359 12.405 63.5533 12.417C58.4763 12.4091 53.42 13.062 48.5117 14.3595C37.0561 6.53985 32.0257 8.13366 32.0257 8.13366C28.7384 16.3518 30.7805 22.478 31.3782 23.9722C27.2984 28.3064 25.0655 34.0582 25.1523 40.0099C25.1523 44.9408 25.7002 49.3736 27.0948 53.2087C20.5203 52.9596 10.1606 53.0592 0 55.1013L0.0996132 55.5496C10.2602 53.5075 20.7196 53.4577 27.2442 53.7067C27.5431 54.5036 27.8917 55.3005 28.2404 56.0476C21.7655 56.2469 10.7582 57.0936 0.199226 60.082L0.348646 60.5302C11.0073 57.5418 22.1141 56.7449 28.5392 56.5457C32.4241 63.7179 39.9947 68.3997 53.5421 69.8441C51.5997 71.1391 49.6572 73.3306 48.8603 77.066C46.2206 78.3112 37.9527 81.3992 32.972 72.8325C32.972 72.8325 30.1828 67.7522 24.8535 67.3538C24.8535 67.3538 19.6736 67.2541 24.5049 70.5912C24.5049 70.5912 27.9415 72.2348 30.3322 78.361C30.3322 78.361 33.4701 88.8204 48.4619 85.4336V96.142C48.4619 96.142 48.163 99.9771 44.6267 101.222C44.6267 101.222 42.5349 102.667 44.7762 103.464C44.7762 103.464 54.4885 104.26 54.4885 96.2914V84.537C54.4885 84.537 54.09 79.8552 56.3811 78.2614V97.5864C56.3811 97.5864 56.2317 102.218 53.841 103.962C53.841 103.962 52.2472 106.801 55.7336 106.054C55.7336 106.054 62.4077 105.107 62.7065 97.2875L62.856 77.7135H64.4498L64.5992 97.2875C64.898 105.057 71.5721 106.054 71.5721 106.054C75.0586 106.85 73.4648 103.962 73.4648 103.962C71.0741 102.218 70.9246 97.5864 70.9246 97.5864V78.4108C73.2157 80.2039 72.8173 84.537 72.8173 84.537V96.2914C72.8173 104.26 82.5296 103.464 82.5296 103.464C84.7709 102.667 82.679 101.222 82.679 101.222C79.1925 99.9273 78.8439 96.142 78.8439 96.142V80.7019C78.8439 74.6753 76.3038 71.4877 73.8134 69.8441C88.2573 68.3997 95.1805 63.7677 98.3681 56.4959C104.694 56.6453 116.099 57.4422 126.957 60.5302L127.107 60.082C116.298 57.0438 104.992 56.2469 98.5673 56.0476C98.8662 55.3005 99.1152 54.5535 99.3642 53.7565C106.038 53.5075 116.846 53.5075 127.405 55.5994Z" fill="#010101"/>
<path d="M86.9605 39.7122C90.0485 42.5512 91.8913 45.938 91.8913 49.5739C91.8913 66.7074 79.1408 67.1556 63.4019 67.1556C47.663 67.1556 34.9125 64.7649 34.9125 49.5739C34.9125 45.938 36.7056 42.5512 39.7936 39.762C44.9237 35.0802 53.59 37.5705 63.4019 37.5705C73.2138 37.5705 81.8304 35.0304 86.9605 39.7122Z" fill="#F5CCB3"/>
<path d="M53.9409 50.4676C53.9409 55.1992 51.3011 58.9846 48.0139 58.9846C44.7267 58.9846 42.0869 55.1494 42.0869 50.4676C42.0869 45.7858 44.7267 41.9507 48.0139 41.9507C51.3011 41.9507 53.9409 45.736 53.9409 50.4676Z" fill="white"/>
<path d="M52.0454 50.5831C52.0454 53.7209 50.2523 56.2611 48.1106 56.2611C45.9689 56.2611 44.1759 53.7209 44.1759 50.5831C44.1759 47.4453 45.9689 44.9052 48.1106 44.9052C50.2523 44.9052 52.0454 47.4453 52.0454 50.5831Z" fill="#AF5C51"/>
<path d="M85.7683 50.4676C85.7683 55.1992 83.1285 58.9846 79.8413 58.9846C76.5541 58.9846 73.9143 55.1494 73.9143 50.4676C73.9143 45.7858 76.5541 41.9507 79.8413 41.9507C83.1285 41.9507 85.7683 45.736 85.7683 50.4676Z" fill="white"/>
<path d="M83.8242 50.5831C83.8242 53.7209 82.0312 56.2611 79.8895 56.2611C77.7478 56.2611 75.9548 53.7209 75.9548 50.5831C75.9548 47.4453 77.7478 44.9052 79.8895 44.9052C82.0312 44.9052 83.8242 47.4453 83.8242 50.5831Z" fill="#AF5C51"/>
<path d="M64.9957 58.054C64.9957 58.4503 64.8383 58.8304 64.5581 59.1106C64.2779 59.3908 63.8978 59.5482 63.5015 59.5482C63.1052 59.5482 62.7252 59.3908 62.445 59.1106C62.1647 58.8304 62.0073 58.4503 62.0073 58.054C62.0073 57.6577 62.1647 57.2777 62.445 56.9975C62.7252 56.7172 63.1052 56.5598 63.5015 56.5598C63.8978 56.5598 64.2779 56.7172 64.5581 56.9975C64.8383 57.2777 64.9957 57.6577 64.9957 58.054Z" fill="#AF5C51"/>
<path d="M60.0654 61.7756C60.0419 61.7158 60.0308 61.6519 60.0328 61.5877C60.0348 61.5235 60.0499 61.4604 60.0771 61.4022C60.1043 61.344 60.1431 61.2919 60.1911 61.2492C60.239 61.2065 60.2952 61.174 60.3561 61.1537C60.4171 61.1334 60.4815 61.1257 60.5455 61.1311C60.6095 61.1365 60.6718 61.1548 60.7284 61.1851C60.7851 61.2153 60.835 61.2567 60.8752 61.3069C60.9153 61.357 60.9448 61.4148 60.9619 61.4768C61.1463 62.0027 61.49 62.458 61.9453 62.7794C62.4006 63.1008 62.9448 63.2722 63.502 63.2698C64.0569 63.2622 64.5965 63.0869 65.0499 62.7668C65.5033 62.4468 65.8492 61.9971 66.0422 61.4768C66.0865 61.364 66.1724 61.2725 66.2822 61.2212C66.3919 61.1699 66.5172 61.1626 66.6322 61.2009C66.7471 61.2393 66.843 61.3202 66.9 61.4271C66.9571 61.5341 66.9709 61.6588 66.9387 61.7756C66.6894 62.4882 66.2247 63.1058 65.609 63.5427C64.9933 63.9796 64.257 64.2143 63.502 64.2143C62.7471 64.2143 62.0107 63.9796 61.395 63.5427C60.7793 63.1058 60.3147 62.4882 60.0654 61.7756Z" fill="#AF5C51"/>
<path d="M27.1475 68.5487C27.1475 68.9472 26.6993 69.246 26.1016 69.246C25.5039 69.246 25.0557 68.9472 25.0557 68.5487C25.0557 68.1503 25.5039 67.8514 26.1016 67.8514C26.6993 67.8514 27.1475 68.1503 27.1475 68.5487Z" fill="#C4E5D9"/>
<path d="M30.0318 70.1442C30.0318 70.5427 29.5836 70.8415 28.9859 70.8415C28.3882 70.8415 27.9399 70.5427 27.9399 70.1442C27.9399 69.7457 28.3882 69.4469 28.9859 69.4469C29.5836 69.4469 30.0318 69.7457 30.0318 70.1442Z" fill="#C4E5D9"/>
<path d="M31.7756 72.2332C31.7756 72.6316 31.3273 72.9305 30.7297 72.9305C30.132 72.9305 29.6837 72.6316 29.6837 72.2332C29.6837 71.8347 30.132 71.5359 30.7297 71.5359C31.3273 71.5359 31.7756 71.8347 31.7756 72.2332Z" fill="#C4E5D9"/>
<path d="M33.3711 74.6266C33.3711 75.0251 32.9228 75.3239 32.3251 75.3239C31.7274 75.3239 31.2792 75.0251 31.2792 74.6266C31.2792 74.2282 31.7274 73.9293 32.3251 73.9293C32.9228 73.9293 33.3711 74.2282 33.3711 74.6266Z" fill="#C4E5D9"/>
<path d="M35.1115 76.818C35.1115 77.2165 34.6633 77.5153 34.0656 77.5153C33.4679 77.5153 33.0197 77.2165 33.0197 76.818C33.0197 76.4196 33.4679 76.1207 34.0656 76.1207C34.6633 76.1207 35.1115 76.4196 35.1115 76.818Z" fill="#C4E5D9"/>
<path d="M37.5047 78.76C37.5047 79.1585 37.0564 79.4573 36.4587 79.4573C35.861 79.4573 35.4128 79.1585 35.4128 78.76C35.4128 78.3616 35.861 78.0627 36.4587 78.0627C37.0564 78.0627 37.5047 78.3616 37.5047 78.76Z" fill="#C4E5D9"/>
<path d="M40.8429 80.0045C40.8429 80.403 40.3946 80.7018 39.7969 80.7018C39.1992 80.7018 38.751 80.403 38.751 80.0045C38.751 79.6061 39.1992 79.3073 39.7969 79.3073C40.3946 79.3073 40.8429 79.6061 40.8429 80.0045Z" fill="#C4E5D9"/>
<path d="M44.1788 80.0045C44.1788 80.403 43.7305 80.7018 43.1329 80.7018C42.5352 80.7018 42.0869 80.403 42.0869 80.0045C42.0869 79.6061 42.5352 79.3073 43.1329 79.3073C43.7305 79.3073 44.1788 79.6061 44.1788 80.0045Z" fill="#C4E5D9"/>
<path d="M47.5665 79.4728C47.5665 79.8713 47.1182 80.1701 46.5205 80.1701C45.9229 80.1701 45.4746 79.8713 45.4746 79.4728C45.4746 79.0743 45.9229 78.7755 46.5205 78.7755C47.1182 78.7755 47.5665 79.0743 47.5665 79.4728Z" fill="#C4E5D9"/>
</svg>
