<svg width="128" height="128" viewBox="0 0 128 128" fill="none" xmlns="http://www.w3.org/2000/svg">
<path d="M117.303 52.9899L117.162 52.5658L102.176 13.4742C101.893 12.6966 101.327 12.0604 100.62 11.6362C99.9135 11.2121 99.1359 11 98.2876 11C97.4393 11 96.6617 11.3534 96.0255 11.8483C95.3893 12.3431 94.8945 13.05 94.6824 13.8983L84.5737 44.8605H43.644L33.5353 13.8983C33.3232 13.1207 32.8284 12.4138 32.1922 11.8483C31.5559 11.3534 30.7783 11 29.9301 11C29.0818 11 28.3042 11.1414 27.5973 11.6362C26.8904 12.0604 26.3249 12.6966 26.0421 13.4742L11.0558 52.5658L10.9144 52.9899C6.46088 64.5831 10.2782 77.6607 20.1748 85.1539H20.3162C20.3162 85.2246 43.1492 102.332 43.1492 102.332L54.4596 110.885L61.3166 116.045C62.9424 117.318 65.2752 117.318 66.9011 116.045L73.758 110.885L85.0685 102.332L108.043 85.1539C117.939 77.6607 121.686 64.5831 117.233 52.9899H117.303Z" fill="#E24329"/>
<path d="M117.304 52.9898L117.163 52.5657C109.74 54.1209 102.883 57.2312 97.0159 61.614C96.9452 61.614 79.2019 75.1158 64.0742 86.4969C75.2433 94.9797 84.9985 102.331 84.9985 102.331L107.973 85.1538C117.87 77.6606 121.616 64.583 117.163 52.9898H117.304Z" fill="#FC6D26"/>
<path d="M43.0784 102.332L54.3888 110.885L61.2458 116.046C62.8717 117.318 65.2044 117.318 66.8303 116.046L73.6873 110.885L84.9977 102.332C84.9977 102.332 75.2425 94.98 64.0734 86.4972C52.8336 94.98 43.0784 102.332 43.0784 102.332Z" fill="#FCA326"/>
<path d="M31.1319 61.614C25.2646 57.2312 18.4076 54.0502 10.9851 52.5657L10.8438 52.9898C6.39027 64.583 10.2075 77.6606 20.1042 85.1538H20.2456C20.2456 85.2245 43.0785 102.331 43.0785 102.331C43.0785 102.331 52.8338 94.9797 64.0735 86.4969C49.0165 75.1158 31.2733 61.6847 31.1319 61.614Z" fill="#FC6D26"/>
</svg>
