<svg width="128" height="128" viewBox="0 0 128 128" fill="none" xmlns="http://www.w3.org/2000/svg">
<path d="M52.4362 60.1733H56.5416C55.8574 55.8158 52.0761 52.7728 47.1605 52.7728C42.2448 52.7728 36.9871 57.0402 36.9871 64.2066C36.9871 71.373 41.1464 75.6044 47.2865 75.6044C53.4265 75.6044 56.7216 72.0753 56.7216 66.3313V63.6665H47.7006V66.8175H52.8143C52.7423 69.9866 50.6356 71.9852 47.2865 71.9852C43.9374 71.9852 41.0204 69.1943 41.0204 64.1706C41.0204 59.147 43.6133 56.392 47.1965 56.392C50.7797 56.392 51.698 57.8325 52.4182 60.1733H52.4362Z" fill="#171321"/>
<path d="M59.4406 75.2982H63.3659V58.6427H59.4406V75.2982ZM61.4032 55.9958C62.6456 55.9958 63.672 55.0415 63.672 53.8711C63.672 52.7007 62.6456 51.7284 61.4032 51.7284C60.1608 51.7284 59.1165 52.6827 59.1165 53.8711C59.1165 55.0595 60.1428 55.9958 61.4032 55.9958Z" fill="#171321"/>
<path d="M75.1238 58.6426H71.8286V54.6453H67.9033V58.6426H65.5446V61.6856H67.9033V70.9587C67.9033 74.0917 70.1541 75.6403 73.1071 75.5502C74.2234 75.5142 74.9977 75.2981 75.4118 75.1541L74.7456 72.0751C74.5295 72.1291 74.0794 72.2191 73.5932 72.2191C72.6029 72.2191 71.8106 71.877 71.8106 70.2925V61.6856H75.1057V58.6426H75.1238Z" fill="#171321"/>
<path d="M78.1667 75.2985H91.9774V71.9314H82.2001V53.0791H78.1667V75.2985Z" fill="#171321"/>
<path d="M99.504 75.6405C102.115 75.6405 103.681 74.4161 104.402 73.0116H104.528V75.2984H108.309V64.1527C108.309 59.7412 104.726 58.4268 101.539 58.4268C98.3516 58.4268 95.3446 59.9933 94.4803 63.0183L98.1535 63.5405C98.5497 62.4061 99.648 61.4338 101.575 61.4338C103.501 61.4338 104.402 62.3701 104.402 64.0086V64.0806C104.402 65.215 103.213 65.269 100.278 65.5751C97.0372 65.9173 93.9581 66.8896 93.9581 70.6348C93.9581 74.3801 96.3529 75.6405 99.54 75.6405H99.504ZM100.782 72.7415C99.1439 72.7415 97.9735 71.9853 97.9735 70.5448C97.9735 69.1043 99.2879 68.4021 101.053 68.15C102.079 68.0059 104.15 67.7539 104.654 67.3397V69.3024C104.654 71.157 103.159 72.7235 100.782 72.7235V72.7415Z" fill="#171321"/>
<path d="M111.19 75.2984H115.043V72.6696H115.277C115.889 73.876 117.186 75.5865 120.049 75.5865C122.912 75.5865 126.909 72.4715 126.909 66.9797C126.909 61.4878 123.884 58.4088 120.031 58.4088C116.177 58.4088 115.871 60.1734 115.259 61.3798H115.097V53.061H111.172V75.2804H111.19V75.2984ZM115.043 66.9617C115.043 63.7206 116.43 61.6319 118.968 61.6319C121.507 61.6319 122.93 63.8646 122.93 66.9617C122.93 70.0587 121.561 72.3635 118.968 72.3635C116.375 72.3635 115.043 70.1847 115.043 66.9617Z" fill="#171321"/>
<path d="M29.5866 60.6956L29.5506 60.5875L25.7333 50.6302C25.6613 50.4321 25.5173 50.2701 25.3372 50.1621C25.1571 50.054 24.9591 50 24.743 50C24.5269 50 24.3289 50.09 24.1668 50.2161C24.0048 50.3421 23.8787 50.5222 23.8247 50.7382L21.2498 58.6249H10.8244L8.2495 50.7382C8.19548 50.5402 8.06944 50.3601 7.90739 50.2161C7.74534 50.09 7.54727 50 7.33119 50C7.11512 50 6.91706 50.036 6.737 50.1621C6.55694 50.2701 6.41289 50.4321 6.34086 50.6302L2.52359 60.5875L2.48758 60.6956C1.3532 63.6485 2.32553 66.9797 4.84637 68.8883H4.88238C4.88238 68.9063 10.6983 73.2638 10.6983 73.2638L13.5793 75.4425L15.3259 76.7569C15.74 77.081 16.3342 77.081 16.7483 76.7569L18.4949 75.4425L21.3759 73.2638L27.2278 68.8883C29.7487 66.9797 30.703 63.6485 29.5686 60.6956H29.5866Z" fill="#E24329"/>
<path d="M29.5867 60.6956L29.5507 60.5875C27.6601 60.9837 25.9135 61.7759 24.419 62.8923C24.401 62.8923 19.8815 66.3314 16.0282 69.2304C18.8731 71.3911 21.358 73.2637 21.358 73.2637L27.2099 68.8883C29.7308 66.9797 30.6851 63.6485 29.5507 60.6956H29.5867Z" fill="#FC6D26"/>
<path d="M10.6804 73.2638L13.5614 75.4425L15.308 76.757C15.7221 77.0811 16.3163 77.0811 16.7304 76.757L18.477 75.4425L21.358 73.2638C21.358 73.2638 18.8732 71.3912 16.0282 69.2305C13.1652 71.3912 10.6804 73.2638 10.6804 73.2638Z" fill="#FCA326"/>
<path d="M7.63736 62.8923C6.14286 61.7759 4.39628 60.9657 2.50565 60.5875L2.46964 60.6956C1.33526 63.6485 2.30758 66.9797 4.82842 68.8883H4.86443C4.86443 68.9063 10.6804 73.2637 10.6804 73.2637C10.6804 73.2637 13.1652 71.3911 16.0282 69.2304C12.1929 66.3314 7.67337 62.9103 7.63736 62.8923Z" fill="#FC6D26"/>
</svg>
