<svg width="128" height="128" viewBox="0 0 128 128" fill="none" xmlns="http://www.w3.org/2000/svg">
<path d="M34.5761 14.7978C35.0802 14.2077 35.623 13.6517 36.2009 13.1335C34.6609 11.8733 32.6361 11.1051 30.4174 11.1051C25.5976 11.1051 21.6906 14.7157 21.6906 19.1667C21.6906 23.0155 24.6089 26.2344 28.5122 27.0375C29.6856 22.6384 31.5991 18.3065 34.5761 14.7978Z" fill="#6AD8E5"/>
<path d="M94.4221 9.53125C92.1243 9.53125 90.034 10.3525 88.4752 11.6944C93.3184 15.6165 96.0396 20.0894 97.5313 25.1344C100.816 23.9766 103.148 21.0391 103.148 17.5975C103.148 13.1418 99.2419 9.53125 94.4221 9.53125Z" fill="#6AD8E5"/>
<path d="M63.1262 120.971C73.7389 120.971 88.0735 118.567 94.7662 107.765C103.784 93.2117 98.6998 76.171 98.8371 57.4576C98.9931 35.9071 102.38 19.9763 84.5452 8.9574C74.116 2.5133 44.5491 3.01468 34.5423 14.8091C26.7928 23.9432 26.2446 38.6548 27.2234 45.6637C28.2023 52.6727 29.0271 59.8735 28.5414 76.714C28.065 93.2127 25.9887 104.588 36.3762 113.072C43.1875 118.634 51.7739 120.972 63.1262 120.971Z" fill="#6AD8E5"/>
<path d="M36.4192 113.072L36.3719 113.033C24.1713 118.982 32.4685 126.293 37.1837 121.75C40.1525 118.889 42.545 117.953 44.0871 117.69C41.324 116.524 38.7419 114.969 36.4192 113.072Z" fill="#F6D2A2"/>
<path d="M91.6347 111.767C89.8075 113.597 87.7058 115.085 85.4376 116.287C86.7233 117.06 88.2706 118.364 89.9402 120.561C93.9543 125.841 103.468 119.664 91.6347 111.767Z" fill="#F6D2A2"/>
<path d="M28.67 62.5748C24.997 63.007 17.7883 64.4899 20.4554 69.3913C22.5546 73.2489 26.1547 70.5116 28.7251 67.6625C28.7277 65.8286 28.7084 64.1424 28.67 62.5748Z" fill="#F6D2A2"/>
<path d="M98.9254 61.5638C98.9915 63.8793 99.1173 66.1678 99.265 68.4292C101.749 70.3396 104.972 71.7948 106.849 68.6149C109.446 64.2138 102.741 62.2265 98.9254 61.5638Z" fill="#F6D2A2"/>
<path d="M58.2227 36.5326C55.8822 37.1047 53.8913 38.276 53.7108 40.5327C53.3904 44.5375 57.6688 44.1396 59.2099 43.3668C61.2237 42.3567 62.0866 42.3598 62.8979 42.3598C63.7093 42.3598 64.5716 42.3567 66.586 43.3668C68.1265 44.1396 72.4054 44.5391 72.085 40.5327C71.9046 38.276 69.9146 37.1063 67.5726 36.5326H58.2227Z" fill="#F6D2A2"/>
<path d="M66.5856 43.3687C65.6426 42.8959 64.9519 42.6452 64.4011 42.5121H63.1263V48.7076C63.1263 49.3469 63.3803 49.9601 63.8324 50.4122C64.2845 50.8643 64.8977 51.1183 65.537 51.1183C66.1764 51.1183 66.7896 50.8643 67.2416 50.4122C67.6937 49.9601 67.9477 49.3469 67.9477 48.7076V43.7858C67.4115 43.6953 66.9304 43.5414 66.5856 43.3687Z" fill="white"/>
<path d="M59.2098 43.3687C58.9005 43.5173 58.5755 43.6306 58.2408 43.7062V48.7076C58.2408 49.3469 58.4948 49.9601 58.9469 50.4122C59.399 50.8643 60.0122 51.1183 60.6515 51.1183C61.2909 51.1183 61.904 50.8643 62.3561 50.4122C62.8082 49.9601 63.0622 49.3469 63.0622 48.7076V42.5121H61.3942C60.8434 42.6452 60.1527 42.8959 59.2098 43.3687Z" fill="white"/>
<path d="M48.5051 37.1762C54.451 37.1762 59.2712 32.3561 59.2712 26.4101C59.2712 20.4641 54.451 15.6439 48.5051 15.6439C42.5591 15.6439 37.7389 20.4641 37.7389 26.4101C37.7389 32.3561 42.5591 37.1762 48.5051 37.1762Z" fill="white"/>
<path d="M76.2714 35.9782C82.2174 35.9782 87.0376 31.1581 87.0376 25.2121C87.0376 19.2661 82.2174 14.4459 76.2714 14.4459C70.3254 14.4459 65.5052 19.2661 65.5052 25.2121C65.5052 31.1581 70.3254 35.9782 76.2714 35.9782Z" fill="white"/>
<path d="M48.504 38.0085C45.8207 38.0085 43.2203 37.0781 41.1461 35.3759C39.0719 33.6736 37.652 31.3048 37.1285 28.673C36.605 26.0413 37.0102 23.3094 38.2751 20.9429C39.54 18.5764 41.5863 16.7217 44.0653 15.6948C46.5444 14.6679 49.3028 14.5324 51.8706 15.3113C54.4384 16.0901 56.6567 17.7353 58.1475 19.9663C59.6383 22.1974 60.3094 24.8763 60.0465 27.5467C59.7836 30.2171 58.6028 32.7138 56.7055 34.6112C55.631 35.6917 54.3528 36.5483 52.945 37.1314C51.5372 37.7146 50.0278 38.0127 48.504 38.0085ZM48.504 16.4762C43.0268 16.4762 38.57 20.9325 38.57 26.4102C38.57 31.888 43.0268 36.3442 48.504 36.3442C53.9812 36.3442 58.438 31.888 58.438 26.4102C58.438 20.9325 53.9817 16.4762 48.504 16.4762Z" fill="black"/>
<path d="M76.2701 36.8105C73.5868 36.8105 70.9864 35.8801 68.9122 34.1779C66.838 32.4756 65.4182 30.1068 64.8946 27.475C64.3711 24.8433 64.7763 22.1114 66.0412 19.7449C67.3061 17.3784 69.3524 15.5237 71.8314 14.4968C74.3105 13.4699 77.0689 13.3344 79.6367 14.1133C82.2045 14.8921 84.4228 16.5373 85.9136 18.7683C87.4044 20.9994 88.0755 23.6783 87.8126 26.3487C87.5497 29.0192 86.3689 31.5158 84.4716 33.4132C83.3971 34.4937 82.1189 35.3503 80.7111 35.9334C79.3033 36.5166 77.7939 36.8147 76.2701 36.8105ZM76.2701 15.2782C70.7929 15.2782 66.3361 19.7345 66.3361 25.2122C66.3361 30.69 70.7929 35.1462 76.2701 35.1462C81.7473 35.1462 86.2041 30.69 86.2041 25.2122C86.2041 19.7345 81.7478 15.2782 76.2701 15.2782Z" fill="black"/>
<path d="M42.7512 30.5704C44.7907 30.5704 46.444 28.9171 46.444 26.8777C46.444 24.8382 44.7907 23.1849 42.7512 23.1849C40.7118 23.1849 39.0585 24.8382 39.0585 26.8777C39.0585 28.9171 40.7118 30.5704 42.7512 30.5704Z" fill="black"/>
<path d="M70.4226 29.4161C72.462 29.4161 74.1153 27.7628 74.1153 25.7234C74.1153 23.6839 72.462 22.0306 70.4226 22.0306C68.3832 22.0306 66.7299 23.6839 66.7299 25.7234C66.7299 27.7628 68.3832 29.4161 70.4226 29.4161Z" fill="black"/>
<path d="M107.894 65.2542C107.322 64.0143 106.003 62.9585 103.975 62.1164C102.505 61.5058 100.93 61.1121 99.6992 60.8682C99.6725 59.7385 99.6624 58.6035 99.669 57.4631C99.6908 54.4865 99.773 51.6187 99.8552 48.8455C100.111 40.0822 100.331 32.5142 98.5378 25.7715L98.5019 25.6384C99.9637 24.9978 101.238 23.9954 102.206 22.7258C103.345 21.2222 103.947 19.4492 103.947 17.6049C103.947 12.6992 99.6586 8.71108 94.3879 8.71108C92.2133 8.71108 90.1272 9.39242 88.4405 10.6417C87.3314 9.78284 86.1771 8.98419 84.9823 8.24923C79.685 4.97621 69.6117 3.3925 59.3193 4.21426C54.0356 4.63607 49.0212 5.67992 44.8219 7.23087C41.3143 8.52697 38.4038 10.1487 36.1284 12.0678C34.4781 10.9127 32.4648 10.2823 30.3833 10.2823C25.1126 10.2823 20.8243 14.2731 20.8243 19.1761C20.8243 21.2269 21.5915 23.2277 22.9848 24.8104C24.1545 26.1398 25.7216 27.128 27.4645 27.6491C27.2062 28.7004 26.9808 29.78 26.7884 30.8878C25.9338 35.8387 25.7877 41.4038 26.3983 45.7748C27.0318 50.3095 27.5805 54.8891 27.7755 61.8423C24.4895 62.3037 20.6433 63.3548 19.405 65.7462C18.7839 66.9461 18.8776 68.3052 19.6832 69.7854C20.44 71.1756 21.4484 71.9547 22.6811 72.1004C22.8178 72.1166 22.9553 72.1248 23.093 72.1248C24.4947 72.1248 26.0857 71.3103 27.8426 69.6975C27.8249 71.8299 27.7817 74.1485 27.7084 76.6851C27.6476 78.7998 27.5602 80.8267 27.4759 82.7864C27.1883 89.4625 26.9402 95.2278 27.9154 100.302C28.9078 105.466 31.1245 109.486 34.8526 112.855C29.8075 115.626 29.096 118.415 29.147 119.886C29.2037 121.534 30.2512 122.968 31.8807 123.628C32.488 123.874 33.1372 124 33.7926 124C35.1917 124 36.5934 123.428 37.7173 122.345C40.4088 119.752 42.559 118.843 43.9508 118.548C45.2131 119.071 46.5035 119.522 47.8162 119.901C52.2199 121.176 57.2243 121.796 63.1161 121.796H63.1254C69.6101 121.796 75.6813 120.898 80.6831 119.199C82.2855 118.66 83.8467 118.006 85.3547 117.242C86.6648 118.111 87.9682 119.392 89.2352 121.059C89.9467 121.995 90.8683 122.683 91.9012 123.049C92.4639 123.25 93.0569 123.354 93.6545 123.355C94.0527 123.355 94.4496 123.308 94.8367 123.214C96.5531 122.798 97.8013 121.526 98.0915 119.891C98.362 118.368 98.0057 115.327 92.8666 111.632C93.8412 110.572 94.7138 109.422 95.4728 108.197C102.13 97.4497 101.264 85.3573 100.345 72.5555C100.285 71.7306 100.226 70.9013 100.168 70.0678C101.52 70.8953 102.759 71.3119 103.864 71.3119C104.122 71.3123 104.38 71.2885 104.633 71.2406C105.818 71.0144 106.791 70.2701 107.523 69.0297C108.312 67.7003 108.437 66.4307 107.894 65.2542ZM94.3879 10.3749C98.7406 10.3749 102.283 13.6188 102.283 17.6043C102.283 19.0851 101.797 20.5086 100.878 21.7205C100.125 22.7079 99.1446 23.499 98.0203 24.0266C97.5514 22.5927 96.9677 21.199 96.2748 19.859C96.7469 19.409 97.0458 18.8073 97.1192 18.1592C97.1926 17.5112 97.0359 16.8579 96.6765 16.3136C96.3171 15.7694 95.7778 15.3688 95.153 15.1818C94.5281 14.9949 93.8575 15.0335 93.2582 15.2909C92.2004 14.0078 91.0346 12.8178 89.7735 11.7339C91.1452 10.8385 92.7498 10.3659 94.3879 10.3749ZM24.2341 23.7145C23.0899 22.4174 22.4886 20.8493 22.4886 19.1797C22.4886 15.1921 26.03 11.9503 30.3833 11.9503C31.9689 11.9448 33.5236 12.3888 34.8671 13.2308C34.5291 13.5699 34.2092 13.9166 33.9075 14.271C33.1113 15.2133 32.3831 16.2109 31.7283 17.2564C31.4013 17.0735 31.0408 16.9585 30.6683 16.9183C30.2958 16.8781 29.919 16.9136 29.5606 17.0226C29.2021 17.1316 28.8694 17.3119 28.5823 17.5526C28.2952 17.7934 28.0598 18.0896 27.89 18.4236C27.7202 18.7576 27.6196 19.1224 27.5943 19.4962C27.569 19.87 27.6194 20.2451 27.7426 20.5989C27.8658 20.9527 28.0591 21.2781 28.3111 21.5553C28.5631 21.8326 28.8685 22.0561 29.2089 22.2125C28.7039 23.4662 28.2648 24.7455 27.8936 26.0451C26.4669 25.6082 25.1875 24.7984 24.2341 23.7145ZM22.8777 70.4516C22.3685 70.3913 21.9212 70.1052 21.5218 69.582L23.7676 67.8251L22.7419 66.5144L20.764 68.0638C20.6079 67.4844 20.6496 66.9716 20.8862 66.5155C21.5972 65.1414 24.102 64.0668 27.8176 63.5218C27.84 64.7227 27.853 65.9917 27.854 67.3398C25.8574 69.4931 24.0984 70.5957 22.8777 70.4516ZM36.5632 121.15C35.1724 122.49 33.5554 122.514 32.5064 122.087C32.432 122.056 32.3602 122.024 32.2905 121.989C32.819 120.535 33.7149 119.242 34.8911 118.236L33.8155 116.967C32.614 117.989 31.6562 119.267 31.0121 120.708C30.8896 120.431 30.8218 120.133 30.8124 119.83C30.7833 118.984 31.1832 118.049 31.9696 117.126C32.9027 116.03 34.333 114.985 36.2241 114.013C37.9342 115.371 39.7787 116.551 41.7289 117.533C40.2981 118.151 38.5437 119.242 36.5632 121.15ZM95.6278 116.644C96.3216 117.717 96.6066 118.741 96.4532 119.609C96.3951 119.942 96.2661 120.258 96.0751 120.537C95.852 119.306 95.2684 117.639 93.7715 116.384L92.7022 117.659C94.1533 118.876 94.4659 120.695 94.5293 121.584L94.4461 121.605C93.3388 121.872 91.7369 121.605 90.5609 120.06C89.4016 118.535 88.1997 117.296 86.9748 116.361C88.6717 115.368 90.2515 114.188 91.6844 112.842C93.4912 114.111 94.8164 115.389 95.6278 116.644ZM99.1 90.9833C98.5633 97.4492 96.9613 102.642 94.0586 107.327C91.1559 112.012 86.4729 115.483 80.1484 117.63C75.3167 119.27 69.4307 120.138 63.126 120.138H63.1166C57.384 120.138 52.5304 119.54 48.2796 118.308C43.9247 117.047 40.2034 115.123 36.9023 112.427C34.7824 110.695 33.1576 108.815 31.9389 106.678C30.8197 104.719 30.0385 102.531 29.5506 99.992C28.6118 95.1087 28.8563 89.4339 29.1392 82.8618C29.224 80.8958 29.3114 78.8633 29.3727 76.7366C29.8528 60.1078 29.0565 52.7738 28.047 45.548C27.4593 41.3383 27.6018 35.9651 28.4288 31.1744C28.9489 28.1526 29.7353 25.3388 30.7619 22.8106C31.9296 19.9339 33.4145 17.4228 35.1766 15.3471C37.4536 12.6634 40.8931 10.4581 45.3992 8.79378C49.4586 7.2938 54.318 6.28376 59.4519 5.87392C61.1995 5.73453 62.9522 5.66587 64.6868 5.66587C67.7679 5.66587 70.7897 5.88484 73.6133 6.31861C78.0316 6.99734 81.6604 8.15509 84.1075 9.66704C87.7446 11.9139 90.5526 14.4 92.6923 17.2668C94.6375 19.8725 96.0236 22.7955 96.9296 26.2017C98.66 32.7103 98.4431 40.1665 98.1914 48.7997C98.1102 51.5817 98.0265 54.4589 98.0047 57.4537C97.9662 62.6755 98.3318 67.7627 98.685 72.6829C99.1463 79.1072 99.5822 85.1773 99.1 90.9833ZM104.321 69.6122C103.236 69.8202 101.756 69.2517 100.027 67.9697C99.9135 66.1904 99.8152 64.3924 99.7501 62.5788C100.771 62.7967 102.109 63.1431 103.339 63.6533C104.946 64.3206 105.999 65.1154 106.386 65.9522C106.46 66.1124 106.634 66.491 106.525 67.0964L104.185 65.5174L103.253 66.8988L105.806 68.6203C105.381 69.1768 104.892 69.503 104.321 69.6122Z" fill="black"/>
<path d="M72.9143 40.4681C72.6793 37.5321 69.9872 36.2693 67.77 35.7263L67.6993 35.7081C67.5874 34.128 65.4805 32.8678 62.8977 32.8678C60.3148 32.8678 58.2058 34.129 58.0955 35.7102L58.0248 35.7263C55.8076 36.2693 53.1155 37.5321 52.881 40.4681C52.7197 42.4856 53.5816 43.5123 54.3331 44.0183C55.2173 44.6154 56.3615 44.7668 57.4085 44.6799V48.7076C57.4082 49.3637 57.6071 50.0044 57.9787 50.545C58.3504 51.0857 58.8774 51.5008 59.49 51.7356C60.1027 51.9703 60.7722 52.0136 61.4099 51.8597C62.0477 51.7059 62.6238 51.3621 63.062 50.8738C63.5002 51.3621 64.0763 51.7059 64.7141 51.8597C65.3519 52.0136 66.0213 51.9703 66.634 51.7356C67.2466 51.5008 67.7736 51.0857 68.1453 50.545C68.517 50.0044 68.7158 49.3637 68.7155 48.7076V44.6991C68.7852 44.6991 68.8555 44.7028 68.9262 44.7028C69.8145 44.7028 70.7263 44.514 71.4622 44.0183C72.2138 43.5123 73.0756 42.4856 72.9143 40.4681ZM60.6513 50.2861C60.2328 50.2857 59.8315 50.1192 59.5356 49.8233C59.2397 49.5274 59.0732 49.1261 59.0728 48.7076V44.3273C59.247 44.2657 59.4172 44.1937 59.5825 44.1114C60.8963 43.453 61.6364 43.2668 62.2299 43.2137V48.7065C62.2296 49.1252 62.0632 49.5266 61.7673 49.8228C61.4713 50.1189 61.07 50.2855 60.6513 50.2861ZM67.0533 48.7076C67.0533 49.1262 66.887 49.5277 66.591 49.8238C66.2949 50.1198 65.8934 50.2861 65.4748 50.2861C65.0561 50.2861 64.6546 50.1198 64.3586 49.8238C64.0626 49.5277 63.8963 49.1262 63.8963 48.7076V43.2569C64.4387 43.3479 65.132 43.5689 66.2144 44.1125C66.4838 44.2446 66.7646 44.3523 67.0533 44.4344V48.7076ZM70.5343 42.638C69.9024 43.0639 68.2371 43.2652 66.9607 42.625C64.7846 41.5327 63.7912 41.5296 62.9169 41.5296H62.8826C62.0083 41.5296 61.0144 41.5338 58.8388 42.625C57.5624 43.2652 55.8971 43.0639 55.2651 42.638C54.6993 42.2572 54.4631 41.591 54.5422 40.6007C54.6077 39.7784 54.9786 39.1091 55.676 38.5546C56.3261 38.0376 57.2504 37.6299 58.4227 37.3428L58.6973 37.284C59.5186 38.1957 61.0898 38.8126 62.8997 38.8126C64.7201 38.8126 66.3002 38.1885 67.1167 37.2674L67.3768 37.3428C68.5491 37.6299 69.4728 38.0376 70.1235 38.5546C70.8204 39.1091 71.1912 39.7784 71.2573 40.6007C71.3343 41.591 71.0976 42.2572 70.5323 42.638H70.5343Z" fill="black"/>
</svg>
