<svg width="128" height="128" viewBox="0 0 128 128" fill="none" xmlns="http://www.w3.org/2000/svg">
<path d="M11.2719 54.1229C11.1015 54.1229 10.9311 53.9525 11.1015 53.7821L12.2943 52.0781C12.3754 51.9742 12.4786 51.8897 12.5965 51.8307C12.7145 51.7718 12.844 51.7399 12.9758 51.7373H34.4456C34.616 51.7373 34.7863 51.9077 34.6159 52.0781L33.5936 53.6117C33.5125 53.7156 33.4092 53.8001 33.2913 53.8591C33.1734 53.918 33.0438 53.9499 32.912 53.9525L11.2719 54.1229ZM2.24097 59.5755C2.07058 59.5755 1.90019 59.4051 2.07058 59.2347L3.26334 57.5307C3.34444 57.4268 3.44771 57.3423 3.56562 57.2833C3.68354 57.2244 3.81312 57.1925 3.94492 57.19H31.3784C31.4663 57.1976 31.5485 57.236 31.6109 57.2983C31.6732 57.3606 31.7116 57.4429 31.7192 57.5307L31.2081 59.2347C31.2081 59.4051 30.8673 59.5755 30.6969 59.5755H2.24097ZM16.7245 65.1985C16.5541 65.1985 16.3837 65.0281 16.5541 64.8577L17.4061 63.3241C17.4872 63.2202 17.5905 63.1357 17.7084 63.0767C17.8263 63.0178 17.9559 62.9859 18.0877 62.9834H30.0153C30.1031 62.991 30.1854 63.0294 30.2477 63.0917C30.31 63.154 30.3484 63.2363 30.3561 63.3241L30.1857 64.6873C30.178 64.7751 30.1396 64.8574 30.0773 64.9197C30.015 64.982 29.9327 65.0204 29.8449 65.0281L16.7245 65.1985ZM79.0889 52.9301L69.0357 55.486C68.1837 55.6564 68.0133 55.8268 67.3317 54.8044C66.6047 53.7976 65.5972 53.0271 64.435 52.5893C62.7146 51.7151 60.7865 51.3321 58.8626 51.4824C56.9387 51.6327 55.0935 52.3105 53.5297 53.4413C51.5773 54.6191 49.9777 56.3004 48.8984 58.309C47.8192 60.3176 47.3001 62.5795 47.3955 64.8577C47.3806 67.1487 48.2039 69.3661 49.7104 71.0923C51.2168 72.8185 53.3025 73.9342 55.5745 74.2294C57.4717 74.5096 59.4092 74.2961 61.1999 73.6097C62.9907 72.9232 64.5743 71.7869 65.7982 70.3103C66.3093 69.6287 66.8205 68.9472 67.5021 68.0952H55.9153C54.7225 68.0952 54.3817 67.2432 54.7225 66.2208C55.5745 64.3465 56.9376 61.2794 57.7896 59.7459C57.9299 59.4535 58.1463 59.2042 58.4162 59.0244C58.686 58.8445 58.9993 58.7405 59.3232 58.7235H81.1337C80.9633 60.4274 80.9633 61.961 80.7929 63.6649C80.1946 67.9466 78.4915 71.9986 75.8514 75.4221C73.851 78.1907 71.3093 80.5244 68.3804 82.2817C65.4514 84.0391 62.1962 85.1835 58.812 85.6458C55.9891 86.1294 53.0972 86.0312 50.3137 85.3573C47.5301 84.6834 44.9135 83.4479 42.6245 81.7267C40.5007 80.1582 38.7235 78.1682 37.4041 75.8812C36.0848 73.5943 35.2516 71.0597 34.9567 68.436C34.5862 65.3172 34.8479 62.1557 35.7261 59.1403C36.6044 56.1249 38.0813 53.3174 40.0686 50.8854C44.1096 45.3411 50.1684 41.6079 56.9376 40.4913C59.6387 39.8927 62.4322 39.8405 65.1538 40.338C67.8753 40.8355 70.4697 41.8725 72.7843 43.388C75.942 45.4327 78.384 48.4107 79.7705 51.9077C79.9409 52.5893 79.7705 52.7597 79.0889 52.9301Z" fill="#00ACD7"/>
<path d="M98.8544 86.1566C93.5051 86.1479 88.325 84.2807 84.2005 80.8744C80.6861 77.9436 78.3798 73.8166 77.7255 69.2876C77.23 66.0988 77.4142 62.8412 78.2657 59.7286C79.1173 56.6159 80.6171 53.7183 82.6669 51.2258C86.7371 45.7735 92.8037 42.1581 99.536 41.1725C105.67 40.1502 111.464 40.6614 116.575 44.2396C118.887 45.7312 120.846 47.7078 122.317 50.0323C123.788 52.3567 124.736 54.9734 125.095 57.7008C125.666 61.3794 125.345 65.1413 124.159 68.67C122.973 72.1986 120.956 75.3908 118.279 77.9777C114.391 81.9194 109.402 84.5924 103.966 85.6454C102.092 85.9862 100.388 85.9862 98.8544 86.1566ZM113.168 61.9606C113.203 61.2745 113.146 60.5867 112.997 59.9159C112.791 58.548 112.297 57.2392 111.549 56.0753C110.801 54.9115 109.816 53.9189 108.657 53.1627C107.499 52.4065 106.194 51.9037 104.827 51.6874C103.461 51.471 102.064 51.546 100.729 51.9074C98.1225 52.3666 95.7171 53.6062 93.8307 55.4622C91.9443 57.3181 90.6658 59.703 90.1643 62.3014C89.6599 64.5402 89.9235 66.8835 90.9126 68.9544C91.9016 71.0252 93.5586 72.703 95.6169 73.7178C97.1609 74.3803 98.8322 74.6932 100.511 74.6343C102.19 74.5754 103.836 74.1461 105.329 73.377C107.58 72.4077 109.51 70.8213 110.898 68.801C112.285 66.7808 113.072 64.4093 113.168 61.9606Z" fill="#00ACD7"/>
</svg>
