<svg width="128" height="128" viewBox="0 0 128 128" fill="none" xmlns="http://www.w3.org/2000/svg">
<path d="M78.9625 43.7829H82.3734L92.0944 34.062L92.5719 29.9349C87.0031 25.0197 80.2732 21.6053 73.0179 20.0142C65.7626 18.4231 58.2214 18.7079 51.1068 20.8416C43.9921 22.9753 37.5389 26.8875 32.3566 32.2086C27.1743 37.5297 23.4341 44.0841 21.4893 51.2526C22.5723 50.8088 23.7719 50.7368 24.9002 51.048L44.3421 47.8418C44.3421 47.8418 45.3313 46.2046 45.8429 46.3069C50.0087 41.7318 55.7657 38.9221 61.9355 38.4529C68.1052 37.9837 74.2209 39.8904 79.0307 43.7829H78.9625Z" fill="#EA4335"/>
<path d="M105.942 51.2535C103.708 43.0253 99.1203 35.6282 92.7422 29.9698L79.0988 43.6132C81.9422 45.9365 84.2209 48.8752 85.7631 52.2076C87.3052 55.54 88.0705 59.1791 88.0011 62.8503V65.272C89.5957 65.272 91.1747 65.5861 92.6479 66.1963C94.1212 66.8066 95.4598 67.701 96.5873 68.8285C97.7149 69.9561 98.6093 71.2946 99.2195 72.7679C99.8298 74.2411 100.144 75.82 100.144 77.4146C100.144 79.0092 99.8298 80.5882 99.2195 82.0614C98.6093 83.5346 97.7149 84.8732 96.5873 86.0007C95.4598 87.1283 94.1212 88.0227 92.6479 88.6329C91.1747 89.2431 89.5957 89.5572 88.0011 89.5572H63.7157L61.294 92.013V106.577L63.7157 108.999H88.0011C94.7828 109.052 101.401 106.92 106.878 102.92C112.354 98.9198 116.397 93.2631 118.409 86.7867C120.422 80.3103 120.296 73.3583 118.051 66.959C115.805 60.5596 111.56 55.053 105.942 51.2535Z" fill="#4285F4"/>
<path d="M39.3965 108.862H63.6819V89.4198H39.3965C37.6662 89.4195 35.9563 89.0472 34.3825 88.3284L30.9716 89.3857L21.1824 99.1066L20.3297 102.517C25.8192 106.663 32.5177 108.891 39.3965 108.862Z" fill="#34A853"/>
<path d="M39.396 45.7945C32.8158 45.8338 26.4122 47.9273 21.0796 51.7826C15.747 55.6379 11.7516 61.0624 9.65162 67.2986C7.55159 73.5347 7.45176 80.271 9.36606 86.5667C11.2804 92.8623 15.1132 98.4029 20.3292 102.414L34.4161 88.3277C32.626 87.5189 31.0588 86.2879 29.849 84.7403C28.6392 83.1927 27.8229 81.3747 27.4702 79.4422C27.1175 77.5098 27.2389 75.5206 27.824 73.6454C28.4091 71.7702 29.4404 70.065 30.8294 68.676C32.2184 67.2869 33.9237 66.2557 35.7989 65.6706C37.6742 65.0855 39.6633 64.9641 41.5958 65.3168C43.5282 65.6695 45.3463 66.4857 46.8939 67.6955C48.4415 68.9053 49.6726 70.4725 50.4813 72.2626L64.5682 58.1759C61.6115 54.3106 57.8007 51.1816 53.4339 49.0337C49.067 46.8858 44.2625 45.7772 39.396 45.7945Z" fill="#FBBC05"/>
</svg>
