<svg width="128" height="128" viewBox="0 0 128 128" fill="none" xmlns="http://www.w3.org/2000/svg">
<path d="M16.8155 75.0348C8.18542 75.0632 1.13632 68.1485 1 59.5184C1.13632 50.8902 8.18542 43.9736 16.8155 44.002C20.8068 43.9358 24.6579 45.4789 27.498 48.2849L24.4818 51.2689C22.4256 49.2884 19.6707 48.1978 16.8155 48.2357C10.6582 48.2167 5.65017 53.1926 5.63124 59.3518C5.63124 59.4086 5.63124 59.4635 5.63124 59.5203C5.55739 65.6776 10.4897 70.7292 16.647 70.803C16.7038 70.803 16.7587 70.803 16.8155 70.803C19.7597 70.9242 22.6188 69.792 24.6825 67.6865C26.042 66.2191 26.8599 64.3314 26.9982 62.3377H16.8155V58.1211H31.1485C31.3056 58.9958 31.3776 59.8819 31.3643 60.7718C31.4779 64.4299 30.1488 67.9838 27.6646 70.6705C24.8378 73.6071 20.8882 75.1976 16.8155 75.0366" fill="#4285F4"/>
<path d="M53.5322 65.034C53.7556 70.4964 49.5106 75.1069 44.0463 75.3322C38.5839 75.5556 33.9735 71.3106 33.7481 65.8463C33.7368 65.5755 33.7368 65.3048 33.7481 65.034C33.5247 59.5716 37.7697 54.9612 43.234 54.7358C48.6965 54.5124 53.3069 58.7574 53.5322 64.2217C53.5436 64.4925 53.5436 64.7632 53.5322 65.034ZM49.1982 65.034C49.4898 61.9648 47.2367 59.2402 44.1675 58.9486C41.0983 58.6571 38.3737 60.9102 38.0821 63.9794C38.048 64.3297 38.048 64.6837 38.0821 65.034C37.7905 68.1032 40.0418 70.8278 43.1129 71.1194C46.182 71.411 48.9066 69.1578 49.1982 66.0886C49.2323 65.7383 49.2323 65.3843 49.1982 65.0321" fill="#EA4335"/>
<path d="M75.7131 65.034C75.9365 70.4964 71.6915 75.1069 66.2272 75.3322C60.7648 75.5556 56.1544 71.3106 55.9291 65.8463C55.9177 65.5755 55.9177 65.3048 55.9291 65.034C55.7056 59.5716 59.9506 54.9612 65.4149 54.7358C70.8774 54.5124 75.4878 58.7574 75.7131 64.2217C75.7245 64.4925 75.7245 64.7632 75.7131 65.034ZM71.381 65.034C71.6196 61.9591 69.3191 59.2743 66.2461 59.0376C63.1713 58.7991 60.4864 61.0976 60.2479 64.1725C60.2252 64.4603 60.2252 64.7481 60.2479 65.034C60.0093 68.1089 62.3098 70.7937 65.3828 71.0323C68.4576 71.2708 71.1425 68.9704 71.381 65.8974C71.4037 65.6096 71.4037 65.3218 71.381 65.0359" fill="#FBBC04"/>
<path d="M97.3304 55.6671V73.5994C97.3304 80.9666 92.9472 83.9999 87.7801 83.9999C83.8911 84.0207 80.375 81.6899 78.8811 78.1L82.7304 76.4339C83.5237 78.5242 85.4967 79.931 87.7309 80.001C91.0632 80.001 93.0967 77.9505 93.0967 74.1353V72.702H92.9964C91.6464 74.2243 89.6981 75.0782 87.6627 75.0346C82.1397 75.0346 77.6637 70.5568 77.6637 65.0356C77.6637 59.5145 82.1416 55.0366 87.6627 55.0366C89.6886 54.9988 91.6312 55.8375 92.9964 57.3371H93.146V55.6709H97.3285L97.3304 55.6671ZM93.447 65.1C93.6988 61.9892 91.3813 59.2646 88.2724 59.0128C88.208 59.0071 88.1455 59.0033 88.0811 58.9995C84.8794 59.115 82.3782 61.8036 82.4937 65.0034C82.4937 65.0356 82.4956 65.0678 82.4975 65.0981C82.3498 68.2695 84.7999 70.9619 87.9713 71.1096C88.0073 71.1115 88.0433 71.1134 88.0792 71.1134C91.1598 71.0036 93.5701 68.4172 93.4603 65.3367C93.4565 65.2515 93.4527 65.1663 93.4451 65.0811V65.0981L93.447 65.1Z" fill="#4285F4"/>
<path d="M105.046 45.0685H100.645V74.4331H105.046V45.0685Z" fill="#34A853"/>
<path d="M122.378 68.3344L125.811 70.667C123.949 73.4447 120.822 75.1089 117.478 75.0995C112.131 75.1752 107.734 70.9037 107.657 65.5568C107.655 65.4053 107.657 65.2519 107.661 65.1005C107.221 60.0394 110.97 55.5786 116.031 55.1412C120.297 54.772 124.254 57.3944 125.576 61.4671L126.027 62.6163L112.693 68.1318C113.543 70.0422 115.471 71.2426 117.559 71.165C119.547 71.1196 121.371 70.0479 122.376 68.3325M111.862 64.7351L120.829 61.0354C120.096 59.6797 118.633 58.8826 117.095 59.0019C114.07 59.1363 111.728 61.6981 111.862 64.7237C111.862 64.7275 111.862 64.7313 111.862 64.7351Z" fill="#EA4335"/>
</svg>
