<svg width="128" height="128" viewBox="0 0 128 128" fill="none" xmlns="http://www.w3.org/2000/svg">
<path d="M73.9428 35.9408H76.2744L82.9193 29.2959L83.2457 26.4747C79.4391 23.1149 74.8388 20.7809 69.8793 19.6933C64.9199 18.6057 59.7651 18.8003 54.9018 20.2588C50.0385 21.7174 45.6273 24.3916 42.0849 28.029C38.5425 31.6663 35.9858 36.1467 34.6564 41.0468C35.3967 40.7434 36.2167 40.6942 36.988 40.9069L50.2777 38.7153C50.2777 38.7153 50.9539 37.5961 51.3036 37.6661C54.1512 34.5387 58.0865 32.6181 62.3038 32.2973C66.5212 31.9766 70.7017 33.28 73.9895 35.9408H73.9428Z" fill="#EA4335"/>
<path d="M92.3852 41.0474C90.8578 35.4229 87.7219 30.3665 83.3621 26.4987L74.036 35.8248C75.9796 37.413 77.5373 39.4217 78.5914 41.6997C79.6456 43.9776 80.1687 46.4651 80.1213 48.9747V50.63C81.2113 50.63 82.2906 50.8447 83.2977 51.2619C84.3047 51.679 85.2197 52.2904 85.9905 53.0611C86.7612 53.8319 87.3726 54.7469 87.7898 55.7539C88.2069 56.761 88.4216 57.8403 88.4216 58.9303C88.4216 60.0203 88.2069 61.0996 87.7898 62.1067C87.3726 63.1137 86.7612 64.0287 85.9905 64.7995C85.2197 65.5702 84.3047 66.1816 83.2977 66.5987C82.2906 67.0159 81.2113 67.2306 80.1213 67.2306H63.5207L61.8654 68.9093V78.8649L63.5207 80.5203H80.1213C84.7569 80.5564 89.2811 79.0995 93.0245 76.365C96.7679 73.6305 99.5318 69.7638 100.907 65.3367C102.283 60.9097 102.197 56.1575 100.662 51.7832C99.1271 47.4088 96.2251 43.6446 92.3852 41.0474Z" fill="#4285F4"/>
<path d="M46.8971 80.4265H63.4976V67.1367H46.8971C45.7144 67.1365 44.5455 66.882 43.4697 66.3906L41.1382 67.1134L34.4467 73.7583L33.8638 76.0898C37.6163 78.9233 42.195 80.4469 46.8971 80.4265Z" fill="#34A853"/>
<path d="M46.8967 37.3158C42.3987 37.3427 38.0215 38.7737 34.3763 41.4091C30.7311 44.0444 28.0001 47.7524 26.5646 52.0153C25.1291 56.2781 25.0609 60.8828 26.3694 65.1863C27.6779 69.4898 30.2979 73.2771 33.8634 76.0193L43.4926 66.3901C42.269 65.8372 41.1977 64.9957 40.3707 63.9378C39.5437 62.8799 38.9858 61.6372 38.7447 60.3163C38.5036 58.9953 38.5866 57.6356 38.9865 56.3538C39.3865 55.0719 40.0914 53.9063 41.0409 52.9568C41.9904 52.0073 43.156 51.3024 44.4379 50.9024C45.7197 50.5025 47.0794 50.4195 48.4004 50.6606C49.7213 50.9017 50.964 51.4596 52.0219 52.2866C53.0798 53.1136 53.9213 54.1849 54.4742 55.4085L64.1034 45.7793C62.0823 43.1371 59.4774 40.9982 56.4924 39.53C53.5074 38.0618 50.2232 37.304 46.8967 37.3158Z" fill="#FBBC05"/>
<path d="M49.5035 94.8284C50.0623 94.8275 50.6151 94.9497 51.1207 95.1878C51.558 95.3788 51.9484 95.6642 52.2632 96.0228H52.3423V95.1878H54.522V104.548C54.5793 105.288 54.4848 106.032 54.2447 106.735C54.0044 107.437 53.6232 108.084 53.1246 108.634C52.6496 109.089 52.0885 109.443 51.4742 109.677C50.8598 109.911 50.2044 110.02 49.5474 109.996C48.4943 110.03 47.4617 109.701 46.6216 109.065C45.8757 108.504 45.288 107.759 44.9166 106.903L46.9205 106.068C47.1385 106.579 47.4798 107.029 47.9136 107.377C48.3779 107.752 48.9601 107.948 49.5562 107.931C49.9342 107.954 50.3133 107.896 50.6666 107.759C51.0199 107.623 51.3396 107.411 51.6041 107.14C52.1334 106.501 52.3949 105.683 52.3335 104.856V104.1H52.2544C51.9196 104.498 51.4964 104.812 51.0191 105.018C50.5417 105.224 50.0225 105.316 49.5035 105.286C48.844 105.288 48.1913 105.153 47.5865 104.89C46.9815 104.627 46.4372 104.241 45.9888 103.757C45.5023 103.277 45.1182 102.703 44.8599 102.07C44.6016 101.437 44.4743 100.758 44.4859 100.075C44.4738 99.387 44.6007 98.704 44.8589 98.0667C45.1172 97.4295 45.5016 96.8506 45.9888 96.3656C46.4361 95.8796 46.9795 95.4916 47.5845 95.2269C48.1895 94.9622 48.8431 94.8271 49.5035 94.8284ZM105.125 100.927C105.125 102.737 105.925 103.643 107.524 103.643C107.879 103.654 108.232 103.58 108.553 103.427C108.874 103.274 109.154 103.047 109.37 102.764C109.841 102.166 110.093 101.424 110.082 100.663V95.2845H111.901V104.987H110.143V103.643H110.09C109.778 104.153 109.334 104.571 108.807 104.855C108.26 105.172 107.638 105.339 107.005 105.338C106.492 105.373 105.976 105.293 105.499 105.101C105.021 104.909 104.592 104.611 104.246 104.231C103.58 103.389 103.245 102.333 103.305 101.261V95.2845H105.125V100.927ZM13.2349 89.0365C14.2643 89.0228 15.2859 89.2143 16.2408 89.599C17.1957 89.9837 18.0649 90.5542 18.7974 91.2777L17.2339 92.8685C16.1627 91.8332 14.7245 91.2643 13.2349 91.2865C12.4622 91.277 11.696 91.4282 10.9849 91.7308C10.2738 92.0334 9.63301 92.4809 9.10406 93.0443C8.55456 93.5895 8.12109 94.2402 7.82965 94.9574C7.53819 95.6747 7.39426 96.4439 7.40777 97.2181C7.40132 97.9834 7.54818 98.7427 7.83941 99.4505C8.13068 100.158 8.56079 100.801 9.10406 101.34C10.1924 102.425 11.6615 103.042 13.1978 103.06C14.7339 103.078 16.2162 102.495 17.3296 101.437C18.019 100.682 18.442 99.7216 18.5337 98.7034H13.2613V96.4534H20.7222C20.7955 96.9065 20.825 97.3659 20.8101 97.8245C20.8565 98.774 20.7103 99.7234 20.3794 100.615C20.0486 101.506 19.54 102.321 18.8853 103.01C18.1575 103.768 17.2778 104.364 16.3043 104.759C15.3308 105.154 14.2849 105.34 13.2349 105.304C12.1576 105.318 11.088 105.114 10.0914 104.704C9.09483 104.295 8.19087 103.689 7.43414 102.922C6.6536 102.188 6.03482 101.299 5.61578 100.313C5.19671 99.3264 4.98714 98.2634 5.00054 97.1917C4.98772 96.1203 5.19682 95.0578 5.61578 94.0716C6.03476 93.0854 6.65406 92.1968 7.43414 91.4622C8.18717 90.6875 9.08976 90.0734 10.0865 89.6566C11.0833 89.2397 12.1545 89.0284 13.2349 89.0365ZM26.8609 94.847C28.2472 94.847 29.5803 95.3815 30.5826 96.3392C31.0805 96.8227 31.4732 97.4044 31.7349 98.0472C31.9639 98.6098 32.088 99.209 32.1031 99.8148V100.334C32.0874 100.941 31.9614 101.54 31.731 102.103C31.4678 102.746 31.0737 103.327 30.5738 103.81H30.5826C29.5813 104.77 28.2478 105.305 26.8609 105.305C25.4739 105.305 24.1405 104.77 23.1392 103.81C22.6409 103.327 22.2486 102.745 21.9869 102.102C21.7578 101.539 21.6334 100.94 21.6187 100.334V99.8148C21.6338 99.209 21.7579 98.6098 21.9869 98.0472C22.2486 97.4044 22.6413 96.8227 23.1392 96.3392C24.1415 95.3815 25.4746 94.847 26.8609 94.847ZM38.3033 94.8441C39.6902 94.8441 41.0237 95.3795 42.025 96.3392C42.5228 96.8227 42.9156 97.4044 43.1773 98.0472C43.439 98.6901 43.5641 99.3807 43.5455 100.075C43.5647 100.768 43.439 101.459 43.1773 102.102C42.9156 102.745 42.5233 103.327 42.025 103.81C41.0237 104.77 39.6902 105.305 38.3033 105.305C36.9163 105.305 35.5829 104.77 34.5816 103.81C34.0833 103.327 33.691 102.745 33.4293 102.102C33.2002 101.539 33.0757 100.94 33.0611 100.334V99.8148C33.0762 99.209 33.2003 98.6098 33.4293 98.0472C33.6909 97.4044 34.0837 96.8227 34.5816 96.3392C35.5829 95.3795 36.9163 94.8441 38.3033 94.8441ZM96.8287 94.9671C98.1721 94.9671 99.4614 95.498 100.415 96.4447C100.881 96.9367 101.245 97.5164 101.486 98.1497C101.727 98.7832 101.84 99.4585 101.82 100.136C101.84 100.814 101.727 101.489 101.486 102.122C101.245 102.756 100.881 103.335 100.415 103.827C99.4614 104.774 98.1721 105.305 96.8287 105.305C95.4853 105.305 94.196 104.774 93.2427 103.827C92.7767 103.335 92.4128 102.756 92.1714 102.122C91.9301 101.489 91.816 100.814 91.8365 100.136C91.8159 99.4585 91.9301 98.7832 92.1714 98.1497C92.4128 97.5164 92.7767 96.9367 93.2427 96.4447C94.196 95.498 95.4852 94.9671 96.8287 94.9671ZM64.4527 94.846C65.0557 94.8397 65.654 94.9554 66.2105 95.1878C66.7117 95.3901 67.1687 95.6888 67.5552 96.0667C67.8871 96.3871 68.182 96.7439 68.4341 97.1302C68.6381 97.4563 68.8117 97.8007 68.9527 98.1585L69.19 98.7562L62.1587 101.648C62.3714 102.136 62.7274 102.549 63.1793 102.831C63.631 103.114 64.1578 103.253 64.69 103.23C65.2078 103.231 65.7173 103.098 66.1685 102.844C66.6198 102.59 66.9979 102.223 67.2652 101.78L69.023 102.966C68.5745 103.608 68.0003 104.152 67.3355 104.566C66.5449 105.065 65.625 105.322 64.69 105.304C64.0031 105.322 63.3198 105.196 62.6832 104.938C62.0466 104.679 61.4698 104.293 60.9898 103.801C60.5027 103.313 60.1201 102.731 59.8648 102.09C59.6095 101.45 59.4876 100.764 59.5054 100.075C59.4794 99.3835 59.5923 98.6944 59.8384 98.0482C60.0845 97.4019 60.458 96.8115 60.9371 96.3128C61.3885 95.8369 61.9352 95.4611 62.5406 95.2083C63.1458 94.9557 63.797 94.8324 64.4527 94.846ZM81.2027 90.4866C82.1899 90.4558 83.1715 90.6485 84.0738 91.0501C84.9762 91.4519 85.7768 92.0526 86.4146 92.807L85.149 94.0374C84.6808 93.4486 84.0801 92.9784 83.396 92.6654C82.7119 92.3523 81.9632 92.205 81.2115 92.2357C80.4879 92.2194 79.7683 92.3497 79.0962 92.6185C78.4243 92.8873 77.814 93.2894 77.3013 93.8001C76.7683 94.3361 76.3514 94.9764 76.0777 95.681C75.804 96.3856 75.6791 97.1396 75.7105 97.8949C75.679 98.6502 75.804 99.404 76.0777 100.109C76.3514 100.813 76.7682 101.454 77.3013 101.991C77.814 102.501 78.4244 102.903 79.0962 103.172C79.7683 103.441 80.4879 103.571 81.2115 103.555C82.0512 103.564 82.8825 103.385 83.6431 103.029C84.4039 102.673 85.0752 102.149 85.606 101.498L86.8716 102.764C86.209 103.556 85.3769 104.19 84.4371 104.618C83.424 105.086 82.3184 105.321 81.2027 105.304C80.2273 105.321 79.258 105.14 78.3541 104.773C77.4503 104.406 76.6296 103.86 75.9419 103.168C75.2542 102.476 74.7136 101.653 74.3521 100.746C73.9906 99.8403 73.8158 98.8702 73.8384 97.8949C73.8158 96.9196 73.9906 95.9494 74.3521 95.0433C74.7136 94.1373 75.2542 93.3132 75.9419 92.6214C76.6297 91.9296 77.4502 91.3838 78.3541 91.0169C79.258 90.65 80.2273 90.4698 81.2027 90.4866ZM123.203 104.987H121.445V103.642H121.366C121.04 104.148 120.585 104.558 120.047 104.828C119.441 105.148 118.764 105.311 118.079 105.303C117.462 105.305 116.851 105.174 116.29 104.917C115.728 104.661 115.229 104.285 114.827 103.818C113.973 102.874 113.491 101.656 113.464 100.39V99.8822C113.491 98.6154 113.973 97.3969 114.827 96.4534C115.229 95.9858 115.728 95.6112 116.29 95.3548C116.851 95.0984 117.462 94.966 118.079 94.9681C118.77 94.9572 119.453 95.1204 120.065 95.4427C120.603 95.7132 121.058 96.123 121.383 96.6292H121.462L121.383 95.2845V90.7943H123.203V104.987ZM58.398 104.988H56.1041V89.6253H58.398V104.988ZM90.273 104.987H88.4537V90.7943H90.273V104.987ZM96.8238 96.6283C96.407 96.6283 95.9947 96.7135 95.6119 96.8783C95.2288 97.0431 94.8829 97.2843 94.5962 97.5872C94.2783 97.9284 94.0311 98.3294 93.8697 98.7669C93.7082 99.2045 93.6357 99.6701 93.6558 100.136C93.638 100.601 93.7126 101.065 93.8755 101.501C94.0385 101.937 94.2866 102.337 94.605 102.676L94.5962 102.685C94.8829 102.988 95.2289 103.229 95.6119 103.394C95.9947 103.559 96.407 103.644 96.8238 103.644C97.2407 103.644 97.6537 103.559 98.0367 103.394C98.4197 103.229 98.7657 102.988 99.0523 102.685C99.3701 102.344 99.6164 101.943 99.7779 101.505C99.9393 101.068 100.013 100.602 99.9927 100.136C100.013 99.6701 99.9393 99.2045 99.7779 98.7669C99.6164 98.3295 99.3702 97.9283 99.0523 97.5872C98.7657 97.2843 98.4197 97.0431 98.0367 96.8783C97.6537 96.7134 97.2407 96.6283 96.8238 96.6283ZM118.369 96.6068C117.955 96.6068 117.546 96.6934 117.168 96.8607C116.789 97.0279 116.45 97.2725 116.171 97.5784C115.865 97.9245 115.629 98.3277 115.478 98.765C115.327 99.2023 115.264 99.6655 115.293 100.127C115.264 100.589 115.327 101.051 115.478 101.489C115.629 101.926 115.864 102.33 116.171 102.676C116.448 102.986 116.789 103.232 117.169 103.399C117.55 103.566 117.962 103.648 118.377 103.642C118.789 103.648 119.197 103.567 119.574 103.404C119.951 103.24 120.289 102.998 120.566 102.694C121.184 101.99 121.5 101.071 121.445 100.136C121.5 99.2012 121.184 98.2821 120.566 97.5784C120.288 97.2725 119.948 97.0279 119.57 96.8607C119.192 96.6934 118.782 96.6068 118.369 96.6068ZM49.7056 96.9456C49.3204 96.9378 48.9379 97.0121 48.5835 97.1634C48.2291 97.3149 47.9106 97.5406 47.65 97.8245C47.105 98.3995 46.7928 99.1545 46.771 99.9427V100.256C46.7811 100.618 46.8539 100.976 46.9859 101.314C47.1367 101.7 47.3626 102.052 47.65 102.351C47.9094 102.638 48.2271 102.866 48.5816 103.021C48.9359 103.175 49.3192 103.252 49.7056 103.247C50.0809 103.256 50.4542 103.181 50.7974 103.029C51.1404 102.877 51.4458 102.652 51.6919 102.368C52.2342 101.747 52.5201 100.943 52.4918 100.118C52.5243 99.2804 52.2385 98.4607 51.6919 97.8245C51.4461 97.5409 51.1406 97.3153 50.7974 97.1634C50.4541 97.0115 50.081 96.9368 49.7056 96.9456ZM26.8521 96.9075C26.4622 96.9076 26.076 96.9869 25.7173 97.14C25.3588 97.293 25.035 97.5168 24.7652 97.7982C24.4741 98.0997 24.2462 98.457 24.0953 98.848C23.9444 99.2388 23.8733 99.6558 23.8863 100.075C23.8752 100.493 23.9477 100.909 24.1002 101.298C24.2526 101.688 24.482 102.043 24.774 102.342H24.7828C25.049 102.626 25.3707 102.853 25.7281 103.008C26.0856 103.163 26.4713 103.243 26.8609 103.243C27.2506 103.243 27.6362 103.163 27.9937 103.008C28.3511 102.853 28.6727 102.626 28.939 102.342C29.2294 102.042 29.457 101.687 29.608 101.297C29.7589 100.908 29.8302 100.492 29.8179 100.075C29.8309 99.6558 29.7598 99.2388 29.6089 98.848C29.458 98.457 29.2301 98.0997 28.939 97.7982C28.6692 97.5168 28.3454 97.2929 27.9869 97.14C27.6282 96.9869 27.2421 96.9075 26.8521 96.9075ZM38.2945 96.9075C37.9045 96.9076 37.5184 96.9869 37.1597 97.14C36.8012 97.293 36.4773 97.5168 36.2076 97.7982C35.9165 98.0997 35.6886 98.457 35.5377 98.848C35.3868 99.2388 35.3157 99.6558 35.3287 100.075C35.3176 100.493 35.3901 100.909 35.5425 101.298C35.695 101.688 35.9244 102.043 36.2164 102.342H36.2252C36.4914 102.626 36.8131 102.853 37.1705 103.008C37.528 103.163 37.9136 103.243 38.3033 103.243C38.6929 103.243 39.0786 103.163 39.4361 103.008C39.7935 102.853 40.1151 102.626 40.3814 102.342C40.6718 102.042 40.8994 101.687 41.0503 101.297C41.2013 100.908 41.2726 100.492 41.2603 100.075C41.2733 99.6558 41.2022 99.2388 41.0513 98.848C40.9004 98.457 40.6725 98.0997 40.3814 97.7982C40.1116 97.5168 39.7878 97.2929 39.4293 97.14C39.0706 96.9869 38.6845 96.9075 38.2945 96.9075ZM64.4966 96.8665C63.7815 96.8851 63.1022 97.1852 62.607 97.7015C62.3106 97.9851 62.0805 98.3314 61.9332 98.7142C61.7859 99.0969 61.7248 99.5074 61.7544 99.9163L66.4302 97.974C66.2862 97.6316 66.0285 97.349 65.7007 97.1741C65.3337 96.9669 64.9181 96.8607 64.4966 96.8665Z" fill="#5F6368"/>
</svg>
