<svg width="128" height="128" viewBox="0 0 128 128" fill="none" xmlns="http://www.w3.org/2000/svg">
<path d="M112.96 65.1588C112.96 61.5425 112.635 58.0652 112.033 54.7271H64V74.4779H91.4473C90.2418 80.8297 86.6255 86.2079 81.2009 89.8242V102.667H97.7527C107.396 93.7651 112.96 80.6906 112.96 65.1588Z" fill="#4285F4"/>
<path d="M64.0001 115C77.7701 115 89.3147 110.456 97.7529 102.667L81.201 89.8247C76.6574 92.8847 70.8619 94.7392 64.0001 94.7392C50.7401 94.7392 39.4738 85.7911 35.4401 73.7366H18.471V86.9038C26.8629 103.548 44.0638 115 64.0001 115Z" fill="#34A853"/>
<path d="M35.44 73.6892C34.42 70.6292 33.8173 67.3837 33.8173 63.9992C33.8173 60.6146 34.42 57.3692 35.44 54.3092V41.142H18.4709C14.9936 48.0038 13 55.7465 13 63.9992C13 72.2519 14.9936 79.9946 18.4709 86.8564L31.6845 76.5637L35.44 73.6892Z" fill="#FBBC05"/>
<path d="M64.0001 33.3072C71.511 33.3072 78.1874 35.9036 83.5192 40.9108L98.1237 26.3063C89.2683 18.0536 77.7701 13 64.0001 13C44.0638 13 26.8629 24.4518 18.471 41.1427L35.4401 54.3099C39.4738 42.2554 50.7401 33.3072 64.0001 33.3072Z" fill="#EA4335"/>
</svg>
