<svg width="128" height="128" viewBox="0 0 128 128" fill="none" xmlns="http://www.w3.org/2000/svg">
<path d="M17.2656 59.9821H17.9513L19.9055 58.0279L20.0015 57.1982C18.882 56.2101 17.5291 55.5237 16.0705 55.2039C14.612 54.884 13.096 54.9413 11.6658 55.3702C10.2355 55.7991 8.93822 56.5856 7.89643 57.6553C6.85465 58.725 6.10276 60.0427 5.71179 61.4837C5.9295 61.3945 6.17066 61.38 6.39748 61.4426L10.3059 60.7981C10.3059 60.7981 10.5047 60.4689 10.6076 60.4895C11.445 59.5698 12.6024 59.0049 13.8426 58.9106C15.0829 58.8163 16.3124 59.1996 17.2793 59.9821H17.2656Z" fill="#EA4335"/>
<path d="M22.6892 61.4838C22.2401 59.8297 21.3178 58.3427 20.0356 57.2052L17.2929 59.9479C17.8645 60.415 18.3226 61.0057 18.6326 61.6757C18.9426 62.3456 19.0965 63.0771 19.0825 63.8152V64.302C19.4031 64.302 19.7205 64.3651 20.0167 64.4878C20.3128 64.6105 20.5819 64.7903 20.8086 65.0169C21.0353 65.2436 21.2151 65.5127 21.3378 65.8089C21.4604 66.105 21.5236 66.4224 21.5236 66.743C21.5236 67.0636 21.4604 67.381 21.3378 67.6771C21.2151 67.9733 21.0353 68.2424 20.8086 68.4691C20.5819 68.6957 20.3128 68.8755 20.0167 68.9982C19.7205 69.1209 19.4031 69.184 19.0825 69.184H14.2005L13.7136 69.6777V72.6056L14.2005 73.0924H19.0825C20.4458 73.103 21.7763 72.6745 22.8773 71.8704C23.9782 71.0662 24.791 69.929 25.1955 68.6271C25.6 67.3251 25.5747 65.9276 25.1233 64.6411C24.672 63.3547 23.8185 62.2477 22.6892 61.4838Z" fill="#4285F4"/>
<path d="M9.31167 73.0648H14.1937V69.1564H9.31167C8.96385 69.1564 8.6201 69.0815 8.30372 68.937L7.61803 69.1496L5.65012 71.1038L5.4787 71.7894C6.58226 72.6228 7.92884 73.0708 9.31167 73.0648Z" fill="#34A853"/>
<path d="M9.31151 60.3865C7.9887 60.3944 6.70139 60.8153 5.62938 61.5903C4.55737 62.3653 3.75419 63.4558 3.33202 64.7095C2.90986 65.9631 2.88979 67.3173 3.27462 68.5829C3.65945 69.8485 4.42996 70.9624 5.47853 71.7688L8.31041 68.9369C7.95054 68.7744 7.63548 68.5269 7.39228 68.2158C7.14908 67.9047 6.98498 67.5392 6.91408 67.1507C6.84318 66.7622 6.86758 66.3623 6.9852 65.9854C7.10282 65.6084 7.31014 65.2656 7.58937 64.9864C7.86861 64.7071 8.21142 64.4998 8.58839 64.3822C8.96537 64.2646 9.36525 64.2402 9.75373 64.3111C10.1422 64.382 10.5077 64.5461 10.8188 64.7893C11.1299 65.0325 11.3774 65.3475 11.54 65.7074L14.3719 62.8755C13.7775 62.0985 13.0114 61.4695 12.1335 61.0377C11.2557 60.6059 10.2898 60.383 9.31151 60.3865Z" fill="#FBBC05"/>
<path d="M38.4806 70.336C37.64 70.3467 36.806 70.1877 36.0283 69.8684C35.2507 69.5491 34.5455 69.0761 33.9551 68.4778C33.346 67.9049 32.8626 67.2117 32.5357 66.4421C32.2087 65.6725 32.0453 64.8433 32.0557 64.0072C32.0457 63.1711 32.2093 62.3421 32.5362 61.5726C32.8632 60.803 33.3463 60.1097 33.9551 59.5366C34.5426 58.9321 35.2465 58.4528 36.0243 58.1275C36.802 57.8023 37.6376 57.6378 38.4806 57.6441C39.2838 57.6334 40.0812 57.7825 40.8263 58.0826C41.5714 58.3828 42.2494 58.8281 42.821 59.3926L41.6004 60.6337C40.7646 59.8259 39.6428 59.3821 38.4806 59.3994C37.8777 59.392 37.2798 59.5101 36.725 59.7462C36.1702 59.9823 35.6706 60.3312 35.2579 60.7708C34.8289 61.1963 34.4906 61.7042 34.2631 62.264C34.0357 62.8237 33.9239 63.4237 33.9345 64.0278C33.9295 64.625 34.0439 65.2171 34.2712 65.7694C34.4985 66.3217 34.834 66.8229 35.2579 67.2436C36.107 68.0898 37.2528 68.5712 38.4515 68.5853C39.6502 68.5994 40.8071 68.145 41.6759 67.319C42.2137 66.73 42.5437 65.981 42.6153 65.1866H38.5011V63.4312H44.3226C44.3798 63.7847 44.4028 64.143 44.3912 64.5009C44.4274 65.2417 44.313 65.9822 44.0549 66.6775C43.7968 67.3729 43.4003 68.0086 42.8895 68.5464C42.3216 69.1377 41.6354 69.6027 40.8758 69.911C40.1161 70.2194 39.3 70.3642 38.4806 70.336ZM52.016 69.1704C51.2347 69.9193 50.1943 70.3374 49.1121 70.3374C48.0299 70.3374 46.9895 69.9193 46.2082 69.1704C45.8194 68.7933 45.5131 68.3396 45.3089 67.8379C45.1047 67.3363 45.007 66.7977 45.022 66.2562C45.0074 65.7149 45.1053 65.1764 45.3095 64.6748C45.5137 64.1732 45.8197 63.7194 46.2082 63.3421C46.9903 62.5948 48.0304 62.1777 49.1121 62.1777C50.1938 62.1777 51.2339 62.5948 52.016 63.3421C52.4045 63.7194 52.7105 64.1732 52.9147 64.6748C53.1189 65.1764 53.2168 65.7149 53.2022 66.2562C53.2163 66.7982 53.1175 67.3371 52.9121 67.8388C52.7067 68.3405 52.3992 68.7939 52.0091 69.1704H52.016ZM47.4905 68.0253C47.6983 68.2472 47.9494 68.4241 48.2284 68.5451C48.5073 68.666 48.8081 68.7284 49.1121 68.7284C49.4161 68.7284 49.7169 68.666 49.9959 68.5451C50.2748 68.4241 50.5259 68.2472 50.7338 68.0253C50.9603 67.7911 51.1377 67.5139 51.2555 67.2101C51.3733 66.9063 51.429 66.5819 51.4194 66.2562C51.4295 65.9294 51.3741 65.6039 51.2563 65.2989C51.1385 64.9939 50.9609 64.7155 50.7338 64.4803C50.5232 64.2607 50.2704 64.0859 49.9905 63.9665C49.7106 63.8471 49.4095 63.7855 49.1053 63.7855C48.801 63.7855 48.4999 63.8471 48.22 63.9665C47.9401 64.0859 47.6873 64.2607 47.4768 64.4803C47.2497 64.7155 47.072 64.9939 46.9542 65.2989C46.8364 65.6039 46.781 65.9294 46.7911 66.2562C46.7824 66.5824 46.8392 66.907 46.9582 67.2109C47.0771 67.5147 47.2558 67.7917 47.4836 68.0253H47.4905ZM60.9436 69.1704C60.1623 69.9193 59.1219 70.3374 58.0397 70.3374C56.9575 70.3374 55.9171 69.9193 55.1358 69.1704C54.747 68.7933 54.4407 68.3396 54.2365 67.8379C54.0323 67.3363 53.9346 66.7977 53.9496 66.2562C53.935 65.7149 54.0329 65.1764 54.2371 64.6748C54.4413 64.1732 54.7473 63.7194 55.1358 63.3421C55.9171 62.5932 56.9575 62.1751 58.0397 62.1751C59.1219 62.1751 60.1623 62.5932 60.9436 63.3421C61.3321 63.7194 61.6381 64.1732 61.8423 64.6748C62.0465 65.1764 62.1444 65.7149 62.1298 66.2562C62.1448 66.7977 62.0471 67.3363 61.8429 67.8379C61.6387 68.3396 61.3325 68.7933 60.9436 69.1704ZM56.4181 68.0253C56.6259 68.2472 56.877 68.4241 57.156 68.5451C57.4349 68.666 57.7357 68.7284 58.0397 68.7284C58.3438 68.7284 58.6445 68.666 58.9235 68.5451C59.2024 68.4241 59.4536 68.2472 59.6614 68.0253C59.8879 67.7911 60.0654 67.5139 60.1831 67.2101C60.3009 66.9063 60.3566 66.5819 60.347 66.2562C60.3572 65.9294 60.3017 65.6039 60.1839 65.2989C60.0662 64.9939 59.8885 64.7155 59.6614 64.4803C59.4508 64.2607 59.198 64.0859 58.9181 63.9665C58.6383 63.8471 58.3371 63.7855 58.0329 63.7855C57.7286 63.7855 57.4275 63.8471 57.1476 63.9665C56.8677 64.0859 56.6149 64.2607 56.4044 64.4803C56.1773 64.7155 55.9996 64.9939 55.8818 65.2989C55.764 65.6039 55.7086 65.9294 55.7187 66.2562C55.71 66.5824 55.7668 66.907 55.8858 67.2109C56.0047 67.5147 56.1834 67.7917 56.4112 68.0253H56.4181ZM66.8131 73.9976C65.9912 74.0237 65.1852 73.7671 64.5297 73.2707C63.9477 72.8332 63.4893 72.252 63.1995 71.584L64.7629 70.9326C64.933 71.3318 65.1992 71.6827 65.5377 71.9542C65.9 72.2463 66.3547 72.3995 66.8199 72.3862C67.1149 72.4042 67.4103 72.3583 67.686 72.2518C67.9617 72.1453 68.2112 71.9807 68.4176 71.7691C68.8307 71.2708 69.0346 70.6318 68.9867 69.9863V69.3966H68.925C68.6637 69.707 68.3337 69.9522 67.9612 70.1129C67.5886 70.2736 67.1838 70.3453 66.7788 70.3223C66.264 70.3239 65.7544 70.2186 65.2823 70.0133C64.8102 69.8079 64.3859 69.5069 64.036 69.1292C63.6564 68.7546 63.3568 68.3068 63.1552 67.8129C62.9537 67.3191 62.8545 66.7895 62.8635 66.2562C62.854 65.7198 62.953 65.187 63.1545 64.6898C63.356 64.1926 63.6558 63.7412 64.036 63.3627C64.385 62.9834 64.8091 62.6809 65.2812 62.4743C65.7534 62.2677 66.2634 62.1616 66.7788 62.1627C67.2149 62.162 67.6458 62.258 68.0404 62.4439C68.3818 62.5929 68.6861 62.8153 68.9318 63.0952H68.9935V62.4439H70.694V69.7463C70.7388 70.324 70.6652 70.9047 70.4777 71.453C70.2903 72.0012 69.9929 72.5054 69.6038 72.9348C69.2332 73.2893 68.7953 73.566 68.316 73.7486C67.8367 73.9311 67.3256 74.0158 66.8131 73.9976ZM66.9365 68.7315C67.2293 68.738 67.5199 68.6799 67.7877 68.5614C68.0555 68.4429 68.294 68.2669 68.4861 68.0459C68.9092 67.561 69.1322 66.9336 69.1101 66.2905C69.1355 65.6366 68.9126 64.9973 68.4861 64.5009C68.2943 64.2795 68.0559 64.1033 67.788 63.9847C67.5201 63.8662 67.2293 63.8083 66.9365 63.8152C66.6357 63.809 66.337 63.867 66.0604 63.9852C65.7837 64.1034 65.5354 64.2792 65.332 64.5009C64.8784 64.9794 64.632 65.6176 64.6463 66.2768C64.6393 66.6001 64.6963 66.9217 64.814 67.2229C64.9316 67.5241 65.1077 67.7991 65.332 68.0321C65.5344 68.2559 65.7822 68.4341 66.0589 68.5547C66.3355 68.6752 66.6347 68.7355 66.9365 68.7315ZM73.7179 58.1035V70.0892H71.9283V58.1035H73.7179ZM78.6274 70.336C78.0914 70.3498 77.5584 70.2528 77.0617 70.051C76.5649 69.8493 76.1152 69.5471 75.7407 69.1635C75.3606 68.7827 75.0619 68.3287 74.8627 67.8289C74.6635 67.3291 74.5679 66.7941 74.5819 66.2562C74.5616 65.7171 74.6501 65.1794 74.8421 64.6752C75.0341 64.171 75.3257 63.7106 75.6995 63.3215C76.0518 62.9502 76.4777 62.6565 76.95 62.4594C77.4223 62.2622 77.9306 62.1658 78.4423 62.1764C78.9128 62.1715 79.3794 62.2625 79.8136 62.4439C80.2048 62.6017 80.5612 62.8347 80.8627 63.1295C81.1217 63.3795 81.3517 63.6578 81.5484 63.9592C81.7075 64.2137 81.843 64.4822 81.953 64.7614L82.1381 65.2277L76.6526 67.4836C76.8185 67.8648 77.096 68.1867 77.4485 68.4071C77.8011 68.6274 78.2121 68.7357 78.6274 68.7178C79.0315 68.7189 79.429 68.6153 79.7811 68.417C80.1332 68.2187 80.4279 67.9326 80.6364 67.5865L82.0078 68.5121C81.6578 69.0128 81.21 69.4373 80.6913 69.7601C80.0745 70.1498 79.3569 70.35 78.6274 70.336ZM76.3372 66.1328L79.9851 64.6175C79.8727 64.3503 79.6717 64.1299 79.4159 63.9935C79.1296 63.8318 78.8054 63.749 78.4765 63.7535C77.9185 63.768 77.3887 64.002 77.0023 64.4049C76.7711 64.6262 76.5916 64.8958 76.4766 65.1945C76.3616 65.4932 76.314 65.8136 76.3372 66.1328Z" fill="#5F6368"/>
<path d="M91.5114 70.336C90.7503 70.3492 89.9943 70.2084 89.289 69.9221C88.5837 69.6358 87.9434 69.21 87.4068 68.6701C86.8701 68.1302 86.4481 67.4875 86.166 66.7805C85.8839 66.0735 85.7477 65.3167 85.7653 64.5557C85.7477 63.7947 85.8839 63.038 86.166 62.331C86.4481 61.6239 86.8701 60.9812 87.4068 60.4414C87.9434 59.9015 88.5837 59.4756 89.289 59.1894C89.9943 58.9031 90.7503 58.7623 91.5114 58.7754C92.2817 58.7514 93.0475 58.9017 93.7516 59.2151C94.4557 59.5286 95.0799 59.9971 95.5775 60.5856L94.5901 61.5456C94.2248 61.0861 93.7562 60.7193 93.2224 60.4751C92.6886 60.2308 92.1047 60.116 91.5182 60.14C90.9536 60.1272 90.3923 60.2288 89.8679 60.4385C89.3435 60.6483 88.867 60.9619 88.4669 61.3605C88.051 61.7787 87.726 62.2785 87.5124 62.8284C87.2988 63.3783 87.2012 63.9663 87.2258 64.5557C87.2012 65.1451 87.2988 65.7332 87.5124 66.2831C87.726 66.833 88.051 67.3327 88.4669 67.751C88.867 68.1496 89.3435 68.4632 89.8679 68.6729C90.3923 68.8827 90.9536 68.9842 91.5182 68.9715C92.1735 68.9789 92.822 68.8384 93.4156 68.5606C94.0091 68.2829 94.5324 67.8749 94.9466 67.367L95.934 68.3544C95.417 68.9726 94.768 69.467 94.0347 69.8012C93.2442 70.1661 92.3819 70.3489 91.5114 70.336Z" fill="#5F6368"/>
<path d="M98.5876 70.089H97.1682V59.0153H98.5876V70.089Z" fill="#5F6368"/>
<path d="M100.905 63.4243C101.649 62.6856 102.655 62.2711 103.703 62.2711C104.751 62.2711 105.757 62.6856 106.5 63.4243C106.864 63.8083 107.148 64.2604 107.337 64.7546C107.525 65.2489 107.614 65.7755 107.597 66.3041C107.614 66.8328 107.525 67.3594 107.337 67.8536C107.148 68.3479 106.864 68.8 106.5 69.184C105.757 69.9226 104.751 70.3371 103.703 70.3371C102.655 70.3371 101.649 69.9226 100.905 69.184C100.542 68.8 100.257 68.3479 100.069 67.8536C99.8808 67.3594 99.7921 66.8328 99.8081 66.3041C99.7921 65.7755 99.8808 65.2489 100.069 64.7546C100.257 64.2604 100.542 63.8083 100.905 63.4243ZM101.961 68.2926C102.185 68.5289 102.454 68.7172 102.753 68.8458C103.052 68.9745 103.374 69.0409 103.699 69.0409C104.025 69.0409 104.347 68.9745 104.646 68.8458C104.944 68.7172 105.214 68.5289 105.438 68.2926C105.686 68.0264 105.878 67.7135 106.004 67.3721C106.13 67.0307 106.187 66.6677 106.171 66.3041C106.187 65.9406 106.13 65.5775 106.004 65.2361C105.878 64.8948 105.686 64.5819 105.438 64.3156C105.214 64.0793 104.944 63.891 104.646 63.7624C104.347 63.6337 104.025 63.5674 103.699 63.5674C103.374 63.5674 103.052 63.6337 102.753 63.7624C102.454 63.891 102.185 64.0793 101.961 64.3156C101.713 64.5819 101.52 64.8948 101.394 65.2361C101.269 65.5775 101.212 65.9406 101.227 66.3041C101.214 66.667 101.272 67.029 101.399 67.3692C101.526 67.7094 101.72 68.0209 101.968 68.2857L101.961 68.2926Z" fill="#5F6368"/>
<path d="M115.462 70.0891H114.091V69.04H114.05C113.806 69.4384 113.46 69.765 113.049 69.9862C112.622 70.2337 112.137 70.3638 111.643 70.3633C111.242 70.3908 110.841 70.3273 110.468 70.1777C110.095 70.0281 109.761 69.7962 109.49 69.4994C108.971 68.8424 108.71 68.018 108.756 67.1818V62.5192H110.176V66.9212C110.176 68.3337 110.8 69.04 112.048 69.04C112.325 69.0486 112.6 68.9909 112.851 68.8716C113.101 68.7524 113.32 68.575 113.488 68.3543C113.855 67.8881 114.052 67.3094 114.043 66.7155V62.5192H115.462V70.0891Z" fill="#5F6368"/>
<path d="M120.283 70.3358C119.801 70.3374 119.325 70.2347 118.887 70.0346C118.449 69.8346 118.06 69.542 117.746 69.177C117.035 68.3919 116.654 67.3628 116.683 66.304C116.654 65.2453 117.035 64.2162 117.746 63.431C118.06 63.0661 118.449 62.7735 118.887 62.5734C119.325 62.3734 119.801 62.2706 120.283 62.2722C120.822 62.2637 121.355 62.3911 121.832 62.6425C122.252 62.8536 122.607 63.1732 122.861 63.5682H122.923L122.861 62.5191V59.0153H124.28V70.089H122.909V69.0399H122.847C122.593 69.4349 122.238 69.7545 121.819 69.9656C121.345 70.2148 120.818 70.3421 120.283 70.3358ZM120.516 69.0399C120.837 69.0446 121.155 68.981 121.449 68.8533C121.744 68.7256 122.007 68.5368 122.223 68.2994C122.705 67.7504 122.952 67.0335 122.909 66.304C122.952 65.5746 122.705 64.8577 122.223 64.3087C122.006 64.07 121.741 63.8793 121.446 63.7488C121.151 63.6183 120.832 63.5508 120.509 63.5508C120.186 63.5508 119.867 63.6183 119.572 63.7488C119.277 63.8793 119.012 64.07 118.795 64.3087C118.555 64.5787 118.371 64.8934 118.254 65.2346C118.136 65.5758 118.087 65.9369 118.109 66.2972C118.087 66.6574 118.136 67.0185 118.254 67.3598C118.371 67.701 118.555 68.0156 118.795 68.2857C119.011 68.5273 119.276 68.7197 119.573 68.8499C119.87 68.98 120.192 69.0448 120.516 69.0399Z" fill="#5F6368"/>
</svg>
