<svg width="128" height="128" viewBox="0 0 128 128" fill="none" xmlns="http://www.w3.org/2000/svg">
<path d="M66.3223 105.333H64.4189C63.9242 105.346 63.4534 105.55 63.1064 105.903C62.7595 106.256 62.5631 106.73 62.5586 107.225V107.9H66.335V110.042H62.5586V120H60.2285V107.314C60.2285 104.656 62.0931 103.067 64.4238 103.067H67.2539L66.3223 105.333ZM27.8223 101.788C30.0273 101.788 32.1572 102.744 33.9746 104.494L32.542 106.283C31.1501 105.049 29.486 104.214 27.8223 104.214C24.2607 104.215 21.3615 107.235 21.3613 110.937C21.3613 114.64 24.1074 117.58 27.6289 117.58C30.803 117.58 33.2775 115.193 33.7432 112.17H26.584V110.021H36.2578V111.247C36.064 116.18 32.3108 119.998 27.6289 119.999C22.6752 119.999 19 115.861 19 110.937C19.0001 105.926 22.9845 101.788 27.8223 101.788ZM51.7588 107.521C52.5253 107.515 53.2854 107.663 53.9941 107.955C54.7031 108.247 55.3468 108.679 55.8867 109.223V107.712H57.9404V119.82L57.9912 119.828H55.9268V118.285C54.8096 119.369 53.3158 119.979 51.7588 119.986C50.1059 119.986 48.5204 119.329 47.3516 118.161C46.1827 116.992 45.5264 115.406 45.5264 113.753C45.5264 112.101 46.1828 110.515 47.3516 109.346C48.5204 108.178 50.1059 107.521 51.7588 107.521ZM72.8525 107.521C73.6191 107.515 74.3792 107.663 75.0879 107.955C75.7968 108.247 76.4405 108.679 76.9805 109.223V107.712H79.0469V119.82L79.085 119.828H77.0205V118.285C75.9033 119.369 74.4095 119.979 72.8525 119.986C71.1996 119.986 69.6141 119.329 68.4453 118.161C67.2765 116.992 66.6201 115.406 66.6201 113.753C66.6202 112.101 67.2765 110.515 68.4453 109.346C69.6141 108.177 71.1997 107.521 72.8525 107.521ZM99.7012 107.521C100.468 107.516 101.228 107.663 101.937 107.956C102.645 108.248 103.289 108.679 103.829 109.223V107.712H105.894V119.82L105.934 119.828H103.869V118.285C102.751 119.368 101.258 119.977 99.7012 119.986C98.0483 119.986 96.4628 119.329 95.2939 118.161C94.1251 116.992 93.4688 115.406 93.4688 113.753C93.4688 112.101 94.1252 110.515 95.2939 109.346C96.4627 108.178 98.0483 107.521 99.7012 107.521ZM86.2236 107.583C87.1749 107.449 88.1447 107.595 89.0146 108.002C89.8846 108.41 90.6172 109.061 91.124 109.877C91.6308 110.693 91.8896 111.639 91.8691 112.599V119.675H89.4609V112.599C89.4395 111.896 89.1445 111.229 88.6396 110.74C88.1348 110.25 87.4592 109.976 86.7559 109.976C86.0525 109.976 85.377 110.25 84.8721 110.74C84.3672 111.229 84.0723 111.896 84.0508 112.599V119.675H81.6426V107.731H83.6562V108.753C84.3807 108.123 85.2724 107.716 86.2236 107.583ZM44.8691 109.851H43.54C42.0549 109.851 40.8819 110.81 40.8818 112.368V119.667H38.4951V107.535H40.4512V108.572C41.0754 107.93 42.1329 107.533 43.2656 107.533H45.8584L44.8691 109.851ZM51.7988 109.975C50.7883 109.975 49.8192 110.377 49.1045 111.091C48.3898 111.806 47.9883 112.776 47.9883 113.787C47.9884 114.797 48.3899 115.766 49.1045 116.481C49.8192 117.196 50.7882 117.597 51.7988 117.597C52.8095 117.597 53.7785 117.196 54.4932 116.481C55.2078 115.766 55.6093 114.797 55.6094 113.787C55.6094 112.776 55.2079 111.806 54.4932 111.091C53.7785 110.377 52.8094 109.975 51.7988 109.975ZM72.8926 109.975C71.882 109.975 70.9129 110.377 70.1982 111.091C69.4835 111.806 69.082 112.776 69.082 113.787C69.0821 114.797 69.4836 115.766 70.1982 116.481C70.9129 117.196 71.8819 117.597 72.8926 117.597C73.9032 117.597 74.8722 117.196 75.5869 116.481C76.3015 115.766 76.703 114.797 76.7031 113.787C76.7031 112.776 76.3016 111.806 75.5869 111.091C74.8723 110.377 73.9031 109.975 72.8926 109.975ZM99.7803 110.074C98.7865 110.074 97.8318 110.461 97.1201 111.155C96.4084 111.848 95.9962 112.793 95.9707 113.787C95.9963 114.78 96.4086 115.724 97.1201 116.417C97.8318 117.111 98.7865 117.5 99.7803 117.5C100.774 117.499 101.729 117.111 102.44 116.417C103.152 115.724 103.564 114.78 103.59 113.787C103.564 112.793 103.152 111.848 102.44 111.155C101.729 110.461 100.774 110.074 99.7803 110.074Z" fill="#55595B"/>
<path d="M101.395 44.5751C101.236 42.8771 100.946 41.194 100.527 39.5409C99.9844 37.4601 99.2251 35.442 98.2612 33.5199C97.1092 31.2139 95.6953 29.0483 94.0475 27.0659C93.3303 26.2066 92.5665 25.3873 91.7594 24.6117C92.9878 19.7234 90.2667 15.4846 90.2667 15.4846C85.5723 15.1951 82.5869 16.9546 81.4794 17.75C81.2856 17.6795 81.1169 17.5813 80.9231 17.5109C80.1302 17.1962 79.3121 16.8841 78.4437 16.6198C77.5753 16.3555 76.7345 16.1164 75.8435 15.8974C74.9524 15.6784 74.0613 15.5123 73.1476 15.3663L72.6643 15.2958C70.6179 8.75123 64.7428 6 64.7428 6C58.168 10.1659 56.9397 15.993 56.9397 15.993C56.9397 15.993 56.9145 16.1139 56.8667 16.3303C56.5042 16.426 56.1442 16.5468 55.7818 16.6425C55.2783 16.7885 54.7749 16.9798 54.2891 17.1736C53.8033 17.3674 53.3024 17.5587 52.7964 17.7752C51.8097 18.2081 50.823 18.6889 49.8589 19.22C48.8948 19.7511 48.0038 20.3276 47.1152 20.9291L46.8635 20.8335C37.7615 17.3649 29.694 21.5307 29.694 21.5307C28.9389 31.2117 33.3313 37.3031 34.1972 38.4107C33.9807 39.0123 33.7869 39.6139 33.5956 40.218C32.9107 42.4279 32.4114 44.6911 32.1029 46.9841C32.0551 47.3213 32.0073 47.6586 31.9821 47.9909C23.5547 52.1568 21.0728 60.6571 21.0728 60.6571C28.0805 68.7246 36.2688 69.2305 36.2688 69.2305L36.2915 69.2053C37.3334 71.0675 38.5343 72.8361 39.8809 74.4913C40.4573 75.1911 41.0363 75.8405 41.6631 76.4899C39.1107 83.8098 42.023 89.8786 42.023 89.8786C49.8262 90.1681 54.9536 86.4603 56.0385 85.6171C56.8088 85.8814 57.6017 86.1205 58.3971 86.3143C60.7909 86.9382 63.2451 87.302 65.717 87.3992C66.3186 87.4219 66.9453 87.447 67.5469 87.4219H68.4153L68.8005 87.3992V87.4219C72.4831 92.6726 78.937 93.4177 78.937 93.4177C83.5359 88.5798 83.8002 83.762 83.8002 82.7274V82.2945C84.7631 81.6253 85.6806 80.8929 86.5464 80.102C88.3682 78.4385 89.9749 76.5536 91.329 74.4913L91.6889 73.9149C96.8894 74.2044 100.574 70.6879 100.574 70.6879C99.7086 65.2685 96.6251 62.6205 95.9756 62.1146C95.9532 62.0959 95.9287 62.0799 95.9026 62.0667C95.8548 62.0441 95.8548 62.0189 95.8548 62.0189C95.8182 61.989 95.7775 61.9645 95.734 61.9459C95.7592 61.6086 95.7818 61.2965 95.807 60.9592C95.8548 60.3828 95.8548 59.7787 95.8548 59.1972V58.281L95.8322 57.921L95.807 57.4377C95.8102 57.2811 95.8001 57.1245 95.7768 56.9695C95.7516 56.8235 95.7516 56.6549 95.729 56.5114L95.6811 56.0533L95.6081 55.5952C95.5125 54.9936 95.4143 54.4171 95.2708 53.8156C94.72 51.514 93.8274 49.308 92.6228 47.271C90.2649 43.3885 86.7898 40.3082 82.6524 38.4333C80.7015 37.5586 78.6332 36.9743 76.513 36.699C75.4839 36.5588 74.4451 36.5024 73.4069 36.5304H72.6442L72.259 36.5555C72.1131 36.5555 71.9696 36.5782 71.8487 36.5782C71.3201 36.626 70.789 36.699 70.2831 36.7947C68.2624 37.1702 66.3254 37.9051 64.5641 38.9644C62.8992 39.9655 61.4109 41.2344 60.1591 42.72C58.9812 44.1336 58.0379 45.7271 57.3651 47.4397C56.7341 49.0571 56.3604 50.7634 56.2575 52.4966C56.2349 52.9069 56.2348 53.3398 56.2348 53.7551V54.0673L56.2575 54.4046C56.2827 54.5984 56.2827 54.8149 56.3053 55.0062C56.3818 55.8292 56.5352 56.6433 56.7635 57.4377C57.6002 60.3602 59.4317 62.8985 61.9412 64.6141C63.0367 65.3542 64.2386 65.9229 65.5055 66.3006C66.6546 66.639 67.8468 66.8086 69.0446 66.804H69.6714C69.7445 66.808 69.8177 66.7994 69.8879 66.7788C70.0062 66.7788 70.127 66.7562 70.2478 66.7562C70.2818 66.7601 70.3159 66.7511 70.3435 66.731L70.4643 66.7058C70.5373 66.7058 70.6103 66.6832 70.6808 66.6832L71.0911 66.6102C71.2226 66.5929 71.3519 66.5608 71.4762 66.5145C71.732 66.4573 71.9841 66.3851 72.2314 66.298C72.702 66.1383 73.1604 65.9448 73.6032 65.7191C74.0361 65.5026 74.4213 65.2383 74.8064 64.9967C74.9168 64.921 75.0212 64.8369 75.1185 64.745C75.3059 64.5943 75.4263 64.3758 75.4536 64.1369C75.4809 63.898 75.413 63.6579 75.2645 63.4688C75.1327 63.3035 74.9462 63.1906 74.7385 63.1505C74.5309 63.1103 74.3158 63.1455 74.1318 63.2498L73.8423 63.3958C73.5085 63.5652 73.1628 63.7099 72.8078 63.8287C72.438 63.9506 72.0604 64.0473 71.6776 64.1182L71.0735 64.1912C70.9778 64.1912 70.8822 64.2139 70.7613 64.2139H70.1824C70.062 64.2175 69.9415 64.2099 69.8224 64.1912H69.679C69.6216 64.1954 69.564 64.1868 69.5103 64.166C69.3895 64.1409 69.2913 64.1409 69.173 64.1182C68.265 63.991 67.3805 63.7315 66.5476 63.348C64.8834 62.6297 63.4728 61.4287 62.4982 59.9004C61.5235 58.3721 61.0296 56.5865 61.0804 54.7746C61.0804 54.6311 61.1055 54.4851 61.1055 54.3416V54.1478C61.1055 54.0773 61.1307 54.0043 61.1307 53.9313C61.1534 53.6444 61.2012 53.3549 61.249 53.0654C61.6766 50.6684 62.8479 48.4667 64.5968 46.7726C65.051 46.3467 65.5338 45.9523 66.0417 45.5921C66.5576 45.229 67.1062 44.9147 67.6803 44.6532C68.2543 44.3872 68.8496 44.1699 69.46 44.0037C70.0767 43.841 70.7055 43.7282 71.3403 43.6665C71.6524 43.6438 71.9645 43.6186 72.3018 43.6186H73.057L73.3087 43.6438C73.9988 43.6869 74.6836 43.7914 75.3551 43.9559C77.4333 44.4065 79.3848 45.3147 81.0678 46.6145C82.7507 47.9142 84.1227 49.5728 85.0839 51.4696C85.7393 52.7462 86.1863 54.1195 86.408 55.5373C86.4558 55.8997 86.5036 56.2597 86.5288 56.6222L86.5514 56.8739L86.5766 57.1256V58.1627C86.5766 58.3313 86.5514 58.6183 86.5514 58.7869C86.5288 59.172 86.4809 59.5823 86.4331 59.9674C86.3853 60.3526 86.3123 60.7377 86.2393 61.1228C86.1663 61.5079 86.0707 61.8931 85.9876 62.2555C85.7903 63.0148 85.5491 63.762 85.2652 64.4933C84.6769 65.9514 83.9164 67.3339 82.9997 68.6113C81.1237 71.1827 78.6201 73.2305 75.7277 74.5593C74.2864 75.2193 72.7622 75.6808 71.1968 75.9311C70.4185 76.0771 69.6298 76.1613 68.8382 76.1829H67.6099C67.1834 76.1836 66.7573 76.1592 66.3337 76.1098C62.9591 75.8597 59.6722 74.9172 56.6779 73.341C53.7203 71.7768 51.1139 69.6244 49.0188 67.0159C46.9237 64.4074 45.3842 61.3981 44.4949 58.1727C44.0665 56.6004 43.7909 54.9903 43.6718 53.365L43.6466 53.0503V50.9083C43.6718 50.1128 43.7422 49.2696 43.8404 48.4515C43.9386 47.6335 44.0795 46.7902 44.2482 45.9722C44.4168 45.1541 44.6106 44.3335 44.8498 43.5154C45.3005 41.925 45.8727 40.3716 46.5614 38.8688C47.8516 36.021 49.6419 33.4276 51.8475 31.2117C52.3786 30.6805 52.9324 30.2048 53.5088 29.719C54.0852 29.2332 54.6893 28.8279 55.3161 28.4176C55.9277 28.0121 56.5622 27.6422 57.2165 27.3101C57.5312 27.1414 57.8685 26.9728 58.2058 26.8293L58.7092 26.6129L59.2126 26.3964C59.8966 26.1049 60.5967 25.8527 61.3094 25.6412C61.4891 25.5965 61.6657 25.5402 61.838 25.4726L62.3692 25.3291C62.7291 25.2309 63.0916 25.1353 63.4515 25.0623C63.6202 25.0145 63.8115 24.9918 64.0053 24.944C64.1991 24.8962 64.3678 24.871 64.5591 24.8232C64.7504 24.7753 64.9215 24.7502 65.1128 24.7275L65.3646 24.6772L65.654 24.6293L66.2078 24.5589C66.4243 24.5337 66.6181 24.5085 66.8346 24.4859C67.0032 24.4607 67.2927 24.438 67.4614 24.4129C67.5797 24.3902 67.7131 24.3902 67.8465 24.365L68.1108 24.3399L68.2316 24.3172H68.3751C68.5916 24.292 68.7854 24.292 69.0019 24.2694L69.3467 24.2467H69.5984C69.7671 24.2467 69.9584 24.2241 70.127 24.2241C70.8268 24.1989 71.5492 24.1989 72.2465 24.2241C73.6199 24.2772 74.9878 24.4295 76.3394 24.6797C78.9293 25.1634 81.4411 25.9984 83.8052 27.1616C85.9916 28.2296 88.0376 29.5637 89.8967 31.1336C90.0176 31.2293 90.1132 31.3274 90.234 31.4231C90.3548 31.5187 90.4505 31.6144 90.5461 31.7126C90.7651 31.9039 90.9565 32.0977 91.1729 32.289C91.3894 32.4803 91.5832 32.6741 91.7745 32.8679C91.9658 33.0618 92.1597 33.2531 92.3535 33.4695C93.0838 34.2374 93.7752 35.0414 94.4251 35.8784C95.5875 37.3765 96.6112 38.9773 97.4834 40.661L97.6269 40.9505L97.7704 41.2399C97.8701 41.4278 97.9592 41.621 98.0372 41.8189C98.1328 42.0102 98.2033 42.1788 98.3015 42.3727C98.3997 42.5665 98.4701 42.7326 98.5406 42.9264C98.8301 43.6488 99.1196 44.3461 99.3361 44.9955C99.6985 46.0552 99.9628 46.9941 100.179 47.8147C100.213 47.9749 100.306 48.1162 100.441 48.2098C100.575 48.3034 100.74 48.3421 100.902 48.3181C101.069 48.306 101.225 48.231 101.339 48.1081C101.453 47.9852 101.516 47.8237 101.516 47.6561C101.541 46.6276 101.501 45.5985 101.395 44.5751Z" fill="url(#paint0_linear_23_5889)"/>
<defs>
<linearGradient id="paint0_linear_23_5889" x1="61.5939" y1="112.774" x2="61.5939" y2="32.944" gradientUnits="userSpaceOnUse">
<stop stop-color="#FCEE1F"/>
<stop offset="1" stop-color="#F15B2A"/>
</linearGradient>
</defs>
</svg>
