<svg width="128" height="128" viewBox="0 0 128 128" fill="none" xmlns="http://www.w3.org/2000/svg">
<path d="M115.833 57.2997C115.625 55.0835 115.246 52.8868 114.699 50.7292C113.991 48.0135 113 45.3796 111.742 42.8709C110.239 39.8612 108.394 37.0348 106.243 34.4475C105.307 33.326 104.31 32.2567 103.257 31.2444C104.86 24.8645 101.308 19.3322 101.308 19.3322C95.1815 18.9543 91.2851 21.2507 89.8396 22.2889C89.5867 22.1969 89.3666 22.0688 89.1136 21.9768C88.0787 21.5661 87.011 21.1587 85.8776 20.8138C84.7442 20.4688 83.6469 20.1567 82.4839 19.8709C81.321 19.5851 80.158 19.3683 78.9654 19.1777L78.3347 19.0858C75.6637 10.5441 67.996 6.95337 67.996 6.95337C59.4149 12.3904 57.8117 19.9958 57.8117 19.9958C57.8117 19.9958 57.7788 20.1535 57.7164 20.436C57.2433 20.5608 56.7735 20.7185 56.3004 20.8434C55.6434 21.0339 54.9863 21.2836 54.3523 21.5365C53.7182 21.7895 53.0645 22.0392 52.4041 22.3217C51.1163 22.8868 49.8285 23.5143 48.5702 24.2074C47.312 24.9006 46.149 25.653 44.9893 26.4381L44.6608 26.3133C32.7813 21.7862 22.252 27.2233 22.252 27.2233C21.2664 39.8583 26.9992 47.8086 28.1293 49.2541C27.8468 50.0393 27.5938 50.8245 27.3442 51.6129C26.4503 54.4972 25.7986 57.451 25.396 60.4437C25.3336 60.8839 25.2712 61.3241 25.2383 61.7577C14.2393 67.1948 11 78.2891 11 78.2891C20.1462 88.8183 30.8331 89.4786 30.8331 89.4786L30.8627 89.4457C32.2225 91.8761 33.79 94.1844 35.5475 96.3447C36.2998 97.258 37.0554 98.1056 37.8734 98.9532C34.5422 108.507 38.3432 116.427 38.3432 116.427C48.5275 116.805 55.2196 111.966 56.6355 110.866C57.6408 111.21 58.6757 111.523 59.7138 111.776C62.8381 112.59 66.0412 113.065 69.2674 113.191C70.0525 113.221 70.8705 113.254 71.6557 113.221H72.7891L73.2918 113.191V113.221C78.0981 120.074 86.5215 121.046 86.5215 121.046C92.5237 114.732 92.8686 108.444 92.8686 107.094V106.529C94.1254 105.656 95.3228 104.7 96.4529 103.668C98.8306 101.496 100.928 99.0363 102.695 96.3447L103.165 95.5924C109.952 95.9702 114.762 91.3808 114.762 91.3808C113.631 84.3076 109.607 80.8516 108.759 80.1912C108.73 80.1669 108.698 80.146 108.664 80.1288C108.602 80.0992 108.602 80.0664 108.602 80.0664C108.554 80.0274 108.501 79.9953 108.444 79.9711C108.477 79.5309 108.506 79.1235 108.539 78.6833C108.602 77.931 108.602 77.1425 108.602 76.3836V75.1878L108.572 74.718L108.539 74.0872C108.543 73.8828 108.53 73.6784 108.5 73.4762C108.467 73.2857 108.467 73.0655 108.437 72.8783L108.375 72.2804L108.28 71.6824C108.155 70.8973 108.027 70.145 107.84 69.3598C107.121 66.3559 105.956 63.4768 104.383 60.8182C101.306 55.7509 96.7706 51.7307 91.3706 49.2837C88.8245 48.1421 86.1249 47.3795 83.3578 47.0201C82.0147 46.8372 80.6589 46.7636 79.3038 46.8H78.3084L77.8057 46.8329C77.6152 46.8329 77.4279 46.8625 77.2702 46.8625C76.5803 46.9249 75.8871 47.0201 75.2268 47.145C72.5895 47.6351 70.0614 48.5943 67.7627 49.9769C65.5897 51.2834 63.6473 52.9395 62.0135 54.8785C60.4762 56.7234 59.245 58.8031 58.3669 61.0383C57.5434 63.1493 57.0556 65.3763 56.9213 67.6383C56.8918 68.1738 56.8918 68.7389 56.8918 69.2809V69.6883L56.9213 70.1285C56.9542 70.3815 56.9542 70.664 56.9838 70.9137C57.0835 71.9879 57.2837 73.0504 57.5817 74.0872C58.6738 77.9015 61.0641 81.2144 64.3395 83.4535C65.7692 84.4195 67.3378 85.1617 68.9914 85.6546C70.4911 86.0963 72.0471 86.3177 73.6105 86.3116H74.4285C74.5238 86.3168 74.6194 86.3057 74.711 86.2788C74.8654 86.2788 75.0231 86.2492 75.1808 86.2492C75.2251 86.2543 75.2696 86.2426 75.3057 86.2164L75.4633 86.1835C75.5586 86.1835 75.6539 86.1539 75.7459 86.1539L76.2814 86.0587C76.4531 86.0361 76.6217 85.9942 76.784 85.9338C77.1178 85.8592 77.447 85.7649 77.7696 85.6513C78.3838 85.4427 78.9821 85.1902 79.5601 84.8957C80.1251 84.6132 80.6278 84.2682 81.1304 83.9528C81.2745 83.8541 81.4107 83.7442 81.5378 83.6243C81.7823 83.4276 81.9395 83.1424 81.9751 82.8306C82.0108 82.5188 81.9221 82.2055 81.7283 81.9587C81.5562 81.7429 81.3128 81.5956 81.0418 81.5432C80.7709 81.4908 80.4901 81.5368 80.25 81.6729L79.8722 81.8634C79.4365 82.0845 78.9852 82.2734 78.5219 82.4285C78.0393 82.5875 77.5465 82.7137 77.0468 82.8063L76.2584 82.9016C76.1335 82.9016 76.0087 82.9311 75.851 82.9311H75.0954C74.9382 82.9359 74.7809 82.926 74.6256 82.9016H74.4383C74.3634 82.9071 74.2883 82.8959 74.2182 82.8687C74.0605 82.8359 73.9324 82.8359 73.778 82.8063C72.5929 82.6403 71.4385 82.3016 70.3515 81.801C68.1794 80.8635 66.3383 79.2961 65.0663 77.3014C63.7943 75.3067 63.1497 72.9763 63.2159 70.6115C63.2159 70.4242 63.2488 70.2337 63.2488 70.0464V69.7934C63.2488 69.7014 63.2816 69.6062 63.2816 69.5109C63.3112 69.1364 63.3736 68.7586 63.436 68.3808C63.9941 65.2523 65.5228 62.3788 67.8054 60.1677C68.3982 59.6118 69.0283 59.097 69.6911 58.6269C70.3645 58.153 71.0805 57.7428 71.8298 57.4015C72.5789 57.0544 73.3559 56.7708 74.1525 56.5539C74.9574 56.3415 75.7781 56.1943 76.6066 56.1137C77.014 56.0841 77.4214 56.0513 77.8616 56.0513H78.8472L79.1757 56.0841C80.0763 56.1404 80.9701 56.2767 81.8466 56.4915C84.5589 57.0796 87.1059 58.2649 89.3024 59.9613C91.4989 61.6577 93.2896 63.8224 94.5441 66.298C95.3995 67.9642 95.9829 69.7564 96.2722 71.6069C96.3346 72.08 96.397 72.5498 96.4299 73.0228L96.4594 73.3514L96.4923 73.6799V75.0334C96.4923 75.2535 96.4594 75.628 96.4594 75.8481C96.4299 76.3508 96.3674 76.8863 96.305 77.3889C96.2426 77.8915 96.1473 78.3942 96.0521 78.8968C95.9568 79.3995 95.8319 79.9021 95.7235 80.3752C95.466 81.3662 95.1512 82.3413 94.7807 83.2958C94.0129 85.1988 93.0203 87.0032 91.8239 88.6704C89.3755 92.0265 86.1078 94.6992 82.3328 96.4335C80.4517 97.2949 78.4624 97.8972 76.4193 98.2239C75.4035 98.4144 74.3742 98.5243 73.3411 98.5524H71.7379C71.1813 98.5534 70.6251 98.5215 70.0722 98.4572C65.6679 98.1307 61.378 96.9005 57.47 94.8434C53.6099 92.8019 50.2082 89.9927 47.4737 86.5882C44.7393 83.1837 42.73 79.2561 41.5693 75.0465C41.0103 72.9944 40.6505 70.893 40.4951 68.7717L40.4622 68.3611V65.5653C40.4951 64.5272 40.587 63.4266 40.7152 62.3589C40.8433 61.2912 41.0273 60.1907 41.2474 59.123C41.4675 58.0553 41.7205 56.9843 42.0326 55.9166C42.6208 53.8408 43.3677 51.8134 44.2665 49.852C45.9504 46.1352 48.287 42.7504 51.1656 39.8583C51.8588 39.1651 52.5815 38.5442 53.3339 37.9102C54.0862 37.2761 54.8746 36.7472 55.6927 36.2117C56.4908 35.6824 57.319 35.1997 58.173 34.7662C58.5837 34.5461 59.0239 34.326 59.4641 34.1387L60.1212 33.8562L60.7782 33.5737C61.6709 33.1932 62.5846 32.8641 63.5149 32.5881C63.7494 32.5297 63.9798 32.4562 64.2048 32.368L64.898 32.1807C65.3678 32.0526 65.8408 31.9278 66.3106 31.8325C66.5307 31.7701 66.7804 31.7405 67.0334 31.6781C67.2863 31.6157 67.5064 31.5828 67.7561 31.5204C68.0058 31.458 68.2292 31.4251 68.4789 31.3955L68.8074 31.3299L69.1852 31.2674L69.908 31.1754C70.1905 31.1426 70.4435 31.1097 70.726 31.0802C70.9461 31.0473 71.3239 31.0177 71.544 30.9849C71.6984 30.9553 71.8726 30.9553 72.0467 30.9225L72.3916 30.8896L72.5493 30.8601H72.7366C73.0191 30.8272 73.2721 30.8272 73.5546 30.7976L74.0047 30.7681H74.3332C74.5533 30.7681 74.803 30.7385 75.0231 30.7385C75.9364 30.7056 76.8793 30.7056 77.7893 30.7385C79.5819 30.8079 81.3672 31.0066 83.1311 31.3331C86.5115 31.9644 89.7897 33.0542 92.8752 34.5724C95.7288 35.9663 98.3992 37.7075 100.826 39.7565C100.983 39.8813 101.108 40.0095 101.266 40.1343C101.423 40.2591 101.548 40.384 101.673 40.5121C101.959 40.7618 102.209 41.0147 102.491 41.2644C102.774 41.5141 103.027 41.7671 103.276 42.02C103.526 42.273 103.779 42.5227 104.032 42.8052C104.985 43.8074 105.888 44.8567 106.736 45.9492C108.253 47.9044 109.589 49.9937 110.727 52.1911L110.915 52.5689L111.102 52.9467C111.232 53.1919 111.348 53.4441 111.45 53.7023C111.575 53.952 111.667 54.1721 111.795 54.4251C111.923 54.6781 112.015 54.8949 112.107 55.1478C112.485 56.0907 112.863 57.0007 113.145 57.8483C113.618 59.2314 113.963 60.4568 114.246 61.5278C114.29 61.7369 114.412 61.9213 114.587 62.0435C114.762 62.1656 114.977 62.2162 115.189 62.1848C115.407 62.169 115.611 62.0711 115.76 61.9107C115.908 61.7503 115.991 61.5395 115.99 61.3208C116.024 59.9784 115.971 58.6353 115.833 57.2997Z" fill="url(#paint0_linear_23_5906)"/>
<defs>
<linearGradient id="paint0_linear_23_5906" x1="63.8861" y1="146.31" x2="63.8861" y2="42.1192" gradientUnits="userSpaceOnUse">
<stop stop-color="#FCEE1F"/>
<stop offset="1" stop-color="#F15B2A"/>
</linearGradient>
</defs>
</svg>
