<svg width="128" height="128" viewBox="0 0 128 128" fill="none" xmlns="http://www.w3.org/2000/svg">
<path fill-rule="evenodd" clip-rule="evenodd" d="M64.3997 11.7604L109.64 37.8801V90.1197L64.3997 116.239L19.1589 90.1197V37.8801L64.3997 11.7604ZM24.235 40.8108V79.1822L57.4656 21.6252L24.235 40.8108ZM64.3997 19.7672L26.093 86.1164H102.706L64.3997 19.7672ZM97.6303 91.1925H31.1691L64.3997 110.378L97.6303 91.1925ZM104.564 79.1822L71.3337 21.6252L104.564 40.8108V79.1822Z" fill="#E10098"/>
<path d="M64.4002 25.3822C70.3047 25.3822 75.0913 20.5956 75.0913 14.6911C75.0913 8.78657 70.3047 4 64.4002 4C58.4957 4 53.7091 8.78657 53.7091 14.6911C53.7091 20.5956 58.4957 25.3822 64.4002 25.3822Z" fill="#E10098"/>
<path d="M107.103 50.0367C113.007 50.0367 117.794 45.2502 117.794 39.3456C117.794 33.4411 113.007 28.6545 107.103 28.6545C101.198 28.6545 96.4116 33.4411 96.4116 39.3456C96.4116 45.2502 101.198 50.0367 107.103 50.0367Z" fill="#E10098"/>
<path d="M107.103 99.3457C113.007 99.3457 117.794 94.5591 117.794 88.6546C117.794 82.7501 113.007 77.9635 107.103 77.9635C101.198 77.9635 96.4116 82.7501 96.4116 88.6546C96.4116 94.5591 101.198 99.3457 107.103 99.3457Z" fill="#E10098"/>
<path d="M64.4002 124C70.3047 124 75.0913 119.213 75.0913 113.309C75.0913 107.404 70.3047 102.618 64.4002 102.618C58.4957 102.618 53.7091 107.404 53.7091 113.309C53.7091 119.213 58.4957 124 64.4002 124Z" fill="#E10098"/>
<path d="M21.6911 99.3457C27.5956 99.3457 32.3822 94.5591 32.3822 88.6546C32.3822 82.7501 27.5956 77.9635 21.6911 77.9635C15.7866 77.9635 11 82.7501 11 88.6546C11 94.5591 15.7866 99.3457 21.6911 99.3457Z" fill="#E10098"/>
<path d="M21.6911 50.0367C27.5956 50.0367 32.3822 45.2502 32.3822 39.3456C32.3822 33.4411 27.5956 28.6545 21.6911 28.6545C15.7866 28.6545 11 33.4411 11 39.3456C11 45.2502 15.7866 50.0367 21.6911 50.0367Z" fill="#E10098"/>
</svg>
