<svg width="128" height="128" viewBox="0 0 128 128" fill="none" xmlns="http://www.w3.org/2000/svg">
<path d="M15.6403 82.2871C16.5552 83.5042 17.744 84.4885 19.1105 85.1602C20.5883 85.8922 22.219 86.2623 23.868 86.24C25.2013 86.275 26.5286 86.0486 27.7749 85.5737C28.7718 85.182 29.6617 84.5599 30.3718 83.7581C31.0382 82.977 31.5247 82.059 31.7968 81.069C32.0935 79.999 32.2404 78.8931 32.2333 77.7828V73.9218H32.1417C31.2774 75.2916 30.0309 76.3782 28.556 77.0474C27.1496 77.6597 25.6314 77.9727 24.0976 77.9667C22.5947 77.978 21.1039 77.697 19.7082 77.1394C18.3867 76.6147 17.1776 75.8424 16.1458 74.864C15.122 73.8811 14.3088 72.7003 13.7555 71.3933C13.1668 70.0135 12.8695 68.5269 12.8822 67.0269C12.8696 65.5311 13.1507 64.0475 13.7099 62.6601C14.2384 61.3476 15.0102 60.1468 15.9849 59.121C16.9594 58.1037 18.1329 57.2978 19.4323 56.7537C20.8228 56.1756 22.3163 55.8863 23.822 55.9034C24.5077 55.9074 25.1918 55.9688 25.8671 56.087C26.6099 56.2168 27.3349 56.4328 28.0275 56.7307C29.6719 57.4434 31.0933 58.587 32.1417 60.0406H32.2333V56.4549H35.2673V77.7828C35.2569 79.0359 35.1105 80.2843 34.8305 81.5058C34.5376 82.8265 33.9569 84.0663 33.1299 85.1369C32.1889 86.3179 30.9846 87.2626 29.6135 87.8953C28.1117 88.6303 26.1505 88.9978 23.7298 88.9978C21.7634 89.0313 19.8101 88.672 17.9843 87.9409C16.2376 87.1926 14.6707 86.0801 13.3883 84.6777L15.6403 82.2871ZM16.1918 66.9352C16.1842 68.0307 16.3952 69.1166 16.8125 70.1295C17.2103 71.1015 17.7871 71.9901 18.5127 72.7493C19.2342 73.5018 20.0922 74.1102 21.041 74.5422C22.0293 74.9914 23.104 75.2188 24.1895 75.2086C26.3395 75.2163 28.4111 74.4025 29.981 72.9336C30.752 72.206 31.3559 71.3198 31.7508 70.3361C32.1766 69.2547 32.3723 68.0964 32.3256 66.9352C32.3333 65.8459 32.1464 64.7639 31.7738 63.7403C31.4198 62.7674 30.8725 61.8763 30.1649 61.1205C29.4376 60.3543 28.5619 59.7444 27.591 59.3279C26.5161 58.871 25.3575 58.6439 24.1895 58.6612C23.104 58.6513 22.0293 58.8788 21.041 59.3279C20.0925 59.7603 19.2346 60.3685 18.5127 61.1205C17.7873 61.8799 17.2105 62.7685 16.8122 63.7403C16.3951 64.7535 16.1842 65.8396 16.1918 66.9352ZM47.6311 77.9667H44.3219V45.4231H54.3421C57.6516 45.4231 60.2638 46.1432 62.179 47.5835C64.0939 49.0241 65.0516 51.1998 65.052 54.1106C65.1103 56.2233 64.3437 58.2758 62.9147 59.833C61.4895 61.3808 59.4288 62.2771 56.7324 62.5219L66.1092 77.9667H62.064L53.1473 62.844H47.6315L47.6311 77.9667ZM47.6311 59.8104H53.5148C54.7791 59.837 56.0406 59.6821 57.2608 59.3506C58.1533 59.112 58.9893 58.698 59.7201 58.1328C60.3096 57.6584 60.7683 57.0414 61.0528 56.3402C61.3325 55.6304 61.473 54.8735 61.4666 54.1106C61.47 53.3631 61.3295 52.6219 61.0528 51.9275C60.765 51.2217 60.3072 50.5979 59.7201 50.1117C58.9964 49.5353 58.1579 49.12 57.2608 48.8935C56.0378 48.5787 54.7775 48.4318 53.5148 48.4571H47.6311V59.8104ZM71.8081 45.4231H81.2772C84.5864 45.4231 87.1985 46.1433 89.1137 47.5838C91.0286 49.0245 91.9863 51.2002 91.9867 54.1109C91.9867 57.0225 91.0291 59.2057 89.1137 60.6607C87.1985 62.1165 84.5864 62.8442 81.2772 62.844H75.1179V77.9667H71.8081V45.4231ZM75.1182 59.8107H80.4502C81.7144 59.8373 82.9759 59.6824 84.1962 59.3509C85.0886 59.1122 85.9246 58.6982 86.6554 58.1331C87.2449 57.6586 87.7036 57.0417 87.9882 56.3406C88.2679 55.6308 88.4084 54.8738 88.402 54.1109C88.4055 53.3634 88.265 52.6222 87.9882 51.9278C87.7003 51.222 87.2425 50.5983 86.6554 50.112C85.9316 49.5357 85.0932 49.1204 84.1962 48.8939C82.9731 48.579 81.7129 48.4322 80.4502 48.4574H75.1179L75.1182 59.8107ZM125.218 72.8186C124.636 73.6814 123.949 74.4688 123.174 75.1629C122.334 75.9173 121.399 76.5585 120.392 77.0701C119.318 77.6186 118.185 78.0429 117.014 78.3345C115.759 78.6461 114.469 78.8005 113.176 78.794C110.868 78.8156 108.579 78.3782 106.442 77.5072C102.367 75.8603 99.1384 72.6236 97.502 68.5438C96.6262 66.3679 96.1889 64.0403 96.2152 61.6949C96.189 59.3494 96.6263 57.0219 97.502 54.8459C99.1384 50.7663 102.367 47.5298 106.442 45.8832C108.579 45.012 110.868 44.5745 113.176 44.5961C115.256 44.6072 117.314 45.0127 119.243 45.7909C121.3 46.6142 123.096 47.9805 124.437 49.7442L121.542 51.9045C121.153 51.3251 120.689 50.7995 120.162 50.3416C119.554 49.803 118.883 49.3401 118.163 48.9628C117.395 48.558 116.586 48.2345 115.75 47.9976C114.913 47.7555 114.047 47.6317 113.176 47.6298C111.245 47.5981 109.331 47.9904 107.568 48.7789C105.969 49.5044 104.537 50.5528 103.363 51.8582C102.2 53.1674 101.302 54.6895 100.719 56.3402C99.4938 59.8048 99.4938 63.5849 100.719 67.0495C101.302 68.7002 102.2 70.2222 103.363 71.5312C104.537 72.8371 105.969 73.8856 107.568 74.6108C109.331 75.3999 111.245 75.7923 113.176 75.7603C114.031 75.7607 114.885 75.6837 115.727 75.5304C116.583 75.373 117.417 75.1105 118.209 74.7491C119.044 74.3661 119.819 73.8626 120.507 73.2548C121.281 72.5634 121.954 71.7668 122.507 70.8881L125.218 72.8186Z" fill="#244B5A"/>
<path d="M10.5708 56.0781L1.99997 47.5708L10.5073 38.9999L19.0781 47.5073L10.5708 56.0781Z" fill="url(#paint0_linear_6_3195)"/>
<path d="M33.8932 52.4459L28.8659 47.4559L33.8559 42.4286L38.8832 47.4187L33.8932 52.4459Z" fill="url(#paint1_linear_6_3195)"/>
<path d="M10.8828 42.3763L5.73096 47.5668L10.9211 52.7187L15.3121 52.7024L10.7075 48.1348L33.4444 48.0505L31.4517 50.0567L33.6472 50.0487L36.2233 47.4534L33.628 44.8777L31.4325 44.8856L33.4403 46.8774L10.7034 46.9617L15.2735 42.36L10.8828 42.3763Z" fill="#244B5A"/>
<defs>
<linearGradient id="paint0_linear_6_3195" x1="-846.512" y1="-794.659" x2="861.305" y2="-801.007" gradientUnits="userSpaceOnUse">
<stop stop-color="#72C9C9"/>
<stop offset="1" stop-color="#02B0AD"/>
</linearGradient>
<linearGradient id="paint1_linear_6_3195" x1="-468.831" y1="-446.556" x2="532.893" y2="-450.28" gradientUnits="userSpaceOnUse">
<stop stop-color="#03B6B4"/>
<stop offset="1" stop-color="#74CBCA"/>
</linearGradient>
</defs>
</svg>
