<svg width="128" height="128" viewBox="0 0 128 128" fill="none" xmlns="http://www.w3.org/2000/svg">
<path d="M7.46046 33H120.214C122.125 33 123.674 34.5492 123.674 36.4605V91.5395C123.674 93.4508 122.125 95 120.214 95H7.46046C5.54946 95 4 93.4508 4 91.5395V36.4605C4 34.5492 5.54946 33 7.46046 33Z" fill="#27415E"/>
<path d="M21.2619 73.2279V63.3871C21.3272 61.0083 22.6633 59.6397 24.1947 59.6397C26.6063 59.6397 27.095 61.6275 27.1275 63.3871V73.2279H32.0156V62.5725C32.0156 62.0185 31.9504 60.9758 31.6895 59.9656C31.103 57.5867 27.9421 56.3811 26.3129 56.3811C23.8364 56.3811 22.3049 57.3586 21.2947 58.8576L21.2295 58.7924V49.7009H16.3741V73.2279H21.2619Z" fill="white"/>
<path d="M34.1664 56.8697V60.1283H37.4575V68.177C37.4575 71.729 38.2721 73.7168 42.0847 73.7168C42.7691 73.7168 45.3758 73.4886 45.9297 73.2277V70.3602C45.4085 70.3929 44.887 70.4581 44.3658 70.4581C42.6711 70.4581 42.3453 69.8714 42.3453 67.7208V60.1283H46.0277V56.8697H42.3453V51.8839L37.4575 53.6435V56.8697H34.1664Z" fill="white"/>
<path d="M46.8423 56.8697V60.1283H50.1334V68.177C50.1334 71.729 50.948 73.7168 54.7606 73.7168C55.445 73.7168 58.0517 73.4886 58.6057 73.2277V70.3602C58.0844 70.3929 57.563 70.4581 57.0417 70.4581C55.3471 70.4581 55.0212 69.8714 55.0212 67.7208V60.1283H58.7036V56.8697H55.0212V51.8839L50.1334 53.6435V56.8697H46.8423Z" fill="white"/>
<path d="M65.905 56.8699H60.952C61.0172 57.9451 61.1149 59.053 61.1149 60.1285V79.4846H66.0027V70.9143H66.068C67.1107 72.8369 68.9355 73.7169 71.0537 73.7169C75.8438 73.7169 78.0922 69.2524 78.0922 65.049C78.0922 60.6497 75.518 56.3811 70.4345 56.3811C68.7401 56.3811 66.9805 57.3911 66.068 58.7599H66.0027L65.905 56.8699ZM66.0027 65.049C66.0027 62.8004 66.8828 59.6397 69.5223 59.6397C72.6504 59.6397 73.0415 62.5398 73.0415 65.049C73.0415 67.558 72.6504 70.4583 69.5223 70.4583C66.8828 70.4583 66.0027 67.2974 66.0027 65.049Z" fill="white"/>
<path d="M86.0106 73.2277V68.8939H81.8722V73.2277H86.0106ZM86.0106 61.171V56.8372H81.8722V61.171H86.0106Z" fill="white"/>
<path d="M101.554 49.7009H97.7744L89.8233 76.3564H93.6359L101.554 49.7009Z" fill="white"/>
<path d="M113.222 49.7009H109.442L101.491 76.3564H105.304L113.222 49.7009Z" fill="white"/>
</svg>
