<svg width="128" height="128" viewBox="0 0 128 128" fill="none" xmlns="http://www.w3.org/2000/svg">
<path d="M16.8149 103.213C16.8149 104.084 16.7975 104.805 16.7626 105.374C16.7394 105.932 16.6929 106.437 16.6232 106.89H16.6929C16.9369 106.565 17.2332 106.24 17.5817 105.914C17.9419 105.589 18.3311 105.31 18.7494 105.078C19.1792 104.834 19.6614 104.636 20.1958 104.485C20.7419 104.334 21.3403 104.259 21.9909 104.259C22.5486 104.259 23.0888 104.317 23.6117 104.433C24.1461 104.537 24.6399 104.706 25.093 104.938C25.5577 105.171 25.976 105.473 26.3478 105.845C26.7312 106.216 27.0507 106.658 27.3063 107.169C27.527 107.611 27.6897 108.11 27.7943 108.668C27.8988 109.225 27.9511 109.905 27.9511 110.707V121.564H23.8208V111.265C23.8208 110.742 23.7975 110.318 23.7511 109.992C23.7046 109.655 23.6233 109.365 23.5071 109.121C23.2631 108.61 22.9145 108.25 22.4614 108.04C22.0083 107.831 21.4913 107.727 20.9104 107.727C20.1087 107.738 19.3651 107.93 18.6797 108.302C18.0058 108.674 17.3842 109.22 16.8149 109.94V121.564H12.6846V96.3291H16.8149V103.213Z" fill="white"/>
<path d="M39.9413 122C38.245 122 36.8392 121.715 35.7238 121.146C34.6084 120.565 33.7661 119.787 33.1968 118.811C32.8947 118.288 32.6682 117.713 32.5171 117.085C32.3777 116.458 32.308 115.761 32.308 114.994V104.677H36.4383V114.558C36.4383 115.128 36.479 115.621 36.5603 116.04C36.6417 116.446 36.7637 116.801 36.9263 117.103C37.2052 117.614 37.6002 117.997 38.1114 118.253C38.6226 118.497 39.2326 118.619 39.9413 118.619C40.6849 118.619 41.3181 118.48 41.8409 118.201C42.3753 117.922 42.7762 117.498 43.0434 116.928C43.3106 116.382 43.4442 115.621 43.4442 114.645V104.677H47.5746V114.994C47.5746 116.365 47.3364 117.521 46.86 118.462C46.5928 118.997 46.2442 119.485 45.8144 119.926C45.3961 120.356 44.8965 120.728 44.3156 121.041C43.7463 121.343 43.0957 121.576 42.3637 121.738C41.6434 121.913 40.8359 122 39.9413 122Z" fill="white"/>
<path d="M68.1565 112.833C68.1565 114.355 67.9358 115.703 67.4943 116.876C67.0528 118.05 66.4718 119.014 65.7515 119.769C65.0428 120.524 64.2411 121.088 63.3465 121.46C62.4519 121.82 61.5515 122 60.6452 122C60.0062 122 59.4311 121.919 58.9199 121.756C58.4087 121.605 57.9614 121.413 57.578 121.181C57.1946 120.948 56.8693 120.704 56.602 120.449C56.3464 120.193 56.1431 119.967 55.9921 119.769H55.9224L55.5215 121.564H52.1057C52.129 121.065 52.1464 120.449 52.158 119.717C52.1812 118.973 52.1929 118.27 52.1929 117.608V96.3291H56.3232V103.352C56.3232 103.852 56.3174 104.317 56.3058 104.747C56.3058 105.165 56.3 105.49 56.2883 105.723H56.3232C56.5904 105.537 56.8809 105.357 57.1946 105.182C57.5083 105.008 57.851 104.851 58.2228 104.712C58.5946 104.572 58.9954 104.462 59.4253 104.381C59.8552 104.299 60.3083 104.259 60.7846 104.259C61.7257 104.259 62.6378 104.433 63.5208 104.781C64.4154 105.118 65.2054 105.641 65.8909 106.35C66.588 107.047 67.1399 107.947 67.5465 109.051C67.9532 110.143 68.1565 111.404 68.1565 112.833ZM63.8868 113.042C63.8868 111.985 63.7589 111.079 63.5033 110.323C63.2477 109.557 62.9108 108.976 62.4925 108.581C62.0859 108.174 61.656 107.901 61.2029 107.762C60.7614 107.622 60.3199 107.552 59.8784 107.552C59.2743 107.552 58.6585 107.674 58.0311 107.918C57.4037 108.162 56.8344 108.488 56.3232 108.894V116.981C56.4858 117.167 56.6834 117.364 56.9157 117.573C57.1597 117.771 57.4269 117.957 57.7174 118.131C58.0195 118.294 58.3448 118.433 58.6933 118.549C59.0419 118.654 59.4137 118.706 59.8087 118.706C60.4826 118.706 61.0693 118.572 61.5689 118.305C62.0801 118.026 62.5042 117.637 62.8411 117.138C63.1896 116.638 63.4511 116.045 63.6253 115.36C63.7996 114.663 63.8868 113.89 63.8868 113.042Z" fill="white"/>
<path d="M88.0588 112.833C88.0588 114.355 87.838 115.703 87.3965 116.876C86.955 118.05 86.3741 119.014 85.6538 119.769C84.9451 120.524 84.1434 121.088 83.2488 121.46C82.3542 121.82 81.4537 122 80.5475 122C79.9085 122 79.3334 121.919 78.8222 121.756C78.311 121.605 77.8637 121.413 77.4802 121.181C77.0968 120.948 76.7715 120.704 76.5043 120.449C76.2487 120.193 76.0454 119.967 75.8943 119.769H75.8246L75.4238 121.564H72.008C72.0312 121.065 72.0487 120.449 72.0603 119.717C72.0835 118.973 72.0951 118.27 72.0951 117.608V96.3291H76.2255V103.352C76.2255 103.852 76.2197 104.317 76.208 104.747C76.208 105.165 76.2022 105.49 76.1906 105.723H76.2255C76.4927 105.537 76.7831 105.357 77.0968 105.182C77.4105 105.008 77.7533 104.851 78.1251 104.712C78.4969 104.572 78.8977 104.462 79.3276 104.381C79.7575 104.299 80.2106 104.259 80.6869 104.259C81.628 104.259 82.5401 104.433 83.423 104.781C84.3177 105.118 85.1077 105.641 85.7932 106.35C86.4903 107.047 87.0422 107.947 87.4488 109.051C87.8555 110.143 88.0588 111.404 88.0588 112.833ZM83.789 113.042C83.789 111.985 83.6612 111.079 83.4056 110.323C83.15 109.557 82.8131 108.976 82.3948 108.581C81.9882 108.174 81.5583 107.901 81.1052 107.762C80.6637 107.622 80.2222 107.552 79.7807 107.552C79.1765 107.552 78.5608 107.674 77.9334 107.918C77.306 108.162 76.7367 108.488 76.2255 108.894V116.981C76.3881 117.167 76.5856 117.364 76.818 117.573C77.062 117.771 77.3292 117.957 77.6197 118.131C77.9217 118.294 78.2471 118.433 78.5956 118.549C78.9442 118.654 79.316 118.706 79.711 118.706C80.3848 118.706 80.9716 118.572 81.4712 118.305C81.9824 118.026 82.4064 117.637 82.7434 117.138C83.0919 116.638 83.3533 116.045 83.5276 115.36C83.7019 114.663 83.789 113.89 83.789 113.042Z" fill="white"/>
<path d="M91.9103 121.564V96.3291H96.0406V121.564H91.9103Z" fill="white"/>
<path d="M109.46 118.671C110.261 118.671 111.098 118.59 111.969 118.427C112.841 118.265 113.724 118.032 114.618 117.73V121.024C114.084 121.256 113.265 121.477 112.161 121.686C111.057 121.895 109.913 122 108.728 122C107.531 122 106.393 121.849 105.312 121.547C104.243 121.233 103.308 120.733 102.506 120.048C101.705 119.363 101.066 118.474 100.589 117.382C100.124 116.289 99.8921 114.965 99.8921 113.408C99.8921 111.874 100.113 110.533 100.554 109.382C100.996 108.232 101.588 107.279 102.332 106.524C103.076 105.769 103.924 105.206 104.876 104.834C105.841 104.45 106.834 104.259 107.856 104.259C108.925 104.259 109.907 104.421 110.802 104.747C111.708 105.072 112.486 105.583 113.137 106.28C113.799 106.977 114.311 107.878 114.671 108.982C115.042 110.074 115.228 111.369 115.228 112.868C115.217 113.449 115.199 113.943 115.176 114.349H104.11C104.168 115.128 104.342 115.796 104.632 116.353C104.923 116.899 105.3 117.347 105.765 117.695C106.242 118.032 106.793 118.282 107.421 118.445C108.048 118.596 108.728 118.671 109.46 118.671ZM107.804 107.483C107.281 107.483 106.817 107.581 106.41 107.779C106.003 107.965 105.649 108.226 105.347 108.563C105.056 108.889 104.824 109.272 104.65 109.713C104.476 110.155 104.359 110.626 104.301 111.125H110.941C110.941 110.626 110.871 110.155 110.732 109.713C110.604 109.272 110.407 108.889 110.14 108.563C109.884 108.226 109.559 107.965 109.164 107.779C108.78 107.581 108.327 107.483 107.804 107.483Z" fill="white"/>
<path d="M54.7737 36.9583L63.9208 26.6036C70.0042 22.5128 82.5372 33.2051 79.8403 38.8797L70.8031 50.5687C72.8234 47.2389 62.4766 34.81 54.7737 36.9583Z" fill="white"/>
<path d="M45.7295 47.3522L53.6696 38.2408C59.7531 34.15 73.9375 45.4243 70.1384 51.4088L62.33 61.5286C63.1528 59.1984 51.8035 45.7968 45.7295 47.3522Z" fill="white"/>
<path d="M30.7703 57.3344L42.6644 47.9494C48.7479 43.8593 65.6198 58.7618 61.8214 64.7434L55.1341 79.1301C56.1133 69.5792 37.3747 55.4756 30.7703 57.3344Z" fill="white"/>
<path d="M80.3635 75.9666L98.6366 52.8752L112.021 60.6036L92.1922 85.6571L80.3635 75.9666Z" fill="#8162AA"/>
<path d="M69.1953 67.0531L85.8816 45.6357L98.3549 53.231L80.3059 76.0743L69.1953 67.0531Z" fill="#6389C6"/>
<path d="M28.5254 33.6054L40.7855 18.468L52.6484 25.2885L39.1479 42.3247L28.5254 33.6054Z" fill="#98CA3F"/>
<path d="M19.8442 26.462L30.7846 12.7163L40.5916 18.3546L28.525 33.6033L19.8442 26.462Z" fill="#CBDD72"/>
<path d="M54.6397 79.5044C56.7368 77.1189 52.947 70.3588 46.1748 64.4051C39.4027 58.4514 32.2127 55.5588 30.1155 57.9442C28.0184 60.3297 31.8083 67.0898 38.5804 73.0435C45.3526 78.9972 52.5426 81.8898 54.6397 79.5044Z" fill="#F8C519"/>
<path d="M122.559 29.6349C124.614 27.2838 122.902 22.4265 118.736 18.7858C114.57 15.145 109.527 14.0996 107.473 16.4507C105.418 18.8018 107.13 23.6591 111.296 27.2999C115.462 30.9406 120.505 31.986 122.559 29.6349Z" fill="#F07525"/>
<path d="M15.5635 69.3073C17.0401 67.6176 15.8098 64.1265 12.8155 61.5098C9.82118 58.8931 6.19674 58.1416 4.72009 59.8313C3.24345 61.5211 4.47377 65.0121 7.46809 67.6289C10.4624 70.2456 14.0868 70.997 15.5635 69.3073Z" fill="#E8282B"/>
<path d="M124.965 24.0083C124.125 21.6243 122.406 19.2118 120.124 17.217C117.841 15.2221 115.221 13.8413 112.745 13.3277C109.845 12.726 107.413 13.3488 105.9 15.0802C104.387 16.8117 104.094 19.3049 105.079 22.0993C105.398 22.988 105.808 23.8413 106.303 24.6456L81.7336 34.2016C81.6666 34.0308 81.5939 33.8591 81.5153 33.6865C80.5215 31.4814 78.6889 29.2166 76.3543 27.3083C74.0197 25.4001 71.3228 24.1007 68.7321 23.6257C65.7849 23.0844 63.3179 23.7261 61.9619 25.3841L61.9706 25.3913L52.63 36.2313L48.796 33.5228L55.8049 24.6835L30.2691 10L16.9162 26.7736L39.4649 45.3013L46.1879 36.8184L49.88 39.4273L44.8754 45.2351C43.3869 45.2831 42.0716 45.7145 41.0043 46.5497L40.9905 46.533L31.4862 54.0846L14.9418 60.6395C14.7024 60.3987 14.4536 60.1637 14.1946 59.9375C12.4791 58.438 10.5003 57.3977 8.62329 57.0085C6.35417 56.5378 4.35495 57.066 3.13927 58.4577C1.9236 59.8494 1.66678 61.901 2.43649 64.0865C3.0738 65.8944 4.3695 67.7161 6.08499 69.2155C7.80047 70.7149 9.77931 71.7552 11.6563 72.1445C12.7403 72.3693 13.7661 72.3664 14.6682 72.1496C15.6569 71.9131 16.5052 71.422 17.1418 70.6945C18.3582 69.3028 18.6143 67.2512 17.8438 65.0657C17.7339 64.7549 17.6076 64.4502 17.4655 64.1527L27.4572 60.195C27.5554 61.5045 28.0494 63.1451 29.1938 65.1865C30.9057 68.2421 33.7481 71.5886 37.1965 74.6246C40.6449 77.6605 44.3334 80.0467 47.5818 81.3534C50.4191 82.4941 52.4292 82.6243 53.8551 82.2831C54.9573 82.0191 55.7089 81.4741 56.2167 80.8958C56.5488 80.5183 56.8116 80.085 56.9929 79.6161L63.7588 65.5677C64.3056 64.5188 64.5592 63.3418 64.4929 62.1608L70.9016 53.8736L74.6119 56.4927L66.2084 67.1144L92.5132 88.63L115.177 59.992L85.3573 42.9158L77.2193 53.1992L73.4704 50.5503L81.4993 40.1657L81.4826 40.1527C81.8228 39.658 82.068 39.1044 82.2057 38.5201L109.051 28.0788C109.332 28.3557 109.623 28.6261 109.924 28.89C112.206 30.8848 114.826 32.2664 117.302 32.78C118.71 33.071 120.007 33.0754 121.143 32.8033C122.346 32.5123 123.369 31.9179 124.148 31.0267C125.658 29.2952 125.95 26.8027 124.965 24.0083ZM13.9814 67.9329C13.86 68.0711 13.3674 68.213 12.5082 68.0347C11.3442 67.7932 10.0092 67.0715 8.84591 66.0552C7.68261 65.0388 6.78922 63.8122 6.39418 62.6911C6.10317 61.8625 6.17593 61.3561 6.29815 61.2172C6.37996 61.1438 6.48085 61.0952 6.58916 61.0768C6.83869 61.0171 7.23228 61.004 7.76991 61.1153C8.93394 61.3568 10.2682 62.0785 11.4315 63.0949C12.5955 64.1134 13.4889 65.3378 13.884 66.4589C14.1771 67.2868 14.1022 67.7939 13.9814 67.9329ZM108.863 61.2106L91.8693 82.6833L83.2846 75.6591L99.1285 55.6371L108.863 61.2106ZM86.4064 48.3518L95.4436 53.5266L80.0312 73.0008L72.0583 66.48L86.4064 48.3518ZM22.7757 26.1552L31.3029 15.436L37.4366 18.963L28.2102 30.6229L22.7757 26.1552ZM38.829 39.3487L31.452 33.2849L41.1142 21.0772L49.4915 25.8941L38.829 39.3487ZM53.0643 78.1254C52.9043 78.2571 51.6922 78.5277 48.9211 77.3688C46.15 76.2098 42.9737 74.1182 39.9661 71.4759C36.9586 68.8335 34.4748 65.9468 32.9733 63.3495C31.4615 60.7355 31.583 59.5002 31.6899 59.3387C31.7473 59.3 31.8123 59.274 31.8805 59.2623C32.3323 59.1539 33.5538 59.1408 35.8353 60.0939C36.5874 60.4107 37.322 60.7675 38.036 61.1626C37.6344 62.8359 39.3361 65.8471 42.2738 68.429C45.2799 71.0728 48.5668 72.3744 50.131 71.6549C50.7307 72.4404 51.2815 73.2621 51.7803 74.1153C53.2877 76.7133 53.1749 77.9493 53.0643 78.1246V78.1254ZM46.8492 62.2211C43.6088 59.4799 40.2019 57.3228 37.1732 56.1056C36.8225 55.9645 36.4845 55.8386 36.159 55.7281L43.507 49.8919L43.5208 49.9079C44.1959 49.3259 45.5367 49.2713 47.1998 49.7668C49.242 50.3743 51.6159 51.7587 53.9163 53.6772L46.8492 62.2211ZM54.3426 48.7279C52.7246 47.6053 51.1335 46.7447 49.6137 46.1583L55.1669 39.7125C55.5524 39.396 56.5586 39.2032 58.034 39.471C59.0914 39.6781 60.1159 40.0275 61.0794 40.5099L54.3426 48.7279ZM58.9128 35.3678L65.2255 28.0468L65.2168 28.0388C65.4496 27.7623 66.3706 27.4619 67.9762 27.7558C69.018 27.9471 70.1231 28.3472 71.2013 28.9103L64.012 37.3197C62.3525 36.3652 60.613 35.6952 58.915 35.3678H58.9128ZM120.985 28.265C120.031 29.3563 116.323 28.9118 112.682 25.7304C109.042 22.5489 108.105 18.9324 109.059 17.8412C109.242 17.6316 109.528 17.4774 109.894 17.3908C111.437 17.0213 114.422 17.8055 117.362 20.3737C121.003 23.558 121.936 27.1738 120.985 28.265Z" fill="#373737"/>
</svg>
