<svg width="128" height="128" viewBox="0 0 128 128" fill="none" xmlns="http://www.w3.org/2000/svg">
<path d="M62.6821 60.4702C62.6821 61.0361 62.6708 61.5039 62.6482 61.8735C62.6331 62.2357 62.6029 62.5639 62.5577 62.8581H62.6029C62.7614 62.6469 62.9537 62.4356 63.1801 62.2244C63.414 62.0131 63.6667 61.832 63.9383 61.6812C64.2175 61.5227 64.5306 61.3945 64.8776 61.2964C65.2322 61.1983 65.6208 61.1493 66.0433 61.1493C66.4054 61.1493 66.7563 61.187 67.0958 61.2624C67.4428 61.3303 67.7635 61.4397 68.0577 61.5906C68.3595 61.7415 68.6311 61.9377 68.8726 62.1791C69.1215 62.4205 69.329 62.7072 69.495 63.0392C69.6384 63.3259 69.744 63.6503 69.8119 64.0125C69.8798 64.3746 69.9137 64.816 69.9137 65.3366V72.3871H67.2316V65.6987C67.2316 65.3592 67.2165 65.0838 67.1863 64.8726C67.1561 64.6538 67.1033 64.4651 67.0279 64.3067C66.8694 63.9747 66.6431 63.7409 66.3489 63.6051C66.0546 63.4692 65.7189 63.4013 65.3416 63.4013C64.8211 63.4089 64.3382 63.5334 63.8931 63.7748C63.4555 64.0162 63.0518 64.3708 62.6821 64.8386V72.3871H60V56H62.6821V60.4702Z" fill="black"/>
<path d="M77.6999 72.67C76.5983 72.67 75.6854 72.4852 74.9611 72.1155C74.2368 71.7382 73.6899 71.2327 73.3202 70.599C73.124 70.2595 72.9769 69.886 72.8788 69.4786C72.7883 69.0712 72.743 68.6185 72.743 68.1205V61.4209H75.4251V67.8376C75.4251 68.2073 75.4515 68.528 75.5044 68.7996C75.5572 69.0636 75.6364 69.2937 75.742 69.4899C75.9231 69.8219 76.1796 70.0709 76.5116 70.2368C76.8435 70.3953 77.2396 70.4745 77.6999 70.4745C78.1827 70.4745 78.5939 70.384 78.9334 70.2029C79.2805 70.0218 79.5408 69.7464 79.7143 69.3767C79.8878 69.0221 79.9746 68.528 79.9746 67.8942V61.4209H82.6567V68.1205C82.6567 69.0108 82.5021 69.7615 82.1927 70.3726C82.0192 70.7197 81.7929 71.0366 81.5137 71.3233C81.2421 71.6024 80.9177 71.8439 80.5404 72.0476C80.1708 72.2437 79.7482 72.3946 79.2729 72.5002C78.8052 72.6134 78.2808 72.67 77.6999 72.67Z" fill="black"/>
<path d="M96.0222 66.7172C96.0222 67.7056 95.8788 68.5808 95.5921 69.3428C95.3054 70.1048 94.9282 70.731 94.4604 71.2214C94.0002 71.7118 93.4796 72.0777 92.8987 72.3192C92.3177 72.5531 91.733 72.67 91.1445 72.67C90.7296 72.67 90.3561 72.6172 90.0241 72.5116C89.6922 72.4135 89.4017 72.289 89.1527 72.1381C88.9037 71.9872 88.6925 71.8288 88.519 71.6628C88.353 71.4968 88.2209 71.3497 88.1229 71.2214H88.0776L87.8173 72.3871H85.5992C85.6143 72.0627 85.6256 71.6628 85.6331 71.1875C85.6482 70.7046 85.6557 70.2482 85.6557 69.8181V56H88.3379V60.5608C88.3379 60.8852 88.3341 61.187 88.3266 61.4661C88.3266 61.7377 88.3228 61.949 88.3153 62.0999H88.3379C88.5114 61.9792 88.7 61.8622 88.9037 61.7491C89.1074 61.6359 89.33 61.534 89.5714 61.4435C89.8129 61.353 90.0732 61.2813 90.3523 61.2285C90.6315 61.1757 90.9257 61.1493 91.2351 61.1493C91.8462 61.1493 92.4384 61.2624 93.0118 61.4888C93.5928 61.7076 94.1058 62.0471 94.5509 62.5073C95.0036 62.96 95.362 63.5447 95.6261 64.2614C95.8901 64.9706 96.0222 65.7892 96.0222 66.7172ZM93.2495 66.853C93.2495 66.1665 93.1665 65.578 93.0005 65.0876C92.8345 64.5896 92.6157 64.2124 92.3441 63.9559C92.0801 63.6918 91.8009 63.5145 91.5067 63.424C91.22 63.3334 90.9333 63.2882 90.6466 63.2882C90.2542 63.2882 89.8544 63.3674 89.447 63.5258C89.0395 63.6843 88.6699 63.8955 88.3379 64.1596V69.4107C88.4435 69.5314 88.5718 69.6597 88.7227 69.7955C88.8811 69.9237 89.0546 70.0444 89.2432 70.1576C89.4394 70.2632 89.6507 70.3538 89.877 70.4292C90.1033 70.4971 90.3448 70.5311 90.6013 70.5311C91.0389 70.5311 91.4199 70.4443 91.7443 70.2708C92.0763 70.0897 92.3517 69.837 92.5705 69.5125C92.7968 69.1881 92.9666 68.8033 93.0797 68.3582C93.1929 67.9055 93.2495 67.4038 93.2495 66.853Z" fill="black"/>
<path d="M108.946 66.7172C108.946 67.7056 108.803 68.5808 108.516 69.3428C108.229 70.1048 107.852 70.731 107.384 71.2214C106.924 71.7118 106.404 72.0777 105.823 72.3192C105.242 72.5531 104.657 72.67 104.069 72.67C103.654 72.67 103.28 72.6172 102.948 72.5116C102.616 72.4135 102.326 72.289 102.077 72.1381C101.828 71.9872 101.617 71.8288 101.443 71.6628C101.277 71.4968 101.145 71.3497 101.047 71.2214H101.002L100.741 72.3871H98.5232C98.5383 72.0627 98.5496 71.6628 98.5572 71.1875C98.5723 70.7046 98.5798 70.2482 98.5798 69.8181V56H101.262V60.5608C101.262 60.8852 101.258 61.187 101.251 61.4661C101.251 61.7377 101.247 61.949 101.239 62.0999H101.262C101.435 61.9792 101.624 61.8622 101.828 61.7491C102.032 61.6359 102.254 61.534 102.496 61.4435C102.737 61.353 102.997 61.2813 103.276 61.2285C103.556 61.1757 103.85 61.1493 104.159 61.1493C104.77 61.1493 105.362 61.2624 105.936 61.4888C106.517 61.7076 107.03 62.0471 107.475 62.5073C107.928 62.96 108.286 63.5447 108.55 64.2614C108.814 64.9706 108.946 65.7892 108.946 66.7172ZM106.174 66.853C106.174 66.1665 106.091 65.578 105.925 65.0876C105.759 64.5896 105.54 64.2124 105.268 63.9559C105.004 63.6918 104.725 63.5145 104.431 63.424C104.144 63.3334 103.857 63.2882 103.571 63.2882C103.178 63.2882 102.778 63.3674 102.371 63.5258C101.964 63.6843 101.594 63.8955 101.262 64.1596V69.4107C101.368 69.5314 101.496 69.6597 101.647 69.7955C101.805 69.9237 101.979 70.0444 102.167 70.1576C102.363 70.2632 102.575 70.3538 102.801 70.4292C103.027 70.4971 103.269 70.5311 103.525 70.5311C103.963 70.5311 104.344 70.4443 104.668 70.2708C105 70.0897 105.276 69.837 105.495 69.5125C105.721 69.1881 105.891 68.8033 106.004 68.3582C106.117 67.9055 106.174 67.4038 106.174 66.853Z" fill="black"/>
<path d="M111.447 72.3871V56H114.129V72.3871H111.447Z" fill="black"/>
<path d="M122.844 70.5084C123.364 70.5084 123.907 70.4556 124.473 70.35C125.039 70.2444 125.612 70.0935 126.193 69.8973V72.0362C125.846 72.1871 125.314 72.3305 124.598 72.4663C123.881 72.6021 123.138 72.67 122.368 72.67C121.591 72.67 120.852 72.5719 120.15 72.3758C119.456 72.1721 118.849 71.8476 118.328 71.4025C117.807 70.9574 117.393 70.3802 117.083 69.671C116.781 68.9618 116.631 68.1017 116.631 67.0907C116.631 66.0948 116.774 65.2234 117.061 64.4765C117.347 63.7295 117.732 63.1109 118.215 62.6205C118.698 62.1301 119.249 61.7641 119.867 61.5227C120.493 61.2737 121.138 61.1493 121.802 61.1493C122.497 61.1493 123.134 61.2549 123.715 61.4661C124.303 61.6774 124.809 62.0093 125.231 62.462C125.662 62.9147 125.993 63.4994 126.227 64.2162C126.469 64.9254 126.59 65.7666 126.59 66.7399C126.582 67.1171 126.571 67.4378 126.556 67.7018H119.369C119.407 68.2073 119.52 68.6411 119.709 69.0033C119.897 69.3579 120.143 69.6483 120.444 69.8747C120.754 70.0935 121.112 70.2557 121.519 70.3613C121.927 70.4594 122.368 70.5084 122.844 70.5084ZM121.768 63.2429C121.429 63.2429 121.127 63.307 120.863 63.4353C120.599 63.556 120.369 63.7258 120.173 63.9446C119.984 64.1558 119.833 64.4048 119.72 64.6915C119.607 64.9782 119.531 65.2837 119.494 65.6082H123.806C123.806 65.2837 123.76 64.9782 123.67 64.6915C123.587 64.4048 123.458 64.1558 123.285 63.9446C123.119 63.7258 122.908 63.556 122.651 63.4353C122.402 63.307 122.108 63.2429 121.768 63.2429Z" fill="black"/>
<path d="M55.1561 52.1695C54.786 51.1195 54.0289 50.057 53.0238 49.1785C52.0183 48.2999 50.8645 47.6918 49.7742 47.4656C48.4967 47.2006 47.4259 47.4749 46.7594 48.2374C46.093 49 45.9642 50.0981 46.3977 51.3288C46.5383 51.7201 46.719 52.096 46.9369 52.4502L36.116 56.6588C36.0866 56.5836 36.0545 56.508 36.0199 56.4319C35.5822 55.4608 34.7751 54.4633 33.7469 53.6229C32.7187 52.7825 31.531 52.2102 30.39 52.001C29.092 51.7626 28.0055 52.0452 27.4082 52.7754L27.4121 52.7786L23.2983 57.5527L21.6098 56.3598L24.6966 52.4669L13.4502 46L7.56937 53.3874L17.5002 61.5473L20.4611 57.8113L22.0872 58.9603L19.8831 61.5181C19.2275 61.5393 18.6482 61.7293 18.1782 62.0971L18.1721 62.0897L13.9862 65.4156L6.69978 68.3025C6.59436 68.1965 6.48478 68.093 6.37072 67.9933C5.61519 67.333 4.74367 66.8748 3.91701 66.7033C2.91765 66.496 2.03716 66.7287 1.50176 67.3416C0.96635 67.9545 0.853245 68.8581 1.19224 69.8206C1.47292 70.6168 2.04357 71.4191 2.7991 72.0795C3.55463 72.7399 4.42614 73.1981 5.2528 73.3695C5.73022 73.4685 6.18199 73.4672 6.5793 73.3717C7.01474 73.2676 7.38834 73.0513 7.6687 72.7309C8.20443 72.118 8.31721 71.2144 7.9779 70.2519C7.92948 70.115 7.87387 69.9808 7.81128 69.8498L12.2118 68.1067C12.2551 68.6835 12.4726 69.406 12.9766 70.3051C13.7305 71.6508 14.9824 73.1247 16.5011 74.4618C18.0199 75.7988 19.6444 76.8498 21.075 77.4252C22.3246 77.9277 23.2099 77.985 23.8379 77.8347C24.3233 77.7184 24.6543 77.4784 24.878 77.2237C25.0242 77.0575 25.14 76.8667 25.2198 76.6601L28.1996 70.473C28.4405 70.011 28.5522 69.4926 28.5229 68.9725L31.3454 65.3227L32.9795 66.4762L29.2785 71.1542L40.8636 80.63L50.8453 68.0173L37.712 60.4967L34.1279 65.0257L32.4768 63.8591L36.0129 59.2855L36.0055 59.2797C36.1553 59.0619 36.2633 58.8181 36.324 58.5607L48.1471 53.9622C48.2708 54.0842 48.399 54.2033 48.5316 54.3195C49.5368 55.198 50.6906 55.8065 51.7809 56.0327C52.4012 56.1609 52.9725 56.1628 53.4727 56.043C54.0026 55.9148 54.4528 55.653 54.796 55.2605C55.4611 54.4979 55.5896 53.4002 55.1561 52.1695ZM6.27683 71.5146C6.22333 71.5755 6.00641 71.638 5.628 71.5595C5.11535 71.4531 4.52739 71.1353 4.01506 70.6877C3.50272 70.24 3.10926 69.6998 2.93527 69.2061C2.80711 68.8411 2.83915 68.6181 2.89298 68.5569C2.92901 68.5246 2.97344 68.5032 3.02114 68.4951C3.13104 68.4688 3.30439 68.463 3.54117 68.5121C4.05383 68.6184 4.64146 68.9363 5.1538 69.3839C5.66645 69.8325 6.05992 70.3717 6.2339 70.8655C6.36303 71.2301 6.33002 71.4534 6.27683 71.5146ZM48.0641 68.554L40.58 78.011L36.7991 74.9174L43.7771 66.0994L48.0641 68.554ZM38.174 62.8908L42.1542 65.1699L35.3663 73.7466L31.8549 70.8748L38.174 62.8908ZM10.15 53.115L13.9055 48.3941L16.6069 49.9475L12.5434 55.0827L10.15 53.115ZM17.2201 58.9257L13.9712 56.2551L18.2265 50.8786L21.9161 53L17.2201 58.9257ZM23.4896 76.0036C23.4191 76.0616 22.8853 76.1808 21.6649 75.6704C20.4444 75.1599 19.0455 74.2388 17.7209 73.075C16.3964 71.9113 15.3025 70.6399 14.6412 69.496C13.9753 68.3448 14.0288 67.8008 14.0759 67.7296C14.1012 67.7126 14.1298 67.7011 14.1599 67.696C14.3589 67.6482 14.8968 67.6425 15.9016 68.0622C16.2329 68.2018 16.5564 68.3589 16.8709 68.5329C16.694 69.2698 17.4435 70.596 18.7373 71.7332C20.0612 72.8975 21.5088 73.4707 22.1977 73.1539C22.4618 73.4998 22.7044 73.8617 22.9241 74.2375C23.588 75.3817 23.5383 75.926 23.4896 76.0033V76.0036ZM20.7523 68.9991C19.3252 67.7918 17.8248 66.8418 16.4909 66.3057C16.3364 66.2436 16.1876 66.1881 16.0442 66.1394L19.2804 63.5691L19.2865 63.5761C19.5838 63.3198 20.1743 63.2958 20.9068 63.514C21.8062 63.7815 22.8517 64.3913 23.8648 65.2362L20.7523 68.9991ZM24.0526 63.0564C23.34 62.562 22.6392 62.183 21.9699 61.9247L24.4156 59.0859C24.5854 58.9465 25.0285 58.8616 25.6783 58.9795C26.144 59.0707 26.5952 59.2246 27.0196 59.4371L24.0526 63.0564ZM26.0654 57.1724L28.8456 53.9481L28.8417 53.9446C28.9443 53.8228 29.3499 53.6905 30.0571 53.8199C30.5159 53.9042 31.0026 54.0804 31.4774 54.3284L28.3112 58.0321C27.5803 57.6117 26.8142 57.3166 26.0664 57.1724H26.0654ZM53.4031 54.0442C52.9831 54.5248 51.3496 54.3291 49.7463 52.9279C48.143 51.5268 47.7306 49.934 48.1507 49.4534C48.2314 49.3611 48.357 49.2932 48.5185 49.2551C49.1978 49.0923 50.5124 49.4377 51.8075 50.5687C53.4108 51.9712 53.8219 53.5636 53.4031 54.0442Z" fill="black"/>
</svg>
