<svg width="128" height="128" viewBox="0 0 128 128" fill="none" xmlns="http://www.w3.org/2000/svg">
<path d="M8.83345 59.0448C8.83345 60.0631 8.81305 60.905 8.77226 61.5703C8.74507 62.222 8.69069 62.8126 8.60911 63.3422H8.69069C8.97621 62.962 9.32291 62.5818 9.7308 62.2016C10.1523 61.8215 10.6077 61.4956 11.0972 61.224C11.6003 60.9389 12.1645 60.7081 12.7899 60.5316C13.429 60.3551 14.1292 60.2668 14.8906 60.2668C15.5432 60.2668 16.1754 60.3347 16.7872 60.4705C17.4126 60.5927 17.9905 60.7895 18.5207 61.0611C19.0646 61.3327 19.554 61.6857 19.9891 62.1202C20.4378 62.5547 20.8117 63.0706 21.1108 63.668C21.3691 64.184 21.5595 64.7678 21.6818 65.4196C21.8042 66.0713 21.8654 66.8656 21.8654 67.8024V80.4908H17.032V68.4542C17.032 67.8432 17.0048 67.3476 16.9504 66.9674C16.896 66.5737 16.8008 66.2342 16.6649 65.9491C16.3793 65.3517 15.9714 64.9308 15.4412 64.6864C14.9109 64.442 14.3059 64.3198 13.6261 64.3198C12.688 64.3333 11.8178 64.5574 11.0156 64.9919C10.2271 65.4263 9.49966 66.0645 8.83345 66.9063V80.4908H4V51H8.83345V59.0448Z" fill="white"/>
<path d="M35.8967 81C33.9116 81 32.2665 80.6673 30.9613 80.002C29.656 79.3232 28.6703 78.4134 28.0041 77.2729C27.6506 76.6619 27.3855 75.9898 27.2087 75.2566C27.0455 74.5234 26.964 73.7088 26.964 72.8126V60.7556H31.7974V72.3035C31.7974 72.9688 31.845 73.5458 31.9402 74.0346C32.0354 74.5098 32.1781 74.924 32.3685 75.277C32.6948 75.8744 33.157 76.3225 33.7553 76.6212C34.3535 76.9063 35.0673 77.0489 35.8967 77.0489C36.7668 77.0489 37.5078 76.8859 38.1196 76.5601C38.7451 76.2342 39.2141 75.7386 39.5269 75.0733C39.8396 74.4352 39.9959 73.5458 39.9959 72.4053V60.7556H44.8294V72.8126C44.8294 74.4148 44.5506 75.7658 43.9932 76.8656C43.6805 77.4902 43.2726 78.0604 42.7695 78.5764C42.2801 79.0788 41.6954 79.5132 41.0156 79.8798C40.3494 80.2329 39.588 80.5044 38.7315 80.6945C37.8885 80.8982 36.9436 81 35.8967 81Z" fill="white"/>
<path d="M68.915 70.2872C68.915 72.0659 68.6567 73.6409 68.14 75.0122C67.6234 76.3836 66.9436 77.5105 66.1006 78.3931C65.2712 79.2756 64.3331 79.9341 63.2862 80.3686C62.2393 80.7895 61.1856 81 60.1251 81C59.3773 81 58.7043 80.905 58.1061 80.7149C57.5078 80.5384 56.9844 80.3143 56.5357 80.0428C56.087 79.7712 55.7063 79.4861 55.3936 79.1874C55.0945 78.8887 54.8566 78.6239 54.6798 78.3931H54.5982L54.1292 80.4908H50.1319C50.1591 79.907 50.1795 79.1874 50.1931 78.332C50.2203 77.463 50.2339 76.6415 50.2339 75.8676V51H55.0673V59.2077C55.0673 59.7916 55.0605 60.3347 55.0469 60.8371C55.0469 61.3259 55.0401 61.706 55.0265 61.9776H55.0673C55.38 61.7604 55.7199 61.5499 56.087 61.3462C56.4541 61.1426 56.8552 60.9593 57.2903 60.7963C57.7254 60.6334 58.1944 60.5044 58.6975 60.4094C59.2005 60.3143 59.7308 60.2668 60.2882 60.2668C61.3895 60.2668 62.4568 60.4705 63.4901 60.8778C64.537 61.2716 65.4616 61.8826 66.2638 62.7108C67.0795 63.5255 67.7254 64.5777 68.2012 65.8676C68.6771 67.1439 68.915 68.6171 68.915 70.2872ZM63.9184 70.5316C63.9184 69.296 63.7689 68.2369 63.4697 67.3544C63.1706 66.4582 62.7763 65.7794 62.2869 65.3177C61.811 64.8425 61.308 64.5234 60.7777 64.3605C60.261 64.1976 59.7444 64.1161 59.2277 64.1161C58.5207 64.1161 57.8001 64.2587 57.0659 64.5438C56.3317 64.8289 55.6655 65.2091 55.0673 65.6843V75.1344C55.2576 75.3517 55.4888 75.5825 55.7607 75.8269C56.0462 76.0577 56.3589 76.2749 56.6988 76.4786C57.0523 76.6687 57.433 76.8316 57.8409 76.9674C58.2488 77.0896 58.6839 77.1507 59.1462 77.1507C59.9347 77.1507 60.6213 76.9946 61.206 76.6823C61.8042 76.3564 62.3005 75.9016 62.6948 75.3177C63.1027 74.7339 63.4086 74.0414 63.6125 73.2403C63.8165 72.4257 63.9184 71.5227 63.9184 70.5316Z" fill="white"/>
<path d="M92.2053 70.2872C92.2053 72.0659 91.947 73.6409 91.4303 75.0122C90.9137 76.3836 90.2339 77.5105 89.3909 78.3931C88.5615 79.2756 87.6234 79.9341 86.5765 80.3686C85.5296 80.7895 84.4759 81 83.4154 81C82.6676 81 81.9946 80.905 81.3963 80.7149C80.7981 80.5384 80.2746 80.3143 79.826 80.0428C79.3773 79.7712 78.9966 79.4861 78.6839 79.1874C78.3848 78.8887 78.1468 78.6239 77.9701 78.3931H77.8885L77.4194 80.4908H73.4222C73.4494 79.907 73.4697 79.1874 73.4833 78.332C73.5105 77.463 73.5241 76.6415 73.5241 75.8676V51H78.3576V59.2077C78.3576 59.7916 78.3508 60.3347 78.3372 60.8371C78.3372 61.3259 78.3304 61.706 78.3168 61.9776H78.3576C78.6703 61.7604 79.0102 61.5499 79.3773 61.3462C79.7444 61.1426 80.1455 60.9593 80.5806 60.7963C81.0156 60.6334 81.4847 60.5044 81.9878 60.4094C82.4908 60.3143 83.0211 60.2668 83.5785 60.2668C84.6798 60.2668 85.7471 60.4705 86.7804 60.8778C87.8273 61.2716 88.7519 61.8826 89.554 62.7108C90.3698 63.5255 91.0156 64.5777 91.4915 65.8676C91.9674 67.1439 92.2053 68.6171 92.2053 70.2872ZM87.2087 70.5316C87.2087 69.296 87.0591 68.2369 86.76 67.3544C86.4609 66.4582 86.0666 65.7794 85.5772 65.3177C85.1013 64.8425 84.5982 64.5234 84.068 64.3605C83.5513 64.1976 83.0347 64.1161 82.518 64.1161C81.811 64.1161 81.0904 64.2587 80.3562 64.5438C79.622 64.8289 78.9558 65.2091 78.3576 65.6843V75.1344C78.5479 75.3517 78.7791 75.5825 79.051 75.8269C79.3365 76.0577 79.6492 76.2749 79.9891 76.4786C80.3426 76.6687 80.7233 76.8316 81.1312 76.9674C81.5391 77.0896 81.9742 77.1507 82.4364 77.1507C83.225 77.1507 83.9116 76.9946 84.4963 76.6823C85.0945 76.3564 85.5908 75.9016 85.985 75.3177C86.3929 74.7339 86.6988 74.0414 86.9028 73.2403C87.1067 72.4257 87.2087 71.5227 87.2087 70.5316Z" fill="white"/>
<path d="M96.7124 80.4908V51H101.546V80.4908H96.7124Z" fill="white"/>
<path d="M117.249 77.11C118.188 77.11 119.167 77.0149 120.186 76.8248C121.206 76.6348 122.239 76.3632 123.286 76.0102V79.8595C122.661 80.131 121.702 80.389 120.411 80.6334C119.119 80.8778 117.78 81 116.393 81C114.993 81 113.66 80.8235 112.396 80.4705C111.145 80.1039 110.05 79.52 109.112 78.7189C108.174 77.9179 107.426 76.8792 106.869 75.6029C106.325 74.3265 106.053 72.7787 106.053 70.9593C106.053 69.167 106.311 67.5988 106.828 66.2546C107.345 64.9104 108.038 63.797 108.908 62.9145C109.778 62.0319 110.771 61.3734 111.886 60.9389C113.014 60.4908 114.177 60.2668 115.373 60.2668C116.624 60.2668 117.773 60.4569 118.82 60.8371C119.88 61.2172 120.791 61.8147 121.553 62.6293C122.328 63.444 122.926 64.4963 123.347 65.7862C123.782 67.0625 124 68.5764 124 70.3279C123.986 71.0068 123.966 71.5838 123.939 72.0591H110.988C111.056 72.9688 111.26 73.7495 111.6 74.4012C111.94 75.0394 112.382 75.5621 112.926 75.9694C113.483 76.3632 114.129 76.6551 114.863 76.8452C115.598 77.0217 116.393 77.11 117.249 77.11ZM115.312 64.0346C114.7 64.0346 114.156 64.15 113.68 64.3809C113.205 64.5981 112.79 64.9036 112.436 65.2974C112.097 65.6775 111.825 66.1256 111.621 66.6415C111.417 67.1575 111.281 67.7074 111.213 68.2912H118.983C118.983 67.7074 118.901 67.1575 118.738 66.6415C118.589 66.1256 118.358 65.6775 118.045 65.2974C117.746 64.9036 117.365 64.5981 116.903 64.3809C116.454 64.15 115.924 64.0346 115.312 64.0346Z" fill="white"/>
</svg>
