<svg width="128" height="128" viewBox="0 0 128 128" fill="none" xmlns="http://www.w3.org/2000/svg">
<path d="M124.965 39.0083C124.125 36.6243 122.406 34.2118 120.124 32.217C117.841 30.2221 115.221 28.8413 112.745 28.3277C109.845 27.726 107.413 28.3488 105.9 30.0802C104.387 31.8117 104.094 34.3049 105.079 37.0993C105.398 37.988 105.808 38.8413 106.303 39.6456L81.7336 49.2016C81.6666 49.0308 81.5939 48.8591 81.5153 48.6865C80.5215 46.4814 78.6889 44.2166 76.3543 42.3083C74.0197 40.4001 71.3228 39.1007 68.7321 38.6257C65.7849 38.0844 63.3179 38.7261 61.9619 40.3841L61.9706 40.3913L52.63 51.2313L48.796 48.5228L55.8049 39.6835L30.2691 25L16.9162 41.7736L39.4649 60.3013L46.1879 51.8184L49.88 54.4273L44.8754 60.2351C43.3869 60.2831 42.0716 60.7145 41.0043 61.5497L40.9905 61.533L31.4862 69.0846L14.9418 75.6395C14.7024 75.3987 14.4536 75.1637 14.1946 74.9375C12.4791 73.438 10.5003 72.3977 8.62329 72.0085C6.35417 71.5378 4.35495 72.066 3.13927 73.4577C1.9236 74.8494 1.66678 76.901 2.43649 79.0865C3.0738 80.8944 4.3695 82.7161 6.08499 84.2155C7.80047 85.7149 9.77931 86.7552 11.6563 87.1445C12.7403 87.3693 13.7661 87.3664 14.6682 87.1496C15.6569 86.9131 16.5052 86.422 17.1418 85.6945C18.3582 84.3028 18.6143 82.2512 17.8438 80.0657C17.7339 79.7549 17.6076 79.4502 17.4655 79.1527L27.4572 75.195C27.5554 76.5045 28.0494 78.1451 29.1938 80.1865C30.9057 83.2421 33.7481 86.5886 37.1965 89.6246C40.6449 92.6605 44.3334 95.0467 47.5818 96.3534C50.4191 97.4941 52.4292 97.6243 53.8551 97.2831C54.9573 97.0191 55.7089 96.4741 56.2167 95.8958C56.5488 95.5183 56.8116 95.085 56.9929 94.6161L63.7588 80.5677C64.3056 79.5188 64.5592 78.3418 64.4929 77.1608L70.9016 68.8736L74.6119 71.4927L66.2084 82.1144L92.5132 103.63L115.177 74.992L85.3573 57.9158L77.2193 68.1992L73.4704 65.5503L81.4993 55.1657L81.4826 55.1527C81.8228 54.658 82.068 54.1044 82.2057 53.5201L109.051 43.0788C109.332 43.3557 109.623 43.6261 109.924 43.89C112.206 45.8848 114.826 47.2664 117.302 47.78C118.71 48.071 120.007 48.0754 121.143 47.8033C122.346 47.5123 123.369 46.9179 124.148 46.0267C125.658 44.2952 125.95 41.8027 124.965 39.0083ZM13.9814 82.9329C13.86 83.0711 13.3674 83.213 12.5082 83.0347C11.3442 82.7932 10.0092 82.0715 8.84591 81.0552C7.68261 80.0388 6.78922 78.8122 6.39418 77.6911C6.10317 76.8625 6.17593 76.3561 6.29815 76.2172C6.37996 76.1438 6.48085 76.0952 6.58916 76.0768C6.83869 76.0171 7.23228 76.004 7.76991 76.1153C8.93394 76.3568 10.2682 77.0785 11.4315 78.0949C12.5955 79.1134 13.4889 80.3378 13.884 81.4589C14.1771 82.2868 14.1022 82.7939 13.9814 82.9329ZM108.863 76.2106L91.8693 97.6833L83.2846 90.6591L99.1285 70.6371L108.863 76.2106ZM86.4064 63.3518L95.4436 68.5266L80.0312 88.0008L72.0583 81.48L86.4064 63.3518ZM22.7757 41.1552L31.3029 30.436L37.4366 33.963L28.2102 45.6229L22.7757 41.1552ZM38.829 54.3487L31.452 48.2849L41.1142 36.0772L49.4915 40.8941L38.829 54.3487ZM53.0643 93.1254C52.9043 93.2571 51.6922 93.5277 48.9211 92.3688C46.15 91.2098 42.9737 89.1182 39.9661 86.4759C36.9586 83.8335 34.4748 80.9468 32.9733 78.3495C31.4615 75.7355 31.583 74.5002 31.6899 74.3387C31.7473 74.3 31.8123 74.274 31.8805 74.2623C32.3323 74.1539 33.5538 74.1408 35.8353 75.0939C36.5874 75.4107 37.322 75.7675 38.036 76.1626C37.6344 77.8359 39.3361 80.8471 42.2738 83.429C45.2799 86.0728 48.5668 87.3744 50.131 86.6549C50.7307 87.4404 51.2815 88.2621 51.7803 89.1153C53.2877 91.7133 53.1749 92.9493 53.0643 93.1246V93.1254ZM46.8492 77.2211C43.6088 74.4799 40.2019 72.3228 37.1732 71.1056C36.8225 70.9645 36.4845 70.8386 36.159 70.7281L43.507 64.8919L43.5208 64.9079C44.1959 64.3259 45.5367 64.2713 47.1998 64.7668C49.242 65.3743 51.6159 66.7587 53.9163 68.6772L46.8492 77.2211ZM54.3426 63.7279C52.7246 62.6053 51.1335 61.7447 49.6137 61.1583L55.1669 54.7125C55.5524 54.396 56.5586 54.2032 58.034 54.471C59.0914 54.6781 60.1159 55.0275 61.0794 55.5099L54.3426 63.7279ZM58.9128 50.3678L65.2255 43.0468L65.2168 43.0388C65.4496 42.7623 66.3706 42.4619 67.9762 42.7558C69.018 42.9471 70.1231 43.3472 71.2013 43.9103L64.012 52.3197C62.3525 51.3652 60.613 50.6952 58.915 50.3678H58.9128ZM120.985 43.265C120.031 44.3563 116.323 43.9118 112.682 40.7304C109.042 37.5489 108.105 33.9324 109.059 32.8412C109.242 32.6316 109.528 32.4774 109.894 32.3908C111.437 32.0213 114.422 32.8055 117.362 35.3737C121.003 38.558 121.936 42.1738 120.985 43.265Z" fill="#373737"/>
</svg>
