<svg width="128" height="128" viewBox="0 0 128 128" fill="none" xmlns="http://www.w3.org/2000/svg">
<path d="M42.9323 102.12C38.5727 98.8307 35.0519 94.5577 32.6568 89.6493C30.2617 84.741 29.06 79.3362 29.1496 73.8754C29.2392 68.4146 30.6176 63.0522 33.1724 58.2251C35.7273 53.398 39.3864 49.2428 43.8516 46.0979C48.3168 42.953 53.4617 40.9075 58.8673 40.1279C64.2729 39.3484 69.7862 39.8569 74.958 41.6121C80.1298 43.3672 84.8138 46.3193 88.6284 50.2279C92.443 54.1365 95.2803 58.8909 96.9092 64.1039L93.2107 65.2561C91.7654 60.6228 89.2456 56.3966 85.8566 52.9222C82.4677 49.4478 78.3056 46.8235 73.7097 45.2634C69.1139 43.7032 64.2143 43.2513 59.4106 43.9445C54.6069 44.6378 50.035 46.4565 46.0678 49.2524C42.1005 52.0483 38.8502 55.7423 36.5819 60.0331C34.3136 64.324 33.0914 69.0901 33.0151 73.943C32.9388 78.7959 34.0105 83.5982 36.1428 87.9582C38.2751 92.3182 41.4076 96.1126 45.285 99.0318L42.9323 102.12Z" fill="url(#paint0_linear_30_1055)"/>
<path d="M88.224 109H35.6704C23.4857 109 13.2519 99.3761 13.005 87.1913C12.9094 82.676 14.1947 78.239 16.689 74.474C18.9207 71.0853 22.4497 68.4324 24.1053 67.2899C24.3518 67.1164 24.6541 67.041 24.9531 67.0786C25.2522 67.1162 25.5264 67.2641 25.7222 67.4932C25.9163 67.7192 26.021 68.0084 26.0165 68.3063C26.012 68.6041 25.8988 68.89 25.698 69.1101C23.5147 71.5143 21.5344 74.0953 19.7775 76.8267C17.834 79.8468 16.8237 83.3727 16.8729 86.9638C16.9988 97.0912 25.5044 105.127 35.6365 105.127H87.8464C100.167 105.127 110.493 95.3774 110.725 83.0522C110.811 78.3745 109.438 73.7861 106.797 69.9244C104.156 66.0626 100.378 63.1193 95.9877 61.5032C91.5972 59.8871 86.8124 59.6785 82.298 60.9064C77.7835 62.1343 73.7636 64.7377 70.7965 68.3549C68.4341 71.2353 64.9874 69.4103 67.6644 66.0651C70.4611 62.5935 74.0918 59.8871 78.2176 58.1987C82.3434 56.5102 86.8298 55.8947 91.2579 56.4096C95.686 56.9246 99.9114 58.5532 103.54 61.1434C107.168 63.7336 110.081 67.2009 112.006 71.2217C113.931 75.2424 114.807 79.6855 114.55 84.1361C114.293 88.5866 112.913 92.8996 110.538 96.6723C108.163 100.445 104.871 103.554 100.969 105.71C97.0666 107.866 92.682 108.998 88.224 109Z" fill="url(#paint1_linear_30_1055)"/>
<path d="M13.5574 79.8072C16.0021 72.2068 21.9517 66.3201 29.1405 64.4321L28.5402 70.5076C26.1772 71.4574 24.0379 72.8888 22.2584 74.7108C20.479 76.5327 19.0985 78.7053 18.2047 81.09L13.5574 79.8072Z" fill="url(#paint2_linear_30_1055)"/>
<path d="M76.006 58.7485C68.7445 62.0356 63.555 68.6145 62.49 75.9729L68.4638 74.69C69.1336 72.2321 70.3088 69.941 71.9142 67.9629C73.5197 65.9849 75.52 64.3635 77.7875 63.2023L76.006 58.7485Z" fill="url(#paint3_linear_30_1055)"/>
<path d="M26.6181 55.0842C26.2785 55.0851 25.9446 54.9966 25.6499 54.8277L16.4134 49.551C15.9672 49.2942 15.6413 48.8707 15.5074 48.3736C15.3735 47.8766 15.4426 47.3467 15.6993 46.9005C15.9561 46.4543 16.3796 46.1285 16.8767 45.9946C17.3737 45.8607 17.9036 45.9297 18.3498 46.1865L27.5815 51.4874C27.9521 51.6999 28.242 52.0289 28.4061 52.4233C28.5702 52.8178 28.5993 53.2554 28.4888 53.668C28.3783 54.0807 28.1345 54.4452 27.7953 54.7049C27.456 54.9645 27.0405 55.1047 26.6133 55.1036L26.6181 55.0842Z" fill="#01A0F4"/>
<path d="M42.2249 39.357C41.8853 39.3566 41.5518 39.267 41.2578 39.097C40.9638 38.9271 40.7197 38.6828 40.5499 38.3888L35.1861 29.2199C34.9666 28.779 34.9233 28.271 35.0651 27.7993C35.207 27.3276 35.5232 26.9277 35.9494 26.6809C36.3757 26.4342 36.88 26.3591 37.3596 26.4711C37.8393 26.583 38.2582 26.8735 38.5312 27.2835L43.8999 36.4814C44.0695 36.7753 44.159 37.1086 44.1593 37.4479C44.1596 37.7872 44.0707 38.1207 43.9016 38.4149C43.7324 38.709 43.489 38.9536 43.1956 39.124C42.9021 39.2945 42.5691 39.3848 42.2297 39.386L42.2249 39.357Z" fill="#02C1E8"/>
<path d="M63.8111 33.523C63.2976 33.523 62.8051 33.319 62.4419 32.9559C62.0788 32.5927 61.8748 32.1002 61.8748 31.5866V20.9364C61.8748 20.4228 62.0788 19.9303 62.4419 19.5672C62.8051 19.204 63.2976 19 63.8111 19C64.3247 19 64.8172 19.204 65.1804 19.5672C65.5435 19.9303 65.7475 20.4228 65.7475 20.9364V31.5866C65.7475 32.1002 65.5435 32.5927 65.1804 32.9559C64.8172 33.319 64.3247 33.523 63.8111 33.523Z" fill="#01D9DF"/>
<path d="M85.1552 39.2223C84.8154 39.2219 84.4818 39.1322 84.1877 38.9621C83.8936 38.792 83.6494 38.5475 83.4797 38.2532C83.31 37.9589 83.2207 37.6251 83.2208 37.2854C83.2209 36.9456 83.3103 36.6119 83.4802 36.3177L88.8053 27.081C88.9324 26.8604 89.1018 26.667 89.3036 26.5119C89.5055 26.3567 89.736 26.2429 89.9819 26.1768C90.2278 26.1107 90.4843 26.0937 90.7367 26.1268C90.9892 26.1598 91.2327 26.2423 91.4533 26.3694C91.6739 26.4965 91.8673 26.6659 92.0224 26.8678C92.1776 27.0697 92.2914 27.3001 92.3575 27.546C92.4236 27.7919 92.4406 28.0484 92.4076 28.3009C92.3745 28.5534 92.2921 28.7968 92.1649 29.0174L86.8398 38.2492C86.6699 38.5456 86.4244 38.7918 86.1286 38.9627C85.8327 39.1336 85.4969 39.2232 85.1552 39.2223Z" fill="#00E8DA"/>
<path d="M100.956 55.0118C100.529 55.0129 100.113 54.8727 99.774 54.613C99.4348 54.3534 99.191 53.9888 99.0805 53.5762C98.97 53.1635 98.9991 52.7259 99.1632 52.3315C99.3273 51.9371 99.6172 51.608 99.9878 51.3955L109.219 46.0704C109.664 45.8136 110.193 45.7441 110.689 45.8771C111.185 46.0101 111.608 46.3347 111.865 46.7796C112.122 47.2245 112.191 47.7532 112.058 48.2493C111.925 48.7455 111.601 49.1685 111.156 49.4252L101.924 54.7503C101.631 54.9227 101.296 55.013 100.956 55.0118Z" fill="#02DADF"/>
<defs>
<linearGradient id="paint0_linear_30_1055" x1="83.3399" y1="102.174" x2="44.3309" y2="46.7637" gradientUnits="userSpaceOnUse">
<stop offset="0.55" stop-color="#00DBDF" stop-opacity="0"/>
<stop offset="0.6" stop-color="#00D4E2" stop-opacity="0.17"/>
<stop offset="0.68" stop-color="#00CAE6" stop-opacity="0.42"/>
<stop offset="0.76" stop-color="#00C1EA" stop-opacity="0.63"/>
<stop offset="0.83" stop-color="#00BBEC" stop-opacity="0.79"/>
<stop offset="0.9" stop-color="#00B6EE" stop-opacity="0.9"/>
<stop offset="0.96" stop-color="#00B3F0" stop-opacity="0.98"/>
<stop offset="1" stop-color="#00B2F0"/>
</linearGradient>
<linearGradient id="paint1_linear_30_1055" x1="13.9828" y1="102.702" x2="122.45" y2="66.9902" gradientUnits="userSpaceOnUse">
<stop stop-color="#1164FF"/>
<stop offset="0.18" stop-color="#0D86F6"/>
<stop offset="0.43" stop-color="#08ACEC"/>
<stop offset="0.65" stop-color="#04C8E4"/>
<stop offset="0.85" stop-color="#02D9E0"/>
<stop offset="0.99" stop-color="#01DFDE"/>
</linearGradient>
<linearGradient id="paint2_linear_30_1055" x1="15.6408" y1="79.181" x2="29.012" y2="64.9613" gradientUnits="userSpaceOnUse">
<stop stop-color="white" stop-opacity="0"/>
<stop offset="0.01" stop-color="white" stop-opacity="0.02"/>
<stop offset="0.09" stop-color="white" stop-opacity="0.24"/>
<stop offset="0.17" stop-color="white" stop-opacity="0.44"/>
<stop offset="0.26" stop-color="white" stop-opacity="0.62"/>
<stop offset="0.34" stop-color="white" stop-opacity="0.75"/>
<stop offset="0.43" stop-color="white" stop-opacity="0.86"/>
<stop offset="0.51" stop-color="white" stop-opacity="0.94"/>
<stop offset="0.6" stop-color="white" stop-opacity="0.98"/>
<stop offset="0.69" stop-color="white"/>
</linearGradient>
<linearGradient id="paint3_linear_30_1055" x1="5305.22" y1="4184.52" x2="4892.19" y2="4720.45" gradientUnits="userSpaceOnUse">
<stop stop-color="white" stop-opacity="0"/>
<stop offset="0.01" stop-color="white" stop-opacity="0.02"/>
<stop offset="0.09" stop-color="white" stop-opacity="0.24"/>
<stop offset="0.17" stop-color="white" stop-opacity="0.44"/>
<stop offset="0.26" stop-color="white" stop-opacity="0.62"/>
<stop offset="0.34" stop-color="white" stop-opacity="0.75"/>
<stop offset="0.43" stop-color="white" stop-opacity="0.86"/>
<stop offset="0.51" stop-color="white" stop-opacity="0.94"/>
<stop offset="0.6" stop-color="white" stop-opacity="0.98"/>
<stop offset="0.69" stop-color="white"/>
</linearGradient>
</defs>
</svg>
