<svg width="128" height="128" viewBox="0 0 128 128" fill="none" xmlns="http://www.w3.org/2000/svg">
<path d="M6 102.716V100.982H8.43418V87.1129H6V85.3766H12.9401V87.1129H10.5059V100.982H12.9401V102.716H6ZM16.7401 85.3766H23.8669C26.7284 85.3766 28.4648 87.1589 28.4648 89.8771C28.4648 92.4546 26.823 93.3471 25.6979 93.5337V93.6744C26.9177 93.7663 29.076 94.7968 29.076 97.7043C29.076 100.563 27.1503 102.716 24.6215 102.716H16.7401V85.3766ZM18.8497 92.8738H23.6316C25.2733 92.8738 26.2605 92.0327 26.2605 90.4856V89.6418C26.2605 88.0947 25.2733 87.2536 23.6316 87.2536H18.8497V92.8738ZM18.8497 100.89H23.9615C25.7412 100.89 26.869 99.9058 26.869 98.1722V97.3256C26.869 95.592 25.7412 94.6534 23.9615 94.6534H18.8497V100.89ZM46.4236 88.1434H46.2829L44.8305 90.9995L40.7033 98.5454L36.576 90.9995L35.1209 88.1434H34.9829V102.716H32.968V85.3766H35.6861L40.6573 94.7021H40.7492L45.7231 85.3766H48.4412V102.716H46.4236V88.1434ZM56.8824 94.1883C56.8824 88.33 59.8846 85.098 64.5257 85.098C67.7145 85.098 69.7322 86.407 70.9979 89.1739L67.7524 90.8588C67.2818 89.4092 66.4001 88.4247 64.5068 88.4247C62.3052 88.4247 60.8501 89.9257 60.8501 92.6439V95.4567C60.8501 98.1749 62.3052 99.676 64.5068 99.676C66.3865 99.676 67.463 98.5021 67.9796 97.0957L71.0277 98.8754C69.7619 101.502 67.6956 103 64.5068 103C59.8846 103.005 56.8824 100.046 56.8824 94.1883ZM77.1321 102.716C74.6005 102.716 73.4754 101.453 73.4754 99.108V84.3434H77.1321V99.8572H78.7738V102.713L77.1321 102.716ZM80.1802 96.2032C80.1802 91.984 82.4791 89.4092 86.2792 89.4092C90.1252 89.4092 92.3754 91.984 92.3754 96.2032C92.3754 100.374 90.1252 102.997 86.2792 102.997C82.4873 103.005 80.1883 100.374 80.1883 96.2032H80.1802ZM88.5646 97.5177V94.8428C88.5646 93.2524 87.7234 92.2653 86.2683 92.2653C84.8132 92.2653 83.9694 93.2524 83.9694 94.8428V97.5177C83.9694 99.154 84.8159 100.095 86.2683 100.095C87.7207 100.095 88.5835 99.154 88.5835 97.5177H88.5646ZM102.683 100.514H102.556C102.136 101.829 101.055 102.997 98.9017 102.997C96.2728 102.997 94.8664 101.123 94.8664 97.8449V89.6904H98.5258V97.5636C98.5258 99.108 99.0397 100.046 100.4 100.046C101.528 100.046 102.699 99.392 102.699 98.1262V89.6904H106.356V102.716H102.702L102.683 100.514ZM117.734 100.514H117.642C117.266 101.921 115.814 102.997 114.126 102.997C110.843 102.997 109.106 100.609 109.106 96.2032C109.106 91.7514 110.843 89.4092 114.126 89.4092C115.814 89.4092 117.266 90.4396 117.642 91.8433H117.734V84.3434H121.439V102.713H117.734V100.514ZM117.734 98.1262V94.2829C117.734 93.0631 116.752 92.3599 115.346 92.3599C113.94 92.3599 112.952 93.4418 112.952 95.0646V97.3256C112.952 98.9646 113.94 100.044 115.346 100.044C116.752 100.044 117.734 99.2919 117.734 98.1235" fill="#020202"/>
<path d="M51.9796 70.4386C49.5439 68.6007 47.5769 66.2134 46.2387 63.4711C44.9005 60.7289 44.2292 57.7093 44.2792 54.6584C44.3293 51.6075 45.0994 48.6115 46.5268 45.9147C47.9542 43.2178 49.9985 40.8963 52.4932 39.1393C54.9879 37.3823 57.8624 36.2394 60.8825 35.8039C63.9026 35.3684 66.9828 35.6525 69.8723 36.6331C72.7618 37.6137 75.3787 39.263 77.5099 41.4467C79.6411 43.6304 81.2263 46.2867 82.1364 49.1991L80.07 49.8428C79.2626 47.2542 77.8547 44.8931 75.9613 42.952C74.068 41.0109 71.7426 39.5447 69.1749 38.673C66.6072 37.8014 63.8698 37.5489 61.186 37.9362C58.5022 38.3235 55.9479 39.3396 53.7314 40.9017C51.5149 42.4638 49.699 44.5275 48.4316 46.9248C47.1643 49.322 46.4815 51.9849 46.4389 54.6961C46.3962 57.4074 46.995 60.0904 48.1863 62.5263C49.3776 64.9622 51.1278 67.0821 53.2941 68.7131L51.9796 70.4386Z" fill="url(#paint0_linear_30_1102)"/>
<path d="M77.2839 74.2838H47.9223C41.1147 74.2838 35.3971 68.907 35.2592 62.0995C35.2058 59.5768 35.9239 57.0979 37.3174 54.9944C38.5643 53.1012 40.5359 51.619 41.4609 50.9807C41.5986 50.8838 41.7675 50.8417 41.9346 50.8627C42.1017 50.8837 42.2549 50.9663 42.3643 51.0943C42.4727 51.2206 42.5312 51.3822 42.5287 51.5486C42.5262 51.715 42.4629 51.8747 42.3508 51.9977C41.1309 53.3409 40.0245 54.7829 39.043 56.3089C37.9572 57.9962 37.3927 59.9661 37.4202 61.9724C37.4905 67.6304 42.2426 72.1201 47.9034 72.1201H77.0729C83.9562 72.1201 89.7252 66.673 89.8551 59.787C89.9032 57.1736 89.1363 54.6101 87.6607 52.4526C86.1852 50.2951 84.0744 48.6506 81.6214 47.7477C79.1685 46.8448 76.4952 46.7283 73.973 47.4143C71.4508 48.1003 69.2049 49.5548 67.5472 51.5757C66.2273 53.185 64.3016 52.1654 65.7973 50.2965C67.3598 48.3569 69.3882 46.8449 71.6933 45.9015C73.9984 44.9582 76.5049 44.6143 78.9789 44.902C81.4529 45.1897 83.8136 46.0996 85.8407 47.5467C87.8678 48.9938 89.4952 50.931 90.5708 53.1774C91.6465 55.4237 92.1355 57.906 91.992 60.3925C91.8486 62.879 91.0774 65.2886 89.7506 67.3964C88.4237 69.5042 86.5844 71.2413 84.4043 72.4458C82.2242 73.6502 79.7745 74.2825 77.2839 74.2838Z" fill="url(#paint1_linear_30_1102)"/>
<path d="M35.568 57.9714C36.9339 53.7251 40.2579 50.4363 44.2743 49.3815L43.9389 52.7758C42.6187 53.3064 41.4234 54.1061 40.4293 55.1241C39.4351 56.142 38.6638 57.3557 38.1645 58.6881L35.568 57.9714Z" fill="url(#paint2_linear_30_1102)"/>
<path d="M70.4575 46.2068C66.4006 48.0432 63.5012 51.7188 62.9062 55.8299L66.2437 55.1131C66.6179 53.7399 67.2745 52.4599 68.1715 51.3548C69.0684 50.2497 70.186 49.3438 71.4528 48.695L70.4575 46.2068Z" fill="url(#paint3_linear_30_1102)"/>
<path d="M42.864 44.1596C42.6742 44.1601 42.4877 44.1107 42.323 44.0163L37.1626 41.0682C36.9133 40.9248 36.7313 40.6881 36.6564 40.4104C36.5816 40.1327 36.6202 39.8367 36.7637 39.5874C36.9071 39.3382 37.1437 39.1561 37.4214 39.0813C37.6991 39.0065 37.9952 39.045 38.2444 39.1885L43.4022 42.1501C43.6092 42.2688 43.7712 42.4526 43.8629 42.673C43.9546 42.8933 43.9708 43.1378 43.9091 43.3684C43.8474 43.5989 43.7111 43.8026 43.5216 43.9477C43.3321 44.0927 43.0999 44.171 42.8613 44.1704L42.864 44.1596Z" fill="#01A0F4"/>
<path d="M51.5847 35.374C51.395 35.3738 51.2086 35.3238 51.0444 35.2288C50.8801 35.1339 50.7437 34.9974 50.6489 34.8331L47.6521 29.7105C47.5295 29.4642 47.5053 29.1804 47.5845 28.9169C47.6638 28.6533 47.8404 28.4299 48.0786 28.292C48.3167 28.1542 48.5985 28.1123 48.8665 28.1748C49.1344 28.2373 49.3685 28.3996 49.521 28.6287L52.5205 33.7675C52.6153 33.9317 52.6653 34.1179 52.6654 34.3075C52.6656 34.497 52.6159 34.6833 52.5214 34.8477C52.4269 35.012 52.2909 35.1487 52.127 35.2439C51.963 35.3391 51.777 35.3896 51.5874 35.3903L51.5847 35.374Z" fill="#02C1E8"/>
<path d="M63.6431 32.1139C63.3562 32.1139 63.081 31.9999 62.8781 31.797C62.6753 31.5941 62.5613 31.319 62.5613 31.032V25.0819C62.5613 24.7949 62.6753 24.5198 62.8781 24.3169C63.081 24.114 63.3562 24 63.6431 24C63.9301 24 64.2052 24.114 64.4081 24.3169C64.611 24.5198 64.725 24.7949 64.725 25.0819V31.032C64.725 31.319 64.611 31.5941 64.4081 31.797C64.2052 31.9999 63.9301 32.1139 63.6431 32.1139Z" fill="#01D9DF"/>
<path d="M75.5694 35.297C75.3796 35.2968 75.1931 35.2466 75.0288 35.1516C74.8645 35.0566 74.7281 34.92 74.6333 34.7556C74.5385 34.5911 74.4886 34.4046 74.4886 34.2148C74.4887 34.025 74.5387 33.8386 74.6336 33.6742L77.6087 28.5137C77.6797 28.3905 77.7743 28.2824 77.8871 28.1958C77.9999 28.1091 78.1287 28.0455 78.266 28.0086C78.4034 27.9716 78.5467 27.9621 78.6878 27.9806C78.8288 27.9991 78.9649 28.0451 79.0881 28.1162C79.2114 28.1872 79.3194 28.2818 79.4061 28.3946C79.4928 28.5074 79.5564 28.6362 79.5933 28.7735C79.6302 28.9109 79.6397 29.0542 79.6213 29.1953C79.6028 29.3363 79.5567 29.4724 79.4857 29.5956L76.5106 34.7533C76.4156 34.9189 76.2785 35.0565 76.1132 35.1519C75.9479 35.2474 75.7603 35.2975 75.5694 35.297Z" fill="#00E8DA"/>
<path d="M84.3962 44.121C84.1575 44.1216 83.9254 44.0432 83.7358 43.8982C83.5463 43.7531 83.4101 43.5495 83.3484 43.3189C83.2866 43.0884 83.3029 42.8439 83.3946 42.6235C83.4862 42.4032 83.6482 42.2193 83.8553 42.1006L89.013 39.1255C89.2616 38.982 89.5569 38.9432 89.8341 39.0175C90.1113 39.0918 90.3476 39.2732 90.4911 39.5217C90.6346 39.7703 90.6734 40.0656 90.5991 40.3428C90.5248 40.62 90.3434 40.8564 90.0949 40.9998L84.9371 43.9749C84.7732 44.0712 84.5863 44.1217 84.3962 44.121Z" fill="#02DADF"/>
<defs>
<linearGradient id="paint0_linear_30_1102" x1="74.5553" y1="70.4684" x2="52.7613" y2="39.5111" gradientUnits="userSpaceOnUse">
<stop offset="0.55" stop-color="#00DBDF" stop-opacity="0"/>
<stop offset="0.6" stop-color="#00D4E2" stop-opacity="0.17"/>
<stop offset="0.68" stop-color="#00CAE6" stop-opacity="0.42"/>
<stop offset="0.76" stop-color="#00C1EA" stop-opacity="0.63"/>
<stop offset="0.83" stop-color="#00BBEC" stop-opacity="0.79"/>
<stop offset="0.9" stop-color="#00B6EE" stop-opacity="0.9"/>
<stop offset="0.96" stop-color="#00B3F0" stop-opacity="0.98"/>
<stop offset="1" stop-color="#00B2F0"/>
</linearGradient>
<linearGradient id="paint1_linear_30_1102" x1="35.8055" y1="70.7651" x2="96.4057" y2="50.8129" gradientUnits="userSpaceOnUse">
<stop stop-color="#1164FF"/>
<stop offset="0.18" stop-color="#0D86F6"/>
<stop offset="0.43" stop-color="#08ACEC"/>
<stop offset="0.65" stop-color="#04C8E4"/>
<stop offset="0.85" stop-color="#02D9E0"/>
<stop offset="0.99" stop-color="#01DFDE"/>
</linearGradient>
<linearGradient id="paint2_linear_30_1102" x1="36.732" y1="57.6215" x2="44.2024" y2="49.677" gradientUnits="userSpaceOnUse">
<stop stop-color="white" stop-opacity="0"/>
<stop offset="0.01" stop-color="white" stop-opacity="0.02"/>
<stop offset="0.09" stop-color="white" stop-opacity="0.24"/>
<stop offset="0.17" stop-color="white" stop-opacity="0.44"/>
<stop offset="0.26" stop-color="white" stop-opacity="0.62"/>
<stop offset="0.34" stop-color="white" stop-opacity="0.75"/>
<stop offset="0.43" stop-color="white" stop-opacity="0.86"/>
<stop offset="0.51" stop-color="white" stop-opacity="0.94"/>
<stop offset="0.6" stop-color="white" stop-opacity="0.98"/>
<stop offset="0.69" stop-color="white"/>
</linearGradient>
<linearGradient id="paint3_linear_30_1102" x1="2992.01" y1="2351.24" x2="2761.25" y2="2650.67" gradientUnits="userSpaceOnUse">
<stop stop-color="white" stop-opacity="0"/>
<stop offset="0.01" stop-color="white" stop-opacity="0.02"/>
<stop offset="0.09" stop-color="white" stop-opacity="0.24"/>
<stop offset="0.17" stop-color="white" stop-opacity="0.44"/>
<stop offset="0.26" stop-color="white" stop-opacity="0.62"/>
<stop offset="0.34" stop-color="white" stop-opacity="0.75"/>
<stop offset="0.43" stop-color="white" stop-opacity="0.86"/>
<stop offset="0.51" stop-color="white" stop-opacity="0.94"/>
<stop offset="0.6" stop-color="white" stop-opacity="0.98"/>
<stop offset="0.69" stop-color="white"/>
</linearGradient>
</defs>
</svg>
