<svg width="128" height="128" viewBox="0 0 128 128" fill="none" xmlns="http://www.w3.org/2000/svg">
<path d="M42.7726 73.1921V71.9739H44.4777V62.2602H42.7726V61.0458H47.6303V62.2602H45.9252V71.9739H47.6303V73.1902L42.7726 73.1921ZM50.296 61.0458H55.2901C57.2926 61.0458 58.5109 62.2924 58.5109 64.1965C58.5109 66.0021 57.3627 66.6273 56.5727 66.758V66.8584C57.4272 66.9228 58.939 67.6447 58.939 69.6814C58.939 71.684 57.592 73.194 55.8187 73.194H50.296V61.0458ZM51.7756 66.29H55.1252C56.2753 66.29 56.9649 65.6989 56.9649 64.6152V64.026C56.9649 62.9423 56.2753 62.3511 55.1252 62.3511H51.7756V66.29ZM51.7756 71.9038H55.3545C56.603 71.9038 57.3912 71.216 57.3912 69.9997V69.4105C57.3912 68.196 56.603 67.5367 55.3545 67.5367H51.7756V71.9038ZM71.0909 62.9745H70.9905L69.9731 64.9752L67.0819 70.2687L64.1908 64.9828L63.1658 62.982H63.0673V73.1921H61.6559V61.0458H63.5618L67.0497 67.5784H67.1141L70.5983 61.0458H72.5042V73.1921H71.0909V62.9745ZM78.4172 67.2089C78.4172 63.1052 80.5183 60.8411 83.7694 60.8411C86.0031 60.8411 87.4165 61.76 88.305 63.6982L86.0315 64.8767C85.7019 63.8611 85.0842 63.1715 83.758 63.1715C82.2158 63.1715 81.1984 64.2211 81.1984 66.1252V68.0975C81.1984 69.9921 82.2158 71.0512 83.758 71.0512C85.0842 71.0512 85.8288 70.2289 86.1907 69.2437L88.3259 70.4923C87.4392 72.3319 85.9917 73.3816 83.758 73.3816C80.5183 73.3891 78.4172 71.3202 78.4172 67.2165V67.2089ZM92.6076 73.1845C90.8343 73.1845 90.0461 72.2997 90.0461 70.6552V60.322H92.6076V71.1895H93.7557V73.1921L92.6076 73.1845ZM94.7428 68.6223C94.7428 65.6667 96.3532 63.8611 99.0132 63.8611C101.709 63.8611 103.284 65.6667 103.284 68.6223C103.284 71.5419 101.709 73.3816 99.0132 73.3816C96.3532 73.3891 94.7428 71.5495 94.7428 68.6299V68.6223ZM100.616 69.5412V67.6674C100.616 66.5534 100.027 65.8638 99.0075 65.8638C97.9882 65.8638 97.3971 66.5534 97.3971 67.6674V69.5412C97.3971 70.6893 97.9901 71.3467 99.0075 71.3467C100.025 71.3467 100.622 70.6969 100.622 69.5488L100.616 69.5412ZM110.508 71.6423H110.407C110.112 72.5612 109.356 73.3816 107.846 73.3816C106.006 73.3816 105.021 72.0667 105.021 69.7704V64.0658H107.582V69.581C107.582 70.6628 107.944 71.3202 108.897 71.3202C109.685 71.3202 110.508 70.8617 110.508 69.9751V64.0658H113.069V73.1921H110.513L110.508 71.6423ZM121.051 71.6423H120.985C120.723 72.6275 119.704 73.3816 118.522 73.3816C116.222 73.3816 115.007 71.7067 115.007 68.6223C115.007 65.5038 116.222 63.8611 118.522 63.8611C119.704 63.8611 120.723 64.583 120.985 65.5663H121.051V60.322H123.646V73.1921H121.051V71.6423ZM121.051 69.9675V67.2828C121.051 66.4283 120.363 65.9376 119.376 65.9376C118.389 65.9376 117.701 66.6955 117.701 67.8323V69.4105C117.701 70.5567 118.391 71.3051 119.376 71.3051C120.361 71.3051 121.051 70.7803 121.051 69.9599" fill="#020202"/>
<path d="M12.3134 75.8621C10.9569 74.8389 9.86125 73.5097 9.1158 71.9828C8.37034 70.4559 7.99617 68.7745 8.02376 67.0756C8.05135 65.3766 8.47993 63.7083 9.27457 62.2064C10.0692 60.7045 11.2074 59.4116 12.5965 58.433C13.9855 57.4545 15.5861 56.8179 17.2679 56.5753C18.9496 56.3326 20.6648 56.4907 22.2739 57.0367C23.8829 57.5827 25.3402 58.501 26.5269 59.717C27.7137 60.933 28.5965 62.4122 29.1032 64.034L27.9532 64.394C27.5035 62.9529 26.7196 61.6385 25.6655 60.5579C24.6114 59.4772 23.3168 58.661 21.8873 58.1757C20.4579 57.6904 18.9339 57.5497 17.4398 57.7652C15.9457 57.9807 14.5236 58.5462 13.2895 59.4156C12.0554 60.285 11.0442 61.4338 10.3383 62.7682C9.63242 64.1026 9.25186 65.585 9.22764 67.0944C9.20341 68.6038 9.5362 70.0976 10.1989 71.454C10.8616 72.8104 11.8354 73.991 13.041 74.8996L12.3134 75.8621Z" fill="url(#paint0_linear_30_1143)"/>
<path d="M26.4109 78H10.0532C6.26399 78 3.07921 75.0065 3.00153 71.2154C2.97198 69.8108 3.37187 68.4306 4.14775 67.2594C4.84116 66.2117 5.94002 65.38 6.45534 65.0238C6.53203 64.9705 6.62569 64.9475 6.71834 64.959C6.811 64.9705 6.89613 65.0159 6.95741 65.0863C7.0192 65.1557 7.05333 65.2454 7.05333 65.3383C7.05333 65.4312 7.0192 65.5209 6.95741 65.5903C6.27667 66.3401 5.65825 67.1442 5.1083 67.9945C4.50415 68.9345 4.19047 70.0318 4.20648 71.1491C4.24437 74.2998 6.8911 76.7988 10.0437 76.7988H26.284C30.1186 76.7988 33.33 73.7674 33.4019 69.9327C33.4265 68.4787 32.9981 67.0529 32.1763 65.8531C31.3545 64.6533 30.1799 63.7388 28.8152 63.2363C27.4505 62.7338 25.9633 62.6682 24.5596 63.0485C23.156 63.4289 21.9054 64.2364 20.9811 65.3591C20.246 66.2553 19.168 65.6888 20.0054 64.6468C20.8746 63.5656 22.0037 62.7223 23.2872 62.1957C24.5706 61.6691 25.9666 61.4764 27.3447 61.6355C28.7229 61.7946 30.0382 62.3003 31.1679 63.1055C32.2976 63.9107 33.2048 64.9891 33.8049 66.2399C34.4049 67.4908 34.6782 68.8733 34.5991 70.2583C34.5201 71.6434 34.0913 72.9858 33.3529 74.1603C32.6145 75.3347 31.5905 76.3029 30.3765 76.9743C29.1626 77.6458 27.7982 77.9987 26.4109 78Z" fill="url(#paint1_linear_30_1143)"/>
<path d="M3.17212 68.9201C3.92995 66.5556 5.78475 64.7236 8.02224 64.1362L7.83279 66.0308C7.09882 66.3268 6.43446 66.7722 5.88193 67.3387C5.3294 67.9053 4.9008 68.5806 4.62337 69.3218L3.17212 68.9201Z" fill="url(#paint2_linear_30_1143)"/>
<path d="M22.6009 62.3604C20.3387 63.3834 18.7283 65.4315 18.3968 67.7202L20.2535 67.3204C20.464 66.5565 20.8312 65.8447 21.3319 65.2305C21.8326 64.6162 22.4558 64.113 23.1617 63.7529L22.6009 62.3604Z" fill="url(#paint3_linear_30_1143)"/>
<path d="M7.23595 61.2272C7.13163 61.2265 7.02922 61.1991 6.9385 61.1476L4.05495 59.5012C3.91627 59.4218 3.8148 59.2906 3.77288 59.1364C3.73095 58.9821 3.752 58.8176 3.83139 58.6789C3.91078 58.5402 4.04201 58.4388 4.19622 58.3968C4.35042 58.3549 4.51496 58.376 4.65364 58.4554L7.52961 60.1018C7.64504 60.1678 7.73537 60.2702 7.78651 60.393C7.83766 60.5158 7.84675 60.652 7.81236 60.7805C7.77797 60.9089 7.70204 61.0224 7.5964 61.1032C7.49077 61.184 7.36137 61.2276 7.22837 61.2272H7.23595Z" fill="#01A0F4"/>
<path d="M12.0917 56.3348C11.9862 56.3348 11.8826 56.3072 11.7912 56.2547C11.6998 56.2021 11.6237 56.1265 11.5707 56.0354L9.90153 53.1727C9.82308 53.0348 9.80212 52.8716 9.84321 52.7185C9.88429 52.5653 9.98411 52.4345 10.121 52.3545C10.2579 52.2744 10.4208 52.2516 10.5745 52.2909C10.7281 52.3302 10.86 52.4285 10.9417 52.5645L12.6108 55.4272C12.6899 55.5653 12.7112 55.729 12.67 55.8827C12.6288 56.0364 12.5285 56.1676 12.391 56.2476C12.3008 56.3028 12.1974 56.3328 12.0917 56.3348Z" fill="#02C1E8"/>
<path d="M18.8079 54.5205C18.7287 54.5205 18.6504 54.505 18.5773 54.4747C18.5042 54.4444 18.4378 54.4 18.3818 54.3441C18.3259 54.2881 18.2815 54.2217 18.2512 54.1486C18.221 54.0755 18.2054 53.9972 18.2054 53.918V50.6025C18.2054 50.5234 18.221 50.445 18.2512 50.3719C18.2815 50.2988 18.3259 50.2324 18.3818 50.1765C18.4378 50.1205 18.5042 50.0761 18.5773 50.0459C18.6504 50.0156 18.7287 50 18.8079 50C18.9676 50 19.1209 50.0635 19.2339 50.1765C19.3469 50.2895 19.4103 50.4427 19.4103 50.6025V53.918C19.4098 54.0777 19.3462 54.2306 19.2333 54.3435C19.1204 54.4564 18.9675 54.52 18.8079 54.5205Z" fill="#01D9DF"/>
<path d="M25.4486 56.2911C25.3435 56.2917 25.2402 56.2642 25.1493 56.2115C25.0806 56.1722 25.0203 56.1198 24.9719 56.0572C24.9235 55.9946 24.8879 55.9231 24.8672 55.8467C24.8464 55.7703 24.8409 55.6907 24.8509 55.6122C24.861 55.5337 24.8864 55.4579 24.9257 55.3893L26.5778 52.5151C26.6158 52.4439 26.6677 52.3811 26.7305 52.3303C26.7933 52.2796 26.8656 52.242 26.9432 52.2197C27.0208 52.1975 27.1021 52.1911 27.1822 52.2008C27.2624 52.2106 27.3397 52.2364 27.4097 52.2767C27.4797 52.3169 27.5408 52.3708 27.5896 52.4352C27.6383 52.4995 27.6736 52.573 27.6934 52.6513C27.7131 52.7296 27.717 52.811 27.7047 52.8908C27.6924 52.9706 27.6641 53.0471 27.6217 53.1157L25.9715 55.9899C25.9185 56.0816 25.8423 56.1578 25.7505 56.2107C25.6587 56.2636 25.5546 56.2913 25.4486 56.2911Z" fill="#00E8DA"/>
<path d="M30.3632 61.2045C30.2302 61.2049 30.1008 61.1613 29.9952 61.0805C29.8895 60.9997 29.8136 60.8863 29.7792 60.7578C29.7448 60.6293 29.7539 60.4931 29.8051 60.3703C29.8562 60.2475 29.9465 60.1451 30.062 60.0791L32.9341 58.427C33.0027 58.3817 33.0799 58.3508 33.1608 58.3365C33.2418 58.3221 33.3248 58.3244 33.4048 58.3433C33.4848 58.3622 33.5601 58.3973 33.6261 58.4464C33.692 58.4955 33.7472 58.5575 33.7883 58.6288C33.8293 58.7 33.8554 58.7789 33.8648 58.8606C33.8742 58.9422 33.8668 59.025 33.8431 59.1037C33.8193 59.1824 33.7797 59.2554 33.7267 59.3182C33.6737 59.3811 33.6083 59.4324 33.5347 59.469L30.6625 61.1211C30.5716 61.1743 30.4685 61.203 30.3632 61.2045Z" fill="#02DADF"/>
<defs>
<linearGradient id="paint0_linear_30_1143" x1="24.8821" y1="75.8791" x2="12.747" y2="58.6383" gradientUnits="userSpaceOnUse">
<stop offset="0.55" stop-color="#00DBDF" stop-opacity="0"/>
<stop offset="0.6" stop-color="#00D4E2" stop-opacity="0.17"/>
<stop offset="0.68" stop-color="#00CAE6" stop-opacity="0.42"/>
<stop offset="0.76" stop-color="#00C1EA" stop-opacity="0.63"/>
<stop offset="0.83" stop-color="#00BBEC" stop-opacity="0.79"/>
<stop offset="0.9" stop-color="#00B6EE" stop-opacity="0.9"/>
<stop offset="0.96" stop-color="#00B3F0" stop-opacity="0.98"/>
<stop offset="1" stop-color="#00B2F0"/>
</linearGradient>
<linearGradient id="paint1_linear_30_1143" x1="3.30466" y1="76.0409" x2="37.051" y2="64.9313" gradientUnits="userSpaceOnUse">
<stop stop-color="#1164FF"/>
<stop offset="0.18" stop-color="#0D86F6"/>
<stop offset="0.43" stop-color="#08ACEC"/>
<stop offset="0.65" stop-color="#04C8E4"/>
<stop offset="0.85" stop-color="#02D9E0"/>
<stop offset="0.99" stop-color="#01DFDE"/>
</linearGradient>
<linearGradient id="paint2_linear_30_1143" x1="3.81771" y1="68.7238" x2="7.97531" y2="64.2995" gradientUnits="userSpaceOnUse">
<stop stop-color="white" stop-opacity="0"/>
<stop offset="0.01" stop-color="white" stop-opacity="0.02"/>
<stop offset="0.09" stop-color="white" stop-opacity="0.24"/>
<stop offset="0.17" stop-color="white" stop-opacity="0.44"/>
<stop offset="0.26" stop-color="white" stop-opacity="0.62"/>
<stop offset="0.34" stop-color="white" stop-opacity="0.75"/>
<stop offset="0.43" stop-color="white" stop-opacity="0.86"/>
<stop offset="0.51" stop-color="white" stop-opacity="0.94"/>
<stop offset="0.6" stop-color="white" stop-opacity="0.98"/>
<stop offset="0.69" stop-color="white"/>
</linearGradient>
<linearGradient id="paint3_linear_30_1143" x1="-2285.24" y1="5845.15" x2="-2387.46" y2="5977.73" gradientUnits="userSpaceOnUse">
<stop stop-color="white" stop-opacity="0"/>
<stop offset="0.01" stop-color="white" stop-opacity="0.02"/>
<stop offset="0.09" stop-color="white" stop-opacity="0.24"/>
<stop offset="0.17" stop-color="white" stop-opacity="0.44"/>
<stop offset="0.26" stop-color="white" stop-opacity="0.62"/>
<stop offset="0.34" stop-color="white" stop-opacity="0.75"/>
<stop offset="0.43" stop-color="white" stop-opacity="0.86"/>
<stop offset="0.51" stop-color="white" stop-opacity="0.94"/>
<stop offset="0.6" stop-color="white" stop-opacity="0.98"/>
<stop offset="0.69" stop-color="white"/>
</linearGradient>
</defs>
</svg>
