<svg width="128" height="128" viewBox="0 0 128 128" fill="none" xmlns="http://www.w3.org/2000/svg">
<path d="M20.2174 94L5 86.3768H45.6667L20.2174 94ZM20.2174 53.3333L5 83.8333L20.2174 81.2899V53.3333ZM22.7464 33V81.2899L45.6304 83.8333L22.7464 33Z" fill="#486CB0"/>
<path d="M61.6356 53.8198V77.9874H56.2836V53.8198H61.6356ZM69.827 73.6013C70.0415 73.9545 70.3197 74.2648 70.6476 74.5163C70.9992 74.7643 71.3929 74.9464 71.8095 75.0536C72.2527 75.1692 72.7096 75.223 73.1675 75.2134C73.5274 75.2141 73.8859 75.1702 74.235 75.0827C74.5907 75.016 74.9322 74.8882 75.2444 74.7051C75.5336 74.5429 75.782 74.3169 75.9706 74.0442C76.1869 73.7282 76.2987 73.3523 76.2901 72.9695C76.2901 72.2433 75.8181 71.7132 74.8377 71.321C73.5321 70.865 72.1948 70.5058 70.8364 70.2463L68.7886 69.6798C68.1628 69.4824 67.5685 69.1963 67.0239 68.8302C66.5113 68.4871 66.0801 68.036 65.7604 67.5085C65.4277 66.9126 65.2645 66.2371 65.2883 65.5551C65.2511 64.5874 65.4796 63.628 65.9492 62.781C66.3685 62.072 66.9671 61.486 67.6848 61.0817C68.4355 60.653 69.2529 60.3535 70.103 60.1958C71.0164 60.0337 71.9421 59.9511 72.8698 59.9489C73.7924 59.9413 74.7131 60.0363 75.6148 60.2321C76.4598 60.3985 77.2703 60.7079 78.0112 61.1471C78.7078 61.5763 79.2986 62.1572 79.7395 62.8464C80.2309 63.6578 80.5129 64.5786 80.5601 65.526H75.9924C75.9991 65.147 75.9069 64.7729 75.7247 64.4405C75.5426 64.1081 75.2769 63.8289 74.9539 63.6307C74.2562 63.2955 73.4912 63.1241 72.7173 63.1296C72.4209 63.1346 72.1252 63.1564 71.8313 63.1949C71.5373 63.2156 71.2494 63.2894 70.9817 63.4128C70.7288 63.535 70.5038 63.708 70.3208 63.9211C70.1246 64.1596 70.0237 64.4623 70.0376 64.7708C70.0294 64.9688 70.0678 65.1659 70.1498 65.3463C70.2318 65.5267 70.355 65.6853 70.5096 65.8092C70.866 66.1158 71.2848 66.3413 71.7369 66.4701C72.3106 66.6443 72.8915 66.7968 73.4725 66.913L75.4623 67.3488L77.5101 67.9224C78.1363 68.1265 78.7285 68.4227 79.2675 68.8011C79.7862 69.1673 80.2176 69.6433 80.5311 70.1954C80.861 70.829 81.0235 71.5365 81.0031 72.2505C81.0341 73.2673 80.7827 74.2728 80.2769 75.1553C79.828 75.9111 79.215 76.5563 78.4832 77.0434C77.6987 77.5308 76.8328 77.8727 75.927 78.0528C74.97 78.2399 73.9973 78.3347 73.0223 78.336C72.0257 78.3428 71.0316 78.2356 70.0594 78.0165C69.1427 77.8465 68.2659 77.5066 67.4742 77.0144C66.7129 76.539 66.0757 75.8893 65.6151 75.119C65.1077 74.2341 64.8352 73.2342 64.8236 72.2142H69.3986C69.4171 72.7085 69.5461 73.1924 69.7762 73.6303L69.827 73.6013ZM93.5517 60.4645V63.6815H90.0514V72.3304C89.9829 72.9143 90.1301 73.5032 90.4654 73.9861C90.942 74.3288 91.5325 74.4745 92.1138 74.3928H92.9053L93.6315 74.2984V78.0165C93.1831 78.0966 92.729 78.1403 92.2736 78.1472H90.8212C90.1138 78.1451 89.4076 78.0917 88.708 77.9874C88.0849 77.9133 87.484 77.7105 86.9433 77.392C86.4314 77.0939 86.0156 76.6554 85.7451 76.1284C85.4245 75.4486 85.2749 74.7007 85.3094 73.9498V63.6888H82.4046V60.479H85.3094V55.2432H90.0659V60.479L93.5517 60.4645ZM95.9699 57.7558V53.8198H100.755V57.7558H95.9699ZM100.785 60.4645V77.9511H95.9989V60.4645H100.785ZM104.677 65.4171C105.069 64.3374 105.689 63.3542 106.493 62.5338C107.297 61.7133 108.267 61.0746 109.339 60.6605C110.524 60.2023 111.787 59.9779 113.057 59.9997C114.337 59.9811 115.608 60.2054 116.804 60.6605C117.878 61.0771 118.854 61.7099 119.673 62.5196C120.48 63.3484 121.104 64.3382 121.503 65.4243C121.941 66.6465 122.153 67.9386 122.127 69.2368C122.14 70.5223 121.929 71.8001 121.503 73.013C121.091 74.0931 120.469 75.0805 119.673 75.9178C118.859 76.7333 117.881 77.367 116.804 77.7769C115.607 78.2245 114.335 78.4389 113.057 78.4086C111.79 78.4246 110.53 78.2106 109.339 77.7769C108.271 77.3699 107.305 76.7355 106.507 75.9178C105.694 75.0929 105.07 74.102 104.677 73.013C104.239 71.8031 104.025 70.5235 104.045 69.2368C104.035 67.9367 104.248 66.6446 104.677 65.4171ZM109.034 71.2774C109.171 71.9128 109.416 72.5197 109.76 73.0711C110.078 73.5946 110.522 74.0292 111.053 74.3347C111.673 74.6654 112.369 74.8281 113.072 74.8067C113.783 74.8253 114.488 74.6629 115.12 74.3347C115.661 74.0332 116.116 73.5982 116.441 73.0711C116.784 72.5191 117.029 71.9124 117.167 71.2774C117.419 69.9238 117.419 68.5354 117.167 67.1817C117.027 66.5452 116.782 65.9365 116.441 65.3808C116.115 64.8564 115.66 64.424 115.12 64.1245C114.494 63.7772 113.787 63.6018 113.072 63.6161C112.364 63.5849 111.662 63.7616 111.053 64.1245C110.528 64.4341 110.085 64.8649 109.76 65.3808C109.405 65.9293 109.159 66.5406 109.034 67.1817C108.909 67.8572 108.846 68.5427 108.845 69.2296C108.831 69.9171 108.894 70.6041 109.034 71.2774Z" fill="#010101"/>
</svg>
