<svg width="128" height="128" viewBox="0 0 128 128" fill="none" xmlns="http://www.w3.org/2000/svg">
<path d="M64.5544 14.3152H106.713L98.7227 104.414L64.5544 113.687V14.3152Z" fill="white"/>
<path d="M22.5566 110.196L13 5L115.949 5.04026L106.472 110.115L64.3938 122L22.5566 110.196ZM98.7231 104.454L106.713 14.3553H64.5548L64.876 113.729L98.7231 104.454ZM60.6199 27.5649H50.3813L50.2609 81.4877L30.3861 76.0673L30.4264 88.3935L60.6199 96.5442V27.5649Z" fill="#D4B830"/>
<path opacity="0.99" d="M30.4247 88.3968L30.3844 76.0706C30.3844 76.0706 43.0716 79.644 50.2592 81.4909L50.3796 27.6084H60.6182V96.5475L30.4247 88.3968Z" fill="#EBEBEB" fill-opacity="0.92"/>
<path d="M64.5544 14.3152H106.713L98.7227 104.414L64.5544 113.687V14.3152ZM96.5547 89.3174L99.3252 55.6304L78.8479 57.9192V39.9316L100.69 39.851L101.576 27.5651L68.612 27.7257L69.0535 72.4538L88.9686 69.0409L88.6877 78.9987L68.6125 84.3385L68.8128 96.5444L96.5575 89.3174H96.5547Z" fill="#FDD83C"/>
</svg>
