<svg width="128" height="128" viewBox="0 0 128 128" fill="none" xmlns="http://www.w3.org/2000/svg">
<path d="M119 9H9V119H119V9Z" fill="#F7DF1E"/>
<path d="M82.8919 94.9391C85.1076 98.5569 87.9903 101.216 93.0887 101.216C97.3717 101.216 100.108 99.0754 100.108 96.1177C100.108 92.5732 97.2967 91.3178 92.5824 89.2558L89.9982 88.147C82.5392 84.9692 77.584 80.9883 77.584 72.5724C77.584 64.82 83.4908 58.9185 92.722 58.9185C99.2941 58.9185 104.019 61.2058 107.424 67.1946L99.3744 72.3629C97.6022 69.1851 95.6903 67.9332 92.722 67.9332C89.6944 67.9332 87.7755 69.8539 87.7755 72.3629C87.7755 75.4639 89.6962 76.7192 94.1311 78.6399L96.7152 79.7469C105.498 83.5131 110.456 87.3526 110.456 95.985C110.456 105.291 103.146 110.39 93.3279 110.39C83.7248 110.39 77.5263 105.815 74.4917 99.8193L82.8919 94.9391ZM46.3771 95.8348C48.0009 98.7158 49.4781 101.151 53.0295 101.151C56.4255 101.151 58.5679 99.8227 58.5679 94.6562V59.5086H68.9044V94.7959C68.9044 105.499 62.6292 110.371 53.4695 110.371C45.1933 110.371 40.4005 106.088 37.963 100.928L46.3771 95.8348Z" fill="black"/>
</svg>
