<svg width="128" height="128" viewBox="0 0 128 128" fill="none" xmlns="http://www.w3.org/2000/svg">
<path d="M82.5673 20.8545C78.9184 23.1814 75.1152 25.3018 71.9706 28.2842L71.9716 28.2852C70.9038 29.3173 69.8898 30.486 69.3573 31.8906L69.2567 32.1748C68.8803 33.3042 69.0401 34.5559 69.4979 35.6309L69.662 35.9854C70.0587 36.805 70.5549 37.5638 71.076 38.3086C71.6708 39.1586 72.2996 39.9926 72.8427 40.876V40.877L73.0067 41.165C73.3702 41.8488 73.5889 42.6014 73.6473 43.376C73.7141 44.2612 73.5699 45.1502 73.2264 45.9688H73.2255C72.1557 48.366 70.0623 50.1165 67.8973 51.501L67.8954 51.502C67.828 51.5405 67.762 51.5877 67.6952 51.6387C67.6292 51.689 67.5605 51.7445 67.4911 51.7949C67.3514 51.8963 67.1976 51.9874 67.0145 52.0088L66.8749 52.0254L66.9794 51.9307C68.3286 50.7143 69.391 49.0276 69.4843 47.2012L69.4901 46.834C69.4524 45.3668 68.639 44.0739 67.6776 43.0146L67.6766 43.0137C65.6897 40.6454 64.0185 37.6261 64.3612 34.4209C64.704 31.2155 66.9989 28.6396 69.4696 26.793L69.4969 26.8291L69.4706 26.793C73.3647 23.9227 77.9179 22.097 82.5302 20.7734L82.829 20.6875L82.5673 20.8545ZM72.4979 3.9707C74.39 6.12706 75.0145 9.2075 74.4696 11.9844L74.4706 11.9854C73.9238 14.908 72.3692 17.5103 70.5087 19.7754L70.1327 20.2246C68.4852 22.1097 66.664 23.8366 64.6942 25.3818C62.43 27.2053 60.2121 29.1649 58.7938 31.7217L58.7928 31.7227C58.1927 32.7532 57.8234 33.9017 57.7098 35.0889C57.5963 36.2761 57.7407 37.4748 58.1346 38.6006L58.2655 38.9609C58.9436 40.7492 59.9912 42.3317 61.0809 43.8936C62.2423 45.558 63.4526 47.2007 64.3065 49.0391L64.3973 49.2334L64.2362 49.0918C62.587 47.6356 60.9681 46.1324 59.4335 44.5566L58.7811 43.877C57.0893 42.0723 55.4828 40.1588 54.3612 37.9395L54.1434 37.4912C53.3789 35.8012 53.0342 33.8243 53.62 32.0264C54.2049 30.1917 55.5149 28.7218 56.8173 27.3594L56.8182 27.3584L57.5087 26.6885C59.1408 25.1487 60.9127 23.7696 62.6747 22.3867C64.6892 20.8057 66.6915 19.2193 68.4628 17.3779L68.826 16.9941C70.6215 15.0532 72.0754 12.7652 72.5975 10.1641L72.5985 10.1631L72.6766 9.78125C73.0308 7.86647 72.8139 5.90441 72.4198 4.00879L72.4637 4L72.4979 3.9707Z" fill="#F58219"/>
<path d="M83.2871 49.9942C84.1289 48.972 85.4698 48.7115 86.6945 48.5511C88.8191 48.2705 91.082 48.8117 92.6855 50.2748C93.3559 50.8678 93.8697 51.6171 94.1812 52.4563C94.4927 53.2954 94.5924 54.1984 94.4713 55.0853C94.1707 57.1497 92.7857 58.8735 91.2243 60.1763C88.3982 62.4412 84.9106 63.7641 81.4231 64.648C81.6206 64.4213 81.8502 64.2248 82.1046 64.0647C84.7483 62.6416 87.374 60.978 89.3202 58.653C90.5027 57.2099 91.4247 55.3258 91.0439 53.4217C90.643 51.2169 88.4984 49.6134 86.3137 49.4931C85.2694 49.3929 84.2893 49.7938 83.2871 49.9942Z" fill="#4E7896" stroke="#0B6FB7" stroke-width="0.09" stroke-miterlimit="10"/>
<path d="M43.0003 51.8245C46.6883 50.2411 50.697 49.2189 54.7257 49.279C52.3806 49.9605 49.9754 50.5417 47.7706 51.584C47.2495 51.8646 46.6482 52.1252 46.3476 52.6663C46.1872 53.0873 46.6282 53.3679 46.9489 53.5082C48.3118 54.0694 49.8151 54.1496 51.2782 54.2899C56.4093 54.6306 61.5605 54.4302 66.6715 54.1095C71.7205 53.7888 76.7313 53.1073 81.7241 52.3056C80.6054 52.8013 79.5207 53.3705 78.4771 54.0093C77.9539 54.37 77.3146 54.4703 76.7313 54.6106C70.6 55.9735 64.3044 56.3944 58.0529 56.4946C55.6276 56.5147 53.2224 56.4746 50.8172 56.3142C48.1314 56.1339 45.4256 55.9334 42.7999 55.2319C42.0382 55.0114 41.2365 54.7709 40.6352 54.2297C40.5659 54.1671 40.5097 54.0913 40.4701 54.0067C40.4304 53.9221 40.4081 53.8304 40.4044 53.7371C40.4006 53.6437 40.4156 53.5506 40.4483 53.4631C40.4811 53.3756 40.531 53.2955 40.5951 53.2276C41.2566 52.5461 42.1786 52.2254 43.0003 51.8245Z" fill="#4E7896" stroke="#0B6FB7" stroke-width="0.09" stroke-miterlimit="10"/>
<path d="M47.7295 60.3814C48.7718 59.5597 50.0145 59.0987 51.2572 58.6577C50.8563 59.1388 50.2951 59.5998 50.255 60.2612C50.235 60.6821 50.5757 61.0028 50.9164 61.2032C51.5779 61.544 52.3195 61.6642 53.0611 61.7644C56.9094 62.1653 60.7978 62.3858 64.6862 62.1252C68.2319 61.9448 71.7615 61.3636 75.2691 60.7422C76.2292 61.6442 77.3737 62.2655 78.5763 62.8067C74.3512 64.0222 70.0112 64.7947 65.6262 65.1117C61.4993 65.3923 57.3103 65.3723 53.1994 64.7108C51.5759 64.4102 49.9123 64.0694 48.429 63.3078C47.8277 62.9871 47.1463 62.5662 46.9659 61.8647C46.8456 61.2634 47.2866 60.7222 47.7275 60.3814H47.7295Z" fill="#4E7896" stroke="#0B6FB7" stroke-width="0.09" stroke-miterlimit="10"/>
<path d="M50.0547 69.121C50.9767 68.3794 52.1192 67.9986 53.2416 67.6779C52.8808 68.0186 52.2395 68.4395 52.5201 69.0208C53.0612 69.7223 54.0634 69.8025 54.8651 69.9829C58.2525 70.4038 61.6799 70.6844 65.0672 70.4238C67.6307 70.2655 70.1582 69.8025 72.6636 69.3635C74.1095 70.1962 75.6086 70.9327 77.1513 71.5683C74.7882 72.6286 72.2407 73.3101 69.6972 73.7911C65.3945 74.572 60.992 74.6337 56.669 73.9735C54.7649 73.6308 52.8207 73.1898 51.097 72.2478C50.4356 71.8689 49.734 71.426 49.4534 70.6844C49.233 70.1031 49.5937 69.4818 50.0547 69.121Z" fill="#4E7896" stroke="#0B6FB7" stroke-width="0.09" stroke-miterlimit="10"/>
<path d="M38.9311 74.7941C40.7751 74.1748 42.6792 73.6737 44.6234 73.6115C45.4051 73.5915 46.2068 73.6316 46.8883 74.0324C44.5452 74.1613 42.2533 74.7683 40.1537 75.8163C39.6927 76.0789 39.1716 76.3795 38.9912 76.9187C38.9912 77.54 39.6927 77.7405 40.1537 77.9409C43.06 79.0233 46.1667 79.364 49.2133 79.6867C58.293 80.4464 67.4307 80.2459 76.5124 79.4241C79.9378 79.0433 83.3872 78.6625 86.7144 77.7204C87.7747 77.3597 88.9773 76.9989 89.6789 76.0568C90.1018 75.4956 89.8212 74.7941 89.4003 74.3131C90.0797 74.6939 91.0438 75.1769 90.9035 76.0969C90.6429 77.059 89.6588 77.5601 88.8571 78.0211C86.2935 79.3239 83.4654 79.9874 80.6594 80.5666C72.5037 82.1701 64.1456 82.5309 55.8477 82.2924C49.5856 82.0841 43.3446 81.4539 37.1673 80.4063C36.0649 80.1457 34.8222 79.9252 34.0205 79.0634C33.4993 78.462 33.9603 77.6202 34.4614 77.1813C35.7242 76.0168 37.3477 75.3774 38.9311 74.7941Z" fill="#4E7896" stroke="#0B6FB7" stroke-width="0.09" stroke-miterlimit="10"/>
<path d="M88.8773 81.648C90.9037 80.9465 93.0684 80.2049 94.5716 78.6014C94.3111 80.3452 92.8078 81.5478 91.3246 82.3295C88.4764 83.8127 85.2915 84.4962 82.1247 85.0554C75.4282 86.1177 68.6335 86.3783 61.8408 86.258C57.2108 86.1177 52.5407 85.9373 47.9908 84.9752C46.9085 84.6746 45.746 84.4742 44.804 83.8328C48.8527 84.5142 52.9616 84.7969 57.0705 84.9552C63.8316 85.177 70.5997 84.8754 77.3143 84.0532C81.2027 83.5121 85.1111 82.8506 88.8773 81.648Z" fill="#4E7896" stroke="#0B6FB7" stroke-width="0.09" stroke-miterlimit="10"/>
<path d="M36.0688 111.373C36.0888 104.798 36.0488 98.2262 36.0888 91.6299C37.4518 91.67 38.8147 91.6299 40.1777 91.67C40.1576 99.0279 40.1777 106.402 40.1576 113.778C40.1176 115.842 40.0775 118.007 39.0753 119.851C37.9729 121.815 36.0087 123.198 33.9242 124C33.2627 123.28 32.6614 122.517 32 121.795C33.6836 120.813 35.3673 119.41 35.7682 117.386C36.149 115.401 36.0287 113.377 36.0688 111.373Z" fill="#F58219"/>
<path d="M43.962 99.5467C46.6679 98.3842 49.6744 97.7829 52.6207 98.1036C54.144 98.284 55.7275 98.8452 56.7096 100.068C57.5314 101.11 57.832 102.453 57.812 103.756V117.205H54.7854C54.6852 116.544 54.585 115.864 54.5048 115.181C53.3623 116.083 52.1397 116.944 50.7166 117.305C49.0688 117.748 47.324 117.664 45.7258 117.067C45.1133 116.809 44.5675 116.414 44.13 115.914C43.6924 115.413 43.3745 114.82 43.2004 114.178C42.6993 112.314 42.9598 110.13 44.2827 108.626C45.4653 107.245 47.2491 106.562 49.0129 106.243C50.6364 105.921 52.3 105.921 53.9636 105.921C53.9236 104.658 54.1641 103.275 53.4425 102.152C52.8613 101.291 51.799 100.95 50.8168 100.89C48.6722 100.709 46.5476 101.25 44.5232 101.952C44.3228 101.15 44.1424 100.348 43.962 99.5467ZM48.9328 108.849C48.0509 109.128 47.2291 109.769 46.9886 110.691C46.7079 111.713 46.7881 112.916 47.4496 113.778C48.111 114.639 49.2535 114.82 50.2556 114.7C51.6587 114.539 52.8813 113.737 53.9636 112.876C53.9636 111.372 53.9436 109.889 53.9636 108.386C52.28 108.386 50.5563 108.286 48.9328 108.849Z" fill="#F58219"/>
<path d="M79.1983 99.5477C81.9242 98.3852 84.9307 97.7639 87.8972 98.1046C89.3784 98.285 90.9037 98.8282 91.8838 99.9887C92.8078 101.091 93.0864 102.554 93.0684 103.957C93.0483 108.387 93.0864 112.796 93.0283 117.226C92.0261 117.186 91.0239 117.246 90.0218 117.186C89.9215 116.504 89.8414 115.843 89.7211 115.182C88.3181 116.384 86.6344 117.368 84.7303 117.527C82.9865 117.687 81.0223 117.469 79.6573 116.224C78.2343 114.901 77.9957 112.758 78.3545 110.932C78.6973 109.251 79.958 107.866 81.4833 107.124C83.8664 105.962 86.5943 105.901 89.2 105.922C89.1579 104.699 89.3784 103.396 88.757 102.294C88.276 101.412 87.2538 101.011 86.2937 100.911C84.0669 100.67 81.8421 101.233 79.7576 101.953C79.5792 101.151 79.3787 100.349 79.1983 99.5477ZM84.109 108.868C83.2651 109.151 82.4855 109.79 82.2249 110.672C81.9423 111.694 82.0245 112.897 82.6638 113.779C83.3032 114.66 84.5098 114.821 85.532 114.701C86.915 114.5 88.1758 113.738 89.22 112.816C89.1779 111.355 89.2 109.87 89.2 108.387C87.4963 108.387 85.7505 108.287 84.109 108.868Z" fill="#F58219"/>
<path d="M60.0969 98.3446H64.306C65.1258 100.99 65.9275 103.616 66.7513 106.262C67.2304 107.885 67.8317 109.489 68.1744 111.154C68.3548 111.894 68.5131 112.658 68.7336 113.377C70.4593 108.507 71.7822 103.476 72.4637 98.3446H76.5565C75.376 104.841 73.512 111.233 70.7059 117.205H65.8955C63.9713 110.912 62.0271 104.64 60.1029 98.3446H60.0969Z" fill="#F58219"/>
<path d="M93.8678 97.9811H93.3748V97.8027H94.5774V97.9811H94.0823V99.4222H93.8718L93.8678 97.9811Z" fill="#F58219"/>
<path d="M96.1207 98.7107C96.1086 98.4862 96.0926 98.2116 96.0926 98.0112C96.0345 98.1996 95.9703 98.4121 95.8922 98.6265L95.5975 99.4142H95.4392L95.1746 98.6426C95.0985 98.4101 95.0363 98.2036 94.9902 98.0112C94.9902 98.2116 94.9722 98.4822 94.9582 98.7287L94.9141 99.4222H94.7136L94.8259 97.8027H95.0924L95.369 98.5864C95.4372 98.7869 95.4893 98.9633 95.5334 99.1316C95.5775 98.9693 95.6356 98.7909 95.7078 98.5864L95.9964 97.8027H96.263L96.3632 99.4222H96.1628L96.1207 98.7107Z" fill="#F58219"/>
</svg>
