<svg width="128" height="128" viewBox="0 0 128 128" fill="none" xmlns="http://www.w3.org/2000/svg">
<path fill-rule="evenodd" clip-rule="evenodd" d="M63.9139 88.9263C86.4801 119.689 108.564 80.3398 108.532 56.6772C108.494 28.6999 80.1369 13.0634 63.8954 13.0634C37.8268 13.0634 13 34.6083 13 64.0862C13 96.8511 41.458 115 63.8954 115C58.8177 114.269 41.8978 110.643 41.6702 71.6711C41.5172 45.3125 50.2688 34.7817 63.8584 39.4144C64.1625 39.5272 78.8486 45.3208 78.8486 64.2456C78.8486 83.09 63.9139 88.9263 63.9139 88.9263Z" fill="url(#paint0_linear_69_112)"/>
<path fill-rule="evenodd" clip-rule="evenodd" d="M63.8871 39.3932C48.976 34.2536 30.7098 46.5433 30.7098 71.1591C30.7098 111.352 60.4944 115 64.1045 115C90.1731 115 115 93.4549 115 63.977C115 31.2121 86.542 13.0632 64.1045 13.0632C70.3189 12.2026 97.5994 19.7888 97.5994 57.0742C97.5994 81.389 77.2294 94.626 63.9809 88.9701C63.6768 88.8573 48.9907 83.0644 48.9907 64.1389C48.9907 45.2945 63.8871 39.3932 63.8871 39.3932Z" fill="url(#paint1_linear_69_112)"/>
<defs>
<linearGradient id="paint0_linear_69_112" x1="28.085" y1="28.0854" x2="99.9331" y2="99.9565" gradientUnits="userSpaceOnUse">
<stop/>
<stop offset="1" stop-color="white"/>
</linearGradient>
<linearGradient id="paint1_linear_69_112" x1="99.9433" y1="99.9461" x2="28.0952" y2="28.0815" gradientUnits="userSpaceOnUse">
<stop/>
<stop offset="1" stop-color="white"/>
</linearGradient>
</defs>
</svg>
