<svg width="128" height="128" viewBox="0 0 128 128" fill="none" xmlns="http://www.w3.org/2000/svg">
<path d="M72.88 36.2799L72.7599 4H54.7601L54.8802 36.2799L63.8799 48.6403L72.88 36.2799ZM54.8802 91.6V124H72.88V91.6L63.8799 79.2401L54.8802 91.6Z" fill="white"/>
<path d="M72.88 91.6L91.8402 117.76L106.36 107.2L87.3999 81.0403L72.88 76.3599V91.6ZM54.8802 36.2799L35.8 10.1199L21.2801 20.68L40.2402 46.8401L54.8802 51.52V36.2799Z" fill="#00F2E6"/>
<path d="M40.2402 46.8402L9.5198 36.8801L4 53.92L34.7199 64.0001L49.2399 59.2L40.2402 46.8402ZM78.4003 68.6801L87.3999 81.0404L118.12 91L123.64 73.9602L92.9202 64.0001L78.4003 68.6801Z" fill="#00B9F1"/>
<path d="M92.9202 64.0001L123.64 53.92L118.12 36.8801L87.3999 46.8402L78.4003 59.2L92.9202 64.0001ZM34.7199 64.0001L4 73.9602L9.5198 91L40.2402 81.0404L49.2399 68.6801L34.7199 64.0001Z" fill="#D63AFF"/>
<path d="M40.2402 81.0403L21.2801 107.2L35.8 117.76L54.8802 91.6V76.3599L40.2402 81.0403ZM87.3999 46.8401L106.36 20.68L91.8402 10.1199L72.88 36.2799V51.52L87.3999 46.8401Z" fill="#FB015B"/>
</svg>
