<svg width="128" height="128" viewBox="0 0 128 128" fill="none" xmlns="http://www.w3.org/2000/svg">
<path d="M53.2141 15.4566C52.567 14.7864 51.7914 14.2537 50.9337 13.8903C50.076 13.527 49.1539 13.3405 48.2225 13.3419C47.2934 13.333 46.3724 13.5162 45.5173 13.8801C44.6622 14.244 43.8915 14.7807 43.2535 15.4566C41.9414 16.8192 41.2083 18.6376 41.2083 20.5297C41.2083 22.4217 41.9414 24.2401 43.2535 25.6027C43.8991 26.2671 44.6717 26.7948 45.5254 27.1542C46.3791 27.5137 47.2964 27.6975 48.2225 27.6949C49.1518 27.6955 50.0718 27.5107 50.9288 27.1515C51.7859 26.7923 52.5628 26.2657 53.2141 25.6027C54.5262 24.2401 55.2593 22.4217 55.2593 20.5297C55.2593 18.6376 54.5262 16.8192 53.2141 15.4566ZM48.2225 113.722C50.0976 113.714 51.8926 112.961 53.2141 111.63C54.5319 110.276 55.2665 108.459 55.2602 106.569C55.2629 104.672 54.5292 102.849 53.2141 101.484C52.5659 100.817 51.7896 100.288 50.9318 99.9283C50.074 99.5688 49.1525 99.3864 48.2225 99.392C47.295 99.3802 46.375 99.5599 45.52 99.9198C44.665 100.28 43.8934 100.812 43.2535 101.484C41.9383 102.849 41.2047 104.672 41.2074 106.569C41.201 108.459 41.9356 110.276 43.2535 111.63C43.9022 112.291 44.6754 112.816 45.5284 113.175C46.3814 113.534 47.2971 113.72 48.2225 113.722ZM86.6261 91.9681C87.5272 91.7267 88.3712 91.3079 89.1086 90.7362C89.846 90.1645 90.462 89.4514 90.9206 88.6386L91.0556 88.3686C91.9076 86.7761 92.1322 84.9219 91.6851 83.1719C91.4499 82.2619 91.0367 81.4076 90.4693 80.6585C89.902 79.9094 89.1918 79.2802 88.3799 78.8075C86.7805 77.9051 84.8897 77.6707 83.1185 78.1551C82.186 78.3777 81.3102 78.793 80.5474 79.3741C79.7846 79.9552 79.1516 80.6894 78.6891 81.5296C78.216 82.3488 77.9089 83.2533 77.7855 84.1913C77.662 85.1293 77.7246 86.0825 77.9696 86.9963C78.4656 88.8177 79.6404 90.3796 81.2523 91.3607C82.0522 91.8294 82.9381 92.1326 83.8573 92.2524C84.7765 92.3722 85.7104 92.3061 86.6036 92.0581L86.6261 91.9681ZM55.4401 56.1758C54.5031 55.2083 53.3813 54.4392 52.1415 53.9139C50.9017 53.3886 49.569 53.1179 48.2225 53.1179C46.8761 53.1179 45.5434 53.3886 44.3036 53.9139C43.0637 54.4392 41.942 55.2083 41.005 56.1758C39.0784 58.1379 38.0037 60.7816 38.0146 63.5322C38.0075 66.2887 39.0812 68.938 41.005 70.9111C41.9452 71.873 43.0679 72.6372 44.3074 73.159C45.5468 73.6807 46.8779 73.9495 48.2225 73.9495C49.5672 73.9495 50.8983 73.6807 52.1377 73.159C53.3771 72.6372 54.4999 71.873 55.4401 70.9111C57.3639 68.938 58.4376 66.2887 58.4305 63.5322C58.4354 60.7894 57.3612 58.1549 55.4401 56.1983V56.1758ZM51.3704 43.9375C55.4088 44.6269 59.1246 46.5803 61.9831 49.5167C62.4328 49.9667 62.86 50.4841 63.2647 50.979L70.3023 46.8396C69.2188 43.4772 69.307 39.8464 70.5526 36.5407C71.7982 33.2349 74.1276 30.4495 77.1601 28.6397H77.295C79.001 27.6461 80.8879 27.003 82.8453 26.748C84.8027 26.4931 86.7913 26.6314 88.6947 27.1549C90.6342 27.6697 92.4521 28.5653 94.0424 29.7897C95.6328 31.014 96.9639 32.5425 97.9583 34.2864C99.9756 37.8527 100.524 42.0653 99.4873 46.0297C98.9849 47.9871 98.1005 49.8256 96.8849 51.4395C95.6694 53.0534 94.1467 54.4108 92.4046 55.4334L91.4378 56.0183C88.1679 57.5939 84.44 57.9373 80.9375 56.9856C78.1052 56.2247 75.5523 54.6625 73.5851 52.4863L66.5474 56.6032C67.3428 58.8257 67.7387 61.1716 67.7166 63.5322C67.7179 65.9355 67.2916 68.3199 66.4575 70.5737L73.4951 74.7806C75.4506 72.5902 78.008 71.0252 80.8476 70.2812C82.7783 69.7405 84.7989 69.5993 86.7859 69.8662C88.773 70.1331 90.6848 70.8025 92.4046 71.8335H92.6295C96.0204 73.9856 98.4611 77.3531 99.4517 81.2467C100.442 85.1404 99.9081 89.2656 97.9583 92.778V93.048C95.9678 96.4476 92.7481 98.9523 88.9645 100.044C87.0318 100.568 85.0141 100.701 83.0295 100.434C81.045 100.168 79.1336 99.5075 77.4074 98.4922C74.3779 96.6794 72.051 93.8938 70.8058 90.5891C69.5605 87.2842 69.4703 83.655 70.5497 80.2923L63.512 76.1754C63.1073 76.6703 62.6801 77.1427 62.2304 77.5927C59.3764 80.531 55.6574 82.4782 51.6177 83.1494V91.4282C54.5067 92.046 57.1499 93.5014 59.2175 95.6126C62.0476 98.5479 63.6292 102.467 63.6292 106.546C63.6292 110.625 62.0476 114.544 59.2175 117.479C57.8168 118.911 56.1447 120.048 54.2992 120.824C52.4537 121.6 50.4718 122 48.4699 122C46.4679 122 44.4861 121.6 42.6405 120.824C40.795 120.048 39.1229 118.911 37.7223 117.479C34.8551 114.563 33.2482 110.637 33.2482 106.546C33.2482 102.455 34.8551 98.5286 37.7223 95.6126C39.7846 93.5062 42.4191 92.0514 45.2995 91.4282V83.1044C41.2683 82.4272 37.5583 80.4805 34.7093 77.5477C31.0495 73.806 29 68.7788 29 63.5434C29 58.3081 31.0495 53.2809 34.7093 49.5392C37.5618 46.607 41.2691 44.6539 45.2995 43.96V35.7037C42.4243 35.0535 39.7951 33.5938 37.7223 31.4968C34.8001 28.6067 33.1352 24.6801 33.0889 20.5693C33.0426 16.4585 34.6187 12.4953 37.4749 9.53999C38.8724 8.10326 40.5435 6.96128 42.3894 6.18151C44.2354 5.40175 46.2188 5 48.2225 5C50.2263 5 52.2097 5.40175 54.0556 6.18151C55.9016 6.96128 57.5727 8.10326 58.9701 9.53999C61.807 12.4764 63.3927 16.4007 63.3927 20.4847C63.3927 24.5686 61.807 28.4929 58.9701 31.4293C56.895 33.5351 54.2559 34.996 51.3704 35.6362V43.9375ZM90.9206 38.4483C90.4599 37.6477 89.8453 36.9463 89.1122 36.3846C88.3792 35.8229 87.5422 35.4121 86.6496 35.1757C85.757 34.9394 84.8264 34.8822 83.9117 35.0076C82.9969 35.133 82.116 35.4384 81.3198 35.9062C80.5038 36.3739 79.7906 37.0015 79.2227 37.7514C78.6548 38.5013 78.2439 39.3581 78.0145 40.2706C77.5564 42.0469 77.7979 43.9315 78.6891 45.5348C79.1432 46.3378 79.753 47.0419 80.4827 47.6059C81.2125 48.17 82.0474 48.5825 82.9386 48.8193C83.8306 49.0779 84.7662 49.1494 85.687 49.0294C86.6079 48.9094 87.494 48.6005 88.29 48.1219C89.8908 47.1368 91.0475 45.569 91.5172 43.7483C91.9868 41.9275 91.7327 39.9955 90.8082 38.3583" fill="#231F20"/>
</svg>
