<svg width="128" height="128" viewBox="0 0 128 128" fill="none" xmlns="http://www.w3.org/2000/svg">
<path d="M13.0101 40.1836C12.6891 39.8514 12.3044 39.5873 11.879 39.4072C11.4536 39.2271 10.9963 39.1346 10.5343 39.1353C10.0734 39.1309 9.61663 39.2217 9.19251 39.4021C8.76839 39.5825 8.38612 39.8486 8.06966 40.1836C7.41887 40.8591 7.05526 41.7605 7.05526 42.6985C7.05526 43.6364 7.41887 44.5378 8.06966 45.2133C8.38989 45.5427 8.77312 45.8042 9.19655 45.9824C9.61997 46.1606 10.0749 46.2518 10.5343 46.2504C10.9952 46.2507 11.4515 46.1592 11.8766 45.9811C12.3017 45.803 12.687 45.542 13.0101 45.2133C13.6609 44.5378 14.0245 43.6364 14.0245 42.6985C14.0245 41.7605 13.6609 40.8591 13.0101 40.1836ZM10.5343 88.8966C11.4643 88.8922 12.3547 88.5193 13.0101 87.8595C13.6637 87.1881 14.0281 86.2872 14.025 85.3502C14.0263 84.4103 13.6624 83.5065 13.0101 82.8298C12.6886 82.4991 12.3035 82.2367 11.8781 82.0585C11.4526 81.8802 10.9956 81.7898 10.5343 81.7926C10.0743 81.7868 9.61794 81.8758 9.19387 82.0543C8.76979 82.2327 8.38709 82.4967 8.06966 82.8298C7.41736 83.5065 7.05349 84.4103 7.05481 85.3502C7.05167 86.2872 7.41603 87.1881 8.06966 87.8595C8.39141 88.1868 8.77494 88.4471 9.19802 88.6251C9.62109 88.8031 10.0753 88.8954 10.5343 88.8966ZM29.5823 78.1124C30.0293 77.9927 30.4479 77.7851 30.8136 77.5017C31.1794 77.2183 31.4849 76.8648 31.7124 76.4619L31.7793 76.328C32.2019 75.5386 32.3134 74.6194 32.0916 73.7519C31.9749 73.3008 31.77 72.8773 31.4886 72.5059C31.2072 72.1346 30.8549 71.8227 30.4522 71.5883C29.6589 71.141 28.7211 71.0248 27.8426 71.2649C27.38 71.3753 26.9457 71.5811 26.5673 71.8692C26.189 72.1573 25.875 72.5212 25.6456 72.9378C25.4109 73.3439 25.2587 73.7922 25.1974 74.2572C25.1362 74.7222 25.1672 75.1947 25.2887 75.6478C25.5347 76.5507 26.1174 77.3249 26.917 77.8113C27.3137 78.0436 27.7531 78.1939 28.209 78.2533C28.6649 78.3127 29.1281 78.28 29.5712 78.157L29.5823 78.1124ZM14.1142 60.3692C13.6494 59.8896 13.0931 59.5083 12.4781 59.2479C11.8631 58.9875 11.2021 58.8533 10.5343 58.8533C9.86649 58.8533 9.20548 58.9875 8.59052 59.2479C7.97556 59.5083 7.41919 59.8896 6.95444 60.3692C5.99886 61.3419 5.46582 62.6524 5.47119 64.016C5.4677 65.3824 6.00024 66.6958 6.95444 67.6739C7.42077 68.1507 7.97765 68.5296 8.5924 68.7882C9.20714 69.0469 9.86737 69.1801 10.5343 69.1801C11.2013 69.1801 11.8615 69.0469 12.4762 68.7882C13.091 68.5296 13.6479 68.1507 14.1142 67.6739C15.0684 66.6958 15.6009 65.3824 15.5974 64.016C15.5999 62.6563 15.067 61.3503 14.1142 60.3803V60.3692ZM12.0956 54.3024C14.0987 54.6441 15.9417 55.6125 17.3595 57.0681C17.5825 57.2912 17.7944 57.5477 17.9952 57.793L21.4858 55.741C20.9484 54.0742 20.9921 52.2743 21.6099 50.6355C22.2278 48.9968 23.3831 47.616 24.8872 46.7188H24.9542C25.8003 46.2263 26.7362 45.9075 27.7071 45.7811C28.678 45.6547 29.6643 45.7233 30.6083 45.9828C31.5704 46.238 32.472 46.682 33.2608 47.2889C34.0496 47.8958 34.7099 48.6536 35.2031 49.5181C36.2037 51.286 36.4757 53.3743 35.9614 55.3395C35.7123 56.3098 35.2736 57.2213 34.6707 58.0213C34.0678 58.8214 33.3125 59.4942 32.4485 60.0012L31.9689 60.2911C30.3471 61.0722 28.498 61.2424 26.7608 60.7707C25.356 60.3934 24.0898 59.619 23.114 58.5402L19.6234 60.5811C20.0179 61.6828 20.2142 62.8457 20.2033 64.016C20.2039 65.2074 19.9925 66.3894 19.5788 67.5066L23.0694 69.5921C24.0393 68.5063 25.3078 67.7305 26.7162 67.3616C27.6738 67.0936 28.676 67.0236 29.6616 67.1559C30.6472 67.2882 31.5954 67.62 32.4485 68.1311H32.56C34.2419 69.198 35.4524 70.8674 35.9438 72.7975C36.4351 74.7277 36.1702 76.7727 35.2031 78.5139V78.6477C34.2158 80.333 32.6188 81.5746 30.7422 82.116C29.7836 82.3758 28.7828 82.4415 27.7984 82.3093C26.8141 82.1772 25.8661 81.8499 25.0099 81.3465C23.5073 80.4479 22.3532 79.067 21.7355 77.4288C21.1179 75.7905 21.0731 73.9914 21.6085 72.3244L18.1178 70.2835C17.9171 70.5289 17.7052 70.7631 17.4822 70.9861C16.0666 72.4427 14.222 73.408 12.2183 73.7407V77.8447C13.6512 78.151 14.9622 78.8725 15.9878 79.9191C17.3915 81.3742 18.1759 83.3172 18.1759 85.339C18.1759 87.3609 17.3915 89.3039 15.9878 90.759C15.293 91.4685 14.4637 92.0322 13.5483 92.417C12.6329 92.8018 11.65 93 10.657 93C9.66401 93 8.68103 92.8018 7.76566 92.417C6.85028 92.0322 6.02093 91.4685 5.32621 90.759C3.9041 89.3135 3.10711 87.3669 3.10711 85.339C3.10711 83.3112 3.9041 81.3646 5.32621 79.9191C6.34912 78.8749 7.65582 78.1537 9.08452 77.8447V73.7184C7.08505 73.3827 5.24488 72.4177 3.83181 70.9638C2.01654 69.109 1 66.6169 1 64.0215C1 61.4262 2.01654 58.9341 3.83181 57.0793C5.24663 55.6257 7.08543 54.6575 9.08452 54.3135V50.2206C7.65843 49.8983 6.35433 49.1747 5.32621 48.1352C3.87685 46.7025 3.05105 44.7559 3.02808 42.7181C3.00512 40.6803 3.78683 38.7156 5.20354 37.2506C5.89668 36.5384 6.72553 35.9723 7.64111 35.5857C8.5567 35.1992 9.54047 35 10.5343 35C11.5282 35 12.5119 35.1992 13.4275 35.5857C14.3431 35.9723 15.1719 36.5384 15.8651 37.2506C17.2721 38.7063 18.0586 40.6516 18.0586 42.6762C18.0586 44.7007 17.2721 46.6461 15.8651 48.1017C14.8358 49.1456 13.5268 49.8698 12.0956 50.1872V54.3024ZM31.7124 51.5812C31.4839 51.1843 31.1791 50.8366 30.8155 50.5582C30.4519 50.2797 30.0367 50.0761 29.594 49.9589C29.1513 49.8417 28.6897 49.8134 28.236 49.8756C27.7823 49.9377 27.3453 50.0891 26.9504 50.321C26.5457 50.5529 26.192 50.864 25.9103 51.2357C25.6286 51.6075 25.4248 52.0322 25.311 52.4846C25.0838 53.3651 25.2036 54.2994 25.6456 55.0942C25.8708 55.4922 26.1733 55.8413 26.5352 56.1209C26.8972 56.4005 27.3113 56.605 27.7534 56.7224C28.1958 56.8506 28.6598 56.886 29.1166 56.8265C29.5733 56.767 30.0128 56.6139 30.4076 56.3767C31.2016 55.8883 31.7754 55.1112 32.0083 54.2086C32.2412 53.306 32.1152 52.3482 31.6567 51.5366" fill="#231F20"/>
<path d="M47.2026 52.7747H51.0502V64.886L56.6263 58.5515H61.2991L54.5185 65.8785L61.4217 75.1684H56.9608L51.0502 66.8711V75.1684H47.2026V52.7747Z" fill="#231F20"/>
<path d="M65.9164 66.9382C65.9015 67.5982 66.019 68.2545 66.262 68.8683C66.505 69.4821 66.8685 70.041 67.3311 70.512C67.7938 70.9829 68.3461 71.3564 68.9555 71.6103C69.5649 71.8642 70.219 71.9934 70.8791 71.9902C71.7829 72.0226 72.6763 71.7882 73.4478 71.3161C74.2193 70.8441 74.8347 70.1555 75.2173 69.336C75.5874 68.6111 75.8039 67.8176 75.853 67.0052C75.8807 66.1999 75.7243 65.3989 75.3958 64.6632C75.0156 63.7833 74.3793 63.0383 73.5697 62.5251C72.7601 62.0119 71.8148 61.7543 70.8568 61.7859C70.1888 61.7883 69.5281 61.9256 68.9143 62.1894C68.3006 62.4533 67.7464 62.8384 67.2851 63.3216C66.8238 63.8048 66.4647 64.3762 66.2296 65.0015C65.9944 65.6268 65.8878 66.2931 65.9164 66.9605V66.9382ZM79.7117 75.1686H75.8196V72.782C75.2498 73.7188 74.4364 74.4833 73.4661 74.994C72.4958 75.5047 71.4051 75.7423 70.3103 75.6816C65.0799 75.6816 62.0242 71.533 62.0242 66.849C62.0242 61.6186 65.7379 58.0388 70.3103 58.0388C71.4091 57.985 72.5019 58.2305 73.4721 58.749C74.4424 59.2675 75.2537 60.0396 75.8196 60.983V58.5518H79.7117V75.1686Z" fill="#231F20"/>
<path d="M84.1279 61.6186H82.1094V58.5517H84.1279V57.6261C84.1279 52.6856 87.8082 52.3845 90.6074 52.3511V55.4068C89.626 55.4068 88.0201 55.4068 88.0201 57.7376V58.5517H90.6074V61.6186H88.0201V75.1686H84.1279V61.6186Z" fill="#231F20"/>
<path d="M93.2615 52.7747H97.1537V64.886L102.73 58.5515H107.403L100.611 65.8785L107.469 75.1684H103.009L97.1537 66.8711V75.1684H93.2615V52.7747Z" fill="#231F20"/>
<path d="M111.964 66.9376C111.95 67.5981 112.069 68.2547 112.314 68.8685C112.558 69.4824 112.922 70.0412 113.386 70.512C113.849 70.9828 114.403 71.356 115.013 71.6098C115.622 71.8636 116.277 71.9927 116.938 71.9896C117.847 72.0257 118.746 71.7932 119.524 71.3212C120.301 70.8491 120.922 70.1584 121.309 69.3353C121.681 68.6116 121.894 67.817 121.934 67.0045C121.96 66.2005 121.808 65.4006 121.488 64.6626C121.104 63.7763 120.46 63.0271 119.642 62.5136C118.824 62 117.869 61.7461 116.904 61.7853C116.237 61.7892 115.577 61.9275 114.964 62.1919C114.351 62.4564 113.797 62.8415 113.336 63.3244C112.875 63.8072 112.516 64.378 112.28 65.0026C112.045 65.6272 111.937 66.2928 111.964 66.9599V66.9376ZM125.77 75.168H121.867V72.7814C121.298 73.7164 120.487 74.4798 119.518 74.9904C118.55 75.501 117.462 75.7396 116.369 75.681C111.139 75.681 108.072 71.5323 108.072 66.8484C108.072 61.618 111.797 58.0381 116.369 58.0381C117.466 57.984 118.558 58.2294 119.526 58.748C120.495 59.2666 121.304 60.039 121.867 60.9823V58.5511H125.77V75.168Z" fill="#231F20"/>
</svg>
