<svg width="128" height="128" viewBox="0 0 128 128" fill="none" xmlns="http://www.w3.org/2000/svg">
<path d="M36.0363 79.4645C34.1119 78.7065 33.0161 77.3263 32.7563 75.295C32.1405 70.5119 33.9088 68.0797 38.662 67.1314C40.9071 66.6867 43.1703 66.5969 45.4475 66.5969C45.9061 66.5969 46.5337 66.8107 46.7133 66.1617C46.864 65.6165 46.6235 65.0927 46.2183 64.6896C45.703 64.1775 45.0369 64.0065 44.3335 63.9359C42.0243 63.7018 39.7792 63.9412 37.6923 64.989C36.914 65.3792 36.4543 65.3172 36.0117 64.5549C35.5705 63.7878 35.0663 63.0586 34.5043 62.375C33.7677 61.4877 34.0948 61.0611 35.0164 60.6431C39.2179 58.739 43.5809 58.3702 48.0518 59.3345C50.3578 59.8316 51.707 61.3658 52.109 63.6847C52.6435 66.753 52.2875 69.848 52.3709 72.9302C52.3987 73.9351 52.2725 74.9615 53.6955 75.1143C54.0526 75.1539 54.1648 75.4447 54.1659 75.7558C54.1659 76.5512 54.1659 78.2543 54.1659 79.1854C54.1659 79.3556 54.0983 79.5187 53.978 79.639C53.8577 79.7593 53.6946 79.8269 53.5244 79.8269H50.2359C49.1145 79.8002 48.2549 78.8113 48.0154 78.3665C47.8882 78.1292 47.575 78.127 47.374 78.3259C46.2942 79.4067 43.4066 80.1434 40.5318 80.1434C38.6844 80.1487 36.4607 79.6323 36.0363 79.4645ZM44.1614 75.2245C45.9703 74.8289 46.9004 73.2819 46.802 71.4612C46.7764 70.9802 46.7133 70.5322 46.1274 70.5258C43.8652 70.5001 41.5891 70.4371 39.4029 71.1405C38.3519 71.4794 38.1082 72.3646 38.1328 73.3771C38.1574 74.3895 38.6673 75.0481 39.6295 75.2886C40.2902 75.4564 42.128 75.6703 44.1571 75.2245H44.1614Z" fill="#08E6BF"/>
<path d="M83.5738 79.4645C81.6495 78.7065 80.5537 77.3263 80.2928 75.295C79.6802 70.5119 81.4453 68.0754 86.2017 67.1314C88.4467 66.6867 90.7111 66.5969 92.9882 66.5969C93.4469 66.5969 94.0744 66.8107 94.254 66.1617C94.4048 65.6165 94.1632 65.0927 93.758 64.6896C93.2437 64.1775 92.582 64.0065 91.8742 63.9359C89.565 63.7018 87.3189 63.9412 85.232 64.989C84.4537 65.3792 83.994 65.3172 83.5514 64.5549C83.1105 63.7878 82.6067 63.0587 82.045 62.375C81.3074 61.4877 81.6356 61.0611 82.5571 60.6431C86.7586 58.739 91.1216 58.3702 95.5915 59.3345C97.8975 59.8316 99.2467 61.3658 99.654 63.6847C100.189 66.753 99.8336 69.848 99.917 72.9302C99.9437 73.9351 99.8176 74.9615 101.241 75.1143C101.598 75.1539 101.711 75.4447 101.712 75.7558C101.712 76.5512 101.712 78.2543 101.712 79.1854C101.712 79.3556 101.644 79.5187 101.524 79.639C101.404 79.7593 101.241 79.8269 101.071 79.8269H97.7767C96.6541 79.8002 95.7957 78.8113 95.5562 78.3665C95.4279 78.1292 95.1146 78.127 94.9147 78.3259C93.835 79.4067 90.9473 80.1434 88.0726 80.1434C86.222 80.1487 83.9983 79.6323 83.5738 79.4645ZM91.6989 75.2245C93.5078 74.8289 94.4379 73.2819 94.3396 71.4612C94.3139 70.9802 94.2508 70.5322 93.665 70.5258C91.4028 70.5001 89.1267 70.4371 86.9404 71.1405C85.8895 71.4794 85.6447 72.3646 85.6692 73.3771C85.6938 74.3895 86.2038 75.0481 87.166 75.2886C87.8267 75.4564 89.6644 75.6703 91.6946 75.2245H91.6989Z" fill="#08E6BF"/>
<path d="M4.00045 49.5138C3.98655 48.3656 4.29231 48.0096 5.49717 48H10.9837C12.1448 48 12.4035 48.3902 12.3832 49.4476C12.3233 52.441 12.3543 55.4291 12.3703 58.4205C12.3703 58.8823 12.2944 59.5644 12.7317 59.7301C13.3026 59.9439 13.5656 59.3174 13.897 58.9956C18.5703 54.4627 24.136 51.709 30.594 50.7347C31.5188 50.5947 32.0555 50.4407 31.9464 49.3642C31.8705 48.6158 32.2896 48.3902 32.9738 48.7783C35.7178 50.3378 38.4618 51.8961 41.2058 53.4534C41.9456 53.8736 41.967 54.3087 41.2229 54.7289C38.5245 56.2669 35.824 57.8025 33.1213 59.3356C32.343 59.7782 31.8384 59.6317 31.9357 58.6706C32.0426 57.5898 31.4792 57.609 30.6795 57.732C20.8247 59.2426 12.6836 68.5875 12.3853 78.5985C12.3596 79.4666 12.2078 79.7852 11.2232 79.7863H5.43837C4.334 79.8301 3.98762 79.4805 4.00045 78.3708V49.5138Z" fill="#08E6BF"/>
<path d="M81.1058 63.7105C81.1045 63.8669 81.043 64.0168 80.9341 64.1291C80.8252 64.2414 80.6773 64.3074 80.521 64.3134C76.6979 64.4706 75.229 66.4516 75.1948 69.4451C75.1691 71.7821 75.1798 77.1201 75.1852 79.0873C75.1852 79.2857 75.1063 79.4761 74.966 79.6164C74.8256 79.7568 74.6353 79.8356 74.4368 79.8356H70.0878C69.8878 79.8353 69.6961 79.7557 69.5547 79.6142C69.4134 79.4727 69.334 79.2808 69.334 79.0808C69.334 75.7207 69.334 62.1892 69.334 60.1878C69.3336 60.0385 69.3887 59.8944 69.4887 59.7835C69.5887 59.6726 69.7264 59.6029 69.875 59.5881L73.5644 59.2192C73.7158 59.2043 73.8673 59.2473 73.9883 59.3395C74.1092 59.4318 74.1908 59.5664 74.2166 59.7163C74.3801 60.6315 74.8046 61.0655 75.3979 60.6283C76.5162 59.8062 78.0706 59.309 80.4611 59.0706C80.5458 59.0625 80.6312 59.0723 80.7119 59.0993C80.7926 59.1263 80.8667 59.1699 80.9295 59.2274C80.9923 59.2848 81.0423 59.3548 81.0763 59.4327C81.1104 59.5107 81.1277 59.5949 81.1271 59.68L81.1058 63.7105Z" fill="#08E6BF"/>
<path d="M31.4813 79.793H25.7884C25.6322 79.7929 25.482 79.7328 25.3688 79.6252C25.2556 79.5176 25.188 79.3706 25.1801 79.2146C24.8455 72.7412 23.1168 69.4334 20.1222 65.8231C19.6166 65.2127 19.5781 64.754 20.2121 64.2195C21.4132 63.204 22.6726 62.2594 23.9838 61.3906C24.7664 60.8721 25.2314 60.9705 25.8141 61.705C29.3784 66.2016 31.9645 71.7384 32.0907 79.174C32.0918 79.2547 32.0769 79.335 32.0468 79.4099C32.0167 79.4849 31.972 79.5532 31.9153 79.6108C31.8586 79.6683 31.7911 79.7141 31.7166 79.7454C31.6421 79.7767 31.5621 79.7928 31.4813 79.793Z" fill="#08E6BF"/>
<path d="M67.136 75.0565C66.5811 75.0725 65.7547 75.0843 65.2116 75.0405C63.9651 74.9421 62.7752 74.7358 62.7666 73.1086C62.7592 71.8653 62.7517 67.6477 62.7485 63.722H67.1403C67.2801 63.722 67.4141 63.6664 67.513 63.5676C67.6118 63.4688 67.6673 63.3347 67.6673 63.1949V59.6861C67.6675 59.6169 67.6539 59.5483 67.6275 59.4843C67.6011 59.4203 67.5622 59.3621 67.5133 59.3131C67.4643 59.2642 67.4061 59.2254 67.3421 59.1989C67.2781 59.1725 67.2095 59.1589 67.1403 59.1591H62.7474C62.7474 56.7579 62.7527 54.9116 62.7613 54.5256C62.7805 53.7345 62.4534 53.5314 61.674 53.6051C60.6573 53.7003 59.5551 53.8639 58.8645 53.975C58.6645 54.0069 58.4802 54.1023 58.3387 54.2471C58.1971 54.3919 58.106 54.5784 58.0787 54.779L57.4821 59.1623H54.3722C54.2324 59.1623 54.0983 59.2178 53.9995 59.3167C53.9006 59.4155 53.8451 59.5496 53.8451 59.6894V63.1981C53.8451 63.3379 53.9006 63.472 53.9995 63.5708C54.0983 63.6697 54.2324 63.7252 54.3722 63.7252H57.1304L57.1112 74.91C57.0887 77.138 59.0943 79.8204 62.4769 79.8204H67.074C67.2468 79.8204 67.4125 79.7518 67.5347 79.6297C67.657 79.5077 67.7258 79.3421 67.7261 79.1693V75.6285C67.726 75.5518 67.7105 75.476 67.6806 75.4055C67.6507 75.3349 67.6069 75.2711 67.5519 75.2178C67.4969 75.1645 67.4317 75.1227 67.3603 75.095C67.2889 75.0673 67.2126 75.0542 67.136 75.0565Z" fill="#08E6BF"/>
<path d="M118.095 79.7927C117.931 79.7927 117.773 79.7274 117.657 79.6111C117.541 79.4948 117.475 79.3371 117.475 79.1726V67.1411C117.475 62.7973 108.903 62.7578 108.903 68.2102V79.1726C108.903 79.3371 108.838 79.4948 108.722 79.6111C108.605 79.7274 108.448 79.7927 108.283 79.7927H103.736C103.572 79.7927 103.414 79.7274 103.298 79.6111C103.182 79.4948 103.116 79.3371 103.116 79.1726V59.9707C103.116 59.7915 103.188 59.6196 103.314 59.4929C103.441 59.3662 103.613 59.295 103.792 59.295H106.904C107.027 59.295 107.147 59.3284 107.252 59.3915C107.356 59.4546 107.442 59.545 107.5 59.6531L108.025 60.7051H108.44C114.082 57.1322 120.541 58.753 122.248 62.2019C123.12 63.9659 123.12 65.2851 123.12 67.0513V79.1726C123.12 79.3371 123.055 79.4948 122.938 79.6111C122.822 79.7274 122.664 79.7927 122.5 79.7927H118.095Z" fill="#08E6BF"/>
</svg>
