<svg width="128" height="128" viewBox="0 0 128 128" fill="none" xmlns="http://www.w3.org/2000/svg">
<path d="M107.288 35.6859C106.685 33.7547 105.237 32.1861 103.427 31.2216L66.6277 13.6042C65.6632 13.1208 64.5768 13 63.6113 13C62.6457 13 61.5604 13 60.5948 13.2417L23.7957 30.98C22.8887 31.395 22.0897 32.0137 21.4609 32.788C20.8322 33.5623 20.3906 34.4713 20.1707 35.4442L11.117 75.1434C10.9387 76.1486 10.9644 77.1794 11.1926 78.1744C11.4207 79.1695 11.8467 80.1085 12.4451 80.9356L37.9057 112.429C39.3535 113.878 41.4043 114.846 43.4563 114.963H84.0002C86.1719 115.205 88.2228 114.239 89.5508 112.429L115.011 80.9356C116.201 79.2538 116.718 77.1872 116.459 75.1434L107.288 35.6859Z" fill="#326DE6"/>
<path d="M101.618 73.5739C101.498 73.5739 101.377 73.5739 101.377 73.453C101.377 73.3322 101.135 73.3366 100.889 73.3366C100.407 73.2158 99.9245 73.2158 99.4412 73.2158C99.1936 73.2348 98.9452 73.1933 98.7173 73.0949H98.5964C97.2107 72.9706 95.8382 72.7285 94.4936 72.371C94.3013 72.2978 94.1267 72.1846 93.9813 72.039C93.8359 71.8934 93.723 71.7187 93.65 71.5263L92.6844 71.2846C93.1666 67.786 92.925 64.1654 92.2011 60.6667C91.3495 57.1578 89.9227 53.8142 87.9785 50.7716L88.7068 50.0488V49.9279C88.7068 49.5654 88.8276 49.0832 89.0682 48.8416C90.1546 47.8771 91.241 47.1532 92.4471 46.4249L93.171 46.0635C93.6544 45.8218 94.0158 45.5802 94.498 45.3396C94.6188 45.2188 94.7397 45.2188 94.8605 45.0979C94.9813 44.9771 94.8605 44.9771 94.8605 44.8563C95.9458 44.0071 96.1875 42.5626 95.3427 41.4806C95.1371 41.2284 94.8802 41.0227 94.5892 40.8771C94.2982 40.7314 93.9795 40.6492 93.6544 40.6359C93.0413 40.6517 92.4494 40.863 91.9649 41.239L91.8441 41.3598C91.7232 41.4806 91.6024 41.6004 91.4816 41.6004C91.1202 41.9629 90.7577 42.3254 90.516 42.6868C90.3963 42.9284 90.1546 43.0493 90.0338 43.1701C89.1445 44.1786 88.1309 45.0704 87.0173 45.824C86.7757 45.9449 86.534 46.0657 86.2934 46.0657C86.1726 46.0657 85.9309 46.0657 85.8101 45.9449H85.6904L84.7248 46.5479C83.7592 45.5824 82.6728 44.6179 81.7084 43.6523C77.243 40.1526 71.6924 37.9809 66.021 37.3778L65.9001 36.4122V36.5331C65.5387 36.2914 65.4179 35.93 65.297 35.5675C65.297 34.2405 65.2971 32.9125 65.5387 31.4647V31.3438C65.5387 31.1033 65.6595 30.8616 65.6595 30.6199C65.7804 30.1377 65.7804 29.6555 65.9001 29.1721V28.4482C66.0209 27.2399 65.0554 26.0316 63.8493 25.914C63.1254 25.7932 62.4015 26.1557 61.7984 26.7588C61.5717 26.9783 61.3908 27.2407 61.2664 27.5307C61.1419 27.8208 61.0763 28.1326 61.0734 28.4482V29.0513C61.0734 29.5346 61.1942 30.0169 61.3151 30.4991C61.4133 30.7274 61.4548 30.9762 61.4359 31.2241V31.3438C61.6732 32.6686 61.6732 33.9956 61.6732 35.439C61.5523 35.8015 61.4315 36.1629 61.069 36.4045V36.6473L60.9493 37.6129C59.6212 37.7326 58.2942 37.9743 56.8464 38.2159C51.175 39.4243 45.9857 42.4385 42.0037 46.6622L41.2798 46.1799H41.159C41.0393 46.1799 40.9184 46.3008 40.6768 46.3008C40.4351 46.3008 40.1945 46.1799 39.9529 46.0591C38.864 45.2287 37.8542 44.2995 36.9364 43.2832C36.8156 43.0427 36.5739 42.9218 36.4531 42.801C36.0917 42.4385 35.85 42.0771 35.4886 41.7146C35.3678 41.5938 35.247 41.5938 35.1261 41.474L35.0053 41.3532C34.5208 40.9772 33.9289 40.766 33.3158 40.7501C32.5919 40.7501 31.9889 40.9907 31.6264 41.5938C31.2849 42.1203 31.1457 42.7526 31.2345 43.3738C31.3234 43.9951 31.6343 44.5631 32.1097 44.9727C32.1257 44.9724 32.1415 44.9753 32.1563 44.9813C32.1711 44.9873 32.1845 44.9961 32.1958 45.0074C32.2071 45.0187 32.216 45.0321 32.2219 45.0469C32.2279 45.0617 32.2308 45.0776 32.2305 45.0935C32.2305 45.0935 32.4711 45.3352 32.5919 45.3352C33.0206 45.6013 33.464 45.843 33.92 46.0591L34.6505 46.4238C35.8588 47.1488 37.0672 47.8727 38.0283 48.8405C38.27 49.0821 38.5117 49.5644 38.3908 49.9269V49.806L39.1147 50.5299C38.9939 50.7716 38.8731 50.8924 38.7533 51.1341C35.0097 57.0428 33.4422 64.0413 34.5275 70.9199L33.5619 71.1605C33.5622 71.1765 33.5593 71.1923 33.5533 71.2071C33.5473 71.2219 33.5385 71.2353 33.5272 71.2466C33.5159 71.2579 33.5025 71.2668 33.4877 71.2728C33.4729 71.2787 33.457 71.2816 33.4411 71.2813C33.3202 71.6438 32.9588 71.8844 32.5963 72.1261C31.256 72.4942 29.8843 72.7365 28.499 72.85C28.2515 72.8309 28.003 72.8724 27.7751 72.9708C27.2929 72.9708 26.8106 73.0916 26.3273 73.0916C26.2065 73.0916 26.0856 73.2125 25.8451 73.2125C25.7242 73.2125 25.7242 73.2125 25.6034 73.3333C25.2917 73.3835 24.9932 73.4958 24.7258 73.6636C24.4583 73.8314 24.2274 74.0513 24.0466 74.3101C23.8658 74.569 23.739 74.8615 23.6735 75.1704C23.6081 75.4793 23.6054 75.7982 23.6657 76.1081C23.9073 77.1945 24.9937 77.9184 26.0823 77.7975C26.2912 77.8162 26.5009 77.7743 26.6865 77.6767C26.8073 77.6767 26.8073 77.6767 26.8073 77.5559C26.8073 77.435 27.1687 77.5559 27.2896 77.5559C27.7718 77.435 28.2551 77.1945 28.6165 77.0736C28.8582 76.9528 29.0999 76.832 29.3404 76.832H29.4613C30.7504 76.3434 32.0835 75.98 33.4422 75.7467H33.563C33.9197 75.7367 34.2661 75.8664 34.5286 76.1081C34.5445 76.1078 34.5604 76.1107 34.5752 76.1167C34.59 76.1226 34.6034 76.1315 34.6147 76.1428C34.6259 76.1541 34.6348 76.1675 34.6408 76.1823C34.6468 76.1971 34.6497 76.213 34.6494 76.2289L35.7347 76.1081C37.545 81.6587 40.9239 86.6063 45.6298 90.2258C46.7162 91.0705 47.6807 91.7944 48.8879 92.3986L48.2849 93.2433C48.2846 93.2591 48.2875 93.2748 48.2934 93.2895C48.2993 93.3041 48.3081 93.3175 48.3193 93.3286C48.3304 93.3398 48.3438 93.3486 48.3584 93.3545C48.3731 93.3604 48.3888 93.3633 48.4046 93.363C48.6463 93.7255 48.6463 94.2078 48.5254 94.5714C48.0432 95.7797 47.3171 96.988 46.5954 98.0711V98.1909C46.4746 98.4325 46.3537 98.5534 46.1121 98.795C45.8704 99.0367 45.6298 99.5189 45.2673 100.003C45.1465 100.124 45.1465 100.245 45.0268 100.366C45.0271 100.382 45.0241 100.398 45.0182 100.412C45.0122 100.427 45.0033 100.44 44.992 100.452C44.9807 100.463 44.9672 100.472 44.9524 100.477C44.9376 100.483 44.9218 100.486 44.9059 100.486C44.3029 101.694 44.7851 103.141 45.8715 103.744C46.1343 103.879 46.4214 103.962 46.7162 103.985C47.6807 103.985 48.5254 103.382 49.0088 102.538C49.0083 102.522 49.0111 102.506 49.0169 102.491C49.0228 102.476 49.0316 102.463 49.0428 102.452C49.054 102.44 49.0673 102.431 49.0821 102.425C49.0968 102.419 49.1126 102.416 49.1285 102.417C49.1285 102.296 49.2493 102.175 49.3702 102.055C49.491 101.572 49.7327 101.211 49.8535 100.727L50.0941 100.003C50.4566 98.6764 51.0596 97.4692 51.6627 96.263C51.8962 95.9221 52.2355 95.6677 52.6283 95.5391C52.7491 95.5391 52.7491 95.5391 52.7491 95.4183L53.2313 94.4527C56.6103 95.7797 60.11 96.3839 63.7295 96.3839C65.9286 96.3987 68.1194 96.1134 70.2413 95.5358C71.5683 95.2942 72.8964 94.8119 74.1025 94.4494L74.5847 95.2942C74.7055 95.2942 74.7056 95.2942 74.7056 95.415C75.0984 95.5432 75.4379 95.7977 75.6711 96.1389C76.2742 97.3472 76.8794 98.5556 77.2397 99.8737V99.9946L77.4814 100.718C77.6022 101.202 77.7231 101.684 77.9636 102.045C78.0845 102.166 78.0845 102.287 78.2053 102.408C78.205 102.424 78.2079 102.44 78.2139 102.455C78.2199 102.469 78.2288 102.483 78.24 102.494C78.2513 102.505 78.2648 102.514 78.2796 102.52C78.2943 102.526 78.3102 102.529 78.3261 102.529C78.8095 103.379 79.6564 103.984 80.622 103.984C80.9834 103.984 81.225 103.863 81.5875 103.743C82.0698 103.502 82.552 103.019 82.6728 102.416C82.8139 101.814 82.7718 101.183 82.552 100.605C82.5525 100.589 82.5497 100.574 82.5438 100.559C82.538 100.544 82.5292 100.531 82.518 100.519C82.5068 100.508 82.4934 100.499 82.4787 100.493C82.464 100.487 82.4482 100.484 82.4323 100.485C82.4323 100.365 82.3114 100.244 82.1906 100.123C81.9799 99.6752 81.6942 99.2665 81.3459 98.9148C81.225 98.6742 81.1042 98.5534 80.8636 98.3117V98.0711C80.0189 96.9847 79.4147 95.7775 78.9325 94.5714C78.8117 94.2089 78.8117 93.7266 79.0533 93.363C79.053 93.3471 79.056 93.3313 79.0619 93.3166C79.0679 93.3019 79.0768 93.2885 79.0881 93.2773C79.0994 93.2661 79.1129 93.2573 79.1277 93.2515C79.1425 93.2456 79.1583 93.2429 79.1742 93.2433L78.8117 92.2777C84.9632 88.5363 89.6724 82.7451 91.8441 75.8664L92.8096 75.9872C92.8255 75.9876 92.8413 75.9846 92.8561 75.9786C92.8708 75.9727 92.8842 75.9638 92.8954 75.9525C92.9066 75.9412 92.9154 75.9277 92.9212 75.9129C92.927 75.8981 92.9298 75.8823 92.9294 75.8664C93.1922 75.6253 93.5384 75.4957 93.8949 75.505H94.0158C95.3354 75.7387 96.6288 76.1022 97.8769 76.5903H97.9978C98.2394 76.7111 98.48 76.832 98.7217 76.832C99.205 77.0736 99.5664 77.3153 100.049 77.435C100.169 77.435 100.29 77.5559 100.532 77.5559C100.653 77.5559 100.653 77.5559 100.774 77.6767C100.959 77.7744 101.168 77.8163 101.377 77.7975C101.902 77.7903 102.414 77.6254 102.845 77.3241C103.275 77.0229 103.606 76.5993 103.793 76.1081C103.744 75.5108 103.508 74.9443 103.118 74.4893C102.728 74.0342 102.204 73.7139 101.622 73.5739H101.618ZM66.7448 69.839L63.4868 71.4077L60.2297 69.839L59.385 66.3393L61.6732 63.4382H65.2981L67.5907 66.3338L66.7448 69.839ZM86.4143 61.9959C86.9946 64.4856 87.1575 67.0543 86.8965 69.5974L75.4327 66.3338C74.3474 66.0932 73.7444 65.0068 73.9849 63.9171C74.0721 63.5992 74.2383 63.3086 74.4683 63.0724L83.5176 54.8678C84.8513 57.0751 85.8289 59.4788 86.4143 61.9904V61.9959ZM79.8981 50.4058L70.0029 57.4086C69.1582 57.8908 67.9521 57.77 67.349 56.9253C67.2312 56.819 67.1377 56.6885 67.0752 56.5427C67.0126 56.3968 66.9823 56.2392 66.9865 56.0805L66.2626 43.894C71.5716 44.4971 76.2775 46.7896 79.8981 50.4091V50.4058ZM58.057 44.2543L60.4736 43.7721L59.8705 55.8389C59.8705 56.9242 58.905 57.7689 57.8197 57.7689C57.4572 57.7689 57.2155 57.6481 56.8541 57.5272L46.8382 50.408C49.9721 47.3894 53.8344 45.2155 58.057 44.2521V44.2543ZM43.3373 54.8733L52.2669 62.8373C53.1105 63.5612 53.2313 64.7673 52.5074 65.6121C52.2669 65.9746 52.0252 66.0954 51.5419 66.2162L39.8364 69.5919C39.4805 64.4434 40.7013 59.3086 43.3362 54.8711L43.3373 54.8733ZM41.2842 75.2633L53.2302 73.2125C54.1958 73.2125 55.1614 73.8156 55.2822 74.7811C55.403 75.1425 55.403 75.6259 55.1614 75.9894L50.5785 87.0885C46.3526 84.3137 42.9737 80.0901 41.2842 75.2633ZM68.676 90.2258C66.9865 90.5883 65.2971 90.8299 63.4868 90.8299C60.9537 90.8299 58.2986 90.3466 55.8853 89.6216L61.7984 78.8828C62.4015 78.1589 63.367 77.9173 64.215 78.3995C64.5654 78.6464 64.8887 78.9295 65.1795 79.2443L70.9718 89.7424C70.1977 89.858 69.431 90.0194 68.676 90.2258ZM83.3956 79.7287C81.5564 82.6543 79.0823 85.1285 76.1566 86.9677L71.4496 75.6259C71.2091 74.6603 71.6913 73.6947 72.536 73.3333C72.8985 73.2125 73.2599 73.0916 73.6224 73.0916L85.6893 75.1425C85.0862 76.832 84.3623 78.4006 83.3967 79.7287H83.3956Z" fill="white"/>
</svg>
