<svg width="128" height="128" viewBox="0 0 128 128" fill="none" xmlns="http://www.w3.org/2000/svg">
<path d="M120.775 68.6983C121.116 68.7225 121.458 68.6734 121.778 68.5542C121.873 68.5056 121.951 68.4296 122.002 68.3361C122.053 68.2425 122.074 68.1358 122.064 68.0298C122.057 67.915 122.018 67.8045 121.95 67.7116C121.882 67.6186 121.789 67.547 121.682 67.5053C121.316 67.2819 120.923 67.1053 120.513 66.9797C120.138 66.8452 119.771 66.6874 119.415 66.5072C119.109 66.3613 118.827 66.1679 118.58 65.9343C118.349 65.7048 118.17 65.428 118.056 65.1228C117.921 64.765 117.856 64.3844 117.865 64.0019C117.853 63.6127 117.934 63.2262 118.1 62.8739C118.265 62.5216 118.512 62.2132 118.819 61.9738C119.463 61.473 120.323 61.2344 121.418 61.2344C121.955 61.2307 122.491 61.2866 123.016 61.4009C123.429 61.4709 123.836 61.5748 124.232 61.7116L123.78 63.7397C123.446 63.6216 123.135 63.5483 122.801 63.4526C122.417 63.3667 122.025 63.327 121.633 63.3345C120.821 63.3345 120.415 63.5495 120.415 64.0031C120.419 64.1 120.436 64.196 120.463 64.2889C120.514 64.384 120.588 64.4651 120.678 64.5252C120.809 64.6114 120.944 64.6902 121.083 64.7614C121.305 64.8784 121.536 64.9745 121.775 65.0484C122.253 65.2157 122.716 65.4232 123.159 65.6686C123.489 65.8282 123.782 66.056 124.019 66.3371C124.233 66.5576 124.388 66.828 124.471 67.1238C124.566 67.4497 124.614 67.7872 124.615 68.1266C124.639 68.5287 124.557 68.93 124.377 69.2903C124.197 69.6505 123.925 69.9568 123.589 70.1783C122.92 70.6319 121.966 70.8705 120.725 70.8705C120.043 70.8945 119.36 70.8221 118.697 70.6555C118.316 70.5599 117.958 70.4406 117.6 70.3213L118.029 68.2223C118.463 68.3929 118.91 68.5283 119.366 68.6274C119.838 68.6511 120.295 68.6995 120.773 68.6995L120.775 68.6983ZM107.626 66.0737C107.612 65.358 107.732 64.646 107.98 63.9747C108.2 63.4049 108.533 62.8854 108.958 62.4474C109.347 62.0465 109.82 61.7367 110.343 61.5403C110.858 61.3328 111.409 61.2277 111.964 61.2308C113.253 61.2308 114.28 61.636 115.019 62.4238C115.758 63.2117 116.141 64.3799 116.141 65.9072C116.144 66.0745 116.136 66.2418 116.116 66.408C116.116 66.5993 116.093 66.7423 116.093 66.8805H110.277C110.299 67.1328 110.377 67.377 110.505 67.5957C110.633 67.8144 110.807 68.0022 111.016 68.1455C111.543 68.4779 112.159 68.6426 112.782 68.618C113.246 68.6144 113.709 68.575 114.166 68.4999C114.553 68.4285 114.93 68.3094 115.287 68.1455L115.642 70.2457C115.465 70.3311 115.281 70.4026 115.093 70.4595C114.836 70.5384 114.573 70.5946 114.306 70.6272C114.02 70.6744 113.733 70.7229 113.398 70.7701C113.089 70.7937 112.755 70.8174 112.42 70.8174C111.688 70.8444 110.958 70.7239 110.273 70.463C109.71 70.2624 109.202 69.9339 108.788 69.5035C108.374 69.0731 108.066 68.5524 107.887 67.9825C107.72 67.3594 107.632 66.7177 107.625 66.0725L107.626 66.0737ZM113.662 65.0945C113.657 64.875 113.617 64.6577 113.544 64.4507C113.487 64.25 113.389 64.063 113.257 63.9015C113.118 63.7345 112.948 63.5968 112.756 63.4963C112.525 63.3859 112.272 63.3286 112.016 63.3286C111.761 63.3286 111.508 63.3859 111.277 63.4963C111.078 63.5875 110.9 63.7172 110.751 63.8779C110.604 64.0455 110.491 64.24 110.417 64.4507C110.347 64.6597 110.299 64.8755 110.274 65.0945H113.663H113.662ZM100.637 59.1779L103.214 58.7716V61.4482H106.316V63.592H103.214V66.7883C103.187 67.2362 103.286 67.6827 103.5 68.077C103.691 68.3877 104.073 68.5495 104.669 68.5495C104.949 68.5504 105.229 68.5267 105.505 68.4786C105.781 68.4323 106.053 68.3603 106.316 68.2636L106.67 70.2717C106.329 70.4078 105.978 70.5195 105.62 70.6059C105.157 70.7014 104.685 70.7493 104.212 70.7489C103.618 70.7742 103.026 70.6765 102.471 70.4618C102.047 70.2928 101.67 70.0228 101.373 69.6752C101.09 69.3073 100.887 68.8845 100.776 68.4337C100.658 67.9097 100.61 67.3723 100.633 66.8356V59.1779H100.637ZM90.2069 66.0725C90.192 65.3568 90.3123 64.6447 90.5613 63.9735C90.7802 63.4033 91.1129 62.8836 91.5393 62.4463C91.9281 62.0453 92.4009 61.7355 92.9237 61.5391C93.439 61.3316 93.9899 61.2265 94.5454 61.2296C95.8341 61.2296 96.8606 61.6348 97.6 62.4226C98.3394 63.2105 98.721 64.3787 98.721 65.906C98.7238 66.0733 98.7159 66.2405 98.6973 66.4068C98.679 66.5636 98.6711 66.7214 98.6737 66.8793H92.8351C92.8569 67.1318 92.9346 67.3762 93.0625 67.595C93.1903 67.8138 93.3652 68.0014 93.5745 68.1443C94.1034 68.478 94.7214 68.6428 95.3463 68.6168C95.8097 68.6133 96.2722 68.5738 96.7295 68.4987C97.1235 68.4242 97.5079 68.3053 97.8752 68.1443L98.2296 70.2445C98.0524 70.3301 97.8688 70.4016 97.6803 70.4583C97.4236 70.5373 97.1603 70.5934 96.8937 70.626C96.6066 70.6733 96.3208 70.7217 95.9865 70.7689C95.677 70.7926 95.3427 70.8162 95.0085 70.8162C94.2761 70.8433 93.5459 70.7228 92.8611 70.4618C92.2983 70.2617 91.7897 69.9334 91.3756 69.5029C90.9615 69.0724 90.6532 68.5515 90.4751 67.9813C90.2836 67.3633 90.195 66.7181 90.2128 66.0713L90.2069 66.0725ZM96.2487 65.0933C96.2444 64.8738 96.2045 64.6563 96.1306 64.4496C96.0739 64.249 95.9761 64.0624 95.8436 63.9015C95.7049 63.7348 95.5347 63.5971 95.3428 63.4963C95.1117 63.3859 94.8588 63.3286 94.6027 63.3286C94.3466 63.3286 94.0938 63.3859 93.8627 63.4963C93.6721 63.5885 93.5022 63.7183 93.3631 63.8779C93.2157 64.0455 93.1022 64.24 93.0288 64.4507C92.9588 64.6597 92.9109 64.8755 92.8859 65.0945H96.2499L96.2487 65.0933ZM80.4267 61.7541C80.9759 61.6112 81.5488 61.4919 82.1217 61.3997C82.8396 61.285 83.5657 61.2293 84.2927 61.2332C84.9426 61.2179 85.5897 61.3228 86.2015 61.5427C86.6761 61.7039 87.097 61.9929 87.4181 62.3778C87.7266 62.7636 87.9468 63.2123 88.0631 63.6924C88.1981 64.2471 88.262 64.8167 88.2532 65.3874V70.5174H85.7007V65.7146C85.7007 64.8795 85.5826 64.3078 85.3664 63.9499C85.1514 63.6156 84.7463 63.4243 84.1498 63.4243C83.9526 63.421 83.7554 63.4289 83.5592 63.4479C83.3751 63.4502 83.1915 63.4664 83.0099 63.4963V70.5114H80.4278V61.7541H80.4267ZM78.6135 63.7349C78.3773 63.6865 78.1127 63.6168 77.802 63.5672C77.4724 63.5006 77.1367 63.469 76.8004 63.4727C76.6028 63.4779 76.4057 63.4936 76.2098 63.52C76.0408 63.5399 75.8734 63.5718 75.709 63.6156V70.5587H73.1257V61.9206C73.6559 61.7331 74.1981 61.5816 74.7487 61.4671C75.4354 61.3011 76.1415 61.2288 76.8476 61.2521C77.0154 61.2521 77.1819 61.2757 77.3496 61.2757C77.5506 61.2772 77.7507 61.3014 77.9461 61.3478C78.1445 61.3697 78.3416 61.4016 78.5367 61.4434C78.7093 61.4686 78.8777 61.5167 79.0376 61.5864L78.6076 63.7338L78.6135 63.7349ZM62.6036 66.0725C62.5893 65.3569 62.7095 64.6449 62.958 63.9735C63.1773 63.4035 63.5101 62.884 63.936 62.4463C64.3248 62.0453 64.7976 61.7355 65.3204 61.5391C65.8358 61.3316 66.3866 61.2265 66.9422 61.2296C68.2308 61.2296 69.2573 61.6348 69.9967 62.4226C70.7361 63.2105 71.1177 64.3787 71.1177 65.8824C71.1205 66.0496 71.1126 66.2169 71.094 66.3832C71.0757 66.54 71.0679 66.6978 71.0704 66.8557H65.2282C65.2504 67.108 65.3282 67.3524 65.4561 67.5711C65.5839 67.7899 65.7586 67.9776 65.9677 68.1207C66.4949 68.4532 67.1107 68.618 67.7336 68.5932C68.1973 68.589 68.6601 68.5496 69.1179 68.4751C69.5014 68.3997 69.8767 68.2877 70.2389 68.1408L70.5932 70.241C70.416 70.3266 70.2324 70.398 70.044 70.4547C69.7872 70.5337 69.5239 70.5898 69.2573 70.6225C68.9703 70.6697 68.6844 70.7182 68.3501 70.7654C68.0395 70.789 67.7064 70.8126 67.3721 70.8126C66.6398 70.8397 65.9095 70.7192 65.2247 70.4583C64.6619 70.2582 64.1533 69.9299 63.7392 69.4994C63.3251 69.0689 63.0168 68.5479 62.8387 67.9778C62.6898 67.3518 62.6106 66.7112 62.6025 66.0678L62.6036 66.0725ZM68.6632 65.0898C68.6583 64.8703 68.6184 64.653 68.545 64.446C68.4879 64.2452 68.3902 64.0583 68.258 63.8968C68.1196 63.7298 67.9494 63.5921 67.7572 63.4916C67.5263 63.3812 67.2737 63.3239 67.0178 63.3239C66.7619 63.3239 66.5092 63.3812 66.2783 63.4916C66.0796 63.5828 65.901 63.7125 65.7527 63.8731C65.6054 64.0407 65.4918 64.2353 65.4184 64.446C65.3484 64.655 65.3005 64.8708 65.2755 65.0898H68.6643H68.6632ZM58.4281 65.9249C58.4281 64.2547 57.808 63.4444 56.5902 63.4444C56.3249 63.4412 56.0603 63.4734 55.8035 63.5401C55.5828 63.5951 55.3729 63.6865 55.1822 63.8105V68.4881C55.3003 68.5117 55.4692 68.5353 55.6547 68.5589C55.8689 68.5805 56.0843 68.5888 56.2996 68.5837C56.6047 68.6082 56.911 68.5554 57.1903 68.4303C57.4696 68.3053 57.7129 68.1118 57.8978 67.8679C58.2618 67.2902 58.4448 66.6168 58.4234 65.9343L58.4281 65.9249ZM61.048 66.03C61.0554 66.7049 60.9422 67.3757 60.7137 68.0109C60.5283 68.5698 60.2222 69.0811 59.8172 69.5086C59.3974 69.934 58.8938 70.2674 58.3384 70.4878C57.6944 70.7184 57.0142 70.8312 56.3303 70.8209C56.0197 70.8209 55.6866 70.7973 55.3523 70.7737C55.018 70.75 54.6837 70.7016 54.3495 70.678C54.04 70.6307 53.7293 70.5823 53.4199 70.5114C53.149 70.4744 52.8842 70.4021 52.632 70.2965V57.5313L55.2106 57.125V61.6584C55.5042 61.5384 55.8072 61.4428 56.1165 61.3726C56.4464 61.305 56.7826 61.273 57.1194 61.2769C57.7113 61.263 58.2987 61.3842 58.8368 61.6312C59.3177 61.851 59.7423 62.1774 60.0783 62.5856C60.4346 63.0282 60.6945 63.5404 60.8413 64.0893C60.9873 64.723 61.0594 65.3715 61.0563 66.0217L61.048 66.03ZM50.1716 70.2244C49.615 70.3733 49.0492 70.485 48.4778 70.5587C47.7599 70.6738 47.0338 70.7299 46.3067 70.7264C45.6489 70.7438 44.9935 70.6385 44.3743 70.4158C43.9078 70.23 43.4923 69.9356 43.1624 69.557C42.854 69.1541 42.6346 68.6903 42.5186 68.1963C42.3832 67.6341 42.3189 67.0571 42.3273 66.4789V61.4482H44.8988V66.1954C44.8988 67.0305 45.0169 67.6282 45.233 67.9861C45.4492 68.344 45.8532 68.5341 46.4497 68.5341C46.6488 68.5376 46.8479 68.5297 47.0462 68.5105C47.2309 68.5018 47.4147 68.4777 47.5954 68.4385V61.4482H50.1716V70.2244ZM35.1397 64.7366C35.402 64.4507 35.6406 64.1637 35.9276 63.8779C36.1898 63.5672 36.452 63.2873 36.7143 62.9955C36.9777 62.6849 37.2163 62.4226 37.4301 62.1604C37.6439 61.8982 37.86 61.6584 38.0207 61.4682H41.0752C40.4551 62.1604 39.8586 62.8514 39.2857 63.4963C38.6892 64.1401 38.0691 64.8087 37.3769 65.476C37.7589 65.8263 38.1175 66.2011 38.4506 66.5982C38.805 67.0269 39.1664 67.4569 39.5243 67.9341C39.8586 68.3877 40.1929 68.8649 40.4787 69.3184C40.7646 69.772 41.0032 70.2008 41.1945 70.5823H38.2416C38.0514 70.2728 37.8364 69.9622 37.5978 69.6043C37.3592 69.2464 37.097 68.8885 36.8584 68.507C36.5919 68.1409 36.3048 67.7903 35.9985 67.4569C35.7428 67.1487 35.4549 66.8687 35.1397 66.6218V70.6071H32.5624V57.5313L35.1397 57.125V64.7366Z" fill="black"/>
<path d="M23.768 57.893C23.6379 57.4765 23.3257 57.1382 22.9352 56.9302L14.9981 53.1303C14.7901 53.0261 14.5558 53 14.3475 53C14.1393 53 13.9052 53 13.6969 53.0521L5.75985 56.878C5.56422 56.9675 5.39189 57.101 5.25628 57.268C5.12067 57.435 5.02543 57.6311 4.97799 57.8409L3.02523 66.4035C2.98678 66.6203 2.99232 66.8426 3.04153 67.0572C3.09074 67.2719 3.18261 67.4744 3.31168 67.6528L8.80319 74.4455C9.11546 74.758 9.5578 74.9667 10.0004 74.9921H18.7452C19.2136 75.0442 19.6559 74.836 19.9423 74.4455L25.4339 67.6528C25.6905 67.29 25.8019 66.8443 25.7461 66.4035L23.768 57.893Z" fill="#326DE6"/>
<path d="M22.5452 66.0651C22.5191 66.0651 22.4931 66.0651 22.4931 66.039C22.4931 66.013 22.441 66.0139 22.3879 66.0139C22.2839 65.9879 22.1799 65.9879 22.0756 65.9879C22.0222 65.992 21.9686 65.983 21.9195 65.9618H21.8934C21.5945 65.935 21.2985 65.8827 21.0085 65.8057C20.967 65.7898 20.9294 65.7654 20.898 65.734C20.8666 65.7026 20.8423 65.6649 20.8265 65.6235L20.6183 65.5713C20.7223 64.8167 20.6702 64.0358 20.514 63.2812C20.3304 62.5244 20.0226 61.8032 19.6033 61.1469L19.7604 60.991V60.965C19.7604 60.8868 19.7864 60.7828 19.8383 60.7307C20.0726 60.5226 20.307 60.3665 20.5671 60.2094L20.7232 60.1315C20.8275 60.0794 20.9054 60.0272 21.0094 59.9753C21.0355 59.9493 21.0616 59.9493 21.0876 59.9232C21.1137 59.8972 21.0876 59.8972 21.0876 59.8711C21.3217 59.6879 21.3738 59.3764 21.1916 59.143C21.1473 59.0886 21.0919 59.0442 21.0291 59.0128C20.9663 58.9814 20.8976 58.9637 20.8275 58.9608C20.6953 58.9642 20.5676 59.0098 20.4631 59.0909L20.437 59.117C20.411 59.143 20.3849 59.1688 20.3588 59.1688C20.2809 59.247 20.2027 59.3252 20.1506 59.4032C20.1248 59.4553 20.0726 59.4813 20.0466 59.5074C19.8548 59.7249 19.6361 59.9173 19.396 60.0798C19.3438 60.1059 19.2917 60.1319 19.2398 60.1319C19.2138 60.1319 19.1616 60.1319 19.1356 60.1059H19.1098L18.9015 60.236C18.6932 60.0277 18.4589 59.8197 18.2509 59.6114C17.2878 58.8566 16.0906 58.3882 14.8673 58.2581L14.8413 58.0498V58.0759C14.7633 58.0238 14.7373 57.9458 14.7112 57.8676C14.7112 57.5814 14.7112 57.295 14.7633 56.9827V56.9566C14.7633 56.9048 14.7894 56.8526 14.7894 56.8005C14.8154 56.6965 14.8154 56.5925 14.8413 56.4882V56.3321C14.8673 56.0715 14.6591 55.8109 14.3989 55.7855C14.2428 55.7594 14.0867 55.8376 13.9566 55.9677C13.9077 56.0151 13.8687 56.0717 13.8418 56.1342C13.815 56.1968 13.8008 56.264 13.8002 56.3321V56.4622C13.8002 56.5664 13.8263 56.6704 13.8523 56.7744C13.8735 56.8237 13.8825 56.8774 13.8784 56.9308V56.9566C13.9296 57.2424 13.9296 57.5286 13.9296 57.8399C13.9035 57.9181 13.8774 57.996 13.7993 58.0482V58.1005L13.7734 58.3088C13.487 58.3346 13.2008 58.3867 12.8885 58.4389C11.6653 58.6995 10.546 59.3496 9.68714 60.2606L9.53101 60.1566H9.50495C9.47912 60.1566 9.45306 60.1827 9.40093 60.1827C9.34881 60.1827 9.29692 60.1566 9.2448 60.1305C9.00995 59.9514 8.79215 59.751 8.5942 59.5318C8.56813 59.4799 8.51601 59.4539 8.48995 59.4278C8.412 59.3496 8.35987 59.2717 8.28193 59.1935C8.25586 59.1674 8.2298 59.1674 8.20374 59.1416L8.17768 59.1155C8.07318 59.0344 7.94551 58.9889 7.81328 58.9855C7.65715 58.9855 7.52707 59.0373 7.44889 59.1674C7.37523 59.281 7.34521 59.4174 7.36438 59.5514C7.38354 59.6853 7.4506 59.8079 7.55314 59.8962C7.55658 59.8961 7.55999 59.8968 7.56319 59.8981C7.56638 59.8993 7.56928 59.9013 7.57171 59.9037C7.57414 59.9061 7.57606 59.909 7.57735 59.9122C7.57863 59.9154 7.57926 59.9188 7.5792 59.9223C7.5792 59.9223 7.63109 59.9744 7.65715 59.9744C7.74961 60.0318 7.84524 60.0839 7.94359 60.1305L8.10115 60.2092C8.36177 60.3656 8.62239 60.5217 8.8297 60.7304C8.88183 60.7826 8.93395 60.8866 8.90789 60.9647V60.9387L9.06402 61.0948C9.03796 61.1469 9.0119 61.173 8.98607 61.2251C8.17863 62.4996 7.84053 64.009 8.07461 65.4927L7.86635 65.5446C7.86642 65.548 7.86579 65.5514 7.8645 65.5546C7.86321 65.5578 7.8613 65.5607 7.85886 65.5631C7.85643 65.5656 7.85353 65.5675 7.85034 65.5688C7.84715 65.5701 7.84373 65.5707 7.84029 65.5706C7.81423 65.6488 7.73628 65.7007 7.6581 65.7528C7.36901 65.8322 7.07315 65.8845 6.77435 65.909C6.72097 65.9048 6.66738 65.9138 6.61822 65.935C6.51421 65.935 6.4102 65.9611 6.30595 65.9611C6.27989 65.9611 6.25382 65.9871 6.20194 65.9871C6.17588 65.9871 6.17588 65.9871 6.14981 66.0132C6.08258 66.024 6.01821 66.0482 5.96052 66.0844C5.90284 66.1206 5.85302 66.1681 5.81403 66.2239C5.77505 66.2797 5.74768 66.3428 5.73357 66.4094C5.71945 66.4761 5.71888 66.5448 5.73187 66.6117C5.784 66.846 6.01832 67.0021 6.25311 66.9761C6.29815 66.9801 6.3434 66.9711 6.38342 66.95C6.40949 66.95 6.40949 66.95 6.40949 66.924C6.40949 66.8979 6.48744 66.924 6.5135 66.924C6.61751 66.8979 6.72176 66.846 6.79971 66.8199C6.85183 66.7939 6.90395 66.7678 6.95584 66.7678H6.9819C7.25995 66.6624 7.54748 66.5841 7.84053 66.5337H7.86659C7.94352 66.5316 8.01824 66.5595 8.07485 66.6117C8.07829 66.6116 8.08171 66.6122 8.0849 66.6135C8.08809 66.6148 8.09099 66.6167 8.09342 66.6192C8.09586 66.6216 8.09777 66.6245 8.09906 66.6277C8.10035 66.6309 8.10098 66.6343 8.10091 66.6377L8.335 66.6117C8.72545 67.8089 9.45424 68.876 10.4692 69.6567C10.7036 69.8389 10.9116 69.995 11.172 70.1253L11.0419 70.3075C11.0418 70.3109 11.0425 70.3143 11.0437 70.3175C11.045 70.3206 11.0469 70.3235 11.0493 70.3259C11.0517 70.3283 11.0546 70.3302 11.0578 70.3315C11.0609 70.3328 11.0643 70.3334 11.0677 70.3333C11.1198 70.4115 11.1198 70.5155 11.0938 70.594C10.9898 70.8546 10.8332 71.1152 10.6775 71.3488V71.3746C10.6514 71.4268 10.6254 71.4528 10.5733 71.5049C10.5211 71.5571 10.4692 71.6611 10.3911 71.7656C10.365 71.7916 10.365 71.8177 10.3392 71.8438C10.3392 71.8472 10.3386 71.8506 10.3373 71.8538C10.336 71.8569 10.3341 71.8598 10.3317 71.8622C10.3292 71.8647 10.3263 71.8666 10.3231 71.8678C10.3199 71.8691 10.3165 71.8697 10.3131 71.8696C10.183 72.1302 10.287 72.4422 10.5214 72.5723C10.578 72.6016 10.64 72.6193 10.7036 72.6244C10.9116 72.6244 11.0938 72.4944 11.198 72.3122C11.1979 72.3087 11.1985 72.3053 11.1998 72.3021C11.2011 72.2989 11.203 72.296 11.2054 72.2936C11.2078 72.2912 11.2107 72.2892 11.2138 72.288C11.217 72.2867 11.2204 72.286 11.2239 72.2861C11.2239 72.26 11.2499 72.234 11.276 72.2081C11.302 72.1039 11.3542 72.0259 11.3802 71.9217L11.4321 71.7656C11.5103 71.4794 11.6404 71.219 11.7704 70.9588C11.8208 70.8853 11.894 70.8304 11.9787 70.8027C12.0048 70.8027 12.0048 70.8027 12.0048 70.7766L12.1088 70.5684C12.8376 70.8546 13.5924 70.9849 14.3731 70.9849C14.8474 70.9881 15.3199 70.9266 15.7776 70.802C16.0638 70.7499 16.3503 70.6458 16.6104 70.5677L16.7144 70.7499C16.7405 70.7499 16.7405 70.7499 16.7405 70.7759C16.8252 70.8036 16.8984 70.8585 16.9487 70.9321C17.0788 71.1927 17.2094 71.4533 17.2871 71.7376V71.7637L17.3392 71.9198C17.3653 72.0241 17.3913 72.1281 17.4432 72.206C17.4693 72.2321 17.4693 72.2581 17.4953 72.2842C17.4953 72.2876 17.4959 72.2911 17.4972 72.2943C17.4985 72.2974 17.5004 72.3003 17.5028 72.3028C17.5053 72.3052 17.5082 72.3071 17.5113 72.3084C17.5145 72.3097 17.518 72.3103 17.5214 72.3103C17.6256 72.4936 17.8083 72.6242 18.0166 72.6242C18.0945 72.6242 18.1466 72.5981 18.2248 72.5721C18.3288 72.5202 18.4329 72.4159 18.4589 72.2859C18.4893 72.156 18.4803 72.0201 18.4329 71.8954C18.433 71.892 18.4324 71.8886 18.4311 71.8854C18.4298 71.8822 18.4279 71.8793 18.4255 71.8768C18.4231 71.8744 18.4202 71.8725 18.417 71.8712C18.4139 71.8699 18.4105 71.8693 18.407 71.8693C18.407 71.8435 18.381 71.8175 18.3549 71.7914C18.3095 71.6948 18.2478 71.6066 18.1727 71.5308C18.1466 71.4789 18.1206 71.4528 18.0687 71.4007V71.3488C17.8865 71.1145 17.7562 70.8541 17.6522 70.594C17.6261 70.5158 17.6261 70.4118 17.6782 70.3333C17.6782 70.3299 17.6788 70.3265 17.6801 70.3233C17.6814 70.3201 17.6833 70.3173 17.6857 70.3148C17.6882 70.3124 17.6911 70.3105 17.6943 70.3093C17.6975 70.308 17.7009 70.3074 17.7043 70.3075L17.6261 70.0993C18.9529 69.2923 19.9686 68.0432 20.437 66.5596L20.6453 66.5856C20.6487 66.5857 20.6521 66.5851 20.6553 66.5838C20.6585 66.5825 20.6614 66.5806 20.6638 66.5781C20.6662 66.5757 20.6681 66.5728 20.6693 66.5696C20.6706 66.5664 20.6712 66.563 20.6711 66.5596C20.7278 66.5076 20.8025 66.4796 20.8794 66.4816H20.9054C21.1901 66.532 21.469 66.6104 21.7382 66.7157H21.7643C21.8164 66.7418 21.8683 66.7678 21.9204 66.7678C22.0247 66.8199 22.1026 66.8721 22.2066 66.8979C22.2327 66.8979 22.2588 66.924 22.3109 66.924C22.3369 66.924 22.3369 66.924 22.363 66.95C22.4029 66.9711 22.4481 66.9801 22.4931 66.9761C22.6065 66.9745 22.7168 66.9389 22.8097 66.874C22.9026 66.809 22.9739 66.7176 23.0143 66.6117C23.0037 66.4829 22.9528 66.3607 22.8686 66.2625C22.7845 66.1644 22.6716 66.0953 22.5459 66.0651H22.5452ZM15.0235 65.2595L14.3207 65.5979L13.6182 65.2595L13.436 64.5047L13.9296 63.879H14.7114L15.2059 64.5035L15.0235 65.2595ZM19.2659 63.5679C19.3911 64.1049 19.4262 64.6589 19.3699 65.2074L16.8973 64.5035C16.6632 64.4516 16.5332 64.2173 16.5851 63.9823C16.6038 63.9137 16.6397 63.851 16.6893 63.8001L18.6411 62.0304C18.9288 62.5065 19.1396 63.025 19.2659 63.5667V63.5679ZM17.8604 61.068L15.7262 62.5785C15.544 62.6825 15.2838 62.6564 15.1538 62.4742C15.1284 62.4513 15.1082 62.4231 15.0947 62.3917C15.0812 62.3602 15.0747 62.3262 15.0756 62.292L14.9195 59.6635C16.0645 59.7936 17.0795 60.2881 17.8604 61.0688V61.068ZM13.1496 59.7413L13.6708 59.6372L13.5408 62.2399C13.5408 62.474 13.3325 62.6562 13.0984 62.6562C13.0202 62.6562 12.9681 62.6301 12.8902 62.6041L10.7299 61.0685C11.4058 60.4174 12.2389 59.9486 13.1496 59.7408V59.7413ZM9.97477 62.0316L11.9008 63.7494C12.0827 63.9055 12.1088 64.1656 11.9526 64.3478C11.9008 64.426 11.8486 64.4521 11.7444 64.4781L9.21968 65.2062C9.14292 64.0958 9.40622 62.9883 9.97454 62.0312L9.97477 62.0316ZM9.53196 66.4295L12.1085 65.9871C12.3168 65.9871 12.5251 66.1172 12.5511 66.3255C12.5772 66.4034 12.5772 66.5077 12.5251 66.5861L11.5366 68.98C10.6251 68.3815 9.89635 67.4705 9.53196 66.4295ZM15.44 69.6567C15.0756 69.7349 14.7112 69.787 14.3207 69.787C13.7744 69.787 13.2017 69.6827 12.6812 69.5264L13.9566 67.2102C14.0867 67.054 14.2949 67.0019 14.4778 67.1059C14.5534 67.1592 14.6231 67.2202 14.6858 67.2881L15.9352 69.5524C15.7682 69.5774 15.6028 69.6122 15.44 69.6567ZM18.6148 67.3926C18.2181 68.0236 17.6845 68.5573 17.0535 68.9539L16.0382 66.5077C15.9863 66.2994 16.0904 66.0912 16.2725 66.0132C16.3507 65.9871 16.4287 65.9611 16.5069 65.9611L19.1095 66.4034C18.9794 66.7678 18.8233 67.1061 18.6151 67.3926H18.6148Z" fill="white"/>
</svg>
