<svg width="128" height="128" viewBox="0 0 128 128" fill="none" xmlns="http://www.w3.org/2000/svg">
<path d="M84 24.9854C102.792 32.8218 116 51.3684 116 73C116 101.719 92.7188 125 64 125C35.2812 125 12 101.719 12 73C12 50.9866 25.6786 32.1677 45 24.5801V19H52V29.3516L47.5586 31.0957C30.8261 37.6667 19 53.961 19 73C19 97.8528 39.1472 118 64 118C88.8528 118 109 97.8528 109 73C109 54.2913 97.5812 38.2335 81.3057 31.4463L77 29.6504V19H84V24.9854Z" fill="#555555"/>
<path d="M84.5 67.5C91.1294 67.0375 97.823 68.6904 103.957 71.1914C103.984 71.7908 104 72.394 104 73C104 95.0912 86.0912 113 64 113C46.2695 113 31.2356 101.463 25.9902 85.4873C31.2672 86.8154 37.0306 87.3778 43 86.5C61.2428 83.8172 63.0001 69 84.5 67.5Z" fill="url(#paint0_linear_13_1580)"/>
<path d="M42 61C45.3137 61 48 63.6863 48 67C48 70.3137 45.3137 73 42 73C38.6863 73 36 70.3137 36 67C36 63.6863 38.6863 61 42 61Z" fill="url(#paint1_linear_13_1580)"/>
<path d="M85 51C87.2091 51 89 52.7909 89 55C89 57.2091 87.2091 59 85 59C82.7909 59 81 57.2091 81 55C81 52.7909 82.7909 51 85 51Z" fill="url(#paint2_linear_13_1580)"/>
<path d="M62 38C66.9706 38 71 42.0294 71 47C71 51.9706 66.9706 56 62 56C57.0294 56 53 51.9706 53 47C53 42.0294 57.0294 38 62 38Z" fill="url(#paint3_linear_13_1580)"/>
<rect x="39" y="4" width="49" height="12" fill="#555555"/>
<defs>
<linearGradient id="paint0_linear_13_1580" x1="25.9902" y1="85.2098" x2="103.99" y2="84.1345" gradientUnits="userSpaceOnUse">
<stop stop-color="#2CA33A"/>
<stop offset="1" stop-color="#4CCFC2"/>
</linearGradient>
<linearGradient id="paint1_linear_13_1580" x1="25.9902" y1="85.2098" x2="103.99" y2="84.1345" gradientUnits="userSpaceOnUse">
<stop stop-color="#2CA33A"/>
<stop offset="1" stop-color="#4CCFC2"/>
</linearGradient>
<linearGradient id="paint2_linear_13_1580" x1="25.9902" y1="85.2098" x2="103.99" y2="84.1345" gradientUnits="userSpaceOnUse">
<stop stop-color="#2CA33A"/>
<stop offset="1" stop-color="#4CCFC2"/>
</linearGradient>
<linearGradient id="paint3_linear_13_1580" x1="25.9902" y1="85.2098" x2="103.99" y2="84.1345" gradientUnits="userSpaceOnUse">
<stop stop-color="#2CA33A"/>
<stop offset="1" stop-color="#4CCFC2"/>
</linearGradient>
</defs>
</svg>
