<svg width="128" height="128" viewBox="0 0 128 128" fill="none" xmlns="http://www.w3.org/2000/svg">
<path d="M103.524 45.0693V43.2271H114.587V45.0693H110.118V57.304H108.011V45.0693H103.524Z" fill="white"/>
<path d="M90.5234 57.304V43.2271H92.8475L98.2231 51.7394C98.3868 52.0039 98.6104 52.3786 98.8939 52.8636C99.1773 53.3486 99.4607 53.8399 99.7441 54.3375C99.7252 53.8273 99.7095 53.3108 99.6969 52.788C99.6906 52.259 99.6874 51.8653 99.6874 51.6071V43.2271H101.794V57.304H99.4512L94.6425 49.6987C94.4473 49.39 94.1638 48.9303 93.7922 48.3193C93.4269 47.7021 93.0113 46.9935 92.5452 46.1936C92.5767 47.0187 92.5956 47.7304 92.6019 48.3288C92.6145 48.9208 92.6208 49.3743 92.6208 49.6892V57.304H90.5234Z" fill="white"/>
<path d="M79.1289 57.304V43.2271H88.5952V45.0693H81.2262V49.2168H88.0473V51.0402H81.2262V55.4617H88.5952V57.304H79.1289Z" fill="white"/>
<path d="M68.625 57.304V43.2271H70.7223V55.4617H77.3828V57.304H68.625Z" fill="white"/>
<path d="M54.4526 57.304L59.5637 43.2271H62.0956L67.1689 57.304H64.892L63.645 53.6478H57.9671L56.6822 57.304H54.4526ZM58.6001 51.8622H63.0309L62.1806 49.368C61.9917 48.7885 61.7901 48.1682 61.576 47.5068C61.3618 46.8455 61.1162 46.0582 60.8391 45.1449C60.5557 46.0582 60.3069 46.8455 60.0927 47.5068C59.8786 48.1682 59.6739 48.7885 59.4787 49.368L58.6001 51.8622Z" fill="white"/>
<path d="M48.5486 57.304L43.4375 43.2271H45.6954L48.4824 51.1631C48.6525 51.6732 48.8477 52.2747 49.0682 52.9675C49.2886 53.6604 49.5468 54.4697 49.8428 55.3956C50.1263 54.4697 50.3751 53.6604 50.5892 52.9675C50.8096 52.2747 51.0049 51.6732 51.1749 51.1631L53.8863 43.2271H56.1065L51.071 57.304H48.5486Z" fill="white"/>
<path d="M36.7493 57.5304C35.5023 57.5304 34.3906 57.225 33.4144 56.614C32.4381 56.0031 31.6698 55.1528 31.1092 54.0632C30.555 52.9735 30.2778 51.7107 30.2778 50.2747C30.2778 48.8323 30.555 47.5663 31.1092 46.4767C31.6698 45.3808 32.4381 44.5274 33.4144 43.9164C34.3906 43.3055 35.5023 43 36.7493 43C38.0027 43 39.1175 43.3055 40.0937 43.9164C41.0699 44.5274 41.8352 45.3808 42.3894 46.4767C42.95 47.5663 43.2302 48.8323 43.2302 50.2747C43.2302 51.7107 42.95 52.9735 42.3894 54.0632C41.8352 55.1528 41.0699 56.0031 40.0937 56.614C39.1175 57.225 38.0027 57.5304 36.7493 57.5304ZM36.7493 55.6126C37.5618 55.6126 38.2987 55.4079 38.96 54.9985C39.6213 54.5828 40.1472 53.9781 40.5377 53.1845C40.9282 52.3846 41.1235 51.4147 41.1235 50.2747C41.1235 49.1284 40.9282 48.1553 40.5377 47.3554C40.1472 46.5555 39.6213 45.9508 38.96 45.5414C38.2987 45.1257 37.5618 44.9179 36.7493 44.9179C35.9431 44.9179 35.2094 45.1257 34.5481 45.5414C33.8867 45.9508 33.3608 46.5555 32.9703 47.3554C32.5799 48.1553 32.3846 49.1284 32.3846 50.2747C32.3846 51.4147 32.5799 52.3846 32.9703 53.1845C33.3608 53.9781 33.8867 54.5828 34.5481 54.9985C35.2094 55.4079 35.9431 55.6126 36.7493 55.6126Z" fill="white"/>
<path d="M23.541 57.5304C21.8531 57.5304 20.521 57.1053 19.5447 56.255C18.5748 55.3984 18.0898 54.2269 18.0898 52.7405H20.1872C20.1935 53.6664 20.4895 54.3907 21.0752 54.9134C21.6673 55.4362 22.4892 55.6976 23.541 55.6976C24.4983 55.6976 25.2636 55.4961 25.8367 55.093C26.4162 54.6836 26.7059 54.1356 26.7059 53.4491C26.7059 52.9074 26.498 52.4697 26.0824 52.1358C25.673 51.7957 24.9802 51.5092 24.0039 51.2761L22.464 50.9077C21.0406 50.5675 20.0014 50.0952 19.3464 49.4905C18.6976 48.8796 18.3733 48.086 18.3733 47.1097C18.3733 46.2846 18.5811 45.5635 18.9968 44.9462C19.4125 44.329 19.9951 43.8503 20.7446 43.5102C21.5004 43.1701 22.3821 43 23.3898 43C24.9077 43 26.1139 43.3968 27.0082 44.1904C27.9089 44.984 28.3812 46.0673 28.4253 47.4404H26.3941C26.3437 46.6279 26.0477 45.9917 25.5061 45.532C24.9644 45.0659 24.2496 44.8328 23.3615 44.8328C22.5112 44.8328 21.8153 45.0375 21.2736 45.4469C20.732 45.85 20.4611 46.3697 20.4611 47.0058C20.4611 47.516 20.669 47.9317 21.0847 48.2529C21.5004 48.5678 22.19 48.8418 23.1537 49.0748L24.6747 49.4338C26.0855 49.7676 27.1247 50.2495 27.7923 50.8793C28.4663 51.5092 28.8032 52.3279 28.8032 53.3357C28.8032 54.1797 28.5859 54.9166 28.1513 55.5464C27.7168 56.1763 27.1058 56.6644 26.3185 57.0108C25.5313 57.3572 24.6054 57.5304 23.541 57.5304Z" fill="white"/>
<path d="M16.0973 43.2271V57.304H14V43.2271H16.0973Z" fill="white"/>
<path d="M83.7826 84.9996C82.7098 84.9996 81.7582 84.8379 80.9279 84.5146C80.0975 84.1913 79.4325 83.7284 78.9329 83.1258C78.4406 82.5233 78.1613 81.8105 78.0952 80.9875H81.8317C81.8905 81.421 82.0815 81.7627 82.4048 82.0126C82.7281 82.2624 83.169 82.3873 83.7275 82.3873C84.2492 82.3873 84.657 82.2955 84.9509 82.1118C85.2448 81.9281 85.3918 81.6892 85.3918 81.3953C85.3918 80.9103 84.9215 80.5833 83.981 80.4143L81.8758 80.0396C80.7295 79.8338 79.8551 79.4407 79.2525 78.8602C78.6573 78.2797 78.3597 77.5302 78.3597 76.6117C78.3597 75.4654 78.8227 74.5505 79.7485 73.8671C80.6744 73.1764 81.9492 72.8311 83.5731 72.8311C85.197 72.8311 86.4903 73.1911 87.4529 73.9112C88.4155 74.6314 88.9151 75.6123 88.9519 76.8542H85.4579C85.4506 76.45 85.2816 76.112 84.9509 75.8401C84.6276 75.5682 84.2124 75.4323 83.7054 75.4323C83.2131 75.4323 82.8273 75.5278 82.5481 75.7189C82.2762 75.9099 82.1403 76.1487 82.1403 76.4353C82.1403 76.913 82.5591 77.2326 83.3968 77.3943L85.7335 77.8241C86.9312 78.0446 87.8166 78.412 88.3898 78.9263C88.9629 79.4407 89.2495 80.1314 89.2495 80.9985C89.2495 81.7921 89.018 82.4902 88.5551 83.0927C88.0995 83.6953 87.4602 84.1656 86.6373 84.5036C85.8216 84.8343 84.8701 84.9996 83.7826 84.9996Z" fill="white"/>
<path d="M71.9674 84.9676C71.2032 84.9676 70.5272 84.7986 69.9393 84.4606C69.3588 84.1153 68.918 83.6009 68.6167 82.9175H68.5946V84.7141H64.8472V68.291H68.6387V74.6398H68.6608C69.3809 73.4274 70.4941 72.8211 72.0004 72.8211C72.9851 72.8211 73.8521 73.0783 74.6016 73.5927C75.3511 74.1071 75.9353 74.8198 76.3541 75.731C76.7803 76.6422 76.9934 77.6893 76.9934 78.8723C76.9934 80.0995 76.784 81.1723 76.3651 82.0908C75.9537 83.002 75.3695 83.7111 74.6126 84.2181C73.8632 84.7178 72.9814 84.9676 71.9674 84.9676ZM70.8982 81.9365C71.5963 81.9365 72.1474 81.6646 72.5515 81.1209C72.9557 80.5771 73.1577 79.8276 73.1577 78.8723C73.1577 77.9244 72.9557 77.1823 72.5515 76.6459C72.1474 76.1094 71.5963 75.8412 70.8982 75.8412C70.1855 75.8412 69.605 76.1168 69.1568 76.6679C68.7085 77.219 68.4844 77.9538 68.4844 78.8723C68.4844 79.8056 68.7085 80.5514 69.1568 81.1099C69.605 81.661 70.1855 81.9365 70.8982 81.9365Z" fill="white"/>
<path d="M55.6008 84.9127C54.4325 84.9127 53.4736 84.6298 52.7241 84.064C51.9819 83.4908 51.6108 82.6237 51.6108 81.4627C51.6108 80.5883 51.8129 79.8976 52.217 79.3905C52.6285 78.8835 53.176 78.5088 53.8593 78.2663C54.5427 78.0238 55.2995 77.8695 56.1299 77.8033C57.1733 77.7152 57.9081 77.6086 58.3343 77.4837C58.7604 77.3588 58.9735 77.12 58.9735 76.7672V76.7121C58.9735 76.3668 58.8266 76.0875 58.5326 75.8744C58.2461 75.654 57.853 75.5438 57.3533 75.5438C56.8242 75.5438 56.4017 75.6613 56.0858 75.8965C55.7772 76.1316 55.6045 76.4476 55.5677 76.8444H52.0407C52.1215 75.5805 52.6249 74.5959 53.5507 73.8904C54.4839 73.1777 55.7955 72.8213 57.4856 72.8213C59.1756 72.8213 60.4725 73.1777 61.3763 73.8904C62.2801 74.5959 62.732 75.5915 62.732 76.8775V84.7143H59.0286V83.083H58.9845C58.6392 83.7076 58.1946 84.1705 57.6509 84.4718C57.1071 84.7657 56.4238 84.9127 55.6008 84.9127ZM56.7581 82.4327C57.39 82.4327 57.9228 82.26 58.3563 81.9146C58.7898 81.5619 59.0066 81.099 59.0066 80.5258V79.4677C58.8082 79.5632 58.5326 79.6477 58.1799 79.7212C57.8272 79.7947 57.4158 79.8718 56.9455 79.9527C56.4385 80.0335 56.0196 80.1805 55.689 80.3936C55.3657 80.6067 55.204 80.9043 55.204 81.2864C55.204 81.6464 55.3473 81.9293 55.6339 82.1351C55.9204 82.3335 56.2952 82.4327 56.7581 82.4327Z" fill="white"/>
<path d="M39.2764 84.7141V68.291H43.2443V81.3413H50.5188V84.7141H39.2764Z" fill="white"/>
</svg>
