<svg width="128" height="128" viewBox="0 0 128 128" fill="none" xmlns="http://www.w3.org/2000/svg">
<path d="M63.3203 91.4121V90.2695H70.1816V91.4121H67.4102V99H66.1035V91.4121H63.3203Z" fill="black"/>
<path d="M55.2578 99V90.2695H56.6992L60.0332 95.5488C60.1348 95.7129 60.2734 95.9453 60.4492 96.2461C60.625 96.5469 60.8008 96.8516 60.9766 97.1602C60.9648 96.8438 60.9551 96.5234 60.9473 96.1992C60.9434 95.8711 60.9414 95.627 60.9414 95.4668V90.2695H62.248V99H60.7949L57.8125 94.2832C57.6914 94.0918 57.5156 93.8066 57.2852 93.4277C57.0586 93.0449 56.8008 92.6055 56.5117 92.1094C56.5312 92.6211 56.543 93.0625 56.5469 93.4336C56.5547 93.8008 56.5586 94.082 56.5586 94.2773V99H55.2578Z" fill="black"/>
<path d="M48.1914 99V90.2695H54.0625V91.4121H49.4922V93.9844H53.7227V95.1152H49.4922V97.8574H54.0625V99H48.1914Z" fill="black"/>
<path d="M41.6758 99V90.2695H42.9766V97.8574H47.1074V99H41.6758Z" fill="black"/>
<path d="M32.8867 99L36.0566 90.2695H37.627L40.7734 99H39.3613L38.5879 96.7324H35.0664L34.2695 99H32.8867ZM35.459 95.625H38.207L37.6797 94.0781C37.5625 93.7188 37.4375 93.334 37.3047 92.9238C37.1719 92.5137 37.0195 92.0254 36.8477 91.459C36.6719 92.0254 36.5176 92.5137 36.3848 92.9238C36.252 93.334 36.125 93.7188 36.0039 94.0781L35.459 95.625Z" fill="black"/>
<path d="M29.2246 99L26.0547 90.2695H27.4551L29.1836 95.1914C29.2891 95.5078 29.4102 95.8809 29.5469 96.3105C29.6836 96.7402 29.8438 97.2422 30.0273 97.8164C30.2031 97.2422 30.3574 96.7402 30.4902 96.3105C30.627 95.8809 30.748 95.5078 30.8535 95.1914L32.5352 90.2695H33.9121L30.7891 99H29.2246Z" fill="black"/>
<path d="M21.9062 99.1406C21.1328 99.1406 20.4434 98.9512 19.8379 98.5723C19.2324 98.1934 18.7559 97.666 18.4082 96.9902C18.0645 96.3145 17.8926 95.5312 17.8926 94.6406C17.8926 93.7461 18.0645 92.9609 18.4082 92.2852C18.7559 91.6055 19.2324 91.0762 19.8379 90.6973C20.4434 90.3184 21.1328 90.1289 21.9062 90.1289C22.6836 90.1289 23.375 90.3184 23.9805 90.6973C24.5859 91.0762 25.0605 91.6055 25.4043 92.2852C25.752 92.9609 25.9258 93.7461 25.9258 94.6406C25.9258 95.5312 25.752 96.3145 25.4043 96.9902C25.0605 97.666 24.5859 98.1934 23.9805 98.5723C23.375 98.9512 22.6836 99.1406 21.9062 99.1406ZM21.9062 97.9512C22.4102 97.9512 22.8672 97.8242 23.2773 97.5703C23.6875 97.3125 24.0137 96.9375 24.2559 96.4453C24.498 95.9492 24.6191 95.3477 24.6191 94.6406C24.6191 93.9297 24.498 93.3262 24.2559 92.8301C24.0137 92.334 23.6875 91.959 23.2773 91.7051C22.8672 91.4473 22.4102 91.3184 21.9062 91.3184C21.4062 91.3184 20.9512 91.4473 20.541 91.7051C20.1309 91.959 19.8047 92.334 19.5625 92.8301C19.3203 93.3262 19.1992 93.9297 19.1992 94.6406C19.1992 95.3477 19.3203 95.9492 19.5625 96.4453C19.8047 96.9375 20.1309 97.3125 20.541 97.5703C20.9512 97.8242 21.4062 97.9512 21.9062 97.9512Z" fill="black"/>
<path d="M13.7148 99.1406C12.668 99.1406 11.8418 98.877 11.2363 98.3496C10.6348 97.8184 10.334 97.0918 10.334 96.1699H11.6348C11.6387 96.7441 11.8223 97.1934 12.1855 97.5176C12.5527 97.8418 13.0625 98.0039 13.7148 98.0039C14.3086 98.0039 14.7832 97.8789 15.1387 97.6289C15.498 97.375 15.6777 97.0352 15.6777 96.6094C15.6777 96.2734 15.5488 96.002 15.291 95.7949C15.0371 95.584 14.6074 95.4062 14.002 95.2617L13.0469 95.0332C12.1641 94.8223 11.5195 94.5293 11.1133 94.1543C10.7109 93.7754 10.5098 93.2832 10.5098 92.6777C10.5098 92.166 10.6387 91.7188 10.8965 91.3359C11.1543 90.9531 11.5156 90.6562 11.9805 90.4453C12.4492 90.2344 12.9961 90.1289 13.6211 90.1289C14.5625 90.1289 15.3105 90.375 15.8652 90.8672C16.4238 91.3594 16.7168 92.0312 16.7441 92.8828H15.4844C15.4531 92.3789 15.2695 91.9844 14.9336 91.6992C14.5977 91.4102 14.1543 91.2656 13.6035 91.2656C13.0762 91.2656 12.6445 91.3926 12.3086 91.6465C11.9727 91.8965 11.8047 92.2188 11.8047 92.6133C11.8047 92.9297 11.9336 93.1875 12.1914 93.3867C12.4492 93.582 12.877 93.752 13.4746 93.8965L14.418 94.1191C15.293 94.3262 15.9375 94.625 16.3516 95.0156C16.7695 95.4062 16.9785 95.9141 16.9785 96.5391C16.9785 97.0625 16.8438 97.5195 16.5742 97.9102C16.3047 98.3008 15.9258 98.6035 15.4375 98.8184C14.9492 99.0332 14.375 99.1406 13.7148 99.1406Z" fill="black"/>
<path d="M9.09766 90.2695V99H7.79688V90.2695H9.09766Z" fill="black"/>
<path d="M35.2598 116.178C34.5944 116.178 34.0042 116.077 33.4893 115.877C32.9743 115.676 32.5618 115.389 32.252 115.016C31.9466 114.642 31.7734 114.2 31.7324 113.689H34.0498C34.0863 113.958 34.2048 114.17 34.4053 114.325C34.6058 114.48 34.8792 114.558 35.2256 114.558C35.5492 114.558 35.8021 114.501 35.9844 114.387C36.1667 114.273 36.2578 114.125 36.2578 113.942C36.2578 113.642 35.9661 113.439 35.3828 113.334L34.0771 113.102C33.3662 112.974 32.8239 112.73 32.4502 112.37C32.0811 112.01 31.8965 111.545 31.8965 110.976C31.8965 110.265 32.1836 109.697 32.7578 109.273C33.332 108.845 34.1227 108.631 35.1299 108.631C36.137 108.631 36.9391 108.854 37.5361 109.301C38.1331 109.747 38.443 110.356 38.4658 111.126H36.2988C36.2943 110.875 36.1895 110.666 35.9844 110.497C35.7839 110.328 35.5264 110.244 35.2119 110.244C34.9066 110.244 34.6673 110.303 34.4941 110.422C34.3255 110.54 34.2412 110.688 34.2412 110.866C34.2412 111.162 34.501 111.361 35.0205 111.461L36.4697 111.728C37.2126 111.864 37.7617 112.092 38.1172 112.411C38.4727 112.73 38.6504 113.159 38.6504 113.696C38.6504 114.188 38.5068 114.621 38.2197 114.995C37.9372 115.369 37.5407 115.66 37.0303 115.87C36.5244 116.075 35.9342 116.178 35.2598 116.178Z" fill="black"/>
<path d="M27.9316 116.157C27.4577 116.157 27.0384 116.052 26.6738 115.843C26.3138 115.629 26.0404 115.31 25.8535 114.886H25.8398V116H23.5156V105.814H25.8672V109.752H25.8809C26.3275 109 27.0179 108.624 27.9521 108.624C28.5628 108.624 29.1006 108.784 29.5654 109.103C30.0303 109.422 30.3926 109.864 30.6523 110.429C30.9167 110.994 31.0488 111.643 31.0488 112.377C31.0488 113.138 30.9189 113.803 30.6592 114.373C30.404 114.938 30.0417 115.378 29.5723 115.692C29.1074 116.002 28.5605 116.157 27.9316 116.157ZM27.2686 114.277C27.7015 114.277 28.0433 114.109 28.2939 113.771C28.5446 113.434 28.6699 112.969 28.6699 112.377C28.6699 111.789 28.5446 111.329 28.2939 110.996C28.0433 110.663 27.7015 110.497 27.2686 110.497C26.8265 110.497 26.4665 110.668 26.1885 111.01C25.9105 111.352 25.7715 111.807 25.7715 112.377C25.7715 112.956 25.9105 113.418 26.1885 113.765C26.4665 114.106 26.8265 114.277 27.2686 114.277Z" fill="black"/>
<path d="M17.7803 116.123C17.0557 116.123 16.4609 115.948 15.9961 115.597C15.5358 115.241 15.3057 114.703 15.3057 113.983C15.3057 113.441 15.431 113.013 15.6816 112.698C15.9368 112.384 16.2764 112.151 16.7002 112.001C17.124 111.851 17.5934 111.755 18.1084 111.714C18.7555 111.659 19.2113 111.593 19.4756 111.516C19.7399 111.438 19.8721 111.29 19.8721 111.071V111.037C19.8721 110.823 19.7809 110.65 19.5986 110.518C19.4209 110.381 19.1771 110.312 18.8672 110.312C18.5391 110.312 18.277 110.385 18.0811 110.531C17.8896 110.677 17.7826 110.873 17.7598 111.119H15.5723C15.6224 110.335 15.9346 109.725 16.5088 109.287C17.0876 108.845 17.901 108.624 18.9492 108.624C19.9974 108.624 20.8018 108.845 21.3623 109.287C21.9229 109.725 22.2031 110.342 22.2031 111.14V116H19.9062V114.988H19.8789C19.6647 115.376 19.389 115.663 19.0518 115.85C18.7145 116.032 18.2907 116.123 17.7803 116.123ZM18.498 114.585C18.89 114.585 19.2204 114.478 19.4893 114.264C19.7581 114.045 19.8926 113.758 19.8926 113.402V112.746C19.7695 112.805 19.5986 112.858 19.3799 112.903C19.1611 112.949 18.9059 112.997 18.6143 113.047C18.2998 113.097 18.04 113.188 17.835 113.32C17.6344 113.452 17.5342 113.637 17.5342 113.874C17.5342 114.097 17.623 114.273 17.8008 114.4C17.9785 114.523 18.2109 114.585 18.498 114.585Z" fill="black"/>
<path d="M7.65625 116V105.814H10.1172V113.908H14.6289V116H7.65625Z" fill="black"/>
<path d="M51.0331 17.8338C62.5254 22.6264 70.6033 33.9689 70.6033 47.1982C70.6033 64.7618 56.3652 78.9999 38.8017 78.9999C21.2381 78.9999 7 64.7618 7 47.1982C7 33.7354 15.3654 22.2263 27.1818 17.586V14.1733H31.4628V20.5041L28.7466 21.5707C18.5135 25.5894 11.281 35.5544 11.281 47.1982C11.281 62.3974 23.6024 74.7189 38.8017 74.7189C54.0009 74.7189 66.3223 62.3974 66.3223 47.1982C66.3223 35.7565 59.3389 25.936 49.3853 21.7851L46.7521 20.6868V14.1733H51.0331V17.8338Z" fill="black"/>
<path d="M51.3385 43.8348C55.3928 43.5519 59.4864 44.5628 63.2378 46.0924C63.2542 46.4589 63.2641 46.8278 63.2641 47.1984C63.264 60.7088 52.3116 71.6613 38.8013 71.6613C27.9578 71.6613 18.7636 64.6057 15.5557 54.8353C18.7829 55.6475 22.3076 55.9915 25.9583 55.4546C37.1151 53.8139 38.1898 44.7522 51.3385 43.8348Z" fill="black"/>
<path d="M25.3468 39.8596C27.3733 39.8596 29.0162 41.5024 29.0162 43.529C29.0162 45.5556 27.3733 47.1984 25.3468 47.1984C23.3202 47.1984 21.6773 45.5556 21.6773 43.529C21.6773 41.5024 23.3202 39.8596 25.3468 39.8596Z" fill="black"/>
<path d="M51.6443 33.7439C52.9953 33.7439 54.0906 34.8391 54.0906 36.1902C54.0906 37.5412 52.9953 38.6364 51.6443 38.6364C50.2932 38.6364 49.198 37.5412 49.198 36.1902C49.198 34.8391 50.2932 33.7439 51.6443 33.7439Z" fill="black"/>
<path d="M37.5782 25.7935C40.618 25.7935 43.0823 28.2577 43.0823 31.2976C43.0823 34.3374 40.618 36.8017 37.5782 36.8017C34.5383 36.8017 32.074 34.3374 32.074 31.2976C32.074 28.2577 34.5383 25.7935 37.5782 25.7935Z" fill="black"/>
<rect x="23.5122" y="5" width="29.9669" height="7.33885" fill="black"/>
</svg>
