<svg width="128" height="128" viewBox="0 0 128 128" fill="none" xmlns="http://www.w3.org/2000/svg">
<path d="M103.524 45.0693V43.2271H114.587V45.0693H110.118V57.304H108.011V45.0693H103.524Z" fill="black"/>
<path d="M90.5234 57.304V43.2271H92.8475L98.2231 51.7394C98.3868 52.0039 98.6104 52.3786 98.8939 52.8636C99.1773 53.3486 99.4607 53.8399 99.7441 54.3375C99.7252 53.8273 99.7095 53.3108 99.6969 52.788C99.6906 52.259 99.6874 51.8653 99.6874 51.6071V43.2271H101.794V57.304H99.4512L94.6425 49.6987C94.4473 49.39 94.1638 48.9303 93.7922 48.3193C93.4269 47.7021 93.0113 46.9935 92.5452 46.1936C92.5767 47.0187 92.5956 47.7304 92.6019 48.3288C92.6145 48.9208 92.6208 49.3743 92.6208 49.6892V57.304H90.5234Z" fill="black"/>
<path d="M79.1289 57.304V43.2271H88.5952V45.0693H81.2262V49.2168H88.0473V51.0402H81.2262V55.4617H88.5952V57.304H79.1289Z" fill="black"/>
<path d="M68.625 57.304V43.2271H70.7223V55.4617H77.3828V57.304H68.625Z" fill="black"/>
<path d="M54.4526 57.304L59.5637 43.2271H62.0956L67.1689 57.304H64.892L63.645 53.6478H57.9671L56.6822 57.304H54.4526ZM58.6001 51.8622H63.0309L62.1806 49.368C61.9917 48.7885 61.7901 48.1682 61.576 47.5068C61.3618 46.8455 61.1162 46.0582 60.8391 45.1449C60.5557 46.0582 60.3069 46.8455 60.0927 47.5068C59.8786 48.1682 59.6739 48.7885 59.4787 49.368L58.6001 51.8622Z" fill="black"/>
<path d="M48.5486 57.304L43.4375 43.2271H45.6954L48.4824 51.1631C48.6525 51.6732 48.8477 52.2747 49.0682 52.9675C49.2886 53.6604 49.5468 54.4697 49.8428 55.3956C50.1263 54.4697 50.3751 53.6604 50.5892 52.9675C50.8096 52.2747 51.0049 51.6732 51.1749 51.1631L53.8863 43.2271H56.1065L51.071 57.304H48.5486Z" fill="black"/>
<path d="M36.7493 57.5304C35.5023 57.5304 34.3906 57.225 33.4144 56.614C32.4381 56.0031 31.6698 55.1528 31.1092 54.0632C30.555 52.9735 30.2778 51.7107 30.2778 50.2747C30.2778 48.8323 30.555 47.5663 31.1092 46.4767C31.6698 45.3808 32.4381 44.5274 33.4144 43.9164C34.3906 43.3055 35.5023 43 36.7493 43C38.0027 43 39.1175 43.3055 40.0937 43.9164C41.0699 44.5274 41.8352 45.3808 42.3894 46.4767C42.95 47.5663 43.2302 48.8323 43.2302 50.2747C43.2302 51.7107 42.95 52.9735 42.3894 54.0632C41.8352 55.1528 41.0699 56.0031 40.0937 56.614C39.1175 57.225 38.0027 57.5304 36.7493 57.5304ZM36.7493 55.6126C37.5618 55.6126 38.2987 55.4079 38.96 54.9985C39.6213 54.5828 40.1472 53.9781 40.5377 53.1845C40.9282 52.3846 41.1235 51.4147 41.1235 50.2747C41.1235 49.1284 40.9282 48.1553 40.5377 47.3554C40.1472 46.5555 39.6213 45.9508 38.96 45.5414C38.2987 45.1257 37.5618 44.9179 36.7493 44.9179C35.9431 44.9179 35.2094 45.1257 34.5481 45.5414C33.8867 45.9508 33.3608 46.5555 32.9703 47.3554C32.5799 48.1553 32.3846 49.1284 32.3846 50.2747C32.3846 51.4147 32.5799 52.3846 32.9703 53.1845C33.3608 53.9781 33.8867 54.5828 34.5481 54.9985C35.2094 55.4079 35.9431 55.6126 36.7493 55.6126Z" fill="black"/>
<path d="M23.541 57.5304C21.8531 57.5304 20.521 57.1053 19.5447 56.255C18.5748 55.3984 18.0898 54.2269 18.0898 52.7405H20.1872C20.1935 53.6664 20.4895 54.3907 21.0752 54.9134C21.6673 55.4362 22.4892 55.6976 23.541 55.6976C24.4983 55.6976 25.2636 55.4961 25.8367 55.093C26.4162 54.6836 26.7059 54.1356 26.7059 53.4491C26.7059 52.9074 26.498 52.4697 26.0824 52.1358C25.673 51.7957 24.9802 51.5092 24.0039 51.2761L22.464 50.9077C21.0406 50.5675 20.0014 50.0952 19.3464 49.4905C18.6976 48.8796 18.3733 48.086 18.3733 47.1097C18.3733 46.2846 18.5811 45.5635 18.9968 44.9462C19.4125 44.329 19.9951 43.8503 20.7446 43.5102C21.5004 43.1701 22.3821 43 23.3898 43C24.9077 43 26.1139 43.3968 27.0082 44.1904C27.9089 44.984 28.3812 46.0673 28.4253 47.4404H26.3941C26.3437 46.6279 26.0477 45.9917 25.5061 45.532C24.9644 45.0659 24.2496 44.8328 23.3615 44.8328C22.5112 44.8328 21.8153 45.0375 21.2736 45.4469C20.732 45.85 20.4611 46.3697 20.4611 47.0058C20.4611 47.516 20.669 47.9317 21.0847 48.2529C21.5004 48.5678 22.19 48.8418 23.1537 49.0748L24.6747 49.4338C26.0855 49.7676 27.1247 50.2495 27.7923 50.8793C28.4663 51.5092 28.8032 52.3279 28.8032 53.3357C28.8032 54.1797 28.5859 54.9166 28.1513 55.5464C27.7168 56.1763 27.1058 56.6644 26.3185 57.0108C25.5313 57.3572 24.6054 57.5304 23.541 57.5304Z" fill="black"/>
<path d="M16.0973 43.2271V57.304H14V43.2271H16.0973Z" fill="black"/>
<path d="M58.5052 84.9996C57.4324 84.9996 56.4808 84.8379 55.6505 84.5146C54.8202 84.1913 54.1552 83.7284 53.6555 83.1258C53.1632 82.5233 52.884 81.8105 52.8179 80.9875H56.5543C56.6131 81.421 56.8042 81.7627 57.1275 82.0126C57.4508 82.2624 57.8917 82.3873 58.4501 82.3873C58.9718 82.3873 59.3796 82.2955 59.6735 82.1118C59.9675 81.9281 60.1144 81.6892 60.1144 81.3953C60.1144 80.9103 59.6442 80.5833 58.7036 80.4143L56.5984 80.0396C55.4521 79.8338 54.5777 79.4407 53.9752 78.8602C53.38 78.2797 53.0824 77.5302 53.0824 76.6117C53.0824 75.4654 53.5453 74.5505 54.4712 73.8671C55.397 73.1764 56.6719 72.8311 58.2958 72.8311C59.9197 72.8311 61.213 73.1911 62.1755 73.9112C63.1381 74.6314 63.6378 75.6123 63.6745 76.8542H60.1806C60.1732 76.45 60.0042 76.112 59.6735 75.8401C59.3502 75.5682 58.9351 75.4323 58.4281 75.4323C57.9357 75.4323 57.55 75.5278 57.2708 75.7189C56.9989 75.9099 56.8629 76.1487 56.8629 76.4353C56.8629 76.913 57.2818 77.2326 58.1194 77.3943L60.4561 77.8241C61.6538 78.0446 62.5393 78.412 63.1124 78.9263C63.6856 79.4407 63.9721 80.1314 63.9721 80.9985C63.9721 81.7921 63.7407 82.4902 63.2777 83.0927C62.8222 83.6953 62.1829 84.1656 61.3599 84.5036C60.5443 84.8343 59.5927 84.9996 58.5052 84.9996Z" fill="black"/>
<path d="M46.69 84.9676C45.9258 84.9676 45.2498 84.7986 44.662 84.4606C44.0815 84.1153 43.6406 83.6009 43.3393 82.9175H43.3173V84.7141H39.5698V68.291H43.3614V74.6398H43.3834C44.1035 73.4274 45.2168 72.8211 46.7231 72.8211C47.7077 72.8211 48.5748 73.0783 49.3243 73.5927C50.0738 74.1071 50.6579 74.8198 51.0768 75.731C51.503 76.6422 51.7161 77.6893 51.7161 78.8723C51.7161 80.0995 51.5066 81.1723 51.0878 82.0908C50.6763 83.002 50.0921 83.7111 49.3353 84.2181C48.5858 84.7178 47.7041 84.9676 46.69 84.9676ZM45.6209 81.9365C46.319 81.9365 46.8701 81.6646 47.2742 81.1209C47.6783 80.5771 47.8804 79.8276 47.8804 78.8723C47.8804 77.9244 47.6783 77.1823 47.2742 76.6459C46.8701 76.1094 46.319 75.8412 45.6209 75.8412C44.9081 75.8412 44.3276 76.1168 43.8794 76.6679C43.4312 77.219 43.2071 77.9538 43.2071 78.8723C43.2071 79.8056 43.4312 80.5514 43.8794 81.1099C44.3276 81.661 44.9081 81.9365 45.6209 81.9365Z" fill="black"/>
<path d="M30.3235 84.9127C29.1551 84.9127 28.1962 84.6298 27.4467 84.064C26.7046 83.4908 26.3335 82.6237 26.3335 81.4627C26.3335 80.5883 26.5356 79.8976 26.9397 79.3905C27.3512 78.8835 27.8986 78.5088 28.582 78.2663C29.2653 78.0238 30.0222 77.8695 30.8525 77.8033C31.8959 77.7152 32.6307 77.6086 33.0569 77.4837C33.4831 77.3588 33.6962 77.12 33.6962 76.7672V76.7121C33.6962 76.3668 33.5492 76.0875 33.2553 75.8744C32.9687 75.654 32.5756 75.5438 32.076 75.5438C31.5469 75.5438 31.1244 75.6613 30.8084 75.8965C30.4998 76.1316 30.3271 76.4476 30.2904 76.8444H26.7634C26.8442 75.5805 27.3475 74.5959 28.2734 73.8904C29.2066 73.1777 30.5182 72.8213 32.2082 72.8213C33.8983 72.8213 35.1952 73.1777 36.099 73.8904C37.0028 74.5959 37.4547 75.5915 37.4547 76.8775V84.7143H33.7513V83.083H33.7072C33.3618 83.7076 32.9173 84.1705 32.3735 84.4718C31.8298 84.7657 31.1464 84.9127 30.3235 84.9127ZM31.4808 82.4327C32.1127 82.4327 32.6454 82.26 33.079 81.9146C33.5125 81.5619 33.7292 81.099 33.7292 80.5258V79.4677C33.5309 79.5632 33.2553 79.6477 32.9026 79.7212C32.5499 79.7947 32.1384 79.8718 31.6681 79.9527C31.1611 80.0335 30.7423 80.1805 30.4116 80.3936C30.0883 80.6067 29.9267 80.9043 29.9267 81.2864C29.9267 81.6464 30.0699 81.9293 30.3565 82.1351C30.6431 82.3335 31.0178 82.4327 31.4808 82.4327Z" fill="black"/>
<path d="M13.999 84.7141V68.291H17.9669V81.3413H25.2415V84.7141H13.999Z" fill="black"/>
</svg>
