<svg width="128" height="128" viewBox="0 0 128 128" fill="none" xmlns="http://www.w3.org/2000/svg">
<path d="M88.5234 91.4121V90.2695H95.3848V91.4121H92.6133V99H91.3066V91.4121H88.5234Z" fill="white"/>
<path d="M80.4609 99V90.2695H81.9023L85.2363 95.5488C85.3379 95.7129 85.4766 95.9453 85.6523 96.2461C85.8281 96.5469 86.0039 96.8516 86.1797 97.1602C86.168 96.8438 86.1582 96.5234 86.1504 96.1992C86.1465 95.8711 86.1445 95.627 86.1445 95.4668V90.2695H87.4512V99H85.998L83.0156 94.2832C82.8945 94.0918 82.7188 93.8066 82.4883 93.4277C82.2617 93.0449 82.0039 92.6055 81.7148 92.1094C81.7344 92.6211 81.7461 93.0625 81.75 93.4336C81.7578 93.8008 81.7617 94.082 81.7617 94.2773V99H80.4609Z" fill="white"/>
<path d="M73.3945 99V90.2695H79.2656V91.4121H74.6953V93.9844H78.9258V95.1152H74.6953V97.8574H79.2656V99H73.3945Z" fill="white"/>
<path d="M66.8789 99V90.2695H68.1797V97.8574H72.3105V99H66.8789Z" fill="white"/>
<path d="M58.0898 99L61.2598 90.2695H62.8301L65.9766 99H64.5645L63.791 96.7324H60.2695L59.4727 99H58.0898ZM60.6621 95.625H63.4102L62.8828 94.0781C62.7656 93.7188 62.6406 93.334 62.5078 92.9238C62.375 92.5137 62.2227 92.0254 62.0508 91.459C61.875 92.0254 61.7207 92.5137 61.5879 92.9238C61.4551 93.334 61.3281 93.7188 61.207 94.0781L60.6621 95.625Z" fill="white"/>
<path d="M54.4277 99L51.2578 90.2695H52.6582L54.3867 95.1914C54.4922 95.5078 54.6133 95.8809 54.75 96.3105C54.8867 96.7402 55.0469 97.2422 55.2305 97.8164C55.4062 97.2422 55.5605 96.7402 55.6934 96.3105C55.8301 95.8809 55.9512 95.5078 56.0566 95.1914L57.7383 90.2695H59.1152L55.9922 99H54.4277Z" fill="white"/>
<path d="M47.1094 99.1406C46.3359 99.1406 45.6465 98.9512 45.041 98.5723C44.4355 98.1934 43.959 97.666 43.6113 96.9902C43.2676 96.3145 43.0957 95.5312 43.0957 94.6406C43.0957 93.7461 43.2676 92.9609 43.6113 92.2852C43.959 91.6055 44.4355 91.0762 45.041 90.6973C45.6465 90.3184 46.3359 90.1289 47.1094 90.1289C47.8867 90.1289 48.5781 90.3184 49.1836 90.6973C49.7891 91.0762 50.2637 91.6055 50.6074 92.2852C50.9551 92.9609 51.1289 93.7461 51.1289 94.6406C51.1289 95.5312 50.9551 96.3145 50.6074 96.9902C50.2637 97.666 49.7891 98.1934 49.1836 98.5723C48.5781 98.9512 47.8867 99.1406 47.1094 99.1406ZM47.1094 97.9512C47.6133 97.9512 48.0703 97.8242 48.4805 97.5703C48.8906 97.3125 49.2168 96.9375 49.459 96.4453C49.7012 95.9492 49.8223 95.3477 49.8223 94.6406C49.8223 93.9297 49.7012 93.3262 49.459 92.8301C49.2168 92.334 48.8906 91.959 48.4805 91.7051C48.0703 91.4473 47.6133 91.3184 47.1094 91.3184C46.6094 91.3184 46.1543 91.4473 45.7441 91.7051C45.334 91.959 45.0078 92.334 44.7656 92.8301C44.5234 93.3262 44.4023 93.9297 44.4023 94.6406C44.4023 95.3477 44.5234 95.9492 44.7656 96.4453C45.0078 96.9375 45.334 97.3125 45.7441 97.5703C46.1543 97.8242 46.6094 97.9512 47.1094 97.9512Z" fill="white"/>
<path d="M38.918 99.1406C37.8711 99.1406 37.0449 98.877 36.4395 98.3496C35.8379 97.8184 35.5371 97.0918 35.5371 96.1699H36.8379C36.8418 96.7441 37.0254 97.1934 37.3887 97.5176C37.7559 97.8418 38.2656 98.0039 38.918 98.0039C39.5117 98.0039 39.9863 97.8789 40.3418 97.6289C40.7012 97.375 40.8809 97.0352 40.8809 96.6094C40.8809 96.2734 40.752 96.002 40.4941 95.7949C40.2402 95.584 39.8105 95.4062 39.2051 95.2617L38.25 95.0332C37.3672 94.8223 36.7227 94.5293 36.3164 94.1543C35.9141 93.7754 35.7129 93.2832 35.7129 92.6777C35.7129 92.166 35.8418 91.7188 36.0996 91.3359C36.3574 90.9531 36.7188 90.6562 37.1836 90.4453C37.6523 90.2344 38.1992 90.1289 38.8242 90.1289C39.7656 90.1289 40.5137 90.375 41.0684 90.8672C41.627 91.3594 41.9199 92.0312 41.9473 92.8828H40.6875C40.6562 92.3789 40.4727 91.9844 40.1367 91.6992C39.8008 91.4102 39.3574 91.2656 38.8066 91.2656C38.2793 91.2656 37.8477 91.3926 37.5117 91.6465C37.1758 91.8965 37.0078 92.2188 37.0078 92.6133C37.0078 92.9297 37.1367 93.1875 37.3945 93.3867C37.6523 93.582 38.0801 93.752 38.6777 93.8965L39.6211 94.1191C40.4961 94.3262 41.1406 94.625 41.5547 95.0156C41.9727 95.4062 42.1816 95.9141 42.1816 96.5391C42.1816 97.0625 42.0469 97.5195 41.7773 97.9102C41.5078 98.3008 41.1289 98.6035 40.6406 98.8184C40.1523 99.0332 39.5781 99.1406 38.918 99.1406Z" fill="white"/>
<path d="M34.3008 90.2695V99H33V90.2695H34.3008Z" fill="white"/>
<path d="M75.6035 116.178C74.9382 116.178 74.348 116.077 73.833 115.877C73.318 115.676 72.9056 115.389 72.5957 115.016C72.2904 114.642 72.1172 114.2 72.0762 113.689H74.3936C74.43 113.958 74.5485 114.17 74.749 114.325C74.9495 114.48 75.223 114.558 75.5693 114.558C75.8929 114.558 76.1458 114.501 76.3281 114.387C76.5104 114.273 76.6016 114.125 76.6016 113.942C76.6016 113.642 76.3099 113.439 75.7266 113.334L74.4209 113.102C73.71 112.974 73.1676 112.73 72.7939 112.37C72.4248 112.01 72.2402 111.545 72.2402 110.976C72.2402 110.265 72.5273 109.697 73.1016 109.273C73.6758 108.845 74.4665 108.631 75.4736 108.631C76.4808 108.631 77.2829 108.854 77.8799 109.301C78.4769 109.747 78.7868 110.356 78.8096 111.126H76.6426C76.638 110.875 76.5332 110.666 76.3281 110.497C76.1276 110.328 75.8701 110.244 75.5557 110.244C75.2503 110.244 75.0111 110.303 74.8379 110.422C74.6693 110.54 74.585 110.688 74.585 110.866C74.585 111.162 74.8447 111.361 75.3643 111.461L76.8135 111.728C77.5563 111.864 78.1055 112.092 78.4609 112.411C78.8164 112.73 78.9941 113.159 78.9941 113.696C78.9941 114.188 78.8506 114.621 78.5635 114.995C78.2809 115.369 77.8844 115.66 77.374 115.87C76.8682 116.075 76.278 116.178 75.6035 116.178Z" fill="white"/>
<path d="M68.2754 116.157C67.8014 116.157 67.3822 116.052 67.0176 115.843C66.6576 115.629 66.3841 115.31 66.1973 114.886H66.1836V116H63.8594V105.814H66.2109V109.752H66.2246C66.6712 109 67.3617 108.624 68.2959 108.624C68.9066 108.624 69.4443 108.784 69.9092 109.103C70.374 109.422 70.7363 109.864 70.9961 110.429C71.2604 110.994 71.3926 111.643 71.3926 112.377C71.3926 113.138 71.2627 113.803 71.0029 114.373C70.7477 114.938 70.3854 115.378 69.916 115.692C69.4512 116.002 68.9043 116.157 68.2754 116.157ZM67.6123 114.277C68.0452 114.277 68.387 114.109 68.6377 113.771C68.8883 113.434 69.0137 112.969 69.0137 112.377C69.0137 111.789 68.8883 111.329 68.6377 110.996C68.387 110.663 68.0452 110.497 67.6123 110.497C67.1702 110.497 66.8102 110.668 66.5322 111.01C66.2542 111.352 66.1152 111.807 66.1152 112.377C66.1152 112.956 66.2542 113.418 66.5322 113.765C66.8102 114.106 67.1702 114.277 67.6123 114.277Z" fill="white"/>
<path d="M58.124 116.123C57.3994 116.123 56.8047 115.948 56.3398 115.597C55.8796 115.241 55.6494 114.703 55.6494 113.983C55.6494 113.441 55.7747 113.013 56.0254 112.698C56.2806 112.384 56.6201 112.151 57.0439 112.001C57.4678 111.851 57.9372 111.755 58.4521 111.714C59.0993 111.659 59.555 111.593 59.8193 111.516C60.0837 111.438 60.2158 111.29 60.2158 111.071V111.037C60.2158 110.823 60.1247 110.65 59.9424 110.518C59.7646 110.381 59.5208 110.312 59.2109 110.312C58.8828 110.312 58.6208 110.385 58.4248 110.531C58.2334 110.677 58.1263 110.873 58.1035 111.119H55.916C55.9661 110.335 56.2783 109.725 56.8525 109.287C57.4313 108.845 58.2448 108.624 59.293 108.624C60.3411 108.624 61.1455 108.845 61.7061 109.287C62.2666 109.725 62.5469 110.342 62.5469 111.14V116H60.25V114.988H60.2227C60.0085 115.376 59.7327 115.663 59.3955 115.85C59.0583 116.032 58.6344 116.123 58.124 116.123ZM58.8418 114.585C59.2337 114.585 59.5641 114.478 59.833 114.264C60.1019 114.045 60.2363 113.758 60.2363 113.402V112.746C60.1133 112.805 59.9424 112.858 59.7236 112.903C59.5049 112.949 59.2497 112.997 58.958 113.047C58.6436 113.097 58.3838 113.188 58.1787 113.32C57.9782 113.452 57.8779 113.637 57.8779 113.874C57.8779 114.097 57.9668 114.273 58.1445 114.4C58.3223 114.523 58.5547 114.585 58.8418 114.585Z" fill="white"/>
<path d="M48 116V105.814H50.4609V113.908H54.9727V116H48Z" fill="white"/>
<path d="M76.0331 17.8338C87.5254 22.6264 95.6033 33.9689 95.6033 47.1982C95.6033 64.7618 81.3652 78.9999 63.8017 78.9999C46.2381 78.9999 32 64.7618 32 47.1982C32 33.7354 40.3654 22.2263 52.1818 17.586V14.1733H56.4628V20.5041L53.7466 21.5707C43.5135 25.5894 36.281 35.5544 36.281 47.1982C36.281 62.3974 48.6024 74.7189 63.8017 74.7189C79.0009 74.7189 91.3223 62.3974 91.3223 47.1982C91.3223 35.7565 84.3389 25.936 74.3853 21.7851L71.7521 20.6868V14.1733H76.0331V17.8338Z" fill="white"/>
<path d="M76.3385 43.8348C80.3928 43.5519 84.4864 44.5628 88.2378 46.0924C88.2542 46.4589 88.2641 46.8278 88.2641 47.1984C88.264 60.7088 77.3116 71.6613 63.8013 71.6613C52.9578 71.6613 43.7636 64.6057 40.5557 54.8353C43.7829 55.6475 47.3076 55.9915 50.9583 55.4546C62.1151 53.8139 63.1898 44.7522 76.3385 43.8348Z" fill="white"/>
<path d="M50.3468 39.8596C52.3733 39.8596 54.0162 41.5024 54.0162 43.529C54.0162 45.5556 52.3733 47.1984 50.3468 47.1984C48.3202 47.1984 46.6773 45.5556 46.6773 43.529C46.6773 41.5024 48.3202 39.8596 50.3468 39.8596Z" fill="white"/>
<path d="M76.6443 33.7439C77.9953 33.7439 79.0906 34.8391 79.0906 36.1902C79.0906 37.5412 77.9953 38.6364 76.6443 38.6364C75.2932 38.6364 74.198 37.5412 74.198 36.1902C74.198 34.8391 75.2932 33.7439 76.6443 33.7439Z" fill="white"/>
<path d="M62.5782 25.7935C65.618 25.7935 68.0823 28.2577 68.0823 31.2976C68.0823 34.3374 65.618 36.8017 62.5782 36.8017C59.5383 36.8017 57.074 34.3374 57.074 31.2976C57.074 28.2577 59.5383 25.7935 62.5782 25.7935Z" fill="white"/>
<rect x="48.5122" y="5" width="29.9669" height="7.33885" fill="white"/>
</svg>
