<svg width="128" height="128" viewBox="0 0 128 128" fill="none" xmlns="http://www.w3.org/2000/svg">
<path d="M38.2314 52.8967C43.5117 55.0987 47.2231 60.3101 47.2231 66.3884C47.2231 74.4581 40.6813 81 32.6116 81C24.5418 81 18 74.4581 18 66.3884C18 60.2028 21.8436 54.9149 27.2727 52.7828V51.2148H29.2397V54.1235L27.9917 54.6136C23.29 56.46 19.9669 61.0386 19.9669 66.3884C19.9669 73.3718 25.6281 79.033 32.6116 79.033C39.595 79.033 45.2562 73.3718 45.2562 66.3884C45.2562 61.1314 42.0476 56.6193 37.4743 54.7121L36.2645 54.2075V51.2148H38.2314V52.8967Z" fill="#555555"/>
<path d="M38.3719 64.843C40.2347 64.713 42.1156 65.1775 43.8392 65.8802C43.8467 66.0486 43.8513 66.2181 43.8513 66.3884C43.8512 72.5959 38.819 77.6281 32.6116 77.6281C27.6295 77.6281 23.4051 74.3863 21.9312 69.8972C23.4139 70.2704 25.0334 70.4285 26.7108 70.1818C31.8368 69.428 32.3306 65.2645 38.3719 64.843Z" fill="url(#paint0_linear_14_1684)"/>
<path d="M26.4298 63.0165C27.3609 63.0165 28.1157 63.7713 28.1157 64.7025C28.1157 65.6336 27.3609 66.3884 26.4298 66.3884C25.4986 66.3884 24.7438 65.6336 24.7438 64.7025C24.7438 63.7713 25.4986 63.0165 26.4298 63.0165Z" fill="url(#paint1_linear_14_1684)"/>
<path d="M38.5124 60.2066C39.1332 60.2066 39.6364 60.7098 39.6364 61.3306C39.6364 61.9513 39.1332 62.4545 38.5124 62.4545C37.8917 62.4545 37.3884 61.9513 37.3884 61.3306C37.3884 60.7098 37.8917 60.2066 38.5124 60.2066Z" fill="url(#paint2_linear_14_1684)"/>
<path d="M32.0496 56.5537C33.4463 56.5537 34.5785 57.6859 34.5785 59.0826C34.5785 60.4793 33.4463 61.6116 32.0496 61.6116C30.6529 61.6116 29.5207 60.4793 29.5207 59.0826C29.5207 57.6859 30.6529 56.5537 32.0496 56.5537Z" fill="url(#paint3_linear_14_1684)"/>
<rect x="25.5869" y="47" width="13.7686" height="3.3719" fill="#555555"/>
<path d="M103.157 57.0641V56.1167H108.847V57.0641H106.549V63.3562H105.465V57.0641H103.157Z" fill="black"/>
<path d="M96.4722 63.3562V56.1167H97.6674L100.432 60.4944C100.516 60.6304 100.631 60.8232 100.777 61.0726C100.923 61.322 101.068 61.5747 101.214 61.8305C101.205 61.5682 101.196 61.3026 101.19 61.0337C101.187 60.7616 101.185 60.5592 101.185 60.4264V56.1167H102.269V63.3562H101.064L98.5906 59.4449C98.4901 59.2862 98.3444 59.0497 98.1533 58.7355C97.9654 58.4181 97.7516 58.0537 97.5119 57.6423C97.5281 58.0667 97.5378 58.4327 97.5411 58.7404C97.5476 59.0449 97.5508 59.2781 97.5508 59.4401V63.3562H96.4722Z" fill="black"/>
<path d="M90.6123 63.3562V56.1167H95.4807V57.0641H91.6909V59.1971H95.1989V60.1349H91.6909V62.4087H95.4807V63.3562H90.6123Z" fill="black"/>
<path d="M85.2095 63.3562V56.1167H86.2881V62.4087H89.7135V63.3562H85.2095Z" fill="black"/>
<path d="M77.9214 63.3562L80.5499 56.1167H81.8521L84.4612 63.3562H83.2902L82.6489 61.4759H79.7288L79.068 63.3562H77.9214ZM80.0543 60.5576H82.3331L81.8958 59.2749C81.7986 58.9769 81.695 58.6578 81.5848 58.3177C81.4747 57.9776 81.3484 57.5727 81.2059 57.103C81.0601 57.5727 80.9321 57.9776 80.822 58.3177C80.7119 58.6578 80.6066 58.9769 80.5062 59.2749L80.0543 60.5576Z" fill="black"/>
<path d="M74.8849 63.3562L72.2563 56.1167H73.4176L74.8509 60.198C74.9383 60.4604 75.0388 60.7697 75.1521 61.126C75.2655 61.4823 75.3983 61.8986 75.5505 62.3747C75.6963 61.8986 75.8242 61.4823 75.9344 61.126C76.0477 60.7697 76.1482 60.4604 76.2356 60.198L77.63 56.1167H78.7718L76.1822 63.3562H74.8849Z" fill="black"/>
<path d="M68.8165 63.4727C68.1751 63.4727 67.6034 63.3156 67.1014 63.0014C66.5993 62.6872 66.2041 62.2499 65.9158 61.6896C65.6308 61.1292 65.4883 60.4797 65.4883 59.7412C65.4883 58.9994 65.6308 58.3484 65.9158 57.788C66.2041 57.2244 66.5993 56.7855 67.1014 56.4713C67.6034 56.1571 68.1751 56 68.8165 56C69.4611 56 70.0344 56.1571 70.5364 56.4713C71.0385 56.7855 71.4321 57.2244 71.7171 57.788C72.0054 58.3484 72.1495 58.9994 72.1495 59.7412C72.1495 60.4797 72.0054 61.1292 71.7171 61.6896C71.4321 62.2499 71.0385 62.6872 70.5364 63.0014C70.0344 63.3156 69.4611 63.4727 68.8165 63.4727ZM68.8165 62.4864C69.2343 62.4864 69.6133 62.3811 69.9534 62.1706C70.2935 61.9568 70.564 61.6458 70.7648 61.2377C70.9656 60.8263 71.066 60.3275 71.066 59.7412C71.066 59.1517 70.9656 58.6512 70.7648 58.2399C70.564 57.8285 70.2935 57.5175 69.9534 57.307C69.6133 57.0932 69.2343 56.9863 68.8165 56.9863C68.4019 56.9863 68.0245 57.0932 67.6844 57.307C67.3443 57.5175 67.0738 57.8285 66.873 58.2399C66.6722 58.6512 66.5718 59.1517 66.5718 59.7412C66.5718 60.3275 66.6722 60.8263 66.873 61.2377C67.0738 61.6458 67.3443 61.9568 67.6844 62.1706C68.0245 62.3811 68.4019 62.4864 68.8165 62.4864Z" fill="black"/>
<path d="M62.0242 63.4727C61.1561 63.4727 60.471 63.2541 59.9689 62.8168C59.4701 62.3763 59.2207 61.7738 59.2207 61.0093H60.2993C60.3026 61.4855 60.4548 61.858 60.756 62.1268C61.0605 62.3957 61.4832 62.5301 62.0242 62.5301C62.5165 62.5301 62.9101 62.4265 63.2048 62.2192C63.5028 62.0086 63.6518 61.7268 63.6518 61.3737C63.6518 61.0952 63.5449 60.8701 63.3311 60.6984C63.1206 60.5235 62.7643 60.3761 62.2622 60.2562L61.4703 60.0667C60.7382 59.8918 60.2038 59.6489 59.8669 59.3379C59.5333 59.0237 59.3665 58.6156 59.3665 58.1135C59.3665 57.6892 59.4734 57.3183 59.6871 57.0009C59.9009 56.6835 60.2005 56.4373 60.586 56.2624C60.9747 56.0875 61.4282 56 61.9464 56C62.7271 56 63.3473 56.2041 63.8073 56.6122C64.2705 57.0203 64.5134 57.5775 64.5361 58.2836H63.4915C63.4656 57.8657 63.3133 57.5386 63.0348 57.3021C62.7562 57.0624 62.3886 56.9426 61.9318 56.9426C61.4946 56.9426 61.1366 57.0479 60.8581 57.2584C60.5795 57.4657 60.4402 57.7329 60.4402 58.0601C60.4402 58.3225 60.5471 58.5363 60.7609 58.7014C60.9747 58.8634 61.3294 59.0043 61.825 59.1242L62.6072 59.3088C63.3328 59.4805 63.8672 59.7283 64.2106 60.0522C64.5572 60.3761 64.7304 60.7972 64.7304 61.3154C64.7304 61.7495 64.6187 62.1285 64.3952 62.4524C64.1717 62.7763 63.8575 63.0273 63.4526 63.2055C63.0477 63.3836 62.5716 63.4727 62.0242 63.4727Z" fill="black"/>
<path d="M58.1953 56.1167V63.3562H57.1167V56.1167H58.1953Z" fill="black"/>
<path d="M79.8888 77.5998C79.3371 77.5998 78.8477 77.5167 78.4207 77.3504C77.9936 77.1841 77.6516 76.9461 77.3947 76.6362C77.1415 76.3263 76.9979 75.9597 76.9639 75.5365H78.8855C78.9157 75.7594 79.014 75.9352 79.1802 76.0637C79.3465 76.1921 79.5732 76.2564 79.8605 76.2564C80.1288 76.2564 80.3385 76.2091 80.4896 76.1147C80.6408 76.0202 80.7164 75.8974 80.7164 75.7462C80.7164 75.4968 80.4745 75.3286 79.9908 75.2417L78.9081 75.049C78.3186 74.9432 77.8689 74.741 77.5591 74.4425C77.253 74.1439 77.0999 73.7585 77.0999 73.2861C77.0999 72.6966 77.338 72.2261 77.8141 71.8746C78.2903 71.5194 78.9459 71.3418 79.7811 71.3418C80.6162 71.3418 81.2813 71.527 81.7764 71.8973C82.2714 72.2677 82.5284 72.7721 82.5473 73.4108H80.7504C80.7466 73.203 80.6597 73.0291 80.4896 72.8893C80.3234 72.7495 80.1099 72.6796 79.8491 72.6796C79.5959 72.6796 79.3975 72.7287 79.2539 72.8269C79.1141 72.9252 79.0442 73.048 79.0442 73.1954C79.0442 73.441 79.2596 73.6054 79.6904 73.6886L80.8921 73.9096C81.5081 74.023 81.9634 74.2119 82.2582 74.4765C82.553 74.741 82.7003 75.0962 82.7003 75.5422C82.7003 75.9503 82.5813 76.3093 82.3432 76.6192C82.1089 76.929 81.7802 77.1709 81.3569 77.3447C80.9375 77.5148 80.4481 77.5998 79.8888 77.5998Z" fill="black"/>
<path d="M73.8122 77.5833C73.4192 77.5833 73.0715 77.4964 72.7692 77.3225C72.4707 77.1449 72.2439 76.8804 72.089 76.5289H72.0777V77.4529H70.1504V69.0068H72.1003V72.2719H72.1117C72.482 71.6484 73.0545 71.3366 73.8292 71.3366C74.3356 71.3366 74.7815 71.4689 75.167 71.7334C75.5524 71.9979 75.8529 72.3645 76.0683 72.8331C76.2874 73.3017 76.397 73.8402 76.397 74.4486C76.397 75.0797 76.2893 75.6314 76.0739 76.1038C75.8623 76.5724 75.5619 76.9371 75.1726 77.1978C74.7872 77.4548 74.3337 77.5833 73.8122 77.5833ZM73.2624 76.0244C73.6214 76.0244 73.9048 75.8846 74.1126 75.605C74.3205 75.3253 74.4244 74.9399 74.4244 74.4486C74.4244 73.9611 74.3205 73.5794 74.1126 73.3036C73.9048 73.0277 73.6214 72.8898 73.2624 72.8898C72.8958 72.8898 72.5973 73.0315 72.3668 73.3149C72.1362 73.5983 72.021 73.9762 72.021 74.4486C72.021 74.9285 72.1362 75.3121 72.3668 75.5993C72.5973 75.8827 72.8958 76.0244 73.2624 76.0244Z" fill="black"/>
<path d="M65.3948 77.5548C64.7939 77.5548 64.3007 77.4093 63.9153 77.1183C63.5336 76.8235 63.3428 76.3776 63.3428 75.7805C63.3428 75.3308 63.4467 74.9756 63.6545 74.7149C63.8662 74.4541 64.1477 74.2614 64.4991 74.1367C64.8506 74.012 65.2398 73.9326 65.6668 73.8986C66.2035 73.8532 66.5814 73.7984 66.8005 73.7342C67.0197 73.67 67.1293 73.5471 67.1293 73.3657V73.3374C67.1293 73.1598 67.0537 73.0162 66.9026 72.9066C66.7552 72.7932 66.553 72.7365 66.296 72.7365C66.024 72.7365 65.8067 72.797 65.6442 72.9179C65.4855 73.0389 65.3966 73.2014 65.3778 73.4054H63.5638C63.6054 72.7554 63.8643 72.2491 64.3404 71.8863C64.8204 71.5197 65.4949 71.3364 66.3641 71.3364C67.2332 71.3364 67.9002 71.5197 68.365 71.8863C68.8298 72.2491 69.0622 72.7611 69.0622 73.4224V77.4527H67.1576V76.6138H67.135C66.9574 76.935 66.7287 77.1731 66.4491 77.328C66.1694 77.4792 65.818 77.5548 65.3948 77.5548ZM65.9899 76.2794C66.3149 76.2794 66.5889 76.1906 66.8119 76.0129C67.0348 75.8315 67.1463 75.5935 67.1463 75.2987V74.7545C67.0443 74.8037 66.9026 74.8471 66.7212 74.8849C66.5398 74.9227 66.3282 74.9624 66.0863 75.0039C65.8256 75.0455 65.6102 75.1211 65.4401 75.2307C65.2738 75.3403 65.1907 75.4933 65.1907 75.6898C65.1907 75.875 65.2644 76.0205 65.4118 76.1263C65.5591 76.2283 65.7519 76.2794 65.9899 76.2794Z" fill="black"/>
<path d="M57 77.4529V69.0068H59.0406V75.7183H62.7818V77.4529H57Z" fill="black"/>
<defs>
<linearGradient id="paint0_linear_14_1684" x1="21.9312" y1="69.8193" x2="43.8484" y2="69.5171" gradientUnits="userSpaceOnUse">
<stop stop-color="#2CA33A"/>
<stop offset="1" stop-color="#4CCFC2"/>
</linearGradient>
<linearGradient id="paint1_linear_14_1684" x1="21.9312" y1="69.8193" x2="43.8484" y2="69.5171" gradientUnits="userSpaceOnUse">
<stop stop-color="#2CA33A"/>
<stop offset="1" stop-color="#4CCFC2"/>
</linearGradient>
<linearGradient id="paint2_linear_14_1684" x1="21.9312" y1="69.8193" x2="43.8484" y2="69.5171" gradientUnits="userSpaceOnUse">
<stop stop-color="#2CA33A"/>
<stop offset="1" stop-color="#4CCFC2"/>
</linearGradient>
<linearGradient id="paint3_linear_14_1684" x1="21.9312" y1="69.8193" x2="43.8484" y2="69.5171" gradientUnits="userSpaceOnUse">
<stop stop-color="#2CA33A"/>
<stop offset="1" stop-color="#4CCFC2"/>
</linearGradient>
</defs>
</svg>
