<svg width="128" height="128" viewBox="0 0 128 128" fill="none" xmlns="http://www.w3.org/2000/svg">
<path d="M55.1365 112.819C54.6276 114.351 53.2009 116.85 51.3071 118.355C49.1262 120.126 46.5818 120.266 43.9538 119.947C41.613 119.689 39.9555 118.887 36.6187 117.613C35.1975 117.067 33.4164 116.654 31.868 116.22C29.1109 115.449 22.3974 114.166 20.5363 113.531C19.2532 113.094 17.8811 112.774 16.9251 111.545C15.7892 110.089 15.8346 108.517 16.3399 107.007C17.2401 104.352 17.5393 101.529 17.2159 98.7445C17.049 97.118 17.0393 95.4792 17.1868 93.8509C17.2849 92.577 18.7661 91.2358 20.2128 90.9064C21.7031 90.5643 23.1934 90.224 24.6819 89.8727C26.1703 89.5215 27.2917 88.6152 28.0823 87.2922C28.7766 86.0831 29.5596 84.9274 30.4249 83.8345C31.0956 83.6853 31.0065 83.1921 30.9374 82.708V81.0702C30.9374 80.8882 30.9374 80.7062 30.9374 80.5242C30.8738 76.5569 32.6004 73.1757 34.3342 69.7635C35.5937 67.2921 36.9895 64.9136 38.3707 62.5296C40.0627 59.6178 41.9783 56.8226 43.674 53.9017C45.2188 51.2393 46.7109 48.5477 47.9322 45.7124C48.7064 43.9162 49.4824 42.0727 49.6769 40.1473C49.8914 38.0454 50.064 35.9253 49.7351 33.7779C49.4588 31.9744 49.6715 30.0945 49.6696 28.2492C49.6696 25.4667 49.4752 22.6568 49.915 19.9143C50.4729 16.4384 52.1868 13.4866 54.8329 11.1336C60.3416 6.23272 67.664 5.82872 73.8214 9.18633C75.7261 10.2255 77.1927 11.887 78.365 13.7469C80.0406 16.402 80.7803 19.3374 81.1384 22.433C81.5018 25.6414 81.231 28.8461 81.2983 32.0508C81.3383 33.8962 81.3274 35.7451 81.6618 37.5631C81.9988 39.3856 82.6507 41.1352 83.5882 42.7333C86.7378 48.1273 90.5617 53.0755 93.9239 58.3294C96.0939 61.7179 98.244 65.1156 100.138 68.6679C102.002 72.1493 103.175 75.8144 102.748 79.8181C102.585 81.4918 102.177 83.1326 101.539 84.688C101.357 85.132 101.306 85.4159 101.902 85.6452C103.765 86.3732 104.49 87.9619 104.727 89.8145C105.023 92.1093 105.701 94.2203 107.533 95.7672C108.87 96.8955 110.244 97.9838 111.458 99.2449C111.993 99.8 112.516 100.391 112.749 101.176C113.33 103.147 112.147 104.339 110.877 105.496C110.59 105.758 110.281 105.998 109.983 106.25L109.381 106.686C107.769 107.76 104.027 110.231 103.769 110.393C101.748 111.631 96.75 115.487 94.2638 117.578C93.4805 118.204 92.7063 118.987 91.8357 119.496C90.126 120.52 88.1625 121.041 86.1708 120.998C83.0194 120.932 78.5176 119.265 77.5762 114.826C71.1898 111.882 63.2458 110.881 55.1365 112.819ZM52.8029 42.1291C52.7756 42.413 52.7629 42.5204 52.7556 42.6296C52.5474 46.6343 51.4734 50.5461 49.6078 54.0946C48.5483 56.1328 47.5214 58.1929 46.7454 60.364C46.6673 60.586 46.6291 60.8226 46.3928 60.9736C45.0643 61.8126 44.241 63.1047 43.5267 64.4313C41.7293 67.7689 40.1972 71.2284 39.403 74.9573C38.8578 77.5506 38.5452 80.173 39.5484 82.7408C40.5807 85.3814 42.4236 87.4141 44.5427 89.2249C46.6618 91.0356 48.9499 92.6371 50.98 94.5534C53.1791 96.6298 53.1609 98.0111 50.9582 100.104C50.871 100.188 50.7765 100.268 50.6892 100.348C49.6751 101.258 49.6751 101.258 50.7528 102.168C50.7983 102.206 50.8455 102.246 50.8928 102.282C55.1746 105.702 60.0453 106.856 65.4431 106.213C71.0535 105.545 75.4625 102.883 78.892 98.4569C79.1767 98.1069 79.3315 97.669 79.33 97.2176C79.3761 95.0957 79.4445 92.9725 79.5354 90.8482C79.5863 89.638 79.659 88.4278 80.0188 87.2594C80.6022 85.3668 81.6781 84.5861 83.6428 84.6516C84.188 84.6698 84.7332 84.6516 85.2621 84.8336C85.671 84.9719 85.9255 84.8973 86.0418 84.4005C86.6324 81.8763 86.9396 79.3413 86.627 76.7444C86.2108 73.2867 85.1585 70.011 83.9008 66.7989C83.0303 64.5642 82.1943 62.2366 80.475 60.5551C79.3282 59.434 78.8793 58.1474 78.4049 56.7661C78.1305 55.9672 77.8325 55.1738 77.4962 54.4003C76.5711 52.2657 75.7731 50.078 75.1063 47.8489C74.403 45.5668 73.8923 43.2374 73.3107 40.848C70.863 42.9096 68.1988 44.6987 65.3649 46.1837C64.4207 46.6965 63.3824 47.0123 62.3129 47.1121C61.2433 47.2118 60.1647 47.0935 59.1421 46.7643C56.525 45.989 54.4077 44.5477 52.8029 42.1291ZM45.9257 119.159C49.1971 119.323 51.7524 117.554 53.4044 114.246C54.793 111.462 54.1314 108.761 52.2449 106.353C51.1799 104.994 49.9314 103.789 48.9481 102.361C45.4417 97.2722 41.9341 92.1845 38.4252 87.0975C37.8282 86.1835 37.1008 85.3619 36.2661 84.6589C34.4814 83.223 32.0697 83.5015 30.6321 85.3013C30.1921 85.8809 29.8201 86.5092 29.5235 87.1739C28.4948 89.3213 26.8392 90.6316 24.4838 91.0575C23.2027 91.2804 21.9361 91.58 20.6908 91.9546C19.1623 92.4314 18.3281 93.4524 18.1101 95.0193C18.0122 95.9541 18.0153 96.8967 18.1191 97.8309C18.3845 101.083 18.3845 104.297 17.1995 107.425C16.4289 109.463 17.2286 111.134 19.2387 112.018C21.216 112.888 23.3243 113.321 25.4179 113.822C30.0851 114.939 34.8395 115.718 39.2831 117.685C41.3736 118.626 43.6342 119.127 45.9257 119.159ZM91.5049 92.3459C90.9597 92.3459 90.4145 92.3841 89.8693 92.3459C86.7324 92.0766 85.8346 90.8718 86.3307 87.8109C86.4271 87.2158 87.1504 86.5006 86.5325 86.042C86.0309 85.678 85.2039 85.7253 84.5169 85.6252C84.1852 85.5952 83.8517 85.5897 83.5192 85.6088C82.3306 85.6088 81.52 86.1857 81.0384 87.2631C80.783 87.813 80.6202 88.4015 80.5568 89.0047C80.3005 91.9346 80.2533 94.8773 80.2278 97.8127C80.2226 100.844 79.8379 103.862 79.0828 106.797C78.394 109.42 77.9633 112.075 78.5576 114.785C78.8102 115.942 79.2846 116.954 80.1642 117.769C83.3393 120.728 88.8879 120.903 92.2683 118.02C96.4883 114.412 100.874 111.041 105.577 108.084C107.28 107.037 108.918 105.89 110.484 104.648C112.189 103.267 112.302 101.975 110.9 100.291C110.537 99.8509 110.126 99.4378 109.721 99.0302C109.334 98.6038 108.912 98.2094 108.462 97.8509C105.666 95.8273 104.127 93.1193 103.842 89.6616C103.749 88.5406 103.296 87.5688 102.311 86.8918C101.177 86.1038 101.023 86.122 100.367 87.3341C99.9596 88.079 99.4851 88.7851 98.9491 89.4433C97.806 90.8591 96.4047 91.8582 94.5691 92.1293C93.555 92.2768 92.5391 92.4405 91.5049 92.3459ZM53.3536 41.5413C54.1431 43.1251 55.426 44.4084 57.0084 45.1974C59.5201 46.4913 62.0972 47.1246 64.8233 45.7306C67.5022 44.3584 70.0502 42.7843 72.3329 40.817C74.5738 38.888 74.134 36.2001 71.4242 35.1482C68.9416 34.1873 66.4317 33.2956 63.9292 32.3893C62.9568 32.0381 61.93 31.7506 60.9104 31.8434C56.9775 32.1837 54.0278 34.2947 51.6743 37.3029C50.9473 38.2383 51.2417 39.1865 52.2195 39.9126C53.021 40.5077 53.8316 41.0991 54.6821 41.6196C57.2628 43.1937 60.0362 43.6505 62.9677 42.8625C65.5812 42.1619 67.8293 40.7315 70.0175 39.1919C70.2738 39.0099 70.4864 38.6259 70.9935 38.8279C70.9258 38.9401 70.846 39.0445 70.7554 39.1391C68.9271 40.595 67.0315 41.9453 64.8779 42.8935C62.0881 44.1237 59.2747 44.2747 56.4141 43.1555C55.3309 42.7315 54.3877 42.0745 53.3536 41.5413ZM69.6649 33.787C70.2792 34.0272 70.8081 34.2274 71.3315 34.4421C71.6441 34.5713 71.8295 34.4421 72.0167 34.1983C73.4434 32.3074 74.4012 30.2947 74.025 27.8088C73.6996 25.6559 72.2221 23.7141 70.3792 23.2464C68.4164 22.7496 66.2609 23.6686 64.9542 25.5431C64.1109 26.7515 63.8147 28.1436 63.6711 29.5613C63.4621 31.6559 63.5202 31.6887 65.5339 32.2583C65.5576 32.2583 65.5867 32.2474 65.6194 32.2401C65.7302 31.9981 65.6103 31.776 65.5648 31.5431C65.4429 30.9626 65.448 30.3625 65.5798 29.7842C65.7115 29.2058 65.9669 28.6629 66.3282 28.1928C66.9824 27.3029 67.8621 26.8188 68.9943 26.9844C70.1266 27.15 70.7427 27.8779 71.1262 28.8679C71.7768 30.5458 71.277 32.2874 69.6649 33.787ZM57.1247 32.1018C57.699 31.8288 58.3697 31.8416 58.3733 30.9735C58.3824 29.0244 58.0098 27.1773 56.9194 25.5358C56.2578 24.5385 55.3273 23.9616 54.0769 24.1254C52.8265 24.2892 52.0486 25.0353 51.6761 26.1928C50.8201 28.8425 51.2944 31.3356 52.6866 33.6796C53.2772 34.6769 53.319 34.6514 54.2714 33.7688C54.1169 33.625 53.9588 33.4903 53.8134 33.3429C52.6284 32.1473 52.2831 30.0326 53.0246 28.5331C53.7243 27.1209 55.1401 26.9189 56.1906 28.0872C56.7289 28.6718 57.0537 29.4216 57.112 30.2146C57.1538 30.8133 57.1174 31.4103 57.1174 32.1018H57.1247Z" fill="#444342"/>
<path d="M52.804 42.1285C54.4088 44.547 56.5261 45.9884 59.1341 46.7654C60.1567 47.0947 61.2353 47.213 62.3049 47.1132C63.3744 47.0134 64.4127 46.6976 65.3569 46.1849C68.1908 44.6999 70.855 42.9108 73.3027 40.8491C73.8843 43.2386 74.3932 45.568 75.0983 47.8501C75.7651 50.0792 76.5631 52.2668 77.4882 54.4015C77.8317 55.1749 78.1298 55.9684 78.3969 56.7673C78.8713 58.1486 79.3202 59.4352 80.467 60.5562C82.1863 62.2377 83.0223 64.5599 83.8928 66.8001C85.1469 70.0194 86.1991 73.2915 86.619 76.7455C86.9316 79.3424 86.619 81.8775 86.0338 84.4016C85.9174 84.8984 85.6703 84.973 85.2541 84.8347C84.7252 84.6527 84.1764 84.6709 83.6348 84.6527C81.6701 84.5872 80.5942 85.3679 80.0108 87.2606C79.6473 88.4289 79.5783 89.6391 79.5274 90.8493C79.4377 92.9676 79.3693 95.0908 79.322 97.2188C79.3234 97.6701 79.1687 98.1081 78.884 98.4581C75.46 102.884 71.0509 105.555 65.4351 106.214C60.0373 106.857 55.1666 105.703 50.8848 102.283C50.8375 102.247 50.7903 102.207 50.7448 102.169C49.6671 101.248 49.6671 101.248 50.6812 100.349C50.7721 100.269 50.863 100.189 50.9502 100.105C53.1547 98.0067 53.1711 96.6309 50.972 94.5545C48.942 92.6382 46.652 91.0349 44.5347 89.226C42.4174 87.4171 40.5727 85.3825 39.5404 82.7419C38.5372 80.1741 38.8425 77.5517 39.395 74.9584C40.1892 71.2296 41.7213 67.7701 43.5188 64.4325C44.233 63.1058 45.0563 61.8137 46.3848 60.9748C46.6211 60.8237 46.6593 60.5871 46.7374 60.3651C47.5135 58.194 48.5403 56.134 49.5999 54.0958C51.4654 50.5472 52.5394 46.6355 52.7476 42.6307C52.764 42.5197 52.7767 42.4124 52.804 42.1285Z" fill="#F5F5F5"/>
<path d="M45.927 119.159C43.633 119.128 41.3698 118.626 39.277 117.685C34.8334 115.717 30.0791 114.94 25.4174 113.821C23.331 113.321 21.2227 112.888 19.2381 112.018C17.228 111.133 16.4284 109.47 17.199 107.424C18.3839 104.296 18.3839 101.082 18.1186 97.8302C18.0147 96.896 18.0116 95.9534 18.1095 95.0185C18.3203 93.4516 19.1618 92.4307 20.6902 91.9539C21.9355 91.5792 23.2021 91.2797 24.4832 91.0567C26.8459 90.6218 28.4943 89.3206 29.5229 87.1732C29.8195 86.5084 30.1915 85.8801 30.6316 85.3005C32.0691 83.5007 34.4809 83.2223 36.2656 84.6581C37.1008 85.3611 37.8289 86.1826 38.4265 87.0967C41.9341 92.1838 45.4417 97.2715 48.9494 102.36C49.9326 103.788 51.1812 104.993 52.2462 106.353C54.1327 108.76 54.7906 111.461 53.4057 114.245C51.7537 117.554 49.1965 119.323 45.927 119.159Z" fill="#FDB101"/>
<path d="M91.5047 92.3427C92.5388 92.4373 93.5547 92.2735 94.5743 92.1225C96.4172 91.8513 97.8111 90.8486 98.9543 89.4364C99.4902 88.7782 99.9647 88.0722 100.372 87.3272C101.028 86.1152 101.182 86.097 102.317 86.885C103.292 87.562 103.754 88.5338 103.847 89.6548C104.132 93.1125 105.664 95.8167 108.467 97.844C108.918 98.2025 109.339 98.5969 109.726 99.0233C110.131 99.4309 110.537 99.844 110.906 100.284C112.311 101.968 112.194 103.26 110.489 104.641C108.923 105.883 107.285 107.03 105.582 108.077C100.879 111.034 96.4953 114.405 92.2734 118.013C88.8985 120.896 83.3444 120.721 80.1694 117.762C79.2934 116.947 78.8154 115.942 78.5628 114.778C77.9685 112.061 78.3992 109.413 79.088 106.79C79.8431 103.855 80.2277 100.837 80.233 97.8058C80.2584 94.8704 80.3057 91.9278 80.5619 88.9978C80.6254 88.3946 80.7881 87.8062 81.0436 87.2562C81.5234 86.1789 82.3357 85.6075 83.5243 85.602C83.8569 85.5828 84.1904 85.5883 84.5221 85.6184C85.2091 85.7185 86.036 85.6639 86.5376 86.0351C87.1556 86.4937 86.4322 87.2089 86.3359 87.804C85.8397 90.865 86.7375 92.0697 89.8744 92.339C90.4106 92.3809 90.9594 92.3427 91.5047 92.3427Z" fill="#FDB101"/>
<path d="M53.3541 41.5386C54.3882 42.0718 55.3315 42.7287 56.4074 43.1491C59.268 44.2683 62.0814 44.1173 64.8711 42.8871C67.0248 41.9389 68.9204 40.5886 70.7487 39.1327C70.8393 39.0381 70.9191 38.9337 70.9868 38.8215C70.4797 38.6177 70.2598 39.0035 70.0108 39.1855C67.8299 40.7251 65.5745 42.1555 62.961 42.8561C60.0295 43.6441 57.2561 43.1873 54.6754 41.6132C53.8248 41.0927 53.0142 40.5012 52.2128 39.9062C51.2368 39.1782 50.9406 38.2319 51.6675 37.2965C54.0211 34.2937 56.9708 32.1827 60.9037 31.837C61.9324 31.7478 62.9501 32.0353 63.9224 32.3829C66.425 33.2928 68.9349 34.1809 71.4175 35.1418C74.1273 36.1937 74.5671 38.8816 72.3262 40.8106C70.0435 42.7742 67.4955 44.3484 64.8166 45.7242C62.0905 47.1182 59.5188 46.4849 57.0017 45.191C55.4225 44.4016 54.1424 43.1198 53.3541 41.5386ZM61.5834 33.1145C62.0118 33.4843 62.5047 33.7718 63.0373 33.9625C63.1809 34.0208 63.3445 34.0626 63.4372 33.9043C63.4712 33.8359 63.4829 33.7584 63.4705 33.6829C63.4581 33.6075 63.4223 33.5378 63.3681 33.4839C62.9247 32.9234 62.3485 32.9634 61.5834 33.1145ZM59.3134 33.1745C59.0774 33.0604 58.8125 33.0201 58.5532 33.0587C58.2939 33.0973 58.0522 33.2131 57.8595 33.3911C57.6887 33.5331 57.6032 33.7405 57.785 33.9371C57.9395 34.1099 58.1212 34.0317 58.2702 33.928C58.581 33.715 58.8882 33.4803 59.3062 33.1745H59.3134Z" fill="#FDB101"/>
<path d="M69.6662 33.7858C71.2782 32.2863 71.778 30.5447 71.1201 28.8723C70.7366 27.8823 70.0951 27.1489 68.9883 26.9887C67.8815 26.8286 66.9764 27.3072 66.3221 28.1971C65.9608 28.6672 65.7055 29.2101 65.5737 29.7885C65.4419 30.3669 65.4368 30.9669 65.5588 31.5474C65.6042 31.7804 65.7242 32.0024 65.6133 32.2444C65.5806 32.2444 65.5515 32.2681 65.5279 32.2626C63.5142 31.693 63.456 31.6603 63.665 29.5656C63.8086 28.148 64.1048 26.7558 64.9481 25.5474C66.2549 23.673 68.4103 22.754 70.3731 23.2508C72.216 23.7185 73.6936 25.6602 74.0189 27.8131C74.3951 30.299 73.4373 32.3118 72.0106 34.2026C71.8289 34.4519 71.6472 34.5757 71.3255 34.4464C70.8093 34.2262 70.2805 34.0261 69.6662 33.7858Z" fill="#F5F5F5"/>
<path d="M57.1188 32.1009C57.1188 31.4166 57.1551 30.8125 57.1188 30.2137C57.0604 29.4207 56.7357 28.6709 56.1973 28.0863C55.1469 26.918 53.7311 27.12 53.0314 28.5322C52.2899 30.0317 52.6352 32.1464 53.8202 33.342C53.9655 33.4894 54.1237 33.6241 54.2781 33.7679C53.3258 34.6505 53.284 34.6778 52.6933 33.6787C51.3012 31.3348 50.8269 28.8416 51.6829 26.1919C52.0463 25.0345 52.8442 24.2883 54.0837 24.1245C55.3232 23.9608 56.2646 24.5376 56.9261 25.5349C58.0166 27.1728 58.3801 29.0236 58.3801 30.9726C58.3637 31.8407 57.6931 31.8279 57.1188 32.1009Z" fill="#EAEAEA"/>
</svg>
