<svg width="128" height="128" viewBox="0 0 128 128" fill="none" xmlns="http://www.w3.org/2000/svg">
<path d="M77.7947 98.9972C79.0484 98.8145 80.0842 98.8497 80.6625 99.071C81.1721 98.3592 81.6956 97.6066 82.233 96.8132C81.8309 96.4418 81.3942 96.1095 80.929 95.821C80.1329 95.3181 79.4674 95.1622 81.2257 94.7063C82.2766 94.4348 83.1834 94.3409 83.7985 94.418C84.3014 93.6202 84.8042 92.7922 85.3071 91.934C84.9771 91.6509 84.6257 91.3937 84.2561 91.1647C83.46 90.6618 82.7929 90.506 84.5528 90.05C85.202 89.8733 85.8686 89.7682 86.5407 89.7366C86.9949 88.8986 87.4424 88.0236 87.8816 87.1302C87.714 87.0029 87.5128 86.8671 87.2933 86.7313C86.4971 86.2285 85.83 86.0709 87.5899 85.6167C87.9551 85.521 88.3249 85.4438 88.6979 85.3854C89.1214 84.4434 89.5253 83.4785 89.9097 82.4907C89.7287 82.3902 89.5275 82.2846 89.3013 82.1823C88.4498 81.7901 87.7676 81.7113 89.4555 81.0392C89.8259 80.8906 90.2041 80.7625 90.5885 80.6554C90.888 79.7938 91.1674 78.9167 91.4266 78.0238C90.5383 77.7808 89.8829 77.7992 91.4266 76.8791C91.554 76.8019 91.6797 76.7315 91.8037 76.6628C92.0943 75.5599 92.3462 74.4358 92.5596 73.2905C91.9093 73.272 91.6478 73.2117 92.7424 72.1859V72.1775C92.8262 71.6613 92.91 71.14 92.9686 70.6153C95.6186 49.409 86.4636 27.3042 65.621 26.2214C51.6622 25.494 46.1058 33.3299 46.8634 42.0089C51.2315 44.1751 55.1411 47.1628 58.3784 50.8086C67.691 61.3028 63.9951 64.5528 63.9951 64.5528C63.9951 64.5528 63.9951 67.5095 65.7685 69.727C67.5418 71.9445 70.2035 73.2754 70.2035 74.162C70.2035 75.0487 65.0293 79.7787 63.1084 79.6312C62.7462 79.5936 62.3918 79.5009 62.0575 79.3564C61.6151 79.5011 61.1571 79.5934 60.6931 79.6312C60.9244 79.4184 61.134 79.2089 61.3284 79.0027C61.0249 78.832 60.7311 78.6445 60.4484 78.4412C59.6456 78.8937 58.1387 79.5994 56.6537 79.5323C57.9828 78.6943 58.7321 77.9501 59.1561 77.3802C57.8052 76.1432 56.3553 74.4218 54.9775 72.2395C53.2042 69.432 52.0225 69.1353 52.0225 69.1353C52.0225 69.1353 49.3608 69.5795 50.395 75.0487C51.4292 80.5179 53.9434 83.1796 53.3517 84.3613C52.76 85.5429 49.805 86.2838 47.5875 85.8396C45.37 85.3954 42.71 84.8055 44.0391 81.8488C45.3683 78.8921 45.075 72.5362 42.5608 71.2054C41.4763 70.6304 36.1496 67.5296 35.2194 66.2289C34.0679 64.6148 34.1651 57.6572 35.3535 56.0398C34.45 53.0227 33.8801 49.176 33.8449 44.3069C33.7796 36.1525 36.8368 29.515 41.8686 24.7263C42.0429 23.366 42.3351 22.0234 42.7418 20.7137C43.8447 17.3531 43.5531 19.2638 43.5799 21.0238C43.5916 21.8065 43.6285 22.5122 43.6821 23.1441C44.1056 22.8089 44.542 22.482 44.9912 22.1635C45.4035 20.3198 46.0958 18.3872 46.8081 17.1117C48.149 14.6997 47.5892 16.1563 47.6462 17.9498C47.683 19.0644 48.0149 19.703 48.3485 20.1086C48.729 19.9075 49.1128 19.7147 49.5033 19.5287C49.8071 18.0002 50.3597 16.5319 51.1392 15.1825C51.9773 13.7527 51.9639 14.445 52.1248 15.8228C52.2019 16.6681 52.5852 17.4561 53.2025 18.0386C53.5959 17.9056 53.9937 17.7788 54.3959 17.6581C54.6239 16.753 55.9195 15.0668 57.1347 13.9405C58.1404 13.0136 57.7214 13.27 57.594 14.7383C57.5353 15.4305 58.003 16.2217 58.1974 16.7396C58.5226 16.6793 58.8494 16.6234 59.1779 16.572C59.4042 15.9937 60.0512 15.2043 60.9948 14.393C62.3743 13.2113 62.1279 13.8516 62.0793 14.7869C62.053 15.2599 62.0665 15.7342 62.1195 16.2049C62.7028 16.1546 63.2928 16.1144 63.8828 16.0893C64.1074 15.8563 64.3605 15.6183 64.6404 15.3786C66.0199 14.1969 65.9813 14.5556 65.7249 15.7725C65.7074 15.863 65.6995 15.9552 65.7014 16.0474C66.2165 16.0474 66.7333 16.0546 67.2518 16.0691C79.3652 16.4647 93.5972 24.2336 101.168 39.4863V5H26.2219V86.5369L43.2178 99.3911H76.6348C76.6381 99.2386 76.9398 99.1213 77.7947 98.9972Z" fill="#98012E"/>
<path d="M41.8528 116.873L41.4354 122.739H26.0067V121.75C26.2302 121.731 26.5526 121.699 26.9738 121.653C27.2751 121.633 27.5723 121.572 27.8571 121.472C28.1133 121.371 28.3269 121.184 28.4622 120.944C28.5973 120.667 28.6618 120.362 28.65 120.054V105.923C28.6539 105.635 28.5968 105.349 28.4823 105.085C28.3506 104.819 28.1257 104.611 27.8504 104.5C27.5624 104.362 27.2615 104.252 26.952 104.173C26.6412 104.081 26.3225 104.018 26 103.985V102.998H34.3337V103.985C33.9954 104.005 33.6591 104.052 33.328 104.124C33.0248 104.18 32.7253 104.254 32.4313 104.347C32.2889 104.39 32.1573 104.463 32.0457 104.562C31.934 104.66 31.8449 104.781 31.7843 104.917C31.6699 105.19 31.6129 105.484 31.6167 105.78V119.04C31.6073 119.517 31.6376 119.993 31.7072 120.465C31.7485 120.77 31.8992 121.049 32.1313 121.251C32.414 121.444 32.7435 121.557 33.085 121.578C33.6741 121.637 34.2662 121.663 34.8583 121.655C35.1935 121.655 35.5589 121.655 35.9294 121.626C36.2837 121.61 36.6369 121.573 36.987 121.516C37.2925 121.465 37.5931 121.388 37.8854 121.286C38.115 121.216 38.3232 121.089 38.4905 120.917C38.9935 120.314 39.4379 119.664 39.818 118.976C40.228 118.305 40.5796 117.601 40.8689 116.869L41.8528 116.873Z" fill="#262D3A"/>
<path d="M58.622 116.873L58.2046 122.739H42.7759V121.751C42.9971 121.732 43.3206 121.7 43.743 121.653C44.0443 121.633 44.3415 121.573 44.6263 121.472C44.8825 121.371 45.0961 121.184 45.2314 120.944C45.3657 120.667 45.4302 120.362 45.4191 120.054V105.923C45.4231 105.635 45.366 105.349 45.2515 105.085C45.1224 104.823 44.9027 104.616 44.633 104.503C44.3425 104.368 44.0393 104.261 43.7279 104.185C43.4171 104.093 43.0984 104.03 42.7759 103.997V103.01H51.1096V103.997C50.7713 104.017 50.435 104.064 50.1039 104.136C49.8007 104.192 49.5012 104.266 49.2072 104.359C49.0646 104.402 48.933 104.475 48.8213 104.573C48.7097 104.672 48.6206 104.793 48.5602 104.929C48.4451 105.202 48.388 105.496 48.3926 105.792V119.052C48.3832 119.529 48.4135 120.005 48.4831 120.477C48.5243 120.782 48.6751 121.061 48.9071 121.263C49.1894 121.455 49.5182 121.568 49.8592 121.59C50.4489 121.649 51.0415 121.675 51.6342 121.667C51.9778 121.667 52.3348 121.667 52.7052 121.638C53.0596 121.622 53.4127 121.585 53.7629 121.528C54.0679 121.477 54.3679 121.4 54.6596 121.298C54.8894 121.229 55.0977 121.102 55.2647 120.929C55.7683 120.326 56.2133 119.676 56.5939 118.988C57.0039 118.317 57.3555 117.613 57.6448 116.881L58.622 116.873Z" fill="#262D3A"/>
<path d="M77.7569 103.988C77.4592 104.009 77.165 104.065 76.8803 104.155C76.5825 104.233 76.297 104.352 76.0322 104.509C75.7242 104.697 75.4643 104.954 75.2729 105.26C75.0614 105.609 74.8732 105.972 74.7097 106.346C74.0873 107.821 73.1554 110.119 71.914 113.24C70.6725 116.361 69.3925 119.614 68.0739 123H66.9258C65.5849 119.41 64.2954 115.95 63.0573 112.621C61.8192 109.293 60.9728 107.039 60.518 105.86C60.4138 105.583 60.2636 105.327 60.0738 105.101C59.8598 104.859 59.6112 104.651 59.3363 104.482C59.077 104.321 58.7943 104.201 58.4982 104.127C58.2199 104.053 57.9355 104.004 57.6484 103.981V102.994H65.8196V103.981C65.2278 104.005 64.6389 104.075 64.0579 104.19C63.5803 104.293 63.3422 104.472 63.3422 104.732C63.3452 104.854 63.3638 104.976 63.3976 105.094C63.4344 105.233 63.4679 105.345 63.4948 105.429C63.8378 106.339 64.3965 107.821 65.1709 109.878C65.9453 111.934 67.0398 114.86 68.4544 118.657C69.1595 116.94 69.9713 114.911 70.8898 112.573C71.8084 110.234 72.4229 108.628 72.7336 107.754C72.9582 107.184 73.1375 106.598 73.2699 106.001C73.3145 105.739 73.3397 105.474 73.3454 105.208C73.3451 105.102 73.319 104.998 73.2693 104.904C73.2197 104.811 73.148 104.731 73.0604 104.671C72.83 104.507 72.574 104.383 72.3028 104.303C71.9978 104.21 71.6863 104.141 71.3709 104.095C71.0541 104.048 70.7356 104.011 70.4105 103.983V102.995H77.7536L77.7569 103.988Z" fill="#262D3A"/>
<path d="M101.873 122.743H93.1572V121.755C93.4723 121.746 93.8779 121.713 94.374 121.657C94.7259 121.638 95.0719 121.558 95.3965 121.421C95.6544 121.275 95.8721 121.067 96.0301 120.816C96.1726 120.554 96.2421 120.258 96.2312 119.959V105.602H96.0233L89.2803 122.423H88.5847L82.1786 105.253H81.9975V117.038C81.9975 118.179 82.069 119.046 82.2121 119.639C82.3562 120.234 82.5775 120.66 82.8825 120.92C83.0859 121.114 83.5077 121.3 84.148 121.476C84.5568 121.604 84.9756 121.697 85.4001 121.755V122.743H77.4133V121.755C77.8554 121.714 78.2944 121.645 78.7274 121.547C79.1128 121.478 79.4771 121.32 79.7918 121.087C80.1466 120.778 80.3834 120.355 80.4622 119.891C80.5829 119.352 80.6432 118.453 80.6432 117.192V107.09C80.6579 106.604 80.587 106.119 80.4337 105.657C80.3104 105.311 80.1037 105.001 79.832 104.754C79.5249 104.492 79.1637 104.302 78.7743 104.197C78.3717 104.079 77.9565 104.008 77.5374 103.988V103H84.2687L89.9239 117.819L94.7512 105.416C94.9308 104.95 95.0819 104.473 95.2037 103.989C95.2948 103.663 95.362 103.33 95.4049 102.994H101.843V103.981C101.509 104 101.176 104.042 100.847 104.107C100.548 104.156 100.253 104.225 99.9639 104.314C99.8237 104.356 99.6942 104.427 99.584 104.523C99.4738 104.619 99.3855 104.738 99.3253 104.871C99.2115 105.14 99.1545 105.429 99.1577 105.721V119.953C99.1485 120.236 99.206 120.517 99.3253 120.774C99.472 121.031 99.6953 121.235 99.9639 121.359C100.247 121.486 100.548 121.573 100.856 121.615C101.191 121.683 101.53 121.728 101.871 121.748L101.873 122.743Z" fill="#262D3A"/>
</svg>
