<svg width="128" height="128" viewBox="0 0 128 128" fill="none" xmlns="http://www.w3.org/2000/svg">
<path d="M62.3203 90.4121V89.2695H69.1816V90.4121H66.4102V98H65.1035V90.4121H62.3203Z" fill="white"/>
<path d="M54.2578 98V89.2695H55.6992L59.0332 94.5488C59.1348 94.7129 59.2734 94.9453 59.4492 95.2461C59.625 95.5469 59.8008 95.8516 59.9766 96.1602C59.9648 95.8438 59.9551 95.5234 59.9473 95.1992C59.9434 94.8711 59.9414 94.627 59.9414 94.4668V89.2695H61.248V98H59.7949L56.8125 93.2832C56.6914 93.0918 56.5156 92.8066 56.2852 92.4277C56.0586 92.0449 55.8008 91.6055 55.5117 91.1094C55.5312 91.6211 55.543 92.0625 55.5469 92.4336C55.5547 92.8008 55.5586 93.082 55.5586 93.2773V98H54.2578Z" fill="white"/>
<path d="M47.1914 98V89.2695H53.0625V90.4121H48.4922V92.9844H52.7227V94.1152H48.4922V96.8574H53.0625V98H47.1914Z" fill="white"/>
<path d="M40.6758 98V89.2695H41.9766V96.8574H46.1074V98H40.6758Z" fill="white"/>
<path d="M31.8867 98L35.0566 89.2695H36.627L39.7734 98H38.3613L37.5879 95.7324H34.0664L33.2695 98H31.8867ZM34.459 94.625H37.207L36.6797 93.0781C36.5625 92.7188 36.4375 92.334 36.3047 91.9238C36.1719 91.5137 36.0195 91.0254 35.8477 90.459C35.6719 91.0254 35.5176 91.5137 35.3848 91.9238C35.252 92.334 35.125 92.7188 35.0039 93.0781L34.459 94.625Z" fill="white"/>
<path d="M28.2246 98L25.0547 89.2695H26.4551L28.1836 94.1914C28.2891 94.5078 28.4102 94.8809 28.5469 95.3105C28.6836 95.7402 28.8438 96.2422 29.0273 96.8164C29.2031 96.2422 29.3574 95.7402 29.4902 95.3105C29.627 94.8809 29.748 94.5078 29.8535 94.1914L31.5352 89.2695H32.9121L29.7891 98H28.2246Z" fill="white"/>
<path d="M20.9062 98.1406C20.1328 98.1406 19.4434 97.9512 18.8379 97.5723C18.2324 97.1934 17.7559 96.666 17.4082 95.9902C17.0645 95.3145 16.8926 94.5312 16.8926 93.6406C16.8926 92.7461 17.0645 91.9609 17.4082 91.2852C17.7559 90.6055 18.2324 90.0762 18.8379 89.6973C19.4434 89.3184 20.1328 89.1289 20.9062 89.1289C21.6836 89.1289 22.375 89.3184 22.9805 89.6973C23.5859 90.0762 24.0605 90.6055 24.4043 91.2852C24.752 91.9609 24.9258 92.7461 24.9258 93.6406C24.9258 94.5312 24.752 95.3145 24.4043 95.9902C24.0605 96.666 23.5859 97.1934 22.9805 97.5723C22.375 97.9512 21.6836 98.1406 20.9062 98.1406ZM20.9062 96.9512C21.4102 96.9512 21.8672 96.8242 22.2773 96.5703C22.6875 96.3125 23.0137 95.9375 23.2559 95.4453C23.498 94.9492 23.6191 94.3477 23.6191 93.6406C23.6191 92.9297 23.498 92.3262 23.2559 91.8301C23.0137 91.334 22.6875 90.959 22.2773 90.7051C21.8672 90.4473 21.4102 90.3184 20.9062 90.3184C20.4062 90.3184 19.9512 90.4473 19.541 90.7051C19.1309 90.959 18.8047 91.334 18.5625 91.8301C18.3203 92.3262 18.1992 92.9297 18.1992 93.6406C18.1992 94.3477 18.3203 94.9492 18.5625 95.4453C18.8047 95.9375 19.1309 96.3125 19.541 96.5703C19.9512 96.8242 20.4062 96.9512 20.9062 96.9512Z" fill="white"/>
<path d="M12.7148 98.1406C11.668 98.1406 10.8418 97.877 10.2363 97.3496C9.63477 96.8184 9.33398 96.0918 9.33398 95.1699H10.6348C10.6387 95.7441 10.8223 96.1934 11.1855 96.5176C11.5527 96.8418 12.0625 97.0039 12.7148 97.0039C13.3086 97.0039 13.7832 96.8789 14.1387 96.6289C14.498 96.375 14.6777 96.0352 14.6777 95.6094C14.6777 95.2734 14.5488 95.002 14.291 94.7949C14.0371 94.584 13.6074 94.4062 13.002 94.2617L12.0469 94.0332C11.1641 93.8223 10.5195 93.5293 10.1133 93.1543C9.71094 92.7754 9.50977 92.2832 9.50977 91.6777C9.50977 91.166 9.63867 90.7188 9.89648 90.3359C10.1543 89.9531 10.5156 89.6562 10.9805 89.4453C11.4492 89.2344 11.9961 89.1289 12.6211 89.1289C13.5625 89.1289 14.3105 89.375 14.8652 89.8672C15.4238 90.3594 15.7168 91.0312 15.7441 91.8828H14.4844C14.4531 91.3789 14.2695 90.9844 13.9336 90.6992C13.5977 90.4102 13.1543 90.2656 12.6035 90.2656C12.0762 90.2656 11.6445 90.3926 11.3086 90.6465C10.9727 90.8965 10.8047 91.2188 10.8047 91.6133C10.8047 91.9297 10.9336 92.1875 11.1914 92.3867C11.4492 92.582 11.877 92.752 12.4746 92.8965L13.418 93.1191C14.293 93.3262 14.9375 93.625 15.3516 94.0156C15.7695 94.4062 15.9785 94.9141 15.9785 95.5391C15.9785 96.0625 15.8438 96.5195 15.5742 96.9102C15.3047 97.3008 14.9258 97.6035 14.4375 97.8184C13.9492 98.0332 13.375 98.1406 12.7148 98.1406Z" fill="white"/>
<path d="M8.09766 89.2695V98H6.79688V89.2695H8.09766Z" fill="white"/>
<path d="M95.3184 115V107.781H97.5947V109.053H97.6152C97.7474 108.592 97.9525 108.262 98.2305 108.062C98.513 107.856 98.8958 107.754 99.3789 107.754C99.5065 107.754 99.6204 107.756 99.7207 107.761C99.8255 107.761 99.9258 107.763 100.021 107.768V109.709C99.9349 109.704 99.8005 109.7 99.6182 109.695C99.4359 109.691 99.2604 109.688 99.0918 109.688C98.668 109.688 98.3239 109.83 98.0596 110.112C97.7998 110.395 97.6699 110.791 97.6699 111.302V115H95.3184Z" fill="white"/>
<path d="M90.7246 115.164C89.9863 115.164 89.3369 115.002 88.7764 114.679C88.2204 114.355 87.7852 113.911 87.4707 113.346C87.1608 112.776 87.0059 112.124 87.0059 111.391C87.0059 110.657 87.1608 110.007 87.4707 109.442C87.7852 108.873 88.2181 108.426 88.7695 108.103C89.321 107.779 89.9521 107.617 90.6631 107.617C91.3877 107.617 92.0234 107.777 92.5703 108.096C93.1217 108.41 93.5524 108.848 93.8623 109.408C94.1722 109.964 94.3271 110.607 94.3271 111.336V111.972H89.3027C89.3164 112.432 89.4531 112.797 89.7129 113.065C89.9772 113.334 90.3418 113.469 90.8066 113.469C91.153 113.469 91.4424 113.398 91.6748 113.257C91.9118 113.116 92.0736 112.926 92.1602 112.689H94.2725C94.1859 113.173 93.9762 113.601 93.6436 113.975C93.3109 114.348 92.8916 114.64 92.3857 114.85C91.8844 115.059 91.3307 115.164 90.7246 115.164ZM89.3164 110.563H92.1328C92.0781 110.185 91.9277 109.889 91.6816 109.675C91.4355 109.461 91.1165 109.354 90.7246 109.354C90.3281 109.354 90.0068 109.461 89.7607 109.675C89.5146 109.889 89.3665 110.185 89.3164 110.563Z" fill="white"/>
<path d="M82.7812 115.164C82.0339 115.164 81.3799 115.007 80.8193 114.692C80.2633 114.373 79.8281 113.931 79.5137 113.366C79.2038 112.801 79.0488 112.143 79.0488 111.391C79.0488 110.643 79.2038 109.987 79.5137 109.422C79.8281 108.852 80.2656 108.41 80.8262 108.096C81.3867 107.777 82.0384 107.617 82.7812 107.617C83.4512 107.617 84.0459 107.745 84.5654 108C85.085 108.255 85.4974 108.608 85.8027 109.06C86.1126 109.511 86.2858 110.03 86.3223 110.618H84.0527C84.0163 110.276 83.8887 110.003 83.6699 109.798C83.4557 109.588 83.1755 109.483 82.8291 109.483C82.387 109.483 82.043 109.654 81.7969 109.996C81.5553 110.333 81.4346 110.798 81.4346 111.391C81.4346 111.983 81.5576 112.45 81.8037 112.792C82.0498 113.129 82.3916 113.298 82.8291 113.298C83.1755 113.298 83.4535 113.193 83.6631 112.983C83.8727 112.774 84.0003 112.493 84.0459 112.143H86.3223C86.304 112.73 86.1423 113.252 85.8369 113.708C85.5361 114.159 85.1214 114.515 84.5928 114.774C84.0687 115.034 83.4648 115.164 82.7812 115.164Z" fill="white"/>
<path d="M73.2793 111.076V115H70.9277V107.781H73.252V108.95C73.4935 108.54 73.8011 108.216 74.1748 107.979C74.5485 107.743 75.0065 107.624 75.5488 107.624C76.3327 107.624 76.9411 107.875 77.374 108.376C77.8115 108.877 78.0303 109.572 78.0303 110.461V115H75.6787V110.953C75.6787 110.525 75.5762 110.199 75.3711 109.976C75.166 109.748 74.8766 109.634 74.5029 109.634C74.1338 109.634 73.8376 109.752 73.6143 109.989C73.391 110.222 73.2793 110.584 73.2793 111.076Z" fill="white"/>
<path d="M65.1924 115.123C64.4678 115.123 63.873 114.948 63.4082 114.597C62.9479 114.241 62.7178 113.703 62.7178 112.983C62.7178 112.441 62.8431 112.013 63.0938 111.698C63.349 111.384 63.6885 111.151 64.1123 111.001C64.5361 110.851 65.0055 110.755 65.5205 110.714C66.1676 110.659 66.6234 110.593 66.8877 110.516C67.152 110.438 67.2842 110.29 67.2842 110.071V110.037C67.2842 109.823 67.193 109.65 67.0107 109.518C66.833 109.381 66.5892 109.312 66.2793 109.312C65.9512 109.312 65.6891 109.385 65.4932 109.531C65.3018 109.677 65.1947 109.873 65.1719 110.119H62.9844C63.0345 109.335 63.3467 108.725 63.9209 108.287C64.4997 107.845 65.3132 107.624 66.3613 107.624C67.4095 107.624 68.2139 107.845 68.7744 108.287C69.335 108.725 69.6152 109.342 69.6152 110.14V115H67.3184V113.988H67.291C67.0768 114.376 66.8011 114.663 66.4639 114.85C66.1266 115.032 65.7028 115.123 65.1924 115.123ZM65.9102 113.585C66.3021 113.585 66.6325 113.478 66.9014 113.264C67.1702 113.045 67.3047 112.758 67.3047 112.402V111.746C67.1816 111.805 67.0107 111.858 66.792 111.903C66.5732 111.949 66.318 111.997 66.0264 112.047C65.7119 112.097 65.4521 112.188 65.2471 112.32C65.0465 112.452 64.9463 112.637 64.9463 112.874C64.9463 113.097 65.0352 113.273 65.2129 113.4C65.3906 113.523 65.623 113.585 65.9102 113.585Z" fill="white"/>
<path d="M61.6719 104.814V115H59.3203V104.814H61.6719Z" fill="white"/>
<path d="M53.585 115.123C52.8604 115.123 52.2656 114.948 51.8008 114.597C51.3405 114.241 51.1104 113.703 51.1104 112.983C51.1104 112.441 51.2357 112.013 51.4863 111.698C51.7415 111.384 52.0811 111.151 52.5049 111.001C52.9287 110.851 53.3981 110.755 53.9131 110.714C54.5602 110.659 55.016 110.593 55.2803 110.516C55.5446 110.438 55.6768 110.29 55.6768 110.071V110.037C55.6768 109.823 55.5856 109.65 55.4033 109.518C55.2256 109.381 54.9818 109.312 54.6719 109.312C54.3438 109.312 54.0817 109.385 53.8857 109.531C53.6943 109.677 53.5872 109.873 53.5645 110.119H51.377C51.4271 109.335 51.7393 108.725 52.3135 108.287C52.8923 107.845 53.7057 107.624 54.7539 107.624C55.8021 107.624 56.6064 107.845 57.167 108.287C57.7275 108.725 58.0078 109.342 58.0078 110.14V115H55.7109V113.988H55.6836C55.4694 114.376 55.1937 114.663 54.8564 114.85C54.5192 115.032 54.0954 115.123 53.585 115.123ZM54.3027 113.585C54.6947 113.585 55.0251 113.478 55.2939 113.264C55.5628 113.045 55.6973 112.758 55.6973 112.402V111.746C55.5742 111.805 55.4033 111.858 55.1846 111.903C54.9658 111.949 54.7106 111.997 54.4189 112.047C54.1045 112.097 53.8447 112.188 53.6396 112.32C53.4391 112.452 53.3389 112.637 53.3389 112.874C53.3389 113.097 53.4277 113.273 53.6055 113.4C53.7832 113.523 54.0156 113.585 54.3027 113.585Z" fill="white"/>
<path d="M42.3125 115V104.814H46.5508C47.681 104.814 48.5446 105.054 49.1416 105.532C49.7432 106.011 50.0439 106.633 50.0439 107.398C50.0439 107.986 49.8708 108.479 49.5244 108.875C49.1826 109.267 48.7246 109.527 48.1504 109.654V109.668C48.5742 109.695 48.9548 109.814 49.292 110.023C49.6338 110.229 49.9027 110.511 50.0986 110.871C50.2992 111.227 50.3994 111.644 50.3994 112.122C50.3994 112.683 50.2604 113.179 49.9824 113.612C49.709 114.045 49.3079 114.385 48.7793 114.631C48.2552 114.877 47.6149 115 46.8584 115H42.3125ZM44.7119 113.113H46.4551C46.9017 113.113 47.2526 113.011 47.5078 112.806C47.763 112.596 47.8906 112.309 47.8906 111.944C47.8906 111.575 47.763 111.284 47.5078 111.069C47.2572 110.851 46.9108 110.741 46.4688 110.741H44.7119V113.113ZM44.7119 108.95H46.3184C46.7103 108.95 47.0202 108.85 47.248 108.649C47.4759 108.444 47.5898 108.169 47.5898 107.822C47.5898 107.48 47.4759 107.209 47.248 107.009C47.0202 106.804 46.7103 106.701 46.3184 106.701H44.7119V108.95Z" fill="white"/>
<path d="M33.7744 115.157C33.141 115.157 32.5895 115.002 32.1201 114.692C31.6553 114.378 31.293 113.938 31.0332 113.373C30.778 112.803 30.6504 112.138 30.6504 111.377C30.6504 110.643 30.7826 109.994 31.0469 109.429C31.3112 108.864 31.6758 108.422 32.1406 108.103C32.6055 107.784 33.1432 107.624 33.7539 107.624C34.6836 107.624 35.374 108 35.8252 108.752H35.832V104.814H38.1904V115H35.8594V113.886H35.8525C35.6657 114.31 35.39 114.629 35.0254 114.843C34.6654 115.052 34.2484 115.157 33.7744 115.157ZM34.4307 113.277C34.8773 113.277 35.2373 113.106 35.5107 112.765C35.7887 112.418 35.9277 111.956 35.9277 111.377C35.9277 110.807 35.7887 110.352 35.5107 110.01C35.2373 109.668 34.8773 109.497 34.4307 109.497C33.9977 109.497 33.6559 109.663 33.4053 109.996C33.1592 110.329 33.0361 110.789 33.0361 111.377C33.0361 111.969 33.1592 112.434 33.4053 112.771C33.6559 113.109 33.9977 113.277 34.4307 113.277Z" fill="white"/>
<path d="M25.2158 115.123C24.4912 115.123 23.8965 114.948 23.4316 114.597C22.9714 114.241 22.7412 113.703 22.7412 112.983C22.7412 112.441 22.8665 112.013 23.1172 111.698C23.3724 111.384 23.7119 111.151 24.1357 111.001C24.5596 110.851 25.029 110.755 25.5439 110.714C26.1911 110.659 26.6468 110.593 26.9111 110.516C27.1755 110.438 27.3076 110.29 27.3076 110.071V110.037C27.3076 109.823 27.2165 109.65 27.0342 109.518C26.8564 109.381 26.6126 109.312 26.3027 109.312C25.9746 109.312 25.7126 109.385 25.5166 109.531C25.3252 109.677 25.2181 109.873 25.1953 110.119H23.0078C23.0579 109.335 23.3701 108.725 23.9443 108.287C24.5231 107.845 25.3366 107.624 26.3848 107.624C27.4329 107.624 28.2373 107.845 28.7979 108.287C29.3584 108.725 29.6387 109.342 29.6387 110.14V115H27.3418V113.988H27.3145C27.1003 114.376 26.8245 114.663 26.4873 114.85C26.1501 115.032 25.7262 115.123 25.2158 115.123ZM25.9336 113.585C26.3255 113.585 26.6559 113.478 26.9248 113.264C27.1937 113.045 27.3281 112.758 27.3281 112.402V111.746C27.2051 111.805 27.0342 111.858 26.8154 111.903C26.5967 111.949 26.3415 111.997 26.0498 112.047C25.7354 112.097 25.4756 112.188 25.2705 112.32C25.07 112.452 24.9697 112.637 24.9697 112.874C24.9697 113.097 25.0586 113.273 25.2363 113.4C25.4141 113.523 25.6465 113.585 25.9336 113.585Z" fill="white"/>
<path d="M18.0723 115.164C17.3158 115.164 16.6527 115.009 16.083 114.699C15.5133 114.389 15.069 113.952 14.75 113.387C14.431 112.822 14.2715 112.156 14.2715 111.391C14.2715 110.634 14.431 109.973 14.75 109.408C15.069 108.839 15.5133 108.399 16.083 108.089C16.6527 107.774 17.3158 107.617 18.0723 107.617C18.8242 107.617 19.485 107.774 20.0547 108.089C20.6289 108.399 21.0732 108.839 21.3877 109.408C21.7067 109.973 21.8662 110.634 21.8662 111.391C21.8662 112.156 21.7067 112.822 21.3877 113.387C21.0732 113.947 20.6289 114.385 20.0547 114.699C19.485 115.009 18.8242 115.164 18.0723 115.164ZM18.0723 113.291C18.4824 113.291 18.8197 113.127 19.084 112.799C19.3529 112.471 19.4873 112.001 19.4873 111.391C19.4873 110.78 19.3529 110.311 19.084 109.982C18.8197 109.654 18.4824 109.49 18.0723 109.49C17.6621 109.49 17.3226 109.654 17.0537 109.982C16.7894 110.311 16.6572 110.78 16.6572 111.391C16.6572 112.001 16.7894 112.471 17.0537 112.799C17.318 113.127 17.6576 113.291 18.0723 113.291Z" fill="white"/>
<path d="M6.65625 115V104.814H9.11719V112.908H13.6289V115H6.65625Z" fill="white"/>
<path d="M24.3305 60.9044H68.5393V76H6V28.5566H24.3305V60.9044Z" fill="url(#paint0_linear_13_929)"/>
<path d="M46.4347 57.1302H28.1042V28.5569H46.4347V57.1302Z" fill="#006BFF"/>
<path d="M68.5391 57.1302H50.2086V28.5569H68.5391V57.1302Z" fill="#006BFF"/>
<path d="M39.426 17.2348H61.5304V25.8608H57.2173V21.5478H39.426V25.8608H35.1129V21.5478H17.3216V25.8608H13.0085V17.2348H35.1129V14H39.426V17.2348Z" fill="#1F4DBE"/>
<defs>
<linearGradient id="paint0_linear_13_929" x1="6" y1="58.518" x2="71.6241" y2="57.3078" gradientUnits="userSpaceOnUse">
<stop stop-color="#049FFC"/>
<stop offset="1" stop-color="#19C9FF"/>
</linearGradient>
</defs>
</svg>
