<svg width="128" height="128" viewBox="0 0 128 128" fill="none" xmlns="http://www.w3.org/2000/svg">
<path d="M75.3755 48.6264V47.1782H84.0724V48.6264H80.5595V58.2441H78.9033V48.6264H75.3755Z" fill="white"/>
<path d="M65.156 58.2441V47.1782H66.983L71.2089 53.8698C71.3377 54.0777 71.5134 54.3723 71.7362 54.7535C71.9591 55.1348 72.1819 55.521 72.4047 55.9121C72.3898 55.5111 72.3774 55.1051 72.3675 54.6941C72.3626 54.2782 72.3601 53.9688 72.3601 53.7658V47.1782H74.0163V58.2441H72.1744L68.3941 52.2656C68.2406 52.023 68.0178 51.6615 67.7257 51.1813C67.4385 50.696 67.1118 50.139 66.7454 49.5102C66.7701 50.1588 66.785 50.7183 66.7899 51.1887C66.7998 51.6541 66.8048 52.0106 66.8048 52.2581V58.2441H65.156Z" fill="white"/>
<path d="M56.1995 58.2441V47.1782H63.6412V48.6264H57.8482V51.8868H63.2105V53.3202H57.8482V56.7959H63.6412V58.2441H56.1995Z" fill="white"/>
<path d="M47.9414 58.2441V47.1782H49.5902V56.7959H54.8261V58.2441H47.9414Z" fill="white"/>
<path d="M36.7996 58.2441L40.8175 47.1782H42.8079L46.7962 58.2441H45.0063L44.0259 55.37H39.5624L38.5523 58.2441H36.7996ZM40.06 53.9663H43.5432L42.8748 52.0056C42.7262 51.5501 42.5678 51.0624 42.3994 50.5426C42.2311 50.0227 42.038 49.4038 41.8201 48.6859C41.5973 49.4038 41.4018 50.0227 41.2334 50.5426C41.0651 51.0624 40.9042 51.5501 40.7507 52.0056L40.06 53.9663Z" fill="white"/>
<path d="M32.1588 58.2441L28.1409 47.1782H29.9159L32.1068 53.4167C32.2405 53.8178 32.394 54.2906 32.5673 54.8352C32.7406 55.3799 32.9436 56.0161 33.1763 56.7439C33.3991 56.0161 33.5947 55.3799 33.763 54.8352C33.9363 54.2906 34.0898 53.8178 34.2235 53.4167L36.355 47.1782H38.1004L34.1418 58.2441H32.1588Z" fill="white"/>
<path d="M22.8831 58.4224C21.9027 58.4224 21.0288 58.1823 20.2614 57.702C19.4939 57.2217 18.8899 56.5533 18.4492 55.6968C18.0135 54.8402 17.7957 53.8475 17.7957 52.7186C17.7957 51.5848 18.0135 50.5896 18.4492 49.7331C18.8899 48.8716 19.4939 48.2007 20.2614 47.7204C21.0288 47.2401 21.9027 47 22.8831 47C23.8684 47 24.7448 47.2401 25.5122 47.7204C26.2797 48.2007 26.8812 48.8716 27.3169 49.7331C27.7576 50.5896 27.9779 51.5848 27.9779 52.7186C27.9779 53.8475 27.7576 54.8402 27.3169 55.6968C26.8812 56.5533 26.2797 57.2217 25.5122 57.702C24.7448 58.1823 23.8684 58.4224 22.8831 58.4224ZM22.8831 56.9148C23.5218 56.9148 24.1011 56.7539 24.621 56.432C25.1409 56.1052 25.5543 55.6299 25.8613 55.0061C26.1683 54.3773 26.3217 53.6148 26.3217 52.7186C26.3217 51.8175 26.1683 51.0526 25.8613 50.4238C25.5543 49.7949 25.1409 49.3196 24.621 48.9978C24.1011 48.671 23.5218 48.5076 22.8831 48.5076C22.2493 48.5076 21.6725 48.671 21.1526 48.9978C20.6327 49.3196 20.2193 49.7949 19.9123 50.4238C19.6053 51.0526 19.4519 51.8175 19.4519 52.7186C19.4519 53.6148 19.6053 54.3773 19.9123 55.0061C20.2193 55.6299 20.6327 56.1052 21.1526 56.432C21.6725 56.7539 22.2493 56.9148 22.8831 56.9148Z" fill="white"/>
<path d="M12.4989 58.4224C11.172 58.4224 10.1248 58.0882 9.35737 57.4198C8.59487 56.7464 8.21362 55.8255 8.21362 54.657H9.8624C9.86735 55.3848 10.1001 55.9542 10.5605 56.3652C11.0259 56.7761 11.6721 56.9816 12.4989 56.9816C13.2515 56.9816 13.8531 56.8232 14.3037 56.5063C14.7592 56.1845 14.987 55.7537 14.987 55.214C14.987 54.7882 14.8236 54.4441 14.4968 54.1817C14.175 53.9143 13.6303 53.6891 12.8629 53.5059L11.6523 53.2162C10.5333 52.9489 9.71633 52.5775 9.2014 52.1022C8.69142 51.6219 8.43643 50.9981 8.43643 50.2307C8.43643 49.582 8.59982 49.0151 8.92661 48.5299C9.25339 48.0447 9.71138 47.6684 10.3006 47.401C10.8947 47.1337 11.5879 47 12.3801 47C13.5734 47 14.5215 47.3119 15.2246 47.9358C15.9327 48.5596 16.304 49.4112 16.3387 50.4906H14.7419C14.7023 49.8519 14.4696 49.3518 14.0437 48.9904C13.6179 48.624 13.056 48.4408 12.3578 48.4408C11.6894 48.4408 11.1423 48.6017 10.7165 48.9235C10.2907 49.2404 10.0778 49.6489 10.0778 50.149C10.0778 50.55 10.2412 50.8768 10.568 51.1293C10.8947 51.3769 11.4369 51.5922 12.1944 51.7754L13.3902 52.0576C14.4993 52.3201 15.3162 52.6988 15.8411 53.1939C16.3708 53.6891 16.6357 54.3327 16.6357 55.1249C16.6357 55.7884 16.4649 56.3677 16.1233 56.8628C15.7816 57.3579 15.3014 57.7416 14.6825 58.0139C14.0636 58.2862 13.3357 58.4224 12.4989 58.4224Z" fill="white"/>
<path d="M6.64829 47.1782V58.2441H4.99951V47.1782H6.64829Z" fill="white"/>
<path d="M117.381 79.7914V70.6416H120.266V72.2532H120.292C120.459 71.6698 120.719 71.251 121.072 70.9968C121.43 70.7369 121.915 70.6069 122.527 70.6069C122.689 70.6069 122.834 70.6098 122.961 70.6156C123.094 70.6156 123.221 70.6185 123.342 70.6243V73.085C123.232 73.0792 123.062 73.0735 122.831 73.0677C122.6 73.0619 122.377 73.059 122.164 73.059C121.626 73.059 121.19 73.2381 120.855 73.5962C120.526 73.9544 120.361 74.4569 120.361 75.1039V79.7914H117.381Z" fill="white"/>
<path d="M111.56 79.9998C110.624 79.9998 109.801 79.7947 109.09 79.3846C108.385 78.9745 107.834 78.4113 107.435 77.695C107.042 76.973 106.846 76.1469 106.846 75.2169C106.846 74.2869 107.042 73.4638 107.435 72.7475C107.834 72.0255 108.382 71.4594 109.081 71.0493C109.78 70.6391 110.58 70.4341 111.482 70.4341C112.4 70.4341 113.206 70.6363 113.899 71.0406C114.598 71.4392 115.144 71.9937 115.537 72.7042C115.929 73.4089 116.126 74.2234 116.126 75.1476V75.9534H109.757C109.775 76.5368 109.948 76.999 110.277 77.3398C110.612 77.6806 111.074 77.851 111.664 77.851C112.103 77.851 112.469 77.7614 112.764 77.5824C113.064 77.4033 113.269 77.1636 113.379 76.8632H116.057C115.947 77.4755 115.681 78.0185 115.259 78.4922C114.838 78.9658 114.306 79.3355 113.665 79.6012C113.03 79.8669 112.328 79.9998 111.56 79.9998ZM109.775 74.1685H113.344C113.275 73.6891 113.085 73.3136 112.773 73.0421C112.461 72.7706 112.056 72.6349 111.56 72.6349C111.057 72.6349 110.65 72.7706 110.338 73.0421C110.026 73.3136 109.838 73.6891 109.775 74.1685Z" fill="white"/>
<path d="M101.491 79.9998C100.544 79.9998 99.7147 79.8005 99.0042 79.4019C98.2994 78.9976 97.7478 78.4373 97.3492 77.721C96.9564 77.0047 96.76 76.17 96.76 75.2169C96.76 74.2696 96.9564 73.4378 97.3492 72.7215C97.7478 71.9995 98.3023 71.4392 99.0128 71.0406C99.7233 70.6363 100.549 70.4341 101.491 70.4341C102.34 70.4341 103.094 70.5958 103.752 70.9193C104.411 71.2428 104.934 71.6904 105.321 72.2623C105.714 72.8342 105.933 73.4927 105.979 74.2378H103.103C103.056 73.8046 102.895 73.458 102.617 73.1981C102.346 72.9324 101.991 72.7995 101.552 72.7995C100.991 72.7995 100.555 73.0161 100.243 73.4494C99.9371 73.8768 99.784 74.466 99.784 75.2169C99.784 75.9679 99.94 76.5599 100.252 76.9932C100.564 77.4206 100.997 77.6344 101.552 77.6344C101.991 77.6344 102.343 77.5015 102.609 77.2358C102.874 76.9701 103.036 76.6148 103.094 76.17H105.979C105.956 76.9152 105.751 77.5766 105.364 78.1542C104.983 78.7261 104.457 79.1767 103.787 79.5059C103.123 79.8352 102.357 79.9998 101.491 79.9998Z" fill="white"/>
<path d="M89.4465 74.8185V79.792H86.4658V70.6422H89.4118V72.1238C89.718 71.6039 90.1079 71.1938 90.5816 70.8934C91.0552 70.5931 91.6358 70.4429 92.3232 70.4429C93.3167 70.4429 94.0879 70.7606 94.6367 71.396C95.1912 72.0314 95.4685 72.9123 95.4685 74.0387V79.792H92.4878V74.6625C92.4878 74.1195 92.3578 73.7065 92.0979 73.4235C91.838 73.1347 91.4711 72.9903 90.9975 72.9903C90.5296 72.9903 90.1541 73.1404 89.8711 73.4408C89.588 73.7354 89.4465 74.1946 89.4465 74.8185Z" fill="white"/>
<path d="M79.1962 79.9479C78.2777 79.9479 77.5239 79.7255 76.9347 79.2808C76.3513 78.8302 76.0596 78.1486 76.0596 77.2359C76.0596 76.5485 76.2184 76.0055 76.5361 75.607C76.8596 75.2084 77.29 74.9138 77.8272 74.7232C78.3644 74.5326 78.9594 74.4113 79.6121 74.3593C80.4324 74.2899 81.01 74.2062 81.3451 74.108C81.6801 74.0098 81.8476 73.8221 81.8476 73.5448V73.5015C81.8476 73.23 81.7321 73.0105 81.501 72.843C81.2757 72.6697 80.9667 72.583 80.5739 72.583C80.158 72.583 79.8258 72.6754 79.5774 72.8603C79.3348 73.0451 79.1991 73.2935 79.1702 73.6054H76.3975C76.461 72.6119 76.8567 71.8379 77.5846 71.2833C78.3182 70.723 79.3493 70.4429 80.6779 70.4429C82.0065 70.4429 83.026 70.723 83.7365 71.2833C84.447 71.8379 84.8023 72.6206 84.8023 73.6314V79.792H81.8909V78.5096H81.8563C81.5848 79.0006 81.2353 79.3645 80.8078 79.6013C80.3804 79.8324 79.8432 79.9479 79.1962 79.9479ZM80.106 77.9984C80.6028 77.9984 81.0216 77.8626 81.3624 77.5912C81.7032 77.3139 81.8736 76.95 81.8736 76.4994V75.6676C81.7176 75.7427 81.501 75.8091 81.2237 75.8669C80.9465 75.9247 80.623 75.9853 80.2533 76.0489C79.8547 76.1124 79.5255 76.2279 79.2655 76.3954C79.0114 76.563 78.8843 76.7969 78.8843 77.0973C78.8843 77.3803 78.9969 77.6027 79.2222 77.7644C79.4475 77.9204 79.7421 77.9984 80.106 77.9984Z" fill="white"/>
<path d="M74.7341 66.8813V79.7916H71.7534V66.8813H74.7341Z" fill="white"/>
<path d="M64.4833 79.9479C63.5648 79.9479 62.811 79.7255 62.2218 79.2808C61.6384 78.8302 61.3467 78.1486 61.3467 77.2359C61.3467 76.5485 61.5055 76.0055 61.8232 75.607C62.1467 75.2084 62.5771 74.9138 63.1143 74.7232C63.6515 74.5326 64.2465 74.4113 64.8992 74.3593C65.7195 74.2899 66.2971 74.2062 66.6322 74.108C66.9672 74.0098 67.1347 73.8221 67.1347 73.5448V73.5015C67.1347 73.23 67.0192 73.0105 66.7881 72.843C66.5628 72.6697 66.2538 72.583 65.861 72.583C65.4451 72.583 65.1129 72.6754 64.8646 72.8603C64.6219 73.0451 64.4862 73.2935 64.4573 73.6054H61.6846C61.7481 72.6119 62.1438 71.8379 62.8717 71.2833C63.6053 70.723 64.6364 70.4429 65.965 70.4429C67.2936 70.4429 68.3131 70.723 69.0236 71.2833C69.7341 71.8379 70.0894 72.6206 70.0894 73.6314V79.792H67.178V78.5096H67.1434C66.8719 79.0006 66.5224 79.3645 66.0949 79.6013C65.6675 79.8324 65.1303 79.9479 64.4833 79.9479ZM65.3931 77.9984C65.8899 77.9984 66.3087 77.8626 66.6495 77.5912C66.9903 77.3139 67.1607 76.95 67.1607 76.4994V75.6676C67.0047 75.7427 66.7881 75.8091 66.5109 75.8669C66.2336 75.9247 65.9101 75.9853 65.5404 76.0489C65.1418 76.1124 64.8126 76.2279 64.5526 76.3954C64.2985 76.563 64.1714 76.7969 64.1714 77.0973C64.1714 77.3803 64.284 77.6027 64.5093 77.7644C64.7346 77.9204 65.0292 77.9984 65.3931 77.9984Z" fill="white"/>
<path d="M50.1953 79.7916V66.8813H55.5674C57 66.8813 58.0947 67.1846 58.8514 67.7911C59.6139 68.3977 59.9951 69.1861 59.9951 70.1566C59.9951 70.9017 59.7756 71.5256 59.3366 72.0281C58.9034 72.5249 58.3228 72.8541 57.595 73.0159V73.0332C58.1322 73.0679 58.6145 73.2181 59.042 73.4838C59.4752 73.7437 59.816 74.1018 60.0644 74.5582C60.3186 75.0087 60.4457 75.5373 60.4457 76.1438C60.4457 76.8543 60.2695 77.4839 59.9171 78.0327C59.5705 78.5814 59.0622 79.0118 58.3921 79.3237C57.7278 79.6356 56.9163 79.7916 55.9574 79.7916H50.1953ZM53.2366 77.4002H55.4461C56.0122 77.4002 56.457 77.2702 56.7805 77.0103C57.104 76.7445 57.2657 76.3806 57.2657 75.9185C57.2657 75.4506 57.104 75.0809 56.7805 74.8094C56.4628 74.5322 56.0238 74.3935 55.4635 74.3935H53.2366V77.4002ZM53.2366 72.1234H55.2728C55.7696 72.1234 56.1624 71.9963 56.4512 71.7422C56.7401 71.4822 56.8845 71.1328 56.8845 70.6938C56.8845 70.2605 56.7401 69.9168 56.4512 69.6627C56.1624 69.4027 55.7696 69.2728 55.2728 69.2728H53.2366V72.1234Z" fill="white"/>
<path d="M39.3726 79.9909C38.5697 79.9909 37.8707 79.7945 37.2758 79.4017C36.6866 79.0031 36.2273 78.4457 35.8981 77.7294C35.5746 77.0074 35.4128 76.164 35.4128 75.1994C35.4128 74.2694 35.5804 73.4462 35.9154 72.7299C36.2504 72.0137 36.7126 71.4534 37.3018 71.049C37.891 70.6447 38.5726 70.4425 39.3466 70.4425C40.525 70.4425 41.4002 70.919 41.972 71.8722H41.9807V66.8813H44.97V79.7916H42.0154V78.3793H42.0067C41.7699 78.9165 41.4204 79.3208 40.9583 79.5923C40.5019 79.858 39.9734 79.9909 39.3726 79.9909ZM40.2044 77.6081C40.7705 77.6081 41.2269 77.3915 41.5735 76.9583C41.9258 76.5193 42.102 75.933 42.102 75.1994C42.102 74.4773 41.9258 73.8997 41.5735 73.4664C41.2269 73.0332 40.7705 72.8166 40.2044 72.8166C39.6557 72.8166 39.2224 73.0274 38.9047 73.4491C38.5928 73.8708 38.4368 74.4542 38.4368 75.1994C38.4368 75.9503 38.5928 76.5395 38.9047 76.9669C39.2224 77.3944 39.6557 77.6081 40.2044 77.6081Z" fill="white"/>
<path d="M28.5238 79.9479C27.6054 79.9479 26.8515 79.7255 26.2623 79.2808C25.6789 78.8302 25.3872 78.1486 25.3872 77.2359C25.3872 76.5485 25.5461 76.0055 25.8638 75.607C26.1872 75.2084 26.6176 74.9138 27.1548 74.7232C27.692 74.5326 28.287 74.4113 28.9397 74.3593C29.76 74.2899 30.3377 74.2062 30.6727 74.108C31.0077 74.0098 31.1752 73.8221 31.1752 73.5448V73.5015C31.1752 73.23 31.0597 73.0105 30.8287 72.843C30.6034 72.6697 30.2943 72.583 29.9015 72.583C29.4856 72.583 29.1535 72.6754 28.9051 72.8603C28.6625 73.0451 28.5267 73.2935 28.4978 73.6054H25.7251C25.7887 72.6119 26.1844 71.8379 26.9122 71.2833C27.6458 70.723 28.6769 70.4429 30.0055 70.4429C31.3341 70.4429 32.3536 70.723 33.0642 71.2833C33.7747 71.8379 34.1299 72.6206 34.1299 73.6314V79.792H31.2186V78.5096H31.1839C30.9124 79.0006 30.5629 79.3645 30.1355 79.6013C29.708 79.8324 29.1708 79.9479 28.5238 79.9479ZM29.4336 77.9984C29.9304 77.9984 30.3492 77.8626 30.69 77.5912C31.0308 77.3139 31.2012 76.95 31.2012 76.4994V75.6676C31.0453 75.7427 30.8287 75.8091 30.5514 75.8669C30.2741 75.9247 29.9506 75.9853 29.5809 76.0489C29.1824 76.1124 28.8531 76.2279 28.5932 76.3954C28.339 76.563 28.2119 76.7969 28.2119 77.0973C28.2119 77.3803 28.3245 77.6027 28.5498 77.7644C28.7751 77.9204 29.0697 77.9984 29.4336 77.9984Z" fill="white"/>
<path d="M19.4699 79.9998C18.511 79.9998 17.6706 79.8034 16.9485 79.4106C16.2264 79.0178 15.6632 78.4633 15.2589 77.747C14.8545 77.0307 14.6523 76.1874 14.6523 75.2169C14.6523 74.2581 14.8545 73.4205 15.2589 72.7042C15.6632 71.9822 16.2264 71.4247 16.9485 71.0319C17.6706 70.6334 18.511 70.4341 19.4699 70.4341C20.4231 70.4341 21.2606 70.6334 21.9827 71.0319C22.7105 71.4247 23.2737 71.9822 23.6723 72.7042C24.0767 73.4205 24.2789 74.2581 24.2789 75.2169C24.2789 76.1874 24.0767 77.0307 23.6723 77.747C23.2737 78.4575 22.7105 79.012 21.9827 79.4106C21.2606 79.8034 20.4231 79.9998 19.4699 79.9998ZM19.4699 77.6257C19.9898 77.6257 20.4173 77.4177 20.7523 77.0018C21.0931 76.5859 21.2635 75.991 21.2635 75.2169C21.2635 74.4429 21.0931 73.8479 20.7523 73.432C20.4173 73.0161 19.9898 72.8082 19.4699 72.8082C18.95 72.8082 18.5197 73.0161 18.1789 73.432C17.8439 73.8479 17.6763 74.4429 17.6763 75.2169C17.6763 75.991 17.8439 76.5859 18.1789 77.0018C18.5139 77.4177 18.9443 77.6257 19.4699 77.6257Z" fill="white"/>
<path d="M5 79.7916V66.8813H8.1193V77.1402H13.838V79.7916H5Z" fill="white"/>
</svg>
