<svg width="128" height="128" viewBox="0 0 128 128" fill="none" xmlns="http://www.w3.org/2000/svg">
<path d="M12.1652 68.4522H34.2696V76H3V52.2783H12.1652V68.4522Z" fill="white"/>
<path d="M23.2175 66.565H14.0522V52.2783H23.2175V66.565Z" fill="white"/>
<path d="M34.2697 66.565H25.1044V52.2783H34.2697V66.565Z" fill="white"/>
<path d="M19.7131 46.6174H30.7653V50.9304H28.6088V48.7739H19.7131V50.9304H17.5566V48.7739H8.66092V50.9304H6.50439V46.6174H17.5566V45H19.7131V46.6174Z" fill="white"/>
<path d="M92.4902 52.7617V51.7656H98.4717V52.7617H96.0556V59.3765H94.9165V52.7617H92.4902Z" fill="white"/>
<path d="M85.4614 59.3765V51.7656H86.718L89.6244 56.3679C89.713 56.5109 89.8339 56.7136 89.9871 56.9758C90.1403 57.238 90.2936 57.5036 90.4468 57.7726C90.4366 57.4968 90.4281 57.2175 90.4213 56.9349C90.4179 56.6488 90.4162 56.436 90.4162 56.2964V51.7656H91.5552V59.3765H90.2885L87.6885 55.2646C87.5829 55.0977 87.4297 54.8491 87.2288 54.5188C87.0313 54.1851 86.8065 53.802 86.5545 53.3695C86.5716 53.8156 86.5818 54.2004 86.5852 54.5239C86.592 54.844 86.5954 55.0892 86.5954 55.2595V59.3765H85.4614Z" fill="white"/>
<path d="M79.3013 59.3765V51.7656H84.4195V52.7617H80.4352V55.0041H84.1232V55.9899H80.4352V58.3805H84.4195V59.3765H79.3013Z" fill="white"/>
<path d="M73.6211 59.3765V51.7656H74.7551V58.3805H78.3562V59.3765H73.6211Z" fill="white"/>
<path d="M65.9592 59.3765L68.7226 51.7656H70.0916L72.8346 59.3765H71.6035L70.9293 57.3997H67.8594L67.1647 59.3765H65.9592ZM68.2016 56.4343H70.5973L70.1376 55.0858C70.0354 54.7725 69.9264 54.4371 69.8106 54.0795C69.6949 53.722 69.5621 53.2963 69.4122 52.8025C69.259 53.2963 69.1245 53.722 69.0087 54.0795C68.8929 54.4371 68.7822 54.7725 68.6767 55.0858L68.2016 56.4343Z" fill="white"/>
<path d="M62.7668 59.3765L60.0034 51.7656H61.2242L62.7311 56.0563C62.823 56.3322 62.9286 56.6574 63.0478 57.0319C63.167 57.4065 63.3066 57.8441 63.4666 58.3447C63.6199 57.8441 63.7544 57.4065 63.8702 57.0319C63.9893 56.6574 64.0949 56.3322 64.1869 56.0563L65.6528 51.7656H66.8532L64.1307 59.3765H62.7668Z" fill="white"/>
<path d="M56.3869 59.4991C55.7126 59.4991 55.1116 59.334 54.5838 59.0037C54.056 58.6733 53.6405 58.2136 53.3374 57.6245C53.0378 57.0354 52.8879 56.3526 52.8879 55.5762C52.8879 54.7964 53.0378 54.1119 53.3374 53.5228C53.6405 52.9303 54.056 52.4689 54.5838 52.1385C55.1116 51.8082 55.7126 51.6431 56.3869 51.6431C57.0646 51.6431 57.6673 51.8082 58.1951 52.1385C58.7229 52.4689 59.1367 52.9303 59.4364 53.5228C59.7394 54.1119 59.891 54.7964 59.891 55.5762C59.891 56.3526 59.7394 57.0354 59.4364 57.6245C59.1367 58.2136 58.7229 58.6733 58.1951 59.0037C57.6673 59.334 57.0646 59.4991 56.3869 59.4991ZM56.3869 58.4622C56.8262 58.4622 57.2246 58.3515 57.5822 58.1302C57.9397 57.9054 58.2241 57.5785 58.4352 57.1495C58.6463 56.717 58.7519 56.1926 58.7519 55.5762C58.7519 54.9564 58.6463 54.4303 58.4352 53.9978C58.2241 53.5654 57.9397 53.2385 57.5822 53.0171C57.2246 52.7924 56.8262 52.68 56.3869 52.68C55.951 52.68 55.5543 52.7924 55.1967 53.0171C54.8392 53.2385 54.5548 53.5654 54.3437 53.9978C54.1326 54.4303 54.027 54.9564 54.027 55.5762C54.027 56.1926 54.1326 56.717 54.3437 57.1495C54.5548 57.5785 54.8392 57.9054 55.1967 58.1302C55.5543 58.3515 55.951 58.4622 56.3869 58.4622Z" fill="white"/>
<path d="M49.2461 59.4991C48.3335 59.4991 47.6133 59.2693 47.0855 58.8096C46.561 58.3464 46.2988 57.713 46.2988 56.9094H47.4328C47.4362 57.41 47.5963 57.8016 47.9129 58.0842C48.233 58.3669 48.6774 58.5082 49.2461 58.5082C49.7637 58.5082 50.1775 58.3992 50.4874 58.1813C50.8007 57.9599 50.9573 57.6637 50.9573 57.2925C50.9573 56.9996 50.8449 56.763 50.6202 56.5825C50.3988 56.3986 50.0242 56.2437 49.4964 56.1177L48.6638 55.9184C47.8942 55.7346 47.3323 55.4792 46.9782 55.1522C46.6274 54.8219 46.4521 54.3929 46.4521 53.865C46.4521 53.4189 46.5644 53.029 46.7892 52.6953C47.0139 52.3616 47.3289 52.1028 47.7342 51.9189C48.1428 51.735 48.6196 51.6431 49.1644 51.6431C49.9851 51.6431 50.6372 51.8576 51.1208 52.2867C51.6077 52.7157 51.8631 53.3015 51.887 54.0438H50.7887C50.7615 53.6045 50.6014 53.2606 50.3086 53.012C50.0157 52.76 49.6292 52.634 49.1491 52.634C48.6894 52.634 48.3131 52.7447 48.0202 52.966C47.7274 53.184 47.5809 53.4649 47.5809 53.8088C47.5809 54.0847 47.6933 54.3094 47.9181 54.4831C48.1428 54.6534 48.5157 54.8015 49.0367 54.9275L49.8591 55.1216C50.6219 55.3021 51.1838 55.5626 51.5447 55.9031C51.9091 56.2437 52.0913 56.6863 52.0913 57.2312C52.0913 57.6875 51.9738 58.0859 51.7388 58.4265C51.5039 58.767 51.1735 59.0309 50.7479 59.2182C50.3222 59.4055 49.8216 59.4991 49.2461 59.4991Z" fill="white"/>
<path d="M45.2209 51.7656V59.3765H44.0869V51.7656H45.2209Z" fill="white"/>
<path d="M121.257 74.1963V67.9032H123.241V69.0117H123.259C123.374 68.6104 123.553 68.3224 123.795 68.1476C124.042 67.9688 124.375 67.8794 124.796 67.8794C124.908 67.8794 125.007 67.8814 125.094 67.8854C125.186 67.8854 125.273 67.8873 125.357 67.8913V69.5838C125.281 69.5798 125.164 69.5758 125.005 69.5718C124.846 69.5679 124.693 69.5659 124.546 69.5659C124.177 69.5659 123.877 69.689 123.646 69.9354C123.42 70.1817 123.307 70.5273 123.307 70.9723V74.1963H121.257Z" fill="white"/>
<path d="M117.252 74.3393C116.609 74.3393 116.042 74.1983 115.554 73.9162C115.069 73.6341 114.69 73.2468 114.415 72.7542C114.145 72.2575 114.01 71.6894 114.01 71.0498C114.01 70.4102 114.145 69.844 114.415 69.3514C114.69 68.8548 115.067 68.4654 115.548 68.1834C116.028 67.9013 116.579 67.7603 117.198 67.7603C117.83 67.7603 118.384 67.8993 118.861 68.1774C119.342 68.4515 119.717 68.8329 119.987 69.3216C120.258 69.8063 120.393 70.3665 120.393 71.0021V71.5563H116.013C116.024 71.9576 116.144 72.2754 116.37 72.5098C116.601 72.7442 116.918 72.8614 117.324 72.8614C117.626 72.8614 117.878 72.7998 118.08 72.6767C118.287 72.5535 118.428 72.3886 118.504 72.1821H120.345C120.27 72.6032 120.087 72.9766 119.797 73.3024C119.507 73.6282 119.141 73.8824 118.7 74.0652C118.263 74.248 117.781 74.3393 117.252 74.3393ZM116.024 70.3287H118.48C118.432 69.999 118.301 69.7407 118.086 69.554C117.872 69.3673 117.594 69.2739 117.252 69.2739C116.906 69.2739 116.626 69.3673 116.412 69.554C116.197 69.7407 116.068 69.999 116.024 70.3287Z" fill="white"/>
<path d="M110.327 74.3393C109.676 74.3393 109.106 74.2023 108.617 73.9281C108.132 73.65 107.753 73.2647 107.479 72.772C107.209 72.2794 107.073 71.7053 107.073 71.0498C107.073 70.3982 107.209 69.8261 107.479 69.3335C107.753 68.8369 108.134 68.4515 108.623 68.1774C109.112 67.8993 109.68 67.7603 110.327 67.7603C110.911 67.7603 111.43 67.8715 111.883 68.094C112.336 68.3165 112.695 68.6244 112.961 69.0177C113.231 69.411 113.382 69.8639 113.414 70.3764H111.436C111.404 70.0784 111.293 69.8401 111.102 69.6613C110.915 69.4785 110.671 69.3871 110.369 69.3871C109.984 69.3871 109.684 69.5361 109.469 69.8341C109.259 70.1281 109.153 70.5333 109.153 71.0498C109.153 71.5663 109.261 71.9735 109.475 72.2714C109.69 72.5654 109.988 72.7124 110.369 72.7124C110.671 72.7124 110.913 72.6211 111.096 72.4383C111.279 72.2556 111.39 72.0112 111.43 71.7053H113.414C113.398 72.2178 113.257 72.6727 112.991 73.07C112.729 73.4633 112.367 73.7732 111.906 73.9996C111.45 74.2261 110.923 74.3393 110.327 74.3393Z" fill="white"/>
<path d="M102.044 70.7756V74.1962H99.9939V67.9032H102.02V68.9222C102.231 68.5647 102.499 68.2826 102.825 68.076C103.15 67.8694 103.55 67.7661 104.022 67.7661C104.706 67.7661 105.236 67.9846 105.614 68.4216C105.995 68.8587 106.186 69.4645 106.186 70.2392V74.1962H104.136V70.6683C104.136 70.2948 104.046 70.0108 103.867 69.8161C103.689 69.6175 103.436 69.5181 103.111 69.5181C102.789 69.5181 102.531 69.6214 102.336 69.828C102.141 70.0306 102.044 70.3465 102.044 70.7756Z" fill="white"/>
<path d="M94.9939 74.3035C94.3623 74.3035 93.8438 74.1505 93.4386 73.8446C93.0373 73.5347 92.8367 73.0659 92.8367 72.4382C92.8367 71.9654 92.9459 71.592 93.1644 71.3179C93.3869 71.0437 93.6829 70.8411 94.0524 70.71C94.4218 70.5789 94.8311 70.4955 95.28 70.4597C95.8441 70.412 96.2414 70.3544 96.4718 70.2869C96.7023 70.2194 96.8175 70.0902 96.8175 69.8995V69.8697C96.8175 69.683 96.738 69.5321 96.5791 69.4168C96.4242 69.2977 96.2116 69.2381 95.9415 69.2381C95.6554 69.2381 95.427 69.3016 95.2561 69.4288C95.0893 69.5559 94.9959 69.7267 94.9761 69.9413H93.0691C93.1128 69.2579 93.3849 68.7256 93.8855 68.3442C94.3901 67.9588 95.0992 67.7661 96.013 67.7661C96.9267 67.7661 97.6279 67.9588 98.1166 68.3442C98.6053 68.7256 98.8496 69.2639 98.8496 69.9591V74.1962H96.8473V73.3142H96.8234C96.6367 73.6519 96.3964 73.9022 96.1024 74.0651C95.8084 74.224 95.4389 74.3035 94.9939 74.3035ZM95.6197 72.9626C95.9613 72.9626 96.2494 72.8693 96.4838 72.6825C96.7182 72.4918 96.8354 72.2416 96.8354 71.9317V71.3596C96.7281 71.4112 96.5791 71.4569 96.3884 71.4966C96.1977 71.5364 95.9752 71.5781 95.721 71.6218C95.4468 71.6655 95.2204 71.7449 95.0416 71.8602C94.8668 71.9754 94.7794 72.1363 94.7794 72.3429C94.7794 72.5375 94.8569 72.6905 95.0118 72.8017C95.1668 72.909 95.3694 72.9626 95.6197 72.9626Z" fill="white"/>
<path d="M91.9248 65.3169V74.1963H89.8748V65.3169H91.9248Z" fill="white"/>
<path d="M84.875 74.3035C84.2434 74.3035 83.7249 74.1505 83.3197 73.8446C82.9184 73.5347 82.7178 73.0659 82.7178 72.4382C82.7178 71.9654 82.827 71.592 83.0455 71.3179C83.268 71.0437 83.564 70.8411 83.9335 70.71C84.3029 70.5789 84.7122 70.4955 85.1611 70.4597C85.7252 70.412 86.1225 70.3544 86.3529 70.2869C86.5834 70.2194 86.6986 70.0902 86.6986 69.8995V69.8697C86.6986 69.683 86.6191 69.5321 86.4602 69.4168C86.3053 69.2977 86.0927 69.2381 85.8226 69.2381C85.5365 69.2381 85.3081 69.3016 85.1373 69.4288C84.9704 69.5559 84.877 69.7267 84.8572 69.9413H82.9502C82.9939 69.2579 83.266 68.7256 83.7666 68.3442C84.2712 67.9588 84.9803 67.7661 85.8941 67.7661C86.8078 67.7661 87.5091 67.9588 87.9977 68.3442C88.4864 68.7256 88.7307 69.2639 88.7307 69.9591V74.1962H86.7284V73.3142H86.7045C86.5178 73.6519 86.2775 73.9022 85.9835 74.0651C85.6895 74.224 85.32 74.3035 84.875 74.3035ZM85.5008 72.9626C85.8424 72.9626 86.1305 72.8693 86.3649 72.6825C86.5993 72.4918 86.7165 72.2416 86.7165 71.9317V71.3596C86.6092 71.4112 86.4602 71.4569 86.2695 71.4966C86.0788 71.5364 85.8563 71.5781 85.6021 71.6218C85.3279 71.6655 85.1015 71.7449 84.9227 71.8602C84.7479 71.9754 84.6605 72.1363 84.6605 72.3429C84.6605 72.5375 84.738 72.6905 84.8929 72.8017C85.0479 72.909 85.2505 72.9626 85.5008 72.9626Z" fill="white"/>
<path d="M75.0481 74.1963V65.3169H78.7429C79.7281 65.3169 80.481 65.5255 81.0014 65.9426C81.5259 66.3598 81.7881 66.9021 81.7881 67.5695C81.7881 68.082 81.6371 68.5111 81.3352 68.8567C81.0372 69.1984 80.6379 69.4248 80.1373 69.5361V69.548C80.5068 69.5718 80.8386 69.6751 81.1325 69.8579C81.4305 70.0367 81.6649 70.283 81.8357 70.5968C82.0105 70.9067 82.098 71.2702 82.098 71.6874C82.098 72.1761 81.9768 72.6091 81.7344 72.9865C81.4961 73.3639 81.1465 73.6599 80.6856 73.8745C80.2287 74.089 79.6705 74.1963 79.011 74.1963H75.0481ZM77.1398 72.5515H78.6594C79.0488 72.5515 79.3547 72.4621 79.5772 72.2833C79.7996 72.1006 79.9109 71.8503 79.9109 71.5325C79.9109 71.2106 79.7996 70.9564 79.5772 70.7697C79.3587 70.579 79.0567 70.4836 78.6714 70.4836H77.1398V72.5515ZM77.1398 68.9223H78.5402C78.8819 68.9223 79.1521 68.8349 79.3507 68.6601C79.5494 68.4813 79.6487 68.2409 79.6487 67.939C79.6487 67.641 79.5494 67.4046 79.3507 67.2298C79.1521 67.0511 78.8819 66.9617 78.5402 66.9617H77.1398V68.9223Z" fill="white"/>
<path d="M67.6047 74.3333C67.0525 74.3333 66.5718 74.1982 66.1626 73.9281C65.7574 73.654 65.4415 73.2706 65.2151 72.7779C64.9926 72.2813 64.8813 71.7013 64.8813 71.0378C64.8813 70.3982 64.9966 69.8321 65.227 69.3394C65.4574 68.8468 65.7752 68.4614 66.1805 68.1833C66.5857 67.9052 67.0545 67.7662 67.5869 67.7662C68.3973 67.7662 68.9992 68.0939 69.3925 68.7495H69.3985V65.3169H71.4545V74.1963H69.4223V73.2249H69.4164C69.2535 73.5944 69.0131 73.8725 68.6953 74.0592C68.3814 74.2419 68.0179 74.3333 67.6047 74.3333ZM68.1768 72.6945C68.5662 72.6945 68.88 72.5455 69.1184 72.2476C69.3608 71.9456 69.4819 71.5424 69.4819 71.0378C69.4819 70.5412 69.3608 70.1439 69.1184 69.846C68.88 69.548 68.5662 69.399 68.1768 69.399C67.7994 69.399 67.5015 69.544 67.2829 69.834C67.0684 70.1241 66.9611 70.5253 66.9611 71.0378C66.9611 71.5543 67.0684 71.9595 67.2829 72.2535C67.5015 72.5475 67.7994 72.6945 68.1768 72.6945Z" fill="white"/>
<path d="M60.1441 74.3035C59.5124 74.3035 58.9939 74.1505 58.5887 73.8446C58.1874 73.5347 57.9868 73.0659 57.9868 72.4382C57.9868 71.9654 58.0961 71.592 58.3146 71.3179C58.5371 71.0437 58.833 70.8411 59.2025 70.71C59.572 70.5789 59.9812 70.4955 60.4301 70.4597C60.9943 70.412 61.3916 70.3544 61.622 70.2869C61.8524 70.2194 61.9676 70.0902 61.9676 69.8995V69.8697C61.9676 69.683 61.8882 69.5321 61.7293 69.4168C61.5743 69.2977 61.3618 69.2381 61.0916 69.2381C60.8056 69.2381 60.5771 69.3016 60.4063 69.4288C60.2394 69.5559 60.1461 69.7267 60.1262 69.9413H58.2192C58.2629 69.2579 58.5351 68.7256 59.0357 68.3442C59.5402 67.9588 60.2494 67.7661 61.1631 67.7661C62.0769 67.7661 62.7781 67.9588 63.2668 68.3442C63.7554 68.7256 63.9998 69.2639 63.9998 69.9591V74.1962H61.9974V73.3142H61.9736C61.7869 73.6519 61.5465 73.9022 61.2525 74.0651C60.9585 74.224 60.589 74.3035 60.1441 74.3035ZM60.7698 72.9626C61.1115 72.9626 61.3995 72.8693 61.6339 72.6825C61.8683 72.4918 61.9855 72.2416 61.9855 71.9317V71.3596C61.8782 71.4112 61.7293 71.4569 61.5386 71.4966C61.3479 71.5364 61.1254 71.5781 60.8711 71.6218C60.597 71.6655 60.3705 71.7449 60.1918 71.8602C60.017 71.9754 59.9295 72.1363 59.9295 72.3429C59.9295 72.5375 60.007 72.6905 60.162 72.8017C60.3169 72.909 60.5195 72.9626 60.7698 72.9626Z" fill="white"/>
<path d="M53.9166 74.3393C53.2571 74.3393 52.6791 74.2042 52.1825 73.9341C51.6859 73.6639 51.2985 73.2825 51.0204 72.7899C50.7423 72.2973 50.6033 71.7172 50.6033 71.0498C50.6033 70.3903 50.7423 69.8142 51.0204 69.3216C51.2985 68.825 51.6859 68.4416 52.1825 68.1714C52.6791 67.8973 53.2571 67.7603 53.9166 67.7603C54.5722 67.7603 55.1482 67.8973 55.6448 68.1714C56.1454 68.4416 56.5328 68.825 56.8069 69.3216C57.085 69.8142 57.2241 70.3903 57.2241 71.0498C57.2241 71.7172 57.085 72.2973 56.8069 72.7899C56.5328 73.2786 56.1454 73.66 55.6448 73.9341C55.1482 74.2042 54.5722 74.3393 53.9166 74.3393ZM53.9166 72.7065C54.2742 72.7065 54.5682 72.5635 54.7986 72.2774C55.033 71.9914 55.1502 71.5822 55.1502 71.0498C55.1502 70.5174 55.033 70.1082 54.7986 69.8222C54.5682 69.5361 54.2742 69.3931 53.9166 69.3931C53.5591 69.3931 53.2631 69.5361 53.0287 69.8222C52.7983 70.1082 52.6831 70.5174 52.6831 71.0498C52.6831 71.5822 52.7983 71.9914 53.0287 72.2774C53.2591 72.5635 53.5551 72.7065 53.9166 72.7065Z" fill="white"/>
<path d="M43.9644 74.1963V65.3169H46.1097V72.3727H50.0428V74.1963H43.9644Z" fill="white"/>
</svg>
