<svg width="128" height="128" viewBox="0 0 128 128" fill="none" xmlns="http://www.w3.org/2000/svg">
<path d="M88.5234 90.4121V89.2695H95.3848V90.4121H92.6133V98H91.3066V90.4121H88.5234Z" fill="black"/>
<path d="M80.4609 98V89.2695H81.9023L85.2363 94.5488C85.3379 94.7129 85.4766 94.9453 85.6523 95.2461C85.8281 95.5469 86.0039 95.8516 86.1797 96.1602C86.168 95.8438 86.1582 95.5234 86.1504 95.1992C86.1465 94.8711 86.1445 94.627 86.1445 94.4668V89.2695H87.4512V98H85.998L83.0156 93.2832C82.8945 93.0918 82.7188 92.8066 82.4883 92.4277C82.2617 92.0449 82.0039 91.6055 81.7148 91.1094C81.7344 91.6211 81.7461 92.0625 81.75 92.4336C81.7578 92.8008 81.7617 93.082 81.7617 93.2773V98H80.4609Z" fill="black"/>
<path d="M73.3945 98V89.2695H79.2656V90.4121H74.6953V92.9844H78.9258V94.1152H74.6953V96.8574H79.2656V98H73.3945Z" fill="black"/>
<path d="M66.8789 98V89.2695H68.1797V96.8574H72.3105V98H66.8789Z" fill="black"/>
<path d="M58.0898 98L61.2598 89.2695H62.8301L65.9766 98H64.5645L63.791 95.7324H60.2695L59.4727 98H58.0898ZM60.6621 94.625H63.4102L62.8828 93.0781C62.7656 92.7188 62.6406 92.334 62.5078 91.9238C62.375 91.5137 62.2227 91.0254 62.0508 90.459C61.875 91.0254 61.7207 91.5137 61.5879 91.9238C61.4551 92.334 61.3281 92.7188 61.207 93.0781L60.6621 94.625Z" fill="black"/>
<path d="M54.4277 98L51.2578 89.2695H52.6582L54.3867 94.1914C54.4922 94.5078 54.6133 94.8809 54.75 95.3105C54.8867 95.7402 55.0469 96.2422 55.2305 96.8164C55.4062 96.2422 55.5605 95.7402 55.6934 95.3105C55.8301 94.8809 55.9512 94.5078 56.0566 94.1914L57.7383 89.2695H59.1152L55.9922 98H54.4277Z" fill="black"/>
<path d="M47.1094 98.1406C46.3359 98.1406 45.6465 97.9512 45.041 97.5723C44.4355 97.1934 43.959 96.666 43.6113 95.9902C43.2676 95.3145 43.0957 94.5312 43.0957 93.6406C43.0957 92.7461 43.2676 91.9609 43.6113 91.2852C43.959 90.6055 44.4355 90.0762 45.041 89.6973C45.6465 89.3184 46.3359 89.1289 47.1094 89.1289C47.8867 89.1289 48.5781 89.3184 49.1836 89.6973C49.7891 90.0762 50.2637 90.6055 50.6074 91.2852C50.9551 91.9609 51.1289 92.7461 51.1289 93.6406C51.1289 94.5312 50.9551 95.3145 50.6074 95.9902C50.2637 96.666 49.7891 97.1934 49.1836 97.5723C48.5781 97.9512 47.8867 98.1406 47.1094 98.1406ZM47.1094 96.9512C47.6133 96.9512 48.0703 96.8242 48.4805 96.5703C48.8906 96.3125 49.2168 95.9375 49.459 95.4453C49.7012 94.9492 49.8223 94.3477 49.8223 93.6406C49.8223 92.9297 49.7012 92.3262 49.459 91.8301C49.2168 91.334 48.8906 90.959 48.4805 90.7051C48.0703 90.4473 47.6133 90.3184 47.1094 90.3184C46.6094 90.3184 46.1543 90.4473 45.7441 90.7051C45.334 90.959 45.0078 91.334 44.7656 91.8301C44.5234 92.3262 44.4023 92.9297 44.4023 93.6406C44.4023 94.3477 44.5234 94.9492 44.7656 95.4453C45.0078 95.9375 45.334 96.3125 45.7441 96.5703C46.1543 96.8242 46.6094 96.9512 47.1094 96.9512Z" fill="black"/>
<path d="M38.918 98.1406C37.8711 98.1406 37.0449 97.877 36.4395 97.3496C35.8379 96.8184 35.5371 96.0918 35.5371 95.1699H36.8379C36.8418 95.7441 37.0254 96.1934 37.3887 96.5176C37.7559 96.8418 38.2656 97.0039 38.918 97.0039C39.5117 97.0039 39.9863 96.8789 40.3418 96.6289C40.7012 96.375 40.8809 96.0352 40.8809 95.6094C40.8809 95.2734 40.752 95.002 40.4941 94.7949C40.2402 94.584 39.8105 94.4062 39.2051 94.2617L38.25 94.0332C37.3672 93.8223 36.7227 93.5293 36.3164 93.1543C35.9141 92.7754 35.7129 92.2832 35.7129 91.6777C35.7129 91.166 35.8418 90.7188 36.0996 90.3359C36.3574 89.9531 36.7188 89.6562 37.1836 89.4453C37.6523 89.2344 38.1992 89.1289 38.8242 89.1289C39.7656 89.1289 40.5137 89.375 41.0684 89.8672C41.627 90.3594 41.9199 91.0312 41.9473 91.8828H40.6875C40.6562 91.3789 40.4727 90.9844 40.1367 90.6992C39.8008 90.4102 39.3574 90.2656 38.8066 90.2656C38.2793 90.2656 37.8477 90.3926 37.5117 90.6465C37.1758 90.8965 37.0078 91.2188 37.0078 91.6133C37.0078 91.9297 37.1367 92.1875 37.3945 92.3867C37.6523 92.582 38.0801 92.752 38.6777 92.8965L39.6211 93.1191C40.4961 93.3262 41.1406 93.625 41.5547 94.0156C41.9727 94.4062 42.1816 94.9141 42.1816 95.5391C42.1816 96.0625 42.0469 96.5195 41.7773 96.9102C41.5078 97.3008 41.1289 97.6035 40.6406 97.8184C40.1523 98.0332 39.5781 98.1406 38.918 98.1406Z" fill="black"/>
<path d="M34.3008 89.2695V98H33V89.2695H34.3008Z" fill="black"/>
<path d="M105.662 115V107.781H107.938V109.053H107.959C108.091 108.592 108.296 108.262 108.574 108.062C108.857 107.856 109.24 107.754 109.723 107.754C109.85 107.754 109.964 107.756 110.064 107.761C110.169 107.761 110.27 107.763 110.365 107.768V109.709C110.279 109.704 110.144 109.7 109.962 109.695C109.78 109.691 109.604 109.688 109.436 109.688C109.012 109.688 108.668 109.83 108.403 110.112C108.144 110.395 108.014 110.791 108.014 111.302V115H105.662Z" fill="black"/>
<path d="M101.068 115.164C100.33 115.164 99.6807 115.002 99.1201 114.679C98.5641 114.355 98.1289 113.911 97.8145 113.346C97.5046 112.776 97.3496 112.124 97.3496 111.391C97.3496 110.657 97.5046 110.007 97.8145 109.442C98.1289 108.873 98.5618 108.426 99.1133 108.103C99.6647 107.779 100.296 107.617 101.007 107.617C101.731 107.617 102.367 107.777 102.914 108.096C103.465 108.41 103.896 108.848 104.206 109.408C104.516 109.964 104.671 110.607 104.671 111.336V111.972H99.6465C99.6602 112.432 99.7969 112.797 100.057 113.065C100.321 113.334 100.686 113.469 101.15 113.469C101.497 113.469 101.786 113.398 102.019 113.257C102.256 113.116 102.417 112.926 102.504 112.689H104.616C104.53 113.173 104.32 113.601 103.987 113.975C103.655 114.348 103.235 114.64 102.729 114.85C102.228 115.059 101.674 115.164 101.068 115.164ZM99.6602 110.563H102.477C102.422 110.185 102.271 109.889 102.025 109.675C101.779 109.461 101.46 109.354 101.068 109.354C100.672 109.354 100.351 109.461 100.104 109.675C99.8584 109.889 99.7103 110.185 99.6602 110.563Z" fill="black"/>
<path d="M93.125 115.164C92.3776 115.164 91.7236 115.007 91.1631 114.692C90.6071 114.373 90.1719 113.931 89.8574 113.366C89.5475 112.801 89.3926 112.143 89.3926 111.391C89.3926 110.643 89.5475 109.987 89.8574 109.422C90.1719 108.852 90.6094 108.41 91.1699 108.096C91.7305 107.777 92.3822 107.617 93.125 107.617C93.7949 107.617 94.3896 107.745 94.9092 108C95.4287 108.255 95.8411 108.608 96.1465 109.06C96.4564 109.511 96.6296 110.03 96.666 110.618H94.3965C94.36 110.276 94.2324 110.003 94.0137 109.798C93.7995 109.588 93.5192 109.483 93.1729 109.483C92.7308 109.483 92.3867 109.654 92.1406 109.996C91.8991 110.333 91.7783 110.798 91.7783 111.391C91.7783 111.983 91.9014 112.45 92.1475 112.792C92.3936 113.129 92.7354 113.298 93.1729 113.298C93.5192 113.298 93.7972 113.193 94.0068 112.983C94.2165 112.774 94.3441 112.493 94.3896 112.143H96.666C96.6478 112.73 96.486 113.252 96.1807 113.708C95.8799 114.159 95.4652 114.515 94.9365 114.774C94.4124 115.034 93.8086 115.164 93.125 115.164Z" fill="black"/>
<path d="M83.623 111.076V115H81.2715V107.781H83.5957V108.95C83.8372 108.54 84.1449 108.216 84.5186 107.979C84.8923 107.743 85.3503 107.624 85.8926 107.624C86.6764 107.624 87.2848 107.875 87.7178 108.376C88.1553 108.877 88.374 109.572 88.374 110.461V115H86.0225V110.953C86.0225 110.525 85.9199 110.199 85.7148 109.976C85.5098 109.748 85.2204 109.634 84.8467 109.634C84.4775 109.634 84.1813 109.752 83.958 109.989C83.7347 110.222 83.623 110.584 83.623 111.076Z" fill="black"/>
<path d="M75.5361 115.123C74.8115 115.123 74.2168 114.948 73.752 114.597C73.2917 114.241 73.0615 113.703 73.0615 112.983C73.0615 112.441 73.1868 112.013 73.4375 111.698C73.6927 111.384 74.0322 111.151 74.4561 111.001C74.8799 110.851 75.3493 110.755 75.8643 110.714C76.5114 110.659 76.9671 110.593 77.2314 110.516C77.4958 110.438 77.6279 110.29 77.6279 110.071V110.037C77.6279 109.823 77.5368 109.65 77.3545 109.518C77.1768 109.381 76.9329 109.312 76.623 109.312C76.2949 109.312 76.0329 109.385 75.8369 109.531C75.6455 109.677 75.5384 109.873 75.5156 110.119H73.3281C73.3783 109.335 73.6904 108.725 74.2646 108.287C74.8434 107.845 75.6569 107.624 76.7051 107.624C77.7533 107.624 78.5576 107.845 79.1182 108.287C79.6787 108.725 79.959 109.342 79.959 110.14V115H77.6621V113.988H77.6348C77.4206 114.376 77.1449 114.663 76.8076 114.85C76.4704 115.032 76.0465 115.123 75.5361 115.123ZM76.2539 113.585C76.6458 113.585 76.9762 113.478 77.2451 113.264C77.514 113.045 77.6484 112.758 77.6484 112.402V111.746C77.5254 111.805 77.3545 111.858 77.1357 111.903C76.917 111.949 76.6618 111.997 76.3701 112.047C76.0557 112.097 75.7959 112.188 75.5908 112.32C75.3903 112.452 75.29 112.637 75.29 112.874C75.29 113.097 75.3789 113.273 75.5566 113.4C75.7344 113.523 75.9668 113.585 76.2539 113.585Z" fill="black"/>
<path d="M72.0156 104.814V115H69.6641V104.814H72.0156Z" fill="black"/>
<path d="M63.9287 115.123C63.2041 115.123 62.6094 114.948 62.1445 114.597C61.6842 114.241 61.4541 113.703 61.4541 112.983C61.4541 112.441 61.5794 112.013 61.8301 111.698C62.0853 111.384 62.4248 111.151 62.8486 111.001C63.2725 110.851 63.7419 110.755 64.2568 110.714C64.904 110.659 65.3597 110.593 65.624 110.516C65.8883 110.438 66.0205 110.29 66.0205 110.071V110.037C66.0205 109.823 65.9294 109.65 65.7471 109.518C65.5693 109.381 65.3255 109.312 65.0156 109.312C64.6875 109.312 64.4255 109.385 64.2295 109.531C64.0381 109.677 63.931 109.873 63.9082 110.119H61.7207C61.7708 109.335 62.083 108.725 62.6572 108.287C63.236 107.845 64.0495 107.624 65.0977 107.624C66.1458 107.624 66.9502 107.845 67.5107 108.287C68.0713 108.725 68.3516 109.342 68.3516 110.14V115H66.0547V113.988H66.0273C65.8132 114.376 65.5374 114.663 65.2002 114.85C64.863 115.032 64.4391 115.123 63.9287 115.123ZM64.6465 113.585C65.0384 113.585 65.3688 113.478 65.6377 113.264C65.9066 113.045 66.041 112.758 66.041 112.402V111.746C65.918 111.805 65.7471 111.858 65.5283 111.903C65.3096 111.949 65.0544 111.997 64.7627 112.047C64.4482 112.097 64.1885 112.188 63.9834 112.32C63.7829 112.452 63.6826 112.637 63.6826 112.874C63.6826 113.097 63.7715 113.273 63.9492 113.4C64.127 113.523 64.3594 113.585 64.6465 113.585Z" fill="black"/>
<path d="M52.6562 115V104.814H56.8945C58.0247 104.814 58.8883 105.054 59.4854 105.532C60.0869 106.011 60.3877 106.633 60.3877 107.398C60.3877 107.986 60.2145 108.479 59.8682 108.875C59.5264 109.267 59.0684 109.527 58.4941 109.654V109.668C58.918 109.695 59.2985 109.814 59.6357 110.023C59.9775 110.229 60.2464 110.511 60.4424 110.871C60.6429 111.227 60.7432 111.644 60.7432 112.122C60.7432 112.683 60.6042 113.179 60.3262 113.612C60.0527 114.045 59.6517 114.385 59.123 114.631C58.599 114.877 57.9587 115 57.2021 115H52.6562ZM55.0557 113.113H56.7988C57.2454 113.113 57.5964 113.011 57.8516 112.806C58.1068 112.596 58.2344 112.309 58.2344 111.944C58.2344 111.575 58.1068 111.284 57.8516 111.069C57.6009 110.851 57.2546 110.741 56.8125 110.741H55.0557V113.113ZM55.0557 108.95H56.6621C57.054 108.95 57.3639 108.85 57.5918 108.649C57.8197 108.444 57.9336 108.169 57.9336 107.822C57.9336 107.48 57.8197 107.209 57.5918 107.009C57.3639 106.804 57.054 106.701 56.6621 106.701H55.0557V108.95Z" fill="black"/>
<path d="M44.1182 115.157C43.4847 115.157 42.9333 115.002 42.4639 114.692C41.999 114.378 41.6367 113.938 41.377 113.373C41.1217 112.803 40.9941 112.138 40.9941 111.377C40.9941 110.643 41.1263 109.994 41.3906 109.429C41.6549 108.864 42.0195 108.422 42.4844 108.103C42.9492 107.784 43.487 107.624 44.0977 107.624C45.0273 107.624 45.7178 108 46.1689 108.752H46.1758V104.814H48.5342V115H46.2031V113.886H46.1963C46.0094 114.31 45.7337 114.629 45.3691 114.843C45.0091 115.052 44.5921 115.157 44.1182 115.157ZM44.7744 113.277C45.221 113.277 45.5811 113.106 45.8545 112.765C46.1325 112.418 46.2715 111.956 46.2715 111.377C46.2715 110.807 46.1325 110.352 45.8545 110.01C45.5811 109.668 45.221 109.497 44.7744 109.497C44.3415 109.497 43.9997 109.663 43.749 109.996C43.5029 110.329 43.3799 110.789 43.3799 111.377C43.3799 111.969 43.5029 112.434 43.749 112.771C43.9997 113.109 44.3415 113.277 44.7744 113.277Z" fill="black"/>
<path d="M35.5596 115.123C34.835 115.123 34.2402 114.948 33.7754 114.597C33.3151 114.241 33.085 113.703 33.085 112.983C33.085 112.441 33.2103 112.013 33.4609 111.698C33.7161 111.384 34.0557 111.151 34.4795 111.001C34.9033 110.851 35.3727 110.755 35.8877 110.714C36.5348 110.659 36.9906 110.593 37.2549 110.516C37.5192 110.438 37.6514 110.29 37.6514 110.071V110.037C37.6514 109.823 37.5602 109.65 37.3779 109.518C37.2002 109.381 36.9564 109.312 36.6465 109.312C36.3184 109.312 36.0563 109.385 35.8604 109.531C35.6689 109.677 35.5618 109.873 35.5391 110.119H33.3516C33.4017 109.335 33.7139 108.725 34.2881 108.287C34.8669 107.845 35.6803 107.624 36.7285 107.624C37.7767 107.624 38.5811 107.845 39.1416 108.287C39.7021 108.725 39.9824 109.342 39.9824 110.14V115H37.6855V113.988H37.6582C37.444 114.376 37.1683 114.663 36.8311 114.85C36.4938 115.032 36.07 115.123 35.5596 115.123ZM36.2773 113.585C36.6693 113.585 36.9997 113.478 37.2686 113.264C37.5374 113.045 37.6719 112.758 37.6719 112.402V111.746C37.5488 111.805 37.3779 111.858 37.1592 111.903C36.9404 111.949 36.6852 111.997 36.3936 112.047C36.0791 112.097 35.8193 112.188 35.6143 112.32C35.4137 112.452 35.3135 112.637 35.3135 112.874C35.3135 113.097 35.4023 113.273 35.5801 113.4C35.7578 113.523 35.9902 113.585 36.2773 113.585Z" fill="black"/>
<path d="M28.416 115.164C27.6595 115.164 26.9964 115.009 26.4268 114.699C25.8571 114.389 25.4128 113.952 25.0938 113.387C24.7747 112.822 24.6152 112.156 24.6152 111.391C24.6152 110.634 24.7747 109.973 25.0938 109.408C25.4128 108.839 25.8571 108.399 26.4268 108.089C26.9964 107.774 27.6595 107.617 28.416 107.617C29.168 107.617 29.8288 107.774 30.3984 108.089C30.9727 108.399 31.417 108.839 31.7314 109.408C32.0505 109.973 32.21 110.634 32.21 111.391C32.21 112.156 32.0505 112.822 31.7314 113.387C31.417 113.947 30.9727 114.385 30.3984 114.699C29.8288 115.009 29.168 115.164 28.416 115.164ZM28.416 113.291C28.8262 113.291 29.1634 113.127 29.4277 112.799C29.6966 112.471 29.8311 112.001 29.8311 111.391C29.8311 110.78 29.6966 110.311 29.4277 109.982C29.1634 109.654 28.8262 109.49 28.416 109.49C28.0059 109.49 27.6663 109.654 27.3975 109.982C27.1331 110.311 27.001 110.78 27.001 111.391C27.001 112.001 27.1331 112.471 27.3975 112.799C27.6618 113.127 28.0013 113.291 28.416 113.291Z" fill="black"/>
<path d="M17 115V104.814H19.4609V112.908H23.9727V115H17Z" fill="black"/>
<path d="M51.3305 60.9044H95.5393V76H33V28.5566H51.3305V60.9044Z" fill="url(#paint0_linear_14_1833)"/>
<path d="M73.4347 57.1302H55.1042V28.5569H73.4347V57.1302Z" fill="#006BFF"/>
<path d="M95.5391 57.1302H77.2086V28.5569H95.5391V57.1302Z" fill="#006BFF"/>
<path d="M66.426 17.2348H88.5304V25.8608H84.2173V21.5478H66.426V25.8608H62.1129V21.5478H44.3216V25.8608H40.0085V17.2348H62.1129V14H66.426V17.2348Z" fill="#1F4DBE"/>
<defs>
<linearGradient id="paint0_linear_14_1833" x1="33" y1="58.518" x2="98.6241" y2="57.3078" gradientUnits="userSpaceOnUse">
<stop stop-color="#049FFC"/>
<stop offset="1" stop-color="#19C9FF"/>
</linearGradient>
</defs>
</svg>
