<svg width="128" height="128" viewBox="0 0 128 128" fill="none" xmlns="http://www.w3.org/2000/svg">
<path d="M108.192 94.7969C105.336 94.7969 103.965 93.5049 103.684 91.7207H106.575C106.733 92.3008 107.322 92.6523 108.192 92.6523C109.317 92.6523 109.915 92.0195 109.915 90.7891V89.3564H109.906C109.414 90.4551 108.456 90.9385 107.243 90.9385C104.809 90.9385 103.227 88.9873 103.227 86.2627C103.227 83.5029 104.861 81.5166 107.217 81.5166C108.421 81.5166 109.326 82.0439 109.906 83.0195H109.915V81.7188H112.921V90.4902C112.921 93.5137 111.093 94.7969 108.192 94.7969ZM108.087 88.5654C109.229 88.5654 110.012 87.6426 110.012 86.21C110.012 84.7861 109.229 83.8633 108.087 83.8633C106.979 83.8633 106.294 84.7422 106.294 86.21C106.294 87.6865 106.979 88.5654 108.087 88.5654Z" fill="white"/>
<path d="M95.8086 85.9551V91H92.7852V81.7188H95.7734V83.2217C96.3887 82.1582 97.3291 81.5166 98.7266 81.5166C100.739 81.5166 101.917 82.8789 101.917 85.1641V91H98.8936V85.7969C98.8936 84.6982 98.3398 84.1006 97.3818 84.1006C96.4238 84.1006 95.8086 84.6895 95.8086 85.9551Z" fill="white"/>
<path d="M88.0742 91V81.7188H91.0977V91H88.0742ZM89.5771 80.8135C88.6104 80.8135 87.916 80.1719 87.916 79.2842C87.916 78.3965 88.6104 77.7637 89.5771 77.7637C90.5527 77.7637 91.2471 78.3965 91.2471 79.2842C91.2471 80.1719 90.5527 80.8135 89.5771 80.8135Z" fill="white"/>
<path d="M77.8438 91V77.9043H80.8672V85.0146H80.9023L83.7236 81.7188H87.2129L83.7588 85.7705L87.3623 91H83.873L81.5088 87.4932L80.8672 88.2402V91H77.8438Z" fill="white"/>
<path d="M70.6719 91V81.7188H73.5986V83.3535H73.625C73.959 82.1758 74.6533 81.6836 75.8926 81.6836C76.2178 81.6836 76.4727 81.6924 76.7188 81.7012V84.1973C76.499 84.1885 75.9629 84.1709 75.5234 84.1709C74.4424 84.1709 73.6953 84.9268 73.6953 86.2451V91H70.6719Z" fill="white"/>
<path d="M64.4844 91.2109C61.5752 91.2109 59.5977 89.3037 59.5977 86.3594C59.5977 83.4326 61.5752 81.5078 64.4844 81.5078C67.3936 81.5078 69.3623 83.4326 69.3623 86.3594C69.3623 89.3037 67.3936 91.2109 64.4844 91.2109ZM64.4844 88.8027C65.5391 88.8027 66.3037 87.9326 66.3037 86.3594C66.3037 84.7949 65.5391 83.916 64.4844 83.916C63.4297 83.916 62.665 84.7949 62.665 86.3594C62.665 87.9326 63.4209 88.8027 64.4844 88.8027Z" fill="white"/>
<path d="M47.0205 91L44.1641 81.7188H47.3457L48.0664 84.6191C48.3301 85.7002 48.5674 86.8691 48.8047 88.0205C49.0771 86.8691 49.3496 85.7002 49.6309 84.6191L50.3955 81.7188H53.0762L53.8408 84.6191C54.1221 85.7002 54.3945 86.8691 54.667 88.0205C54.8955 86.8691 55.124 85.709 55.3789 84.6191L56.0732 81.7188H59.3076L56.4512 91H53.3311L52.3027 87.5283C52.1094 86.8428 51.9248 86.1133 51.7402 85.3838C51.5557 86.1133 51.3711 86.8428 51.1689 87.5283L50.1406 91H47.0205Z" fill="white"/>
<path d="M43.3115 81.7188V84.0566H41.4043V87.8799C41.4043 88.4775 41.5889 88.6621 42.2656 88.6621H43.3115V91H41.5977C39.374 91 38.3721 90.1914 38.3721 88.3896V84.0566H36.79V81.7188H38.3721V79.1875H41.4043V81.7188H43.3115Z" fill="white"/>
<path d="M31.5605 91.2109C28.7129 91.2109 26.7793 89.1895 26.7793 86.3594C26.7793 83.5293 28.7305 81.5078 31.4814 81.5078C34.2676 81.5078 36.1924 83.4766 36.1924 86.2891V87.1064H29.7324C29.7676 88.2842 30.4707 89.0312 31.666 89.0312C32.5537 89.0312 33.1865 88.6445 33.4062 88.0293H36.1221C35.7793 89.9014 33.9072 91.2109 31.5605 91.2109ZM29.75 85.2959H33.3711C33.2393 84.3203 32.5713 83.7402 31.5605 83.7402C30.541 83.7402 29.8818 84.3203 29.75 85.2959Z" fill="white"/>
<path d="M14 91V77.9043H17.2695L20.9873 83.8545C21.2949 84.3467 21.8486 85.3311 22.3584 86.2715C22.332 85.2344 22.3145 84.1709 22.3145 83.582V77.9043H25.4785V91H22.2002L18.79 85.5508C18.4121 84.9443 17.7881 83.8721 17.1113 82.6416C17.1553 83.916 17.1641 84.9971 17.1641 85.542V91H14Z" fill="white"/>
<path d="M53.3926 63.9551V69H50.3691V55.9043H53.3926V61.1514C54.0166 60.1318 54.9482 59.5166 56.3105 59.5166C58.3232 59.5166 59.501 60.8789 59.501 63.1641V69H56.4775V63.7969C56.4775 62.6982 55.9238 62.1006 54.9658 62.1006C54.0078 62.1006 53.3926 62.6895 53.3926 63.9551Z" fill="white"/>
<path d="M44.7617 69.2285C42.1953 69.2285 40.3936 68.0068 40.2266 66.0293H43.2061C43.2939 66.7148 43.8301 67.1455 44.7178 67.1455C45.5527 67.1455 46.0449 66.8203 46.0449 66.3545C46.0449 65.9502 45.6582 65.7041 44.9199 65.5723L43.2412 65.2734C41.4131 64.9482 40.4375 64.0078 40.4375 62.54C40.4375 60.7031 42.0107 59.5254 44.5947 59.5254C47.1875 59.5254 48.8311 60.7559 48.8838 62.7334H46.0977C46.0801 62.083 45.5 61.5996 44.7002 61.5996C43.9092 61.5996 43.4521 61.9424 43.4521 62.3994C43.4521 62.7861 43.8125 63.041 44.4541 63.1641L46.3174 63.5068C48.2246 63.8584 49.1211 64.6582 49.1211 66.0381C49.1211 67.9453 47.3633 69.2285 44.7617 69.2285Z" fill="white"/>
<path d="M34.7598 69.2109C31.9121 69.2109 29.9785 67.1895 29.9785 64.3594C29.9785 61.5293 31.9297 59.5078 34.6807 59.5078C37.4668 59.5078 39.3916 61.4766 39.3916 64.2891V65.1064H32.9316C32.9668 66.2842 33.6699 67.0312 34.8652 67.0312C35.7529 67.0312 36.3857 66.6445 36.6055 66.0293H39.3213C38.9785 67.9014 37.1064 69.2109 34.7598 69.2109ZM32.9492 63.2959H36.5703C36.4385 62.3203 35.7705 61.7402 34.7598 61.7402C33.7402 61.7402 33.0811 62.3203 32.9492 63.2959Z" fill="white"/>
<path d="M14 69V55.9043H18.6758L20.3633 61.0459C20.6182 61.8809 21.0225 63.3223 21.3477 64.5615C21.6729 63.3223 22.0684 61.8809 22.3145 61.0459L23.9844 55.9043H28.6689V69H25.5664V63.3311C25.5664 62.4346 25.6367 60.7734 25.6719 59.2178C25.2324 60.8086 24.7842 62.4521 24.5029 63.3311L22.6221 69H20.0645L18.1484 63.3311C17.876 62.4873 17.4365 60.9229 17.0059 59.3936C17.041 60.8965 17.1025 62.4697 17.1025 63.3311V69H14Z" fill="white"/>
<path d="M82.356 38.5788V37.1721H90.8033V38.5788H87.3912V47.9207H85.7825V38.5788H82.356Z" fill="white"/>
<path d="M72.4326 47.9207V37.1721H74.2072L78.3119 43.6718C78.4369 43.8738 78.6077 44.1599 78.8241 44.5302C79.0405 44.9005 79.2569 45.2756 79.4733 45.6556C79.4589 45.266 79.4469 44.8717 79.4372 44.4725C79.4324 44.0685 79.43 43.7679 79.43 43.5708V37.1721H81.0387V47.9207H79.2497L75.5778 42.1136C75.4288 41.8779 75.2123 41.5269 74.9286 41.0604C74.6497 40.5891 74.3323 40.048 73.9764 39.4373C74.0004 40.0673 74.0149 40.6107 74.0197 41.0676C74.0293 41.5196 74.0341 41.8659 74.0341 42.1064V47.9207H72.4326Z" fill="white"/>
<path d="M63.7334 47.9207V37.1721H70.9617V38.5788H65.3349V41.7457H70.5433V43.1379H65.3349V46.514H70.9617V47.9207H63.7334Z" fill="white"/>
<path d="M55.7114 47.9207V37.1721H57.3129V46.514H62.3986V47.9207H55.7114Z" fill="white"/>
<path d="M44.8916 47.9207L48.7943 37.1721H50.7276L54.6014 47.9207H52.8629L51.9107 45.129H47.5751L46.5941 47.9207H44.8916ZM48.0585 43.7655H51.4418L50.7925 41.8611C50.6482 41.4187 50.4943 40.9449 50.3308 40.44C50.1673 39.935 49.9798 39.3339 49.7681 38.6365C49.5517 39.3339 49.3618 39.935 49.1983 40.44C49.0347 40.9449 48.8784 41.4187 48.7294 41.8611L48.0585 43.7655Z" fill="white"/>
<path d="M40.3778 47.9207L36.4751 37.1721H38.1992L40.3273 43.2317C40.4571 43.6213 40.6062 44.0805 40.7745 44.6096C40.9429 45.1386 41.14 45.7566 41.3661 46.4635C41.5825 45.7566 41.7725 45.1386 41.936 44.6096C42.1043 44.0805 42.2534 43.6213 42.3832 43.2317L44.4536 37.1721H46.1488L42.3039 47.9207H40.3778Z" fill="white"/>
<path d="M31.3692 48.0948C30.417 48.0948 29.5682 47.8616 28.8227 47.3951C28.0773 46.9286 27.4906 46.2794 27.0626 45.4474C26.6393 44.6154 26.4277 43.6511 26.4277 42.5546C26.4277 41.4533 26.6393 40.4867 27.0626 39.6547C27.4906 38.8179 28.0773 38.1662 28.8227 37.6997C29.5682 37.2332 30.417 37 31.3692 37C32.3262 37 33.1775 37.2332 33.9229 37.6997C34.6683 38.1662 35.2527 38.8179 35.6759 39.6547C36.1039 40.4867 36.3179 41.4533 36.3179 42.5546C36.3179 43.6511 36.1039 44.6154 35.6759 45.4474C35.2527 46.2794 34.6683 46.9286 33.9229 47.3951C33.1775 47.8616 32.3262 48.0948 31.3692 48.0948ZM31.3692 46.6304C31.9896 46.6304 32.5523 46.4741 33.0572 46.1615C33.5622 45.8441 33.9638 45.3824 34.262 44.7765C34.5601 44.1657 34.7092 43.4251 34.7092 42.5546C34.7092 41.6794 34.5601 40.9363 34.262 40.3256C33.9638 39.7148 33.5622 39.2531 33.0572 38.9405C32.5523 38.6231 31.9896 38.4644 31.3692 38.4644C30.7536 38.4644 30.1934 38.6231 29.6884 38.9405C29.1834 39.2531 28.7818 39.7148 28.4837 40.3256C28.1855 40.9363 28.0364 41.6794 28.0364 42.5546C28.0364 43.4251 28.1855 44.1657 28.4837 44.7765C28.7818 45.3824 29.1834 45.8441 29.6884 46.1615C30.1934 46.4741 30.7536 46.6304 31.3692 46.6304Z" fill="white"/>
<path d="M21.2874 48.0948C19.9985 48.0948 18.9814 47.7702 18.2359 47.121C17.4953 46.4669 17.125 45.5724 17.125 44.4374H18.7265C18.7313 45.1444 18.9573 45.6975 19.4046 46.0966C19.8566 46.4958 20.4842 46.6954 21.2874 46.6954C22.0184 46.6954 22.6027 46.5415 23.0403 46.2337C23.4828 45.9211 23.704 45.5027 23.704 44.9785C23.704 44.5649 23.5453 44.2306 23.2279 43.9758C22.9153 43.7161 22.3863 43.4972 21.6409 43.3193L20.465 43.038C19.3781 42.7783 18.5846 42.4176 18.0844 41.9559C17.5891 41.4894 17.3414 40.8834 17.3414 40.138C17.3414 39.508 17.5001 38.9573 17.8175 38.486C18.1349 38.0147 18.5798 37.6492 19.1521 37.3895C19.7292 37.1298 20.4025 37 21.172 37C22.331 37 23.2519 37.303 23.9349 37.9089C24.6226 38.5149 24.9833 39.3421 25.0169 40.3905H23.466C23.4275 39.7701 23.2014 39.2844 22.7879 38.9333C22.3743 38.5774 21.8284 38.3995 21.1503 38.3995C20.5011 38.3995 19.9697 38.5558 19.5561 38.8684C19.1425 39.1762 18.9357 39.5729 18.9357 40.0587C18.9357 40.4482 19.0944 40.7656 19.4118 41.0109C19.7292 41.2513 20.2558 41.4605 20.9916 41.6385L22.153 41.9126C23.2303 42.1675 24.0238 42.5354 24.5336 43.0163C25.0482 43.4972 25.3055 44.1224 25.3055 44.8919C25.3055 45.5363 25.1396 46.099 24.8077 46.5799C24.4759 47.0609 24.0094 47.4336 23.4082 47.6981C22.8071 47.9626 22.1001 48.0948 21.2874 48.0948Z" fill="white"/>
<path d="M15.6015 37.1724V47.9209H14V37.1724H15.6015Z" fill="white"/>
</svg>
