<svg width="128" height="128" viewBox="0 0 128 128" fill="none" xmlns="http://www.w3.org/2000/svg">
<path d="M109.228 94.7969C106.371 94.7969 105 93.5049 104.719 91.7207H107.61C107.769 92.3008 108.357 92.6523 109.228 92.6523C110.353 92.6523 110.95 92.0195 110.95 90.7891V89.3564H110.941C110.449 90.4551 109.491 90.9385 108.278 90.9385C105.844 90.9385 104.262 88.9873 104.262 86.2627C104.262 83.5029 105.896 81.5166 108.252 81.5166C109.456 81.5166 110.361 82.0439 110.941 83.0195H110.95V81.7188H113.956V90.4902C113.956 93.5137 112.128 94.7969 109.228 94.7969ZM109.122 88.5654C110.265 88.5654 111.047 87.6426 111.047 86.21C111.047 84.7861 110.265 83.8633 109.122 83.8633C108.015 83.8633 107.329 84.7422 107.329 86.21C107.329 87.6865 108.015 88.5654 109.122 88.5654Z" fill="black"/>
<path d="M96.8438 85.9551V91H93.8203V81.7188H96.8086V83.2217C97.4238 82.1582 98.3643 81.5166 99.7617 81.5166C101.774 81.5166 102.952 82.8789 102.952 85.1641V91H99.9287V85.7969C99.9287 84.6982 99.375 84.1006 98.417 84.1006C97.459 84.1006 96.8438 84.6895 96.8438 85.9551Z" fill="black"/>
<path d="M89.1094 91V81.7188H92.1328V91H89.1094ZM90.6123 80.8135C89.6455 80.8135 88.9512 80.1719 88.9512 79.2842C88.9512 78.3965 89.6455 77.7637 90.6123 77.7637C91.5879 77.7637 92.2822 78.3965 92.2822 79.2842C92.2822 80.1719 91.5879 80.8135 90.6123 80.8135Z" fill="black"/>
<path d="M78.8789 91V77.9043H81.9023V85.0146H81.9375L84.7588 81.7188H88.248L84.7939 85.7705L88.3975 91H84.9082L82.5439 87.4932L81.9023 88.2402V91H78.8789Z" fill="black"/>
<path d="M71.707 91V81.7188H74.6338V83.3535H74.6602C74.9941 82.1758 75.6885 81.6836 76.9277 81.6836C77.2529 81.6836 77.5078 81.6924 77.7539 81.7012V84.1973C77.5342 84.1885 76.998 84.1709 76.5586 84.1709C75.4775 84.1709 74.7305 84.9268 74.7305 86.2451V91H71.707Z" fill="black"/>
<path d="M65.5195 91.2109C62.6104 91.2109 60.6328 89.3037 60.6328 86.3594C60.6328 83.4326 62.6104 81.5078 65.5195 81.5078C68.4287 81.5078 70.3975 83.4326 70.3975 86.3594C70.3975 89.3037 68.4287 91.2109 65.5195 91.2109ZM65.5195 88.8027C66.5742 88.8027 67.3389 87.9326 67.3389 86.3594C67.3389 84.7949 66.5742 83.916 65.5195 83.916C64.4648 83.916 63.7002 84.7949 63.7002 86.3594C63.7002 87.9326 64.4561 88.8027 65.5195 88.8027Z" fill="black"/>
<path d="M48.0557 91L45.1992 81.7188H48.3809L49.1016 84.6191C49.3652 85.7002 49.6025 86.8691 49.8398 88.0205C50.1123 86.8691 50.3848 85.7002 50.666 84.6191L51.4307 81.7188H54.1113L54.876 84.6191C55.1572 85.7002 55.4297 86.8691 55.7021 88.0205C55.9307 86.8691 56.1592 85.709 56.4141 84.6191L57.1084 81.7188H60.3428L57.4863 91H54.3662L53.3379 87.5283C53.1445 86.8428 52.96 86.1133 52.7754 85.3838C52.5908 86.1133 52.4062 86.8428 52.2041 87.5283L51.1758 91H48.0557Z" fill="black"/>
<path d="M44.3467 81.7188V84.0566H42.4395V87.8799C42.4395 88.4775 42.624 88.6621 43.3008 88.6621H44.3467V91H42.6328C40.4092 91 39.4072 90.1914 39.4072 88.3896V84.0566H37.8252V81.7188H39.4072V79.1875H42.4395V81.7188H44.3467Z" fill="black"/>
<path d="M32.5957 91.2109C29.748 91.2109 27.8145 89.1895 27.8145 86.3594C27.8145 83.5293 29.7656 81.5078 32.5166 81.5078C35.3027 81.5078 37.2275 83.4766 37.2275 86.2891V87.1064H30.7676C30.8027 88.2842 31.5059 89.0312 32.7012 89.0312C33.5889 89.0312 34.2217 88.6445 34.4414 88.0293H37.1572C36.8145 89.9014 34.9424 91.2109 32.5957 91.2109ZM30.7852 85.2959H34.4062C34.2744 84.3203 33.6064 83.7402 32.5957 83.7402C31.5762 83.7402 30.917 84.3203 30.7852 85.2959Z" fill="black"/>
<path d="M15.0352 91V77.9043H18.3047L22.0225 83.8545C22.3301 84.3467 22.8838 85.3311 23.3936 86.2715C23.3672 85.2344 23.3496 84.1709 23.3496 83.582V77.9043H26.5137V91H23.2354L19.8252 85.5508C19.4473 84.9443 18.8232 83.8721 18.1465 82.6416C18.1904 83.916 18.1992 84.9971 18.1992 85.542V91H15.0352Z" fill="black"/>
<path d="M81.1377 63.9551V69H78.1143V55.9043H81.1377V61.1514C81.7617 60.1318 82.6934 59.5166 84.0557 59.5166C86.0684 59.5166 87.2461 60.8789 87.2461 63.1641V69H84.2227V63.7969C84.2227 62.6982 83.6689 62.1006 82.7109 62.1006C81.7529 62.1006 81.1377 62.6895 81.1377 63.9551Z" fill="black"/>
<path d="M72.5068 69.2285C69.9404 69.2285 68.1387 68.0068 67.9717 66.0293H70.9512C71.0391 66.7148 71.5752 67.1455 72.4629 67.1455C73.2979 67.1455 73.79 66.8203 73.79 66.3545C73.79 65.9502 73.4033 65.7041 72.665 65.5723L70.9863 65.2734C69.1582 64.9482 68.1826 64.0078 68.1826 62.54C68.1826 60.7031 69.7559 59.5254 72.3398 59.5254C74.9326 59.5254 76.5762 60.7559 76.6289 62.7334H73.8428C73.8252 62.083 73.2451 61.5996 72.4453 61.5996C71.6543 61.5996 71.1973 61.9424 71.1973 62.3994C71.1973 62.7861 71.5576 63.041 72.1992 63.1641L74.0625 63.5068C75.9697 63.8584 76.8662 64.6582 76.8662 66.0381C76.8662 67.9453 75.1084 69.2285 72.5068 69.2285Z" fill="black"/>
<path d="M62.5049 69.2109C59.6572 69.2109 57.7236 67.1895 57.7236 64.3594C57.7236 61.5293 59.6748 59.5078 62.4258 59.5078C65.2119 59.5078 67.1367 61.4766 67.1367 64.2891V65.1064H60.6768C60.7119 66.2842 61.415 67.0312 62.6104 67.0312C63.498 67.0312 64.1309 66.6445 64.3506 66.0293H67.0664C66.7236 67.9014 64.8516 69.2109 62.5049 69.2109ZM60.6943 63.2959H64.3154C64.1836 62.3203 63.5156 61.7402 62.5049 61.7402C61.4854 61.7402 60.8262 62.3203 60.6943 63.2959Z" fill="black"/>
<path d="M41.7451 69V55.9043H46.4209L48.1084 61.0459C48.3633 61.8809 48.7676 63.3223 49.0928 64.5615C49.418 63.3223 49.8135 61.8809 50.0596 61.0459L51.7295 55.9043H56.4141V69H53.3115V63.3311C53.3115 62.4346 53.3818 60.7734 53.417 59.2178C52.9775 60.8086 52.5293 62.4521 52.248 63.3311L50.3672 69H47.8096L45.8936 63.3311C45.6211 62.4873 45.1816 60.9229 44.751 59.3936C44.7861 60.8965 44.8477 62.4697 44.8477 63.3311V69H41.7451Z" fill="black"/>
<path d="M93.356 38.5788V37.1721H101.803V38.5788H98.3912V47.9207H96.7825V38.5788H93.356Z" fill="black"/>
<path d="M83.4326 47.9207V37.1721H85.2072L89.3119 43.6718C89.4369 43.8738 89.6077 44.1599 89.8241 44.5302C90.0405 44.9005 90.2569 45.2756 90.4733 45.6556C90.4589 45.266 90.4469 44.8717 90.4372 44.4725C90.4324 44.0685 90.43 43.7679 90.43 43.5708V37.1721H92.0387V47.9207H90.2497L86.5778 42.1136C86.4288 41.8779 86.2123 41.5269 85.9286 41.0604C85.6497 40.5891 85.3323 40.048 84.9764 39.4373C85.0004 40.0673 85.0149 40.6107 85.0197 41.0676C85.0293 41.5196 85.0341 41.8659 85.0341 42.1064V47.9207H83.4326Z" fill="black"/>
<path d="M74.7334 47.9207V37.1721H81.9617V38.5788H76.3349V41.7457H81.5433V43.1379H76.3349V46.514H81.9617V47.9207H74.7334Z" fill="black"/>
<path d="M66.7114 47.9207V37.1721H68.3129V46.514H73.3986V47.9207H66.7114Z" fill="black"/>
<path d="M55.8916 47.9207L59.7943 37.1721H61.7276L65.6014 47.9207H63.8629L62.9107 45.129H58.5751L57.5941 47.9207H55.8916ZM59.0585 43.7655H62.4418L61.7925 41.8611C61.6482 41.4187 61.4943 40.9449 61.3308 40.44C61.1673 39.935 60.9798 39.3339 60.7681 38.6365C60.5517 39.3339 60.3618 39.935 60.1983 40.44C60.0347 40.9449 59.8784 41.4187 59.7294 41.8611L59.0585 43.7655Z" fill="black"/>
<path d="M51.3778 47.9207L47.4751 37.1721H49.1992L51.3273 43.2317C51.4571 43.6213 51.6062 44.0805 51.7745 44.6096C51.9429 45.1386 52.14 45.7566 52.3661 46.4635C52.5825 45.7566 52.7725 45.1386 52.936 44.6096C53.1043 44.0805 53.2534 43.6213 53.3832 43.2317L55.4536 37.1721H57.1488L53.3039 47.9207H51.3778Z" fill="black"/>
<path d="M42.3692 48.0948C41.417 48.0948 40.5682 47.8616 39.8227 47.3951C39.0773 46.9286 38.4906 46.2794 38.0626 45.4474C37.6393 44.6154 37.4277 43.6511 37.4277 42.5546C37.4277 41.4533 37.6393 40.4867 38.0626 39.6547C38.4906 38.8179 39.0773 38.1662 39.8227 37.6997C40.5682 37.2332 41.417 37 42.3692 37C43.3262 37 44.1775 37.2332 44.9229 37.6997C45.6683 38.1662 46.2527 38.8179 46.6759 39.6547C47.1039 40.4867 47.3179 41.4533 47.3179 42.5546C47.3179 43.6511 47.1039 44.6154 46.6759 45.4474C46.2527 46.2794 45.6683 46.9286 44.9229 47.3951C44.1775 47.8616 43.3262 48.0948 42.3692 48.0948ZM42.3692 46.6304C42.9896 46.6304 43.5523 46.4741 44.0572 46.1615C44.5622 45.8441 44.9638 45.3824 45.262 44.7765C45.5601 44.1657 45.7092 43.4251 45.7092 42.5546C45.7092 41.6794 45.5601 40.9363 45.262 40.3256C44.9638 39.7148 44.5622 39.2531 44.0572 38.9405C43.5523 38.6231 42.9896 38.4644 42.3692 38.4644C41.7536 38.4644 41.1934 38.6231 40.6884 38.9405C40.1834 39.2531 39.7818 39.7148 39.4837 40.3256C39.1855 40.9363 39.0364 41.6794 39.0364 42.5546C39.0364 43.4251 39.1855 44.1657 39.4837 44.7765C39.7818 45.3824 40.1834 45.8441 40.6884 46.1615C41.1934 46.4741 41.7536 46.6304 42.3692 46.6304Z" fill="black"/>
<path d="M32.2874 48.0948C30.9985 48.0948 29.9814 47.7702 29.2359 47.121C28.4953 46.4669 28.125 45.5724 28.125 44.4374H29.7265C29.7313 45.1444 29.9573 45.6975 30.4046 46.0966C30.8566 46.4958 31.4842 46.6954 32.2874 46.6954C33.0184 46.6954 33.6027 46.5415 34.0403 46.2337C34.4828 45.9211 34.704 45.5027 34.704 44.9785C34.704 44.5649 34.5453 44.2306 34.2279 43.9758C33.9153 43.7161 33.3863 43.4972 32.6409 43.3193L31.465 43.038C30.3781 42.7783 29.5846 42.4176 29.0844 41.9559C28.5891 41.4894 28.3414 40.8834 28.3414 40.138C28.3414 39.508 28.5001 38.9573 28.8175 38.486C29.1349 38.0147 29.5798 37.6492 30.1521 37.3895C30.7292 37.1298 31.4025 37 32.172 37C33.331 37 34.2519 37.303 34.9349 37.9089C35.6226 38.5149 35.9833 39.3421 36.0169 40.3905H34.466C34.4275 39.7701 34.2014 39.2844 33.7879 38.9333C33.3743 38.5774 32.8284 38.3995 32.1503 38.3995C31.5011 38.3995 30.9697 38.5558 30.5561 38.8684C30.1425 39.1762 29.9357 39.5729 29.9357 40.0587C29.9357 40.4482 30.0944 40.7656 30.4118 41.0109C30.7292 41.2513 31.2558 41.4605 31.9916 41.6385L33.153 41.9126C34.2303 42.1675 35.0238 42.5354 35.5336 43.0163C36.0482 43.4972 36.3055 44.1224 36.3055 44.8919C36.3055 45.5363 36.1396 46.099 35.8077 46.5799C35.4759 47.0609 35.0094 47.4336 34.4082 47.6981C33.8071 47.9626 33.1001 48.0948 32.2874 48.0948Z" fill="black"/>
<path d="M26.6015 37.1724V47.9209H25V37.1724H26.6015Z" fill="black"/>
</svg>
