<svg width="128" height="128" viewBox="0 0 128 128" fill="none" xmlns="http://www.w3.org/2000/svg">
<path d="M99.2607 124.824C97.0391 124.824 95.9727 123.819 95.7539 122.432H98.0029C98.126 122.883 98.584 123.156 99.2607 123.156C100.136 123.156 100.601 122.664 100.601 121.707V120.593H100.594C100.211 121.447 99.4658 121.823 98.5225 121.823C96.6289 121.823 95.3984 120.306 95.3984 118.187C95.3984 116.04 96.6699 114.495 98.502 114.495C99.4385 114.495 100.143 114.905 100.594 115.664H100.601V114.652H102.938V121.475C102.938 123.826 101.517 124.824 99.2607 124.824ZM99.1787 119.978C100.067 119.978 100.676 119.26 100.676 118.146C100.676 117.038 100.067 116.32 99.1787 116.32C98.3174 116.32 97.7842 117.004 97.7842 118.146C97.7842 119.294 98.3174 119.978 99.1787 119.978Z" fill="black"/>
<path d="M89.6289 117.947V121.871H87.2773V114.652H89.6016V115.821C90.0801 114.994 90.8115 114.495 91.8984 114.495C93.4639 114.495 94.3799 115.555 94.3799 117.332V121.871H92.0283V117.824C92.0283 116.97 91.5977 116.505 90.8525 116.505C90.1074 116.505 89.6289 116.963 89.6289 117.947Z" fill="black"/>
<path d="M83.6133 121.871V114.652H85.9648V121.871H83.6133ZM84.7822 113.948C84.0303 113.948 83.4902 113.449 83.4902 112.759C83.4902 112.068 84.0303 111.576 84.7822 111.576C85.541 111.576 86.0811 112.068 86.0811 112.759C86.0811 113.449 85.541 113.948 84.7822 113.948Z" fill="black"/>
<path d="M75.6562 121.871V111.686H78.0078V117.216H78.0352L80.2295 114.652H82.9434L80.2568 117.804L83.0596 121.871H80.3457L78.5068 119.144L78.0078 119.725V121.871H75.6562Z" fill="black"/>
<path d="M70.0781 121.871V114.652H72.3545V115.924H72.375C72.6348 115.008 73.1748 114.625 74.1387 114.625C74.3916 114.625 74.5898 114.632 74.7812 114.639V116.58C74.6104 116.573 74.1934 116.56 73.8516 116.56C73.0107 116.56 72.4297 117.147 72.4297 118.173V121.871H70.0781Z" fill="black"/>
<path d="M65.2656 122.035C63.0029 122.035 61.4648 120.552 61.4648 118.262C61.4648 115.985 63.0029 114.488 65.2656 114.488C67.5283 114.488 69.0596 115.985 69.0596 118.262C69.0596 120.552 67.5283 122.035 65.2656 122.035ZM65.2656 120.162C66.0859 120.162 66.6807 119.485 66.6807 118.262C66.6807 117.045 66.0859 116.361 65.2656 116.361C64.4453 116.361 63.8506 117.045 63.8506 118.262C63.8506 119.485 64.4385 120.162 65.2656 120.162Z" fill="black"/>
<path d="M51.6826 121.871L49.4609 114.652H51.9355L52.4961 116.908C52.7012 117.749 52.8857 118.658 53.0703 119.554C53.2822 118.658 53.4941 117.749 53.7129 116.908L54.3076 114.652H56.3926L56.9873 116.908C57.2061 117.749 57.418 118.658 57.6299 119.554C57.8076 118.658 57.9854 117.756 58.1836 116.908L58.7236 114.652H61.2393L59.0176 121.871H56.5908L55.791 119.171C55.6406 118.638 55.4971 118.07 55.3535 117.503C55.21 118.07 55.0664 118.638 54.9092 119.171L54.1094 121.871H51.6826Z" fill="black"/>
<path d="M48.7979 114.652V116.471H47.3145V119.444C47.3145 119.909 47.458 120.053 47.9844 120.053H48.7979V121.871H47.4648C45.7354 121.871 44.9561 121.242 44.9561 119.841V116.471H43.7256V114.652H44.9561V112.684H47.3145V114.652H48.7979Z" fill="black"/>
<path d="M39.6582 122.035C37.4434 122.035 35.9395 120.463 35.9395 118.262C35.9395 116.061 37.457 114.488 39.5967 114.488C41.7637 114.488 43.2607 116.02 43.2607 118.207V118.843H38.2363C38.2637 119.759 38.8105 120.34 39.7402 120.34C40.4307 120.34 40.9229 120.039 41.0938 119.561H43.2061C42.9395 121.017 41.4834 122.035 39.6582 122.035ZM38.25 117.435H41.0664C40.9639 116.676 40.4443 116.225 39.6582 116.225C38.8652 116.225 38.3525 116.676 38.25 117.435Z" fill="black"/>
<path d="M26 121.871V111.686H28.543L31.4346 116.313C31.6738 116.696 32.1045 117.462 32.501 118.193C32.4805 117.387 32.4668 116.56 32.4668 116.102V111.686H34.9277V121.871H32.3779L29.7256 117.633C29.4316 117.161 28.9463 116.327 28.4199 115.37C28.4541 116.361 28.4609 117.202 28.4609 117.626V121.871H26Z" fill="black"/>
<path d="M77.6387 100.947V104.871H75.2871V94.6855H77.6387V98.7666C78.124 97.9736 78.8486 97.4951 79.9082 97.4951C81.4736 97.4951 82.3896 98.5547 82.3896 100.332V104.871H80.0381V100.824C80.0381 99.9697 79.6074 99.5049 78.8623 99.5049C78.1172 99.5049 77.6387 99.9629 77.6387 100.947Z" fill="black"/>
<path d="M70.9258 105.049C68.9297 105.049 67.5283 104.099 67.3984 102.561H69.7158C69.7842 103.094 70.2012 103.429 70.8916 103.429C71.541 103.429 71.9238 103.176 71.9238 102.813C71.9238 102.499 71.623 102.308 71.0488 102.205L69.7432 101.973C68.3213 101.72 67.5625 100.988 67.5625 99.8467C67.5625 98.418 68.7861 97.502 70.7959 97.502C72.8125 97.502 74.0908 98.459 74.1318 99.9971H71.9648C71.9512 99.4912 71.5 99.1152 70.8779 99.1152C70.2627 99.1152 69.9072 99.3818 69.9072 99.7373C69.9072 100.038 70.1875 100.236 70.6865 100.332L72.1357 100.599C73.6191 100.872 74.3164 101.494 74.3164 102.567C74.3164 104.051 72.9492 105.049 70.9258 105.049Z" fill="black"/>
<path d="M63.1465 105.035C60.9316 105.035 59.4277 103.463 59.4277 101.262C59.4277 99.0605 60.9453 97.4883 63.085 97.4883C65.252 97.4883 66.749 99.0195 66.749 101.207V101.843H61.7246C61.752 102.759 62.2988 103.34 63.2285 103.34C63.9189 103.34 64.4111 103.039 64.582 102.561H66.6943C66.4277 104.017 64.9717 105.035 63.1465 105.035ZM61.7383 100.435H64.5547C64.4521 99.6758 63.9326 99.2246 63.1465 99.2246C62.3535 99.2246 61.8408 99.6758 61.7383 100.435Z" fill="black"/>
<path d="M47 104.871V94.6855H50.6367L51.9492 98.6846C52.1475 99.334 52.4619 100.455 52.7148 101.419C52.9678 100.455 53.2754 99.334 53.4668 98.6846L54.7656 94.6855H58.4092V104.871H55.9961V100.462C55.9961 99.7646 56.0508 98.4727 56.0781 97.2627C55.7363 98.5 55.3877 99.7783 55.1689 100.462L53.7061 104.871H51.7168L50.2266 100.462C50.0146 99.8057 49.6729 98.5889 49.3379 97.3994C49.3652 98.5684 49.4131 99.792 49.4131 100.462V104.871H47Z" fill="black"/>
<path d="M88.5234 80.2832V79.1406H95.3848V80.2832H92.6133V87.8711H91.3066V80.2832H88.5234Z" fill="black"/>
<path d="M80.4609 87.8711V79.1406H81.9023L85.2363 84.4199C85.3379 84.584 85.4766 84.8164 85.6523 85.1172C85.8281 85.418 86.0039 85.7227 86.1797 86.0312C86.168 85.7148 86.1582 85.3945 86.1504 85.0703C86.1465 84.7422 86.1445 84.498 86.1445 84.3379V79.1406H87.4512V87.8711H85.998L83.0156 83.1543C82.8945 82.9629 82.7188 82.6777 82.4883 82.2988C82.2617 81.916 82.0039 81.4766 81.7148 80.9805C81.7344 81.4922 81.7461 81.9336 81.75 82.3047C81.7578 82.6719 81.7617 82.9531 81.7617 83.1484V87.8711H80.4609Z" fill="black"/>
<path d="M73.3945 87.8711V79.1406H79.2656V80.2832H74.6953V82.8555H78.9258V83.9863H74.6953V86.7285H79.2656V87.8711H73.3945Z" fill="black"/>
<path d="M66.8789 87.8711V79.1406H68.1797V86.7285H72.3105V87.8711H66.8789Z" fill="black"/>
<path d="M58.0898 87.8711L61.2598 79.1406H62.8301L65.9766 87.8711H64.5645L63.791 85.6035H60.2695L59.4727 87.8711H58.0898ZM60.6621 84.4961H63.4102L62.8828 82.9492C62.7656 82.5898 62.6406 82.2051 62.5078 81.7949C62.375 81.3848 62.2227 80.8965 62.0508 80.3301C61.875 80.8965 61.7207 81.3848 61.5879 81.7949C61.4551 82.2051 61.3281 82.5898 61.207 82.9492L60.6621 84.4961Z" fill="black"/>
<path d="M54.4277 87.8711L51.2578 79.1406H52.6582L54.3867 84.0625C54.4922 84.3789 54.6133 84.752 54.75 85.1816C54.8867 85.6113 55.0469 86.1133 55.2305 86.6875C55.4062 86.1133 55.5605 85.6113 55.6934 85.1816C55.8301 84.752 55.9512 84.3789 56.0566 84.0625L57.7383 79.1406H59.1152L55.9922 87.8711H54.4277Z" fill="black"/>
<path d="M47.1094 88.0117C46.3359 88.0117 45.6465 87.8223 45.041 87.4434C44.4355 87.0645 43.959 86.5371 43.6113 85.8613C43.2676 85.1855 43.0957 84.4023 43.0957 83.5117C43.0957 82.6172 43.2676 81.832 43.6113 81.1562C43.959 80.4766 44.4355 79.9473 45.041 79.5684C45.6465 79.1895 46.3359 79 47.1094 79C47.8867 79 48.5781 79.1895 49.1836 79.5684C49.7891 79.9473 50.2637 80.4766 50.6074 81.1562C50.9551 81.832 51.1289 82.6172 51.1289 83.5117C51.1289 84.4023 50.9551 85.1855 50.6074 85.8613C50.2637 86.5371 49.7891 87.0645 49.1836 87.4434C48.5781 87.8223 47.8867 88.0117 47.1094 88.0117ZM47.1094 86.8223C47.6133 86.8223 48.0703 86.6953 48.4805 86.4414C48.8906 86.1836 49.2168 85.8086 49.459 85.3164C49.7012 84.8203 49.8223 84.2188 49.8223 83.5117C49.8223 82.8008 49.7012 82.1973 49.459 81.7012C49.2168 81.2051 48.8906 80.8301 48.4805 80.5762C48.0703 80.3184 47.6133 80.1895 47.1094 80.1895C46.6094 80.1895 46.1543 80.3184 45.7441 80.5762C45.334 80.8301 45.0078 81.2051 44.7656 81.7012C44.5234 82.1973 44.4023 82.8008 44.4023 83.5117C44.4023 84.2188 44.5234 84.8203 44.7656 85.3164C45.0078 85.8086 45.334 86.1836 45.7441 86.4414C46.1543 86.6953 46.6094 86.8223 47.1094 86.8223Z" fill="black"/>
<path d="M38.918 88.0117C37.8711 88.0117 37.0449 87.748 36.4395 87.2207C35.8379 86.6895 35.5371 85.9629 35.5371 85.041H36.8379C36.8418 85.6152 37.0254 86.0645 37.3887 86.3887C37.7559 86.7129 38.2656 86.875 38.918 86.875C39.5117 86.875 39.9863 86.75 40.3418 86.5C40.7012 86.2461 40.8809 85.9062 40.8809 85.4805C40.8809 85.1445 40.752 84.873 40.4941 84.666C40.2402 84.4551 39.8105 84.2773 39.2051 84.1328L38.25 83.9043C37.3672 83.6934 36.7227 83.4004 36.3164 83.0254C35.9141 82.6465 35.7129 82.1543 35.7129 81.5488C35.7129 81.0371 35.8418 80.5898 36.0996 80.207C36.3574 79.8242 36.7188 79.5273 37.1836 79.3164C37.6523 79.1055 38.1992 79 38.8242 79C39.7656 79 40.5137 79.2461 41.0684 79.7383C41.627 80.2305 41.9199 80.9023 41.9473 81.7539H40.6875C40.6562 81.25 40.4727 80.8555 40.1367 80.5703C39.8008 80.2812 39.3574 80.1367 38.8066 80.1367C38.2793 80.1367 37.8477 80.2637 37.5117 80.5176C37.1758 80.7676 37.0078 81.0898 37.0078 81.4844C37.0078 81.8008 37.1367 82.0586 37.3945 82.2578C37.6523 82.4531 38.0801 82.623 38.6777 82.7676L39.6211 82.9902C40.4961 83.1973 41.1406 83.4961 41.5547 83.8867C41.9727 84.2773 42.1816 84.7852 42.1816 85.4102C42.1816 85.9336 42.0469 86.3906 41.7773 86.7812C41.5078 87.1719 41.1289 87.4746 40.6406 87.6895C40.1523 87.9043 39.5781 88.0117 38.918 88.0117Z" fill="black"/>
<path d="M34.3008 79.1406V87.8711H33V79.1406H34.3008Z" fill="black"/>
<path d="M58.0526 54.3282C56.3031 55.5987 54.975 57.4145 54.3198 59.5267L45.4136 53.1371C47.1633 51.8666 48.4912 50.051 49.1464 47.9387L58.0526 54.3282Z" fill="#006BFF"/>
<path d="M78.8532 47.9387C79.5083 50.0509 80.8364 51.8666 82.586 53.1371L73.6797 59.5267C73.0245 57.4145 71.6966 55.5987 69.9469 54.3282L78.8532 47.9387Z" fill="#006BFF"/>
<path d="M67.2 52.9152C66.1942 52.5807 65.1183 52.3996 64 52.3996C62.8818 52.3996 61.8059 52.5807 60.8 52.9152V45.4834C61.806 45.818 62.8818 45.9996 64 45.9996C65.1183 45.9996 66.1941 45.818 67.2 45.4834V52.9152Z" fill="#006BFF"/>
<path d="M53.8724 36.1975C53.9453 38.4658 54.7638 40.5454 56.0907 42.2001L49.5938 44.6012C49.5208 42.3328 48.7026 40.2533 47.3756 38.5986L53.8724 36.1975Z" fill="#006BFF"/>
<path d="M80.624 38.5986C79.2971 40.2532 78.4787 42.3329 78.4058 44.6012L71.9089 42.2001C73.2359 40.5453 74.0543 38.4659 74.1271 36.1975L80.624 38.5986Z" fill="#006BFF"/>
<circle cx="63.9999" cy="62.5333" r="7.46666" fill="#006BFF"/>
<path d="M80 6C84.1237 6 87.4667 9.34294 87.4667 13.4667C87.4667 15.8421 86.357 17.958 84.6281 19.3255L89.5672 37.538C93.2016 38.0415 96 41.1604 96 44.9334C96 49.0571 92.6571 52.4 88.5333 52.4C84.4096 52.4 81.0667 49.0571 81.0667 44.9334C81.0667 42.5579 82.1759 40.4415 83.9047 39.074L78.9651 20.8615C78.7726 20.8348 78.5824 20.801 78.3948 20.7599L70.3781 31.9828C71.0687 33.1144 71.4667 34.444 71.4667 35.8667C71.4667 39.9904 68.1237 43.3334 64 43.3334C59.8763 43.3334 56.5333 39.9904 56.5333 35.8667C56.5333 34.4442 56.9305 33.1143 57.6208 31.9828L49.6042 20.7599C49.4166 20.801 49.2264 20.8348 49.0339 20.8615L44.0948 39.074C45.8238 40.4415 46.9333 42.5578 46.9333 44.9334C46.9333 49.0571 43.5904 52.4 39.4667 52.4C35.3429 52.4 32 49.0571 32 44.9334C32 41.1606 34.7981 38.0417 38.4323 37.538L43.3714 19.3255C41.6427 17.958 40.5333 15.842 40.5333 13.4667C40.5333 9.34294 43.8763 6 48 6C52.1237 6 55.4667 9.34294 55.4667 13.4667C55.4667 14.8889 55.0688 16.2181 54.3786 17.3495L62.3953 28.5729C62.9122 28.4597 63.4491 28.4 64 28.4C64.5507 28.4 65.0874 28.4598 65.6042 28.5729L73.6208 17.3495C72.9308 16.2182 72.5333 14.8888 72.5333 13.4667C72.5333 9.34294 75.8763 6 80 6Z" fill="url(#paint0_linear_172_362)"/>
<path d="M70.3828 10.267C70.0483 11.2729 69.8667 12.3487 69.8667 13.467C69.8667 14.5852 70.0483 15.6611 70.3828 16.667H57.6172C57.9517 15.6611 58.1333 14.5852 58.1333 13.467C58.1333 12.3487 57.9517 11.2729 57.6172 10.267H70.3828Z" fill="#006BFF"/>
<defs>
<linearGradient id="paint0_linear_172_362" x1="32" y1="35.3025" x2="99.1547" y2="34.0066" gradientUnits="userSpaceOnUse">
<stop stop-color="#19C9FF"/>
<stop offset="1" stop-color="#049FFC"/>
</linearGradient>
</defs>
</svg>
