<svg width="128" height="128" viewBox="0 0 128 128" fill="none" xmlns="http://www.w3.org/2000/svg">
<path d="M111.841 82C110.023 82 109.151 81.1779 108.972 80.0426H110.812C110.913 80.4117 111.287 80.6354 111.841 80.6354C112.557 80.6354 112.937 80.2327 112.937 79.4498V78.5382H112.932C112.618 79.2372 112.009 79.5448 111.237 79.5448C109.688 79.5448 108.681 78.3033 108.681 76.5696C108.681 74.8135 109.721 73.5496 111.22 73.5496C111.986 73.5496 112.562 73.8851 112.932 74.5059H112.937V73.6782H114.85V79.2596C114.85 81.1835 113.687 82 111.841 82ZM111.774 78.0348C112.501 78.0348 112.999 77.4476 112.999 76.536C112.999 75.63 112.501 75.0428 111.774 75.0428C111.069 75.0428 110.633 75.602 110.633 76.536C110.633 77.4756 111.069 78.0348 111.774 78.0348Z" fill="black"/>
<path d="M103.96 76.3738V79.584H102.037V73.6782H103.938V74.6345C104.33 73.9578 104.928 73.5496 105.817 73.5496C107.098 73.5496 107.847 74.4164 107.847 75.8705V79.584H105.923V76.2732C105.923 75.5741 105.571 75.1938 104.962 75.1938C104.352 75.1938 103.96 75.5685 103.96 76.3738Z" fill="black"/>
<path d="M99.0396 79.5843V73.6785H100.963V79.5843H99.0396ZM99.996 73.1025C99.3808 73.1025 98.939 72.6942 98.939 72.1294C98.939 71.5645 99.3808 71.1619 99.996 71.1619C100.617 71.1619 101.059 71.5645 101.059 72.1294C101.059 72.6942 100.617 73.1025 99.996 73.1025Z" fill="black"/>
<path d="M92.5298 79.5842V71.2512H94.4536V75.7756H94.476L96.2712 73.6784H98.4915L96.2936 76.2566L98.5865 79.5842H96.3663L94.8619 77.3527L94.4536 77.8281V79.5842H92.5298Z" fill="black"/>
<path d="M87.9658 79.5842V73.6784H89.8282V74.7186H89.8449C90.0574 73.9692 90.4993 73.656 91.2878 73.656C91.4947 73.656 91.6569 73.6616 91.8135 73.6672V75.2555C91.6737 75.2499 91.3326 75.2387 91.0529 75.2387C90.365 75.2387 89.8897 75.7197 89.8897 76.5586V79.5842H87.9658Z" fill="black"/>
<path d="M84.0289 79.7184C82.1778 79.7184 80.9194 78.5048 80.9194 76.6313C80.9194 74.769 82.1778 73.5442 84.0289 73.5442C85.88 73.5442 87.1328 74.769 87.1328 76.6313C87.1328 78.5048 85.88 79.7184 84.0289 79.7184ZM84.0289 78.186C84.7 78.186 85.1866 77.6324 85.1866 76.6313C85.1866 75.6358 84.7 75.0766 84.0289 75.0766C83.3578 75.0766 82.8712 75.6358 82.8712 76.6313C82.8712 77.6324 83.3522 78.186 84.0289 78.186Z" fill="black"/>
<path d="M72.9167 79.5843L71.0991 73.6785H73.1236L73.5822 75.524C73.75 76.2119 73.901 76.9557 74.052 77.6884C74.2254 76.9557 74.3987 76.2119 74.5777 75.524L75.0643 73.6785H76.77L77.2565 75.524C77.4355 76.2119 77.6089 76.9557 77.7823 77.6884C77.9277 76.9557 78.0731 76.2175 78.2353 75.524L78.6771 73.6785H80.7351L78.9175 79.5843H76.9322L76.2778 77.3752C76.1548 76.939 76.0374 76.4748 75.9199 76.0106C75.8025 76.4748 75.685 76.939 75.5564 77.3752L74.9021 79.5843H72.9167Z" fill="black"/>
<path d="M70.5564 73.6783V75.1659H69.3428V77.5987C69.3428 77.979 69.4603 78.0965 69.8909 78.0965H70.5564V79.5841H69.4659C68.051 79.5841 67.4134 79.0696 67.4134 77.9231V75.1659H66.4067V73.6783H67.4134V72.0676H69.3428V73.6783H70.5564Z" fill="black"/>
<path d="M63.079 79.7184C61.267 79.7184 60.0366 78.4321 60.0366 76.6313C60.0366 74.8305 61.2782 73.5442 63.0287 73.5442C64.8015 73.5442 66.0263 74.7969 66.0263 76.5866V77.1067H61.9157C61.9381 77.8561 62.3855 78.3315 63.1461 78.3315C63.7109 78.3315 64.1136 78.0854 64.2534 77.6939H65.9815C65.7634 78.8851 64.5722 79.7184 63.079 79.7184ZM61.9269 75.9546H64.2311C64.1472 75.3338 63.7221 74.9647 63.079 74.9647C62.4302 74.9647 62.0108 75.3338 61.9269 75.9546Z" fill="black"/>
<path d="M51.9053 79.5842V71.2512H53.9857L56.3514 75.0374C56.5471 75.3506 56.8994 75.977 57.2238 76.5754C57.207 75.9155 57.1959 75.2387 57.1959 74.864V71.2512H59.2092V79.5842H57.1231L54.9532 76.1168C54.7127 75.7309 54.3157 75.0486 53.885 74.2656C53.913 75.0766 53.9186 75.7644 53.9186 76.1112V79.5842H51.9053Z" fill="black"/>
<path d="M76.9707 63.0298V66.24H75.0469V57.907H76.9707V61.2458C77.3678 60.597 77.9606 60.2055 78.8275 60.2055C80.1082 60.2055 80.8576 61.0724 80.8576 62.5265V66.24H78.9337V62.9291C78.9337 62.2301 78.5814 61.8498 77.9718 61.8498C77.3622 61.8498 76.9707 62.2245 76.9707 63.0298Z" fill="black"/>
<path d="M71.479 66.3854C69.846 66.3854 68.6995 65.608 68.5933 64.3497H70.4891C70.5451 64.7859 70.8862 65.06 71.4511 65.06C71.9824 65.06 72.2955 64.853 72.2955 64.5566C72.2955 64.2994 72.0495 64.1428 71.5797 64.0589L70.5115 63.8687C69.3483 63.6618 68.7275 63.0634 68.7275 62.1294C68.7275 60.9606 69.7286 60.2112 71.3728 60.2112C73.0226 60.2112 74.0684 60.9941 74.1019 62.2525H72.3291C72.3179 61.8386 71.9488 61.531 71.4399 61.531C70.9366 61.531 70.6457 61.7491 70.6457 62.04C70.6457 62.286 70.875 62.4482 71.2833 62.5265L72.4689 62.7446C73.6825 62.9683 74.2529 63.4773 74.2529 64.3553C74.2529 65.5689 73.1344 66.3854 71.479 66.3854Z" fill="black"/>
<path d="M65.1146 66.3742C63.3026 66.3742 62.0723 65.0879 62.0723 63.2871C62.0723 61.4862 63.3138 60.2 65.0643 60.2C66.8371 60.2 68.0619 61.4527 68.0619 63.2423V63.7624H63.9514C63.9737 64.5118 64.4211 64.9872 65.1817 64.9872C65.7466 64.9872 66.1493 64.7411 66.2891 64.3497H68.0172C67.7991 65.5409 66.6078 66.3742 65.1146 66.3742ZM63.9626 62.6104H66.2667C66.1828 61.9896 65.7578 61.6205 65.1146 61.6205C64.4659 61.6205 64.0464 61.9896 63.9626 62.6104Z" fill="black"/>
<path d="M51.9053 66.24V57.907H54.8805L55.9543 61.1787C56.1165 61.71 56.3737 62.6271 56.5807 63.4157C56.7876 62.6271 57.0393 61.71 57.1959 61.1787L58.2584 57.907H61.2393V66.24H59.2651V62.6327C59.2651 62.0623 59.3098 61.0053 59.3322 60.0154C59.0526 61.0277 58.7674 62.0735 58.5884 62.6327L57.3916 66.24H55.7642L54.545 62.6327C54.3716 62.0958 54.092 61.1004 53.8179 60.1272C53.8403 61.0836 53.8795 62.0847 53.8795 62.6327V66.24H51.9053Z" fill="black"/>
<path d="M96.9414 46.1393V45.2244H102.436V46.1393H100.216V52.2154H99.1701V46.1393H96.9414Z" fill="black"/>
<path d="M90.4854 52.2154V45.2244H91.6396L94.3093 49.4519C94.3906 49.5832 94.5017 49.7693 94.6424 50.0102C94.7832 50.2511 94.924 50.495 95.0647 50.7422C95.0553 50.4888 95.0475 50.2323 95.0413 49.9727C95.0381 49.7099 95.0366 49.5144 95.0366 49.3862V45.2244H96.0829V52.2154H94.9193L92.5311 48.4384C92.4341 48.2851 92.2933 48.0568 92.1088 47.7534C91.9274 47.4468 91.7209 47.0949 91.4894 46.6977C91.5051 47.1074 91.5145 47.4609 91.5176 47.758C91.5238 48.0521 91.527 48.2773 91.527 48.4337V52.2154H90.4854Z" fill="black"/>
<path d="M84.8267 52.2154V45.2244H89.528V46.1393H85.8683V48.1991H89.2559V49.1046H85.8683V51.3005H89.528V52.2154H84.8267Z" fill="black"/>
<path d="M79.6094 52.2154V45.2244H80.651V51.3005H83.9588V52.2154H79.6094Z" fill="black"/>
<path d="M72.5713 52.2154L75.1097 45.2244H76.3671L78.8867 52.2154H77.7559L77.1366 50.3996H74.3167L73.6786 52.2154H72.5713ZM74.6311 49.5128H76.8316L76.4093 48.2742C76.3155 47.9864 76.2154 47.6783 76.109 47.3498C76.0027 47.0214 75.8807 46.6304 75.7431 46.1768C75.6023 46.6304 75.4788 47.0214 75.3724 47.3498C75.2661 47.6783 75.1644 47.9864 75.0674 48.2742L74.6311 49.5128Z" fill="black"/>
<path d="M69.6389 52.2154L67.1006 45.2244H68.222L69.6061 49.1656C69.6906 49.419 69.7875 49.7177 69.897 50.0618C70.0065 50.4059 70.1347 50.8078 70.2818 51.2677C70.4225 50.8078 70.5461 50.4059 70.6524 50.0618C70.7619 49.7177 70.8589 49.419 70.9433 49.1656L72.2899 45.2244H73.3925L70.8917 52.2154H69.6389Z" fill="black"/>
<path d="M63.7785 52.3283C63.1591 52.3283 62.607 52.1766 62.1222 51.8732C61.6374 51.5698 61.2557 51.1475 60.9773 50.6064C60.7021 50.0652 60.5645 49.4381 60.5645 48.7249C60.5645 48.0086 60.7021 47.3799 60.9773 46.8387C61.2557 46.2944 61.6374 45.8706 62.1222 45.5672C62.607 45.2638 63.1591 45.1121 63.7785 45.1121C64.4009 45.1121 64.9546 45.2638 65.4394 45.5672C65.9243 45.8706 66.3043 46.2944 66.5796 46.8387C66.858 47.3799 66.9972 48.0086 66.9972 48.7249C66.9972 49.4381 66.858 50.0652 66.5796 50.6064C66.3043 51.1475 65.9243 51.5698 65.4394 51.8732C64.9546 52.1766 64.4009 52.3283 63.7785 52.3283ZM63.7785 51.3759C64.182 51.3759 64.5479 51.2742 64.8764 51.0709C65.2048 50.8644 65.466 50.5642 65.6599 50.17C65.8539 49.7728 65.9508 49.2911 65.9508 48.7249C65.9508 48.1556 65.8539 47.6723 65.6599 47.2751C65.466 46.8778 65.2048 46.5775 64.8764 46.3742C64.5479 46.1678 64.182 46.0645 63.7785 46.0645C63.3781 46.0645 63.0137 46.1678 62.6852 46.3742C62.3568 46.5775 62.0956 46.8778 61.9017 47.2751C61.7077 47.6723 61.6108 48.1556 61.6108 48.7249C61.6108 49.2911 61.7077 49.7728 61.9017 50.17C62.0956 50.5642 62.3568 50.8644 62.6852 51.0709C63.0137 51.2742 63.3781 51.3759 63.7785 51.3759Z" fill="black"/>
<path d="M57.219 52.3283C56.3807 52.3283 55.7191 52.1172 55.2343 51.6949C54.7526 51.2695 54.5117 50.6877 54.5117 49.9495H55.5533C55.5565 50.4093 55.7035 50.769 55.9944 51.0287C56.2884 51.2883 56.6966 51.4181 57.219 51.4181C57.6944 51.4181 58.0745 51.318 58.3591 51.1178C58.6469 50.9145 58.7908 50.6424 58.7908 50.3014C58.7908 50.0324 58.6876 49.815 58.4811 49.6492C58.2778 49.4803 57.9337 49.338 57.4489 49.2222L56.6841 49.0393C55.9772 48.8703 55.4611 48.6357 55.1358 48.3355C54.8136 48.032 54.6525 47.6379 54.6525 47.1531C54.6525 46.7433 54.7557 46.3852 54.9621 46.0786C55.1686 45.7721 55.4579 45.5343 55.8302 45.3654C56.2055 45.1965 56.6434 45.1121 57.1439 45.1121C57.8978 45.1121 58.4968 45.3091 58.941 45.7033C59.3883 46.0974 59.6229 46.6354 59.6447 47.3173H58.636C58.6109 46.9138 58.4639 46.5979 58.1949 46.3695C57.9259 46.138 57.5709 46.0223 57.1298 46.0223C56.7076 46.0223 56.3619 46.124 56.0929 46.3273C55.8239 46.5275 55.6894 46.7855 55.6894 47.1015C55.6894 47.3548 55.7926 47.5613 55.9991 47.7208C56.2055 47.8772 56.548 48.0133 57.0266 48.129L57.782 48.3073C58.4827 48.4731 58.9988 48.7124 59.3304 49.0252C59.6651 49.338 59.8324 49.7446 59.8324 50.2451C59.8324 50.6643 59.7245 51.0302 59.5087 51.343C59.2928 51.6558 58.9894 51.8982 58.5984 52.0703C58.2074 52.2423 57.7476 52.3283 57.219 52.3283Z" fill="black"/>
<path d="M53.5216 45.2246V52.2157H52.48V45.2246H53.5216Z" fill="black"/>
<path d="M22.9378 71.7104C21.9347 72.4389 21.1732 73.4801 20.7975 74.6911L15.6909 71.0275C16.6942 70.299 17.4555 69.258 17.8312 68.0468L22.9378 71.7104Z" fill="black"/>
<path d="M34.8643 68.0468C35.24 69.2579 36.0015 70.299 37.0046 71.0275L31.898 74.6911C31.5223 73.48 30.761 72.4389 29.7577 71.7104L34.8643 68.0468Z" fill="black"/>
<path d="M28.1827 70.9003C27.606 70.7085 26.9891 70.6046 26.3479 70.6046C25.7068 70.6046 25.0899 70.7085 24.5131 70.9003V66.639C25.0899 66.8309 25.7067 66.935 26.3479 66.935C26.9891 66.935 27.606 66.8309 28.1827 66.639V70.9003Z" fill="black"/>
<path d="M20.541 61.3147C20.5828 62.6153 21.0521 63.8077 21.8129 64.7565L18.0877 66.1332C18.0459 64.8325 17.5767 63.6402 16.8159 62.6914L20.541 61.3147Z" fill="black"/>
<path d="M35.8797 62.6914C35.1189 63.6401 34.6496 64.8326 34.6078 66.1332L30.8827 64.7565C31.6435 63.8076 32.1128 62.6154 32.1545 61.3147L35.8797 62.6914Z" fill="black"/>
<ellipse cx="26.3476" cy="76.4148" rx="4.2812" ry="4.28122" fill="black"/>
<path d="M35.522 44C37.8864 44 39.8032 45.9168 39.8032 48.2812C39.8032 49.6433 39.1669 50.8564 38.1756 51.6406L41.0076 62.0832C43.0915 62.3718 44.696 64.1602 44.696 66.3235C44.696 68.688 42.7792 70.6047 40.4148 70.6047C38.0504 70.6047 36.1336 68.688 36.1336 66.3235C36.1336 64.9615 36.7696 63.748 37.7608 62.9639L34.9286 52.5212C34.8182 52.5059 34.7092 52.4866 34.6016 52.463L30.0051 58.898C30.401 59.5468 30.6292 60.3092 30.6292 61.1249C30.6292 63.4893 28.7124 65.4061 26.348 65.4061C23.9836 65.4061 22.0668 63.4893 22.0668 61.1249C22.0668 60.3093 22.2945 59.5467 22.6903 58.898L18.0938 52.463C17.9862 52.4865 17.8772 52.5059 17.7668 52.5212L14.9349 62.9639C15.9262 63.748 16.5624 64.9614 16.5624 66.3235C16.5624 68.688 14.6456 70.6047 12.2812 70.6047C9.91676 70.6047 8 68.688 8 66.3235C8 64.1603 9.60438 62.372 11.6881 62.0832L14.52 51.6406C13.5289 50.8564 12.8928 49.6432 12.8928 48.2812C12.8928 45.9168 14.8096 44 17.174 44C19.5384 44 21.4552 45.9168 21.4552 48.2812C21.4552 49.0967 21.2271 49.8588 20.8314 50.5075L25.4279 56.9428C25.7243 56.8779 26.0321 56.8437 26.348 56.8437C26.6638 56.8437 26.9715 56.8779 27.2678 56.9428L31.8643 50.5075C31.4687 49.8589 31.2408 49.0966 31.2408 48.2812C31.2408 45.9168 33.1576 44 35.522 44Z" fill="black"/>
<path d="M30.008 46.4465C29.8161 47.0233 29.712 47.6401 29.712 48.2813C29.712 48.9225 29.8161 49.5394 30.008 50.1161H22.6885C22.8803 49.5394 22.9844 48.9225 22.9844 48.2813C22.9844 47.6401 22.8803 47.0233 22.6885 46.4465H30.008Z" fill="black"/>
</svg>
