<svg width="128" height="128" viewBox="0 0 128 128" fill="none" xmlns="http://www.w3.org/2000/svg">
<path d="M87.5023 75.7883V52.2166L67.1754 64.0219L87.5023 75.7883Z" fill="#00445E"/>
<path d="M86.1868 49.9158L65.8245 38.1416V61.7181L86.1868 49.9158Z" fill="#00AEDE"/>
<path d="M63.178 61.7177V38.1411L42.8011 49.9153L63.178 61.7177Z" fill="#00AEDE"/>
<path d="M61.8616 35.8775L41.504 24.0352V47.6466L61.8616 35.8775Z" fill="#00AEDE"/>
<path d="M86.1868 78.0539L65.8245 66.29V89.8629L86.1868 78.0539Z" fill="#00445E"/>
<path d="M63.178 89.8633V66.2893L42.8011 78.0546L63.178 89.8633Z" fill="#00445E"/>
<path d="M110.541 64.0211L90.1489 52.2173V75.7875L110.541 64.0211Z" fill="#00AEDE"/>
<path d="M38.8523 47.6466V24.0352L18.342 35.8775L38.8523 47.6466Z" fill="#00AEDE"/>
<path d="M61.8616 92.1276L41.504 80.3279V103.931L61.8616 92.1276Z" fill="#00445E"/>
<path d="M38.8523 103.932V80.3286L18.342 92.1284L38.8523 103.932Z" fill="#00AEDE"/>
<path d="M61.8616 64.0211L41.504 52.2173V75.7875L61.8616 64.0211Z" fill="#00445E"/>
<path d="M87.5023 47.6466V24.0352L67.1754 35.8775L87.5023 47.6466Z" fill="#00AEDE"/>
<path d="M65.8248 10V33.5688L86.1872 21.769L65.8248 10Z" fill="#00445E"/>
<path d="M42.8011 21.769L63.178 33.5688V10L42.8011 21.769Z" fill="#00445E"/>
<path d="M86.1868 106.196L65.8245 94.4343V117.999L86.1868 106.196Z" fill="#00445E"/>
<path d="M63.178 118V94.4333L42.8011 106.196L63.178 118Z" fill="#00445E"/>
<path d="M111.861 89.8633V66.2893L91.5215 78.0546L111.861 89.8633Z" fill="#00AEDE"/>
<path d="M38.8523 75.7885V52.1797L18.342 64.0221L38.8523 75.7885Z" fill="#00AEDE"/>
<path d="M37.5399 78.0539L17 66.29V89.8629L37.5399 78.0539Z" fill="#00AEDE"/>
<path d="M111.861 61.7177V38.1411L91.5215 49.9153L111.861 61.7177Z" fill="#00AEDE"/>
<path d="M110.541 35.8775L90.1489 24.0352V47.6466L110.541 35.8775Z" fill="#00AEDE"/>
<path d="M110.541 92.1276L90.1489 80.3279V103.931L110.541 92.1276Z" fill="#00AEDE"/>
<path d="M87.5023 103.932V80.3286L67.1754 92.1284L87.5023 103.932Z" fill="#00445E"/>
<path d="M37.5399 49.9158L17 38.1416V61.7181L37.5399 49.9158Z" fill="#00AEDE"/>
</svg>
