<svg width="128" height="128" viewBox="0 0 128 128" fill="none" xmlns="http://www.w3.org/2000/svg">
<path d="M82.7318 57.1722C83.9914 57.0119 85.3233 57.0835 86.4896 57.6156C87.5088 58.0855 88.3236 58.9088 88.7826 59.933C89.2688 61.0119 89.3857 62.2241 89.3041 63.392C89.2231 64.5341 88.8651 65.6788 88.1508 66.5863C87.4196 67.5499 86.3172 68.2029 85.1371 68.4457C84.1235 68.6567 83.0765 68.6567 82.0629 68.4457C80.853 68.1876 79.7384 67.4885 79.0306 66.4681C78.1996 65.2865 77.9631 63.7854 78.0687 62.3705C78.1402 61.1692 78.5138 59.9588 79.2806 59.017C80.1204 57.9621 81.4087 57.3392 82.7318 57.1722ZM103.654 57.1703C104.964 57.0077 106.355 57.096 107.55 57.6996C108.595 58.2371 109.4 59.1481 109.805 60.2513C110.121 61.0844 110.234 61.9837 110.213 62.8715C110.215 64.1968 109.858 65.5576 109.026 66.6088C108.247 67.6263 107.056 68.2877 105.798 68.4955C104.568 68.693 103.267 68.642 102.101 68.182C100.905 67.7064 99.9455 66.7763 99.434 65.5951C98.9143 64.4018 98.852 63.0585 99.0219 61.7836C99.1918 60.5087 99.7693 59.2621 100.753 58.4144C101.56 57.7067 102.598 57.3059 103.654 57.1703ZM93.6215 57.1947C94.8351 56.9812 96.1055 57.1385 97.2543 57.5736V59.9867C96.4451 59.4294 95.4796 59.144 94.4974 59.1722C94.0069 59.1912 93.4673 59.3991 93.2435 59.8656C93.0658 60.327 93.1893 60.9322 93.6244 61.2084C94.3686 61.7061 95.2563 61.9176 96.0297 62.3637C96.6368 62.7047 97.2259 63.1506 97.5336 63.7933C98.1117 64.9976 97.8671 66.5896 96.851 67.4877C95.8807 68.3945 94.4829 68.6452 93.1976 68.5971C92.285 68.538 91.3677 68.358 90.5287 67.9847C90.5287 67.1386 90.5241 66.2931 90.5336 65.4476C91.2385 65.9673 92.0537 66.3186 92.9154 66.475C93.5152 66.5726 94.1679 66.5772 94.7269 66.309C95.2616 66.0428 95.3578 65.2828 95.0404 64.8178C94.743 64.4591 94.3058 64.2607 93.8939 64.0668C93.1206 63.7191 92.3076 63.4287 91.6283 62.9076C91.1433 62.5357 90.7978 62.0108 90.6478 61.4183C90.4379 60.5436 90.5018 59.5617 91.0121 58.7992C91.5953 57.9107 92.5987 57.3779 93.6244 57.1957L93.6215 57.1947ZM113.926 52.557C115.045 51.8281 116.49 51.7609 117.751 52.1078C117.762 52.857 117.752 53.6069 117.757 54.3568C117.158 54.0929 116.452 53.9198 115.822 54.1801C115.322 54.3784 115.025 54.8916 114.948 55.4047C114.854 56.0557 114.915 56.7173 114.899 57.3734H118.739C118.748 56.5424 118.728 55.7103 118.749 54.8793C119.62 54.6314 120.481 54.3531 121.347 54.0922C121.354 55.1856 121.337 56.2836 121.357 57.3793C122.222 57.3669 123.088 57.3793 123.954 57.3734V59.5033C123.086 59.4676 122.215 59.4935 121.346 59.4906C121.35 60.7159 121.346 61.9413 121.346 63.1674C121.36 63.8461 121.31 64.5292 121.389 65.2094C121.437 65.6079 121.583 66.049 121.956 66.2553C122.583 66.6059 123.377 66.4535 123.953 66.0687V68.2211C123.203 68.5469 122.364 68.6458 121.553 68.5853C120.783 68.5285 119.985 68.249 119.483 67.6381C118.9 66.9463 118.754 66.0094 118.742 65.1332C118.735 63.2524 118.742 61.3711 118.742 59.4896H114.9V68.3451H112.276V59.4926C111.667 59.4809 111.057 59.4932 110.449 59.4838C110.449 58.7832 110.454 58.0815 110.449 57.3803C111.054 57.3664 111.661 57.3722 112.271 57.3803C112.315 56.4486 112.173 55.49 112.452 54.5824C112.686 53.7527 113.211 53.0352 113.932 52.5619L113.926 52.557ZM64.9457 57.3607C66.2216 57.0052 67.5713 57.0093 68.8451 57.3724C69.1071 57.4437 69.3591 57.5491 69.5941 57.6849C69.5795 58.521 69.5933 59.3579 69.5853 60.1947C68.739 59.5482 67.6651 59.1382 66.5892 59.2738C66.1617 59.3126 65.7468 59.4404 65.3715 59.6488C64.996 59.8573 64.6676 60.1422 64.4086 60.4847C63.7526 61.3405 63.6003 62.4771 63.7133 63.5238C63.7978 64.3431 64.1367 65.1624 64.7738 65.7055C65.4356 66.2937 66.3639 66.5017 67.2299 66.434C68.0857 66.3356 68.8935 65.9731 69.5853 65.4672C69.5926 66.2596 69.5817 67.0527 69.5912 67.8451C68.5182 68.4835 67.2315 68.6463 66.0033 68.5873C64.7465 68.5209 63.4932 68.045 62.5834 67.1615C61.595 66.2087 61.0589 64.8496 60.9955 63.4887C60.9314 62.0738 61.2194 60.598 62.0336 59.4164C62.7159 58.4082 63.7832 57.6941 64.9496 57.3588L64.9457 57.3607ZM37.6039 53.0346H41.4213C42.6095 56.0516 43.8004 59.0678 44.9935 62.0834C45.2975 62.8379 45.5822 63.6013 45.9008 64.35C47.4316 60.5797 48.9801 56.8188 50.4935 53.0433C51.7173 53.0237 52.9419 53.0384 54.1664 53.0355C54.1635 58.1383 54.1635 63.2414 54.1664 68.3441C53.2829 68.3441 52.3997 68.3516 51.517 68.3392C51.5264 64.5742 51.5175 60.8091 51.5219 57.0404C51.5219 56.8713 51.5169 56.7017 51.5052 56.5297C51.4537 56.608 51.4077 56.6901 51.3676 56.7748C49.8505 60.6289 48.306 64.4727 46.7963 68.3305C46.1679 68.353 45.5386 68.3295 44.9095 68.3412C43.3445 64.4874 41.7993 60.6247 40.2445 56.768C40.2037 56.6878 40.1591 56.6096 40.1117 56.5346C40.0796 58.1841 40.1068 59.8352 40.098 61.4847V68.3373H37.599V53.0287L37.6039 53.0346ZM59.2406 57.3783C59.2304 61.0326 59.2411 64.6879 59.2367 68.3422H56.6302V57.3734H56.6283C57.4987 57.3698 58.3702 57.3615 59.2406 57.3783ZM75.4613 57.5385C76.1859 57.1011 77.1069 57.0664 77.8978 57.3324V59.9574C77.3697 59.6237 76.7449 59.4768 76.1234 59.5404C75.3786 59.625 74.788 60.196 74.4818 60.8519C74.1494 61.5466 74.0867 62.3326 74.1078 63.0922V68.3412H71.5199V57.3754C72.3838 57.3644 73.2478 57.3688 74.1117 57.3754V59.2592C74.3924 58.5761 74.8099 57.9119 75.4681 57.5394L75.4613 57.5385ZM83.515 59.2562C82.8873 59.2912 82.2526 59.5005 81.7875 59.9379C81.1462 60.5189 80.8533 61.3851 80.7738 62.2269C80.6864 63.1505 80.7495 64.129 81.1722 64.973C81.336 65.3019 81.5675 65.5927 81.851 65.8265C82.1344 66.0603 82.4637 66.2323 82.8177 66.3305C83.5235 66.5208 84.271 66.4873 84.9574 66.2357C85.536 65.9978 85.9993 65.5435 86.2474 64.9691C86.6265 64.1323 86.6632 63.1907 86.6166 62.2875C86.5517 61.4624 86.3167 60.5976 85.7103 60.0013C85.1432 59.4277 84.3037 59.2045 83.515 59.2562ZM104.365 59.2553C103.639 59.2961 102.918 59.6086 102.449 60.1742C101.934 60.7822 101.713 61.5824 101.654 62.3617C101.592 63.1662 101.653 63.9993 101.964 64.7513C102.224 65.3827 102.716 65.9323 103.35 66.2006C103.937 66.4534 104.6 66.4987 105.228 66.4047C105.811 66.3186 106.38 66.0363 106.758 65.5795C107.136 65.1225 107.336 64.5464 107.437 63.9691V63.9701C107.568 63.1933 107.561 62.3995 107.415 61.6254C107.284 60.965 106.994 60.3128 106.468 59.8754C105.896 59.3746 105.106 59.2035 104.365 59.2553ZM57.722 52.7094C58.2511 52.6293 58.8236 52.8102 59.1742 53.224C59.3756 53.4553 59.5019 53.7432 59.5345 54.0482C59.5671 54.3531 59.5048 54.6605 59.3568 54.9291C59.0201 55.5267 58.2638 55.8041 57.6078 55.6586C56.9262 55.5361 56.3574 54.9021 56.3881 54.1957C56.3685 53.4523 56.9904 52.7898 57.7191 52.7064L57.722 52.7094Z" fill="#777777"/>
<path d="M3.87601 47H16.7203C16.7203 51.2814 16.7203 55.5627 16.7203 59.8441H3.87601V47Z" fill="#F25022"/>
<path d="M18.0321 47H30.8764C30.8764 51.2814 30.8764 55.5627 30.8764 59.8441H18.0328C18.0328 55.5627 18.0328 51.2814 18.0328 47H18.0321Z" fill="#80BA01"/>
<path d="M3.87601 61.1536C8.15745 61.1536 12.4389 61.1536 16.7203 61.1536C16.7203 65.4349 16.7203 69.7161 16.7203 73.9969H3.87601V61.1536Z" fill="#02A4EF"/>
<path d="M18.0328 61.1558C22.3133 61.1558 26.5944 61.1558 30.8764 61.1558V73.9999H18.0321C18.0321 69.7185 18.0321 65.4374 18.0321 61.1565L18.0328 61.1558Z" fill="#FFB902"/>
</svg>
