<svg width="128" height="128" viewBox="0 0 128 128" fill="none" xmlns="http://www.w3.org/2000/svg">
<path d="M95.7578 97.8398C97.5577 97.6165 99.4696 97.7371 101.112 98.5664C102.548 99.3049 103.654 100.556 104.21 102.072C104.644 103.217 104.8 104.453 104.771 105.673C104.774 107.494 104.282 109.363 103.14 110.808C102.07 112.206 100.433 113.114 98.7051 113.399C97.0154 113.671 95.2276 113.602 93.625 112.97C91.9814 112.316 90.6638 111.038 89.9609 109.415C89.2468 107.775 89.1602 105.931 89.3936 104.179C89.6269 102.427 90.4203 100.714 91.7725 99.5488C92.8801 98.5764 94.3066 98.0262 95.7578 97.8398ZM67.0117 97.8428C68.7424 97.6224 70.5723 97.7202 72.1748 98.4512C73.5752 99.0969 74.6946 100.228 75.3252 101.636C75.9933 103.118 76.1552 104.783 76.043 106.388C75.9317 107.957 75.4385 109.529 74.457 110.776C73.4524 112.1 71.938 112.998 70.3164 113.332C68.9239 113.622 67.4863 113.622 66.0938 113.332C64.4311 112.977 62.8993 112.016 61.9268 110.614C60.785 108.991 60.4603 106.928 60.6055 104.984C60.7036 103.334 61.2168 101.671 62.2705 100.377C63.4244 98.9276 65.1938 98.0722 67.0117 97.8428ZM81.9736 97.873C83.6413 97.5796 85.3873 97.7956 86.9658 98.3936V101.709C85.854 100.943 84.5272 100.551 83.1777 100.59C82.5038 100.616 81.7627 100.901 81.4551 101.542C81.2107 102.176 81.3796 103.008 81.9775 103.388C83.0002 104.072 84.2205 104.362 85.2832 104.975C86.1176 105.443 86.9269 106.057 87.3496 106.94C88.1437 108.595 87.8073 110.782 86.4111 112.016C85.078 113.262 83.1574 113.606 81.3916 113.54C80.1376 113.459 78.8774 113.211 77.7246 112.698C77.7246 111.535 77.7175 110.374 77.7305 109.212C78.6991 109.926 79.8188 110.409 81.0029 110.624C81.8273 110.758 82.7239 110.764 83.4922 110.396C84.2273 110.03 84.3595 108.986 83.9229 108.347C83.5142 107.854 82.9145 107.582 82.3486 107.315C81.2859 106.838 80.1689 106.438 79.2354 105.722C78.569 105.211 78.0947 104.49 77.8887 103.676C77.6002 102.474 77.6877 101.126 78.3887 100.078C79.1899 98.8572 80.5683 98.1245 81.9775 97.874L81.9736 97.873ZM109.872 91.5C111.41 90.4984 113.396 90.4061 115.129 90.8828C115.144 91.9125 115.129 92.9439 115.136 93.9746C114.313 93.6121 113.344 93.3731 112.478 93.7305C111.791 94.0029 111.382 94.7081 111.275 95.4131C111.146 96.3075 111.23 97.2167 111.208 98.1182H116.484C116.497 96.9763 116.471 95.8332 116.5 94.6914C117.696 94.3509 118.879 93.9689 120.068 93.6104C120.078 95.1128 120.055 96.6205 120.082 98.126C121.271 98.109 122.461 98.1262 123.65 98.1182V101.045C122.456 100.996 121.261 101.031 120.067 101.027C120.072 102.711 120.067 104.395 120.067 106.08C120.086 107.012 120.018 107.95 120.127 108.885C120.193 109.433 120.393 110.039 120.906 110.322C121.767 110.804 122.858 110.594 123.648 110.065V113.023C122.618 113.471 121.466 113.607 120.352 113.523C119.294 113.445 118.198 113.061 117.508 112.222C116.707 111.271 116.506 109.984 116.489 108.78C116.48 106.196 116.489 103.612 116.489 101.026H111.21V113.193H107.604V101.03C106.768 101.014 105.931 101.031 105.095 101.018C105.095 100.055 105.102 99.0915 105.095 98.1279C105.927 98.1089 106.76 98.1169 107.599 98.1279C107.66 96.8479 107.464 95.5302 107.847 94.2832C108.168 93.1431 108.891 92.1571 109.881 91.5068L109.872 91.5ZM42.5732 98.1025C44.3265 97.614 46.1813 97.6191 47.9316 98.1182C48.2915 98.2161 48.6371 98.3603 48.96 98.5469C48.9399 99.6956 48.9602 100.845 48.9492 101.995C47.7863 101.107 46.3104 100.544 44.832 100.73C44.2444 100.784 43.674 100.96 43.1582 101.246C42.6425 101.533 42.1927 101.924 41.8369 102.395C40.9354 103.57 40.7256 105.132 40.8809 106.57C40.9971 107.696 41.4628 108.82 42.3379 109.566C43.2474 110.375 44.5229 110.662 45.7129 110.568C46.8888 110.433 47.9987 109.935 48.9492 109.24C48.9592 110.329 48.944 111.418 48.957 112.507C47.4827 113.384 45.715 113.608 44.0273 113.527C42.3005 113.436 40.5782 112.782 39.3281 111.568C37.9699 110.259 37.2327 108.392 37.1455 106.521C37.0574 104.577 37.4535 102.549 38.5723 100.926C39.5098 99.5406 40.9765 98.5603 42.5791 98.0996L42.5732 98.1025ZM5.00684 92.1572H10.252C11.8846 96.3025 13.5209 100.447 15.1602 104.59C15.5778 105.627 15.9685 106.675 16.4062 107.704C18.5096 102.524 20.6365 97.3563 22.7158 92.1689C24.3976 92.1419 26.0809 92.1632 27.7637 92.1592C27.7597 99.1704 27.7597 106.182 27.7637 113.193C26.5497 113.193 25.336 113.203 24.123 113.186C24.1361 108.012 24.1239 102.839 24.1299 97.6611C24.1299 97.4289 24.1234 97.1962 24.1074 96.96C24.0367 97.0675 23.9731 97.1796 23.918 97.2959C21.8336 102.591 19.7111 107.872 17.6367 113.173C16.7735 113.204 15.9092 113.172 15.0449 113.188C12.8945 107.893 10.7702 102.586 8.63379 97.2861C8.57776 97.1761 8.51814 97.0689 8.45312 96.9658C8.40906 99.2324 8.44561 101.501 8.43359 103.768V113.183H5V92.1484L5.00684 92.1572ZM31.1465 98.1191C32.3424 98.1141 33.5394 98.102 34.7354 98.125C34.7213 103.146 34.7355 108.168 34.7295 113.189H31.1484V98.1191H31.1465ZM57.0225 98.3457C58.018 97.7448 59.2834 97.697 60.3701 98.0625V101.669C59.6447 101.21 58.7863 101.008 57.9326 101.096C56.9091 101.212 56.0975 101.997 55.6768 102.898C55.22 103.853 55.1341 104.933 55.1631 105.977V113.188H51.6064V98.1211C52.7934 98.1061 53.981 98.1121 55.168 98.1211V100.709C55.5535 99.7707 56.1271 98.8595 57.0312 98.3477L57.0225 98.3457ZM68.0879 100.705C67.2255 100.753 66.3539 101.041 65.7148 101.642C64.8334 102.44 64.4305 103.63 64.3213 104.787C64.2012 106.056 64.2884 107.4 64.8691 108.56C65.094 109.011 65.4115 109.411 65.8008 109.732C66.1902 110.054 66.6434 110.29 67.1299 110.425C68.0995 110.686 69.1264 110.641 70.0693 110.296C70.8644 109.969 71.5008 109.344 71.8418 108.555C72.3625 107.405 72.4137 106.112 72.3496 104.871C72.2605 103.737 71.9379 102.548 71.1045 101.729C70.3253 100.94 69.1715 100.634 68.0879 100.705ZM96.7344 100.704C95.737 100.76 94.7475 101.19 94.1025 101.967C93.3954 102.802 93.0919 103.901 93.0098 104.972C92.9246 106.077 93.0099 107.222 93.4375 108.256C93.7941 109.123 94.4694 109.877 95.3408 110.246C96.1481 110.594 97.0575 110.657 97.9209 110.527C98.7221 110.409 99.5046 110.021 100.024 109.394C100.479 108.844 100.746 108.169 100.898 107.478L100.957 107.183C101.138 106.115 101.127 105.024 100.927 103.96C100.746 103.053 100.347 102.158 99.625 101.557C98.8387 100.869 97.753 100.633 96.7344 100.704ZM32.6484 91.7109C33.3756 91.6008 34.1627 91.849 34.6445 92.418C34.9212 92.7357 35.0939 93.1308 35.1387 93.5498C35.1834 93.9688 35.0979 94.3917 34.8945 94.7607C34.4317 95.5818 33.3925 95.962 32.4912 95.7617C31.5547 95.5935 30.7744 94.7235 30.8164 93.7529C30.7894 92.7313 31.6439 91.8202 32.6455 91.7061L32.6484 91.7109Z" fill="#777777"/>
<path d="M33 14H63.4113C63.4113 24.137 63.4113 34.274 63.4113 44.4109H33V14Z" fill="#F25022"/>
<path d="M66.5172 14H96.9285C96.9285 24.137 96.9285 34.274 96.9285 44.4109H66.519C66.519 34.274 66.519 24.137 66.519 14H66.5172Z" fill="#80BA01"/>
<path d="M33 47.5107C43.1371 47.5107 53.2742 47.5107 63.4113 47.5107C63.4113 57.6477 63.4113 67.7841 63.4113 77.9199H33V47.5107Z" fill="#02A4EF"/>
<path d="M66.519 47.5166C76.6536 47.5166 86.7901 47.5166 96.9285 47.5166V77.9275H66.5172C66.5172 67.7906 66.5172 57.6542 66.5172 47.5184L66.519 47.5166Z" fill="#FFB902"/>
</svg>
