<svg width="128" height="128" viewBox="0 0 128 128" fill="none" xmlns="http://www.w3.org/2000/svg">
<path d="M11 11H61.4259C61.4259 27.8084 61.4259 44.6167 61.4259 61.4251H11V11Z" fill="#F25022"/>
<path d="M66.5756 11H117.002C117.002 27.8084 117.002 44.6167 117.002 61.4251H66.5787C66.5787 44.6167 66.5787 27.8084 66.5787 11H66.5756Z" fill="#80BA01"/>
<path d="M11 66.5659C27.8086 66.5659 44.6173 66.5659 61.4259 66.5659C61.4259 83.3743 61.4259 100.182 61.4259 116.988H11V66.5659Z" fill="#02A4EF"/>
<path d="M66.5787 66.5747C83.3832 66.5747 100.191 66.5747 117.002 66.5747V117H66.5756C66.5756 100.191 66.5756 83.3841 66.5756 66.5777L66.5787 66.5747Z" fill="#FFB902"/>
</svg>
