<svg width="128" height="128" viewBox="0 0 128 128" fill="none" xmlns="http://www.w3.org/2000/svg">
<path d="M83.7264 115H44.1476C42.2217 114.882 40.3734 114.199 38.8343 113.035C38.2348 112.595 37.6928 112.081 37.2211 111.506L26.9843 98.7847L14.1711 82.8676C13.7583 82.3553 13.3302 81.8508 12.9403 81.3385C11.5267 79.4631 10.847 77.1358 11.029 74.7943C11.1099 74.0201 11.2505 73.2533 11.4495 72.5008C12.5096 67.9137 13.5672 63.3266 14.6222 58.7396C15.5243 54.8406 16.4239 50.9415 17.3209 47.0425C18.1542 43.4264 18.9722 39.8103 19.8209 36.2018C20.1301 34.7507 20.7754 33.3924 21.7048 32.2359C22.6342 31.0794 23.8219 30.1571 25.1724 29.5429C29.1861 27.601 33.2151 25.7203 37.2288 23.7708C44.5834 20.2591 51.9329 16.7449 59.2773 13.2282C60.2712 12.7303 61.3283 12.3702 62.4195 12.1579C64.2506 11.815 66.1427 12.0335 67.8475 12.7848C68.9484 13.2588 70.0187 13.8016 71.1043 14.3138L95.4158 25.9879L102.809 29.5352C104.929 30.5287 106.612 32.2636 107.541 34.4128C107.862 35.1737 108.106 35.9652 108.267 36.7751C109.2 40.8525 110.14 44.9299 111.088 49.0073C112.271 54.1754 113.458 59.3486 114.651 64.5269C115.331 67.4703 116.035 70.406 116.684 73.3494C117.038 74.7804 117.05 76.2743 116.721 77.711C116.392 79.1477 115.73 80.4871 114.789 81.6214C110.614 86.8354 106.43 92.0366 102.235 97.2251L90.7752 111.361C89.2227 113.324 86.9649 114.602 84.4833 114.924C84.231 114.962 83.9787 114.977 83.7264 115ZM64.0249 111.728H82.9542C83.4071 111.735 83.8597 111.705 84.3074 111.636C85.8387 111.392 87.2309 110.605 88.2294 109.419C88.604 108.976 88.9939 108.517 89.3226 108.058C92.4571 104.175 95.5865 100.288 98.7108 96.3994L107.357 85.658C109.047 83.5556 110.752 81.4685 112.426 79.3508C113.035 78.6017 113.461 77.7213 113.67 76.7792C113.88 75.8372 113.867 74.8592 113.634 73.9228C113.122 71.6292 112.594 69.3816 112.067 67.111L108.244 50.3529L105.423 38.1207C105.278 37.5091 105.163 36.8822 104.98 36.2859C104.715 35.4002 104.265 34.5813 103.658 33.8838C103.052 33.1863 102.303 32.6264 101.463 32.2416C99.4983 31.2783 97.5258 30.3532 95.5534 29.4205L69.4147 16.9743L66.9607 15.8046C65.6995 15.2064 64.2846 15.0116 62.9087 15.2465C62.264 15.3321 61.6354 15.5124 61.0433 15.7817L42.351 24.7188L26.6174 32.2416C25.6993 32.661 24.8929 33.2906 24.2633 34.0795C23.6337 34.8685 23.1988 35.7945 22.9936 36.7828C22.2749 39.8408 21.5945 42.853 20.8912 45.8958L17.9937 58.3038C16.8775 63.1661 15.7588 68.0233 14.6375 72.8754C14.4574 73.5308 14.3371 74.2012 14.2781 74.8784C14.188 76.5716 14.7333 78.2374 15.8072 79.5496L25.226 91.2543L39.6141 109.129C40.0018 109.627 40.4543 110.072 40.9596 110.451C42.128 111.29 43.5354 111.729 44.9733 111.705L64.0249 111.728Z" fill="#336EE6"/>
<path d="M24.0646 69.1441C23.9216 69.0074 23.7526 68.9008 23.5676 68.8307C22.8634 68.5226 22.1965 68.1353 21.5799 67.6763C21.0937 67.3829 20.6639 67.0048 20.3108 66.5601C19.9811 66.1226 19.7594 65.6134 19.6638 65.0741C19.5681 64.5347 19.6012 63.9803 19.7604 63.4562C19.9365 62.8934 20.2838 62.3994 20.7538 62.0432C21.2238 61.6869 21.7931 61.486 22.3826 61.4685C22.8744 61.4421 23.3663 61.5176 23.8276 61.6902C23.8951 61.729 23.9714 61.7501 24.0493 61.7513C24.3886 61.9466 24.7064 62.1772 24.9973 62.4394C25.2037 62.6458 25.456 62.8064 25.6777 62.9975C26.0222 63.3216 26.344 63.669 26.641 64.0372C26.8244 64.2436 27.0538 64.3965 27.222 64.6106C27.5202 64.9929 27.8718 65.3216 28.2006 65.6733C29.2486 66.8299 30.4087 67.8799 31.6638 68.8078C31.8467 68.9583 32.0621 69.0643 32.2929 69.1173C32.5238 69.1704 32.7638 69.1691 32.9941 69.1136C33.1357 69.0693 33.2865 69.0629 33.4314 69.0951C33.5763 69.1273 33.7102 69.1969 33.8197 69.2971C33.9695 69.4238 34.1308 69.5365 34.3014 69.6334C34.5154 69.7787 34.5231 69.7787 34.7142 69.5876C35.5246 68.7696 36.335 67.9592 37.1989 67.2023C37.8258 66.6671 38.4527 66.132 39.1101 65.635C40.0276 64.924 40.9679 64.2589 41.9465 63.632C42.9251 63.0051 44.0948 62.3324 45.211 61.7513C45.6697 61.5067 46.1437 61.285 46.61 61.0633C47.5809 60.6122 48.5672 60.207 49.5763 59.8324C49.8854 59.7378 50.1869 59.6203 50.4784 59.4807C50.5865 59.4735 50.6926 59.4476 50.7919 59.4043C51.7399 59.0832 52.7032 58.8079 53.6741 58.5557C55.2354 58.1592 56.8215 57.8681 58.4217 57.6841L60.2642 57.4624C60.4018 57.4624 60.4553 57.4089 60.463 57.2713C60.463 57.0037 60.5012 56.7438 60.5165 56.5068C60.5117 56.3893 60.534 56.2724 60.5817 56.165C60.6295 56.0576 60.7013 55.9626 60.7917 55.8875C60.9003 55.8006 61.0002 55.7033 61.0899 55.597C61.3696 55.3175 61.545 54.9505 61.5868 54.5573C61.6774 53.5571 61.6646 52.5503 61.5486 51.5527C61.4874 50.8953 61.411 50.2378 61.3345 49.5879C61.2903 48.9514 61.1801 48.3211 61.0058 47.7073C60.9491 47.5086 60.9031 47.3069 60.8682 47.1033C60.7612 46.4516 60.7228 45.7905 60.7535 45.1308C60.7387 44.5916 60.8581 44.0571 61.101 43.5753C61.3438 43.0936 61.7025 42.6798 62.1449 42.371C62.488 42.0955 62.8896 41.902 63.3188 41.8053C63.7481 41.7086 64.1938 41.7112 64.6219 41.8129C65.1496 41.9408 65.6365 42.1999 66.0374 42.5661C66.4383 42.9322 66.7403 43.3937 66.9154 43.9076C67.168 44.6791 67.2284 45.5005 67.0913 46.3005C67.0251 47.0631 66.8895 47.818 66.6861 48.5559C66.6602 48.6507 66.6449 48.7481 66.6402 48.8464C66.5791 49.5344 66.5256 50.2225 66.4568 50.9029C66.3194 52.0954 66.2657 53.2961 66.2962 54.4961C66.3055 54.8823 66.4396 55.2551 66.6785 55.5588C66.8449 55.7559 67.0236 55.9423 67.2136 56.1169C67.3006 56.1956 67.3528 56.3056 67.3589 56.4227C67.3589 56.7285 67.3971 57.0267 67.42 57.3325C67.443 57.6383 67.42 57.5847 67.6723 57.6C68.5056 57.6688 69.3313 57.7835 70.157 57.9211C71.9821 58.2115 73.7854 58.6252 75.5545 59.1596C75.8872 59.2811 76.2267 59.3832 76.5712 59.4654C76.6198 59.4955 76.671 59.5211 76.7242 59.5419C77.741 59.8706 78.7425 60.2682 79.7287 60.6734C80.5467 61.0174 81.3418 61.392 82.1369 61.7895C82.932 62.1871 83.9258 62.7299 84.7897 63.2574C85.9365 63.9455 87.0476 64.6845 88.123 65.4745C88.8875 66.0326 89.5909 66.6595 90.2942 67.2787C90.9976 67.898 91.7086 68.5249 92.3737 69.1977L92.9777 69.8016C93.1841 70.0081 93.1917 70.008 93.4287 69.8551L94.285 69.2818C94.3394 69.2391 94.4042 69.2116 94.4727 69.2022C94.5412 69.1928 94.611 69.2018 94.6749 69.2283C94.9225 69.3111 95.1863 69.3336 95.4443 69.2937C95.7023 69.2538 95.9471 69.1527 96.158 68.9989C96.6762 68.6423 97.1739 68.2569 97.6488 67.8445C98.3063 67.2711 98.9562 66.6824 99.5601 66.0555C99.7742 65.8415 99.9577 65.5892 100.187 65.3904C100.459 65.1529 100.714 64.8975 100.952 64.6259C101.181 64.3659 101.418 64.1213 101.64 63.8614C101.874 63.5873 102.13 63.3317 102.404 63.0969C102.604 62.9565 102.787 62.7922 102.947 62.6076C103.439 62.2512 103.994 61.9918 104.583 61.8431C105.337 61.6592 106.132 61.7685 106.808 62.1489C107.226 62.3746 107.578 62.7042 107.831 63.106C108.084 63.5078 108.229 63.9681 108.253 64.4424C108.292 64.9592 108.218 65.4783 108.038 65.964C107.857 66.4497 107.573 66.8904 107.205 67.2558C106.616 67.8468 105.944 68.349 105.21 68.7466C104.545 69.1289 103.849 69.4576 103.199 69.8704C103.107 69.924 103.023 69.9928 102.932 70.0539C102.744 70.1333 102.566 70.236 102.404 70.3597C101.31 70.9988 100.267 71.7222 99.2849 72.5233C99.0284 72.7084 98.8167 72.9487 98.6657 73.2266C98.4971 73.5693 98.4082 73.9457 98.4057 74.3275C98.4124 74.4011 98.4021 74.4752 98.3756 74.5441C98.3491 74.6131 98.3071 74.675 98.2528 74.7251C98.0693 74.878 97.9088 75.0462 97.7253 75.1991C97.3583 75.4896 97.3583 75.5049 97.6106 75.8948C98.3216 76.9957 98.9638 78.1348 99.5601 79.2969C100.011 80.1608 100.401 81.0476 100.822 81.9344C100.795 82.0188 100.748 82.0951 100.684 82.1562L94.9654 89.3502L94.8431 89.4725C94.7131 89.1514 94.6443 88.815 94.5449 88.4863C93.9389 86.5124 93.1533 84.5982 92.1979 82.7677C91.9456 82.2938 91.6704 81.8274 91.4334 81.3611C91.3416 81.1929 91.311 81.1852 91.1428 81.3152C90.9746 81.4452 90.6994 81.6974 90.4777 81.8962C89.8814 82.4466 89.2774 82.9895 88.6658 83.5399L86.9075 85.0613L85.1414 86.6591C84.5451 87.1866 83.9564 87.7218 83.3678 88.2569L81.5941 89.8471C81.0895 90.2982 80.6002 90.7722 80.0651 91.2156C79.7975 91.445 79.5528 91.6973 79.3006 91.919C79.0497 92.1099 78.8282 92.3366 78.6431 92.5917C78.2773 93.1114 78.1266 93.7524 78.2226 94.3807C78.273 94.8305 78.4342 95.2608 78.6917 95.633C78.9492 96.0053 79.295 96.3079 79.6981 96.5137C80.0996 96.7006 80.5199 96.8441 80.9519 96.9418L85.539 98.2644L87.4044 98.7919C87.0604 99.3041 86.6399 99.7705 86.2653 100.26L84.2622 102.775C83.2748 104.075 81.8384 104.961 80.2333 105.26C79.8365 105.325 79.435 105.355 79.033 105.351H69.9123C62.9808 105.351 56.0517 105.367 49.1253 105.397C47.606 105.422 46.1261 104.914 44.9434 103.96C44.4646 103.549 44.0315 103.088 43.6514 102.584L40.5933 98.8225C40.561 98.7848 40.5328 98.7438 40.5092 98.7002C40.5833 98.6368 40.6731 98.5945 40.7692 98.5778L42.8563 97.9586L47.5504 96.613C48.1148 96.4601 48.6024 96.1032 48.9189 95.6115C49.133 95.3001 49.2819 94.9485 49.3568 94.5781C49.4317 94.2076 49.431 93.8258 49.3546 93.4556C49.2558 92.9327 48.9871 92.457 48.5901 92.1024C48.3531 91.896 48.1238 91.682 47.8868 91.4832C47.1222 90.8563 46.4418 90.2065 45.7232 89.5643C45.2033 89.1056 44.6758 88.6468 44.1942 88.1805C43.4297 87.5077 42.7186 86.8502 41.9771 86.2004C41.4496 85.7417 40.9297 85.2754 40.4098 84.809L38.1927 82.8289L36.4344 81.2387C36.2815 81.1088 36.2738 81.1011 36.1591 81.2922C35.9604 81.6133 35.7693 81.9344 35.5934 82.2555C35.2188 82.9359 34.8671 83.6316 34.5384 84.335C34.1179 85.2601 33.7739 86.1928 33.3993 87.1484C33.2081 87.6912 33.0246 88.2417 32.8641 88.7998C32.8641 88.8915 32.8641 89.0291 32.7035 89.052C32.1302 88.3563 31.5568 87.6606 30.991 86.9573L27.0232 82.0644L26.9085 81.8962C27.1532 81.2464 27.4514 80.6195 27.7495 79.9849C28.1165 79.2204 28.514 78.4559 28.9345 77.6914C29.355 76.9269 29.8519 76.0706 30.3718 75.2985C30.4865 75.1226 30.4865 75.0615 30.3106 74.9239C30.1623 74.7807 30.0067 74.6455 29.8443 74.5187C29.6887 74.4186 29.5674 74.2736 29.4964 74.1029C29.4253 73.9322 29.408 73.7438 29.4467 73.563C29.4597 73.2564 29.368 72.9545 29.1868 72.7068C28.9811 72.4449 28.7421 72.211 28.4758 72.0111C27.9382 71.5702 27.3767 71.1593 26.7939 70.7802C26.144 70.3521 25.4789 69.9469 24.8214 69.5417C24.5819 69.3861 24.3286 69.2531 24.0646 69.1441ZM59.8055 66.4531V66.132C59.8055 65.9026 59.8055 65.895 59.5685 65.9332C58.8881 66.0632 58.2077 66.2008 57.5196 66.3155C56.2554 66.5404 55.0086 66.8546 53.7888 67.2558C52.583 67.6479 51.4011 68.1099 50.2491 68.6396C47.7565 69.7835 45.4272 71.2541 43.3226 73.0126C42.6396 73.5745 41.9864 74.1716 41.3655 74.8015C41.2279 74.9391 41.2355 74.9544 41.3655 75.0691L42.2523 75.696L44.9128 77.5996L48.4143 80.0996L52.512 83.0124C53.2077 83.5093 53.9187 83.991 54.5915 84.5414C54.8858 84.7719 55.2294 84.9311 55.5955 85.0067C55.9615 85.0823 56.3401 85.0722 56.7016 84.9772C57.3013 84.8422 57.8401 84.514 58.2351 84.043C58.6301 83.572 58.8595 82.9843 58.8881 82.3702C58.9416 81.7357 58.9722 81.1011 59.0028 80.4666L59.1174 78.3489C59.1557 77.6532 59.2015 76.9575 59.2398 76.2694L59.3544 74.2129C59.3927 73.4942 59.4385 72.7832 59.4768 72.0646C59.515 71.3459 59.5609 70.6579 59.5914 69.9545C59.5914 69.4041 59.6908 68.8536 59.6679 68.3032C59.6603 68.2653 59.6603 68.2264 59.6679 68.1885C59.7826 67.5922 59.729 67.0188 59.8055 66.4531ZM67.894 66.5677C67.8787 66.7049 67.8787 66.8434 67.894 66.9806C67.9525 67.4369 67.9806 67.8966 67.9781 68.3567C68.0316 69.0448 68.0699 69.7252 68.1005 70.4132C68.131 71.1013 68.1922 71.9423 68.2228 72.7068C68.2228 73.2878 68.3222 73.8612 68.2992 74.4422V74.534C68.3986 74.985 68.3374 75.4514 68.3986 75.9101C68.4445 76.2235 68.4368 76.5523 68.4521 76.8734C68.498 77.6379 68.5515 78.3489 68.5745 79.0828C68.5745 79.6562 68.6738 80.2372 68.6509 80.8183V80.8718C68.7274 81.4604 68.7274 82.0491 68.7656 82.6378C68.7734 82.7432 68.7887 82.848 68.8115 82.9512C68.933 83.4632 69.2173 83.922 69.6218 84.2586C70.1094 84.697 70.7386 84.9452 71.3941 84.9579C72.0497 84.9705 72.688 84.7467 73.1921 84.3274C74.4994 83.387 75.8144 82.462 77.1293 81.5292L79.6752 79.725L84.117 76.5676L86.1276 75.1303C86.3646 74.9621 86.357 74.9544 86.1276 74.7327C85.8983 74.511 85.7454 74.3964 85.5619 74.2205C85.0438 73.7113 84.4976 73.2314 83.9258 72.7832C83.0184 72.0457 82.0688 71.3616 81.0819 70.7343C79.8234 69.9325 78.5103 69.2198 77.1523 68.6014C75.8458 68.0003 74.4996 67.4894 73.1233 67.0723C72.657 66.9347 72.183 66.8047 71.709 66.6901C70.9827 66.5219 70.2564 66.3537 69.5224 66.239C69.079 66.1702 68.6356 66.0937 68.1845 66.0402C67.8558 66.002 67.8558 66.0402 67.8558 66.3384L67.894 66.5677Z" fill="#326DE6"/>
<path d="M76.5777 59.4353C76.2331 59.3531 75.8936 59.2509 75.5609 59.1294C73.7918 58.5951 71.9885 58.1813 70.1634 57.8909C69.3377 57.7533 68.512 57.6387 67.6787 57.5699C67.4494 57.5699 67.4417 57.5699 67.4264 57.3023C67.4112 57.0347 67.3806 56.6983 67.3653 56.3925C67.3592 56.2754 67.307 56.1654 67.22 56.0867C67.0301 55.9122 66.8513 55.7257 66.6849 55.5286C66.446 55.2249 66.3119 54.8521 66.3026 54.4659C66.2721 53.2659 66.3258 52.0652 66.4632 50.8727C66.532 50.1923 66.5855 49.5043 66.6466 48.8162C66.6513 48.718 66.6667 48.6205 66.6925 48.5257C66.8959 47.7878 67.0316 47.0329 67.0977 46.2704C67.2348 45.4703 67.1744 44.6489 66.9219 43.8775C66.7467 43.3635 66.4447 42.9021 66.0438 42.5359C65.6429 42.1697 65.156 41.9107 64.6283 41.7827C64.2002 41.681 63.7545 41.6784 63.3252 41.7751C62.896 41.8718 62.4945 42.0653 62.1513 42.3408C61.709 42.6496 61.3502 43.0634 61.1073 43.5452C60.8645 44.0269 60.7451 44.5614 60.7599 45.1007C60.7292 45.7604 60.7676 46.4214 60.8746 47.0731C60.9095 47.2768 60.9555 47.4784 61.0122 47.6771C61.1865 48.2909 61.2967 48.9212 61.3409 49.5578C61.4174 50.2076 61.4938 50.8651 61.555 51.5226C61.671 52.5201 61.6838 53.5269 61.5932 54.5271C61.5514 54.9203 61.376 55.2873 61.0963 55.5668C61.0066 55.6732 60.9067 55.7705 60.7981 55.8573C60.7077 55.9325 60.6359 56.0274 60.5882 56.1348C60.5404 56.2422 60.5181 56.3592 60.5229 56.4766C60.5229 56.7442 60.477 57.0041 60.4694 57.2411C60.4694 57.3787 60.4082 57.4169 60.2706 57.4322L58.4281 57.6539C56.8279 57.8379 55.2418 58.1291 53.6805 58.5255C52.7096 58.7778 51.7463 59.053 50.7983 59.3741C50.699 59.4174 50.593 59.4433 50.4849 59.4506L50.1332 59.2365L45.3244 56.469L38.8796 52.7534L31.5632 48.5486L24.3233 44.382C24.2545 44.3438 24.178 44.3209 24.1398 44.2444C24.1016 44.168 24.308 44.0609 24.415 43.9998L26.9914 42.509L29.1626 41.2705L31.5785 39.8638L33.7268 38.6329L36.1503 37.2338L37.9622 36.1865L41.2496 34.2828C42.3428 33.6483 43.4514 33.029 44.5446 32.3945L47.7785 30.5138C48.5048 30.1009 49.2311 29.6958 49.9573 29.2753L52.3732 27.8686L54.5215 26.6377L56.6621 25.3992L58.3746 24.413L60.4388 23.2203L62.1742 22.2188C62.5183 22.0201 62.8776 21.8289 63.214 21.6149C63.2842 21.5645 63.3684 21.5374 63.4548 21.5374C63.5412 21.5374 63.6254 21.5645 63.6956 21.6149C64.9341 22.3412 66.1803 23.0445 67.4264 23.7555L71.4401 26.049C72.6633 26.76 73.8789 27.471 75.1098 28.1744L78.9323 30.3685C80.3008 31.133 81.654 31.9434 83.0149 32.7232L86.8374 34.9174L90.66 37.1345L94.7195 39.4662L98.3204 41.5304L102.204 43.7704L102.839 44.145C102.86 44.156 102.879 44.171 102.895 44.1894C102.911 44.2078 102.923 44.2291 102.93 44.2521C102.816 44.2521 102.739 44.2979 102.655 44.3514L96.7761 47.7306L87.5178 53.0822L79.0317 57.9674L76.5777 59.4353Z" fill="#C9E9EC"/>
<path d="M76.5785 59.4354L79.0784 57.9828L87.5645 53.0976L96.8228 47.746L102.702 44.3669C102.786 44.3133 102.862 44.2369 102.977 44.2675C102.977 50.2918 102.977 56.3162 102.977 62.3405C102.977 62.4017 102.977 62.4552 102.977 62.5164C102.817 62.701 102.634 62.8653 102.434 63.0057C102.16 63.2405 101.905 63.4961 101.67 63.7702C101.448 64.0301 101.211 64.2748 100.982 64.5347C100.744 64.8063 100.489 65.0617 100.217 65.2992C99.9878 65.498 99.8044 65.7503 99.5903 65.9643C98.9863 66.5912 98.3365 67.1799 97.679 67.7533C97.2041 68.1657 96.7063 68.5511 96.1882 68.9077C95.9772 69.0615 95.7325 69.1626 95.4745 69.2025C95.2165 69.2424 94.9526 69.22 94.7051 69.1371C94.6412 69.1106 94.5714 69.1016 94.5029 69.111C94.4344 69.1204 94.3696 69.1479 94.3152 69.1906L93.4589 69.764C93.2219 69.9169 93.2143 69.9169 93.0078 69.7105L92.4039 69.1065C91.7388 68.4337 91.0354 67.8144 90.3244 67.1875C89.6134 66.5606 88.9101 65.9414 88.1532 65.3833C87.0727 64.5984 85.9616 63.8594 84.8199 63.1662C83.956 62.6387 83.0692 62.1571 82.1671 61.6984C81.2649 61.2397 80.5769 60.9339 79.7589 60.5822C78.7726 60.177 77.7711 59.7794 76.7543 59.4507C76.6954 59.4511 76.6365 59.446 76.5785 59.4354Z" fill="#20BFCF"/>
<path d="M24.1325 44.2744C24.1325 44.3509 24.2472 44.3738 24.316 44.412L31.5559 48.5786L38.8723 52.7834L45.3171 56.499L50.1259 59.2665L50.4776 59.4806C50.1861 59.6201 49.8845 59.7377 49.5755 59.8322C48.5663 60.2068 47.5801 60.5967 46.6092 61.0631C46.1428 61.2848 45.6688 61.5065 45.2101 61.7512C44.0786 62.3322 43.0032 62.9667 41.9839 63.6548C41.0053 64.2817 40.065 64.9468 39.1475 65.6578C38.4901 66.1547 37.8632 66.6899 37.2363 67.2251C36.3724 67.9896 35.562 68.7923 34.7516 69.6104C34.5604 69.8015 34.5528 69.8015 34.3387 69.6562C34.1681 69.5592 34.0069 69.4466 33.8571 69.3198C33.7475 69.2197 33.6136 69.1501 33.4688 69.1179C33.3239 69.0857 33.1731 69.0921 33.0314 69.1364C32.8012 69.1919 32.5611 69.1932 32.3303 69.1401C32.0994 69.087 31.8841 68.9811 31.7012 68.8305C30.4461 67.9026 29.286 66.8527 28.2379 65.6961C27.9092 65.3444 27.5575 65.0156 27.2594 64.6334C27.0912 64.4193 26.8618 64.2664 26.6783 64.06C26.3814 63.6918 26.0595 63.3444 25.7151 63.0203C25.4933 62.8291 25.2411 62.6686 25.0346 62.4622C24.7438 62.2 24.426 61.9694 24.0866 61.7741C24.0866 60.7649 24.0866 59.7558 24.0866 58.7161V45.1536C24.0866 44.9242 24.0866 44.6949 24.0866 44.4732C24.0484 44.3967 24.0331 44.3126 24.1325 44.2744Z" fill="#20BFCF"/>
<path d="M87.4267 98.8224L85.5613 98.2872L80.9743 96.9646C80.5423 96.8669 80.122 96.7234 79.7204 96.5365C79.3173 96.3307 78.9715 96.0281 78.714 95.6558C78.4565 95.2836 78.2953 94.8533 78.2449 94.4035C78.1489 93.7752 78.2996 93.1342 78.6654 92.6145C78.8505 92.3594 79.0721 92.1327 79.3229 91.9418C79.5981 91.72 79.8428 91.4677 80.0874 91.2384C80.5996 90.795 81.0889 90.321 81.6164 89.8699L83.3901 88.2797C83.9788 87.7446 84.5675 87.2094 85.1638 86.6819L86.9298 85.0841L88.7035 83.4939C89.3151 82.9435 89.9191 82.4006 90.5154 81.8502C90.7371 81.6514 90.9511 81.4526 91.1805 81.2692C91.4098 81.0857 91.3793 81.1468 91.471 81.315C91.7386 81.7814 92.0138 82.2477 92.2355 82.7217C93.1909 84.5522 93.9765 86.4664 94.5826 88.4403C94.6819 88.769 94.7508 89.1054 94.8807 89.4265C93.26 91.4652 91.6417 93.5039 90.0261 95.5426L87.4267 98.8224Z" fill="#20BFCF"/>
<path d="M32.7031 89.0682C32.8484 89.0682 32.8331 88.9077 32.8637 88.816C33.0242 88.2579 33.2077 87.7074 33.3988 87.1646C33.7352 86.209 34.1175 85.2763 34.5379 84.3512C34.8667 83.6479 35.2184 82.9521 35.593 82.2717C35.7688 81.9506 35.9599 81.6295 36.1587 81.3084C36.2734 81.1173 36.281 81.1249 36.4339 81.2549L38.2305 82.868L40.4476 84.8481C40.9675 85.3145 41.4874 85.7808 42.0149 86.2395C42.7794 86.8894 43.498 87.5469 44.232 88.2196C44.7442 88.686 45.2717 89.1447 45.761 89.6034C46.4796 90.2456 47.1906 90.8954 47.9245 91.5223C48.1615 91.7211 48.3909 91.9352 48.6279 92.1416C49.0248 92.4961 49.2936 92.9718 49.3924 93.4948C49.4687 93.8649 49.4695 94.2467 49.3946 94.6172C49.3197 94.9877 49.1707 95.3392 48.9566 95.6507C48.6402 96.1424 48.1526 96.4992 47.5882 96.6522L42.8941 97.9977L40.8069 98.617C40.7109 98.6337 40.6211 98.6759 40.547 98.7393C40.0501 98.143 39.5608 97.5467 39.0715 96.9427L32.8102 89.1906L32.7031 89.0682Z" fill="#20BFCF"/>
<path d="M24.064 69.1443C24.3321 69.265 24.5881 69.4109 24.8285 69.5801C25.486 69.9853 26.1512 70.3904 26.801 70.8186C27.3838 71.1977 27.9453 71.6086 28.4829 72.0494C28.7492 72.2494 28.9882 72.4833 29.1939 72.7452C29.3752 72.9928 29.4668 73.2948 29.4538 73.6014C29.4151 73.7822 29.4324 73.9705 29.5035 74.1413C29.5745 74.312 29.6959 74.457 29.8514 74.557C30.0138 74.6839 30.1695 74.8191 30.3177 74.9622C30.4936 75.0999 30.4936 75.161 30.3789 75.3368C29.859 76.1014 29.4156 76.927 28.9416 77.7298C28.4676 78.5325 28.1236 79.2588 27.7566 80.0233C27.4585 80.6579 27.1603 81.2848 26.9157 81.9346C26.4187 81.3841 25.983 80.7955 25.509 80.2297C25.3637 80.0539 25.2261 79.8781 25.0885 79.6946C24.4067 78.76 24.0399 77.6328 24.0411 76.476V69.4272C24.0265 69.3324 24.0343 69.2355 24.064 69.1443Z" fill="#20BFCF"/>
<path d="M100.851 81.8891C100.431 81.0022 100.041 80.1154 99.59 79.2515C98.9937 78.0894 98.3515 76.958 97.6405 75.8494C97.3882 75.4595 97.3882 75.4442 97.7552 75.1537C97.9387 75.0008 98.0992 74.8326 98.2827 74.6797C98.337 74.6296 98.379 74.5677 98.4055 74.4988C98.432 74.4298 98.4423 74.3557 98.4356 74.2822C98.4381 73.9003 98.5269 73.5239 98.6955 73.1813C98.8466 72.9034 99.0583 72.663 99.3148 72.4779C100.297 71.6768 101.34 70.9534 102.434 70.3143C102.596 70.1907 102.774 70.0879 102.962 70.0085C102.965 70.0773 102.965 70.1462 102.962 70.215V77.5008C102.973 78.0606 102.919 78.62 102.801 79.1674C102.724 79.4836 102.578 79.7788 102.373 80.0313C101.952 80.5435 101.54 81.071 101.127 81.5985C101.05 81.6826 100.951 81.782 100.851 81.8891Z" fill="#20BFCF"/>
<path d="M59.8048 66.4538C59.7283 67.0196 59.8048 67.593 59.6901 68.1587C59.6825 68.1965 59.6825 68.2355 59.6901 68.2734C59.6901 68.8238 59.6366 69.3743 59.6137 69.9247C59.6137 70.6281 59.5372 71.3314 59.499 72.0347C59.4608 72.7381 59.4149 73.4644 59.3767 74.183L59.262 76.2396C59.2238 76.9276 59.1779 77.6233 59.1397 78.319L59.025 80.4368C59.025 81.0713 58.9638 81.7058 58.9103 82.3404C58.8818 82.9544 58.6524 83.5421 58.2573 84.0131C57.8623 84.4841 57.3235 84.8124 56.7238 84.9474C56.3623 85.0424 55.9837 85.0525 55.6177 84.9769C55.2516 84.9013 54.908 84.742 54.6137 84.5116C53.941 83.9917 53.23 83.5101 52.5343 82.9826L48.4365 80.0698L44.935 77.5698L42.2745 75.6662L41.3877 75.0393C41.2348 74.9246 41.2272 74.9093 41.3877 74.7717C42.0086 74.1418 42.6619 73.5447 43.3449 72.9828C45.4494 71.2243 47.7787 69.7537 50.2713 68.6098C51.4233 68.0801 52.6052 67.6181 53.811 67.226C55.0309 66.8248 56.2776 66.5106 57.5418 66.2856C58.2299 66.1709 58.9103 66.0333 59.5907 65.9034C59.8048 65.8651 59.8201 65.9034 59.8277 66.1022V66.4232L59.8048 66.4538Z" fill="#20BFCF"/>
<path d="M67.8936 66.5683V66.3313C67.8936 66.0102 67.8935 65.9949 68.2223 66.0331C68.6734 66.0866 69.1168 66.1631 69.5602 66.2319C70.3247 66.3466 71.0204 66.5148 71.7467 66.683C72.2207 66.7976 72.6947 66.9276 73.161 67.0652C74.5373 67.4823 75.8835 67.9932 77.19 68.5942C78.548 69.2127 79.8611 69.9254 81.1196 70.7272C82.1066 71.3544 83.0562 72.0386 83.9636 72.7761C84.5353 73.2243 85.0815 73.7042 85.5996 74.2134C85.7831 74.3892 85.9896 74.5422 86.1654 74.7256C86.3412 74.9091 86.3795 74.955 86.1654 75.1232L84.1547 76.5605L79.69 79.7102L77.1518 81.4992C75.8368 82.4319 74.5219 83.357 73.2146 84.2973C72.7104 84.7166 72.0722 84.9405 71.4166 84.9278C70.761 84.9152 70.1319 84.667 69.6443 84.2285C69.2398 83.8919 68.9554 83.4332 68.8339 82.9212C68.8111 82.818 68.7958 82.7132 68.788 82.6078C68.7498 82.0191 68.7498 81.4304 68.6733 80.8417V80.7882C68.6733 80.2072 68.6198 79.6262 68.5969 79.0528C68.5969 78.2883 68.5204 77.5773 68.4746 76.8433C68.4746 76.5222 68.4746 76.1935 68.421 75.88C68.3599 75.4213 68.4211 74.955 68.3217 74.5039V74.4122C68.3217 73.8312 68.2682 73.2578 68.2452 72.6767C68.2452 71.9122 68.1688 71.1477 68.1229 70.3832C68.077 69.6187 68.0541 69.0147 68.0006 68.3267C68.003 67.8666 67.975 67.4069 67.9165 66.9505C67.9012 66.8134 67.9012 66.6749 67.9165 66.5377L67.8936 66.5683Z" fill="#20BFCF"/>
</svg>
