<svg width="128" height="128" viewBox="0 0 128 128" fill="none" xmlns="http://www.w3.org/2000/svg">
<path d="M27.0068 81H13.9419C13.3062 80.9612 12.6961 80.7355 12.188 80.3514C11.9901 80.2061 11.8112 80.0365 11.6555 79.8467L8.27638 75.6474L4.04678 70.3932C3.9105 70.2241 3.76918 70.0575 3.64047 69.8885C3.17386 69.2694 2.9495 68.5011 3.00956 67.7282C3.03629 67.4727 3.08269 67.2196 3.14836 66.9711C3.49831 65.457 3.84741 63.9428 4.19567 62.4286C4.49346 61.1415 4.79041 59.8545 5.08651 58.5674C5.36159 57.3738 5.63162 56.1801 5.91174 54.9889C6.01382 54.5099 6.22682 54.0616 6.53362 53.6798C6.84042 53.2981 7.23247 52.9936 7.67828 52.7908C9.00319 52.1498 10.3331 51.529 11.658 50.8855C14.0858 49.7263 16.5118 48.5663 18.9362 47.4054C19.2643 47.2411 19.6132 47.1222 19.9734 47.0521C20.5779 46.9389 21.2024 47.0111 21.7652 47.259C22.1286 47.4155 22.4819 47.5947 22.8403 47.7638L30.8654 51.6174L33.3058 52.7883C34.0056 53.1163 34.5613 53.689 34.8679 54.3984C34.9739 54.6496 35.0542 54.9108 35.1076 55.1782C35.4155 56.5241 35.7259 57.8701 36.0389 59.216C36.4292 60.922 36.8212 62.6297 37.2149 64.339C37.4395 65.3106 37.6716 66.2797 37.8861 67.2513C38.0028 67.7236 38.0069 68.2168 37.8982 68.691C37.7895 69.1653 37.571 69.6074 37.2603 69.9818C35.8824 71.7029 34.5011 73.4199 33.1165 75.1326L29.3336 79.7987C28.8211 80.4466 28.0758 80.8686 27.2566 80.9748C27.1733 80.9874 27.0901 80.9924 27.0068 81ZM20.5034 79.9199H26.7519C26.9014 79.9224 27.0508 79.9122 27.1986 79.8896C27.704 79.8091 28.1636 79.5493 28.4932 79.1577C28.6168 79.0114 28.7456 78.86 28.8541 78.7085C29.8888 77.4265 30.9218 76.1437 31.9531 74.86L34.8073 71.3143C35.365 70.6203 35.9278 69.9314 36.4805 69.2323C36.6813 68.985 36.8219 68.6944 36.8911 68.3834C36.9603 68.0725 36.9562 67.7497 36.8792 67.4405C36.7101 66.6834 36.536 65.9415 36.3619 65.192L35.1001 59.6602L34.1688 55.6224C34.1209 55.4205 34.083 55.2135 34.0225 55.0167C33.9352 54.7243 33.7865 54.454 33.5863 54.2238C33.3861 53.9935 33.139 53.8087 32.8616 53.6817C32.213 53.3637 31.5619 53.0584 30.9108 52.7505L22.2825 48.642L21.4725 48.2559C21.0562 48.0584 20.5891 47.9941 20.1349 48.0717C19.9221 48.0999 19.7146 48.1594 19.5192 48.2483L13.3489 51.1984L8.15525 53.6817C7.85219 53.8201 7.58599 54.028 7.37818 54.2884C7.17036 54.5488 7.02678 54.8545 6.95905 55.1807C6.72183 56.1902 6.49722 57.1845 6.26505 58.1889L5.30859 62.2847C4.94014 63.8898 4.57085 65.4931 4.20072 67.0948C4.14127 67.3111 4.10157 67.5324 4.08211 67.756C4.05235 68.3149 4.23234 68.8648 4.58683 69.2979L7.69595 73.1616L12.4454 79.0619C12.5734 79.2265 12.7228 79.3733 12.8896 79.4984C13.2752 79.7752 13.7398 79.9204 14.2145 79.9123L20.5034 79.9199Z" fill="#336EE6"/>
<path d="M7.31248 65.8632C7.26529 65.8181 7.20951 65.7829 7.14845 65.7598C6.91598 65.6581 6.69585 65.5302 6.4923 65.3787C6.33181 65.2818 6.18994 65.1571 6.07338 65.0102C5.96456 64.8658 5.89138 64.6978 5.8598 64.5197C5.82823 64.3417 5.83915 64.1587 5.89168 63.9857C5.94984 63.7999 6.06446 63.6368 6.21961 63.5192C6.37475 63.4016 6.56269 63.3353 6.75729 63.3295C6.91962 63.3208 7.08199 63.3457 7.23425 63.4027C7.25654 63.4155 7.28172 63.4225 7.30743 63.4229C7.41946 63.4873 7.52436 63.5635 7.62037 63.65C7.6885 63.7182 7.77178 63.7712 7.84497 63.8342C7.95868 63.9412 8.06493 64.0559 8.16295 64.1775C8.22351 64.2456 8.29922 64.2961 8.35474 64.3667C8.45317 64.4929 8.56925 64.6014 8.67777 64.7175C9.02373 65.0993 9.40667 65.4459 9.82097 65.7522C9.88135 65.8019 9.95244 65.8369 10.0286 65.8544C10.1048 65.8719 10.1841 65.8715 10.2601 65.8531C10.3068 65.8385 10.3566 65.8364 10.4044 65.847C10.4523 65.8577 10.4965 65.8807 10.5326 65.9137C10.5821 65.9556 10.6353 65.9927 10.6916 66.0248C10.7623 66.0727 10.7648 66.0727 10.8279 66.0096C11.0954 65.7396 11.3629 65.4721 11.6481 65.2222C11.855 65.0456 12.062 64.8689 12.279 64.7049C12.5818 64.4702 12.8922 64.2506 13.2153 64.0437C13.5383 63.8368 13.9244 63.6147 14.2928 63.4229C14.4443 63.3421 14.6007 63.2689 14.7547 63.1958C15.0752 63.0469 15.4007 62.9131 15.7338 62.7895C15.8359 62.7582 15.9354 62.7194 16.0316 62.6734C16.0673 62.671 16.1023 62.6624 16.1351 62.6481C16.448 62.5421 16.766 62.4513 17.0865 62.368C17.6019 62.2371 18.1254 62.141 18.6537 62.0803L19.2619 62.0071C19.3073 62.0071 19.325 61.9895 19.3275 61.944C19.3275 61.8557 19.3401 61.7699 19.3452 61.6917C19.3436 61.6529 19.3509 61.6143 19.3667 61.5789C19.3825 61.5434 19.4062 61.5121 19.436 61.4873C19.4719 61.4586 19.5048 61.4265 19.5344 61.3914C19.6268 61.2991 19.6847 61.178 19.6985 61.0482C19.7284 60.718 19.7241 60.3856 19.6858 60.0564C19.6657 59.8393 19.6404 59.6223 19.6152 59.4078C19.6006 59.1977 19.5642 58.9896 19.5067 58.787C19.4879 58.7214 19.4728 58.6548 19.4612 58.5876C19.426 58.3725 19.4133 58.1543 19.4234 57.9365C19.4185 57.7585 19.4579 57.5821 19.5381 57.423C19.6183 57.264 19.7367 57.1274 19.8827 57.0255C19.996 56.9346 20.1285 56.8707 20.2702 56.8388C20.4119 56.8068 20.559 56.8077 20.7003 56.8413C20.8745 56.8835 21.0352 56.969 21.1676 57.0899C21.2999 57.2108 21.3996 57.3631 21.4574 57.5327C21.5408 57.7874 21.5607 58.0585 21.5155 58.3226C21.4936 58.5743 21.4489 58.8235 21.3817 59.0671C21.3732 59.0984 21.3681 59.1306 21.3666 59.163C21.3464 59.3901 21.3287 59.6173 21.306 59.8419C21.2607 60.2355 21.243 60.6318 21.253 61.028C21.2561 61.1554 21.3004 61.2785 21.3792 61.3787C21.4341 61.4438 21.4931 61.5054 21.5559 61.563C21.5846 61.589 21.6018 61.6253 21.6038 61.6639C21.6038 61.7649 21.6164 61.8633 21.624 61.9642C21.6316 62.0652 21.624 62.0475 21.7073 62.0526C21.9824 62.0753 22.2549 62.1131 22.5275 62.1585C23.1299 62.2544 23.7252 62.391 24.3091 62.5674C24.419 62.6075 24.531 62.6412 24.6448 62.6683C24.6608 62.6782 24.6777 62.6867 24.6953 62.6936C25.0309 62.8021 25.3615 62.9333 25.687 63.0671C25.9571 63.1806 26.2195 63.3043 26.482 63.4355C26.7444 63.5667 27.0725 63.7459 27.3577 63.92C27.7362 64.1472 28.103 64.3911 28.458 64.6519C28.7104 64.8361 28.9425 65.0431 29.1747 65.2475C29.4069 65.4519 29.6416 65.6588 29.8611 65.8809L30.0605 66.0803C30.1286 66.1484 30.1312 66.1484 30.2094 66.0979L30.492 65.9087C30.51 65.8946 30.5314 65.8855 30.554 65.8824C30.5766 65.8793 30.5997 65.8823 30.6207 65.891C30.7025 65.9184 30.7896 65.9258 30.8747 65.9126C30.9599 65.8994 31.0407 65.8661 31.1103 65.8153C31.2814 65.6976 31.4457 65.5703 31.6024 65.4342C31.8195 65.245 32.034 65.0506 32.2333 64.8437C32.304 64.773 32.3646 64.6897 32.4403 64.6241C32.5299 64.5457 32.6142 64.4614 32.6926 64.3718C32.7684 64.286 32.8466 64.2052 32.9198 64.1194C32.9973 64.0289 33.0817 63.9446 33.1721 63.867C33.2382 63.8207 33.2984 63.7665 33.3513 63.7055C33.5137 63.5879 33.697 63.5023 33.8914 63.4532C34.1401 63.3925 34.4026 63.4286 34.6257 63.5541C34.7637 63.6286 34.88 63.7374 34.9636 63.8701C35.0471 64.0027 35.0951 64.1546 35.1027 64.3112C35.1156 64.4818 35.0914 64.6532 35.0317 64.8135C34.972 64.9738 34.8783 65.1193 34.757 65.2399C34.5624 65.435 34.3406 65.6008 34.0983 65.732C33.8788 65.8582 33.6491 65.9667 33.4346 66.103C33.4043 66.1207 33.3766 66.1434 33.3463 66.1636C33.2842 66.1898 33.2257 66.2237 33.1721 66.2645C32.8109 66.4754 32.4666 66.7142 32.1425 66.9787C32.0578 67.0398 31.988 67.1191 31.9381 67.2109C31.8824 67.324 31.8531 67.4482 31.8523 67.5743C31.8545 67.5985 31.8511 67.623 31.8423 67.6458C31.8336 67.6685 31.8197 67.689 31.8018 67.7055C31.7412 67.756 31.6882 67.8115 31.6277 67.862C31.5065 67.9579 31.5065 67.9629 31.5898 68.0916C31.8245 68.455 32.0365 68.831 32.2333 69.2146C32.3822 69.4998 32.5109 69.7925 32.6497 70.0853C32.6411 70.1131 32.6254 70.1383 32.6043 70.1585L30.7166 72.5332L30.6763 72.5736C30.6334 72.4676 30.6106 72.3565 30.5778 72.248C30.3778 71.5965 30.1185 70.9646 29.8031 70.3604C29.7198 70.2039 29.629 70.0499 29.5507 69.896C29.5204 69.8405 29.5103 69.838 29.4548 69.8809C29.3993 69.9238 29.3085 70.007 29.2353 70.0727C29.0384 70.2544 28.8391 70.4335 28.6372 70.6152L28.0567 71.1174L27.4738 71.6449C27.2769 71.819 27.0826 71.9957 26.8883 72.1723L26.3028 72.6972C26.1363 72.8461 25.9747 73.0026 25.7981 73.149C25.7098 73.2247 25.629 73.308 25.5457 73.3811C25.4629 73.4442 25.3898 73.519 25.3287 73.6032C25.2079 73.7748 25.1582 73.9864 25.1899 74.1937C25.2065 74.3422 25.2597 74.4843 25.3447 74.6071C25.4297 74.73 25.5439 74.8299 25.6769 74.8978C25.8095 74.9595 25.9482 75.0069 26.0908 75.0392L27.605 75.4757L28.2208 75.6499C28.1072 75.819 27.9684 75.9729 27.8448 76.1344L27.1836 76.9647C26.8576 77.3939 26.3835 77.6863 25.8536 77.7849C25.7227 77.8063 25.5901 77.8165 25.4574 77.8152H22.4467C20.1586 77.8152 17.8714 77.8202 15.5849 77.8303C15.0835 77.8386 14.5949 77.6707 14.2045 77.3559C14.0465 77.2202 13.9035 77.0679 13.778 76.9016L12.7686 75.66C12.7579 75.6475 12.7486 75.634 12.7408 75.6196C12.7653 75.5987 12.7949 75.5847 12.8266 75.5792L13.5156 75.3748L15.0651 74.9306C15.2514 74.8802 15.4123 74.7624 15.5168 74.6C15.5875 74.4972 15.6367 74.3812 15.6614 74.2589C15.6861 74.1366 15.6859 74.0106 15.6607 73.8884C15.628 73.7158 15.5393 73.5587 15.4083 73.4417C15.3301 73.3736 15.2544 73.3029 15.1761 73.2373C14.9238 73.0304 14.6992 72.8158 14.4619 72.6039C14.2903 72.4524 14.1162 72.301 13.9572 72.1471C13.7048 71.925 13.4701 71.708 13.2253 71.4935C13.0512 71.342 12.8796 71.1881 12.708 71.0342L11.9762 70.3805L11.3957 69.8556C11.3452 69.8127 11.3427 69.8102 11.3049 69.8733C11.2393 69.9793 11.1762 70.0853 11.1181 70.1913C10.9945 70.4159 10.8784 70.6455 10.7699 70.8777C10.6311 71.1831 10.5175 71.4909 10.3938 71.8064C10.3307 71.9856 10.2702 72.1673 10.2172 72.3515C10.2172 72.3818 10.2172 72.4272 10.1642 72.4348C9.97492 72.2051 9.78564 71.9755 9.59889 71.7433L8.28913 70.1282L8.25127 70.0727C8.33203 69.8581 8.43045 69.6512 8.52888 69.4417C8.65001 69.1894 8.78124 68.937 8.92004 68.6847C9.05884 68.4323 9.22287 68.1497 9.39448 67.8948C9.43233 67.8367 9.43233 67.8165 9.37429 67.7711C9.32535 67.7239 9.27396 67.6792 9.22035 67.6374C9.16901 67.6043 9.12895 67.5565 9.1055 67.5001C9.08206 67.4438 9.07635 67.3816 9.08912 67.3219C9.0934 67.2207 9.06314 67.121 9.00332 67.0393C8.93542 66.9528 8.85652 66.8756 8.76862 66.8096C8.59115 66.6641 8.4058 66.5284 8.21342 66.4033C7.99891 66.262 7.77936 66.1282 7.56232 65.9945C7.48327 65.9431 7.39963 65.8992 7.31248 65.8632ZM19.1105 64.9749V64.8689C19.1105 64.7932 19.1105 64.7907 19.0322 64.8033C18.8076 64.8462 18.583 64.8916 18.3559 64.9295C17.9386 65.0038 17.527 65.1075 17.1244 65.2399C16.7263 65.3693 16.3362 65.5219 15.9559 65.6967C15.1331 66.0743 14.3642 66.5597 13.6695 67.1402C13.4441 67.3257 13.2284 67.5228 13.0235 67.7307C12.978 67.7761 12.9806 67.7812 13.0235 67.8191L13.3162 68.026L14.1944 68.6544L15.3503 69.4796L16.7029 70.4411C16.9326 70.6051 17.1673 70.7641 17.3893 70.9458C17.4865 71.0219 17.5999 71.0745 17.7207 71.0994C17.8416 71.1244 17.9665 71.121 18.0859 71.0897C18.2838 71.0451 18.4617 70.9368 18.5921 70.7813C18.7225 70.6258 18.7982 70.4318 18.8076 70.2291C18.8253 70.0197 18.8354 69.8102 18.8455 69.6007L18.8833 68.9017C18.896 68.672 18.9111 68.4424 18.9237 68.2153L18.9616 67.5364C18.9742 67.2992 18.9893 67.0645 19.0019 66.8273C19.0146 66.59 19.0297 66.3629 19.0398 66.1307C19.0398 65.949 19.0726 65.7673 19.065 65.5856C19.0625 65.5731 19.0625 65.5603 19.065 65.5478C19.1029 65.3509 19.0852 65.1617 19.1105 64.9749ZM21.7805 65.0128C21.7754 65.0581 21.7754 65.1038 21.7805 65.1491C21.7998 65.2997 21.809 65.4514 21.8082 65.6033C21.8259 65.8304 21.8385 66.055 21.8486 66.2822C21.8587 66.5093 21.8789 66.7869 21.889 67.0393C21.889 67.231 21.9218 67.4203 21.9142 67.6121V67.6424C21.947 67.7913 21.9268 67.9452 21.947 68.0967C21.9622 68.2001 21.9596 68.3086 21.9647 68.4146C21.9798 68.667 21.9975 68.9017 22.0051 69.144C22.0051 69.3332 22.0379 69.525 22.0303 69.7168V69.7345C22.0555 69.9288 22.0555 70.1231 22.0682 70.3174C22.0707 70.3523 22.0758 70.3868 22.0833 70.4209C22.1234 70.5899 22.2173 70.7414 22.3508 70.8525C22.5118 70.9972 22.7194 71.0791 22.9358 71.0833C23.1523 71.0875 23.3629 71.0136 23.5293 70.8752C23.9609 70.5648 24.3949 70.2594 24.829 69.9515L25.6694 69.3559L27.1356 68.3137L27.7993 67.8392C27.8776 67.7837 27.875 67.7812 27.7993 67.708C27.7236 67.6348 27.6731 67.597 27.6126 67.5389C27.4416 67.3708 27.2612 67.2124 27.0725 67.0645C26.773 66.821 26.4595 66.5952 26.1337 66.3882C25.7183 66.1235 25.2849 65.8882 24.8366 65.6841C24.4053 65.4857 23.9609 65.317 23.5066 65.1793C23.3527 65.1339 23.1962 65.091 23.0398 65.0532C22.8 64.9976 22.5603 64.9421 22.318 64.9043C22.1716 64.8815 22.0253 64.8563 21.8764 64.8386C21.7678 64.826 21.7678 64.8386 21.7678 64.9371L21.7805 65.0128Z" fill="#326DE6"/>
<path d="M24.6471 62.6582C24.5334 62.6311 24.4213 62.5973 24.3115 62.5572C23.7275 62.3808 23.1322 62.2443 22.5298 62.1484C22.2572 62.103 21.9847 62.0651 21.7096 62.0424C21.6339 62.0424 21.6314 62.0424 21.6263 61.9541C21.6213 61.8658 21.6112 61.7547 21.6062 61.6538C21.6041 61.6151 21.5869 61.5788 21.5582 61.5528C21.4955 61.4952 21.4365 61.4337 21.3815 61.3686C21.3027 61.2684 21.2584 61.1453 21.2554 61.0178C21.2453 60.6217 21.263 60.2254 21.3084 59.8317C21.3311 59.6071 21.3487 59.38 21.3689 59.1529C21.3705 59.1204 21.3755 59.0883 21.3841 59.057C21.4512 58.8134 21.496 58.5642 21.5178 58.3125C21.5631 58.0484 21.5431 57.7772 21.4598 57.5226C21.402 57.3529 21.3023 57.2006 21.1699 57.0797C21.0376 56.9589 20.8769 56.8734 20.7027 56.8311C20.5614 56.7976 20.4142 56.7967 20.2725 56.8286C20.1308 56.8606 19.9983 56.9244 19.885 57.0153C19.739 57.1173 19.6206 57.2539 19.5404 57.4129C19.4603 57.5719 19.4208 57.7484 19.4257 57.9264C19.4156 58.1441 19.4283 58.3624 19.4636 58.5775C19.4751 58.6447 19.4903 58.7113 19.509 58.7768C19.5666 58.9795 19.6029 59.1875 19.6175 59.3977C19.6428 59.6122 19.668 59.8292 19.6882 60.0462C19.7265 60.3755 19.7307 60.7079 19.7008 61.038C19.687 61.1678 19.6291 61.289 19.5368 61.3812C19.5072 61.4163 19.4742 61.4484 19.4383 61.4771C19.4085 61.5019 19.3848 61.5333 19.369 61.5687C19.3533 61.6042 19.3459 61.6428 19.3475 61.6815C19.3475 61.7699 19.3324 61.8557 19.3298 61.9339C19.3298 61.9793 19.3096 61.9919 19.2642 61.997L18.656 62.0702C18.1278 62.1309 17.6042 62.227 17.0888 62.3579C16.7683 62.4412 16.4504 62.532 16.1374 62.638C16.1047 62.6523 16.0697 62.6608 16.034 62.6632L15.9179 62.5926L14.3305 61.679L12.2031 60.4525L9.78798 59.0645L7.3981 57.6892C7.37539 57.6765 7.35015 57.669 7.33754 57.6437C7.32492 57.6185 7.39306 57.5832 7.42839 57.563L8.27885 57.0709L8.99556 56.662L9.79303 56.1977L10.5022 55.7914L11.3022 55.3296L11.9003 54.9838L12.9854 54.3554C13.3463 54.146 13.7122 53.9416 14.0731 53.7321L15.1406 53.1113C15.3803 52.975 15.6201 52.8413 15.8598 52.7025L16.6573 52.2381L17.3664 51.8318L18.0731 51.423L18.6384 51.0974L19.3197 50.7037L19.8926 50.3732C20.0062 50.3075 20.1248 50.2444 20.2358 50.1738C20.259 50.1571 20.2868 50.1482 20.3153 50.1482C20.3438 50.1482 20.3716 50.1571 20.3948 50.1738C20.8036 50.4135 21.215 50.6457 21.6263 50.8804L22.9512 51.6375C23.355 51.8722 23.7563 52.1069 24.1626 52.3391L25.4244 53.0633C25.8761 53.3157 26.3228 53.5832 26.772 53.8406L28.0338 54.5649L29.2957 55.2968L30.6357 56.0665L31.8243 56.7478L33.1063 57.4873L33.3158 57.6109C33.3229 57.6145 33.3293 57.6195 33.3345 57.6256C33.3397 57.6316 33.3436 57.6387 33.3461 57.6463C33.3082 57.6463 33.283 57.6614 33.2552 57.6791L31.3146 58.7945L28.2584 60.5611L25.4572 62.1736L24.6471 62.6582Z" fill="#C9E9EC"/>
<path d="M24.6471 62.6581L25.4723 62.1786L28.2736 60.566L31.3297 58.7995L33.2703 57.684C33.2981 57.6664 33.3233 57.6411 33.3612 57.6512C33.3612 59.6399 33.3612 61.6285 33.3612 63.6171C33.3612 63.6373 33.3612 63.655 33.3612 63.6751C33.3083 63.7361 33.2481 63.7903 33.182 63.8366C33.0915 63.9142 33.0072 63.9985 32.9297 64.089C32.8565 64.1748 32.7782 64.2556 32.7025 64.3414C32.6241 64.431 32.5398 64.5153 32.4502 64.5937C32.3745 64.6594 32.3139 64.7426 32.2432 64.8133C32.0439 65.0202 31.8294 65.2146 31.6123 65.4038C31.4555 65.5399 31.2912 65.6672 31.1202 65.7849C31.0506 65.8357 30.9698 65.869 30.8846 65.8822C30.7994 65.8954 30.7123 65.888 30.6306 65.8606C30.6095 65.8519 30.5865 65.8489 30.5639 65.852C30.5413 65.8551 30.5199 65.8642 30.5019 65.8783L30.2193 66.0675C30.141 66.118 30.1385 66.118 30.0704 66.0499L29.871 65.8505C29.6515 65.6284 29.4193 65.424 29.1846 65.2171C28.9499 65.0101 28.7177 64.8057 28.4679 64.6215C28.1112 64.3624 27.7444 64.1185 27.3676 63.8896C27.0824 63.7155 26.7897 63.5565 26.4919 63.4051C26.1941 63.2537 25.967 63.1528 25.6969 63.0367C25.3714 62.9029 25.0408 62.7717 24.7051 62.6632C24.6857 62.6633 24.6662 62.6616 24.6471 62.6581Z" fill="#20BFCF"/>
<path d="M7.335 57.6538C7.335 57.679 7.37286 57.6866 7.39557 57.6992L9.78545 59.0746L12.2006 60.4626L14.328 61.6891L15.9153 62.6027L16.0314 62.6733C15.9352 62.7194 15.8357 62.7582 15.7336 62.7894C15.4005 62.9131 15.075 63.0418 14.7545 63.1957C14.6005 63.2689 14.4441 63.3421 14.2927 63.4228C13.9192 63.6146 13.5642 63.8241 13.2277 64.0512C12.9047 64.2582 12.5943 64.4777 12.2914 64.7124C12.0744 64.8764 11.8674 65.0531 11.6605 65.2298C11.3753 65.4821 11.1078 65.7471 10.8403 66.0171C10.7772 66.0802 10.7747 66.0802 10.7041 66.0323C10.6477 66.0003 10.5945 65.9631 10.5451 65.9212C10.5089 65.8882 10.4647 65.8652 10.4169 65.8546C10.369 65.8439 10.3193 65.846 10.2725 65.8607C10.1965 65.879 10.1173 65.8794 10.0411 65.8619C9.96486 65.8444 9.89377 65.8094 9.8334 65.7597C9.41909 65.4534 9.03616 65.1068 8.69019 64.725C8.58168 64.6089 8.46559 64.5004 8.36717 64.3742C8.31165 64.3036 8.23594 64.2531 8.17537 64.185C8.07735 64.0634 7.97111 63.9488 7.8574 63.8418C7.78421 63.7787 7.70093 63.7257 7.63279 63.6575C7.53679 63.571 7.43189 63.4949 7.31986 63.4304C7.31986 63.0973 7.31986 62.7642 7.31986 62.421V57.944C7.31986 57.8683 7.31986 57.7926 7.31986 57.7194C7.30724 57.6942 7.30219 57.6664 7.335 57.6538Z" fill="#20BFCF"/>
<path d="M28.2283 75.6598L27.6125 75.4832L26.0983 75.0466C25.9557 75.0143 25.817 74.967 25.6844 74.9053C25.5514 74.8373 25.4372 74.7374 25.3522 74.6146C25.2672 74.4917 25.214 74.3496 25.1974 74.2012C25.1657 73.9938 25.2154 73.7822 25.3362 73.6106C25.3973 73.5264 25.4704 73.4516 25.5532 73.3886C25.6441 73.3154 25.7248 73.2321 25.8056 73.1564C25.9747 73.01 26.1362 72.8535 26.3103 72.7046L26.8958 72.1797C27.0901 72.0031 27.2844 71.8264 27.4813 71.6523L28.0642 71.1249L28.6497 70.5999C28.8516 70.4182 29.051 70.2391 29.2478 70.0574C29.321 69.9917 29.3917 69.9261 29.4674 69.8656C29.5431 69.805 29.533 69.8252 29.5633 69.8807C29.6516 70.0346 29.7424 70.1886 29.8156 70.3451C30.131 70.9493 30.3903 71.5812 30.5904 72.2327C30.6232 72.3412 30.6459 72.4523 30.6888 72.5583C30.1538 73.2312 29.6196 73.9042 29.0863 74.5772L28.2283 75.6598Z" fill="#20BFCF"/>
<path d="M10.1642 72.4399C10.2121 72.4399 10.2071 72.3869 10.2172 72.3566C10.2702 72.1724 10.3307 71.9907 10.3938 71.8115C10.5049 71.496 10.6311 71.1881 10.7699 70.8828C10.8784 70.6506 10.9945 70.421 11.1181 70.1964C11.1762 70.0904 11.2393 69.9844 11.3049 69.8784C11.3427 69.8153 11.3452 69.8178 11.3957 69.8607L11.9888 70.3932L12.7206 71.0468C12.8922 71.2008 13.0638 71.3547 13.238 71.5061C13.4903 71.7206 13.7276 71.9377 13.9698 72.1597C14.1389 72.3137 14.313 72.4651 14.4745 72.6165C14.7118 72.8285 14.9465 73.043 15.1887 73.25C15.267 73.3156 15.3427 73.3862 15.4209 73.4544C15.5519 73.5714 15.6406 73.7284 15.6733 73.901C15.6985 74.0232 15.6987 74.1493 15.674 74.2716C15.6493 74.3938 15.6001 74.5099 15.5294 74.6127C15.425 74.775 15.264 74.8928 15.0777 74.9433L13.5282 75.3875L12.8392 75.5919C12.8075 75.5974 12.7779 75.6113 12.7534 75.6323C12.5894 75.4354 12.4279 75.2386 12.2664 75.0392L10.1995 72.4802L10.1642 72.4399Z" fill="#20BFCF"/>
<path d="M7.31249 65.8633C7.40098 65.9031 7.48548 65.9513 7.56485 66.0071C7.78188 66.1409 8.00144 66.2746 8.21595 66.416C8.40833 66.5411 8.59367 66.6768 8.77115 66.8223C8.85905 66.8883 8.93795 66.9655 9.00585 67.0519C9.06567 67.1337 9.09593 67.2333 9.09165 67.3346C9.07887 67.3943 9.08458 67.4564 9.10803 67.5128C9.13147 67.5691 9.17154 67.617 9.22288 67.65C9.27649 67.6919 9.32788 67.7365 9.37682 67.7838C9.43486 67.8292 9.43486 67.8494 9.39701 67.9074C9.2254 68.1598 9.07903 68.4323 8.92257 68.6973C8.7661 68.9623 8.65254 69.202 8.5314 69.4544C8.43298 69.6639 8.33456 69.8708 8.2538 70.0853C8.08976 69.9036 7.94592 69.7093 7.78945 69.5225C7.7415 69.4645 7.69608 69.4065 7.65065 69.3459C7.42559 69.0374 7.3045 68.6653 7.30492 68.2834V65.9567C7.30008 65.9254 7.30268 65.8934 7.31249 65.8633Z" fill="#20BFCF"/>
<path d="M32.6595 70.0702C32.5207 69.7774 32.392 69.4847 32.2431 69.1995C32.0463 68.8159 31.8343 68.4424 31.5996 68.0765C31.5163 67.9478 31.5163 67.9427 31.6374 67.8468C31.698 67.7964 31.751 67.7409 31.8116 67.6904C31.8295 67.6738 31.8434 67.6534 31.8521 67.6306C31.8609 67.6079 31.8643 67.5834 31.862 67.5591C31.8629 67.4331 31.8922 67.3089 31.9478 67.1957C31.9977 67.104 32.0676 67.0247 32.1523 66.9636C32.4764 66.6991 32.8207 66.4603 33.1819 66.2494C33.2355 66.2086 33.294 66.1746 33.356 66.1484C33.3573 66.1711 33.3573 66.1939 33.356 66.2166V68.6216C33.3598 68.8064 33.342 68.991 33.303 69.1718C33.2777 69.2761 33.2295 69.3736 33.1617 69.4569C33.0229 69.626 32.8866 69.8001 32.7504 69.9743C32.7251 70.002 32.6923 70.0348 32.6595 70.0702Z" fill="#20BFCF"/>
<path d="M19.1104 64.9749C19.0851 65.1616 19.1104 65.3509 19.0725 65.5377C19.07 65.5502 19.07 65.563 19.0725 65.5755C19.0725 65.7572 19.0548 65.9389 19.0473 66.1206C19.0473 66.3528 19.022 66.585 19.0094 66.8171C18.9968 67.0493 18.9817 67.2891 18.969 67.5263L18.9312 68.2051C18.9186 68.4323 18.9034 68.6619 18.8908 68.8916L18.853 69.5906C18.853 69.8001 18.8328 70.0095 18.8151 70.219C18.8057 70.4217 18.7299 70.6157 18.5995 70.7712C18.4692 70.9266 18.2913 71.035 18.0933 71.0796C17.974 71.1109 17.849 71.1142 17.7282 71.0893C17.6074 71.0643 17.494 71.0118 17.3968 70.9357C17.1747 70.7641 16.94 70.6051 16.7104 70.431L15.3577 69.4695L14.2019 68.6443L13.3237 68.0159L13.0309 67.8089C12.9805 67.7711 12.9779 67.766 13.0309 67.7206C13.2359 67.5127 13.4515 67.3156 13.677 67.1301C14.3717 66.5496 15.1406 66.0642 15.9634 65.6866C16.3437 65.5117 16.7338 65.3592 17.1318 65.2298C17.5345 65.0974 17.946 64.9936 18.3634 64.9194C18.5905 64.8815 18.8151 64.8361 19.0397 64.7932C19.1104 64.7806 19.1154 64.7932 19.1179 64.8588V64.9648L19.1104 64.9749Z" fill="#20BFCF"/>
<path d="M21.7803 65.0128V64.9346C21.7803 64.8286 21.7803 64.8236 21.8888 64.8362C22.0377 64.8539 22.1841 64.8791 22.3305 64.9018C22.5828 64.9397 22.8125 64.9952 23.0522 65.0507C23.2087 65.0886 23.3652 65.1315 23.5191 65.1769C23.9734 65.3146 24.4178 65.4832 24.8491 65.6816C25.2973 65.8857 25.7308 66.121 26.1462 66.3857C26.472 66.5927 26.7855 66.8186 27.085 67.062C27.2737 67.21 27.454 67.3684 27.6251 67.5365C27.6856 67.5945 27.7538 67.645 27.8118 67.7056C27.8699 67.7661 27.8825 67.7813 27.8118 67.8368L27.1481 68.3112L25.6743 69.351L24.8364 69.9415C24.4024 70.2494 23.9683 70.5547 23.5368 70.8651C23.3704 71.0036 23.1597 71.0774 22.9433 71.0733C22.7269 71.0691 22.5192 70.9872 22.3582 70.8424C22.2247 70.7313 22.1309 70.5799 22.0907 70.4109C22.0832 70.3768 22.0782 70.3422 22.0756 70.3074C22.063 70.1131 22.063 69.9188 22.0377 69.7245V69.7068C22.0377 69.515 22.0201 69.3232 22.0125 69.1339C22.0125 68.8816 21.9873 68.6469 21.9721 68.4046C21.9721 68.2986 21.9721 68.1901 21.9545 68.0866C21.9343 67.9352 21.9545 67.7813 21.9217 67.6324V67.6021C21.9217 67.4103 21.904 67.221 21.8964 67.0292C21.8964 66.7769 21.8712 66.5245 21.856 66.2721C21.8409 66.0198 21.8333 65.8204 21.8157 65.5933C21.8165 65.4414 21.8072 65.2897 21.7879 65.139C21.7828 65.0937 21.7828 65.048 21.7879 65.0027L21.7803 65.0128Z" fill="#20BFCF"/>
<path d="M120.633 60.5591C122.063 60.5591 123.188 60.9944 124.007 61.8647C124.827 62.7351 125.24 64.0156 125.246 65.7056C125.246 65.8723 125.246 66.0533 125.227 66.2485C125.208 66.4439 125.201 66.6205 125.189 66.7729H118.756C118.781 67.0511 118.867 67.3204 119.009 67.561C119.151 67.8016 119.344 68.0079 119.576 68.1646C120.154 68.5343 120.834 68.7143 121.52 68.6792C122.035 68.6798 122.548 68.6313 123.054 68.5356C123.476 68.4645 123.888 68.3462 124.284 68.1831L124.664 70.4897C124.468 70.5861 124.264 70.6659 124.055 70.728C123.776 70.8101 123.493 70.877 123.206 70.9282C122.889 70.9854 122.556 71.0327 122.206 71.0708C121.852 71.1088 121.495 71.1284 121.139 71.1284C120.336 71.1459 119.537 71.0099 118.784 70.728C118.155 70.4899 117.585 70.1149 117.117 69.6313C116.674 69.1612 116.342 68.5979 116.145 67.9829C115.929 67.3152 115.823 66.6171 115.83 65.9155C115.813 65.118 115.953 64.3246 116.241 63.5806C116.484 62.9584 116.85 62.391 117.317 61.9126C117.753 61.474 118.276 61.1305 118.852 60.9028C119.419 60.6765 120.023 60.5593 120.633 60.5591ZM107.635 61.0737C107.954 60.9346 108.286 60.8267 108.625 60.7505C108.988 60.6722 109.359 60.633 109.731 60.6353C110.379 60.6226 111.023 60.7497 111.618 61.0073C112.153 61.2466 112.623 61.609 112.991 62.0649C113.375 62.554 113.661 63.1142 113.829 63.7134C114.026 64.4045 114.121 65.121 114.115 65.8394C114.125 66.5786 114.006 67.3142 113.762 68.0122C113.547 68.6351 113.199 69.2038 112.742 69.6792C112.281 70.1482 111.721 70.5103 111.104 70.7378C110.396 70.996 109.646 71.1214 108.893 71.1089C108.55 71.1089 108.192 71.0944 107.816 71.061C107.439 71.0277 107.072 70.9904 106.71 70.938C106.348 70.8856 105.995 70.8278 105.671 70.7563C105.348 70.6849 105.05 70.6138 104.795 70.5376V56.5278L107.635 56.0708V61.0737ZM96.304 66.0679C96.304 66.9827 96.4247 67.6453 96.6653 68.0503C96.9059 68.4553 97.359 68.6596 98.0189 68.6597C98.2238 68.6597 98.4386 68.6599 98.6673 68.6313C98.8958 68.6028 99.1005 68.5911 99.2767 68.5649V60.8267H102.117L102.126 70.5132C100.734 70.8896 99.2987 71.0823 97.8568 71.0854C97.1331 71.1066 96.4119 70.9905 95.7318 70.7427C95.2089 70.5469 94.7457 70.2183 94.388 69.7896C94.0446 69.3554 93.8005 68.8508 93.6732 68.312C93.5289 67.6936 93.4592 67.0603 93.4642 66.4253V60.8267H96.304V66.0679ZM70.261 60.5972C70.9838 60.5766 71.7043 60.6902 72.386 60.9312C72.9088 61.1274 73.3718 61.4558 73.7298 61.8843C74.0711 62.309 74.3153 62.8033 74.4446 63.3325C74.5897 63.9444 74.6594 64.5719 74.6536 65.2007V70.8618H71.805V65.5337C71.805 64.6193 71.684 63.9715 71.4427 63.5903C71.2013 63.2091 70.7499 63.0181 70.0892 63.0181C69.8845 63.0181 69.6702 63.0179 69.4417 63.0464C69.213 63.075 69.0077 63.0899 68.8314 63.1138V70.8521H65.9915V61.1694C66.6059 61.0027 67.23 60.8724 67.8597 60.7788C68.6542 60.6565 69.4572 60.5953 70.261 60.5972ZM53.9075 60.5972C54.5807 60.575 55.2517 60.6888 55.8802 60.9312C56.3666 61.1352 56.7909 61.4641 57.1097 61.8843C57.4246 62.3141 57.6396 62.8089 57.7386 63.3325C57.8582 63.9478 57.915 64.5739 57.9095 65.2007V70.8608H55.0696V65.5337C55.0696 64.6192 54.9505 63.9715 54.7171 63.5903C54.4836 63.2092 54.0789 63.0181 53.5071 63.0181C53.2903 63.0288 53.0756 63.0671 52.8685 63.1323C52.6299 63.1932 52.4017 63.2898 52.1917 63.4185C52.2815 63.7196 52.3393 64.0299 52.3636 64.3433C52.3874 64.6671 52.4017 65.0147 52.4017 65.3813V70.8608H49.5618V65.5337C49.5618 64.6193 49.4426 63.9715 49.2093 63.5903C48.9758 63.2091 48.5701 63.0181 47.9984 63.0181C47.8198 63.0181 47.6361 63.0178 47.4456 63.0464C47.2551 63.0749 47.0691 63.09 46.8929 63.1138V70.8521H44.053V61.1694C44.2913 61.1075 44.5777 61.0407 44.9017 60.9692C45.2256 60.8978 45.5689 60.836 45.931 60.7788C46.293 60.7216 46.6651 60.6784 47.0462 60.645C47.4272 60.6117 47.8011 60.5972 48.1702 60.5972C48.7699 60.577 49.3681 60.6709 49.9329 60.8735C50.3372 61.032 50.7139 61.2546 51.0482 61.5317C51.8912 60.9514 52.8845 60.6265 53.9075 60.5972ZM63.3226 70.8521H60.4827V60.8267H63.3226V70.8521ZM80.055 70.8521H77.2151V60.8267H80.055V70.8521ZM85.5638 64.4292C85.8449 64.1242 86.1332 63.8096 86.431 63.4761C86.7287 63.1426 87.0171 62.8235 87.2982 62.4995C87.5793 62.1755 87.8385 61.8722 88.0862 61.5815C88.334 61.2909 88.5462 61.0386 88.7249 60.8218H92.1009C91.429 61.5969 90.7715 62.3356 90.1282 63.0376C89.485 63.7396 88.7826 64.4657 88.0218 65.2153C88.4451 65.5996 88.8433 66.0109 89.2132 66.4468C89.6198 66.9232 90.0171 67.4165 90.4046 67.9263C90.7922 68.4361 91.1421 68.9454 91.4534 69.4536C91.771 69.9633 92.0373 70.428 92.2532 70.8472H88.9896C88.7847 70.516 88.5539 70.1512 88.2943 69.7485C88.0346 69.3459 87.7577 68.948 87.4671 68.5454C87.1765 68.1429 86.8668 67.7593 86.5452 67.3901C86.2549 67.0514 85.9359 66.7379 85.5921 66.4536V70.8472H82.7239V56.519L85.5638 56.062V64.4292ZM109.198 63.0181C108.905 63.0183 108.613 63.0566 108.33 63.1323C108.085 63.1916 107.851 63.2884 107.635 63.4185V68.5835C107.776 68.6097 107.954 68.6309 108.168 68.6499C108.383 68.669 108.619 68.6792 108.883 68.6792C109.66 68.6792 110.245 68.4121 110.637 67.8784C111.054 67.2548 111.258 66.5125 111.218 65.7632C111.218 63.9334 110.544 63.0181 109.198 63.0181ZM120.671 62.894C120.39 62.8873 120.11 62.9427 119.852 63.0562C119.634 63.1579 119.439 63.304 119.281 63.4849C119.126 63.6679 119.007 63.8779 118.928 64.104C118.846 64.3361 118.785 64.5757 118.746 64.8188L122.501 64.8286C122.49 64.5862 122.448 64.3459 122.377 64.1138C122.31 63.8912 122.2 63.6843 122.053 63.5044C121.901 63.3222 121.712 63.1729 121.5 63.0659C121.242 62.9436 120.957 62.8844 120.671 62.894ZM61.8939 56.2524C62.3318 56.2526 62.7548 56.4113 63.0843 56.6997C63.2535 56.855 63.3866 57.0459 63.4739 57.2583C63.5612 57.4707 63.6013 57.6998 63.5901 57.9292C63.6018 58.1585 63.5621 58.3877 63.4749 58.6001C63.3876 58.8126 63.2539 59.0037 63.0843 59.1587C62.7547 59.4472 62.3318 59.6068 61.8939 59.6069C61.4557 59.6069 61.0321 59.4473 60.7025 59.1587C60.3789 58.8313 60.1976 58.3895 60.1976 57.9292C60.1976 57.469 60.3789 57.027 60.7025 56.6997C61.0321 56.4112 61.4558 56.2524 61.8939 56.2524ZM78.6253 56.2524C79.0635 56.2524 79.487 56.4111 79.8167 56.6997C79.9863 56.8547 80.12 57.0458 80.2073 57.2583C80.2945 57.4707 80.3332 57.6999 80.3216 57.9292C80.3338 58.1587 80.2947 58.3885 80.2073 58.6011C80.12 58.8136 79.9867 59.0041 79.8167 59.1587C79.487 59.4474 79.0635 59.6069 78.6253 59.6069C78.1871 59.6069 77.7636 59.4473 77.4339 59.1587C77.1116 58.8308 76.931 58.389 76.931 57.9292C76.931 57.4693 77.1115 57.0276 77.4339 56.6997C77.7636 56.411 78.1871 56.2525 78.6253 56.2524Z" fill="#326DE6"/>
</svg>
