<svg width="128" height="128" viewBox="0 0 128 128" fill="none" xmlns="http://www.w3.org/2000/svg">
<path d="M51.725 57.1599L47.2991 62.9689L42.8732 57.1599H40.8373V70.6036H42.7183V60.0035L47.2825 66.0283L51.8743 60.0035V70.6036H53.7554V57.1599H51.725Z" fill="#001021"/>
<path d="M58.4634 57.1599H56.5824V70.6036H58.4634V57.1599Z" fill="#001021"/>
<path d="M63.1603 63.7325H66.1754C67.3428 63.7325 68.145 63.5057 68.5765 63.052C69.015 62.5693 69.2456 61.9333 69.2182 61.2817C69.2182 59.622 68.1782 58.8143 66.098 58.8143H63.1769L63.1603 63.7325ZM61.2793 70.6037V57.1601H66.2584C67.5295 57.0861 68.7863 57.46 69.8102 58.2168C70.2448 58.5835 70.5881 59.0464 70.8128 59.5687C71.0375 60.0911 71.1375 60.6586 71.1048 61.2264C71.1538 62.1775 70.846 63.1126 70.2417 63.8487C69.6702 64.4952 68.9222 64.9606 68.0896 65.1875L71.6636 70.6093H69.4506L66.1754 65.4863H63.1548V70.6037H61.2793Z" fill="#001021"/>
<path d="M78.8557 59.5001L80.9967 65.0823H76.7202L78.8557 59.5001ZM77.9539 57.1599L72.5875 70.6036H74.6068L76.0508 66.8305H81.6661L83.1156 70.6036H85.1349L79.7851 57.1599H77.9539Z" fill="#001021"/>
<path d="M96.194 57.1599V67.8595L88.6755 57.1599H86.54V70.6036H88.421V59.8376L96.0004 70.6036H98.075V57.1599H96.194Z" fill="#001021"/>
<path d="M100.233 57.1599V58.9137H104.742V70.6036H106.623V58.9137H111.159V57.1599H100.233Z" fill="#001021"/>
<path d="M115.203 57.1599H113.322V70.6036H115.203V57.1599Z" fill="#001021"/>
<path d="M117.444 60.7897C117.436 60.2871 117.533 59.7884 117.731 59.3261C117.928 58.8638 118.22 58.4482 118.589 58.1065C119.356 57.3688 120.54 57 122.141 57C123.343 57.0004 124.529 57.2808 125.604 57.8188V59.6445C124.629 59.0519 123.508 58.7435 122.368 58.7538C120.337 58.7538 119.325 59.4287 119.325 60.7897C119.332 60.9816 119.386 61.1688 119.482 61.3348C119.579 61.5007 119.715 61.6404 119.878 61.7412C120.277 62.0348 120.725 62.2558 121.2 62.3941C121.72 62.5545 122.307 62.7647 122.921 63.0247C123.509 63.267 124.084 63.5422 124.641 63.8491C125.185 64.1562 125.641 64.5983 125.964 65.1326C126.335 65.7216 126.527 66.4058 126.517 67.1021C126.54 67.6225 126.434 68.1404 126.209 68.6102C125.984 69.0801 125.647 69.4874 125.228 69.7964C124.175 70.4984 122.923 70.8383 121.66 70.7645C120.259 70.7597 118.878 70.4302 117.626 69.8019V67.8711C118.772 68.6034 120.101 68.9983 121.46 69.0108C123.552 69.0108 124.599 68.3746 124.603 67.1021C124.607 66.5847 124.408 66.0863 124.049 65.7135C123.69 65.3264 123.236 65.0386 122.733 64.8781L121.001 64.2917C120.376 64.0759 119.801 63.8491 119.275 63.6222C118.748 63.3917 118.293 63.0228 117.958 62.5545C117.588 62.0436 117.394 61.4261 117.405 60.7952" fill="#001021"/>
<path d="M11.0676 62.2012C13.1422 62.7932 14.6027 64.0601 16.1186 65.327C17.463 64.5746 18.7907 63.8001 20.1185 63.0642C20.5722 62.8171 21.0258 62.5792 21.4795 62.3506C21.0258 61.9522 20.5666 61.5539 20.0853 61.1832C18.3222 59.7941 16.1832 58.9655 13.9444 58.8043C11.7564 58.6842 9.56713 59.0151 7.5124 59.7764C5.45768 60.5378 3.58138 61.7134 2 63.2302C3.36097 62.4455 4.8692 61.9501 6.43037 61.775C7.99155 61.5998 9.57207 61.7487 11.0731 62.2123" fill="#001021"/>
<path d="M24.9871 64.8668C24.228 64.5177 23.5176 64.0714 22.8737 63.5391C21.4242 64.3413 19.9969 65.1988 18.5695 65.9733C18.2376 66.1559 17.9056 66.3329 17.5792 66.5265C17.9686 66.8203 18.373 67.0936 18.7908 67.3453C24.1683 70.5707 31.5872 68.8003 35.9411 64.5792C32.6217 66.6151 28.4503 66.4325 24.9815 64.9056" fill="#001021"/>
<path d="M33.9882 59.3008C29.0104 59.0137 24.0572 60.1867 19.7368 62.6755C14.7189 65.4417 9.67896 68.8773 3.94189 68.9603C8.92013 69.2528 13.8749 68.0795 18.1933 65.5855C23.2111 62.8193 28.2511 59.3837 33.9882 59.3008Z" fill="#EF2369"/>
</svg>
