<svg width="128" height="128" viewBox="0 0 128 128" fill="none" xmlns="http://www.w3.org/2000/svg">
<path d="M20.8529 79.4292L14.8005 87.3513L8.78845 79.4292H6V97.7717H8.57891V83.2653L14.8005 91.4856L21.0625 83.2653V97.7717H23.6333V79.4292H20.8529Z" fill="#001021"/>
<path d="M30.0322 79.4292H27.4694V97.7717H30.0322V79.4292Z" fill="#001021"/>
<path d="M36.4474 88.3979H40.5495C42.1613 88.3979 43.2331 88.0836 43.7731 87.4711C44.3764 86.8139 44.6951 85.9447 44.6596 85.0534C44.6596 82.8049 43.2331 81.6846 40.3963 81.6846H36.4071L36.4474 88.3979ZM33.8846 97.7706V79.4281H40.6542C42.3837 79.3306 44.0932 79.8377 45.4897 80.8626C46.083 81.3635 46.5514 81.9957 46.8578 82.7092C47.1641 83.4226 47.3 84.1976 47.2546 84.9728C47.322 86.2705 46.9024 87.5465 46.078 88.551C45.3008 89.4337 44.2803 90.0674 43.1445 90.3724L48.0202 97.7706H45.0061L40.5736 90.7914H36.4474V97.7706H33.8846Z" fill="#001021"/>
<path d="M57.8683 82.6111L60.7857 90.227H54.959L57.8683 82.6111ZM56.6353 79.3875L49.3176 97.73H52.0738L54.0403 92.5883H61.6964L63.6709 97.73H66.4432L59.19 79.3875H56.6353Z" fill="#001021"/>
<path d="M81.5298 79.4292V94.0243L71.2787 79.4292H68.3613V97.7717H70.9241V83.08L81.2639 97.7717H84.1007V79.4292H81.5298Z" fill="#001021"/>
<path d="M87.0424 79.4277V81.8455H93.1915V97.8025H95.7542V81.8052H101.944V79.3875L87.0424 79.4277Z" fill="#001021"/>
<path d="M107.456 79.4292H104.893V97.7717H107.456V79.4292Z" fill="#001021"/>
<path d="M110.518 84.3849C110.506 83.6981 110.639 83.0165 110.909 82.3847C111.178 81.7528 111.578 81.1849 112.082 80.718C113.156 79.7133 114.768 79.211 116.917 79.211C118.56 79.2083 120.181 79.592 121.648 80.3312V82.8214C120.318 82.0128 118.788 81.5913 117.231 81.6045C114.459 81.6045 113.073 82.5313 113.073 84.3849C113.082 84.6442 113.153 84.8976 113.281 85.1235C113.408 85.3494 113.589 85.5411 113.806 85.6824C114.349 86.0855 114.961 86.3859 115.612 86.5689C116.321 86.7946 117.102 87.0766 117.957 87.4312C118.762 87.7632 119.547 88.1399 120.31 88.5595C121.092 89.002 121.74 89.6474 122.185 90.4276C122.63 91.2078 122.857 92.0938 122.841 92.992C122.869 93.7022 122.724 94.4087 122.416 95.0494C122.108 95.6902 121.648 96.2456 121.076 96.667C119.648 97.6161 117.952 98.0796 116.24 97.9887C114.345 97.9717 112.479 97.5224 110.784 96.675V94.0397C112.348 95.0369 114.16 95.5758 116.014 95.5951C118.867 95.5951 120.297 94.7274 120.302 92.992C120.317 92.2893 120.06 91.6078 119.585 91.0901C119.092 90.5645 118.474 90.1734 117.788 89.9537L115.426 89.1478C114.572 88.8496 113.814 88.5434 113.065 88.2291C112.345 87.9144 111.724 87.4102 111.268 86.7704C110.768 86.0653 110.514 85.2162 110.542 84.3527" fill="#001021"/>
<path d="M38.5023 42.034C45.3042 43.9199 50.0993 47.9978 55.0637 52.0837C59.464 49.666 63.824 47.1596 68.1759 44.8305C69.6695 44.0246 71.1578 43.2617 72.6406 42.5418C71.1416 41.2523 69.6427 39.9628 68.0711 38.7781C62.2617 34.287 55.2493 31.6223 47.9234 31.122C33.8683 30.0904 18.967 35.6673 8.76422 45.3383C17.6937 39.979 28.5977 39.31 38.4942 42.0582" fill="#001021"/>
<path d="M84.1732 50.6002C81.6771 49.4856 79.3343 48.0556 77.2021 46.345C72.4633 48.9239 67.781 51.6317 63.0986 54.1623C62.0241 54.7479 60.9495 55.3121 59.875 55.8547C61.1535 56.798 62.4796 57.6749 63.8481 58.482C81.4895 68.846 105.804 63.1563 120.109 49.5606C109.245 56.1046 95.5365 55.5082 84.1651 50.6082" fill="#001021"/>
<path d="M113.661 32.7105C96.7373 31.9046 82.0858 35.362 66.9186 43.5662C50.4539 52.4876 33.9408 63.5125 15.1147 63.7784C32.0388 64.5843 46.6903 61.127 61.8575 52.9228C78.3222 44.0014 94.8434 32.9765 113.661 32.7105Z" fill="#EF2369"/>
</svg>
