<svg width="128" height="128" viewBox="0 0 128 128" fill="none" xmlns="http://www.w3.org/2000/svg">
<path d="M73.7982 18.1519C68.8458 12.276 64.5811 6.30831 63.7099 5.06886C63.6182 4.97705 63.4806 4.97705 63.3889 5.06886C62.5176 6.30831 58.253 12.276 53.3005 18.1519C10.792 72.3661 59.9955 108.953 59.9955 108.953L60.4082 109.228C60.775 114.875 61.6922 123 61.6922 123H63.5264H65.3607C65.3607 123 66.2778 114.92 66.6447 109.228L67.0573 108.907C67.1032 108.953 116.307 72.3661 73.7982 18.1519ZM63.5264 108.172C63.5264 108.172 61.3254 106.29 60.7292 105.326V105.235L63.3889 46.2001C63.3889 46.0165 63.664 46.0165 63.664 46.2001L66.3236 105.235V105.326C65.7275 106.29 63.5264 108.172 63.5264 108.172Z" fill="#00ED64"/>
</svg>
