<svg width="128" height="128" viewBox="0 0 128 128" fill="none" xmlns="http://www.w3.org/2000/svg">
<path d="M11.1799 52.1942C9.97712 50.7671 8.94138 49.3177 8.72979 49.0167C8.70751 48.9944 8.67409 48.9944 8.65182 49.0167C8.44022 49.3177 7.4045 50.7671 6.20171 52.1942C-4.12216 65.3609 7.8277 74.2466 7.8277 74.2466L7.92793 74.3135C8.01701 75.6848 8.23976 77.6582 8.23976 77.6582H8.68523H9.13071C9.13071 77.6582 9.35345 75.6959 9.44255 74.3135L9.54277 74.2355C9.5539 74.2466 21.5038 65.3609 11.1799 52.1942ZM8.68523 74.0571C8.68523 74.0571 8.15067 73.6 8.00589 73.3658V73.3436L8.65182 59.0061C8.65182 58.9615 8.71865 58.9615 8.71865 59.0061L9.36458 73.3436V73.3658C9.2198 73.6 8.68523 74.0571 8.68523 74.0571Z" fill="#00684A"/>
<path d="M31.0486 71.0333L26.069 58.9579L26.0579 58.9246H22.1835V59.7362H22.8088C22.9986 59.7362 23.1772 59.8141 23.3112 59.9475C23.4452 60.0809 23.5122 60.2589 23.5122 60.4479L23.4006 72.601C23.4006 72.979 23.088 73.2903 22.7083 73.3015L22.0719 73.3126V74.1132H25.8458V73.3126L25.4549 73.3015C25.0753 73.2903 24.7627 72.979 24.7627 72.601V61.1484L30.189 74.1132C30.2671 74.3022 30.4457 74.4245 30.6467 74.4245C30.8477 74.4245 31.0263 74.3022 31.1045 74.1132L36.408 61.4375L36.4861 72.601C36.4861 72.9902 36.1734 73.3015 35.7827 73.3126H35.3807V74.1132H39.8021V73.3126H39.1992C38.8196 73.3126 38.5069 72.9902 38.4958 72.6121L38.4623 60.4589C38.4623 60.0698 38.7749 59.7585 39.1546 59.7474L39.8021 59.7362V58.9246H36.0283L31.0486 71.0333Z" fill="#00684A"/>
<path d="M65.7695 73.1014C65.6463 72.9792 65.5792 72.8126 65.5792 72.6128V66.6598C65.5792 65.5269 65.2434 64.6384 64.5717 64.0054C63.9113 63.3723 62.9934 63.0503 61.8516 63.0503C60.2508 63.0503 58.9859 63.6945 58.1015 64.9606C58.0903 64.9828 58.0568 64.9939 58.0232 64.9939C57.9895 64.9939 57.9672 64.9716 57.9672 64.9384L57.553 63.3501H56.8589L55.0791 64.3609V64.9161H55.5381C55.7507 64.9161 55.9298 64.9716 56.053 65.0827C56.1761 65.1937 56.2433 65.3603 56.2433 65.5936V72.6016C56.2433 72.8015 56.1761 72.9681 56.053 73.0902C55.9298 73.2125 55.762 73.279 55.5605 73.279H55.1127V74.0898H59.2097V73.279H58.762C58.5605 73.279 58.3925 73.2125 58.2694 73.0902C58.1463 72.9681 58.0791 72.8015 58.0791 72.6016V67.9592C58.0791 67.3705 58.2134 66.782 58.4598 66.2045C58.7171 65.638 59.0977 65.1605 59.6015 64.794C60.1052 64.4274 60.7097 64.2498 61.4038 64.2498C62.1874 64.2498 62.7807 64.4941 63.15 64.9828C63.5195 65.4714 63.7098 66.1045 63.7098 66.8597V72.5905C63.7098 72.7904 63.6426 72.957 63.5195 73.0792C63.3964 73.2013 63.2284 73.268 63.0269 73.268H62.5792V74.0787H66.6762V73.268H66.2285C66.0606 73.2902 65.9038 73.2235 65.7695 73.1014Z" fill="#00684A"/>
<path d="M103.201 59.8403C102.069 59.2372 100.803 58.9246 99.4372 58.9246H94.1079V59.7398H94.6298C94.8296 59.7398 95.0072 59.8179 95.1849 59.9966C95.3515 60.1641 95.4402 60.354 95.4402 60.555V72.5711C95.4402 72.772 95.3515 72.9619 95.1849 73.1294C95.0184 73.2969 94.8296 73.3862 94.6298 73.3862H94.1079V74.2015H99.4372C100.803 74.2015 102.069 73.8888 103.201 73.2858C104.334 72.6827 105.255 71.7893 105.921 70.6503C106.588 69.5113 106.932 68.1377 106.932 66.5742C106.932 65.0108 106.588 63.6484 105.921 62.4981C105.244 61.3368 104.334 60.4433 103.201 59.8403ZM104.789 66.5519C104.789 67.9813 104.534 69.1873 104.034 70.1589C103.534 71.1305 102.868 71.8563 102.046 72.3253C101.225 72.7945 100.314 73.029 99.3373 73.029H98.2603C98.0605 73.029 97.8829 72.9508 97.7053 72.772C97.5387 72.6046 97.4499 72.4148 97.4499 72.2137V60.8789C97.4499 60.6778 97.5276 60.4992 97.7053 60.3204C97.8717 60.153 98.0605 60.0636 98.2603 60.0636H99.3373C100.314 60.0636 101.225 60.2981 102.046 60.7672C102.868 61.2362 103.534 61.9621 104.034 62.9337C104.534 63.9052 104.789 65.1224 104.789 66.5519Z" fill="#00684A"/>
<path d="M119.529 67.3671C119.036 66.7975 118.085 66.3174 116.967 66.0604C118.511 65.2899 119.305 64.2067 119.305 62.8108C119.305 62.0514 119.104 61.3702 118.701 60.7895C118.298 60.2088 117.727 59.7398 117 59.4159C116.272 59.0921 115.421 58.9246 114.459 58.9246H108.426V59.7398H108.907C109.109 59.7398 109.288 59.8179 109.467 59.9966C109.635 60.1641 109.724 60.354 109.724 60.555V72.5711C109.724 72.772 109.635 72.9619 109.467 73.1294C109.299 73.2969 109.109 73.3862 108.907 73.3862H108.381V74.2015H114.929C115.925 74.2015 116.854 74.034 117.694 73.6989C118.533 73.3639 119.205 72.8726 119.686 72.2249C120.178 71.5772 120.425 70.7843 120.425 69.8685C120.413 68.8858 120.122 68.0482 119.529 67.3671ZM112.019 72.7832C111.851 72.6157 111.761 72.4259 111.761 72.2249V66.8311H114.874C115.97 66.8311 116.809 67.1102 117.391 67.6685C117.974 68.227 118.265 68.9528 118.265 69.8462C118.265 70.3823 118.13 70.9071 117.884 71.3873C117.627 71.8787 117.245 72.2696 116.731 72.5711C116.227 72.8726 115.601 73.029 114.874 73.029H112.579C112.377 73.0401 112.198 72.9508 112.019 72.7832ZM111.773 65.6808V60.89C111.773 60.689 111.851 60.5104 112.03 60.3316C112.198 60.1641 112.388 60.0748 112.59 60.0748H114.067C115.13 60.0748 115.914 60.3429 116.407 60.8565C116.899 61.3814 117.145 62.0514 117.145 62.8778C117.145 63.7265 116.91 64.4078 116.451 64.9215C115.992 65.4239 115.298 65.6808 114.381 65.6808H111.773Z" fill="#00684A"/>
<path d="M50.1726 63.7625C49.3173 63.2952 48.3621 63.0503 47.3292 63.0503C46.2962 63.0503 45.3299 63.284 44.4858 63.7625C43.6305 64.23 42.9529 64.9088 42.4531 65.7658C41.9533 66.6228 41.6979 67.6245 41.6979 68.7373C41.6979 69.8502 41.9533 70.8519 42.4531 71.7089C42.9529 72.5658 43.6305 73.2447 44.4858 73.7121C45.341 74.1795 46.2962 74.4244 47.3292 74.4244C48.3621 74.4244 49.3284 74.1906 50.1726 73.7121C51.0279 73.2447 51.7054 72.5658 52.2052 71.7089C52.705 70.8519 52.9605 69.8502 52.9605 68.7373C52.9605 67.6245 52.705 66.6228 52.2052 65.7658C51.7054 64.9088 51.0279 64.2411 50.1726 63.7625ZM50.9945 68.7373C50.9945 70.1062 50.6613 71.2191 49.9948 72.0204C49.3396 72.8217 48.4399 73.2335 47.3292 73.2335C46.2185 73.2335 45.3187 72.8217 44.6635 72.0204C43.997 71.2191 43.6638 70.1062 43.6638 68.7373C43.6638 67.3684 43.997 66.2555 44.6635 65.4542C45.3187 64.6529 46.2185 64.2411 47.3292 64.2411C48.4399 64.2411 49.3396 64.6529 49.9948 65.4542C50.6613 66.2666 50.9945 67.3684 50.9945 68.7373Z" fill="#00684A"/>
<path d="M89.5357 63.7625C88.6805 63.2952 87.7253 63.0503 86.6923 63.0503C85.6594 63.0503 84.6931 63.284 83.8489 63.7625C82.9936 64.23 82.3161 64.9088 81.8163 65.7658C81.3165 66.6228 81.061 67.6245 81.061 68.7373C81.061 69.8502 81.3165 70.8519 81.8163 71.7089C82.3161 72.5658 82.9936 73.2447 83.8489 73.7121C84.7042 74.1795 85.6594 74.4244 86.6923 74.4244C87.7253 74.4244 88.6916 74.1906 89.5357 73.7121C90.391 73.2447 91.0686 72.5658 91.5684 71.7089C92.0682 70.8519 92.3236 69.8502 92.3236 68.7373C92.3236 67.6245 92.0682 66.6228 91.5684 65.7658C91.0686 64.9088 90.3799 64.2411 89.5357 63.7625ZM90.3577 68.7373C90.3577 70.1062 90.0244 71.2191 89.358 72.0204C88.7027 72.8217 87.803 73.2335 86.6923 73.2335C85.5816 73.2335 84.6819 72.8217 84.0267 72.0204C83.3602 71.2191 83.027 70.1062 83.027 68.7373C83.027 67.3573 83.3602 66.2555 84.0267 65.4542C84.6819 64.6529 85.5816 64.2411 86.6923 64.2411C87.803 64.2411 88.7027 64.6529 89.358 65.4542C90.0133 66.2666 90.3577 67.3684 90.3577 68.7373Z" fill="#00684A"/>
<path d="M73.6613 63.0503C72.7663 63.0503 71.9498 63.2403 71.2115 63.6204C70.4732 64.0006 69.8916 64.515 69.4777 65.1746C69.0638 65.823 68.8513 66.5498 68.8513 67.3213C68.8513 68.0144 69.0079 68.6517 69.3322 69.222C69.6455 69.7698 70.0706 70.2281 70.6075 70.6083L69.0079 72.7774C68.8065 73.0456 68.7842 73.4034 68.9296 73.6941C69.0861 73.9959 69.377 74.1749 69.7126 74.1749H70.1712C69.7238 74.4768 69.3658 74.8345 69.1197 75.2594C68.8289 75.7402 68.6835 76.2432 68.6835 76.7575C68.6835 77.7191 69.1086 78.5129 69.9474 79.1055C70.7753 79.698 71.9386 79.9999 73.4039 79.9999C74.4219 79.9999 75.3951 79.8322 76.2788 79.5079C77.1737 79.1837 77.9007 78.7029 78.4377 78.0769C78.9858 77.4508 79.2655 76.6905 79.2655 75.8184C79.2655 74.9016 78.9299 74.2531 78.1468 73.6271C77.4758 73.1015 76.4242 72.8221 75.1154 72.8221H70.641C70.6299 72.8221 70.6186 72.8108 70.6186 72.8108C70.6186 72.8108 70.6075 72.7885 70.6186 72.7774L71.782 71.2121C72.0953 71.3574 72.3861 71.4468 72.6433 71.5027C72.9117 71.5587 73.2138 71.581 73.5494 71.581C74.4891 71.581 75.3392 71.3909 76.0774 71.0108C76.8157 70.6307 77.4086 70.1164 77.8337 69.4567C78.2587 68.8082 78.4712 68.0815 78.4712 67.3101C78.4712 66.4827 78.0686 64.9733 76.9723 64.2019C76.9723 64.1907 76.9836 64.1907 76.9836 64.1907L79.3885 64.459V63.3522H75.5405C74.9364 63.1509 74.3101 63.0503 73.6613 63.0503ZM75.0036 70.0381C74.5785 70.2617 74.1198 70.3847 73.6613 70.3847C72.9119 70.3847 72.2518 70.1164 71.6925 69.5908C71.1333 69.0654 70.8536 68.294 70.8536 67.3101C70.8536 66.3261 71.1333 65.5547 71.6925 65.0293C72.2518 64.5037 72.9119 64.2354 73.6613 64.2354C74.1311 64.2354 74.5785 64.3473 75.0036 64.582C75.4286 64.8056 75.7754 65.1523 76.0551 65.6106C76.3235 66.069 76.4689 66.6393 76.4689 67.3101C76.4689 67.9921 76.3347 68.5623 76.0551 69.0095C75.7866 69.4678 75.4286 69.8145 75.0036 70.0381ZM71.9721 74.1637H75.0036C75.8426 74.1637 76.3795 74.3314 76.7375 74.6892C77.0954 75.0469 77.2744 75.5276 77.2744 76.0868C77.2744 76.9029 76.95 77.5738 76.3012 78.0769C75.6523 78.58 74.7799 78.8372 73.706 78.8372C72.7663 78.8372 71.9833 78.6247 71.4128 78.2222C70.8423 77.8197 70.5515 77.2048 70.5515 76.4222C70.5515 75.9302 70.6858 75.4718 70.9543 75.0693C71.2227 74.6668 71.5471 74.3761 71.9721 74.1637Z" fill="#00684A"/>
<path d="M122.694 74.0148C122.473 73.894 122.307 73.7184 122.174 73.5099C122.052 73.2904 121.986 73.0599 121.986 72.8075C121.986 72.555 122.052 72.3136 122.174 72.1051C122.296 71.8855 122.473 71.7209 122.694 71.6001C122.916 71.4795 123.159 71.4136 123.435 71.4136C123.712 71.4136 123.955 71.4795 124.177 71.6001C124.398 71.7209 124.564 71.8965 124.696 72.1051C124.818 72.3245 124.885 72.555 124.885 72.8075C124.885 73.0599 124.818 73.3013 124.696 73.5099C124.575 73.7294 124.398 73.894 124.177 74.0148C123.955 74.1354 123.712 74.2013 123.435 74.2013C123.17 74.2013 122.916 74.1354 122.694 74.0148ZM124.055 73.8501C124.243 73.7514 124.376 73.5977 124.487 73.4221C124.586 73.2355 124.642 73.0269 124.642 72.7965C124.642 72.566 124.586 72.3575 124.487 72.1708C124.386 71.9843 124.243 71.8417 124.055 71.7429C123.867 71.6441 123.667 71.5892 123.435 71.5892C123.203 71.5892 123.004 71.6441 122.815 71.7429C122.628 71.8417 122.494 71.9953 122.384 72.1708C122.284 72.3575 122.229 72.566 122.229 72.7965C122.229 73.0269 122.284 73.2355 122.384 73.4221C122.484 73.6087 122.628 73.7514 122.815 73.8501C123.004 73.9489 123.203 74.0037 123.435 74.0037C123.667 74.0037 123.878 73.9489 124.055 73.8501ZM122.838 73.466V73.3672L122.86 73.3562H122.927C122.948 73.3562 122.97 73.3453 122.981 73.3342C123.004 73.3124 123.004 73.3013 123.004 73.2794V72.2587C123.004 72.2367 122.993 72.2148 122.981 72.2038C122.959 72.1819 122.948 72.1819 122.927 72.1819H122.86L122.838 72.1708V72.0722L122.86 72.0611H123.435C123.601 72.0611 123.723 72.094 123.822 72.1708C123.923 72.2477 123.966 72.3465 123.966 72.4782C123.966 72.577 123.934 72.6758 123.856 72.7416C123.779 72.8184 123.689 72.8623 123.579 72.8734L123.712 72.9172L123.966 73.3233C123.988 73.3562 124.011 73.3672 124.044 73.3672H124.11L124.121 73.3782V73.477L124.11 73.4879H123.768L123.745 73.477L123.391 72.8843H123.303V73.2794C123.303 73.3013 123.314 73.3233 123.325 73.3342C123.347 73.3562 123.358 73.3562 123.379 73.3562H123.446L123.469 73.3672V73.466L123.446 73.477H122.86L122.838 73.466ZM123.402 72.7526C123.491 72.7526 123.568 72.7306 123.613 72.6758C123.656 72.6318 123.689 72.555 123.689 72.4672C123.689 72.3794 123.667 72.3136 123.624 72.2587C123.579 72.2038 123.512 72.1819 123.435 72.1819H123.391C123.368 72.1819 123.347 72.1928 123.336 72.2038C123.314 72.2257 123.314 72.2367 123.314 72.2587V72.7526H123.402Z" fill="#00684A"/>
</svg>
