<svg width="128" height="128" viewBox="0 0 128 128" fill="none" xmlns="http://www.w3.org/2000/svg">
<path d="M10.8125 48.0264C12.9734 55.0275 15.1316 59.4324 17.2842 66.0752C17.2952 59.2587 17.3145 54.8428 17.3145 48.0264L22.3115 48.043C22.2968 58.0118 22.279 67.9802 22.2588 77.9473C20.5088 78.1237 18.5879 78.3709 16.8379 78.5693C14.6054 72.3207 13.2293 68.445 10.9912 61.8711V79.333C9.36513 79.5452 7.62331 79.7685 6 80V48.0264H10.8125ZM112.698 48.0576C113.914 51.1806 114.727 53.2595 115.937 56.4707C117.229 53.3835 118.164 51.2991 119.521 48.0576H124.994C122.797 53.3002 120.636 58.0909 118.52 63.1074C120.645 68.4493 122.957 74.3349 125.071 79.9883C123.327 79.7375 121.064 79.4143 119.316 79.1855C118.065 75.7126 116.926 73.1104 115.672 69.7422C114.415 72.9037 113.275 75.2746 112.021 78.3506C110.27 78.1549 108.459 77.9041 106.709 77.7305C108.82 72.9454 110.976 68.0032 113.09 63.0225C111.31 58.4833 109.684 54.1678 107.961 49.8877L107.216 48.0576H112.698ZM41.0352 48.0439C41.0324 49.4828 41.0684 51.5473 41.0684 52.9834H36.2393C34.8887 52.9834 33.5324 52.9864 32.1543 53.0029C32.1378 55.6433 32.1377 57.0932 32.1377 59.7363C34.3317 59.695 36.6883 59.6898 38.9209 59.6484V64.6094C36.669 64.6535 34.3427 64.6157 32.1377 64.6543C32.1212 67.2975 32.1211 69.4808 32.1211 72.124C35.1363 71.9201 38.0249 71.7265 41.0566 71.5391V76.4785C36.4023 76.7468 31.7525 77.093 27.1074 77.5156C27.1258 67.6826 27.1447 57.8508 27.1631 48.0215L41.0352 48.0439ZM102.924 77.4355C101.287 77.2922 99.5972 77.1543 97.9629 77.0303L97.9053 48.0547H102.924V77.4355ZM85.2402 48.0547C85.2513 56.051 85.2069 63.3121 85.2207 71.3057C88.0403 71.4214 90.9733 71.6198 93.793 71.7852V76.7246C89.3416 76.4186 84.6551 76.2367 80.1982 76.0713C80.1845 66.7326 80.2178 57.3934 80.2178 48.0547H85.2402ZM59.7715 52.9365L54.5352 52.9502C54.5296 60.8308 54.5127 68.0228 54.5127 75.9033C52.8784 75.9447 51.1255 75.9941 49.4912 76.0547C49.5022 68.1356 49.5215 60.8974 49.5215 52.9756H49.0059C48.3334 52.9756 47.6637 52.9619 46.9912 52.9619H44.3125V48.0527L59.7715 48.0391V52.9365ZM76.9717 52.9619H67.9805V59.4336H74.7725V64.3398H67.9863V75.7734H63.0195V48.0225L76.9717 48V52.9619Z" fill="#ED2517"/>
</svg>
