<svg width="128" height="128" viewBox="0 0 128 128" fill="none" xmlns="http://www.w3.org/2000/svg">
<path d="M71.3562 38.5791V37.1724H79.8036V38.5791H76.3915V47.9209H74.7828V38.5791H71.3562Z" fill="white"/>
<path d="M61.4326 47.9209V37.1724H63.2072L67.3119 43.672C67.4369 43.874 67.6077 44.1601 67.8241 44.5305C68.0405 44.9008 68.2569 45.2759 68.4733 45.6558C68.4589 45.2663 68.4469 44.8719 68.4372 44.4727C68.4324 44.0688 68.43 43.7682 68.43 43.571V37.1724H70.0387V47.9209H68.2497L64.5778 42.1138C64.4288 41.8782 64.2123 41.5271 63.9286 41.0606C63.6497 40.5893 63.3323 40.0483 62.9764 39.4375C63.0004 40.0675 63.0149 40.6109 63.0197 41.0678C63.0293 41.5199 63.0341 41.8662 63.0341 42.1066V47.9209H61.4326Z" fill="white"/>
<path d="M52.7332 47.9209V37.1724H59.9614V38.5791H54.3346V41.7459H59.543V43.1382H54.3346V46.5143H59.9614V47.9209H52.7332Z" fill="white"/>
<path d="M44.7112 47.9209V37.1724H46.3127V46.5143H51.3984V47.9209H44.7112Z" fill="white"/>
<path d="M33.8914 47.9209L37.794 37.1724H39.7273L43.6012 47.9209H41.8626L40.9104 45.1292H36.5749L35.5938 47.9209H33.8914ZM37.0582 43.7658H40.4415L39.7923 41.8613C39.648 41.4189 39.4941 40.9452 39.3306 40.4402C39.1671 39.9353 38.9795 39.3341 38.7679 38.6368C38.5515 39.3341 38.3615 39.9353 38.198 40.4402C38.0345 40.9452 37.8782 41.4189 37.7291 41.8613L37.0582 43.7658Z" fill="white"/>
<path d="M29.378 47.9209L25.4753 37.1724H27.1994L29.3275 43.232C29.4574 43.6215 29.6065 44.0808 29.7748 44.6098C29.9431 45.1388 30.1403 45.7568 30.3663 46.4638C30.5827 45.7568 30.7727 45.1388 30.9362 44.6098C31.1045 44.0808 31.2536 43.6215 31.3835 43.232L33.4538 37.1724H35.1491L31.3041 47.9209H29.378Z" fill="white"/>
<path d="M20.3692 48.0948C19.417 48.0948 18.5682 47.8616 17.8227 47.3951C17.0773 46.9286 16.4906 46.2794 16.0626 45.4474C15.6393 44.6154 15.4277 43.6511 15.4277 42.5546C15.4277 41.4533 15.6393 40.4867 16.0626 39.6547C16.4906 38.8179 17.0773 38.1662 17.8227 37.6997C18.5682 37.2332 19.417 37 20.3692 37C21.3262 37 22.1775 37.2332 22.9229 37.6997C23.6683 38.1662 24.2527 38.8179 24.6759 39.6547C25.1039 40.4867 25.3179 41.4533 25.3179 42.5546C25.3179 43.6511 25.1039 44.6154 24.6759 45.4474C24.2527 46.2794 23.6683 46.9286 22.9229 47.3951C22.1775 47.8616 21.3262 48.0948 20.3692 48.0948ZM20.3692 46.6304C20.9896 46.6304 21.5523 46.4741 22.0572 46.1615C22.5622 45.8441 22.9638 45.3824 23.262 44.7765C23.5601 44.1657 23.7092 43.4251 23.7092 42.5546C23.7092 41.6794 23.5601 40.9363 23.262 40.3256C22.9638 39.7148 22.5622 39.2531 22.0572 38.9405C21.5523 38.6231 20.9896 38.4644 20.3692 38.4644C19.7536 38.4644 19.1934 38.6231 18.6884 38.9405C18.1834 39.2531 17.7818 39.7148 17.4837 40.3256C17.1855 40.9363 17.0364 41.6794 17.0364 42.5546C17.0364 43.4251 17.1855 44.1657 17.4837 44.7765C17.7818 45.3824 18.1834 45.8441 18.6884 46.1615C19.1934 46.4741 19.7536 46.6304 20.3692 46.6304Z" fill="white"/>
<path d="M10.2871 48.0948C8.99826 48.0948 7.98111 47.7702 7.23569 47.121C6.49507 46.4669 6.12476 45.5724 6.12476 44.4374H7.72623C7.73103 45.1444 7.95707 45.6975 8.40433 46.0966C8.85639 46.4958 9.48399 46.6954 10.2871 46.6954C11.0181 46.6954 11.6025 46.5415 12.0401 46.2337C12.4825 45.9211 12.7038 45.5027 12.7038 44.9785C12.7038 44.5649 12.5451 44.2306 12.2277 43.9758C11.9151 43.7161 11.386 43.4972 10.6406 43.3193L9.46476 43.038C8.37787 42.7783 7.58435 42.4176 7.08419 41.9559C6.58885 41.4894 6.34117 40.8834 6.34117 40.138C6.34117 39.508 6.49987 38.9573 6.81728 38.486C7.13469 38.0147 7.57954 37.6492 8.15184 37.3895C8.72895 37.1298 9.40224 37 10.1717 37C11.3307 37 12.2517 37.303 12.9346 37.9089C13.6223 38.5149 13.983 39.3421 14.0167 40.3905H12.4657C12.4272 39.7701 12.2012 39.2844 11.7876 38.9333C11.374 38.5774 10.8282 38.3995 10.1501 38.3995C9.50083 38.3995 8.96941 38.5558 8.55582 38.8684C8.14222 39.1762 7.93543 39.5729 7.93543 40.0587C7.93543 40.4482 8.09413 40.7656 8.41154 41.0109C8.72895 41.2513 9.25556 41.4605 9.99137 41.6385L11.1528 41.9126C12.2301 42.1675 13.0236 42.5354 13.5334 43.0163C14.0479 43.4972 14.3052 44.1224 14.3052 44.8919C14.3052 45.5363 14.1393 46.099 13.8075 46.5799C13.4756 47.0609 13.0092 47.4336 12.408 47.6981C11.8068 47.9626 11.0999 48.0948 10.2871 48.0948Z" fill="white"/>
<path d="M4.60147 37.1724V47.9209H3V37.1724H4.60147Z" fill="white"/>
<path d="M92.859 80.7086C94.099 80.7086 95.0865 80.9836 95.8215 81.5334C96.5565 82.0833 96.9381 82.8323 96.9661 83.7805H94.2982C94.2926 83.4719 94.1635 83.2138 93.9111 83.0062C93.6642 82.7987 93.3472 82.6949 92.96 82.6949C92.5841 82.6949 92.2896 82.7678 92.0763 82.9137C91.8687 83.0596 91.7649 83.2419 91.7649 83.4607C91.7649 83.8254 92.0848 84.0695 92.7244 84.1929L94.5086 84.5211C95.4232 84.6895 96.0993 84.97 96.5369 85.3628C96.9745 85.7555 97.1934 86.2829 97.1934 86.945C97.1934 87.551 97.0166 88.084 96.6631 88.5441C96.3153 89.0041 95.8271 89.3632 95.1987 89.6213C94.5759 89.8738 93.8493 90 93.019 90C92.1998 90 91.4732 89.8766 90.8392 89.6297C90.2052 89.3829 89.6974 89.0294 89.3158 88.5693C88.9399 88.1092 88.7267 87.565 88.6762 86.9366H91.5293C91.5742 87.2676 91.7201 87.5285 91.9669 87.7193C92.2138 87.91 92.5505 88.0054 92.9769 88.0054C93.3752 88.0054 93.6866 87.9353 93.9111 87.795C94.1355 87.6547 94.2477 87.4724 94.2477 87.248C94.2477 86.8777 93.8886 86.628 93.1704 86.4989L91.563 86.2128C90.6877 86.0557 90.02 85.7555 89.5599 85.3123C89.1054 84.869 88.8782 84.2967 88.8782 83.5954C88.8782 82.7201 89.2317 82.0216 89.9386 81.4998C90.6456 80.9724 91.6191 80.7086 92.859 80.7086Z" fill="white"/>
<path fill-rule="evenodd" clip-rule="evenodd" d="M39.6186 80.6918C40.5107 80.6918 41.2934 80.8882 41.9667 81.2809C42.6456 81.6681 43.1758 82.2067 43.5573 82.8968C43.9389 83.5813 44.1296 84.3725 44.1296 85.2702V86.0529H37.9438C37.9606 86.6196 38.1289 87.0684 38.4487 87.3995C38.7742 87.7305 39.223 87.896 39.7953 87.896C40.2217 87.896 40.578 87.809 40.8642 87.6351C41.1559 87.4612 41.3551 87.2283 41.4617 86.9366H44.0623C43.9557 87.5313 43.6976 88.0587 43.288 88.5188C42.8784 88.9789 42.3623 89.338 41.7395 89.5961C41.1223 89.8542 40.4406 89.9832 39.6943 89.9832C38.7854 89.9832 37.9859 89.784 37.2957 89.3857C36.6112 88.9873 36.0754 88.4403 35.6883 87.7445C35.3067 87.0432 35.116 86.2408 35.116 85.3375C35.116 84.4342 35.3067 83.6347 35.6883 82.9389C36.0754 82.2376 36.6084 81.6877 37.2873 81.2894C37.9662 80.891 38.7433 80.6918 39.6186 80.6918ZM39.6943 82.8295C39.2062 82.8295 38.8106 82.9614 38.5077 83.2251C38.2047 83.4888 38.0223 83.8535 37.9606 84.3192H41.4281C41.3607 83.8535 41.1756 83.4888 40.8726 83.2251C40.5696 82.9614 40.1769 82.8295 39.6943 82.8295Z" fill="white"/>
<path fill-rule="evenodd" clip-rule="evenodd" d="M66.8364 80.6918C67.7285 80.6918 68.5112 80.8882 69.1845 81.2809C69.8634 81.6681 70.3936 82.2067 70.7751 82.8968C71.1566 83.5813 71.3474 84.3725 71.3474 85.2702V86.0529H65.1616C65.1784 86.6196 65.3467 87.0684 65.6665 87.3995C65.9919 87.7305 66.4408 87.896 67.0131 87.896C67.4395 87.896 67.7958 87.809 68.0819 87.6351C68.3737 87.4612 68.5729 87.2283 68.6795 86.9366H71.2801C71.1735 87.5313 70.9154 88.0587 70.5058 88.5188C70.0962 88.9789 69.58 89.338 68.9572 89.5961C68.34 89.8542 67.6583 89.9832 66.9121 89.9832C66.0032 89.9832 65.2036 89.784 64.5135 89.3857C63.829 88.9873 63.2932 88.4403 62.906 87.7445C62.5245 87.0432 62.3337 86.2408 62.3337 85.3375C62.3337 84.4342 62.5245 83.6347 62.906 82.9389C63.2932 82.2376 63.8262 81.6877 64.5051 81.2894C65.184 80.891 65.9611 80.6918 66.8364 80.6918ZM66.9121 82.8295C66.424 82.8295 66.0284 82.9614 65.7254 83.2251C65.4225 83.4888 65.2401 83.8535 65.1784 84.3192H68.6458C68.5785 83.8535 68.3933 83.4888 68.0904 83.2251C67.7874 82.9614 67.3946 82.8295 66.9121 82.8295Z" fill="white"/>
<path fill-rule="evenodd" clip-rule="evenodd" d="M83.3656 80.6918C84.2578 80.6918 85.0405 80.8882 85.7137 81.2809C86.3926 81.6681 86.9229 82.2067 87.3044 82.8968C87.6859 83.5813 87.8767 84.3725 87.8767 85.2702V86.0529H81.6908C81.7077 86.6196 81.876 87.0684 82.1958 87.3995C82.5212 87.7305 82.9701 87.896 83.5424 87.896C83.9688 87.896 84.3251 87.809 84.6112 87.6351C84.903 87.4612 85.1022 87.2283 85.2088 86.9366H87.8094C87.7028 87.5313 87.4447 88.0587 87.0351 88.5188C86.6255 88.9789 86.1093 89.338 85.4865 89.5961C84.8693 89.8542 84.1876 89.9832 83.4414 89.9832C82.5324 89.9832 81.7329 89.784 81.0428 89.3857C80.3583 88.9873 79.8225 88.4403 79.4353 87.7445C79.0538 87.0432 78.863 86.2408 78.863 85.3375C78.863 84.4342 79.0538 83.6347 79.4353 82.9389C79.8225 82.2376 80.3555 81.6877 81.0344 81.2894C81.7133 80.891 82.4904 80.6918 83.3656 80.6918ZM83.4414 82.8295C82.9533 82.8295 82.5577 82.9614 82.2547 83.2251C81.9517 83.4888 81.7694 83.8535 81.7077 84.3192H85.1751C85.1078 83.8535 84.9226 83.4888 84.6197 83.2251C84.3167 82.9614 83.9239 82.8295 83.4414 82.8295Z" fill="white"/>
<path d="M17.4757 85.8761C17.4757 86.4036 17.602 86.8075 17.8545 87.0881C18.107 87.363 18.4632 87.5005 18.9233 87.5005C19.3778 87.5005 19.7425 87.3574 20.0174 87.0712C20.2923 86.7795 20.4298 86.3306 20.4298 85.7247V80.8938H23.325V89.7812H20.4635V88.3421C20.1661 88.847 19.7874 89.2454 19.3273 89.5372C18.8672 89.8289 18.3033 89.9748 17.6357 89.9748C16.6706 89.9748 15.9188 89.6662 15.3801 89.049C14.8471 88.4318 14.5806 87.5762 14.5806 86.4821V80.8938H17.4757V85.8761Z" fill="white"/>
<path fill-rule="evenodd" clip-rule="evenodd" d="M27.8444 82.0889H27.8613C28.4111 81.1631 29.2611 80.7002 30.4113 80.7002C31.1632 80.7002 31.8253 80.8966 32.3976 81.2894C32.9698 81.6821 33.4159 82.2264 33.7357 82.9221C34.0611 83.6178 34.2239 84.4174 34.2239 85.3207C34.2239 86.2577 34.0639 87.0768 33.7441 87.7782C33.4299 88.4739 32.9839 89.0154 32.406 89.4025C31.8337 89.784 31.1604 89.9748 30.3861 89.9748C29.8026 89.9748 29.2864 89.8457 28.8375 89.5876C28.3943 89.3239 28.0576 88.9312 27.8276 88.4094H27.8108V89.7812H24.9493V77.2412H27.8444V82.0889ZM29.5697 83.0062C29.0255 83.0062 28.5822 83.2167 28.24 83.6375C27.8977 84.0583 27.7266 84.6193 27.7266 85.3207C27.7266 86.0332 27.8977 86.6027 28.24 87.0292C28.5822 87.45 29.0255 87.6604 29.5697 87.6604C30.1028 87.6604 30.5236 87.4528 30.8321 87.0376C31.1407 86.6224 31.295 86.0501 31.295 85.3207C31.295 84.5969 31.1407 84.0302 30.8321 83.6206C30.5236 83.211 30.1028 83.0062 29.5697 83.0062Z" fill="white"/>
<path d="M6.02981 82.8379C6.31596 82.4788 6.60491 82.1198 6.89667 81.7607C7.18843 81.396 7.48019 81.0341 7.77195 80.675L10.5745 77.2412H14.1345L9.59825 82.6444L14.3113 89.7812H10.8438L7.62046 84.6895L6.02981 86.5915V89.7812H3V77.2412H6.02981V82.8379Z" fill="white"/>
<path d="M50.77 80.8686C50.899 80.8686 51.0224 80.8714 51.1403 80.877V83.2671C51.0337 83.2615 50.8682 83.2559 50.6437 83.2503C50.4193 83.2447 50.2033 83.2419 49.9957 83.2419C49.4739 83.2419 49.0503 83.4158 48.7248 83.7637C48.405 84.1116 48.2451 84.5997 48.2451 85.2281V89.7812H45.35V80.8938H48.1525V82.4592H48.1778C48.3405 81.8925 48.593 81.4857 48.9352 81.2389C49.2831 80.9864 49.7544 80.8601 50.3492 80.8601C50.5063 80.8601 50.6465 80.8629 50.77 80.8686Z" fill="white"/>
<path d="M58.0247 80.7002C58.9897 80.7002 59.7388 81.0088 60.2718 81.626C60.8104 82.2432 61.0797 83.0988 61.0797 84.1929V89.7812H58.1846V84.7989C58.1846 84.2715 58.0583 83.8703 57.8059 83.5954C57.5534 83.3148 57.1971 83.1746 56.737 83.1746C56.2825 83.1746 55.9178 83.3205 55.6429 83.6122C55.368 83.8984 55.2305 84.3444 55.2305 84.9504V89.7812H52.3354V80.8938H55.1969V82.333C55.4942 81.828 55.8729 81.4296 56.333 81.1379C56.7931 80.8461 57.357 80.7002 58.0247 80.7002Z" fill="white"/>
<path d="M76.3382 80.8938H78.1645V83.1325H76.3382V86.7935C76.3382 87.0796 76.3943 87.276 76.5065 87.3826C76.6187 87.4892 76.8375 87.5425 77.163 87.5425H78.1645V89.7812H76.5233C75.4573 89.7812 74.6746 89.582 74.1752 89.1837C73.6815 88.7797 73.4346 88.1457 73.4346 87.2816V83.1325H71.9197V80.8938H73.4346V78.47H76.3382V80.8938Z" fill="white"/>
<path fill-rule="evenodd" clip-rule="evenodd" d="M92.2615 59.7704C93.4117 59.7704 94.2702 60.2502 94.8368 61.2096H94.8453V59.964H97.7236V68.3633C97.7236 69.8109 97.314 70.8601 96.4948 71.5109C95.6813 72.1618 94.5816 72.4872 93.1957 72.4872C91.8267 72.4872 90.7971 72.2095 90.107 71.654C89.4225 71.0985 89.0129 70.3944 88.8782 69.5415H91.6471C91.7257 69.8165 91.8996 70.0325 92.1689 70.1896C92.4382 70.3523 92.7805 70.4337 93.1957 70.4337C94.2954 70.4337 94.8453 69.8389 94.8453 68.6494V67.2776H94.8368C94.6012 67.805 94.2617 68.1894 93.8185 68.4306C93.3752 68.6719 92.8647 68.7925 92.2868 68.7925C91.5069 68.7925 90.828 68.6017 90.2501 68.2202C89.6778 67.8331 89.2317 67.3029 88.9119 66.6296C88.5977 65.9563 88.4406 65.1848 88.4406 64.3151C88.4406 63.4343 88.6033 62.6516 88.9287 61.967C89.2541 61.2825 89.703 60.7467 90.2753 60.3596C90.8476 59.9668 91.5097 59.7704 92.2615 59.7704ZM93.0947 62.0175C92.5617 62.0175 92.1409 62.2167 91.8323 62.6151C91.5293 63.0134 91.3778 63.5633 91.3778 64.2646C91.3778 64.9716 91.5293 65.5243 91.8323 65.9226C92.1409 66.321 92.5617 66.5202 93.0947 66.5202C93.6446 66.5202 94.0878 66.3182 94.4245 65.9142C94.7667 65.5046 94.9378 64.9548 94.9378 64.2646C94.9378 63.5857 94.7667 63.0415 94.4245 62.6319C94.0878 62.2223 93.6446 62.0175 93.0947 62.0175Z" fill="white"/>
<path fill-rule="evenodd" clip-rule="evenodd" d="M19.7397 59.762C20.6318 59.762 21.4145 59.9584 22.0878 60.3512C22.7667 60.7383 23.2969 61.2769 23.6784 61.967C24.06 62.6516 24.2507 63.4427 24.2507 64.3404V65.1231H18.0649C18.0817 65.6898 18.25 66.1386 18.5698 66.4697C18.8953 66.8007 19.3441 66.9662 19.9164 66.9662C20.3428 66.9662 20.6991 66.8792 20.9853 66.7053C21.277 66.5314 21.4762 66.2985 21.5828 66.0068H24.1834C24.0768 66.6015 23.8187 67.1289 23.4091 67.589C22.9995 68.0491 22.4833 68.4082 21.8606 68.6663C21.2434 68.9244 20.5617 69.0534 19.8154 69.0534C18.9065 69.0534 18.107 68.8542 17.4168 68.4559C16.7323 68.0575 16.1965 67.5105 15.8094 66.8147C15.4278 66.1134 15.2371 65.311 15.2371 64.4077C15.2371 63.5044 15.4278 62.7049 15.8094 62.0091C16.1965 61.3078 16.7295 60.7579 17.4084 60.3596C18.0873 59.9612 18.8644 59.762 19.7397 59.762ZM19.8154 61.8997C19.3273 61.8997 18.9317 62.0316 18.6288 62.2953C18.3258 62.559 18.1434 62.9237 18.0817 63.3894H21.5492C21.4818 62.9237 21.2967 62.559 20.9937 62.2953C20.6907 62.0316 20.298 61.8997 19.8154 61.8997Z" fill="white"/>
<path fill-rule="evenodd" clip-rule="evenodd" d="M51.3423 59.762C52.268 59.762 53.0816 59.9556 53.7829 60.3427C54.4899 60.7243 55.037 61.2657 55.4241 61.967C55.8168 62.6628 56.0132 63.4763 56.0132 64.4077C56.0132 65.3503 55.8168 66.1695 55.4241 66.8652C55.037 67.5553 54.4899 68.094 53.7829 68.4811C53.0816 68.8626 52.268 69.0534 51.3423 69.0534C50.4109 69.0534 49.5945 68.8626 48.8932 68.4811C48.1918 68.0996 47.6448 67.561 47.252 66.8652C46.8593 66.1695 46.6629 65.3503 46.6629 64.4077C46.6629 63.4763 46.8593 62.6628 47.252 61.967C47.6448 61.2657 48.1918 60.7243 48.8932 60.3427C49.5945 59.9556 50.4109 59.762 51.3423 59.762ZM51.3423 62.068C50.8373 62.068 50.4193 62.27 50.0883 62.674C49.7628 63.078 49.6001 63.6559 49.6001 64.4077C49.6001 65.1596 49.7628 65.7375 50.0883 66.1414C50.4137 66.5454 50.8317 66.7474 51.3423 66.7474C51.8472 66.7474 52.2624 66.5454 52.5879 66.1414C52.9189 65.7375 53.0844 65.1596 53.0844 64.4077C53.0844 63.6559 52.9189 63.078 52.5879 62.674C52.2624 62.27 51.8472 62.068 51.3423 62.068Z" fill="white"/>
<path fill-rule="evenodd" clip-rule="evenodd" d="M113.79 59.762C114.716 59.762 115.529 59.9556 116.231 60.3427C116.938 60.7243 117.485 61.2657 117.872 61.967C118.265 62.6628 118.461 63.4763 118.461 64.4077C118.461 65.3503 118.265 66.1695 117.872 66.8652C117.485 67.5553 116.938 68.094 116.231 68.4811C115.529 68.8626 114.716 69.0534 113.79 69.0534C112.859 69.0534 112.042 68.8626 111.341 68.4811C110.64 68.0996 110.092 67.561 109.7 66.8652C109.307 66.1695 109.111 65.3503 109.111 64.4077C109.111 63.4763 109.307 62.6628 109.7 61.967C110.092 61.2657 110.64 60.7243 111.341 60.3427C112.042 59.9556 112.859 59.762 113.79 59.762ZM113.79 62.068C113.285 62.068 112.867 62.27 112.536 62.674C112.211 63.078 112.048 63.6559 112.048 64.4077C112.048 65.1596 112.211 65.7375 112.536 66.1414C112.861 66.5454 113.279 66.7474 113.79 66.7474C114.295 66.7474 114.71 66.5454 115.036 66.1414C115.367 65.7375 115.532 65.1596 115.532 64.4077C115.532 63.6559 115.367 63.078 115.036 62.674C114.71 62.27 114.295 62.068 113.79 62.068Z" fill="white"/>
<path d="M9.69083 62.0091C9.84232 62.2448 10.0387 62.5786 10.28 63.0106C10.5212 63.4371 10.7625 63.8747 11.0037 64.3236C10.9925 63.8298 10.9813 63.3473 10.9701 62.876C10.9645 62.4047 10.9617 62.0288 10.9617 61.7482V56.3114H13.9915V68.8514H10.8523L7.58679 63.6334C7.40164 63.3417 7.16879 62.9517 6.88825 62.4636C6.60772 61.9755 6.30473 61.4368 5.97931 60.8477C6.00175 61.4593 6.01578 62.0091 6.02139 62.4973C6.027 62.9854 6.02981 63.3613 6.02981 63.625V68.8514H3V56.3114H6.1308L9.69083 62.0091Z" fill="white"/>
<path d="M29.2415 59.964H31.0678V62.2027H29.2415V65.8637C29.2415 66.1499 29.2976 66.3462 29.4098 66.4528C29.522 66.5594 29.7409 66.6127 30.0663 66.6127H31.0678V68.8514H29.4267C28.3606 68.8514 27.5779 68.6522 27.0786 68.2539C26.5848 67.8499 26.3379 67.2159 26.3379 66.3518V62.2027H24.823V59.964H26.3379V57.5402H29.2415V59.964Z" fill="white"/>
<path d="M35.6209 62.7413C35.7444 63.2575 35.8622 63.7933 35.9744 64.3488L36.3279 65.9984L36.715 64.3488C36.8497 63.7933 36.9843 63.2575 37.119 62.7413L37.8512 59.964H40.4181L41.1503 62.7413C41.285 63.2575 41.4168 63.7933 41.5459 64.3488C41.6805 64.8987 41.8124 65.4485 41.9414 65.9984C42.0537 65.4485 42.1631 64.8987 42.2697 64.3488C42.3819 63.799 42.4997 63.2631 42.6232 62.7413L43.288 59.964H46.3852L43.6499 68.8514H40.6622L39.6775 65.5271C39.5821 65.196 39.4895 64.8594 39.3998 64.5171C39.31 64.1693 39.223 63.8214 39.1389 63.4735L38.8696 64.5171C38.7798 64.8594 38.6872 65.196 38.5918 65.5271L37.6071 68.8514H34.6194L31.8842 59.964H34.9308L35.6209 62.7413Z" fill="white"/>
<path d="M62.6872 59.9388C62.8163 59.9388 62.9397 59.9416 63.0575 59.9472V62.3374C62.9509 62.3317 62.7854 62.3261 62.561 62.3205C62.3365 62.3149 62.1205 62.3121 61.9129 62.3121C61.3911 62.3121 60.9675 62.486 60.6421 62.8339C60.3223 63.1818 60.1624 63.6699 60.1624 64.2983V68.8514H57.2672V59.964H60.0698V61.5294H60.095C60.2578 60.9627 60.5102 60.5559 60.8525 60.3091C61.2004 60.0566 61.6717 59.9303 62.2664 59.9303C62.4235 59.9303 62.5638 59.9331 62.6872 59.9388Z" fill="white"/>
<path d="M67.0299 63.1201H67.0636L69.7652 59.964H73.1064L69.7989 63.8438L73.2495 68.8514H69.9083L67.6443 65.4934L67.0299 66.2088V68.8514H64.1348V56.3114H67.0299V63.1201Z" fill="white"/>
<path d="M76.8263 68.8514H73.9312V59.964H76.8263V68.8514Z" fill="white"/>
<path d="M84.1315 59.7704C85.0966 59.7704 85.8456 60.079 86.3786 60.6962C86.9173 61.3134 87.1866 62.169 87.1866 63.2631V68.8514H84.2914V63.8691C84.2914 63.3417 84.1652 62.9405 83.9127 62.6656C83.6602 62.385 83.3039 62.2448 82.8439 62.2448C82.3894 62.2448 82.0247 62.3907 81.7498 62.6824C81.4748 62.9686 81.3374 63.4146 81.3374 64.0206V68.8514H78.4422V59.964H81.3037V61.4032C81.6011 60.8982 81.9798 60.4998 82.4399 60.2081C82.9 59.9163 83.4638 59.7704 84.1315 59.7704Z" fill="white"/>
<path d="M108.496 58.5501H107.613C107.27 58.5501 107.026 58.623 106.88 58.7689C106.74 58.9092 106.67 59.1476 106.67 59.4843V59.964H108.496V62.2027H106.67V68.8514H103.766V62.2027H102.15V59.964H103.766V58.9793C103.766 58.076 104.019 57.4055 104.524 56.9679C105.034 56.5302 105.82 56.3114 106.88 56.3114H108.496V58.5501Z" fill="white"/>
<path d="M125.135 59.9388C125.264 59.9388 125.387 59.9416 125.505 59.9472V62.3374C125.399 62.3317 125.233 62.3261 125.009 62.3205C124.784 62.3149 124.568 62.3121 124.361 62.3121C123.839 62.3121 123.415 62.486 123.09 62.8339C122.77 63.1818 122.61 63.6699 122.61 64.2983V68.8514H119.715V59.964H122.518V61.5294H122.543C122.705 60.9627 122.958 60.5559 123.3 60.3091C123.648 60.0566 124.119 59.9303 124.714 59.9303C124.871 59.9303 125.011 59.9331 125.135 59.9388Z" fill="white"/>
<path d="M75.3703 56.1768C75.836 56.1768 76.2176 56.3142 76.5149 56.5891C76.8179 56.8585 76.9694 57.2063 76.9694 57.6327C76.9694 58.0592 76.8179 58.4098 76.5149 58.6848C76.2176 58.9597 75.836 59.0971 75.3703 59.0971C74.9102 59.0971 74.5287 58.9597 74.2257 58.6848C73.9284 58.4098 73.7797 58.0592 73.7797 57.6327C73.7797 57.2063 73.9284 56.8585 74.2257 56.5891C74.5287 56.3142 74.9102 56.1768 75.3703 56.1768Z" fill="white"/>
</svg>
