<svg width="128" height="128" viewBox="0 0 128 128" fill="none" xmlns="http://www.w3.org/2000/svg">
<path d="M94.7488 38.5791V37.1724H103.196V38.5791H99.784V47.9209H98.1753V38.5791H94.7488Z" fill="white"/>
<path d="M84.8252 47.9209V37.1724H86.5998L90.7045 43.672C90.8295 43.874 91.0002 44.1601 91.2166 44.5305C91.4331 44.9008 91.6495 45.2759 91.8659 45.6558C91.8515 45.2663 91.8394 44.8719 91.8298 44.4727C91.825 44.0688 91.8226 43.7682 91.8226 43.571V37.1724H93.4313V47.9209H91.6423L87.9704 42.1138C87.8213 41.8782 87.6049 41.5271 87.3212 41.0606C87.0422 40.5893 86.7248 40.0483 86.369 39.4375C86.393 40.0675 86.4074 40.6109 86.4122 41.0678C86.4219 41.5199 86.4267 41.8662 86.4267 42.1066V47.9209H84.8252Z" fill="white"/>
<path d="M76.1257 47.9209V37.1724H83.354V38.5791H77.7272V41.7459H82.9356V43.1382H77.7272V46.5143H83.354V47.9209H76.1257Z" fill="white"/>
<path d="M68.1038 47.9209V37.1724H69.7052V46.5143H74.791V47.9209H68.1038Z" fill="white"/>
<path d="M57.2839 47.9209L61.1866 37.1724H63.1199L66.9937 47.9209H65.2552L64.303 45.1292H59.9675L58.9864 47.9209H57.2839ZM60.4508 43.7658H63.8341L63.1848 41.8613C63.0406 41.4189 62.8867 40.9452 62.7232 40.4402C62.5596 39.9353 62.3721 39.3341 62.1605 38.6368C61.9441 39.3341 61.7541 39.9353 61.5906 40.4402C61.4271 40.9452 61.2708 41.4189 61.1217 41.8613L60.4508 43.7658Z" fill="white"/>
<path d="M52.7706 47.9209L48.8679 37.1724H50.592L52.7201 43.232C52.85 43.6215 52.999 44.0808 53.1674 44.6098C53.3357 45.1388 53.5329 45.7568 53.7589 46.4638C53.9753 45.7568 54.1653 45.1388 54.3288 44.6098C54.4971 44.0808 54.6462 43.6215 54.776 43.232L56.8464 37.1724H58.5417L54.6967 47.9209H52.7706Z" fill="white"/>
<path d="M43.7618 48.0948C42.8096 48.0948 41.9607 47.8616 41.2153 47.3951C40.4699 46.9286 39.8831 46.2794 39.4551 45.4474C39.0319 44.6154 38.8203 43.6511 38.8203 42.5546C38.8203 41.4533 39.0319 40.4867 39.4551 39.6547C39.8831 38.8179 40.4699 38.1662 41.2153 37.6997C41.9607 37.2332 42.8096 37 43.7618 37C44.7188 37 45.5701 37.2332 46.3155 37.6997C47.0609 38.1662 47.6452 38.8179 48.0684 39.6547C48.4965 40.4867 48.7105 41.4533 48.7105 42.5546C48.7105 43.6511 48.4965 44.6154 48.0684 45.4474C47.6452 46.2794 47.0609 46.9286 46.3155 47.3951C45.5701 47.8616 44.7188 48.0948 43.7618 48.0948ZM43.7618 46.6304C44.3822 46.6304 44.9449 46.4741 45.4498 46.1615C45.9548 45.8441 46.3564 45.3824 46.6545 44.7765C46.9527 44.1657 47.1018 43.4251 47.1018 42.5546C47.1018 41.6794 46.9527 40.9363 46.6545 40.3256C46.3564 39.7148 45.9548 39.2531 45.4498 38.9405C44.9449 38.6231 44.3822 38.4644 43.7618 38.4644C43.1462 38.4644 42.5859 38.6231 42.081 38.9405C41.576 39.2531 41.1744 39.7148 40.8763 40.3256C40.5781 40.9363 40.429 41.6794 40.429 42.5546C40.429 43.4251 40.5781 44.1657 40.8763 44.7765C41.1744 45.3824 41.576 45.8441 42.081 46.1615C42.5859 46.4741 43.1462 46.6304 43.7618 46.6304Z" fill="white"/>
<path d="M33.6797 48.0948C32.3908 48.0948 31.3737 47.7702 30.6283 47.121C29.8876 46.4669 29.5173 45.5724 29.5173 44.4374H31.1188C31.1236 45.1444 31.3496 45.6975 31.7969 46.0966C32.249 46.4958 32.8766 46.6954 33.6797 46.6954C34.4107 46.6954 34.995 46.5415 35.4327 46.2337C35.8751 45.9211 36.0963 45.5027 36.0963 44.9785C36.0963 44.5649 35.9376 44.2306 35.6202 43.9758C35.3076 43.7161 34.7786 43.4972 34.0332 43.3193L32.8573 43.038C31.7705 42.7783 30.9769 42.4176 30.4768 41.9559C29.9814 41.4894 29.7337 40.8834 29.7337 40.138C29.7337 39.508 29.8925 38.9573 30.2099 38.486C30.5273 38.0147 30.9721 37.6492 31.5444 37.3895C32.1215 37.1298 32.7948 37 33.5643 37C34.7233 37 35.6443 37.303 36.3272 37.9089C37.0149 38.5149 37.3756 39.3421 37.4093 40.3905H35.8583C35.8198 39.7701 35.5938 39.2844 35.1802 38.9333C34.7666 38.5774 34.2207 38.3995 33.5426 38.3995C32.8934 38.3995 32.362 38.5558 31.9484 38.8684C31.5348 39.1762 31.328 39.5729 31.328 40.0587C31.328 40.4482 31.4867 40.7656 31.8041 41.0109C32.1215 41.2513 32.6481 41.4605 33.3839 41.6385L34.5454 41.9126C35.6226 42.1675 36.4162 42.5354 36.9259 43.0163C37.4405 43.4972 37.6978 44.1224 37.6978 44.8919C37.6978 45.5363 37.5319 46.099 37.2001 46.5799C36.8682 47.0609 36.4017 47.4336 35.8006 47.6981C35.1994 47.9626 34.4925 48.0948 33.6797 48.0948Z" fill="white"/>
<path d="M27.994 37.1724V47.9209H26.3926V37.1724H27.994Z" fill="white"/>
<path d="M106.4 80.7086C107.64 80.7086 108.628 80.9836 109.363 81.5334C110.098 82.0833 110.479 82.8323 110.507 83.7805H107.839C107.834 83.4719 107.705 83.2138 107.452 83.0062C107.205 82.7987 106.888 82.6949 106.501 82.6949C106.125 82.6949 105.831 82.7678 105.617 82.9137C105.41 83.0596 105.306 83.2419 105.306 83.4607C105.306 83.8254 105.626 84.0695 106.265 84.1929L108.05 84.5211C108.964 84.6895 109.64 84.97 110.078 85.3628C110.516 85.7555 110.734 86.2829 110.734 86.945C110.734 87.551 110.558 88.084 110.204 88.5441C109.856 89.0041 109.368 89.3632 108.74 89.6213C108.117 89.8738 107.39 90 106.56 90C105.741 90 105.014 89.8766 104.38 89.6297C103.746 89.3829 103.238 89.0294 102.857 88.5693C102.481 88.1092 102.268 87.565 102.217 86.9366H105.07C105.115 87.2676 105.261 87.5285 105.508 87.7193C105.755 87.91 106.091 88.0054 106.518 88.0054C106.916 88.0054 107.228 87.9353 107.452 87.795C107.677 87.6547 107.789 87.4724 107.789 87.248C107.789 86.8777 107.43 86.628 106.711 86.4989L105.104 86.2128C104.229 86.0557 103.561 85.7555 103.101 85.3123C102.646 84.869 102.419 84.2967 102.419 83.5954C102.419 82.7201 102.773 82.0216 103.48 81.4998C104.187 80.9724 105.16 80.7086 106.4 80.7086Z" fill="white"/>
<path fill-rule="evenodd" clip-rule="evenodd" d="M53.1596 80.6918C54.0517 80.6918 54.8344 80.8882 55.5077 81.2809C56.1866 81.6681 56.7168 82.2067 57.0984 82.8968C57.4799 83.5813 57.6707 84.3725 57.6707 85.2702V86.0529H51.4848C51.5016 86.6196 51.67 87.0684 51.9898 87.3995C52.3152 87.7305 52.764 87.896 53.3363 87.896C53.7628 87.896 54.119 87.809 54.4052 87.6351C54.697 87.4612 54.8961 87.2283 55.0027 86.9366H57.6033C57.4967 87.5313 57.2386 88.0587 56.829 88.5188C56.4195 88.9789 55.9033 89.338 55.2805 89.5961C54.6633 89.8542 53.9816 89.9832 53.2354 89.9832C52.3264 89.9832 51.5269 89.784 50.8368 89.3857C50.1522 88.9873 49.6164 88.4403 49.2293 87.7445C48.8477 87.0432 48.657 86.2408 48.657 85.3375C48.657 84.4342 48.8477 83.6347 49.2293 82.9389C49.6164 82.2376 50.1494 81.6877 50.8283 81.2894C51.5072 80.891 52.2843 80.6918 53.1596 80.6918ZM53.2354 82.8295C52.7472 82.8295 52.3517 82.9614 52.0487 83.2251C51.7457 83.4888 51.5633 83.8535 51.5016 84.3192H54.9691C54.9017 83.8535 54.7166 83.4888 54.4136 83.2251C54.1106 82.9614 53.7179 82.8295 53.2354 82.8295Z" fill="white"/>
<path fill-rule="evenodd" clip-rule="evenodd" d="M80.3774 80.6918C81.2695 80.6918 82.0522 80.8882 82.7255 81.2809C83.4044 81.6681 83.9346 82.2067 84.3161 82.8968C84.6977 83.5813 84.8884 84.3725 84.8884 85.2702V86.0529H78.7026C78.7194 86.6196 78.8877 87.0684 79.2075 87.3995C79.533 87.7305 79.9818 87.896 80.5541 87.896C80.9805 87.896 81.3368 87.809 81.623 87.6351C81.9147 87.4612 82.1139 87.2283 82.2205 86.9366H84.8211C84.7145 87.5313 84.4564 88.0587 84.0468 88.5188C83.6372 88.9789 83.121 89.338 82.4982 89.5961C81.8811 89.8542 81.1994 89.9832 80.4531 89.9832C79.5442 89.9832 78.7446 89.784 78.0545 89.3857C77.37 88.9873 76.8342 88.4403 76.447 87.7445C76.0655 87.0432 75.8747 86.2408 75.8747 85.3375C75.8747 84.4342 76.0655 83.6347 76.447 82.9389C76.8342 82.2376 77.3672 81.6877 78.0461 81.2894C78.725 80.891 79.5021 80.6918 80.3774 80.6918ZM80.4531 82.8295C79.965 82.8295 79.5694 82.9614 79.2664 83.2251C78.9635 83.4888 78.7811 83.8535 78.7194 84.3192H82.1868C82.1195 83.8535 81.9344 83.4888 81.6314 83.2251C81.3284 82.9614 80.9356 82.8295 80.4531 82.8295Z" fill="white"/>
<path fill-rule="evenodd" clip-rule="evenodd" d="M96.9067 80.6918C97.7988 80.6918 98.5815 80.8882 99.2548 81.2809C99.9337 81.6681 100.464 82.2067 100.845 82.8968C101.227 83.5813 101.418 84.3725 101.418 85.2702V86.0529H95.2318C95.2487 86.6196 95.417 87.0684 95.7368 87.3995C96.0622 87.7305 96.5111 87.896 97.0834 87.896C97.5098 87.896 97.8661 87.809 98.1523 87.6351C98.444 87.4612 98.6432 87.2283 98.7498 86.9366H101.35C101.244 87.5313 100.986 88.0587 100.576 88.5188C100.167 88.9789 99.6503 89.338 99.0275 89.5961C98.4103 89.8542 97.7286 89.9832 96.9824 89.9832C96.0735 89.9832 95.2739 89.784 94.5838 89.3857C93.8993 88.9873 93.3635 88.4403 92.9763 87.7445C92.5948 87.0432 92.404 86.2408 92.404 85.3375C92.404 84.4342 92.5948 83.6347 92.9763 82.9389C93.3635 82.2376 93.8965 81.6877 94.5754 81.2894C95.2543 80.891 96.0314 80.6918 96.9067 80.6918ZM96.9824 82.8295C96.4943 82.8295 96.0987 82.9614 95.7957 83.2251C95.4928 83.4888 95.3104 83.8535 95.2487 84.3192H98.7161C98.6488 83.8535 98.4636 83.4888 98.1607 83.2251C97.8577 82.9614 97.4649 82.8295 96.9824 82.8295Z" fill="white"/>
<path d="M31.0168 85.8761C31.0168 86.4036 31.143 86.8075 31.3955 87.0881C31.648 87.363 32.0043 87.5005 32.4643 87.5005C32.9188 87.5005 33.2835 87.3574 33.5584 87.0712C33.8334 86.7795 33.9708 86.3306 33.9708 85.7247V80.8938H36.866V89.7812H34.0045V88.3421C33.7071 88.847 33.3284 89.2454 32.8683 89.5372C32.4082 89.8289 31.8443 89.9748 31.1767 89.9748C30.2116 89.9748 29.4598 89.6662 28.9211 89.049C28.3881 88.4318 28.1216 87.5762 28.1216 86.4821V80.8938H31.0168V85.8761Z" fill="white"/>
<path fill-rule="evenodd" clip-rule="evenodd" d="M41.3854 82.0889H41.4023C41.9521 81.1631 42.8022 80.7002 43.9524 80.7002C44.7042 80.7002 45.3663 80.8966 45.9386 81.2894C46.5109 81.6821 46.9569 82.2264 47.2767 82.9221C47.6022 83.6178 47.7649 84.4174 47.7649 85.3207C47.7649 86.2577 47.605 87.0768 47.2851 87.7782C46.9709 88.4739 46.5249 89.0154 45.947 89.4025C45.3747 89.784 44.7014 89.9748 43.9271 89.9748C43.3436 89.9748 42.8274 89.8457 42.3785 89.5876C41.9353 89.3239 41.5986 88.9312 41.3686 88.4094H41.3518V89.7812H38.4903V77.2412H41.3854V82.0889ZM43.1107 83.0062C42.5665 83.0062 42.1233 83.2167 41.781 83.6375C41.4387 84.0583 41.2676 84.6193 41.2676 85.3207C41.2676 86.0332 41.4387 86.6027 41.781 87.0292C42.1233 87.45 42.5665 87.6604 43.1107 87.6604C43.6438 87.6604 44.0646 87.4528 44.3732 87.0376C44.6818 86.6224 44.8361 86.0501 44.8361 85.3207C44.8361 84.5969 44.6818 84.0302 44.3732 83.6206C44.0646 83.211 43.6438 83.0062 43.1107 83.0062Z" fill="white"/>
<path d="M19.5708 82.8379C19.857 82.4788 20.1459 82.1198 20.4377 81.7607C20.7294 81.396 21.0212 81.0341 21.313 80.675L24.1155 77.2412H27.6756L23.1393 82.6444L27.8523 89.7812H24.3849L21.1615 84.6895L19.5708 86.5915V89.7812H16.541V77.2412H19.5708V82.8379Z" fill="white"/>
<path d="M64.311 80.8686C64.44 80.8686 64.5635 80.8714 64.6813 80.877V83.2671C64.5747 83.2615 64.4092 83.2559 64.1847 83.2503C63.9603 83.2447 63.7443 83.2419 63.5367 83.2419C63.0149 83.2419 62.5913 83.4158 62.2659 83.7637C61.946 84.1116 61.7861 84.5997 61.7861 85.2281V89.7812H58.891V80.8938H61.6936V82.4592H61.7188C61.8815 81.8925 62.134 81.4857 62.4763 81.2389C62.8241 80.9864 63.2954 80.8601 63.8902 80.8601C64.0473 80.8601 64.1875 80.8629 64.311 80.8686Z" fill="white"/>
<path d="M71.5657 80.7002C72.5307 80.7002 73.2798 81.0088 73.8128 81.626C74.3514 82.2432 74.6207 83.0988 74.6207 84.1929V89.7812H71.7256V84.7989C71.7256 84.2715 71.5994 83.8703 71.3469 83.5954C71.0944 83.3148 70.7381 83.1746 70.278 83.1746C69.8235 83.1746 69.4589 83.3205 69.1839 83.6122C68.909 83.8984 68.7715 84.3444 68.7715 84.9504V89.7812H65.8764V80.8938H68.7379V82.333C69.0352 81.828 69.414 81.4296 69.874 81.1379C70.3341 80.8461 70.898 80.7002 71.5657 80.7002Z" fill="white"/>
<path d="M89.8792 80.8938H91.7055V83.1325H89.8792V86.7935C89.8792 87.0796 89.9353 87.276 90.0475 87.3826C90.1597 87.4892 90.3785 87.5425 90.704 87.5425H91.7055V89.7812H90.0643C88.9983 89.7812 88.2156 89.582 87.7162 89.1837C87.2225 88.7797 86.9756 88.1457 86.9756 87.2816V83.1325H85.4607V80.8938H86.9756V78.47H89.8792V80.8938Z" fill="white"/>
<path fill-rule="evenodd" clip-rule="evenodd" d="M92.2615 59.7704C93.4117 59.7704 94.2702 60.2502 94.8368 61.2096H94.8453V59.964H97.7236V68.3633C97.7236 69.8109 97.314 70.8601 96.4948 71.5109C95.6813 72.1618 94.5816 72.4872 93.1957 72.4872C91.8267 72.4872 90.7971 72.2095 90.107 71.654C89.4225 71.0985 89.0129 70.3944 88.8782 69.5415H91.6471C91.7257 69.8165 91.8996 70.0325 92.1689 70.1896C92.4382 70.3523 92.7805 70.4337 93.1957 70.4337C94.2954 70.4337 94.8453 69.8389 94.8453 68.6494V67.2776H94.8368C94.6012 67.805 94.2617 68.1894 93.8185 68.4306C93.3752 68.6719 92.8647 68.7925 92.2868 68.7925C91.5069 68.7925 90.828 68.6017 90.2501 68.2202C89.6778 67.8331 89.2317 67.3029 88.9119 66.6296C88.5977 65.9563 88.4406 65.1848 88.4406 64.3151C88.4406 63.4343 88.6033 62.6516 88.9287 61.967C89.2541 61.2825 89.703 60.7467 90.2753 60.3596C90.8476 59.9668 91.5097 59.7704 92.2615 59.7704ZM93.0947 62.0175C92.5617 62.0175 92.1409 62.2167 91.8323 62.6151C91.5293 63.0134 91.3778 63.5633 91.3778 64.2646C91.3778 64.9716 91.5293 65.5243 91.8323 65.9226C92.1409 66.321 92.5617 66.5202 93.0947 66.5202C93.6446 66.5202 94.0878 66.3182 94.4245 65.9142C94.7667 65.5046 94.9378 64.9548 94.9378 64.2646C94.9378 63.5857 94.7667 63.0415 94.4245 62.6319C94.0878 62.2223 93.6446 62.0175 93.0947 62.0175Z" fill="white"/>
<path fill-rule="evenodd" clip-rule="evenodd" d="M19.7397 59.762C20.6318 59.762 21.4145 59.9584 22.0878 60.3512C22.7667 60.7383 23.2969 61.2769 23.6784 61.967C24.06 62.6516 24.2507 63.4427 24.2507 64.3404V65.1231H18.0649C18.0817 65.6898 18.25 66.1386 18.5698 66.4697C18.8953 66.8007 19.3441 66.9662 19.9164 66.9662C20.3428 66.9662 20.6991 66.8792 20.9853 66.7053C21.277 66.5314 21.4762 66.2985 21.5828 66.0068H24.1834C24.0768 66.6015 23.8187 67.1289 23.4091 67.589C22.9995 68.0491 22.4833 68.4082 21.8606 68.6663C21.2434 68.9244 20.5617 69.0534 19.8154 69.0534C18.9065 69.0534 18.107 68.8542 17.4168 68.4559C16.7323 68.0575 16.1965 67.5105 15.8094 66.8147C15.4278 66.1134 15.2371 65.311 15.2371 64.4077C15.2371 63.5044 15.4278 62.7049 15.8094 62.0091C16.1965 61.3078 16.7295 60.7579 17.4084 60.3596C18.0873 59.9612 18.8644 59.762 19.7397 59.762ZM19.8154 61.8997C19.3273 61.8997 18.9317 62.0316 18.6288 62.2953C18.3258 62.559 18.1434 62.9237 18.0817 63.3894H21.5492C21.4818 62.9237 21.2967 62.559 20.9937 62.2953C20.6907 62.0316 20.298 61.8997 19.8154 61.8997Z" fill="white"/>
<path fill-rule="evenodd" clip-rule="evenodd" d="M51.3423 59.762C52.268 59.762 53.0816 59.9556 53.7829 60.3427C54.4899 60.7243 55.037 61.2657 55.4241 61.967C55.8168 62.6628 56.0132 63.4763 56.0132 64.4077C56.0132 65.3503 55.8168 66.1695 55.4241 66.8652C55.037 67.5553 54.4899 68.094 53.7829 68.4811C53.0816 68.8626 52.268 69.0534 51.3423 69.0534C50.4109 69.0534 49.5945 68.8626 48.8932 68.4811C48.1918 68.0996 47.6448 67.561 47.252 66.8652C46.8593 66.1695 46.6629 65.3503 46.6629 64.4077C46.6629 63.4763 46.8593 62.6628 47.252 61.967C47.6448 61.2657 48.1918 60.7243 48.8932 60.3427C49.5945 59.9556 50.4109 59.762 51.3423 59.762ZM51.3423 62.068C50.8373 62.068 50.4193 62.27 50.0883 62.674C49.7628 63.078 49.6001 63.6559 49.6001 64.4077C49.6001 65.1596 49.7628 65.7375 50.0883 66.1414C50.4137 66.5454 50.8317 66.7474 51.3423 66.7474C51.8472 66.7474 52.2624 66.5454 52.5879 66.1414C52.9189 65.7375 53.0844 65.1596 53.0844 64.4077C53.0844 63.6559 52.9189 63.078 52.5879 62.674C52.2624 62.27 51.8472 62.068 51.3423 62.068Z" fill="white"/>
<path fill-rule="evenodd" clip-rule="evenodd" d="M113.79 59.762C114.716 59.762 115.529 59.9556 116.231 60.3427C116.938 60.7243 117.485 61.2657 117.872 61.967C118.265 62.6628 118.461 63.4763 118.461 64.4077C118.461 65.3503 118.265 66.1695 117.872 66.8652C117.485 67.5553 116.938 68.094 116.231 68.4811C115.529 68.8626 114.716 69.0534 113.79 69.0534C112.859 69.0534 112.042 68.8626 111.341 68.4811C110.64 68.0996 110.092 67.561 109.7 66.8652C109.307 66.1695 109.111 65.3503 109.111 64.4077C109.111 63.4763 109.307 62.6628 109.7 61.967C110.092 61.2657 110.64 60.7243 111.341 60.3427C112.042 59.9556 112.859 59.762 113.79 59.762ZM113.79 62.068C113.285 62.068 112.867 62.27 112.536 62.674C112.211 63.078 112.048 63.6559 112.048 64.4077C112.048 65.1596 112.211 65.7375 112.536 66.1414C112.861 66.5454 113.279 66.7474 113.79 66.7474C114.295 66.7474 114.71 66.5454 115.036 66.1414C115.367 65.7375 115.532 65.1596 115.532 64.4077C115.532 63.6559 115.367 63.078 115.036 62.674C114.71 62.27 114.295 62.068 113.79 62.068Z" fill="white"/>
<path d="M9.69083 62.0091C9.84232 62.2448 10.0387 62.5786 10.28 63.0106C10.5212 63.4371 10.7625 63.8747 11.0037 64.3236C10.9925 63.8298 10.9813 63.3473 10.9701 62.876C10.9645 62.4047 10.9617 62.0288 10.9617 61.7482V56.3114H13.9915V68.8514H10.8523L7.58679 63.6334C7.40164 63.3417 7.16879 62.9517 6.88825 62.4636C6.60772 61.9755 6.30473 61.4368 5.97931 60.8477C6.00175 61.4593 6.01578 62.0091 6.02139 62.4973C6.027 62.9854 6.02981 63.3613 6.02981 63.625V68.8514H3V56.3114H6.1308L9.69083 62.0091Z" fill="white"/>
<path d="M29.2415 59.964H31.0678V62.2027H29.2415V65.8637C29.2415 66.1499 29.2976 66.3462 29.4098 66.4528C29.522 66.5594 29.7409 66.6127 30.0663 66.6127H31.0678V68.8514H29.4267C28.3606 68.8514 27.5779 68.6522 27.0786 68.2539C26.5848 67.8499 26.3379 67.2159 26.3379 66.3518V62.2027H24.823V59.964H26.3379V57.5402H29.2415V59.964Z" fill="white"/>
<path d="M35.6209 62.7413C35.7444 63.2575 35.8622 63.7933 35.9744 64.3488L36.3279 65.9984L36.715 64.3488C36.8497 63.7933 36.9843 63.2575 37.119 62.7413L37.8512 59.964H40.4181L41.1503 62.7413C41.285 63.2575 41.4168 63.7933 41.5459 64.3488C41.6805 64.8987 41.8124 65.4485 41.9414 65.9984C42.0537 65.4485 42.1631 64.8987 42.2697 64.3488C42.3819 63.799 42.4997 63.2631 42.6232 62.7413L43.288 59.964H46.3852L43.6499 68.8514H40.6622L39.6775 65.5271C39.5821 65.196 39.4895 64.8594 39.3998 64.5171C39.31 64.1693 39.223 63.8214 39.1389 63.4735L38.8696 64.5171C38.7798 64.8594 38.6872 65.196 38.5918 65.5271L37.6071 68.8514H34.6194L31.8842 59.964H34.9308L35.6209 62.7413Z" fill="white"/>
<path d="M62.6872 59.9388C62.8163 59.9388 62.9397 59.9416 63.0575 59.9472V62.3374C62.9509 62.3317 62.7854 62.3261 62.561 62.3205C62.3365 62.3149 62.1205 62.3121 61.9129 62.3121C61.3911 62.3121 60.9675 62.486 60.6421 62.8339C60.3223 63.1818 60.1624 63.6699 60.1624 64.2983V68.8514H57.2672V59.964H60.0698V61.5294H60.095C60.2578 60.9627 60.5102 60.5559 60.8525 60.3091C61.2004 60.0566 61.6717 59.9303 62.2664 59.9303C62.4235 59.9303 62.5638 59.9331 62.6872 59.9388Z" fill="white"/>
<path d="M67.0299 63.1201H67.0636L69.7652 59.964H73.1064L69.7989 63.8438L73.2495 68.8514H69.9083L67.6443 65.4934L67.0299 66.2088V68.8514H64.1348V56.3114H67.0299V63.1201Z" fill="white"/>
<path d="M76.8263 68.8514H73.9312V59.964H76.8263V68.8514Z" fill="white"/>
<path d="M84.1315 59.7704C85.0966 59.7704 85.8456 60.079 86.3786 60.6962C86.9173 61.3134 87.1866 62.169 87.1866 63.2631V68.8514H84.2914V63.8691C84.2914 63.3417 84.1652 62.9405 83.9127 62.6656C83.6602 62.385 83.3039 62.2448 82.8439 62.2448C82.3894 62.2448 82.0247 62.3907 81.7498 62.6824C81.4748 62.9686 81.3374 63.4146 81.3374 64.0206V68.8514H78.4422V59.964H81.3037V61.4032C81.6011 60.8982 81.9798 60.4998 82.4399 60.2081C82.9 59.9163 83.4638 59.7704 84.1315 59.7704Z" fill="white"/>
<path d="M108.496 58.5501H107.613C107.27 58.5501 107.026 58.623 106.88 58.7689C106.74 58.9092 106.67 59.1476 106.67 59.4843V59.964H108.496V62.2027H106.67V68.8514H103.766V62.2027H102.15V59.964H103.766V58.9793C103.766 58.076 104.019 57.4055 104.524 56.9679C105.034 56.5302 105.82 56.3114 106.88 56.3114H108.496V58.5501Z" fill="white"/>
<path d="M125.135 59.9388C125.264 59.9388 125.387 59.9416 125.505 59.9472V62.3374C125.399 62.3317 125.233 62.3261 125.009 62.3205C124.784 62.3149 124.568 62.3121 124.361 62.3121C123.839 62.3121 123.415 62.486 123.09 62.8339C122.77 63.1818 122.61 63.6699 122.61 64.2983V68.8514H119.715V59.964H122.518V61.5294H122.543C122.705 60.9627 122.958 60.5559 123.3 60.3091C123.648 60.0566 124.119 59.9303 124.714 59.9303C124.871 59.9303 125.011 59.9331 125.135 59.9388Z" fill="white"/>
<path d="M75.3703 56.1768C75.836 56.1768 76.2176 56.3142 76.5149 56.5891C76.8179 56.8585 76.9694 57.2063 76.9694 57.6327C76.9694 58.0592 76.8179 58.4098 76.5149 58.6848C76.2176 58.9597 75.836 59.0971 75.3703 59.0971C74.9102 59.0971 74.5287 58.9597 74.2257 58.6848C73.9284 58.4098 73.7797 58.0592 73.7797 57.6327C73.7797 57.2063 73.9284 56.8585 74.2257 56.5891C74.5287 56.3142 74.9102 56.1768 75.3703 56.1768Z" fill="white"/>
</svg>
