<svg width="128" height="128" viewBox="0 0 128 128" fill="none" xmlns="http://www.w3.org/2000/svg">
<path d="M88.5234 80.4121V79.2695H95.3848V80.4121H92.6133V88H91.3066V80.4121H88.5234Z" fill="white"/>
<path d="M80.4609 88V79.2695H81.9023L85.2363 84.5488C85.3379 84.7129 85.4766 84.9453 85.6523 85.2461C85.8281 85.5469 86.0039 85.8516 86.1797 86.1602C86.168 85.8438 86.1582 85.5234 86.1504 85.1992C86.1465 84.8711 86.1445 84.627 86.1445 84.4668V79.2695H87.4512V88H85.998L83.0156 83.2832C82.8945 83.0918 82.7188 82.8066 82.4883 82.4277C82.2617 82.0449 82.0039 81.6055 81.7148 81.1094C81.7344 81.6211 81.7461 82.0625 81.75 82.4336C81.7578 82.8008 81.7617 83.082 81.7617 83.2773V88H80.4609Z" fill="white"/>
<path d="M73.3945 88V79.2695H79.2656V80.4121H74.6953V82.9844H78.9258V84.1152H74.6953V86.8574H79.2656V88H73.3945Z" fill="white"/>
<path d="M66.8789 88V79.2695H68.1797V86.8574H72.3105V88H66.8789Z" fill="white"/>
<path d="M58.0898 88L61.2598 79.2695H62.8301L65.9766 88H64.5645L63.791 85.7324H60.2695L59.4727 88H58.0898ZM60.6621 84.625H63.4102L62.8828 83.0781C62.7656 82.7188 62.6406 82.334 62.5078 81.9238C62.375 81.5137 62.2227 81.0254 62.0508 80.459C61.875 81.0254 61.7207 81.5137 61.5879 81.9238C61.4551 82.334 61.3281 82.7188 61.207 83.0781L60.6621 84.625Z" fill="white"/>
<path d="M54.4277 88L51.2578 79.2695H52.6582L54.3867 84.1914C54.4922 84.5078 54.6133 84.8809 54.75 85.3105C54.8867 85.7402 55.0469 86.2422 55.2305 86.8164C55.4062 86.2422 55.5605 85.7402 55.6934 85.3105C55.8301 84.8809 55.9512 84.5078 56.0566 84.1914L57.7383 79.2695H59.1152L55.9922 88H54.4277Z" fill="white"/>
<path d="M47.1094 88.1406C46.3359 88.1406 45.6465 87.9512 45.041 87.5723C44.4355 87.1934 43.959 86.666 43.6113 85.9902C43.2676 85.3145 43.0957 84.5312 43.0957 83.6406C43.0957 82.7461 43.2676 81.9609 43.6113 81.2852C43.959 80.6055 44.4355 80.0762 45.041 79.6973C45.6465 79.3184 46.3359 79.1289 47.1094 79.1289C47.8867 79.1289 48.5781 79.3184 49.1836 79.6973C49.7891 80.0762 50.2637 80.6055 50.6074 81.2852C50.9551 81.9609 51.1289 82.7461 51.1289 83.6406C51.1289 84.5312 50.9551 85.3145 50.6074 85.9902C50.2637 86.666 49.7891 87.1934 49.1836 87.5723C48.5781 87.9512 47.8867 88.1406 47.1094 88.1406ZM47.1094 86.9512C47.6133 86.9512 48.0703 86.8242 48.4805 86.5703C48.8906 86.3125 49.2168 85.9375 49.459 85.4453C49.7012 84.9492 49.8223 84.3477 49.8223 83.6406C49.8223 82.9297 49.7012 82.3262 49.459 81.8301C49.2168 81.334 48.8906 80.959 48.4805 80.7051C48.0703 80.4473 47.6133 80.3184 47.1094 80.3184C46.6094 80.3184 46.1543 80.4473 45.7441 80.7051C45.334 80.959 45.0078 81.334 44.7656 81.8301C44.5234 82.3262 44.4023 82.9297 44.4023 83.6406C44.4023 84.3477 44.5234 84.9492 44.7656 85.4453C45.0078 85.9375 45.334 86.3125 45.7441 86.5703C46.1543 86.8242 46.6094 86.9512 47.1094 86.9512Z" fill="white"/>
<path d="M38.918 88.1406C37.8711 88.1406 37.0449 87.877 36.4395 87.3496C35.8379 86.8184 35.5371 86.0918 35.5371 85.1699H36.8379C36.8418 85.7441 37.0254 86.1934 37.3887 86.5176C37.7559 86.8418 38.2656 87.0039 38.918 87.0039C39.5117 87.0039 39.9863 86.8789 40.3418 86.6289C40.7012 86.375 40.8809 86.0352 40.8809 85.6094C40.8809 85.2734 40.752 85.002 40.4941 84.7949C40.2402 84.584 39.8105 84.4062 39.2051 84.2617L38.25 84.0332C37.3672 83.8223 36.7227 83.5293 36.3164 83.1543C35.9141 82.7754 35.7129 82.2832 35.7129 81.6777C35.7129 81.166 35.8418 80.7188 36.0996 80.3359C36.3574 79.9531 36.7188 79.6562 37.1836 79.4453C37.6523 79.2344 38.1992 79.1289 38.8242 79.1289C39.7656 79.1289 40.5137 79.375 41.0684 79.8672C41.627 80.3594 41.9199 81.0312 41.9473 81.8828H40.6875C40.6562 81.3789 40.4727 80.9844 40.1367 80.6992C39.8008 80.4102 39.3574 80.2656 38.8066 80.2656C38.2793 80.2656 37.8477 80.3926 37.5117 80.6465C37.1758 80.8965 37.0078 81.2188 37.0078 81.6133C37.0078 81.9297 37.1367 82.1875 37.3945 82.3867C37.6523 82.582 38.0801 82.752 38.6777 82.8965L39.6211 83.1191C40.4961 83.3262 41.1406 83.625 41.5547 84.0156C41.9727 84.4062 42.1816 84.9141 42.1816 85.5391C42.1816 86.0625 42.0469 86.5195 41.7773 86.9102C41.5078 87.3008 41.1289 87.6035 40.6406 87.8184C40.1523 88.0332 39.5781 88.1406 38.918 88.1406Z" fill="white"/>
<path d="M34.3008 79.2695V88H33V79.2695H34.3008Z" fill="white"/>
<path d="M97.9873 114.631C98.9945 114.631 99.7965 114.854 100.394 115.301C100.991 115.747 101.3 116.356 101.323 117.126H99.1562C99.1517 116.875 99.0469 116.666 98.8418 116.497C98.6413 116.328 98.3838 116.244 98.0693 116.244C97.764 116.244 97.5247 116.303 97.3516 116.422C97.1829 116.54 97.0986 116.688 97.0986 116.866C97.0986 117.162 97.3584 117.361 97.8779 117.461L99.3271 117.728C100.07 117.864 100.619 118.092 100.975 118.411C101.33 118.73 101.508 119.159 101.508 119.696C101.508 120.188 101.364 120.621 101.077 120.995C100.795 121.369 100.398 121.66 99.8877 121.87C99.3818 122.075 98.7917 122.178 98.1172 122.178C97.4518 122.178 96.8617 122.077 96.3467 121.877C95.8317 121.676 95.4193 121.389 95.1094 121.016C94.804 120.642 94.6309 120.2 94.5898 119.689H96.9072C96.9437 119.958 97.0622 120.17 97.2627 120.325C97.4632 120.48 97.7367 120.558 98.083 120.558C98.4066 120.558 98.6595 120.501 98.8418 120.387C99.0241 120.273 99.1152 120.125 99.1152 119.942C99.1152 119.642 98.8236 119.439 98.2402 119.334L96.9346 119.102C96.2236 118.974 95.6813 118.73 95.3076 118.37C94.9385 118.01 94.7539 117.545 94.7539 116.976C94.7539 116.265 95.041 115.697 95.6152 115.273C96.1895 114.845 96.9801 114.631 97.9873 114.631Z" fill="white"/>
<path fill-rule="evenodd" clip-rule="evenodd" d="M54.7432 114.617C55.4678 114.617 56.1035 114.777 56.6504 115.096C57.2018 115.41 57.6325 115.848 57.9424 116.408C58.2523 116.964 58.4072 117.607 58.4072 118.336V118.972H53.3828C53.3965 119.432 53.5332 119.797 53.793 120.065C54.0573 120.334 54.4219 120.469 54.8867 120.469C55.2331 120.469 55.5225 120.398 55.7549 120.257C55.9919 120.116 56.1536 119.926 56.2402 119.689H58.3525C58.2659 120.173 58.0563 120.601 57.7236 120.975C57.3909 121.348 56.9717 121.64 56.4658 121.85C55.9645 122.059 55.4108 122.164 54.8047 122.164C54.0664 122.164 53.417 122.002 52.8564 121.679C52.3005 121.355 51.8652 120.911 51.5508 120.346C51.2409 119.776 51.0859 119.124 51.0859 118.391C51.0859 117.657 51.2409 117.007 51.5508 116.442C51.8652 115.873 52.2982 115.426 52.8496 115.103C53.401 114.779 54.0322 114.617 54.7432 114.617ZM54.8047 116.354C54.4082 116.354 54.0869 116.461 53.8408 116.675C53.5947 116.889 53.4466 117.185 53.3965 117.563H56.2129C56.1582 117.185 56.0078 116.889 55.7617 116.675C55.5156 116.461 55.1966 116.354 54.8047 116.354Z" fill="white"/>
<path fill-rule="evenodd" clip-rule="evenodd" d="M76.8506 114.617C77.5752 114.617 78.2109 114.777 78.7578 115.096C79.3092 115.41 79.7399 115.848 80.0498 116.408C80.3597 116.964 80.5146 117.607 80.5146 118.336V118.972H75.4902C75.5039 119.432 75.6406 119.797 75.9004 120.065C76.1647 120.334 76.5293 120.469 76.9941 120.469C77.3405 120.469 77.6299 120.398 77.8623 120.257C78.0993 120.116 78.2611 119.926 78.3477 119.689H80.46C80.3734 120.173 80.1637 120.601 79.8311 120.975C79.4984 121.348 79.0791 121.64 78.5732 121.85C78.0719 122.059 77.5182 122.164 76.9121 122.164C76.1738 122.164 75.5244 122.002 74.9639 121.679C74.4079 121.355 73.9727 120.911 73.6582 120.346C73.3483 119.776 73.1934 119.124 73.1934 118.391C73.1934 117.657 73.3483 117.007 73.6582 116.442C73.9727 115.873 74.4056 115.426 74.957 115.103C75.5085 114.779 76.1396 114.617 76.8506 114.617ZM76.9121 116.354C76.5156 116.354 76.1943 116.461 75.9482 116.675C75.7021 116.889 75.554 117.185 75.5039 117.563H78.3203C78.2656 117.185 78.1152 116.889 77.8691 116.675C77.623 116.461 77.304 116.354 76.9121 116.354Z" fill="white"/>
<path fill-rule="evenodd" clip-rule="evenodd" d="M90.2764 114.617C91.001 114.617 91.6367 114.777 92.1836 115.096C92.735 115.41 93.1657 115.848 93.4756 116.408C93.7855 116.964 93.9404 117.607 93.9404 118.336V118.972H88.916C88.9297 119.432 89.0664 119.797 89.3262 120.065C89.5905 120.334 89.9551 120.469 90.4199 120.469C90.7663 120.469 91.0557 120.398 91.2881 120.257C91.5251 120.116 91.6869 119.926 91.7734 119.689H93.8857C93.7992 120.173 93.5895 120.601 93.2568 120.975C92.9242 121.348 92.5049 121.64 91.999 121.85C91.4977 122.059 90.944 122.164 90.3379 122.164C89.5996 122.164 88.9502 122.002 88.3896 121.679C87.8337 121.355 87.3984 120.911 87.084 120.346C86.7741 119.776 86.6191 119.124 86.6191 118.391C86.6191 117.657 86.7741 117.007 87.084 116.442C87.3984 115.873 87.8314 115.426 88.3828 115.103C88.9342 114.779 89.5654 114.617 90.2764 114.617ZM90.3379 116.354C89.9414 116.354 89.6201 116.461 89.374 116.675C89.1279 116.889 88.9798 117.185 88.9297 117.563H91.7461C91.6914 117.185 91.541 116.889 91.2949 116.675C91.0488 116.461 90.7298 116.354 90.3379 116.354Z" fill="white"/>
<path d="M36.7578 118.828C36.7578 119.257 36.8604 119.585 37.0654 119.812C37.2705 120.036 37.5599 120.147 37.9336 120.147C38.3027 120.147 38.599 120.031 38.8223 119.799C39.0456 119.562 39.1572 119.197 39.1572 118.705V114.781H41.5088V122H39.1846V120.831C38.943 121.241 38.6354 121.565 38.2617 121.802C37.888 122.039 37.43 122.157 36.8877 122.157C36.1038 122.157 35.4932 121.907 35.0557 121.405C34.6227 120.904 34.4062 120.209 34.4062 119.32V114.781H36.7578V118.828Z" fill="white"/>
<path fill-rule="evenodd" clip-rule="evenodd" d="M45.1797 115.752H45.1934C45.64 115 46.3304 114.624 47.2646 114.624C47.8753 114.624 48.4131 114.784 48.8779 115.103C49.3428 115.422 49.7051 115.864 49.9648 116.429C50.2292 116.994 50.3613 117.643 50.3613 118.377C50.3613 119.138 50.2314 119.803 49.9717 120.373C49.7165 120.938 49.3542 121.378 48.8848 121.692C48.4199 122.002 47.873 122.157 47.2441 122.157C46.7702 122.157 46.3509 122.052 45.9863 121.843C45.6263 121.629 45.3529 121.31 45.166 120.886H45.1523V122H42.8281V111.814H45.1797V115.752ZM46.5811 116.497C46.139 116.497 45.779 116.668 45.501 117.01C45.223 117.352 45.084 117.807 45.084 118.377C45.084 118.956 45.223 119.418 45.501 119.765C45.779 120.106 46.139 120.277 46.5811 120.277C47.014 120.277 47.3558 120.109 47.6064 119.771C47.8571 119.434 47.9824 118.969 47.9824 118.377C47.9824 117.789 47.8571 117.329 47.6064 116.996C47.3558 116.663 47.014 116.497 46.5811 116.497Z" fill="white"/>
<path d="M27.4609 116.36C27.6934 116.069 27.9281 115.777 28.165 115.485C28.402 115.189 28.639 114.895 28.876 114.604L31.1523 111.814H34.0439L30.3594 116.203L34.1875 122H31.3711L28.7529 117.864L27.4609 119.409V122H25V111.814H27.4609V116.36Z" fill="white"/>
<path d="M63.8008 114.761C63.9056 114.761 64.0059 114.763 64.1016 114.768V116.709C64.015 116.704 63.8805 116.7 63.6982 116.695C63.5159 116.691 63.3405 116.688 63.1719 116.688C62.748 116.688 62.404 116.83 62.1396 117.112C61.8799 117.395 61.75 117.791 61.75 118.302V122H59.3984V114.781H61.6748V116.053H61.6953C61.8275 115.592 62.0326 115.262 62.3105 115.062C62.5931 114.856 62.9759 114.754 63.459 114.754C63.5866 114.754 63.7005 114.756 63.8008 114.761Z" fill="white"/>
<path d="M69.6934 114.624C70.4772 114.624 71.0856 114.875 71.5186 115.376C71.9561 115.877 72.1748 116.572 72.1748 117.461V122H69.8232V117.953C69.8232 117.525 69.7207 117.199 69.5156 116.976C69.3105 116.748 69.0212 116.634 68.6475 116.634C68.2783 116.634 67.9821 116.752 67.7588 116.989C67.5355 117.222 67.4238 117.584 67.4238 118.076V122H65.0723V114.781H67.3965V115.95C67.638 115.54 67.9456 115.216 68.3193 114.979C68.693 114.743 69.151 114.624 69.6934 114.624Z" fill="white"/>
<path d="M84.5684 114.781H86.0518V116.6H84.5684V119.573C84.5684 119.806 84.6139 119.965 84.7051 120.052C84.7962 120.138 84.974 120.182 85.2383 120.182H86.0518V122H84.7188C83.8529 122 83.2171 121.838 82.8115 121.515C82.4105 121.187 82.21 120.672 82.21 119.97V116.6H80.9795V114.781H82.21V112.812H84.5684V114.781Z" fill="white"/>
<path fill-rule="evenodd" clip-rule="evenodd" d="M86.502 97.624C87.4362 97.624 88.1335 98.0137 88.5938 98.793H88.6006V97.7812H90.9385V104.604C90.9385 105.779 90.6058 106.632 89.9404 107.16C89.2796 107.689 88.3864 107.953 87.2607 107.953C86.1488 107.953 85.3125 107.728 84.752 107.276C84.196 106.825 83.8633 106.253 83.7539 105.561H86.0029C86.0667 105.784 86.208 105.959 86.4268 106.087C86.6455 106.219 86.9235 106.285 87.2607 106.285C88.154 106.285 88.6006 105.802 88.6006 104.836V103.722H88.5938C88.4023 104.15 88.1266 104.462 87.7666 104.658C87.4066 104.854 86.9919 104.952 86.5225 104.952C85.889 104.952 85.3376 104.797 84.8682 104.487C84.4033 104.173 84.041 103.742 83.7812 103.195C83.526 102.648 83.3984 102.022 83.3984 101.315C83.3984 100.6 83.5306 99.9642 83.7949 99.4082C84.0592 98.8522 84.4238 98.417 84.8887 98.1025C85.3535 97.7835 85.8913 97.624 86.502 97.624ZM87.1787 99.4492C86.7458 99.4492 86.404 99.611 86.1533 99.9346C85.9072 100.258 85.7842 100.705 85.7842 101.274C85.7842 101.849 85.9072 102.298 86.1533 102.621C86.404 102.945 86.7458 103.106 87.1787 103.106C87.6253 103.106 87.9854 102.942 88.2588 102.614C88.5368 102.282 88.6758 101.835 88.6758 101.274C88.6758 100.723 88.5368 100.281 88.2588 99.9482C87.9854 99.6156 87.6253 99.4492 87.1787 99.4492Z" fill="white"/>
<path fill-rule="evenodd" clip-rule="evenodd" d="M27.5967 97.6172C28.3213 97.6172 28.957 97.7767 29.5039 98.0957C30.0553 98.4102 30.486 98.8477 30.7959 99.4082C31.1058 99.9642 31.2607 100.607 31.2607 101.336V101.972H26.2363C26.25 102.432 26.3867 102.797 26.6465 103.065C26.9108 103.334 27.2754 103.469 27.7402 103.469C28.0866 103.469 28.376 103.398 28.6084 103.257C28.8454 103.116 29.0072 102.926 29.0938 102.689H31.2061C31.1195 103.173 30.9098 103.601 30.5771 103.975C30.2445 104.348 29.8252 104.64 29.3193 104.85C28.818 105.059 28.2643 105.164 27.6582 105.164C26.9199 105.164 26.2705 105.002 25.71 104.679C25.154 104.355 24.7188 103.911 24.4043 103.346C24.0944 102.776 23.9395 102.124 23.9395 101.391C23.9395 100.657 24.0944 100.007 24.4043 99.4424C24.7188 98.8727 25.1517 98.4261 25.7031 98.1025C26.2546 97.779 26.8857 97.6172 27.5967 97.6172ZM27.6582 99.3535C27.2617 99.3535 26.9404 99.4606 26.6943 99.6748C26.4482 99.889 26.3001 100.185 26.25 100.563H29.0664C29.0117 100.185 28.8613 99.889 28.6152 99.6748C28.3691 99.4606 28.0501 99.3535 27.6582 99.3535Z" fill="white"/>
<path fill-rule="evenodd" clip-rule="evenodd" d="M53.2656 97.6172C54.0176 97.6172 54.6784 97.7744 55.248 98.0889C55.8223 98.3988 56.2666 98.8385 56.5811 99.4082C56.9001 99.9733 57.0596 100.634 57.0596 101.391C57.0596 102.156 56.9001 102.822 56.5811 103.387C56.2666 103.947 55.8223 104.385 55.248 104.699C54.6784 105.009 54.0176 105.164 53.2656 105.164C52.5091 105.164 51.846 105.009 51.2764 104.699C50.7067 104.389 50.2624 103.952 49.9434 103.387C49.6243 102.822 49.4648 102.156 49.4648 101.391C49.4648 100.634 49.6243 99.9733 49.9434 99.4082C50.2624 98.8385 50.7067 98.3988 51.2764 98.0889C51.846 97.7744 52.5091 97.6172 53.2656 97.6172ZM53.2656 99.4902C52.8555 99.4902 52.5159 99.6543 52.2471 99.9824C51.9827 100.311 51.8506 100.78 51.8506 101.391C51.8506 102.001 51.9827 102.471 52.2471 102.799C52.5114 103.127 52.8509 103.291 53.2656 103.291C53.6758 103.291 54.013 103.127 54.2773 102.799C54.5462 102.471 54.6807 102.001 54.6807 101.391C54.6807 100.78 54.5462 100.311 54.2773 99.9824C54.013 99.6543 53.6758 99.4902 53.2656 99.4902Z" fill="white"/>
<path fill-rule="evenodd" clip-rule="evenodd" d="M103.988 97.6172C104.74 97.6172 105.401 97.7744 105.971 98.0889C106.545 98.3988 106.989 98.8385 107.304 99.4082C107.623 99.9733 107.782 100.634 107.782 101.391C107.782 102.156 107.623 102.822 107.304 103.387C106.989 103.947 106.545 104.385 105.971 104.699C105.401 105.009 104.74 105.164 103.988 105.164C103.232 105.164 102.569 105.009 101.999 104.699C101.429 104.389 100.985 103.952 100.666 103.387C100.347 102.822 100.188 102.156 100.188 101.391C100.188 100.634 100.347 99.9733 100.666 99.4082C100.985 98.8385 101.429 98.3988 101.999 98.0889C102.569 97.7744 103.232 97.6172 103.988 97.6172ZM103.988 99.4902C103.578 99.4902 103.239 99.6543 102.97 99.9824C102.705 100.311 102.573 100.78 102.573 101.391C102.573 102.001 102.705 102.471 102.97 102.799C103.234 103.127 103.574 103.291 103.988 103.291C104.398 103.291 104.736 103.127 105 102.799C105.269 102.471 105.403 102.001 105.403 101.391C105.403 100.78 105.269 100.311 105 99.9824C104.736 99.6543 104.398 99.4902 103.988 99.4902Z" fill="white"/>
<path d="M19.4346 99.4424C19.5576 99.6338 19.7171 99.9049 19.9131 100.256C20.109 100.602 20.305 100.958 20.501 101.322C20.4919 100.921 20.4827 100.529 20.4736 100.146C20.4691 99.7637 20.4668 99.4583 20.4668 99.2305V94.8145H22.9277V105H20.3779L17.7256 100.762C17.5752 100.525 17.3861 100.208 17.1582 99.8115C16.9303 99.415 16.6842 98.9775 16.4199 98.499C16.4382 98.9958 16.4495 99.4424 16.4541 99.8389C16.4587 100.235 16.4609 100.541 16.4609 100.755V105H14V94.8145H16.543L19.4346 99.4424Z" fill="white"/>
<path d="M35.3145 97.7812H36.7979V99.5996H35.3145V102.573C35.3145 102.806 35.36 102.965 35.4512 103.052C35.5423 103.138 35.7201 103.182 35.9844 103.182H36.7979V105H35.4648C34.599 105 33.9632 104.838 33.5576 104.515C33.1566 104.187 32.9561 103.672 32.9561 102.97V99.5996H31.7256V97.7812H32.9561V95.8125H35.3145V97.7812Z" fill="white"/>
<path d="M40.4961 100.037C40.5964 100.456 40.6921 100.892 40.7832 101.343L41.0703 102.683L41.3848 101.343C41.4941 100.892 41.6035 100.456 41.7129 100.037L42.3076 97.7812H44.3926L44.9873 100.037C45.0967 100.456 45.2038 100.892 45.3086 101.343C45.418 101.789 45.5251 102.236 45.6299 102.683C45.721 102.236 45.8099 101.789 45.8965 101.343C45.9876 100.896 46.0833 100.461 46.1836 100.037L46.7236 97.7812H49.2393L47.0176 105H44.5908L43.791 102.3C43.7135 102.031 43.6383 101.757 43.5654 101.479C43.4925 101.197 43.4219 100.914 43.3535 100.632L43.1348 101.479C43.0618 101.757 42.9867 102.031 42.9092 102.3L42.1094 105H39.6826L37.4609 97.7812H39.9355L40.4961 100.037Z" fill="white"/>
<path d="M62.4805 97.7607C62.5853 97.7607 62.6855 97.763 62.7812 97.7676V99.709C62.6947 99.7044 62.5602 99.6999 62.3779 99.6953C62.1956 99.6908 62.0202 99.6885 61.8516 99.6885C61.4277 99.6885 61.0837 99.8298 60.8193 100.112C60.5596 100.395 60.4297 100.791 60.4297 101.302V105H58.0781V97.7812H60.3545V99.0527H60.375C60.5072 98.5924 60.7122 98.262 60.9902 98.0615C61.2728 97.8564 61.6556 97.7539 62.1387 97.7539C62.2663 97.7539 62.3802 97.7562 62.4805 97.7607Z" fill="white"/>
<path d="M66.0078 100.345H66.0352L68.2295 97.7812H70.9434L68.2568 100.933L71.0596 105H68.3457L66.5068 102.272L66.0078 102.854V105H63.6562V94.8145H66.0078V100.345Z" fill="white"/>
<path d="M73.9648 105H71.6133V97.7812H73.9648V105Z" fill="white"/>
<path d="M79.8984 97.624C80.6823 97.624 81.2907 97.8747 81.7236 98.376C82.1611 98.8773 82.3799 99.5723 82.3799 100.461V105H80.0283V100.953C80.0283 100.525 79.9258 100.199 79.7207 99.9756C79.5156 99.7477 79.2262 99.6338 78.8525 99.6338C78.4834 99.6338 78.1872 99.7523 77.9639 99.9893C77.7406 100.222 77.6289 100.584 77.6289 101.076V105H75.2773V97.7812H77.6016V98.9502C77.8431 98.54 78.1507 98.2165 78.5244 97.9795C78.8981 97.7425 79.3561 97.624 79.8984 97.624Z" fill="white"/>
<path d="M99.6885 96.6328H98.9707C98.6927 96.6328 98.4945 96.6921 98.376 96.8105C98.262 96.9245 98.2051 97.1182 98.2051 97.3916V97.7812H99.6885V99.5996H98.2051V105H95.8467V99.5996H94.5342V97.7812H95.8467V96.9814C95.8467 96.2477 96.0518 95.7031 96.4619 95.3477C96.8766 94.9922 97.5146 94.8145 98.376 94.8145H99.6885V96.6328Z" fill="white"/>
<path d="M113.203 97.7607C113.308 97.7607 113.408 97.763 113.504 97.7676V99.709C113.417 99.7044 113.283 99.6999 113.101 99.6953C112.918 99.6908 112.743 99.6885 112.574 99.6885C112.15 99.6885 111.806 99.8298 111.542 100.112C111.282 100.395 111.152 100.791 111.152 101.302V105H108.801V97.7812H111.077V99.0527H111.098C111.23 98.5924 111.435 98.262 111.713 98.0615C111.995 97.8564 112.378 97.7539 112.861 97.7539C112.989 97.7539 113.103 97.7562 113.203 97.7607Z" fill="white"/>
<path d="M72.7822 94.7051C73.1605 94.7051 73.4704 94.8167 73.7119 95.04C73.958 95.2588 74.0811 95.5413 74.0811 95.8877C74.0811 96.234 73.958 96.5189 73.7119 96.7422C73.4704 96.9655 73.1605 97.0771 72.7822 97.0771C72.4085 97.0771 72.0986 96.9655 71.8525 96.7422C71.611 96.5189 71.4902 96.234 71.4902 95.8877C71.4902 95.5413 71.611 95.2588 71.8525 95.04C72.0986 94.8167 72.4085 94.7051 72.7822 94.7051Z" fill="white"/>
<path fill-rule="evenodd" clip-rule="evenodd" d="M90.1182 17.0166L97.1699 45.2207L78.7285 68H49.4404L31 45.2207L37.5088 17.0166L64.085 4L90.1182 17.0166ZM45.6436 27.8643L64.085 38.7119V60.9492L82.2539 51.7285L82.5254 27.8643L64.085 17.5596L45.6436 27.8643Z" fill="white"/>
</svg>
