<svg width="128" height="128" viewBox="0 0 128 128" fill="none" xmlns="http://www.w3.org/2000/svg">
<path d="M62.3203 80.4121V79.2695H69.1816V80.4121H66.4102V88H65.1035V80.4121H62.3203Z" fill="white"/>
<path d="M54.2578 88V79.2695H55.6992L59.0332 84.5488C59.1348 84.7129 59.2734 84.9453 59.4492 85.2461C59.625 85.5469 59.8008 85.8516 59.9766 86.1602C59.9648 85.8438 59.9551 85.5234 59.9473 85.1992C59.9434 84.8711 59.9414 84.627 59.9414 84.4668V79.2695H61.248V88H59.7949L56.8125 83.2832C56.6914 83.0918 56.5156 82.8066 56.2852 82.4277C56.0586 82.0449 55.8008 81.6055 55.5117 81.1094C55.5312 81.6211 55.543 82.0625 55.5469 82.4336C55.5547 82.8008 55.5586 83.082 55.5586 83.2773V88H54.2578Z" fill="white"/>
<path d="M47.1914 88V79.2695H53.0625V80.4121H48.4922V82.9844H52.7227V84.1152H48.4922V86.8574H53.0625V88H47.1914Z" fill="white"/>
<path d="M40.6758 88V79.2695H41.9766V86.8574H46.1074V88H40.6758Z" fill="white"/>
<path d="M31.8867 88L35.0566 79.2695H36.627L39.7734 88H38.3613L37.5879 85.7324H34.0664L33.2695 88H31.8867ZM34.459 84.625H37.207L36.6797 83.0781C36.5625 82.7188 36.4375 82.334 36.3047 81.9238C36.1719 81.5137 36.0195 81.0254 35.8477 80.459C35.6719 81.0254 35.5176 81.5137 35.3848 81.9238C35.252 82.334 35.125 82.7188 35.0039 83.0781L34.459 84.625Z" fill="white"/>
<path d="M28.2246 88L25.0547 79.2695H26.4551L28.1836 84.1914C28.2891 84.5078 28.4102 84.8809 28.5469 85.3105C28.6836 85.7402 28.8438 86.2422 29.0273 86.8164C29.2031 86.2422 29.3574 85.7402 29.4902 85.3105C29.627 84.8809 29.748 84.5078 29.8535 84.1914L31.5352 79.2695H32.9121L29.7891 88H28.2246Z" fill="white"/>
<path d="M20.9062 88.1406C20.1328 88.1406 19.4434 87.9512 18.8379 87.5723C18.2324 87.1934 17.7559 86.666 17.4082 85.9902C17.0645 85.3145 16.8926 84.5312 16.8926 83.6406C16.8926 82.7461 17.0645 81.9609 17.4082 81.2852C17.7559 80.6055 18.2324 80.0762 18.8379 79.6973C19.4434 79.3184 20.1328 79.1289 20.9062 79.1289C21.6836 79.1289 22.375 79.3184 22.9805 79.6973C23.5859 80.0762 24.0605 80.6055 24.4043 81.2852C24.752 81.9609 24.9258 82.7461 24.9258 83.6406C24.9258 84.5312 24.752 85.3145 24.4043 85.9902C24.0605 86.666 23.5859 87.1934 22.9805 87.5723C22.375 87.9512 21.6836 88.1406 20.9062 88.1406ZM20.9062 86.9512C21.4102 86.9512 21.8672 86.8242 22.2773 86.5703C22.6875 86.3125 23.0137 85.9375 23.2559 85.4453C23.498 84.9492 23.6191 84.3477 23.6191 83.6406C23.6191 82.9297 23.498 82.3262 23.2559 81.8301C23.0137 81.334 22.6875 80.959 22.2773 80.7051C21.8672 80.4473 21.4102 80.3184 20.9062 80.3184C20.4062 80.3184 19.9512 80.4473 19.541 80.7051C19.1309 80.959 18.8047 81.334 18.5625 81.8301C18.3203 82.3262 18.1992 82.9297 18.1992 83.6406C18.1992 84.3477 18.3203 84.9492 18.5625 85.4453C18.8047 85.9375 19.1309 86.3125 19.541 86.5703C19.9512 86.8242 20.4062 86.9512 20.9062 86.9512Z" fill="white"/>
<path d="M12.7148 88.1406C11.668 88.1406 10.8418 87.877 10.2363 87.3496C9.63477 86.8184 9.33398 86.0918 9.33398 85.1699H10.6348C10.6387 85.7441 10.8223 86.1934 11.1855 86.5176C11.5527 86.8418 12.0625 87.0039 12.7148 87.0039C13.3086 87.0039 13.7832 86.8789 14.1387 86.6289C14.498 86.375 14.6777 86.0352 14.6777 85.6094C14.6777 85.2734 14.5488 85.002 14.291 84.7949C14.0371 84.584 13.6074 84.4062 13.002 84.2617L12.0469 84.0332C11.1641 83.8223 10.5195 83.5293 10.1133 83.1543C9.71094 82.7754 9.50977 82.2832 9.50977 81.6777C9.50977 81.166 9.63867 80.7188 9.89648 80.3359C10.1543 79.9531 10.5156 79.6562 10.9805 79.4453C11.4492 79.2344 11.9961 79.1289 12.6211 79.1289C13.5625 79.1289 14.3105 79.375 14.8652 79.8672C15.4238 80.3594 15.7168 81.0312 15.7441 81.8828H14.4844C14.4531 81.3789 14.2695 80.9844 13.9336 80.6992C13.5977 80.4102 13.1543 80.2656 12.6035 80.2656C12.0762 80.2656 11.6445 80.3926 11.3086 80.6465C10.9727 80.8965 10.8047 81.2188 10.8047 81.6133C10.8047 81.9297 10.9336 82.1875 11.1914 82.3867C11.4492 82.582 11.877 82.752 12.4746 82.8965L13.418 83.1191C14.293 83.3262 14.9375 83.625 15.3516 84.0156C15.7695 84.4062 15.9785 84.9141 15.9785 85.5391C15.9785 86.0625 15.8438 86.5195 15.5742 86.9102C15.3047 87.3008 14.9258 87.6035 14.4375 87.8184C13.9492 88.0332 13.375 88.1406 12.7148 88.1406Z" fill="white"/>
<path d="M8.09766 79.2695V88H6.79688V79.2695H8.09766Z" fill="white"/>
<path d="M79.7734 122.178C79.1081 122.178 78.5179 122.077 78.0029 121.877C77.488 121.676 77.0755 121.389 76.7656 121.016C76.4603 120.642 76.2871 120.2 76.2461 119.689H78.5635C78.5999 119.958 78.7184 120.17 78.9189 120.325C79.1195 120.48 79.3929 120.558 79.7393 120.558C80.0628 120.558 80.3158 120.501 80.498 120.387C80.6803 120.273 80.7715 120.125 80.7715 119.942C80.7715 119.642 80.4798 119.439 79.8965 119.334L78.5908 119.102C77.8799 118.974 77.3376 118.73 76.9639 118.37C76.5947 118.01 76.4102 117.545 76.4102 116.976C76.4102 116.265 76.6973 115.697 77.2715 115.273C77.8457 114.845 78.6364 114.631 79.6436 114.631C80.6507 114.631 81.4528 114.854 82.0498 115.301C82.6468 115.747 82.9567 116.356 82.9795 117.126H80.8125C80.8079 116.875 80.7031 116.666 80.498 116.497C80.2975 116.328 80.04 116.244 79.7256 116.244C79.4202 116.244 79.181 116.303 79.0078 116.422C78.8392 116.54 78.7549 116.688 78.7549 116.866C78.7549 117.162 79.0146 117.361 79.5342 117.461L80.9834 117.728C81.7262 117.864 82.2754 118.092 82.6309 118.411C82.9863 118.73 83.1641 119.159 83.1641 119.696C83.1641 120.188 83.0205 120.621 82.7334 120.995C82.4508 121.369 82.0544 121.66 81.5439 121.87C81.0381 122.075 80.4479 122.178 79.7734 122.178Z" fill="white"/>
<path d="M71.9941 122.164C71.2559 122.164 70.6064 122.002 70.0459 121.679C69.4899 121.355 69.0547 120.911 68.7402 120.346C68.4303 119.776 68.2754 119.124 68.2754 118.391C68.2754 117.657 68.4303 117.007 68.7402 116.442C69.0547 115.873 69.4876 115.426 70.0391 115.103C70.5905 114.779 71.2217 114.617 71.9326 114.617C72.6572 114.617 73.293 114.777 73.8398 115.096C74.3913 115.41 74.8219 115.848 75.1318 116.408C75.4417 116.964 75.5967 117.607 75.5967 118.336V118.972H70.5723C70.5859 119.432 70.7227 119.797 70.9824 120.065C71.2467 120.334 71.6113 120.469 72.0762 120.469C72.4225 120.469 72.7119 120.398 72.9443 120.257C73.1813 120.116 73.3431 119.926 73.4297 119.689H75.542C75.4554 120.173 75.2458 120.601 74.9131 120.975C74.5804 121.348 74.1611 121.64 73.6553 121.85C73.154 122.059 72.6003 122.164 71.9941 122.164ZM70.5859 117.563H73.4023C73.3477 117.185 73.1973 116.889 72.9512 116.675C72.7051 116.461 72.3861 116.354 71.9941 116.354C71.5977 116.354 71.2764 116.461 71.0303 116.675C70.7842 116.889 70.6361 117.185 70.5859 117.563Z" fill="white"/>
<path d="M67.708 114.781V116.6H66.2246V119.573C66.2246 119.806 66.2702 119.965 66.3613 120.052C66.4525 120.138 66.6302 120.182 66.8945 120.182H67.708V122H66.375C65.5091 122 64.8734 121.838 64.4678 121.515C64.0667 121.187 63.8662 120.672 63.8662 119.97V116.6H62.6357V114.781H63.8662V112.812H66.2246V114.781H67.708Z" fill="white"/>
<path d="M58.5684 122.164C57.8301 122.164 57.1807 122.002 56.6201 121.679C56.0641 121.355 55.6289 120.911 55.3145 120.346C55.0046 119.776 54.8496 119.124 54.8496 118.391C54.8496 117.657 55.0046 117.007 55.3145 116.442C55.6289 115.873 56.0618 115.426 56.6133 115.103C57.1647 114.779 57.7959 114.617 58.5068 114.617C59.2314 114.617 59.8672 114.777 60.4141 115.096C60.9655 115.41 61.3962 115.848 61.7061 116.408C62.016 116.964 62.1709 117.607 62.1709 118.336V118.972H57.1465C57.1602 119.432 57.2969 119.797 57.5566 120.065C57.821 120.334 58.1855 120.469 58.6504 120.469C58.9967 120.469 59.2861 120.398 59.5186 120.257C59.7555 120.116 59.9173 119.926 60.0039 119.689H62.1162C62.0296 120.173 61.82 120.601 61.4873 120.975C61.1546 121.348 60.7354 121.64 60.2295 121.85C59.7282 122.059 59.1745 122.164 58.5684 122.164ZM57.1602 117.563H59.9766C59.9219 117.185 59.7715 116.889 59.5254 116.675C59.2793 116.461 58.9603 116.354 58.5684 116.354C58.1719 116.354 57.8506 116.461 57.6045 116.675C57.3584 116.889 57.2103 117.185 57.1602 117.563Z" fill="white"/>
<path d="M49.0801 118.076V122H46.7285V114.781H49.0527V115.95C49.2943 115.54 49.6019 115.216 49.9756 114.979C50.3493 114.743 50.8073 114.624 51.3496 114.624C52.1335 114.624 52.7419 114.875 53.1748 115.376C53.6123 115.877 53.8311 116.572 53.8311 117.461V122H51.4795V117.953C51.4795 117.525 51.377 117.199 51.1719 116.976C50.9668 116.748 50.6774 116.634 50.3037 116.634C49.9346 116.634 49.6383 116.752 49.415 116.989C49.1917 117.222 49.0801 117.584 49.0801 118.076Z" fill="white"/>
<path d="M41.0547 122V114.781H43.3311V116.053H43.3516C43.4837 115.592 43.6888 115.262 43.9668 115.062C44.2493 114.856 44.6322 114.754 45.1152 114.754C45.2428 114.754 45.3568 114.756 45.457 114.761C45.5618 114.761 45.6621 114.763 45.7578 114.768V116.709C45.6712 116.704 45.5368 116.7 45.3545 116.695C45.1722 116.691 44.9967 116.688 44.8281 116.688C44.4043 116.688 44.0602 116.83 43.7959 117.112C43.5361 117.395 43.4062 117.791 43.4062 118.302V122H41.0547Z" fill="white"/>
<path d="M36.4609 122.164C35.7227 122.164 35.0732 122.002 34.5127 121.679C33.9567 121.355 33.5215 120.911 33.207 120.346C32.8971 119.776 32.7422 119.124 32.7422 118.391C32.7422 117.657 32.8971 117.007 33.207 116.442C33.5215 115.873 33.9544 115.426 34.5059 115.103C35.0573 114.779 35.6885 114.617 36.3994 114.617C37.124 114.617 37.7598 114.777 38.3066 115.096C38.8581 115.41 39.2887 115.848 39.5986 116.408C39.9085 116.964 40.0635 117.607 40.0635 118.336V118.972H35.0391C35.0527 119.432 35.1895 119.797 35.4492 120.065C35.7135 120.334 36.0781 120.469 36.543 120.469C36.8893 120.469 37.1787 120.398 37.4111 120.257C37.6481 120.116 37.8099 119.926 37.8965 119.689H40.0088C39.9222 120.173 39.7126 120.601 39.3799 120.975C39.0472 121.348 38.6279 121.64 38.1221 121.85C37.6208 122.059 37.0671 122.164 36.4609 122.164ZM35.0527 117.563H37.8691C37.8145 117.185 37.6641 116.889 37.418 116.675C37.1719 116.461 36.8529 116.354 36.4609 116.354C36.0645 116.354 35.7432 116.461 35.4971 116.675C35.251 116.889 35.1029 117.185 35.0527 117.563Z" fill="white"/>
<path d="M28.9004 122.157C28.4264 122.157 28.0072 122.052 27.6426 121.843C27.2826 121.629 27.0091 121.31 26.8223 120.886H26.8086V122H24.4844V111.814H26.8359V115.752H26.8496C27.2962 115 27.9867 114.624 28.9209 114.624C29.5316 114.624 30.0693 114.784 30.5342 115.103C30.999 115.422 31.3613 115.864 31.6211 116.429C31.8854 116.994 32.0176 117.643 32.0176 118.377C32.0176 119.138 31.8877 119.803 31.6279 120.373C31.3727 120.938 31.0104 121.378 30.541 121.692C30.0762 122.002 29.5293 122.157 28.9004 122.157ZM28.2373 120.277C28.6702 120.277 29.012 120.109 29.2627 119.771C29.5133 119.434 29.6387 118.969 29.6387 118.377C29.6387 117.789 29.5133 117.329 29.2627 116.996C29.012 116.663 28.6702 116.497 28.2373 116.497C27.7952 116.497 27.4352 116.668 27.1572 117.01C26.8792 117.352 26.7402 117.807 26.7402 118.377C26.7402 118.956 26.8792 119.418 27.1572 119.765C27.4352 120.106 27.7952 120.277 28.2373 120.277Z" fill="white"/>
<path d="M18.5439 122.157C17.7601 122.157 17.1494 121.907 16.7119 121.405C16.279 120.904 16.0625 120.209 16.0625 119.32V114.781H18.4141V118.828C18.4141 119.257 18.5166 119.585 18.7217 119.812C18.9268 120.036 19.2161 120.147 19.5898 120.147C19.959 120.147 20.2552 120.031 20.4785 119.799C20.7018 119.562 20.8135 119.197 20.8135 118.705V114.781H23.165V122H20.8408V120.831C20.5993 121.241 20.2917 121.565 19.918 121.802C19.5443 122.039 19.0863 122.157 18.5439 122.157Z" fill="white"/>
<path d="M6.65625 122V111.814H9.11719V116.36C9.34961 116.069 9.58431 115.777 9.82129 115.485C10.0583 115.189 10.2952 114.895 10.5322 114.604L12.8086 111.814H15.7002L12.0156 116.203L15.8438 122H13.0273L10.4092 117.864L9.11719 119.409V122H6.65625Z" fill="white"/>
<path d="M101.457 105V97.7812H103.733V99.0527H103.754C103.886 98.5924 104.091 98.262 104.369 98.0615C104.652 97.8564 105.035 97.7539 105.518 97.7539C105.645 97.7539 105.759 97.7562 105.859 97.7607C105.964 97.7607 106.064 97.763 106.16 97.7676V99.709C106.074 99.7044 105.939 99.6999 105.757 99.6953C105.575 99.6908 105.399 99.6885 105.23 99.6885C104.807 99.6885 104.463 99.8298 104.198 100.112C103.938 100.395 103.809 100.791 103.809 101.302V105H101.457Z" fill="white"/>
<path d="M96.6445 105.164C95.888 105.164 95.2249 105.009 94.6553 104.699C94.0856 104.389 93.6413 103.952 93.3223 103.387C93.0033 102.822 92.8438 102.156 92.8438 101.391C92.8438 100.634 93.0033 99.9733 93.3223 99.4082C93.6413 98.8385 94.0856 98.3988 94.6553 98.0889C95.2249 97.7744 95.888 97.6172 96.6445 97.6172C97.3965 97.6172 98.0573 97.7744 98.627 98.0889C99.2012 98.3988 99.6455 98.8385 99.96 99.4082C100.279 99.9733 100.438 100.634 100.438 101.391C100.438 102.156 100.279 102.822 99.96 103.387C99.6455 103.947 99.2012 104.385 98.627 104.699C98.0573 105.009 97.3965 105.164 96.6445 105.164ZM96.6445 103.291C97.0547 103.291 97.3919 103.127 97.6562 102.799C97.9251 102.471 98.0596 102.001 98.0596 101.391C98.0596 100.78 97.9251 100.311 97.6562 99.9824C97.3919 99.6543 97.0547 99.4902 96.6445 99.4902C96.2344 99.4902 95.8949 99.6543 95.626 99.9824C95.3617 100.311 95.2295 100.78 95.2295 101.391C95.2295 102.001 95.3617 102.471 95.626 102.799C95.8903 103.127 96.2298 103.291 96.6445 103.291Z" fill="white"/>
<path d="M92.3447 97.7812V99.5996H90.8613V105H88.5029V99.5996H87.1904V97.7812H88.5029V96.9814C88.5029 96.2477 88.708 95.7031 89.1182 95.3477C89.5329 94.9922 90.1709 94.8145 91.0322 94.8145H92.3447V96.6328H91.627C91.349 96.6328 91.1507 96.6921 91.0322 96.8105C90.9183 96.9245 90.8613 97.1182 90.8613 97.3916V97.7812H92.3447Z" fill="white"/>
<path d="M79.917 107.953C78.805 107.953 77.9688 107.728 77.4082 107.276C76.8522 106.825 76.5195 106.253 76.4102 105.561H78.6592C78.723 105.784 78.8643 105.959 79.083 106.087C79.3018 106.219 79.5798 106.285 79.917 106.285C80.8102 106.285 81.2568 105.802 81.2568 104.836V103.722H81.25C81.0586 104.15 80.7829 104.462 80.4229 104.658C80.0628 104.854 79.6481 104.952 79.1787 104.952C78.5452 104.952 77.9938 104.797 77.5244 104.487C77.0596 104.173 76.6973 103.742 76.4375 103.195C76.1823 102.648 76.0547 102.022 76.0547 101.315C76.0547 100.6 76.1868 99.9642 76.4512 99.4082C76.7155 98.8522 77.0801 98.417 77.5449 98.1025C78.0098 97.7835 78.5475 97.624 79.1582 97.624C80.0924 97.624 80.7897 98.0137 81.25 98.793H81.2568V97.7812H83.5947V104.604C83.5947 105.779 83.262 106.632 82.5967 107.16C81.9359 107.689 81.0426 107.953 79.917 107.953ZM79.835 103.106C80.2816 103.106 80.6416 102.942 80.915 102.614C81.193 102.282 81.332 101.835 81.332 101.274C81.332 100.723 81.193 100.281 80.915 99.9482C80.6416 99.6156 80.2816 99.4492 79.835 99.4492C79.402 99.4492 79.0602 99.611 78.8096 99.9346C78.5635 100.258 78.4404 100.705 78.4404 101.274C78.4404 101.849 78.5635 102.298 78.8096 102.621C79.0602 102.945 79.402 103.106 79.835 103.106Z" fill="white"/>
<path d="M70.2852 101.076V105H67.9336V97.7812H70.2578V98.9502C70.4993 98.54 70.807 98.2165 71.1807 97.9795C71.5544 97.7425 72.0124 97.624 72.5547 97.624C73.3385 97.624 73.9469 97.8747 74.3799 98.376C74.8174 98.8773 75.0361 99.5723 75.0361 100.461V105H72.6846V100.953C72.6846 100.525 72.582 100.199 72.377 99.9756C72.1719 99.7477 71.8825 99.6338 71.5088 99.6338C71.1396 99.6338 70.8434 99.7523 70.6201 99.9893C70.3968 100.222 70.2852 100.584 70.2852 101.076Z" fill="white"/>
<path d="M64.2695 105V97.7812H66.6211V105H64.2695ZM65.4385 97.0771C65.0648 97.0771 64.7549 96.9655 64.5088 96.7422C64.2673 96.5189 64.1465 96.234 64.1465 95.8877C64.1465 95.5413 64.2673 95.2588 64.5088 95.04C64.7549 94.8167 65.0648 94.7051 65.4385 94.7051C65.8167 94.7051 66.1266 94.8167 66.3682 95.04C66.6143 95.2588 66.7373 95.5413 66.7373 95.8877C66.7373 96.234 66.6143 96.5189 66.3682 96.7422C66.1266 96.9655 65.8167 97.0771 65.4385 97.0771Z" fill="white"/>
<path d="M56.3125 105V94.8145H58.6641V100.345H58.6914L60.8857 97.7812H63.5996L60.9131 100.933L63.7158 105H61.002L59.1631 102.272L58.6641 102.854V105H56.3125Z" fill="white"/>
<path d="M50.7344 105V97.7812H53.0107V99.0527H53.0312C53.1634 98.5924 53.3685 98.262 53.6465 98.0615C53.929 97.8564 54.3118 97.7539 54.7949 97.7539C54.9225 97.7539 55.0365 97.7562 55.1367 97.7607C55.2415 97.7607 55.3418 97.763 55.4375 97.7676V99.709C55.3509 99.7044 55.2165 99.6999 55.0342 99.6953C54.8519 99.6908 54.6764 99.6885 54.5078 99.6885C54.084 99.6885 53.7399 99.8298 53.4756 100.112C53.2158 100.395 53.0859 100.791 53.0859 101.302V105H50.7344Z" fill="white"/>
<path d="M45.9219 105.164C45.1654 105.164 44.5023 105.009 43.9326 104.699C43.363 104.389 42.9186 103.952 42.5996 103.387C42.2806 102.822 42.1211 102.156 42.1211 101.391C42.1211 100.634 42.2806 99.9733 42.5996 99.4082C42.9186 98.8385 43.363 98.3988 43.9326 98.0889C44.5023 97.7744 45.1654 97.6172 45.9219 97.6172C46.6738 97.6172 47.3346 97.7744 47.9043 98.0889C48.4785 98.3988 48.9229 98.8385 49.2373 99.4082C49.5563 99.9733 49.7158 100.634 49.7158 101.391C49.7158 102.156 49.5563 102.822 49.2373 103.387C48.9229 103.947 48.4785 104.385 47.9043 104.699C47.3346 105.009 46.6738 105.164 45.9219 105.164ZM45.9219 103.291C46.332 103.291 46.6693 103.127 46.9336 102.799C47.2025 102.471 47.3369 102.001 47.3369 101.391C47.3369 100.78 47.2025 100.311 46.9336 99.9824C46.6693 99.6543 46.332 99.4902 45.9219 99.4902C45.5117 99.4902 45.1722 99.6543 44.9033 99.9824C44.639 100.311 44.5068 100.78 44.5068 101.391C44.5068 102.001 44.639 102.471 44.9033 102.799C45.1676 103.127 45.5072 103.291 45.9219 103.291Z" fill="white"/>
<path d="M32.3389 105L30.1172 97.7812H32.5918L33.1523 100.037C33.2526 100.456 33.3483 100.892 33.4395 101.343C33.5352 101.789 33.6309 102.236 33.7266 102.683C33.8314 102.236 33.9362 101.789 34.041 101.343C34.1504 100.892 34.2598 100.456 34.3691 100.037L34.9639 97.7812H37.0488L37.6436 100.037C37.7529 100.456 37.86 100.892 37.9648 101.343C38.0742 101.789 38.1813 102.236 38.2861 102.683C38.3773 102.236 38.4661 101.789 38.5527 101.343C38.6439 100.896 38.7396 100.461 38.8398 100.037L39.3799 97.7812H41.8955L39.6738 105H37.2471L36.4473 102.3C36.3698 102.031 36.2946 101.757 36.2217 101.479C36.1488 101.197 36.0781 100.914 36.0098 100.632C35.9368 100.914 35.8639 101.197 35.791 101.479C35.7181 101.757 35.6429 102.031 35.5654 102.3L34.7656 105H32.3389Z" fill="white"/>
<path d="M29.4541 97.7812V99.5996H27.9707V102.573C27.9707 102.806 28.0163 102.965 28.1074 103.052C28.1986 103.138 28.3763 103.182 28.6406 103.182H29.4541V105H28.1211C27.2552 105 26.6195 104.838 26.2139 104.515C25.8128 104.187 25.6123 103.672 25.6123 102.97V99.5996H24.3818V97.7812H25.6123V95.8125H27.9707V97.7812H29.4541Z" fill="white"/>
<path d="M20.3145 105.164C19.5762 105.164 18.9268 105.002 18.3662 104.679C17.8102 104.355 17.375 103.911 17.0605 103.346C16.7507 102.776 16.5957 102.124 16.5957 101.391C16.5957 100.657 16.7507 100.007 17.0605 99.4424C17.375 98.8727 17.8079 98.4261 18.3594 98.1025C18.9108 97.779 19.542 97.6172 20.2529 97.6172C20.9775 97.6172 21.6133 97.7767 22.1602 98.0957C22.7116 98.4102 23.1423 98.8477 23.4521 99.4082C23.762 99.9642 23.917 100.607 23.917 101.336V101.972H18.8926C18.9062 102.432 19.043 102.797 19.3027 103.065C19.5671 103.334 19.9316 103.469 20.3965 103.469C20.7428 103.469 21.0322 103.398 21.2646 103.257C21.5016 103.116 21.6634 102.926 21.75 102.689H23.8623C23.7757 103.173 23.5661 103.601 23.2334 103.975C22.9007 104.348 22.4814 104.64 21.9756 104.85C21.4743 105.059 20.9206 105.164 20.3145 105.164ZM18.9062 100.563H21.7227C21.668 100.185 21.5176 99.889 21.2715 99.6748C21.0254 99.4606 20.7064 99.3535 20.3145 99.3535C19.918 99.3535 19.5967 99.4606 19.3506 99.6748C19.1045 99.889 18.9564 100.185 18.9062 100.563Z" fill="white"/>
<path d="M6.65625 105V94.8145H9.19922L12.0908 99.4424C12.2139 99.6338 12.3734 99.9049 12.5693 100.256C12.7653 100.602 12.9613 100.958 13.1572 101.322C13.1481 100.921 13.139 100.529 13.1299 100.146C13.1253 99.7637 13.123 99.4583 13.123 99.2305V94.8145H15.584V105H13.0342L10.3818 100.762C10.2314 100.525 10.0423 100.208 9.81445 99.8115C9.58659 99.415 9.34049 98.9775 9.07617 98.499C9.0944 98.9958 9.10579 99.4424 9.11035 99.8389C9.11491 100.235 9.11719 100.541 9.11719 100.755V105H6.65625Z" fill="white"/>
<path fill-rule="evenodd" clip-rule="evenodd" d="M66.1182 17.0166L73.1699 45.2207L54.7285 68H25.4404L7 45.2207L13.5088 17.0166L40.085 4L66.1182 17.0166ZM21.6436 27.8643L40.085 38.7119V60.9492L58.2539 51.7285L58.5254 27.8643L40.085 17.5596L21.6436 27.8643Z" fill="white"/>
</svg>
