<svg width="128" height="128" viewBox="0 0 128 128" fill="none" xmlns="http://www.w3.org/2000/svg">
<path d="M86.0845 46.9239V46.1011H91.0254V46.9239H89.0296V52.388H88.0887V46.9239H86.0845Z" fill="white"/>
<path d="M80.2788 52.388V46.1011H81.3168L83.7176 49.9028C83.7908 50.0209 83.8906 50.1883 84.0172 50.4049C84.1438 50.6215 84.2704 50.8409 84.397 51.0631C84.3885 50.8352 84.3815 50.6046 84.3759 50.3711C84.373 50.1348 84.3716 49.959 84.3716 49.8437V46.1011H85.3126V52.388H84.2662L82.1185 48.9914C82.0313 48.8535 81.9047 48.6482 81.7387 48.3753C81.5756 48.0997 81.3899 47.7832 81.1818 47.426C81.1958 47.7945 81.2043 48.1123 81.2071 48.3796C81.2127 48.644 81.2155 48.8465 81.2155 48.9871V52.388H80.2788Z" fill="white"/>
<path d="M75.1899 52.388V46.1011H79.4178V46.9239H76.1267V48.7762H79.1731V49.5905H76.1267V51.5652H79.4178V52.388H75.1899Z" fill="white"/>
<path d="M70.498 52.388V46.1011H71.4348V51.5652H74.4094V52.388H70.498Z" fill="white"/>
<path d="M64.1689 52.388L66.4516 46.1011H67.5824L69.8483 52.388H68.8314L68.2744 50.7551H65.7386L65.1647 52.388H64.1689ZM66.0213 49.9576H68.0002L67.6204 48.8437C67.536 48.5849 67.446 48.3078 67.3504 48.0125C67.2547 47.7171 67.145 47.3655 67.0213 46.9576C66.8947 47.3655 66.7836 47.7171 66.6879 48.0125C66.5923 48.3078 66.5009 48.5849 66.4137 48.8437L66.0213 49.9576Z" fill="white"/>
<path d="M61.5317 52.388L59.249 46.1011H60.2575L61.5022 49.6454C61.5781 49.8732 61.6653 50.1419 61.7638 50.4513C61.8622 50.7607 61.9776 51.1222 62.1098 51.5357C62.2364 51.1222 62.3475 50.7607 62.4431 50.4513C62.5416 50.1419 62.6288 49.8732 62.7047 49.6454L63.9157 46.1011H64.9073L62.6583 52.388H61.5317Z" fill="white"/>
<path d="M56.2616 52.4894C55.7047 52.4894 55.2082 52.353 54.7722 52.0802C54.3362 51.8073 53.993 51.4276 53.7426 50.9409C53.4951 50.4543 53.3713 49.8903 53.3713 49.2489C53.3713 48.6048 53.4951 48.0394 53.7426 47.5527C53.993 47.0633 54.3362 46.6821 54.7722 46.4093C55.2082 46.1364 55.7047 46 56.2616 46C56.8214 46 57.3193 46.1364 57.7553 46.4093C58.1913 46.6821 58.5331 47.0633 58.7806 47.5527C59.031 48.0394 59.1561 48.6048 59.1561 49.2489C59.1561 49.8903 59.031 50.4543 58.7806 50.9409C58.5331 51.4276 58.1913 51.8073 57.7553 52.0802C57.3193 52.353 56.8214 52.4894 56.2616 52.4894ZM56.2616 51.6329C56.6245 51.6329 56.9536 51.5415 57.249 51.3586C57.5443 51.173 57.7792 50.9029 57.9536 50.5485C58.128 50.1913 58.2152 49.7581 58.2152 49.2489C58.2152 48.737 58.128 48.3024 57.9536 47.9451C57.7792 47.5879 57.5443 47.3179 57.249 47.135C56.9536 46.9494 56.6245 46.8565 56.2616 46.8565C55.9016 46.8565 55.5739 46.9494 55.2785 47.135C54.9832 47.3179 54.7483 47.5879 54.5739 47.9451C54.3995 48.3024 54.3123 48.737 54.3123 49.2489C54.3123 49.7581 54.3995 50.1913 54.5739 50.5485C54.7483 50.9029 54.9832 51.173 55.2785 51.3586C55.5739 51.5415 55.9016 51.6329 56.2616 51.6329Z" fill="white"/>
<path d="M50.3628 52.4894C49.609 52.4894 49.014 52.2996 48.578 51.9198C48.1448 51.5373 47.9282 51.0141 47.9282 50.3502H48.8649C48.8677 50.7637 49 51.0872 49.2616 51.3207C49.526 51.5541 49.8931 51.6709 50.3628 51.6709C50.7904 51.6709 51.1322 51.5809 51.3881 51.4008C51.6469 51.218 51.7763 50.9733 51.7763 50.6667C51.7763 50.4247 51.6835 50.2292 51.4978 50.0802C51.315 49.9283 51.0056 49.8003 50.5696 49.6962L49.8818 49.5316C49.2461 49.3797 48.7819 49.1688 48.4894 48.8987C48.1997 48.6259 48.0548 48.2714 48.0548 47.8354C48.0548 47.4669 48.1476 47.1449 48.3333 46.8692C48.5189 46.5935 48.7791 46.3797 49.1139 46.2278C49.4514 46.0759 49.8452 46 50.2953 46C50.9732 46 51.5119 46.1772 51.9113 46.5316C52.3136 46.8861 52.5246 47.3699 52.5443 47.9831H51.6371C51.6146 47.6203 51.4824 47.3361 51.2405 47.1308C50.9985 46.9226 50.6793 46.8186 50.2827 46.8186C49.9029 46.8186 49.5921 46.91 49.3502 47.0928C49.1083 47.2729 48.9873 47.5049 48.9873 47.789C48.9873 48.0169 49.0801 48.2025 49.2658 48.346C49.4514 48.4866 49.7594 48.609 50.1898 48.7131L50.8692 48.8734C51.4992 49.0225 51.9634 49.2377 52.2616 49.519C52.5625 49.8003 52.713 50.166 52.713 50.616C52.713 50.993 52.616 51.3221 52.4219 51.6034C52.2278 51.8847 51.9549 52.1027 51.6033 52.2574C51.2517 52.4121 50.8382 52.4894 50.3628 52.4894Z" fill="white"/>
<path d="M47.038 46.1016V52.3885H46.1013V46.1016H47.038Z" fill="white"/>
<path d="M98.6524 77C98.1733 77 97.7483 76.9278 97.3774 76.7834C97.0066 76.639 96.7096 76.4323 96.4864 76.1632C96.2665 75.8941 96.1418 75.5757 96.1123 75.2082H97.7811C97.8073 75.4018 97.8927 75.5544 98.0371 75.666C98.1815 75.7776 98.3784 75.8334 98.6278 75.8334C98.8608 75.8334 99.0429 75.7923 99.1742 75.7103C99.3055 75.6282 99.3711 75.5216 99.3711 75.3903C99.3711 75.1737 99.1611 75.0277 98.741 74.9522L97.8008 74.7848C97.2888 74.6929 96.8983 74.5174 96.6292 74.2581C96.3634 73.9989 96.2304 73.6641 96.2304 73.2539C96.2304 72.7419 96.4372 72.3334 96.8507 72.0282C97.2642 71.7197 97.8336 71.5654 98.5589 71.5654C99.2841 71.5654 99.8617 71.7262 100.292 72.0478C100.722 72.3695 100.945 72.8076 100.961 73.3622H99.4006C99.3973 73.1817 99.3219 73.0307 99.1742 72.9093C99.0298 72.7879 98.8444 72.7272 98.6179 72.7272C98.3981 72.7272 98.2258 72.7698 98.1011 72.8552C97.9796 72.9405 97.9189 73.0471 97.9189 73.1751C97.9189 73.3884 98.106 73.5312 98.4801 73.6034L99.5237 73.7954C100.059 73.8938 100.454 74.0579 100.71 74.2876C100.966 74.5174 101.094 74.8259 101.094 75.2131C101.094 75.5675 100.991 75.8793 100.784 76.1484C100.58 76.4175 100.295 76.6275 99.9274 76.7785C99.5631 76.9262 99.1381 77 98.6524 77Z" fill="white"/>
<path d="M93.0505 76.9903C92.5188 76.9903 92.0512 76.8738 91.6475 76.6407C91.2471 76.4077 90.9337 76.0878 90.7073 75.6808C90.4841 75.2706 90.3726 74.8013 90.3726 74.273C90.3726 73.7446 90.4841 73.2769 90.7073 72.87C90.9337 72.4598 91.2455 72.1382 91.6426 71.9052C92.0397 71.6722 92.4942 71.5557 93.0062 71.5557C93.528 71.5557 93.9858 71.6705 94.3796 71.9002C94.7767 72.1267 95.0868 72.4417 95.31 72.8454C95.5331 73.2458 95.6447 73.7085 95.6447 74.2336V74.6914H92.0266C92.0364 75.0228 92.1349 75.2854 92.3219 75.479C92.5123 75.6726 92.7748 75.7694 93.1095 75.7694C93.359 75.7694 93.5674 75.7186 93.7347 75.6168C93.9054 75.5151 94.0219 75.3789 94.0842 75.2083H95.6053C95.543 75.5561 95.392 75.8646 95.1524 76.1337C94.9129 76.4028 94.611 76.6129 94.2467 76.7638C93.8857 76.9148 93.487 76.9903 93.0505 76.9903ZM92.0364 73.6773H94.0645C94.0252 73.4049 93.9169 73.1916 93.7396 73.0374C93.5624 72.8831 93.3327 72.806 93.0505 72.806C92.765 72.806 92.5336 72.8831 92.3564 73.0374C92.1792 73.1916 92.0725 73.4049 92.0364 73.6773Z" fill="white"/>
<path d="M89.9641 71.6741V72.9835H88.8959V75.1248C88.8959 75.2922 88.9287 75.4071 88.9944 75.4694C89.06 75.5318 89.188 75.563 89.3783 75.563H89.9641V76.8724H89.0042C88.3807 76.8724 87.9229 76.7559 87.6308 76.5229C87.342 76.2866 87.1976 75.9157 87.1976 75.4103V72.9835H86.3115V71.6741H87.1976V70.2563H88.8959V71.6741H89.9641Z" fill="white"/>
<path d="M83.3825 76.9903C82.8509 76.9903 82.3832 76.8738 81.9796 76.6407C81.5792 76.4077 81.2658 76.0878 81.0393 75.6808C80.8162 75.2706 80.7046 74.8013 80.7046 74.273C80.7046 73.7446 80.8162 73.2769 81.0393 72.87C81.2658 72.4598 81.5775 72.1382 81.9746 71.9052C82.3717 71.6722 82.8262 71.5557 83.3382 71.5557C83.86 71.5557 84.3178 71.6705 84.7116 71.9002C85.1087 72.1267 85.4188 72.4417 85.642 72.8454C85.8652 73.2458 85.9767 73.7085 85.9767 74.2336V74.6914H82.3586C82.3684 75.0228 82.4669 75.2854 82.654 75.479C82.8443 75.6726 83.1068 75.7694 83.4416 75.7694C83.691 75.7694 83.8994 75.7186 84.0668 75.6168C84.2374 75.5151 84.3539 75.3789 84.4163 75.2083H85.9374C85.875 75.5561 85.724 75.8646 85.4845 76.1337C85.2449 76.4028 84.943 76.6129 84.5787 76.7638C84.2177 76.9148 83.819 76.9903 83.3825 76.9903ZM82.3684 73.6773H84.3966C84.3572 73.4049 84.2489 73.1916 84.0717 73.0374C83.8945 72.8831 83.6647 72.806 83.3825 72.806C83.097 72.806 82.8656 72.8831 82.6884 73.0374C82.5112 73.1916 82.4045 73.4049 82.3684 73.6773Z" fill="white"/>
<path d="M76.5498 74.0465V76.8721H74.8564V71.6738H76.5301V72.5155C76.7041 72.2202 76.9256 71.9872 77.1947 71.8165C77.4638 71.6459 77.7936 71.5605 78.1842 71.5605C78.7486 71.5605 79.1867 71.741 79.4985 72.102C79.8135 72.463 79.9711 72.9635 79.9711 73.6034V76.8721H78.2777V73.9579C78.2777 73.6494 78.2038 73.4147 78.0562 73.2539C77.9085 73.0898 77.7001 73.0078 77.431 73.0078C77.1652 73.0078 76.9519 73.0931 76.791 73.2638C76.6302 73.4311 76.5498 73.692 76.5498 74.0465Z" fill="white"/>
<path d="M70.7708 76.8723V71.674H72.41V72.5896H72.4248C72.5199 72.2581 72.6676 72.0202 72.8678 71.8758C73.0713 71.7281 73.3469 71.6543 73.6948 71.6543C73.7867 71.6543 73.8687 71.6559 73.9409 71.6592C74.0164 71.6592 74.0886 71.6609 74.1575 71.6641V73.0622C74.0952 73.0589 73.9984 73.0556 73.8671 73.0523C73.7358 73.049 73.6095 73.0474 73.4881 73.0474C73.1828 73.0474 72.9351 73.1491 72.7447 73.3526C72.5577 73.5561 72.4641 73.8416 72.4641 74.2091V76.8723H70.7708Z" fill="white"/>
<path d="M67.4628 76.9903C66.9312 76.9903 66.4635 76.8738 66.0599 76.6407C65.6595 76.4077 65.3461 76.0878 65.1197 75.6808C64.8965 75.2706 64.7849 74.8013 64.7849 74.273C64.7849 73.7446 64.8965 73.2769 65.1197 72.87C65.3461 72.4598 65.6579 72.1382 66.055 71.9052C66.452 71.6722 66.9066 71.5557 67.4185 71.5557C67.9403 71.5557 68.3981 71.6705 68.7919 71.9002C69.189 72.1267 69.4992 72.4417 69.7223 72.8454C69.9455 73.2458 70.0571 73.7085 70.0571 74.2336V74.6914H66.4389C66.4488 75.0228 66.5472 75.2854 66.7343 75.479C66.9246 75.6726 67.1872 75.7694 67.5219 75.7694C67.7713 75.7694 67.9797 75.7186 68.1471 75.6168C68.3177 75.5151 68.4342 75.3789 68.4966 75.2083H70.0177C69.9553 75.5561 69.8044 75.8646 69.5648 76.1337C69.3252 76.4028 69.0233 76.6129 68.659 76.7638C68.298 76.9148 67.8993 76.9903 67.4628 76.9903ZM66.4488 73.6773H68.4769C68.4375 73.4049 68.3292 73.1916 68.152 73.0374C67.9748 72.8831 67.7451 72.806 67.4628 72.806C67.1773 72.806 66.946 72.8831 66.7687 73.0374C66.5915 73.1916 66.4849 73.4049 66.4488 73.6773Z" fill="white"/>
<path d="M62.0182 76.9855C61.6769 76.9855 61.3749 76.9101 61.1124 76.7591C60.8531 76.6049 60.6562 76.3751 60.5217 76.0699H60.5118V76.8723H58.8381V69.5376H60.5315V72.373H60.5414C60.863 71.8315 61.3602 71.5608 62.0329 71.5608C62.4727 71.5608 62.8599 71.6757 63.1947 71.9054C63.5294 72.1351 63.7903 72.4534 63.9774 72.8604C64.1677 73.2673 64.2629 73.735 64.2629 74.2633C64.2629 74.8114 64.1694 75.2905 63.9823 75.7007C63.7985 76.1077 63.5376 76.4244 63.1996 76.6508C62.8649 76.874 62.471 76.9855 62.0182 76.9855ZM61.5407 75.6318C61.8524 75.6318 62.0986 75.5104 62.2791 75.2675C62.4596 75.0247 62.5498 74.69 62.5498 74.2633C62.5498 73.84 62.4596 73.5085 62.2791 73.269C62.0986 73.0294 61.8524 72.9096 61.5407 72.9096C61.2223 72.9096 60.9631 73.0327 60.7629 73.2788C60.5627 73.5249 60.4626 73.8531 60.4626 74.2633C60.4626 74.6801 60.5627 75.0132 60.7629 75.2626C60.9631 75.5088 61.2223 75.6318 61.5407 75.6318Z" fill="white"/>
<path d="M54.5606 76.9854C53.9961 76.9854 53.5564 76.8049 53.2413 76.4439C52.9296 76.0829 52.7737 75.5824 52.7737 74.9425V71.6738H54.4671V74.588C54.4671 74.8965 54.5409 75.1328 54.6886 75.2969C54.8363 75.4577 55.0447 75.5381 55.3138 75.5381C55.5796 75.5381 55.7929 75.4544 55.9537 75.287C56.1145 75.1164 56.1949 74.8539 56.1949 74.4994V71.6738H57.8883V76.8721H56.2146V76.0304C56.0407 76.3257 55.8192 76.5587 55.5501 76.7294C55.2809 76.9 54.9511 76.9854 54.5606 76.9854Z" fill="white"/>
<path d="M46 76.8723V69.5376H47.7722V72.8112C47.9395 72.6011 48.1085 72.3911 48.2792 72.1811C48.4498 71.9677 48.6205 71.7561 48.7911 71.546L50.4304 69.5376H52.5127L49.8594 72.6979L52.616 76.8723H50.5879L48.7025 73.8941L47.7722 75.0066V76.8723H46Z" fill="white"/>
<path d="M114.267 64.6301V59.4318H115.907V60.3474H115.921C116.017 60.016 116.164 59.778 116.364 59.6336C116.568 59.4859 116.844 59.4121 117.191 59.4121C117.283 59.4121 117.365 59.4138 117.438 59.417C117.513 59.417 117.585 59.4187 117.654 59.422V60.82C117.592 60.8167 117.495 60.8134 117.364 60.8101C117.232 60.8069 117.106 60.8052 116.985 60.8052C116.679 60.8052 116.432 60.9069 116.241 61.1104C116.054 61.3139 115.961 61.5994 115.961 61.967V64.6301H114.267Z" fill="white"/>
<path d="M110.802 64.7486C110.257 64.7486 109.779 64.637 109.369 64.4138C108.959 64.1907 108.639 63.8756 108.409 63.4687C108.18 63.0617 108.065 62.5826 108.065 62.0313C108.065 61.4865 108.18 61.0106 108.409 60.6037C108.639 60.1935 108.959 59.8768 109.369 59.6536C109.779 59.4272 110.257 59.314 110.802 59.314C111.343 59.314 111.819 59.4272 112.229 59.6536C112.643 59.8768 112.963 60.1935 113.189 60.6037C113.419 61.0106 113.534 61.4865 113.534 62.0313C113.534 62.5826 113.419 63.0617 113.189 63.4687C112.963 63.8723 112.643 64.1874 112.229 64.4138C111.819 64.637 111.343 64.7486 110.802 64.7486ZM110.802 63.3998C111.097 63.3998 111.34 63.2816 111.53 63.0453C111.724 62.809 111.821 62.471 111.821 62.0313C111.821 61.5915 111.724 61.2535 111.53 61.0172C111.34 60.7809 111.097 60.6628 110.802 60.6628C110.506 60.6628 110.262 60.7809 110.068 61.0172C109.878 61.2535 109.783 61.5915 109.783 62.0313C109.783 62.471 109.878 62.809 110.068 63.0453C110.259 63.2816 110.503 63.3998 110.802 63.3998Z" fill="white"/>
<path d="M107.705 59.4318V60.7413H106.637V64.6301H104.939V60.7413H103.994V59.4318H104.939V58.8559C104.939 58.3275 105.086 57.9354 105.382 57.6794C105.68 57.4234 106.14 57.2954 106.76 57.2954H107.705V58.6048H107.188C106.988 58.6048 106.846 58.6475 106.76 58.7328C106.678 58.8149 106.637 58.9543 106.637 59.1512V59.4318H107.705Z" fill="white"/>
<path d="M98.7559 66.757C97.9552 66.757 97.3529 66.5945 96.9493 66.2696C96.5489 65.9447 96.3093 65.5329 96.2306 65.034H97.8501C97.8961 65.1948 97.9978 65.3212 98.1553 65.4131C98.3129 65.5082 98.5131 65.5558 98.7559 65.5558C99.3991 65.5558 99.7207 65.208 99.7207 64.5122V63.7098H99.7158C99.578 64.0183 99.3794 64.2431 99.1202 64.3842C98.8609 64.5254 98.5623 64.5959 98.2243 64.5959C97.7681 64.5959 97.371 64.4843 97.033 64.2612C96.6982 64.0347 96.4373 63.7246 96.2503 63.3308C96.0665 62.937 95.9746 62.4857 95.9746 61.9771C95.9746 61.4618 96.0698 61.004 96.2601 60.6037C96.4505 60.2033 96.713 59.8899 97.0477 59.6634C97.3825 59.4337 97.7697 59.3188 98.2095 59.3188C98.8823 59.3188 99.3844 59.5994 99.7158 60.1606H99.7207V59.4321H101.404V64.3449C101.404 65.1916 101.165 65.8052 100.686 66.1859C100.21 66.5666 99.5665 66.757 98.7559 66.757ZM98.6968 63.2668C99.0184 63.2668 99.2777 63.1487 99.4746 62.9124C99.6748 62.6728 99.7749 62.3512 99.7749 61.9475C99.7749 61.5504 99.6748 61.2321 99.4746 60.9925C99.2777 60.753 99.0184 60.6332 98.6968 60.6332C98.3851 60.6332 98.1389 60.7497 97.9584 60.9827C97.7812 61.2157 97.6926 61.5373 97.6926 61.9475C97.6926 62.361 97.7812 62.6843 97.9584 62.9173C98.1389 63.1503 98.3851 63.2668 98.6968 63.2668Z" fill="white"/>
<path d="M91.8199 61.8048V64.6304H90.1265V59.4321H91.8002V60.2738C91.9741 59.9785 92.1956 59.7455 92.4647 59.5748C92.7338 59.4042 93.0636 59.3188 93.4542 59.3188C94.0186 59.3188 94.4568 59.4993 94.7685 59.8603C95.0836 60.2213 95.2411 60.7218 95.2411 61.3617V64.6304H93.5477V61.7162C93.5477 61.4077 93.4739 61.173 93.3262 61.0122C93.1785 60.8481 92.9701 60.7661 92.701 60.7661C92.4352 60.7661 92.2219 60.8514 92.0611 61.0221C91.9003 61.1894 91.8199 61.4503 91.8199 61.8048Z" fill="white"/>
<path d="M87.488 64.6303V59.432H89.1814V64.6303H87.488ZM88.3298 58.925C88.0607 58.925 87.8375 58.8445 87.6603 58.6837C87.4864 58.5229 87.3994 58.3178 87.3994 58.0684C87.3994 57.819 87.4864 57.6155 87.6603 57.458C87.8375 57.2972 88.0607 57.2168 88.3298 57.2168C88.6022 57.2168 88.8253 57.2972 88.9993 57.458C89.1765 57.6155 89.2651 57.819 89.2651 58.0684C89.2651 58.3178 89.1765 58.5229 88.9993 58.6837C88.8253 58.8445 88.6022 58.925 88.3298 58.925Z" fill="white"/>
<path d="M81.7583 64.6301V57.2954H83.4517V61.2778H83.4714L85.0515 59.4318H87.0058L85.0712 61.7012L87.0895 64.6301H85.1352L83.811 62.666L83.4517 63.0844V64.6301H81.7583Z" fill="white"/>
<path d="M77.7412 64.6301V59.4318H79.3805V60.3474H79.3952C79.4904 60.016 79.6381 59.778 79.8383 59.6336C80.0417 59.4859 80.3174 59.4121 80.6653 59.4121C80.7572 59.4121 80.8392 59.4138 80.9114 59.417C80.9869 59.417 81.0591 59.4187 81.128 59.422V60.82C81.0656 60.8167 80.9688 60.8134 80.8376 60.8101C80.7063 60.8069 80.5799 60.8052 80.4585 60.8052C80.1533 60.8052 79.9055 60.9069 79.7152 61.1104C79.5281 61.3139 79.4346 61.5994 79.4346 61.967V64.6301H77.7412Z" fill="white"/>
<path d="M74.2756 64.7486C73.7308 64.7486 73.2533 64.637 72.8431 64.4138C72.4329 64.1907 72.1129 63.8756 71.8832 63.4687C71.6534 63.0617 71.5386 62.5826 71.5386 62.0313C71.5386 61.4865 71.6534 61.0106 71.8832 60.6037C72.1129 60.1935 72.4329 59.8768 72.8431 59.6536C73.2533 59.4272 73.7308 59.314 74.2756 59.314C74.8171 59.314 75.2929 59.4272 75.7031 59.6536C76.1166 59.8768 76.4366 60.1935 76.663 60.6037C76.8928 61.0106 77.0076 61.4865 77.0076 62.0313C77.0076 62.5826 76.8928 63.0617 76.663 63.4687C76.4366 63.8723 76.1166 64.1874 75.7031 64.4138C75.2929 64.637 74.8171 64.7486 74.2756 64.7486ZM74.2756 63.3998C74.5709 63.3998 74.8138 63.2816 75.0041 63.0453C75.1977 62.809 75.2946 62.471 75.2946 62.0313C75.2946 61.5915 75.1977 61.2535 75.0041 61.0172C74.8138 60.7809 74.5709 60.6628 74.2756 60.6628C73.9802 60.6628 73.7357 60.7809 73.5421 61.0172C73.3517 61.2535 73.2566 61.5915 73.2566 62.0313C73.2566 62.471 73.3517 62.809 73.5421 63.0453C73.7324 63.2816 73.9769 63.3998 74.2756 63.3998Z" fill="white"/>
<path d="M64.4944 64.6304L62.8945 59.4321H64.6765L65.0802 61.0566C65.1524 61.3585 65.2213 61.6719 65.2869 61.9968C65.3559 62.3184 65.4248 62.64 65.4937 62.9617C65.5692 62.64 65.6446 62.3184 65.7201 61.9968C65.7989 61.6719 65.8777 61.3585 65.9564 61.0566L66.3847 59.4321H67.8861L68.3144 61.0566C68.3931 61.3585 68.4702 61.6719 68.5457 61.9968C68.6245 62.3184 68.7016 62.64 68.7771 62.9617C68.8427 62.64 68.9067 62.3184 68.9691 61.9968C69.0347 61.6752 69.1036 61.3618 69.1758 61.0566L69.5647 59.4321H71.3762L69.7764 64.6304H68.0288L67.4529 62.686C67.3971 62.4924 67.343 62.2955 67.2905 62.0953C67.2379 61.8918 67.1871 61.6883 67.1379 61.4849C67.0853 61.6883 67.0328 61.8918 66.9803 62.0953C66.9278 62.2955 66.8737 62.4924 66.8179 62.686L66.2419 64.6304H64.4944Z" fill="white"/>
<path d="M62.417 59.4319V60.7413H61.3488V62.8826C61.3488 63.05 61.3816 63.1649 61.4472 63.2272C61.5129 63.2896 61.6409 63.3208 61.8312 63.3208H62.417V64.6302H61.4571C60.8336 64.6302 60.3757 64.5137 60.0837 64.2807C59.7949 64.0444 59.6505 63.6736 59.6505 63.1682V60.7413H58.7644V59.4319H59.6505V58.0142H61.3488V59.4319H62.417Z" fill="white"/>
<path d="M55.8356 64.7486C55.304 64.7486 54.8363 64.6321 54.4327 64.399C54.0323 64.166 53.7189 63.8461 53.4925 63.4391C53.2693 63.0289 53.1577 62.5596 53.1577 62.0313C53.1577 61.5029 53.2693 61.0352 53.4925 60.6283C53.7189 60.2181 54.0307 59.8965 54.4278 59.6635C54.8249 59.4305 55.2794 59.314 55.7913 59.314C56.3131 59.314 56.7709 59.4288 57.1647 59.6585C57.5618 59.885 57.872 60.2 58.0951 60.6037C58.3183 61.0041 58.4299 61.4668 58.4299 61.9919V62.4497H54.8117C54.8216 62.7811 54.92 63.0437 55.1071 63.2373C55.2974 63.4309 55.56 63.5277 55.8947 63.5277C56.1441 63.5277 56.3525 63.4769 56.5199 63.3751C56.6905 63.2734 56.807 63.1372 56.8694 62.9666H58.3905C58.3281 63.3144 58.1772 63.6229 57.9376 63.892C57.698 64.1611 57.3961 64.3712 57.0318 64.5221C56.6708 64.6731 56.2721 64.7486 55.8356 64.7486ZM54.8216 61.4356H56.8497C56.8103 61.1632 56.702 60.9499 56.5248 60.7957C56.3476 60.6414 56.1179 60.5643 55.8356 60.5643C55.5501 60.5643 55.3188 60.6414 55.1415 60.7957C54.9643 60.9499 54.8577 61.1632 54.8216 61.4356Z" fill="white"/>
<path d="M46 64.6301V57.2954H47.8312L49.9135 60.628C50.0021 60.7659 50.117 60.9611 50.2581 61.2138C50.3992 61.4632 50.5403 61.7192 50.6814 61.9818C50.6749 61.693 50.6683 61.4107 50.6617 61.1351C50.6585 60.8594 50.6568 60.6395 50.6568 60.4754V57.2954H52.429V64.6301H50.5928L48.6828 61.5781C48.5745 61.4075 48.4384 61.1794 48.2743 60.8939C48.1102 60.6083 47.933 60.2933 47.7426 59.9487C47.7557 60.3064 47.7639 60.628 47.7672 60.9135C47.7705 61.1991 47.7722 61.4189 47.7722 61.5732V64.6301H46Z" fill="white"/>
<path d="M21.5424 45L34.5593 51.5085L38.0847 65.6102L28.8644 77H14.2203L5 65.6102L8.25424 51.5085L21.5424 45Z" fill="#1F4DBE"/>
<path d="M21.5424 62.3561L12.322 56.9323L21.5424 51.7798L30.7627 56.9323L21.5424 62.3561Z" fill="white"/>
<path d="M30.7628 56.9321L30.6272 68.8643L21.5425 73.4745V62.3559L30.7628 56.9321Z" fill="url(#paint0_linear_13_1122)"/>
<path d="M5 65.6104L14.2203 77.0002H28.8644L5 65.6104Z" fill="#006BFF"/>
<path d="M34.5592 51.5083L38.0846 65.61L28.8643 76.9998L34.5592 51.5083Z" fill="#006BFF"/>
<defs>
<linearGradient id="paint0_linear_13_1122" x1="21.5425" y1="67.3789" x2="31.2203" y2="67.3035" gradientUnits="userSpaceOnUse">
<stop stop-color="#049FFC"/>
<stop offset="1" stop-color="#19C9FF"/>
</linearGradient>
</defs>
</svg>
