<svg width="128" height="128" viewBox="0 0 128 128" fill="none" xmlns="http://www.w3.org/2000/svg">
<path d="M63.4474 5H63.7214C65.1254 5.66872 66.4929 6.41156 67.8181 7.22537C83.0726 15.9976 98.327 24.7726 113.581 33.5505C114.172 33.8655 114.654 34.3505 114.965 34.9428C115.276 35.535 115.402 36.207 115.326 36.8717C115.293 55.3701 115.326 73.8642 115.305 92.3542C115.107 93.2366 114.567 94.0047 113.805 94.491C97.5838 103.831 81.3614 113.165 65.1376 122.494C64.7444 122.793 64.2705 122.968 63.7769 122.996C63.2834 123.024 62.7928 122.903 62.3685 122.65C46.1278 113.338 29.9025 104.009 13.6927 94.6638C13.1659 94.4148 12.7247 94.0152 12.4246 93.5157C12.1246 93.0161 11.9792 92.4389 12.0068 91.8568C12.0068 73.3627 12.0068 54.8699 12.0068 36.3786C11.9671 35.799 12.1011 35.2208 12.3916 34.7178C12.6821 34.2148 13.1161 33.8098 13.6379 33.5547C28.8727 24.7937 44.1075 16.0271 59.3423 7.25487C60.6995 6.47937 62.0313 5.6575 63.4474 5Z" fill="#019639"/>
<path d="M33.181 40.9845C33.181 56.239 33.181 71.4948 33.181 86.7521C33.1616 87.597 33.3107 88.4373 33.6197 89.2239C33.9287 90.0106 34.3914 90.7277 34.9807 91.3335C36.1103 92.4494 37.5884 93.1443 39.1684 93.3023C40.7484 93.4603 42.3348 93.0718 43.663 92.2017C44.5521 91.5976 45.28 90.7852 45.7832 89.8354C46.2864 88.8855 46.5497 87.827 46.5501 86.7521C46.5501 75.7095 46.529 64.667 46.5501 53.6244C56.6176 65.6785 66.7062 77.7157 76.8159 89.7361C78.2205 91.159 79.9599 92.2064 81.8745 92.7823C83.7891 93.3582 85.8177 93.444 87.7742 93.032C89.1557 92.7598 90.4134 92.0517 91.3625 91.0115C92.3116 89.9714 92.9019 88.6542 93.0468 87.2536C93.0693 71.6845 93.0693 56.1167 93.0468 40.5504C92.9016 38.8888 92.139 37.3419 90.9094 36.215C89.6797 35.088 88.0723 34.4629 86.4044 34.4629C84.7365 34.4629 83.1291 35.088 81.8994 36.215C80.6698 37.3419 79.9071 38.8888 79.762 40.5504C79.762 51.77 79.6946 62.9769 79.762 74.1922C69.8743 62.5343 60.1088 50.7753 50.259 39.0753C48.9605 37.4101 47.2413 36.1215 45.2788 35.3421C43.3163 34.5627 41.1814 34.3208 39.0943 34.6414C37.5132 34.8174 36.0474 35.5539 34.9627 36.7176C33.8779 37.8812 33.2458 39.395 33.181 40.9845Z" fill="white"/>
</svg>
