<svg width="128" height="128" viewBox="0 0 128 128" fill="none" xmlns="http://www.w3.org/2000/svg">
<path fill-rule="evenodd" clip-rule="evenodd" d="M3.67614 51.2243C4.69073 50.8041 5.85859 51.0364 6.63513 51.8129L22.4994 67.6773V53.7329C22.4994 52.2333 23.7151 51.0177 25.2146 51.0177C26.7142 51.0177 27.9298 52.2333 27.9298 53.7329V74.2325C27.9298 75.3307 27.2683 76.3207 26.2537 76.741C25.2391 77.1613 24.0712 76.929 23.2947 76.1524L7.43039 60.288V74.2325C7.43039 75.732 6.21476 76.9477 4.7152 76.9477C3.21563 76.9477 2 75.732 2 74.2325V53.7329C2 52.6347 2.66154 51.6446 3.67614 51.2243Z" fill="#009900"/>
<path d="M37.6694 51.0657L36.9273 52.4424L31.2163 62.832L30.4742 64.1441L31.2163 65.4563L36.9273 75.5017L37.7017 76.8784H52.6514L53.3935 75.3726L57.6956 66.7684L59.5778 62.832H55.2757H44.3484C43.6373 62.848 42.9593 63.1355 42.4533 63.6354C41.9474 64.1354 41.6519 64.8099 41.6273 65.5208C41.6519 66.2316 41.9474 66.9062 42.4533 67.4061C42.9593 67.9061 43.6373 68.1936 44.3484 68.2096H50.9413L49.3281 71.4362H40.8207L36.6262 64.0473L40.853 56.3788H49.8658L52.0169 60.6809H57.3945L53.9743 52.5069L53.2322 51.0657H37.6694Z" fill="#009900"/>
<path d="M64.901 51C64.1951 51.0407 63.5308 51.3474 63.0418 51.8583C62.5529 52.3692 62.2757 53.0463 62.266 53.7534V60.7658H67.6436V53.7534C67.6326 53.0284 67.3404 52.3361 66.8287 51.8224C66.3171 51.3087 65.6259 51.0139 64.901 51V51Z" fill="#009900"/>
<path fill-rule="evenodd" clip-rule="evenodd" d="M95.0658 51.2766C96.0804 51.6969 96.7419 52.6869 96.7419 53.7851V74.2847C96.7419 75.7843 95.5263 76.9999 94.0268 76.9999C92.5272 76.9999 91.3116 75.7843 91.3116 74.2847V60.3402L75.4473 76.2047C74.6707 76.9812 73.5029 77.2135 72.4883 76.7932C71.4737 76.373 70.8121 75.3829 70.8121 74.2847V53.7851C70.8121 52.2855 72.0278 51.0699 73.5273 51.0699C75.0269 51.0699 76.2425 52.2855 76.2425 53.7851V67.7296L92.1068 51.8652C92.8834 51.0886 94.0512 50.8563 95.0658 51.2766Z" fill="#009900"/>
<path fill-rule="evenodd" clip-rule="evenodd" d="M100.62 51.8599C101.678 50.797 103.397 50.7929 104.46 51.8508L124.992 72.2858C126.054 73.3437 126.059 75.0629 125.001 76.1257C123.943 77.1886 122.224 77.1927 121.161 76.1348L100.629 55.6998C99.5663 54.6419 99.5622 52.9227 100.62 51.8599Z" fill="#009900"/>
<path fill-rule="evenodd" clip-rule="evenodd" d="M125.022 51.8594C126.08 52.9219 126.077 54.6411 125.014 55.6993L104.493 76.1343C103.431 77.1924 101.711 77.1888 100.653 76.1262C99.5952 75.0637 99.5988 73.3445 100.661 72.2864L121.182 51.8513C122.245 50.7932 123.964 50.7968 125.022 51.8594Z" fill="#009900"/>
<path d="M64.901 76.8994C64.2005 76.8591 63.5407 76.557 63.0526 76.0529C62.5645 75.5489 62.2837 74.8797 62.266 74.1783V62.9175H67.6436V74.1783C67.627 74.8984 67.332 75.5842 66.8207 76.0915C66.3093 76.5989 65.6213 76.8884 64.901 76.8994Z" fill="#009900"/>
</svg>
