<svg width="128" height="128" viewBox="0 0 128 128" fill="none" xmlns="http://www.w3.org/2000/svg">
<path d="M63.3337 102C62.9207 102 62.5151 101.891 62.1576 101.684L58.417 99.4712C57.8573 99.1577 58.1308 99.0504 58.316 98.9831C58.9062 98.7958 59.4714 98.5372 59.9991 98.2131C60.043 98.1917 60.0917 98.1822 60.1404 98.1856C60.1892 98.1889 60.2362 98.2049 60.2768 98.232L63.1506 99.9382C63.2045 99.9653 63.2639 99.9793 63.3242 99.9793C63.3845 99.9793 63.4439 99.9653 63.4978 99.9382L74.705 93.4689C74.7571 93.4374 74.8002 93.3929 74.83 93.3398C74.8599 93.2867 74.8755 93.2268 74.8754 93.1659V80.2336C74.8756 80.1718 74.8598 80.1111 74.8296 80.0573C74.7994 80.0034 74.7557 79.9584 74.7029 79.9264L63.4999 73.4634C63.4476 73.4324 63.3881 73.4161 63.3274 73.4161C63.2667 73.4161 63.2071 73.4324 63.1548 73.4634L51.956 79.9264C51.9021 79.9571 51.8571 80.0014 51.8257 80.055C51.7943 80.1085 51.7776 80.1694 51.7772 80.2315V93.1638C51.7772 93.2246 51.7934 93.2843 51.8241 93.3368C51.8548 93.3893 51.8988 93.4327 51.9518 93.4626L55.0213 95.2361C56.6876 96.0777 57.7059 95.0868 57.7059 94.1V81.336C57.7056 81.2934 57.7138 81.2513 57.73 81.212C57.7462 81.1727 57.7701 81.137 57.8003 81.107C57.8304 81.077 57.8663 81.0534 57.9057 81.0374C57.9451 81.0215 57.9873 81.0135 58.0299 81.0141H59.45C59.4923 81.0138 59.5343 81.0219 59.5735 81.038C59.6127 81.0541 59.6483 81.0778 59.6782 81.1077C59.7081 81.1377 59.7318 81.1733 59.7479 81.2125C59.764 81.2516 59.7721 81.2936 59.7719 81.336V94.1064C59.7719 96.328 58.56 97.603 56.4541 97.603C55.8061 97.603 55.2948 97.603 53.8705 96.9024L50.9251 95.2088C50.5676 95.0004 50.2708 94.7019 50.0645 94.3431C49.8581 93.9843 49.7494 93.5777 49.7491 93.1638V80.2315C49.7485 79.8177 49.8569 79.411 50.0633 79.0524C50.2698 78.6938 50.567 78.3959 50.9251 78.1886L62.1429 71.7172C62.5044 71.5205 62.9095 71.4175 63.3211 71.4175C63.7326 71.4175 64.1377 71.5205 64.4992 71.7172L75.7022 78.1928C76.0598 78.4002 76.3566 78.6979 76.563 79.056C76.7694 79.4142 76.8781 79.8202 76.8783 80.2336V93.1659C76.8774 93.5794 76.7684 93.9855 76.5621 94.3439C76.3558 94.7022 76.0594 95.0004 75.7022 95.2088L64.4992 101.68C64.1393 101.886 63.7316 101.994 63.3168 101.994" fill="#689F63"/>
<path d="M66.7948 93.0859C61.8928 93.0859 60.864 90.8347 60.864 88.9476C60.864 88.9051 60.8724 88.8631 60.8887 88.8239C60.905 88.7847 60.9289 88.7492 60.959 88.7192C60.9891 88.6893 61.0249 88.6656 61.0642 88.6496C61.1035 88.6335 61.1456 88.6254 61.188 88.6257H62.6355C62.7126 88.6258 62.7872 88.6533 62.8458 88.7035C62.9044 88.7536 62.9432 88.823 62.9552 88.8992C63.1656 90.3719 63.8262 91.1188 66.7906 91.1188C69.1532 91.1188 70.1567 90.5844 70.1567 89.3326C70.1567 88.611 69.8706 88.0703 66.2015 87.7168C63.132 87.4139 61.2364 86.7385 61.2364 84.2834C61.2364 82.0217 63.1446 80.6752 66.3382 80.6752C69.9274 80.6752 71.7052 81.9207 71.9303 84.5968C71.9338 84.6418 71.9279 84.6871 71.9131 84.7297C71.8983 84.7723 71.8749 84.8115 71.8443 84.8446C71.8137 84.8778 71.7766 84.9043 71.7352 84.9225C71.6939 84.9407 71.6493 84.9501 71.6042 84.9503H70.1483C70.075 84.9509 70.0036 84.926 69.9465 84.88C69.8894 84.834 69.8499 84.7696 69.8348 84.6978C69.4835 83.1473 68.6357 82.6508 66.334 82.6508C63.7547 82.6508 63.456 83.5491 63.456 84.2223C63.456 85.0386 63.8094 85.2743 67.2871 85.7371C70.7311 86.1937 72.3679 86.8395 72.3679 89.259C72.3679 91.6784 70.3314 93.1006 66.7801 93.1006L66.7948 93.0859ZM80.4278 79.3877H80.8022C80.8498 79.3936 80.8982 79.389 80.9438 79.3742C80.9894 79.3594 81.0313 79.3348 81.0664 79.3021C81.1015 79.2695 81.129 79.2295 81.1469 79.185C81.1649 79.1405 81.1729 79.0927 81.1704 79.0448C81.1704 78.7145 80.9432 78.7145 80.817 78.7145H80.4278V79.3877ZM79.9691 78.3358H80.8107C81.0968 78.3358 81.6522 78.3358 81.6522 78.9669C81.6638 79.1052 81.6235 79.2428 81.5391 79.3529C81.4546 79.463 81.3322 79.5377 81.1957 79.5623C81.5281 79.5833 81.5512 79.8021 81.5954 80.1114C81.6088 80.3265 81.6512 80.5388 81.7216 80.7426H81.2083C81.1957 80.6311 81.1157 80.0125 81.1157 79.9789C81.0821 79.8421 81.0358 79.7685 80.8633 79.7685H80.4425V80.7384H79.9733L79.9691 78.3358ZM78.9677 79.5413C78.9664 79.9001 79.0718 80.2512 79.2703 80.55C79.4689 80.8489 79.7517 81.082 80.083 81.2199C80.4142 81.3578 80.779 81.3942 81.1309 81.3245C81.4829 81.2548 81.8062 81.0821 82.06 80.8284C82.3137 80.5747 82.4863 80.2514 82.556 79.8994C82.6257 79.5474 82.5893 79.1827 82.4514 78.8515C82.3135 78.5202 82.0804 78.2374 81.7815 78.0388C81.4827 77.8403 81.1316 77.7349 80.7728 77.7362C80.2947 77.7384 79.8369 77.9293 79.4988 78.2673C79.1608 78.6054 78.9699 79.0632 78.9677 79.5413ZM82.9398 79.5413C82.9398 79.9686 82.813 80.3863 82.5756 80.7417C82.3382 81.097 82.0008 81.3739 81.6059 81.5375C81.2111 81.701 80.7767 81.7438 80.3576 81.6604C79.9384 81.577 79.5535 81.3713 79.2513 81.0691C78.9491 80.7669 78.7433 80.3819 78.66 79.9628C78.5766 79.5437 78.6194 79.1092 78.7829 78.7144C78.9464 78.3196 79.2234 77.9822 79.5787 77.7448C79.934 77.5073 80.3518 77.3806 80.7791 77.3806C81.3516 77.3823 81.9002 77.6105 82.3051 78.0153C82.7099 78.4201 82.9381 78.9687 82.9398 79.5413Z" fill="#689F63"/>
<path fill-rule="evenodd" clip-rule="evenodd" d="M28.6306 51.4001C28.6315 51.1474 28.5656 50.8989 28.4396 50.6798C28.3136 50.4608 28.132 50.2789 27.9132 50.1525L16.0327 43.3171C15.8335 43.2015 15.6087 43.1371 15.3784 43.1298H15.2564C15.0256 43.1377 14.8002 43.202 14.6 43.3171L2.71952 50.1525C2.50068 50.2796 2.31905 50.4619 2.19278 50.6812C2.06651 50.9005 2.00003 51.1491 2 51.4022L2.02525 69.8151C2.02433 69.9407 2.057 70.0643 2.11988 70.1731C2.18277 70.2818 2.27357 70.3718 2.3829 70.4336C2.48979 70.4995 2.61288 70.5344 2.73845 70.5344C2.86402 70.5344 2.98712 70.4995 3.094 70.4336L10.1587 66.39C10.3764 66.2629 10.5571 66.0811 10.683 65.8626C10.8088 65.6442 10.8754 65.3967 10.8762 65.1446V56.5419C10.8756 56.2898 10.9416 56.0421 11.0676 55.8237C11.1936 55.6054 11.3751 55.4242 11.5936 55.2985L14.6 53.5671C14.8174 53.4403 15.0646 53.3735 15.3163 53.3735C15.5681 53.3735 15.8153 53.4403 16.0327 53.5671L19.037 55.2985C19.2559 55.4239 19.4378 55.605 19.5641 55.8234C19.6905 56.0417 19.7569 56.2896 19.7565 56.5419V65.1425C19.7571 65.3939 19.8229 65.6408 19.9475 65.8591C20.0722 66.0775 20.2514 66.2597 20.4676 66.3879L27.5261 70.4294C27.6344 70.4945 27.7584 70.5289 27.8848 70.5289C28.0112 70.5289 28.1352 70.4945 28.2435 70.4294C28.3515 70.3663 28.4412 70.276 28.5036 70.1675C28.566 70.059 28.5989 69.9361 28.599 69.8109L28.6306 51.4001ZM84.6962 60.9873C84.6965 61.0501 84.6802 61.1119 84.6487 61.1662C84.6173 61.2206 84.572 61.2656 84.5174 61.2966L80.4275 63.6487C80.3733 63.6807 80.3116 63.6976 80.2487 63.6976C80.1857 63.6976 80.124 63.6807 80.0698 63.6487L75.9883 61.2966C75.9338 61.2656 75.8884 61.2206 75.857 61.1662C75.8256 61.1119 75.8092 61.0501 75.8095 60.9873V56.2684C75.8094 56.2056 75.8257 56.1439 75.8567 56.0893C75.8877 56.0347 75.9323 55.9892 75.9863 55.957L80.0635 53.6007C80.1188 53.5698 80.1811 53.5535 80.2445 53.5535C80.3078 53.5535 80.3701 53.5698 80.4254 53.6007L84.5069 55.957C84.5619 55.9883 84.6076 56.0336 84.6394 56.0883C84.6712 56.143 84.6879 56.2051 84.6878 56.2684L84.6962 60.9873ZM85.7986 26.0908C85.6891 26.0297 85.5655 25.9984 85.4401 26.0001C85.3147 26.0017 85.1919 26.0361 85.084 26.1C84.9761 26.1638 84.8868 26.2549 84.825 26.364C84.7633 26.4731 84.7312 26.5965 84.732 26.7219V44.956C84.7319 45.0441 84.7086 45.1306 84.6646 45.2069C84.6205 45.2832 84.5571 45.3466 84.4808 45.3907C84.4046 45.4348 84.318 45.4581 84.2299 45.4583C84.1418 45.4584 84.0552 45.4354 83.9788 45.3915L81.0018 43.6768C80.7842 43.5507 80.5371 43.4842 80.2855 43.4842C80.0339 43.4842 79.7868 43.5507 79.5691 43.6768L67.6823 50.5354C67.4644 50.6607 67.2834 50.8412 67.1574 51.0588C67.0315 51.2763 66.9651 51.5232 66.9649 51.7746V65.498C66.9652 65.7499 67.0316 65.9973 67.1575 66.2155C67.2834 66.4337 67.4644 66.6151 67.6823 66.7414L79.5691 73.6041C79.7872 73.7303 80.0346 73.7967 80.2865 73.7967C80.5384 73.7967 80.7859 73.7303 81.0039 73.6041L92.8886 66.7372C93.1069 66.6116 93.2884 66.4308 93.4147 66.2129C93.541 65.995 93.6077 65.7477 93.6081 65.4959V31.2915C93.6093 31.0342 93.5414 30.7814 93.4115 30.5593C93.2816 30.3373 93.0945 30.1542 92.8697 30.0292L85.7986 26.0908ZM125.378 56.1506C125.595 56.0244 125.775 55.8436 125.9 55.6262C126.026 55.4087 126.091 55.1623 126.092 54.9114V51.5852C126.091 51.3338 126.025 51.0869 125.9 50.8691C125.774 50.6513 125.594 50.4702 125.376 50.344L113.567 43.4875C113.349 43.3614 113.1 43.295 112.848 43.295C112.595 43.295 112.347 43.3614 112.128 43.4875L100.246 50.3461C100.027 50.4718 99.8455 50.6529 99.7192 50.8712C99.5929 51.0895 99.5264 51.3372 99.5263 51.5894V65.315C99.5265 65.5682 99.5935 65.8169 99.7206 66.036C99.8476 66.255 100.03 66.4367 100.25 66.5625L112.057 73.2949C112.272 73.4164 112.515 73.4802 112.762 73.4802C113.009 73.4802 113.251 73.4164 113.466 73.2949L120.611 69.3228C120.722 69.2606 120.814 69.1701 120.878 69.0604C120.942 68.9508 120.976 68.8261 120.976 68.699C120.976 68.572 120.942 68.4472 120.878 68.3376C120.814 68.228 120.722 68.1374 120.611 68.0752L108.655 61.2146C108.545 61.1521 108.454 61.0618 108.391 60.9528C108.327 60.8438 108.293 60.7201 108.293 60.5939V56.2915C108.291 56.1638 108.323 56.0378 108.387 55.9267C108.45 55.8157 108.542 55.7237 108.653 55.6604L112.375 53.5334C112.483 53.4704 112.607 53.4372 112.732 53.4372C112.858 53.4372 112.981 53.4704 113.09 53.5334L116.812 55.6793C116.921 55.7419 117.012 55.8323 117.075 55.9413C117.138 56.0503 117.171 56.174 117.171 56.3V59.683C117.171 59.809 117.205 59.9328 117.268 60.0419C117.331 60.151 117.421 60.2416 117.531 60.3045C117.64 60.3674 117.764 60.4005 117.89 60.4003C118.016 60.4002 118.139 60.3668 118.248 60.3036L125.378 56.1506Z" fill="#333333"/>
<path d="M47.0859 43.5566L35.2685 50.3773C35.0512 50.5025 34.8706 50.6828 34.7451 50.8999C34.6195 51.1171 34.5533 51.3635 34.5532 51.6143V65.2662C34.5531 65.5168 34.6191 65.7631 34.7448 65.9799C34.8704 66.1968 35.0511 66.3766 35.2685 66.5012L47.0859 73.3282C47.3031 73.4534 47.5494 73.5192 47.8001 73.5192C48.0509 73.5192 48.2972 73.4534 48.5144 73.3282L60.3317 66.5012C60.548 66.3756 60.7275 66.1954 60.8523 65.9787C60.9771 65.762 61.0428 65.5163 61.0428 65.2662V51.6143C61.0427 51.3635 60.9766 51.1171 60.851 50.8999C60.7254 50.6828 60.5449 50.5025 60.3275 50.3773L48.5123 43.5566C48.2947 43.4312 48.0481 43.3652 47.797 43.3652C47.5459 43.3652 47.2992 43.4312 47.0817 43.5566" fill="url(#paint0_linear_30_698)"/>
<path d="M47.0859 43.5566L35.2685 50.3773C35.0512 50.5025 34.8706 50.6828 34.7451 50.8999C34.6195 51.1171 34.5533 51.3635 34.5532 51.6143V65.2662C34.5531 65.5168 34.6191 65.7631 34.7448 65.9799C34.8704 66.1968 35.0511 66.3766 35.2685 66.5012L47.0859 73.3282C47.3031 73.4534 47.5494 73.5192 47.8001 73.5192C48.0509 73.5192 48.2972 73.4534 48.5144 73.3282L60.3317 66.5012C60.548 66.3756 60.7275 66.1954 60.8523 65.9787C60.9771 65.762 61.0428 65.5163 61.0428 65.2662V51.6143C61.0427 51.3635 60.9766 51.1171 60.851 50.8999C60.7254 50.6828 60.5449 50.5025 60.3275 50.3773L48.5123 43.5566C48.2947 43.4312 48.0481 43.3652 47.797 43.3652C47.5459 43.3652 47.2992 43.4312 47.0817 43.5566" fill="url(#paint1_linear_30_698)"/>
<path d="M34.8455 66.1327C34.9605 66.2816 35.1034 66.4067 35.2662 66.5009L45.4047 72.358L47.0878 73.3279C47.2525 73.4246 47.4354 73.4865 47.625 73.5096C47.8147 73.5328 48.007 73.5168 48.1902 73.4625L60.6555 50.6399C60.5583 50.5364 60.4463 50.4478 60.3231 50.377L52.5852 45.9084L48.4932 43.5542C48.377 43.4879 48.2525 43.4377 48.1229 43.4048L34.8455 66.1327Z" fill="url(#paint2_linear_30_698)"/>
<path d="M47.6555 43.3734C47.4547 43.3938 47.2605 43.4561 47.0854 43.5564L35.3038 50.3582L48.0111 73.5006C48.1896 73.4749 48.3616 73.4157 48.5181 73.3259L60.3354 66.4989C60.5142 66.3963 60.6685 66.256 60.7876 66.0878C60.9068 65.9196 60.9879 65.7275 61.0255 65.5249L48.07 43.3965C47.9751 43.3773 47.8785 43.3674 47.7817 43.3671C47.7425 43.3649 47.7032 43.3649 47.6639 43.3671" fill="url(#paint3_linear_30_698)"/>
<path fill-rule="evenodd" clip-rule="evenodd" d="M112.673 55.5092C112.716 55.4854 112.763 55.4729 112.811 55.4729C112.86 55.4729 112.907 55.4854 112.949 55.5092L115.23 56.8262C115.271 56.8503 115.306 56.8849 115.33 56.9267C115.354 56.9684 115.367 57.0158 115.366 57.0639V59.698C115.367 59.7461 115.354 59.7935 115.33 59.8352C115.306 59.8769 115.271 59.9116 115.23 59.9357L112.949 61.2527C112.907 61.2765 112.86 61.289 112.811 61.289C112.763 61.289 112.716 61.2765 112.673 61.2527L110.395 59.9357C110.352 59.9125 110.317 59.8781 110.292 59.8363C110.267 59.7944 110.254 59.7466 110.254 59.698V57.0639C110.253 57.0157 110.266 56.9682 110.29 56.9264C110.314 56.8845 110.349 56.8499 110.391 56.8262L112.673 55.5092Z" fill="#689F63"/>
<defs>
<linearGradient id="paint0_linear_30_698" x1="34.5532" y1="58.4413" x2="61.0428" y2="58.4413" gradientUnits="userSpaceOnUse">
<stop offset="0.3" stop-color="#3E863D"/>
<stop offset="0.5" stop-color="#55934F"/>
<stop offset="0.8" stop-color="#5AAD45"/>
</linearGradient>
<linearGradient id="paint1_linear_30_698" x1="54.2705" y1="46.5377" x2="41.6159" y2="69.8106" gradientUnits="userSpaceOnUse">
<stop offset="0.3" stop-color="#3E863D"/>
<stop offset="0.36" stop-color="#468B43"/>
<stop offset="0.5" stop-color="#55934F"/>
<stop offset="0.8" stop-color="#5AAD45"/>
</linearGradient>
<linearGradient id="paint2_linear_30_698" x1="39.495" y1="64.6327" x2="60.4935" y2="49.6174" gradientUnits="userSpaceOnUse">
<stop offset="0.57" stop-color="#3E863D"/>
<stop offset="0.72" stop-color="#619857"/>
<stop offset="1" stop-color="#76AC64"/>
</linearGradient>
<linearGradient id="paint3_linear_30_698" x1="35.3017" y1="58.4349" x2="61.0234" y2="58.4349" gradientUnits="userSpaceOnUse">
<stop offset="0.16" stop-color="#6BBF47"/>
<stop offset="0.38" stop-color="#79B461"/>
<stop offset="0.47" stop-color="#75AC64"/>
<stop offset="0.7" stop-color="#659E5A"/>
<stop offset="0.9" stop-color="#3E863D"/>
</linearGradient>
</defs>
</svg>
