<svg width="128" height="128" viewBox="0 0 128 128" fill="none" xmlns="http://www.w3.org/2000/svg">
<path d="M15 37.4386V90.5694C15.0014 91.0725 15.1356 91.5664 15.389 92.001C15.6425 92.4356 16.0061 92.7956 16.4433 93.0446L62.466 119.615C62.9 119.867 63.3929 120 63.8948 120C64.3966 120 64.8896 119.867 65.3236 119.615L111.346 93.0446C111.783 92.7956 112.147 92.4356 112.401 92.001C112.654 91.5664 112.788 91.0725 112.79 90.5694V37.4386C112.788 36.9356 112.653 36.4419 112.4 36.0073C112.147 35.5728 111.783 35.2127 111.346 34.9634L65.3092 8.38174C64.8745 8.13163 64.3818 8 63.8804 8C63.3789 8 62.8862 8.13163 62.4515 8.38174L16.4289 34.9526C15.993 35.2046 15.6314 35.5672 15.3806 36.0037C15.1297 36.4402 14.9984 36.9352 15 37.4386Z" fill="#92C347"/>
<path fill-rule="evenodd" clip-rule="evenodd" d="M38.822 59.4895C38.8214 59.3122 38.7737 59.1381 38.6837 58.9853C38.5936 58.8325 38.4645 58.7064 38.3096 58.62L30.0108 53.8463C29.8704 53.7674 29.7134 53.7228 29.5525 53.7164H29.4695C29.3088 53.7234 29.1518 53.7679 29.0113 53.8463L20.7124 58.62C20.5596 58.7078 20.4326 58.8345 20.3446 58.9872C20.2565 59.1399 20.2104 59.3132 20.2109 59.4895L20.2289 72.3384C20.2275 72.4263 20.2499 72.513 20.2937 72.5892C20.3375 72.6654 20.4012 72.7284 20.4779 72.7714C20.5528 72.8173 20.639 72.8416 20.7269 72.8416C20.8147 72.8416 20.9009 72.8173 20.9758 72.7714L25.9046 69.9497C26.0563 69.8605 26.1822 69.7335 26.2701 69.5811C26.358 69.4287 26.4049 69.2561 26.4062 69.0802V63.0761C26.4052 62.9006 26.4507 62.728 26.5382 62.5759C26.6257 62.4238 26.7519 62.2976 26.9041 62.2101L29.0041 61.0014C29.1561 60.914 29.3284 60.868 29.5038 60.868C29.6792 60.868 29.8515 60.914 30.0036 61.0014L32.0999 62.2101C32.2525 62.2974 32.3793 62.4234 32.4674 62.5755C32.5554 62.7276 32.6017 62.9003 32.6015 63.0761V69.0802C32.6027 69.2556 32.6495 69.4278 32.7375 69.5796C32.8254 69.7314 32.9514 69.8578 33.103 69.9461L38.0282 72.7677C38.1038 72.8136 38.1905 72.8378 38.279 72.8378C38.3674 72.8378 38.4541 72.8136 38.5297 72.7677C38.6054 72.7236 38.6683 72.6604 38.712 72.5844C38.7556 72.5085 38.7787 72.4224 38.7787 72.3348L38.822 59.4895ZM77.9458 66.1792C77.9461 66.2233 77.9346 66.2666 77.9124 66.3047C77.8901 66.3428 77.8581 66.3742 77.8195 66.3956L74.9726 68.0374C74.9345 68.0585 74.8917 68.0697 74.8481 68.0697C74.8046 68.0697 74.7617 68.0585 74.7237 68.0374L71.8732 66.3956C71.8355 66.3735 71.8044 66.3418 71.7828 66.3038C71.7613 66.2658 71.7502 66.2228 71.7505 66.1792V62.8921C71.7506 62.848 71.7619 62.8047 71.7834 62.7662C71.8048 62.7277 71.8357 62.6952 71.8732 62.672L74.72 61.0303C74.7582 61.0074 74.8018 60.9953 74.8463 60.9953C74.8908 60.9953 74.9345 61.0074 74.9726 61.0303L77.8195 62.672C77.8578 62.6945 77.8897 62.7267 77.9118 62.7653C77.9339 62.8039 77.9457 62.8476 77.9458 62.8921V66.1792ZM78.7215 41.8274C78.6457 41.784 78.5599 41.7612 78.4726 41.7612C78.3852 41.7612 78.2994 41.784 78.2236 41.8274C78.1488 41.8722 78.0869 41.9357 78.0439 42.0116C78.0009 42.0874 77.9783 42.1732 77.9783 42.2604V54.9829C77.976 55.0437 77.9584 55.1029 77.9271 55.155C77.8958 55.2072 77.8518 55.2506 77.7992 55.2812C77.7467 55.3118 77.6872 55.3286 77.6264 55.3301C77.5656 55.3315 77.5054 55.3176 77.4515 55.2896L75.3731 54.0917C75.2214 54.0032 75.049 53.9566 74.8734 53.9566C74.6978 53.9566 74.5254 54.0032 74.3737 54.0917L66.0748 58.8798C65.9237 58.9674 65.7981 59.0932 65.7108 59.2445C65.6234 59.3958 65.5772 59.5674 65.5769 59.7421V69.3219C65.5773 69.4971 65.6235 69.6691 65.7108 69.821C65.7982 69.9729 65.9236 70.0993 66.0748 70.1879L74.3737 74.976C74.5259 75.0647 74.699 75.1115 74.8752 75.1115C75.0514 75.1115 75.2245 75.0647 75.3767 74.976L83.6756 70.1843C83.8277 70.0965 83.9541 69.9703 84.0421 69.8183C84.1301 69.6663 84.1767 69.4939 84.1772 69.3183V45.4536C84.1772 45.2756 84.1298 45.1009 84.0397 44.9474C83.9496 44.7939 83.8202 44.6672 83.6648 44.5804L78.7215 41.8274ZM106.342 62.8055C106.493 62.7167 106.619 62.5902 106.706 62.4384C106.793 62.2865 106.839 62.1146 106.84 61.9395V59.6158C106.839 59.4407 106.793 59.2688 106.706 59.117C106.619 58.9652 106.493 58.8387 106.342 58.7499L98.094 53.9654C97.9405 53.8784 97.7671 53.8327 97.5907 53.8327C97.4142 53.8327 97.2408 53.8784 97.0873 53.9654L88.7884 58.7535C88.6364 58.8413 88.51 58.9675 88.422 59.1194C88.334 59.2714 88.2874 59.4438 88.2869 59.6194V69.192C88.2876 69.369 88.3345 69.5427 88.4232 69.6959C88.5118 69.8491 88.639 69.9764 88.792 70.0652L97.0332 74.7559C97.1827 74.841 97.3518 74.8857 97.5239 74.8857C97.696 74.8857 97.8651 74.841 98.0146 74.7559L102.998 71.9848C103.076 71.9426 103.141 71.8801 103.187 71.8039C103.233 71.7277 103.257 71.6406 103.257 71.5518C103.258 71.4632 103.234 71.3761 103.19 71.2994C103.146 71.2227 103.082 71.1592 103.005 71.1152L94.659 66.3271C94.5829 66.2831 94.5195 66.2201 94.4752 66.1441C94.4309 66.0682 94.4072 65.982 94.4064 65.8941V62.8921C94.4058 62.8034 94.4289 62.7162 94.4733 62.6394C94.5177 62.5627 94.5818 62.4992 94.659 62.4555L97.2533 60.9581C97.3287 60.9137 97.4147 60.8902 97.5023 60.8902C97.5898 60.8902 97.6758 60.9137 97.7512 60.9581L100.349 62.4555C100.425 62.4994 100.489 62.5625 100.533 62.6384C100.577 62.7144 100.601 62.8006 100.602 62.8885V65.2518C100.602 65.3395 100.625 65.4256 100.668 65.5015C100.712 65.5775 100.775 65.6407 100.851 65.6848C100.927 65.7282 101.014 65.7509 101.101 65.7509C101.189 65.7509 101.276 65.7282 101.352 65.6848L106.342 62.8055Z" fill="#333333"/>
<path fill-rule="evenodd" clip-rule="evenodd" d="M97.4833 62.3536C97.5126 62.3375 97.5455 62.3291 97.5789 62.3291C97.6124 62.3291 97.6453 62.3375 97.6746 62.3536L99.2658 63.2737C99.2955 63.29 99.3202 63.3141 99.3374 63.3433C99.3545 63.3725 99.3635 63.4058 99.3632 63.4397V65.2763C99.363 65.3106 99.3539 65.3442 99.3368 65.3739C99.3198 65.4036 99.2953 65.4284 99.2658 65.4459L97.6746 66.3624C97.6457 66.3799 97.6127 66.3892 97.5789 66.3892C97.5452 66.3892 97.5121 66.3799 97.4833 66.3624L95.8921 65.4459C95.8626 65.4284 95.8381 65.4036 95.821 65.3739C95.804 65.3442 95.7949 65.3106 95.7947 65.2763V63.4397C95.7944 63.4058 95.8033 63.3725 95.8205 63.3433C95.8376 63.3141 95.8624 63.29 95.8921 63.2737L97.4833 62.3536Z" fill="#333333"/>
<path d="M60.939 58.7263L52.6942 53.9671C52.5422 53.8797 52.3699 53.8337 52.1945 53.8337C52.0191 53.8337 51.8468 53.8797 51.6948 53.9671L43.45 58.7263C43.2984 58.8134 43.1725 58.9391 43.0851 59.0905C42.9976 59.2419 42.9517 59.4138 42.9521 59.5887V69.1143C42.9514 69.2893 42.9971 69.4613 43.0846 69.6128C43.172 69.7643 43.2982 69.8899 43.45 69.9767L51.6984 74.7431C51.8499 74.8302 52.0216 74.876 52.1963 74.876C52.3711 74.876 52.5427 74.8302 52.6942 74.7431L60.9426 69.9767C61.0936 69.8891 61.2187 69.7633 61.3055 69.6119C61.3923 69.4605 61.4377 69.2888 61.4369 69.1143V59.5923C61.4379 59.4168 61.3924 59.2442 61.3049 59.0921C61.2174 58.9399 61.0912 58.8137 60.939 58.7263ZM55.1659 66.2169L52.3154 67.8587C52.2773 67.8798 52.2345 67.8909 52.1909 67.8909C52.1473 67.8909 52.1045 67.8798 52.0664 67.8587L49.2196 66.2169C49.181 66.1955 49.1489 66.1641 49.1267 66.126C49.1045 66.0879 49.0929 66.0446 49.0933 66.0005V62.7134C49.0934 62.6693 49.1047 62.626 49.1261 62.5875C49.1476 62.549 49.1785 62.5165 49.2159 62.4933L52.0628 60.8515C52.101 60.8286 52.1446 60.8165 52.1891 60.8165C52.2336 60.8165 52.2772 60.8286 52.3154 60.8515L55.1623 62.4933C55.2006 62.5158 55.2324 62.548 55.2546 62.5866C55.2767 62.6252 55.2884 62.6689 55.2885 62.7134V66.0005C55.2899 66.0444 55.2796 66.0879 55.2587 66.1265C55.2378 66.1652 55.207 66.1976 55.1695 66.2205L55.1659 66.2169Z" fill="white"/>
</svg>
