<svg width="128" height="128" viewBox="0 0 128 128" fill="none" xmlns="http://www.w3.org/2000/svg">
<path fill-rule="evenodd" clip-rule="evenodd" d="M107.95 71.6818C107.887 71.7366 107.804 71.7661 107.719 71.7661H103.212C103.07 71.7661 102.931 71.6907 102.872 71.5605C102.804 71.4107 102.843 71.236 102.966 71.1347L111.191 64.2077C111.374 64.053 111.375 63.7708 111.192 63.6157L102.979 56.6418C102.879 56.5569 102.821 56.4271 102.843 56.2983C102.874 56.121 103.026 56 103.198 56H107.536C107.619 56 107.7 56.0295 107.766 56.0839L116.717 63.6134L116.798 63.6826C116.936 63.7999 116.939 64.0114 116.806 64.1336L116.718 64.2146L107.95 71.6818Z" fill="#A8CB3A"/>
<path fill-rule="evenodd" clip-rule="evenodd" d="M20.0607 56.1103H17.3105C16.9807 56.1103 16.7106 56.3804 16.7106 56.7105V65.5997C16.7106 65.8085 16.4648 65.9206 16.3071 65.7833L6.12765 56.9213C5.4337 56.3175 4.67943 56.01 3.88353 56.01C3.18106 56.01 2 56.2968 2 58.2151V71.0756C2 71.407 2.26847 71.6754 2.59987 71.6754H5.34847C5.67954 71.6754 5.94801 71.407 5.94801 71.0759V62.1496C5.94801 61.9405 6.19419 61.8287 6.35186 61.9664L16.6389 70.9625C17.2764 71.5283 17.9697 71.8151 18.6997 71.8151C19.432 71.8151 20.66 71.5155 20.66 69.509V56.7099C20.66 56.3801 20.3902 56.1103 20.0607 56.1103Z" fill="#174489"/>
<path fill-rule="evenodd" clip-rule="evenodd" d="M40.1788 56.1101H36.9821C36.7867 56.1101 36.6261 56.2694 36.6261 56.4661V66.8766C36.6261 67.7341 35.5614 68.1691 33.4599 68.1691H29.1123C26.9714 68.1691 25.8844 67.7341 25.8844 66.8766V56.4661C25.8844 56.2694 25.7251 56.1101 25.5281 56.1101H22.2921C22.0947 56.1101 21.9351 56.2694 21.9351 56.4661V67.0366C21.9351 67.7698 22.0593 68.4025 22.3006 68.9178C22.5409 69.4272 22.868 69.8655 23.2742 70.2205C23.6718 70.5673 24.1389 70.8429 24.6594 71.038C25.1646 71.2291 25.6969 71.3727 26.2388 71.4674C26.778 71.5648 27.3392 71.6231 27.9069 71.6447C28.4599 71.6651 28.9798 71.6752 29.4669 71.6752H33.0046C35.6014 71.6752 37.4495 71.316 38.6561 70.5781C39.9031 69.815 40.5357 68.6244 40.5357 67.0366V56.4661C40.5357 56.2694 40.3751 56.1101 40.1788 56.1101Z" fill="#174489"/>
<path fill-rule="evenodd" clip-rule="evenodd" d="M58.8682 58.8577V56.8089C58.8682 56.4123 58.547 56.0911 58.1504 56.0911H42.5153C42.1187 56.0911 41.7971 56.4126 41.7971 56.8093V58.8577C41.7971 59.2543 42.1187 59.5762 42.5157 59.5762H47.985C48.1849 59.5762 48.3472 59.7381 48.3472 59.9381V70.9573C48.3472 71.354 48.6688 71.6755 49.0654 71.6755H51.578C51.975 71.6755 52.2969 71.3536 52.2969 70.957V59.9381C52.2969 59.7381 52.4588 59.5762 52.6587 59.5762H58.1497C58.5467 59.5762 58.8682 59.2546 58.8682 58.8577Z" fill="#174489"/>
<path fill-rule="evenodd" clip-rule="evenodd" d="M62.966 63.8544L64.9689 60.9757C65.0603 60.8436 65.2554 60.8429 65.3481 60.974L67.3749 63.8324C67.4693 63.9652 67.3743 64.1491 67.2113 64.1491H63.1201C62.9686 64.1491 62.8795 63.9786 62.966 63.8544ZM67.3733 57.1634C66.8347 56.4114 66.1217 56.0295 65.2541 56.0295C64.3982 56.0295 63.6921 56.4186 63.1522 57.1883L53.5077 71.1148C53.4156 71.2472 53.4221 71.4275 53.5336 71.5547C53.606 71.6369 53.7165 71.6753 53.826 71.6753H57.6173C57.738 71.6753 57.8514 71.6137 57.9169 71.5124L60.339 67.786C60.3921 67.7044 60.4826 67.6552 60.58 67.6552C60.58 67.6552 68.6553 67.6532 69.8777 67.6549C69.9747 67.6549 70.0642 67.7034 70.1176 67.7843L72.5945 71.5153C72.66 71.6153 72.7718 71.6753 72.8914 71.6753H76.53C76.6608 71.6753 76.7824 71.6025 76.8437 71.4848C76.906 71.3685 76.8985 71.2279 76.8247 71.1187L67.3733 57.1634Z" fill="#174489"/>
<path fill-rule="evenodd" clip-rule="evenodd" d="M95.824 56.1103H92.998C92.6882 56.1103 92.4368 56.3617 92.4368 56.6718V65.6833C92.4368 65.8597 92.2293 65.9541 92.0962 65.8383L81.8541 56.9213C81.1605 56.3175 80.4049 56.01 79.6081 56.01C78.9056 56.01 77.7252 56.2968 77.7252 58.2151V71.1136C77.7252 71.4227 77.9779 71.6754 78.287 71.6754H81.112C81.4224 71.6754 81.6742 71.4237 81.6742 71.1133V62.0657C81.6742 61.889 81.882 61.795 82.0151 61.911L92.365 70.9625C93.0019 71.5283 93.6959 71.8151 94.4259 71.8151C95.1575 71.8151 96.3861 71.5155 96.3861 69.509V56.6725C96.3861 56.3621 96.1344 56.1103 95.824 56.1103Z" fill="#174489"/>
<path fill-rule="evenodd" clip-rule="evenodd" d="M101.236 56.1101H98.0012C97.8042 56.1101 97.6449 56.2694 97.6449 56.4661V71.3189C97.6449 71.5153 97.8042 71.6752 98.0012 71.6752H101.236C101.433 71.6752 101.593 71.5153 101.593 71.3189V56.4661C101.593 56.2694 101.433 56.1101 101.236 56.1101Z" fill="#174489"/>
<path fill-rule="evenodd" clip-rule="evenodd" d="M118.099 62.6081C118.243 62.7303 118.454 62.7303 118.598 62.6084L125.777 56.6418C125.877 56.5569 125.935 56.4271 125.912 56.2983C125.882 56.121 125.729 56 125.558 56H121.22C121.137 56 121.056 56.0295 120.989 56.0839L115.952 60.1909C115.769 60.3443 115.769 60.6246 115.95 60.779L118.099 62.6081Z" fill="#174489"/>
<path fill-rule="evenodd" clip-rule="evenodd" d="M118.075 65.2169C118.219 65.0946 118.43 65.0943 118.574 65.2165L125.86 71.1674C125.96 71.2519 126.018 71.3821 125.995 71.5109C125.964 71.6879 125.812 71.8092 125.641 71.8092H121.303C121.22 71.8092 121.139 71.7797 121.072 71.7253L116.066 67.5567C115.884 67.4033 115.883 67.123 116.064 66.9686L118.075 65.2169Z" fill="#174489"/>
</svg>
