<svg width="128" height="128" viewBox="0 0 128 128" fill="none" xmlns="http://www.w3.org/2000/svg">
<path d="M19.0038 58.4391C19.0225 58.0272 19.2004 57.6385 19.5 57.3551C21.6499 55.2168 23.7977 53.0781 25.9434 50.939C26.643 50.2481 27.4926 50.2531 28.1959 50.9501C30.8609 53.5961 33.5193 56.2454 36.1711 58.8981C36.8372 59.5666 36.8434 60.4299 36.1885 61.1033C35.2124 62.1092 34.204 63.0816 33.2117 64.0801C33.0071 64.2872 32.8793 64.2823 32.656 64.0975C29.8864 61.8153 26.9357 61.5796 23.8262 63.3595C23.5583 63.512 23.3971 63.4835 23.1887 63.2776C21.9397 62.0199 20.6832 60.7709 19.4293 59.517C19.2899 59.3749 19.1804 59.2063 19.1074 59.0212C19.0343 58.836 18.9991 58.6381 19.0038 58.4391Z" fill="#4C60AB"/>
<path d="M40.702 59.3843C40.4874 59.3939 40.2733 59.3565 40.0747 59.2746C39.8761 59.1928 39.6977 59.0685 39.5522 58.9105C35.7601 55.1251 31.9672 51.3413 28.1735 47.5591C27.4789 46.867 27.4789 46.0212 28.1735 45.3179C29.0827 44.3901 30.0055 43.4785 30.932 42.5681C31.7097 41.8041 32.527 41.809 33.3146 42.5929C36.5296 45.7888 39.7407 48.9888 42.9482 52.1929C43.5026 52.7461 44.0645 53.2906 44.609 53.8537C45.2949 54.5619 45.3048 55.3892 44.609 56.0975C43.6738 57.0562 42.715 57.9914 41.765 58.9365C41.6312 59.0843 41.4668 59.2009 41.2831 59.2783C41.0995 59.3556 40.9011 59.3918 40.702 59.3843Z" fill="#F5A81E"/>
<path d="M18.4222 62.4514C18.7949 62.4623 19.1496 62.6144 19.4145 62.8769C20.1177 63.5727 20.8123 64.2784 21.523 64.9655C21.7413 65.1764 21.7537 65.3376 21.5937 65.6018C20.2939 67.7327 20.1053 69.9677 21.0281 72.2859C21.1522 72.5835 21.105 72.7671 20.8818 72.9879C19.1949 74.6536 17.5267 76.3367 15.8361 78.0012C15.1453 78.6809 14.3316 78.6784 13.6433 78.0012C12.0854 76.4682 10.5379 74.9248 9.00074 73.3711C8.34709 72.7101 8.33841 71.8828 8.99082 71.2316C11.7567 68.4583 14.5293 65.6911 17.3084 62.9302C17.4515 62.7786 17.6242 62.6579 17.8158 62.5755C18.0073 62.4932 18.2137 62.4509 18.4222 62.4514Z" fill="#4C60AB"/>
<path d="M22.9321 69.4233C22.9271 68.793 23.0479 68.1681 23.2875 67.5851C23.527 67.0021 23.8805 66.4728 24.3271 66.0281C24.7738 65.5834 25.3047 65.2323 25.8887 64.9953C26.4728 64.7583 27.0982 64.6403 27.7285 64.6481C28.3639 64.6425 28.9941 64.7631 29.5825 65.0029C30.171 65.2427 30.706 65.5969 31.1565 66.045C31.607 66.4931 31.9641 67.0262 32.2071 67.6133C32.4501 68.2005 32.5741 68.83 32.5719 69.4654C32.5564 70.7381 32.0423 71.9538 31.1401 72.8515C30.238 73.7493 29.0197 74.2574 27.7471 74.2667C27.1116 74.2695 26.4818 74.146 25.8945 73.9032C25.3072 73.6605 24.774 73.3033 24.326 72.8526C23.8779 72.4019 23.524 71.8667 23.2847 71.2779C23.0454 70.6892 22.9256 70.0587 22.9321 69.4233ZM30.1161 69.4456C30.1039 68.8213 29.8515 68.2257 29.4114 67.7826C28.9714 67.3396 28.3775 67.0831 27.7533 67.0667C26.4919 67.0493 25.3781 68.1408 25.357 69.4133C25.3359 70.6859 26.4522 71.8245 27.7533 71.8208C28.3777 71.8065 28.9724 71.5513 29.413 71.1086C29.8536 70.666 30.106 70.0701 30.1173 69.4456H30.1161Z" fill="#F5A920"/>
<path d="M2.25837 78.5004C2.7545 78.457 3.10675 78.8216 3.42551 79.1987C3.76536 79.6018 4.00598 79.6378 4.39172 79.2185C5.17437 78.3714 6.01282 77.5751 6.83391 76.764C7.60291 76.0061 8.31362 76.0099 9.08758 76.7702C9.49936 77.1745 9.90991 77.5813 10.3118 77.9944C10.9915 78.6926 11.0014 79.4195 10.3217 80.1116C9.46959 80.9798 8.61749 81.848 7.7319 82.6827C7.38089 83.0139 7.3995 83.2285 7.75299 83.51C7.94444 83.6674 8.1153 83.8482 8.26152 84.0483C8.44984 84.285 8.54116 84.5844 8.51698 84.8858C8.4928 85.1873 8.35492 85.4683 8.13129 85.6719C7.92024 85.875 7.64093 85.9919 7.34814 85.9997C7.05535 86.0075 6.77021 85.9056 6.54864 85.7141C6.12321 85.3569 5.74119 84.9476 5.34677 84.5556C4.04691 83.2607 2.74747 81.965 1.44844 80.6685C1.02797 80.2505 0.874175 79.7655 1.11232 79.2074C1.30829 78.7559 1.67294 78.5078 2.25837 78.5004Z" fill="#F5A81E"/>
<path d="M39.9541 67.2387C40.4765 67.5316 40.9062 67.9652 41.1944 68.4902C41.4912 69.0712 41.646 69.7143 41.646 70.3668C41.646 71.0192 41.4912 71.6623 41.1944 72.2433C40.9065 72.7686 40.4767 73.2022 39.9541 73.4948C39.4157 73.7938 38.8087 73.9472 38.1929 73.9401C37.3073 73.9401 36.6106 73.6606 36.1029 73.1016V76.3389H34.0948V66.8976H36.0161V67.6964C36.5122 67.0952 37.2391 66.7942 38.1966 66.7934C38.8111 66.7869 39.4168 66.9404 39.9541 67.2387ZM39.1157 71.7671C39.4464 71.419 39.6118 70.9522 39.6118 70.3668C39.6118 69.7813 39.4464 69.315 39.1157 68.9677C38.7774 68.6331 38.3208 68.4455 37.845 68.4455C37.3692 68.4455 36.9126 68.6331 36.5742 68.9677C36.2435 69.3158 36.0781 69.7822 36.0781 70.3668C36.0781 70.9514 36.2435 71.4181 36.5742 71.7671C36.9126 72.1016 37.3692 72.2893 37.845 72.2893C38.3208 72.2893 38.7774 72.1016 39.1157 71.7671Z" fill="#F5A81E"/>
<path d="M49.6994 70.9415H44.4491C44.5323 71.3551 44.7729 71.7202 45.1201 71.9598C45.5084 72.2197 45.9691 72.35 46.4361 72.3319C46.7633 72.3379 47.0888 72.2832 47.3961 72.1706C47.6881 72.0548 47.9538 71.8814 48.1775 71.6609L49.2479 72.8218C48.5947 73.566 47.64 73.9402 46.384 73.9443C45.6654 73.9587 44.9537 73.8018 44.3077 73.4866C43.731 73.2048 43.2472 72.7636 42.9136 72.2153C42.5805 71.6584 42.4087 71.0198 42.4174 70.3709C42.4087 69.7257 42.5759 69.0902 42.9012 68.5328C43.2176 67.9929 43.6774 67.5511 44.2295 67.2565C44.8062 66.9584 45.4453 66.8011 46.0945 66.7977C46.7436 66.7942 47.3844 66.9447 47.9642 67.2367C48.5079 67.5229 48.9579 67.9595 49.2603 68.4944C49.5832 69.0756 49.7459 69.7322 49.7316 70.397C49.7378 70.4193 49.7229 70.5992 49.6994 70.9415ZM44.9861 68.7089C44.6708 68.9773 44.468 69.3546 44.4181 69.7657H47.8364C47.7841 69.3571 47.5816 68.9826 47.2683 68.7151C46.951 68.4495 46.5471 68.3096 46.1334 68.322C45.7187 68.3103 45.3134 68.4476 44.9911 68.7089H44.9861Z" fill="#F5A81E"/>
<path d="M57.3284 67.5677C57.8576 68.0837 58.1222 68.8494 58.1222 69.8648V73.8338H56.1092V70.1736C56.1092 69.6242 55.9851 69.2124 55.7482 68.942C55.5113 68.6716 55.1591 68.5352 54.7039 68.5352C54.48 68.5246 54.2564 68.5611 54.0474 68.6423C53.8385 68.7235 53.6489 68.8475 53.4909 69.0065C53.1907 69.3207 53.0402 69.7871 53.0394 70.4056V73.8375H51.0276V66.8918H52.9476V67.7166C53.2224 67.4182 53.5618 67.1865 53.9399 67.0394C54.355 66.8766 54.7976 66.7954 55.2434 66.8C56.105 66.7959 56.8 67.0518 57.3284 67.5677Z" fill="#F5A81E"/>
<path d="M61.9661 66.5108H59.0762V64.8079H66.9448V66.5108H64.0548V73.8373H61.9661V66.5108Z" fill="#4C60AB"/>
<path d="M73.9229 70.9415H68.6739C68.7572 71.3547 68.9972 71.7197 69.3437 71.9598C69.7322 72.2194 70.1927 72.3497 70.6597 72.3319C70.9873 72.3379 71.3132 72.2832 71.6209 72.1706C71.9125 72.0547 72.1778 71.8814 72.4011 71.6609L73.4715 72.8218C72.8182 73.566 71.864 73.9402 70.6088 73.9443C69.8898 73.9587 69.1777 73.8018 68.5313 73.4866C67.9548 73.205 67.4713 72.7637 67.1384 72.2153C66.8069 71.658 66.6373 71.0193 66.6485 70.3709C66.6397 69.7257 66.8069 69.0902 67.1322 68.5328C67.4486 67.9929 67.9084 67.5511 68.4606 67.2565C69.0372 66.9584 69.6763 66.8011 70.3255 66.7977C70.9747 66.7942 71.6154 66.9447 72.1952 67.2367C72.7387 67.5232 73.1885 67.9597 73.4913 68.4944C73.8142 69.0756 73.9769 69.7322 73.9626 70.397C73.9626 70.4193 73.949 70.5992 73.9229 70.9415ZM69.2097 68.7089C68.8947 68.9774 68.6923 69.3547 68.6429 69.7657H72.0612C72.0085 69.3572 71.806 68.9829 71.4932 68.7151C71.1757 68.4497 70.7719 68.3098 70.3583 68.322C69.9431 68.31 69.5373 68.4473 69.2147 68.7089H69.2097Z" fill="#4C60AB"/>
<path d="M75.2524 64.2664H77.2642V73.8379H75.2524V64.2664Z" fill="#4C60AB"/>
<path d="M85.8423 70.9409H80.592C80.6757 71.3543 80.9162 71.7192 81.263 71.9592C81.6514 72.219 82.1121 72.3493 82.579 72.3313C82.9062 72.3373 83.2317 72.2826 83.539 72.1701C83.8312 72.0545 84.0969 71.8811 84.3204 71.6603L85.3908 72.8212C84.7368 73.5654 83.7821 73.9396 82.5269 73.9437C81.8083 73.9581 81.0966 73.8012 80.4506 73.486C79.874 73.2042 79.3902 72.763 79.0565 72.2147C78.7234 71.6578 78.5517 71.0192 78.5604 70.3704C78.5516 69.7251 78.7188 69.0896 79.0441 68.5322C79.3607 67.992 79.821 67.5501 80.3737 67.2559C80.9546 66.9461 81.6044 66.7882 82.2627 66.797C82.9045 66.7878 83.5384 66.9387 84.1071 67.2361C84.6509 67.5223 85.1008 67.9589 85.4032 68.4938C85.7262 69.075 85.8888 69.7316 85.8746 70.3964C85.8808 70.4187 85.8684 70.5986 85.8423 70.9409ZM81.1291 68.7084C80.8137 68.9767 80.6109 69.354 80.561 69.7651H83.9793C83.927 69.3568 83.725 68.9825 83.4125 68.7146C83.0945 68.4491 82.6904 68.3093 82.2764 68.3214C81.8616 68.3097 81.4564 68.447 81.1341 68.7084H81.1291Z" fill="#4C60AB"/>
<path d="M98.1291 67.5616C98.6401 68.0734 98.8961 68.8412 98.8969 69.8648V73.8338H96.8838V70.1737C96.8838 69.6242 96.7697 69.2124 96.5428 68.942C96.4218 68.8047 96.2712 68.6967 96.1023 68.6262C95.9333 68.5557 95.7506 68.5246 95.5679 68.5352C95.3596 68.5261 95.1519 68.5624 94.9591 68.6416C94.7664 68.7209 94.5932 68.8412 94.4516 68.9941C94.1762 69.2993 94.0386 69.754 94.0386 70.3585V73.8413H92.0181V70.1737C92.0181 69.0822 91.5798 68.5361 90.7033 68.5352C90.496 68.526 90.2892 68.5624 90.0974 68.6417C89.9057 68.7209 89.7336 68.8412 89.5932 68.9941C89.3179 69.2993 89.1802 69.754 89.1802 70.3585V73.8413H87.1709V66.8955H89.0934V67.6943C89.3531 67.4007 89.6775 67.1714 90.041 67.0245C90.4321 66.8661 90.8507 66.7869 91.2726 66.7913C91.7319 66.7845 92.1865 66.8839 92.601 67.0816C92.9911 67.2704 93.3216 67.5631 93.5561 67.9275C93.8413 67.5644 94.2108 67.2766 94.6327 67.089C95.081 66.8878 95.5676 66.7862 96.059 66.7913C96.9273 66.793 97.6173 67.0497 98.1291 67.5616Z" fill="#4C60AB"/>
<path d="M107.487 70.9412H102.237C102.321 71.3546 102.561 71.7195 102.908 71.9595C103.296 72.2193 103.757 72.3496 104.224 72.3316C104.551 72.3375 104.877 72.2828 105.185 72.1704C105.477 72.0545 105.742 71.8811 105.965 71.6606L107.036 72.8215C106.382 73.5657 105.427 73.9399 104.172 73.944C103.453 73.9584 102.741 73.8015 102.095 73.4863C101.518 73.2041 101.033 72.7615 100.7 72.2113C100.367 71.6546 100.195 71.0159 100.204 70.367C100.195 69.7217 100.362 69.0862 100.688 68.5288C101.004 67.9885 101.465 67.5467 102.017 67.2525C102.598 66.9426 103.248 66.7848 103.906 66.7936C104.548 66.7844 105.182 66.9353 105.751 67.2327C106.295 67.5191 106.745 67.9556 107.048 68.4904C107.371 69.0717 107.533 69.7283 107.518 70.393C107.522 70.419 107.513 70.5989 107.487 70.9412ZM102.774 68.7087C102.459 68.977 102.256 69.3543 102.206 69.7654H105.624C105.572 69.3571 105.37 68.9828 105.057 68.7149C104.74 68.4496 104.336 68.3098 103.922 68.3217C103.507 68.3097 103.102 68.447 102.779 68.7087H102.774Z" fill="#4C60AB"/>
<path d="M113.292 73.5018C113.072 73.6582 112.825 73.7702 112.562 73.8317C112.265 73.9052 111.96 73.9419 111.653 73.9408C110.826 73.9408 110.188 73.73 109.738 73.3083C109.288 72.8866 109.063 72.2664 109.061 71.4478V68.5951H107.991V67.0521H109.061V65.3604H111.073V67.0497H112.802V68.5976H111.073V71.4255C111.057 71.672 111.138 71.915 111.299 72.1027C111.382 72.185 111.483 72.2487 111.593 72.2897C111.703 72.3308 111.82 72.3482 111.937 72.3408C112.229 72.3493 112.516 72.2583 112.75 72.0828L113.292 73.5018Z" fill="#4C60AB"/>
<path d="M117.271 67.0518C117.72 66.8726 118.2 66.7849 118.684 66.7938V68.6543C118.46 68.6369 118.312 68.6283 118.232 68.6283C117.657 68.6283 117.204 68.7895 116.878 69.112C116.552 69.4345 116.382 69.9182 116.382 70.5632V73.8401H114.369V66.8943H116.291V67.8097C116.54 67.4702 116.88 67.2076 117.271 67.0518Z" fill="#4C60AB"/>
<path d="M126.965 66.8984L123.831 74.2634C123.513 75.0638 123.119 75.6269 122.65 75.9527C122.151 76.2912 121.558 76.4647 120.955 76.4488C120.591 76.4481 120.229 76.3912 119.883 76.2802C119.564 76.1882 119.268 76.0301 119.015 75.8163L119.749 74.385C119.907 74.5234 120.089 74.6326 120.285 74.7074C120.476 74.7823 120.68 74.8214 120.885 74.8228C121.125 74.8334 121.36 74.7631 121.555 74.6231C121.761 74.4423 121.921 74.2142 122.02 73.9583L122.046 73.8938L119.045 66.8984H121.122L123.069 71.6116L125.03 66.8984H126.965Z" fill="#4C60AB"/>
</svg>
