<svg width="128" height="128" viewBox="0 0 128 128" fill="none" xmlns="http://www.w3.org/2000/svg">
<path d="M53.3672 50.6213C53.4113 49.6293 53.8401 48.6935 54.5625 48.0123C59.7425 42.8583 64.9225 37.7051 70.1025 32.553C71.7879 30.8855 73.832 30.8974 75.5295 32.577C81.9526 38.9523 88.3569 45.3367 94.7422 51.73C96.35 53.3378 96.3649 55.4177 94.787 57.0405C92.4321 59.4641 90.0055 61.822 87.6147 64.2128C87.1246 64.7148 86.8168 64.6999 86.2759 64.2546C79.6057 58.7558 72.4932 58.188 65.0012 62.4615C64.3587 62.8321 63.9702 62.7604 63.4681 62.2673C60.4587 59.231 57.4225 56.2246 54.4042 53.2003C54.0674 52.8618 53.8021 52.459 53.624 52.016C53.4458 51.573 53.3585 51.0987 53.3672 50.6213Z" fill="#4C60AB"/>
<path d="M105.648 52.8863C105.132 52.909 104.617 52.8188 104.14 52.6222C103.662 52.4255 103.234 52.1271 102.883 51.7477C93.7466 42.629 84.607 33.5132 75.4643 24.4004C73.7938 22.7298 73.7938 20.6917 75.4643 18.9972C77.6399 16.7649 79.8663 14.5654 82.0987 12.3688C83.9724 10.528 85.9418 10.5399 87.8395 12.4286C95.5815 20.1289 103.318 27.8391 111.048 35.5593C112.384 36.8921 113.737 38.2041 115.052 39.5608C116.705 41.2702 116.726 43.2635 115.052 44.9669C112.799 47.277 110.492 49.5333 108.203 51.8075C107.881 52.1627 107.486 52.4432 107.045 52.6296C106.603 52.816 106.126 52.9036 105.648 52.8863Z" fill="#F5A81E"/>
<path d="M51.9686 60.2786C52.8663 60.3067 53.7202 60.6728 54.3594 61.3036C56.0538 62.9801 57.7274 64.6806 59.4398 66.3392C59.9627 66.8442 59.9926 67.2357 59.6071 67.8693C56.4782 73.0034 56.021 78.3886 58.2444 83.974C58.5432 84.6913 58.4297 85.1336 57.8947 85.6655C53.8304 89.679 49.811 93.7344 45.7377 97.7449C44.0732 99.3825 42.1128 99.3795 40.4512 97.7449C36.6977 94.0511 32.9701 90.3325 29.2684 86.5889C27.6935 84.9991 27.6726 83.0028 29.2445 81.4339C35.9068 74.7517 42.5849 68.0844 49.279 61.4321C49.625 61.0666 50.0421 60.7757 50.5046 60.5774C50.9672 60.379 51.4654 60.2773 51.9686 60.2786Z" fill="#4C60AB"/>
<path d="M62.8344 77.0729C62.8207 75.5544 63.1104 74.0484 63.6863 72.6432C64.2622 71.2381 65.1129 69.962 66.1883 68.8899C67.2638 67.8178 68.5425 66.9711 69.9494 66.3995C71.3564 65.828 72.8632 65.543 74.3817 65.5614C75.9127 65.5475 77.4312 65.8377 78.8491 66.4151C80.2671 66.9925 81.5564 67.8457 82.6422 68.9251C83.728 70.0045 84.5887 71.2887 85.1745 72.7032C85.7602 74.1178 86.0594 75.6345 86.0546 77.1656C86.0202 80.2329 84.7838 83.1643 82.6111 85.3298C80.4385 87.4952 77.5029 88.7218 74.4355 88.7458C72.9042 88.7522 71.3868 88.4542 69.9717 87.8689C68.5566 87.2837 67.272 86.423 66.1925 85.3368C65.113 84.2506 64.2602 82.9607 63.6837 81.542C63.1072 80.1233 62.8185 78.6042 62.8344 77.0729ZM80.1404 77.1267C80.1118 75.625 79.506 74.192 78.4487 73.1252C77.3913 72.0584 75.9638 71.4398 74.4624 71.3978C71.4261 71.353 68.7425 73.9829 68.6917 77.049C68.6409 80.1152 71.3275 82.8615 74.4654 82.8496C75.9667 82.8113 77.3951 82.1946 78.4526 81.1282C79.51 80.0619 80.1147 78.6283 80.1404 77.1267Z" fill="#F5A920"/>
<path d="M13.02 98.9478C14.2154 98.8432 15.0641 99.7188 15.8321 100.627C16.6509 101.602 17.2307 101.685 18.1601 100.678C20.0428 98.634 22.063 96.7154 24.0444 94.761C25.8972 92.935 27.6096 92.947 29.4744 94.761C30.4665 95.7352 31.4527 96.7154 32.424 97.7136C34.0616 99.3931 34.0855 101.144 32.4479 102.812C30.3918 104.904 28.3417 106.996 26.208 109.007C25.3593 109.805 25.4071 110.325 26.2588 111C26.7199 111.379 27.1307 111.815 27.4811 112.297C27.9366 112.866 28.1592 113.586 28.1037 114.312C28.0482 115.038 27.7188 115.717 27.1822 116.209C26.6737 116.698 26.0007 116.98 25.2953 116.999C24.5898 117.018 23.9028 116.772 23.369 116.311C22.3439 115.45 21.4235 114.467 20.4732 113.52C17.3393 110.404 14.2084 107.283 11.0805 104.157C10.0674 103.147 9.69684 101.981 10.2706 100.636C10.7278 99.5455 11.6244 98.9687 13.02 98.9478Z" fill="#F5A81E"/>
</svg>
