<svg width="128" height="128" viewBox="0 0 128 128" fill="none" xmlns="http://www.w3.org/2000/svg">
<path fill-rule="evenodd" clip-rule="evenodd" d="M93.797 65.235C93.797 65.077 93.8598 64.9255 93.9716 64.8137C94.0833 64.702 94.2348 64.6393 94.3928 64.6393C94.5508 64.6393 94.7023 64.702 94.814 64.8137C94.9257 64.9255 94.9884 65.077 94.9884 65.235C94.996 65.3177 94.9862 65.4012 94.9597 65.48C94.9332 65.5587 94.8905 65.6311 94.8345 65.6925C94.7784 65.7539 94.7102 65.8029 94.6341 65.8365C94.5581 65.87 94.4759 65.8873 94.3928 65.8873C94.3097 65.8873 94.2274 65.87 94.1514 65.8365C94.0753 65.8029 94.0071 65.7539 93.9511 65.6925C93.895 65.6311 93.8523 65.5587 93.8258 65.48C93.7993 65.4012 93.7895 65.3177 93.797 65.235ZM94.3928 66.0473C94.5925 66.0429 94.7828 65.9616 94.924 65.8204C95.0653 65.6791 95.1465 65.4888 95.1509 65.2891C95.1593 65.1844 95.146 65.0791 95.1118 64.9798C95.0775 64.8805 95.023 64.7894 94.9518 64.7122C94.8806 64.635 94.7942 64.5734 94.6979 64.5312C94.6017 64.4891 94.4978 64.4673 94.3928 64.4673C94.2877 64.4673 94.1838 64.4891 94.0876 64.5312C93.9914 64.5734 93.9049 64.635 93.8337 64.7122C93.7625 64.7894 93.708 64.8805 93.6738 64.9798C93.6395 65.0791 93.6262 65.1844 93.6346 65.2891C93.639 65.4888 93.7203 65.6791 93.8615 65.8204C94.0028 65.9616 94.1931 66.0429 94.3928 66.0473ZM94.3386 64.8017H94.5552C94.6097 64.8206 94.6559 64.8581 94.6856 64.9076C94.7153 64.9571 94.7267 65.0155 94.7177 65.0725V65.1267C94.7177 65.1808 94.6635 65.235 94.6094 65.2891H94.5552L94.7719 65.6682H94.5552L94.3928 65.3433H94.2845V65.6682H94.1343V64.8017H94.3386ZM94.3928 65.1808C94.4469 65.1808 94.5011 65.1808 94.5011 65.1267C94.5154 65.1267 94.5292 65.1209 94.5393 65.1108C94.5495 65.1006 94.5552 65.0869 94.5552 65.0725C94.5495 65.0314 94.5305 64.9934 94.5011 64.9642H94.2845V65.1808H94.3928ZM59.5249 69.4565H63.424L61.3662 66.1014L57.5754 72.1642H55.8523L60.4529 64.91C60.5597 64.7643 60.6979 64.6443 60.8573 64.5591C61.0166 64.4739 61.193 64.4256 61.3736 64.4177C61.5449 64.4325 61.7111 64.4842 61.8606 64.5691C62.0102 64.6541 62.1396 64.7704 62.24 64.91L66.8949 72.1642H65.1718L64.3619 70.8104H60.3373L59.5249 69.4565ZM77.445 70.8104V64.531H75.9829V71.406C75.9775 71.5066 75.9941 71.6072 76.0315 71.7007C76.0689 71.7942 76.1262 71.8784 76.1994 71.9476C76.3477 72.0832 76.5402 72.1602 76.741 72.1642H83.4019L84.2684 70.8104H77.445ZM53.1914 69.6731C53.5357 69.6838 53.8787 69.6252 54.1999 69.5007C54.5212 69.3763 54.8142 69.1887 55.0615 68.9489C55.3089 68.7091 55.5055 68.422 55.6398 68.1048C55.7741 67.7875 55.8433 67.4465 55.8433 67.102C55.8433 66.7575 55.7741 66.4165 55.6398 66.0993C55.5055 65.7821 55.3089 65.495 55.0615 65.2552C54.8142 65.0154 54.5212 64.8277 54.1999 64.7033C53.8787 64.5789 53.5357 64.5203 53.1914 64.531H46.7914V72.1617H48.2536V65.8848H53.0732C53.2377 65.8774 53.402 65.9034 53.5561 65.9612C53.7102 66.0191 53.851 66.1075 53.97 66.2213C54.089 66.3351 54.1837 66.4718 54.2484 66.6231C54.3131 66.7745 54.3465 66.9374 54.3465 67.102C54.3465 67.2667 54.3131 67.4296 54.2484 67.5809C54.1837 67.7323 54.089 67.869 53.97 67.9828C53.851 68.0965 53.7102 68.185 53.5561 68.2428C53.402 68.3007 53.2377 68.3267 53.0732 68.3193H48.9575L53.344 72.1642H55.4536L52.5342 69.6731H53.1914ZM37.7649 72.1642C37.2634 72.1613 36.7675 72.0595 36.3055 71.8645C35.8435 71.6696 35.4245 71.3853 35.0726 71.0281C34.7206 70.6709 34.4427 70.2478 34.2546 69.783C34.0665 69.3181 33.9721 68.8207 33.9766 68.3193C33.9733 67.8209 34.069 67.3268 34.2583 66.8657C34.4475 66.4046 34.7264 65.9857 35.0788 65.6332C35.4313 65.2808 35.8502 65.0019 36.3113 64.8127C36.7724 64.6234 37.2665 64.5277 37.7649 64.531H42.1957C42.694 64.528 43.1879 64.624 43.6489 64.8133C44.1098 65.0027 44.5286 65.2816 44.881 65.634C45.2333 65.9863 45.5123 66.4051 45.7016 66.8661C45.891 67.327 45.9869 67.821 45.984 68.3193C45.9885 68.8207 45.894 69.3181 45.706 69.783C45.5179 70.2478 45.2399 70.6709 44.888 71.0281C44.536 71.3853 44.1171 71.6696 43.6551 71.8645C43.193 72.0595 42.6971 72.1613 42.1957 72.1642H37.7649ZM42.0972 70.8104C42.7555 70.8027 43.3847 70.5378 43.8502 70.0723C44.3157 69.6067 44.5806 68.9776 44.5883 68.3193C44.5851 67.9956 44.518 67.6757 44.3911 67.378C44.2641 67.0802 44.0796 66.8105 43.8482 66.5841C43.6168 66.3578 43.3431 66.1793 43.0426 66.0588C42.7421 65.9384 42.4209 65.8784 42.0972 65.8823H37.8732C37.5495 65.8784 37.2283 65.9384 36.9278 66.0588C36.6273 66.1793 36.3536 66.3578 36.1222 66.5841C35.8908 66.8105 35.7064 67.0802 35.5794 67.378C35.4524 67.6757 35.3853 67.9956 35.3821 68.3193C35.3898 68.9776 35.6547 69.6067 36.1202 70.0723C36.5858 70.5378 37.2149 70.8027 37.8732 70.8104H42.0972ZM69.925 72.1642C69.4235 72.1613 68.9276 72.0595 68.4656 71.8645C68.0036 71.6696 67.5846 71.3853 67.2327 71.0281C66.8807 70.6709 66.6028 70.2478 66.4147 69.783C66.2266 69.3181 66.1321 68.8207 66.1367 68.3193C66.1334 67.8209 66.2292 67.3268 66.4184 66.8657C66.6076 66.4046 66.8865 65.9857 67.239 65.6332C67.5914 65.2808 68.0103 65.0019 68.4714 64.8127C68.9325 64.6234 69.4266 64.5277 69.925 64.531H75.1804L74.3139 65.8848H70.0358C69.7121 65.8809 69.3908 65.9409 69.0904 66.0613C68.7899 66.1817 68.5161 66.3602 68.2848 66.5866C68.0534 66.8129 67.8689 67.0827 67.7419 67.3804C67.6149 67.6782 67.5479 67.9981 67.5447 68.3217C67.5523 68.98 67.8173 69.6092 68.2828 70.0747C68.7483 70.5402 69.3775 70.8051 70.0358 70.8128H75.2862L74.4764 72.1642H69.925ZM87.845 70.8104C87.3092 70.8068 86.7887 70.6312 86.3601 70.3095C85.9316 69.9877 85.6177 69.5369 85.4647 69.0233H91.7441L92.6106 67.6694H85.4721C85.6255 67.1563 85.9395 66.706 86.368 66.3847C86.7966 66.0634 87.3169 65.8882 87.8524 65.8848H92.1651L93.0315 64.531H87.7343C86.7306 64.5342 85.7688 64.9344 85.0591 65.6441C84.3493 66.3539 83.9492 67.3155 83.946 68.3193C83.9465 69.3291 84.344 70.2982 85.0527 71.0175C85.7615 71.7369 86.7246 72.1487 87.7343 72.1642H92.2832L93.1497 70.8104H87.845Z" fill="#EA1B22"/>
<path d="M55.3652 85.7266C55.2347 85.9685 55.0533 86.1793 54.8336 86.3445C54.6086 86.509 54.3535 86.6278 54.0828 86.694C53.7876 86.7691 53.484 86.8063 53.1794 86.8048C52.7651 86.8137 52.3532 86.7392 51.9683 86.5857C51.6369 86.4477 51.3432 86.2325 51.1117 85.958C50.8753 85.6688 50.7017 85.3335 50.6021 84.9734C50.4861 84.5518 50.4297 84.1159 50.4348 83.6786C50.4298 83.2358 50.4895 82.7947 50.612 82.3691C50.7153 81.9976 50.8928 81.6509 51.1339 81.35C51.3673 81.0645 51.6651 80.8385 52.0028 80.6903C52.387 80.5273 52.8015 80.4476 53.2188 80.4565C53.6164 80.4525 54.0112 80.5226 54.3831 80.6632C54.7299 80.798 55.0289 81.0327 55.2422 81.3377C55.3498 81.4877 55.4329 81.6539 55.4883 81.83C55.5462 82.0336 55.5784 82.2437 55.5843 82.4552H54.0828C54.0806 82.1942 53.9864 81.9424 53.8169 81.7439C53.7398 81.6628 53.6465 81.5989 53.543 81.5565C53.4395 81.5141 53.3281 81.494 53.2163 81.4977C53.0003 81.4901 52.7884 81.5589 52.6182 81.6922C52.4537 81.8292 52.3224 82.0017 52.2342 82.1968C52.1329 82.4207 52.0633 82.6577 52.0274 82.9008C51.9858 83.1654 51.9652 83.4329 51.9658 83.7008C51.9648 83.9548 51.9854 84.2084 52.0274 84.4589C52.0631 84.6863 52.1328 84.9071 52.2342 85.1137C52.3238 85.2926 52.4536 85.4485 52.6132 85.5691C52.7819 85.6888 52.985 85.7501 53.1917 85.7439C53.4258 85.7517 53.6537 85.6678 53.8268 85.51C54.0092 85.3201 54.1145 85.0692 54.1221 84.806H55.6237C55.603 85.1276 55.5149 85.4412 55.3652 85.7266Z" fill="#0C0E0F"/>
<path d="M56.4554 86.686V80.5715H57.9324V85.6374H60.5047V86.686H56.4554Z" fill="#0C0E0F"/>
<path d="M66.2767 83.625C66.2817 84.0406 66.2286 84.4549 66.1191 84.8558C66.0223 85.2136 65.8549 85.5483 65.6268 85.8404C65.3901 86.1494 65.0818 86.3961 64.7284 86.5592C64.3291 86.7337 63.8962 86.8178 63.4606 86.8054C63.0481 86.8137 62.6383 86.7366 62.257 86.5789C61.9235 86.434 61.6291 86.2121 61.3979 85.9315C61.16 85.6339 60.9842 85.2915 60.881 84.9247C60.7628 84.5026 60.7048 84.0659 60.7087 83.6275C60.7037 83.1879 60.7634 82.75 60.8859 82.3278C60.9904 81.9588 61.1697 81.6153 61.4127 81.3186C61.6498 81.0338 61.9497 80.8079 62.2889 80.6589C63.0696 80.3471 63.9403 80.3471 64.721 80.6589C65.0549 80.8065 65.3492 81.0308 65.5801 81.3136C65.8176 81.6134 65.9933 81.9573 66.097 82.3253C66.2191 82.7477 66.2796 83.1854 66.2767 83.625ZM64.7751 83.6078C64.7747 83.3171 64.7475 83.0271 64.6939 82.7413C64.6491 82.4797 64.5547 82.2291 64.4158 82.0029C64.3204 81.8478 64.1917 81.7158 64.0391 81.6164C63.8743 81.5182 63.6844 81.4703 63.4927 81.4786C63.2703 81.4692 63.0517 81.538 62.8748 81.673C62.7025 81.8139 62.5658 81.9936 62.476 82.1973C62.3822 82.4128 62.3169 82.6395 62.2816 82.8718C62.2404 83.1158 62.219 83.3628 62.2176 83.6103C62.2171 83.8789 62.2368 84.1471 62.2767 84.4127C62.3091 84.6494 62.3763 84.88 62.476 85.097C62.5633 85.2864 62.6961 85.4513 62.8625 85.577C63.0452 85.7028 63.2637 85.7659 63.4853 85.7567C63.7075 85.765 63.9266 85.702 64.1105 85.577C64.2798 85.4524 64.4151 85.2874 64.5043 85.097C64.6086 84.881 64.6792 84.6502 64.7136 84.4127C64.7542 84.1463 64.7748 83.8773 64.7751 83.6078Z" fill="#0C0E0F"/>
<path d="M72.1059 85.2485C72.0289 85.536 71.8912 85.8037 71.7022 86.0337C71.2715 86.558 70.5871 86.8214 69.6542 86.8214C69.4341 86.8217 69.2143 86.8044 68.9969 86.7697C68.7904 86.7385 68.5886 86.6815 68.3963 86.5999C68.2093 86.5222 68.035 86.4168 67.8794 86.2872C67.7158 86.1506 67.5803 85.9834 67.4806 85.7949C67.3442 85.5541 67.2525 85.2906 67.2099 85.0171C67.1712 84.7316 67.1522 84.4437 67.1532 84.1555V80.5715H68.6302V84.2762C68.6285 84.4798 68.6442 84.6832 68.677 84.8842C68.7013 85.0519 68.7599 85.2128 68.8493 85.3568C68.9317 85.4856 69.0462 85.5908 69.1815 85.662C69.3478 85.7422 69.5313 85.7802 69.7157 85.7728C69.9015 85.78 70.086 85.7402 70.2523 85.6571C70.3893 85.5837 70.5041 85.4749 70.5847 85.342C70.6735 85.1906 70.7321 85.0234 70.757 84.8497C70.7898 84.6479 70.8054 84.4437 70.8037 84.2392V80.5715H72.2265V84.158C72.2359 84.5253 72.1953 84.8921 72.1059 85.2485Z" fill="#0C0E0F"/>
<path d="M78.6854 83.6169C78.7117 84.2179 78.5855 84.8157 78.3187 85.3548C78.0893 85.7798 77.7342 86.1237 77.3021 86.3394C77.0265 86.4704 76.7341 86.5623 76.4332 86.6126C76.0874 86.6695 75.7374 86.6966 75.387 86.6939H73.4005V80.572H75.5101C75.9384 80.5662 76.3659 80.6133 76.7827 80.7123C77.1399 80.8007 77.4723 80.969 77.755 81.2046C78.0619 81.4615 78.299 81.7917 78.4442 82.1646C78.6156 82.6292 78.6974 83.122 78.6854 83.6169ZM77.1692 83.6169C77.1798 83.2477 77.1256 82.8795 77.0091 82.5289C76.917 82.2648 76.7449 82.036 76.5168 81.8742C76.3747 81.7749 76.2152 81.7031 76.0467 81.6625C75.8433 81.6155 75.635 81.5932 75.4264 81.596H74.8651V85.6625H75.4017C76.0138 85.6625 76.4611 85.5049 76.7433 85.1899C77.0256 84.8748 77.1675 84.3505 77.1692 83.6169Z" fill="#0C0E0F"/>
<path d="M93.147 76.1609H33.9714V76.3824H93.147V76.1609Z" fill="#0C0E0F"/>
<path d="M102.671 54.67C100.797 51.0836 97.9747 48.0798 94.5123 45.9853C91.0499 43.8909 87.0793 42.7859 83.0327 42.7906C82.009 42.791 80.9866 42.8634 79.973 43.0072C77.5928 38.4848 73.9429 34.7566 69.472 32.2812C65.001 29.8057 59.9041 28.6908 54.808 29.0737C49.7118 29.4566 44.8387 31.3205 40.7879 34.4362C36.737 37.552 33.6851 41.7837 32.0074 46.6109C31.5298 46.5838 31.0523 46.5666 30.5772 46.5666C27.1043 46.519 23.6565 47.1619 20.4342 48.458C17.2119 49.7541 14.2792 51.6776 11.8065 54.1166C9.33381 56.5557 7.37036 59.4617 6.03023 62.666C4.69011 65.8703 4 69.3089 4 72.7821C4 76.2553 4.69011 79.6939 6.03023 82.8982C7.37036 86.1024 9.33381 89.0085 11.8065 91.4475C14.2792 93.8866 17.2119 95.81 20.4342 97.1061C23.6565 98.4022 27.1043 99.0451 30.5772 98.9975H102.664C108.542 98.9975 114.18 96.6623 118.337 92.5056C122.493 88.3488 124.829 82.7111 124.829 76.8326C124.829 70.954 122.493 65.3163 118.337 61.1595C114.18 57.0028 108.542 54.6676 102.664 54.6676L102.671 54.67ZM102.671 93.9342H30.5772C24.968 93.9342 19.5885 91.7059 15.6222 87.7396C11.6558 83.7732 9.42754 78.3938 9.42754 72.7845C9.42754 67.1753 11.6558 61.7958 15.6222 57.8295C19.5885 53.8632 24.968 51.6349 30.5772 51.6349H30.8012C30.6368 52.8209 30.5546 54.0167 30.555 55.214C30.5552 56.1183 30.6012 57.0221 30.6929 57.9217L36.2067 60.1765C35.0225 55.2617 35.6375 50.0854 37.9403 45.5849C40.2431 41.0845 44.0815 37.5575 48.7602 35.6427C53.439 33.7279 58.6488 33.552 63.4461 35.1468C68.2434 36.7415 72.3109 40.0016 74.9121 44.3364C71.7631 45.5764 68.9393 47.5196 66.6561 50.0177L71.7589 52.1026C74.8805 49.3724 78.8856 47.8657 83.0327 47.8614C92.5293 47.8614 98.3362 55.8589 99.3651 60.0608C100.456 59.8778 101.558 59.7709 102.664 59.7408C107.198 59.7408 111.547 61.5422 114.754 64.7487C117.96 67.9551 119.761 72.3041 119.761 76.8387C119.761 81.3733 117.96 85.7223 114.754 88.9287C111.547 92.1352 107.198 93.9366 102.664 93.9366L102.671 93.9342Z" fill="#EA1B22"/>
</svg>
