<svg width="128" height="128" viewBox="0 0 128 128" fill="none" xmlns="http://www.w3.org/2000/svg">
<path fill-rule="evenodd" clip-rule="evenodd" d="M124.209 57.6634C124.228 57.3492 124.365 57.054 124.593 56.8382C124.821 56.6223 125.123 56.502 125.437 56.502C125.75 56.502 126.052 56.6223 126.28 56.8382C126.508 57.054 126.646 57.3492 126.664 57.6634C126.682 57.8356 126.663 58.0096 126.609 58.1741C126.555 58.3386 126.468 58.49 126.352 58.6184C126.237 58.7469 126.095 58.8496 125.938 58.9199C125.78 58.9902 125.609 59.0265 125.437 59.0265C125.264 59.0265 125.094 58.9902 124.936 58.9199C124.778 58.8496 124.637 58.7469 124.521 58.6184C124.406 58.49 124.318 58.3386 124.264 58.1741C124.211 58.0096 124.192 57.8356 124.209 57.6634ZM125.439 59.359C125.85 59.3503 126.241 59.1827 126.532 58.8913C126.822 58.5998 126.989 58.2069 126.998 57.7948C127.009 57.5822 126.977 57.3696 126.903 57.17C126.83 56.9703 126.717 56.7877 126.571 56.6334C126.424 56.479 126.249 56.3561 126.054 56.2721C125.859 56.1881 125.649 56.1448 125.437 56.1448C125.225 56.1448 125.015 56.1881 124.82 56.2721C124.625 56.3561 124.449 56.479 124.303 56.6334C124.157 56.7877 124.044 56.9703 123.97 57.17C123.897 57.3696 123.865 57.5822 123.876 57.7948C123.889 58.2047 124.058 58.5939 124.349 58.8819C124.64 59.1699 125.03 59.3346 125.439 59.342V59.359ZM125.325 56.7859H125.773C125.882 56.829 125.974 56.9074 126.035 57.0086C126.095 57.1098 126.12 57.2283 126.106 57.3454V57.4599C126.106 57.5701 125.997 57.6803 125.883 57.7948H125.773L126.216 58.579H125.773L125.439 57.905H125.215V58.579H124.881V56.7562L125.325 56.7859ZM125.439 57.5701C125.549 57.5701 125.659 57.5701 125.659 57.4599C125.674 57.4605 125.689 57.4579 125.703 57.4524C125.717 57.4468 125.73 57.4384 125.741 57.4277C125.751 57.4169 125.76 57.4041 125.765 57.3899C125.771 57.3758 125.773 57.3606 125.773 57.3454C125.76 57.2601 125.72 57.1813 125.659 57.1207H125.236V57.5701H125.439ZM53.6165 66.4086H61.6437L57.4188 59.4734L49.6156 72H46.0498L55.5261 57.0105C55.7237 56.7007 55.9958 56.4458 56.3173 56.2692C56.6388 56.0926 56.9995 56 57.366 56C57.7326 56 58.0933 56.0926 58.4148 56.2692C58.7364 56.4458 59.0084 56.7007 59.206 57.0105L68.7964 71.9831H65.2306L63.5407 69.1895H55.2896L53.5996 66.3917L53.6165 66.4086ZM90.5206 69.2064V56.2093H87.5125V70.4188C87.5016 70.6264 87.5356 70.8339 87.6122 71.0271C87.6887 71.2203 87.806 71.3945 87.9561 71.5379C88.261 71.8183 88.6579 71.9766 89.0714 71.9831H102.785L104.572 69.1895L90.5206 69.2064ZM40.5701 66.8537C41.2782 66.8738 41.9831 66.7512 42.6431 66.4932C43.3031 66.2352 43.9049 65.847 44.4127 65.3516C44.9206 64.8562 45.3243 64.2636 45.6 63.6089C45.8757 62.9542 46.0177 62.2507 46.0177 61.54C46.0177 60.8293 45.8757 60.1258 45.6 59.4711C45.3243 58.8164 44.9206 58.2239 44.4127 57.7285C43.9049 57.233 43.3031 56.8448 42.6431 56.5868C41.9831 56.3288 41.2782 56.2062 40.5701 56.2263H27.414V72H30.4263V59.0071H40.3505C40.6801 59.0071 41.0064 59.0723 41.3108 59.1988C41.6153 59.3254 41.892 59.5108 42.125 59.7447C42.3581 59.9785 42.5429 60.2561 42.669 60.5616C42.7951 60.8671 42.86 61.1945 42.86 61.5252C42.86 61.8558 42.7951 62.1833 42.669 62.4888C42.5429 62.7943 42.3581 63.0719 42.125 63.3057C41.892 63.5395 41.6153 63.725 41.3108 63.8515C41.0064 63.9781 40.6801 64.0432 40.3505 64.0432H31.8754L40.9124 71.9831H45.2598L39.2394 66.8368L40.5701 66.8537ZM8.80354 71.9831C7.77126 71.977 6.75032 71.7666 5.79916 71.3641C4.848 70.9616 3.98532 70.3747 3.26049 69.6372C2.53566 68.8997 1.96293 68.026 1.57509 67.0661C1.18725 66.1062 0.991905 65.079 1.00026 64.0432C0.993527 63.0129 1.19074 61.9915 1.58045 61.0383C1.97017 60.0851 2.5446 59.219 3.27049 58.4903C3.99638 57.7615 4.85926 57.1847 5.80906 56.7931C6.75887 56.4016 7.77671 56.2031 8.80354 56.2093H17.9461C18.9729 56.2031 19.9908 56.4016 20.9406 56.7931C21.8904 57.1847 22.7532 57.7615 23.4791 58.4903C24.205 59.219 24.7795 60.0851 25.1692 61.0383C25.5589 61.9915 25.7561 63.0129 25.7494 64.0432C25.7577 65.079 25.5624 66.1062 25.1746 67.0661C24.7867 68.026 24.214 68.8997 23.4892 69.6372C22.7643 70.3747 21.9016 70.9616 20.9505 71.3641C19.9993 71.7666 18.9784 71.977 17.9461 71.9831H8.80354ZM17.7222 69.1895C19.0781 69.173 20.3737 68.6249 21.3322 67.6624C22.2906 66.6999 22.8358 65.3994 22.8512 64.039C22.8311 62.6908 22.2807 61.4053 21.3199 60.4627C20.3591 59.5202 19.0659 58.9969 17.7222 59.0071H9.02747C7.68377 58.9969 6.39054 59.5202 5.42975 60.4627C4.46896 61.4053 3.91853 62.6908 3.8985 64.039C3.91384 65.3994 4.45903 66.6999 5.41747 67.6624C6.37591 68.6249 7.67157 69.173 9.02747 69.1895H17.7222ZM75.0323 71.9831C74 71.977 72.979 71.7666 72.0279 71.3641C71.0767 70.9616 70.214 70.3747 69.4892 69.6372C68.7644 68.8997 68.1917 68.026 67.8038 67.0661C67.416 66.1062 67.2206 65.079 67.229 64.0432C67.2222 63.0129 67.4195 61.9915 67.8092 61.0383C68.1989 60.0851 68.7733 59.219 69.4992 58.4903C70.2251 57.7615 71.088 57.1847 72.0378 56.7931C72.9876 56.4016 74.0054 56.2031 75.0323 56.2093H85.8479L84.065 59.0071H75.2562C73.9118 58.9969 72.6179 59.5207 71.657 60.4642C70.6961 61.4077 70.1461 62.6943 70.1272 64.0432C70.1426 65.4033 70.6879 66.7033 71.6464 67.6651C72.605 68.6269 73.9007 69.1741 75.2562 69.1895H86.0718L84.3819 71.9873H75.0153L75.0323 71.9831ZM111.936 69.1895C110.832 69.1822 109.76 68.8195 108.877 68.1548C107.994 67.4901 107.347 66.5585 107.031 65.4972H119.968L121.751 62.6994H107.035C107.35 61.6384 107.997 60.7069 108.879 60.0422C109.761 59.3775 110.833 59.0147 111.936 59.0071H120.859L122.642 56.2093H111.717C109.648 56.2149 107.666 57.0415 106.204 58.5085C104.741 59.9755 103.916 61.9637 103.909 64.039C103.911 66.1262 104.731 68.1291 106.191 69.6153C107.652 71.1015 109.637 71.9519 111.717 71.9831H121.079L122.866 69.1852H111.936V69.1895Z" fill="#EA1B22"/>
</svg>
