<svg width="128" height="128" viewBox="0 0 128 128" fill="none" xmlns="http://www.w3.org/2000/svg">
<path fill-rule="evenodd" clip-rule="evenodd" d="M121.557 43.5817C121.574 43.283 121.705 43.0023 121.923 42.797C122.141 42.5917 122.429 42.4774 122.728 42.4774C123.027 42.4774 123.315 42.5917 123.533 42.797C123.75 43.0023 123.881 43.283 123.899 43.5817C123.915 43.7455 123.898 43.9109 123.846 44.0673C123.795 44.2238 123.712 44.3677 123.601 44.4899C123.491 44.612 123.356 44.7097 123.206 44.7765C123.055 44.8433 122.892 44.8779 122.728 44.8779C122.563 44.8779 122.4 44.8433 122.25 44.7765C122.099 44.7097 121.965 44.612 121.854 44.4899C121.744 44.3677 121.66 44.2238 121.609 44.0673C121.558 43.9109 121.54 43.7455 121.557 43.5817ZM122.73 45.1941C123.122 45.1858 123.495 45.0265 123.772 44.7493C124.05 44.4721 124.209 44.0985 124.217 43.7066C124.228 43.5045 124.197 43.3024 124.127 43.1125C124.057 42.9227 123.949 42.7491 123.809 42.6023C123.67 42.4555 123.502 42.3386 123.316 42.2587C123.13 42.1789 122.93 42.1377 122.728 42.1377C122.525 42.1377 122.325 42.1789 122.139 42.2587C121.953 42.3386 121.785 42.4555 121.646 42.6023C121.507 42.7491 121.399 42.9227 121.329 43.1125C121.258 43.3024 121.228 43.5045 121.238 43.7066C121.251 44.0964 121.412 44.4665 121.69 44.7404C121.968 45.0142 122.34 45.1709 122.73 45.1779V45.1941ZM122.621 42.7473H123.048C123.153 42.7883 123.24 42.8628 123.298 42.9591C123.356 43.0553 123.38 43.168 123.367 43.2794V43.3882C123.367 43.493 123.262 43.5978 123.153 43.7066H123.048L123.472 44.4524H123.048L122.73 43.8114H122.516V44.4524H122.198V42.719L122.621 42.7473ZM122.73 43.493C122.835 43.493 122.939 43.493 122.939 43.3882C122.954 43.3888 122.968 43.3863 122.982 43.3811C122.995 43.3758 123.007 43.3678 123.018 43.3576C123.028 43.3473 123.036 43.3351 123.041 43.3217C123.046 43.3082 123.049 43.2938 123.048 43.2794C123.036 43.1982 122.998 43.1233 122.939 43.0657H122.536V43.493H122.73ZM54.2025 51.8975H61.8614L57.8304 45.3029L50.3851 57.2144H46.983L56.0245 42.9609C56.213 42.6663 56.4726 42.4239 56.7794 42.2559C57.0862 42.088 57.4303 42 57.78 42C58.1298 42 58.4739 42.088 58.7807 42.2559C59.0875 42.4239 59.3471 42.6663 59.5356 42.9609L68.686 57.1983H65.2838L63.6714 54.5419H55.7988L54.1864 51.8814L54.2025 51.8975ZM89.4135 54.558V42.1991H86.5434V55.7108C86.533 55.9083 86.5654 56.1056 86.6385 56.2893C86.7115 56.4729 86.8235 56.6386 86.9666 56.775C87.2576 57.0416 87.6362 57.1922 88.0308 57.1983H101.115L102.821 54.5419L89.4135 54.558ZM41.7547 52.3208C42.4303 52.3399 43.1028 52.2233 43.7325 51.978C44.3622 51.7326 44.9364 51.3635 45.421 50.8924C45.9056 50.4213 46.2908 49.8578 46.5538 49.2353C46.8168 48.6128 46.9524 47.9438 46.9524 47.268C46.9524 46.5922 46.8168 45.9232 46.5538 45.3007C46.2908 44.6781 45.9056 44.1147 45.421 43.6436C44.9364 43.1725 44.3622 42.8034 43.7325 42.558C43.1028 42.3127 42.4303 42.1961 41.7547 42.2152H29.2022V57.2144H32.0763V44.8595H41.5451C41.8596 44.8595 42.1709 44.9214 42.4614 45.0417C42.7519 45.1621 43.0159 45.3384 43.2382 45.5608C43.4606 45.7831 43.6369 46.0471 43.7573 46.3376C43.8776 46.6281 43.9395 46.9394 43.9395 47.2539C43.9395 47.5683 43.8776 47.8797 43.7573 48.1702C43.6369 48.4607 43.4606 48.7246 43.2382 48.947C43.0159 49.1693 42.7519 49.3457 42.4614 49.466C42.1709 49.5863 41.8596 49.6483 41.5451 49.6483H33.4589L42.0812 57.1983H46.2292L40.485 52.3047L41.7547 52.3208ZM11.4455 57.1983C10.4606 57.1925 9.4865 56.9925 8.57898 56.6097C7.67146 56.2269 6.84835 55.6689 6.15678 54.9676C5.46521 54.2663 4.91875 53.4355 4.5487 52.5227C4.17865 51.61 3.99228 50.6332 4.00025 49.6483C3.99382 48.6686 4.18198 47.6974 4.55382 46.7909C4.92566 45.8845 5.47374 45.0609 6.16633 44.368C6.85891 43.675 7.6822 43.1265 8.58843 42.7542C9.49466 42.3818 10.4658 42.1932 11.4455 42.1991H20.1686C21.1484 42.1932 22.1195 42.3818 23.0257 42.7542C23.932 43.1265 24.7552 43.675 25.4478 44.368C26.1404 45.0609 26.6885 45.8845 27.0603 46.7909C27.4322 47.6974 27.6203 48.6686 27.6139 49.6483C27.6219 50.6332 27.4355 51.61 27.0655 52.5227C26.6954 53.4355 26.149 54.2663 25.4574 54.9676C24.7658 55.6689 23.9427 56.2269 23.0352 56.6097C22.1277 56.9925 21.1536 57.1925 20.1686 57.1983H11.4455ZM19.955 54.5419C21.2487 54.5261 22.4849 54.005 23.3994 53.0898C24.3138 52.1746 24.834 50.9379 24.8486 49.6442C24.8295 48.3623 24.3044 47.1399 23.3877 46.2436C22.4709 45.3473 21.237 44.8498 19.955 44.8595H11.6592C10.3771 44.8498 9.14322 45.3473 8.22651 46.2436C7.3098 47.1399 6.78463 48.3623 6.76552 49.6442C6.78016 50.9379 7.30033 52.1746 8.2148 53.0898C9.12927 54.005 10.3655 54.5261 11.6592 54.5419H19.955ZM74.6357 57.1983C73.6508 57.1925 72.6767 56.9925 71.7692 56.6097C70.8617 56.2269 70.0386 55.6689 69.347 54.9676C68.6554 54.2663 68.109 53.4355 67.7389 52.5227C67.3689 51.61 67.1825 50.6332 67.1905 49.6483C67.184 48.6686 67.3722 47.6974 67.744 46.7909C68.1159 45.8845 68.664 45.0609 69.3565 44.368C70.0491 43.675 70.8724 43.1265 71.7786 42.7542C72.6849 42.3818 73.656 42.1932 74.6357 42.1991H84.9551L83.2541 44.8595H74.8494C73.5667 44.8498 72.3321 45.3479 71.4153 46.245C70.4985 47.1422 69.9738 48.3656 69.9557 49.6483C69.9704 50.9416 70.4907 52.1778 71.4053 53.0924C72.3198 54.0069 73.5561 54.5272 74.8494 54.5419H85.1688L83.5564 57.2023H74.6196L74.6357 57.1983ZM109.847 54.5419C108.793 54.5349 107.77 54.1901 106.928 53.558C106.085 52.9259 105.468 52.0401 105.167 51.0309H117.51L119.211 48.3705H105.171C105.471 47.3616 106.088 46.4758 106.93 45.8437C107.771 45.2117 108.794 44.8666 109.847 44.8595H118.36L120.061 42.1991H109.637C107.664 42.2044 105.773 42.9903 104.377 44.3853C102.981 45.7803 102.194 47.6709 102.188 49.6442C102.19 51.629 102.972 53.5335 104.365 54.9467C105.759 56.36 107.652 57.1686 109.637 57.1983H118.57L120.275 54.5378H109.847V54.5419Z" fill="#EA1B22"/>
<path d="M46.0441 83.8336C45.7887 84.3082 45.4323 84.721 45.0001 85.0429C44.5592 85.3687 44.0575 85.6031 43.5247 85.7322C42.9452 85.8801 42.3492 85.9533 41.7511 85.9499C40.9361 85.9671 40.126 85.8204 39.3688 85.5186C38.7181 85.2492 38.1416 84.8276 37.6878 84.2891C37.2246 83.7231 36.8842 83.0669 36.6881 82.3623C36.2366 80.6858 36.2366 78.9196 36.6881 77.243C36.893 76.5094 37.2425 75.8241 37.716 75.2275C38.1729 74.6662 38.7576 74.2225 39.4212 73.9336C40.1764 73.6127 40.9912 73.4561 41.8115 73.474C42.5932 73.4648 43.3697 73.6015 44.1012 73.8771C44.7833 74.1397 45.3714 74.6001 45.7901 75.1993C45.9986 75.4921 46.1567 75.8178 46.2577 76.1627C46.3738 76.5627 46.4388 76.9758 46.4512 77.3921H43.5005C43.4924 76.8801 43.3088 76.3864 42.9805 75.9934C42.8259 75.8382 42.6407 75.7168 42.4367 75.637C42.2327 75.5572 42.0143 75.5207 41.7954 75.5298C41.3703 75.5152 40.9535 75.6508 40.6184 75.9128C40.2978 76.1835 40.0417 76.5222 39.8686 76.9044C39.67 77.3441 39.5344 77.8095 39.4655 78.287C39.3811 78.8068 39.3393 79.3325 39.3405 79.8591C39.3389 80.3589 39.3807 80.858 39.4655 81.3506C39.5333 81.796 39.6692 82.2283 39.8686 82.6324C40.0422 82.9871 40.2978 83.2952 40.6143 83.5313C40.9449 83.7681 41.3447 83.8886 41.7511 83.8739C42.2092 83.8897 42.6552 83.7247 42.9926 83.4144C43.3537 83.0413 43.5622 82.5467 43.5771 82.0277H46.5278C46.4951 82.657 46.3302 83.2723 46.0441 83.8336Z" fill="#0C0E0F"/>
<path d="M48.1876 85.7339V73.7217H51.0738V83.6741H56.1287V85.7339H48.1876Z" fill="#0C0E0F"/>
<path d="M67.4759 79.719C67.4849 80.5355 67.3818 81.3493 67.1695 82.1376C66.9789 82.8325 66.6559 83.484 66.2182 84.0564C65.7501 84.6618 65.1431 85.1457 64.4486 85.4672C62.904 86.1116 61.1695 86.1304 59.6113 85.5196C58.9541 85.235 58.3739 84.7985 57.9183 84.2458C57.4516 83.6622 57.1074 82.9904 56.9065 82.2706C56.6727 81.4406 56.5586 80.5814 56.5679 79.719C56.5591 78.8562 56.6759 77.9967 56.9146 77.1674C57.1213 76.4427 57.4738 75.7679 57.9506 75.1842C58.4166 74.6247 59.0057 74.1805 59.6718 73.8862C61.2054 73.2749 62.915 73.2749 64.4486 73.8862C65.1067 74.1768 65.6868 74.6187 66.1416 75.1761C66.6072 75.7635 66.9511 76.4377 67.1534 77.1594C67.3825 77.9928 67.4912 78.8548 67.4759 79.719ZM64.5252 79.6868C64.5251 79.1146 64.4711 78.5437 64.3639 77.9817C64.2781 77.4673 64.0933 76.9745 63.8197 76.5306C63.6328 76.2266 63.3808 75.9678 63.082 75.7727C62.7569 75.5803 62.3834 75.4852 62.0058 75.4986C61.5705 75.4825 61.1431 75.6179 60.7965 75.8816C60.4599 76.1591 60.1921 76.511 60.0144 76.9095C59.823 77.3335 59.6875 77.7807 59.6113 78.2397C59.532 78.7234 59.4916 79.2127 59.4904 79.7029C59.4886 80.2304 59.5263 80.7572 59.6033 81.279C59.6714 81.745 59.8072 82.1986 60.0064 82.6254C60.1747 82.998 60.4355 83.3213 60.7642 83.5646C61.1185 83.8105 61.5424 83.9362 61.9735 83.9233C62.4044 83.9348 62.8279 83.8092 63.1828 83.5646C63.5175 83.3224 63.7852 82.9993 63.9608 82.6254C64.16 82.1986 64.2958 81.745 64.3639 81.279C64.4622 80.7536 64.5187 80.2212 64.5332 79.6868H64.5252Z" fill="#0C0E0F"/>
<path d="M78.9364 82.9082C78.7824 83.4763 78.5074 84.0043 78.1302 84.4561C77.2783 85.4827 75.9346 85.9973 74.0992 86C73.6659 86.0012 73.2331 85.9675 72.8052 85.8992C72.3991 85.8393 72.0023 85.7282 71.6241 85.5687C71.2561 85.416 70.9136 85.208 70.6083 84.9519C70.2885 84.6837 70.0231 84.3566 69.8263 83.9885C69.5585 83.5154 69.3782 82.9979 69.2942 82.4608C69.2155 81.9 69.1778 81.3341 69.1813 80.7678V73.7217H72.0675V80.9774C72.0648 81.3824 72.0958 81.7869 72.1602 82.1867C72.211 82.5163 72.326 82.8327 72.4988 83.1178C72.6608 83.3702 72.8859 83.5759 73.1519 83.7144C73.4796 83.8717 73.8407 83.9464 74.2039 83.9321C74.5681 83.9466 74.93 83.869 75.2561 83.7064C75.5257 83.5621 75.7513 83.3476 75.9091 83.0856C76.0828 82.795 76.1978 82.4732 76.2477 82.1383C76.3118 81.7385 76.3428 81.334 76.3404 80.929V73.7217H79.1621V80.7678C79.1848 81.4882 79.1088 82.2084 78.9364 82.9082Z" fill="#0C0E0F"/>
<path d="M91.8675 79.7045C91.9197 80.8853 91.6714 82.06 91.1459 83.1187C90.6887 83.9514 89.9846 84.6218 89.1304 85.0375C88.5909 85.2983 88.0166 85.4802 87.4253 85.5776C86.7443 85.6877 86.0553 85.7403 85.3655 85.7348H81.4634V73.7226H85.6154C86.4565 73.7116 87.2958 73.8036 88.1146 73.9967C88.8251 74.1689 89.4869 74.5012 90.0495 74.9681C90.6541 75.4715 91.1203 76.1208 91.4039 76.8546C91.7369 77.7668 91.8942 78.7338 91.8675 79.7045ZM88.8845 79.7045C88.906 78.9794 88.7996 78.2562 88.5701 77.5681C88.3937 77.0502 88.0596 76.6006 87.6147 76.2822C87.3338 76.0908 87.0193 75.954 86.6876 75.8791C86.2914 75.7857 85.8853 75.7411 85.4783 75.7461H84.3779V83.7355H85.434C86.6433 83.7355 87.514 83.4291 88.0662 82.8083C88.6185 82.1876 88.8845 81.1436 88.8845 79.7045Z" fill="#0C0E0F"/>
<path d="M120.278 65.053H4.00319V65.4883H120.278V65.053Z" fill="#0C0E0F"/>
</svg>
