<svg width="128" height="128" viewBox="0 0 128 128" fill="none" xmlns="http://www.w3.org/2000/svg">
<path d="M14.2585 46.4108H31.6101C36.703 46.4537 40.3935 47.9274 42.6815 50.8293C44.9696 53.7312 45.7245 57.6949 44.9476 62.7203C44.6459 65.0166 43.9764 67.2687 42.9405 69.478C41.9337 71.7073 40.5294 73.7333 38.7968 75.4559C36.6383 77.7081 34.3294 79.1376 31.8691 79.7445C29.3684 80.356 26.8031 80.6614 24.2292 80.6542H16.4598L13.9995 93H5L14.2585 46.4108ZM21.8337 53.8183L17.949 73.3117C18.208 73.3546 18.4669 73.3767 18.7259 73.3767H19.6323C23.776 73.4196 27.2295 73.0089 29.9915 72.1421C32.7536 71.2324 34.6104 68.0705 35.5596 62.6553C36.3365 58.1068 35.5596 55.4856 33.2288 54.7929C30.9407 54.1003 28.0712 53.7754 24.6177 53.8183C24.0997 53.8612 23.6038 53.8833 23.1286 53.8833H21.7689L21.8337 53.8183ZM55.1993 34H64.1341L61.609 46.4108H69.6374C74.04 46.4978 77.32 47.4075 79.4786 49.1399C81.6799 50.8722 82.3274 54.1652 81.421 59.0165L77.083 80.6542H68.0188L72.1624 59.9912C72.5937 57.8248 72.4642 56.2874 71.774 55.3778C71.0838 54.4681 69.5946 54.0132 67.3066 54.0132L60.1199 53.9482L54.8108 80.6542H45.876L55.1993 34ZM91.0154 46.4108H108.367C113.46 46.4537 117.15 47.9274 119.438 50.8293C121.726 53.7312 122.481 57.6949 121.704 62.7203C121.403 65.0166 120.733 67.2687 119.697 69.478C118.691 71.7073 117.286 73.7333 115.554 75.4559C113.395 77.7081 111.086 79.1376 108.626 79.7445C106.125 80.356 103.56 80.6614 100.986 80.6542H93.2167L90.7564 93H81.7569L91.0154 46.4108ZM98.5906 53.8183L94.7059 73.3117C94.9648 73.3546 95.2238 73.3767 95.4828 73.3767H96.3892C100.533 73.4196 103.986 73.0089 106.748 72.1421C109.51 71.2324 111.367 68.0705 112.316 62.6553C113.093 58.1068 112.316 55.4856 109.986 54.7929C107.698 54.1003 104.828 53.7754 101.375 53.8183C100.857 53.8612 100.361 53.8833 99.8855 53.8833H98.5258L98.5906 53.8183Z" fill="black"/>
</svg>
