<svg width="128" height="128" viewBox="0 0 128 128" fill="none" xmlns="http://www.w3.org/2000/svg">
<path d="M14.5 52C12.0282 52 9.61193 52.7328 7.55657 54.1058C5.5012 55.4788 3.89904 57.4304 2.95261 59.7138C2.00618 61.9972 1.75797 64.5099 2.23935 66.9344C2.72073 69.3588 3.9101 71.5861 5.6571 73.3348C7.40411 75.0834 9.63032 76.2748 12.0543 76.7584C14.4783 77.242 16.9913 76.9961 19.2756 76.0518C21.5598 75.1075 23.5129 73.5071 24.8878 71.453C26.2627 69.3989 26.9977 66.9833 27 64.5115C27.001 62.8692 26.6784 61.2427 26.0508 59.725C25.4231 58.2074 24.5026 56.8282 23.3418 55.6664C22.181 54.5045 20.8027 53.5827 19.2856 52.9536C17.7685 52.3246 16.1423 52.0005 14.5 52ZM14.5 75.3967C12.5362 75.3967 10.9445 74.085 10.9445 72.4664H18.0594C18.0594 74.0927 16.4638 75.3967 14.5 75.3967ZM20.376 71.5037H8.6278V69.375H20.3684V71.5037H20.376ZM20.3338 68.278H8.65848L8.54342 68.1438C7.75824 67.2744 7.15913 66.2537 6.78291 65.1444C6.78291 65.1175 8.24041 65.4435 9.27984 65.6775C9.71709 65.7734 10.1543 65.8616 10.5954 65.9422C9.83698 65.0714 9.41283 63.9594 9.39874 62.8047C9.39874 60.3001 11.3165 58.11 10.6261 56.3418C11.3012 56.3955 12.0222 57.7648 12.0721 59.905C12.7893 58.9155 13.0885 57.1051 13.0885 55.9966C13.0885 54.8882 13.8556 53.5112 14.6227 53.4652C13.9477 54.5775 14.7992 55.5325 15.5548 57.899C15.8386 58.7889 15.8002 60.2847 16.0189 61.2321C16.0917 59.2607 16.4293 56.384 17.6796 55.3944C17.1312 56.641 17.764 58.2097 18.1974 58.9615C18.9495 60.1095 19.3335 61.4596 19.2982 62.8315C19.2953 63.9755 18.8877 65.0815 18.1476 65.9537C18.9722 65.7964 19.5437 65.6583 19.5437 65.6583L22.2286 65.1329C21.8675 66.3195 21.2209 67.3994 20.3453 68.278H20.3338Z" fill="#DA4E31"/>
<path d="M32.0001 59.0888C33.0511 58.9192 34.1144 58.8371 35.1791 58.8433C36.4608 58.7333 37.7383 59.0973 38.7683 59.8662C39.1427 60.2095 39.4382 60.6295 39.6347 61.0974C39.8312 61.5653 39.9239 62.07 39.9066 62.577C39.9263 63.0774 39.8458 63.5767 39.6698 64.0457C39.4937 64.5147 39.2255 64.9439 38.8811 65.3083C38.3547 65.7904 37.7369 66.1628 37.0642 66.4034C36.3915 66.6441 35.6773 66.7482 34.9637 66.7097C34.517 66.7208 34.0703 66.6865 33.6306 66.6074V71.7221H32.0103L32.0001 59.0888ZM33.6408 65.2264C34.0918 65.3261 34.5532 65.3708 35.015 65.3594C37.0044 65.3594 38.2248 64.3365 38.2248 62.6486C38.2248 60.9608 37.0044 60.1322 35.1996 60.1322C34.6766 60.1151 34.1533 60.1597 33.6408 60.2652V65.2264ZM41.7319 65.3799L41.6601 62.5156H43.1266L43.1984 64.3365H43.2599C43.414 63.7681 43.7456 63.2634 44.2065 62.8955C44.6675 62.5277 45.2339 62.3158 45.8236 62.2906C45.9738 62.28 46.1246 62.28 46.2748 62.2906V63.8659C45.9542 63.8031 45.6241 63.8071 45.3051 63.8776C44.9862 63.9482 44.6853 64.0838 44.4214 64.2759C44.1575 64.4681 43.9363 64.7126 43.7717 64.9941C43.6071 65.2756 43.5027 65.5881 43.465 65.9118C43.4237 66.1689 43.4032 66.4289 43.4035 66.6892V71.5789H41.7319V65.2673V65.3799ZM56.0887 67.0166C56.1404 67.6431 56.0599 68.2734 55.8525 68.867C55.6451 69.4606 55.3153 70.0042 54.8844 70.4629C54.4535 70.9216 53.9311 71.2852 53.3508 71.5303C52.7705 71.7753 52.1451 71.8964 51.5151 71.8857C50.9069 71.8919 50.3041 71.7717 49.7451 71.5326C49.1861 71.2936 48.6831 70.941 48.2683 70.4974C47.8534 70.0537 47.5358 69.5287 47.3356 68.9558C47.1354 68.383 47.057 67.7748 47.1055 67.17C47.0523 66.5454 47.1311 65.9166 47.3368 65.3243C47.5425 64.7319 47.8705 64.1892 48.2997 63.7313C48.7288 63.2733 49.2495 62.9103 49.8281 62.6657C50.4067 62.421 51.0303 62.3002 51.6586 62.3111C54.3044 62.3111 56.0887 64.2239 56.0887 67.0166ZM48.818 67.1086C48.818 69.1545 49.9461 70.6378 51.5868 70.6378C53.2276 70.6378 54.3762 69.134 54.3762 67.0677C54.3762 65.5128 53.5968 63.5693 51.6279 63.5693C49.6589 63.5693 48.818 65.3799 48.818 67.1086ZM58.2012 64.9809L58.1192 62.5054H59.5856L59.6574 63.9989H59.719C59.9964 63.4753 60.4153 63.0397 60.9283 62.7414C61.4412 62.4431 62.0276 62.294 62.6211 62.3111C63.1913 62.3074 63.7482 62.4834 64.2123 62.814C64.6763 63.1447 65.0239 63.613 65.2053 64.1523C65.4561 63.684 65.806 63.2756 66.2308 62.9555C66.8145 62.5016 67.5426 62.2728 68.2818 62.3111C69.5226 62.3111 71.3582 63.1089 71.3582 66.3005V71.6607H69.7174V66.546C69.7174 64.7661 69.0509 63.7227 67.728 63.7227C67.282 63.7393 66.8516 63.8911 66.4943 64.1579C66.137 64.4248 65.8698 64.7939 65.7283 65.2162C65.6483 65.4855 65.6035 65.764 65.595 66.0448V71.6607H63.9542V66.1675C63.9542 64.715 63.3082 63.6716 62.0366 63.6716C61.4284 63.7419 60.8674 64.0332 60.4608 64.4898C60.0541 64.9464 59.8302 65.5363 59.8318 66.1471V71.6709H58.2012V64.9605V64.9809ZM74.9679 67.3951C74.9213 67.8243 74.9702 68.2585 75.1111 68.6668C75.252 69.075 75.4815 69.4473 75.7831 69.7569C76.0847 70.0666 76.4511 70.3061 76.8562 70.4584C77.2612 70.6106 77.6949 70.6719 78.1264 70.6378C78.9986 70.6703 79.8672 70.5096 80.6696 70.1672L80.9773 71.364C80.004 71.7711 78.9559 71.9697 77.9008 71.9471C77.2859 71.9833 76.6705 71.8869 76.0963 71.6644C75.5222 71.4419 75.0028 71.0987 74.5736 70.6579C74.1445 70.2172 73.8156 69.6894 73.6093 69.1105C73.4031 68.5315 73.3243 67.915 73.3784 67.303C73.3784 64.5411 75.009 62.3827 77.6855 62.3827C80.7107 62.3827 81.49 64.9911 81.49 66.679C81.495 66.9395 81.4744 67.1999 81.4285 67.4564L74.9679 67.3951ZM79.9005 66.2187C79.9472 65.8863 79.9223 65.5479 79.8276 65.2259C79.7328 64.9038 79.5704 64.6056 79.3512 64.3511C79.1319 64.0966 78.8608 63.8916 78.5559 63.7497C78.251 63.6078 77.9193 63.5324 77.5829 63.5284C76.8953 63.5744 76.25 63.8766 75.7752 64.3749C75.3003 64.8732 75.0305 65.5313 75.0192 66.2187H79.9005ZM85.6022 60.3266V62.5259H87.9916V63.7943H85.5715V68.7453C85.5715 69.8706 85.8894 70.5252 86.8226 70.5252C87.1675 70.5385 87.5126 70.504 87.848 70.4229L87.9198 71.6914C87.4422 71.8422 86.9441 71.9181 86.4431 71.9164C86.1094 71.9324 85.7761 71.8778 85.465 71.7561C85.1539 71.6345 84.8722 71.4486 84.6383 71.2106C84.1383 70.5137 83.9087 69.6596 83.9922 68.8067V63.7943H82.5155V62.5259H84.0025V60.838L85.6022 60.3266ZM89.8785 58.2807H91.55V64.0194C91.8268 63.5175 92.2389 63.1029 92.7396 62.8225C93.2614 62.5262 93.8518 62.3711 94.4522 62.3724C95.6828 62.3724 97.6619 63.1294 97.6619 66.2698V71.6607H96.0007V66.4028C96.0007 64.9195 95.4469 63.692 93.8779 63.692C93.381 63.7043 92.8997 63.8676 92.4984 64.16C92.0971 64.4525 91.7948 64.8603 91.6321 65.3287C91.5496 65.5827 91.5148 65.8498 91.5295 66.1164V71.6607H89.858V58.25L89.8785 58.2807ZM101.354 67.4871C101.32 67.9095 101.378 68.3342 101.525 68.7319C101.671 69.1295 101.903 69.4907 102.203 69.7903C102.504 70.0899 102.866 70.3209 103.264 70.4672C103.663 70.6135 104.089 70.6717 104.512 70.6378C105.384 70.6703 106.253 70.5096 107.055 70.1672L107.363 71.364C106.391 71.7735 105.342 71.9722 104.287 71.9471C101.456 71.9471 99.7744 70.0751 99.7744 67.303C99.7744 64.5308 101.405 62.3827 104.092 62.3827C107.107 62.3827 107.886 64.9911 107.886 66.679C107.896 66.9396 107.876 67.2006 107.825 67.4564L101.354 67.4871ZM106.256 66.2903C106.322 65.9463 106.312 65.5918 106.224 65.2524C106.137 64.913 105.975 64.5972 105.75 64.328C105.526 64.0587 105.244 63.8427 104.925 63.6955C104.606 63.5484 104.258 63.4738 103.907 63.4772C103.219 63.521 102.572 63.8224 102.097 64.3212C101.621 64.82 101.352 65.4794 101.343 66.1675L106.256 66.2903ZM117.628 69.267L117.71 71.7937H116.192L116.1 70.29C115.79 70.8258 115.341 71.2678 114.799 71.5686C114.257 71.8695 113.644 72.018 113.024 71.9983C111.578 71.9983 109.845 71.1799 109.845 67.9781V62.6179H111.516V67.7326C111.516 69.4716 112.07 70.6684 113.567 70.6684C114.066 70.6557 114.548 70.4883 114.947 70.1894C115.346 69.8906 115.641 69.4752 115.793 69.0011C115.895 68.7261 115.947 68.4351 115.946 68.1418V62.5361H117.618L117.628 69.267ZM120.171 70.1058C120.85 70.4976 121.613 70.7188 122.397 70.7503C123.596 70.7503 124.161 70.157 124.161 69.3795C124.161 68.6021 123.689 68.1725 122.468 67.7122C120.797 67.1086 120.007 66.2187 120.007 65.1139C120.007 63.6409 121.228 62.4236 123.186 62.4236C123.97 62.4033 124.745 62.6017 125.422 62.9964L125.012 64.2137C124.452 63.8542 123.801 63.6624 123.135 63.6613C122.11 63.6613 121.617 64.2239 121.617 64.9093C121.617 65.5947 122.14 66.0141 123.34 66.4846C124.919 67.0677 125.75 67.8656 125.75 69.2261C125.75 70.8628 124.478 71.9983 122.335 71.9983C121.432 72.0095 120.542 71.7875 119.751 71.3538L120.171 70.1058Z" fill="#E6522C"/>
</svg>
