<svg width="128" height="128" viewBox="0 0 128 128" fill="none" xmlns="http://www.w3.org/2000/svg">
<path d="M64 16C57.079 16 50.3134 18.0519 44.5584 21.8963C38.8034 25.7408 34.3173 31.2051 31.6673 37.5986C29.0173 43.9922 28.3223 51.0279 29.6702 57.8163C31.0181 64.6048 34.3483 70.8412 39.2399 75.7373C44.1315 80.6335 50.3649 83.9694 57.1521 85.3235C63.9393 86.6777 70.9756 85.9891 77.3716 83.345C83.7676 80.7009 89.2361 76.2199 93.0858 70.4684C96.9355 64.7169 98.9936 57.9532 99 51.0322C99.0028 46.4336 98.0997 41.8795 96.3422 37.6301C94.5846 33.3806 92.0072 29.519 88.757 26.2658C85.5068 23.0126 81.6476 20.4316 77.3997 18.6702C73.1518 16.9087 68.5986 16.0014 64 16ZM64 81.5109C58.5014 81.5109 54.0445 77.838 54.0445 73.3059H73.9662C73.9662 77.8595 69.4986 81.5109 64 81.5109ZM80.4529 70.6103H47.5578V64.6499H80.4314V70.6103H80.4529ZM80.3348 61.5784H47.6438L47.3216 61.2025C45.1231 58.7684 43.4456 55.9104 42.3921 52.8042C42.3921 52.729 46.4732 53.6419 49.3836 54.297C50.6079 54.5655 51.8322 54.8125 53.0672 55.038C50.9436 52.5999 49.7559 49.4862 49.7165 46.2531C49.7165 39.2403 55.0862 33.108 53.1531 28.1571C55.0433 28.3075 57.0623 32.1415 57.2019 38.1341C59.2102 35.3633 60.0479 30.2943 60.0479 27.1905C60.0479 24.0868 62.1958 20.2314 64.3437 20.1025C62.4535 23.2169 64.8377 25.8911 66.9534 32.5173C67.7481 35.0089 67.6407 39.1973 68.2528 41.8499C68.4569 36.3299 69.402 28.2752 72.903 25.5044C71.3673 28.9948 73.1393 33.3872 74.3529 35.4922C76.4585 38.7067 77.5337 42.4869 77.4351 46.3283C77.427 49.5313 76.2857 52.6281 74.2132 55.0703C76.5222 54.6299 78.1224 54.2433 78.1224 54.2433L85.6401 52.772C84.6291 56.0946 82.8185 59.1184 80.367 61.5784H80.3348Z" fill="#DA4E31"/>
<path d="M3 95.0981C4.36772 94.8761 5.75147 94.7686 7.13695 94.7767C8.80489 94.6326 10.4674 95.1093 11.8077 96.1158C12.2949 96.5652 12.6795 97.115 12.9352 97.7275C13.1909 98.34 13.3116 99.0008 13.289 99.6645C13.3147 100.32 13.21 100.973 12.9808 101.587C12.7517 102.201 12.4028 102.763 11.9545 103.24C11.2694 103.871 10.4656 104.359 9.59016 104.674C8.71473 104.989 7.78538 105.125 6.85671 105.074C6.27539 105.089 5.69411 105.044 5.12186 104.941V111.636H3.01335L3 95.0981ZM5.1352 103.133C5.72205 103.263 6.32253 103.322 6.92343 103.307C9.51236 103.307 11.1004 101.968 11.1004 99.7582C11.1004 97.5487 9.51236 96.464 7.16364 96.464C6.48302 96.4415 5.80214 96.5 5.1352 96.6381V103.133ZM15.6644 103.334L15.571 99.5841H17.4793L17.5727 101.968H17.6528C17.8534 101.224 18.2848 100.563 18.8847 100.081C19.4845 99.5999 20.2216 99.3225 20.9891 99.2895C21.1845 99.2757 21.3808 99.2757 21.5762 99.2895V101.352C21.1591 101.269 20.7294 101.275 20.3144 101.367C19.8993 101.459 19.5077 101.637 19.1643 101.888C18.8209 102.14 18.5331 102.46 18.3189 102.829C18.1047 103.197 17.9688 103.606 17.9197 104.03C17.866 104.367 17.8392 104.707 17.8396 105.048V111.449H15.6644V103.186V103.334ZM34.3474 105.476C34.4146 106.296 34.3099 107.122 34.04 107.899C33.77 108.676 33.3409 109.387 32.7802 109.988C32.2195 110.588 31.5396 111.064 30.7844 111.385C30.0293 111.706 29.2155 111.864 28.3955 111.85C27.6041 111.859 26.8197 111.701 26.0922 111.388C25.3648 111.075 24.7103 110.614 24.1704 110.033C23.6305 109.452 23.2172 108.765 22.9566 108.015C22.6961 107.265 22.5941 106.469 22.6572 105.677C22.588 104.859 22.6905 104.036 22.9582 103.261C23.2259 102.485 23.6528 101.775 24.2112 101.176C24.7697 100.576 25.4473 100.101 26.2002 99.7805C26.9532 99.4603 27.7647 99.3021 28.5824 99.3163C32.0254 99.3163 34.3474 101.82 34.3474 105.476ZM24.8858 105.597C24.8858 108.275 26.3538 110.217 28.489 110.217C30.6242 110.217 32.1188 108.248 32.1188 105.543C32.1188 103.508 31.1046 100.963 28.5423 100.963C25.9801 100.963 24.8858 103.334 24.8858 105.597ZM37.0965 102.811L36.9897 99.5707H38.8981L38.9915 101.526H39.0715C39.4326 100.84 39.9778 100.27 40.6453 99.8796C41.3127 99.4891 42.0759 99.2939 42.8482 99.3163C43.5903 99.3114 44.315 99.5419 44.9189 99.9747C45.5227 100.408 45.975 101.021 46.2111 101.727C46.5375 101.114 46.9928 100.579 47.5456 100.16C48.3052 99.5657 49.2528 99.2662 50.2146 99.3163C51.8294 99.3163 54.2181 100.361 54.2181 104.539V111.556H52.0829V104.86C52.0829 102.53 51.2155 101.164 49.494 101.164C48.9136 101.186 48.3535 101.385 47.8886 101.734C47.4236 102.083 47.0759 102.567 46.8917 103.119C46.7876 103.472 46.7293 103.837 46.7182 104.204V111.556H44.583V104.365C44.583 102.463 43.7423 101.097 42.0875 101.097C41.296 101.189 40.5661 101.571 40.0369 102.168C39.5077 102.766 39.2163 103.538 39.2183 104.338V111.569H37.0965V102.785V102.811ZM58.9156 105.972C58.8549 106.534 58.9185 107.102 59.1019 107.637C59.2853 108.171 59.5838 108.658 59.9764 109.064C60.3689 109.469 60.8457 109.783 61.3728 109.982C61.8999 110.181 62.4643 110.261 63.0258 110.217C64.1608 110.259 65.2911 110.049 66.3354 109.601L66.7357 111.167C65.4692 111.7 64.1053 111.96 62.7322 111.931C61.9321 111.978 61.1311 111.852 60.384 111.561C59.6368 111.269 58.9609 110.82 58.4025 110.243C57.844 109.666 57.4159 108.975 57.1475 108.217C56.8791 107.459 56.7767 106.652 56.8471 105.851C56.8471 102.236 58.9689 99.41 62.452 99.41C66.3888 99.41 67.403 102.825 67.403 105.034C67.4095 105.375 67.3827 105.716 67.3229 106.052L58.9156 105.972ZM65.3345 104.432C65.3952 103.997 65.3628 103.554 65.2395 103.132C65.1163 102.71 64.9049 102.32 64.6196 101.987C64.3343 101.654 63.9815 101.385 63.5847 101.2C63.1879 101.014 62.7563 100.915 62.3185 100.91C61.4236 100.97 60.584 101.366 59.9661 102.018C59.3481 102.67 58.997 103.532 58.9823 104.432H65.3345ZM72.7543 96.7184V99.5975H75.8637V101.258H72.7143V107.739C72.7143 109.212 73.128 110.069 74.3424 110.069C74.7912 110.087 75.2403 110.042 75.6769 109.935L75.7703 111.596C75.1488 111.793 74.5005 111.893 73.8486 111.891C73.4143 111.911 72.9805 111.84 72.5758 111.681C72.171 111.521 71.8043 111.278 71.4999 110.967C70.8492 110.054 70.5505 108.936 70.6592 107.82V101.258H68.7375V99.5975H70.6725V97.388L72.7543 96.7184ZM78.3192 94.0402H80.4944V101.553C80.8546 100.896 81.3908 100.353 82.0424 99.9859C82.7215 99.598 83.4897 99.3948 84.2711 99.3966C85.8725 99.3966 88.448 100.388 88.448 104.499V111.556H86.2861V104.673C86.2861 102.731 85.5655 101.124 83.5237 101.124C82.8771 101.14 82.2508 101.354 81.7286 101.737C81.2063 102.12 80.813 102.653 80.6012 103.267C80.4938 103.599 80.4486 103.949 80.4677 104.298V111.556H78.2925V94L78.3192 94.0402ZM93.2522 106.092C93.2079 106.645 93.2839 107.201 93.4748 107.722C93.6657 108.242 93.967 108.715 94.3578 109.107C94.7487 109.5 95.2199 109.802 95.7386 109.993C96.2574 110.185 96.8115 110.261 97.3625 110.217C98.4975 110.259 99.6278 110.049 100.672 109.601L101.072 111.167C99.8068 111.703 98.4422 111.964 97.0689 111.931C93.3857 111.931 91.1971 109.48 91.1971 105.851C91.1971 102.222 93.319 99.41 96.8154 99.41C100.739 99.41 101.753 102.825 101.753 105.034C101.766 105.376 101.739 105.717 101.673 106.052L93.2522 106.092ZM99.6312 104.525C99.7182 104.075 99.7045 103.611 99.5908 103.167C99.4771 102.722 99.2663 102.309 98.9738 101.957C98.6813 101.604 98.3143 101.321 97.8995 101.129C97.4846 100.936 97.0323 100.838 96.5752 100.843C95.6792 100.9 94.8378 101.295 94.2192 101.948C93.6006 102.601 93.2505 103.464 93.2389 104.365L99.6312 104.525ZM114.431 108.422L114.538 111.73H112.562L112.442 109.761C112.039 110.463 111.454 111.041 110.749 111.435C110.044 111.829 109.245 112.024 108.439 111.998C106.557 111.998 104.302 110.926 104.302 106.735V99.718H106.477V106.414C106.477 108.69 107.198 110.257 109.146 110.257C109.795 110.24 110.423 110.021 110.942 109.63C111.461 109.239 111.845 108.695 112.042 108.074C112.175 107.714 112.243 107.333 112.242 106.949V99.6109H114.417L114.431 108.422ZM117.74 109.52C118.623 110.033 119.617 110.323 120.636 110.364C122.198 110.364 122.932 109.587 122.932 108.57C122.932 107.552 122.318 106.989 120.73 106.387C118.554 105.597 117.527 104.432 117.527 102.985C117.527 101.057 119.115 99.4636 121.664 99.4636C122.684 99.4371 123.692 99.6968 124.573 100.213L124.039 101.807C123.311 101.336 122.463 101.085 121.597 101.084C120.263 101.084 119.622 101.82 119.622 102.718C119.622 103.615 120.303 104.164 121.864 104.78C123.919 105.543 125 106.588 125 108.369C125 110.511 123.345 111.998 120.556 111.998C119.381 112.012 118.223 111.722 117.193 111.154L117.74 109.52Z" fill="#E6522C"/>
</svg>
