<svg width="128" height="128" viewBox="0 0 128 128" fill="none" xmlns="http://www.w3.org/2000/svg">
<path d="M63.5 12C53.3163 12 43.3612 15.0192 34.8931 20.676C26.425 26.3328 19.8241 34.3732 15.9248 43.7809C12.0255 53.1885 11.0028 63.541 12.9861 73.5297C14.9694 83.5184 19.8696 92.6949 27.0673 99.8992C34.2649 107.104 43.4369 112.012 53.4238 114.005C63.4107 115.997 73.7641 114.984 83.1754 111.093C92.5866 107.203 100.633 100.609 106.298 92.1463C111.962 83.6834 114.991 73.7311 115 63.5474C115.004 56.7809 113.675 50.0799 111.089 43.8271C108.503 37.5743 104.711 31.8922 99.9281 27.1054C95.1457 22.3186 89.4671 18.5208 83.2167 15.929C76.9663 13.3371 70.2665 12.0021 63.5 12ZM63.5 108.395C55.4092 108.395 48.8512 102.99 48.8512 96.3215H78.1646C78.1646 103.022 71.5908 108.395 63.5 108.395ZM87.7093 92.3551H39.3065V83.5848H87.6777V92.3551H87.7093ZM87.5354 79.0653H39.433L38.9589 78.5123C35.724 74.9306 33.2556 70.7253 31.7056 66.1548C31.7056 66.0442 37.7105 67.3874 41.9929 68.3513C43.7944 68.7464 45.5959 69.1098 47.4132 69.4417C44.2884 65.8542 42.5409 61.2725 42.4828 56.5153C42.4828 46.1964 50.384 37.1732 47.5396 29.8883C50.3208 30.1095 53.2916 35.751 53.4971 44.5687C56.4521 40.4917 57.6847 33.033 57.6847 28.4661C57.6847 23.8992 60.8452 18.2261 64.0057 18.0365C61.2244 22.6192 64.7326 26.554 67.8457 36.3041C69.015 39.9702 68.857 46.1332 69.7577 50.0364C70.058 41.9139 71.4486 30.0621 76.6002 25.9851C74.3404 31.1209 76.9478 37.5841 78.7335 40.6813C81.8318 45.4112 83.4139 50.9735 83.2688 56.6259C83.2569 61.3389 81.5775 65.8956 78.5281 69.4891C81.9256 68.8412 84.2801 68.2723 84.2801 68.2723L95.3418 66.1074C93.8542 70.9963 91.19 75.4456 87.5828 79.0653H87.5354Z" fill="#DA4E31"/>
</svg>
