<svg width="128" height="128" viewBox="0 0 128 128" fill="none" xmlns="http://www.w3.org/2000/svg">
<path d="M48.4701 64.2302C48.4701 60.4507 47.3928 58.5081 45.2382 58.4025C44.3818 58.3619 43.5264 58.5026 42.728 58.8153C42.2457 58.9548 41.7969 59.1916 41.4093 59.5109V68.5342C42.7938 69.3995 44.0173 69.801 45.0799 69.7387C47.34 69.5881 48.4701 67.752 48.4701 64.2302ZM51.1308 64.386C51.1308 66.3069 50.6783 67.9017 49.7732 69.1702C49.3114 69.8576 48.6862 70.4196 47.9535 70.8056C47.2209 71.1917 46.4038 71.3897 45.5757 71.3818C44.2293 71.4268 42.8405 71.0054 41.4093 70.1177V78.318L39.0964 77.4873V59.2903C39.5049 58.8028 39.9994 58.3946 40.5553 58.0858C41.9398 57.2828 43.6124 56.8718 45.5731 56.8528L45.6068 56.8839C46.4343 56.8453 47.2568 57.0307 47.9878 57.4204C48.7188 57.8101 49.3311 58.3897 49.7602 59.0982C50.6722 60.4723 51.1291 62.2349 51.1308 64.386Z" fill="#646464"/>
<path d="M65.2628 69.7698C65.2628 72.3449 65.0032 74.1283 64.484 75.1199C63.9648 76.1115 62.9793 76.9007 61.5273 77.4873C60.3049 77.9669 59.0085 78.2304 57.6958 78.2661L57.3143 76.8072C58.3078 76.694 59.2905 76.5004 60.2528 76.2283C61.3724 75.8493 62.1425 75.2687 62.5631 74.4865C62.9031 73.8531 63.0693 72.6408 63.0693 70.8523V70.2449C61.5094 70.9582 59.8134 71.3248 58.0982 71.3195C56.9986 71.3355 55.9302 70.9539 55.0896 70.2449C54.6299 69.8985 54.2585 69.4486 54.0054 68.9317C53.7524 68.4148 53.6249 67.8455 53.6333 67.27V57.6445L55.9462 56.8528V66.5406C55.9462 67.5789 56.2802 68.3758 56.9482 68.9313C57.6837 69.5126 58.6087 69.8003 59.5441 69.7387C60.6032 69.7153 61.7402 69.3052 62.9473 68.503V57.2006H65.2576L65.2628 69.7698Z" fill="#646464"/>
<path d="M74.2911 71.2571C74.0159 71.2778 73.7719 71.2882 73.5305 71.2882C72.2222 71.2882 71.2029 70.9767 70.4726 70.3537C69.7483 69.7281 69.3823 68.8663 69.3823 67.7578V58.6567H67.7988V57.2005H69.3823V53.3456L71.6926 52.5227V57.2005H74.2885V58.6567H71.6926V67.7007C71.6926 68.5703 71.9262 69.183 72.3909 69.5438C72.7907 69.8397 73.4292 70.0085 74.2911 70.063V71.2571Z" fill="#646464"/>
<path d="M88.2879 71.0675H85.9749V62.1403C85.9964 61.3164 85.7762 60.5042 85.3415 59.804C85.1294 59.4563 84.8293 59.1708 84.4715 58.9762C84.1137 58.7816 83.7109 58.6848 83.3038 58.6956C82.2447 58.6956 80.9191 59.2554 79.3269 60.3751V71.0752H77.014V49.7294L79.3269 49V58.7189C80.7235 57.6692 82.4237 57.1024 84.1708 57.1043C84.7268 57.0838 85.2806 57.1836 85.7945 57.3969C86.3084 57.6101 86.7701 57.9318 87.1483 58.3399C87.9137 59.176 88.3225 60.2778 88.2879 61.4108V71.0675Z" fill="#646464"/>
<path d="M100.585 63.8665C100.585 62.4128 100.31 61.2126 99.7616 60.266C99.4663 59.7169 99.0277 59.2579 98.4925 58.938C97.9573 58.6181 97.3454 58.449 96.7219 58.4489C94.1866 58.5943 92.9198 60.4114 92.9215 63.9002C92.9215 65.4975 93.1863 66.8309 93.7159 67.9004C94.3925 69.2659 95.4101 69.9373 96.7686 69.9148C99.3125 69.8837 100.585 67.8676 100.585 63.8665ZM103.118 63.8665C103.118 65.9432 102.59 67.6642 101.535 69.0296C100.375 70.5664 98.7709 71.3365 96.7219 71.34C94.6729 71.3434 93.0894 70.5733 91.9715 69.0296C90.9331 67.6573 90.4139 65.9362 90.4139 63.8665C90.4139 61.9248 90.9729 60.2885 92.0909 58.9577C92.6528 58.2712 93.365 57.7232 94.1725 57.3559C94.98 56.9886 95.8612 56.8119 96.7478 56.8395C97.6387 56.8141 98.5237 56.9917 99.3359 57.3586C100.148 57.7256 100.866 58.2724 101.436 58.9577C102.559 60.2972 103.12 61.9377 103.118 63.8794V63.8665Z" fill="#646464"/>
<path d="M116.378 71.0674H114.065V61.6341C114.065 60.5957 113.754 59.7875 113.13 59.2095C112.507 58.6315 111.679 58.352 110.644 58.3711C109.51 58.4013 108.412 58.7772 107.497 59.4484V71.0674H105.185V59.1628C106.515 58.192 107.741 57.5594 108.86 57.2652C109.769 57.0096 110.707 56.8709 111.651 56.8525C112.174 56.8487 112.696 56.9018 113.208 57.0108C114.044 57.1815 114.813 57.5877 115.425 58.1816C115.732 58.4762 115.975 58.8308 116.139 59.2233C116.303 59.6159 116.384 60.038 116.378 60.4633V71.0674Z" fill="#646464"/>
<path d="M16.2555 49.8151C15.1411 49.8161 14.0288 49.9107 12.9302 50.0981C9.98394 50.6172 9.4492 51.7075 9.4492 53.7167V56.3697H16.4087V57.2523H6.83777C4.81559 57.2523 3.04262 58.4697 2.4897 60.7826C1.85112 63.433 1.82257 65.0866 2.4897 67.8564C2.98292 69.9175 4.16663 71.3842 6.1888 71.3842H8.59516V68.2042C8.61849 67.063 9.08311 65.9752 9.89145 65.1693C10.6998 64.3634 11.789 63.902 12.9302 63.8821H19.882C20.811 63.8746 21.6991 63.499 22.3516 62.8377C23.0041 62.1764 23.3678 61.2833 23.363 60.3543V53.7167C23.363 51.8295 21.7717 50.4122 19.882 50.0981C18.6832 49.9023 17.4701 49.8076 16.2555 49.8151ZM12.4889 51.9489C12.7523 51.9432 13.0114 52.0161 13.2332 52.1583C13.4551 52.3004 13.6295 52.5054 13.7344 52.7471C13.8392 52.9888 13.8698 53.2562 13.8221 53.5153C13.7744 53.7744 13.6506 54.0134 13.4665 54.2019C13.2825 54.3903 13.0464 54.5198 12.7886 54.5736C12.5307 54.6274 12.2626 54.6032 12.0185 54.5041C11.7744 54.405 11.5653 54.2355 11.418 54.0171C11.2706 53.7987 11.1916 53.5414 11.191 53.278C11.1889 52.9302 11.324 52.5957 11.567 52.3468C11.81 52.098 12.1412 51.9551 12.4889 51.9489Z" fill="url(#paint0_linear_26_877)"/>
<path d="M24.2299 57.2522V60.3543C24.2299 62.7502 22.1974 64.7672 19.8819 64.7672H12.9301C12.0028 64.7855 11.1194 65.166 10.4688 65.8272C9.81831 66.4884 9.45231 67.3778 9.4491 68.3054V74.9326C9.4491 76.8172 11.0897 77.9283 12.9301 78.4682C15.1932 79.1772 17.6188 79.1772 19.8819 78.4682C21.6341 77.949 23.3629 76.9392 23.3629 74.9326V72.2693H16.4086V71.3841H26.8413C28.8635 71.3841 29.6189 69.9745 30.3224 67.8563C31.0492 65.6758 31.0181 63.5783 30.3224 60.7826C29.8214 58.7682 28.8661 57.2522 26.8413 57.2522H24.2299ZM20.3205 74.0371C20.5843 74.0314 20.8437 74.1045 21.0657 74.247C21.2876 74.3895 21.4621 74.5949 21.5667 74.837C21.6714 75.0792 21.7015 75.347 21.6531 75.6063C21.6048 75.8656 21.4802 76.1046 21.2954 76.2928C21.1105 76.481 20.8738 76.6098 20.6154 76.6627C20.357 76.7157 20.0886 76.6904 19.8447 76.5901C19.6007 76.4898 19.3922 76.319 19.2458 76.0996C19.0993 75.8802 19.0217 75.6221 19.0226 75.3584C19.0205 75.0113 19.1559 74.6776 19.3991 74.43C19.6423 74.1824 19.9735 74.0412 20.3205 74.0371Z" fill="url(#paint1_linear_26_877)"/>
<path d="M120.879 55.1392H121.287V52.5953H122.247V52.3071H119.911V52.6082H120.871V55.1522L120.879 55.1392ZM122.598 55.1522H122.945V52.8263L123.696 55.1496H124.082L124.861 52.8341V55.1496H125.238V52.3071H124.739L123.883 54.7446L123.163 52.3071H122.605V55.1626" fill="#646464"/>
<defs>
<linearGradient id="paint0_linear_26_877" x1="1.01941" y1="50.7194" x2="17.1054" y2="64.3153" gradientUnits="userSpaceOnUse">
<stop stop-color="#5A9FD4"/>
<stop offset="1" stop-color="#306998"/>
</linearGradient>
<linearGradient id="paint1_linear_26_877" x1="22.9946" y1="72.9968" x2="17.201" y2="64.9436" gradientUnits="userSpaceOnUse">
<stop stop-color="#FFD43B"/>
<stop offset="1" stop-color="#FFE873"/>
</linearGradient>
</defs>
</svg>
