<svg width="128" height="128" viewBox="0 0 128 128" fill="none" xmlns="http://www.w3.org/2000/svg">
<path d="M63.7296 9.00154C59.5294 9.00514 55.3369 9.36188 51.1965 10.068C40.0918 12.0248 38.0763 16.134 38.0763 23.7068V33.706H64.3068V37.0325H28.2337C20.6121 37.0325 13.9297 41.6212 11.8457 50.3386C9.43887 60.328 9.33125 66.5604 11.8457 76.9999C13.7046 84.7683 18.1661 90.2962 25.7877 90.2962H34.8574V78.3109C34.9453 74.0096 36.6965 69.9097 39.7431 66.8721C42.7898 63.8346 46.8949 62.0957 51.1965 62.0207H77.3977C80.8991 61.9922 84.2464 60.5766 86.7059 58.0842C89.1653 55.5917 90.5361 52.2258 90.5179 48.7243V23.7068C90.5179 16.5939 84.5203 11.2518 77.3977 10.068C72.8796 9.33013 68.3075 8.97339 63.7296 9.00154ZM49.5332 17.0439C50.5259 17.0226 51.5025 17.2973 52.3385 17.833C53.1745 18.3688 53.832 19.1414 54.2272 20.0523C54.6225 20.9632 54.7375 21.9711 54.5577 22.9476C54.3779 23.9242 53.9114 24.825 53.2177 25.5354C52.524 26.2458 51.6344 26.7336 50.6624 26.9365C49.6904 27.1394 48.68 27.0482 47.76 26.6747C46.84 26.3012 46.0521 25.6622 45.4967 24.8391C44.9412 24.0161 44.6434 23.0462 44.6413 22.0533C44.6333 20.7426 45.1425 19.4815 46.0583 18.5438C46.9741 17.606 48.2226 17.0671 49.5332 17.0439Z" fill="url(#paint0_linear_26_892)"/>
<path d="M93.7854 37.032V48.7238C93.7854 57.7543 86.1247 65.3565 77.3974 65.3565H51.1962C47.7009 65.4254 44.3713 66.8593 41.9195 69.3514C39.4676 71.8435 38.0881 75.196 38.076 78.692V103.67C38.076 110.773 44.2595 114.961 51.1962 116.996C59.7256 119.668 68.8681 119.668 77.3974 116.996C84.0016 115.039 90.5176 111.233 90.5176 103.67V93.632H64.3066V90.2957H103.628C111.25 90.2957 114.097 84.983 116.748 76.9993C119.488 68.7808 119.37 60.8754 116.748 50.3381C114.86 42.7458 111.259 37.032 103.628 37.032H93.7854ZM79.0509 100.295C80.0449 100.273 81.0226 100.549 81.8593 101.086C82.6959 101.623 83.3535 102.397 83.7478 103.31C84.1422 104.223 84.2556 105.232 84.0734 106.209C83.8912 107.187 83.4218 108.088 82.7251 108.797C82.0284 109.506 81.1361 109.992 80.1621 110.191C79.1882 110.391 78.1769 110.295 77.2574 109.917C76.3379 109.539 75.552 108.896 75.0001 108.069C74.4482 107.242 74.1553 106.269 74.159 105.275C74.1511 103.967 74.6612 102.709 75.5778 101.776C76.4944 100.843 77.743 100.31 79.0509 100.295Z" fill="url(#paint1_linear_26_892)"/>
<defs>
<linearGradient id="paint0_linear_26_892" x1="6.30412" y1="12.4097" x2="66.933" y2="63.6534" gradientUnits="userSpaceOnUse">
<stop stop-color="#5A9FD4"/>
<stop offset="1" stop-color="#306998"/>
</linearGradient>
<linearGradient id="paint1_linear_26_892" x1="89.1295" y1="96.3741" x2="67.2932" y2="66.0213" gradientUnits="userSpaceOnUse">
<stop stop-color="#FFD43B"/>
<stop offset="1" stop-color="#FFE873"/>
</linearGradient>
</defs>
</svg>
