<svg width="128" height="128" viewBox="0 0 128 128" fill="none" xmlns="http://www.w3.org/2000/svg">
<path d="M105.407 55.0154H76.6098C75.6577 55.0196 74.7429 54.6465 74.0653 53.9779C73.3878 53.3093 73.0028 52.3996 72.9946 51.4479V22.6139C72.9957 22.1427 72.9037 21.676 72.724 21.2404C72.5444 20.8048 72.2805 20.4089 71.9476 20.0754C71.6147 19.7418 71.2192 19.4772 70.7839 19.2967C70.3485 19.1161 69.8818 19.0232 69.4105 19.0232H58.5729C57.6216 19.0191 56.7075 19.3924 56.0312 20.0612C55.3549 20.73 54.9716 21.6397 54.9655 22.5907V51.4015C54.9696 51.8727 54.8806 52.34 54.7038 52.7768C54.527 53.2136 54.2657 53.6112 53.9349 53.9469C53.6042 54.2826 53.2104 54.5497 52.7762 54.7331C52.342 54.9165 51.8759 55.0124 51.4046 55.0154H40.5669C39.6156 55.0196 38.7016 54.6463 38.0253 53.9774C37.349 53.3086 36.9657 52.3989 36.9596 51.4479V22.6139C36.9636 22.1427 36.8747 21.6754 36.6979 21.2386C36.521 20.8018 36.2598 20.4042 35.929 20.0685C35.5982 19.7329 35.2045 19.4657 34.7703 19.2823C34.3361 19.099 33.87 19.003 33.3986 19H22.561C21.6131 19.0061 20.7063 19.3874 20.0389 20.0603C19.3715 20.7333 18.998 21.6431 19.0001 22.5907V105.394C18.997 105.864 19.0867 106.331 19.264 106.767C19.4413 107.203 19.7027 107.599 20.0334 107.934C20.3641 108.269 20.7575 108.535 21.1912 108.718C21.6249 108.901 22.0903 108.997 22.561 109H105.391C105.863 109.003 106.33 108.913 106.767 108.735C107.203 108.558 107.6 108.296 107.935 107.964C108.27 107.633 108.537 107.239 108.719 106.804C108.902 106.37 108.997 105.904 108.999 105.432V58.6835C109.011 58.2134 108.931 57.7454 108.762 57.3064C108.593 56.8674 108.339 56.466 108.015 56.1252C107.69 55.7845 107.302 55.5111 106.872 55.3206C106.441 55.1302 105.978 55.0265 105.508 55.0154H105.391H105.407ZM90.9154 85.5829C90.9155 87.0116 90.351 88.3825 89.3447 89.397C88.3385 90.4116 86.9722 90.9877 85.5431 90.9999H78.3206C76.8834 90.9999 75.5051 90.4292 74.4889 89.4133C73.4727 88.3974 72.9018 87.0196 72.9018 85.5829V78.3705C72.9017 76.9432 73.4651 75.5735 74.4697 74.5592C75.4742 73.5448 76.8386 72.9678 78.2664 72.9535H85.574C87.0112 72.9535 88.3895 73.5242 89.4057 74.5401C90.4219 75.556 90.9928 76.9339 90.9928 78.3705V85.5829H90.9154Z" fill="#FF6600"/>
</svg>
