<svg width="128" height="128" viewBox="0 0 128 128" fill="none" xmlns="http://www.w3.org/2000/svg">
<path d="M123.934 70.8816L123.13 73.3892L122.328 70.8816H121.916V73.7425H122.144V71.1091L122.992 73.7425H123.251L124.096 71.1091H124.109V73.7425H124.336V70.8816H123.934Z" fill="#A9B5AF"/>
<path d="M121.643 70.8816H120.465H120.238H119.065V71.1091H120.238V73.7425H120.465V71.1091H121.643V70.8816Z" fill="#A9B5AF"/>
<path d="M94.4242 73.7012H92.7471L87.229 56.7888V73.7012H85.7604V55.3186H88.3969L93.5348 71.4099H93.5905L98.7458 55.3186H101.323V73.7012H99.8676V56.7888L94.4242 73.7012Z" fill="#A9B5AF"/>
<path d="M26.6394 55.3137V73.701H28.2306V65.3889H30.4375C31.0212 65.3778 31.6022 65.4716 32.1528 65.6657C33.7805 66.2831 33.9651 68.1702 34.2579 69.3747L35.195 73.7281H36.7989L35.7551 68.7685C35.4496 67.276 35.246 66.6363 34.8275 65.9872C34.2769 65.1248 32.7001 64.6585 32.7001 64.6585C35.2873 64.1542 36.4091 62.4198 36.4091 60.0554C36.4091 57.885 35.3573 55.3503 30.5218 55.3503H26.6394V55.3137ZM28.2306 56.7792H30.3357C34.5395 56.7792 34.7909 59.0068 34.7909 60.0251C34.7909 60.8637 34.6318 63.9234 29.6992 63.9234H28.2433V56.7792H28.2306Z" fill="#FF6600"/>
<path d="M38.6943 64.0574H40.3236C40.4716 63.316 40.7867 62.0001 42.9618 62.0001C45.8083 62.0001 45.7145 64.4664 45.7145 65.4211V66.5349C45.7145 66.5349 44.7884 66.5349 44.2124 66.5906C42.0389 66.7576 38.4843 67.3241 38.4843 70.6018C38.4843 73.8796 41.2019 73.9894 41.7302 73.9894C42.5109 74.0029 43.2825 73.8196 43.9737 73.4564C44.6564 73.0856 45.2385 72.5542 45.6699 71.9082H45.7336V73.703H47.0558V65.0408C47.0558 63.7472 47.1751 60.7288 43.0906 60.7288C39.0062 60.7288 38.6959 63.456 38.6959 64.0574H38.6943ZM45.7161 67.8046C45.715 68.294 45.6836 68.7829 45.6222 69.2685C45.4895 70.1389 45.0486 70.9327 44.3798 71.5054C43.7111 72.078 42.8589 72.3915 41.9784 72.3887C41.7536 72.4102 41.5267 72.3871 41.3107 72.3209C41.0948 72.2546 40.894 72.1464 40.7199 72.0024C40.5458 71.8585 40.4018 71.6816 40.2962 71.482C40.1905 71.2823 40.1252 71.0638 40.104 70.8389C40.104 70.7832 40.0961 70.726 40.0961 70.6687C40.0961 69.9972 40.3554 68.4252 42.9379 67.9287C43.4805 67.8269 45.7161 67.8046 45.7161 67.8046Z" fill="#FF6600"/>
<path d="M49.242 55.3137V68.5091C49.242 69.222 49.2642 73.9922 53.6606 73.9922C54.7171 73.9922 58.5741 73.6215 58.5741 67.5019C58.5741 61.3824 55.1897 60.738 54.1666 60.738C53.3641 60.7345 52.5827 60.9948 51.9427 61.479C51.3027 61.9632 50.8396 62.6443 50.6247 63.4175H50.5785V55.3137H49.2388H49.242ZM56.9702 67.4653C56.9702 72.5968 54.1061 72.7034 53.6606 72.7034C53.2151 72.7034 50.6374 72.7034 50.6374 67.6738C50.6374 63.5018 52.6454 61.995 54.0266 61.995C55.4077 61.995 56.975 63.4175 56.975 67.4701L56.9702 67.4653Z" fill="#FF6600"/>
<path d="M60.6428 55.3137V68.5091C60.6428 69.222 60.6651 73.9922 65.0599 73.9922C66.118 73.9922 69.9749 73.6215 69.9749 67.5019C69.9749 61.3824 66.5906 60.738 65.5706 60.738C64.7681 60.7345 63.9867 60.9948 63.3467 61.479C62.7067 61.9632 62.2436 62.6443 62.0287 63.4175H61.973V55.3137H60.6428ZM68.3711 67.4653C68.3711 72.5968 65.507 72.7034 65.0599 72.7034C64.6127 72.7034 62.0367 72.7034 62.0367 67.6738C62.0367 63.5018 64.0431 61.995 65.4242 61.995C66.8054 61.995 68.3695 63.4175 68.3695 67.4701L68.3711 67.4653Z" fill="#FF6600"/>
<path d="M73.5627 61.0171H72.2325V73.7017H73.5627V61.0171Z" fill="#FF6600"/>
<path d="M73.8683 55.3186H71.9032V57.4746H73.8683V55.3186Z" fill="#FF6600"/>
<path d="M82.8349 73.8764C82.386 73.9398 81.9339 73.9786 81.4808 73.9926C80.58 74.0476 79.6878 73.7908 78.954 73.2654C78.3987 72.8008 78.125 71.9925 78.125 70.8691V62.2865H76.0947V61.0136H78.125V58.0874L79.4457 57.2012V61.012H82.8349V62.2849H79.4505V70.4443C79.4505 70.8119 79.363 72.7022 81.3694 72.7022C81.8662 72.6974 82.3597 72.6213 82.8349 72.4762V73.8796V73.8764Z" fill="#FF6600"/>
<path d="M22.7605 62.6025H16.8414C16.6457 62.6033 16.4577 62.5266 16.3184 62.3891C16.1791 62.2517 16.1 62.0646 16.0983 61.869V55.9403C16.0985 55.8435 16.0796 55.7475 16.0427 55.6579C16.0058 55.5684 15.9515 55.487 15.8831 55.4184C15.8147 55.3498 15.7334 55.2954 15.6439 55.2583C15.5544 55.2211 15.4585 55.202 15.3616 55.202H13.134C12.9385 55.2012 12.7506 55.2779 12.6116 55.4155C12.4726 55.553 12.3938 55.74 12.3925 55.9356V61.8594C12.3934 61.9563 12.3751 62.0524 12.3387 62.1422C12.3024 62.232 12.2487 62.3137 12.1807 62.3828C12.1127 62.4518 12.0318 62.5067 11.9425 62.5444C11.8533 62.5821 11.7575 62.6019 11.6606 62.6025H9.43297C9.23744 62.6033 9.04955 62.5266 8.91054 62.3891C8.77153 62.2515 8.69276 62.0645 8.69149 61.869V55.9403C8.69233 55.8435 8.67405 55.7474 8.63771 55.6576C8.60136 55.5677 8.54765 55.486 8.47966 55.417C8.41168 55.3479 8.33074 55.293 8.2415 55.2553C8.15225 55.2176 8.05644 55.1979 7.95956 55.1973H5.73195C5.53711 55.1985 5.35071 55.2769 5.21354 55.4153C5.07637 55.5536 4.99959 55.7407 5.00002 55.9356V72.9609C4.99939 73.0576 5.01782 73.1535 5.05426 73.2432C5.09071 73.3328 5.14444 73.4143 5.21241 73.4832C5.28038 73.552 5.36124 73.6068 5.45038 73.6444C5.53952 73.682 5.6352 73.7017 5.73195 73.7023H22.7573C22.8542 73.703 22.9502 73.6845 23.04 73.6479C23.1297 73.6114 23.2113 73.5575 23.2802 73.4894C23.3491 73.4212 23.4038 73.3402 23.4413 73.2509C23.4788 73.1615 23.4984 73.0657 23.4988 72.9688V63.3567C23.5013 63.26 23.4848 63.1638 23.45 63.0735C23.4153 62.9833 23.3631 62.9007 23.2965 62.8307C23.2298 62.7606 23.15 62.7044 23.0616 62.6652C22.9731 62.6261 22.8778 62.6047 22.7812 62.6025H22.7573H22.7605ZM19.7818 68.8875C19.7818 69.1813 19.6658 69.4631 19.459 69.6717C19.2522 69.8804 18.9713 69.9988 18.6776 70.0013H17.193C16.8976 70.0013 16.6143 69.884 16.4054 69.6751C16.1966 69.4662 16.0792 69.1829 16.0792 68.8875V67.4046C16.0792 67.1111 16.195 66.8295 16.4015 66.6209C16.608 66.4123 16.8884 66.2937 17.1819 66.2908H18.6839C18.9793 66.2908 19.2626 66.4081 19.4715 66.617C19.6804 66.8259 19.7977 67.1092 19.7977 67.4046V68.8875H19.7818Z" fill="#FF6600"/>
<path d="M113.553 72.4549C115.254 70.999 116.163 68.2829 116.163 64.3655C116.163 58.6581 114.007 55 109.983 55C106.21 55 103.582 58.0646 103.582 64.3655C103.582 70.6665 105.809 73.7119 109.872 73.7119H117.461V72.1669L113.553 72.4549ZM105.329 64.3703C105.329 59.1306 106.826 56.5864 109.965 56.5864C113.105 56.5864 114.397 59.6271 114.397 64.3703C114.397 69.1135 113.256 72.1669 109.886 72.1669C106.516 72.1669 105.329 69.6083 105.329 64.3703Z" fill="#A9B5AF"/>
</svg>
