<svg width="128" height="128" viewBox="0 0 128 128" fill="none" xmlns="http://www.w3.org/2000/svg">
<path d="M96.2706 41.6032L95.5564 37.4257C95.3408 36.0781 94.8287 35 94.4109 35C93.9932 35 93.6428 36.132 93.6428 37.4796V38.5577C93.6324 39.2085 93.3692 39.8297 92.909 40.2899C92.4487 40.7502 91.8275 41.0133 91.1767 41.0238H89.8291V44.0424H94.1549C94.4629 44.0563 94.7701 44.0001 95.0531 43.878C95.3362 43.7559 95.5879 43.571 95.7891 43.3374C95.9902 43.1038 96.1357 42.8275 96.2145 42.5294C96.2932 42.2313 96.3032 41.9192 96.2437 41.6167L96.2706 41.6032ZM86.3927 38.0725H72.755C72.6793 38.0576 72.6015 38.0576 72.5259 38.0725V37.4661C72.5259 36.1185 72.1755 35 71.7577 35C71.34 35 70.8144 36.0781 70.6123 37.4257L69.898 41.5898C69.8364 41.8903 69.844 42.2009 69.9203 42.498C69.9965 42.7952 70.1394 43.0711 70.3381 43.3048C70.5368 43.5386 70.786 43.724 71.067 43.8471C71.348 43.9703 71.6533 44.0278 71.9599 44.0154H76.097C76.4869 44.0198 76.8746 43.956 77.2425 43.8268C77.1792 44.1693 76.9972 44.4786 76.7286 44.7004C76.46 44.9221 76.1219 45.0422 75.7736 45.0396H69.9924C69.7739 45.0413 69.5578 44.9946 69.3595 44.903C69.1612 44.8114 68.9856 44.6771 68.8452 44.5097C68.7049 44.3423 68.6032 44.146 68.5476 43.9347C68.492 43.7235 68.4838 43.5025 68.5235 43.2877L69.103 39.757C69.1737 39.364 69.0858 38.9589 68.8585 38.6305C68.6311 38.3022 68.2829 38.0773 67.8901 38.0051H38.984C38.6982 38.0106 38.4199 38.097 38.1813 38.2545C37.9427 38.4119 37.7538 38.6339 37.6364 38.8946L32.246 47.1553C32.1945 47.218 32.1664 47.2966 32.1664 47.3777C32.1664 47.4588 32.1945 47.5374 32.246 47.6L33.3106 48.8533C33.3397 48.8915 33.3761 48.9236 33.4176 48.9476C33.4591 48.9717 33.505 48.9874 33.5526 48.9936C33.6002 48.9999 33.6486 48.9967 33.695 48.9841C33.7413 48.9716 33.7847 48.9501 33.8227 48.9207L37.4747 46.0368V63.5556C37.4747 63.7538 37.5138 63.9501 37.5896 64.1332C37.6655 64.3163 37.7766 64.4827 37.9168 64.6228C38.0569 64.763 38.2233 64.8742 38.4064 64.95C38.5896 65.0259 38.7858 65.0649 38.984 65.0649H47.0696C47.4699 65.0649 47.8538 64.9059 48.1369 64.6228C48.4199 64.3398 48.579 63.9559 48.579 63.5556V57.5453C48.579 57.145 48.738 56.7611 49.021 56.4781C49.3041 56.195 49.688 56.036 50.0883 56.036H70.4506C70.8509 56.036 71.2348 56.195 71.5178 56.4781C71.8009 56.7611 71.9599 57.145 71.9599 57.5453V63.6364C71.9599 63.8347 71.9989 64.0309 72.0748 64.214C72.1506 64.3972 72.2618 64.5635 72.4019 64.7037C72.5421 64.8438 72.7085 64.955 72.8916 65.0309C73.0747 65.1067 73.271 65.1458 73.4692 65.1458H81.5548C81.7553 65.1493 81.9544 65.1129 82.1407 65.0387C82.3269 64.9645 82.4965 64.8538 82.6395 64.7133C82.7825 64.5728 82.8961 64.4052 82.9737 64.2203C83.0512 64.0354 83.0911 63.8369 83.0911 63.6364V57.0063H78.7922C78.1519 56.9926 77.5414 56.7331 77.0873 56.2815C76.6331 55.8299 76.3702 55.2208 76.3531 54.5806V50.3222C76.3551 49.9412 76.4464 49.5661 76.6196 49.2267C76.7928 48.8874 77.043 48.5934 77.3503 48.3682V53.3947C77.343 54.0526 77.5946 54.687 78.051 55.161C78.5073 55.635 79.1317 55.9105 79.7895 55.9282H86.5275C87.1806 55.9177 87.8038 55.6527 88.2644 55.1895C88.725 54.7264 88.9866 54.1018 88.9936 53.4486V40.5656C88.9797 39.9064 88.7108 39.2783 88.2433 38.8133C87.7758 38.3484 87.1463 38.0828 86.487 38.0725" fill="#0076A8"/>
<path d="M4 72.0979H12.4899C16.5327 72.0979 19.2279 74.0654 19.2279 77.8387C19.2364 79.0953 18.8342 80.3202 18.0825 81.3273C17.3309 82.3343 16.2709 83.0684 15.0638 83.4177C15.6772 83.962 16.1647 84.6334 16.4923 85.3852C17.3548 87.1371 17.9207 89.0372 19.7265 89.0372C20.0101 89.0336 20.2917 88.9882 20.562 88.9024L20.1712 92.5544C19.4995 92.7142 18.8131 92.8045 18.1229 92.824C15.6837 92.824 14.2957 91.8672 12.8403 88.606C12.2204 87.1506 11.3849 84.5632 10.2529 84.5632H9.10742V92.6488H4V72.0979ZM9.10742 75.8173V80.8573H10.9536C12.409 80.8573 14.134 80.4126 14.134 78.1621C14.134 76.3563 12.975 75.7634 11.5735 75.7634L9.10742 75.8173Z" fill="#59595B"/>
<path d="M26.1269 72.0988H31.3017L38.2553 92.6901H33.0805L31.8811 88.7821H24.914L23.6607 92.6766H19.2137L26.1269 72.0988ZM26.1269 85.0358H30.5335L29.1859 80.6965C28.8536 79.5406 28.6148 78.3599 28.4717 77.1658H28.3639C28.1945 78.3522 27.9332 79.5236 27.5823 80.6695L26.1269 85.0358ZM38.4574 72.0988H43.9287L49.3191 82.3271C49.7638 83.2165 50.3972 84.7662 50.8688 85.9791H50.9901L50.7745 81.9363V72.0988H54.9521V92.6766H49.5617L44.0096 82.4888C43.4361 81.4024 42.9407 80.2766 42.5272 79.1198H42.4059L42.6619 82.7718V92.6632H38.4844L38.4574 72.0988ZM56.0571 82.2867C56.0571 74.8344 59.7361 71.7754 65.4903 71.7754C71.5006 71.7754 73.8994 75.077 73.2525 79.5241L68.4955 79.9284C69.0076 76.6672 67.7274 75.36 65.4095 75.36C63.0916 75.36 61.3667 76.9906 61.3667 82.3136C61.3667 87.9331 63.3207 89.3481 65.5442 89.3481C66.0632 89.397 66.5862 89.3202 67.0692 89.1244C67.5522 88.9285 67.981 88.6193 68.3194 88.2228C68.6577 87.8263 68.8956 87.3543 69.0131 86.8465C69.1305 86.3387 69.124 85.81 68.9941 85.3053L73.4412 85.75C73.7781 89.9275 70.746 93.0001 65.2747 93.0001C59.8035 93.0001 56.0975 89.7254 56.0975 82.2193L56.0571 82.2867ZM90.9061 72.0988V92.7171H85.7852V83.9577H79.5593V92.6901H74.4789V72.0988H79.5593V79.8879H85.7852V72.0988H90.9061ZM105.231 80.3192V84.0924H98.0484V88.9034H106.902V92.7036H92.9545V72.0988H106.592V75.899H98.0484V80.3192H105.231ZM107.926 72.0853H116.376C120.419 72.0853 123.114 74.0528 123.114 77.8261C123.125 79.0832 122.723 80.3093 121.971 81.3168C121.219 82.3243 120.158 83.0578 118.95 83.4052C119.567 83.9459 120.055 84.6182 120.378 85.3727C121.241 87.1245 121.807 89.0246 123.612 89.0246C123.896 89.0211 124.178 88.9756 124.448 88.8899L124.044 92.5419C123.372 92.7016 122.686 92.7919 121.995 92.8114C119.556 92.8114 118.168 91.8546 116.713 88.5934C116.079 87.138 115.257 84.5506 114.125 84.5506H112.966V92.6362H107.859V72.0988L107.926 72.0853ZM113.034 75.8047V80.8582H114.88C116.335 80.8582 118.06 80.4135 118.06 78.163C118.06 76.3572 116.901 75.7643 115.5 75.7643L113.034 75.8047Z" fill="#59595B"/>
</svg>
