<svg width="128" height="128" viewBox="0 0 128 128" fill="none" xmlns="http://www.w3.org/2000/svg">
<path d="M2 70.4741H10.5677C14.6364 70.4741 17.3814 72.4498 17.3814 76.2707C17.3814 79.3809 15.2558 81.2653 13.1888 81.9108C13.8083 82.4325 14.2647 83.1432 14.6364 83.8865C15.497 85.6405 16.0839 87.5835 17.903 87.5835C18.366 87.5835 18.7376 87.427 18.7376 87.427L18.3399 91.098C18.3399 91.098 17.2314 91.3784 16.2729 91.3784C13.8083 91.3784 12.3868 90.4199 10.9393 87.1271C10.3199 85.647 9.45923 83.0584 8.31818 83.0584H7.14452V91.2871H2V70.4741ZM7.15104 74.2038V79.3222H9.00281C10.4829 79.3222 12.2108 78.8593 12.2108 76.6424C12.2108 74.8232 11.0371 74.2038 9.62224 74.2038H7.15104ZM24.3451 70.4741H29.5548L36.5837 91.2806H31.374L30.0764 87.3358H23.1128L21.8478 91.2806H17.3488L24.3451 70.4741ZM24.3451 83.5083H28.8115L27.3966 79.1332C26.901 77.653 26.6859 75.56 26.6859 75.56H26.562C26.562 75.56 26.2555 77.6856 25.7926 79.1071L24.3451 83.5083ZM36.7989 91.2806H41.024V81.2914C41.024 80.1503 40.8675 78.7615 40.7763 77.5944H40.9001C41.3305 78.7028 41.8847 80.0591 42.4129 80.9849L48.0855 91.2806H53.4778V70.4741H49.2527V80.4633C49.2527 81.6631 49.4091 83.3323 49.4678 84.4994H49.3439C48.8484 83.2671 48.2355 81.6957 47.7725 80.8024L42.315 70.4741H36.7989V91.2806ZM54.5797 80.7372C54.5797 88.3203 58.2181 91.6457 63.8581 91.6457C69.4982 91.6457 72.4584 88.529 72.1194 84.3103L67.6204 83.8474C67.992 86.5598 66.2641 87.8835 64.1385 87.8835C61.889 87.8835 59.9134 86.436 59.9134 80.7632C59.9134 75.397 61.7325 73.7343 63.982 73.7343C66.2315 73.7343 67.6204 75.0579 67.0922 78.3572L71.9042 77.9269C72.5823 73.4278 70.1437 70.0959 64.0733 70.0959C58.3094 70.0959 54.5797 73.2127 54.5797 80.7372ZM73.1626 91.2806H78.3137V82.4651H84.6318V91.2806H89.7829V70.4741H84.6318V78.3377H78.3137V70.4741H73.1626V91.2806ZM91.8368 91.2806H105.921V87.4597H96.9813V82.5889H104.225V78.768H96.9813V74.3016H105.614V70.4807H91.8368V91.2806ZM106.912 70.4741H115.479C119.548 70.4741 122.293 72.4498 122.293 76.2707C122.293 79.3809 120.168 81.2653 118.101 81.9108C118.72 82.4325 119.176 83.1432 119.548 83.8865C120.409 85.6405 120.996 87.5835 122.815 87.5835C123.278 87.5835 123.649 87.427 123.649 87.427L123.252 91.098C123.252 91.098 122.143 91.3784 121.185 91.3784C118.72 91.3784 117.299 90.4199 115.851 87.1271C115.232 85.647 114.371 83.0584 113.23 83.0584H112.056V91.2871H106.912V70.4741ZM112.056 74.2038V79.3222H113.908C115.388 79.3222 117.116 78.8593 117.116 76.6424C117.116 74.8232 115.942 74.2038 114.527 74.2038H112.056Z" fill="black"/>
<path d="M100.131 35.6999L99.3221 30.8422C99.0613 29.2838 98.4549 28.0059 97.9724 28.0059C97.4899 28.0059 97.0922 29.2969 97.0922 30.8813V32.1528C97.0922 33.7372 95.8012 35.0283 94.2167 35.0283H92.9453C92.854 35.0283 92.7627 35.0283 92.6714 35.0283V38.5232C92.7627 38.5232 92.854 38.5232 92.9453 38.5232H97.7247C99.3091 38.5232 100.391 37.2452 100.131 35.6868" fill="#2453FF"/>
<path d="M88.6745 31.5862H80.9219C80.8567 31.5862 80.7915 31.5862 80.7328 31.5862H72.778C72.6867 31.5862 72.5954 31.5862 72.5042 31.6123V30.8755C72.5042 29.291 72.1064 28 71.6239 28C71.1414 28 70.535 29.278 70.2742 30.8364L69.4657 35.694C69.2049 37.2524 70.2873 38.5304 71.8652 38.5304H76.6446C77.1336 38.5304 77.603 38.4521 78.0073 38.3217C77.8573 39.1368 77.1401 39.7562 76.2859 39.7562H69.5831C68.5007 39.7562 67.6726 38.7847 67.8487 37.7153L68.5268 33.6401C68.7028 32.5708 67.8813 31.5992 66.7924 31.5992H33.4345C32.7238 31.5992 32.1109 32.0231 31.837 32.6295L25.5515 42.1883C25.4471 42.3513 25.4602 42.5599 25.5841 42.7099L26.8034 44.1509C26.9533 44.3335 27.2207 44.3596 27.4097 44.2096L31.6805 40.8386V61.2864C31.6805 62.2579 32.4695 63.0404 33.4345 63.0404H42.9085C43.88 63.0404 44.6625 62.2514 44.6625 61.2864V54.1727C44.6625 53.2012 45.4514 52.4187 46.4164 52.4187H70.0591C71.0306 52.4187 71.813 53.2077 71.813 54.1727V61.2864C71.813 62.2579 72.602 63.0404 73.567 63.0404H83.041C84.0125 63.0404 84.7949 62.2514 84.7949 61.2864V53.6315H79.7613C78.1768 53.6315 76.8858 52.3405 76.8858 50.756V45.8332C76.8858 44.8942 77.3422 44.0661 78.0399 43.538V49.4128C78.0399 50.9973 79.3309 52.2883 80.9154 52.2883H88.668C90.2524 52.2883 91.5435 50.9973 91.5435 49.4128V34.4551C91.5435 32.8772 90.2524 31.5797 88.6745 31.5797" fill="#2453FF"/>
<path d="M123.747 71.5102C123.747 70.5322 124.477 70.1018 125.149 70.1018C125.821 70.1018 126.551 70.5256 126.551 71.5102C126.551 72.4948 125.821 72.8925 125.149 72.8925C124.471 72.8925 123.747 72.4687 123.747 71.5102ZM126.212 71.5037C126.212 70.7343 125.71 70.3952 125.149 70.3952C124.588 70.3952 124.073 70.7343 124.073 71.5037C124.073 72.2731 124.588 72.5991 125.149 72.5991C125.71 72.5991 126.212 72.2666 126.212 71.5037ZM124.686 70.806H125.182C125.436 70.806 125.684 70.8777 125.684 71.2363C125.684 71.445 125.547 71.5689 125.351 71.6015L125.684 72.1688H125.384L125.077 71.621H124.96V72.1688H124.686V70.806ZM125.201 71.4254C125.318 71.4254 125.416 71.3537 125.416 71.2298C125.416 71.0864 125.299 71.0473 125.201 71.0473H124.953V71.4254H125.201Z" fill="black"/>
<path d="M76.0967 107H73.1626V99.1362H75.9859C77.642 99.1362 78.4766 100.036 78.4766 101.131C78.4766 102.123 77.8572 102.696 77.1008 102.951C77.955 103.101 78.6592 103.922 78.6592 104.894C78.6592 106.074 77.7203 107 76.0967 107ZM75.8946 99.9774H74.1928V102.527H75.9207C76.8791 102.527 77.4334 102.051 77.4334 101.249C77.4268 100.479 76.8987 99.9774 75.8946 99.9774ZM75.9728 103.374H74.1928V106.152H76.0119C77.0291 106.152 77.6355 105.644 77.6355 104.789C77.629 103.916 76.9769 103.374 75.9728 103.374Z" fill="black"/>
<path d="M79.9894 99.136H81.1305L83.0735 103.12L85.0166 99.136H86.1576L83.5952 104.033V107H82.5715V104.033L79.9894 99.136Z" fill="black"/>
<path d="M119.737 106.896C118.883 106.896 118.192 106.205 118.192 105.35V100.773C118.192 99.9189 118.883 99.2278 119.737 99.2278H123.245C123.519 99.2278 123.747 99.4494 123.747 99.7233C123.747 99.9972 123.526 100.219 123.245 100.219H119.731C119.431 100.219 119.183 100.467 119.183 100.767V102.566H122.626C122.887 102.566 123.095 102.781 123.095 103.042C123.095 103.303 122.88 103.512 122.626 103.512H119.183V105.344C119.183 105.644 119.431 105.892 119.731 105.892H123.245C123.519 105.892 123.747 106.113 123.747 106.394C123.747 106.674 123.526 106.889 123.245 106.889H119.737V106.896ZM103.991 107C102.98 107 102.198 106.746 101.669 106.237C101.141 105.729 100.881 104.972 100.881 103.975V99.7168C100.881 99.3973 101.141 99.1365 101.461 99.1365C101.78 99.1365 102.041 99.3973 102.041 99.7168V103.818C102.041 104.561 102.204 105.122 102.517 105.481C102.837 105.839 103.332 106.022 103.997 106.022C104.662 106.022 105.158 105.839 105.477 105.481C105.797 105.122 105.953 104.568 105.953 103.818V99.7168C105.953 99.3973 106.214 99.1365 106.534 99.1365C106.853 99.1365 107.114 99.3973 107.114 99.7168V103.975C107.114 104.972 106.847 105.735 106.318 106.237C105.784 106.739 105.001 107 103.991 107ZM112.676 107C111.372 107 110.381 106.628 109.722 105.898C109.533 105.689 109.546 105.363 109.748 105.155C109.852 105.05 109.989 104.998 110.139 104.998C110.289 104.998 110.439 105.063 110.544 105.181C110.726 105.389 110.935 105.566 111.163 105.689C111.561 105.911 112.069 106.022 112.663 106.022C113.223 106.022 113.673 105.924 113.999 105.729C114.332 105.526 114.501 105.24 114.501 104.868C114.501 104.568 114.351 104.32 114.045 104.144C113.752 103.968 113.256 103.818 112.532 103.681C111.828 103.551 111.261 103.388 110.844 103.192C110.433 103.003 110.133 102.762 109.944 102.481C109.761 102.201 109.663 101.862 109.663 101.458C109.663 101.053 109.781 100.643 110.015 100.291C110.25 99.9385 110.596 99.6581 111.039 99.456C111.489 99.2473 112.017 99.143 112.617 99.143C113.315 99.143 113.921 99.2734 114.417 99.5212C114.749 99.6907 115.049 99.9254 115.31 100.212C115.512 100.434 115.493 100.78 115.271 100.982C115.173 101.073 115.043 101.119 114.906 101.119C114.736 101.119 114.58 101.04 114.475 100.903C114.325 100.708 114.162 100.551 113.98 100.434C113.647 100.219 113.191 100.108 112.637 100.108C112.082 100.108 111.659 100.219 111.352 100.441C111.039 100.662 110.883 100.956 110.883 101.314C110.883 101.647 111.039 101.914 111.339 102.103C111.633 102.292 112.148 102.449 112.904 102.586C113.595 102.71 114.143 102.866 114.547 103.055C114.945 103.238 115.238 103.473 115.421 103.753C115.603 104.027 115.695 104.372 115.695 104.783C115.695 105.22 115.571 105.611 115.316 105.944C115.062 106.276 114.71 106.537 114.254 106.72C113.81 106.909 113.276 107 112.676 107ZM95.3578 107C94.0538 107 93.0627 106.628 92.4041 105.898C92.2151 105.689 92.2281 105.363 92.4302 105.155C92.5346 105.05 92.6715 104.992 92.8214 104.992C92.9714 104.992 93.1214 105.057 93.2257 105.174C93.4083 105.383 93.6169 105.559 93.8451 105.683C94.2494 105.905 94.7515 106.015 95.3448 106.015C95.9056 106.015 96.3554 105.918 96.6815 105.722C97.014 105.52 97.1835 105.233 97.1835 104.861C97.1835 104.561 97.0336 104.314 96.7271 104.138C96.4337 103.962 95.9381 103.812 95.2144 103.675C94.5102 103.544 93.9429 103.381 93.5256 103.186C93.1149 102.997 92.8149 102.755 92.6258 102.475C92.4433 102.195 92.3455 101.849 92.3455 101.451C92.3455 101.027 92.4628 100.636 92.6976 100.284C92.9323 99.932 93.2779 99.6516 93.7212 99.4494C94.1711 99.2408 94.6993 99.1365 95.2992 99.1365C95.9968 99.1365 96.6032 99.2669 97.0988 99.5147C97.4313 99.6842 97.7312 99.9189 97.992 100.206C98.1942 100.428 98.1746 100.773 97.9529 100.975C97.8551 101.066 97.7247 101.112 97.5878 101.112C97.4183 101.112 97.2618 101.034 97.1574 100.897C97.0075 100.701 96.8445 100.545 96.6619 100.428C96.3228 100.212 95.8729 100.101 95.3187 100.101C94.7645 100.101 94.3407 100.212 94.0342 100.434C93.7212 100.662 93.5648 100.956 93.5648 101.308C93.5648 101.64 93.7212 101.908 94.0212 102.097C94.3146 102.286 94.8297 102.442 95.5861 102.579C96.2707 102.703 96.8249 102.86 97.2292 103.049C97.6269 103.238 97.9203 103.473 98.1029 103.746C98.2855 104.02 98.3767 104.366 98.3767 104.777C98.3767 105.213 98.2529 105.605 97.9986 105.937C97.7443 106.27 97.3922 106.531 96.9358 106.713C96.4989 106.909 95.9577 107 95.3578 107Z" fill="black"/>
</svg>
