<svg width="128" height="128" viewBox="0 0 128 128" fill="none" xmlns="http://www.w3.org/2000/svg">
<path d="M41.7598 59.8941L41.3526 57.4338C41.2207 56.6423 40.911 56 40.6701 56C40.4293 56 40.2285 56.6538 40.2285 57.4567V58.099C40.2285 58.8962 39.5747 59.5557 38.7718 59.5557H38.1295C38.0836 59.5557 38.0378 59.5557 37.9919 59.5615V61.3279C38.0378 61.3279 38.0836 61.3279 38.1295 61.3279H40.5497C41.3469 61.3279 41.8917 60.6798 41.7598 59.8884" fill="#2453FF"/>
<path d="M35.9617 57.8123H32.039C32.0045 57.8123 31.9759 57.8123 31.9415 57.818H27.9155C27.8696 57.818 27.8237 57.8237 27.7778 57.8295V57.4567C27.7778 56.6595 27.5771 56 27.3362 56C27.0954 56 26.7857 56.6481 26.6538 57.4338L26.2466 59.8941C26.1147 60.6855 26.6595 61.3279 27.4624 61.3279H29.8826C30.1292 61.3279 30.3643 61.2877 30.5708 61.2189C30.4962 61.6318 30.1349 61.9415 29.6991 61.9415H26.3097C25.7591 61.9415 25.3462 61.4483 25.4322 60.9092L25.7763 58.8503C25.8681 58.3112 25.4494 57.818 24.8989 57.818H8.02068C7.65937 57.818 7.34968 58.0302 7.21204 58.3399L4.03484 63.1746C3.98322 63.2549 3.98896 63.3638 4.05205 63.4384L4.67143 64.1667C4.74598 64.2585 4.88362 64.27 4.97538 64.1954L7.13749 62.4921V72.8381C7.13749 73.3313 7.5332 73.7271 8.02642 73.7271H12.8152C13.3084 73.7271 13.7041 73.3313 13.7041 72.8381V69.2423C13.7041 68.7548 14.0998 68.3533 14.593 68.3533H26.5505C27.0437 68.3533 27.4395 68.749 27.4395 69.2423V72.8381C27.4395 73.3313 27.8352 73.7271 28.3284 73.7271H33.1171C33.6046 73.7271 34.0061 73.3313 34.0061 72.8381V68.967H31.4597C30.6625 68.967 30.003 68.3132 30.003 67.5103V65.0212C30.003 64.5452 30.2324 64.1266 30.588 63.8628V66.8335C30.588 67.6307 31.2418 68.2902 32.0447 68.2902H35.9674C36.7646 68.2902 37.4241 67.6364 37.4241 66.8335V59.269C37.4241 58.4718 36.7646 57.8123 35.9617 57.8123Z" fill="#2453FF"/>
<path d="M118.953 81.6815C118.403 81.6815 117.955 81.2342 117.955 80.6836V77.7186C117.955 77.168 118.403 76.7207 118.953 76.7207H121.23C121.408 76.7207 121.551 76.8641 121.551 77.0418C121.551 77.2196 121.408 77.363 121.23 77.363H118.953C118.758 77.363 118.598 77.5236 118.598 77.7186V78.8828H120.828C120.995 78.8828 121.132 79.0204 121.132 79.1868C121.132 79.3531 120.995 79.4907 120.828 79.4907H118.598V80.6779C118.598 80.8729 118.758 81.0334 118.953 81.0334H121.23C121.408 81.0334 121.551 81.1768 121.551 81.3546C121.551 81.5324 121.408 81.6758 121.23 81.6758H118.953V81.6815ZM108.756 81.7446C108.102 81.7446 107.598 81.5783 107.254 81.2514C106.915 80.9245 106.743 80.4313 106.743 79.7832V77.0246C106.743 76.8182 106.91 76.6519 107.116 76.6519C107.323 76.6519 107.489 76.8182 107.489 77.0246V79.68C107.489 80.1617 107.592 80.523 107.799 80.7524C108.005 80.9818 108.326 81.1023 108.756 81.1023C109.186 81.1023 109.508 80.9818 109.714 80.7524C109.92 80.523 110.024 80.1617 110.024 79.68V77.0246C110.024 76.8182 110.19 76.6519 110.396 76.6519C110.603 76.6519 110.769 76.8182 110.769 77.0246V79.7832C110.769 80.4255 110.597 80.9187 110.259 81.2514C109.915 81.5783 109.41 81.7446 108.756 81.7446ZM114.382 81.7446C113.539 81.7446 112.897 81.5037 112.473 81.0334C112.352 80.8958 112.358 80.6836 112.49 80.5517C112.559 80.4829 112.645 80.4485 112.742 80.4485C112.845 80.4485 112.937 80.4886 113 80.5689C113.121 80.7065 113.253 80.8155 113.402 80.9015C113.66 81.0449 113.987 81.1195 114.371 81.1195C114.755 81.1195 115.025 81.0564 115.237 80.9302C115.455 80.7983 115.564 80.6148 115.564 80.3739C115.564 80.1789 115.466 80.0183 115.271 79.9036C115.082 79.7889 114.761 79.6914 114.291 79.6054C113.832 79.5194 113.465 79.4162 113.195 79.29C112.931 79.1695 112.736 79.0147 112.616 78.8312C112.496 78.6534 112.438 78.4297 112.438 78.1659C112.438 77.9021 112.513 77.6383 112.668 77.4089C112.822 77.1852 113.046 77.0017 113.333 76.8698C113.625 76.7379 113.969 76.6691 114.354 76.6691C114.807 76.6691 115.197 76.7494 115.518 76.9157C115.73 77.0246 115.925 77.1795 116.097 77.363C116.229 77.5064 116.212 77.73 116.068 77.862C116.005 77.9193 115.919 77.9537 115.833 77.9537C115.724 77.9537 115.621 77.9021 115.552 77.8161C115.455 77.6899 115.346 77.5924 115.231 77.5121C115.013 77.3745 114.721 77.2999 114.359 77.2999C113.998 77.2999 113.723 77.3745 113.528 77.5178C113.327 77.6612 113.224 77.8505 113.224 78.0799C113.224 78.2921 113.321 78.4641 113.522 78.5903C113.711 78.7107 114.044 78.814 114.537 78.9057C114.985 78.986 115.34 79.0893 115.604 79.2097C115.862 79.3301 116.051 79.4792 116.172 79.6628C116.286 79.8405 116.349 80.0642 116.349 80.328C116.349 80.6148 116.269 80.8671 116.109 81.0793C115.948 81.2973 115.713 81.4636 115.42 81.5783C115.116 81.6872 114.772 81.7446 114.382 81.7446ZM103.17 81.7503C102.327 81.7503 101.685 81.5094 101.261 81.0392C101.14 80.9015 101.146 80.6893 101.278 80.5574C101.347 80.4886 101.433 80.4542 101.53 80.4542C101.633 80.4542 101.725 80.4943 101.788 80.5746C101.909 80.7123 102.041 80.8212 102.19 80.9073C102.448 81.0506 102.775 81.1252 103.159 81.1252C103.543 81.1252 103.813 81.0621 104.025 80.9359C104.243 80.804 104.352 80.6205 104.352 80.3796C104.352 80.1846 104.254 80.0241 104.059 79.9094C103.87 79.7947 103.549 79.6972 103.079 79.6111C102.626 79.5251 102.253 79.4219 101.983 79.2957C101.719 79.1695 101.519 79.0204 101.404 78.8369C101.284 78.6591 101.226 78.4355 101.226 78.1716C101.226 77.9078 101.301 77.644 101.456 77.4146C101.61 77.1909 101.834 77.0074 102.121 76.8755C102.413 76.7436 102.752 76.6748 103.142 76.6748C103.595 76.6748 103.985 76.7551 104.306 76.9214C104.524 77.0304 104.713 77.1852 104.885 77.3687C105.017 77.5121 105 77.7358 104.856 77.8677C104.793 77.925 104.707 77.9594 104.621 77.9594C104.512 77.9594 104.409 77.9078 104.34 77.8218C104.243 77.6956 104.134 77.5981 104.019 77.5178C103.801 77.3802 103.509 77.3057 103.147 77.3057C102.786 77.3057 102.511 77.3802 102.316 77.5236C102.115 77.667 102.012 77.862 102.012 78.0856C102.012 78.3093 102.109 78.4699 102.31 78.596C102.499 78.7165 102.832 78.8197 103.325 78.9115C103.773 78.9918 104.128 79.095 104.392 79.2154C104.65 79.3359 104.839 79.4907 104.96 79.6685C105.074 79.8463 105.137 80.07 105.137 80.3338C105.137 80.6205 105.057 80.8729 104.897 81.0851C104.736 81.303 104.501 81.4693 104.208 81.584C103.904 81.6872 103.56 81.7503 103.17 81.7503Z" fill="black"/>
<path d="M91.6717 81.7446H89.7734V76.6519H91.5971C92.6696 76.6519 93.2087 77.2368 93.2087 77.9422C93.2087 78.5846 92.8072 78.9573 92.3197 79.1179C92.876 79.2154 93.3291 79.7488 93.3291 80.3739C93.3291 81.1481 92.7269 81.7446 91.6717 81.7446ZM91.5398 77.2024H90.4386V78.8541H91.557C92.1764 78.8541 92.5377 78.5502 92.5377 78.0283C92.5377 77.5064 92.1936 77.2024 91.5398 77.2024ZM91.5914 79.3989H90.4386V81.194H91.6143C92.2739 81.194 92.6638 80.8671 92.6638 80.3108C92.6638 79.7545 92.2452 79.3989 91.5914 79.3989Z" fill="black"/>
<path d="M94.1951 76.6519H94.9349L96.1909 79.2326L97.4469 76.6519H98.1867L96.5293 79.8233V81.7446H95.864V79.8233L94.1951 76.6519Z" fill="black"/>
<path d="M44.983 58.3167H50.3796C52.9432 58.3167 54.6694 59.5612 54.6694 61.9641C54.6694 63.9255 53.3332 65.107 52.0313 65.5141C52.4213 65.8468 52.708 66.2884 52.9432 66.7587C53.488 67.8655 53.8551 69.0871 55.0021 69.0871C55.2945 69.0871 55.5239 68.9896 55.5239 68.9896L55.2716 71.3008C55.2716 71.3008 54.5719 71.4729 53.9697 71.4729C52.4156 71.4729 51.5266 70.8707 50.6148 68.7946C50.2248 67.8655 49.6857 66.231 48.9631 66.231H48.2233V71.4098H44.983V58.3167ZM48.2233 60.6623V63.8854H49.3875C50.3165 63.8854 51.4062 63.5929 51.4062 62.1993C51.4062 61.0523 50.6664 60.668 49.7774 60.668H48.2233V60.6623Z" fill="black"/>
<path d="M59.0452 58.3167H62.3256L66.7473 71.4155H63.4669L62.6525 68.9322H58.2652L57.468 71.4155H54.6349L59.0452 58.3167ZM59.0452 66.5235H61.8611L60.9664 63.7707C60.6567 62.8416 60.5191 61.5225 60.5191 61.5225H60.4388C60.4388 61.5225 60.2438 62.8588 59.9513 63.7535L59.0452 66.5235Z" fill="black"/>
<path d="M66.8849 58.3167H70.3604L73.7957 64.8145C74.0881 65.3765 74.4724 66.3687 74.7878 67.1429H74.8681C74.828 66.4031 74.7305 65.3593 74.7305 64.6023V58.3167H77.3858V71.4155H73.9906L70.4235 64.9349C70.0908 64.3499 69.7467 63.5011 69.4714 62.8015H69.3912C69.4485 63.5413 69.546 64.413 69.546 65.1299V71.4155H66.8849V58.3167Z" fill="black"/>
<path d="M78.0739 64.7746C78.0739 60.0432 80.4195 58.0818 84.0498 58.0818C87.8693 58.0818 89.4063 60.1751 88.9762 63.0082L85.9481 63.2778C86.2807 61.2017 85.4606 60.3701 83.9867 60.3701C82.5128 60.3701 81.4232 61.4196 81.4232 64.7918C81.4232 68.3647 82.6677 69.2766 84.0785 69.2766C85.4147 69.2766 86.5044 68.4393 86.2693 66.736L89.1024 67.0285C89.3146 69.6838 87.3933 71.6452 83.9007 71.6452C80.3679 71.6452 78.0739 69.5519 78.0739 64.7746Z" fill="black"/>
<path d="M89.7734 58.3167H93.0137V63.266H96.9938V58.3167H100.234V71.4155H96.9938V65.864H93.0137V71.4155H89.7734V58.3167Z" fill="black"/>
<path d="M101.53 58.3167H110.202V60.7196H104.77V63.5356H109.33V65.9385H104.77V69.0068H110.397V71.4155H101.53V58.3167Z" fill="black"/>
<path d="M111.016 58.3167H116.413C118.976 58.3167 120.702 59.5612 120.702 61.9641C120.702 63.9255 119.366 65.107 118.064 65.5141C118.454 65.8468 118.741 66.2884 118.976 66.7587C119.521 67.8655 119.888 69.0871 121.035 69.0871C121.328 69.0871 121.557 68.9896 121.557 68.9896L121.305 71.3008C121.305 71.3008 120.605 71.4729 120.003 71.4729C118.449 71.4729 117.56 70.8707 116.648 68.7946C116.258 67.8655 115.719 66.231 114.996 66.231H114.256V71.4098H111.016V58.3167ZM114.256 60.6623V63.8854H115.42C116.35 63.8854 117.439 63.5929 117.439 62.1993C117.439 61.0523 116.699 60.668 115.81 60.668H114.256V60.6623Z" fill="black"/>
<path d="M121.89 59.1428C121.89 58.403 122.44 58.0818 122.945 58.0818C123.449 58.0818 124 58.3972 124 59.1428C124 59.8883 123.449 60.1866 122.945 60.1866C122.44 60.1866 121.89 59.8711 121.89 59.1428ZM123.748 59.137C123.748 58.5578 123.369 58.3055 122.945 58.3055C122.52 58.3055 122.13 58.5578 122.13 59.137C122.13 59.7163 122.52 59.9629 122.945 59.9629C123.369 59.9629 123.748 59.7163 123.748 59.137ZM122.595 58.6151H122.968C123.157 58.6151 123.346 58.6668 123.346 58.9363C123.346 59.0969 123.243 59.1829 123.1 59.2116L123.346 59.636H123.117L122.887 59.2231H122.796V59.636H122.589V58.6151H122.595ZM122.985 59.0797C123.071 59.0797 123.145 59.0281 123.145 58.9306C123.145 58.8216 123.059 58.7929 122.985 58.7929H122.801V59.0797H122.985Z" fill="black"/>
</svg>
