<svg width="128" height="128" viewBox="0 0 128 128" fill="none" xmlns="http://www.w3.org/2000/svg">
<path fill-rule="evenodd" clip-rule="evenodd" d="M35.5 80.6074V92.5L7 64L12.9443 58.0557L35.5 80.6155V80.6074ZM47.3926 92.5H35.5L64 121L69.9443 115.056L47.3926 92.5ZM115.035 69.9524L120.984 64L63.9837 7L58.0476 12.9687L80.5992 35.5163H66.9721L51.232 19.8087L45.2877 25.753L55.0795 35.5407H48.2395V79.7809H92.4755V72.9409L102.267 82.7286L108.212 76.7843L92.4755 61.0441V47.4171L115.035 69.9524ZM38.4721 32.5523L32.5075 38.5047L38.8915 44.8806L44.8398 38.9363L38.4721 32.5523ZM89.0881 83.1683L83.1438 89.1207L89.5197 95.5047L95.4721 89.5523L89.0881 83.1683ZM25.7123 45.3121L19.7599 51.2646L35.5 67.0047V55.1039L25.7123 45.3121ZM72.9245 92.5244H61.0197L76.7598 108.265L82.7123 102.312L72.9245 92.5244Z" fill="#FF6363"/>
</svg>
