<svg width="128" height="128" viewBox="0 0 128 128" fill="none" xmlns="http://www.w3.org/2000/svg">
<path d="M123.029 64.0121C123.029 56.127 113.154 48.6544 98.0146 44.0204C101.508 28.5898 99.9556 16.3133 93.1137 12.3829C91.4561 11.4526 89.5795 10.9834 87.6791 11.0243V16.4347C88.6398 16.4049 89.5921 16.6221 90.4449 17.0655C93.7446 18.9579 95.176 26.1637 94.06 35.4317C93.7931 37.7123 93.3564 40.1142 92.8226 42.5647C87.7515 41.3424 82.6047 40.4589 77.4163 39.9201C74.3257 35.6564 70.9539 31.6038 67.3234 27.7892C75.2328 20.4379 82.6569 16.4104 87.7034 16.4104V11C81.0313 11 72.2971 15.7553 63.4658 24.0043C54.6345 15.8038 45.9002 11.097 39.2282 11.097V16.5074C44.2504 16.5074 51.6988 20.5106 59.6081 27.8135C55.995 31.615 52.6471 35.66 49.588 39.9201C44.3891 40.4528 39.2333 41.3445 34.1575 42.5889C33.5994 40.1627 33.187 37.8093 32.8959 35.553C31.7555 26.285 33.1627 19.0792 36.4381 17.1625C37.1659 16.7258 38.1121 16.5317 39.2282 16.5317V11.1213C37.3124 11.0806 35.4202 11.5495 33.745 12.48C26.9274 16.4104 25.3989 28.6626 28.9169 44.0446C13.826 48.7029 4 56.1513 4 64.0121C4 71.873 13.8746 79.3699 29.014 84.0039C25.5203 99.4344 27.073 111.711 33.9149 115.641C35.4919 116.563 37.3358 117 39.3738 117C46.0458 117 54.78 112.245 63.6113 103.996C72.4427 112.196 81.1769 116.903 87.8489 116.903C89.7647 116.944 91.657 116.475 93.3321 115.544C100.15 111.614 101.678 99.3616 98.1602 83.9796C113.203 79.3456 123.029 71.873 123.029 64.0121ZM91.4397 47.8295C90.542 50.9593 89.4259 54.1861 88.1643 57.4129C87.1696 55.472 86.1263 53.531 84.986 51.5901C83.8457 49.6491 82.6812 47.7567 81.4923 45.9128C84.9375 46.4223 88.2614 47.0531 91.4397 47.8295ZM80.3278 73.6683C78.4353 76.9437 76.4944 80.0492 74.4807 82.9364C70.8656 83.2518 67.2021 83.4216 63.5143 83.4216C59.8265 83.4216 56.1872 83.2518 52.5965 82.9606C50.5827 80.0735 48.6256 77.0003 46.7251 73.7411C44.8812 70.5709 43.1991 67.3522 41.6786 64.0849C43.1829 60.8338 44.8812 57.5827 46.7008 54.4044C48.5933 51.1291 50.5342 48.0236 52.5479 45.1364C56.163 44.821 59.8265 44.6512 63.5143 44.6512C67.2021 44.6512 70.8414 44.821 74.4321 45.1122C76.4459 47.9993 78.403 51.0725 80.3035 54.3317C82.1474 57.51 83.8295 60.7287 85.35 63.9879C83.8215 67.239 82.1474 70.49 80.3278 73.6683ZM88.1643 70.5143C89.4745 73.7654 90.5905 77.0165 91.5125 80.1705C88.3342 80.9469 84.986 81.602 81.5166 82.1115C82.7054 80.2433 83.8943 78.3266 85.0103 76.3614C86.1263 74.3962 87.1696 72.4552 88.1643 70.5143ZM63.5628 96.4017C61.1829 93.9311 58.9317 91.3398 56.818 88.6379C59.0016 88.7349 61.2337 88.8077 63.49 88.8077C65.7464 88.8077 68.027 88.7592 70.2348 88.6379C68.1524 91.3442 65.9252 93.9359 63.5628 96.4017ZM45.512 82.1115C42.0668 81.602 38.743 80.9712 35.5647 80.1948C36.4623 77.065 37.5784 73.8382 38.84 70.6114C39.8347 72.5523 40.878 74.4932 42.0183 76.4342C43.1586 78.3751 44.3232 80.2676 45.512 82.1115ZM63.4415 31.6226C65.8214 34.0931 68.0727 36.6845 70.1863 39.3864C68.0027 39.2893 65.7707 39.2165 63.5143 39.2165C61.2579 39.2165 58.9773 39.265 56.7695 39.3864C58.8519 36.68 61.0792 34.0883 63.4415 31.6226ZM45.4878 45.9128C44.2989 47.781 43.1101 49.6976 41.994 51.6629C40.878 53.6281 39.8347 55.5447 38.84 57.4857C37.5299 54.2346 36.4138 50.9835 35.4919 47.8295C38.6702 47.0774 42.0183 46.4223 45.4878 45.9128ZM23.5308 76.2886C14.9421 72.6251 9.38613 67.8212 9.38613 64.0121C9.38613 60.203 14.9421 55.3749 23.5308 51.7356C25.6173 50.8379 27.8979 50.0373 30.2513 49.2852C31.7356 54.3278 33.5594 59.2643 35.7102 64.0607C33.5826 68.8334 31.783 73.7456 30.3241 78.7633C27.9222 78.0112 25.6416 77.1863 23.5308 76.2886ZM36.5837 110.959C33.284 109.066 31.8526 101.861 32.9686 92.5926C33.2355 90.312 33.6722 87.91 34.206 85.4596C39.2771 86.6819 44.4239 87.5653 49.6123 88.1041C52.7029 92.3678 56.0747 96.4205 59.7052 100.235C51.7958 107.586 44.3717 111.614 39.3252 111.614C38.3714 111.625 37.4296 111.4 36.5837 110.959ZM94.1327 92.4713C95.273 101.739 93.8659 108.945 90.5905 110.862C89.8627 111.298 88.9164 111.493 87.8004 111.493C82.7782 111.493 75.3298 107.489 67.4205 100.187C71.0336 96.385 74.3815 92.34 77.4406 88.0799C82.6395 87.5472 87.7953 86.6555 92.8711 85.4111C93.4157 87.7406 93.8368 90.0973 94.1327 92.4713ZM103.474 76.2886C101.387 77.1863 99.1064 77.987 96.753 78.7391C95.2687 73.6964 93.4449 68.76 91.2941 63.9636C93.4218 59.1909 95.2213 54.2786 96.6802 49.2609C99.0822 50.013 101.363 50.8379 103.498 51.7356C112.087 55.3992 117.642 60.203 117.642 64.0121C117.642 67.8212 112.062 72.6493 103.474 76.2886Z" fill="#61DAFB"/>
<path d="M63.4899 75.0994C69.6135 75.0994 74.5776 70.1353 74.5776 64.0117C74.5776 57.8882 69.6135 52.9241 63.4899 52.9241C57.3664 52.9241 52.4023 57.8882 52.4023 64.0117C52.4023 70.1353 57.3664 75.0994 63.4899 75.0994Z" fill="#61DAFB"/>
</svg>
