<svg width="128" height="128" viewBox="0 0 128 128" fill="none" xmlns="http://www.w3.org/2000/svg">
<path d="M97.1532 63.8815C98.7388 64.3743 100.145 65.2246 101.553 66.0765C105.346 68.3816 108.563 71.2647 110.873 75.1255C114.601 81.364 112.696 88.9928 108.465 93.3323C105.141 96.7412 100.984 98.5362 96.462 99.6306C90.7935 100.999 85.0431 101.216 79.2707 100.829C65.2364 99.8841 52.0147 95.9477 39.4527 89.7281C33.5401 86.7978 27.9582 83.3338 23.077 78.8541C20.2428 76.2529 17.6935 73.4061 16.1489 69.8161C14.6892 66.4213 14.4672 63.0092 16.3819 59.7042C17.7502 57.3423 19.9814 56.0323 22.4519 55.0891C25.4672 53.9381 28.629 53.4925 31.8191 53.2091C32.8095 53.1209 33.8062 53.0894 34.7998 53.0327C33.1874 57.0825 34.499 60.493 37.1065 63.6296C39.3251 66.3063 41.9877 68.4525 44.8897 70.3184C51.7659 74.7429 59.2829 77.5425 67.2991 79.0336C73.3093 80.1516 79.3541 80.6287 85.4352 79.6414C88.5166 79.1407 91.4611 78.2243 93.9962 76.3175C97.128 73.9682 98.4821 70.8978 97.687 66.9645C97.4681 65.9442 97.1422 64.9443 97.1532 63.8815Z" fill="#ED0000"/>
<path d="M36.6735 48.6377C37.7254 45.1878 39.0039 41.8151 40.1943 38.4109C40.8745 36.4631 41.4792 34.4823 42.3452 32.6038C42.9624 31.2623 43.7056 30.0027 44.9117 29.0863C46.6674 27.751 48.5947 27.6896 50.5802 28.4218C51.6824 28.8296 52.7154 29.4075 53.794 29.8751C54.4408 30.1577 55.1038 30.4017 55.7795 30.6057C57.6029 31.1474 59.2436 30.8025 60.6875 29.5382C61.1787 29.1052 61.6684 28.6674 62.1424 28.2171C63.3249 27.0929 64.7042 26.7874 66.2804 27.1369C70.6435 28.1022 74.7831 29.7224 78.8865 31.4355C82.1474 32.7959 85.3612 34.2556 88.3041 36.249C90.4345 37.6913 91.5036 39.7555 92.0547 42.1993C93.349 47.9417 94.6953 53.6716 96.0179 59.4078C96.0321 59.5121 96.0373 59.6175 96.0337 59.7227C96.1911 64.5157 93.7238 66.7547 90.1117 68.1372C87.5923 69.1024 84.936 69.4283 82.2624 69.5401C78.3597 69.6924 74.4516 69.4444 70.5995 68.8001C61.152 67.2476 52.4508 63.8512 44.6078 58.3371C42.1169 56.5861 39.7786 54.6415 37.9442 52.1726C37.1617 51.1255 36.5192 50.0202 36.6735 48.6377Z" fill="#ED0000"/>
<path d="M36.6739 48.6399C36.5164 50.0224 37.1636 51.1277 37.9336 52.1717C39.768 54.6406 42.1062 56.5805 44.5972 58.3361C52.4402 63.8471 61.146 67.2466 70.5888 68.7991C74.441 69.4434 78.349 69.6914 82.2517 69.5392C84.9285 69.4274 87.5785 69.1014 90.101 68.1362C93.7131 66.7538 96.1836 64.5147 96.023 59.7217L97.0434 63.7652C97.0276 63.8471 97.0434 63.9022 97.1457 63.9006V63.8833C97.1457 64.9414 97.4716 65.946 97.6779 66.9648C98.4652 70.9012 97.1189 73.9684 93.9871 76.3177C91.452 78.2182 88.5075 79.1409 85.4261 79.6416C79.3451 80.6289 73.3018 80.1518 67.2901 79.0338C59.2754 77.5427 51.7584 74.7431 44.8775 70.3186C41.9771 68.4527 39.3129 66.3003 37.0943 63.6298C34.4852 60.4933 33.1799 57.0827 34.8002 53.0329C35.4216 51.5686 36.0462 50.1042 36.6739 48.6399Z" fill="#010000"/>
<path d="M97.1565 63.9026C97.0579 63.9026 97.0353 63.8477 97.0515 63.7637C97.1258 63.7782 97.2163 63.7814 97.1565 63.9026Z" fill="#ED0000"/>
</svg>
