<svg width="128" height="128" viewBox="0 0 128 128" fill="none" xmlns="http://www.w3.org/2000/svg">
<path d="M59.7875 71.2982C58.5065 71.2982 57.2661 71.2934 56.0251 71.3035C55.8463 71.3035 55.7927 71.2183 55.7272 71.0885C54.9008 69.4894 54.0673 67.8938 53.2439 66.2936C53.1653 66.1393 53.0807 66.0809 52.9061 66.0833C52.1817 66.0934 51.4572 66.097 50.7327 66.0833C50.5105 66.0785 50.4789 66.1565 50.4801 66.3531C50.4878 67.9111 50.4801 69.4691 50.4896 71.0271C50.4896 71.2481 50.4402 71.3083 50.2144 71.3053C49.2123 71.2916 48.2096 71.2934 47.2068 71.3053C47.0007 71.3053 46.9435 71.2559 46.9441 71.0456C46.9501 66.4509 46.9516 61.8563 46.9489 57.262C46.9489 57.1286 46.9066 56.991 47.1401 56.9921C49.702 57.0029 52.2639 56.9284 54.8216 57.0327C56.771 57.1119 58.2915 58.0455 59.0517 59.9365C59.9031 62.0623 58.9516 64.4603 56.8872 65.469C56.6727 65.5739 56.6822 65.6519 56.7847 65.8354C57.765 67.5989 58.7397 69.3664 59.7088 71.1379C59.7285 71.1754 59.7482 71.2189 59.7875 71.2982ZM52.4361 63.208H54.0447C54.0644 63.208 54.0846 63.208 54.1043 63.208C54.8502 63.1859 55.4603 62.7731 55.6736 62.1451C56.0453 61.0524 55.2863 60.0348 54.0649 60.0164C52.9443 59.9997 51.8236 60.0164 50.7029 60.0092C50.5403 60.0092 50.4813 60.0438 50.4825 60.2195C50.4912 61.1513 50.4912 62.0831 50.4825 63.015C50.4825 63.1758 50.5307 63.2133 50.6839 63.2116C51.2659 63.2026 51.8522 63.208 52.4361 63.208Z" fill="#020202"/>
<path d="M88.451 64.1553C88.451 61.8627 88.4551 59.5677 88.445 57.2775C88.445 57.0356 88.5159 56.9862 88.7429 56.9891C89.7454 57.0007 90.7481 57.0007 91.751 56.9891C91.9619 56.9891 92.0126 57.0487 92.0114 57.2537C92.003 58.901 92.0114 60.549 92.0013 62.1987C92.0013 62.4239 92.0477 62.4936 92.2872 62.4918C94.0543 62.4807 95.8218 62.4807 97.5897 62.4918C97.8394 62.4918 97.8704 62.4084 97.8698 62.1939C97.8614 60.5561 97.8698 58.9171 97.859 57.2811C97.859 57.0428 97.927 56.9879 98.1569 56.9909C99.1495 57.0034 100.142 57.0011 101.136 56.9909C101.331 56.9909 101.409 57.0225 101.409 57.2441C101.402 61.8516 101.402 66.4568 101.409 71.0598C101.409 71.257 101.354 71.3059 101.161 71.3041C100.139 71.2938 99.1159 71.2938 98.0932 71.3041C97.89 71.3041 97.8549 71.2415 97.8549 71.0557C97.862 69.3684 97.8549 67.6811 97.8656 65.9915C97.8656 65.7359 97.7953 65.6906 97.5564 65.6936C95.7988 65.7051 94.0416 65.7051 92.2849 65.6936C92.0257 65.6936 91.987 65.7698 91.987 66.0058C91.9977 67.6829 91.987 69.3606 91.9983 71.0378C91.9983 71.2642 91.9387 71.3172 91.7177 71.3142C90.715 71.3017 89.7122 71.2999 88.7095 71.3142C88.4712 71.3178 88.4414 71.2415 88.442 71.0324C88.4498 68.7398 88.4468 66.4449 88.4468 64.1547L88.451 64.1553Z" fill="#020202"/>
<path d="M80.2296 70.5431C79.6565 70.9072 79.0917 71.1723 78.4714 71.3224C75.4818 72.0487 72.261 69.833 71.8779 66.7795C71.5663 64.2915 72.6041 62.1288 74.7222 61.0141C76.4213 60.1204 78.1777 60.0924 79.9287 60.9003C80.2117 61.0308 80.2094 61.0356 80.21 60.7138C80.21 59.5533 80.2141 58.3903 80.2058 57.2321C80.2058 57.0378 80.2558 56.9681 80.4566 56.9282C81.3987 56.74 82.3371 56.5358 83.2717 56.3158C83.513 56.2592 83.5303 56.3378 83.5303 56.5374C83.5263 61.3787 83.5263 66.2199 83.5303 71.0609C83.5303 71.248 83.4927 71.3159 83.2872 71.3135C82.3546 71.3016 81.4212 71.3016 80.487 71.3135C80.2832 71.3135 80.1992 71.267 80.2237 71.0531C80.2348 70.8834 80.2368 70.7131 80.2296 70.5431ZM80.1897 65.8787C80.1897 65.3234 80.1837 64.7676 80.1933 64.2105C80.1988 64.1377 80.1848 64.0647 80.1526 63.9991C80.1205 63.9335 80.0714 63.8777 80.0104 63.8376C79.3802 63.3613 78.6048 63.1173 77.8155 63.147C75.7803 63.1935 74.4749 65.2383 75.3352 67.0459C76.2176 68.9017 78.7276 69.0578 80.092 67.8406C80.1879 67.7549 80.1903 67.6548 80.1897 67.5428C80.1889 66.9895 80.1889 66.4348 80.1897 65.8787Z" fill="#020202"/>
<path d="M63.08 67.0387C63.2085 67.3925 63.4212 67.7096 63.6997 67.9628C64.7399 68.9542 66.5898 69.0102 67.6849 68.0772C67.8314 67.9521 67.9101 67.936 68.0614 68.0772C68.6679 68.6337 69.2881 69.174 69.9084 69.7168C70.0186 69.8139 70.0823 69.8687 69.9256 70.0028C67.7862 71.8342 64.3705 72.0386 62.0517 70.4645C60.1494 69.174 59.261 66.8499 59.7961 64.5662C60.3108 62.3708 62.1792 60.6626 64.4015 60.3498C67.605 59.9 70.3308 62.0109 70.6984 65.2144C70.7579 65.7393 70.7442 66.2636 70.7651 66.7885C70.774 67.0072 70.6948 67.0459 70.4958 67.0453C68.1432 67.0385 65.7907 67.0372 63.4381 67.0411L63.08 67.0387ZM63.0205 64.6788H67.4579C67.1129 63.6159 66.2282 62.988 65.1212 63.0106C64.1215 63.0279 63.3041 63.6737 63.0205 64.6812V64.6788Z" fill="#020202"/>
<path d="M109.411 70.6819C107.921 71.5541 106.38 71.7311 104.791 71.2288C102.964 70.6509 102.044 68.7861 102.679 67.0303C103.049 66.0091 103.851 65.461 104.844 65.1649C106.278 64.7365 107.725 64.811 109.168 65.1256C109.366 65.1685 109.438 65.1559 109.413 64.9403C109.398 64.8026 109.413 64.662 109.403 64.5232C109.349 63.7701 108.932 63.2983 108.163 63.1374C107.145 62.9247 106.175 63.1511 105.219 63.4788C104.883 63.5944 104.55 63.7219 104.221 63.8583C104.102 63.9066 104.053 63.8893 104 63.7773C103.657 63.0624 103.311 62.3508 102.961 61.6426C102.902 61.5234 102.887 61.4639 103.036 61.3959C105.062 60.5136 107.156 60.0203 109.373 60.4117C110.707 60.647 111.789 61.2863 112.362 62.5905C112.63 63.2006 112.699 63.8482 112.698 64.5077C112.698 66.6818 112.693 68.857 112.703 71.0286C112.703 71.2526 112.65 71.3069 112.428 71.3033C111.534 71.289 110.64 71.2818 109.747 71.3033C109.449 71.3116 109.361 71.2217 109.408 70.9458C109.415 70.858 109.416 70.7698 109.411 70.6819ZM109.172 67.9496C109.164 67.8009 109.165 67.6519 109.176 67.5033C109.2 67.3073 109.128 67.2186 108.933 67.1947C108.51 67.1429 108.09 67.0601 107.667 67.0249C107.152 66.982 106.635 66.9934 106.14 67.178C105.832 67.2924 105.576 67.4652 105.471 67.8C105.302 68.3327 105.617 68.8427 106.253 69.0244C107.002 69.2383 107.746 69.165 108.478 68.9314C109.173 68.7098 109.172 68.7062 109.172 67.9782V67.9496Z" fill="#010101"/>
<path d="M121.971 68.4294C121.971 69.2981 121.971 70.1405 121.974 70.983C121.974 71.1057 121.91 71.1379 121.82 71.1581C120.561 71.4441 119.297 71.596 118.026 71.2469C116.568 70.8465 115.75 69.8075 115.73 68.3019C115.708 66.7243 115.711 65.1443 115.723 63.5678C115.723 63.2931 115.644 63.2431 115.394 63.252C114.848 63.2711 114.302 63.252 113.756 63.2628C113.569 63.2669 113.524 63.2121 113.526 63.0298C113.537 62.2553 113.537 61.4808 113.526 60.7062C113.523 60.5025 113.593 60.4596 113.781 60.4638C114.327 60.4751 114.874 60.4483 115.419 60.4757C115.699 60.49 115.736 60.3917 115.731 60.1468C115.715 59.4027 115.731 58.6573 115.722 57.9138C115.722 57.744 115.764 57.682 115.942 57.6463C116.893 57.4536 117.841 57.2481 118.787 57.0296C119.003 56.9796 119.059 57.0136 119.056 57.2388C119.046 58.2313 119.056 59.2239 119.046 60.2177C119.046 60.4328 119.106 60.4769 119.311 60.4739C120.145 60.462 120.979 60.4739 121.813 60.4638C122.025 60.4608 122.079 60.5233 122.077 60.7295C122.065 61.4933 122.065 62.2575 122.077 63.0221C122.08 63.2264 122.012 63.2645 121.824 63.2604C120.981 63.2508 120.137 63.2604 119.293 63.2514C119.101 63.2514 119.046 63.2979 119.048 63.4945C119.057 64.8053 119.048 66.116 119.054 67.4267C119.054 68.2358 119.357 68.5587 120.162 68.6326C120.769 68.6892 121.364 68.5998 121.971 68.4294Z" fill="#020202"/>
<path d="M33.085 63.9551C33.6849 64.1415 34.217 64.4633 34.7496 64.7856C36.1848 65.6578 37.402 66.7487 38.2761 68.2096C39.6869 70.5701 38.966 73.4567 37.3651 75.0987C36.1074 76.3885 34.5345 77.0677 32.8234 77.4818C30.6786 77.9995 28.5028 78.0818 26.3186 77.9352C21.0084 77.5777 16.0055 76.0883 11.2524 73.7349C9.01517 72.6261 6.9031 71.3154 5.05616 69.6204C3.98375 68.6362 3.01917 67.559 2.4347 66.2006C1.88241 64.9161 1.7984 63.625 2.52288 62.3744C3.04062 61.4808 3.88485 60.9851 4.81964 60.6282C5.96057 60.1927 7.15691 60.0241 8.36398 59.9168C8.73873 59.8835 9.11586 59.8715 9.4918 59.8501C8.88171 61.3825 9.378 62.6729 10.3646 63.8597C11.2041 64.8726 12.2116 65.6846 13.3096 66.3906C15.9114 68.0648 18.7557 69.1241 21.7888 69.6883C24.063 70.1113 26.3502 70.2919 28.6511 69.9183C29.8171 69.7288 30.9312 69.3821 31.8904 68.6606C33.0754 67.7717 33.5878 66.6099 33.2869 65.1216C33.2041 64.7355 33.0808 64.3572 33.085 63.9551Z" fill="#ED0000"/>
<path d="M10.2008 58.1873C10.5988 56.8819 11.0826 55.6057 11.533 54.3176C11.7904 53.5807 12.0191 52.8312 12.3468 52.1204C12.5804 51.6128 12.8616 51.1361 13.318 50.7894C13.9823 50.2842 14.7115 50.2609 15.4628 50.538C15.8798 50.6923 16.2707 50.9109 16.6788 51.0879C16.9235 51.1948 17.1744 51.2871 17.4301 51.3643C18.12 51.5693 18.7408 51.4388 19.2871 50.9604C19.473 50.7965 19.6583 50.6309 19.8377 50.4605C20.2851 50.0351 20.807 49.9196 21.4034 50.0518C23.0543 50.417 24.6206 51.0301 26.1733 51.6783C27.4071 52.1931 28.6231 52.7454 29.7367 53.4996C30.5428 54.0454 30.9473 54.8264 31.1558 55.7511C31.6456 57.9239 32.155 60.092 32.6554 62.2625C32.6608 62.3019 32.6628 62.3418 32.6614 62.3816C32.721 64.1952 31.7874 65.0424 30.4206 65.5655C29.4674 65.9307 28.4623 66.054 27.4506 66.0963C25.9739 66.1539 24.4952 66.0601 23.0376 65.8163C19.4629 65.2289 16.1706 63.9438 13.203 61.8573C12.2604 61.1948 11.3757 60.459 10.6816 59.5248C10.3855 59.1286 10.1424 58.7104 10.2008 58.1873Z" fill="#ED0000"/>
<path d="M10.201 58.188C10.1414 58.7111 10.3863 59.1293 10.6776 59.5243C11.3717 60.4585 12.2564 61.1925 13.199 61.8568C16.1666 63.9421 19.4607 65.2284 23.0336 65.8158C24.4912 66.0596 25.9699 66.1535 27.4466 66.0959C28.4595 66.0536 29.4622 65.9302 30.4166 65.565C31.7834 65.0419 32.7182 64.1947 32.6574 62.3811L33.0435 63.9111C33.0375 63.9421 33.0435 63.9629 33.0822 63.9623V63.9558C33.0822 64.3562 33.2055 64.7363 33.2836 65.1218C33.5815 66.6112 33.0721 67.7718 31.887 68.6607C30.9278 69.3798 29.8137 69.729 28.6477 69.9184C26.3468 70.292 24.0602 70.1115 21.7855 69.6885C18.7529 69.1242 15.9086 68.0649 13.305 66.3908C12.2076 65.6848 11.1995 64.8703 10.3601 63.8599C9.37284 62.6731 8.87893 61.3826 9.49199 59.8502C9.72713 59.2962 9.96346 58.7421 10.201 58.188Z" fill="#010000"/>
<path d="M33.0861 63.9632C33.0488 63.9632 33.0402 63.9424 33.0464 63.9106C33.0745 63.9161 33.1087 63.9174 33.0861 63.9632Z" fill="#ED0000"/>
</svg>
