<svg width="128" height="128" viewBox="0 0 128 128" fill="none" xmlns="http://www.w3.org/2000/svg">
<path d="M46.8356 81.5418C43.2048 81.5418 40.3475 78.7099 40.3475 75.1062C40.3475 71.5025 43.2014 68.6707 46.8356 68.6707C50.4697 68.6707 53.3473 71.5025 53.3473 75.1062C53.3744 78.7133 50.4934 81.5418 46.8356 81.5418ZM46.8356 70.3955C44.2576 70.3955 42.2535 72.4267 42.2535 75.1062C42.2535 77.7857 44.2576 79.8169 46.8356 79.8169C49.4135 79.8169 51.4447 77.762 51.4447 75.1062C51.4447 72.4504 49.4406 70.3955 46.8356 70.3955Z" fill="#010101"/>
<path d="M55.1517 72.249H56.9053V73.1242C57.684 72.4488 58.6607 72.0984 59.6864 72.0984C62.2644 72.0984 64.2685 74.1516 64.2685 76.7837C64.2685 79.4158 62.239 81.4674 59.6339 81.4674C58.6556 81.4674 57.7043 81.1661 56.9037 80.5652V85H55.1263L55.1534 72.249H55.15H55.1517ZM56.929 74.7559V78.864C57.5062 79.5157 58.4575 79.9389 59.4579 79.9389C61.2132 79.9389 62.5386 78.6101 62.5386 76.8091C62.5386 75.0081 61.2098 73.6793 59.4579 73.6793C58.4321 73.6793 57.5029 74.0568 56.929 74.7542V74.7559Z" fill="#010101"/>
<path d="M70.3553 81.4928C67.6741 81.4928 65.5955 79.4395 65.5955 76.7837C65.5955 74.1279 67.6013 72.0984 70.1555 72.0984C72.7098 72.0984 74.5379 74.1787 74.5379 76.8311V77.3558H67.3745C67.6013 78.8573 68.9029 79.9863 70.4314 79.9609C71.2575 79.988 72.0835 79.7121 72.7369 79.1602L73.8879 80.2893C72.8875 81.117 71.6332 81.5435 70.3553 81.4928ZM67.3728 76.0322H72.7589C72.4846 74.6289 71.4301 73.6015 70.1064 73.6015C68.7557 73.6286 67.6538 74.6019 67.3778 76.0322H67.3745H67.3728Z" fill="#010101"/>
<path d="M76.2391 72.2493H78.0164V73.1515C78.7409 72.427 79.7193 72.0224 80.7467 72.0766C82.827 72.0766 84.3013 73.5306 84.3013 75.6312V81.3423H82.524V75.9325C82.524 74.5056 81.6489 73.6271 80.2711 73.6271C79.3689 73.6 78.5158 74.0537 78.0164 74.8052V81.344H76.2391V72.2509V72.2493Z" fill="#010101"/>
<path d="M86.5863 77.9605C87.9371 79.2892 89.342 79.9155 90.8925 79.9155C92.6969 79.9155 93.9241 79.0624 93.9241 77.8352C93.9241 76.7333 93.2216 76.1815 91.3952 75.8802L89.3149 75.5281C87.0349 75.1506 85.9109 74.0758 85.9109 72.2714C85.9109 70.0946 87.7373 68.6897 90.5201 68.6897C92.3465 68.6897 94.1018 69.2889 95.5558 70.3908L94.5284 71.8178C93.1776 70.792 91.8218 70.2893 90.4456 70.2893C88.819 70.2893 87.739 71.0408 87.739 72.1428C87.739 73.1685 88.3653 73.6442 89.97 73.9201L91.9741 74.2451C94.6045 74.6716 95.8063 75.7736 95.8063 77.7032C95.8063 80.0086 93.8022 81.5337 90.8197 81.5337C88.8156 81.5337 86.8859 80.7331 85.4607 79.2808L86.5897 77.952V77.9588L86.5863 77.9605Z" fill="#010101"/>
<path d="M97.2824 68.8448L99.0597 68.4453V73.156C99.7842 72.4316 100.763 72.027 101.788 72.0795C103.869 72.0795 105.345 73.5335 105.345 75.6358V81.3469H103.567V75.9388C103.567 74.5119 102.691 73.6317 101.313 73.6317C100.41 73.6063 99.5591 74.0582 99.0597 74.8098V81.3486H97.2824V68.8482V68.8448Z" fill="#010101"/>
<path d="M107.198 69.6984C107.198 69.0975 107.674 68.5964 108.273 68.5964C108.872 68.6218 109.348 69.1466 109.326 69.7475C109.299 70.3247 108.85 70.8003 108.273 70.8003C107.696 70.8003 107.198 70.2976 107.198 69.6984ZM109.202 81.3423H107.425V72.2492H109.202V81.3423Z" fill="#010101"/>
<path d="M112.66 72.2507V70.8712C112.66 68.9923 113.735 67.9429 115.741 67.9429C116.168 67.9429 116.616 67.992 117.017 68.0952V69.6457C116.64 69.5204 116.266 69.4714 115.888 69.4934C114.91 69.4934 114.434 69.9419 114.434 70.8966V72.2253H117.012V73.7268H114.434V81.3167H112.657V73.7268H110.555V72.2253H112.657V72.2524L112.66 72.249V72.2507Z" fill="#010101"/>
<path d="M119.749 73.7558H117.82V72.2544H119.749V69.949L121.503 69.5225V72.2781H124.184V73.7812H121.503V78.6917C121.503 79.6193 121.88 79.968 122.832 79.968C123.28 79.968 123.708 79.9189 124.135 79.7412V81.2426C123.583 81.4169 123.006 81.4914 122.432 81.5185C120.655 81.5185 119.726 80.6924 119.726 79.1149L119.753 73.7542L119.749 73.7575V73.7558Z" fill="#010101"/>
<path d="M101.389 59.8535C101.389 61.883 102.616 62.885 104.847 62.885C105.549 62.858 106.225 62.7615 106.878 62.5837V60.2275C106.452 60.3528 106.001 60.429 105.549 60.429C104.622 60.429 104.297 60.1277 104.297 59.2779V55.6455H106.976V53.2148H104.297V50.1341L101.39 50.7621V53.2148H99.4625V55.6455H101.39V59.8551L101.389 59.8535ZM92.2975 59.9025C92.2975 59.2763 92.9237 58.975 93.875 58.975C94.4522 58.975 95.0531 59.0511 95.6032 59.2018V60.429C95.0531 60.7303 94.4268 60.8775 93.7768 60.8775C92.8493 60.8504 92.2975 60.5001 92.2975 59.8992M93.1726 62.9341C94.1983 62.9341 95.026 62.7073 95.803 62.1826V62.7598H98.6822V56.6475C98.6822 54.3184 97.1046 53.0404 94.4996 53.0404C93.0456 53.0404 91.5933 53.3908 90.0428 54.0933L91.0956 56.2481C92.2247 55.7724 93.1489 55.4965 93.9766 55.4965C95.1801 55.4965 95.803 55.9721 95.803 56.9234V57.3991C95.1005 57.2247 94.3761 57.1232 93.6482 57.1232C91.1955 57.1232 89.7144 58.1506 89.7144 60.0041C89.7144 61.6562 91.0432 62.9324 93.1726 62.9324V62.9341ZM77.319 62.7564H80.425V57.7969H85.6114V62.731H88.7174V50.107H85.6114V54.965H80.425V50.107H77.319V62.7564ZM65.4973 57.9729C65.4973 56.5951 66.5722 55.5422 68.0025 55.5422C68.754 55.5151 69.4565 55.791 70.0337 56.2938V59.6266C69.4819 60.1294 68.7574 60.4036 68.0025 60.3782C66.5993 60.4053 65.4973 59.3507 65.4973 57.9729ZM70.0794 62.7564H72.9603V49.5078L70.054 50.1341V53.7175C69.3041 53.2909 68.4764 53.0658 67.6233 53.0895C64.8423 53.0895 62.6638 55.2443 62.6638 57.9746C62.6367 60.6558 64.7661 62.8596 67.4456 62.885H67.5218C68.4493 62.885 69.3482 62.6091 70.0777 62.059V62.7615L70.0811 62.7564H70.0794ZM56.8308 55.4186C57.7584 55.4186 58.532 56.0195 58.835 56.9217H54.8521C55.128 55.9942 55.8525 55.4186 56.8308 55.4186ZM51.8933 58C51.8933 60.781 54.1733 62.9341 57.0796 62.9341C58.6843 62.9341 59.8607 62.5076 61.0608 61.4801L59.1329 59.7519C58.6843 60.2258 58.0038 60.4764 57.2303 60.4764C56.2028 60.5034 55.2753 59.8992 54.8741 58.975H61.6871V58.2505C61.6871 55.2189 59.6559 53.0421 56.8782 53.0421C54.1716 52.993 51.9441 55.1698 51.8916 57.8764V58H51.8933ZM46.8593 52.7882C47.885 52.7882 48.4639 53.4399 48.4639 54.2151C48.4639 54.9904 47.8867 55.6404 46.8593 55.6404H43.8023V52.7865H46.8593V52.7882ZM40.6725 62.7564H43.7786V58.1472H46.1348L48.513 62.7564H51.9712L49.1901 57.6987C50.6441 57.1215 51.5683 55.6945 51.5683 54.1441C51.5683 51.864 49.791 50.1138 47.1115 50.1138H40.6759V62.7632V62.7581L40.6725 62.7564Z" fill="#010101"/>
<path d="M23.7915 58.249C25.9463 58.249 29.0523 57.8004 29.0523 55.2445C29.0523 55.0447 29.0523 54.845 29.0033 54.6673L27.727 49.1068C27.4257 47.8796 27.1769 47.3295 25.0204 46.253C23.3429 45.4015 19.7375 44 18.6576 44C17.6572 44 17.356 45.3034 16.1779 45.3034C14.9997 45.3034 14.1737 44.3521 13.0989 44.3521C12.024 44.3521 11.396 45.0545 10.8679 46.5069C10.8679 46.5069 9.41392 50.5642 9.24127 51.1634C9.21418 51.265 9.19218 51.3902 9.19218 51.4884C9.21757 53.066 15.4263 58.2523 23.7949 58.2523M29.379 56.2956C29.6803 57.6988 29.6803 57.8461 29.6803 58.0238C29.6803 60.4291 26.9737 61.7562 23.4174 61.7562C15.3772 61.7562 8.36446 57.0472 8.36446 53.9428C8.36446 53.5162 8.46602 53.0897 8.61328 52.6902C5.73235 52.8409 2 53.3656 2 56.646C2 62.0558 14.7983 68.6945 24.9442 68.6945C32.7085 68.6945 34.6636 65.1872 34.6636 62.4062C34.6636 60.2514 32.761 57.7716 29.379 56.2956Z" fill="#E21F26"/>
<path d="M29.379 56.2936C29.6803 57.6968 29.6803 57.8458 29.6803 58.0235C29.6803 60.4271 26.9737 61.7558 23.4191 61.7558C15.3789 61.7558 8.36615 57.0705 8.36615 53.9645C8.36615 53.5379 8.46771 53.1113 8.61497 52.7119L9.24126 51.1614C9.21418 51.2629 9.19218 51.3882 9.19218 51.4847C9.19218 53.0623 15.428 58.2486 23.7695 58.2486C25.9243 58.2486 29.0303 57.8001 29.0303 55.2441C29.0303 55.0444 29.0303 54.8446 28.9812 54.6669L29.3807 56.2936H29.3773H29.379Z" fill="#010101"/>
</svg>
