<svg width="128" height="128" viewBox="0 0 128 128" fill="none" xmlns="http://www.w3.org/2000/svg">
<path d="M108.628 68.7586C101.711 77.4483 94.2403 87.3793 79.299 87.3793C65.953 87.3793 60.9809 75.6429 60.6314 66.1087C63.5555 72.2733 69.2725 77.2655 78.1922 77.0345C95.347 76.4828 107.106 61.0345 107.106 46.9655C107.106 30.1379 94.517 18 72.6584 18C57.0254 18 37.657 23.931 24.9293 33.3103C24.7909 42.9655 30.1864 55.5172 32.1232 54.1379C43.1574 46.2282 51.907 41.1364 60.3935 38.5834C47.8311 52.5502 17.6903 84.9805 14 90.6897C14.415 95.931 20.9173 110 24.0992 110C25.0676 110 25.8977 109.448 26.8661 108.483C35.9529 98.3036 43.3603 89.1773 49.949 80.3808C50.8742 93.2732 57.2329 109.034 75.0103 109.034C90.92 109.034 106.691 97.5862 113.885 71.7931C114.715 68.6207 110.842 66.1379 108.628 68.7586ZM90.505 47.931C90.505 56.069 82.4809 60.069 75.1486 60.069C71.2293 60.069 68.2185 59.0429 65.8375 57.7096C70.2186 51.0955 74.5554 44.3133 79.2148 37.0529C87.4306 38.4394 90.505 42.9924 90.505 47.931Z" fill="#FF4438"/>
</svg>
