<svg width="128" height="128" viewBox="0 0 128 128" fill="none" xmlns="http://www.w3.org/2000/svg">
<path d="M104.209 53.186C105.394 51.0909 107.334 48.8347 108.034 48.1364C111.267 49.4793 114.284 52.219 113.853 52.9174C112.614 54.9587 110.728 57.2686 110.028 57.9669C106.795 56.624 103.778 53.938 104.209 53.186ZM127 62.4256C126.623 64.2521 124.36 66.2934 123.39 66.6157C122.582 64.8967 121.666 63.876 120.804 63.876C119.726 63.876 119.672 64.6281 119.672 65.595C119.672 67.314 120.912 71.0744 120.912 74.9959C120.912 79.2934 117.894 82.4628 113.261 82.4628C109.018 82.4628 106.673 79.6897 105.627 75.2594C102.856 80.2114 98.8026 82.4628 95.6961 82.4628C90.8398 82.4628 89.6968 78.8839 89.812 75.254C87.8605 78.6923 84.1044 82.4628 80.5022 82.4628C76.8249 82.4628 75.526 79.2716 75.8238 75.5552C73.6207 79.6469 69.6352 82.4628 65.7931 82.4628C61.6239 82.4628 59.5603 79.1606 60.2281 75.0676C57.4232 78.5048 52.202 82.4628 46.7737 82.4628C40.5843 82.4628 37.8901 79.1352 37.5708 74.9654C34.5835 79.7389 30.557 82.624 25.7608 82.624C18.8372 82.624 16.3608 76.4855 16.0005 71.4644C13.4345 74.8903 10.5497 78.4447 7.01078 82.4091C6.63362 82.7851 6.31034 83 5.93319 83C4.69397 83 2.16164 77.5207 2 75.4793C3.43717 73.2558 15.1756 60.6254 20.0681 55.1859C16.763 56.1802 13.3554 58.1632 9.05819 61.2438C8.30388 61.781 6.20259 56.8926 6.25647 53.1322C11.2134 49.4793 18.7565 47.1694 24.8448 47.1694C33.3578 47.1694 38.2608 51.8967 38.2608 58.4504C38.2608 63.9298 33.681 69.9463 27 70.1612C23.5261 70.2511 21.2996 68.3069 20.1609 65.906C20.297 69.6192 22.2333 74.1901 27.431 74.1901C33.4655 74.1901 36.1595 70.3223 40.6853 64.6818C44.1336 60.438 48.1207 56.6777 53.9397 56.6777C57.4957 56.6777 59.9203 58.8802 59.9203 62.2107C59.9203 66.2397 55.1789 71.8264 48.5517 71.8264C47.4198 71.8264 46.3881 71.6778 45.5172 71.3839C45.4953 71.5533 45.4806 71.7199 45.4806 71.8802C45.4806 73.7603 46.181 74.8884 49.2522 74.8884C53.778 74.8884 58.0345 72.2025 63.2069 65.9174C68.2716 59.7397 72.097 57.0537 76.1379 57.0537C78.8657 57.0537 80.936 58.5277 81.8485 61.0102C87.2642 53.2115 91.8585 47.6859 95.75 44C99.5754 45.6116 102.323 48.781 101.569 49.4256C98.7134 52.0041 89.1767 62.3719 85.4052 68.5496C84.4353 70.1612 83.5194 71.9339 83.5194 72.7934C83.5194 73.5992 84.0043 73.8678 84.5431 73.8678C88.0991 73.8678 96.5582 62.3719 101.353 57.3223C104.371 58.5579 107.442 61.1901 106.688 62.1033C102.7 66.8306 99.6832 70.6983 99.6832 72.9008C99.6832 73.4917 99.8987 73.8678 100.707 73.8678C102.216 73.8678 103.616 72.5248 105.933 69.6777C106.418 69.0868 107.011 69.0868 107.388 70C108.412 72.4711 109.92 73.814 111.106 73.814C112.506 73.814 113.207 72.5785 113.207 70.6983C113.207 68.4422 112.722 65.5413 112.722 64.2521C112.722 59.9008 115.955 57.376 119.996 57.376C123.013 57.376 125.707 58.8264 127 62.4256ZM27.3982 54.5898C25.5836 57.4175 23.8946 60.0589 22.1883 62.6348C23.1156 63.1541 24.2882 63.5537 25.8147 63.5537C28.6703 63.5537 31.7953 61.9959 31.7953 58.8264C31.7953 56.903 30.5979 55.1298 27.3982 54.5898ZM46.3368 69.0155C46.9031 69.2337 47.5679 69.3554 48.2823 69.3554C52.1078 69.3554 54.694 66.4545 54.694 64.5207C54.694 63.6612 54.1552 63.0702 53.2931 63.0702C51.1315 63.0702 47.871 66.0948 46.3368 69.0155ZM78.4009 65.0041C78.4009 63.9298 77.8082 63.2851 76.8384 63.2851C73.6595 63.2851 68.8642 69.3017 68.8642 72.3099C68.8642 73.2769 69.403 73.9215 70.5345 73.9215C74.0366 73.9215 78.4009 67.5826 78.4009 65.0041Z" fill="#FF4438"/>
</svg>
