<svg width="128" height="128" viewBox="0 0 128 128" fill="none" xmlns="http://www.w3.org/2000/svg">
<path d="M28.5 75H18.2499L12.2498 66.25H22.4999L28.5 75Z" fill="url(#paint0_linear_13_1030)"/>
<path d="M18.4264 47C23.2995 47 27.25 50.9175 27.25 55.75C27.25 60.5825 23.2995 64.5 18.4264 64.5H12.2498V60.75H18.4264C21.211 60.75 23.4685 58.5114 23.4685 55.75C23.4685 52.9886 21.211 50.75 18.4264 50.75H12.2498V47H18.4264Z" fill="url(#paint1_linear_13_1030)"/>
<path d="M10.5002 75H1V66.25H10.5002V75Z" fill="#006BFF"/>
<path fill-rule="evenodd" clip-rule="evenodd" d="M10.5002 64.5H1V47H10.5002V64.5ZM3.50004 57H8.00012V54.5H3.50004V57Z" fill="#006BFF"/>
<path d="M80.0415 53.0153V52.1113H85.4702V53.0153H83.2774V59.0189H82.2436V53.0153H80.0415Z" fill="white"/>
<path d="M73.6624 59.0189V52.1113H74.8028L77.4406 56.2883C77.521 56.4181 77.6307 56.602 77.7698 56.84C77.9089 57.078 78.0479 57.319 78.187 57.5632C78.1778 57.3128 78.17 57.0594 78.1638 56.8029C78.1608 56.5433 78.1592 56.3501 78.1592 56.2234V52.1113H79.193V59.0189H78.0433L75.6836 55.2869C75.5878 55.1355 75.4487 54.9099 75.2664 54.6101C75.0871 54.3072 74.8832 53.9595 74.6544 53.567C74.6699 53.9719 74.6792 54.3211 74.6823 54.6147C74.6884 54.9053 74.6915 55.1278 74.6915 55.2823V59.0189H73.6624Z" fill="white"/>
<path d="M68.0715 59.0189V52.1113H72.7167V53.0153H69.1007V55.0505H72.4479V55.9452H69.1007V58.1149H72.7167V59.0189H68.0715Z" fill="white"/>
<path d="M62.9163 59.0189V52.1113H63.9454V58.1149H67.2138V59.0189H62.9163Z" fill="white"/>
<path d="M55.9624 59.0189L58.4704 52.1113H59.7129L62.2024 59.0189H61.0851L60.4732 57.2248H57.687L57.0565 59.0189H55.9624ZM57.9976 56.3486H60.1718L59.7546 55.1247C59.6619 54.8403 59.563 54.5359 59.4579 54.2114C59.3528 53.8869 59.2323 53.5006 59.0963 53.0524C58.9572 53.5006 58.8351 53.8869 58.7301 54.2114C58.625 54.5359 58.5245 54.8403 58.4287 55.1247L57.9976 56.3486Z" fill="white"/>
<path d="M53.0647 59.0189L50.5566 52.1113H51.6646L53.0322 56.0055C53.1157 56.2559 53.2115 56.551 53.3197 56.891C53.4278 57.2309 53.5545 57.6281 53.6998 58.0824C53.8389 57.6281 53.961 57.2309 54.066 56.891C54.1742 56.551 54.27 56.2559 54.3535 56.0055L55.684 52.1113H56.7734L54.3025 59.0189H53.0647Z" fill="white"/>
<path d="M47.2745 59.1301C46.6625 59.1301 46.1171 58.9802 45.638 58.6804C45.159 58.3806 44.7819 57.9634 44.5068 57.4287C44.2349 56.894 44.0989 56.2743 44.0989 55.5697C44.0989 54.8619 44.2349 54.2407 44.5068 53.706C44.7819 53.1683 45.159 52.7495 45.638 52.4497C46.1171 52.1499 46.6625 52 47.2745 52C47.8895 52 48.4366 52.1499 48.9156 52.4497C49.3947 52.7495 49.7702 53.1683 50.0421 53.706C50.3172 54.2407 50.4547 54.8619 50.4547 55.5697C50.4547 56.2743 50.3172 56.894 50.0421 57.4287C49.7702 57.9634 49.3947 58.3806 48.9156 58.6804C48.4366 58.9802 47.8895 59.1301 47.2745 59.1301ZM47.2745 58.189C47.6732 58.189 48.0348 58.0885 48.3593 57.8876C48.6838 57.6837 48.9419 57.387 49.1335 56.9975C49.3251 56.605 49.4209 56.1291 49.4209 55.5697C49.4209 55.0072 49.3251 54.5297 49.1335 54.1372C48.9419 53.7447 48.6838 53.448 48.3593 53.2471C48.0348 53.0431 47.6732 52.9411 47.2745 52.9411C46.8789 52.9411 46.5188 53.0431 46.1943 53.2471C45.8698 53.448 45.6117 53.7447 45.4201 54.1372C45.2285 54.5297 45.1327 55.0072 45.1327 55.5697C45.1327 56.1291 45.2285 56.605 45.4201 56.9975C45.6117 57.387 45.8698 57.6837 46.1943 57.8876C46.5188 58.0885 46.8789 58.189 47.2745 58.189Z" fill="white"/>
<path d="M40.7936 59.1301C39.9653 59.1301 39.3116 58.9215 38.8326 58.5042C38.3566 58.0839 38.1187 57.509 38.1187 56.7797H39.1478C39.1509 57.234 39.2962 57.5894 39.5836 57.8459C39.8741 58.1024 40.2775 58.2307 40.7936 58.2307C41.2634 58.2307 41.6389 58.1318 41.9201 57.934C42.2045 57.7331 42.3466 57.4642 42.3466 57.1273C42.3466 56.8616 42.2446 56.6468 42.0407 56.483C41.8398 56.3161 41.4998 56.1754 41.0207 56.0611L40.2651 55.8803C39.5666 55.7134 39.0567 55.4816 38.7352 55.1849C38.4169 54.8851 38.2577 54.4957 38.2577 54.0166C38.2577 53.6118 38.3597 53.2579 38.5637 52.955C38.7677 52.6521 39.0536 52.4172 39.4214 52.2503C39.7922 52.0834 40.2249 52 40.7194 52C41.4643 52 42.0561 52.1947 42.495 52.5841C42.9369 52.9735 43.1687 53.5051 43.1904 54.1789H42.1936C42.1689 53.7802 42.0237 53.468 41.7579 53.2424C41.4921 53.0137 41.1413 52.8994 40.7055 52.8994C40.2883 52.8994 39.9468 52.9998 39.681 53.2007C39.4152 53.3985 39.2823 53.6535 39.2823 53.9656C39.2823 54.216 39.3843 54.42 39.5882 54.5776C39.7922 54.7321 40.1306 54.8666 40.6035 54.9809L41.3499 55.1571C42.0422 55.3209 42.5522 55.5573 42.8798 55.8664C43.2105 56.1754 43.3758 56.5772 43.3758 57.0717C43.3758 57.4859 43.2692 57.8475 43.0559 58.1565C42.8427 58.4656 42.5429 58.7051 42.1566 58.8751C41.7702 59.0451 41.3159 59.1301 40.7936 59.1301Z" fill="white"/>
<path d="M37.1405 52.1113V59.0189H36.1113V52.1113H37.1405Z" fill="white"/>
<path d="M121.299 74.7301V73.286H122.089C122.283 73.286 122.42 73.2427 122.5 73.1562C122.579 73.0732 122.653 72.9272 122.721 72.7181L122.819 72.4585L120.623 66.7578H122.57L123.414 69.3864C123.475 69.5847 123.534 69.783 123.592 69.9813C123.65 70.1796 123.708 70.3798 123.765 70.5817C123.819 70.3798 123.875 70.1796 123.933 69.9813C123.994 69.783 124.055 69.5847 124.117 69.3864L124.977 66.7578H126.902L124.441 73.2752C124.247 73.7908 124.001 74.1622 123.706 74.3893C123.414 74.6165 123.028 74.7301 122.548 74.7301H121.299Z" fill="white"/>
<path d="M120.12 66.7579V68.1966H118.946V70.5493C118.946 70.7332 118.982 70.8594 119.054 70.9279C119.126 70.9964 119.267 71.0307 119.476 71.0307H120.12V72.4693H119.065C118.38 72.4693 117.877 72.3413 117.556 72.0853C117.239 71.8257 117.08 71.4183 117.08 70.863V68.1966H116.106V66.7579H117.08V65.2002H118.946V66.7579H120.12Z" fill="white"/>
<path d="M113.559 72.4696V66.7581H115.42V72.4696H113.559ZM114.484 66.201C114.188 66.201 113.943 66.1127 113.749 65.936C113.557 65.7593 113.462 65.5339 113.462 65.2599C113.462 64.9859 113.557 64.7623 113.749 64.5892C113.943 64.4126 114.188 64.3242 114.484 64.3242C114.783 64.3242 115.029 64.4126 115.22 64.5892C115.414 64.7623 115.512 64.9859 115.512 65.2599C115.512 65.5339 115.414 65.7593 115.22 65.936C115.029 66.1127 114.783 66.201 114.484 66.201Z" fill="white"/>
<path d="M109.113 72.4694V66.758H110.914V67.764H110.931C111.035 67.3998 111.197 67.1384 111.417 66.9797C111.641 66.8175 111.944 66.7363 112.326 66.7363C112.427 66.7363 112.517 66.7381 112.596 66.7417C112.679 66.7417 112.759 66.7435 112.834 66.7471V68.2832C112.766 68.2796 112.66 68.276 112.515 68.2724C112.371 68.2688 112.232 68.267 112.099 68.267C111.763 68.267 111.491 68.3787 111.282 68.6023C111.077 68.8258 110.974 69.1395 110.974 69.5434V72.4694H109.113Z" fill="white"/>
<path d="M104.413 72.5937C103.793 72.5937 103.31 72.3954 102.964 71.9987C102.621 71.6021 102.45 71.0522 102.45 70.3491V66.7578H104.311V69.9597C104.311 70.2986 104.392 70.5582 104.554 70.7385C104.716 70.9152 104.945 71.0036 105.241 71.0036C105.533 71.0036 105.767 70.9116 105.944 70.7277C106.121 70.5402 106.209 70.2518 106.209 69.8623V66.7578H108.069V72.4693H106.231V71.5444C106.039 71.8689 105.796 72.1249 105.5 72.3124C105.205 72.4999 104.842 72.5937 104.413 72.5937Z" fill="white"/>
<path d="M98.8696 72.599C98.2783 72.599 97.7608 72.4746 97.3173 72.2258C96.8774 71.9734 96.5331 71.6237 96.2843 71.1766C96.0391 70.7294 95.9165 70.2084 95.9165 69.6135C95.9165 69.0221 96.0391 68.5029 96.2843 68.0558C96.5331 67.6051 96.8792 67.2553 97.3227 67.0065C97.7662 66.7541 98.2819 66.6279 98.8696 66.6279C99.3996 66.6279 99.8702 66.7289 100.281 66.9308C100.692 67.1327 101.019 67.4122 101.26 67.7691C101.505 68.1261 101.642 68.5372 101.671 69.0023H99.8756C99.8467 68.7319 99.7458 68.5155 99.5727 68.3533C99.4032 68.1874 99.1815 68.1045 98.9075 68.1045C98.5577 68.1045 98.2855 68.2397 98.0908 68.5101C97.8997 68.7769 97.8041 69.1447 97.8041 69.6135C97.8041 70.0822 97.9015 70.4518 98.0962 70.7222C98.2909 70.9891 98.5613 71.1225 98.9075 71.1225C99.1815 71.1225 99.4014 71.0395 99.5673 70.8737C99.7332 70.7078 99.8341 70.4861 99.8702 70.2084H101.671C101.657 70.6736 101.529 71.0864 101.287 71.447C101.049 71.804 100.721 72.0852 100.303 72.2907C99.8882 72.4963 99.4105 72.599 98.8696 72.599Z" fill="white"/>
<path d="M92.5199 72.599C91.9358 72.599 91.422 72.471 90.9785 72.215C90.5386 71.959 90.1942 71.6074 89.9454 71.1603C89.7002 70.7096 89.5776 70.194 89.5776 69.6135C89.5776 69.033 89.7002 68.5191 89.9454 68.072C90.1942 67.6213 90.5368 67.2679 90.9731 67.0119C91.4093 66.7559 91.9087 66.6279 92.4712 66.6279C93.0445 66.6279 93.5475 66.7541 93.9802 67.0065C94.4165 67.2553 94.7573 67.6015 95.0025 68.045C95.2476 68.4849 95.3702 68.9933 95.3702 69.5702V70.0732H91.3949C91.4057 70.4374 91.5139 70.7258 91.7194 70.9386C91.9286 71.1513 92.217 71.2577 92.5848 71.2577C92.8588 71.2577 93.0878 71.2018 93.2717 71.09C93.4592 70.9782 93.5872 70.8286 93.6557 70.6411H95.327C95.2585 71.0233 95.0926 71.3623 94.8294 71.6579C94.5662 71.9536 94.2344 72.1844 93.8342 72.3502C93.4376 72.5161 92.9995 72.599 92.5199 72.599ZM91.4057 68.959H93.6341C93.5908 68.6598 93.4718 68.4254 93.2771 68.2559C93.0824 68.0864 92.83 68.0017 92.5199 68.0017C92.2062 68.0017 91.952 68.0864 91.7573 68.2559C91.5626 68.4254 91.4454 68.6598 91.4057 68.959Z" fill="white"/>
<path d="M85.6239 72.5992C84.5494 72.5992 83.7201 72.3576 83.136 71.8744C82.5518 71.3877 82.2598 70.699 82.2598 69.8083H84.1149C84.1293 70.1942 84.27 70.4952 84.5368 70.7116C84.8072 70.9279 85.175 71.0361 85.6401 71.0361C86.0512 71.0361 86.3811 70.9568 86.6299 70.7981C86.8823 70.6359 87.0085 70.4231 87.0085 70.1599C87.0085 69.9327 86.8985 69.747 86.6786 69.6028C86.4622 69.4586 86.1107 69.336 85.6239 69.235L84.7964 69.0674C83.2099 68.7428 82.4166 67.9838 82.4166 66.7903C82.4166 66.2928 82.5482 65.8565 82.8114 65.4815C83.0783 65.1029 83.4497 64.809 83.9256 64.5999C84.4016 64.3871 84.955 64.2808 85.5861 64.2808C86.5524 64.2808 87.315 64.5151 87.8739 64.9839C88.4328 65.449 88.7248 66.0944 88.7501 66.9202H86.949C86.9202 66.5884 86.7868 66.327 86.5488 66.1359C86.3108 65.9412 85.9989 65.8438 85.6131 65.8438C85.2453 65.8438 84.9442 65.9232 84.7099 66.0818C84.4791 66.2405 84.3637 66.446 84.3637 66.6984C84.3637 66.9184 84.4647 67.095 84.6666 67.2284C84.8721 67.3619 85.2056 67.4754 85.6672 67.5692L86.3757 67.7098C87.2699 67.8865 87.919 68.1605 88.3228 68.5319C88.7302 68.8997 88.934 69.3955 88.934 70.0193C88.934 70.8306 88.6419 71.4634 88.0578 71.9177C87.4737 72.372 86.6624 72.5992 85.6239 72.5992Z" fill="white"/>
<path d="M76.5646 72.599C75.9805 72.599 75.4666 72.471 75.0231 72.215C74.5832 71.959 74.2389 71.6074 73.9901 71.1603C73.7449 70.7096 73.6223 70.194 73.6223 69.6135C73.6223 69.033 73.7449 68.5191 73.9901 68.072C74.2389 67.6213 74.5814 67.2679 75.0177 67.0119C75.454 66.7559 75.9534 66.6279 76.5159 66.6279C77.0892 66.6279 77.5922 66.7541 78.0249 67.0065C78.4612 67.2553 78.8019 67.6015 79.0471 68.045C79.2923 68.4849 79.4149 68.9933 79.4149 69.5702V70.0732H75.4396C75.4504 70.4374 75.5586 70.7258 75.7641 70.9386C75.9732 71.1513 76.2617 71.2577 76.6295 71.2577C76.9035 71.2577 77.1325 71.2018 77.3164 71.09C77.5039 70.9782 77.6319 70.8286 77.7004 70.6411H79.3716C79.3031 71.0233 79.1373 71.3623 78.8741 71.6579C78.6108 71.9536 78.2791 72.1844 77.8789 72.3502C77.4822 72.5161 77.0442 72.599 76.5646 72.599ZM75.4504 68.959H77.6788C77.6355 68.6598 77.5165 68.4254 77.3218 68.2559C77.1271 68.0864 76.8747 68.0017 76.5646 68.0017C76.2509 68.0017 75.9967 68.0864 75.802 68.2559C75.6073 68.4254 75.4901 68.6598 75.4504 68.959Z" fill="white"/>
<path d="M63.8652 72.4692V66.7577H65.6555V67.8286C65.8213 67.4212 66.0611 67.1201 66.3748 66.9254C66.6885 66.7307 67.0311 66.6333 67.4025 66.6333C67.7847 66.6333 68.1254 66.7325 68.4247 66.9308C68.7276 67.1255 68.9385 67.4103 69.0575 67.7853C69.2017 67.4139 69.4415 67.1291 69.7768 66.9308C70.1122 66.7325 70.4835 66.6333 70.891 66.6333C71.4535 66.6333 71.915 66.8136 72.2756 67.1742C72.6398 67.5347 72.8219 68.0323 72.8219 68.6669V72.4692H70.9559V69.078C70.9559 68.7751 70.8748 68.5443 70.7125 68.3857C70.5539 68.2234 70.3483 68.1423 70.0959 68.1423C69.8327 68.1423 69.6218 68.2306 69.4631 68.4073C69.3081 68.584 69.2306 68.8166 69.2306 69.105V72.4692H67.4511V69.0563C67.4511 68.7787 67.3736 68.557 67.2186 68.3911C67.0635 68.2252 66.8598 68.1423 66.6074 68.1423C66.355 68.1423 66.1441 68.2306 65.9746 68.4073C65.8087 68.5804 65.7258 68.8256 65.7258 69.1429V72.4692H63.8652Z" fill="white"/>
<path d="M60.966 72.4696V66.7581H62.8266V72.4696H60.966ZM61.8909 66.201C61.5952 66.201 61.35 66.1127 61.1553 65.936C60.9642 65.7593 60.8687 65.5339 60.8687 65.2599C60.8687 64.9859 60.9642 64.7623 61.1553 64.5892C61.35 64.4126 61.5952 64.3242 61.8909 64.3242C62.1902 64.3242 62.4353 64.4126 62.6264 64.5892C62.8212 64.7623 62.9185 64.9859 62.9185 65.2599C62.9185 65.5339 62.8212 65.7593 62.6264 65.936C62.4353 66.1127 62.1902 66.201 61.8909 66.201Z" fill="white"/>
<path d="M60.2141 66.7579V68.1966H59.0404V70.5493C59.0404 70.7332 59.0765 70.8594 59.1486 70.9279C59.2207 70.9964 59.3613 71.0307 59.5705 71.0307H60.2141V72.4693H59.1594C58.4743 72.4693 57.9713 72.3413 57.6504 72.0853C57.3331 71.8257 57.1745 71.4183 57.1745 70.863V68.1966H56.2009V66.7579H57.1745V65.2002H59.0404V66.7579H60.2141Z" fill="white"/>
<path d="M51.8149 69.3646V72.4692H49.9543V66.7577H51.7933V67.6826C51.9844 67.3581 52.2278 67.102 52.5234 66.9145C52.8191 66.727 53.1815 66.6333 53.6106 66.6333C54.2307 66.6333 54.7121 66.8316 55.0546 67.2282C55.4008 67.6249 55.5739 68.1747 55.5739 68.8779V72.4692H53.7133V69.2673C53.7133 68.9283 53.6322 68.6705 53.4699 68.4939C53.3077 68.3136 53.0787 68.2234 52.783 68.2234C52.491 68.2234 52.2566 68.3172 52.0799 68.5047C51.9032 68.6886 51.8149 68.9752 51.8149 69.3646Z" fill="white"/>
<path d="M45.2543 72.5937C44.6341 72.5937 44.151 72.3954 43.8048 71.9987C43.4623 71.6021 43.291 71.0522 43.291 70.3491V66.7578H45.1516V69.9597C45.1516 70.2986 45.2327 70.5582 45.395 70.7385C45.5572 70.9152 45.7862 71.0036 46.0818 71.0036C46.3739 71.0036 46.6083 70.9116 46.785 70.7277C46.9616 70.5402 47.05 70.2518 47.05 69.8623V66.7578H48.9105V72.4693H47.0716V71.5444C46.8805 71.8689 46.6371 72.1249 46.3415 72.3124C46.0458 72.4999 45.6834 72.5937 45.2543 72.5937Z" fill="white"/>
<path d="M36 72.4694V64.4106H39.3209C39.9447 64.4106 40.4837 64.5224 40.938 64.746C41.3924 64.9659 41.7421 65.2796 41.9873 65.6871C42.2361 66.0945 42.3605 66.5777 42.3605 67.1366C42.3605 67.6522 42.2433 68.1029 42.0089 68.4887C41.7746 68.8745 41.4465 69.1774 41.0246 69.3974L42.5714 72.4694H40.5162L39.2019 69.7922H37.9471V72.4694H36ZM37.9471 68.2616H39.1911C39.5805 68.2616 39.8888 68.1588 40.1159 67.9533C40.3431 67.7477 40.4567 67.4755 40.4567 67.1366C40.4567 66.794 40.3431 66.52 40.1159 66.3145C39.8888 66.1089 39.5787 66.0062 39.1857 66.0062H37.9471V68.2616Z" fill="white"/>
<defs>
<linearGradient id="paint0_linear_13_1030" x1="12.2498" y1="64.625" x2="28.5" y2="64.5" gradientUnits="userSpaceOnUse">
<stop stop-color="#049FFC"/>
<stop offset="1" stop-color="#19C9FF"/>
</linearGradient>
<linearGradient id="paint1_linear_13_1030" x1="12.2498" y1="64.625" x2="28.5" y2="64.5" gradientUnits="userSpaceOnUse">
<stop stop-color="#049FFC"/>
<stop offset="1" stop-color="#19C9FF"/>
</linearGradient>
</defs>
</svg>
