<svg width="128" height="128" viewBox="0 0 128 128" fill="none" xmlns="http://www.w3.org/2000/svg">
<path d="M66.8928 76H44.1964L30.9106 56.625H53.6071L66.8928 76Z" fill="url(#paint0_linear_13_302)"/>
<path d="M44.5872 14C55.3776 14.0001 64.1249 22.6745 64.1249 33.375C64.1249 44.0755 55.3776 52.7499 44.5872 52.75H30.9106V44.4464H44.5872C50.7531 44.4464 55.7516 39.4895 55.7516 33.375C55.7516 27.2604 50.7531 22.3036 44.5872 22.3036H30.9106V14H44.5872Z" fill="url(#paint1_linear_13_302)"/>
<path d="M27.0357 76H6V56.625H27.0357V76Z" fill="#006BFF"/>
<path fill-rule="evenodd" clip-rule="evenodd" d="M27.0357 52.75H6V14H27.0357V52.75ZM11.5357 36.1429H21.5V30.6071H11.5357V36.1429Z" fill="#006BFF"/>
<path d="M62.3203 90.4121V89.2695H69.1816V90.4121H66.4102V98H65.1035V90.4121H62.3203Z" fill="black"/>
<path d="M54.2578 98V89.2695H55.6992L59.0332 94.5488C59.1348 94.7129 59.2734 94.9453 59.4492 95.2461C59.625 95.5469 59.8008 95.8516 59.9766 96.1602C59.9648 95.8438 59.9551 95.5234 59.9473 95.1992C59.9434 94.8711 59.9414 94.627 59.9414 94.4668V89.2695H61.248V98H59.7949L56.8125 93.2832C56.6914 93.0918 56.5156 92.8066 56.2852 92.4277C56.0586 92.0449 55.8008 91.6055 55.5117 91.1094C55.5312 91.6211 55.543 92.0625 55.5469 92.4336C55.5547 92.8008 55.5586 93.082 55.5586 93.2773V98H54.2578Z" fill="black"/>
<path d="M47.1914 98V89.2695H53.0625V90.4121H48.4922V92.9844H52.7227V94.1152H48.4922V96.8574H53.0625V98H47.1914Z" fill="black"/>
<path d="M40.6758 98V89.2695H41.9766V96.8574H46.1074V98H40.6758Z" fill="black"/>
<path d="M31.8867 98L35.0566 89.2695H36.627L39.7734 98H38.3613L37.5879 95.7324H34.0664L33.2695 98H31.8867ZM34.459 94.625H37.207L36.6797 93.0781C36.5625 92.7188 36.4375 92.334 36.3047 91.9238C36.1719 91.5137 36.0195 91.0254 35.8477 90.459C35.6719 91.0254 35.5176 91.5137 35.3848 91.9238C35.252 92.334 35.125 92.7188 35.0039 93.0781L34.459 94.625Z" fill="black"/>
<path d="M28.2246 98L25.0547 89.2695H26.4551L28.1836 94.1914C28.2891 94.5078 28.4102 94.8809 28.5469 95.3105C28.6836 95.7402 28.8438 96.2422 29.0273 96.8164C29.2031 96.2422 29.3574 95.7402 29.4902 95.3105C29.627 94.8809 29.748 94.5078 29.8535 94.1914L31.5352 89.2695H32.9121L29.7891 98H28.2246Z" fill="black"/>
<path d="M20.9062 98.1406C20.1328 98.1406 19.4434 97.9512 18.8379 97.5723C18.2324 97.1934 17.7559 96.666 17.4082 95.9902C17.0645 95.3145 16.8926 94.5312 16.8926 93.6406C16.8926 92.7461 17.0645 91.9609 17.4082 91.2852C17.7559 90.6055 18.2324 90.0762 18.8379 89.6973C19.4434 89.3184 20.1328 89.1289 20.9062 89.1289C21.6836 89.1289 22.375 89.3184 22.9805 89.6973C23.5859 90.0762 24.0605 90.6055 24.4043 91.2852C24.752 91.9609 24.9258 92.7461 24.9258 93.6406C24.9258 94.5312 24.752 95.3145 24.4043 95.9902C24.0605 96.666 23.5859 97.1934 22.9805 97.5723C22.375 97.9512 21.6836 98.1406 20.9062 98.1406ZM20.9062 96.9512C21.4102 96.9512 21.8672 96.8242 22.2773 96.5703C22.6875 96.3125 23.0137 95.9375 23.2559 95.4453C23.498 94.9492 23.6191 94.3477 23.6191 93.6406C23.6191 92.9297 23.498 92.3262 23.2559 91.8301C23.0137 91.334 22.6875 90.959 22.2773 90.7051C21.8672 90.4473 21.4102 90.3184 20.9062 90.3184C20.4062 90.3184 19.9512 90.4473 19.541 90.7051C19.1309 90.959 18.8047 91.334 18.5625 91.8301C18.3203 92.3262 18.1992 92.9297 18.1992 93.6406C18.1992 94.3477 18.3203 94.9492 18.5625 95.4453C18.8047 95.9375 19.1309 96.3125 19.541 96.5703C19.9512 96.8242 20.4062 96.9512 20.9062 96.9512Z" fill="black"/>
<path d="M12.7148 98.1406C11.668 98.1406 10.8418 97.877 10.2363 97.3496C9.63477 96.8184 9.33398 96.0918 9.33398 95.1699H10.6348C10.6387 95.7441 10.8223 96.1934 11.1855 96.5176C11.5527 96.8418 12.0625 97.0039 12.7148 97.0039C13.3086 97.0039 13.7832 96.8789 14.1387 96.6289C14.498 96.375 14.6777 96.0352 14.6777 95.6094C14.6777 95.2734 14.5488 95.002 14.291 94.7949C14.0371 94.584 13.6074 94.4062 13.002 94.2617L12.0469 94.0332C11.1641 93.8223 10.5195 93.5293 10.1133 93.1543C9.71094 92.7754 9.50977 92.2832 9.50977 91.6777C9.50977 91.166 9.63867 90.7188 9.89648 90.3359C10.1543 89.9531 10.5156 89.6562 10.9805 89.4453C11.4492 89.2344 11.9961 89.1289 12.6211 89.1289C13.5625 89.1289 14.3105 89.375 14.8652 89.8672C15.4238 90.3594 15.7168 91.0312 15.7441 91.8828H14.4844C14.4531 91.3789 14.2695 90.9844 13.9336 90.6992C13.5977 90.4102 13.1543 90.2656 12.6035 90.2656C12.0762 90.2656 11.6445 90.3926 11.3086 90.6465C10.9727 90.8965 10.8047 91.2188 10.8047 91.6133C10.8047 91.9297 10.9336 92.1875 11.1914 92.3867C11.4492 92.582 11.877 92.752 12.4746 92.8965L13.418 93.1191C14.293 93.3262 14.9375 93.625 15.3516 94.0156C15.7695 94.4062 15.9785 94.9141 15.9785 95.5391C15.9785 96.0625 15.8438 96.5195 15.5742 96.9102C15.3047 97.3008 14.9258 97.6035 14.4375 97.8184C13.9492 98.0332 13.375 98.1406 12.7148 98.1406Z" fill="black"/>
<path d="M8.09766 89.2695V98H6.79688V89.2695H8.09766Z" fill="black"/>
<path d="M114.466 117.857V116.032H115.464C115.71 116.032 115.883 115.978 115.983 115.868C116.084 115.763 116.177 115.579 116.264 115.314L116.387 114.986L113.611 107.781H116.072L117.139 111.104C117.216 111.354 117.291 111.605 117.364 111.855C117.437 112.106 117.51 112.359 117.583 112.614C117.651 112.359 117.722 112.106 117.795 111.855C117.872 111.605 117.95 111.354 118.027 111.104L119.114 107.781H121.548L118.438 116.019C118.191 116.67 117.882 117.14 117.508 117.427C117.139 117.714 116.651 117.857 116.045 117.857H114.466Z" fill="black"/>
<path d="M112.976 107.781V109.6H111.492V112.573C111.492 112.806 111.538 112.965 111.629 113.052C111.72 113.138 111.898 113.182 112.162 113.182H112.976V115H111.643C110.777 115 110.141 114.838 109.735 114.515C109.334 114.187 109.134 113.672 109.134 112.97V109.6H107.903V107.781H109.134V105.812H111.492V107.781H112.976Z" fill="black"/>
<path d="M104.684 115V107.781H107.035V115H104.684ZM105.853 107.077C105.479 107.077 105.169 106.965 104.923 106.742C104.681 106.519 104.561 106.234 104.561 105.888C104.561 105.541 104.681 105.259 104.923 105.04C105.169 104.817 105.479 104.705 105.853 104.705C106.231 104.705 106.541 104.817 106.782 105.04C107.028 105.259 107.151 105.541 107.151 105.888C107.151 106.234 107.028 106.519 106.782 106.742C106.541 106.965 106.231 107.077 105.853 107.077Z" fill="black"/>
<path d="M99.0645 115V107.781H101.341V109.053H101.361C101.493 108.592 101.699 108.262 101.977 108.062C102.259 107.856 102.642 107.754 103.125 107.754C103.253 107.754 103.367 107.756 103.467 107.761C103.572 107.761 103.672 107.763 103.768 107.768V109.709C103.681 109.704 103.547 109.7 103.364 109.695C103.182 109.691 103.007 109.688 102.838 109.688C102.414 109.688 102.07 109.83 101.806 110.112C101.546 110.395 101.416 110.791 101.416 111.302V115H99.0645Z" fill="black"/>
<path d="M93.124 115.157C92.3402 115.157 91.7295 114.907 91.292 114.405C90.859 113.904 90.6426 113.209 90.6426 112.32V107.781H92.9941V111.828C92.9941 112.257 93.0967 112.585 93.3018 112.812C93.5068 113.036 93.7962 113.147 94.1699 113.147C94.5391 113.147 94.8353 113.031 95.0586 112.799C95.2819 112.562 95.3936 112.197 95.3936 111.705V107.781H97.7451V115H95.4209V113.831C95.1794 114.241 94.8717 114.565 94.498 114.802C94.1243 115.039 93.6663 115.157 93.124 115.157Z" fill="black"/>
<path d="M86.1172 115.164C85.3698 115.164 84.7158 115.007 84.1553 114.692C83.5993 114.373 83.1641 113.931 82.8496 113.366C82.5397 112.801 82.3848 112.143 82.3848 111.391C82.3848 110.643 82.5397 109.987 82.8496 109.422C83.1641 108.852 83.6016 108.41 84.1621 108.096C84.7227 107.777 85.3743 107.617 86.1172 107.617C86.7871 107.617 87.3818 107.745 87.9014 108C88.4209 108.255 88.8333 108.608 89.1387 109.06C89.4486 109.511 89.6217 110.03 89.6582 110.618H87.3887C87.3522 110.276 87.2246 110.003 87.0059 109.798C86.7917 109.588 86.5114 109.483 86.165 109.483C85.723 109.483 85.3789 109.654 85.1328 109.996C84.8913 110.333 84.7705 110.798 84.7705 111.391C84.7705 111.983 84.8936 112.45 85.1396 112.792C85.3857 113.129 85.7275 113.298 86.165 113.298C86.5114 113.298 86.7894 113.193 86.999 112.983C87.2087 112.774 87.3363 112.493 87.3818 112.143H89.6582C89.64 112.73 89.4782 113.252 89.1729 113.708C88.8721 114.159 88.4574 114.515 87.9287 114.774C87.4046 115.034 86.8008 115.164 86.1172 115.164Z" fill="black"/>
<path d="M78.0918 115.164C77.3535 115.164 76.7041 115.002 76.1436 114.679C75.5876 114.355 75.1523 113.911 74.8379 113.346C74.528 112.776 74.373 112.124 74.373 111.391C74.373 110.657 74.528 110.007 74.8379 109.442C75.1523 108.873 75.5853 108.426 76.1367 108.103C76.6882 107.779 77.3193 107.617 78.0303 107.617C78.7549 107.617 79.3906 107.777 79.9375 108.096C80.4889 108.41 80.9196 108.848 81.2295 109.408C81.5394 109.964 81.6943 110.607 81.6943 111.336V111.972H76.6699C76.6836 112.432 76.8203 112.797 77.0801 113.065C77.3444 113.334 77.709 113.469 78.1738 113.469C78.5202 113.469 78.8096 113.398 79.042 113.257C79.279 113.116 79.4408 112.926 79.5273 112.689H81.6396C81.5531 113.173 81.3434 113.601 81.0107 113.975C80.6781 114.348 80.2588 114.64 79.7529 114.85C79.2516 115.059 78.6979 115.164 78.0918 115.164ZM76.6836 110.563H79.5C79.4453 110.185 79.2949 109.889 79.0488 109.675C78.8027 109.461 78.4837 109.354 78.0918 109.354C77.6953 109.354 77.374 109.461 77.1279 109.675C76.8818 109.889 76.7337 110.185 76.6836 110.563Z" fill="black"/>
<path d="M69.376 115.164C68.0179 115.164 66.9697 114.859 66.2314 114.248C65.4932 113.633 65.124 112.762 65.124 111.637H67.4688C67.487 112.124 67.6647 112.505 68.002 112.778C68.3438 113.052 68.8086 113.188 69.3965 113.188C69.916 113.188 70.333 113.088 70.6475 112.888C70.9665 112.683 71.126 112.414 71.126 112.081C71.126 111.794 70.987 111.559 70.709 111.377C70.4355 111.195 69.9912 111.04 69.376 110.912L68.3301 110.7C66.3249 110.29 65.3223 109.331 65.3223 107.822C65.3223 107.193 65.4886 106.642 65.8213 106.168C66.1585 105.689 66.6279 105.318 67.2295 105.054C67.8311 104.785 68.5306 104.65 69.3281 104.65C70.5495 104.65 71.5133 104.947 72.2197 105.539C72.9261 106.127 73.2952 106.943 73.3271 107.986H71.0508C71.0143 107.567 70.8457 107.237 70.5449 106.995C70.2441 106.749 69.8499 106.626 69.3623 106.626C68.8975 106.626 68.5169 106.726 68.2207 106.927C67.929 107.127 67.7832 107.387 67.7832 107.706C67.7832 107.984 67.9108 108.207 68.166 108.376C68.4258 108.545 68.8473 108.688 69.4307 108.807L70.3262 108.984C71.4564 109.208 72.2767 109.554 72.7871 110.023C73.3021 110.488 73.5596 111.115 73.5596 111.903C73.5596 112.929 73.1904 113.729 72.4521 114.303C71.7139 114.877 70.6885 115.164 69.376 115.164Z" fill="black"/>
<path d="M57.9258 115.164C57.1875 115.164 56.5381 115.002 55.9775 114.679C55.4215 114.355 54.9863 113.911 54.6719 113.346C54.362 112.776 54.207 112.124 54.207 111.391C54.207 110.657 54.362 110.007 54.6719 109.442C54.9863 108.873 55.4193 108.426 55.9707 108.103C56.5221 107.779 57.1533 107.617 57.8643 107.617C58.5889 107.617 59.2246 107.777 59.7715 108.096C60.3229 108.41 60.7536 108.848 61.0635 109.408C61.3734 109.964 61.5283 110.607 61.5283 111.336V111.972H56.5039C56.5176 112.432 56.6543 112.797 56.9141 113.065C57.1784 113.334 57.543 113.469 58.0078 113.469C58.3542 113.469 58.6436 113.398 58.876 113.257C59.113 113.116 59.2747 112.926 59.3613 112.689H61.4736C61.387 113.173 61.1774 113.601 60.8447 113.975C60.512 114.348 60.0928 114.64 59.5869 114.85C59.0856 115.059 58.5319 115.164 57.9258 115.164ZM56.5176 110.563H59.334C59.2793 110.185 59.1289 109.889 58.8828 109.675C58.6367 109.461 58.3177 109.354 57.9258 109.354C57.5293 109.354 57.208 109.461 56.9619 109.675C56.7158 109.889 56.5677 110.185 56.5176 110.563Z" fill="black"/>
<path d="M41.875 115V107.781H44.1377V109.135C44.3473 108.62 44.6504 108.239 45.0469 107.993C45.4434 107.747 45.8763 107.624 46.3457 107.624C46.8288 107.624 47.2594 107.749 47.6377 108C48.0205 108.246 48.2871 108.606 48.4375 109.08C48.6198 108.611 48.9229 108.251 49.3467 108C49.7705 107.749 50.2399 107.624 50.7549 107.624C51.4658 107.624 52.0492 107.852 52.5049 108.308C52.9652 108.763 53.1953 109.392 53.1953 110.194V115H50.8369V110.714C50.8369 110.331 50.7344 110.039 50.5293 109.839C50.3288 109.634 50.069 109.531 49.75 109.531C49.4173 109.531 49.1507 109.643 48.9502 109.866C48.7542 110.09 48.6562 110.383 48.6562 110.748V115H46.4072V110.687C46.4072 110.336 46.3092 110.055 46.1133 109.846C45.9173 109.636 45.6598 109.531 45.3408 109.531C45.0218 109.531 44.7552 109.643 44.541 109.866C44.3314 110.085 44.2266 110.395 44.2266 110.796V115H41.875Z" fill="black"/>
<path d="M38.2109 115V107.781H40.5625V115H38.2109ZM39.3799 107.077C39.0062 107.077 38.6963 106.965 38.4502 106.742C38.2087 106.519 38.0879 106.234 38.0879 105.888C38.0879 105.541 38.2087 105.259 38.4502 105.04C38.6963 104.817 39.0062 104.705 39.3799 104.705C39.7581 104.705 40.068 104.817 40.3096 105.04C40.5557 105.259 40.6787 105.541 40.6787 105.888C40.6787 106.234 40.5557 106.519 40.3096 106.742C40.068 106.965 39.7581 107.077 39.3799 107.077Z" fill="black"/>
<path d="M37.2607 107.781V109.6H35.7773V112.573C35.7773 112.806 35.8229 112.965 35.9141 113.052C36.0052 113.138 36.1829 113.182 36.4473 113.182H37.2607V115H35.9277C35.0618 115 34.4261 114.838 34.0205 114.515C33.6195 114.187 33.4189 113.672 33.4189 112.97V109.6H32.1885V107.781H33.4189V105.812H35.7773V107.781H37.2607Z" fill="black"/>
<path d="M26.6445 111.076V115H24.293V107.781H26.6172V108.95C26.8587 108.54 27.1663 108.216 27.54 107.979C27.9137 107.743 28.3717 107.624 28.9141 107.624C29.6979 107.624 30.3063 107.875 30.7393 108.376C31.1768 108.877 31.3955 109.572 31.3955 110.461V115H29.0439V110.953C29.0439 110.525 28.9414 110.199 28.7363 109.976C28.5312 109.748 28.2419 109.634 27.8682 109.634C27.499 109.634 27.2028 109.752 26.9795 109.989C26.7562 110.222 26.6445 110.584 26.6445 111.076Z" fill="black"/>
<path d="M18.3525 115.157C17.5687 115.157 16.958 114.907 16.5205 114.405C16.0876 113.904 15.8711 113.209 15.8711 112.32V107.781H18.2227V111.828C18.2227 112.257 18.3252 112.585 18.5303 112.812C18.7354 113.036 19.0247 113.147 19.3984 113.147C19.7676 113.147 20.0638 113.031 20.2871 112.799C20.5104 112.562 20.6221 112.197 20.6221 111.705V107.781H22.9736V115H20.6494V113.831C20.4079 114.241 20.1003 114.565 19.7266 114.802C19.3529 115.039 18.8949 115.157 18.3525 115.157Z" fill="black"/>
<path d="M6.65625 115V104.814H10.8535C11.6419 104.814 12.3232 104.956 12.8975 105.238C13.4717 105.516 13.9137 105.913 14.2236 106.428C14.5381 106.943 14.6953 107.553 14.6953 108.26C14.6953 108.911 14.5472 109.481 14.251 109.969C13.9548 110.456 13.54 110.839 13.0068 111.117L14.9619 115H12.3643L10.7031 111.616H9.11719V115H6.65625ZM9.11719 109.682H10.6895C11.1816 109.682 11.5713 109.552 11.8584 109.292C12.1455 109.032 12.2891 108.688 12.2891 108.26C12.2891 107.827 12.1455 107.48 11.8584 107.221C11.5713 106.961 11.1794 106.831 10.6826 106.831H9.11719V109.682Z" fill="black"/>
<defs>
<linearGradient id="paint0_linear_13_302" x1="30.9106" y1="53.0268" x2="66.8928" y2="52.75" gradientUnits="userSpaceOnUse">
<stop stop-color="#049FFC"/>
<stop offset="1" stop-color="#19C9FF"/>
</linearGradient>
<linearGradient id="paint1_linear_13_302" x1="30.9106" y1="53.0268" x2="66.8928" y2="52.75" gradientUnits="userSpaceOnUse">
<stop stop-color="#049FFC"/>
<stop offset="1" stop-color="#19C9FF"/>
</linearGradient>
</defs>
</svg>
