<svg width="128" height="128" viewBox="0 0 128 128" fill="none" xmlns="http://www.w3.org/2000/svg">
<path d="M62.127 51.3401V50.147H69.2919V51.3401H66.3978V59.2638H65.0333V51.3401H62.127Z" fill="white"/>
<path d="M53.7073 59.2638V50.147H55.2125L58.694 55.6599C58.8 55.8312 58.9448 56.0739 59.1284 56.388C59.312 56.7021 59.4955 57.0203 59.6791 57.3425C59.6669 57.0121 59.6567 56.6776 59.6485 56.339C59.6444 55.9964 59.6424 55.7415 59.6424 55.5742V50.147H61.0068V59.2638H59.4894L56.375 54.3382C56.2486 54.1384 56.065 53.8406 55.8243 53.4449C55.5877 53.0452 55.3185 52.5863 55.0167 52.0682C55.0371 52.6026 55.0493 53.0635 55.0534 53.451C55.0615 53.8345 55.0656 54.1282 55.0656 54.3321V59.2638H53.7073Z" fill="white"/>
<path d="M46.3306 59.2638V50.147H52.4615V51.3401H47.6889V54.0262H52.1066V55.2071H47.6889V58.0706H52.4615V59.2638H46.3306Z" fill="white"/>
<path d="M39.5244 59.2638V50.147H40.8828V58.0706H45.1964V59.2638H39.5244Z" fill="white"/>
<path d="M30.3479 59.2638L33.6581 50.147H35.2979L38.5836 59.2638H37.109L36.3014 56.8958H32.624L31.7919 59.2638H30.3479ZM33.034 55.7394H35.9036L35.353 54.1241C35.2306 53.7488 35.1001 53.347 34.9614 52.9187C34.8227 52.4904 34.6636 51.9805 34.4841 51.3891C34.3006 51.9805 34.1394 52.4904 34.0007 52.9187C33.8621 53.347 33.7295 53.7488 33.603 54.1241L33.034 55.7394Z" fill="white"/>
<path d="M26.5238 59.2638L23.2136 50.147H24.676L26.481 55.2866C26.5911 55.617 26.7176 56.0066 26.8603 56.4553C27.0031 56.904 27.1704 57.4282 27.3621 58.0278C27.5456 57.4282 27.7068 56.904 27.8454 56.4553C27.9882 56.0066 28.1147 55.617 28.2248 55.2866L29.9809 50.147H31.4187L28.1575 59.2638H26.5238Z" fill="white"/>
<path d="M18.8817 59.4105C18.074 59.4105 17.3541 59.2127 16.7218 58.817C16.0896 58.4213 15.5919 57.8706 15.2289 57.1649C14.8699 56.4593 14.6904 55.6414 14.6904 54.7114C14.6904 53.7772 14.8699 52.9573 15.2289 52.2517C15.5919 51.5419 16.0896 50.9892 16.7218 50.5935C17.3541 50.1978 18.074 50 18.8817 50C19.6935 50 20.4155 50.1978 21.0477 50.5935C21.68 50.9892 22.1756 51.5419 22.5346 52.2517C22.8976 52.9573 23.0791 53.7772 23.0791 54.7114C23.0791 55.6414 22.8976 56.4593 22.5346 57.1649C22.1756 57.8706 21.68 58.4213 21.0477 58.817C20.4155 59.2127 19.6935 59.4105 18.8817 59.4105ZM18.8817 58.1684C19.4079 58.1684 19.8852 58.0358 20.3135 57.7707C20.7418 57.5015 21.0824 57.1099 21.3353 56.5959C21.5882 56.0779 21.7147 55.4497 21.7147 54.7114C21.7147 53.969 21.5882 53.3387 21.3353 52.8207C21.0824 52.3027 20.7418 51.9111 20.3135 51.6459C19.8852 51.3767 19.4079 51.2421 18.8817 51.2421C18.3596 51.2421 17.8844 51.3767 17.4561 51.6459C17.0278 51.9111 16.6872 52.3027 16.4342 52.8207C16.1813 53.3387 16.0549 53.969 16.0549 54.7114C16.0549 55.4497 16.1813 56.0779 16.4342 56.5959C16.6872 57.1099 17.0278 57.5015 17.4561 57.7707C17.8844 58.0358 18.3596 58.1684 18.8817 58.1684Z" fill="white"/>
<path d="M10.3273 59.4105C9.23414 59.4105 8.37141 59.1351 7.73915 58.5845C7.11097 58.0297 6.79688 57.271 6.79688 56.3083H8.15522C8.1593 56.908 8.35101 57.3771 8.73037 57.7156C9.11381 58.0542 9.64613 58.2235 10.3273 58.2235C10.9474 58.2235 11.443 58.0929 11.8142 57.8319C12.1895 57.5667 12.3771 57.2119 12.3771 56.7672C12.3771 56.4164 12.2425 56.1329 11.9733 55.9167C11.7081 55.6965 11.2594 55.5109 10.6272 55.3599L9.62981 55.1213C8.70794 54.901 8.03488 54.5951 7.61066 54.2035C7.19051 53.8078 6.98043 53.2939 6.98043 52.6616C6.98043 52.1273 7.11505 51.6602 7.38427 51.2604C7.65349 50.8607 8.0308 50.5507 8.51622 50.3304C9.00571 50.1101 9.57679 50 10.2294 50C11.2125 50 11.9937 50.257 12.5729 50.771C13.1562 51.2849 13.4621 51.9865 13.4907 52.8758H12.1752C12.1425 52.3496 11.9508 51.9376 11.6 51.6398C11.2492 51.3379 10.7862 51.187 10.2111 51.187C9.66041 51.187 9.20967 51.3196 8.85886 51.5847C8.50806 51.8458 8.33266 52.1823 8.33266 52.5943C8.33266 52.9247 8.46727 53.1939 8.73649 53.402C9.00571 53.6059 9.45237 53.7834 10.0765 53.9343L11.0616 54.1668C11.9753 54.383 12.6484 54.695 13.0807 55.103C13.5172 55.5109 13.7354 56.0411 13.7354 56.6938C13.7354 57.2404 13.5947 57.7177 13.3132 58.1256C13.0318 58.5335 12.6361 58.8496 12.1262 59.074C11.6163 59.2983 11.0167 59.4105 10.3273 59.4105Z" fill="white"/>
<path d="M5.50532 50.147V59.2638H4.14697V50.147H5.50532Z" fill="white"/>
<path d="M116.581 80.0001V78.0941H117.623C117.88 78.0941 118.061 78.037 118.166 77.9228C118.27 77.8133 118.368 77.6206 118.458 77.3446L118.587 77.0019L115.689 69.478H118.259L119.372 72.9473C119.453 73.209 119.532 73.4708 119.608 73.7325C119.684 73.9943 119.76 74.2584 119.836 74.5249C119.908 74.2584 119.981 73.9943 120.057 73.7325C120.138 73.4708 120.219 73.209 120.3 72.9473L121.435 69.478H123.976L120.728 78.0798C120.471 78.7604 120.148 79.2505 119.758 79.5503C119.372 79.8502 118.863 80.0001 118.23 80.0001H116.581Z" fill="white"/>
<path d="M115.024 69.4782V71.3771H113.475V74.4823C113.475 74.725 113.523 74.8915 113.618 74.982C113.713 75.0724 113.899 75.1176 114.175 75.1176H115.024V77.0164H113.632C112.728 77.0164 112.064 76.8475 111.64 76.5096C111.222 76.1669 111.012 75.6292 111.012 74.8963V71.3771H109.727V69.4782H111.012V67.4224H113.475V69.4782H115.024Z" fill="white"/>
<path d="M106.365 77.0161V69.4779H108.82V77.0161H106.365ZM107.585 68.7427C107.195 68.7427 106.871 68.6261 106.614 68.3929C106.362 68.1597 106.236 67.8623 106.236 67.5006C106.236 67.1389 106.362 66.8438 106.614 66.6154C106.871 66.3822 107.195 66.2656 107.585 66.2656C107.98 66.2656 108.304 66.3822 108.556 66.6154C108.813 66.8438 108.942 67.1389 108.942 67.5006C108.942 67.8623 108.813 68.1597 108.556 68.3929C108.304 68.6261 107.98 68.7427 107.585 68.7427Z" fill="white"/>
<path d="M100.498 77.016V69.4778H102.875V70.8055H102.896C103.034 70.3249 103.248 69.9798 103.539 69.7704C103.834 69.5563 104.234 69.4492 104.738 69.4492C104.871 69.4492 104.99 69.4516 105.095 69.4564C105.204 69.4564 105.309 69.4587 105.409 69.4635V71.4908C105.319 71.4861 105.178 71.4813 104.988 71.4765C104.798 71.4718 104.614 71.4694 104.438 71.4694C103.996 71.4694 103.636 71.6169 103.36 71.912C103.089 72.207 102.953 72.6211 102.953 73.1541V77.016H100.498Z" fill="white"/>
<path d="M94.2934 77.1804C93.4749 77.1804 92.8372 76.9186 92.3803 76.3952C91.9282 75.8717 91.7021 75.1459 91.7021 74.2179V69.478H94.1578V73.704C94.1578 74.1513 94.2648 74.494 94.479 74.7319C94.6932 74.9651 94.9953 75.0817 95.3856 75.0817C95.7711 75.0817 96.0804 74.9603 96.3136 74.7176C96.5468 74.4702 96.6634 74.0895 96.6634 73.5755V69.478H99.119V77.0162H96.6919V75.7955C96.4397 76.2238 96.1185 76.5617 95.7282 76.8092C95.338 77.0567 94.8597 77.1804 94.2934 77.1804Z" fill="white"/>
<path d="M86.9779 77.1875C86.1974 77.1875 85.5145 77.0233 84.9292 76.6949C84.3486 76.3618 83.8941 75.9002 83.5657 75.3101C83.2421 74.7199 83.0803 74.0323 83.0803 73.2471C83.0803 72.4666 83.2421 71.7813 83.5657 71.1912C83.8941 70.5963 84.351 70.1347 84.9363 69.8063C85.5217 69.4732 86.2022 69.3066 86.9779 69.3066C87.6775 69.3066 88.2985 69.4399 88.841 69.7064C89.3836 69.9729 89.8142 70.3417 90.1331 70.8128C90.4567 71.284 90.6375 71.8265 90.6756 72.4404H88.3057C88.2676 72.0835 88.1343 71.798 87.9059 71.5838C87.6822 71.3649 87.3896 71.2554 87.0279 71.2554C86.5663 71.2554 86.207 71.4339 85.95 71.7908C85.6977 72.143 85.5716 72.6284 85.5716 73.2471C85.5716 73.8657 85.7001 74.3535 85.9571 74.7104C86.2141 75.0626 86.571 75.2387 87.0279 75.2387C87.3896 75.2387 87.6799 75.1292 87.8988 74.9103C88.1177 74.6914 88.2509 74.3987 88.2985 74.0323H90.6756C90.6566 74.6462 90.4876 75.1911 90.1688 75.667C89.8547 76.1381 89.4216 76.5093 88.8696 76.7806C88.3223 77.0518 87.6918 77.1875 86.9779 77.1875Z" fill="white"/>
<path d="M78.596 77.1875C77.825 77.1875 77.1469 77.0185 76.5615 76.6806C75.9809 76.3428 75.5264 75.8788 75.1981 75.2886C74.8745 74.6938 74.7126 74.0132 74.7126 73.2471C74.7126 72.4809 74.8745 71.8027 75.1981 71.2126C75.5264 70.6177 75.9785 70.1514 76.5544 69.8135C77.1302 69.4756 77.7893 69.3066 78.5317 69.3066C79.2884 69.3066 79.9523 69.4732 80.5233 69.8063C81.0992 70.1347 81.5489 70.5916 81.8725 71.1769C82.1961 71.7575 82.3579 72.4285 82.3579 73.1899V73.8538H77.1112C77.1254 74.3345 77.2682 74.7152 77.5395 74.996C77.8155 75.2767 78.1962 75.4171 78.6816 75.4171C79.0433 75.4171 79.3455 75.3434 79.5882 75.1958C79.8357 75.0483 80.0046 74.8508 80.095 74.6034H82.3008C82.2104 75.1078 81.9915 75.5551 81.6441 75.9454C81.2967 76.3356 80.8588 76.6402 80.3306 76.8591C79.8071 77.078 79.2289 77.1875 78.596 77.1875ZM77.1254 72.3833H80.0665C80.0094 71.9883 79.8523 71.679 79.5953 71.4553C79.3384 71.2316 79.0052 71.1198 78.596 71.1198C78.1819 71.1198 77.8464 71.2316 77.5894 71.4553C77.3325 71.679 77.1778 71.9883 77.1254 72.3833Z" fill="white"/>
<path d="M69.4953 77.1869C68.0771 77.1869 66.9826 76.8681 66.2116 76.2304C65.4407 75.5879 65.0552 74.6789 65.0552 73.5035H67.5037C67.5227 74.0127 67.7083 74.4101 68.0605 74.6956C68.4174 74.9811 68.9028 75.1239 69.5167 75.1239C70.0592 75.1239 70.4947 75.0192 70.823 74.8098C71.1562 74.5957 71.3227 74.3149 71.3227 73.9675C71.3227 73.6677 71.1776 73.4226 70.8873 73.2322C70.6017 73.0419 70.1377 72.8801 69.4953 72.7468L68.4031 72.5255C66.3092 72.0972 65.2622 71.0954 65.2622 69.5202C65.2622 68.8635 65.4359 68.2877 65.7833 67.7927C66.1355 67.293 66.6256 66.9052 67.2538 66.6292C67.882 66.3484 68.6125 66.208 69.4453 66.208C70.7207 66.208 71.7272 66.5173 72.4649 67.136C73.2025 67.7499 73.588 68.6018 73.6213 69.6916H71.2442C71.2061 69.2537 71.03 68.9087 70.716 68.6565C70.4019 68.3995 69.9902 68.271 69.481 68.271C68.9956 68.271 68.5982 68.3757 68.2889 68.5851C67.9843 68.7945 67.832 69.0658 67.832 69.3989C67.832 69.6892 67.9653 69.9224 68.2318 70.0984C68.503 70.2745 68.9432 70.4244 69.5524 70.5482L70.4875 70.7338C71.6677 70.967 72.5244 71.3286 73.0574 71.8188C73.5951 72.3042 73.864 72.9586 73.864 73.7819C73.864 74.8526 73.4785 75.6878 72.7076 76.2875C71.9366 76.8871 70.8659 77.1869 69.4953 77.1869Z" fill="white"/>
<path d="M57.5396 77.1875C56.7686 77.1875 56.0905 77.0185 55.5051 76.6806C54.9245 76.3428 54.47 75.8788 54.1417 75.2886C53.8181 74.6938 53.6562 74.0132 53.6562 73.2471C53.6562 72.4809 53.8181 71.8027 54.1417 71.2126C54.47 70.6177 54.9221 70.1514 55.498 69.8135C56.0738 69.4756 56.7329 69.3066 57.4753 69.3066C58.232 69.3066 58.8959 69.4732 59.4669 69.8063C60.0428 70.1347 60.4925 70.5916 60.8161 71.1769C61.1397 71.7575 61.3015 72.4285 61.3015 73.1899V73.8538H56.0548C56.069 74.3345 56.2118 74.7152 56.4831 74.996C56.7591 75.2767 57.1398 75.4171 57.6252 75.4171C57.9869 75.4171 58.2891 75.3434 58.5318 75.1958C58.7793 75.0483 58.9482 74.8508 59.0386 74.6034H61.2444C61.154 75.1078 60.9351 75.5551 60.5877 75.9454C60.2403 76.3356 59.8024 76.6402 59.2742 76.8591C58.7507 77.078 58.1725 77.1875 57.5396 77.1875ZM56.069 72.3833H59.0101C58.953 71.9883 58.7959 71.679 58.5389 71.4553C58.282 71.2316 57.9488 71.1198 57.5396 71.1198C57.1255 71.1198 56.79 71.2316 56.533 71.4553C56.2761 71.679 56.1214 71.9883 56.069 72.3833Z" fill="white"/>
<path d="M40.7781 77.0158V69.4777H43.1409V70.8911C43.3598 70.3533 43.6763 69.9559 44.0903 69.699C44.5043 69.442 44.9564 69.3135 45.4466 69.3135C45.9511 69.3135 46.4008 69.4443 46.7958 69.7061C47.1955 69.9631 47.4739 70.339 47.631 70.834C47.8213 70.3438 48.1378 69.9678 48.5804 69.7061C49.023 69.4443 49.5131 69.3135 50.0509 69.3135C50.7933 69.3135 51.4025 69.5514 51.8783 70.0273C52.359 70.5032 52.5993 71.1599 52.5993 71.9975V77.0158H50.1366V72.54C50.1366 72.1403 50.0295 71.8357 49.8153 71.6263C49.6059 71.4122 49.3347 71.3051 49.0016 71.3051C48.6542 71.3051 48.3758 71.4217 48.1664 71.6549C47.9617 71.8881 47.8594 72.195 47.8594 72.5757V77.0158H45.5109V72.5115C45.5109 72.1451 45.4085 71.8524 45.2039 71.6335C44.9993 71.4146 44.7304 71.3051 44.3973 71.3051C44.0641 71.3051 43.7857 71.4217 43.5621 71.6549C43.3432 71.8833 43.2337 72.2069 43.2337 72.6257V77.0158H40.7781Z" fill="white"/>
<path d="M36.9515 77.0161V69.4779H39.4071V77.0161H36.9515ZM38.1722 68.7427C37.7819 68.7427 37.4583 68.6261 37.2013 68.3929C36.9491 68.1597 36.823 67.8623 36.823 67.5006C36.823 67.1389 36.9491 66.8438 37.2013 66.6154C37.4583 66.3822 37.7819 66.2656 38.1722 66.2656C38.5672 66.2656 38.8908 66.3822 39.143 66.6154C39.4 66.8438 39.5285 67.1389 39.5285 67.5006C39.5285 67.8623 39.4 68.1597 39.143 68.3929C38.8908 68.6261 38.5672 68.7427 38.1722 68.7427Z" fill="white"/>
<path d="M35.9583 69.4782V71.3771H34.4093V74.4823C34.4093 74.725 34.4569 74.8915 34.5521 74.982C34.6472 75.0724 34.8328 75.1176 35.1089 75.1176H35.9583V77.0164H34.5663C33.6621 77.0164 32.9983 76.8475 32.5747 76.5096C32.1559 76.1669 31.9465 75.6292 31.9465 74.8963V71.3771H30.6616V69.4782H31.9465V67.4224H34.4093V69.4782H35.9583Z" fill="white"/>
<path d="M24.8716 72.9184V77.0158H22.416V69.4777H24.8431V70.6983C25.0953 70.27 25.4165 69.9321 25.8068 69.6847C26.197 69.4372 26.6753 69.3135 27.2416 69.3135C28.0601 69.3135 28.6955 69.5752 29.1476 70.0987C29.6044 70.6222 29.8329 71.3479 29.8329 72.2759V77.0158H27.3772V72.7899C27.3772 72.3425 27.2702 72.0023 27.056 71.7691C26.8418 71.5311 26.5397 71.4122 26.1494 71.4122C25.7639 71.4122 25.4546 71.5359 25.2214 71.7834C24.9882 72.0261 24.8716 72.4044 24.8716 72.9184Z" fill="white"/>
<path d="M16.2143 77.1804C15.3958 77.1804 14.7581 76.9186 14.3012 76.3952C13.8491 75.8717 13.623 75.1459 13.623 74.2179V69.478H16.0787V73.704C16.0787 74.1513 16.1857 74.494 16.3999 74.7319C16.6141 74.9651 16.9162 75.0817 17.3065 75.0817C17.692 75.0817 18.0013 74.9603 18.2345 74.7176C18.4677 74.4702 18.5843 74.0895 18.5843 73.5755V69.478H21.0399V77.0162H18.6128V75.7955C18.3606 76.2238 18.0394 76.5617 17.6491 76.8092C17.2589 77.0567 16.7806 77.1804 16.2143 77.1804Z" fill="white"/>
<path d="M4 77.0161V66.3799H8.383C9.2063 66.3799 9.91776 66.5274 10.5174 66.8225C11.117 67.1128 11.5786 67.5268 11.9023 68.0646C12.2306 68.6023 12.3948 69.24 12.3948 69.9776C12.3948 70.6582 12.2401 71.253 11.9308 71.7623C11.6215 72.2715 11.1884 72.6712 10.6316 72.9615L12.6732 77.0161H9.9606L8.22596 73.4826H6.56984V77.0161H4ZM6.56984 71.4624H8.21168C8.72565 71.4624 9.13254 71.3268 9.43235 71.0556C9.73217 70.7843 9.88207 70.425 9.88207 69.9776C9.88207 69.5255 9.73217 69.1639 9.43235 68.8926C9.13254 68.6213 8.72327 68.4857 8.20454 68.4857H6.56984V71.4624Z" fill="white"/>
</svg>
