<svg width="128" height="128" viewBox="0 0 128 128" fill="none" xmlns="http://www.w3.org/2000/svg">
<path d="M93.8928 76H71.1964L57.9106 56.625H80.6071L93.8928 76Z" fill="black"/>
<path d="M71.5872 14C82.3776 14.0001 91.1249 22.6745 91.1249 33.375C91.1249 44.0755 82.3776 52.7499 71.5872 52.75H57.9106V44.4464H71.5872C77.7531 44.4464 82.7516 39.4895 82.7516 33.375C82.7516 27.2604 77.7531 22.3036 71.5872 22.3036H57.9106V14H71.5872Z" fill="black"/>
<path d="M54.0357 76H33V56.625H54.0357V76Z" fill="black"/>
<path fill-rule="evenodd" clip-rule="evenodd" d="M54.0357 52.75H33V14H54.0357V52.75ZM38.5357 36.1429H48.5V30.6071H38.5357V36.1429Z" fill="black"/>
<path d="M88.5234 90.4121V89.2695H95.3848V90.4121H92.6133V98H91.3066V90.4121H88.5234Z" fill="black"/>
<path d="M80.4609 98V89.2695H81.9023L85.2363 94.5488C85.3379 94.7129 85.4766 94.9453 85.6523 95.2461C85.8281 95.5469 86.0039 95.8516 86.1797 96.1602C86.168 95.8438 86.1582 95.5234 86.1504 95.1992C86.1465 94.8711 86.1445 94.627 86.1445 94.4668V89.2695H87.4512V98H85.998L83.0156 93.2832C82.8945 93.0918 82.7188 92.8066 82.4883 92.4277C82.2617 92.0449 82.0039 91.6055 81.7148 91.1094C81.7344 91.6211 81.7461 92.0625 81.75 92.4336C81.7578 92.8008 81.7617 93.082 81.7617 93.2773V98H80.4609Z" fill="black"/>
<path d="M73.3945 98V89.2695H79.2656V90.4121H74.6953V92.9844H78.9258V94.1152H74.6953V96.8574H79.2656V98H73.3945Z" fill="black"/>
<path d="M66.8789 98V89.2695H68.1797V96.8574H72.3105V98H66.8789Z" fill="black"/>
<path d="M58.0898 98L61.2598 89.2695H62.8301L65.9766 98H64.5645L63.791 95.7324H60.2695L59.4727 98H58.0898ZM60.6621 94.625H63.4102L62.8828 93.0781C62.7656 92.7188 62.6406 92.334 62.5078 91.9238C62.375 91.5137 62.2227 91.0254 62.0508 90.459C61.875 91.0254 61.7207 91.5137 61.5879 91.9238C61.4551 92.334 61.3281 92.7188 61.207 93.0781L60.6621 94.625Z" fill="black"/>
<path d="M54.4277 98L51.2578 89.2695H52.6582L54.3867 94.1914C54.4922 94.5078 54.6133 94.8809 54.75 95.3105C54.8867 95.7402 55.0469 96.2422 55.2305 96.8164C55.4062 96.2422 55.5605 95.7402 55.6934 95.3105C55.8301 94.8809 55.9512 94.5078 56.0566 94.1914L57.7383 89.2695H59.1152L55.9922 98H54.4277Z" fill="black"/>
<path d="M47.1094 98.1406C46.3359 98.1406 45.6465 97.9512 45.041 97.5723C44.4355 97.1934 43.959 96.666 43.6113 95.9902C43.2676 95.3145 43.0957 94.5312 43.0957 93.6406C43.0957 92.7461 43.2676 91.9609 43.6113 91.2852C43.959 90.6055 44.4355 90.0762 45.041 89.6973C45.6465 89.3184 46.3359 89.1289 47.1094 89.1289C47.8867 89.1289 48.5781 89.3184 49.1836 89.6973C49.7891 90.0762 50.2637 90.6055 50.6074 91.2852C50.9551 91.9609 51.1289 92.7461 51.1289 93.6406C51.1289 94.5312 50.9551 95.3145 50.6074 95.9902C50.2637 96.666 49.7891 97.1934 49.1836 97.5723C48.5781 97.9512 47.8867 98.1406 47.1094 98.1406ZM47.1094 96.9512C47.6133 96.9512 48.0703 96.8242 48.4805 96.5703C48.8906 96.3125 49.2168 95.9375 49.459 95.4453C49.7012 94.9492 49.8223 94.3477 49.8223 93.6406C49.8223 92.9297 49.7012 92.3262 49.459 91.8301C49.2168 91.334 48.8906 90.959 48.4805 90.7051C48.0703 90.4473 47.6133 90.3184 47.1094 90.3184C46.6094 90.3184 46.1543 90.4473 45.7441 90.7051C45.334 90.959 45.0078 91.334 44.7656 91.8301C44.5234 92.3262 44.4023 92.9297 44.4023 93.6406C44.4023 94.3477 44.5234 94.9492 44.7656 95.4453C45.0078 95.9375 45.334 96.3125 45.7441 96.5703C46.1543 96.8242 46.6094 96.9512 47.1094 96.9512Z" fill="black"/>
<path d="M38.918 98.1406C37.8711 98.1406 37.0449 97.877 36.4395 97.3496C35.8379 96.8184 35.5371 96.0918 35.5371 95.1699H36.8379C36.8418 95.7441 37.0254 96.1934 37.3887 96.5176C37.7559 96.8418 38.2656 97.0039 38.918 97.0039C39.5117 97.0039 39.9863 96.8789 40.3418 96.6289C40.7012 96.375 40.8809 96.0352 40.8809 95.6094C40.8809 95.2734 40.752 95.002 40.4941 94.7949C40.2402 94.584 39.8105 94.4062 39.2051 94.2617L38.25 94.0332C37.3672 93.8223 36.7227 93.5293 36.3164 93.1543C35.9141 92.7754 35.7129 92.2832 35.7129 91.6777C35.7129 91.166 35.8418 90.7188 36.0996 90.3359C36.3574 89.9531 36.7188 89.6562 37.1836 89.4453C37.6523 89.2344 38.1992 89.1289 38.8242 89.1289C39.7656 89.1289 40.5137 89.375 41.0684 89.8672C41.627 90.3594 41.9199 91.0312 41.9473 91.8828H40.6875C40.6562 91.3789 40.4727 90.9844 40.1367 90.6992C39.8008 90.4102 39.3574 90.2656 38.8066 90.2656C38.2793 90.2656 37.8477 90.3926 37.5117 90.6465C37.1758 90.8965 37.0078 91.2188 37.0078 91.6133C37.0078 91.9297 37.1367 92.1875 37.3945 92.3867C37.6523 92.582 38.0801 92.752 38.6777 92.8965L39.6211 93.1191C40.4961 93.3262 41.1406 93.625 41.5547 94.0156C41.9727 94.4062 42.1816 94.9141 42.1816 95.5391C42.1816 96.0625 42.0469 96.5195 41.7773 96.9102C41.5078 97.3008 41.1289 97.6035 40.6406 97.8184C40.1523 98.0332 39.5781 98.1406 38.918 98.1406Z" fill="black"/>
<path d="M34.3008 89.2695V98H33V89.2695H34.3008Z" fill="black"/>
<path d="M113.81 117.857V116.032H114.808C115.054 116.032 115.227 115.978 115.327 115.868C115.427 115.763 115.521 115.579 115.607 115.314L115.73 114.986L112.955 107.781H115.416L116.482 111.104C116.56 111.354 116.635 111.605 116.708 111.855C116.781 112.106 116.854 112.359 116.927 112.614C116.995 112.359 117.066 112.106 117.139 111.855C117.216 111.605 117.294 111.354 117.371 111.104L118.458 107.781H120.892L117.781 116.019C117.535 116.67 117.225 117.14 116.852 117.427C116.482 117.714 115.995 117.857 115.389 117.857H113.81Z" fill="black"/>
<path d="M112.319 107.781V109.6H110.836V112.573C110.836 112.806 110.882 112.965 110.973 113.052C111.064 113.138 111.242 113.182 111.506 113.182H112.319V115H110.986C110.12 115 109.485 114.838 109.079 114.515C108.678 114.187 108.478 113.672 108.478 112.97V109.6H107.247V107.781H108.478V105.812H110.836V107.781H112.319Z" fill="black"/>
<path d="M104.027 115V107.781H106.379V115H104.027ZM105.196 107.077C104.823 107.077 104.513 106.965 104.267 106.742C104.025 106.519 103.904 106.234 103.904 105.888C103.904 105.541 104.025 105.259 104.267 105.04C104.513 104.817 104.823 104.705 105.196 104.705C105.575 104.705 105.884 104.817 106.126 105.04C106.372 105.259 106.495 105.541 106.495 105.888C106.495 106.234 106.372 106.519 106.126 106.742C105.884 106.965 105.575 107.077 105.196 107.077Z" fill="black"/>
<path d="M98.4082 115V107.781H100.685V109.053H100.705C100.837 108.592 101.042 108.262 101.32 108.062C101.603 107.856 101.986 107.754 102.469 107.754C102.596 107.754 102.71 107.756 102.811 107.761C102.915 107.761 103.016 107.763 103.111 107.768V109.709C103.025 109.704 102.89 109.7 102.708 109.695C102.526 109.691 102.35 109.688 102.182 109.688C101.758 109.688 101.414 109.83 101.149 110.112C100.89 110.395 100.76 110.791 100.76 111.302V115H98.4082Z" fill="black"/>
<path d="M92.4678 115.157C91.6839 115.157 91.0732 114.907 90.6357 114.405C90.2028 113.904 89.9863 113.209 89.9863 112.32V107.781H92.3379V111.828C92.3379 112.257 92.4404 112.585 92.6455 112.812C92.8506 113.036 93.14 113.147 93.5137 113.147C93.8828 113.147 94.179 113.031 94.4023 112.799C94.6257 112.562 94.7373 112.197 94.7373 111.705V107.781H97.0889V115H94.7646V113.831C94.5231 114.241 94.2155 114.565 93.8418 114.802C93.4681 115.039 93.0101 115.157 92.4678 115.157Z" fill="black"/>
<path d="M85.4609 115.164C84.7135 115.164 84.0596 115.007 83.499 114.692C82.943 114.373 82.5078 113.931 82.1934 113.366C81.8835 112.801 81.7285 112.143 81.7285 111.391C81.7285 110.643 81.8835 109.987 82.1934 109.422C82.5078 108.852 82.9453 108.41 83.5059 108.096C84.0664 107.777 84.7181 107.617 85.4609 107.617C86.1309 107.617 86.7256 107.745 87.2451 108C87.7646 108.255 88.1771 108.608 88.4824 109.06C88.7923 109.511 88.9655 110.03 89.002 110.618H86.7324C86.696 110.276 86.5684 110.003 86.3496 109.798C86.1354 109.588 85.8551 109.483 85.5088 109.483C85.0667 109.483 84.7227 109.654 84.4766 109.996C84.235 110.333 84.1143 110.798 84.1143 111.391C84.1143 111.983 84.2373 112.45 84.4834 112.792C84.7295 113.129 85.0713 113.298 85.5088 113.298C85.8551 113.298 86.1331 113.193 86.3428 112.983C86.5524 112.774 86.68 112.493 86.7256 112.143H89.002C88.9837 112.73 88.8219 113.252 88.5166 113.708C88.2158 114.159 87.8011 114.515 87.2725 114.774C86.7484 115.034 86.1445 115.164 85.4609 115.164Z" fill="black"/>
<path d="M77.4355 115.164C76.6973 115.164 76.0479 115.002 75.4873 114.679C74.9313 114.355 74.4961 113.911 74.1816 113.346C73.8717 112.776 73.7168 112.124 73.7168 111.391C73.7168 110.657 73.8717 110.007 74.1816 109.442C74.4961 108.873 74.929 108.426 75.4805 108.103C76.0319 107.779 76.6631 107.617 77.374 107.617C78.0986 107.617 78.7344 107.777 79.2812 108.096C79.8327 108.41 80.2633 108.848 80.5732 109.408C80.8831 109.964 81.0381 110.607 81.0381 111.336V111.972H76.0137C76.0273 112.432 76.1641 112.797 76.4238 113.065C76.6882 113.334 77.0527 113.469 77.5176 113.469C77.8639 113.469 78.1533 113.398 78.3857 113.257C78.6227 113.116 78.7845 112.926 78.8711 112.689H80.9834C80.8968 113.173 80.6872 113.601 80.3545 113.975C80.0218 114.348 79.6025 114.64 79.0967 114.85C78.5954 115.059 78.0417 115.164 77.4355 115.164ZM76.0273 110.563H78.8438C78.7891 110.185 78.6387 109.889 78.3926 109.675C78.1465 109.461 77.8275 109.354 77.4355 109.354C77.0391 109.354 76.7178 109.461 76.4717 109.675C76.2256 109.889 76.0775 110.185 76.0273 110.563Z" fill="black"/>
<path d="M68.7197 115.164C67.3617 115.164 66.3135 114.859 65.5752 114.248C64.8369 113.633 64.4678 112.762 64.4678 111.637H66.8125C66.8307 112.124 67.0085 112.505 67.3457 112.778C67.6875 113.052 68.1523 113.188 68.7402 113.188C69.2598 113.188 69.6768 113.088 69.9912 112.888C70.3102 112.683 70.4697 112.414 70.4697 112.081C70.4697 111.794 70.3307 111.559 70.0527 111.377C69.7793 111.195 69.335 111.04 68.7197 110.912L67.6738 110.7C65.6686 110.29 64.666 109.331 64.666 107.822C64.666 107.193 64.8324 106.642 65.165 106.168C65.5023 105.689 65.9717 105.318 66.5732 105.054C67.1748 104.785 67.8743 104.65 68.6719 104.65C69.8932 104.65 70.8571 104.947 71.5635 105.539C72.2699 106.127 72.639 106.943 72.6709 107.986H70.3945C70.3581 107.567 70.1895 107.237 69.8887 106.995C69.5879 106.749 69.1937 106.626 68.7061 106.626C68.2412 106.626 67.8607 106.726 67.5645 106.927C67.2728 107.127 67.127 107.387 67.127 107.706C67.127 107.984 67.2546 108.207 67.5098 108.376C67.7695 108.545 68.1911 108.688 68.7744 108.807L69.6699 108.984C70.8001 109.208 71.6204 109.554 72.1309 110.023C72.6458 110.488 72.9033 111.115 72.9033 111.903C72.9033 112.929 72.5342 113.729 71.7959 114.303C71.0576 114.877 70.0322 115.164 68.7197 115.164Z" fill="black"/>
<path d="M57.2695 115.164C56.5312 115.164 55.8818 115.002 55.3213 114.679C54.7653 114.355 54.3301 113.911 54.0156 113.346C53.7057 112.776 53.5508 112.124 53.5508 111.391C53.5508 110.657 53.7057 110.007 54.0156 109.442C54.3301 108.873 54.763 108.426 55.3145 108.103C55.8659 107.779 56.4971 107.617 57.208 107.617C57.9326 107.617 58.5684 107.777 59.1152 108.096C59.6667 108.41 60.0973 108.848 60.4072 109.408C60.7171 109.964 60.8721 110.607 60.8721 111.336V111.972H55.8477C55.8613 112.432 55.998 112.797 56.2578 113.065C56.5221 113.334 56.8867 113.469 57.3516 113.469C57.6979 113.469 57.9873 113.398 58.2197 113.257C58.4567 113.116 58.6185 112.926 58.7051 112.689H60.8174C60.7308 113.173 60.5212 113.601 60.1885 113.975C59.8558 114.348 59.4365 114.64 58.9307 114.85C58.4294 115.059 57.8757 115.164 57.2695 115.164ZM55.8613 110.563H58.6777C58.623 110.185 58.4727 109.889 58.2266 109.675C57.9805 109.461 57.6615 109.354 57.2695 109.354C56.873 109.354 56.5518 109.461 56.3057 109.675C56.0596 109.889 55.9115 110.185 55.8613 110.563Z" fill="black"/>
<path d="M41.2188 115V107.781H43.4814V109.135C43.6911 108.62 43.9941 108.239 44.3906 107.993C44.7871 107.747 45.2201 107.624 45.6895 107.624C46.1725 107.624 46.6032 107.749 46.9814 108C47.3643 108.246 47.6309 108.606 47.7812 109.08C47.9635 108.611 48.2666 108.251 48.6904 108C49.1143 107.749 49.5837 107.624 50.0986 107.624C50.8096 107.624 51.3929 107.852 51.8486 108.308C52.3089 108.763 52.5391 109.392 52.5391 110.194V115H50.1807V110.714C50.1807 110.331 50.0781 110.039 49.873 109.839C49.6725 109.634 49.4128 109.531 49.0938 109.531C48.7611 109.531 48.4945 109.643 48.2939 109.866C48.098 110.09 48 110.383 48 110.748V115H45.751V110.687C45.751 110.336 45.653 110.055 45.457 109.846C45.2611 109.636 45.0036 109.531 44.6846 109.531C44.3656 109.531 44.099 109.643 43.8848 109.866C43.6751 110.085 43.5703 110.395 43.5703 110.796V115H41.2188Z" fill="black"/>
<path d="M37.5547 115V107.781H39.9062V115H37.5547ZM38.7236 107.077C38.3499 107.077 38.04 106.965 37.7939 106.742C37.5524 106.519 37.4316 106.234 37.4316 105.888C37.4316 105.541 37.5524 105.259 37.7939 105.04C38.04 104.817 38.3499 104.705 38.7236 104.705C39.1019 104.705 39.4118 104.817 39.6533 105.04C39.8994 105.259 40.0225 105.541 40.0225 105.888C40.0225 106.234 39.8994 106.519 39.6533 106.742C39.4118 106.965 39.1019 107.077 38.7236 107.077Z" fill="black"/>
<path d="M36.6045 107.781V109.6H35.1211V112.573C35.1211 112.806 35.1667 112.965 35.2578 113.052C35.349 113.138 35.5267 113.182 35.791 113.182H36.6045V115H35.2715C34.4056 115 33.7699 114.838 33.3643 114.515C32.9632 114.187 32.7627 113.672 32.7627 112.97V109.6H31.5322V107.781H32.7627V105.812H35.1211V107.781H36.6045Z" fill="black"/>
<path d="M25.9883 111.076V115H23.6367V107.781H25.9609V108.95C26.2025 108.54 26.5101 108.216 26.8838 107.979C27.2575 107.743 27.7155 107.624 28.2578 107.624C29.0417 107.624 29.6501 107.875 30.083 108.376C30.5205 108.877 30.7393 109.572 30.7393 110.461V115H28.3877V110.953C28.3877 110.525 28.2852 110.199 28.0801 109.976C27.875 109.748 27.5856 109.634 27.2119 109.634C26.8428 109.634 26.5465 109.752 26.3232 109.989C26.0999 110.222 25.9883 110.584 25.9883 111.076Z" fill="black"/>
<path d="M17.6963 115.157C16.9124 115.157 16.3018 114.907 15.8643 114.405C15.4313 113.904 15.2148 113.209 15.2148 112.32V107.781H17.5664V111.828C17.5664 112.257 17.6689 112.585 17.874 112.812C18.0791 113.036 18.3685 113.147 18.7422 113.147C19.1113 113.147 19.4076 113.031 19.6309 112.799C19.8542 112.562 19.9658 112.197 19.9658 111.705V107.781H22.3174V115H19.9932V113.831C19.7516 114.241 19.444 114.565 19.0703 114.802C18.6966 115.039 18.2386 115.157 17.6963 115.157Z" fill="black"/>
<path d="M6 115V104.814H10.1973C10.9857 104.814 11.667 104.956 12.2412 105.238C12.8154 105.516 13.2575 105.913 13.5674 106.428C13.8818 106.943 14.0391 107.553 14.0391 108.26C14.0391 108.911 13.891 109.481 13.5947 109.969C13.2985 110.456 12.8838 110.839 12.3506 111.117L14.3057 115H11.708L10.0469 111.616H8.46094V115H6ZM8.46094 109.682H10.0332C10.5254 109.682 10.915 109.552 11.2021 109.292C11.4893 109.032 11.6328 108.688 11.6328 108.26C11.6328 107.827 11.4893 107.48 11.2021 107.221C10.915 106.961 10.5231 106.831 10.0264 106.831H8.46094V109.682Z" fill="black"/>
</svg>
