<svg width="128" height="128" viewBox="0 0 128 128" fill="none" xmlns="http://www.w3.org/2000/svg">
<path d="M91.0483 50.3848V49.1519H98.4522V50.3848H95.4616V58.5726H94.0516V50.3848H91.0483Z" fill="white"/>
<path d="M82.3481 58.5726V49.1519H83.9035L87.5011 54.8486C87.6107 55.0256 87.7603 55.2764 87.95 55.6009C88.1397 55.9255 88.3294 56.2543 88.5191 56.5873C88.5064 56.2459 88.4959 55.9002 88.4874 55.5504C88.4832 55.1963 88.4811 54.9329 88.4811 54.76V49.1519H89.8911V58.5726H88.3231L85.1048 53.4829C84.9742 53.2763 84.7845 52.9686 84.5358 52.5598C84.2913 52.1467 84.0131 51.6725 83.7012 51.1372C83.7223 51.6893 83.7349 52.1656 83.7391 52.5661C83.7476 52.9623 83.7518 53.2658 83.7518 53.4765V58.5726H82.3481Z" fill="white"/>
<path d="M74.7229 58.5726V49.1519H81.0582V50.3848H76.1265V53.1604H80.6915V54.3807H76.1265V57.3397H81.0582V58.5726H74.7229Z" fill="white"/>
<path d="M67.6924 58.5726V49.1519H69.096V57.3397H73.5535V58.5726H67.6924Z" fill="white"/>
<path d="M58.2083 58.5726L61.6288 49.1519H63.3233L66.7186 58.5726H65.1948L64.3602 56.1257H60.5603L59.7004 58.5726H58.2083ZM60.9839 54.9307H63.9492L63.3802 53.2616C63.2537 52.8738 63.1189 52.4586 62.9755 52.016C62.8322 51.5734 62.6678 51.0465 62.4824 50.4354C62.2927 51.0465 62.1262 51.5734 61.9829 52.016C61.8396 52.4586 61.7026 52.8738 61.5719 53.2616L60.9839 54.9307Z" fill="white"/>
<path d="M54.2567 58.5726L50.8362 49.1519H52.3473L54.2125 54.4629C54.3263 54.8043 54.457 55.2068 54.6045 55.6705C54.752 56.1342 54.9248 56.6758 55.1229 57.2954C55.3126 56.6758 55.4791 56.1342 55.6224 55.6705C55.77 55.2068 55.9006 54.8043 56.0144 54.4629L57.829 49.1519H59.3149L55.9449 58.5726H54.2567Z" fill="white"/>
<path d="M46.3591 58.7242C45.5245 58.7242 44.7805 58.5198 44.1272 58.1109C43.4739 57.7021 42.9596 57.133 42.5845 56.4038C42.2135 55.6746 42.0281 54.8295 42.0281 53.8684C42.0281 52.9032 42.2135 52.0559 42.5845 51.3267C42.9596 50.5933 43.4739 50.0222 44.1272 49.6133C44.7805 49.2044 45.5245 49 46.3591 49C47.1979 49 47.944 49.2044 48.5973 49.6133C49.2507 50.0222 49.7628 50.5933 50.1337 51.3267C50.5089 52.0559 50.6964 52.9032 50.6964 53.8684C50.6964 54.8295 50.5089 55.6746 50.1337 56.4038C49.7628 57.133 49.2507 57.7021 48.5973 58.1109C47.944 58.5198 47.1979 58.7242 46.3591 58.7242ZM46.3591 57.4407C46.9028 57.4407 47.396 57.3037 47.8386 57.0298C48.2812 56.7516 48.6331 56.3469 48.8945 55.8158C49.1558 55.2805 49.2865 54.6314 49.2865 53.8684C49.2865 53.1013 49.1558 52.4501 48.8945 51.9147C48.6331 51.3794 48.2812 50.9748 47.8386 50.7008C47.396 50.4226 46.9028 50.2835 46.3591 50.2835C45.8196 50.2835 45.3285 50.4226 44.8859 50.7008C44.4433 50.9748 44.0914 51.3794 43.83 51.9147C43.5687 52.4501 43.438 53.1013 43.438 53.8684C43.438 54.6314 43.5687 55.2805 43.83 55.8158C44.0914 56.3469 44.4433 56.7516 44.8859 57.0298C45.3285 57.3037 45.8196 57.4407 46.3591 57.4407Z" fill="white"/>
<path d="M37.521 58.7242C36.3913 58.7242 35.4998 58.4397 34.8465 57.8707C34.1974 57.2974 33.8728 56.5134 33.8728 55.5186H35.2764C35.2806 56.1383 35.4788 56.623 35.8708 56.9728C36.267 57.3227 36.8171 57.4976 37.521 57.4976C38.1617 57.4976 38.6738 57.3627 39.0574 57.093C39.4452 56.819 39.6391 56.4523 39.6391 55.9928C39.6391 55.6303 39.5 55.3374 39.2218 55.114C38.9478 54.8864 38.4841 54.6946 37.8308 54.5386L36.8002 54.292C35.8476 54.0644 35.1521 53.7483 34.7137 53.3437C34.2796 52.9348 34.0625 52.4037 34.0625 51.7503C34.0625 51.1982 34.2016 50.7155 34.4798 50.3025C34.758 49.8894 35.1479 49.569 35.6495 49.3414C36.1553 49.1138 36.7454 49 37.4198 49C38.4357 49 39.2428 49.2656 39.8414 49.7967C40.4442 50.3278 40.7603 51.0528 40.7898 51.9716H39.4304C39.3967 51.4279 39.1986 51.0022 38.8361 50.6945C38.4736 50.3826 37.9952 50.2266 37.4008 50.2266C36.8318 50.2266 36.366 50.3636 36.0035 50.6376C35.641 50.9073 35.4598 51.2551 35.4598 51.6808C35.4598 52.0222 35.5989 52.3004 35.8771 52.5154C36.1553 52.7261 36.6168 52.9095 37.2617 53.0655L38.2797 53.3057C39.2239 53.5291 39.9194 53.8516 40.3662 54.2731C40.8172 54.6946 41.0427 55.2426 41.0427 55.917C41.0427 56.4818 40.8973 56.975 40.6064 57.3965C40.3156 57.818 39.9067 58.1446 39.3798 58.3765C38.853 58.6083 38.2333 58.7242 37.521 58.7242Z" fill="white"/>
<path d="M32.5389 49.1519V58.5726H31.1353V49.1519H32.5389Z" fill="white"/>
<path d="M118.334 79.9998V78.0303H119.411C119.676 78.0303 119.863 77.9713 119.971 77.8532C120.08 77.7401 120.18 77.541 120.274 77.2558L120.407 76.9017L117.412 69.127H120.067L121.218 72.7119C121.302 72.9824 121.383 73.2528 121.462 73.5233C121.54 73.7938 121.619 74.0667 121.698 74.3421C121.771 74.0667 121.848 73.7938 121.926 73.5233C122.01 73.2528 122.093 72.9824 122.177 72.7119L123.35 69.127H125.976L122.62 78.0155C122.354 78.7187 122.02 79.2253 121.616 79.5351C121.218 79.8449 120.692 79.9998 120.038 79.9998H118.334Z" fill="white"/>
<path d="M116.726 69.1268V71.089H115.125V74.2977C115.125 74.5485 115.174 74.7206 115.273 74.8141C115.371 74.9075 115.563 74.9542 115.848 74.9542H116.726V76.9163H115.288C114.353 76.9163 113.667 76.7418 113.23 76.3926C112.797 76.0385 112.58 75.4829 112.58 74.7255V71.089H111.253V69.1268H112.58V67.0024H115.125V69.1268H116.726Z" fill="white"/>
<path d="M107.778 76.9165V69.127H110.315V76.9165H107.778ZM109.039 68.3672C108.636 68.3672 108.301 68.2468 108.036 68.0058C107.775 67.7648 107.645 67.4575 107.645 67.0837C107.645 66.71 107.775 66.4051 108.036 66.1691C108.301 65.9281 108.636 65.8076 109.039 65.8076C109.447 65.8076 109.781 65.9281 110.042 66.1691C110.308 66.4051 110.44 66.71 110.44 67.0837C110.44 67.4575 110.308 67.7648 110.042 68.0058C109.781 68.2468 109.447 68.3672 109.039 68.3672Z" fill="white"/>
<path d="M101.715 76.9162V69.1267H104.171V70.4987H104.194C104.336 70.002 104.557 69.6455 104.857 69.4291C105.162 69.2078 105.575 69.0972 106.097 69.0972C106.234 69.0972 106.357 69.0996 106.466 69.1045C106.579 69.1045 106.687 69.107 106.79 69.1119V71.2068C106.697 71.2019 106.552 71.197 106.355 71.1921C106.158 71.1872 105.969 71.1847 105.787 71.1847C105.33 71.1847 104.958 71.3371 104.673 71.642C104.393 71.9469 104.253 72.3748 104.253 72.9255V76.9162H101.715Z" fill="white"/>
<path d="M95.3041 77.0861C94.4583 77.0861 93.7993 76.8156 93.3272 76.2747C92.8601 75.7338 92.6265 74.9838 92.6265 74.0249V69.127H95.164V73.4938C95.164 73.956 95.2746 74.3101 95.4959 74.556C95.7172 74.797 96.0295 74.9174 96.4327 74.9174C96.831 74.9174 97.1507 74.792 97.3916 74.5412C97.6326 74.2855 97.7531 73.8921 97.7531 73.361V69.127H100.291V76.9164H97.7826V75.6551C97.522 76.0977 97.19 76.4468 96.7868 76.7025C96.3835 76.9582 95.8893 77.0861 95.3041 77.0861Z" fill="white"/>
<path d="M87.7441 77.0933C86.9376 77.0933 86.2319 76.9236 85.627 76.5843C85.0271 76.2401 84.5575 75.7631 84.2182 75.1533C83.8838 74.5435 83.7166 73.8329 83.7166 73.0215C83.7166 72.215 83.8838 71.5069 84.2182 70.8971C84.5575 70.2824 85.0296 69.8054 85.6344 69.4661C86.2393 69.1218 86.9425 68.9497 87.7441 68.9497C88.467 68.9497 89.1087 69.0874 89.6693 69.3628C90.2299 69.6382 90.675 70.0193 91.0045 70.5061C91.3389 70.993 91.5257 71.5536 91.5651 72.188H89.1161C89.0768 71.8191 88.9391 71.5241 88.703 71.3028C88.4719 71.0766 88.1695 70.9635 87.7957 70.9635C87.3187 70.9635 86.9474 71.1479 86.6819 71.5167C86.4212 71.8806 86.2909 72.3822 86.2909 73.0215C86.2909 73.6608 86.4237 74.1648 86.6893 74.5337C86.9548 74.8976 87.3236 75.0795 87.7957 75.0795C88.1695 75.0795 88.4694 74.9664 88.6956 74.7402C88.9219 74.514 89.0596 74.2115 89.1087 73.8329H91.5651C91.5454 74.4673 91.3708 75.0303 91.0414 75.5221C90.7168 76.0089 90.2693 76.3925 89.6988 76.6728C89.1333 76.9531 88.4817 77.0933 87.7441 77.0933Z" fill="white"/>
<path d="M79.0833 77.0933C78.2867 77.0933 77.5859 76.9187 76.9811 76.5695C76.3811 76.2204 75.9115 75.7409 75.5722 75.1311C75.2378 74.5164 75.0706 73.8132 75.0706 73.0215C75.0706 72.2298 75.2378 71.529 75.5722 70.9192C75.9115 70.3045 76.3786 69.8226 76.9737 69.4734C77.5687 69.1243 78.2498 68.9497 79.0169 68.9497C79.7989 68.9497 80.4849 69.1218 81.075 69.4661C81.67 69.8054 82.1347 70.2775 82.4691 70.8823C82.8035 71.4823 82.9707 72.1757 82.9707 72.9625V73.6485H77.549C77.5638 74.1452 77.7113 74.5386 77.9916 74.8287C78.2768 75.1188 78.6703 75.2639 79.1719 75.2639C79.5456 75.2639 79.8579 75.1877 80.1087 75.0352C80.3644 74.8828 80.539 74.6787 80.6324 74.423H82.9117C82.8183 74.9443 82.5921 75.4065 82.2331 75.8098C81.8741 76.213 81.4217 76.5277 80.8758 76.754C80.3349 76.9802 79.7374 77.0933 79.0833 77.0933ZM77.5638 72.1289H80.6029C80.5439 71.7208 80.3816 71.4011 80.116 71.17C79.8505 70.9389 79.5063 70.8233 79.0833 70.8233C78.6555 70.8233 78.3088 70.9389 78.0433 71.17C77.7777 71.4011 77.6179 71.7208 77.5638 72.1289Z" fill="white"/>
<path d="M69.679 77.0935C68.2135 77.0935 67.0825 76.764 66.2858 76.105C65.4891 75.4411 65.0908 74.5019 65.0908 73.2872H67.6209C67.6406 73.8134 67.8324 74.224 68.1963 74.5191C68.5651 74.8141 69.0667 74.9617 69.7011 74.9617C70.2617 74.9617 70.7117 74.8535 71.051 74.6371C71.3952 74.4158 71.5673 74.1257 71.5673 73.7667C71.5673 73.4569 71.4173 73.2036 71.1174 73.0069C70.8223 72.8102 70.3428 72.643 69.679 72.5053L68.5504 72.2767C66.3866 71.8341 65.3047 70.7989 65.3047 69.1712C65.3047 68.4926 65.4842 67.8975 65.8432 67.3861C66.2071 66.8697 66.7136 66.469 67.3628 66.1837C68.0119 65.8936 68.7667 65.7485 69.6273 65.7485C70.9453 65.7485 71.9853 66.0682 72.7476 66.7075C73.5098 67.3418 73.9081 68.2221 73.9425 69.3482H71.4862C71.4468 68.8958 71.2649 68.5393 70.9403 68.2786C70.6158 68.0131 70.1904 67.8803 69.6642 67.8803C69.1626 67.8803 68.752 67.9885 68.4323 68.2049C68.1176 68.4213 67.9603 68.7016 67.9603 69.0458C67.9603 69.3458 68.0979 69.5867 68.3733 69.7687C68.6536 69.9506 69.1085 70.1055 69.738 70.2334L70.7043 70.4252C71.9239 70.6661 72.809 71.0399 73.3598 71.5464C73.9155 72.048 74.1933 72.7242 74.1933 73.5749C74.1933 74.6814 73.795 75.5444 72.9984 76.164C72.2017 76.7836 71.0952 77.0935 69.679 77.0935Z" fill="white"/>
<path d="M57.3233 77.0933C56.5267 77.0933 55.8259 76.9187 55.221 76.5695C54.6211 76.2204 54.1515 75.7409 53.8121 75.1311C53.4777 74.5164 53.3105 73.8132 53.3105 73.0215C53.3105 72.2298 53.4777 71.529 53.8121 70.9192C54.1515 70.3045 54.6186 69.8226 55.2137 69.4734C55.8087 69.1243 56.4898 68.9497 57.2569 68.9497C58.0388 68.9497 58.7249 69.1218 59.315 69.4661C59.91 69.8054 60.3747 70.2775 60.7091 70.8823C61.0435 71.4823 61.2107 72.1757 61.2107 72.9625V73.6485H55.789C55.8038 74.1452 55.9513 74.5386 56.2316 74.8287C56.5168 75.1188 56.9102 75.2639 57.4118 75.2639C57.7856 75.2639 58.0979 75.1877 58.3487 75.0352C58.6044 74.8828 58.7789 74.6787 58.8724 74.423H61.1517C61.0583 74.9443 60.8321 75.4065 60.4731 75.8098C60.1141 76.213 59.6617 76.5277 59.1158 76.754C58.5749 76.9802 57.9774 77.0933 57.3233 77.0933ZM55.8038 72.1289H58.8429C58.7839 71.7208 58.6216 71.4011 58.356 71.17C58.0905 70.9389 57.7462 70.8233 57.3233 70.8233C56.8955 70.8233 56.5488 70.9389 56.2833 71.17C56.0177 71.4011 55.8579 71.7208 55.8038 72.1289Z" fill="white"/>
<path d="M40.0037 76.9162V69.1267H42.4453V70.5872C42.6715 70.0315 42.9985 69.6209 43.4263 69.3554C43.8542 69.0898 44.3213 68.957 44.8279 68.957C45.3491 68.957 45.8138 69.0923 46.222 69.3627C46.6351 69.6283 46.9228 70.0168 47.085 70.5282C47.2817 70.0217 47.6088 69.6332 48.0661 69.3627C48.5234 69.0923 49.03 68.957 49.5857 68.957C50.3528 68.957 50.9823 69.2029 51.474 69.6947C51.9707 70.1864 52.219 70.8651 52.219 71.7306V76.9162H49.6742V72.2912C49.6742 71.8781 49.5635 71.5634 49.3422 71.347C49.1259 71.1257 48.8456 71.0151 48.5013 71.0151C48.1423 71.0151 47.8546 71.1355 47.6383 71.3765C47.4268 71.6175 47.3211 71.9346 47.3211 72.3281V76.9162H44.8942V72.2617C44.8942 71.883 44.7885 71.5806 44.5771 71.3544C44.3656 71.1282 44.0877 71.0151 43.7435 71.0151C43.3993 71.0151 43.1116 71.1355 42.8805 71.3765C42.6543 71.6125 42.5412 71.9469 42.5412 72.3797V76.9162H40.0037Z" fill="white"/>
<path d="M36.05 76.9165V69.127H38.5875V76.9165H36.05ZM37.3114 68.3672C36.9081 68.3672 36.5737 68.2468 36.3082 68.0058C36.0476 67.7648 35.9172 67.4575 35.9172 67.0837C35.9172 66.71 36.0476 66.4051 36.3082 66.1691C36.5737 65.9281 36.9081 65.8076 37.3114 65.8076C37.7195 65.8076 38.0539 65.9281 38.3146 66.1691C38.5801 66.4051 38.7129 66.71 38.7129 67.0837C38.7129 67.4575 38.5801 67.7648 38.3146 68.0058C38.0539 68.2468 37.7195 68.3672 37.3114 68.3672Z" fill="white"/>
<path d="M35.0241 69.1268V71.089H33.4234V74.2977C33.4234 74.5485 33.4726 74.7206 33.5709 74.8141C33.6693 74.9075 33.8611 74.9542 34.1463 74.9542H35.0241V76.9163H33.5857C32.6513 76.9163 31.9653 76.7418 31.5277 76.3926C31.0949 76.0385 30.8785 75.4829 30.8785 74.7255V71.089H29.5508V69.1268H30.8785V67.0024H33.4234V69.1268H35.0241Z" fill="white"/>
<path d="M23.5685 72.6821V76.9162H21.031V69.1267H23.539V70.3881C23.7996 69.9455 24.1316 69.5963 24.5348 69.3406C24.9381 69.0849 25.4323 68.957 26.0175 68.957C26.8633 68.957 27.5198 69.2275 27.987 69.7684C28.4591 70.3094 28.6951 71.0593 28.6951 72.0182V76.9162H26.1576V72.5493C26.1576 72.0871 26.047 71.7355 25.8257 71.4945C25.6044 71.2486 25.2921 71.1257 24.8889 71.1257C24.4906 71.1257 24.1709 71.2536 23.9299 71.5093C23.689 71.7601 23.5685 72.151 23.5685 72.6821Z" fill="white"/>
<path d="M14.621 77.0861C13.7752 77.0861 13.1162 76.8156 12.6441 76.2747C12.1769 75.7338 11.9434 74.9838 11.9434 74.0249V69.127H14.4809V73.4938C14.4809 73.956 14.5915 74.3101 14.8128 74.556C15.0341 74.797 15.3464 74.9174 15.7496 74.9174C16.1479 74.9174 16.4676 74.792 16.7085 74.5412C16.9495 74.2855 17.07 73.8921 17.07 73.361V69.127H19.6075V76.9164H17.0995V75.6551C16.8389 76.0977 16.5069 76.4468 16.1037 76.7025C15.7004 76.9582 15.2062 77.0861 14.621 77.0861Z" fill="white"/>
<path d="M2 76.9161V65.9253H6.52913C7.37988 65.9253 8.11507 66.0777 8.73469 66.3826C9.35431 66.6826 9.83132 67.1104 10.1657 67.6661C10.505 68.2218 10.6747 68.8808 10.6747 69.643C10.6747 70.3462 10.5149 70.9609 10.1952 71.4871C9.87557 72.0133 9.42807 72.4264 8.85271 72.7263L10.9624 76.9161H8.15932L6.36685 73.2648H4.65552V76.9161H2ZM4.65552 71.1773H6.3521C6.8832 71.1773 7.30366 71.0371 7.61347 70.7568C7.92328 70.4765 8.07818 70.1053 8.07818 69.643C8.07818 69.1758 7.92328 68.8021 7.61347 68.5218C7.30366 68.2415 6.88074 68.1013 6.34472 68.1013H4.65552V71.1773Z" fill="white"/>
</svg>
