<svg width="128" height="128" viewBox="0 0 128 128" fill="none" xmlns="http://www.w3.org/2000/svg">
<path d="M60.3206 18.8776C60.3196 18.1829 60.5248 17.5035 60.9102 16.9254C61.2956 16.3474 61.8439 15.8966 62.4856 15.6303C63.1273 15.364 63.8337 15.294 64.5152 15.4293C65.1968 15.5646 65.8228 15.899 66.3141 16.3903C66.8055 16.8815 67.1399 17.5075 67.2753 18.1889C67.4106 18.8703 67.3406 19.5766 67.0742 20.2182C66.8079 20.8599 66.3571 21.4081 65.7789 21.7934C65.2008 22.1788 64.5213 22.3839 63.8264 22.3829C62.897 22.3816 62.0061 22.0118 61.3489 21.3547C60.6917 20.6977 60.3219 19.8069 60.3206 18.8776ZM18.4752 50.6396C18.4572 50.1677 18.5346 49.697 18.7028 49.2557C18.871 48.8144 19.1265 48.4115 19.4541 48.0713C19.7817 47.7311 20.1745 47.4604 20.6091 47.2755C21.0438 47.0907 21.5112 46.9954 21.9836 46.9954C22.4559 46.9954 22.9234 47.0907 23.358 47.2755C23.7926 47.4604 24.1855 47.7311 24.5131 48.0713C24.8406 48.4115 25.0961 48.8144 25.2643 49.2557C25.4325 49.697 25.51 50.1677 25.492 50.6396C25.4573 51.5468 25.0726 52.4053 24.4184 53.0349C23.7642 53.6644 22.8916 54.0162 21.9836 54.0162C21.0756 54.0162 20.2029 53.6644 19.5487 53.0349C18.8946 52.4053 18.5098 51.5468 18.4752 50.6396ZM102.197 50.8028C102.196 50.1081 102.401 49.4287 102.786 48.8507C103.172 48.2726 103.72 47.8219 104.362 47.5555C105.003 47.2892 105.71 47.2193 106.391 47.3546C107.073 47.4898 107.699 47.8243 108.19 48.3155C108.681 48.8068 109.016 49.4327 109.151 50.1142C109.287 50.7956 109.217 51.5018 108.95 52.1435C108.684 52.7851 108.233 53.3333 107.655 53.7187C107.077 54.104 106.397 54.3092 105.702 54.3081C104.773 54.3081 103.881 53.9388 103.223 53.2815C102.566 52.6241 102.197 51.7325 102.197 50.8028ZM28.6253 55.6194C29.4013 55.2734 30.0084 54.6338 30.3136 53.8409C30.6187 53.048 30.597 52.1665 30.2531 51.3896L28.6967 47.869H34.8204V75.4726H22.4505C20.9249 70.1191 20.4501 64.5209 21.0523 58.987L28.6253 55.6194ZM54.2377 56.298V48.1649H68.8224C69.5725 48.1649 74.1347 49.0323 74.1347 52.4407C74.1347 55.2776 70.6289 56.2929 67.7507 56.2929L54.2377 56.298ZM34.3356 100.086C34.3356 99.3919 34.5415 98.7132 34.9273 98.1359C35.3131 97.5586 35.8614 97.1087 36.503 96.843C37.1445 96.5773 37.8505 96.5078 38.5315 96.6432C39.2126 96.7787 39.8382 97.113 40.3292 97.604C40.8202 98.0949 41.1546 98.7204 41.29 99.4013C41.4255 100.082 41.356 100.788 41.0902 101.43C40.8245 102.071 40.3745 102.619 39.7971 103.005C39.2198 103.391 38.541 103.597 37.8466 103.597C36.9154 103.597 36.0224 103.227 35.364 102.568C34.7055 101.91 34.3356 101.017 34.3356 100.086ZM86.3311 100.249C86.3311 99.5552 86.537 98.8765 86.9228 98.2992C87.3086 97.7219 87.8569 97.272 88.4984 97.0063C89.14 96.7406 89.8459 96.6711 90.527 96.8065C91.208 96.942 91.8336 97.2763 92.3246 97.7672C92.8156 98.2582 93.15 98.8837 93.2855 99.5646C93.421 100.246 93.3514 100.951 93.0857 101.593C92.82 102.234 92.3699 102.783 91.7926 103.168C91.2152 103.554 90.5364 103.76 89.842 103.76C89.3808 103.761 88.9239 103.67 88.4977 103.494C88.0714 103.318 87.6841 103.059 87.3579 102.733C87.0318 102.407 86.7732 102.02 86.597 101.594C86.4208 101.167 86.3304 100.711 86.3311 100.249ZM87.3976 92.3102C86.9864 92.2211 86.5617 92.2141 86.1478 92.2896C85.7338 92.3651 85.3389 92.5216 84.9857 92.7501C84.6324 92.9786 84.3278 93.2746 84.0893 93.6212C83.8508 93.9678 83.6831 94.358 83.5958 94.7696L81.8353 102.989C76.1709 105.553 70.02 106.865 63.8024 106.835C57.5848 106.805 51.4468 105.434 45.8074 102.816L44.0468 94.5961C43.9602 94.1848 43.793 93.7946 43.555 93.4481C43.317 93.1015 43.0129 92.8055 42.66 92.577C42.3072 92.3484 41.9126 92.1918 41.499 92.1163C41.0854 92.0408 40.661 92.0477 40.2501 92.1368L32.9935 93.693C31.6436 92.3044 30.3888 90.8265 29.2376 89.2693H64.546C64.944 89.2693 65.2094 89.1927 65.2094 88.8356V76.3298C65.2094 75.9624 64.944 75.8961 64.546 75.8961H54.2173V67.9773H65.3829C66.4035 67.9773 70.833 68.2732 72.2567 73.9317L74.3388 83.1567C75.0022 85.1976 77.7069 89.254 80.585 89.254H98.8133C97.5891 90.8893 96.2504 92.4358 94.8073 93.8818L87.3976 92.3102ZM107.004 59.339C107.255 61.8177 107.294 64.3133 107.121 66.7986H102.692C102.248 66.7986 102.064 67.0946 102.064 67.5283V69.5692C102.064 74.3654 99.3644 75.396 96.9966 75.6665C94.7461 75.9267 92.2354 74.7225 91.9343 73.3449C90.6075 65.8598 88.3927 64.2679 84.9226 61.5024C89.2654 58.7421 93.7867 54.6755 93.7867 49.2262C93.7867 43.3484 89.7553 39.6441 87.0047 37.8276C84.2275 36.0254 81.0318 34.9709 77.7273 34.7662H31.8504C38.1874 27.6866 46.6818 22.8931 56.0187 21.1277L61.428 26.7964C61.7176 27.1009 62.0645 27.3452 62.4488 27.5153C62.8331 27.6853 63.2473 27.7777 63.6674 27.7872C64.0876 27.7967 64.5055 27.7231 64.8971 27.5705C65.2887 27.418 65.6463 27.1896 65.9493 26.8985L72.0016 21.1175C78.1686 22.2693 84.0108 24.7501 89.1221 28.3874C94.2334 32.0247 98.4912 36.7312 101.6 42.1799L97.4252 51.558C97.0813 52.3335 97.0589 53.2138 97.3631 54.0058C97.6673 54.7977 98.2733 55.4368 99.048 55.7827L107.004 59.339ZM117.322 59.487L117.184 58.0379L121.451 54.0632C121.648 53.8576 121.793 53.6074 121.873 53.3339C121.952 53.0603 121.965 52.7716 121.91 52.4921C121.854 52.2126 121.732 51.9506 121.553 51.7285C121.375 51.5064 121.145 51.3306 120.884 51.2161L115.434 49.1752L115.005 47.7721L118.404 43.0473C118.556 42.8072 118.647 42.5343 118.672 42.2514C118.696 41.9685 118.652 41.6839 118.543 41.4216C118.435 41.1592 118.265 40.9266 118.048 40.7434C117.831 40.5602 117.574 40.4317 117.297 40.3686L111.546 39.4349L110.857 38.144L113.275 32.8427C113.379 32.5769 113.417 32.2902 113.386 32.0068C113.355 31.7234 113.256 31.4516 113.098 31.2143C112.94 30.9771 112.727 30.7815 112.477 30.6439C112.227 30.5064 111.948 30.431 111.663 30.4242L105.83 30.6283L104.911 29.5108L106.248 23.832C106.294 23.5536 106.273 23.2683 106.187 22.9997C106.101 22.7311 105.952 22.4869 105.752 22.2874C105.552 22.0879 105.308 21.9388 105.04 21.8525C104.771 21.7662 104.486 21.7451 104.207 21.791L98.5275 23.1278L97.4048 22.2094L97.6089 16.3775C97.6043 16.0903 97.5301 15.8085 97.3927 15.5564C97.2552 15.3042 97.0586 15.0891 96.8198 14.9295C96.5809 14.77 96.307 14.6708 96.0213 14.6403C95.7357 14.6099 95.447 14.6493 95.1799 14.7549L89.8828 17.1734L88.5918 16.4795L87.6528 10.7343C87.5918 10.4562 87.4644 10.1969 87.2816 9.97866C87.0987 9.7604 86.8657 9.5896 86.6026 9.48083C86.3394 9.37207 86.0538 9.32857 85.7702 9.35403C85.4865 9.3795 85.2133 9.47318 84.9737 9.62709L80.2482 13.0201L78.8448 12.5966L76.8036 7.14736C76.6883 6.88626 76.5117 6.65689 76.2886 6.47879C76.0655 6.3007 75.8027 6.17917 75.5225 6.12454C75.2424 6.06992 74.9531 6.08382 74.6795 6.16508C74.4058 6.24634 74.1559 6.39253 73.951 6.59121L69.9757 10.8516L68.5264 10.7139L65.4645 5.74933C65.2999 5.51765 65.0822 5.32874 64.8296 5.19838C64.577 5.06802 64.2969 5 64.0127 5C63.7285 5 63.4483 5.06802 63.1958 5.19838C62.9432 5.32874 62.7255 5.51765 62.5609 5.74933L59.499 10.7139L58.0548 10.8516L54.0489 6.55549C53.8441 6.36192 53.5961 6.21986 53.3256 6.14107C53.055 6.06227 52.7695 6.04899 52.4928 6.10234C52.216 6.15568 51.956 6.27411 51.7341 6.44784C51.5122 6.62157 51.3348 6.84561 51.2167 7.10144L49.1754 12.5507L47.7721 12.9742L43.0517 9.58117C42.8114 9.42859 42.538 9.33599 42.2544 9.31118C41.9709 9.28637 41.6855 9.33008 41.4224 9.43862C41.1592 9.54716 40.926 9.71735 40.7425 9.93485C40.5589 10.1523 40.4303 10.4108 40.3675 10.6884L39.4336 16.4387L38.1425 17.1326L32.8455 14.7549C32.5804 14.6512 32.2941 14.6131 32.011 14.644C31.728 14.6748 31.4566 14.7736 31.22 14.932C30.9834 15.0904 30.7886 15.3036 30.6522 15.5535C30.5159 15.8034 30.442 16.0826 30.4369 16.3673L30.6359 22.1941L29.5183 23.1176L23.8334 21.7808C23.555 21.7349 23.2697 21.756 23.001 21.8423C22.7324 21.9286 22.4882 22.0777 22.2887 22.2772C22.0891 22.4767 21.94 22.7209 21.8537 22.9895C21.7674 23.2581 21.7463 23.5434 21.7922 23.8218L23.1343 29.5057L22.2107 30.6232L16.3829 30.4191C16.0985 30.4262 15.8199 30.5016 15.5707 30.6388C15.3215 30.7761 15.1089 30.9712 14.9508 31.2077C14.7928 31.4443 14.6939 31.7154 14.6625 31.9981C14.6311 32.2808 14.6681 32.567 14.7703 32.8325L17.1841 38.1338L16.4952 39.4247L10.744 40.3584C10.4664 40.4212 10.2079 40.5498 9.99036 40.7333C9.77283 40.9169 9.60261 41.15 9.49406 41.4131C9.3855 41.6762 9.34179 41.9615 9.3666 42.245C9.39141 42.5286 9.48403 42.802 9.63663 43.0422L13.0302 47.7619L12.6066 49.165L7.15653 51.2059C6.89736 51.3209 6.6696 51.4964 6.4924 51.7177C6.31519 51.939 6.19373 52.1996 6.13822 52.4776C6.08271 52.7557 6.09478 53.0429 6.17341 53.3153C6.25205 53.5877 6.39494 53.8372 6.59008 54.0428L10.8563 58.0226L10.7134 59.4666L5.75317 62.528C5.52047 62.6919 5.33058 62.9093 5.1995 63.1619C5.06842 63.4146 5 63.695 5 63.9796C5 64.2642 5.06842 64.5446 5.1995 64.7973C5.33058 65.0499 5.52047 65.2673 5.75317 65.4312L10.7134 68.4926L10.8563 69.9417L6.59008 73.9419C6.3939 74.148 6.25014 74.3983 6.17091 74.6716C6.09169 74.9449 6.07932 75.2332 6.13484 75.5123C6.19037 75.7914 6.31216 76.053 6.48997 76.2752C6.66777 76.4974 6.89638 76.6736 7.15653 76.789L12.6015 78.8299L13.0302 80.2331L9.63663 84.9527C9.48403 85.1929 9.39141 85.4663 9.3666 85.7499C9.34179 86.0334 9.3855 86.3187 9.49406 86.5818C9.60261 86.8449 9.77283 87.0781 9.99036 87.2616C10.2079 87.4452 10.4664 87.5737 10.744 87.6365L16.4901 88.5703L17.1841 89.8611L14.755 95.1522C14.6527 95.4177 14.6157 95.7039 14.6472 95.9866C14.6786 96.2693 14.7775 96.5404 14.9355 96.777C15.0936 97.0135 15.3062 97.2086 15.5554 97.3459C15.8046 97.4831 16.0832 97.5585 16.3676 97.5656L22.1954 97.3667L23.119 98.4841L21.782 104.168C21.7349 104.447 21.7551 104.732 21.841 105.002C21.927 105.271 22.0761 105.515 22.2759 105.715C22.4757 105.915 22.7204 106.064 22.9896 106.15C23.2588 106.236 23.5446 106.256 23.8232 106.209L29.5081 104.867L30.6257 105.791L30.4267 111.617C30.4315 111.903 30.5054 112.183 30.642 112.433C30.7786 112.684 30.9739 112.897 31.2112 113.056C31.4485 113.214 31.7207 113.313 32.0044 113.343C32.2881 113.373 32.575 113.335 32.8404 113.23L38.1374 110.816L39.4285 111.51L40.3624 117.25C40.4239 117.529 40.5515 117.788 40.7346 118.007C40.9176 118.226 41.1506 118.397 41.4139 118.507C41.6772 118.617 41.9631 118.661 42.2473 118.637C42.5315 118.613 42.8056 118.52 43.0466 118.368L47.767 114.965L49.1703 115.393L51.2116 120.842C51.327 121.103 51.5032 121.331 51.7254 121.509C51.9476 121.687 52.2093 121.808 52.4884 121.864C52.7676 121.919 53.0559 121.907 53.3293 121.828C53.6026 121.749 53.8529 121.605 54.0591 121.409L58.0395 117.143L59.4837 117.291L62.5455 122.251C62.7102 122.482 62.9279 122.671 63.1805 122.802C63.433 122.932 63.7131 123 63.9974 123C64.2816 123 64.5617 122.932 64.8143 122.802C65.0669 122.671 65.2846 122.482 65.4492 122.251L68.5111 117.291L69.9604 117.143L73.9357 121.409C74.1418 121.605 74.3921 121.749 74.6655 121.828C74.9388 121.907 75.2272 121.919 75.5063 121.864C75.7855 121.808 76.0471 121.687 76.2694 121.509C76.4916 121.331 76.6678 121.103 76.7832 120.842L78.8244 115.393L80.2278 114.965L84.9482 118.368C85.1891 118.52 85.4633 118.613 85.7475 118.637C86.0317 118.661 86.3175 118.617 86.5808 118.507C86.8441 118.397 87.0772 118.226 87.2602 118.007C87.4433 117.788 87.5709 117.529 87.6324 117.25L88.5713 111.51L89.8624 110.816L95.1594 113.23C95.4249 113.333 95.7114 113.371 95.9947 113.34C96.278 113.309 96.5496 113.211 96.7865 113.052C97.0234 112.894 97.2187 112.681 97.3556 112.431C97.4926 112.181 97.5672 111.902 97.5732 111.617L97.3691 105.791L98.4867 104.867L104.166 106.209C104.445 106.255 104.73 106.234 104.999 106.147C105.267 106.061 105.512 105.912 105.711 105.713C105.911 105.513 106.06 105.269 106.146 105C106.233 104.732 106.254 104.446 106.208 104.168L104.871 98.4841L105.789 97.3667L111.622 97.5656C111.907 97.5597 112.186 97.485 112.436 97.3481C112.686 97.2112 112.899 97.016 113.057 96.7791C113.216 96.5422 113.314 96.2706 113.345 95.9874C113.376 95.7042 113.338 95.4177 113.235 95.1522L110.816 89.856L111.505 88.5651L117.256 87.6314C117.534 87.5701 117.794 87.4422 118.012 87.2588C118.231 87.0753 118.401 86.8417 118.509 86.5779C118.618 86.3142 118.661 86.0281 118.634 85.7442C118.608 85.4602 118.513 85.1869 118.358 84.9476L114.965 80.228L115.393 78.8248L120.843 76.7839C121.103 76.6683 121.33 76.4922 121.507 76.2704C121.685 76.0487 121.806 75.7877 121.861 75.5093C121.917 75.231 121.905 74.9434 121.826 74.6707C121.748 74.3979 121.605 74.148 121.41 73.9419L117.144 69.9621L117.281 68.5181L122.247 65.4567C122.479 65.2934 122.669 65.0764 122.8 64.8242C122.932 64.572 123 64.2919 123 64.0077C123 63.7234 122.932 63.4433 122.8 63.1911C122.669 62.9389 122.479 62.7219 122.247 62.5586L117.322 59.487Z" fill="black"/>
</svg>
