<svg width="128" height="128" viewBox="0 0 128 128" fill="none" xmlns="http://www.w3.org/2000/svg">
<path d="M111.841 82.0002C110.023 82.0002 109.151 81.1781 108.972 80.0428H110.812C110.912 80.4119 111.287 80.6356 111.841 80.6356C112.557 80.6356 112.937 80.233 112.937 79.45V78.5384H112.931C112.618 79.2375 112.008 79.5451 111.237 79.5451C109.688 79.5451 108.681 78.3035 108.681 76.5698C108.681 74.8137 109.721 73.5498 111.22 73.5498C111.986 73.5498 112.562 73.8854 112.931 74.5061H112.937V73.6784H114.85V79.2599C114.85 81.1837 113.686 82.0002 111.841 82.0002ZM111.774 78.0351C112.501 78.0351 112.998 77.4478 112.998 76.5363C112.998 75.6303 112.501 75.043 111.774 75.043C111.069 75.043 110.633 75.6023 110.633 76.5363C110.633 77.4758 111.069 78.0351 111.774 78.0351Z" fill="white"/>
<path d="M103.96 76.3741V79.5842H102.037V73.6784H103.938V74.6348C104.33 73.9581 104.928 73.5498 105.817 73.5498C107.098 73.5498 107.847 74.4167 107.847 75.8707V79.5842H105.923V76.2734C105.923 75.5743 105.571 75.194 104.962 75.194C104.352 75.194 103.96 75.5687 103.96 76.3741Z" fill="white"/>
<path d="M99.0394 79.5846V73.6788H100.963V79.5846H99.0394ZM99.9957 73.1027C99.3805 73.1027 98.9387 72.6945 98.9387 72.1296C98.9387 71.5648 99.3805 71.1621 99.9957 71.1621C100.616 71.1621 101.058 71.5648 101.058 72.1296C101.058 72.6945 100.616 73.1027 99.9957 73.1027Z" fill="white"/>
<path d="M92.5293 79.5844V71.2515H94.4531V75.7759H94.4755L96.2707 73.6787H98.491L96.2931 76.2568L98.5861 79.5844H96.3658L94.8614 77.353L94.4531 77.8284V79.5844H92.5293Z" fill="white"/>
<path d="M87.9656 79.5844V73.6786H89.8279V74.7188H89.8447C90.0572 73.9694 90.499 73.6562 91.2876 73.6562C91.4945 73.6562 91.6567 73.6618 91.8133 73.6674V75.2557C91.6735 75.2501 91.3323 75.239 91.0527 75.239C90.3648 75.239 89.8894 75.7199 89.8894 76.5588V79.5844H87.9656Z" fill="white"/>
<path d="M84.0287 79.7187C82.1775 79.7187 80.9192 78.5051 80.9192 76.6315C80.9192 74.7692 82.1775 73.5444 84.0287 73.5444C85.8798 73.5444 87.1325 74.7692 87.1325 76.6315C87.1325 78.5051 85.8798 79.7187 84.0287 79.7187ZM84.0287 78.1863C84.6998 78.1863 85.1863 77.6326 85.1863 76.6315C85.1863 75.6361 84.6998 75.0768 84.0287 75.0768C83.3576 75.0768 82.871 75.6361 82.871 76.6315C82.871 77.6326 83.352 78.1863 84.0287 78.1863Z" fill="white"/>
<path d="M72.9162 79.5845L71.0986 73.6787H73.1231L73.5817 75.5243C73.7495 76.2122 73.9005 76.956 74.0515 77.6886C74.2249 76.956 74.3983 76.2122 74.5772 75.5243L75.0638 73.6787H76.7695L77.2561 75.5243C77.435 76.2122 77.6084 76.956 77.7818 77.6886C77.9272 76.956 78.0726 76.2178 78.2348 75.5243L78.6766 73.6787H80.7346L78.9171 79.5845H76.9317L76.2774 77.3754C76.1543 76.9392 76.0369 76.475 75.9194 76.0108C75.802 76.475 75.6845 76.9392 75.5559 77.3754L74.9016 79.5845H72.9162Z" fill="white"/>
<path d="M70.5559 73.6785V75.1662H69.3424V77.599C69.3424 77.9793 69.4598 78.0967 69.8904 78.0967H70.5559V79.5843H69.4654C68.0505 79.5843 67.4129 79.0698 67.4129 77.9233V75.1662H66.4062V73.6785H67.4129V72.0679H69.3424V73.6785H70.5559Z" fill="white"/>
<path d="M63.079 79.7187C61.267 79.7187 60.0366 78.4324 60.0366 76.6315C60.0366 74.8307 61.2782 73.5444 63.0287 73.5444C64.8015 73.5444 66.0263 74.7972 66.0263 76.5868V77.1069H61.9157C61.9381 77.8563 62.3855 78.3317 63.1461 78.3317C63.7109 78.3317 64.1136 78.0856 64.2534 77.6941H65.9815C65.7634 78.8854 64.5722 79.7187 63.079 79.7187ZM61.9269 75.9548H64.2311C64.1472 75.3341 63.7221 74.965 63.079 74.965C62.4302 74.965 62.0108 75.3341 61.9269 75.9548Z" fill="white"/>
<path d="M51.905 79.5844V71.2515H53.9855L56.3511 75.0377C56.5469 75.3508 56.8992 75.9772 57.2236 76.5756C57.2068 75.9157 57.1956 75.239 57.1956 74.8643V71.2515H59.2089V79.5844H57.1229L54.953 76.117C54.7125 75.7311 54.3154 75.0488 53.8848 74.2659C53.9128 75.0768 53.9184 75.7647 53.9184 76.1114V79.5844H51.905Z" fill="white"/>
<path d="M76.9707 63.03V66.2402H75.0469V57.9072H76.9707V61.246C77.3678 60.5973 77.9606 60.2058 78.8275 60.2058C80.1082 60.2058 80.8576 61.0726 80.8576 62.5267V66.2402H78.9337V62.9294C78.9337 62.2303 78.5814 61.85 77.9718 61.85C77.3622 61.85 76.9707 62.2247 76.9707 63.03Z" fill="white"/>
<path d="M71.4785 66.3857C69.8455 66.3857 68.699 65.6083 68.5928 64.3499H70.4887C70.5446 64.7862 70.8857 65.0602 71.4506 65.0602C71.9819 65.0602 72.2951 64.8533 72.2951 64.5569C72.2951 64.2996 72.049 64.143 71.5792 64.0591L70.511 63.869C69.3478 63.6621 68.727 63.0637 68.727 62.1297C68.727 60.9608 69.7281 60.2114 71.3723 60.2114C73.0221 60.2114 74.0679 60.9944 74.1015 62.2527H72.3286C72.3174 61.8389 71.9483 61.5313 71.4394 61.5313C70.9361 61.5313 70.6452 61.7494 70.6452 62.0402C70.6452 62.2863 70.8745 62.4485 71.2828 62.5268L72.4684 62.7449C73.682 62.9686 74.2525 63.4775 74.2525 64.3555C74.2525 65.5691 73.1339 66.3857 71.4785 66.3857Z" fill="white"/>
<path d="M65.1144 66.3744C63.3024 66.3744 62.072 65.0881 62.072 63.2873C62.072 61.4865 63.3136 60.2002 65.0641 60.2002C66.8369 60.2002 68.0617 61.4529 68.0617 63.2426V63.7627H63.9511C63.9735 64.5121 64.4209 64.9875 65.1815 64.9875C65.7463 64.9875 66.149 64.7414 66.2888 64.3499H68.0169C67.7988 65.5411 66.6076 66.3744 65.1144 66.3744ZM63.9623 62.6106H66.2665C66.1826 61.9898 65.7575 61.6207 65.1144 61.6207C64.4656 61.6207 64.0462 61.9898 63.9623 62.6106Z" fill="white"/>
<path d="M51.905 66.2402V57.9072H54.8803L55.9541 61.1789C56.1162 61.7102 56.3735 62.6274 56.5804 63.4159C56.7873 62.6274 57.039 61.7102 57.1956 61.1789L58.2582 57.9072H61.239V66.2402H59.2649V62.633C59.2649 62.0625 59.3096 61.0055 59.332 60.0156C59.0523 61.0279 58.7671 62.0737 58.5882 62.633L57.3913 66.2402H55.7639L54.5447 62.633C54.3714 62.0961 54.0917 61.1006 53.8177 60.1275C53.8401 61.0838 53.8792 62.0849 53.8792 62.633V66.2402H51.905Z" fill="white"/>
<path d="M96.9414 46.1395V45.2246H102.436V46.1395H100.216V52.2157H99.1701V46.1395H96.9414Z" fill="white"/>
<path d="M90.4854 52.2157V45.2246H91.6396L94.3093 49.4521C94.3906 49.5835 94.5017 49.7696 94.6424 50.0104C94.7832 50.2513 94.924 50.4953 95.0647 50.7424C95.0553 50.489 95.0475 50.2325 95.0413 49.9729C95.0381 49.7102 95.0366 49.5147 95.0366 49.3864V45.2246H96.0829V52.2157H94.9193L92.5311 48.4386C92.4341 48.2854 92.2933 48.057 92.1088 47.7536C91.9274 47.4471 91.7209 47.0952 91.4894 46.6979C91.5051 47.1077 91.5145 47.4611 91.5176 47.7583C91.5238 48.0523 91.527 48.2775 91.527 48.4339V52.2157H90.4854Z" fill="white"/>
<path d="M84.8264 52.2157V45.2246H89.5278V46.1395H85.868V48.1993H89.2556V49.1049H85.868V51.3007H89.5278V52.2157H84.8264Z" fill="white"/>
<path d="M79.6094 52.2157V45.2246H80.651V51.3007H83.9588V52.2157H79.6094Z" fill="white"/>
<path d="M72.571 52.2157L75.1094 45.2246H76.3669L78.8865 52.2157H77.7557L77.1363 50.3999H74.3165L73.6784 52.2157H72.571ZM74.6308 49.5131H76.8314L76.4091 48.2744C76.3152 47.9866 76.2152 47.6785 76.1088 47.3501C76.0024 47.0216 75.8805 46.6306 75.7428 46.1771C75.6021 46.6306 75.4785 47.0216 75.3722 47.3501C75.2658 47.6785 75.1641 47.9866 75.0672 48.2744L74.6308 49.5131Z" fill="white"/>
<path d="M69.6385 52.2157L67.1001 45.2246H68.2215L69.6056 49.1659C69.6901 49.4193 69.787 49.718 69.8965 50.0621C70.006 50.4061 70.1342 50.8081 70.2813 51.2679C70.422 50.8081 70.5456 50.4061 70.6519 50.0621C70.7614 49.718 70.8584 49.4193 70.9428 49.1659L72.2894 45.2246H73.392L70.8912 52.2157H69.6385Z" fill="white"/>
<path d="M63.7785 52.3286C63.1591 52.3286 62.607 52.1769 62.1222 51.8735C61.6374 51.5701 61.2557 51.1478 60.9773 50.6066C60.7021 50.0655 60.5645 49.4383 60.5645 48.7251C60.5645 48.0088 60.7021 47.3801 60.9773 46.839C61.2557 46.2947 61.6374 45.8708 62.1222 45.5674C62.607 45.264 63.1591 45.1123 63.7785 45.1123C64.4009 45.1123 64.9546 45.264 65.4394 45.5674C65.9243 45.8708 66.3043 46.2947 66.5796 46.839C66.858 47.3801 66.9972 48.0088 66.9972 48.7251C66.9972 49.4383 66.858 50.0655 66.5796 50.6066C66.3043 51.1478 65.9243 51.5701 65.4394 51.8735C64.9546 52.1769 64.4009 52.3286 63.7785 52.3286ZM63.7785 51.3761C64.182 51.3761 64.5479 51.2745 64.8764 51.0711C65.2048 50.8647 65.466 50.5644 65.6599 50.1703C65.8539 49.773 65.9508 49.2913 65.9508 48.7251C65.9508 48.1558 65.8539 47.6726 65.6599 47.2753C65.466 46.8781 65.2048 46.5778 64.8764 46.3745C64.5479 46.168 64.182 46.0648 63.7785 46.0648C63.3781 46.0648 63.0137 46.168 62.6852 46.3745C62.3568 46.5778 62.0956 46.8781 61.9017 47.2753C61.7077 47.6726 61.6108 48.1558 61.6108 48.7251C61.6108 49.2913 61.7077 49.773 61.9017 50.1703C62.0956 50.5644 62.3568 50.8647 62.6852 51.0711C63.0137 51.2745 63.3781 51.3761 63.7785 51.3761Z" fill="white"/>
<path d="M57.2187 52.3286C56.3804 52.3286 55.7189 52.1175 55.234 51.6952C54.7523 51.2698 54.5115 50.688 54.5115 49.9498H55.5531C55.5562 50.4096 55.7032 50.7693 55.9941 51.0289C56.2882 51.2885 56.6964 51.4183 57.2187 51.4183C57.6942 51.4183 58.0743 51.3182 58.3589 51.1181C58.6467 50.9147 58.7906 50.6426 58.7906 50.3017C58.7906 50.0326 58.6873 49.8152 58.4809 49.6495C58.2776 49.4806 57.9335 49.3382 57.4487 49.2225L56.6839 49.0395C55.9769 48.8706 55.4608 48.636 55.1355 48.3357C54.8133 48.0323 54.6522 47.6382 54.6522 47.1533C54.6522 46.7436 54.7555 46.3854 54.9619 46.0789C55.1684 45.7723 55.4577 45.5346 55.8299 45.3657C56.2053 45.1968 56.6432 45.1123 57.1437 45.1123C57.8975 45.1123 58.4965 45.3094 58.9407 45.7035C59.388 46.0976 59.6226 46.6356 59.6445 47.3175H58.6357C58.6107 46.914 58.4637 46.5981 58.1947 46.3698C57.9257 46.1383 57.5706 46.0226 57.1296 46.0226C56.7073 46.0226 56.3617 46.1242 56.0927 46.3275C55.8237 46.5277 55.6892 46.7858 55.6892 47.1017C55.6892 47.3551 55.7924 47.5615 55.9988 47.7211C56.2053 47.8775 56.5478 48.0135 57.0264 48.1293L57.7818 48.3076C58.4825 48.4733 58.9986 48.7126 59.3301 49.0254C59.6648 49.3382 59.8322 49.7449 59.8322 50.2453C59.8322 50.6645 59.7243 51.0305 59.5084 51.3433C59.2926 51.6561 58.9892 51.8985 58.5982 52.0705C58.2072 52.2426 57.7474 52.3286 57.2187 52.3286Z" fill="white"/>
<path d="M53.5214 45.2246V52.2157H52.4797V45.2246H53.5214Z" fill="white"/>
<path d="M22.9378 71.7102C21.9347 72.4386 21.1732 73.4798 20.7975 74.6909L15.6909 71.0272C16.6942 70.2987 17.4555 69.2577 17.8312 68.0466L22.9378 71.7102Z" fill="white"/>
<path d="M34.8643 68.0466C35.24 69.2577 36.0015 70.2987 37.0046 71.0272L31.898 74.6909C31.5223 73.4798 30.761 72.4386 29.7577 71.7102L34.8643 68.0466Z" fill="white"/>
<path d="M28.1827 70.9C27.606 70.7082 26.9891 70.6044 26.3479 70.6044C25.7068 70.6044 25.0899 70.7082 24.5131 70.9V66.6388C25.0899 66.8306 25.7067 66.9347 26.3479 66.9347C26.9891 66.9347 27.606 66.8306 28.1827 66.6388V70.9Z" fill="white"/>
<path d="M20.541 61.3145C20.5828 62.6151 21.0521 63.8074 21.8129 64.7562L18.0877 66.1329C18.0459 64.8323 17.5767 63.6399 16.8159 62.6912L20.541 61.3145Z" fill="white"/>
<path d="M35.8797 62.6912C35.1189 63.6399 34.6496 64.8323 34.6078 66.1329L30.8827 64.7562C31.6435 63.8074 32.1128 62.6151 32.1545 61.3145L35.8797 62.6912Z" fill="white"/>
<ellipse cx="26.3476" cy="76.415" rx="4.2812" ry="4.28122" fill="white"/>
<path d="M35.522 44C37.8864 44 39.8032 45.9168 39.8032 48.2812C39.8032 49.6433 39.1669 50.8564 38.1756 51.6406L41.0076 62.0832C43.0915 62.3718 44.696 64.1602 44.696 66.3235C44.696 68.688 42.7792 70.6047 40.4148 70.6047C38.0504 70.6047 36.1336 68.688 36.1336 66.3235C36.1336 64.9615 36.7696 63.748 37.7608 62.9639L34.9286 52.5212C34.8182 52.5059 34.7092 52.4866 34.6016 52.463L30.0051 58.898C30.401 59.5468 30.6292 60.3092 30.6292 61.1249C30.6292 63.4893 28.7124 65.4061 26.348 65.4061C23.9836 65.4061 22.0668 63.4893 22.0668 61.1249C22.0668 60.3093 22.2945 59.5467 22.6903 58.898L18.0938 52.463C17.9862 52.4865 17.8772 52.5059 17.7668 52.5212L14.9349 62.9639C15.9262 63.748 16.5624 64.9614 16.5624 66.3235C16.5624 68.688 14.6456 70.6047 12.2812 70.6047C9.91676 70.6047 8 68.688 8 66.3235C8 64.1603 9.60438 62.372 11.6881 62.0832L14.52 51.6406C13.5289 50.8564 12.8928 49.6432 12.8928 48.2812C12.8928 45.9168 14.8096 44 17.174 44C19.5384 44 21.4552 45.9168 21.4552 48.2812C21.4552 49.0967 21.2271 49.8588 20.8314 50.5075L25.4279 56.9428C25.7243 56.8779 26.0321 56.8437 26.348 56.8437C26.6638 56.8437 26.9715 56.8779 27.2678 56.9428L31.8643 50.5075C31.4687 49.8589 31.2408 49.0966 31.2408 48.2812C31.2408 45.9168 33.1576 44 35.522 44Z" fill="white"/>
<path d="M30.0077 46.4463C29.8159 47.0231 29.7118 47.6399 29.7118 48.2811C29.7118 48.9223 29.8159 49.5391 30.0077 50.1159H22.6882C22.8801 49.5391 22.9842 48.9223 22.9842 48.2811C22.9842 47.6399 22.8801 47.0231 22.6882 46.4463H30.0077Z" fill="white"/>
</svg>
