<svg width="128" height="128" viewBox="0 0 128 128" fill="none" xmlns="http://www.w3.org/2000/svg">
<path d="M108.192 94.7969C105.336 94.7969 103.965 93.5049 103.684 91.7207H106.575C106.733 92.3008 107.322 92.6523 108.192 92.6523C109.317 92.6523 109.915 92.0195 109.915 90.7891V89.3564H109.906C109.414 90.4551 108.456 90.9385 107.243 90.9385C104.809 90.9385 103.227 88.9873 103.227 86.2627C103.227 83.5029 104.861 81.5166 107.217 81.5166C108.421 81.5166 109.326 82.0439 109.906 83.0195H109.915V81.7188H112.921V90.4902C112.921 93.5137 111.093 94.7969 108.192 94.7969ZM108.087 88.5654C109.229 88.5654 110.012 87.6426 110.012 86.21C110.012 84.7861 109.229 83.8633 108.087 83.8633C106.979 83.8633 106.294 84.7422 106.294 86.21C106.294 87.6865 106.979 88.5654 108.087 88.5654Z" fill="black"/>
<path d="M95.8086 85.9551V91H92.7852V81.7188H95.7734V83.2217C96.3887 82.1582 97.3291 81.5166 98.7266 81.5166C100.739 81.5166 101.917 82.8789 101.917 85.1641V91H98.8936V85.7969C98.8936 84.6982 98.3398 84.1006 97.3818 84.1006C96.4238 84.1006 95.8086 84.6895 95.8086 85.9551Z" fill="black"/>
<path d="M88.0742 91V81.7188H91.0977V91H88.0742ZM89.5771 80.8135C88.6104 80.8135 87.916 80.1719 87.916 79.2842C87.916 78.3965 88.6104 77.7637 89.5771 77.7637C90.5527 77.7637 91.2471 78.3965 91.2471 79.2842C91.2471 80.1719 90.5527 80.8135 89.5771 80.8135Z" fill="black"/>
<path d="M77.8438 91V77.9043H80.8672V85.0146H80.9023L83.7236 81.7188H87.2129L83.7588 85.7705L87.3623 91H83.873L81.5088 87.4932L80.8672 88.2402V91H77.8438Z" fill="black"/>
<path d="M70.6719 91V81.7188H73.5986V83.3535H73.625C73.959 82.1758 74.6533 81.6836 75.8926 81.6836C76.2178 81.6836 76.4727 81.6924 76.7188 81.7012V84.1973C76.499 84.1885 75.9629 84.1709 75.5234 84.1709C74.4424 84.1709 73.6953 84.9268 73.6953 86.2451V91H70.6719Z" fill="black"/>
<path d="M64.4844 91.2109C61.5752 91.2109 59.5977 89.3037 59.5977 86.3594C59.5977 83.4326 61.5752 81.5078 64.4844 81.5078C67.3936 81.5078 69.3623 83.4326 69.3623 86.3594C69.3623 89.3037 67.3936 91.2109 64.4844 91.2109ZM64.4844 88.8027C65.5391 88.8027 66.3037 87.9326 66.3037 86.3594C66.3037 84.7949 65.5391 83.916 64.4844 83.916C63.4297 83.916 62.665 84.7949 62.665 86.3594C62.665 87.9326 63.4209 88.8027 64.4844 88.8027Z" fill="black"/>
<path d="M47.0205 91L44.1641 81.7188H47.3457L48.0664 84.6191C48.3301 85.7002 48.5674 86.8691 48.8047 88.0205C49.0771 86.8691 49.3496 85.7002 49.6309 84.6191L50.3955 81.7188H53.0762L53.8408 84.6191C54.1221 85.7002 54.3945 86.8691 54.667 88.0205C54.8955 86.8691 55.124 85.709 55.3789 84.6191L56.0732 81.7188H59.3076L56.4512 91H53.3311L52.3027 87.5283C52.1094 86.8428 51.9248 86.1133 51.7402 85.3838C51.5557 86.1133 51.3711 86.8428 51.1689 87.5283L50.1406 91H47.0205Z" fill="black"/>
<path d="M43.3115 81.7188V84.0566H41.4043V87.8799C41.4043 88.4775 41.5889 88.6621 42.2656 88.6621H43.3115V91H41.5977C39.374 91 38.3721 90.1914 38.3721 88.3896V84.0566H36.79V81.7188H38.3721V79.1875H41.4043V81.7188H43.3115Z" fill="black"/>
<path d="M31.5605 91.2109C28.7129 91.2109 26.7793 89.1895 26.7793 86.3594C26.7793 83.5293 28.7305 81.5078 31.4814 81.5078C34.2676 81.5078 36.1924 83.4766 36.1924 86.2891V87.1064H29.7324C29.7676 88.2842 30.4707 89.0312 31.666 89.0312C32.5537 89.0312 33.1865 88.6445 33.4062 88.0293H36.1221C35.7793 89.9014 33.9072 91.2109 31.5605 91.2109ZM29.75 85.2959H33.3711C33.2393 84.3203 32.5713 83.7402 31.5605 83.7402C30.541 83.7402 29.8818 84.3203 29.75 85.2959Z" fill="black"/>
<path d="M14 91V77.9043H17.2695L20.9873 83.8545C21.2949 84.3467 21.8486 85.3311 22.3584 86.2715C22.332 85.2344 22.3145 84.1709 22.3145 83.582V77.9043H25.4785V91H22.2002L18.79 85.5508C18.4121 84.9443 17.7881 83.8721 17.1113 82.6416C17.1553 83.916 17.1641 84.9971 17.1641 85.542V91H14Z" fill="black"/>
<path d="M53.3926 63.9551V69H50.3691V55.9043H53.3926V61.1514C54.0166 60.1318 54.9482 59.5166 56.3105 59.5166C58.3232 59.5166 59.501 60.8789 59.501 63.1641V69H56.4775V63.7969C56.4775 62.6982 55.9238 62.1006 54.9658 62.1006C54.0078 62.1006 53.3926 62.6895 53.3926 63.9551Z" fill="black"/>
<path d="M44.7617 69.2285C42.1953 69.2285 40.3936 68.0068 40.2266 66.0293H43.2061C43.2939 66.7148 43.8301 67.1455 44.7178 67.1455C45.5527 67.1455 46.0449 66.8203 46.0449 66.3545C46.0449 65.9502 45.6582 65.7041 44.9199 65.5723L43.2412 65.2734C41.4131 64.9482 40.4375 64.0078 40.4375 62.54C40.4375 60.7031 42.0107 59.5254 44.5947 59.5254C47.1875 59.5254 48.8311 60.7559 48.8838 62.7334H46.0977C46.0801 62.083 45.5 61.5996 44.7002 61.5996C43.9092 61.5996 43.4521 61.9424 43.4521 62.3994C43.4521 62.7861 43.8125 63.041 44.4541 63.1641L46.3174 63.5068C48.2246 63.8584 49.1211 64.6582 49.1211 66.0381C49.1211 67.9453 47.3633 69.2285 44.7617 69.2285Z" fill="black"/>
<path d="M34.7598 69.2109C31.9121 69.2109 29.9785 67.1895 29.9785 64.3594C29.9785 61.5293 31.9297 59.5078 34.6807 59.5078C37.4668 59.5078 39.3916 61.4766 39.3916 64.2891V65.1064H32.9316C32.9668 66.2842 33.6699 67.0312 34.8652 67.0312C35.7529 67.0312 36.3857 66.6445 36.6055 66.0293H39.3213C38.9785 67.9014 37.1064 69.2109 34.7598 69.2109ZM32.9492 63.2959H36.5703C36.4385 62.3203 35.7705 61.7402 34.7598 61.7402C33.7402 61.7402 33.0811 62.3203 32.9492 63.2959Z" fill="black"/>
<path d="M14 69V55.9043H18.6758L20.3633 61.0459C20.6182 61.8809 21.0225 63.3223 21.3477 64.5615C21.6729 63.3223 22.0684 61.8809 22.3145 61.0459L23.9844 55.9043H28.6689V69H25.5664V63.3311C25.5664 62.4346 25.6367 60.7734 25.6719 59.2178C25.2324 60.8086 24.7842 62.4521 24.5029 63.3311L22.6221 69H20.0645L18.1484 63.3311C17.876 62.4873 17.4365 60.9229 17.0059 59.3936C17.041 60.8965 17.1025 62.4697 17.1025 63.3311V69H14Z" fill="black"/>
<path d="M82.3562 38.5791V37.1724H90.8036V38.5791H87.3915V47.9209H85.7828V38.5791H82.3562Z" fill="black"/>
<path d="M72.4326 47.9209V37.1724H74.2072L78.3119 43.672C78.4369 43.874 78.6077 44.1601 78.8241 44.5305C79.0405 44.9008 79.2569 45.2759 79.4733 45.6558C79.4589 45.2663 79.4469 44.8719 79.4372 44.4727C79.4324 44.0688 79.43 43.7682 79.43 43.571V37.1724H81.0387V47.9209H79.2497L75.5778 42.1138C75.4288 41.8782 75.2123 41.5271 74.9286 41.0606C74.6497 40.5893 74.3323 40.0483 73.9764 39.4375C74.0004 40.0675 74.0149 40.6109 74.0197 41.0678C74.0293 41.5199 74.0341 41.8662 74.0341 42.1066V47.9209H72.4326Z" fill="black"/>
<path d="M63.7332 47.9209V37.1724H70.9614V38.5791H65.3346V41.7459H70.543V43.1382H65.3346V46.5143H70.9614V47.9209H63.7332Z" fill="black"/>
<path d="M55.7112 47.9209V37.1724H57.3127V46.5143H62.3984V47.9209H55.7112Z" fill="black"/>
<path d="M44.8914 47.9209L48.794 37.1724H50.7273L54.6012 47.9209H52.8626L51.9104 45.1292H47.5749L46.5938 47.9209H44.8914ZM48.0582 43.7658H51.4415L50.7923 41.8613C50.648 41.4189 50.4941 40.9452 50.3306 40.4402C50.1671 39.9353 49.9795 39.3341 49.7679 38.6368C49.5515 39.3341 49.3615 39.9353 49.198 40.4402C49.0345 40.9452 48.8782 41.4189 48.7291 41.8613L48.0582 43.7658Z" fill="black"/>
<path d="M40.378 47.9209L36.4753 37.1724H38.1994L40.3275 43.232C40.4574 43.6215 40.6065 44.0808 40.7748 44.6098C40.9431 45.1388 41.1403 45.7568 41.3663 46.4638C41.5827 45.7568 41.7727 45.1388 41.9362 44.6098C42.1045 44.0808 42.2536 43.6215 42.3835 43.232L44.4538 37.1724H46.1491L42.3041 47.9209H40.378Z" fill="black"/>
<path d="M31.3692 48.0948C30.417 48.0948 29.5682 47.8616 28.8227 47.3951C28.0773 46.9286 27.4906 46.2794 27.0626 45.4474C26.6393 44.6154 26.4277 43.6511 26.4277 42.5546C26.4277 41.4533 26.6393 40.4867 27.0626 39.6547C27.4906 38.8179 28.0773 38.1662 28.8227 37.6997C29.5682 37.2332 30.417 37 31.3692 37C32.3262 37 33.1775 37.2332 33.9229 37.6997C34.6683 38.1662 35.2527 38.8179 35.6759 39.6547C36.1039 40.4867 36.3179 41.4533 36.3179 42.5546C36.3179 43.6511 36.1039 44.6154 35.6759 45.4474C35.2527 46.2794 34.6683 46.9286 33.9229 47.3951C33.1775 47.8616 32.3262 48.0948 31.3692 48.0948ZM31.3692 46.6304C31.9896 46.6304 32.5523 46.4741 33.0572 46.1615C33.5622 45.8441 33.9638 45.3824 34.262 44.7765C34.5601 44.1657 34.7092 43.4251 34.7092 42.5546C34.7092 41.6794 34.5601 40.9363 34.262 40.3256C33.9638 39.7148 33.5622 39.2531 33.0572 38.9405C32.5523 38.6231 31.9896 38.4644 31.3692 38.4644C30.7536 38.4644 30.1934 38.6231 29.6884 38.9405C29.1834 39.2531 28.7818 39.7148 28.4837 40.3256C28.1855 40.9363 28.0364 41.6794 28.0364 42.5546C28.0364 43.4251 28.1855 44.1657 28.4837 44.7765C28.7818 45.3824 29.1834 45.8441 29.6884 46.1615C30.1934 46.4741 30.7536 46.6304 31.3692 46.6304Z" fill="black"/>
<path d="M21.2871 48.0948C19.9983 48.0948 18.9811 47.7702 18.2357 47.121C17.4951 46.4669 17.1248 45.5724 17.1248 44.4374H18.7262C18.731 45.1444 18.9571 45.6975 19.4043 46.0966C19.8564 46.4958 20.484 46.6954 21.2871 46.6954C22.0181 46.6954 22.6025 46.5415 23.0401 46.2337C23.4825 45.9211 23.7038 45.5027 23.7038 44.9785C23.7038 44.5649 23.5451 44.2306 23.2277 43.9758C22.9151 43.7161 22.386 43.4972 21.6406 43.3193L20.4648 43.038C19.3779 42.7783 18.5844 42.4176 18.0842 41.9559C17.5888 41.4894 17.3412 40.8834 17.3412 40.138C17.3412 39.508 17.4999 38.9573 17.8173 38.486C18.1347 38.0147 18.5795 37.6492 19.1518 37.3895C19.7289 37.1298 20.4022 37 21.1717 37C22.3307 37 23.2517 37.303 23.9346 37.9089C24.6223 38.5149 24.983 39.3421 25.0167 40.3905H23.4657C23.4272 39.7701 23.2012 39.2844 22.7876 38.9333C22.374 38.5774 21.8282 38.3995 21.1501 38.3995C20.5008 38.3995 19.9694 38.5558 19.5558 38.8684C19.1422 39.1762 18.9354 39.5729 18.9354 40.0587C18.9354 40.4482 19.0941 40.7656 19.4115 41.0109C19.7289 41.2513 20.2556 41.4605 20.9914 41.6385L22.1528 41.9126C23.2301 42.1675 24.0236 42.5354 24.5334 43.0163C25.0479 43.4972 25.3052 44.1224 25.3052 44.8919C25.3052 45.5363 25.1393 46.099 24.8075 46.5799C24.4756 47.0609 24.0092 47.4336 23.408 47.6981C22.8068 47.9626 22.0999 48.0948 21.2871 48.0948Z" fill="black"/>
<path d="M15.6015 37.1724V47.9209H14V37.1724H15.6015Z" fill="black"/>
</svg>
