<svg width="128" height="128" viewBox="0 0 128 128" fill="none" xmlns="http://www.w3.org/2000/svg">
<path d="M52.8486 94.6162C49.5682 96.9983 47.0781 100.403 45.8496 104.363L29.1504 92.3828C32.4311 90.0006 34.9209 86.5963 36.1494 82.6357L52.8486 94.6162Z" fill="black"/>
<path d="M91.8496 82.6357C93.078 86.5962 95.5681 90.0006 98.8486 92.3828L82.1494 104.363C80.9208 100.403 78.4311 96.9982 75.1504 94.6162L91.8496 82.6357Z" fill="black"/>
<path d="M70 91.9668C68.114 91.3396 66.0967 91 64 91C61.9033 91 59.886 91.3396 58 91.9668V78.0322C59.8861 78.6595 61.9032 79 64 79C66.0968 79 68.1139 78.6595 70 78.0322V91.9668Z" fill="black"/>
<path d="M45.0107 60.6211C45.1473 64.8742 46.6821 68.7733 49.1699 71.876L36.9883 76.3779C36.8515 72.1247 35.3172 68.2256 32.8291 65.123L45.0107 60.6211Z" fill="black"/>
<path d="M95.1699 65.123C92.682 68.2256 91.1476 72.1249 91.0107 76.3779L78.8291 71.876C81.3171 68.7733 82.8517 64.8744 82.9883 60.6211L95.1699 65.123Z" fill="black"/>
<circle cx="64" cy="110" r="14" fill="black"/>
<path d="M94 4C101.732 4 108 10.268 108 18C108 22.454 105.919 26.4212 102.678 28.9854L111.938 63.1338C118.753 64.0777 124 69.9258 124 77C124 84.732 117.732 91 110 91C102.268 91 96 84.732 96 77C96 72.5461 98.0798 68.5778 101.321 66.0137L92.0596 31.8652C91.6985 31.8152 91.3419 31.7519 90.9902 31.6748L75.959 52.7178C77.2537 54.8395 78 57.3326 78 60C78 67.732 71.732 74 64 74C56.268 74 50 67.732 50 60C50 57.3329 50.7446 54.8393 52.0391 52.7178L37.0078 31.6748C36.6561 31.7518 36.2995 31.8152 35.9385 31.8652L26.6777 66.0137C29.9196 68.5778 32 72.5458 32 77C32 84.732 25.732 91 18 91C10.268 91 4 84.732 4 77C4 69.9261 9.2465 64.0781 16.0605 63.1338L25.3213 28.9854C22.0801 26.4212 20 22.4537 20 18C20 10.268 26.268 4 34 4C41.732 4 48 10.268 48 18C48 20.6667 47.254 23.159 45.96 25.2803L60.9912 46.3242C61.9604 46.112 62.9671 46 64 46C65.0325 46 66.0389 46.1121 67.0078 46.3242L82.0391 25.2803C80.7452 23.159 80 20.6665 80 18C80 10.268 86.268 4 94 4Z" fill="black"/>
<path d="M75.9678 12C75.3405 13.8861 75 15.9032 75 18C75 20.0968 75.3405 22.1139 75.9678 24H52.0322C52.6595 22.1139 53 20.0968 53 18C53 15.9032 52.6595 13.8861 52.0322 12H75.9678Z" fill="black"/>
</svg>
