<svg width="128" height="128" viewBox="0 0 128 128" fill="none" xmlns="http://www.w3.org/2000/svg">
<path d="M79.917 124.953C77.6953 124.953 76.6289 123.948 76.4102 122.561H78.6592C78.7822 123.012 79.2402 123.285 79.917 123.285C80.792 123.285 81.2568 122.793 81.2568 121.836V120.722H81.25C80.8672 121.576 80.1221 121.952 79.1787 121.952C77.2852 121.952 76.0547 120.435 76.0547 118.315C76.0547 116.169 77.3262 114.624 79.1582 114.624C80.0947 114.624 80.7988 115.034 81.25 115.793H81.2568V114.781H83.5947V121.604C83.5947 123.955 82.1729 124.953 79.917 124.953ZM79.835 120.106C80.7236 120.106 81.332 119.389 81.332 118.274C81.332 117.167 80.7236 116.449 79.835 116.449C78.9736 116.449 78.4404 117.133 78.4404 118.274C78.4404 119.423 78.9736 120.106 79.835 120.106Z" fill="white"/>
<path d="M70.2852 118.076V122H67.9336V114.781H70.2578V115.95C70.7363 115.123 71.4678 114.624 72.5547 114.624C74.1201 114.624 75.0361 115.684 75.0361 117.461V122H72.6846V117.953C72.6846 117.099 72.2539 116.634 71.5088 116.634C70.7637 116.634 70.2852 117.092 70.2852 118.076Z" fill="white"/>
<path d="M64.2695 122V114.781H66.6211V122H64.2695ZM65.4385 114.077C64.6865 114.077 64.1465 113.578 64.1465 112.888C64.1465 112.197 64.6865 111.705 65.4385 111.705C66.1973 111.705 66.7373 112.197 66.7373 112.888C66.7373 113.578 66.1973 114.077 65.4385 114.077Z" fill="white"/>
<path d="M56.3125 122V111.814H58.6641V117.345H58.6914L60.8857 114.781H63.5996L60.9131 117.933L63.7158 122H61.002L59.1631 119.272L58.6641 119.854V122H56.3125Z" fill="white"/>
<path d="M50.7344 122V114.781H53.0107V116.053H53.0312C53.291 115.137 53.8311 114.754 54.7949 114.754C55.0479 114.754 55.2461 114.761 55.4375 114.768V116.709C55.2666 116.702 54.8496 116.688 54.5078 116.688C53.667 116.688 53.0859 117.276 53.0859 118.302V122H50.7344Z" fill="white"/>
<path d="M45.9219 122.164C43.6592 122.164 42.1211 120.681 42.1211 118.391C42.1211 116.114 43.6592 114.617 45.9219 114.617C48.1846 114.617 49.7158 116.114 49.7158 118.391C49.7158 120.681 48.1846 122.164 45.9219 122.164ZM45.9219 120.291C46.7422 120.291 47.3369 119.614 47.3369 118.391C47.3369 117.174 46.7422 116.49 45.9219 116.49C45.1016 116.49 44.5068 117.174 44.5068 118.391C44.5068 119.614 45.0947 120.291 45.9219 120.291Z" fill="white"/>
<path d="M32.3389 122L30.1172 114.781H32.5918L33.1523 117.037C33.3574 117.878 33.542 118.787 33.7266 119.683C33.9385 118.787 34.1504 117.878 34.3691 117.037L34.9639 114.781H37.0488L37.6436 117.037C37.8623 117.878 38.0742 118.787 38.2861 119.683C38.4639 118.787 38.6416 117.885 38.8398 117.037L39.3799 114.781H41.8955L39.6738 122H37.2471L36.4473 119.3C36.2969 118.767 36.1533 118.199 36.0098 117.632C35.8662 118.199 35.7227 118.767 35.5654 119.3L34.7656 122H32.3389Z" fill="white"/>
<path d="M29.4541 114.781V116.6H27.9707V119.573C27.9707 120.038 28.1143 120.182 28.6406 120.182H29.4541V122H28.1211C26.3916 122 25.6123 121.371 25.6123 119.97V116.6H24.3818V114.781H25.6123V112.812H27.9707V114.781H29.4541Z" fill="white"/>
<path d="M20.3145 122.164C18.0996 122.164 16.5957 120.592 16.5957 118.391C16.5957 116.189 18.1133 114.617 20.2529 114.617C22.4199 114.617 23.917 116.148 23.917 118.336V118.972H18.8926C18.9199 119.888 19.4668 120.469 20.3965 120.469C21.0869 120.469 21.5791 120.168 21.75 119.689H23.8623C23.5957 121.146 22.1396 122.164 20.3145 122.164ZM18.9062 117.563H21.7227C21.6201 116.805 21.1006 116.354 20.3145 116.354C19.5215 116.354 19.0088 116.805 18.9062 117.563Z" fill="white"/>
<path d="M6.65625 122V111.814H9.19922L12.0908 116.442C12.3301 116.825 12.7607 117.591 13.1572 118.322C13.1367 117.516 13.123 116.688 13.123 116.23V111.814H15.584V122H13.0342L10.3818 117.762C10.0879 117.29 9.60254 116.456 9.07617 115.499C9.11035 116.49 9.11719 117.331 9.11719 117.755V122H6.65625Z" fill="white"/>
<path d="M37.2949 101.076V105H34.9434V94.8145H37.2949V98.8955C37.7803 98.1025 38.5049 97.624 39.5645 97.624C41.1299 97.624 42.0459 98.6836 42.0459 100.461V105H39.6943V100.953C39.6943 100.099 39.2637 99.6338 38.5186 99.6338C37.7734 99.6338 37.2949 100.092 37.2949 101.076Z" fill="white"/>
<path d="M30.582 105.178C28.5859 105.178 27.1846 104.228 27.0547 102.689H29.3721C29.4404 103.223 29.8574 103.558 30.5479 103.558C31.1973 103.558 31.5801 103.305 31.5801 102.942C31.5801 102.628 31.2793 102.437 30.7051 102.334L29.3994 102.102C27.9775 101.849 27.2188 101.117 27.2188 99.9756C27.2188 98.5469 28.4424 97.6309 30.4521 97.6309C32.4688 97.6309 33.7471 98.5879 33.7881 100.126H31.6211C31.6074 99.6201 31.1562 99.2441 30.5342 99.2441C29.9189 99.2441 29.5635 99.5107 29.5635 99.8662C29.5635 100.167 29.8438 100.365 30.3428 100.461L31.792 100.728C33.2754 101.001 33.9727 101.623 33.9727 102.696C33.9727 104.18 32.6055 105.178 30.582 105.178Z" fill="white"/>
<path d="M22.8027 105.164C20.5879 105.164 19.084 103.592 19.084 101.391C19.084 99.1895 20.6016 97.6172 22.7412 97.6172C24.9082 97.6172 26.4053 99.1484 26.4053 101.336V101.972H21.3809C21.4082 102.888 21.9551 103.469 22.8848 103.469C23.5752 103.469 24.0674 103.168 24.2383 102.689H26.3506C26.084 104.146 24.6279 105.164 22.8027 105.164ZM21.3945 100.563H24.2109C24.1084 99.8047 23.5889 99.3535 22.8027 99.3535C22.0098 99.3535 21.4971 99.8047 21.3945 100.563Z" fill="white"/>
<path d="M6.65625 105V94.8145H10.293L11.6055 98.8135C11.8037 99.4629 12.1182 100.584 12.3711 101.548C12.624 100.584 12.9316 99.4629 13.123 98.8135L14.4219 94.8145H18.0654V105H15.6523V100.591C15.6523 99.8936 15.707 98.6016 15.7344 97.3916C15.3926 98.6289 15.0439 99.9072 14.8252 100.591L13.3623 105H11.373L9.88281 100.591C9.6709 99.9346 9.3291 98.7178 8.99414 97.5283C9.02148 98.6973 9.06934 99.9209 9.06934 100.591V105H6.65625Z" fill="white"/>
<path d="M62.3203 80.4121V79.2695H69.1816V80.4121H66.4102V88H65.1035V80.4121H62.3203Z" fill="white"/>
<path d="M54.2578 88V79.2695H55.6992L59.0332 84.5488C59.1348 84.7129 59.2734 84.9453 59.4492 85.2461C59.625 85.5469 59.8008 85.8516 59.9766 86.1602C59.9648 85.8438 59.9551 85.5234 59.9473 85.1992C59.9434 84.8711 59.9414 84.627 59.9414 84.4668V79.2695H61.248V88H59.7949L56.8125 83.2832C56.6914 83.0918 56.5156 82.8066 56.2852 82.4277C56.0586 82.0449 55.8008 81.6055 55.5117 81.1094C55.5312 81.6211 55.543 82.0625 55.5469 82.4336C55.5547 82.8008 55.5586 83.082 55.5586 83.2773V88H54.2578Z" fill="white"/>
<path d="M47.1914 88V79.2695H53.0625V80.4121H48.4922V82.9844H52.7227V84.1152H48.4922V86.8574H53.0625V88H47.1914Z" fill="white"/>
<path d="M40.6758 88V79.2695H41.9766V86.8574H46.1074V88H40.6758Z" fill="white"/>
<path d="M31.8867 88L35.0566 79.2695H36.627L39.7734 88H38.3613L37.5879 85.7324H34.0664L33.2695 88H31.8867ZM34.459 84.625H37.207L36.6797 83.0781C36.5625 82.7188 36.4375 82.334 36.3047 81.9238C36.1719 81.5137 36.0195 81.0254 35.8477 80.459C35.6719 81.0254 35.5176 81.5137 35.3848 81.9238C35.252 82.334 35.125 82.7188 35.0039 83.0781L34.459 84.625Z" fill="white"/>
<path d="M28.2246 88L25.0547 79.2695H26.4551L28.1836 84.1914C28.2891 84.5078 28.4102 84.8809 28.5469 85.3105C28.6836 85.7402 28.8438 86.2422 29.0273 86.8164C29.2031 86.2422 29.3574 85.7402 29.4902 85.3105C29.627 84.8809 29.748 84.5078 29.8535 84.1914L31.5352 79.2695H32.9121L29.7891 88H28.2246Z" fill="white"/>
<path d="M20.9062 88.1406C20.1328 88.1406 19.4434 87.9512 18.8379 87.5723C18.2324 87.1934 17.7559 86.666 17.4082 85.9902C17.0645 85.3145 16.8926 84.5312 16.8926 83.6406C16.8926 82.7461 17.0645 81.9609 17.4082 81.2852C17.7559 80.6055 18.2324 80.0762 18.8379 79.6973C19.4434 79.3184 20.1328 79.1289 20.9062 79.1289C21.6836 79.1289 22.375 79.3184 22.9805 79.6973C23.5859 80.0762 24.0605 80.6055 24.4043 81.2852C24.752 81.9609 24.9258 82.7461 24.9258 83.6406C24.9258 84.5312 24.752 85.3145 24.4043 85.9902C24.0605 86.666 23.5859 87.1934 22.9805 87.5723C22.375 87.9512 21.6836 88.1406 20.9062 88.1406ZM20.9062 86.9512C21.4102 86.9512 21.8672 86.8242 22.2773 86.5703C22.6875 86.3125 23.0137 85.9375 23.2559 85.4453C23.498 84.9492 23.6191 84.3477 23.6191 83.6406C23.6191 82.9297 23.498 82.3262 23.2559 81.8301C23.0137 81.334 22.6875 80.959 22.2773 80.7051C21.8672 80.4473 21.4102 80.3184 20.9062 80.3184C20.4062 80.3184 19.9512 80.4473 19.541 80.7051C19.1309 80.959 18.8047 81.334 18.5625 81.8301C18.3203 82.3262 18.1992 82.9297 18.1992 83.6406C18.1992 84.3477 18.3203 84.9492 18.5625 85.4453C18.8047 85.9375 19.1309 86.3125 19.541 86.5703C19.9512 86.8242 20.4062 86.9512 20.9062 86.9512Z" fill="white"/>
<path d="M12.7148 88.1406C11.668 88.1406 10.8418 87.877 10.2363 87.3496C9.63477 86.8184 9.33398 86.0918 9.33398 85.1699H10.6348C10.6387 85.7441 10.8223 86.1934 11.1855 86.5176C11.5527 86.8418 12.0625 87.0039 12.7148 87.0039C13.3086 87.0039 13.7832 86.8789 14.1387 86.6289C14.498 86.375 14.6777 86.0352 14.6777 85.6094C14.6777 85.2734 14.5488 85.002 14.291 84.7949C14.0371 84.584 13.6074 84.4062 13.002 84.2617L12.0469 84.0332C11.1641 83.8223 10.5195 83.5293 10.1133 83.1543C9.71094 82.7754 9.50977 82.2832 9.50977 81.6777C9.50977 81.166 9.63867 80.7188 9.89648 80.3359C10.1543 79.9531 10.5156 79.6562 10.9805 79.4453C11.4492 79.2344 11.9961 79.1289 12.6211 79.1289C13.5625 79.1289 14.3105 79.375 14.8652 79.8672C15.4238 80.3594 15.7168 81.0312 15.7441 81.8828H14.4844C14.4531 81.3789 14.2695 80.9844 13.9336 80.6992C13.5977 80.4102 13.1543 80.2656 12.6035 80.2656C12.0762 80.2656 11.6445 80.3926 11.3086 80.6465C10.9727 80.8965 10.8047 81.2188 10.8047 81.6133C10.8047 81.9297 10.9336 82.1875 11.1914 82.3867C11.4492 82.582 11.877 82.752 12.4746 82.8965L13.418 83.1191C14.293 83.3262 14.9375 83.625 15.3516 84.0156C15.7695 84.4062 15.9785 84.9141 15.9785 85.5391C15.9785 86.0625 15.8438 86.5195 15.5742 86.9102C15.3047 87.3008 14.9258 87.6035 14.4375 87.8184C13.9492 88.0332 13.375 88.1406 12.7148 88.1406Z" fill="white"/>
<path d="M8.09766 79.2695V88H6.79688V79.2695H8.09766Z" fill="white"/>
<path d="M33.8663 54.8384C32.0621 56.1486 30.6925 58.0212 30.0168 60.1993L20.8323 53.6101C22.6367 52.2998 24.0061 50.4275 24.6817 48.2492L33.8663 54.8384Z" fill="white"/>
<path d="M55.3169 48.2492C55.9925 50.4274 57.3621 52.2998 59.1663 53.6101L49.9817 60.1993C49.306 58.0211 47.9367 56.1485 46.1323 54.8384L55.3169 48.2492Z" fill="white"/>
<path d="M43.2996 53.3812C42.2623 53.0363 41.1527 52.8495 39.9996 52.8495C38.8464 52.8495 37.7369 53.0363 36.6996 53.3812V45.7172C37.7369 46.0622 38.8463 46.2495 39.9996 46.2495C41.1528 46.2495 42.2622 46.0622 43.2996 45.7172V53.3812Z" fill="white"/>
<path d="M29.5555 36.1411C29.6306 38.4803 30.4747 40.6248 31.843 42.3313L25.1431 44.8074C25.0679 42.4681 24.224 40.3236 22.8556 38.6172L29.5555 36.1411Z" fill="white"/>
<path d="M57.143 38.6172C55.7747 40.3236 54.9307 42.4682 54.8555 44.8074L48.1556 42.3313C49.524 40.6248 50.368 38.4804 50.4431 36.1411L57.143 38.6172Z" fill="white"/>
<circle cx="39.9998" cy="63.3001" r="7.7" fill="white"/>
<path d="M56.5 5C60.7526 5 64.2 8.44741 64.2 12.7C64.2 15.1497 63.0556 17.3317 61.2728 18.742L66.3662 37.5236C70.1141 38.0428 73 41.2592 73 45.15C73 49.4026 69.5526 52.85 65.3 52.85C61.0474 52.85 57.6 49.4026 57.6 45.15C57.6 42.7003 58.7439 40.5178 60.5267 39.1075L55.4328 20.3259C55.2342 20.2984 55.0381 20.2635 54.8446 20.2211L46.5774 31.7948C47.2896 32.9617 47.7 34.3329 47.7 35.8C47.7 40.0526 44.2526 43.5 40 43.5C35.7474 43.5 32.3 40.0526 32.3 35.8C32.3 34.3331 32.7096 32.9616 33.4215 31.7948L25.1543 20.2211C24.9609 20.2635 24.7647 20.2984 24.5662 20.3259L19.4728 39.1075C21.2558 40.5178 22.4 42.7002 22.4 45.15C22.4 49.4026 18.9526 52.85 14.7 52.85C10.4474 52.85 7 49.4026 7 45.15C7 41.2594 9.88558 38.043 13.6333 37.5236L18.7267 18.742C16.944 17.3317 15.8 15.1496 15.8 12.7C15.8 8.44741 19.2474 5 23.5 5C27.7526 5 31.2 8.44741 31.2 12.7C31.2 14.1667 30.7897 15.5374 30.078 16.7042L38.3452 28.2783C38.8782 28.1616 39.4319 28.1 40 28.1C40.5679 28.1 41.1214 28.1617 41.6543 28.2783L49.9215 16.7042C49.2098 15.5375 48.8 14.1666 48.8 12.7C48.8 8.44741 52.2474 5 56.5 5Z" fill="white"/>
<path d="M46.5825 9.40039C46.2375 10.4377 46.0502 11.5472 46.0502 12.7004C46.0502 13.8536 46.2375 14.963 46.5825 16.0004H33.418C33.763 14.963 33.9502 13.8536 33.9502 12.7004C33.9502 11.5472 33.763 10.4377 33.418 9.40039H46.5825Z" fill="white"/>
</svg>
