<svg width="128" height="128" viewBox="0 0 128 128" fill="none" xmlns="http://www.w3.org/2000/svg">
<path d="M36.2511 76.689C36.2511 78.6844 35.6594 80.6349 34.5508 82.2941C33.4422 83.9532 31.8666 85.2463 30.0231 86.0099C28.1795 86.7735 26.151 86.9733 24.1939 86.584C22.2369 86.1947 20.4392 85.2338 19.0282 83.8229C17.6173 82.4119 16.6564 80.6143 16.2671 78.6572C15.8778 76.7002 16.0776 74.6716 16.8412 72.8281C17.6048 70.9846 18.898 69.409 20.5571 68.3004C22.2162 67.1918 24.1668 66.6001 26.1622 66.6001H36.2511V76.689Z" fill="#E01E5A"/>
<path d="M41.2949 76.689C41.2949 74.0132 42.3579 71.4471 44.2499 69.5551C46.1419 67.663 48.7081 66.6001 51.3839 66.6001C54.0596 66.6001 56.6258 67.663 58.5178 69.5551C60.4099 71.4471 61.4728 74.0132 61.4728 76.689V101.911C61.4728 104.587 60.4099 107.153 58.5178 109.045C56.6258 110.937 54.0596 112 51.3839 112C48.7081 112 46.1419 110.937 44.2499 109.045C42.3579 107.153 41.2949 104.587 41.2949 101.911V76.689Z" fill="#E01E5A"/>
<path d="M51.3839 36.1778C49.3885 36.1778 47.4379 35.5861 45.7788 34.4775C44.1196 33.3689 42.8265 31.7932 42.0629 29.9497C41.2993 28.1062 41.0995 26.0777 41.4888 24.1206C41.8781 22.1636 42.8389 20.3659 44.2499 18.955C45.6609 17.544 47.4585 16.5831 49.4156 16.1939C51.3727 15.8046 53.4012 16.0044 55.2447 16.768C57.0883 17.5316 58.6639 18.8247 59.7725 20.4838C60.8811 22.1429 61.4728 24.0935 61.4728 26.0889V36.1778H51.3839Z" fill="#36C5F0"/>
<path d="M51.3878 41.2942C54.0635 41.2942 56.6297 42.3571 58.5217 44.2492C60.4138 46.1412 61.4767 48.7073 61.4767 51.3831C61.4767 54.0588 60.4138 56.625 58.5217 58.517C56.6297 60.409 54.0635 61.4719 51.3878 61.4719H26.089C23.4132 61.4719 20.847 60.409 18.955 58.517C17.0629 56.625 16 54.0588 16 51.3831C16 48.7073 17.0629 46.1412 18.955 44.2492C20.847 42.3571 23.4132 41.2942 26.089 41.2942H51.3878Z" fill="#36C5F0"/>
<path d="M91.8208 51.3831C91.8208 49.3877 92.4125 47.4371 93.5211 45.778C94.6297 44.1189 96.2054 42.8258 98.0489 42.0622C99.8924 41.2986 101.921 41.0988 103.878 41.488C105.835 41.8773 107.633 42.8382 109.044 44.2492C110.455 45.6601 111.416 47.4578 111.805 49.4148C112.194 51.3719 111.994 53.4004 111.231 55.2439C110.467 57.0874 109.174 58.6631 107.515 59.7717C105.856 60.8802 103.905 61.4719 101.91 61.4719H91.8208V51.3831Z" fill="#2EB67D"/>
<path d="M86.7776 51.3875C86.7776 54.0632 85.7147 56.6294 83.8226 58.5214C81.9306 60.4134 79.3644 61.4764 76.6887 61.4764C74.0129 61.4764 71.4468 60.4134 69.5547 58.5214C67.6627 56.6294 66.5997 54.0632 66.5997 51.3875V26.0889C66.5997 23.4131 67.6627 20.847 69.5547 18.955C71.4468 17.0629 74.0129 16 76.6887 16C79.3644 16 81.9306 17.0629 83.8226 18.955C85.7147 20.847 86.7776 23.4131 86.7776 26.0889V51.3875Z" fill="#2EB67D"/>
<path d="M76.6887 91.8208C78.6841 91.8208 80.6347 92.4125 82.2938 93.5211C83.9529 94.6297 85.246 96.2053 86.0096 98.0488C86.7733 99.8923 86.973 101.921 86.5838 103.878C86.1945 105.835 85.2336 107.633 83.8226 109.044C82.4117 110.455 80.614 111.415 78.6569 111.805C76.6999 112.194 74.6713 111.994 72.8278 111.231C70.9843 110.467 69.4086 109.174 68.3 107.515C67.1914 105.856 66.5997 103.905 66.5997 101.91V91.8208H76.6887Z" fill="#ECB22E"/>
<path d="M76.6887 86.7778C74.0129 86.7778 71.4468 85.7149 69.5547 83.8229C67.6627 81.9309 66.5997 79.3647 66.5997 76.689C66.5997 74.0132 67.6627 71.4471 69.5547 69.5551C71.4468 67.663 74.0129 66.6001 76.6887 66.6001H101.987C104.663 66.6001 107.229 67.663 109.121 69.5551C111.014 71.4471 112.076 74.0132 112.076 76.689C112.076 79.3647 111.014 81.9309 109.121 83.8229C107.229 85.7149 104.663 86.7778 101.987 86.7778H76.6887Z" fill="#ECB22E"/>
</svg>
