<svg width="128" height="128" viewBox="0 0 128 128" fill="none" xmlns="http://www.w3.org/2000/svg">
<path d="M41.4586 73.1973L43.0382 69.5285C44.7453 70.8024 47.0128 71.4648 49.2548 71.4648C50.9109 71.4648 51.9555 70.8279 51.9555 69.8597C51.93 67.1591 42.0446 69.2737 41.9682 62.4966C41.9427 59.0572 45 56.4075 49.3313 56.4075C51.9045 56.4075 54.4778 57.0444 56.3122 58.4966L54.8345 62.2419C53.153 61.1718 51.0638 60.4075 49.0765 60.4075C47.7262 60.4075 46.8345 61.0444 46.8345 61.8597C46.8599 64.5094 56.8218 63.0572 56.9237 69.5285C56.9237 73.0444 53.9428 75.5158 49.6625 75.5158C46.5287 75.5158 43.6497 74.7769 41.4586 73.1973Z" fill="black"/>
<path d="M102.071 68.2037C101.575 69.0812 100.803 69.7699 99.8751 70.1622C98.9469 70.5546 97.9149 70.6285 96.9403 70.3724C95.9657 70.1163 95.1033 69.5446 94.488 68.7466C93.8726 67.9486 93.5388 66.9693 93.5388 65.9616C93.5388 64.9539 93.8726 63.9746 94.488 63.1766C95.1033 62.3787 95.9657 61.807 96.9403 61.5509C97.9149 61.2948 98.9469 61.3686 99.8751 61.761C100.803 62.1534 101.575 62.8421 102.071 63.7196L106.427 61.2992C105.396 59.4536 103.781 58.0024 101.836 57.1731C99.8905 56.3437 97.7252 56.183 95.6791 56.7162C93.6329 57.2493 91.8214 58.4462 90.5284 60.1193C89.2354 61.7924 88.5339 63.8471 88.5339 65.9616C88.5339 68.0761 89.2354 70.1309 90.5284 71.8039C91.8214 73.477 93.6329 74.6739 95.6791 75.2071C97.7252 75.7402 99.8905 75.5795 101.836 74.7502C103.781 73.9208 105.396 72.4697 106.427 70.624L102.071 68.2037Z" fill="black"/>
<path d="M64.5671 48.4841H59.1149V75.1593H64.5671V48.4841Z" fill="black"/>
<path d="M108.568 48.4841V75.1593H114.02V67.1593L120.491 75.1593H127.472L119.243 65.6561L126.861 56.7899H120.186L114.02 64.1529V48.4841H108.568Z" fill="black"/>
<path d="M80.7708 68.2546C79.981 69.554 78.3504 70.5221 76.516 70.5221C75.3065 70.5221 74.1465 70.0417 73.2912 69.1864C72.4359 68.3311 71.9555 67.1711 71.9555 65.9616C71.9555 64.7521 72.4359 63.5921 73.2912 62.7368C74.1465 61.8816 75.3065 61.4011 76.516 61.4011C77.3654 61.4007 78.2011 61.6155 78.9452 62.0253C79.6892 62.4352 80.3172 63.0268 80.7708 63.7451V68.2546ZM80.7708 56.7896V58.9552C79.8791 57.4521 77.6625 56.4075 75.344 56.4075C70.5542 56.4075 66.7834 60.6368 66.7834 65.9361C66.7834 71.2355 70.5542 75.5158 75.344 75.5158C77.6625 75.5158 79.8791 74.4712 80.7708 72.968V75.1336H86.2231V56.7896H80.7708Z" fill="black"/>
<path d="M7.75143 68.2288C7.75143 68.8939 7.55419 69.5441 7.18465 70.0972C6.81511 70.6503 6.28987 71.0813 5.67535 71.3358C5.06082 71.5904 4.38462 71.657 3.73224 71.5272C3.07987 71.3975 2.48063 71.0772 2.01029 70.6068C1.53996 70.1365 1.21966 69.5373 1.08989 68.8849C0.960126 68.2325 1.02673 67.5563 1.28127 66.9418C1.53581 66.3273 1.96687 65.802 2.51992 65.4325C3.07298 65.063 3.7232 64.8657 4.38835 64.8657H7.75143V68.2288Z" fill="#E01E5A"/>
<path d="M9.43311 68.2288C9.43311 67.3368 9.78743 66.4814 10.4181 65.8507C11.0488 65.22 11.9042 64.8657 12.7962 64.8657C13.6881 64.8657 14.5435 65.22 15.1742 65.8507C15.8049 66.4814 16.1593 67.3368 16.1593 68.2288V76.6364C16.1593 77.5284 15.8049 78.3838 15.1742 79.0145C14.5435 79.6452 13.6881 79.9995 12.7962 79.9995C11.9042 79.9995 11.0488 79.6452 10.4181 79.0145C9.78743 78.3838 9.43311 77.5284 9.43311 76.6364V68.2288Z" fill="#E01E5A"/>
<path d="M12.7962 54.7261C12.131 54.7261 11.4808 54.5289 10.9278 54.1593C10.3747 53.7898 9.94365 53.2646 9.68911 52.6501C9.43456 52.0355 9.36796 51.3593 9.49773 50.707C9.62749 50.0546 9.9478 49.4554 10.4181 48.985C10.8885 48.5147 11.4877 48.1944 12.1401 48.0646C12.7925 47.9349 13.4687 48.0015 14.0832 48.256C14.6977 48.5105 15.2229 48.9416 15.5925 49.4946C15.962 50.0477 16.1593 50.6979 16.1593 51.3631V54.7261H12.7962Z" fill="#36C5F0"/>
<path d="M12.7963 56.4331C13.6882 56.4331 14.5436 56.7874 15.1743 57.4181C15.805 58.0488 16.1593 58.9042 16.1593 59.7962C16.1593 60.6881 15.805 61.5435 15.1743 62.1742C14.5436 62.8049 13.6882 63.1592 12.7963 63.1592H4.36308C3.47114 63.1592 2.61572 62.8049 1.98502 62.1742C1.35432 61.5435 1 60.6881 1 59.7962C1 58.9042 1.35432 58.0488 1.98502 57.4181C2.61572 56.7874 3.47114 56.4331 4.36308 56.4331H12.7963Z" fill="#36C5F0"/>
<path d="M26.2738 59.7962C26.2738 59.131 26.471 58.4808 26.8406 57.9278C27.2101 57.3747 27.7354 56.9436 28.3499 56.6891C28.9644 56.4346 29.6406 56.368 30.293 56.4977C30.9454 56.6275 31.5446 56.9478 32.0149 57.4181C32.4853 57.8885 32.8056 58.4877 32.9353 59.1401C33.0651 59.7924 32.9985 60.4686 32.744 61.0832C32.4894 61.6977 32.0584 62.2229 31.5053 62.5925C30.9523 62.962 30.302 63.1592 29.6369 63.1592H26.2738V59.7962Z" fill="#2EB67D"/>
<path d="M24.5923 59.7962C24.5923 60.6881 24.2379 61.5435 23.6072 62.1742C22.9765 62.8049 22.1211 63.1593 21.2292 63.1593C20.3372 63.1593 19.4818 62.8049 18.8511 62.1742C18.2204 61.5435 17.8661 60.6881 17.8661 59.7962V51.3631C17.8661 50.4711 18.2204 49.6157 18.8511 48.985C19.4818 48.3543 20.3372 48 21.2292 48C22.1211 48 22.9765 48.3543 23.6072 48.985C24.2379 49.6157 24.5923 50.4711 24.5923 51.3631V59.7962Z" fill="#2EB67D"/>
<path d="M21.2292 73.2739C21.8943 73.2739 22.5445 73.4712 23.0976 73.8407C23.6507 74.2102 24.0817 74.7355 24.3362 75.35C24.5908 75.9645 24.6574 76.6407 24.5276 77.2931C24.3979 77.9455 24.0776 78.5447 23.6072 79.015C23.1369 79.4854 22.5376 79.8057 21.8853 79.9354C21.2329 80.0652 20.5567 79.9986 19.9422 79.744C19.3277 79.4895 18.8024 79.0585 18.4329 78.5054C18.0633 77.9523 17.8661 77.3021 17.8661 76.637V73.2739H21.2292Z" fill="#ECB22E"/>
<path d="M21.2292 71.5918C20.3372 71.5918 19.4818 71.2375 18.8511 70.6068C18.2204 69.9761 17.8661 69.1207 17.8661 68.2288C17.8661 67.3368 18.2204 66.4814 18.8511 65.8507C19.4818 65.22 20.3372 64.8657 21.2292 64.8657H29.6623C30.5543 64.8657 31.4097 65.22 32.0404 65.8507C32.6711 66.4814 33.0254 67.3368 33.0254 68.2288C33.0254 69.1207 32.6711 69.9761 32.0404 70.6068C31.4097 71.2375 30.5543 71.5918 29.6623 71.5918H21.2292Z" fill="#ECB22E"/>
</svg>
