<svg width="128" height="128" viewBox="0 0 128 128" fill="none" xmlns="http://www.w3.org/2000/svg">
<path d="M15.9641 67.8021C15.9768 68.5736 15.8034 69.3367 15.4585 70.0268C15.12 70.7094 14.6286 71.3046 14.0225 71.7662C13.371 72.2712 12.6299 72.6486 11.8382 72.8785C10.9405 73.153 10.0062 73.2894 9.06743 73.283C7.97614 73.2988 6.88971 73.1348 5.85169 72.7976C4.8166 72.4232 3.8524 71.8761 3 71.1797L4.57753 68.6313C5.20293 69.173 5.88829 69.6412 6.62023 70.0268C7.20039 70.3096 7.83559 70.4615 8.48091 70.4718C9.26968 70.4718 9.89664 70.2695 10.3618 69.865C10.5947 69.6622 10.7792 69.4098 10.9017 69.1263C11.0242 68.8428 11.0816 68.5354 11.0697 68.2269C11.0706 67.946 11.0297 67.6665 10.9483 67.3976C10.8475 67.1017 10.6817 66.8322 10.4629 66.6089C10.1787 66.2852 9.85995 65.9936 9.51237 65.7392C9.10788 65.4156 8.60226 65.0314 7.95507 64.5662C7.46967 64.2224 6.98428 63.8786 6.53933 63.5145C6.08368 63.1658 5.66366 62.7729 5.2854 62.3415C4.90438 61.9318 4.59653 61.4598 4.37528 60.946C4.1393 60.3898 4.02218 59.7905 4.03146 59.1864C4.02477 58.4721 4.184 57.7659 4.49663 57.1235C4.81168 56.5063 5.25262 55.962 5.79102 55.5258C6.37312 55.0599 7.03905 54.7098 7.75282 54.4943C8.56506 54.2447 9.41098 54.1219 10.2607 54.1303C11.1913 54.1246 12.1178 54.254 13.0113 54.5146C13.8831 54.7644 14.7141 55.1391 15.4787 55.6269L14.0427 57.9325C13.1522 57.2735 12.0763 56.9125 10.9686 56.9011C10.3864 56.8725 9.81294 57.0517 9.35057 57.4067C9.15073 57.5538 8.98811 57.7457 8.87572 57.9669C8.76334 58.1882 8.70432 58.4327 8.70338 58.6808C8.70403 58.9268 8.75455 59.1702 8.85188 59.3961C8.94922 59.6221 9.09134 59.826 9.26968 59.9954C9.88049 60.5832 10.5291 61.1304 11.2113 61.6336C12.1416 62.3213 12.9101 62.9078 13.5169 63.4336C14.0518 63.8668 14.5398 64.3549 14.9731 64.8898C15.312 65.2904 15.5604 65.7595 15.7011 66.2651C15.8946 66.7536 15.9842 67.2771 15.9641 67.8021Z" fill="black"/>
<path d="M32.1437 63.4944C32.1437 61.4921 31.7393 59.9146 30.9303 58.7618C30.5707 58.214 30.0775 57.7668 29.4971 57.4625C28.9168 57.1582 28.2685 57.0067 27.6134 57.0225C26.137 57.0225 24.9842 57.6292 24.1145 58.8629C23.2449 60.0966 22.8201 61.755 22.8201 63.8584C22.8201 65.9011 23.2449 67.5191 24.0943 68.6921C24.4799 69.2537 25.0006 69.7093 25.6086 70.0168C26.2165 70.3243 26.892 70.4738 27.573 70.4516C28.3558 70.4845 29.1265 70.2491 29.7572 69.7842C30.3486 69.3264 30.8262 68.738 31.1527 68.0651C31.519 67.3538 31.7715 66.5895 31.9011 65.8C32.0556 65.041 32.1369 64.2689 32.1437 63.4944ZM37.2606 63.3123C37.2763 64.6629 37.0503 66.0054 36.5932 67.2764C36.184 68.4346 35.5595 69.5051 34.7527 70.4314C33.9813 71.3217 33.0301 72.0386 31.9617 72.5348C30.8721 73.0393 29.6838 73.2949 28.4831 73.2831C27.9538 73.2898 27.4252 73.2424 26.9055 73.1415C26.4213 73.0408 25.9522 72.8776 25.51 72.6561C25.0439 72.4134 24.6092 72.1146 24.2156 71.7662C23.736 71.3501 23.2897 70.897 22.8808 70.4112V81.9999H18.1684V54.5551H22.8606L22.8808 57.2247C23.6259 56.2404 24.5789 55.4324 25.6718 54.8584C26.7565 54.3392 27.9483 54.0829 29.1505 54.1101C30.2777 54.0965 31.3948 54.3241 32.4269 54.7775C33.4061 55.2164 34.2815 55.8574 34.9954 56.6584C35.7417 57.4979 36.3063 58.4825 36.6539 59.5505C37.0695 60.7606 37.2747 62.033 37.2606 63.3123Z" fill="black"/>
<path d="M44.1776 46H39.3439V72.8381H44.1776V46Z" fill="black"/>
<path d="M59.953 72.8584L59.9328 70.4112C59.1369 71.3322 58.168 72.0881 57.0811 72.636C56.0029 73.1012 54.8371 73.3288 53.6631 73.3034C52.2271 73.3034 51.0137 73.0202 50.0226 72.4539C49.0308 71.8828 48.2718 70.9806 47.8788 69.9056C47.7514 69.6346 47.6563 69.3495 47.5957 69.0562C47.535 68.7528 47.4743 68.4292 47.4339 68.045C47.3836 67.6153 47.3566 67.1832 47.353 66.7506C47.3327 66.2652 47.3327 65.6585 47.3327 64.9506V54.5551H52.1665V65.0113C52.1526 65.7212 52.1931 66.4311 52.2878 67.1349C52.3627 67.5974 52.5203 68.0427 52.753 68.4495C53.3193 69.4809 54.3103 69.9865 55.726 69.9865C57.5463 69.9865 58.8002 69.2382 59.4676 67.7214C59.6459 67.308 59.7683 66.8727 59.8316 66.427C59.9174 65.7497 59.9512 65.0668 59.9328 64.3843V54.5349H64.7665V72.8584H59.953Z" fill="black"/>
<path d="M80.7641 72.8379V62.3818C80.778 61.6718 80.7375 60.9619 80.6428 60.2582C80.5679 59.7956 80.4103 59.3503 80.1776 58.9436C79.6113 57.9121 78.6203 57.4065 77.2046 57.4065C76.3921 57.3793 75.5877 57.5751 74.8787 57.9728C74.2291 58.3564 73.7189 58.9374 73.4225 59.6312C73.2443 60.0573 73.1285 60.5069 73.0787 60.966C73.0042 61.624 72.9704 62.2859 72.9776 62.9481V72.8177H68.1034V54.5346H72.9776V56.9818C73.7735 56.0608 74.7423 55.305 75.8293 54.7571C76.9059 54.2848 78.0718 54.0503 79.2473 54.0694C80.6832 54.0694 81.8967 54.3728 82.8877 54.9593C83.8667 55.5457 84.6214 56.4428 85.0316 57.5076C85.1327 57.7706 85.2136 58.0537 85.2945 58.3368C85.382 58.6548 85.4429 58.9795 85.4765 59.3076C85.517 59.6717 85.5574 60.0964 85.5776 60.602C85.5979 61.1076 85.5979 61.7144 85.5979 62.4222V72.7975H80.7641V72.8379Z" fill="black"/>
<path d="M101.05 73.2224L93.789 63.11V72.8381H88.9149V46H93.789V61.7752H94.2947L100.767 54.2719L104.427 55.8494L98.198 62.5033L105.56 71.6448L101.05 73.2224Z" fill="black"/>
<path d="M109.726 72.3527V69.137L121.072 63.5348L109.726 58.0337V54.7371L124.369 62.0786V65.0718L109.726 72.3527Z" fill="black"/>
</svg>
