<svg width="128" height="128" viewBox="0 0 128 128" fill="none" xmlns="http://www.w3.org/2000/svg">
<path d="M81.2681 89.414C91.2701 89.2603 101.29 88.9557 111.294 88.5095C115.785 79.8453 117.995 71.0654 119.053 63.4446C106.533 63.8629 93.9747 64.1365 81.4458 64.2603C81.4139 71.9919 81.3589 80.5971 81.2671 89.413L81.2681 89.414Z" fill="#E8282B"/>
<path d="M119.432 60.3186C120.312 51.8701 119.85 45.2268 119.82 42.3903C119.798 40.3356 119.757 38.0612 119.703 35.6611C106.98 35.0491 94.2155 34.6497 81.4769 34.469C81.4869 38.211 81.5039 48.2429 81.459 61.1493C94.1107 61.0235 106.791 60.7449 119.432 60.3186Z" fill="#F07525"/>
<path d="M81.2352 92.5261C81.1374 101.218 81.0016 110.036 80.8169 118.353C94.7116 111.11 103.714 101.586 109.531 91.7004C100.102 92.1038 90.6611 92.3814 81.2352 92.5261Z" fill="#6389C6"/>
<path d="M9.26377 35.7071C9.20986 38.0903 9.16992 40.3477 9.14795 42.3894C9.117 45.2229 8.65774 51.8522 9.53234 60.2847C22.1062 60.7071 34.6261 60.9886 47.0253 61.1274C46.9784 48.249 46.9943 38.238 47.0033 34.499C34.5233 34.6957 21.9205 35.1011 9.26377 35.7071Z" fill="#98CA3F"/>
<path d="M47.0379 64.2393C34.7596 64.1025 22.3614 63.826 9.9104 63.4116C10.9637 71.0244 13.1672 79.7974 17.646 88.4575C27.5571 88.9028 37.4263 89.2133 47.2186 89.382C47.1268 80.5692 47.0709 71.9679 47.0379 64.2403V64.2393Z" fill="#CBDD72"/>
<path d="M47.2534 92.4938C38.0301 92.3361 28.738 92.0525 19.408 91.6492C25.1558 101.438 34.0236 110.875 47.6677 118.098C47.486 109.847 47.3512 101.109 47.2534 92.4938Z" fill="#8162AA"/>
<path d="M119.627 32.5421C119.411 24.3402 119.058 15.1749 118.69 8.26594C88.4825 1.24519 40.5244 1.24419 10.2788 8.26594C9.9104 15.1889 9.55696 24.3751 9.34131 32.589C22.4922 31.962 35.5853 31.5507 48.5425 31.364L50.127 31.341L50.121 32.9255C50.119 33.5345 49.9513 82.2085 50.8159 119.684C54.9203 121.649 59.4231 123.424 64.3662 124.961L64.486 125L64.6058 124.961C69.3542 123.484 73.6982 121.789 77.6718 119.916C78.5415 82.3803 78.3657 33.5085 78.3627 32.8985L78.3568 31.317L79.9382 31.337C93.162 31.5057 106.418 31.9111 119.629 32.5441L119.627 32.5421Z" fill="#F8C519"/>
<path fill-rule="evenodd" clip-rule="evenodd" d="M64.5011 3.00195C84.0467 3.00196 103.59 4.7572 118.693 8.26758C119.061 15.1765 119.414 24.3421 119.63 32.5439C106.419 31.911 93.1633 31.5056 79.9395 31.3369L78.3575 31.3174L78.3634 32.8984C78.3664 33.5085 78.5425 82.3801 77.6729 119.916C73.6993 121.789 69.3549 123.484 64.6065 124.961L64.4874 124.999L64.3673 124.961C59.4242 123.423 54.9209 121.649 50.8165 119.684C49.952 82.2144 50.1201 33.5497 50.1221 32.9258L50.128 31.3408L48.544 31.3643C35.5869 31.551 22.4936 31.9619 9.34285 32.5889C9.5585 24.3751 9.91097 15.1885 10.2794 8.26562C25.4021 4.75524 44.9524 3 64.4991 3L64.5011 3.00195ZM64.4991 7.11816C45.845 7.11816 28.1512 8.70598 14.2325 11.6113C13.9879 16.6851 13.7598 22.5468 13.5831 28.2725C25.3172 27.7563 37.0359 27.4108 48.4825 27.2461L54.2598 27.1631L54.2374 32.9404C54.2364 33.4167 54.0774 80.0248 54.8741 117.021C57.9192 118.372 61.1388 119.597 64.4854 120.679C67.6592 119.653 70.7152 118.5 73.6124 117.235C74.4201 79.9081 74.2462 33.3893 74.2442 32.9131L74.2227 27.1436L79.9903 27.2178C91.6786 27.3675 103.565 27.7044 115.386 28.2246C115.209 22.5129 114.981 16.6692 114.737 11.6094C101.269 8.79583 84.2528 7.21703 66.2442 7.12109L64.4991 7.11816Z" fill="#373737"/>
<path fill-rule="evenodd" clip-rule="evenodd" d="M109.531 91.7021C103.715 101.587 94.712 111.112 80.8175 118.354C81.0022 110.038 81.1376 101.219 81.2354 92.5273C90.6613 92.3826 100.102 92.1055 109.531 91.7021ZM101.568 96.1318C96.1213 96.3225 90.6841 96.4704 85.3038 96.5742C85.2399 101.682 85.165 106.544 85.0811 111.121C91.3757 107.057 96.7486 102.225 101.147 96.6709L101.568 96.1318Z" fill="#373737"/>
<path fill-rule="evenodd" clip-rule="evenodd" d="M19.4073 91.6494C28.7371 92.0528 38.029 92.3364 47.252 92.4941C47.3499 101.109 47.4854 109.847 47.6671 118.098C34.023 110.875 25.1551 101.438 19.4073 91.6494ZM27.3634 96.084C31.7333 101.741 37.0966 106.664 43.4024 110.806C43.3206 106.31 43.2476 101.54 43.1837 96.5342C37.9651 96.4244 32.6767 96.2737 27.3634 96.084Z" fill="#373737"/>
<path fill-rule="evenodd" clip-rule="evenodd" d="M119.052 63.4453C117.994 71.0659 115.785 79.8459 111.294 88.5098C101.29 88.9561 91.2696 89.2603 81.2677 89.4141C81.3595 80.5983 81.4144 71.9932 81.4464 64.2617C93.9747 64.1379 106.532 63.8636 119.052 63.4453ZM114.158 67.7207C104.63 68.0082 95.0408 68.2142 85.545 68.333C85.516 74.1476 85.4768 79.8014 85.4268 85.2236C93.1152 85.0729 100.912 84.8304 108.686 84.502C110.976 79.66 112.73 74.4172 113.927 68.8398L114.158 67.7207Z" fill="#373737"/>
<path fill-rule="evenodd" clip-rule="evenodd" d="M9.90926 63.4131C22.3601 63.8274 34.7581 64.1035 47.0362 64.2402C47.0692 71.9678 47.125 80.569 47.2169 89.3818C37.4247 89.2131 27.5556 88.9033 17.6446 88.458C13.1661 79.7984 10.9626 71.0256 9.90926 63.4131ZM14.8018 67.6865C15.9949 73.6759 17.8208 79.2914 20.2559 84.4512C27.9137 84.7786 35.5567 85.0238 43.0587 85.1836C43.0088 79.7653 42.9685 74.1153 42.9386 68.3066C35.9725 68.2115 28.9272 68.0715 21.8663 67.8867L14.8018 67.6865Z" fill="#373737"/>
<path fill-rule="evenodd" clip-rule="evenodd" d="M81.4766 34.4668C94.2152 34.6475 106.981 35.0472 119.703 35.6592C119.757 38.0593 119.797 40.334 119.819 42.3887C119.85 45.2254 120.312 51.8685 119.433 60.3164C106.792 60.7427 94.1108 61.0217 81.4591 61.1475C81.504 48.2411 81.4866 38.2088 81.4766 34.4668ZM85.6026 38.6514C85.6086 42.9155 85.6099 49.304 85.5899 56.9834C95.5518 56.8576 105.627 56.6368 115.639 56.3223C115.967 51.2903 115.837 47.1271 115.754 44.4404C115.73 43.6651 115.709 42.9945 115.703 42.4346C115.693 41.54 115.68 40.5921 115.663 39.5947C106.897 39.2034 98.0843 38.912 89.3438 38.7256L85.6026 38.6514Z" fill="#373737"/>
<path fill-rule="evenodd" clip-rule="evenodd" d="M47.003 34.499C46.994 38.238 46.9785 48.2488 47.0255 61.127C34.6263 60.9882 22.1062 60.7075 9.5323 60.2852C8.65773 51.8529 9.11754 45.2232 9.14851 42.3896C9.17048 40.3479 9.20983 38.0902 9.26375 35.707C21.9203 35.101 34.5231 34.6957 47.003 34.499ZM42.879 38.6895C33.1337 38.8801 23.2207 39.1993 13.3048 39.6416C13.2888 40.621 13.2757 41.554 13.2657 42.4346C13.2597 42.9936 13.2389 43.6648 13.2149 44.4414C13.1321 47.1221 13.0027 51.2713 13.3282 56.2891C23.2342 56.5996 33.1463 56.8242 42.8946 56.958C42.8736 49.3183 42.874 42.9466 42.879 38.6895Z" fill="#373737"/>
</svg>
