<svg width="128" height="128" viewBox="0 0 128 128" fill="none" xmlns="http://www.w3.org/2000/svg">
<path fill-rule="evenodd" clip-rule="evenodd" d="M20.3775 46.0006C26.145 46.0006 31.9118 46.5185 36.3686 47.5544C36.477 49.5931 36.5813 52.2977 36.645 54.7179C32.7467 54.5311 28.8352 54.4115 24.9331 54.3617L24.4663 54.3559L24.468 54.8225C24.4689 55.0025 24.5209 69.4236 24.2643 80.4998C23.0917 81.0525 21.8098 81.5527 20.4086 81.9885L20.3734 81.9997L20.338 81.9885C18.8794 81.5348 17.5506 81.0113 16.3394 80.4312C16.0843 69.3747 16.1339 55.0147 16.1345 54.8306L16.1363 54.3629L15.6689 54.3698C11.8455 54.4249 7.98188 54.5461 4.10134 54.7311C4.16498 52.3074 4.26898 49.5966 4.37769 47.5538C8.84014 46.5179 14.609 46 20.3769 46L20.3775 46.0006ZM20.3769 47.2152C14.8724 47.2152 9.65133 47.6837 5.54418 48.541C5.47201 50.0382 5.4047 51.7679 5.35255 53.4574C8.81508 53.3051 12.273 53.2032 15.6507 53.1546L17.3555 53.1301L17.3489 54.8349C17.3486 54.9754 17.3017 68.7286 17.5367 79.6454C18.4353 80.0443 19.3853 80.4058 20.3729 80.7249C21.3094 80.4223 22.2111 80.082 23.0661 79.7088C23.3044 68.6942 23.2531 54.9673 23.2525 54.8268L23.2462 53.1243L24.9481 53.1462C28.397 53.1904 31.9045 53.2898 35.3926 53.4433C35.3405 51.7579 35.2732 50.0335 35.2013 48.5405C31.2271 47.7102 26.2059 47.2444 20.8919 47.2161L20.3769 47.2152Z" fill="black"/>
<path fill-rule="evenodd" clip-rule="evenodd" d="M33.6651 72.1744C31.9487 75.0913 29.2922 77.9019 25.1921 80.039C25.2466 77.5849 25.2866 74.9828 25.3155 72.4179C28.0969 72.3752 30.8828 72.2934 33.6651 72.1744ZM31.3154 73.4815C29.708 73.5378 28.1036 73.5814 26.516 73.6121C26.4971 75.1193 26.475 76.5541 26.4503 77.9046C28.3077 76.7053 29.8931 75.2794 31.1909 73.6406L31.3154 73.4815Z" fill="black"/>
<path fill-rule="evenodd" clip-rule="evenodd" d="M7.07117 72.1588C9.82422 72.2779 12.5661 72.3616 15.2876 72.4081C15.3165 74.9502 15.3565 77.5286 15.4101 79.9632C11.384 77.832 8.76724 75.0472 7.07117 72.1588ZM9.41885 73.4674C10.7083 75.1367 12.2909 76.5895 14.1517 77.8115C14.1275 76.4849 14.106 75.0774 14.0871 73.6002C12.5472 73.5678 10.9867 73.5234 9.41885 73.4674Z" fill="black"/>
<path fill-rule="evenodd" clip-rule="evenodd" d="M36.4744 63.8363C36.1624 66.085 35.5103 68.6758 34.1852 71.2324C31.2332 71.3641 28.2764 71.4539 25.325 71.4992C25.3521 68.8979 25.3683 66.3587 25.3777 64.0772C29.0746 64.0407 32.7801 63.9597 36.4744 63.8363ZM35.0304 65.0979C32.2186 65.1828 29.3892 65.2435 26.5872 65.2786C26.5786 66.9944 26.567 68.6627 26.5523 70.2627C28.821 70.2182 31.1218 70.1467 33.4155 70.0497C34.0914 68.621 34.609 67.0739 34.9621 65.4281L35.0304 65.0979Z" fill="black"/>
<path fill-rule="evenodd" clip-rule="evenodd" d="M4.26848 63.8268C7.94249 63.9491 11.6009 64.0305 15.2239 64.0709C15.2337 66.3511 15.2501 68.8892 15.2772 71.4897C12.3878 71.4399 9.47558 71.3485 6.55103 71.2171C5.2295 68.6618 4.57931 66.0731 4.26848 63.8268ZM5.71218 65.0878C6.06424 66.8552 6.60303 68.5122 7.32159 70.0348C9.58124 70.1314 11.8365 70.2038 14.0502 70.2509C14.0355 68.6521 14.0236 66.9848 14.0148 65.2708C11.9592 65.2427 9.8803 65.2014 7.79677 65.1469L5.71218 65.0878Z" fill="black"/>
<path fill-rule="evenodd" clip-rule="evenodd" d="M25.3867 55.2853C29.1456 55.3386 32.9124 55.4565 36.6666 55.6371C36.6825 56.3454 36.6944 57.0166 36.7009 57.6229C36.71 58.4599 36.8463 60.4202 36.5868 62.913C32.8567 63.0388 29.1148 63.1211 25.3815 63.1583C25.3947 59.3498 25.3896 56.3895 25.3867 55.2853ZM26.6042 56.5201C26.6059 57.7783 26.6063 59.6635 26.6004 61.9295C29.54 61.8924 32.513 61.8272 35.4672 61.7344C35.5642 60.2496 35.5257 59.0211 35.5012 58.2283C35.4942 57.9995 35.488 57.8016 35.4863 57.6364C35.4833 57.3725 35.4795 57.0927 35.4744 56.7984C32.8876 56.683 30.2873 56.597 27.7081 56.542L26.6042 56.5201Z" fill="black"/>
<path fill-rule="evenodd" clip-rule="evenodd" d="M15.2141 55.2948C15.2115 56.3981 15.2069 59.3521 15.2208 63.1522C11.562 63.1113 7.86755 63.0284 4.15724 62.9038C3.89917 60.4156 4.03486 58.4593 4.044 57.6232C4.05048 57.0207 4.06209 56.3545 4.078 55.6513C7.81272 55.4724 11.5316 55.3528 15.2141 55.2948ZM13.9972 56.5313C11.1216 56.5876 8.19644 56.6818 5.27043 56.8123C5.26571 57.1013 5.26185 57.3766 5.2589 57.6364C5.25713 57.8014 5.25098 57.9994 5.24391 58.2286C5.21946 59.0196 5.18131 60.244 5.27734 61.7246C8.20042 61.8163 11.1253 61.8826 14.0018 61.922C13.9956 59.6677 13.9957 57.7875 13.9972 56.5313Z" fill="black"/>
<path fill-rule="evenodd" clip-rule="evenodd" d="M94.9991 58.6861C95.4253 58.7064 95.8048 58.7668 96.1296 58.8751C96.5016 58.9968 96.8263 59.1528 97.0969 59.3422L97.2793 59.4704C97.4552 59.6057 97.6043 59.7348 97.7193 59.8701L97.7325 59.8834C97.7731 59.9307 97.8143 59.9782 97.8482 60.0188L97.8746 60.0122L98.1865 58.9702H99.8912V70.8173C99.8912 71.663 99.7561 72.4074 99.4855 73.0433L99.4584 73.1041C99.1675 73.7604 98.7544 74.315 98.2334 74.748C97.7124 75.1811 97.0764 75.5063 96.3456 75.716L96.2915 75.7292C95.5879 75.9322 94.8033 76.0338 93.9577 76.0338C93.2203 76.0338 92.5501 75.9663 91.9682 75.831L91.9074 75.8171C91.346 75.6954 90.8995 75.5397 90.5747 75.3639L90.4664 75.3097V73.3678L90.7439 73.4827C90.94 73.5639 91.129 73.6321 91.3049 73.6862L91.6702 73.7939C91.7852 73.8277 91.9139 73.8554 92.0356 73.8825L92.4215 73.9565C92.6042 73.9903 92.8006 74.0108 93.0036 74.0311C93.2674 74.0514 93.5717 74.0648 93.8963 74.0648C95.1277 74.0648 96.0821 73.7741 96.7249 73.2125C97.3608 72.6577 97.6856 71.778 97.6856 70.6144V69.5995C97.3541 69.8972 96.9815 70.1338 96.5756 70.3165H96.5558C96.0145 70.5397 95.3919 70.6547 94.6951 70.6548C94.3771 70.6548 94.0251 70.6208 93.6597 70.5464C93.2945 70.4788 92.9156 70.3573 92.5503 70.1883C92.1782 70.0056 91.8262 69.7752 91.4879 69.4978C91.1496 69.2069 90.845 68.8417 90.5879 68.4155C90.3647 68.0434 90.1752 67.6031 90.0263 67.1092L89.9589 66.8727C89.8101 66.3179 89.7356 65.6414 89.7356 64.8904C89.7356 63.8418 89.8776 62.9215 90.1618 62.157C90.4459 61.379 90.8247 60.7292 91.2982 60.215C91.7719 59.7008 92.32 59.315 92.929 59.0647L93.1523 58.9768C93.6868 58.7806 94.2483 58.6861 94.8167 58.6861H94.9991ZM95.0532 60.6273C94.5594 60.6274 94.1197 60.729 93.7476 60.9319H93.7344C93.3759 61.1214 93.0645 61.3853 92.8074 61.7235L92.7935 61.744C92.5432 62.1026 92.3469 62.5356 92.2048 63.043V63.0701C92.0762 63.564 92.0085 64.1256 92.0085 64.7345C92.0085 65.5667 92.1103 66.2572 92.3065 66.7782C92.5027 67.299 92.753 67.7052 93.0439 67.9893L93.1589 68.0904C93.4227 68.3136 93.7069 68.4694 94.0112 68.5642L94.2822 68.6316C95.0941 68.8142 95.8451 68.7061 96.5082 68.4016C96.9412 68.2054 97.3335 67.9279 97.6717 67.5896V61.9944H97.679C97.5843 61.8727 97.4622 61.7374 97.3202 61.5953C97.1511 61.433 96.9547 61.2774 96.7315 61.1421C96.5083 60.9932 96.2578 60.8714 95.9736 60.7767C95.6895 60.682 95.3848 60.6273 95.0532 60.6273Z" fill="black"/>
<path d="M45.3166 55.9658V58.9768H48.5985V60.9187H45.3166V67.1165C45.3167 67.3463 45.3503 67.5627 45.4111 67.7587C45.4788 67.9414 45.5738 68.1043 45.7091 68.2464C45.8444 68.3749 46.0206 68.483 46.237 68.5642C46.6159 68.6927 47.1642 68.7127 47.7528 68.6316L47.9827 68.5979V68.6045C48.1653 68.5707 48.3411 68.5301 48.5034 68.4895L48.7604 68.4155V70.3231L48.6322 70.3772C48.4631 70.4449 48.2191 70.5061 47.8876 70.5603C47.5628 70.6144 47.1704 70.648 46.724 70.6548C46.1286 70.6547 45.6006 70.5804 45.1541 70.4248L45.0867 70.3977C44.6672 70.2489 44.3085 70.0392 44.0176 69.7753C43.7199 69.4844 43.4899 69.1326 43.341 68.7267C43.1922 68.3275 43.1177 67.8805 43.1177 67.3933V60.9115H41V58.9702H43.1177V55.9658H45.3166Z" fill="black"/>
<path d="M65.3437 58.9768H68.6256V60.9187H65.3437V67.1165C65.3437 67.3463 65.378 67.5626 65.4388 67.7587C65.5065 67.9414 65.6008 68.1043 65.7362 68.2464C65.8715 68.3749 66.0476 68.483 66.2641 68.5642C66.643 68.6927 67.1912 68.7128 67.7798 68.6316L68.0098 68.5979V68.6045C68.1924 68.5706 68.3687 68.5301 68.5311 68.4895L68.7881 68.4155V70.3231L68.6593 70.3772C68.4902 70.4449 68.2467 70.5061 67.9153 70.5603C67.5905 70.6144 67.1976 70.648 66.7511 70.6548C66.1558 70.6547 65.6282 70.5804 65.1818 70.4248L65.1137 70.3977C64.6943 70.2489 64.3356 70.0391 64.0447 69.7753C63.747 69.4844 63.5169 69.1326 63.3681 68.7267C63.2192 68.3275 63.1447 67.8805 63.1447 67.3933V60.9115H61.0271V58.9702H63.1447V55.9658H65.3437V58.9768Z" fill="black"/>
<path fill-rule="evenodd" clip-rule="evenodd" d="M82.5163 58.6861C83.6461 58.6861 84.5867 58.8889 85.3106 59.288L85.3304 59.3012C86.0272 59.6868 86.5483 60.2012 86.8799 60.8236L87.0292 61.1553C87.1036 61.3582 87.1645 61.5748 87.1983 61.8048H87.205V61.8253C87.2591 62.1297 87.2862 62.4682 87.2862 62.8336V70.364H85.4051L85.2426 69.3557C85.1411 69.4572 85.0332 69.5589 84.9115 69.6603C84.6747 69.843 84.4039 70.0189 84.0995 70.1678C83.795 70.3166 83.4564 70.4313 83.0978 70.5193C82.7392 70.6072 82.3467 70.6548 81.9408 70.6548C81.3861 70.6547 80.872 70.5668 80.4053 70.3977L80.3372 70.3706C79.9043 70.2083 79.5188 69.978 79.1941 69.6736C78.8559 69.3421 78.592 68.9431 78.4026 68.4763C78.2131 68.0094 78.1184 67.4747 78.1184 66.9064C78.1185 66.3381 78.2194 65.8102 78.4224 65.3569L78.5037 65.1878C78.7134 64.8021 78.9776 64.4642 79.3091 64.1868C79.6812 63.8756 80.1343 63.6251 80.6484 63.456L80.8447 63.3952C81.3182 63.2667 81.8258 63.199 82.367 63.199L82.7932 63.2122C83.2127 63.2392 83.6124 63.2866 83.9845 63.3542C84.3836 63.4286 84.7558 63.5235 85.0873 63.6317V63.1375C85.0873 62.8467 85.0669 62.5895 85.0331 62.373C84.9993 62.1702 84.9385 61.9808 84.8573 61.8253L84.7827 61.7037C84.6068 61.4263 84.3362 61.189 83.9911 60.9927H83.9772C83.5646 60.7628 83.0032 60.6479 82.293 60.6478C81.7585 60.6478 81.2438 60.7023 80.7634 60.8038C80.2899 60.8985 79.8097 61.0407 79.3362 61.2233L79.0587 61.331V59.4096L79.1736 59.3554C79.3698 59.2607 79.5932 59.173 79.8502 59.0918C80.0397 59.0309 80.2497 58.97 80.4594 58.9226L80.6689 58.8751C80.9531 58.8142 81.2576 58.7668 81.5688 58.733C81.8868 58.6992 82.2051 58.6861 82.5163 58.6861ZM82.6174 65.1402C81.9004 65.1402 81.332 65.3028 80.9464 65.5869C80.5608 65.871 80.3782 66.3042 80.3782 66.913C80.3782 67.2242 80.4255 67.495 80.5202 67.725V67.7184C80.615 67.9417 80.7438 68.1312 80.9061 68.28L81.0409 68.3811C81.1762 68.4759 81.3321 68.5576 81.508 68.6117C81.7448 68.6861 82.0019 68.7194 82.2725 68.7194C82.6379 68.7194 82.9762 68.6723 83.2874 68.5708C83.6054 68.4625 83.8898 68.327 84.1266 68.1849L84.3155 68.0699C84.4846 67.9617 84.6404 67.8537 84.7622 67.7455C84.9244 67.6171 85.0328 67.5157 85.1005 67.4548V65.499C84.8028 65.4178 84.4644 65.3433 84.0856 65.2757C83.6459 65.1945 83.1519 65.147 82.6174 65.1402Z" fill="black"/>
<path fill-rule="evenodd" clip-rule="evenodd" d="M107.726 58.6861C108.558 58.6861 109.323 58.8347 109.993 59.1189C110.662 59.4098 111.238 59.8228 111.705 60.3505C112.165 60.8782 112.53 61.5142 112.774 62.2448C113.024 62.9755 113.146 63.8009 113.146 64.6803C113.146 65.5599 113.017 66.3719 112.767 67.1026C112.544 67.7454 112.232 68.3137 111.847 68.7941L111.677 68.997C111.211 69.5178 110.636 69.9305 109.973 70.2147C109.31 70.4989 108.558 70.6481 107.739 70.6481C107.009 70.6481 106.326 70.5397 105.724 70.3165L105.467 70.2147C104.797 69.9305 104.222 69.5179 103.748 68.997L103.734 68.9771C103.287 68.4697 102.929 67.8333 102.679 67.1026C102.429 66.3786 102.307 65.5667 102.307 64.6803C102.307 63.7941 102.435 62.9755 102.685 62.2448C102.936 61.5277 103.288 60.8986 103.741 60.3776L103.951 60.1609C104.384 59.7211 104.898 59.3692 105.48 59.1189L105.737 59.0171C106.346 58.7938 107.009 58.6861 107.726 58.6861ZM107.733 60.6207C107.28 60.6207 106.853 60.7157 106.474 60.8916C106.143 61.0405 105.845 61.2571 105.588 61.5412L105.48 61.6693C105.209 62.0076 104.986 62.4339 104.824 62.9413C104.675 63.4486 104.594 64.051 104.594 64.6869C104.594 65.3229 104.668 65.9049 104.824 66.4055V66.426C104.986 66.9267 105.209 67.353 105.494 67.6913C105.771 68.0296 106.109 68.2938 106.488 68.4697C106.867 68.6388 107.286 68.7267 107.739 68.7267C108.193 68.7267 108.613 68.6388 108.985 68.4697L109.127 68.395C109.445 68.2259 109.729 67.9889 109.965 67.6913L110.067 67.5559C110.304 67.2379 110.487 66.859 110.622 66.426L110.683 66.2298C110.805 65.7697 110.865 65.2419 110.865 64.6803H110.872C110.872 64.0308 110.791 63.4419 110.629 62.9413C110.473 62.4339 110.257 62.0076 109.973 61.6693C109.695 61.3243 109.37 61.0608 108.992 60.8916C108.606 60.709 108.186 60.6207 107.733 60.6207Z" fill="black"/>
<path fill-rule="evenodd" clip-rule="evenodd" d="M55.3711 58.6788C56.0138 58.6788 56.6162 58.7874 57.171 59.0039L57.313 59.0647C57.8204 59.2744 58.2669 59.5994 58.6457 60.0188C59.0584 60.4789 59.383 61.0744 59.6131 61.7916L59.654 61.9264V61.9198C59.8638 62.6031 59.9718 63.4218 59.9719 64.3486V64.5925C59.9719 64.6601 59.9649 64.8091 59.9514 65.0391V65.2354H52.4209C52.4412 65.8238 52.5358 66.3312 52.7116 66.7438L52.7929 66.913C52.9823 67.2918 53.226 67.6101 53.5237 67.8605C53.8687 68.1378 54.2814 68.3477 54.7414 68.4763C55.215 68.6116 55.7092 68.6791 56.2843 68.6791C56.8593 68.6791 57.3939 68.6316 57.8608 68.5437L58.2262 68.4624C58.5847 68.3745 58.9501 68.2665 59.3019 68.138L59.5728 68.0362V69.9445L59.4578 69.9986C59.0654 70.1881 58.5778 70.3436 58.0095 70.4519L57.9553 70.4651C57.3667 70.5801 56.7241 70.6415 56.0543 70.6415C55.2559 70.6415 54.4911 70.5333 53.7807 70.3303L53.7067 70.3098C53.0234 70.1069 52.4212 69.7685 51.9002 69.322C51.3657 68.8552 50.9324 68.246 50.6144 67.5017V67.4812C50.3168 66.7371 50.1678 65.8374 50.1678 64.8092C50.1678 63.7876 50.3098 62.8875 50.594 62.1365L50.7023 61.859C50.9729 61.223 51.3248 60.6682 51.7443 60.2217C52.2247 59.7142 52.7795 59.3218 53.4087 59.0647C54.0312 58.8076 54.6945 58.6788 55.3711 58.6788ZM55.2965 60.6207C54.9176 60.6208 54.5587 60.6952 54.234 60.8441L54.1805 60.8712C53.8828 61.02 53.6117 61.2163 53.3816 61.4599C53.1381 61.7237 52.9351 62.0351 52.7863 62.3869C52.6645 62.671 52.5766 62.9755 52.5293 63.2934H57.6375C57.6239 62.9553 57.5701 62.644 57.4822 62.3532C57.3807 61.9947 57.2251 61.6899 57.0289 61.4328C56.8395 61.1892 56.5954 60.9929 56.318 60.8441H56.3047C56.0138 60.6952 55.6753 60.6207 55.2965 60.6207Z" fill="black"/>
<path d="M76.8392 58.6993H76.8326C76.9205 58.7061 77.0016 58.7058 77.0692 58.7125L77.2456 58.733V60.8375H76.9073C76.5014 60.8375 76.0885 60.878 75.6962 60.9524C75.3173 61.0201 74.9515 61.1353 74.6132 61.2841L74.5861 61.2973C74.2479 61.4394 73.9365 61.6293 73.6591 61.8458L73.6254 61.8728C73.3887 62.069 73.1859 62.2989 73.0169 62.5627V70.364H70.8179V58.9768H72.5768L72.8748 60.4582C73.0033 60.2959 73.1455 60.1339 73.301 59.9851L73.5104 59.7955C73.7337 59.6128 73.9704 59.4433 74.2207 59.3012C74.4778 59.1592 74.7486 59.0378 75.0394 58.9431L75.3308 58.8552C75.7299 58.7402 76.1563 58.6861 76.5961 58.6861C76.6771 58.6861 76.7582 58.6926 76.8392 58.6993Z" fill="black"/>
<path d="M121.19 58.6861C121.704 58.6861 122.199 58.7601 122.659 58.9022C123.126 59.051 123.538 59.295 123.883 59.6197C124.228 59.9512 124.499 60.3839 124.695 60.9115L124.763 61.1077L124.769 61.1011C124.918 61.5815 125 62.1502 125 62.8065V70.364H122.801V63.0972C122.801 62.2041 122.632 61.5613 122.3 61.1824C121.975 60.8103 121.502 60.6274 120.859 60.6273C120.277 60.6273 119.709 60.7969 119.168 61.1216L119.141 61.1348C118.62 61.446 118.159 61.8793 117.773 62.4206V70.364H115.575V58.9768H117.327L117.625 60.2963C117.767 60.1339 117.916 59.985 118.071 59.8497L118.268 59.6805C118.477 59.5114 118.7 59.3622 118.93 59.2405L119.168 59.1189C119.418 58.9971 119.682 58.9026 119.959 58.8282L120.25 58.7667C120.548 58.7126 120.866 58.6861 121.19 58.6861Z" fill="black"/>
</svg>
