<svg width="128" height="128" viewBox="0 0 128 128" fill="none" xmlns="http://www.w3.org/2000/svg">
<path d="M75.7587 63.498C82.6453 63.3922 89.5443 63.1825 96.4323 62.8752C99.5243 56.9097 101.046 50.8645 101.774 45.6174C93.154 45.9055 84.5076 46.0938 75.8811 46.1791C75.8591 51.5025 75.8213 57.4274 75.7581 63.4973L75.7587 63.498Z" fill="#E8282B"/>
<path d="M102.035 43.4653C102.64 37.6484 102.323 33.0742 102.301 31.1213C102.286 29.7065 102.258 28.1406 102.221 26.488C93.4611 26.0666 84.6724 25.7917 75.9015 25.6672C75.9084 28.2437 75.9201 35.1509 75.8892 44.0373C84.6002 43.9507 93.3311 43.7589 102.035 43.4653Z" fill="#F07525"/>
<path d="M75.7353 65.6408C75.6679 71.6255 75.5744 77.6968 75.4473 83.4231C85.0141 78.4365 91.2126 71.8785 95.2176 65.0723C88.7255 65.35 82.2253 65.5411 75.7353 65.6408Z" fill="#6389C6"/>
<path d="M26.1816 26.5195C26.1445 28.1604 26.117 29.7147 26.1019 31.1205C26.0806 33.0714 25.7643 37.6359 26.3665 43.4418C35.0239 43.7326 43.6442 43.9265 52.1813 44.022C52.149 35.1549 52.16 28.2621 52.1662 25.6877C43.5734 25.8232 34.8961 26.1023 26.1816 26.5195Z" fill="#98CA3F"/>
<path d="M52.1899 46.1646C43.736 46.0704 35.1996 45.88 26.6267 45.5947C27.3519 50.8363 28.8691 56.8767 31.9529 62.8394C38.7769 63.146 45.5721 63.3598 52.3143 63.476C52.2511 57.4081 52.2126 51.486 52.1899 46.1653V46.1646Z" fill="#CBDD72"/>
<path d="M52.3385 65.6187C45.9881 65.5101 39.5902 65.3148 33.1663 65.0371C37.1238 71.7766 43.2294 78.2748 52.6238 83.2477C52.4987 77.5668 52.4059 71.5505 52.3385 65.6187Z" fill="#8162AA"/>
<path d="M102.169 24.3404C102.021 18.6933 101.778 12.3827 101.525 7.62573C80.726 2.79177 47.7056 2.79108 26.8808 7.62573C26.6272 12.3923 26.3838 18.7173 26.2354 24.3727C35.2901 23.941 44.3049 23.6578 53.2263 23.5293L54.3173 23.5135L54.3131 24.6044C54.3118 25.0237 54.1963 58.537 54.7916 84.3395C57.6176 85.693 60.7178 86.9146 64.1213 87.9732L64.2038 88L64.2863 87.9732C67.5556 86.9565 70.5466 85.7892 73.2826 84.4996C73.8813 58.6553 73.7603 25.0059 73.7583 24.5858L73.7541 23.497L74.843 23.5107C83.9479 23.6269 93.0748 23.906 102.171 24.3418L102.169 24.3404Z" fill="#F8C519"/>
<path fill-rule="evenodd" clip-rule="evenodd" d="M64.2139 4.00134C77.6715 4.00135 91.1273 5.20987 101.527 7.62686C101.78 12.3838 102.023 18.6946 102.171 24.3417C93.0755 23.9059 83.9485 23.6268 74.8436 23.5107L73.7544 23.4972L73.7584 24.5858C73.7605 25.0058 73.8818 58.6552 73.283 84.4995C70.5471 85.7892 67.5559 86.9564 64.2865 87.9731L64.2045 87.9993L64.1218 87.9731C60.7183 86.9145 57.6177 85.6931 54.7917 84.3395C54.1965 58.5411 54.3122 25.0342 54.3137 24.6046L54.3177 23.5134L53.2271 23.5295C44.3058 23.658 35.2908 23.941 26.2361 24.3727C26.3846 18.7173 26.6273 12.3921 26.881 7.62551C37.2933 5.20853 50.7542 4 64.2125 4L64.2139 4.00134ZM64.2125 6.83546C51.3687 6.83546 39.1861 7.92871 29.6028 9.92911C29.4344 13.4225 29.2773 17.4584 29.1556 21.4007C37.2349 21.0453 45.3034 20.8075 53.1847 20.694L57.1626 20.6369L57.1471 24.6147C57.1464 24.9426 57.0369 57.0335 57.5855 82.5059C59.6821 83.4367 61.8989 84.2802 64.2031 85.0247C66.3883 84.3187 68.4924 83.5248 70.4872 82.6538C71.0434 56.9531 70.9236 24.9238 70.9223 24.5959L70.9075 20.6234L74.8786 20.6745C82.9262 20.7776 91.1102 21.0096 99.2492 21.3678C99.1276 17.4351 98.9705 13.4116 98.8028 9.92777C89.5296 7.99057 77.8134 6.90353 65.4141 6.83747L64.2125 6.83546Z" fill="#373737"/>
<path fill-rule="evenodd" clip-rule="evenodd" d="M95.2183 65.0736C91.2134 71.8797 85.0148 78.4378 75.4481 83.4244C75.5753 77.6982 75.6685 71.6265 75.7359 65.6418C82.2258 65.5421 88.7263 65.3513 95.2183 65.0736ZM89.7356 68.1236C85.9851 68.2549 82.2415 68.3567 78.537 68.4282C78.4931 71.945 78.4415 75.2929 78.3837 78.444C82.7177 75.6457 86.4171 72.3185 89.4452 68.4947L89.7356 68.1236Z" fill="#373737"/>
<path fill-rule="evenodd" clip-rule="evenodd" d="M33.1658 65.0373C39.5896 65.315 45.9873 65.5103 52.3375 65.6189C52.4049 71.5506 52.4982 77.5668 52.6233 83.2476C43.229 78.2748 37.1232 71.7768 33.1658 65.0373ZM38.6437 68.0906C41.6525 71.9855 45.3452 75.3754 49.687 78.2269C49.6306 75.1314 49.5803 71.8473 49.5363 68.4006C45.9433 68.325 42.3021 68.2212 38.6437 68.0906Z" fill="#373737"/>
<path fill-rule="evenodd" clip-rule="evenodd" d="M101.773 45.6181C101.045 50.8651 99.5239 56.9103 96.4319 62.8756C89.544 63.1829 82.6447 63.3923 75.7581 63.4982C75.8213 57.4284 75.8591 51.5035 75.8811 46.1802C84.5072 46.095 93.1535 45.9061 101.773 45.6181ZM98.4041 48.5618C91.8433 48.7598 85.2412 48.9016 78.7031 48.9834C78.6832 52.9869 78.6561 56.8797 78.6218 60.613C83.9154 60.5092 89.2839 60.3423 94.636 60.1161C96.213 56.7823 97.4208 53.1725 98.2447 49.3324L98.4041 48.5618Z" fill="#373737"/>
<path fill-rule="evenodd" clip-rule="evenodd" d="M26.6261 45.5959C35.1988 45.8812 43.7351 46.0712 52.1889 46.1654C52.2116 51.486 52.2501 57.4082 52.3133 63.476C45.5711 63.3598 38.776 63.1465 31.9521 62.8399C28.8685 56.8776 27.3514 50.8373 26.6261 45.5959ZM29.9948 48.5383C30.8162 52.6621 32.0734 56.5285 33.7501 60.0811C39.0226 60.3066 44.285 60.4754 49.4503 60.5854C49.4159 56.8548 49.3882 52.9646 49.3676 48.9652C44.5713 48.8997 39.7204 48.8034 34.8588 48.6761L29.9948 48.5383Z" fill="#373737"/>
<path fill-rule="evenodd" clip-rule="evenodd" d="M75.902 25.6657C84.6728 25.7901 93.462 26.0653 102.222 26.4866C102.259 28.1392 102.287 29.7054 102.302 31.1201C102.323 33.0732 102.641 37.6471 102.036 43.4638C93.3322 43.7573 84.6009 43.9493 75.8899 44.036C75.9208 35.1496 75.9088 28.2421 75.902 25.6657ZM78.7428 28.5468C78.7469 31.4828 78.7478 35.8814 78.7341 41.1689C85.5931 41.0823 92.53 40.9302 99.4234 40.7137C99.6496 37.2491 99.5598 34.3826 99.5027 32.5328C99.4862 31.9989 99.4719 31.5372 99.4678 31.1517C99.4609 30.5358 99.4519 29.8831 99.4402 29.1964C93.4043 28.9269 87.3368 28.7263 81.3187 28.5979L78.7428 28.5468Z" fill="#373737"/>
<path fill-rule="evenodd" clip-rule="evenodd" d="M52.166 25.6879C52.1599 28.2622 52.1492 35.1549 52.1815 44.0218C43.6444 43.9263 35.024 43.733 26.3666 43.4422C25.7644 37.6364 26.081 33.0717 26.1023 31.1207C26.1175 29.715 26.1446 28.1605 26.1817 26.5196C34.896 26.1023 43.5734 25.8233 52.166 25.6879ZM49.3266 28.5731C42.6167 28.7044 35.7914 28.9241 28.964 29.2286C28.953 29.903 28.944 30.5454 28.9371 31.1517C28.933 31.5366 28.9186 31.9987 28.9021 32.5334C28.8451 34.3792 28.7561 37.236 28.9801 40.6908C35.8007 40.9046 42.6254 41.0593 49.3373 41.1514C49.3229 35.8913 49.3231 31.5042 49.3266 28.5731Z" fill="#373737"/>
<path fill-rule="evenodd" clip-rule="evenodd" d="M81.9986 101.029C82.638 101.06 83.2072 101.15 83.6944 101.313C84.2524 101.496 84.7395 101.729 85.1454 102.014L85.4189 102.206C85.6828 102.409 85.9065 102.602 86.079 102.805L86.0988 102.825C86.1597 102.896 86.2215 102.968 86.2723 103.028L86.3119 103.019L86.7797 101.456H89.3368V119.226C89.3368 120.495 89.1342 121.611 88.7282 122.565L88.6876 122.656C88.2512 123.641 87.6315 124.473 86.8501 125.122C86.0686 125.772 85.1146 126.26 84.0185 126.574L83.9372 126.594C82.8819 126.898 81.7049 127.051 80.4366 127.051C79.3304 127.051 78.3251 126.95 77.4524 126.747L77.3612 126.726C76.519 126.543 75.8492 126.31 75.3621 126.046L75.1996 125.965V123.052L75.6158 123.224C75.91 123.346 76.1936 123.448 76.4573 123.53L77.0054 123.691C77.1778 123.742 77.3708 123.783 77.5535 123.824L78.1323 123.935C78.4063 123.986 78.701 124.017 79.0054 124.047C79.4011 124.077 79.8575 124.097 80.3444 124.097C82.1915 124.097 83.6232 123.661 84.5874 122.819C85.5413 121.987 86.0284 120.667 86.0285 118.922V117.4C85.5312 117.846 84.9723 118.201 84.3634 118.475H84.3336C83.5218 118.81 82.5879 118.982 81.5427 118.982C81.0657 118.982 80.5377 118.931 79.9896 118.82C79.4417 118.718 78.8734 118.536 78.3255 118.283C77.7673 118.009 77.2393 117.663 76.7318 117.247C76.2244 116.811 75.7676 116.263 75.3819 115.623C75.047 115.065 74.7628 114.405 74.5395 113.664L74.4384 113.309C74.2151 112.477 74.1034 111.462 74.1034 110.336C74.1034 108.763 74.3165 107.382 74.7427 106.236C75.1689 105.069 75.737 104.094 76.4474 103.323C77.1578 102.552 77.98 101.973 78.8934 101.597L79.2284 101.465C80.0302 101.171 80.8725 101.029 81.725 101.029H81.9986ZM82.0799 103.941C81.3391 103.941 80.6795 104.094 80.1214 104.398H80.1016C79.5638 104.682 79.0967 105.078 78.7111 105.586L78.6903 105.616C78.3148 106.154 78.0203 106.804 77.8072 107.565V107.605C77.6144 108.346 77.5128 109.189 77.5128 110.102C77.5128 111.35 77.6655 112.386 77.9598 113.168C78.2541 113.949 78.6296 114.558 79.0659 114.984L79.2383 115.136C79.634 115.471 80.0603 115.704 80.5169 115.846L80.9232 115.948C82.1411 116.222 83.2677 116.059 84.2623 115.603C84.9118 115.308 85.5002 114.892 86.0076 114.385V105.992H86.0185C85.8765 105.809 85.6934 105.606 85.4804 105.393C85.2267 105.15 84.9321 104.916 84.5973 104.713C84.2624 104.49 83.8867 104.307 83.4605 104.165C83.0342 104.023 82.5772 103.941 82.0799 103.941Z" fill="black"/>
<path d="M7.47493 96.949V101.465H12.3978V104.378H7.47493V113.675C7.47498 114.02 7.52544 114.344 7.61666 114.638C7.71815 114.912 7.86067 115.157 8.06365 115.37C8.26661 115.563 8.53088 115.725 8.85555 115.846C9.42388 116.039 10.2463 116.069 11.1292 115.948L11.4741 115.897V115.907C11.7479 115.856 12.0116 115.795 12.2551 115.734L12.6406 115.623V118.485L12.4483 118.566C12.1946 118.668 11.8286 118.759 11.3313 118.841C10.8443 118.922 10.2557 118.972 9.586 118.982C8.6929 118.982 7.90094 118.871 7.23112 118.637L7.13002 118.597C6.50082 118.374 5.9628 118.059 5.52641 117.663C5.07992 117.227 4.73479 116.699 4.51151 116.09C4.28823 115.492 4.17651 114.821 4.17651 114.09V104.367H1V101.456H4.17651V96.949H7.47493Z" fill="black"/>
<path d="M37.5155 101.465H42.4384V104.378H37.5155V113.675C37.5156 114.02 37.567 114.344 37.6582 114.638C37.7597 114.912 37.9013 115.157 38.1042 115.37C38.3072 115.563 38.5714 115.725 38.8961 115.846C39.4645 116.039 40.2868 116.069 41.1698 115.948L41.5147 115.897V115.907C41.7887 115.856 42.0531 115.795 42.2966 115.734L42.6822 115.623V118.485L42.4889 118.566C42.2352 118.668 41.8701 118.759 41.3729 118.841C40.8858 118.922 40.2964 118.972 39.6266 118.982C38.7338 118.982 37.9424 118.871 37.2727 118.637L37.1706 118.597C36.5415 118.374 36.0033 118.059 35.567 117.663C35.1205 117.227 34.7754 116.699 34.5521 116.09C34.3288 115.492 34.2171 114.821 34.2171 114.09V104.367H31.0406V101.456H34.2171V96.949H37.5155V101.465Z" fill="black"/>
<path fill-rule="evenodd" clip-rule="evenodd" d="M63.2745 101.029C64.9692 101.029 66.3801 101.334 67.4659 101.932L67.4957 101.952C68.5408 102.531 69.3225 103.302 69.8198 104.236L70.0438 104.733C70.1554 105.038 70.2468 105.362 70.2975 105.707H70.3074V105.738C70.3886 106.195 70.4293 106.703 70.4293 107.251V118.546H67.6077L67.3638 117.034C67.2117 117.186 67.0498 117.339 66.8673 117.491C66.5121 117.765 66.1059 118.029 65.6492 118.252C65.1925 118.475 64.6846 118.647 64.1467 118.779C63.6088 118.911 63.0201 118.982 62.4113 118.982C61.5792 118.982 60.8081 118.85 60.1079 118.597L60.0058 118.556C59.3564 118.313 58.7783 117.967 58.2912 117.511C57.7838 117.013 57.388 116.415 57.1038 115.715C56.8197 115.014 56.6777 114.212 56.6777 113.36C56.6777 112.507 56.8291 111.716 57.1336 111.036L57.2555 110.782C57.5701 110.203 57.9664 109.696 58.4637 109.28C59.0217 108.814 59.7015 108.438 60.4726 108.184L60.767 108.093C61.4773 107.9 62.2387 107.799 63.0505 107.799L63.6898 107.818C64.319 107.859 64.9186 107.93 65.4768 108.032C66.0754 108.143 66.6337 108.285 67.1309 108.448V107.706C67.1309 107.27 67.1004 106.884 67.0497 106.56C66.9989 106.256 66.9077 105.971 66.786 105.738L66.674 105.556C66.4101 105.14 66.0043 104.784 65.4867 104.489H65.4659C64.8469 104.145 64.0047 103.972 62.9395 103.972C62.1377 103.972 61.3657 104.054 60.6451 104.206C59.9348 104.348 59.2145 104.561 58.5043 104.835L58.088 104.997V102.115L58.2605 102.033C58.5548 101.891 58.8898 101.76 59.2754 101.638C59.5595 101.547 59.8746 101.455 60.1892 101.384L60.5034 101.313C60.9296 101.221 61.3864 101.15 61.8533 101.1C62.3303 101.049 62.8077 101.029 63.2745 101.029ZM63.4261 110.711C62.3506 110.711 61.4981 110.954 60.9196 111.381C60.3412 111.807 60.0673 112.456 60.0673 113.37C60.0673 113.837 60.1383 114.243 60.2804 114.588V114.578C60.4224 114.913 60.6156 115.197 60.8592 115.42L61.0614 115.572C61.2643 115.714 61.4982 115.837 61.7621 115.918C62.1172 116.029 62.5029 116.079 62.9088 116.079C63.4568 116.079 63.9643 116.009 64.4311 115.856C64.9081 115.694 65.3346 115.491 65.6898 115.278L65.9733 115.105C66.2269 114.943 66.4606 114.781 66.6433 114.619C66.8866 114.426 67.0492 114.274 67.1507 114.182V111.249C66.7043 111.127 66.1966 111.015 65.6284 110.914C64.9688 110.792 64.2278 110.721 63.4261 110.711Z" fill="black"/>
<path fill-rule="evenodd" clip-rule="evenodd" d="M101.089 101.029C102.338 101.029 103.484 101.252 104.489 101.679C105.494 102.115 106.357 102.734 107.057 103.526C107.747 104.318 108.295 105.272 108.66 106.368C109.036 107.463 109.218 108.702 109.218 110.021C109.218 111.34 109.026 112.558 108.651 113.654C108.316 114.618 107.848 115.471 107.27 116.191L107.016 116.496C106.316 117.277 105.454 117.896 104.459 118.322C103.465 118.749 102.337 118.972 101.109 118.972C100.013 118.972 98.9884 118.81 98.0853 118.475L97.6998 118.322C96.695 117.896 95.8323 117.277 95.1219 116.496L95.1011 116.466C94.4313 115.705 93.8938 114.75 93.5183 113.654C93.1428 112.568 92.9603 111.35 92.9603 110.021C92.9603 108.691 93.1527 107.463 93.5282 106.368C93.9037 105.292 94.432 104.348 95.112 103.567L95.4262 103.242C96.0757 102.582 96.8469 102.054 97.7196 101.679L98.1051 101.526C99.0185 101.191 100.014 101.029 101.089 101.029ZM101.099 103.931C100.419 103.931 99.7795 104.074 99.2112 104.338C98.7141 104.561 98.2677 104.886 97.8821 105.312L97.7196 105.504C97.3137 106.012 96.979 106.651 96.7354 107.412C96.5122 108.173 96.3905 109.077 96.3905 110.031C96.3905 110.985 96.5021 111.858 96.7354 112.609V112.639C96.979 113.39 97.3142 114.03 97.7404 114.537C98.1565 115.045 98.6638 115.441 99.232 115.705C99.8002 115.958 100.429 116.09 101.109 116.09C101.789 116.09 102.419 115.958 102.977 115.705L103.191 115.593C103.667 115.339 104.093 114.984 104.448 114.537L104.601 114.334C104.956 113.857 105.23 113.289 105.433 112.639L105.525 112.345C105.707 111.655 105.798 110.863 105.798 110.021H105.808C105.808 109.046 105.687 108.163 105.443 107.412C105.21 106.651 104.885 106.012 104.459 105.504C104.043 104.987 103.556 104.591 102.987 104.338C102.409 104.064 101.779 103.931 101.099 103.931Z" fill="black"/>
<path fill-rule="evenodd" clip-rule="evenodd" d="M22.5567 101.018C23.5208 101.018 24.4243 101.181 25.2565 101.506L25.4696 101.597C26.2306 101.912 26.9004 102.399 27.4686 103.028C28.0877 103.719 28.5746 104.612 28.9196 105.688L28.9811 105.89V105.88C29.2957 106.905 29.4578 108.133 29.4578 109.523V109.889C29.4578 109.99 29.4474 110.214 29.4271 110.559V110.853H18.1314C18.1618 111.736 18.3037 112.497 18.5675 113.116L18.6894 113.37C18.9735 113.938 19.339 114.415 19.7855 114.791C20.303 115.207 20.9222 115.522 21.6121 115.715C22.3225 115.918 23.0638 116.019 23.9264 116.019C24.789 116.019 25.5909 115.948 26.2912 115.816L26.8393 115.694C27.3771 115.562 27.9251 115.4 28.4528 115.207L28.8592 115.055V117.917L28.6867 117.998C28.0981 118.282 27.3667 118.516 26.5142 118.678L26.4329 118.698C25.5501 118.87 24.5861 118.963 23.5815 118.963C22.3839 118.963 21.2367 118.8 20.1711 118.496L20.0601 118.465C19.0351 118.161 18.1318 117.653 17.3504 116.983C16.5486 116.283 15.8987 115.369 15.4217 114.253V114.222C14.9753 113.106 14.7517 111.756 14.7517 110.214C14.7517 108.682 14.9647 107.331 15.3909 106.205L15.5535 105.789C15.9594 104.835 16.4873 104.003 17.1165 103.333C17.837 102.572 18.6693 101.983 19.6131 101.597C20.5468 101.212 21.5418 101.018 22.5567 101.018ZM22.4447 103.931C21.8764 103.931 21.3381 104.043 20.851 104.266L20.7707 104.307C20.3241 104.53 19.9175 104.825 19.5724 105.19C19.2071 105.586 18.9027 106.053 18.6794 106.581C18.4968 107.007 18.3649 107.463 18.2939 107.94H25.9562C25.9359 107.433 25.8551 106.966 25.7233 106.53C25.5711 105.992 25.3376 105.535 25.0434 105.149C24.7592 104.784 24.393 104.49 23.9769 104.266H23.9571C23.5207 104.043 23.013 103.931 22.4447 103.931Z" fill="black"/>
<path d="M54.7589 101.049H54.749C54.8807 101.059 55.0024 101.059 55.1038 101.069L55.3684 101.1V104.256H54.861C54.2521 104.256 53.6328 104.317 53.0443 104.429C52.4759 104.53 51.9273 104.703 51.4198 104.926L51.3792 104.946C50.8718 105.159 50.4047 105.444 49.9887 105.769L49.9381 105.81C49.5831 106.104 49.2789 106.449 49.0253 106.844V118.546H45.7269V101.465H48.3652L48.8122 103.688C49.0049 103.444 49.2182 103.201 49.4515 102.978L49.7657 102.693C50.1005 102.419 50.4556 102.165 50.8311 101.952C51.2166 101.739 51.6229 101.557 52.0591 101.415L52.4962 101.283C53.0949 101.111 53.7345 101.029 54.3941 101.029C54.5157 101.029 54.6373 101.039 54.7589 101.049Z" fill="black"/>
<path d="M121.285 101.029C122.057 101.029 122.798 101.14 123.488 101.353C124.189 101.577 124.808 101.943 125.325 102.43C125.842 102.927 126.249 103.576 126.543 104.367L126.644 104.662L126.654 104.652C126.877 105.372 127 106.226 127 107.21V118.546H123.702V107.646C123.702 106.306 123.448 105.342 122.95 104.774C122.463 104.216 121.753 103.941 120.789 103.941C119.916 103.941 119.063 104.196 118.251 104.683L118.211 104.702C117.429 105.169 116.739 105.819 116.16 106.631V118.546H112.862V101.465H115.49L115.937 103.445C116.15 103.201 116.374 102.978 116.607 102.775L116.902 102.521C117.216 102.267 117.551 102.044 117.896 101.861L118.251 101.679C118.627 101.496 119.023 101.354 119.439 101.242L119.875 101.15C120.321 101.069 120.798 101.029 121.285 101.029Z" fill="black"/>
</svg>
