<svg width="128" height="128" viewBox="0 0 128 128" fill="none" xmlns="http://www.w3.org/2000/svg">
<path fill-rule="evenodd" clip-rule="evenodd" d="M81.9986 59.0666C82.638 59.0969 83.2072 59.1872 83.6944 59.3491C84.2524 59.5311 84.7395 59.7643 85.1454 60.0474L85.4189 60.239C85.6828 60.4413 85.9065 60.6343 86.079 60.8366L86.0988 60.8564C86.1597 60.9272 86.2215 60.9982 86.2723 61.0589L86.3119 61.049L86.7797 59.4913H89.3368V77.2017C89.3368 78.4659 89.1342 79.5787 88.7282 80.5294L88.6876 80.6203C88.2512 81.6014 87.6315 82.4305 86.8501 83.0778C86.0686 83.7252 85.1146 84.2113 84.0185 84.5249L83.9372 84.5446C82.8819 84.848 81.7049 85 80.4366 85C79.3304 85 78.3251 84.899 77.4524 84.6968L77.3612 84.676C76.519 84.494 75.8492 84.2613 75.3621 83.9984L75.1996 83.9174V81.0144L75.6158 81.1863C75.91 81.3076 76.1936 81.4096 76.4573 81.4905L77.0054 81.6515C77.1778 81.7021 77.3708 81.7434 77.5535 81.7839L78.1323 81.8945C78.4063 81.9451 78.701 81.9758 79.0054 82.0061C79.4011 82.0364 79.8575 82.0565 80.3444 82.0565C82.1915 82.0565 83.6232 81.6218 84.5874 80.7823C85.5413 79.953 86.0284 78.6379 86.0285 76.8985V75.3813C85.5312 75.8263 84.9723 76.1799 84.3634 76.453H84.3336C83.5218 76.7867 82.5879 76.9587 81.5427 76.9587C81.0657 76.9587 80.5377 76.908 79.9896 76.7967C79.4417 76.6956 78.8734 76.5141 78.3255 76.2614C77.7673 75.9883 77.2393 75.6438 76.7318 75.2292C76.2244 74.7943 75.7676 74.2483 75.3819 73.6112C75.047 73.0549 74.7628 72.3968 74.5395 71.6584L74.4384 71.3048C74.2151 70.4755 74.1034 69.4641 74.1034 68.3416C74.1034 66.7739 74.3165 65.3981 74.7427 64.2552C75.1689 63.0922 75.737 62.1209 76.4474 61.3522C77.1578 60.5835 77.98 60.0068 78.8934 59.6326L79.2284 59.5012C80.0302 59.2079 80.8725 59.0666 81.725 59.0666H81.9986ZM82.0799 61.9686C81.3391 61.9686 80.6795 62.1206 80.1214 62.4239H80.1016C79.5638 62.7071 79.0967 63.1017 78.7111 63.6073L78.6903 63.6379C78.3148 64.1739 78.0203 64.8213 77.8072 65.5798V65.6203C77.6144 66.3586 77.5128 67.1982 77.5128 68.1085C77.5128 69.3525 77.6655 70.3847 77.9598 71.1636C78.2541 71.9422 78.6296 72.5494 79.0659 72.9741L79.2383 73.1252C79.634 73.4589 80.0603 73.6919 80.5169 73.8335L80.9232 73.9342C82.1411 74.2073 83.2677 74.0456 84.2623 73.5905C84.9118 73.2972 85.5002 72.8822 86.0076 72.3765V64.0122H86.0185C85.8765 63.8303 85.6934 63.628 85.4804 63.4156C85.2267 63.173 84.9321 62.9403 84.5973 62.738C84.2624 62.5155 83.8867 62.3334 83.4605 62.1918C83.0342 62.0502 82.5772 61.9686 82.0799 61.9686Z" fill="white"/>
<path d="M7.47493 55V59.5012H12.3978V62.4042H7.47493V71.6693C7.47498 72.0129 7.52544 72.3363 7.61666 72.6294C7.71815 72.9025 7.86067 73.146 8.06365 73.3584C8.26661 73.5505 8.53088 73.7121 8.85555 73.8335C9.42388 74.0256 10.2463 74.0556 11.1292 73.9342L11.4741 73.8838V73.8937C11.7479 73.8432 12.0116 73.7825 12.2551 73.7218L12.6406 73.6112V76.4629L12.4483 76.5439C12.1946 76.645 11.8286 76.7365 11.3313 76.8175C10.8443 76.8983 10.2557 76.9486 9.586 76.9587C8.6929 76.9587 7.90094 76.8476 7.23112 76.615L7.13002 76.5745C6.50082 76.352 5.9628 76.0385 5.52641 75.644C5.07992 75.2092 4.73479 74.6832 4.51151 74.0765C4.28823 73.4797 4.17651 72.8114 4.17651 72.0832V62.3933H1V59.4913H4.17651V55H7.47493Z" fill="white"/>
<path d="M37.5155 59.5012H42.4384V62.4042H37.5155V71.6693C37.5156 72.0129 37.567 72.3363 37.6582 72.6294C37.7597 72.9025 37.9013 73.146 38.1042 73.3584C38.3072 73.5505 38.5714 73.7121 38.8961 73.8335C39.4645 74.0256 40.2868 74.0556 41.1698 73.9342L41.5147 73.8838V73.8937C41.7887 73.8431 42.0531 73.7825 42.2966 73.7218L42.6822 73.6112V76.4629L42.4889 76.5439C42.2352 76.645 41.8701 76.7366 41.3729 76.8175C40.8858 76.8984 40.2964 76.9486 39.6266 76.9587C38.7338 76.9587 37.9424 76.8475 37.2727 76.615L37.1706 76.5745C36.5415 76.352 36.0033 76.0384 35.567 75.644C35.1205 75.2092 34.7754 74.6832 34.5521 74.0765C34.3288 73.4797 34.2171 72.8114 34.2171 72.0832V62.3933H31.0406V59.4913H34.2171V55H37.5155V59.5012Z" fill="white"/>
<path fill-rule="evenodd" clip-rule="evenodd" d="M63.2745 59.0666C64.9692 59.0666 66.3801 59.3697 67.4659 59.9664L67.4957 59.9862C68.5408 60.5626 69.3225 61.3316 69.8198 62.262L70.0438 62.7578C70.1554 63.0612 70.2468 63.3849 70.2975 63.7288H70.3074V63.7594C70.3886 64.2145 70.4293 64.7206 70.4293 65.2667V76.5241H67.6077L67.3638 75.0168C67.2117 75.1684 67.0498 75.3205 66.8673 75.4721C66.5121 75.7452 66.1059 76.0082 65.6492 76.2307C65.1925 76.4533 64.6846 76.6247 64.1467 76.7562C63.6088 76.8877 63.0201 76.9587 62.4113 76.9587C61.5792 76.9587 60.8081 76.8273 60.1079 76.5745L60.0058 76.534C59.3564 76.2912 58.7783 75.947 58.2912 75.4919C57.7838 74.9964 57.388 74.3999 57.1038 73.7021C56.8197 73.0042 56.6777 72.2048 56.6777 71.3552C56.6777 70.5056 56.8291 69.7166 57.1336 69.0389L57.2555 68.7861C57.5701 68.2096 57.9664 67.7043 58.4637 67.2896C59.0217 66.8244 59.7015 66.45 60.4726 66.1972L60.767 66.1063C61.4773 65.9141 62.2387 65.8129 63.0505 65.8129L63.6898 65.8327C64.319 65.8731 64.9186 65.9439 65.4768 66.045C66.0754 66.1563 66.6337 66.2981 67.1309 66.4599V65.7211C67.1309 65.2863 67.1004 64.9018 67.0497 64.5782C66.9989 64.275 66.9077 63.9919 66.786 63.7594L66.674 63.5776C66.4101 63.1629 66.0043 62.8081 65.4867 62.5148H65.4659C64.8469 62.1711 64.0047 61.9992 62.9395 61.9992C62.1377 61.9992 61.3657 62.0806 60.6451 62.2323C59.9348 62.3739 59.2145 62.5865 58.5043 62.8595L58.088 63.0205V60.1482L58.2605 60.0672C58.5548 59.9256 58.8898 59.7944 59.2754 59.6731C59.5595 59.582 59.8746 59.491 60.1892 59.4202L60.5034 59.3491C60.9296 59.258 61.3864 59.1873 61.8533 59.1367C62.3303 59.0861 62.8077 59.0666 63.2745 59.0666ZM63.4261 68.7149C62.3506 68.715 61.4981 68.958 60.9196 69.3827C60.3412 69.8074 60.0673 70.4549 60.0673 71.3651C60.0673 71.8303 60.1383 72.2351 60.2804 72.579V72.5691C60.4224 72.9029 60.6156 73.1862 60.8592 73.4087L61.0614 73.5599C61.2643 73.7015 61.4982 73.8237 61.7621 73.9046C62.1172 74.0158 62.5029 74.0656 62.9088 74.0656C63.4568 74.0656 63.9643 73.9951 64.4311 73.8433C64.9081 73.6815 65.3346 73.4789 65.6898 73.2665L65.9733 73.0946C66.2269 72.9329 66.4606 72.7714 66.6433 72.6096C66.8866 72.4177 67.0492 72.2661 67.1507 72.175V69.2513C66.7043 69.1299 66.1966 69.0185 65.6284 68.9174C64.9688 68.7961 64.2278 68.725 63.4261 68.7149Z" fill="white"/>
<path fill-rule="evenodd" clip-rule="evenodd" d="M101.089 59.0666C102.338 59.0666 103.484 59.2888 104.489 59.7136C105.494 60.1485 106.357 60.7658 107.057 61.5547C107.747 62.3436 108.295 63.2944 108.66 64.3866C109.036 65.4789 109.218 66.7127 109.218 68.0275C109.218 69.3423 109.026 70.5562 108.651 71.6486C108.316 72.6094 107.848 73.4591 107.27 74.1772L107.016 74.4804C106.316 75.2591 105.454 75.8761 104.459 76.3009C103.465 76.7257 102.337 76.9488 101.109 76.9488C100.013 76.9488 98.9884 76.7867 98.0853 76.453L97.6998 76.3009C96.695 75.8761 95.8323 75.2593 95.1219 74.4804L95.1011 74.4508C94.4313 73.6922 93.8938 72.7409 93.5183 71.6486C93.1428 70.5663 92.9603 69.3525 92.9603 68.0275C92.9603 66.7026 93.1527 65.4789 93.5282 64.3866C93.9037 63.3145 94.432 62.374 95.112 61.5952L95.4262 61.2712C96.0757 60.6138 96.8469 60.0878 97.7196 59.7136L98.1051 59.5614C99.0185 59.2277 100.014 59.0666 101.089 59.0666ZM101.099 61.9587C100.419 61.9587 99.7795 62.1007 99.2112 62.3637C98.7141 62.5862 98.2677 62.91 97.8821 63.3347L97.7196 63.5263C97.3137 64.0319 96.979 64.6693 96.7354 65.4277C96.5122 66.1862 96.3905 67.0867 96.3905 68.0373C96.3905 68.988 96.5021 69.8581 96.7354 70.6065V70.6371C96.979 71.3856 97.3142 72.0229 97.7404 72.5286C98.1565 73.0343 98.6638 73.4293 99.232 73.6922C99.8002 73.945 100.429 74.0764 101.109 74.0765C101.789 74.0765 102.419 73.9451 102.977 73.6922L103.191 73.5806C103.667 73.3278 104.093 72.9735 104.448 72.5286L104.601 72.3262C104.956 71.8508 105.23 71.2844 105.433 70.6371L105.525 70.3437C105.707 69.656 105.798 68.8669 105.798 68.0275H105.808C105.808 67.0565 105.687 66.1761 105.443 65.4277C105.21 64.6693 104.885 64.0319 104.459 63.5263C104.043 63.0105 103.556 62.6166 102.987 62.3637C102.409 62.0906 101.779 61.9587 101.099 61.9587Z" fill="white"/>
<path fill-rule="evenodd" clip-rule="evenodd" d="M22.5567 59.0557C23.5208 59.0557 24.4243 59.218 25.2565 59.5417L25.4696 59.6326C26.2306 59.9461 26.9004 60.4318 27.4686 61.0589C28.0877 61.7466 28.5746 62.6369 28.9196 63.709L28.9811 63.9105V63.9006C29.2957 64.9221 29.4578 66.1461 29.4578 67.5316V67.8961C29.4578 67.9972 29.4474 68.2199 29.4271 68.5638V68.8572H18.1314C18.1618 69.7368 18.3037 70.4953 18.5675 71.1122L18.6894 71.3651C18.9735 71.9314 19.339 72.4073 19.7855 72.7815C20.303 73.1961 20.9222 73.5099 21.6121 73.7021C22.3225 73.9044 23.0638 74.0053 23.9264 74.0053C24.789 74.0053 25.5909 73.9343 26.2912 73.8028L26.8393 73.6814C27.3771 73.5499 27.9251 73.3885 28.4528 73.1964L28.8592 73.0443V75.8969L28.6867 75.9779C28.0981 76.2611 27.3667 76.4936 26.5142 76.6555L26.4329 76.6752C25.5501 76.8471 24.5861 76.939 23.5815 76.939C22.3839 76.939 21.2367 76.7772 20.1711 76.4737L20.0601 76.4431C19.0351 76.1397 18.1318 75.6339 17.3504 74.9664C16.5486 74.2685 15.8987 73.3578 15.4217 72.2452V72.2145C14.9753 71.1021 14.7517 69.7572 14.7517 68.2201C14.7517 66.6929 14.9647 65.3473 15.3909 64.2246L15.5535 63.8098C15.9594 62.859 16.4873 62.0297 17.1165 61.3621C17.837 60.6036 18.6693 60.0169 19.6131 59.6326C20.5468 59.2482 21.5418 59.0557 22.5567 59.0557ZM22.4447 61.9587C21.8764 61.9587 21.3381 62.0701 20.851 62.2926L20.7707 62.3331C20.3241 62.5556 19.9175 62.849 19.5724 63.2132C19.2071 63.6076 18.9027 64.0731 18.6794 64.599C18.4968 65.0237 18.3649 65.4789 18.2939 65.9542H25.9562C25.9359 65.4486 25.8551 64.9834 25.7233 64.5486C25.5711 64.0126 25.3376 63.557 25.0434 63.1727C24.7592 62.8085 24.393 62.5151 23.9769 62.2926H23.9571C23.5207 62.0701 23.013 61.9587 22.4447 61.9587Z" fill="white"/>
<path d="M54.7589 59.0863H54.749C54.8807 59.0964 55.0024 59.096 55.1038 59.1061L55.3684 59.1367V62.2827H54.861C54.2521 62.2827 53.6328 62.3433 53.0443 62.4546C52.4759 62.5557 51.9273 62.7279 51.4198 62.9504L51.3792 62.9702C50.8718 63.1826 50.4047 63.4664 49.9887 63.79L49.9381 63.8305C49.5831 64.1237 49.2789 64.4675 49.0253 64.8617V76.5241H45.7269V59.5012H48.3652L48.8122 61.7157C49.0049 61.4731 49.2182 61.2309 49.4515 61.0085L49.7657 60.725C50.1005 60.4519 50.4556 60.1986 50.8311 59.9862C51.2166 59.7738 51.6229 59.5924 52.0591 59.4508L52.4962 59.3194C53.0949 59.1475 53.7345 59.0666 54.3941 59.0666C54.5157 59.0666 54.6373 59.0762 54.7589 59.0863Z" fill="white"/>
<path d="M121.285 59.0666C122.057 59.0666 122.798 59.1772 123.488 59.3896C124.189 59.6121 124.808 59.9769 125.325 60.4623C125.842 60.9578 126.249 61.6046 126.543 62.3933L126.644 62.6867L126.654 62.6768C126.877 63.3949 127 64.2451 127 65.2262V76.5241H123.702V65.6608C123.702 64.3257 123.448 63.3647 122.95 62.7983C122.463 62.2421 121.753 61.9686 120.789 61.9686C119.916 61.9686 119.063 62.222 118.251 62.7074L118.211 62.7272C117.429 63.1925 116.739 63.8402 116.16 64.6493V76.5241H112.862V59.5012H115.49L115.937 61.4737C116.15 61.231 116.374 61.0083 116.607 60.806L116.902 60.5531C117.216 60.3003 117.551 60.0773 117.896 59.8953L118.251 59.7136C118.627 59.5315 119.023 59.3902 119.439 59.2789L119.875 59.1871C120.321 59.1062 120.798 59.0666 121.285 59.0666Z" fill="white"/>
</svg>
