<svg width="128" height="128" viewBox="0 0 128 128" fill="none" xmlns="http://www.w3.org/2000/svg">
<path d="M108.258 9H19.7422C13.8094 9 9 13.8094 9 19.7422V108.258C9 114.191 13.8094 119 19.7422 119H108.258C114.191 119 119 114.191 119 108.258V19.7422C119 13.8094 114.191 9 108.258 9Z" fill="#3178C6"/>
<path d="M108.258 9H19.7422C13.8094 9 9 13.8094 9 19.7422V108.258C9 114.191 13.8094 119 19.7422 119H108.258C114.191 119 119 114.191 119 108.258V19.7422C119 13.8094 114.191 9 108.258 9Z" fill="#3178C6"/>
<path fill-rule="evenodd" clip-rule="evenodd" d="M77.0924 96.5325V107.288C78.8408 108.184 80.9086 108.856 83.296 109.304C85.6833 109.752 88.1994 109.977 90.8445 109.977C93.4224 109.977 95.8712 109.73 98.1913 109.237C100.511 108.744 102.546 107.932 104.294 106.8C106.043 105.669 107.427 104.19 108.447 102.364C109.467 100.538 109.977 98.2803 109.977 95.5915C109.977 93.642 109.685 91.9336 109.102 90.466C108.519 88.9984 107.679 87.6932 106.581 86.5504C105.482 85.4077 104.165 84.3824 102.63 83.4749C101.094 82.5674 99.3626 81.7104 97.4348 80.9039C96.0227 80.3212 94.7562 79.7556 93.6353 79.2066C92.5145 78.6575 91.5619 78.0974 90.7773 77.5261C89.9927 76.9547 89.3874 76.3497 88.9616 75.7111C88.5358 75.0724 88.3227 74.3499 88.3227 73.5431C88.3227 72.8039 88.5132 72.1372 88.8944 71.5434C89.2755 70.9495 89.8135 70.4399 90.5083 70.0141C91.2033 69.5885 92.0549 69.2579 93.0636 69.0226C94.0725 68.7874 95.1932 68.6698 96.4261 68.6698C97.3227 68.6698 98.2697 68.7371 99.2673 68.8714C100.265 69.0059 101.268 69.2132 102.277 69.4931C103.285 69.7733 104.266 70.1263 105.219 70.5519C106.171 70.9777 107.051 71.4705 107.858 72.0309V61.9813C106.222 61.354 104.434 60.8891 102.495 60.5866C100.556 60.2841 98.3314 60.1328 95.8209 60.1328C93.2654 60.1328 90.8445 60.4074 88.5581 60.9563C86.2718 61.5052 84.26 62.3622 82.5225 63.5273C80.7853 64.6927 79.4125 66.177 78.4038 67.9808C77.3951 69.7845 76.8906 71.9411 76.8906 74.4506C76.8906 77.6548 77.8153 80.3885 79.6647 82.6517C81.5138 84.9146 84.3214 86.8304 88.0874 88.3989C89.5668 89.0039 90.9455 89.5976 92.2232 90.1802C93.5008 90.7629 94.6049 91.3679 95.535 91.9952C96.4653 92.6226 97.1994 93.306 97.7376 94.0455C98.2755 94.7847 98.5445 95.625 98.5445 96.5662C98.5445 97.2608 98.3763 97.9049 98.0401 98.4987C97.7038 99.0926 97.1938 99.6078 96.5102 100.045C95.8265 100.482 94.9747 100.823 93.9548 101.07C92.9347 101.316 91.7413 101.44 90.3738 101.44C88.0425 101.44 85.7338 101.031 83.4472 100.213C81.1609 99.3951 79.0425 98.1683 77.0924 96.5325ZM59.0113 70.0332H72.8086V61.207H34.3516V70.0332H48.0814V109.332H59.0113V70.0332Z" fill="white"/>
</svg>
