<svg width="128" height="128" viewBox="0 0 128 128" fill="none" xmlns="http://www.w3.org/2000/svg">
<path d="M36 63.4986C36.0003 66.9602 34.974 70.344 33.0509 73.2222C31.1279 76.1004 28.3944 78.3436 25.1964 79.6681C21.9983 80.9927 18.4792 81.339 15.0843 80.6634C11.6893 79.9878 8.57099 78.3205 6.12371 75.8724C3.67642 73.4244 2.01011 70.3055 1.33553 66.9104C0.660952 63.5152 1.00841 59.9963 2.33395 56.7986C3.6595 53.6009 5.90359 50.8682 8.78238 48.946C11.6612 47.0239 15.0454 45.9986 18.5069 46C23.1467 46.0018 27.596 47.8462 30.8763 51.1276C34.1567 54.409 35.9997 58.8588 36 63.4986Z" fill="#DD4814"/>
<path d="M6.60199 61.1594C6.14178 61.1608 5.69227 61.2984 5.31018 61.5549C4.92808 61.8115 4.63052 62.1754 4.45503 62.6008C4.27954 63.0263 4.23398 63.4942 4.3241 63.9455C4.41421 64.3968 4.63597 64.8113 4.96139 65.1367C5.28682 65.4622 5.70133 65.6839 6.15264 65.774C6.60395 65.8641 7.07184 65.8186 7.49728 65.6431C7.92273 65.4676 8.28667 65.17 8.5432 64.788C8.79973 64.4059 8.93735 63.9564 8.93871 63.4961C8.93961 63.189 8.87979 62.8848 8.76268 62.6008C8.64557 62.3169 8.47348 62.059 8.25632 61.8418C8.03915 61.6247 7.7812 61.4526 7.49728 61.3355C7.21337 61.2183 6.90911 61.1585 6.60199 61.1594ZM23.2838 71.7781C22.8857 72.0092 22.565 72.3531 22.3622 72.7663C22.1593 73.1795 22.0834 73.6435 22.144 74.0998C22.2047 74.5561 22.3991 74.9842 22.7028 75.3301C23.0065 75.676 23.4058 75.9242 23.8504 76.0434C24.295 76.1626 24.765 76.1474 25.201 75.9997C25.6369 75.8521 26.0194 75.5786 26.3001 75.2138C26.5808 74.849 26.7472 74.4092 26.7782 73.9499C26.8092 73.4907 26.7035 73.0325 26.4743 72.6333C26.3216 72.3671 26.1177 72.1337 25.8744 71.9465C25.6312 71.7593 25.3533 71.622 25.0568 71.5426C24.7603 71.4631 24.4511 71.443 24.1468 71.4834C23.8425 71.5238 23.5493 71.624 23.2838 71.7781ZM11.677 63.4961C11.6762 62.4008 11.9395 61.3214 12.4446 60.3495C12.9497 59.3775 13.6816 58.5417 14.5783 57.9127L12.8707 55.0511C10.7971 56.435 9.30382 58.5321 8.6742 60.9443C9.05187 61.2521 9.35628 61.6401 9.56534 62.0802C9.7744 62.5203 9.88287 63.0014 9.88287 63.4886C9.88287 63.9758 9.7744 64.4569 9.56534 64.897C9.35628 65.3371 9.05187 65.7251 8.6742 66.0329C9.30082 68.4487 10.7946 70.5493 12.8707 71.9343L14.5783 69.0727C13.6816 68.4438 12.9497 67.6079 12.4446 66.6359C11.9395 65.664 11.6762 64.5846 11.677 63.4893V63.4961ZM18.5076 56.671C20.2128 56.6711 21.8562 57.3095 23.1142 58.4606C24.3723 59.6116 25.154 61.1919 25.3053 62.8904L28.6343 62.841C28.4738 60.3517 27.4001 58.0092 25.6192 56.2626C25.1643 56.4352 24.6766 56.5043 24.1917 56.4651C23.7067 56.4258 23.2366 56.2791 22.8154 56.0355C22.3942 55.792 22.0325 55.4578 21.7565 55.0571C21.4805 54.6564 21.2972 54.1993 21.2198 53.7189C18.8139 53.0533 16.2471 53.2973 14.0096 54.4042L15.6295 57.3056C16.531 56.8864 17.5134 56.6698 18.5076 56.671ZM18.5076 70.3199C17.5134 70.3211 16.531 70.1045 15.6295 69.6853L14.0068 72.5936C16.2433 73.7024 18.8104 73.9465 21.2157 73.2788C21.2936 72.7987 21.4772 72.3419 21.7533 71.9415C22.0294 71.5411 22.391 71.2071 22.8121 70.9636C23.2332 70.7202 23.7031 70.5734 24.1879 70.5339C24.6726 70.4943 25.1601 70.5631 25.615 70.7351C27.397 68.9892 28.4708 66.6463 28.6302 64.1567L25.2998 64.1074C25.1476 65.8039 24.3662 67.3821 23.1093 68.5317C21.8524 69.6813 20.2109 70.3192 18.5076 70.3199ZM23.2893 55.2128C23.6885 55.4421 24.1467 55.5479 24.6061 55.517C25.0654 55.4861 25.5053 55.3198 25.8702 55.039C26.2351 54.7583 26.5087 54.3758 26.6563 53.9397C26.804 53.5037 26.8192 53.0336 26.6999 52.589C26.5807 52.1443 26.3324 51.7449 25.9864 51.4412C25.6403 51.1376 25.2121 50.9432 24.7557 50.8827C24.2993 50.8223 23.8352 50.8983 23.422 51.1014C23.0088 51.3045 22.665 51.6254 22.4341 52.0236C22.2802 52.289 22.1802 52.5822 22.1399 52.8863C22.0996 53.1904 22.1198 53.4995 22.1992 53.7959C22.2787 54.0922 22.4159 54.3699 22.6029 54.613C22.79 54.8562 23.0233 55.06 23.2893 55.2128Z" fill="white"/>
<path d="M54.0227 70.6924C53.416 70.8487 52.6261 71.0095 51.653 71.1749C50.5941 71.3461 49.5228 71.4286 48.4502 71.4215C47.3538 71.4215 46.4378 71.2653 45.7023 70.9528C45.0117 70.6751 44.4026 70.2272 43.9316 69.6508C43.4744 69.0638 43.1503 68.3843 42.9818 67.6595C42.7836 66.8278 42.6874 65.975 42.6954 65.12V57.4849H45.8476V64.6197C45.8476 66.0816 46.06 67.1232 46.4849 67.7445C46.9097 68.3658 47.6521 68.6782 48.7119 68.6819C49.0943 68.6819 49.4972 68.6655 49.9221 68.6298C50.242 68.6105 50.5599 68.567 50.8732 68.4996V57.4849H54.0254L54.0227 70.6924Z" fill="black"/>
<path d="M70.2976 64.3066C70.3128 65.3137 70.1494 66.3155 69.8152 67.2656C69.5173 68.1042 69.0472 68.8712 68.4351 69.5173C67.8255 70.1497 67.0831 70.6388 66.2615 70.9495C65.3369 71.2918 64.3569 71.4595 63.3711 71.4442C62.3723 71.4476 61.3749 71.3692 60.3889 71.2099C59.5931 71.0886 58.8062 70.9156 58.033 70.6918V51.417L61.1851 50.8962V57.953C61.6142 57.7369 62.0631 57.5625 62.5255 57.4322C63.9571 57.0436 65.477 57.14 66.8481 57.7063C67.5842 58.0295 68.2319 58.5249 68.7366 59.1508C69.2632 59.8208 69.6564 60.5857 69.8947 61.4039C70.1733 62.3459 70.3092 63.3244 70.2976 64.3066ZM67.0687 64.2505C67.0687 62.9147 66.8038 61.8557 66.2738 61.0736C65.7439 60.2915 64.9065 59.9023 63.7617 59.9059C62.8482 59.9084 61.9542 60.1703 61.1838 60.6611V68.499C61.4717 68.5599 61.7627 68.6056 62.0554 68.6361C62.4836 68.6838 62.9142 68.7058 63.345 68.7019C64.5072 68.7019 65.4209 68.3072 66.0861 67.5177C66.7512 66.7283 67.0788 65.6392 67.0687 64.2505Z" fill="black"/>
<path d="M84.7233 70.6924C84.1148 70.8487 83.3249 71.0095 82.3536 71.1749C81.2947 71.3461 80.2234 71.4286 79.1508 71.4215C78.0544 71.4215 77.1407 71.2653 76.4098 70.9528C75.719 70.6754 75.1098 70.2275 74.6391 69.6508C74.1813 69.0641 73.8572 68.3845 73.6893 67.6595C73.4911 66.8278 73.3949 65.975 73.4029 65.12V57.4849H76.555V64.6197C76.555 66.0816 76.7675 67.1232 77.1923 67.7445C77.6172 68.3658 78.3595 68.6782 79.4194 68.6819C79.8004 68.6819 80.2047 68.6655 80.6296 68.6298C80.9494 68.6104 81.2674 68.5669 81.5807 68.4996V57.4849H84.7328L84.7233 70.6924Z" fill="black"/>
<path d="M88.7315 57.9313C89.5113 57.7214 90.3025 57.5562 91.1011 57.4365C92.1695 57.2731 93.2492 57.1947 94.33 57.2021C95.4401 57.2021 96.3684 57.3543 97.1149 57.6585C97.8079 57.9243 98.4212 58.3631 98.8966 58.9331C99.355 59.5137 99.6755 60.1909 99.834 60.9135C100.023 61.7461 100.115 62.5978 100.108 63.4517V71.1073H96.9559V63.9464C96.9638 63.323 96.9157 62.7001 96.812 62.0853C96.7449 61.6394 96.5877 61.2118 96.3502 60.8285C96.1347 60.5087 95.8254 60.2636 95.4648 60.1268C95.0259 59.9675 94.561 59.8922 94.0943 59.9048C93.6769 59.9059 93.26 59.932 92.8458 59.9829C92.4118 60.035 92.092 60.0784 91.8864 60.1131V71.1073H88.7343L88.7315 57.9313Z" fill="black"/>
<path d="M103.808 53.8958L106.961 53.375V57.4865H111.804V60.1165H106.959V65.663C106.959 66.7594 107.133 67.5406 107.48 68.0065C107.827 68.4725 108.417 68.7069 109.251 68.7096C109.765 68.7171 110.277 68.6558 110.775 68.5273C111.132 68.4339 111.484 68.3209 111.829 68.1888L112.349 70.6886C111.883 70.8795 111.404 71.0406 110.917 71.171C110.237 71.3466 109.536 71.4296 108.834 71.4177C107.862 71.4177 107.051 71.2875 106.4 71.0271C105.79 70.7978 105.254 70.4075 104.849 69.8978C104.45 69.3658 104.175 68.7522 104.041 68.1011C103.876 67.3088 103.798 66.501 103.807 65.6917L103.808 53.8958Z" fill="black"/>
<path d="M126.022 70.6924C125.414 70.8487 124.624 71.0095 123.652 71.1748C122.593 71.3462 121.522 71.4287 120.449 71.4215C119.353 71.4215 118.439 71.2653 117.708 70.9528C117.017 70.6758 116.408 70.2278 115.937 69.6508C115.48 69.0639 115.155 68.3844 114.986 67.6595C114.789 66.8276 114.693 65.9749 114.7 65.12V57.4849H117.852V64.6197C117.852 66.0816 118.065 67.1232 118.491 67.7445C118.917 68.3658 119.658 68.6782 120.716 68.6819C121.099 68.6819 121.502 68.6655 121.928 68.6298C122.247 68.6104 122.565 68.5669 122.878 68.4996V57.4849H126.03L126.022 70.6924Z" fill="black"/>
</svg>
