<svg width="128" height="128" viewBox="0 0 128 128" fill="none" xmlns="http://www.w3.org/2000/svg">
<path d="M115 63.996C115.001 74.0839 112.01 83.9454 106.406 92.3332C100.801 100.721 92.8353 107.259 83.5152 111.119C74.195 114.979 63.9394 115.988 54.0456 114.019C44.1517 112.05 35.064 107.191 27.932 100.057C20.7999 92.9225 15.9438 83.8333 13.9778 73.9388C12.0119 64.0444 13.0245 53.7891 16.8875 44.4702C20.7505 35.1513 27.2905 27.1873 35.6801 21.5856C44.0697 15.9839 53.9322 12.9961 64.0201 13C77.542 13.0053 90.5083 18.3803 100.068 27.9432C109.628 37.5061 114.999 50.4741 115 63.996Z" fill="#DD4814"/>
<path d="M29.3249 57.1789C27.9837 57.1829 26.6737 57.584 25.5602 58.3316C24.4466 59.0792 23.5795 60.1398 23.068 61.3797C22.5566 62.6195 22.4238 63.9831 22.6864 65.2983C22.9491 66.6136 23.5953 67.8216 24.5437 68.77C25.4921 69.7183 26.7001 70.3646 28.0153 70.6272C29.3306 70.8898 30.6941 70.7571 31.934 70.2456C33.1739 69.7342 34.2345 68.867 34.9821 67.7535C35.7297 66.64 36.1308 65.33 36.1347 63.9888C36.1374 63.0938 35.963 62.2071 35.6217 61.3797C35.2805 60.5523 34.7789 59.8005 34.1461 59.1676C33.5132 58.5347 32.7614 58.0332 31.934 57.6919C31.1066 57.3506 30.2199 57.1763 29.3249 57.1789ZM77.9405 88.1248C76.7804 88.7984 75.8458 89.8004 75.2546 91.0046C74.6635 92.2088 74.4422 93.5611 74.6189 94.8909C74.7955 96.2207 75.3621 97.4683 76.2472 98.4764C77.1322 99.4845 78.296 100.208 79.5917 100.555C80.8875 100.902 82.257 100.858 83.5276 100.428C84.7982 99.9976 85.9128 99.2006 86.7309 98.1374C87.5489 97.0742 88.0337 95.7926 88.1241 94.4542C88.2145 93.1158 87.9064 91.7806 87.2386 90.6171C86.7934 89.8413 86.1992 89.1611 85.4903 88.6156C84.7813 88.0701 83.9716 87.67 83.1076 87.4384C82.2435 87.2068 81.3423 87.1482 80.4555 87.266C79.5688 87.3838 78.7141 87.6757 77.9405 88.1248ZM44.1149 63.9888C44.1127 60.7967 44.88 57.651 46.3519 54.8185C47.8238 51.986 49.9569 49.55 52.5703 47.717L47.5937 39.3775C41.5507 43.4107 37.1988 49.5221 35.3639 56.5519C36.4645 57.4489 37.3517 58.5797 37.9609 59.8623C38.5702 61.1448 38.8863 62.5469 38.8863 63.9668C38.8863 65.3867 38.5702 66.7888 37.9609 68.0714C37.3517 69.3539 36.4645 70.4847 35.3639 71.3818C37.1901 78.4219 41.5433 84.5438 47.5937 88.5801L52.5703 80.2406C49.9569 78.4076 47.8238 75.9716 46.3519 73.1391C44.88 70.3066 44.1127 67.1609 44.1149 63.9688V63.9888ZM64.0212 44.0984C68.9906 44.0988 73.7799 45.9593 77.4463 49.3138C81.1127 52.6682 83.3907 57.2736 83.8317 62.2234L93.5333 62.0796C93.0655 54.825 89.9366 47.9983 84.7463 42.9082C83.4206 43.4111 81.9996 43.6127 80.5863 43.4982C79.173 43.3838 77.803 42.9562 76.5755 42.2464C75.348 41.5367 74.2939 40.5626 73.4896 39.3949C72.6853 38.2272 72.151 36.8951 71.9254 35.4953C64.9138 33.5554 57.4334 34.2663 50.9127 37.4923L55.6337 45.9477C58.2609 44.7261 61.1239 44.0948 64.0212 44.0984ZM64.0212 83.8751C61.1239 83.8787 58.2609 83.2475 55.6337 82.0259L50.9047 90.5013C57.4224 93.7328 64.9037 94.444 71.9135 92.4983C72.1403 91.0991 72.6755 89.7679 73.4801 88.601C74.2847 87.4341 75.3387 86.4606 76.5658 85.7511C77.7929 85.0416 79.1624 84.6139 80.5751 84.4987C81.9879 84.3836 83.4086 84.5839 84.7344 85.0853C89.9274 79.9972 93.0569 73.1694 93.5213 65.9139L83.8157 65.7701C83.372 70.7143 81.0948 75.3136 77.4319 78.6639C73.7689 82.0142 68.9852 83.8731 64.0212 83.8751ZM77.9565 39.8488C79.1199 40.5169 80.4553 40.8254 81.794 40.7353C83.1326 40.6452 84.4146 40.1605 85.478 39.3424C86.5414 38.5243 87.3387 37.4095 87.769 36.1387C88.1994 34.8679 88.2436 33.4981 87.8961 32.2022C87.5486 30.9063 86.8249 29.7423 85.8165 28.8574C84.808 27.9724 83.56 27.406 82.2299 27.2298C80.8999 27.0535 79.5474 27.2752 78.3432 27.867C77.1391 28.4587 76.1372 29.394 75.4642 30.5546C75.0157 31.328 74.7243 32.1824 74.6069 33.0688C74.4894 33.9551 74.5481 34.8559 74.7797 35.7194C75.0113 36.583 75.4111 37.3923 75.9563 38.1009C76.5014 38.8095 77.1812 39.4035 77.9565 39.8488Z" fill="white"/>
</svg>
