<svg width="128" height="128" viewBox="0 0 128 128" fill="none" xmlns="http://www.w3.org/2000/svg">
<path d="M86.5591 6H67.8503L65.0776 8.75777H86.5591C91.5425 8.76893 95.5805 12.7883 95.5842 17.7456V63.2581C95.5805 68.2042 91.5388 72.2199 86.5591 72.2199H68.4271L65.6508 75H86.5629C93.0721 74.9888 98.3606 69.7301 98.3643 63.2581V17.7419C98.3606 11.2625 93.0721 6.00372 86.5629 6" fill="#79BE43"/>
<path d="M62.2867 72.2199H40.8052C35.8218 72.2199 31.7875 68.2042 31.7801 63.2469V17.7494C31.7913 12.7809 35.8256 8.76149 40.8052 8.75777H58.9446L61.721 6H40.8052C34.2885 6.00372 29.0149 11.2587 29 17.7494V63.2469C29.0149 69.7413 34.2885 74.9888 40.8052 74.9888H59.5103L62.2867 72.2199Z" fill="#1CBFD3"/>
<path d="M84.6207 66.8194H54.5868C51.5796 66.8082 49.1419 64.4003 49.1419 61.4118V30.7823C49.1419 27.7864 51.5796 25.3635 54.5868 25.3598H84.6207C87.6352 25.3635 90.0729 27.7901 90.0804 30.7823V61.4118C90.0767 64.404 87.6352 66.8119 84.6207 66.8194ZM54.5868 28.1139C53.113 28.1139 51.9183 29.3085 51.9183 30.7749V61.4081C51.9183 62.8632 53.1167 64.0691 54.5868 64.0691H84.6207C86.1019 64.0691 87.2966 62.8632 87.304 61.4081V30.7786C87.304 29.3123 86.1056 28.1101 84.6207 28.1101H54.5868V28.1139ZM46.4512 52.7812H42.5806C41.1031 52.77 39.901 51.5977 39.901 50.1202V19.4982C39.901 18.0244 41.1031 16.8372 42.5806 16.8372H72.6146C74.0883 16.8372 75.2904 18.0244 75.2942 19.4982V22.6095H78.0705V19.4982C78.0668 16.5097 75.6217 14.0831 72.6183 14.0757H42.5806C39.5698 14.0794 37.1321 16.5059 37.1284 19.4982V50.1239C37.1321 53.1161 39.5735 55.5427 42.5806 55.5427H46.4512V52.7812Z" fill="#238FCF"/>
<path d="M21 109.387H22.9001L26.7898 119.035L30.6069 109.385H32.507L27.6055 121.012H25.9741L21 109.387ZM33.6882 118.812L34.7968 117.442C35.4673 118.115 36.2491 118.669 37.1059 119.081C37.9773 119.48 38.9261 119.681 39.8871 119.669C40.56 119.681 41.2377 119.558 41.8501 119.296C42.3463 119.088 42.7747 118.744 43.0845 118.304C43.3581 117.912 43.5081 117.445 43.5081 116.965C43.5275 116.234 43.1499 115.552 42.523 115.177C41.5209 114.635 40.4389 114.252 39.3183 114.044C38.3646 113.829 37.4303 113.528 36.5323 113.144C35.857 112.86 35.2688 112.398 34.8355 111.805C34.4168 111.176 34.2013 110.43 34.2352 109.677C34.228 108.888 34.47 108.109 34.913 107.453C35.3801 106.766 36.0264 106.216 36.7792 105.868C37.6094 105.475 38.5171 105.279 39.4344 105.294C40.4535 105.279 41.4652 105.473 42.4044 105.868C43.3169 106.267 44.1568 106.819 44.8854 107.499L43.7962 108.869C43.1765 108.266 42.4601 107.772 41.6758 107.407C40.9448 107.066 40.1509 106.889 39.3449 106.889C38.7591 106.882 38.1806 107.005 37.6481 107.252C37.1664 107.463 36.7501 107.799 36.4476 108.228C36.1668 108.61 36.0167 109.07 36.0167 109.542C35.9973 110.239 36.3749 110.888 36.9898 111.219C38.0088 111.732 39.0859 112.11 40.2017 112.333C41.5596 112.592 42.8498 113.134 43.9874 113.918C44.8757 114.618 45.3574 115.687 45.292 116.806C45.3041 117.609 45.0887 118.398 44.6724 119.083C44.2198 119.788 43.5711 120.344 42.8062 120.683C41.8646 121.095 40.8432 121.291 39.8169 121.264C37.5271 121.315 35.3148 120.432 33.6882 118.817M58.704 112.049C58.2707 111.166 57.5978 110.418 56.7652 109.893C55.9446 109.375 54.9934 109.104 54.0227 109.113C53.1489 109.104 52.2921 109.326 51.549 109.76C50.8059 110.198 50.1911 110.817 49.7748 111.57V109.387H48.078V124.89H49.7748V118.834C50.1935 119.587 50.8083 120.211 51.549 120.649C52.2994 121.083 53.1562 121.303 54.0227 121.288C54.9934 121.301 55.9446 121.029 56.7652 120.511C57.5978 119.981 58.2707 119.231 58.704 118.345C59.6383 116.351 59.6359 114.046 58.704 112.052V112.049ZM57.1185 117.561C56.8184 118.227 56.3367 118.793 55.7292 119.2C55.1265 119.587 54.4221 119.788 53.7057 119.78C52.9843 119.788 52.2776 119.584 51.67 119.2C51.0576 118.798 50.5735 118.229 50.2734 117.561C49.9273 116.823 49.7578 116.007 49.7699 115.191C49.7554 114.376 49.9273 113.57 50.2734 112.831C50.5735 112.168 51.0625 111.607 51.67 111.21C52.2776 110.82 52.9843 110.617 53.7057 110.626C54.4221 110.617 55.1265 110.82 55.7292 111.21C56.3343 111.609 56.816 112.17 57.1185 112.831C57.4574 113.572 57.6268 114.378 57.6147 115.191C57.6293 116.007 57.4598 116.818 57.1185 117.561ZM69.8068 109.677C70.4651 110.048 71.0025 110.6 71.3534 111.268C71.731 111.991 71.9271 112.802 71.9077 113.618V121.02H70.211V113.843C70.2521 112.989 69.9592 112.154 69.3953 111.512C68.8603 110.922 68.0906 110.597 67.2943 110.624C66.6674 110.619 66.0501 110.757 65.4862 111.028C64.9585 111.272 64.501 111.648 64.1622 112.122C63.8499 112.558 63.6805 113.081 63.6805 113.618V121.02H61.9837V105.292H63.6805V111.231C64.0387 110.585 64.5809 110.057 65.2393 109.702C66.6553 108.932 68.3787 108.925 69.8092 109.68L69.8068 109.677ZM82.2384 119.374C81.5655 119.635 80.8611 119.778 80.1447 119.785C79.0869 119.812 78.063 119.413 77.3127 118.677C76.5381 117.926 76.0661 116.919 75.9887 115.845H85.5569C85.5569 113.79 85.0679 112.156 84.0949 110.941C83.1025 109.719 81.5873 109.041 80.0164 109.116C78.9998 109.109 78.0025 109.38 77.1312 109.905C76.2477 110.43 75.5191 111.183 75.0229 112.086C74.5001 113.03 74.2338 114.092 74.2459 115.172C74.2338 116.271 74.5194 117.355 75.0737 118.304C75.5893 119.219 76.3469 119.969 77.2546 120.497C78.1381 121.02 79.145 121.293 80.1713 121.286C81.0644 121.279 81.9479 121.112 82.7806 120.79C83.5721 120.528 84.2861 120.081 84.8695 119.485L83.8311 118.381C83.3784 118.824 82.8362 119.163 82.2384 119.374ZM77.3635 111.645C78.1042 110.97 79.0748 110.602 80.0793 110.624C81.0669 110.573 82.0302 110.943 82.7297 111.645C83.4026 112.388 83.8069 113.337 83.8771 114.337H76.0056C76.117 113.303 76.5986 112.347 77.3635 111.645ZM91.3757 109.801C92.2326 109.331 93.1984 109.094 94.1762 109.113V110.624C93.3702 110.607 92.5714 110.776 91.8405 111.12C91.1845 111.42 90.6278 111.899 90.2357 112.505C89.8508 113.105 89.6475 113.804 89.6548 114.518V121.02H87.958V109.387H89.6548V111.662C90.013 110.871 90.6181 110.22 91.3782 109.803M102.856 119.374C102.188 119.638 101.479 119.776 100.76 119.785C99.7046 119.812 98.6832 119.413 97.928 118.677C97.1534 117.926 96.6814 116.919 96.604 115.845H106.172C106.172 113.79 105.683 112.156 104.717 110.941C103.725 109.716 102.207 109.038 100.632 109.116C99.6175 109.109 98.6202 109.38 97.7537 109.905C96.8702 110.43 96.1417 111.183 95.6455 112.086C95.1226 113.03 94.8564 114.092 94.8685 115.172C94.8491 116.276 95.1348 117.353 95.6915 118.304C96.2119 119.214 96.9646 119.972 97.8723 120.497C98.7558 121.02 99.7627 121.291 100.789 121.286C101.682 121.279 102.566 121.112 103.398 120.79C104.192 120.528 104.911 120.081 105.494 119.485L104.451 118.381C104.001 118.827 103.456 119.166 102.859 119.374H102.856ZM97.9812 111.645C98.7243 110.97 99.6974 110.604 100.702 110.624C101.687 110.573 102.648 110.946 103.345 111.645C104.018 112.388 104.422 113.337 104.495 114.337H96.6306C96.7371 113.303 97.2164 112.347 97.9812 111.645Z" fill="#727175"/>
<path d="M29.9212 97.3223L24.1556 84H22.2822L29.0014 99.4959H30.8846L37.6038 84H35.7231L29.9212 97.3223ZM47.2882 94.8171L41.6533 84H39.9445V99.4959H41.6533V87.7929L47.2882 98.6027L52.928 87.7929V99.4959H54.6392V84H52.928L47.2882 94.8171ZM69.213 97.2376L66.0809 87.834H64.6576L61.5304 97.2376L58.6839 87.834H56.9339L60.7703 99.4959H62.363L65.4491 90.177L68.4965 99.4959H70.0819L73.9257 87.834H72.1708L69.2081 97.2376H69.213ZM83.0267 88.899C82.2764 88.0059 81.1097 87.5775 79.609 87.5775C78.3552 87.5775 76.9779 87.9623 75.4772 88.7272L76.1428 90.0923C76.7697 89.7535 77.3507 89.4993 77.8929 89.3299C78.4423 89.1532 78.9821 89.0273 79.4855 89.0273C80.6159 89.0273 81.405 89.3734 81.8625 90.01C82.3248 90.6466 82.5717 91.4599 82.5717 92.3966V92.8202C81.2356 92.3966 80.0277 92.1812 78.8538 92.1812C78.0647 92.1812 77.3144 92.3506 76.6027 92.6483C75.9371 92.992 75.3489 93.4132 74.9713 94.0135C74.5598 94.6065 74.3517 95.2867 74.3517 96.0104C74.3517 97.1601 74.7244 98.0533 75.5208 98.731C76.3171 99.416 77.3168 99.7548 78.5294 99.7548C79.3185 99.7548 80.1149 99.5854 80.8192 99.2078C81.5768 98.823 82.1578 98.3074 82.5329 97.6732V99.5007H84.2031V92.3942C84.2031 90.9443 83.8255 89.7535 83.0291 88.9015L83.0267 88.899ZM82.5717 95.8337C82.3635 96.6034 81.9084 97.1988 81.1581 97.6224C80.4465 98.046 79.6501 98.2614 78.8151 98.2614C77.98 98.2614 77.3144 98.046 76.7722 97.6224C76.23 97.1988 75.9758 96.6445 75.9758 95.9644C75.9758 95.2842 76.2687 94.6864 76.8956 94.2604C77.5225 93.7908 78.2341 93.5754 79.1079 93.5754C80.277 93.5754 81.4437 93.7448 82.5717 94.045V95.8337ZM88.9981 90.1311V87.834H87.3279V99.4959H88.9981V92.9848C88.9981 92.2175 89.2135 91.5809 89.5862 90.9855C89.9638 90.3876 90.506 89.9205 91.1716 89.5792C91.8373 89.2403 92.5876 89.0709 93.4687 89.0709V87.5411C92.4255 87.5411 91.5057 87.7493 90.7142 88.2213C89.8719 88.7296 89.3297 89.3299 88.9981 90.1359M101.902 97.8766C101.236 98.1307 100.524 98.3001 99.8588 98.3001C98.7308 98.3001 97.8086 97.9153 97.0583 97.1964C96.3079 96.4727 95.8892 95.4924 95.7657 94.3451H105.118C105.157 92.2611 104.7 90.6006 103.741 89.4073C102.78 88.1729 101.444 87.5775 99.7281 87.5775C98.7308 87.5775 97.7699 87.834 96.8961 88.3859C96.015 88.899 95.3494 89.6615 94.8459 90.5571C94.3425 91.4938 94.0956 92.5176 94.0956 93.6674C94.0956 94.8171 94.3449 95.8797 94.8847 96.814C95.4317 97.7483 96.1385 98.472 97.0196 99.0263C97.8933 99.5806 98.8543 99.8347 99.8588 99.8347C100.694 99.8347 101.529 99.6653 102.405 99.3264C103.286 98.9876 103.952 98.5567 104.455 98.0073L103.451 96.8987C103.112 97.2835 102.57 97.6224 101.904 97.8766H101.902ZM97.1454 90.1311C97.8958 89.4509 98.772 89.1096 99.8225 89.1096C100.873 89.1096 101.781 89.4533 102.408 90.1311C103.034 90.8136 103.405 91.7068 103.535 92.8129H95.8069C95.9763 91.7068 96.3951 90.8136 97.1454 90.1311Z" fill="#727175"/>
</svg>
