<svg width="128" height="128" viewBox="0 0 128 128" fill="none" xmlns="http://www.w3.org/2000/svg">
<path d="M55.3681 72.5425L49.919 57.3901C49.8473 57.175 49.7517 56.9121 49.7517 56.6492C49.7517 56.0039 50.3014 55.3586 51.114 55.3586C51.8071 55.3586 52.2611 55.8127 52.4762 56.458L56.9932 69.5311L61.5341 56.4341C61.7492 55.8127 62.1555 55.3586 62.8486 55.3586H62.992C63.7328 55.3586 64.163 55.8127 64.3781 56.4341L68.8951 69.5311L73.4838 56.4102C73.6511 55.8605 74.0335 55.3586 74.7744 55.3586C75.5391 55.3586 76.0888 55.9561 76.0888 56.6014C76.0888 56.8404 75.9932 57.1272 75.9215 57.3423L70.4486 72.5425C70.1618 73.3312 69.6121 73.7614 68.9907 73.7614H68.8951C68.202 73.7614 67.6762 73.3551 67.4373 72.5425L62.9681 59.6606L58.4511 72.5425C58.2121 73.3312 57.6863 73.7614 56.9932 73.7614H56.9215C56.2045 73.7375 55.631 73.3312 55.3681 72.5425Z" fill="#6A6667"/>
<path d="M95.041 56.697C95.041 55.9561 95.6385 55.3347 96.3555 55.3347C97.1203 55.3347 97.7178 55.9322 97.7178 56.697V59.7801C99.0322 56.7926 101.972 55.3825 103.908 55.3825C104.72 55.3825 105.222 55.98 105.222 56.7448C105.222 57.4857 104.744 57.9876 104.027 58.1071C100.562 58.5134 97.6939 61.1423 97.6939 66.3047V72.3991C97.6939 73.14 97.1442 73.7613 96.3794 73.7613C95.6146 73.7613 95.0172 73.1639 95.0172 72.3991L95.041 56.697Z" fill="#6A6667"/>
<path d="M113.85 73.9287C109.022 73.9287 105.079 70.1764 105.079 64.6795V64.6078C105.079 59.4933 108.664 55.3586 113.515 55.3586C118.725 55.3586 121.689 59.6606 121.689 64.3688C121.689 65.0858 121.115 65.6116 120.47 65.6116H107.756C108.138 69.4594 110.815 71.6343 113.946 71.6343C116.12 71.6343 117.722 70.7739 119.012 69.5789C119.227 69.4116 119.466 69.2682 119.753 69.2682C120.398 69.2682 120.9 69.794 120.9 70.4154C120.9 70.7261 120.757 71.0368 120.494 71.2758C118.821 72.8771 116.861 73.9287 113.85 73.9287ZM119.06 63.6518C118.797 60.4254 116.957 57.6052 113.444 57.6052C110.385 57.6052 108.066 60.1864 107.732 63.6518H119.06Z" fill="#6A6667"/>
<path d="M76.1605 68.3835V68.3118C76.1605 64.5357 79.2674 62.5281 83.8083 62.5281C86.1026 62.5281 87.7278 62.8388 89.329 63.2929V62.6715C89.329 59.4451 87.3454 57.796 83.9995 57.796C82.207 57.796 81.1554 58.035 79.841 58.6086C79.6737 58.6803 79.5064 58.7042 79.363 58.7042C78.7416 58.7042 78.1919 58.1784 78.1919 57.557C78.1919 57.0073 78.4309 56.6727 78.9328 56.4576C80.7013 55.6928 82.0158 55.4299 84.3102 55.4299C86.8435 55.4299 88.7793 56.0752 90.0938 57.4136C91.3127 58.6325 91.9341 60.3533 91.9341 62.6476V72.5421C91.9341 73.3069 91.3844 73.8566 90.6435 73.8566C89.8787 73.8566 89.3768 73.3069 89.3768 72.6138V70.9169C88.1341 72.5421 86.0548 74 82.9001 74C79.5303 73.9761 76.1605 72.0641 76.1605 68.3835ZM89.3529 66.9974V65.2766C88.0385 64.8942 86.2699 64.5118 84.0951 64.5118C80.7491 64.5118 78.8611 65.9697 78.8611 68.2162V68.2879C78.8611 70.5345 80.9403 71.849 83.3542 71.849C86.6523 71.849 89.3529 69.8414 89.3529 66.9974Z" fill="#6A6667"/>
<path d="M6.90015 56.5296C6.30266 55.239 4.8687 54.6654 3.50643 55.2629C2.14417 55.8604 1.64228 57.3661 2.26366 58.6566L7.95172 71.0128C8.83599 72.9486 9.79197 73.9524 11.5605 73.9524C13.4486 73.9524 14.285 72.853 15.1693 71.0128C15.1693 71.0128 20.1165 60.2101 20.1882 60.0906C20.236 59.9711 20.4033 59.6365 20.9052 59.6365C21.3354 59.6365 21.6939 59.9711 21.6939 60.4252V70.9889C21.6939 72.614 22.602 73.9524 24.3228 73.9524C26.0674 73.9524 26.9995 72.614 26.9995 70.9889V62.3372C26.9995 60.6642 28.1945 59.5887 29.8197 59.5887C31.4448 59.5887 32.5203 60.712 32.5203 62.3372V70.9889C32.5203 72.614 33.4285 73.9524 35.1492 73.9524C36.8939 73.9524 37.8259 72.614 37.8259 70.9889V62.3372C37.8259 60.6642 39.0209 59.5887 40.6461 59.5887C42.2712 59.5887 43.3467 60.712 43.3467 62.3372V70.9889C43.3467 72.614 44.2549 73.9524 45.9756 73.9524C47.7203 73.9524 48.6524 72.614 48.6524 70.9889V61.1422C48.6524 57.5334 45.7366 55 42.2473 55C38.758 55 36.5593 57.4139 36.5593 57.4139C35.3882 55.9082 33.7869 55 31.0863 55C28.2184 55 25.709 57.4139 25.709 57.4139C24.5379 55.9082 22.5542 55 20.9291 55C18.3957 55 16.3882 56.1233 15.1454 58.9195L11.5127 67.4756L6.90015 56.5296Z" fill="#6A6667"/>
<path d="M121.904 57.6294C121.904 56.4105 122.884 55.3828 124.126 55.3828C125.369 55.3828 126.349 56.3866 126.349 57.6055C126.349 58.8244 125.369 59.8281 124.126 59.8281C122.86 59.8281 121.904 58.8244 121.904 57.6294ZM125.895 57.6055C125.895 56.6017 125.13 55.7891 124.103 55.7891C123.099 55.7891 122.31 56.6256 122.31 57.6055C122.31 58.5854 123.075 59.4219 124.103 59.4219C125.13 59.4219 125.895 58.5854 125.895 57.6055Z" fill="#6A6667"/>
<path d="M123.29 56.697C123.29 56.5536 123.386 56.458 123.529 56.458H124.27C124.557 56.458 124.772 56.5297 124.891 56.6731C125.011 56.7926 125.083 56.9599 125.083 57.1511C125.083 57.4857 124.915 57.7008 124.652 57.7964L124.987 58.2027C125.035 58.2505 125.059 58.3222 125.059 58.3939C125.059 58.5134 124.939 58.609 124.844 58.609C124.748 58.609 124.676 58.5612 124.605 58.4895L124.151 57.9159H123.768V58.3939C123.768 58.5373 123.673 58.6329 123.529 58.6329C123.386 58.6329 123.29 58.5373 123.29 58.3939V56.697ZM124.246 57.5096C124.485 57.5096 124.605 57.3901 124.605 57.1989C124.605 57.0077 124.461 56.8882 124.246 56.8882H123.768V57.5096H124.246Z" fill="#6A6667"/>
</svg>
