<svg width="128" height="128" viewBox="0 0 128 128" fill="none" xmlns="http://www.w3.org/2000/svg">
<path d="M19.5384 89.7668L14.8203 100.721H13.0542L8.31055 89.7668H10.1277L13.9532 98.6931L17.7787 89.7987L19.5384 89.7668Z" fill="black"/>
<path d="M21.566 89.7668H23.1728L26.9983 96.927L30.8238 89.7668H32.4688V100.721H30.8557V92.9229L27.0302 100.083L23.2046 92.9229V100.721H21.566V89.7668Z" fill="black"/>
<path d="M34.3815 92.4763H35.9883L37.901 98.6163L39.9413 92.4763H41.2802L43.3205 98.6163L45.2333 92.4763H46.8463L43.9453 100.72H42.498L40.5406 94.5995L38.545 100.72H37.0913L34.3815 92.4763Z" fill="black"/>
<path d="M53.9552 93.2286C54.5719 93.9085 54.895 94.8045 54.8542 95.7215V100.714H53.3113V99.6045C53.0038 100.026 52.5902 100.358 52.1126 100.567C51.6281 100.795 51.0989 100.913 50.5633 100.912C49.7791 100.935 49.0124 100.677 48.4019 100.185C48.121 99.9535 47.8972 99.6607 47.7479 99.3289C47.5986 98.9972 47.5279 98.6355 47.5411 98.2719C47.5337 97.7634 47.6877 97.2655 47.9811 96.8501C48.2821 96.4223 48.6944 96.085 49.1733 95.8746C49.6963 95.6399 50.2643 95.5224 50.8374 95.5303C51.687 95.5444 52.5287 95.6951 53.3304 95.9766V95.7215C53.3481 95.171 53.1721 94.6318 52.8331 94.1977C52.6287 93.9744 52.376 93.8008 52.0941 93.6903C51.8123 93.5798 51.5089 93.5352 51.2072 93.5601C50.3946 93.6057 49.604 93.8416 48.8992 94.2487L48.3062 93.0819C49.2689 92.5661 50.3387 92.2823 51.4304 92.253C51.896 92.2309 52.361 92.3062 52.7958 92.4742C53.2306 92.6422 53.6255 92.8991 53.9552 93.2286ZM52.4187 99.2602C52.6367 99.1438 52.8289 98.9843 52.9834 98.7914C53.138 98.5985 53.2517 98.3762 53.3177 98.138V97.035C52.5873 96.8182 51.8288 96.7107 51.067 96.7162C50.5549 96.7046 50.0524 96.8564 49.6324 97.1497C49.4522 97.26 49.3022 97.4133 49.1958 97.5958C49.0895 97.7784 49.0302 97.9845 49.0233 98.1956C49.0163 98.4068 49.0619 98.6163 49.156 98.8055C49.2501 98.9946 49.3897 99.1575 49.5623 99.2793C49.9507 99.5489 50.416 99.6853 50.8885 99.6682C51.4262 99.6744 51.9554 99.5333 52.4187 99.2602Z" fill="black"/>
<path d="M60.0316 92.7703C60.6001 92.4395 61.2487 92.2718 61.9062 92.2857V93.6565C61.3564 93.6497 60.8119 93.7651 60.3122 93.9945C59.8659 94.1986 59.4892 94.529 59.2286 94.9449C58.968 95.3607 58.8349 95.8438 58.8457 96.3344V100.721H57.2645V92.477H58.8457V94.0901C59.0956 93.5385 59.5098 93.0775 60.0316 92.7703Z" fill="black"/>
<path d="M68.7028 99.3307C69.1037 99.1982 69.4712 98.9808 69.7803 98.6931L70.7239 99.6368C70.3139 100.058 69.8089 100.375 69.2511 100.561C68.6558 100.786 68.0257 100.905 67.3894 100.912C66.6452 100.912 65.914 100.718 65.2686 100.347C64.6231 99.977 64.0859 99.444 63.7105 98.8015C63.3371 98.1251 63.1412 97.365 63.1412 96.5923C63.1412 95.8196 63.3371 95.0595 63.7105 94.383C64.0659 93.7452 64.5857 93.2142 65.2159 92.8453C65.8461 92.4763 66.5635 92.283 67.2937 92.2854C68.0508 92.2666 68.7964 92.473 69.436 92.8783C70.0444 93.2881 70.5171 93.8696 70.7941 94.5488C71.1244 95.3576 71.285 96.2257 71.2659 97.0992H64.6605C64.7282 97.7871 65.0377 98.4287 65.534 98.9099C65.7747 99.14 66.0587 99.3199 66.3696 99.4392C66.6804 99.5585 67.0119 99.6148 67.3447 99.6049C67.8107 99.6002 68.2715 99.5072 68.7028 99.3307ZM65.5786 94.23C65.0831 94.6728 64.7639 95.2795 64.6796 95.9387H69.7166C69.6583 95.3069 69.3914 94.7124 68.9578 94.2491C68.7405 94.0323 68.4801 93.8635 68.1935 93.7537C67.9068 93.6439 67.6003 93.5954 67.2937 93.6115C66.6628 93.6046 66.0518 93.8318 65.5786 94.2491V94.23Z" fill="black"/>
<path d="M80.2047 91.2588H76.6023V89.7668H85.3882V91.2588H81.7986V100.721H80.1919L80.2047 91.2588Z" fill="black"/>
<path d="M92.778 93.2291C93.0848 93.5648 93.3222 93.958 93.4765 94.3858C93.6308 94.8137 93.6989 95.2678 93.677 95.7221V100.714H92.1277V99.605C91.8226 100.026 91.4111 100.358 90.9354 100.568C90.4508 100.796 89.9216 100.913 89.3861 100.912C88.6 100.936 87.8313 100.678 87.2183 100.185C86.9374 99.954 86.7136 99.6612 86.5643 99.3294C86.415 98.9977 86.3443 98.636 86.3575 98.2724C86.3501 97.7639 86.5041 97.2661 86.7975 96.8506C87.1038 96.4201 87.523 96.0825 88.0089 95.8751C88.5319 95.6405 89.0998 95.523 89.673 95.5308C90.5205 95.5444 91.3602 95.6952 92.1596 95.9771V95.7221C92.1796 95.1723 92.0059 94.6329 91.6686 94.1982C91.4643 93.9749 91.2115 93.8013 90.9297 93.6908C90.6479 93.5803 90.3445 93.5358 90.0428 93.5606C89.2279 93.6053 88.435 93.8412 87.7283 94.2492L87.1418 93.0825C88.1044 92.5667 89.1742 92.2829 90.2659 92.2536C90.7295 92.2321 91.1925 92.3077 91.6251 92.4757C92.0578 92.6437 92.4505 92.9003 92.778 93.2291ZM91.2478 99.2607C91.4652 99.1443 91.6564 98.9847 91.8099 98.7917C91.9634 98.5988 92.0759 98.3765 92.1404 98.1385V97.0355C91.4123 96.8184 90.6559 96.711 89.8961 96.7167C89.384 96.7051 88.8815 96.857 88.4616 97.1503C88.279 97.2659 88.1288 97.426 88.025 97.6156C87.9213 97.8052 87.8675 98.0181 87.8686 98.2342C87.8622 98.4382 87.9067 98.6405 87.9979 98.8231C88.0892 99.0056 88.2244 99.1626 88.3914 99.2798C88.7798 99.5494 89.2451 99.6859 89.7176 99.6688C90.2554 99.675 90.7846 99.5339 91.2478 99.2607Z" fill="black"/>
<path d="M101.896 92.6867C102.362 92.9474 102.743 93.3371 102.992 93.8089C103.254 94.3242 103.388 94.8951 103.381 95.473V100.72H101.851V95.7217C101.876 95.1706 101.686 94.6314 101.322 94.217C101.151 94.0241 100.939 93.8715 100.702 93.7701C100.465 93.6687 100.209 93.621 99.9512 93.6304C99.5527 93.6264 99.1591 93.7182 98.8035 93.8982C98.4702 94.0577 98.1844 94.3017 97.9746 94.6059C97.7786 94.891 97.6741 95.229 97.675 95.575V100.676H96.0938V92.4763H97.675V93.6878C97.941 93.2553 98.3232 92.9062 98.778 92.6804C99.2553 92.4204 99.7902 92.2845 100.334 92.2851C100.881 92.2796 101.419 92.4182 101.896 92.6867Z" fill="black"/>
<path d="M105.039 99.5472L109.687 93.9045H105.179V92.4763H111.791V93.6559L107.136 99.2985H111.803V100.72H105.039V99.5472Z" fill="black"/>
<path d="M120.736 92.4763V100.72H119.18V99.5472C118.914 99.9693 118.54 100.313 118.096 100.542C117.619 100.793 117.087 100.922 116.547 100.918C115.99 100.923 115.441 100.785 114.953 100.516C114.489 100.255 114.11 99.8655 113.863 99.3942C113.595 98.8811 113.461 98.3087 113.474 97.7301V92.4763H115.017V97.4495C114.996 98.002 115.185 98.5419 115.546 98.9606C115.719 99.1509 115.931 99.3014 116.168 99.4016C116.404 99.5018 116.66 99.5493 116.917 99.5408C117.311 99.5445 117.699 99.4549 118.052 99.2794C118.382 99.1261 118.665 98.8886 118.874 98.5908C119.073 98.3066 119.18 97.9684 119.18 97.6217V92.5209L120.736 92.4763Z" fill="black"/>
<path d="M72.4476 76.4586H53.049C52.674 76.4638 52.3027 76.3833 51.9634 76.2232C51.6242 76.0631 51.326 75.8277 51.0916 75.5348L38.918 60.2709C38.6748 59.9658 38.5071 59.6075 38.4288 59.2252C38.3504 58.843 38.3636 58.4476 38.4671 58.0715L43.1738 39.3764C43.3946 38.7098 43.8421 38.1417 44.4385 37.7709L61.6596 29.1491C62.0001 28.9754 62.377 28.8848 62.7593 28.8848C63.1416 28.8848 63.5185 28.9754 63.859 29.1491L81.3111 37.7599C81.6508 37.932 81.9494 38.1753 82.1867 38.4732C82.4239 38.7712 82.5941 39.1167 82.6857 39.4864L87.1614 58.1814C87.259 58.5581 87.2691 58.9522 87.1909 59.3334C87.1128 59.7146 86.9485 60.0729 86.7106 60.3808L74.405 75.5348C73.8967 76.0845 73.195 76.4156 72.4476 76.4586ZM53.115 73.9292H72.2936L84.5772 58.6653L80.1014 39.9703L62.8033 31.3376L45.5821 39.9483L41.0184 58.6433L53.115 73.9292Z" fill="#0091DA"/>
<path d="M84.9619 34.2075L87.1393 32.371L64.0677 21V23.8702L84.9619 34.2075Z" fill="#1BC1D5"/>
<path d="M34.3321 61.0735L31.5718 61.6453L47.6493 81.858L48.914 79.3286L34.3321 61.0735Z" fill="#78BE20"/>
<path d="M61.5384 23.8702V21L38.6978 32.371L40.8752 34.2075L61.5384 23.8702Z" fill="#1BC1D5"/>
<path d="M39.3796 36.3852L37.0813 34.4277L31 59.1162L33.8702 58.5443L39.3796 36.3852Z" fill="#1D428A"/>
<path d="M91.7359 58.5443L94.6061 59.1162L88.7558 34.4277L86.5674 36.2752L91.7359 58.5443Z" fill="#1D428A"/>
<path d="M91.1643 61.0735L76.4614 79.3286L77.7261 81.858L94.0345 61.6453L91.1643 61.0735Z" fill="#78BE20"/>
<path d="M51.212 80.3606L49.9474 82.9999H75.4382L74.1736 80.3606H51.212Z" fill="#1BC1D5"/>
</svg>
