<svg width="128" height="128" viewBox="0 0 128 128" fill="none" xmlns="http://www.w3.org/2000/svg">
<path d="M120.03 95.8262C122.386 95.8262 123.422 96.3968 123.446 96.4102V99.7959C123.417 99.7755 121.737 98.6248 119.992 98.6143C118.731 98.6143 117.777 99.0741 117.761 100.113C117.752 101.453 119.392 102.106 120.371 102.502C121.797 103.076 122.841 103.689 123.426 104.393C124.01 105.096 124.264 105.805 124.264 107.004C124.263 110.354 121.225 111.66 118.18 111.66C116.196 111.66 114.221 110.896 114.221 110.896V107.332C114.221 107.332 115.938 108.828 118.336 108.847C119.98 108.847 120.721 108.328 120.721 107.341C120.761 106.549 120.279 106.113 119.703 105.785C119.307 105.547 118.688 105.255 117.846 104.908C116.856 104.482 116.118 104.072 115.633 103.676C115.158 103.28 114.8 102.814 114.562 102.279C114.335 101.745 114.167 101.156 114.167 100.443C114.167 97.7378 116.424 95.8262 120.03 95.8262ZM82.6777 95.8164C87.2059 95.8164 90.1006 98.7112 90.1006 103.602C90.1005 108.814 86.9851 111.639 82.3066 111.639C77.2192 111.639 74.6113 108.592 74.6113 103.928C74.6114 98.5919 77.7362 95.8165 82.6777 95.8164ZM72.1426 111.193L68.583 111.192V109.256H68.5234C67.434 111.088 65.2096 111.511 63.6592 111.511C59.0514 111.511 57.3604 107.93 57.3604 104.121C57.3604 101.595 57.9893 99.575 59.2471 98.0596C60.5148 96.5342 62.2086 95.874 64.3281 95.874C67.6274 95.8741 68.5234 97.71 68.5234 97.71H68.583V89H72.1426V111.193ZM49.8535 95.8887C51.4679 95.8887 52.7162 96.2863 53.5977 97.3164C54.489 98.3465 54.8799 99.9119 54.8799 102.012V111.192L51.3496 111.193V102.813C51.3496 100.618 50.6686 98.7246 48.457 98.7246C46.257 98.7247 44.8623 100.706 44.8623 102.71V111.192H41.4297V96.1426H44.8623V98.2715H44.9219C46.0608 96.5084 47.7045 95.8887 49.8535 95.8887ZM97.3213 107.846L100.663 96.1895H104.109L107.089 107.815L109.876 96.1895H113.243L108.931 111.193H105.06L102.1 100.301L98.9248 111.193H95.166L90.7881 96.1895H94.4619L97.3213 107.846ZM12.1113 106.921L16.6797 90.3096H20.6455L24.9395 107.02L28.9141 90.3096H32.7051L27.0439 111.192H22.7158L18.4951 95.126L14.2275 111.192H9.80371L4 90.3096H7.92676L12.1113 106.921ZM37.8467 111.192H34.3389V96.1426H37.8467V111.192ZM64.9785 98.7334C62.1579 98.7334 61.0615 101.188 61.0615 104.018C61.0616 106.487 62.0963 108.729 64.7822 108.767C67.4159 108.766 68.5909 106.256 68.6123 104.181V102.617C68.6123 100.799 67.4441 98.7335 64.9785 98.7334ZM82.4854 98.8223C79.4747 98.8223 78.3047 101.064 78.3047 103.81C78.3048 106.792 79.71 108.689 82.4639 108.689C85.414 108.689 86.4248 106.425 86.4463 103.72C86.4462 101.401 85.6239 98.8225 82.4854 98.8223ZM36.1445 89.8164C36.7487 89.8164 37.2493 90.015 37.6455 90.4111C38.0513 90.8072 38.2539 91.2825 38.2539 91.8369C38.2539 92.4015 38.0459 92.8726 37.6299 93.249C37.2239 93.6251 36.7286 93.8135 36.1445 93.8135C35.5604 93.8134 35.0651 93.6252 34.6592 93.249C34.2531 92.8726 34.0498 92.4015 34.0498 91.8369C34.0498 91.2625 34.2532 90.7818 34.6592 90.3955C35.0751 90.0094 35.5703 89.8164 36.1445 89.8164Z" fill="#0078D4"/>
<path d="M62.335 80H32V49.665H62.335V80ZM95.9971 49.665V80H65.6631V49.665H95.9971ZM62.335 46.335H32V16H62.335V46.335ZM95.9971 46.335H65.6631V16H95.9971V46.335Z" fill="#0078D4"/>
</svg>
