<svg width="128" height="128" viewBox="0 0 128 128" fill="none" xmlns="http://www.w3.org/2000/svg">
<path d="M123.272 60.6826C124.907 60.6826 125.616 61.084 125.616 61.084V63.4072C125.616 63.4072 124.454 62.6041 123.246 62.5967C122.381 62.5967 121.727 62.912 121.715 63.625C121.709 64.5437 122.834 64.9918 123.506 65.2637C124.485 65.6578 125.201 66.0781 125.602 66.5605C126.003 67.043 126.177 67.5289 126.177 68.3516C126.177 70.6504 124.092 71.5469 122.002 71.5469C120.641 71.5468 119.286 71.0225 119.286 71.0225V68.5771C119.286 68.5771 120.464 69.6033 122.11 69.6162C123.237 69.6162 123.746 69.261 123.746 68.584C123.774 68.0406 123.443 67.7403 123.047 67.5156C122.775 67.3526 122.351 67.1527 121.774 66.915C121.094 66.6229 120.588 66.3402 120.255 66.0684C119.929 65.7965 119.684 65.4773 119.521 65.1104C119.364 64.7434 119.249 64.3398 119.249 63.8506C119.249 61.9945 120.797 60.6826 123.272 60.6826ZM97.6458 60.6768C100.752 60.6768 102.739 62.6624 102.739 66.0176C102.738 69.5941 100.601 71.5312 97.3909 71.5312C93.9004 71.5312 92.1116 69.4414 92.1116 66.2412C92.1117 62.5804 94.2554 60.6768 97.6458 60.6768ZM90.4172 71.2266H87.9749V69.8965H87.9338C87.1864 71.1537 85.6607 71.4443 84.5969 71.4443C81.4357 71.4441 80.2756 68.9876 80.2756 66.374C80.2757 64.6413 80.7076 63.2555 81.5706 62.2158C82.4403 61.1693 83.6018 60.7158 85.0559 60.7158C87.3097 60.7158 87.9285 61.9647 87.9338 61.9756H87.9749V56H90.4172V71.2266ZM49.2307 68.2949L52.3655 56.8984H55.0862L58.0325 68.3633L60.759 56.8984H63.3606L59.4758 71.2266H56.5061L53.6106 60.2031L50.6829 71.2266H47.6477L43.6663 56.8984H46.3596L49.2307 68.2949ZM75.1252 60.7266C76.2328 60.7266 77.0889 60.9993 77.6936 61.7061C78.3051 62.4127 78.5735 63.4861 78.5735 64.9268V71.2256L76.1516 71.2266V65.4775C76.1516 63.9712 75.6846 62.6719 74.1672 62.6719C72.6578 62.6719 71.7004 64.0312 71.7004 65.4062V71.2256H69.3459V60.9004H71.7004V62.3613H71.7415C72.5228 61.1515 73.6508 60.7266 75.1252 60.7266ZM107.692 68.9297L109.985 60.9326H112.349L114.393 68.9092L116.305 60.9326H118.615L115.657 71.2266H113.001L110.97 63.7539L108.792 71.2266H106.213L103.21 60.9326H105.731L107.692 68.9297ZM66.8879 71.2256H64.4807V60.8994H66.8879V71.2256ZM85.5022 62.6777C83.5672 62.6777 82.8148 64.3618 82.8147 66.3027C82.8147 67.9974 83.5247 69.536 85.3674 69.5615C87.1744 69.5615 87.9807 67.8388 87.9954 66.415V65.3428C87.9954 64.0955 87.1939 62.6777 85.5022 62.6777ZM97.5129 62.7393C95.4475 62.7393 94.6448 64.2763 94.6448 66.1602C94.6448 68.2068 95.6089 69.5088 97.4983 69.5088C99.5225 69.5088 100.216 67.9545 100.231 66.0986C100.231 64.5075 99.6664 62.7393 97.5129 62.7393ZM65.72 56.5596C66.1345 56.5596 66.4775 56.696 66.7493 56.9678C67.0279 57.2396 67.1672 57.5658 67.1672 57.9463C67.1672 58.3334 67.0246 58.6559 66.7395 58.9141C66.4609 59.1723 66.1209 59.3018 65.72 59.3018C65.3191 59.3017 64.979 59.1723 64.7004 58.9141C64.4222 58.6559 64.2825 58.3334 64.2825 57.9463C64.2825 57.5522 64.4219 57.2221 64.7004 56.957C64.9858 56.692 65.3259 56.5596 65.72 56.5596Z" fill="#0078D4"/>
<path d="M18.167 80H3V64.833H18.167V80ZM34.998 64.833V80H19.8311V64.833H34.998ZM18.167 63.167H3V48H18.167V63.167ZM34.998 63.167H19.8311V48H34.998V63.167Z" fill="#0078D4"/>
</svg>
