<svg width="128" height="128" viewBox="0 0 128 128" fill="none" xmlns="http://www.w3.org/2000/svg">
<path d="M3 33.1C3 29.7311 5.73106 27 9.1 27H118.9C122.269 27 125 29.7311 125 33.1V94.1C125 97.4689 122.269 100.2 118.9 100.2H9.1C5.73106 100.2 3 97.4689 3 94.1V33.1Z" fill="#EDDBFF"/>
<path d="M118.9 97.15V100.2H9.1V97.15H118.9ZM121.95 94.1V33.1C121.95 31.4155 120.584 30.05 118.9 30.05H9.1C7.41553 30.05 6.05 31.4155 6.05 33.1V94.1C6.05 95.7845 7.41553 97.15 9.1 97.15V100.2C5.83645 100.2 3.17097 97.6371 3.00745 94.4142L3 94.1V33.1C3 29.7311 5.73106 27 9.1 27H118.9L119.214 27.0074C122.437 27.171 125 29.8364 125 33.1V94.1C125 97.3636 122.437 100.029 119.214 100.193L118.9 100.2V97.15C120.584 97.15 121.95 95.7845 121.95 94.1Z" fill="#CE9EFF"/>
<path d="M80.9656 54.998V72.75H77.8203V54.998H80.9656Z" fill="black"/>
<path d="M62.5703 72.75V54.998H69.3494C70.652 54.998 71.7759 55.2284 72.7211 55.6891C73.6742 56.1497 74.4049 56.805 74.9133 57.6549C75.4296 58.5048 75.6877 59.5095 75.6877 60.6691C75.6877 61.8367 75.4256 62.8454 74.9014 63.6953C74.3771 64.5452 73.6345 65.2044 72.6734 65.673C71.7203 66.1337 70.5924 66.3641 69.2898 66.3641H65.7156V72.75H62.5703ZM65.7156 63.6715H69.1707C70.2271 63.6715 71.0611 63.4054 71.6727 62.8732C72.2842 62.3331 72.59 61.5984 72.59 60.6691C72.59 59.7478 72.2842 59.021 71.6727 58.4889C71.0611 57.9567 70.2271 57.6906 69.1707 57.6906H65.7156V63.6715Z" fill="black"/>
<path d="M44.3301 72.75L50.6684 54.998H54.6238L60.9383 72.75H57.4713L56.0535 68.5086H49.1672L47.7137 72.75H44.3301ZM50.0488 65.9232H55.1957L54.3617 63.4213C54.0996 62.6032 53.8296 61.7493 53.5516 60.8598C53.2815 59.9702 52.9797 58.9654 52.6461 57.8455C52.3125 58.9654 52.0067 59.9702 51.7287 60.8598C51.4507 61.7493 51.1767 62.6032 50.9066 63.4213L50.0488 65.9232Z" fill="black"/>
</svg>
