<svg width="128" height="128" viewBox="0 0 128 128" fill="none" xmlns="http://www.w3.org/2000/svg">
<path d="M10 47H117C118.657 47 120 48.3431 120 50V78C120 79.6569 118.657 81 117 81H10C8.34315 81 7 79.6569 7 78V50C7 48.3431 8.34315 47 10 47Z" fill="#E0DBFF" stroke="#A69EFF" stroke-width="2"/>
<path d="M38.5625 70.1641C38.026 70.1641 37.5339 70.0469 37.0859 69.8125C36.6432 69.5781 36.2839 69.2214 36.0078 68.7422H35.9922V70H34.375V58.3594H36.0234V62.9453H36.0391C36.3047 62.487 36.6589 62.1458 37.1016 61.9219C37.5443 61.6979 38.0339 61.5859 38.5703 61.5859C39.2786 61.5859 39.901 61.7682 40.4375 62.1328C40.974 62.4922 41.3906 62.9948 41.6875 63.6406C41.9896 64.2812 42.1406 65.026 42.1406 65.875C42.1406 66.724 41.9922 67.4714 41.6953 68.1172C41.3984 68.7578 40.9818 69.2604 40.4453 69.625C39.9089 69.9844 39.2812 70.1641 38.5625 70.1641ZM38.2266 68.7422C38.8932 68.7422 39.4323 68.4974 39.8438 68.0078C40.2604 67.5182 40.4688 66.8073 40.4688 65.875C40.4688 64.9427 40.2604 64.2318 39.8438 63.7422C39.4323 63.2474 38.8932 63 38.2266 63C37.5234 63 36.9609 63.263 36.5391 63.7891C36.1224 64.3099 35.9141 65.0052 35.9141 65.875C35.9141 66.7396 36.1224 67.4349 36.5391 67.9609C36.9609 68.4818 37.5234 68.7422 38.2266 68.7422ZM46.2031 70.1328C45.3802 70.1328 44.6979 69.9245 44.1562 69.5078C43.6146 69.0859 43.3438 68.4635 43.3438 67.6406C43.3438 67.0156 43.4974 66.5365 43.8047 66.2031C44.1172 65.8646 44.5208 65.6224 45.0156 65.4766C45.5156 65.3307 46.0443 65.224 46.6016 65.1562C47.1172 65.0938 47.526 65.0417 47.8281 65C48.1302 64.9583 48.3438 64.8958 48.4688 64.8125C48.599 64.7292 48.6641 64.5859 48.6641 64.3828V64.3125C48.6641 63.9115 48.5182 63.5833 48.2266 63.3281C47.9349 63.0677 47.526 62.9375 47 62.9375C46.474 62.9375 46.0443 63.0651 45.7109 63.3203C45.3776 63.5703 45.1953 63.8854 45.1641 64.2656H43.5469C43.5833 63.4792 43.9141 62.8359 44.5391 62.3359C45.1641 61.8359 45.9922 61.5859 47.0234 61.5859C48.0391 61.5859 48.8385 61.8359 49.4219 62.3359C50.0052 62.8359 50.2969 63.5052 50.2969 64.3438V70H48.6719V68.8281H48.6406C48.4688 69.1615 48.1953 69.4635 47.8203 69.7344C47.4505 70 46.9115 70.1328 46.2031 70.1328ZM46.5391 68.8047C47.2682 68.8047 47.8047 68.6172 48.1484 68.2422C48.4974 67.862 48.6719 67.4193 48.6719 66.9141V65.9453C48.5625 66.0339 48.3151 66.1146 47.9297 66.1875C47.5443 66.2552 47.1328 66.3203 46.6953 66.3828C46.2422 66.4505 45.8438 66.5781 45.5 66.7656C45.1562 66.9531 44.9844 67.2552 44.9844 67.6719C44.9844 68.026 45.1224 68.3047 45.3984 68.5078C45.6797 68.7057 46.0599 68.8047 46.5391 68.8047ZM55.6875 70.1875C54.901 70.1875 54.2109 70.0052 53.6172 69.6406C53.0286 69.276 52.5703 68.7708 52.2422 68.125C51.9141 67.474 51.75 66.7292 51.75 65.8906C51.75 65.0417 51.9141 64.2917 52.2422 63.6406C52.5755 62.9896 53.0365 62.4818 53.625 62.1172C54.2135 61.7474 54.901 61.5625 55.6875 61.5625C56.3438 61.5625 56.9297 61.6927 57.4453 61.9531C57.9661 62.2083 58.388 62.5625 58.7109 63.0156C59.0339 63.4688 59.2292 63.987 59.2969 64.5703H57.6562C57.5729 64.1068 57.3646 63.7266 57.0312 63.4297C56.6979 63.1328 56.2526 62.9844 55.6953 62.9844C54.9818 62.9844 54.4245 63.2474 54.0234 63.7734C53.6224 64.2995 53.4219 65.0052 53.4219 65.8906C53.4219 66.7656 53.6224 67.4635 54.0234 67.9844C54.4245 68.5052 54.9818 68.7656 55.6953 68.7656C56.263 68.7656 56.7005 68.6224 57.0078 68.3359C57.3151 68.0443 57.5234 67.6562 57.6328 67.1719H59.2969C59.2344 67.7448 59.0417 68.2604 58.7188 68.7188C58.3958 69.1719 57.974 69.5312 57.4531 69.7969C56.9323 70.0573 56.3438 70.1875 55.6875 70.1875ZM60.7031 70V58.3594H62.3516V65.2734H62.375L65.8906 61.75H67.9375L64.4453 65.2969L68.1719 70H66.1484L63.1875 66.2891L62.3516 67.1016V70H60.7031ZM72.2109 70.1875C71.3932 70.1875 70.6901 70.0026 70.1016 69.6328C69.5182 69.263 69.0677 68.7552 68.75 68.1094C68.4375 67.4583 68.2812 66.7188 68.2812 65.8906C68.2812 65.0521 68.4453 64.3073 68.7734 63.6562C69.1016 63.0052 69.5547 62.4948 70.1328 62.125C70.7109 61.75 71.375 61.5625 72.125 61.5625C72.9062 61.5625 73.5833 61.7448 74.1562 62.1094C74.7344 62.474 75.1823 62.9818 75.5 63.6328C75.8177 64.2786 75.9766 65.026 75.9766 65.875V66.3203H69.9062C69.9375 67.0651 70.151 67.6667 70.5469 68.125C70.9479 68.5833 71.5104 68.8125 72.2344 68.8125C72.776 68.8125 73.2214 68.6901 73.5703 68.4453C73.9193 68.2005 74.151 67.8828 74.2656 67.4922H75.8516C75.7526 68.0234 75.5312 68.4922 75.1875 68.8984C74.849 69.3047 74.4219 69.6224 73.9062 69.8516C73.3958 70.0755 72.8307 70.1875 72.2109 70.1875ZM69.9219 65.0703H74.3672C74.2995 64.4141 74.0677 63.8958 73.6719 63.5156C73.276 63.1302 72.7656 62.9375 72.1406 62.9375C71.5156 62.9375 71.0052 63.1302 70.6094 63.5156C70.2188 63.8958 69.9896 64.4141 69.9219 65.0703ZM79.0547 65.25V70H77.4062V61.75H79.0234V62.9922C79.5859 62.0547 80.4167 61.5859 81.5156 61.5859C82.0833 61.5859 82.5911 61.7109 83.0391 61.9609C83.4922 62.2057 83.849 62.5703 84.1094 63.0547C84.3698 63.5391 84.5 64.1406 84.5 64.8594V70H82.8516V65.0625C82.8516 64.401 82.6927 63.9036 82.375 63.5703C82.0573 63.2318 81.6146 63.0625 81.0469 63.0625C80.4844 63.0625 80.0104 63.237 79.625 63.5859C79.2448 63.9297 79.0547 64.4844 79.0547 65.25ZM89.5312 70.1641C88.8125 70.1641 88.1849 69.9844 87.6484 69.625C87.112 69.2604 86.6953 68.7578 86.3984 68.1172C86.1016 67.4714 85.9531 66.724 85.9531 65.875C85.9531 65.026 86.1016 64.2812 86.3984 63.6406C86.7005 62.9948 87.1198 62.4922 87.6562 62.1328C88.1927 61.7682 88.8151 61.5859 89.5234 61.5859C90.0599 61.5859 90.5495 61.6979 90.9922 61.9219C91.4349 62.1458 91.7891 62.487 92.0547 62.9453H92.0703V58.3594H93.7188V70H92.1016V68.7422H92.0859C91.8099 69.2214 91.4479 69.5781 91 69.8125C90.5573 70.0469 90.0677 70.1641 89.5312 70.1641ZM89.8672 68.7422C90.5703 68.7422 91.1302 68.4818 91.5469 67.9609C91.9688 67.4349 92.1797 66.7396 92.1797 65.875C92.1797 65.0052 91.9688 64.3099 91.5469 63.7891C91.1302 63.263 90.5703 63 89.8672 63C89.2005 63 88.6589 63.2474 88.2422 63.7422C87.8307 64.2318 87.625 64.9427 87.625 65.875C87.625 66.8073 87.8307 67.5182 88.2422 68.0078C88.6589 68.4974 89.2005 68.7422 89.8672 68.7422ZM100.703 64.5781V66.0312H95.5391V64.5781H100.703ZM106.484 58.3594V70H104.805V60.0625H104.797L101.953 61.9219V60.2656L104.852 58.3594H106.484Z" fill="black"/>
<path d="M27.9736 69.3188C27.9734 69.905 26.9536 70.7238 26.4785 70.9965C24.1227 72.3462 19.8069 72.3289 17.457 70.975C16.9831 70.7018 16.0002 69.9098 16 69.3188V65.9956C17.208 67.2215 18.9503 67.7951 20.6406 67.9711C23.1183 68.2287 26.1422 67.8112 27.9736 65.9956V69.3188ZM27.9746 64.5883C27.9746 64.936 25.9607 66.1628 25.5791 66.3237C23.1241 67.3574 19.4791 67.1351 17.2266 65.6977C17.0205 65.5662 16.0023 64.8357 16.001 64.6489V61.5053C17.2089 62.7312 18.9513 63.3039 20.6416 63.4799C23.1192 63.7375 26.1432 63.3209 27.9746 61.5053V64.5883ZM20.8984 57.0327C22.8152 56.8832 26.0199 57.1966 27.4062 58.6909C28.0922 59.4303 28.1829 59.9773 27.4375 60.6987C25.0065 63.0533 18.6981 63.0767 16.3896 60.5473C15.998 60.1191 15.8898 59.8419 16.1475 59.2875C16.8208 57.8399 19.4406 57.1468 20.8984 57.0327Z" fill="black"/>
</svg>
