<svg width="128" height="128" viewBox="0 0 128 128" fill="none" xmlns="http://www.w3.org/2000/svg">
<path d="M1.396 30.1501C1.396 29.2722 2.10766 28.5605 2.98555 28.5605H123.792C124.67 28.5605 125.381 29.2722 125.381 30.1501V103.009C125.381 103.887 124.67 104.599 123.792 104.599H2.98555C2.10766 104.599 1.396 103.887 1.396 103.009V30.1501Z" fill="#F9F9F9"/>
<path d="M1 103.014V30.1549C1 29.0575 1.88959 28.168 2.98695 28.168H4.88696V28.9627H2.98695C2.32853 28.9627 1.79478 29.4965 1.79478 30.1549V103.014C1.79478 103.672 2.32853 104.206 2.98695 104.206H123.793C124.452 104.206 124.985 103.672 124.985 103.014V30.1549C124.985 29.4965 124.452 28.9627 123.793 28.9627H42.8629V28.168H123.793C124.891 28.168 125.78 29.0575 125.78 30.1549V103.014C125.78 104.111 124.891 105.001 123.793 105.001H2.98695C1.88958 105.001 1 104.111 1 103.014Z" fill="#CBCBCB"/>
<path d="M38.6758 30.9476V27.6693H39.3029V28.2001H39.3153C39.3754 28.0201 39.4695 27.8804 39.5978 27.781C39.7282 27.6796 39.898 27.6289 40.107 27.6289C40.1567 27.6289 40.2022 27.631 40.2436 27.6351C40.285 27.6393 40.3192 27.6424 40.3461 27.6444V28.256C40.3212 28.2498 40.2767 28.2436 40.2126 28.2374C40.1484 28.2291 40.078 28.225 40.0014 28.225C39.8172 28.225 39.6589 28.2891 39.5264 28.4175C39.396 28.5458 39.3309 28.7434 39.3309 29.0104V30.9476H38.6758Z" fill="black"/>
<path d="M36.608 31.0231C36.2831 31.0231 36.0036 30.9496 35.7698 30.8027C35.5379 30.6557 35.3589 30.4539 35.2327 30.1973C35.1085 29.9386 35.0464 29.6447 35.0464 29.3156C35.0464 28.9824 35.1116 28.6864 35.242 28.4277C35.3724 28.169 35.5524 27.9662 35.7822 27.8192C36.0119 27.6702 36.2758 27.5957 36.5739 27.5957C36.8843 27.5957 37.1534 27.6681 37.381 27.813C37.6108 27.9579 37.7888 28.1597 37.915 28.4184C38.0413 28.675 38.1044 28.972 38.1044 29.3094V29.4864H35.6921C35.7046 29.7823 35.7894 30.0214 35.9467 30.2035C36.1061 30.3856 36.3296 30.4767 36.6173 30.4767C36.8326 30.4767 37.0095 30.4281 37.1482 30.3308C37.2869 30.2335 37.379 30.1073 37.4245 29.952H38.0547C38.0154 30.1631 37.9275 30.3494 37.7909 30.5108C37.6563 30.6723 37.4866 30.7985 37.2817 30.8896C37.0789 30.9786 36.8543 31.0231 36.608 31.0231ZM35.6984 28.9896H37.4649C37.438 28.7289 37.3459 28.5229 37.1886 28.3718C37.0313 28.2187 36.8284 28.1421 36.5801 28.1421C36.3317 28.1421 36.1289 28.2187 35.9716 28.3718C35.8163 28.5229 35.7253 28.7289 35.6984 28.9896Z" fill="black"/>
<path d="M34.7501 27.6714V28.2116H34.0857V30.0837C34.0857 30.2058 34.1106 30.2906 34.1602 30.3382C34.2099 30.3858 34.2999 30.4096 34.4303 30.4096H34.7501V30.9498H34.3372C33.7308 30.9498 33.4276 30.689 33.4276 30.1675V28.2116H32.8501V27.6714H33.4276V26.7773H34.0857V27.6714H34.7501Z" fill="black"/>
<path d="M31.2002 31.025C30.9497 31.025 30.7241 30.9847 30.5234 30.904C30.3226 30.8233 30.1601 30.7032 30.036 30.5438C29.9138 30.3845 29.8455 30.1868 29.8311 29.9509H30.4768C30.5141 30.3193 30.7511 30.5035 31.1878 30.5035C31.3947 30.5035 31.5582 30.4611 31.6783 30.3762C31.8004 30.2913 31.8615 30.1837 31.8615 30.0533C31.8615 29.9416 31.818 29.8526 31.7311 29.7863C31.6441 29.718 31.5303 29.6684 31.3896 29.6373L30.8463 29.5162C30.2191 29.3797 29.9056 29.0671 29.9056 28.5787C29.9056 28.2889 30.0204 28.053 30.2502 27.8709C30.482 27.6887 30.7852 27.5977 31.1598 27.5977C31.5303 27.5977 31.8346 27.6939 32.0726 27.8864C32.3127 28.0768 32.4369 28.3376 32.4451 28.6687H31.818C31.8159 28.5093 31.7559 28.3779 31.6379 28.2744C31.52 28.1689 31.3637 28.1161 31.1691 28.1161C30.9829 28.1161 30.8349 28.1596 30.7252 28.2465C30.6155 28.3334 30.5606 28.44 30.5606 28.5663C30.5606 28.678 30.602 28.7681 30.6848 28.8364C30.7697 28.9047 30.8856 28.9554 31.0325 28.9885L31.5914 29.1127C31.9101 29.183 32.145 29.2917 32.2961 29.4386C32.4472 29.5856 32.5227 29.7781 32.5227 30.0161C32.5227 30.2251 32.4648 30.4052 32.3489 30.5563C32.2351 30.7053 32.0788 30.8212 31.8801 30.904C31.6814 30.9847 31.4548 31.025 31.2002 31.025Z" fill="black"/>
<path d="M27.6161 31.0154C27.3926 31.0154 27.1908 30.9668 27.0107 30.8695C26.8327 30.7702 26.691 30.6243 26.5854 30.4318C26.4819 30.2393 26.4302 30.0003 26.4302 29.7146V27.6719H27.0852V29.6339C27.0852 29.8968 27.1484 30.0955 27.2746 30.23C27.4009 30.3625 27.5778 30.4287 27.8055 30.4287C28.027 30.4287 28.2133 30.3604 28.3643 30.2238C28.5175 30.0851 28.5941 29.8637 28.5941 29.5594V27.6719H29.2492V30.9502H28.6065V30.4566C28.383 30.8292 28.0528 31.0154 27.6161 31.0154Z" fill="black"/>
<path d="M25.6878 26.3262V30.9519H25.0327V26.3262H25.6878Z" fill="black"/>
<path d="M23.0379 31.0231C22.7253 31.0231 22.4511 30.9507 22.2151 30.8058C21.9813 30.6609 21.7991 30.4601 21.6687 30.2035C21.5383 29.9448 21.4731 29.6488 21.4731 29.3156C21.4731 28.9782 21.5383 28.6802 21.6687 28.4215C21.8012 28.1628 21.9844 27.961 22.2182 27.8161C22.4521 27.6692 22.7253 27.5957 23.0379 27.5957C23.2987 27.5957 23.5315 27.6474 23.7364 27.7509C23.9434 27.8523 24.111 27.9931 24.2393 28.1731C24.3677 28.3532 24.4453 28.5591 24.4722 28.7909H23.8202C23.7871 28.6067 23.7043 28.4557 23.5719 28.3377C23.4394 28.2197 23.2624 28.1607 23.041 28.1607C22.7574 28.1607 22.536 28.2652 22.3766 28.4743C22.2172 28.6833 22.1375 28.9638 22.1375 29.3156C22.1375 29.6633 22.2172 29.9406 22.3766 30.1476C22.536 30.3546 22.7574 30.4581 23.041 30.4581C23.2666 30.4581 23.4404 30.4012 23.5625 30.2873C23.6847 30.1714 23.7674 30.0172 23.8109 29.8247H24.4722C24.4474 30.0524 24.3708 30.2573 24.2424 30.4394C24.1141 30.6195 23.9465 30.7623 23.7395 30.8679C23.5325 30.9713 23.2987 31.0231 23.0379 31.0231Z" fill="black"/>
<path d="M17.8394 25.563C17.7712 25.3449 17.6077 25.1676 17.4031 25.0587L13.2454 23.0683C13.1365 23.0137 13.0137 23 12.9046 23C12.7955 23 12.6729 23 12.5638 23.0273L8.40615 25.0314C8.30367 25.0783 8.2134 25.1482 8.14236 25.2357C8.07132 25.3231 8.02143 25.4258 7.99658 25.5357L6.97367 30.021C6.95352 30.1345 6.95643 30.251 6.98221 30.3634C7.00798 30.4758 7.05611 30.5819 7.12372 30.6754L10.0003 34.2335C10.1639 34.3972 10.3956 34.5065 10.6275 34.5198H15.2082C15.4536 34.5471 15.6853 34.438 15.8354 34.2335L18.712 30.6754C18.8464 30.4854 18.9048 30.2519 18.8756 30.021L17.8394 25.563V25.563Z" fill="#326DE6"/>
<path d="M17.2024 29.8443C17.1887 29.8443 17.1751 29.8443 17.1751 29.8306C17.1751 29.817 17.1478 29.8175 17.12 29.8175C17.0655 29.8038 17.011 29.8038 16.9564 29.8038C16.9284 29.806 16.9004 29.8013 16.8746 29.7902H16.861C16.7044 29.7761 16.5493 29.7487 16.3974 29.7084C16.3757 29.7001 16.356 29.6873 16.3395 29.6709C16.3231 29.6544 16.3103 29.6347 16.3021 29.6129L16.193 29.5856C16.2475 29.1903 16.2202 28.7813 16.1384 28.386C16.0422 27.9896 15.881 27.6118 15.6613 27.2681L15.7436 27.1864V27.1727C15.7436 27.1318 15.7572 27.0773 15.7844 27.05C15.9072 26.941 16.0299 26.8592 16.1662 26.777L16.248 26.7361C16.3026 26.7088 16.3434 26.6815 16.3979 26.6543C16.4115 26.6407 16.4252 26.6407 16.4389 26.627C16.4525 26.6134 16.4389 26.6134 16.4389 26.5997C16.5615 26.5038 16.5888 26.3406 16.4933 26.2184C16.4701 26.1899 16.4411 26.1666 16.4082 26.1502C16.3753 26.1337 16.3393 26.1244 16.3026 26.1229C16.2333 26.1247 16.1664 26.1486 16.1117 26.1911V26.1911L16.098 26.2047C16.0844 26.2184 16.0707 26.2319 16.0571 26.2319C16.0163 26.2728 15.9753 26.3138 15.948 26.3546C15.9345 26.3819 15.9072 26.3956 15.8935 26.4092C15.793 26.5232 15.6785 26.6239 15.5527 26.7091C15.5254 26.7227 15.4981 26.7364 15.4709 26.7364C15.4573 26.7364 15.43 26.7364 15.4163 26.7227H15.4028L15.2937 26.7909C15.1846 26.6818 15.0619 26.5728 14.9529 26.4637C14.4484 26.0683 13.8212 25.823 13.1805 25.7548L13.1668 25.6457V25.6594C13.126 25.6321 13.1123 25.5913 13.0987 25.5503C13.0987 25.4004 13.0987 25.2503 13.126 25.0868V25.0731C13.126 25.0459 13.1396 25.0186 13.1396 24.9913C13.1533 24.9368 13.1533 24.8824 13.1668 24.8277V24.746C13.1805 24.6094 13.0714 24.4729 12.9351 24.4596C12.8533 24.446 12.7715 24.487 12.7034 24.5551C12.6778 24.5799 12.6573 24.6095 12.6433 24.6423C12.6292 24.6751 12.6218 24.7103 12.6215 24.746V24.746V24.8141C12.6215 24.8687 12.6351 24.9232 12.6488 24.9777C12.6599 25.0035 12.6646 25.0316 12.6624 25.0596V25.0731C12.6892 25.2228 12.6892 25.3727 12.6892 25.5358C12.6756 25.5767 12.6619 25.6176 12.621 25.6449V25.6723L12.6075 25.7814C12.4574 25.7949 12.3075 25.8222 12.1439 25.8495C11.5031 25.986 10.9168 26.3266 10.4669 26.8038L10.3851 26.7493H10.3715C10.358 26.7493 10.3443 26.7629 10.317 26.7629C10.2897 26.7629 10.2625 26.7493 10.2352 26.7356C10.1122 26.6418 9.9981 26.5368 9.8944 26.422V26.422C9.88075 26.3948 9.85345 26.3812 9.83979 26.3675C9.79896 26.3266 9.77166 26.2858 9.73083 26.2448C9.71717 26.2311 9.70352 26.2311 9.68987 26.2176L9.67622 26.204C9.62148 26.1615 9.5546 26.1376 9.48534 26.1358C9.40355 26.1358 9.33541 26.163 9.29445 26.2311C9.25587 26.2906 9.24014 26.3621 9.25018 26.4323C9.26022 26.5024 9.29535 26.5666 9.34906 26.6129C9.35087 26.6129 9.35266 26.6132 9.35433 26.6139C9.356 26.6145 9.35752 26.6155 9.35879 26.6168C9.36007 26.6181 9.36107 26.6196 9.36174 26.6213C9.36242 26.623 9.36275 26.6247 9.36272 26.6265C9.36272 26.6265 9.3899 26.6539 9.40355 26.6539C9.45198 26.6839 9.50208 26.7112 9.5536 26.7356L9.63613 26.7768C9.77265 26.8588 9.90917 26.9405 10.0178 27.0499C10.0451 27.0772 10.0724 27.1317 10.0587 27.1726V27.159L10.1405 27.2408C10.1269 27.2681 10.1132 27.2817 10.0997 27.309C9.67671 27.9766 9.49961 28.7673 9.62223 29.5444L9.51314 29.5716C9.51317 29.5734 9.51284 29.5752 9.51217 29.5769C9.51149 29.5785 9.51049 29.5801 9.50921 29.5813C9.50794 29.5826 9.50642 29.5836 9.50475 29.5843C9.50308 29.585 9.50129 29.5853 9.49948 29.5853C9.48583 29.6262 9.445 29.6534 9.40404 29.6807C9.25261 29.7223 9.09763 29.7497 8.94111 29.7625V29.7625C8.91315 29.7603 8.88508 29.765 8.85932 29.7761C8.80484 29.7761 8.75036 29.7898 8.69575 29.7898C8.6821 29.7898 8.66844 29.8034 8.64126 29.8034C8.62761 29.8034 8.62761 29.8034 8.61396 29.8171C8.57874 29.8227 8.54502 29.8354 8.5148 29.8544C8.48459 29.8734 8.45849 29.8982 8.43807 29.9274C8.41764 29.9567 8.40331 29.9897 8.39592 30.0246C8.38852 30.0595 8.38822 30.0956 8.39503 30.1306V30.1306C8.42233 30.2533 8.54508 30.3351 8.66807 30.3215C8.69166 30.3236 8.71537 30.3188 8.73633 30.3078V30.3078C8.74998 30.3078 8.74998 30.3078 8.74998 30.2941C8.74998 30.2805 8.79082 30.2941 8.80447 30.2941C8.85895 30.2805 8.91356 30.2533 8.95439 30.2397C8.9817 30.226 9.009 30.2124 9.03618 30.2124H9.04983C9.19548 30.1572 9.3461 30.1161 9.49961 30.0897H9.51326C9.55356 30.0886 9.5927 30.1033 9.62235 30.1306C9.62416 30.1305 9.62595 30.1309 9.62762 30.1315C9.62929 30.1322 9.63081 30.1332 9.63208 30.1345C9.63336 30.1358 9.63436 30.1373 9.63504 30.139C9.63571 30.1406 9.63604 30.1424 9.63601 30.1442V30.1442L9.75863 30.1306C9.96316 30.7577 10.3449 31.3167 10.8766 31.7256C10.9994 31.821 11.1083 31.9028 11.2447 31.9711L11.1766 32.0665C11.1766 32.0683 11.1769 32.0701 11.1775 32.0717C11.1782 32.0734 11.1792 32.0749 11.1805 32.0762C11.1817 32.0774 11.1832 32.0784 11.1849 32.0791C11.1866 32.0798 11.1883 32.0801 11.1901 32.08C11.2174 32.121 11.2174 32.1755 11.2038 32.2166C11.1493 32.3531 11.0672 32.4896 10.9857 32.612V32.6255C10.9721 32.6528 10.9584 32.6664 10.9311 32.6938C10.9038 32.7211 10.8766 32.7755 10.8357 32.8303C10.822 32.8439 10.822 32.8576 10.8085 32.8712C10.8085 32.873 10.8082 32.8748 10.8075 32.8765C10.8068 32.8781 10.8058 32.8796 10.8045 32.8809C10.8033 32.8822 10.8017 32.8832 10.8001 32.8838C10.7984 32.8845 10.7966 32.8848 10.7948 32.8848C10.7267 33.0213 10.7812 33.1847 10.9039 33.2529C10.9336 33.2682 10.966 33.2775 10.9994 33.2802C11.1083 33.2802 11.2038 33.212 11.2584 33.1166C11.2583 33.1148 11.2586 33.113 11.2593 33.1113C11.26 33.1097 11.261 33.1081 11.2622 33.1069C11.2635 33.1056 11.265 33.1046 11.2667 33.1039C11.2683 33.1032 11.2701 33.1029 11.2719 33.1029C11.2719 33.0893 11.2856 33.0756 11.2992 33.0621C11.3129 33.0075 11.3402 32.9667 11.3538 32.9121L11.381 32.8303C11.422 32.6803 11.4901 32.544 11.5582 32.4077C11.5846 32.3692 11.6229 32.3404 11.6673 32.3259C11.681 32.3259 11.681 32.3259 11.681 32.3122L11.7355 32.2032C12.1172 32.3531 12.5126 32.4213 12.9216 32.4213C13.17 32.423 13.4176 32.3908 13.6573 32.3255C13.8072 32.2982 13.9573 32.2437 14.0935 32.2028L14.148 32.2982C14.1617 32.2982 14.1617 32.2982 14.1617 32.3119C14.2061 32.3264 14.2444 32.3551 14.2708 32.3937C14.3389 32.5302 14.4073 32.6667 14.448 32.8156V32.8293L14.4753 32.9111C14.489 32.9657 14.5026 33.0202 14.5298 33.061C14.5434 33.0746 14.5434 33.0883 14.5571 33.1019C14.5571 33.1037 14.5574 33.1055 14.5581 33.1072C14.5587 33.1089 14.5597 33.1104 14.561 33.1117C14.5623 33.1129 14.5638 33.1139 14.5655 33.1146C14.5672 33.1153 14.5689 33.1156 14.5707 33.1156V33.1156C14.6254 33.2116 14.721 33.28 14.8301 33.28C14.871 33.28 14.8983 33.2664 14.9392 33.2527C14.9937 33.2255 15.0482 33.1709 15.0619 33.1028C15.0778 33.0348 15.073 32.9636 15.0482 32.8983V32.8983C15.0483 32.8965 15.0479 32.8947 15.0473 32.893C15.0466 32.8914 15.0456 32.8898 15.0444 32.8886C15.0431 32.8873 15.0416 32.8863 15.0399 32.8856C15.0383 32.8849 15.0365 32.8846 15.0347 32.8846C15.0347 32.8711 15.021 32.8574 15.0074 32.8438C14.9836 32.7932 14.9513 32.747 14.9119 32.7073C14.8983 32.6801 14.8846 32.6664 14.8574 32.6391V32.612C14.762 32.4892 14.6937 32.3528 14.6393 32.2166C14.6256 32.1756 14.6256 32.1211 14.6529 32.08C14.6529 32.0782 14.6532 32.0765 14.6539 32.0748C14.6546 32.0731 14.6556 32.0716 14.6568 32.0704C14.6581 32.0691 14.6596 32.0681 14.6613 32.0674C14.663 32.0668 14.6648 32.0665 14.6666 32.0665V32.0665L14.6256 31.9574C15.3206 31.5347 15.8527 30.8804 16.098 30.1033L16.2071 30.1169C16.2089 30.117 16.2107 30.1166 16.2124 30.116C16.2141 30.1153 16.2156 30.1143 16.2168 30.113C16.2181 30.1117 16.2191 30.1102 16.2197 30.1085C16.2204 30.1069 16.2207 30.1051 16.2207 30.1033C16.2504 30.076 16.2895 30.0614 16.3298 30.0624H16.3434C16.4925 30.0888 16.6386 30.1299 16.7797 30.1851H16.7933C16.8206 30.1987 16.8478 30.2124 16.8751 30.2124C16.9297 30.2397 16.9705 30.267 17.025 30.2805C17.0387 30.2805 17.0523 30.2941 17.0796 30.2941C17.0933 30.2941 17.0933 30.2941 17.1069 30.3078C17.1279 30.3188 17.1515 30.3236 17.1751 30.3215C17.2345 30.3206 17.2922 30.302 17.3409 30.268C17.3896 30.2339 17.4269 30.1861 17.4481 30.1306C17.4426 30.0631 17.4159 29.9991 17.3718 29.9477C17.3277 29.8963 17.2686 29.8601 17.2028 29.8443H17.2024ZM13.2623 29.4223L12.8941 29.5995L12.5262 29.4223L12.4307 29.0269L12.6892 28.6991H13.0988L13.3578 29.0263L13.2623 29.4223ZM15.4846 28.5362C15.5501 28.8175 15.5685 29.1077 15.5391 29.395L14.2438 29.0263C14.1212 28.9991 14.0531 28.8764 14.0803 28.7532C14.0901 28.7173 14.1089 28.6845 14.1349 28.6578L15.1573 27.7309C15.308 27.9802 15.4184 28.2518 15.4846 28.5356V28.5362ZM14.7483 27.2267L13.6304 28.0179C13.5349 28.0724 13.3987 28.0587 13.3305 27.9633C13.3172 27.9513 13.3066 27.9365 13.2996 27.9201C13.2925 27.9036 13.2891 27.8858 13.2896 27.8679L13.2078 26.491C13.8076 26.5592 14.3393 26.8182 14.7483 27.2271V27.2267ZM12.2807 26.5317L12.5537 26.4772L12.4856 27.8406C12.4856 27.9632 12.3765 28.0586 12.2539 28.0586C12.2129 28.0586 12.1856 28.045 12.1448 28.0313L11.0131 27.227C11.3672 26.8859 11.8036 26.6403 12.2807 26.5315V26.5317ZM10.6176 27.7315L11.6265 28.6312C11.7218 28.713 11.7355 28.8493 11.6537 28.9447C11.6265 28.9857 11.5992 28.9993 11.5446 29.013L10.2221 29.3944C10.1818 28.8127 10.3198 28.2326 10.6175 27.7312L10.6176 27.7315ZM10.3856 30.0351L11.7353 29.8034C11.8444 29.8034 11.9535 29.8716 11.9672 29.9807C11.9808 30.0215 11.9808 30.0761 11.9535 30.1172L11.4357 31.3711C10.9583 31.0577 10.5765 30.5805 10.3856 30.0351ZM13.4804 31.7256C13.2896 31.7666 13.0987 31.7939 12.8941 31.7939C12.6079 31.7939 12.308 31.7392 12.0353 31.6573L12.7034 30.4441C12.7715 30.3623 12.8806 30.335 12.9764 30.3895C13.016 30.4174 13.0525 30.4493 13.0854 30.4849L13.7398 31.671C13.6524 31.684 13.5657 31.7023 13.4804 31.7256V31.7256ZM15.1435 30.5396C14.9357 30.8702 14.6562 31.1497 14.3256 31.3575L13.7938 30.0761C13.7666 29.967 13.8211 29.8579 13.9166 29.8171C13.9575 29.8034 13.9984 29.7898 14.0393 29.7898L15.4027 30.0215C15.3345 30.2124 15.2527 30.3896 15.1436 30.5396H15.1435Z" fill="white"/>
</svg>
