<svg width="128" height="128" viewBox="0 0 128 128" fill="none" xmlns="http://www.w3.org/2000/svg">
<path d="M15 123.327H15.5905V124.523C15.5905 125.012 15.987 125.409 16.4762 125.409H17.6499V126H16.4762C15.6609 126 15 125.339 15 124.523V123.327ZM21.4644 125.409V126H19.1169V125.409H21.4644ZM25.2788 125.409V126H22.9314V125.409H25.2788ZM29.0933 125.409V126H26.7458V125.409H29.0933ZM32.9077 125.409V126H30.5605V125.409H32.9077ZM36.7222 125.409V126H34.375V125.409H36.7222ZM40.5367 125.409V126H38.1895V125.409H40.5367ZM44.3511 125.409V126H42.0039V125.409H44.3511ZM48.1656 125.409V126H45.8184V125.409H48.1656ZM51.9803 125.409V126H49.6328V125.409H51.9803ZM55.7948 125.409V126H53.4473V125.409H55.7948ZM59.6092 125.409V126H57.2617V125.409H59.6092ZM63.4237 125.409V126H61.0762V125.409H63.4237ZM67.2381 125.409V126H64.8906V125.409H67.2381ZM71.0526 125.409V126H68.7051V125.409H71.0526ZM74.867 125.409V126H72.5195V125.409H74.867ZM78.6815 125.409V126H76.3343V125.409H78.6815ZM82.4959 125.409V126H80.1487V125.409H82.4959ZM86.3104 125.409V126H83.9632V125.409H86.3104ZM90.1248 125.409V126H87.7776V125.409H90.1248ZM93.9396 125.409V126H91.5921V125.409H93.9396ZM97.754 125.409V126H95.4065V125.409H97.754ZM101.568 125.409V126H99.221V125.409H101.568ZM105.383 125.409V126H103.035V125.409H105.383ZM109.197 125.409V126H106.85V125.409H109.197ZM112.724 124.523V123.327H113.314V124.523C113.314 125.339 112.653 126 111.838 126H110.664V125.409H111.838C112.327 125.409 112.724 125.012 112.724 124.523ZM15.5905 119.439V121.832H15V119.439H15.5905ZM113.314 119.439V121.832H112.724V119.439H113.314ZM15.5905 115.552V117.944H15V115.552H15.5905ZM113.314 115.552V117.944H112.724V115.552H113.314ZM15.5905 111.664V114.057H15V111.664H15.5905ZM113.314 111.664V114.057H112.724V111.664H113.314ZM15.5905 107.777V110.169H15V107.777H15.5905ZM113.314 107.777V110.169H112.724V107.777H113.314ZM15.5905 103.889V106.281H15V103.889H15.5905ZM113.314 103.889V106.281H112.724V103.889H113.314ZM15.5905 100.001V102.394H15V100.001H15.5905ZM113.314 100.001V102.394H112.724V100.001H113.314ZM15.5905 96.1136V98.506H15V96.1136H15.5905ZM113.314 96.1136V98.506H112.724V96.1136H113.314ZM15.5905 92.2259V94.6183H15V92.2259H15.5905ZM113.314 92.2259V94.6183H112.724V92.2259H113.314ZM15.5905 88.3385V90.7309H15V88.3385H15.5905ZM113.314 88.3382V90.7309H112.724V88.3382H113.314ZM15.5905 84.4507V86.8431H15V84.4507H15.5905ZM113.314 84.4507V86.8431H112.724V84.4507H113.314ZM15.5905 80.563V82.9554H15V80.563H15.5905ZM113.314 80.563V82.9554H112.724V80.563H113.314ZM15.5905 76.6756V79.068H15V76.6756H15.5905ZM113.314 76.6753V79.068H112.724V76.6753H113.314ZM15.5905 72.7879V75.1802H15V72.7879H15.5905ZM113.314 72.7879V75.1802H112.724V72.7879H113.314ZM15.5905 68.9001V71.2925H15V68.9001H15.5905ZM113.314 68.9001V71.2925H112.724V68.9001H113.314ZM15.5905 65.0124V67.4051H15V65.0124H15.5905ZM113.314 65.0124V67.4051H112.724V65.0124H113.314ZM15.5905 61.125V63.5173H15V61.125H15.5905ZM113.314 61.125V63.5173H112.724V61.125H113.314ZM15.5905 57.2372V59.6296H15V57.2372H15.5905ZM113.314 57.2372V59.6296H112.724V57.2372H113.314ZM15.5905 53.3495V55.7422H15V53.3495H15.5905ZM113.314 53.3495V55.7419H112.724V53.3495H113.314ZM15.5905 49.4621V51.8545H15V49.4621H15.5905ZM113.314 49.4621V51.8545H112.724V49.4621H113.314ZM15.5905 45.5743V47.9667H15V45.5743H15.5905ZM113.314 45.5743V47.9667H112.724V45.5743H113.314ZM15.5905 41.6866V44.0793H15V41.6866H15.5905ZM113.314 41.6866V44.079H112.724V41.6866H113.314ZM15.5905 37.7992V40.1916H15V37.7992H15.5905ZM113.314 37.7992V40.1916H112.724V37.7992H113.314ZM15.5905 33.9115V36.3038H15V33.9115H15.5905ZM113.314 33.9115V36.3038H112.724V33.9115H113.314ZM15.5905 30.0237V32.4164H15V30.0237H15.5905ZM113.314 30.0237V32.4161H112.724V30.0237H113.314ZM15.5905 26.1363V28.5287H15V26.1363H15.5905ZM113.314 26.1363V28.5287H112.724V26.1363H113.314ZM15.5905 22.2486V24.6409H15V22.2486H15.5905ZM113.314 22.2486V24.6409H112.724V22.2486H113.314ZM15.5905 18.3608V20.7535H15V18.3608H15.5905ZM113.314 18.3608V20.7532H112.724V18.3608H113.314ZM15.5905 14.4734V16.8658H15V14.4734H15.5905ZM113.314 14.4734V16.8658H112.724V14.4734H113.314ZM15.5905 10.5857V12.9781H15V10.5857H15.5905ZM113.314 10.5857V12.9781H112.724V10.5857H113.314ZM15 7.89428C15 7.07894 15.6609 6.41797 16.4762 6.41797H17.5329V7.00849H16.4762C15.987 7.00849 15.5905 7.40508 15.5905 7.89428V9.09062H15V7.89428ZM112.724 7.89428C112.724 7.40508 112.327 7.00849 111.838 7.00849H110.692V6.41797H111.838C112.653 6.41797 113.314 7.07894 113.314 7.89428V9.09033H112.724V7.89428ZM20.9668 6.41797V7.00849H18.8534V6.41797H20.9668ZM23.3439 6.41797V7.00849H22.2872V6.41797H23.3439ZM53.3804 6.41797V7.00849H52.2343V6.41797H53.3804ZM57.1057 6.41797V7.00849H54.8133V6.41797H57.1057ZM60.8308 6.41797V7.00849H58.5384V6.41797H60.8308ZM64.5562 6.41797V7.00849H62.2638V6.41797H64.5562ZM68.2815 6.41797V7.00849H65.9888V6.41797H68.2815ZM72.0066 6.41797V7.00849H69.7142V6.41797H72.0066ZM75.732 6.41797V7.00849H73.4396V6.41797H75.732ZM79.4571 6.41797V7.00849H77.1646V6.41797H79.4571ZM83.1824 6.41797V7.00849H80.89V6.41797H83.1824ZM86.9075 6.41797V7.00849H84.6151V6.41797H86.9075ZM90.6329 6.41797V7.00849H88.3404V6.41797H90.6329ZM94.3582 6.41797V7.00849H92.0658V6.41797H94.3582ZM98.0833 6.41797V7.00849H95.7909V6.41797H98.0833ZM101.809 6.41797V7.00849H99.5162V6.41797H101.809ZM105.534 6.41797V7.00849H103.241V6.41797H105.534ZM109.259 6.41797V7.00849H106.967V6.41797H109.259Z" fill="#CBCBCB"/>
<path d="M49.1885 7.90341V5.46749H49.6544V5.86194H49.6636C49.7082 5.72815 49.7782 5.62435 49.8735 5.55053C49.9704 5.47518 50.0965 5.4375 50.2518 5.4375C50.2887 5.4375 50.3225 5.43904 50.3533 5.44211C50.384 5.44519 50.4094 5.4475 50.4294 5.44903V5.90346C50.4109 5.89885 50.3779 5.89423 50.3302 5.88962C50.2825 5.88347 50.2303 5.88039 50.1734 5.88039C50.0365 5.88039 49.9189 5.92807 49.8205 6.02341C49.7236 6.11876 49.6752 6.26562 49.6752 6.464V7.90341H49.1885Z" fill="black"/>
<path d="M47.6543 7.9568C47.4129 7.9568 47.2053 7.90221 47.0316 7.79302C46.8593 7.68384 46.7263 7.5339 46.6325 7.34321C46.5403 7.15098 46.4941 6.93261 46.4941 6.68809C46.4941 6.4405 46.5426 6.22059 46.6395 6.02836C46.7363 5.83613 46.8701 5.68543 47.0408 5.57624C47.2115 5.46552 47.4075 5.41016 47.629 5.41016C47.8596 5.41016 48.0595 5.46398 48.2287 5.57163C48.3993 5.67928 48.5316 5.82921 48.6254 6.02144C48.7192 6.21213 48.7661 6.43281 48.7661 6.68348V6.81496H46.9739C46.9831 7.03487 47.0462 7.21249 47.163 7.34782C47.2814 7.48315 47.4475 7.55081 47.6613 7.55081C47.8212 7.55081 47.9526 7.51467 48.0557 7.4424C48.1587 7.37012 48.2271 7.27631 48.261 7.16097H48.7292C48.7 7.31783 48.6346 7.45624 48.5331 7.57619C48.4332 7.69614 48.3071 7.78995 48.1549 7.85761C48.0042 7.92374 47.8373 7.9568 47.6543 7.9568ZM46.9785 6.44588H48.2909C48.271 6.25212 48.2025 6.0991 48.0857 5.98684C47.9688 5.87304 47.8181 5.81614 47.6336 5.81614C47.4491 5.81614 47.2984 5.87304 47.1815 5.98684C47.0662 6.0991 46.9985 6.25212 46.9785 6.44588Z" fill="black"/>
<path d="M46.27 5.46512V5.8665H45.7764V7.25746C45.7764 7.34819 45.7949 7.41124 45.8318 7.44662C45.8687 7.48199 45.9356 7.49967 46.0324 7.49967H46.27V7.90104H45.9632C45.5127 7.90104 45.2874 7.70728 45.2874 7.31974V5.8665H44.8584V5.46512H45.2874V4.80078H45.7764V5.46512H46.27Z" fill="black"/>
<path d="M43.6363 7.96461C43.4503 7.96461 43.2827 7.93462 43.1335 7.87465C42.9843 7.81467 42.8636 7.72548 42.7714 7.60707C42.6806 7.48865 42.6299 7.34179 42.6191 7.16648H43.0989C43.1266 7.44021 43.3026 7.57708 43.6271 7.57708C43.7809 7.57708 43.9024 7.54555 43.9915 7.4825C44.0823 7.41945 44.1276 7.33949 44.1276 7.2426C44.1276 7.15956 44.0953 7.09343 44.0307 7.04422C43.9662 6.99347 43.8816 6.95657 43.777 6.9335L43.3734 6.84354C42.9075 6.74204 42.6745 6.50983 42.6745 6.1469C42.6745 5.9316 42.7598 5.75629 42.9305 5.62096C43.1027 5.48563 43.328 5.41797 43.6063 5.41797C43.8816 5.41797 44.1076 5.48948 44.2845 5.6325C44.4628 5.77398 44.5551 5.96774 44.5613 6.21379H44.0953C44.0938 6.09538 44.0492 5.99773 43.9616 5.92084C43.8739 5.84241 43.7578 5.80319 43.6133 5.80319C43.4749 5.80319 43.3649 5.83549 43.2834 5.90008C43.2019 5.96467 43.1612 6.04386 43.1612 6.13767C43.1612 6.22072 43.1919 6.28761 43.2534 6.33836C43.3165 6.38911 43.4026 6.42678 43.5118 6.45139L43.927 6.54366C44.1638 6.59595 44.3383 6.67668 44.4505 6.78587C44.5628 6.89505 44.6189 7.03807 44.6189 7.21492C44.6189 7.37024 44.5759 7.50403 44.4898 7.61629C44.4052 7.72702 44.2891 7.81314 44.1415 7.87465C43.9938 7.93462 43.8255 7.96461 43.6363 7.96461Z" fill="black"/>
<path d="M40.9739 7.95702C40.8078 7.95702 40.6579 7.92088 40.5241 7.8486C40.3919 7.77479 40.2865 7.66637 40.2081 7.52335C40.1312 7.38033 40.0928 7.20271 40.0928 6.99049V5.47266H40.5795V6.93052C40.5795 7.12582 40.6264 7.27345 40.7202 7.37341C40.814 7.47183 40.9454 7.52104 41.1146 7.52104C41.2791 7.52104 41.4175 7.4703 41.5298 7.3688C41.6435 7.26576 41.7004 7.10122 41.7004 6.87516V5.47266H42.1871V7.90858H41.7097V7.5418C41.5436 7.81861 41.2983 7.95702 40.9739 7.95702Z" fill="black"/>
<path d="M39.5404 4.46094V7.89798H39.0537V4.46094H39.5404Z" fill="black"/>
<path d="M37.5756 7.9568C37.3434 7.9568 37.1396 7.90298 36.9644 7.79533C36.7906 7.68768 36.6553 7.53851 36.5584 7.34782C36.4615 7.15559 36.4131 6.93568 36.4131 6.68809C36.4131 6.43743 36.4615 6.21598 36.5584 6.02375C36.6568 5.83152 36.7929 5.68158 36.9667 5.57393C37.1404 5.46475 37.3434 5.41016 37.5756 5.41016C37.7693 5.41016 37.9423 5.4486 38.0946 5.52549C38.2483 5.60085 38.3729 5.70542 38.4682 5.83921C38.5636 5.973 38.6212 6.12602 38.6412 6.29825H38.1568C38.1322 6.16139 38.0707 6.04912 37.9723 5.96147C37.8739 5.87381 37.7424 5.82998 37.5779 5.82998C37.3672 5.82998 37.2027 5.90764 37.0843 6.06296C36.9659 6.21829 36.9067 6.42666 36.9067 6.68809C36.9067 6.94645 36.9659 7.15252 37.0843 7.3063C37.2027 7.46008 37.3672 7.53697 37.5779 7.53697C37.7455 7.53697 37.8747 7.49468 37.9654 7.4101C38.0561 7.32398 38.1176 7.20942 38.1499 7.0664H38.6412C38.6228 7.23556 38.5659 7.3878 38.4705 7.52313C38.3752 7.65692 38.2506 7.76303 38.0969 7.84146C37.9431 7.91835 37.7693 7.9568 37.5756 7.9568Z" fill="black"/>
<path d="M34.0072 3.90442C33.9566 3.7423 33.8351 3.61062 33.6831 3.52966L30.5942 2.05072C30.5133 2.01014 30.4221 2 30.341 2C30.26 2 30.1689 2 30.0878 2.02029L26.9989 3.50937C26.9227 3.54421 26.8557 3.59615 26.8029 3.66115C26.7501 3.72615 26.7131 3.80246 26.6946 3.88413L25.9346 7.21677C25.9197 7.30115 25.9218 7.38769 25.941 7.47122C25.9601 7.55475 25.9959 7.63358 26.0461 7.70302L28.1833 10.3468C28.3048 10.4684 28.477 10.5497 28.6492 10.5596H32.0525C32.2348 10.5798 32.4069 10.4988 32.5184 10.3468L34.6556 7.70302C34.7554 7.56183 34.7988 7.38835 34.7771 7.21677L34.0072 3.90442V3.90442Z" fill="#326DE6"/>
<path d="M33.5324 7.07708C33.5222 7.07708 33.5121 7.07708 33.5121 7.06694C33.5121 7.05679 33.4918 7.05716 33.4711 7.05716C33.4307 7.04702 33.3902 7.04702 33.3496 7.04702C33.3288 7.04862 33.308 7.04514 33.2888 7.03687H33.2787C33.1624 7.02644 33.0472 7.00611 32.9343 6.97611C32.9182 6.96995 32.9035 6.96045 32.8913 6.94823C32.8791 6.93601 32.8696 6.92134 32.8635 6.90519L32.7824 6.8849C32.8229 6.5912 32.8026 6.28726 32.7419 5.99356C32.6704 5.699 32.5506 5.41831 32.3874 5.16289L32.4486 5.10221V5.09207C32.4486 5.06164 32.4587 5.02115 32.4789 5.00087C32.5701 4.9199 32.6613 4.85913 32.7625 4.79799L32.8233 4.76766C32.8639 4.74737 32.8942 4.72708 32.9347 4.70689C32.9448 4.69674 32.955 4.69674 32.9651 4.6866C32.9752 4.67646 32.9651 4.67646 32.9651 4.66631C33.0562 4.59503 33.0765 4.47377 33.0056 4.38294C32.9883 4.36176 32.9668 4.34449 32.9423 4.33227C32.9179 4.32005 32.8911 4.31314 32.8639 4.31202C32.8124 4.31335 32.7627 4.33109 32.722 4.36265V4.36265L32.7119 4.37279C32.7018 4.38294 32.6916 4.39299 32.6815 4.39299C32.6511 4.42342 32.6207 4.45385 32.6004 4.48419C32.5904 4.50448 32.5701 4.51462 32.5599 4.52476C32.4853 4.60943 32.4002 4.68429 32.3067 4.74755C32.2865 4.7577 32.2662 4.76784 32.246 4.76784C32.2358 4.76784 32.2155 4.76784 32.2054 4.7577H32.1954L32.1143 4.80832C32.0333 4.72727 31.9421 4.6463 31.8611 4.56524C31.4863 4.27145 31.0204 4.08914 30.5443 4.03851L30.5342 3.95746V3.9676C30.5038 3.94731 30.4937 3.91698 30.4835 3.88654C30.4835 3.77515 30.4835 3.66366 30.5038 3.54212V3.53198C30.5038 3.51178 30.514 3.4915 30.514 3.47121C30.5241 3.43073 30.5241 3.39025 30.5342 3.34967V3.2889C30.5443 3.18747 30.4632 3.08603 30.362 3.07616C30.3012 3.06602 30.2405 3.09645 30.1899 3.14708C30.1708 3.16551 30.1556 3.18754 30.1452 3.21188C30.1348 3.23623 30.1292 3.26241 30.129 3.2889V3.2889V3.33953C30.129 3.3801 30.1391 3.42058 30.1493 3.46107C30.1575 3.48024 30.161 3.50112 30.1594 3.52193V3.53198C30.1793 3.64319 30.1793 3.75459 30.1793 3.87576C30.1692 3.90619 30.1591 3.93653 30.1286 3.95681V3.97719L30.1186 4.05825C30.0071 4.0683 29.8957 4.08859 29.7742 4.10887C29.2981 4.21031 28.8625 4.46335 28.5283 4.81791L28.4675 4.77743H28.4574C28.4473 4.77743 28.4372 4.78757 28.4169 4.78757C28.3966 4.78757 28.3764 4.77743 28.3561 4.76729C28.2647 4.69758 28.18 4.61957 28.1029 4.53426V4.53426C28.0928 4.51407 28.0725 4.50392 28.0624 4.49378C28.032 4.46335 28.0117 4.43301 27.9814 4.40258C27.9713 4.39243 27.9611 4.39243 27.951 4.38238L27.9408 4.37224C27.9002 4.34068 27.8505 4.32294 27.799 4.32161C27.7383 4.32161 27.6876 4.34181 27.6572 4.39243C27.6285 4.43663 27.6169 4.48972 27.6243 4.54187C27.6318 4.59402 27.6579 4.6417 27.6978 4.67609C27.6991 4.67606 27.7004 4.67631 27.7017 4.67681C27.7029 4.67731 27.7041 4.67806 27.705 4.679C27.706 4.67995 27.7067 4.68108 27.7072 4.68232C27.7077 4.68356 27.7079 4.68489 27.7079 4.68623C27.7079 4.68623 27.7281 4.70652 27.7383 4.70652C27.7742 4.72886 27.8115 4.74915 27.8497 4.76729L27.9111 4.7979C28.0125 4.85876 28.1139 4.91953 28.1946 5.00077C28.2149 5.02106 28.2352 5.06154 28.225 5.09198V5.08183L28.2858 5.1426C28.2756 5.16289 28.2655 5.17303 28.2554 5.19332C27.9412 5.68934 27.8096 6.27684 27.9007 6.85429L27.8197 6.87448C27.8197 6.87582 27.8195 6.87715 27.819 6.8784C27.8185 6.87964 27.8177 6.88077 27.8168 6.88171C27.8158 6.88266 27.8147 6.88341 27.8134 6.88391C27.8122 6.88441 27.8109 6.88465 27.8095 6.88463C27.7994 6.91506 27.7691 6.93525 27.7386 6.95554C27.6261 6.98644 27.511 7.00679 27.3947 7.01631V7.01631C27.3739 7.01471 27.3531 7.01819 27.3339 7.02645C27.2935 7.02645 27.253 7.0366 27.2124 7.0366C27.2023 7.0366 27.1921 7.04674 27.1719 7.04674C27.1618 7.04674 27.1618 7.04674 27.1516 7.05688C27.1255 7.0611 27.1004 7.07052 27.078 7.08461C27.0555 7.0987 27.0361 7.11716 27.021 7.13889C27.0058 7.16062 26.9951 7.18518 26.9896 7.2111C26.9842 7.23703 26.9839 7.2638 26.989 7.28982V7.28982C27.0093 7.38102 27.1005 7.44179 27.1918 7.43165C27.2094 7.43321 27.227 7.42969 27.2426 7.4215V7.4215C27.2527 7.4215 27.2527 7.4215 27.2527 7.41136C27.2527 7.40121 27.283 7.41136 27.2932 7.41136C27.3337 7.40121 27.3742 7.38102 27.4046 7.37088C27.4248 7.36073 27.4451 7.35059 27.4653 7.35059H27.4755C27.5837 7.30958 27.6956 7.27907 27.8096 7.25948H27.8198C27.8497 7.25864 27.8788 7.26953 27.9008 7.28982C27.9022 7.28979 27.9035 7.29004 27.9047 7.29054C27.906 7.29104 27.9071 7.29179 27.908 7.29273C27.909 7.29368 27.9097 7.29481 27.9102 7.29605C27.9107 7.29729 27.911 7.29862 27.911 7.29996V7.29996L28.0021 7.28982C28.154 7.75578 28.4376 8.17111 28.8327 8.47496C28.9239 8.54588 29.0048 8.60665 29.1061 8.65736L29.0555 8.72828C29.0555 8.7296 29.0557 8.73092 29.0562 8.73215C29.0567 8.73338 29.0575 8.7345 29.0584 8.73544C29.0594 8.73638 29.0605 8.73712 29.0617 8.73761C29.0629 8.73811 29.0643 8.73835 29.0656 8.73833C29.0859 8.76876 29.0859 8.80924 29.0757 8.83976C29.0352 8.9412 28.9743 9.04264 28.9137 9.13356V9.14361C28.9036 9.1639 28.8934 9.17404 28.8731 9.19433C28.8529 9.21462 28.8327 9.2551 28.8022 9.29576C28.7921 9.30591 28.7921 9.31605 28.782 9.3262C28.7821 9.32753 28.7818 9.32886 28.7813 9.33009C28.7808 9.33133 28.7801 9.33245 28.7791 9.33339C28.7782 9.33433 28.777 9.33507 28.7758 9.33556C28.7746 9.33605 28.7732 9.33628 28.7719 9.33625C28.7213 9.43768 28.7618 9.55913 28.8529 9.60976C28.875 9.62115 28.8991 9.62805 28.9239 9.63004C29.0048 9.63004 29.0757 9.57942 29.1163 9.5085C29.1163 9.50717 29.1165 9.50584 29.117 9.5046C29.1175 9.50336 29.1182 9.50223 29.1191 9.50128C29.1201 9.50033 29.1212 9.49958 29.1224 9.49908C29.1237 9.49858 29.125 9.49833 29.1263 9.49836C29.1263 9.48822 29.1365 9.47807 29.1466 9.46802C29.1568 9.42745 29.1771 9.39711 29.1872 9.35653L29.2074 9.29576C29.2378 9.18437 29.2884 9.08303 29.3391 8.98177C29.3587 8.95315 29.3871 8.93179 29.4201 8.921C29.4303 8.921 29.4303 8.921 29.4303 8.91086L29.4707 8.8298C29.7544 8.9412 30.0481 8.99192 30.352 8.99192C30.5365 8.99316 30.7204 8.96921 30.8986 8.92073C31.0099 8.90044 31.1214 8.85996 31.2227 8.82953L31.2631 8.90044C31.2733 8.90044 31.2733 8.90044 31.2733 8.91058C31.3063 8.92135 31.3348 8.94271 31.3543 8.97135C31.405 9.07279 31.4558 9.17423 31.486 9.28488V9.29503L31.5063 9.3558C31.5164 9.39637 31.5266 9.43685 31.5468 9.46719C31.5569 9.47734 31.5569 9.48748 31.5671 9.49762C31.567 9.49896 31.5673 9.50029 31.5678 9.50153C31.5683 9.50278 31.569 9.5039 31.57 9.50485C31.5709 9.5058 31.572 9.50654 31.5733 9.50705C31.5745 9.50755 31.5759 9.50779 31.5772 9.50777V9.50777C31.6178 9.57914 31.6889 9.62995 31.7699 9.62995C31.8002 9.62995 31.8205 9.61981 31.851 9.60966C31.8914 9.58947 31.9319 9.54889 31.9421 9.49827C31.9539 9.44773 31.9504 9.39481 31.9319 9.3463V9.3463C31.932 9.34496 31.9317 9.34364 31.9312 9.34239C31.9307 9.34115 31.93 9.34002 31.9291 9.33907C31.9281 9.33813 31.927 9.33738 31.9258 9.33688C31.9245 9.33637 31.9232 9.33613 31.9219 9.33615C31.9219 9.3261 31.9117 9.31596 31.9016 9.30582C31.8839 9.26821 31.8599 9.23391 31.8307 9.20438C31.8205 9.18418 31.8104 9.17404 31.7902 9.15375V9.13356C31.7193 9.04236 31.6686 8.94101 31.6281 8.83976C31.618 8.80933 31.618 8.76885 31.6382 8.73833C31.6382 8.73699 31.6385 8.73567 31.639 8.73443C31.6395 8.73319 31.6402 8.73207 31.6412 8.73113C31.6421 8.73019 31.6432 8.72945 31.6445 8.72896C31.6457 8.72847 31.647 8.72824 31.6484 8.72828V8.72828L31.618 8.64722C32.1343 8.33314 32.5296 7.84698 32.7119 7.26953L32.7929 7.27968C32.7943 7.2797 32.7956 7.27946 32.7968 7.27895C32.7981 7.27845 32.7992 7.2777 32.8001 7.27676C32.8011 7.27581 32.8018 7.27468 32.8023 7.27344C32.8028 7.2722 32.803 7.27087 32.803 7.26953C32.8251 7.24929 32.8541 7.23841 32.884 7.23919H32.8942C33.005 7.25881 33.1135 7.28933 33.2183 7.3303H33.2284C33.2487 7.34044 33.2689 7.35059 33.2892 7.35059C33.3298 7.37088 33.3601 7.39116 33.4006 7.40121C33.4107 7.40121 33.4209 7.41136 33.4412 7.41136C33.4513 7.41136 33.4513 7.41136 33.4614 7.4215C33.477 7.4297 33.4946 7.43322 33.5121 7.43165C33.5562 7.43103 33.5991 7.41719 33.6353 7.3919C33.6715 7.36662 33.6992 7.33105 33.7149 7.28982C33.7108 7.23968 33.691 7.19212 33.6582 7.15392C33.6255 7.11572 33.5815 7.08883 33.5326 7.07708H33.5324ZM30.6051 6.76355L30.3316 6.89523L30.0582 6.76355L29.9873 6.46975L30.1793 6.22622H30.4836L30.6761 6.46929L30.6051 6.76355ZM32.2561 6.10514C32.3048 6.31414 32.3185 6.52978 32.2966 6.74326L31.3343 6.46929C31.2432 6.4491 31.1926 6.3579 31.2128 6.26642C31.2201 6.23973 31.2341 6.21534 31.2534 6.19551L32.013 5.50676C32.1249 5.69205 32.207 5.89383 32.2561 6.10468V6.10514ZM31.7091 5.13218L30.8785 5.72005C30.8076 5.76053 30.7064 5.75039 30.6558 5.67947C30.6459 5.67055 30.638 5.6596 30.6328 5.64735C30.6275 5.63511 30.625 5.62188 30.6253 5.60856L30.5646 4.58553C31.0102 4.63616 31.4052 4.82861 31.7091 5.13246V5.13218ZM29.8758 4.61578L30.0787 4.5753L30.028 5.58827C30.028 5.67938 29.947 5.7503 29.8559 5.7503C29.8255 5.7503 29.8052 5.74015 29.7748 5.73001L28.9341 5.13237C29.1972 4.87896 29.5214 4.69647 29.8758 4.61559V4.61578ZM28.6402 5.50722L29.3898 6.17577C29.4606 6.23654 29.4707 6.3378 29.41 6.40871C29.3898 6.43914 29.3695 6.44928 29.3289 6.45943L28.3464 6.7428C28.3165 6.3106 28.419 5.87955 28.6401 5.50703L28.6402 5.50722ZM28.4679 7.21891L29.4706 7.04674C29.5517 7.04674 29.6327 7.09737 29.6429 7.17842C29.653 7.20876 29.653 7.24934 29.6327 7.27986L29.2481 8.2116C28.8933 7.97866 28.6097 7.6241 28.4679 7.21891ZM30.7672 8.47496C30.6253 8.50539 30.4835 8.52568 30.3316 8.52568C30.1189 8.52568 29.8961 8.48511 29.6935 8.42424L30.1899 7.52275C30.2405 7.46198 30.3215 7.4417 30.3927 7.48218C30.4221 7.5029 30.4493 7.52667 30.4737 7.55309L30.9599 8.43439C30.8949 8.44409 30.8305 8.45764 30.7672 8.47496V8.47496ZM32.0027 7.59376C31.8483 7.83936 31.6407 8.04706 31.3951 8.20145L31 7.24934C30.9798 7.16828 31.0203 7.08722 31.0912 7.05688C31.1216 7.04674 31.1519 7.0366 31.1824 7.0366L32.1953 7.20876C32.1446 7.35059 32.0839 7.48227 32.0028 7.59376H32.0027Z" fill="white"/>
</svg>
