<svg width="128" height="128" viewBox="0 0 128 128" fill="none" xmlns="http://www.w3.org/2000/svg">
<path d="M24.251 5.53535C24.251 4.97864 24.7023 4.52734 25.259 4.52734H101.867C102.424 4.52734 102.875 4.97864 102.875 5.53534V125.739C102.875 126.296 102.424 126.747 101.867 126.747H25.259C24.7023 126.747 24.251 126.296 24.251 125.739V5.53535Z" fill="#F9F9F9"/>
<path d="M24 125.739V5.53539C24 4.83951 24.5641 4.27539 25.26 4.27539H26.4649V4.77939H25.26C24.8425 4.77939 24.504 5.11786 24.504 5.53539V125.739C24.504 126.157 24.8425 126.495 25.26 126.495H101.868C102.286 126.495 102.624 126.157 102.624 125.739V5.53539C102.624 5.11787 102.286 4.77939 101.868 4.77939H50.5469V4.27539H101.868C102.564 4.27539 103.128 4.83951 103.128 5.53539V125.739C103.128 126.435 102.564 126.999 101.868 126.999H25.26C24.5641 126.999 24 126.435 24 125.739Z" fill="#CBCBCB"/>
<path d="M47.8916 6.04014V3.96114H48.2893V4.2978H48.2972C48.3352 4.18361 48.3949 4.09502 48.4763 4.03202C48.559 3.9677 48.6666 3.93555 48.7992 3.93555C48.8307 3.93555 48.8596 3.93686 48.8858 3.93948C48.9121 3.94211 48.9337 3.94408 48.9508 3.94539V4.33323C48.935 4.3293 48.9068 4.32536 48.8661 4.32142C48.8254 4.31617 48.7808 4.31355 48.7323 4.31355C48.6154 4.31355 48.515 4.35423 48.431 4.43561C48.3484 4.51698 48.307 4.64233 48.307 4.81164V6.04014H47.8916Z" fill="black"/>
<path d="M46.5806 6.08756C46.3746 6.08756 46.1974 6.04097 46.0491 5.94778C45.9021 5.85459 45.7885 5.72663 45.7085 5.56388C45.6297 5.39981 45.5903 5.21344 45.5903 5.00475C45.5903 4.79344 45.6317 4.60575 45.7144 4.44169C45.7971 4.27763 45.9112 4.149 46.0569 4.05581C46.2026 3.96131 46.37 3.91406 46.559 3.91406C46.7558 3.91406 46.9265 3.96 47.0708 4.05188C47.2165 4.14375 47.3294 4.27172 47.4095 4.43578C47.4895 4.59853 47.5296 4.78688 47.5296 5.00081V5.11303H45.9998C46.0077 5.30072 46.0615 5.45231 46.1613 5.56781C46.2623 5.68331 46.4041 5.74106 46.5865 5.74106C46.723 5.74106 46.8352 5.71022 46.9232 5.64853C47.0111 5.58684 47.0695 5.50678 47.0984 5.40834H47.4981C47.4731 5.54222 47.4173 5.66034 47.3307 5.76272C47.2454 5.86509 47.1378 5.94516 47.0078 6.00291C46.8792 6.05934 46.7368 6.08756 46.5806 6.08756ZM46.0038 4.79803H47.124C47.1069 4.63266 47.0485 4.50206 46.9488 4.40625C46.849 4.30913 46.7204 4.26056 46.5629 4.26056C46.4054 4.26056 46.2768 4.30913 46.177 4.40625C46.0786 4.50206 46.0208 4.63266 46.0038 4.79803Z" fill="black"/>
<path d="M45.4021 3.96153V4.30409H44.9808V5.49125C44.9808 5.56869 44.9966 5.6225 45.0281 5.65269C45.0596 5.68287 45.1167 5.69797 45.1994 5.69797H45.4021V6.04053H45.1403C44.7557 6.04053 44.5635 5.87515 44.5635 5.5444V4.30409H44.1973V3.96153H44.5635V3.39453H44.9808V3.96153H45.4021Z" fill="black"/>
<path d="M43.1509 6.08952C42.9921 6.08952 42.8491 6.06392 42.7217 6.01273C42.5944 5.96155 42.4914 5.88542 42.4127 5.78436C42.3352 5.6833 42.2919 5.55795 42.2827 5.40833H42.6922C42.7158 5.64195 42.8661 5.75877 43.1431 5.75877C43.2743 5.75877 43.378 5.73186 43.4541 5.67805C43.5316 5.62423 43.5703 5.55598 43.5703 5.4733C43.5703 5.40242 43.5427 5.34598 43.4876 5.30398C43.4325 5.26067 43.3603 5.22917 43.271 5.20948L42.9265 5.1327C42.5288 5.04608 42.33 4.84789 42.33 4.53814C42.33 4.35439 42.4028 4.20477 42.5485 4.08927C42.6955 3.97377 42.8878 3.91602 43.1253 3.91602C43.3603 3.91602 43.5532 3.97705 43.7042 4.09911C43.8564 4.21986 43.9352 4.38523 43.9404 4.59523H43.5427C43.5414 4.49417 43.5033 4.41083 43.4285 4.3452C43.3537 4.27827 43.2546 4.2448 43.1312 4.2448C43.0131 4.2448 42.9193 4.27236 42.8497 4.32748C42.7802 4.38261 42.7454 4.4502 42.7454 4.53027C42.7454 4.60114 42.7716 4.65823 42.8241 4.70155C42.8779 4.74486 42.9514 4.77702 43.0446 4.79802L43.399 4.87677C43.6011 4.92139 43.7501 4.9903 43.8459 5.08348C43.9417 5.17667 43.9896 5.29873 43.9896 5.44967C43.9896 5.58223 43.9529 5.69642 43.8794 5.79223C43.8072 5.88673 43.7081 5.96023 43.5821 6.01273C43.4561 6.06392 43.3124 6.08952 43.1509 6.08952Z" fill="black"/>
<path d="M40.8785 6.08128C40.7368 6.08128 40.6088 6.05044 40.4946 5.98875C40.3817 5.92575 40.2918 5.83322 40.2249 5.71116C40.1593 5.58909 40.1265 5.4375 40.1265 5.25638V3.96094H40.5419V5.20519C40.5419 5.37188 40.5819 5.49788 40.662 5.58319C40.742 5.66719 40.8542 5.70919 40.9986 5.70919C41.1391 5.70919 41.2572 5.66588 41.353 5.57925C41.4501 5.49131 41.4987 5.35088 41.4987 5.15794V3.96094H41.9141V6.03994H41.5066V5.72691C41.3648 5.96316 41.1555 6.08128 40.8785 6.08128Z" fill="black"/>
<path d="M39.6556 3.10742V6.04086H39.2402V3.10742H39.6556Z" fill="black"/>
<path d="M37.9752 6.08756C37.777 6.08756 37.6031 6.04163 37.4534 5.94975C37.3051 5.85788 37.1896 5.73056 37.1069 5.56781C37.0243 5.40375 36.9829 5.21606 36.9829 5.00475C36.9829 4.79081 37.0243 4.60181 37.1069 4.43775C37.1909 4.27369 37.3071 4.14572 37.4554 4.05384C37.6037 3.96066 37.777 3.91406 37.9752 3.91406C38.1405 3.91406 38.2882 3.94688 38.4181 4.0125C38.5494 4.07681 38.6557 4.16606 38.7371 4.28025C38.8184 4.39444 38.8677 4.52503 38.8847 4.67203H38.4713C38.4503 4.55522 38.3978 4.45941 38.3138 4.38459C38.2298 4.30978 38.1176 4.27238 37.9771 4.27238C37.7973 4.27238 37.6569 4.33866 37.5558 4.47122C37.4548 4.60378 37.4042 4.78163 37.4042 5.00475C37.4042 5.22525 37.4548 5.40113 37.5558 5.53238C37.6569 5.66363 37.7973 5.72925 37.9771 5.72925C38.1202 5.72925 38.2304 5.69316 38.3079 5.62097C38.3853 5.54747 38.4378 5.44969 38.4654 5.32763H38.8847C38.869 5.472 38.8204 5.60194 38.739 5.71744C38.6577 5.83163 38.5513 5.92219 38.4201 5.98913C38.2888 6.05475 38.1405 6.08756 37.9752 6.08756Z" fill="black"/>
<path d="M34.6781 2.62537C34.6348 2.48701 34.5311 2.37463 34.4014 2.30553L31.7649 1.04329C31.6958 1.00866 31.6179 1 31.5487 1C31.4796 1 31.4018 1 31.3326 1.01731L28.6961 2.28821C28.6311 2.31794 28.5738 2.36227 28.5288 2.41775C28.4837 2.47323 28.4521 2.53836 28.4363 2.60806L27.7877 5.45239C27.7749 5.52441 27.7767 5.59826 27.7931 5.66955C27.8094 5.74085 27.84 5.80812 27.8828 5.86739L29.707 8.1238C29.8107 8.22761 29.9577 8.29695 30.1047 8.30537H33.0095C33.1651 8.32268 33.3121 8.2535 33.4072 8.1238L35.2314 5.86739C35.3167 5.74689 35.3537 5.59882 35.3351 5.45239L34.6781 2.62537V2.62537Z" fill="#326DE6"/>
<path d="M34.2742 5.34017C34.2656 5.34017 34.2569 5.34017 34.2569 5.33152C34.2569 5.32286 34.2396 5.32317 34.222 5.32317C34.1874 5.31452 34.1529 5.31452 34.1182 5.31452C34.1005 5.31588 34.0827 5.31291 34.0664 5.30586H34.0577C33.9584 5.29695 33.8601 5.2796 33.7638 5.254C33.75 5.24874 33.7375 5.24064 33.7271 5.23021C33.7166 5.21977 33.7085 5.20726 33.7033 5.19347L33.6341 5.17616C33.6687 4.92549 33.6514 4.66608 33.5995 4.41541C33.5385 4.16401 33.4363 3.92445 33.297 3.70646L33.3491 3.65467V3.64601C33.3491 3.62004 33.3578 3.58549 33.375 3.56818C33.4529 3.49908 33.5307 3.44721 33.6171 3.39503L33.669 3.36914C33.7036 3.35182 33.7295 3.33451 33.7641 3.31727C33.7727 3.30861 33.7814 3.30861 33.79 3.29996C33.7987 3.2913 33.79 3.2913 33.79 3.28264C33.8678 3.2218 33.8851 3.11831 33.8246 3.04079C33.8099 3.02272 33.7915 3.00798 33.7706 2.99754C33.7497 2.98711 33.7269 2.98122 33.7036 2.98026C33.6597 2.9814 33.6173 2.99654 33.5826 3.02347V3.02347L33.5739 3.03213C33.5653 3.04079 33.5566 3.04937 33.5479 3.04937C33.5221 3.07534 33.4961 3.10131 33.4788 3.1272C33.4702 3.14452 33.4529 3.15318 33.4442 3.16183C33.3805 3.23409 33.3079 3.29798 33.2281 3.35198C33.2108 3.36064 33.1935 3.36929 33.1762 3.36929C33.1676 3.36929 33.1503 3.36929 33.1416 3.36064H33.133L33.0638 3.40384C32.9947 3.33466 32.9168 3.26556 32.8477 3.19638C32.5278 2.94564 32.1301 2.79004 31.7238 2.74683L31.7151 2.67765V2.68631C31.6892 2.66899 31.6806 2.6431 31.6719 2.61713C31.6719 2.52206 31.6719 2.4269 31.6892 2.32317V2.31452C31.6892 2.29728 31.6979 2.27997 31.6979 2.26265C31.7065 2.2281 31.7065 2.19355 31.7151 2.15892V2.10705C31.7238 2.02048 31.6546 1.93391 31.5682 1.92549C31.5163 1.91683 31.4644 1.9428 31.4212 1.98601C31.405 2.00174 31.392 2.02054 31.3831 2.04132C31.3742 2.0621 31.3695 2.08444 31.3693 2.10705V2.10705V2.15026C31.3693 2.18489 31.3779 2.21944 31.3866 2.25399C31.3936 2.27035 31.3966 2.28818 31.3953 2.30594V2.31452C31.4123 2.40943 31.4123 2.50451 31.4123 2.60792C31.4036 2.63389 31.3949 2.65979 31.369 2.6771V2.69449L31.3604 2.76367C31.2652 2.77225 31.1702 2.78957 31.0664 2.80688C30.6601 2.89346 30.2883 3.10942 30.003 3.41203L29.9511 3.37748H29.9425C29.9339 3.37748 29.9252 3.38614 29.9079 3.38614C29.8906 3.38614 29.8734 3.37748 29.8561 3.36882C29.7781 3.30933 29.7057 3.24275 29.6399 3.16994V3.16994C29.6313 3.1527 29.614 3.14405 29.6053 3.13539C29.5794 3.10942 29.5621 3.08352 29.5362 3.05755C29.5276 3.04889 29.5189 3.04889 29.5102 3.04032L29.5016 3.03166C29.4669 3.00472 29.4245 2.98958 29.3805 2.98845C29.3287 2.98845 29.2855 3.00569 29.2595 3.04889C29.235 3.08662 29.2251 3.13192 29.2314 3.17643C29.2378 3.22094 29.2601 3.26164 29.2941 3.29098C29.2953 3.29096 29.2964 3.29117 29.2975 3.2916C29.2985 3.29203 29.2995 3.29266 29.3003 3.29347C29.3011 3.29428 29.3017 3.29524 29.3022 3.2963C29.3026 3.29736 29.3028 3.2985 29.3028 3.29964C29.3028 3.29964 29.32 3.31696 29.3287 3.31696C29.3594 3.33602 29.3912 3.35334 29.4238 3.36882L29.4762 3.39495C29.5627 3.4469 29.6493 3.49876 29.7182 3.5681C29.7355 3.58541 29.7528 3.61996 29.7442 3.64594V3.63728L29.796 3.68914C29.7874 3.70646 29.7787 3.71512 29.7701 3.73243C29.5019 4.15577 29.3896 4.65719 29.4674 5.15003L29.3982 5.16726C29.3982 5.16841 29.398 5.16954 29.3976 5.1706C29.3971 5.17166 29.3965 5.17263 29.3957 5.17343C29.3949 5.17424 29.3939 5.17488 29.3929 5.17531C29.3918 5.17573 29.3907 5.17594 29.3895 5.17592C29.3809 5.20189 29.355 5.21913 29.329 5.23644C29.233 5.26282 29.1347 5.28018 29.0354 5.28831V5.28831C29.0177 5.28695 28.9999 5.28992 28.9836 5.29697C28.949 5.29697 28.9145 5.30562 28.8798 5.30562C28.8712 5.30562 28.8625 5.31428 28.8453 5.31428C28.8366 5.31428 28.8366 5.31428 28.828 5.32294C28.8056 5.32653 28.7843 5.33458 28.7651 5.3466C28.7459 5.35863 28.7294 5.37438 28.7164 5.39292C28.7035 5.41147 28.6944 5.43243 28.6897 5.45456C28.685 5.47669 28.6848 5.49954 28.6891 5.52174V5.52174C28.7065 5.59958 28.7843 5.65145 28.8623 5.64279C28.8772 5.64413 28.8923 5.64112 28.9056 5.63413V5.63413C28.9142 5.63413 28.9142 5.63413 28.9142 5.62547C28.9142 5.61682 28.9401 5.62547 28.9488 5.62547C28.9833 5.61682 29.018 5.59958 29.0439 5.59092C29.0612 5.58227 29.0785 5.57361 29.0957 5.57361H29.1044C29.1967 5.53861 29.2922 5.51257 29.3896 5.49585H29.3983C29.4238 5.49513 29.4486 5.50442 29.4674 5.52174C29.4686 5.52172 29.4697 5.52193 29.4708 5.52236C29.4718 5.52279 29.4728 5.52342 29.4736 5.52423C29.4744 5.52504 29.475 5.526 29.4755 5.52706C29.4759 5.52812 29.4761 5.52926 29.4761 5.5304V5.5304L29.5538 5.52174C29.6836 5.91943 29.9256 6.27391 30.2628 6.53323C30.3406 6.59376 30.4097 6.64562 30.4962 6.68891L30.453 6.74943C30.453 6.75056 30.4532 6.75169 30.4536 6.75274C30.4541 6.75379 30.4547 6.75474 30.4555 6.75554C30.4563 6.75635 30.4573 6.75698 30.4583 6.7574C30.4594 6.75782 30.4605 6.75803 30.4616 6.75801C30.4789 6.78398 30.4789 6.81853 30.4703 6.84458C30.4357 6.93116 30.3837 7.01773 30.332 7.09533V7.10391C30.3233 7.12122 30.3147 7.12988 30.2974 7.1472C30.28 7.16451 30.2628 7.19906 30.2368 7.23377C30.2282 7.24243 30.2282 7.25108 30.2196 7.25974C30.2196 7.26088 30.2194 7.26201 30.219 7.26307C30.2186 7.26412 30.2179 7.26508 30.2171 7.26588C30.2163 7.26669 30.2153 7.26732 30.2143 7.26773C30.2132 7.26815 30.2121 7.26835 30.2109 7.26832C30.1677 7.35489 30.2023 7.45854 30.2801 7.50175C30.2989 7.51148 30.3195 7.51737 30.3406 7.51907C30.4097 7.51907 30.4703 7.47586 30.5049 7.41534C30.5049 7.4142 30.5051 7.41306 30.5055 7.41201C30.5059 7.41095 30.5065 7.40998 30.5073 7.40917C30.5081 7.40836 30.5091 7.40772 30.5101 7.4073C30.5112 7.40687 30.5123 7.40666 30.5135 7.40668C30.5135 7.39802 30.5221 7.38936 30.5308 7.38079C30.5394 7.34616 30.5568 7.32026 30.5654 7.28563L30.5827 7.23377C30.6086 7.1387 30.6518 7.0522 30.695 6.96579C30.7118 6.94136 30.7361 6.92313 30.7642 6.91392C30.7729 6.91392 30.7729 6.91392 30.7729 6.90526L30.8074 6.83608C31.0495 6.93116 31.3003 6.97444 31.5596 6.97444C31.7172 6.97551 31.8741 6.95506 32.0261 6.91368C32.1212 6.89637 32.2164 6.86182 32.3028 6.83585L32.3373 6.89637C32.346 6.89637 32.346 6.89637 32.346 6.90503C32.3741 6.91421 32.3985 6.93245 32.4152 6.95689C32.4584 7.04347 32.5017 7.13004 32.5276 7.22448V7.23314L32.5449 7.285C32.5535 7.31963 32.5622 7.35418 32.5794 7.38008C32.5881 7.38874 32.5881 7.39739 32.5967 7.40605C32.5967 7.40719 32.5969 7.40833 32.5974 7.40939C32.5978 7.41045 32.5984 7.41141 32.5992 7.41222C32.6 7.41303 32.601 7.41366 32.6021 7.41409C32.6031 7.41452 32.6043 7.41473 32.6054 7.41471V7.41471C32.64 7.47562 32.7007 7.51899 32.7699 7.51899C32.7958 7.51899 32.8131 7.51033 32.8391 7.50167C32.8736 7.48444 32.9082 7.44981 32.9168 7.4066C32.9269 7.36347 32.9239 7.3183 32.9082 7.2769V7.2769C32.9082 7.27576 32.908 7.27463 32.9076 7.27357C32.9072 7.27251 32.9065 7.27154 32.9057 7.27073C32.9049 7.26992 32.904 7.26929 32.9029 7.26886C32.9019 7.26843 32.9007 7.26822 32.8996 7.26824C32.8996 7.25966 32.8909 7.251 32.8823 7.24235C32.8672 7.21025 32.8467 7.18098 32.8218 7.15577C32.8131 7.13854 32.8044 7.12988 32.7872 7.11257V7.09533C32.7267 7.01749 32.6834 6.931 32.6488 6.84458C32.6402 6.81861 32.6402 6.78406 32.6575 6.75801C32.6575 6.75687 32.6577 6.75574 32.6581 6.75468C32.6585 6.75363 32.6592 6.75267 32.66 6.75187C32.6608 6.75106 32.6618 6.75044 32.6628 6.75002C32.6639 6.7496 32.665 6.7494 32.6662 6.74943V6.74943L32.6402 6.68025C33.0809 6.41219 33.4183 5.99727 33.5739 5.50443L33.6431 5.51309C33.6442 5.51311 33.6454 5.5129 33.6464 5.51247C33.6475 5.51204 33.6484 5.5114 33.6492 5.51059C33.65 5.50978 33.6507 5.50882 33.6511 5.50776C33.6515 5.5067 33.6517 5.50557 33.6517 5.50443C33.6705 5.48715 33.6953 5.47787 33.7209 5.47853H33.7295C33.8241 5.49528 33.9167 5.52132 34.0062 5.55629H34.0148C34.0321 5.56495 34.0494 5.57361 34.0667 5.57361C34.1013 5.59092 34.1272 5.60824 34.1618 5.61682C34.1704 5.61682 34.1791 5.62547 34.1964 5.62547C34.205 5.62547 34.205 5.62547 34.2137 5.63413C34.227 5.64113 34.242 5.64413 34.2569 5.64279C34.2946 5.64227 34.3312 5.63045 34.3621 5.60887C34.3929 5.58729 34.4166 5.55694 34.4301 5.52174C34.4265 5.47895 34.4096 5.43836 34.3817 5.40576C34.3537 5.37316 34.3162 5.3502 34.2745 5.34017H34.2742ZM31.7756 5.07258L31.5422 5.18497L31.3088 5.07258L31.2483 4.82184L31.4123 4.61398H31.672L31.8362 4.82144L31.7756 5.07258ZM33.1849 4.51064C33.2265 4.68902 33.2381 4.87307 33.2194 5.05527L32.3981 4.82144C32.3203 4.80421 32.2771 4.72637 32.2944 4.6483C32.3006 4.62552 32.3125 4.6047 32.329 4.58777L32.9774 3.99994C33.0729 4.15809 33.1429 4.3303 33.1849 4.51025V4.51064ZM32.718 3.68025L32.0091 4.18198C31.9485 4.21653 31.8621 4.20787 31.8189 4.14735C31.8105 4.13974 31.8038 4.13039 31.7993 4.11994C31.7948 4.10949 31.7927 4.09819 31.7929 4.08683L31.7411 3.2137C32.1215 3.25691 32.4586 3.42116 32.718 3.68049V3.68025ZM31.1532 3.23951L31.3263 3.20496L31.2831 4.06951C31.2831 4.14727 31.2139 4.2078 31.1362 4.2078C31.1102 4.2078 31.0929 4.19914 31.067 4.19048L30.3494 3.68041C30.5739 3.46413 30.8506 3.30838 31.1532 3.23936V3.23951ZM30.0986 4.00033L30.7383 4.57093C30.7988 4.6228 30.8074 4.70921 30.7556 4.76974C30.7383 4.79571 30.721 4.80436 30.6864 4.81302L29.8477 5.05488C29.8222 4.686 29.9097 4.31811 30.0985 4.00018L30.0986 4.00033ZM29.9515 5.46122L30.8074 5.31428C30.8765 5.31428 30.9457 5.35749 30.9544 5.42667C30.963 5.45256 30.963 5.48719 30.9457 5.51324L30.6174 6.30846C30.3146 6.10965 30.0725 5.80704 29.9515 5.46122ZM31.914 6.53323C31.7929 6.55921 31.6719 6.57652 31.5422 6.57652C31.3607 6.57652 31.1705 6.54189 30.9976 6.48995L31.4212 5.72055C31.4644 5.66868 31.5336 5.65137 31.5944 5.68592C31.6195 5.7036 31.6426 5.72389 31.6635 5.74644L32.0785 6.4986C32.023 6.50689 31.9681 6.51845 31.914 6.53323V6.53323ZM32.9686 5.78115C32.8368 5.99076 32.6596 6.16803 32.45 6.2998L32.1127 5.48719C32.0955 5.41801 32.13 5.34883 32.1906 5.32294C32.2165 5.31428 32.2424 5.30562 32.2684 5.30562L33.1329 5.45256C33.0897 5.57361 33.0379 5.686 32.9687 5.78115H32.9686Z" fill="white"/>
</svg>
