<svg width="128" height="128" viewBox="0 0 128 128" fill="none" xmlns="http://www.w3.org/2000/svg">
<path d="M2 107.469H2.55758V108.607C2.55758 109.054 2.909 109.419 3.35092 109.442L3.39394 109.443H4.51944V110.001H3.39394C2.62409 110.001 2 109.376 2 108.607V107.469ZM8.17744 109.443V110.001H5.92644V109.443H8.17744ZM11.8354 109.443V110.001H9.58445V109.443H11.8354ZM15.4937 109.443V110.001H13.2424V109.443H15.4937ZM19.1517 109.443V110.001H16.9004V109.443H19.1517ZM22.8097 109.443V110.001H20.5585V109.443H22.8097ZM26.4677 109.443V110.001H24.2167V109.443H26.4677ZM30.1257 109.443V110.001H27.8747V109.443H30.1257ZM33.7837 109.443V110.001H31.5327V109.443H33.7837ZM37.4417 109.443V110.001H35.1907V109.443H37.4417ZM41.0997 109.443V110.001H38.8487V109.443H41.0997ZM44.758 109.443V110.001H42.5067V109.443H44.758ZM48.416 109.443V110.001H46.1647V109.443H48.416ZM52.074 109.443V110.001H49.8227V109.443H52.074ZM55.732 109.443V110.001H53.4807V109.443H55.732ZM59.39 109.443V110.001H57.139V109.443H59.39ZM63.048 109.443V110.001H60.797V109.443H63.048ZM66.706 109.443V110.001H64.455V109.443H66.706ZM70.364 109.443V110.001H68.113V109.443H70.364ZM74.022 109.443V110.001H71.771V109.443H74.022ZM77.6803 109.443V110.001H75.429V109.443H77.6803ZM81.3383 109.443V110.001H79.087V109.443H81.3383ZM84.9963 109.443V110.001H82.745V109.443H84.9963ZM88.6543 109.443V110.001H86.4033V109.443H88.6543ZM92.3123 109.443V110.001H90.0613V109.443H92.3123ZM95.9703 109.443V110.001H93.7193V109.443H95.9703ZM99.6283 109.443V110.001H97.3773V109.443H99.6283ZM103.286 109.443V110.001H101.035V109.443H103.286ZM106.945 109.443V110.001H104.693V109.443H106.945ZM110.603 109.443V110.001H108.351V109.443H110.603ZM114.261 109.443V110.001H112.009V109.443H114.261ZM117.919 109.443V110.001H115.668V109.443H117.919ZM121.577 109.443V110.001H119.326V109.443H121.577ZM124.945 108.607V107.469H125.503V108.607C125.503 109.376 124.879 110.001 124.109 110.001H122.984V109.443H124.109C124.571 109.443 124.945 109.069 124.945 108.607ZM2.55758 103.772V106.047H2V103.772H2.55758ZM125.503 103.772V106.047H124.945V103.772H125.503ZM2.55758 100.075V102.35H2V100.075H2.55758ZM125.503 100.075V102.35H124.945V100.075H125.503ZM2.55758 96.3782V98.6532H2V96.3782H2.55758ZM125.503 96.3779V98.6532H124.945V96.3779H125.503ZM2.55758 92.681V94.9562H2V92.681H2.55758ZM125.503 92.681V94.9562H124.945V92.681H125.503ZM2.55758 88.984V91.2593H2V88.984H2.55758ZM125.503 88.984V91.2593H124.945V88.984H125.503ZM2.55758 85.287V87.562H2V85.287H2.55758ZM125.503 85.287V87.562H124.945V85.287H125.503ZM2.55758 81.5901V83.8651H2V81.5901H2.55758ZM125.503 81.5901V83.8651H124.945V81.5901H125.503ZM2.55758 77.8931V80.1681H2V77.8931H2.55758ZM125.503 77.8931V80.1681H124.945V77.8931H125.503ZM2.55758 74.1962V76.4711H2V74.1962H2.55758ZM125.503 74.1962V76.4711H124.945V74.1962H125.503ZM2.55758 70.4992V72.7742H2V70.4992H2.55758ZM125.503 70.4989V72.7742H124.945V70.4989H125.503ZM2.55758 66.802V69.0772H2V66.802H2.55758ZM125.503 66.802V69.0772H124.945V66.802H125.503ZM2.55758 63.105V65.3802H2V63.105H2.55758ZM125.503 63.105V65.3802H124.945V63.105H125.503ZM2.55758 59.408V61.6833H2V59.408H2.55758ZM125.503 59.408V61.683H124.945V59.408H125.503ZM2.55758 55.7111V57.986H2V55.7111H2.55758ZM125.503 55.7111V57.986H124.945V55.7111H125.503ZM2.55758 52.0141V54.2891H2V52.0141H2.55758ZM125.503 52.0141V54.2891H124.945V52.0141H125.503ZM2.55758 48.3171V50.5921H2V48.3171H2.55758ZM125.503 48.3171V50.5921H124.945V48.3171H125.503ZM2.55758 44.6202V46.8951H2V44.6202H2.55758ZM125.503 44.6202V46.8951H124.945V44.6202H125.503ZM2.55758 40.9229V43.1982H2V40.9229H2.55758ZM125.503 40.9229V43.1982H124.945V40.9229H125.503ZM2.55758 37.226V39.5012H2V37.226H2.55758ZM125.503 37.226V39.5012H124.945V37.226H125.503ZM2.55758 33.529V35.8042H2V33.529H2.55758ZM125.503 33.529V35.804H124.945V33.529H125.503ZM2.55758 29.832V32.107H2V29.832H2.55758ZM125.503 29.832V32.107H124.945V29.832H125.503ZM2.55758 26.1351V28.41H2V26.1351H2.55758ZM125.503 26.1351V28.41H124.945V26.1351H125.503ZM2 23.5756C2 22.8057 2.62409 22.1816 3.39394 22.1816H4.39175V22.7392H3.39394C2.93203 22.7392 2.55758 23.1137 2.55758 23.5756V24.7131H2V23.5756ZM124.945 23.5756C124.945 23.1137 124.571 22.7392 124.109 22.7392H122.994V22.1816H124.109C124.879 22.1816 125.503 22.8057 125.503 23.5756V24.7131H124.945V23.5756ZM7.63429 22.1816V22.7392H5.63867V22.1816H7.63429ZM9.87902 22.1816V22.7392H8.88121V22.1816H9.87902ZM38.2743 22.1816V22.7392H37.1597V22.1816H38.2743ZM41.8972 22.1816V22.7392H39.6677V22.1816H41.8972ZM45.52 22.1816V22.7392H43.2906V22.1816H45.52ZM49.1429 22.1816V22.7392H46.9134V22.1816H49.1429ZM52.7658 22.1816V22.7392H50.5363V22.1816H52.7658ZM56.3887 22.1816V22.7392H54.1592V22.1816H56.3887ZM60.0118 22.1816V22.7392H57.7824V22.1816H60.0118ZM63.6347 22.1816V22.7392H61.4052V22.1816H63.6347ZM67.2576 22.1816V22.7392H65.0281V22.1816H67.2576ZM70.8805 22.1816V22.7392H68.651V22.1816H70.8805ZM74.5034 22.1816V22.7392H72.2739V22.1816H74.5034ZM78.1262 22.1816V22.7392H75.8968V22.1816H78.1262ZM81.7491 22.1816V22.7392H79.5196V22.1816H81.7491ZM85.372 22.1816V22.7392H83.1425V22.1816H85.372ZM88.9949 22.1816V22.7392H86.7654V22.1816H88.9949ZM92.6178 22.1816V22.7392H90.3883V22.1816H92.6178ZM96.2406 22.1816V22.7392H94.0112V22.1816H96.2406ZM99.8635 22.1816V22.7392H97.634V22.1816H99.8635ZM103.486 22.1816V22.7392H101.257V22.1816H103.486ZM107.109 22.1816V22.7392H104.88V22.1816H107.109ZM110.732 22.1816V22.7392H108.503V22.1816H110.732ZM114.355 22.1816V22.7392H112.126V22.1816H114.355ZM117.978 22.1816V22.7392H115.748V22.1816H117.978ZM121.601 22.1816V22.7392H119.371V22.1816H121.601Z" fill="#CBCBCB"/>
<path d="M34.2822 23.5725V21.2725H34.7222V21.6449H34.7309C34.773 21.5186 34.8391 21.4206 34.9291 21.3509C35.0206 21.2797 35.1396 21.2441 35.2863 21.2441C35.3211 21.2441 35.3531 21.2456 35.3821 21.2485C35.4112 21.2514 35.4351 21.2536 35.454 21.255V21.6841C35.4366 21.6798 35.4054 21.6754 35.3604 21.671C35.3153 21.6652 35.266 21.6623 35.2122 21.6623C35.083 21.6623 34.9719 21.7073 34.879 21.7974C34.7875 21.8874 34.7418 22.0261 34.7418 22.2134V23.5725H34.2822Z" fill="black"/>
<path d="M32.8363 23.6292C32.6083 23.6292 32.4123 23.5776 32.2482 23.4745C32.0856 23.3714 31.96 23.2299 31.8714 23.0498C31.7843 22.8683 31.7407 22.6621 31.7407 22.4312C31.7407 22.1975 31.7865 21.9898 31.8779 21.8083C31.9694 21.6268 32.0957 21.4845 32.2569 21.3814C32.4181 21.2769 32.6032 21.2246 32.8123 21.2246C33.0301 21.2246 33.2189 21.2754 33.3786 21.3771C33.5398 21.4787 33.6646 21.6203 33.7532 21.8018C33.8418 21.9818 33.8861 22.1902 33.8861 22.4269V22.551H32.1938C32.2025 22.7587 32.262 22.9264 32.3724 23.0542C32.4842 23.1819 32.641 23.2458 32.8428 23.2458C32.9938 23.2458 33.118 23.2117 33.2152 23.1435C33.3125 23.0752 33.3771 22.9867 33.4091 22.8777H33.8512C33.8236 23.0259 33.7619 23.1565 33.6661 23.2698C33.5717 23.3831 33.4527 23.4716 33.3089 23.5355C33.1666 23.598 33.0091 23.6292 32.8363 23.6292ZM32.1981 22.2026H33.4374C33.4185 22.0196 33.3539 21.8751 33.2436 21.7691C33.1332 21.6617 32.9909 21.6079 32.8167 21.6079C32.6424 21.6079 32.5001 21.6617 32.3898 21.7691C32.2809 21.8751 32.217 22.0196 32.1981 22.2026Z" fill="black"/>
<path d="M31.5268 21.2738V21.6527H31.0607V22.9661C31.0607 23.0518 31.0781 23.1113 31.113 23.1447C31.1478 23.1781 31.211 23.1948 31.3025 23.1948H31.5268V23.5738H31.2371C30.8117 23.5738 30.599 23.3908 30.599 23.0249V21.6527H30.1938V21.2738H30.599V20.6465H31.0607V21.2738H31.5268Z" fill="black"/>
<path d="M29.0411 23.6292C28.8654 23.6292 28.7071 23.6009 28.5663 23.5442C28.4254 23.4876 28.3114 23.4034 28.2243 23.2916C28.1386 23.1798 28.0907 23.0411 28.0806 22.8756H28.5336C28.5597 23.134 28.726 23.2633 29.0324 23.2633C29.1776 23.2633 29.2923 23.2335 29.3765 23.174C29.4622 23.1144 29.505 23.0389 29.505 22.9474C29.505 22.869 29.4745 22.8066 29.4135 22.7601C29.3525 22.7122 29.2727 22.6774 29.1739 22.6556L28.7928 22.5706C28.3528 22.4748 28.1328 22.2556 28.1328 21.9129C28.1328 21.7096 28.2134 21.5441 28.3746 21.4163C28.5372 21.2885 28.7499 21.2246 29.0128 21.2246C29.2727 21.2246 29.4861 21.2921 29.6531 21.4272C29.8215 21.5608 29.9087 21.7437 29.9145 21.976H29.4745C29.4731 21.8642 29.4309 21.772 29.3482 21.6994C29.2654 21.6254 29.1558 21.5883 29.0193 21.5883C28.8886 21.5883 28.7848 21.6188 28.7078 21.6798C28.6309 21.7408 28.5924 21.8156 28.5924 21.9042C28.5924 21.9826 28.6214 22.0457 28.6795 22.0937C28.7391 22.1416 28.8204 22.1771 28.9235 22.2004L29.3155 22.2875C29.5391 22.3369 29.7039 22.4131 29.8099 22.5162C29.9159 22.6193 29.9689 22.7543 29.9689 22.9213C29.9689 23.068 29.9283 23.1943 29.8469 23.3003C29.7671 23.4048 29.6575 23.4861 29.5181 23.5442C29.3787 23.6009 29.2197 23.6292 29.0411 23.6292Z" fill="black"/>
<path d="M26.5278 23.629C26.371 23.629 26.2294 23.5948 26.1031 23.5266C25.9782 23.4569 25.8788 23.3545 25.8047 23.2195C25.7321 23.0844 25.6958 22.9167 25.6958 22.7164V21.2832H26.1554V22.6597C26.1554 22.8441 26.1997 22.9835 26.2882 23.0779C26.3768 23.1708 26.5009 23.2173 26.6607 23.2173C26.816 23.2173 26.9467 23.1694 27.0527 23.0736C27.1602 22.9763 27.2139 22.8209 27.2139 22.6075V21.2832H27.6735V23.5832H27.2226V23.2369C27.0658 23.4983 26.8342 23.629 26.5278 23.629Z" fill="black"/>
<path d="M25.1729 20.3262V23.5715H24.7134V20.3262H25.1729Z" fill="black"/>
<path d="M23.315 23.6292C23.0958 23.6292 22.9034 23.5784 22.7378 23.4767C22.5738 23.3751 22.446 23.2342 22.3545 23.0542C22.263 22.8727 22.2173 22.665 22.2173 22.4312C22.2173 22.1946 22.263 21.9855 22.3545 21.804C22.4474 21.6225 22.5759 21.4809 22.74 21.3793C22.9041 21.2762 23.0958 21.2246 23.315 21.2246C23.498 21.2246 23.6613 21.2609 23.8051 21.3335C23.9503 21.4047 24.0679 21.5034 24.1579 21.6297C24.2479 21.7561 24.3024 21.9005 24.3213 22.0632H23.8639C23.8406 21.9339 23.7826 21.8279 23.6896 21.7452C23.5967 21.6624 23.4726 21.621 23.3172 21.621C23.1183 21.621 22.9629 21.6943 22.8511 21.841C22.7393 21.9877 22.6834 22.1844 22.6834 22.4312C22.6834 22.6752 22.7393 22.8698 22.8511 23.015C22.9629 23.1602 23.1183 23.2328 23.3172 23.2328C23.4755 23.2328 23.5974 23.1928 23.6831 23.113C23.7688 23.0317 23.8268 22.9235 23.8573 22.7884H24.3213C24.3038 22.9482 24.2501 23.0919 24.1601 23.2197C24.0701 23.346 23.9524 23.4462 23.8072 23.5203C23.662 23.5929 23.498 23.6292 23.315 23.6292Z" fill="black"/>
<path d="M19.947 19.7982C19.8992 19.6451 19.7845 19.5208 19.641 19.4443L16.7242 18.0479C16.6477 18.0096 16.5616 18 16.4851 18C16.4085 18 16.3225 18 16.246 18.0192L13.3292 19.4252C13.2573 19.4581 13.1939 19.5071 13.1441 19.5685C13.0943 19.6298 13.0593 19.7019 13.0418 19.779L12.3242 22.9257C12.3101 23.0054 12.3121 23.0871 12.3302 23.166C12.3483 23.2449 12.3821 23.3193 12.4295 23.3848L14.4476 25.8811C14.5623 25.996 14.7249 26.0727 14.8875 26.082H18.1012C18.2733 26.1012 18.4359 26.0246 18.5411 25.8811L20.5592 23.3848C20.6535 23.2515 20.6945 23.0877 20.674 22.9257L19.947 19.7982V19.7982Z" fill="#326DE6"/>
<path d="M19.5001 22.7913C19.4905 22.7913 19.4809 22.7913 19.4809 22.7817C19.4809 22.7721 19.4618 22.7725 19.4423 22.7725C19.404 22.7629 19.3658 22.7629 19.3275 22.7629C19.3079 22.7644 19.2882 22.7611 19.2701 22.7533H19.2606C19.1507 22.7434 19.0419 22.7242 18.9354 22.6959C18.9201 22.6901 18.9063 22.6811 18.8948 22.6696C18.8832 22.6581 18.8743 22.6442 18.8685 22.629L18.792 22.6098C18.8302 22.3325 18.811 22.0455 18.7536 21.7682C18.6861 21.4901 18.573 21.225 18.4189 20.9839L18.4767 20.9266V20.917C18.4767 20.8883 18.4863 20.85 18.5053 20.8309C18.5914 20.7544 18.6775 20.6971 18.7731 20.6393L18.8305 20.6107C18.8688 20.5915 18.8975 20.5724 18.9357 20.5533C18.9453 20.5437 18.9549 20.5437 18.9644 20.5341C18.974 20.5246 18.9644 20.5246 18.9644 20.515C19.0505 20.4477 19.0696 20.3332 19.0027 20.2474C18.9864 20.2274 18.966 20.2111 18.9429 20.1996C18.9199 20.188 18.8946 20.1815 18.8688 20.1805C18.8202 20.1817 18.7733 20.1985 18.7349 20.2283V20.2283L18.7253 20.2378C18.7158 20.2474 18.7062 20.2569 18.6966 20.2569C18.668 20.2856 18.6392 20.3144 18.6201 20.343C18.6106 20.3622 18.5914 20.3718 18.5819 20.3813C18.5114 20.4613 18.431 20.532 18.3428 20.5917C18.3236 20.6013 18.3045 20.6109 18.2854 20.6109C18.2758 20.6109 18.2567 20.6109 18.2471 20.6013H18.2376L18.161 20.6491C18.0845 20.5725 17.9984 20.4961 17.922 20.4196C17.568 20.1422 17.1281 19.97 16.6785 19.9222L16.6689 19.8457V19.8553C16.6403 19.8361 16.6307 19.8075 16.6211 19.7787C16.6211 19.6735 16.6211 19.5683 16.6403 19.4535V19.4439C16.6403 19.4249 16.6499 19.4057 16.6499 19.3866C16.6595 19.3483 16.6595 19.3101 16.6689 19.2718V19.2144C16.6785 19.1186 16.602 19.0229 16.5064 19.0136C16.449 19.004 16.3916 19.0327 16.3438 19.0805C16.3259 19.0979 16.3115 19.1187 16.3017 19.1417C16.2918 19.1647 16.2866 19.1894 16.2864 19.2144V19.2144V19.2622C16.2864 19.3005 16.2959 19.3388 16.3055 19.377C16.3133 19.3951 16.3166 19.4148 16.3151 19.4345V19.4439C16.3339 19.5489 16.3339 19.6541 16.3339 19.7685C16.3243 19.7973 16.3147 19.8259 16.286 19.8451V19.8643L16.2765 19.9408C16.1713 19.9503 16.0661 19.9695 15.9513 19.9887C15.5018 20.0844 15.0905 20.3233 14.7748 20.6581L14.7175 20.6199H14.7079C14.6984 20.6199 14.6888 20.6295 14.6697 20.6295C14.6505 20.6295 14.6314 20.6199 14.6123 20.6103C14.526 20.5445 14.4459 20.4709 14.3732 20.3903V20.3903C14.3636 20.3712 14.3445 20.3617 14.3349 20.3521C14.3062 20.3233 14.2871 20.2947 14.2584 20.266C14.2489 20.2564 14.2393 20.2564 14.2297 20.2469L14.2201 20.2373C14.1817 20.2075 14.1348 20.1908 14.0862 20.1895C14.0288 20.1895 13.981 20.2086 13.9523 20.2564C13.9252 20.2981 13.9142 20.3482 13.9212 20.3975C13.9283 20.4467 13.9529 20.4917 13.9906 20.5242C13.9919 20.5242 13.9931 20.5244 13.9943 20.5249C13.9955 20.5254 13.9965 20.5261 13.9974 20.527C13.9983 20.5279 13.999 20.5289 13.9995 20.5301C14 20.5313 14.0002 20.5325 14.0002 20.5338C14.0002 20.5338 14.0193 20.553 14.0288 20.553C14.0628 20.574 14.098 20.5932 14.1341 20.6103L14.192 20.6392C14.2878 20.6967 14.3835 20.7541 14.4597 20.8308C14.4789 20.8499 14.498 20.8882 14.4885 20.9169V20.9073L14.5458 20.9647C14.5363 20.9839 14.5267 20.9934 14.5172 21.0126C14.2205 21.4809 14.0962 22.0357 14.1822 22.5809L14.1057 22.6C14.1057 22.6012 14.1055 22.6025 14.105 22.6037C14.1046 22.6048 14.1039 22.6059 14.103 22.6068C14.1021 22.6077 14.101 22.6084 14.0998 22.6089C14.0987 22.6093 14.0974 22.6096 14.0961 22.6095C14.0866 22.6383 14.0579 22.6573 14.0292 22.6765C13.9229 22.7057 13.8142 22.7249 13.7044 22.7339V22.7339C13.6848 22.7324 13.6651 22.7357 13.647 22.7435C13.6088 22.7435 13.5706 22.753 13.5323 22.753C13.5227 22.753 13.5131 22.7626 13.494 22.7626C13.4845 22.7626 13.4845 22.7626 13.4749 22.7722C13.4502 22.7762 13.4265 22.7851 13.4053 22.7984C13.3841 22.8117 13.3658 22.8291 13.3515 22.8496C13.3372 22.8701 13.3271 22.8933 13.3219 22.9178C13.3167 22.9423 13.3165 22.9676 13.3213 22.9921V22.9921C13.3405 23.0782 13.4266 23.1356 13.5129 23.126C13.5294 23.1275 13.546 23.1242 13.5607 23.1165V23.1165C13.5703 23.1165 13.5703 23.1165 13.5703 23.1069C13.5703 23.0973 13.599 23.1069 13.6085 23.1069C13.6468 23.0973 13.6851 23.0782 13.7137 23.0687C13.7329 23.0591 13.752 23.0495 13.7711 23.0495H13.7807C13.8829 23.0108 13.9885 22.982 14.0962 22.9635H14.1058C14.1341 22.9627 14.1615 22.973 14.1823 22.9921C14.1836 22.9921 14.1849 22.9923 14.186 22.9928C14.1872 22.9933 14.1883 22.994 14.1892 22.9949C14.1901 22.9958 14.1908 22.9968 14.1912 22.998C14.1917 22.9992 14.1919 23.0004 14.1919 23.0017V23.0017L14.2779 22.9921C14.4214 23.4321 14.6892 23.8243 15.0623 24.1112C15.1484 24.1781 15.2248 24.2355 15.3205 24.2834L15.2727 24.3503C15.2727 24.3516 15.2729 24.3528 15.2734 24.354C15.2738 24.3552 15.2745 24.3562 15.2754 24.3571C15.2763 24.358 15.2774 24.3587 15.2785 24.3591C15.2797 24.3596 15.2809 24.3598 15.2822 24.3598C15.3013 24.3886 15.3013 24.4268 15.2918 24.4556C15.2535 24.5514 15.196 24.6472 15.1388 24.733V24.7425C15.1292 24.7617 15.1196 24.7712 15.1005 24.7904C15.0813 24.8095 15.0623 24.8478 15.0335 24.8862C15.0239 24.8957 15.0239 24.9053 15.0145 24.9149C15.0145 24.9162 15.0142 24.9174 15.0138 24.9186C15.0133 24.9197 15.0126 24.9208 15.0117 24.9217C15.0108 24.9226 15.0097 24.9233 15.0086 24.9237C15.0074 24.9242 15.0061 24.9244 15.0049 24.9244C14.9571 25.0202 14.9953 25.1348 15.0814 25.1826C15.1022 25.1934 15.125 25.1999 15.1484 25.2018C15.2248 25.2018 15.2918 25.154 15.3301 25.087C15.33 25.0858 15.3303 25.0845 15.3307 25.0833C15.3312 25.0822 15.3319 25.0811 15.3328 25.0802C15.3337 25.0793 15.3347 25.0786 15.3359 25.0781C15.3371 25.0777 15.3383 25.0774 15.3396 25.0775C15.3396 25.0679 15.3491 25.0583 15.3587 25.0488C15.3683 25.0105 15.3875 24.9819 15.397 24.9435L15.4161 24.8862C15.4448 24.781 15.4926 24.6853 15.5404 24.5897C15.5589 24.5627 15.5858 24.5425 15.617 24.5323C15.6265 24.5323 15.6265 24.5323 15.6265 24.5227L15.6648 24.4462C15.9326 24.5514 16.21 24.5993 16.4969 24.5993C16.6712 24.6004 16.8448 24.5778 17.013 24.532C17.1182 24.5129 17.2235 24.4747 17.3191 24.4459L17.3573 24.5129C17.3669 24.5129 17.3669 24.5129 17.3669 24.5225C17.398 24.5326 17.4249 24.5528 17.4434 24.5798C17.4912 24.6756 17.5392 24.7714 17.5678 24.8759V24.8855L17.5869 24.9428C17.5965 24.9812 17.6061 25.0194 17.6251 25.048C17.6347 25.0576 17.6347 25.0672 17.6443 25.0768C17.6443 25.078 17.6445 25.0793 17.645 25.0805C17.6454 25.0816 17.6462 25.0827 17.647 25.0836C17.6479 25.0845 17.649 25.0852 17.6502 25.0857C17.6513 25.0861 17.6526 25.0864 17.6539 25.0863V25.0863C17.6922 25.1537 17.7593 25.2017 17.8358 25.2017C17.8645 25.2017 17.8836 25.1921 17.9124 25.1825C17.9506 25.1635 17.9888 25.1252 17.9984 25.0774C18.0096 25.0296 18.0062 24.9797 17.9888 24.9339V24.9339C17.9889 24.9326 17.9886 24.9314 17.9882 24.9302C17.9877 24.929 17.987 24.928 17.9861 24.9271C17.9852 24.9262 17.9842 24.9255 17.983 24.925C17.9818 24.9245 17.9806 24.9243 17.9793 24.9243C17.9793 24.9148 17.9698 24.9052 17.9602 24.8957C17.9435 24.8601 17.9208 24.8278 17.8932 24.7999C17.8836 24.7808 17.8741 24.7712 17.855 24.7521V24.733C17.788 24.6469 17.7402 24.5512 17.7019 24.4556C17.6924 24.4269 17.6924 24.3886 17.7115 24.3598C17.7115 24.3586 17.7117 24.3573 17.7122 24.3561C17.7127 24.355 17.7134 24.3539 17.7143 24.353C17.7152 24.3521 17.7162 24.3514 17.7174 24.351C17.7186 24.3505 17.7198 24.3503 17.7211 24.3503V24.3503L17.6924 24.2738C18.1799 23.9772 18.5532 23.5182 18.7253 22.973L18.8019 22.9826C18.8031 22.9826 18.8044 22.9823 18.8056 22.9819C18.8067 22.9814 18.8078 22.9807 18.8087 22.9798C18.8096 22.9789 18.8103 22.9778 18.8107 22.9767C18.8112 22.9755 18.8114 22.9742 18.8114 22.973C18.8322 22.9539 18.8596 22.9436 18.8879 22.9443H18.8975C19.0021 22.9628 19.1046 22.9917 19.2035 23.0304H19.2131C19.2323 23.0399 19.2513 23.0495 19.2705 23.0495C19.3088 23.0687 19.3374 23.0878 19.3757 23.0973C19.3852 23.0973 19.3948 23.1069 19.414 23.1069C19.4236 23.1069 19.4236 23.1069 19.4331 23.1165C19.4478 23.1242 19.4644 23.1275 19.4809 23.126C19.5226 23.1255 19.5631 23.1124 19.5973 23.0885C19.6314 23.0646 19.6576 23.0311 19.6725 22.9921C19.6686 22.9448 19.6499 22.8999 19.6189 22.8638C19.588 22.8277 19.5465 22.8024 19.5003 22.7913H19.5001ZM16.7359 22.4952L16.4777 22.6196L16.2195 22.4952L16.1525 22.2178L16.3339 21.9879H16.6212L16.8029 22.2174L16.7359 22.4952ZM18.295 21.8735C18.341 22.0709 18.3539 22.2745 18.3332 22.4761L17.4245 22.2174C17.3385 22.1983 17.2907 22.1122 17.3098 22.0258C17.3167 22.0006 17.3299 21.9776 17.3481 21.9589L18.0654 21.3085C18.1711 21.4835 18.2486 21.674 18.295 21.8731V21.8735ZM17.7785 20.9549L16.9941 21.5099C16.9272 21.5482 16.8316 21.5386 16.7838 21.4716C16.7744 21.4632 16.767 21.4529 16.7621 21.4413C16.7571 21.4297 16.7547 21.4172 16.7551 21.4047L16.6977 20.4387C17.1185 20.4865 17.4915 20.6682 17.7785 20.9551V20.9549ZM16.0473 20.4673L16.2388 20.4291L16.191 21.3855C16.191 21.4715 16.1145 21.5385 16.0285 21.5385C15.9997 21.5385 15.9806 21.5289 15.9519 21.5193L15.158 20.955C15.4064 20.7158 15.7126 20.5435 16.0473 20.4671V20.4673ZM14.8805 21.309L15.5883 21.9402C15.6552 21.9976 15.6648 22.0932 15.6074 22.1602C15.5883 22.1889 15.5692 22.1985 15.5309 22.2081L14.603 22.4756C14.5748 22.0675 14.6716 21.6605 14.8805 21.3088L14.8805 21.309ZM14.7178 22.9252L15.6647 22.7626C15.7412 22.7626 15.8178 22.8104 15.8273 22.8869C15.8369 22.9156 15.8369 22.9539 15.8178 22.9827L15.4545 23.8625C15.1195 23.6425 14.8517 23.3078 14.7178 22.9252ZM16.889 24.1112C16.7551 24.1399 16.6211 24.159 16.4777 24.159C16.2769 24.159 16.0664 24.1207 15.8751 24.0633L16.3438 23.2121C16.3916 23.1547 16.4682 23.1355 16.5354 23.1738C16.5631 23.1933 16.5888 23.2158 16.6118 23.2407L17.0709 24.0728C17.0096 24.082 16.9488 24.0948 16.889 24.1112V24.1112ZM18.0557 23.2791C17.9099 23.511 17.7138 23.7071 17.4819 23.8529L17.1088 22.9539C17.0897 22.8774 17.128 22.8008 17.1949 22.7722C17.2237 22.7626 17.2523 22.753 17.281 22.753L18.2375 22.9156C18.1897 23.0495 18.1323 23.1738 18.0558 23.2791H18.0557Z" fill="white"/>
</svg>
