<svg width="128" height="128" viewBox="0 0 128 128" fill="none" xmlns="http://www.w3.org/2000/svg">
<path d="M2 38.6269C2 36.0715 4.07152 34 6.62687 34H121.373C123.928 34 126 36.0715 126 38.6269V88.597C126 91.1524 123.928 93.2239 121.373 93.2239H6.62687C4.07152 93.2239 2 91.1524 2 88.597V38.6269Z" fill="white"/>
<path d="M121.373 91.3731V93.2239H6.62687V91.3731H121.373ZM124.149 88.597V38.6269C124.149 37.0937 122.906 35.8507 121.373 35.8507H6.62687C5.09366 35.8507 3.85075 37.0937 3.85075 38.6269V88.597C3.85075 90.1302 5.09366 91.3731 6.62687 91.3731V93.2239C4.15124 93.2239 2.13004 91.2796 2.00633 88.8347L2 88.597V38.6269C2 36.1512 3.94431 34.13 6.3892 34.0063L6.62687 34H121.373L121.611 34.0063C124.056 34.13 126 36.1512 126 38.6269V88.597C126 91.1524 123.928 93.2239 121.373 93.2239V91.3731C122.906 91.3731 124.149 90.1302 124.149 88.597Z" fill="#BFD4E8"/>
<path d="M100.968 75.7934C99.3581 75.7934 98.2009 75.0239 98.0952 73.6906H99.7987C99.8633 74.231 100.263 74.554 100.938 74.554C101.578 74.554 101.972 74.2838 101.972 73.902C101.972 73.5731 101.672 73.3792 101.167 73.2794L100.081 73.0679C98.8765 72.833 98.2362 72.2221 98.2362 71.2587C98.2362 70.084 99.2524 69.3086 100.868 69.3086C102.471 69.3086 103.529 70.1133 103.564 71.4056H101.96C101.949 70.9063 101.526 70.5362 100.915 70.5362C100.321 70.5362 99.9631 70.8241 99.9631 71.1941C99.9631 71.5113 100.239 71.7169 100.715 71.8168L101.89 72.0459C103.141 72.2926 103.717 72.833 103.717 73.7434C103.717 74.9828 102.589 75.7934 100.968 75.7934Z" fill="black"/>
<path d="M94.7059 75.7934C93.0964 75.7934 91.9392 75.0239 91.8335 73.6906H93.5369C93.6016 74.231 94.001 74.554 94.6765 74.554C95.3167 74.554 95.7103 74.2838 95.7103 73.902C95.7103 73.5731 95.4107 73.3792 94.9056 73.2794L93.8189 73.0679C92.6147 72.833 91.9745 72.2221 91.9745 71.2587C91.9745 70.084 92.9907 69.3086 94.606 69.3086C96.2096 69.3086 97.2669 70.1133 97.3021 71.4056H95.6986C95.6868 70.9063 95.2639 70.5362 94.653 70.5362C94.0597 70.5362 93.7014 70.8241 93.7014 71.1941C93.7014 71.5113 93.9775 71.7169 94.4533 71.8168L95.6281 72.0459C96.8792 72.2926 97.4549 72.833 97.4549 73.7434C97.4549 74.9828 96.3271 75.7934 94.7059 75.7934Z" fill="black"/>
<path d="M88.2035 75.7837C86.3238 75.7837 85.1021 74.4327 85.1021 72.5471C85.1021 70.6557 86.365 69.2988 88.1448 69.2988C89.9716 69.2988 91.1992 70.6205 91.1992 72.5119V72.9759H86.7879C86.8172 73.8923 87.3459 74.4855 88.2564 74.4855C88.9319 74.4855 89.3959 74.1742 89.5545 73.6925H91.1346C90.9055 74.9261 89.7072 75.7837 88.2035 75.7837ZM86.7996 71.8716H89.5663C89.4781 71.0963 88.9612 70.6146 88.18 70.6146C87.4046 70.6146 86.8936 71.0963 86.7996 71.8716Z" fill="black"/>
<path d="M81.5307 75.7837C79.6628 75.7837 78.4175 74.4679 78.4175 72.5471C78.4175 70.6263 79.6686 69.2988 81.5307 69.2988C83.1636 69.2988 84.3325 70.315 84.4442 71.76H82.7701C82.682 71.1256 82.2473 70.6968 81.5542 70.6968C80.679 70.6968 80.162 71.4135 80.162 72.5471C80.162 73.6749 80.6848 74.3857 81.5542 74.3857C82.2532 74.3857 82.6467 73.9627 82.7583 73.3107H84.4442C84.3678 74.744 83.1813 75.7837 81.5307 75.7837Z" fill="black"/>
<path d="M74.8461 75.7837C72.9782 75.7837 71.7329 74.4679 71.7329 72.5471C71.7329 70.6263 72.9841 69.2988 74.8461 69.2988C76.4791 69.2988 77.648 70.315 77.7596 71.76H76.0855C75.9974 71.1256 75.5627 70.6968 74.8696 70.6968C73.9944 70.6968 73.4775 71.4135 73.4775 72.5471C73.4775 73.6749 74.0003 74.3857 74.8696 74.3857C75.5686 74.3857 75.9622 73.9627 76.0738 73.3107H77.7596C77.6832 74.744 76.4967 75.7837 74.8461 75.7837Z" fill="black"/>
<path d="M63.1274 75.6428L66.1995 66.8906H68.5256L71.5977 75.6428H69.5947L68.9838 73.7338H65.712L65.0776 75.6428H63.1274ZM66.1995 72.2888H68.5139L68.2202 71.3842C67.95 70.4914 67.6798 69.5985 67.3684 68.5118C67.0512 69.5985 66.781 70.4914 66.4991 71.3842L66.1995 72.2888Z" fill="black"/>
<path d="M85.2255 61.8656C83.9861 61.8656 83.0933 61.2488 83.0933 60.0094C83.0933 58.6114 84.2211 58.212 85.5133 58.0945C86.647 57.9829 87.0464 57.93 87.0464 57.5306V57.4895C87.0464 57.0313 86.6646 56.7141 86.0302 56.7141C85.3841 56.7141 84.9612 57.0431 84.9201 57.5189H83.293C83.3693 56.2383 84.3797 55.4277 86.0831 55.4277C87.7807 55.4277 88.7558 56.2266 88.7558 57.5541V61.7599H87.0641V60.8846H87.0406C86.7116 61.4897 86.1771 61.8656 85.2255 61.8656ZM85.7072 60.6614C86.5413 60.6614 87.0582 60.1621 87.0582 59.4925V58.8699C86.8585 58.9815 86.3709 59.0637 85.8129 59.1518C85.2196 59.2399 84.7497 59.469 84.7497 59.9624C84.7497 60.403 85.1256 60.6614 85.7072 60.6614Z" fill="black"/>
<path d="M82.3353 55.5589V56.9158H81.0665V59.8469C81.0665 60.2698 81.2016 60.4049 81.6715 60.4049H82.3353V61.7618H81.325C79.9622 61.7618 79.3337 61.2449 79.3337 60.1171V56.9158H78.2646V55.5589H79.3337V53.8672H81.0665V55.5589H82.3353Z" fill="black"/>
<path d="M74.018 61.8656C72.7786 61.8656 71.8857 61.2488 71.8857 60.0094C71.8857 58.6114 73.0135 58.212 74.3058 58.0945C75.4395 57.9829 75.8389 57.93 75.8389 57.5306V57.4895C75.8389 57.0313 75.4571 56.7141 74.8227 56.7141C74.1766 56.7141 73.7537 57.0431 73.7125 57.5189H72.0855C72.1618 56.2383 73.1721 55.4277 74.8756 55.4277C76.5732 55.4277 77.5482 56.2266 77.5482 57.5541V61.7599H75.8565V60.8846H75.833C75.5041 61.4897 74.9696 61.8656 74.018 61.8656ZM74.4997 60.6614C75.3338 60.6614 75.8507 60.1621 75.8507 59.4925V58.8699C75.6509 58.9815 75.1634 59.0637 74.6054 59.1518C74.0121 59.2399 73.5422 59.469 73.5422 59.9624C73.5422 60.403 73.9181 60.6614 74.4997 60.6614Z" fill="black"/>
<path d="M66.8163 61.762H63.7266V53.0098H66.8515C69.483 53.0098 71.1395 54.6956 71.1395 57.38C71.1395 60.0761 69.5007 61.762 66.8163 61.762ZM65.5357 60.2406H66.7223C68.4903 60.2406 69.3186 59.2244 69.3186 57.38C69.3186 55.5414 68.4786 54.5311 66.7399 54.5311H65.5357V60.2406Z" fill="black"/>
<path d="M22.2208 53.8182C22.6935 52.7152 23.7781 52 24.9782 52H44.0218C45.2219 52 46.3065 52.7152 46.7792 53.8182L51.4026 64.6061C51.6854 65.2659 51.2014 66 50.4835 66H18.5165C17.7986 66 17.3146 65.2659 17.5974 64.6061L22.2208 53.8182Z" fill="#DC9100"/>
<rect x="17" y="64" width="35" height="13" rx="2" fill="url(#paint0_linear_222_12981)"/>
<path d="M33.0005 71C33.5525 71.0003 34.0005 71.4479 34.0005 72C34.0005 72.5523 33.5518 73 32.9995 73H21.9995C21.4475 72.9997 21.0005 72.5521 21.0005 72C21.0005 71.4477 21.4482 71 22.0005 71H33.0005ZM41.5005 67C42.3287 67.0003 43.0005 67.6717 43.0005 68.5C43.0005 69.3283 42.3287 69.9997 41.5005 70C40.6721 70 40.0005 69.3284 40.0005 68.5C40.0005 67.6716 40.6721 67 41.5005 67ZM46.5005 67C47.3287 67.0003 48.0005 67.6717 48.0005 68.5C48.0005 69.3283 47.3287 69.9997 46.5005 70C45.6721 70 45.0005 69.3284 45.0005 68.5C45.0005 67.6716 45.6721 67 46.5005 67ZM33.0005 67C33.5525 67.0003 34.0005 67.4479 34.0005 68C34.0005 68.5523 33.5518 69 32.9995 69H21.9995C21.4475 68.9997 21.0005 68.5521 21.0005 68C21.0005 67.4477 21.4482 67 22.0005 67H33.0005Z" fill="white"/>
<defs>
<linearGradient id="paint0_linear_222_12981" x1="34.5" y1="64" x2="34.5" y2="77" gradientUnits="userSpaceOnUse">
<stop stop-color="#FCCC6E"/>
<stop offset="1" stop-color="#FAAD19"/>
</linearGradient>
</defs>
</svg>
