<svg width="128" height="128" viewBox="0 0 128 128" fill="none" xmlns="http://www.w3.org/2000/svg">
<rect x="19.5" y="19.5" width="89" height="89" rx="2.5" fill="#FFEDB9" stroke="#FFC316" stroke-width="3"/>
<path d="M69.3538 84.3455C63.9728 73.9991 69.085 65.4451 69.085 65.4451L67.0389 62.5849L67.0294 62.5715L63.702 61.416C63.702 61.416 56.9367 68.7325 45.492 66.4824C42.4888 74.2394 42.4011 78.7356 49.2217 86.34L49.2332 86.3534C58.4602 90.7524 62.741 89.3967 69.3538 84.3455Z" fill="#FFE100"/>
<path d="M65.4594 52.8309C63.2609 50.0412 50.266 46.3076 40.1904 49.6961C27.0105 54.1294 40.4459 69.1189 53.6296 66.6668C62.0253 65.0879 69.254 57.6513 65.4594 52.8309Z" fill="#D9F1FD"/>
<path d="M50.7241 56.1157L50.1692 55.1355C49.6787 55.4394 49.2299 55.8061 48.8344 56.2262C47.5192 56.3351 46.2111 56.5166 44.9159 56.7697L45.0036 56.5466C41.6152 55.2118 40.4006 50.7079 40.3873 50.6641L39.2432 50.9615L38.0991 51.2571C38.1468 51.4478 39.1402 55.1699 41.9966 57.4867C39.8671 58.1123 37.8219 58.9953 35.9062 60.1162L37.1114 62.1565C40.2652 60.2954 43.7108 59.2962 47.0496 58.8367C46.1801 60.6672 45.5738 63.2719 45.9933 66.8625L48.3463 66.5879C47.8562 62.412 48.9507 59.914 49.9518 58.5564C54.687 58.3221 59.4293 58.8422 64.0012 60.0971L64.7124 57.8432C60.1665 56.5502 55.448 55.9675 50.7241 56.1157V56.1157Z" fill="#00AEEF"/>
<path d="M76.878 61.3766C80.1749 62.7019 87.4189 74.1161 87.0051 84.739C86.4655 98.6359 68.2974 89.9656 66.9436 76.6235C66.0817 68.1268 71.1919 59.0922 76.878 61.3766Z" fill="#D9F1FD"/>
<path d="M86.098 87.173L86.0179 84.8067C85.974 84.8067 81.3329 84.9287 79.0752 82.0341L78.8845 82.1829C78.7638 80.8688 78.5696 79.5625 78.3029 78.2701C78.5959 77.7747 78.8217 77.2424 78.9741 76.6874L77.8758 76.4243C76.69 71.8521 74.8048 67.4906 72.287 63.4941L70.3172 64.8118C72.814 68.8405 74.6511 73.2422 75.7593 77.8506C74.7391 79.1968 72.6512 80.953 68.502 81.6642L68.8986 83.9982C72.4681 83.3899 74.7963 82.0723 76.3065 80.7203C76.8004 84.0554 76.8156 87.6402 75.9252 91.1964L78.2133 91.7684C78.7507 89.6149 79.0222 87.4037 79.0218 85.1842C81.7257 87.0491 85.0855 87.173 85.9149 87.173C86.0122 87.1768 86.077 87.1749 86.098 87.173Z" fill="#00AEEF"/>
<path d="M94.8782 43.5511C94.7111 43.3882 94.5135 43.2598 94.2967 43.1733C94.08 43.0867 93.8483 43.0438 93.6149 43.0468C93.3815 43.0498 93.151 43.0987 92.9366 43.1908C92.7221 43.2829 92.5279 43.4164 92.365 43.5835C89.7834 46.2809 86.3826 48.0493 82.6918 48.6137C81.8089 47.5229 80.7944 46.5455 79.6714 45.7039C78.2108 44.6056 76.5788 43.7558 74.8415 43.1888C74.1957 39.3289 74.9101 35.3645 76.8627 31.9729C76.9771 31.7692 77.0503 31.5449 77.0781 31.3129C77.1059 31.0809 77.0877 30.8458 77.0245 30.6208C76.9614 30.3958 76.8546 30.1855 76.7102 30.0018C76.5658 29.8182 76.3866 29.6647 76.1829 29.5503C75.9792 29.4358 75.755 29.3626 75.523 29.3349C75.291 29.3071 75.0558 29.3253 74.8308 29.3884C74.6059 29.4515 74.3956 29.5584 74.2119 29.7028C74.0282 29.8472 73.8748 30.0264 73.7603 30.2301C71.6349 33.9411 70.7266 38.2252 71.1632 42.4795C67.1971 42.222 63.4578 43.6369 61.1887 46.6745C60.833 47.1544 60.5203 47.6649 60.2544 48.1999C54.6274 46.4552 46.5692 45.681 39.6227 48.0092C34.5411 49.7254 32.1652 53.2625 33.2635 57.4918C34.2608 61.3265 38.1278 65.1191 43.1008 67.167C41.8829 69.7179 41.3857 72.5533 41.663 75.3664C42.0196 78.7681 43.5527 81.9163 46.1345 84.6144L44.7311 92.3828L51.7863 88.8476C54.2441 90.1194 56.7745 90.7715 59.2896 90.7715C60.1728 90.7714 61.0542 90.691 61.9229 90.5313C64.7034 89.997 67.2849 88.7125 69.388 86.8168C72.6715 90.9413 77.286 93.5708 81.2102 93.5708H81.4772C85.8438 93.4335 88.5762 90.1537 88.7841 84.7994C89.0701 77.4562 86.0402 69.9262 82.7681 65.0142C83.2003 64.6129 83.596 64.1739 83.9503 63.7024C85.8743 61.132 86.4654 57.8255 85.6149 54.3875C85.3968 53.5108 85.0947 52.657 84.713 51.8381C88.6046 50.9476 92.1515 48.9402 94.9183 46.0624C95.2457 45.7239 95.4254 45.2693 95.4179 44.7984C95.4103 44.3276 95.2163 43.879 94.8782 43.5511V43.5511ZM72.2845 64.1943C74.0296 67.2671 75.4624 70.5071 76.5614 73.8657L76.5061 73.8562C76.5061 73.9076 75.568 78.587 69.7637 80.3203C69.2252 79.0836 68.8694 77.7752 68.7073 76.4361C68.1886 71.3315 70.0363 66.4691 72.2845 64.1943ZM67.0293 65.7007C65.7473 68.4902 65.0789 71.5223 65.0691 74.5922C63.9403 74.7428 61.6521 74.7428 59.2629 72.9542C56.8736 71.1656 56.2596 69.0167 56.0937 67.8764C59.0374 67.0034 61.7588 65.5077 64.0737 63.4907C64.9734 64.3342 65.9648 65.0742 67.0293 65.6969V65.7007ZM53.5577 56.6414C57.0878 56.7506 60.598 57.2137 64.0356 58.0238C62.4873 60.8231 58.3419 63.9655 53.2984 64.9056C51.9705 65.1496 50.6151 65.208 49.2712 65.0791C49.2464 59.0001 53.388 56.792 53.5787 56.6891L53.5577 56.6414ZM49.0672 50.1182C56.313 50.1182 62.9659 52.5303 64.0623 53.9318C64.3541 54.2928 64.557 54.7172 64.6547 55.171C64.7524 55.6247 64.7422 56.0951 64.6248 56.5442C61.6067 55.8093 58.5301 55.3397 55.4302 55.1407C52.1604 54.9141 48.8754 55.0606 45.6387 55.5774C43.5203 54.6583 42.2427 52.597 41.5696 51.1288C44.0087 50.4402 46.5328 50.1 49.0672 50.1182V50.1182ZM36.7034 56.6014C36.1314 54.4219 37.2755 52.7553 40.0594 51.6436C40.6448 52.9631 41.6764 54.7575 43.3429 56.0446C41.2789 56.5284 39.2771 57.2468 37.3765 58.1859C37.0806 57.6877 36.8541 57.1514 36.7034 56.5918V56.6014ZM38.2937 59.4749C42.3571 57.4899 46.8743 56.7558 51.0464 56.6414C49.5706 58.0448 47.7381 60.6362 47.6962 64.8522C43.7224 64.0761 40.2615 61.8585 38.2937 59.4749ZM61.2822 87.0227C57.8861 87.6444 54.3033 86.6414 50.9187 84.1015C46.1516 80.5415 43.2457 74.4416 46.512 68.2291C47.0707 68.3531 47.6351 68.456 48.2091 68.5304C48.5504 71.5813 50.1273 75.9784 54.5321 79.2753C57.3082 81.3876 60.6979 82.5358 64.1862 82.5455C65.0168 82.5468 65.8461 82.4779 66.6651 82.3396C66.8901 82.8487 67.138 83.3445 67.403 83.8288C65.7177 85.4673 63.5902 86.5775 61.2822 87.0227V87.0227ZM78.125 89.4139C74.9311 88.1382 72.1529 85.0282 70.4463 81.7656C74.4029 80.5262 76.3479 78.0702 77.2708 76.2759C78.3367 80.3336 78.9087 84.9233 78.125 89.4139ZM81.3666 90.0203C80.7908 90.0375 80.2149 89.9882 79.6505 89.8734C80.0235 87.7666 80.1515 85.6237 80.0318 83.4875C81.7346 84.7231 83.7482 85.2036 85.1802 85.3943C84.8923 88.3957 83.6109 89.9516 81.359 90.0203H81.3666ZM85.2469 83.8098C83.649 83.5771 81.3113 82.9345 79.8316 81.1574C79.4151 77.9072 78.6302 74.715 77.4919 71.6423C76.4282 68.7218 75.11 65.9003 73.5525 63.2104C74.0164 62.9413 74.5416 62.7955 75.0779 62.7871C75.4707 62.7889 75.8593 62.8672 76.222 63.0178C78.4225 63.9045 85.226 73.8981 85.2393 83.8098H85.2469Z" fill="black"/>
</svg>
