<svg width="128" height="128" viewBox="0 0 128 128" fill="none" xmlns="http://www.w3.org/2000/svg">
<path d="M125 45.6214C125 44.7259 124.274 44 123.379 44L4.62139 44C3.72594 44 3.00004 44.7259 3.00004 45.6214L3.00007 82.9124C3.00007 83.8079 3.72598 84.5338 4.62143 84.5338L123.379 84.5338C124.274 84.5338 125 83.8079 125 82.9124L125 45.6214Z" fill="url(#paint0_linear_211_8747)"/>
<path opacity="0.5" d="M120.947 80.4804L7.05345 80.4804L7.05342 48.0534L120.947 48.0534L120.947 80.4804ZM3.00007 82.9124L3.00879 83.0779C3.08617 83.8411 3.69268 84.4477 4.45597 84.525L4.62143 84.5338L123.379 84.5338L123.544 84.525C124.307 84.4477 124.914 83.8412 124.991 83.0779L125 82.9124L125 45.6214C125 44.7259 124.274 44 123.379 44L4.62139 44L4.45593 44.0087C3.63823 44.0916 3.00004 44.7818 3.00004 45.6214L3.00007 82.9124Z" fill="url(#paint1_linear_211_8747)"/>
<path d="M4.62142 82.9124L4.62143 84.5338L123.379 84.5338L123.379 82.9124L4.62142 82.9124ZM4.62139 45.6214L123.379 45.6214L123.379 84.5338L123.544 84.525C124.307 84.4477 124.914 83.8412 124.991 83.0779L125 82.9124L125 45.6214C125 44.7259 124.274 44 123.379 44L4.62139 44L4.45593 44.0087C3.63823 44.0916 3.00004 44.7818 3.00004 45.6214L3.00007 82.9124L3.00879 83.0779C3.08617 83.8411 3.69268 84.4477 4.45597 84.525L4.62143 84.5338L4.62139 45.6214Z" fill="#FEB36D"/>
<path d="M86.4188 58.0076C89.7548 58.0076 91.5918 59.6091 91.5987 62.5405C91.5986 65.54 89.678 67.3257 86.4089 67.3257H83.7469V72.034H80.3947C80.3947 72.034 80.3902 70.5277 80.3902 69.5339V60.4191C80.3902 59.509 80.3947 58.0076 80.3947 58.0076H86.4188ZM103.284 58.0059V60.9731C103.284 60.9731 101.882 60.9731 100.467 60.9731L96.5907 60.9722V63.7363H99.7585C101.073 63.7363 102.447 63.7408 102.447 63.7408V66.6195C102.447 66.6195 101.039 66.6159 99.7585 66.6159H96.5943V72.0331H93.2565V58.0059H103.284ZM73.7154 58.0094C76.4447 58.0094 78.045 59.3208 78.045 61.5478C78.045 62.5746 77.709 63.3845 77.0685 63.9574C76.6978 64.2775 76.395 64.4461 75.7043 64.6986C76.5296 64.8836 76.967 65.0863 77.4561 65.5077C78.1772 66.1482 78.5519 67.0574 78.5535 68.1671C78.5535 70.5938 76.8344 72.0258 73.9025 72.0259H69.3187C68.0425 72.0259 66.9672 72.0322 66.9672 72.0322C66.9671 72.0188 66.9609 70.7725 66.9609 69.5993V68.0203C66.7106 68.4173 66.3621 68.9052 66.1616 69.1088C64.9598 70.3235 63.5439 71.1759 61.8821 71.5998C61.0128 71.8233 60.1288 71.9002 59.238 71.7466C57.3335 71.4233 56.0066 70.3649 55.2386 68.5932C55.0957 68.2529 54.985 67.8998 54.9083 67.5387C54.7355 66.6135 54.7452 65.6629 54.9379 64.7415C55.1524 63.8351 55.5536 62.983 56.1149 62.2397C56.7953 61.3182 57.6246 60.5622 58.6597 60.0539C59.3317 59.7229 60.0369 59.5221 60.791 59.5437C61.545 59.5652 62.2381 59.7781 62.8148 60.2794C63.4929 60.8708 63.7661 61.6141 63.6025 62.5065C63.5031 62.9957 63.2924 63.4555 62.9876 63.8509C62.4798 64.5278 61.8623 65.1153 61.1607 65.5883C60.1161 66.3152 58.944 66.8386 57.7056 67.1315C57.4668 67.189 57.2232 67.2279 56.9814 67.2747C56.8255 67.3054 56.8072 67.3216 56.8525 67.4752C57.2196 68.7001 57.9726 69.5428 59.2398 69.8723C59.9099 70.0412 60.6109 70.0478 61.2842 69.892C62.9152 69.5348 64.2055 68.6138 65.2253 67.6793C65.8396 67.1164 66.4861 66.316 66.9592 65.6187V60.3895C66.9592 59.5003 66.9662 58.0324 66.9663 58.0094H73.7154ZM70.2612 69.2484H73.3618C74.423 69.2483 75.0634 68.6585 75.0634 67.6641C75.0634 66.6872 74.4199 66.1147 73.3448 66.1146H70.2612V69.2484ZM60.569 61.2193C60.1307 61.2853 59.7113 61.4444 59.34 61.6865C58.3041 62.3385 57.5692 63.2472 57.0754 64.3575C56.8838 64.7872 56.7597 65.2443 56.7075 65.7118C56.6883 65.8762 56.7184 65.9071 56.8758 65.8864C56.981 65.871 57.0863 65.8544 57.19 65.8345C58.208 65.6375 59.1806 65.2527 60.057 64.6986C60.7143 64.2823 61.3034 63.7892 61.7711 63.1626C61.9183 62.9721 62.0363 62.7606 62.1229 62.536C62.3025 62.0469 62.1494 61.632 61.6932 61.384C61.4439 61.254 61.1662 61.1871 60.885 61.188C60.7791 61.1979 60.6733 61.2047 60.569 61.2193ZM83.7406 64.4587H86.2505V64.4658C87.4292 64.4658 88.1202 63.7983 88.1204 62.6389C88.1204 61.4793 87.4631 60.872 86.2505 60.872H83.7406V64.4587ZM70.2612 63.4177H73.2267C74.1196 63.4176 74.6757 62.8958 74.6759 62.0705C74.6759 61.245 74.1535 60.7736 73.1936 60.7735H70.2612V63.4177Z" fill="black"/>
<path d="M42.6895 72.2901C40.2329 67.5667 42.5667 63.6616 42.5667 63.6616L41.6327 62.3559L41.6283 62.3498L40.1093 61.8223C40.1093 61.8223 37.0208 65.1624 31.796 64.1352C30.425 67.6764 30.385 69.7291 33.4987 73.2006L33.504 73.2067C37.7163 75.215 39.6706 74.596 42.6895 72.2901Z" fill="#FFE100"/>
<path d="M40.9119 57.9002C39.9082 56.6267 33.9757 54.9222 29.376 56.4691C23.3591 58.493 29.4926 65.3361 35.5113 64.2166C39.3441 63.4958 42.6442 60.1008 40.9119 57.9002Z" fill="#D9F1FD"/>
<path d="M34.1846 59.3989L33.9313 58.9515C33.7073 59.0902 33.5025 59.2576 33.3219 59.4494C32.7215 59.4991 32.1243 59.5819 31.533 59.6975L31.5731 59.5957C30.0262 58.9863 29.4717 56.9302 29.4656 56.9102L28.9433 57.046L28.421 57.1809C28.4428 57.2679 28.8963 58.9672 30.2003 60.0248C29.2282 60.3105 28.2945 60.7136 27.4199 61.2252L27.9701 62.1567C29.4099 61.3071 30.9829 60.8509 32.5071 60.6411C32.1102 61.4768 31.8334 62.6659 32.0249 64.3051L33.0991 64.1797C32.8753 62.2733 33.375 61.133 33.832 60.5132C35.9937 60.4062 38.1587 60.6437 40.2459 61.2165L40.5706 60.1876C38.4952 59.5973 36.3412 59.3313 34.1846 59.3989V59.3989Z" fill="#00AEEF"/>
<path d="M46.1243 61.8026C47.6294 62.4076 50.9364 67.6184 50.7475 72.468C50.5011 78.8122 42.207 74.8541 41.589 68.7631C41.1955 64.8842 43.5284 60.7597 46.1243 61.8026Z" fill="#D9F1FD"/>
<path d="M50.3338 73.5775L50.2972 72.4972C50.2772 72.4972 48.1584 72.5529 47.1277 71.2315L47.0406 71.2994C46.9855 70.6995 46.8969 70.1031 46.7751 69.5131C46.9089 69.2869 47.0119 69.044 47.0816 68.7906L46.5802 68.6705C46.0388 66.5832 45.1782 64.592 44.0287 62.7676L43.1295 63.3691C44.2693 65.2083 45.108 67.2178 45.6139 69.3216C45.1482 69.9362 44.195 70.7379 42.3008 71.0626L42.4818 72.1281C44.1114 71.8504 45.1743 71.2489 45.8637 70.6317C46.0892 72.1542 46.0962 73.7908 45.6896 75.4143L46.7342 75.6754C46.9795 74.6923 47.1035 73.6828 47.1033 72.6696C48.3377 73.5209 49.8715 73.5775 50.2502 73.5775C50.2946 73.5792 50.3242 73.5784 50.3338 73.5775Z" fill="#00AEEF"/>
<path d="M54.342 53.6657C54.2657 53.5913 54.1755 53.5327 54.0766 53.4932C53.9776 53.4537 53.8718 53.4341 53.7653 53.4355C53.6588 53.4368 53.5535 53.4592 53.4556 53.5012C53.3577 53.5433 53.2691 53.6042 53.1947 53.6805C52.0161 54.9119 50.4636 55.7192 48.7787 55.9769C48.3756 55.4789 47.9124 55.0327 47.3998 54.6485C46.733 54.1471 45.988 53.7591 45.1948 53.5003C44.9 51.7382 45.2261 49.9283 46.1175 48.38C46.1698 48.287 46.2032 48.1846 46.2159 48.0787C46.2286 47.9728 46.2202 47.8654 46.1914 47.7627C46.1626 47.66 46.1138 47.564 46.0479 47.4802C45.982 47.3963 45.9002 47.3263 45.8072 47.274C45.7142 47.2218 45.6118 47.1884 45.5059 47.1757C45.4 47.163 45.2926 47.1713 45.1899 47.2001C45.0872 47.2289 44.9912 47.2777 44.9074 47.3436C44.8235 47.4096 44.7535 47.4914 44.7012 47.5843C43.7309 49.2785 43.3163 51.2343 43.5156 53.1765C41.705 53.0589 39.9979 53.7049 38.962 55.0916C38.7996 55.3107 38.6569 55.5437 38.5355 55.788C35.9666 54.9915 32.2879 54.638 29.1167 55.7009C26.7968 56.4844 25.7122 58.0992 26.2136 60.0299C26.6688 61.7805 28.4342 63.512 30.7045 64.4469C30.1485 65.6114 29.9215 66.9058 30.0481 68.1901C30.2109 69.743 30.9108 71.1802 32.0894 72.412L31.4488 75.9584L34.6696 74.3445C35.7917 74.9251 36.9468 75.2228 38.095 75.2228C38.4982 75.2228 38.9006 75.1861 39.2972 75.1132C40.5666 74.8693 41.7451 74.2829 42.7052 73.4174C44.2042 75.3003 46.3108 76.5008 48.1023 76.5008H48.2241C50.2176 76.4381 51.465 74.9408 51.5599 72.4964C51.6905 69.1441 50.3073 65.7065 48.8135 63.4641C49.0108 63.2809 49.1914 63.0804 49.3532 62.8652C50.2315 61.6917 50.5014 60.1823 50.1131 58.6128C50.0135 58.2125 49.8756 57.8228 49.7014 57.4489C51.478 57.0424 53.0972 56.1259 54.3603 54.8121C54.5098 54.6576 54.5918 54.4501 54.5884 54.2351C54.5849 54.0202 54.4963 53.8154 54.342 53.6657V53.6657ZM44.0275 63.0898C44.8242 64.4926 45.4783 65.9717 45.98 67.505L45.9548 67.5006C45.9548 67.5241 45.5265 69.6603 42.8767 70.4516C42.6309 69.887 42.4684 69.2897 42.3944 68.6784C42.1576 66.3481 43.0012 64.1283 44.0275 63.0898ZM41.6284 63.7775C41.0431 65.0509 40.738 66.4351 40.7335 67.8366C40.2182 67.9054 39.1736 67.9054 38.0828 67.0889C36.9921 66.2723 36.7118 65.2913 36.6361 64.7707C37.9799 64.3722 39.2223 63.6894 40.2791 62.7686C40.6898 63.1536 41.1424 63.4914 41.6284 63.7757V63.7775ZM35.4783 59.6417C37.0899 59.6915 38.6923 59.903 40.2617 60.2728C39.5548 61.5507 37.6624 62.9853 35.3599 63.4145C34.7537 63.5259 34.135 63.5526 33.5214 63.4937C33.5101 60.7185 35.4008 59.7105 35.4879 59.6635L35.4783 59.6417ZM33.4283 56.6637C36.7362 56.6637 39.7733 57.7649 40.2739 58.4047C40.4071 58.5695 40.4997 58.7633 40.5443 58.9704C40.5889 59.1776 40.5843 59.3923 40.5307 59.5973C39.1528 59.2618 37.7483 59.0474 36.3331 58.9566C34.8404 58.8532 33.3407 58.9201 31.8631 59.156C30.896 58.7364 30.3128 57.7954 30.0055 57.1251C31.119 56.8107 32.2713 56.6554 33.4283 56.6637V56.6637ZM27.784 59.6234C27.5228 58.6284 28.0451 57.8676 29.316 57.3601C29.5833 57.9625 30.0542 58.7816 30.815 59.3692C29.8728 59.5901 28.9589 59.9181 28.0912 60.3468C27.9561 60.1194 27.8527 59.8745 27.784 59.6191V59.6234ZM28.5099 60.9353C30.365 60.0291 32.4272 59.6939 34.3318 59.6417C33.6581 60.2824 32.8215 61.4654 32.8024 63.3901C30.9883 63.0358 29.4083 62.0234 28.5099 60.9353ZM39.0047 73.5114C37.4543 73.7952 35.8187 73.3373 34.2735 72.1778C32.0973 70.5526 30.7706 67.7679 32.2618 64.9318C32.5169 64.9883 32.7745 65.0353 33.0365 65.0693C33.1924 66.4621 33.9123 68.4695 35.9231 69.9746C37.1905 70.9389 38.738 71.4631 40.3305 71.4675C40.7097 71.4681 41.0882 71.4366 41.4621 71.3735C41.5648 71.6059 41.678 71.8322 41.799 72.0533C41.0296 72.8014 40.0583 73.3082 39.0047 73.5114V73.5114ZM46.6938 74.6031C45.2357 74.0207 43.9674 72.6009 43.1883 71.1115C44.9946 70.5456 45.8825 69.4244 46.3038 68.6053C46.7904 70.4577 47.0516 72.553 46.6938 74.6031ZM48.1737 74.8799C47.9108 74.8877 47.6479 74.8653 47.3902 74.8128C47.5605 73.851 47.6189 72.8728 47.5643 71.8975C48.3417 72.4616 49.2609 72.681 49.9147 72.768C49.7832 74.1382 49.1982 74.8485 48.1702 74.8799H48.1737ZM49.9451 72.0446C49.2156 71.9384 48.1484 71.6451 47.4729 70.8338C47.2828 69.35 46.9245 67.8927 46.4048 66.49C45.9192 65.1566 45.3174 63.8686 44.6064 62.6406C44.8182 62.5177 45.0579 62.4512 45.3028 62.4473C45.482 62.4482 45.6595 62.4839 45.8251 62.5527C46.8296 62.9575 49.9355 67.5198 49.9416 72.0446H49.9451Z" fill="black"/>
<defs>
<linearGradient id="paint0_linear_211_8747" x1="106.361" y1="46.9251" x2="106.361" y2="84.5338" gradientUnits="userSpaceOnUse">
<stop stop-color="#FFFDF9"/>
<stop offset="1" stop-color="#FFF6E7"/>
</linearGradient>
<linearGradient id="paint1_linear_211_8747" x1="106.361" y1="46.9251" x2="106.361" y2="84.5338" gradientUnits="userSpaceOnUse">
<stop stop-color="white"/>
<stop offset="0.341346" stop-color="#FBDFB6"/>
<stop offset="1" stop-color="#FBDFB6"/>
</linearGradient>
</defs>
</svg>
