<svg width="128" height="128" viewBox="0 0 128 128" fill="none" xmlns="http://www.w3.org/2000/svg">
<path d="M125 4.62135C125 3.7259 124.274 3 123.379 3L4.62139 3C3.72594 3 3.00004 3.72591 3.00004 4.62135L3.00004 123.379C3.00004 124.274 3.72594 125 4.62139 125L123.379 125C124.274 125 125 124.274 125 123.379L125 4.62135Z" fill="url(#paint0_linear_211_8764)"/>
<path opacity="0.5" d="M120.947 120.947L7.05341 120.947L7.05342 7.05338L120.947 7.05338L120.947 120.947ZM3.00004 123.379L3.00875 123.544C3.08613 124.307 3.69264 124.914 4.45592 124.991L4.62139 125L123.379 125L123.544 124.991C124.307 124.914 124.914 124.307 124.991 123.544L125 123.379L125 4.62135C125 3.7259 124.274 3 123.379 3L4.62139 3L4.45592 3.00871C3.63823 3.09162 3.00004 3.78178 3.00004 4.62135L3.00004 123.379Z" fill="url(#paint1_linear_211_8764)"/>
<path d="M4.62139 123.379L4.62139 125L123.379 125L123.379 123.379L4.62139 123.379ZM4.62139 4.62135L123.379 4.62135L123.379 125L123.544 124.991C124.307 124.914 124.914 124.307 124.991 123.544L125 123.379L125 4.62135C125 3.7259 124.274 3 123.379 3L4.62139 3L4.45592 3.00871C3.63823 3.09162 3.00004 3.78178 3.00004 4.62135L3.00004 123.379L3.00875 123.544C3.08613 124.307 3.69264 124.914 4.45592 124.991L4.62139 125L4.62139 4.62135Z" fill="#FEB36D"/>
<path d="M59.9642 104.493C59.1019 103.75 58.3302 103.394 56.8749 103.068C58.0933 102.623 58.6267 102.325 59.2806 101.76C60.4096 100.75 61.0026 99.3235 61.0026 97.5135C61.0026 93.5876 58.1813 91.2754 53.37 91.2754H45.5871C43.1503 91.2754 41.4716 91.2754 41.4716 91.2754C41.4716 91.2754 41.4594 93.8922 41.4594 95.472V104.69C40.6255 105.919 39.4856 107.33 38.4026 108.322C36.6048 109.969 34.3305 111.593 31.455 112.222C30.2681 112.497 29.0327 112.485 27.8513 112.187C25.6176 111.606 24.2909 110.121 23.6438 107.962C23.5639 107.691 23.595 107.663 23.8698 107.608C24.2963 107.526 24.7254 107.458 25.1464 107.357C27.33 106.841 29.3968 105.917 31.2384 104.636C32.4753 103.802 33.5639 102.767 34.4591 101.573C34.9964 100.876 35.3669 100.066 35.5421 99.203C35.8304 97.6299 35.3499 96.3195 34.1545 95.2771C33.1378 94.3931 31.9153 94.0181 30.5859 93.9802C29.2565 93.9423 28.0137 94.297 26.8292 94.8805C25.0043 95.7766 23.5422 97.1087 22.3428 98.7332C21.3531 100.044 20.6468 101.546 20.2688 103.144C19.9291 104.768 19.9112 106.443 20.216 108.074C20.3512 108.711 20.5461 109.333 20.7981 109.933C22.1519 113.056 24.4912 114.922 27.8486 115.491C29.419 115.762 30.9772 115.627 32.5096 115.233C35.4392 114.486 37.9356 112.983 40.0542 110.841C40.4076 110.483 41.0208 109.623 41.4622 108.923V111.706C41.4622 113.786 41.4743 115.995 41.4743 115.995C41.4743 115.995 43.3696 115.984 45.6196 115.984H53.6989C58.8677 115.984 61.8974 113.459 61.8974 109.182C61.8947 107.225 61.2354 105.623 59.9642 104.493ZM23.3879 104.854C23.4799 104.029 23.6987 103.224 24.0363 102.467C24.9068 100.509 26.2024 98.9079 28.0286 97.7585C28.6832 97.3317 29.4219 97.0505 30.1947 96.9341C30.3788 96.9084 30.5656 96.8962 30.7524 96.8786C31.2482 96.8771 31.7369 96.996 32.1766 97.2252C32.9807 97.6624 33.2515 98.3935 32.9347 99.2558C32.782 99.6517 32.5727 100.023 32.3133 100.359C31.4889 101.464 30.4505 102.333 29.2917 103.067C27.7467 104.044 26.0327 104.723 24.2381 105.07C24.0553 105.105 23.8698 105.134 23.6844 105.161C23.4068 105.197 23.354 105.143 23.3879 104.854V104.854ZM47.2807 96.1476H52.4494C54.1416 96.1476 55.0622 96.9788 55.0622 98.4341C55.0622 99.8894 54.0821 100.81 52.5076 100.81H47.2807V96.1476ZM52.7459 111.088H47.2807V105.563H52.7161C54.6114 105.563 55.7459 106.573 55.7459 108.295C55.7459 110.048 54.6168 111.088 52.7459 111.088Z" fill="black"/>
<path d="M75.7614 91.2754H69.2633H65.1424C65.1424 91.2754 65.1343 93.922 65.1343 95.5262V111.594C65.1343 113.346 65.1424 116 65.1424 116H71.0516C71.0516 116 71.0516 113.256 71.0516 111.505V107.701H75.7438C81.5069 107.701 84.8927 104.553 84.8927 99.2653C84.8805 94.098 81.6422 91.2754 75.7614 91.2754ZM75.465 102.647H71.0395V96.3249H75.465C77.6026 96.3249 78.7614 97.3944 78.7614 99.4386C78.7614 101.483 77.543 102.659 75.465 102.659V102.647Z" fill="black"/>
<path d="M100.526 96.5024C103.021 96.5024 105.493 96.5024 105.493 96.5024V91.2715C105.493 91.2715 103.109 91.2715 100.496 91.2715H91.9115C89.6236 91.2715 87.8149 91.2715 87.8149 91.2715C87.8149 91.2715 87.8149 93.562 87.8149 95.5223V110.908C87.8149 113.492 87.8149 115.998 87.8149 115.998H93.6998C93.6998 115.998 93.6998 113.611 93.6998 110.818V106.448H99.2774C101.535 106.448 104.016 106.455 104.016 106.455V101.38C104.016 101.38 101.594 101.373 99.2774 101.373H93.693V96.4997L100.526 96.5024Z" fill="black"/>
<path d="M69.0603 75.598C62.6442 63.2614 68.7397 53.062 68.7397 53.062L66.3001 49.6515L66.2888 49.6356L62.3213 48.2578C62.3213 48.2578 54.2545 56.9817 40.6082 54.2988C37.0272 63.5478 36.9226 68.909 45.0554 77.9762L45.069 77.9921C56.0711 83.2373 61.1754 81.6208 69.0603 75.598Z" fill="#FFE100"/>
<path d="M64.4143 38.0194C61.7928 34.6931 46.2981 30.2414 34.2842 34.2816C18.5689 39.5678 34.5889 57.4406 50.3087 54.5168C60.3195 52.6342 68.9388 43.7671 64.4143 38.0194Z" fill="#D9F1FD"/>
<path d="M46.8427 41.9338L46.181 40.7652C45.5962 41.1275 45.0611 41.5647 44.5895 42.0657C43.0213 42.1955 41.4615 42.4119 39.9172 42.7137L40.0218 42.4477C35.9816 40.8562 34.5333 35.4859 34.5173 35.4336L33.1532 35.7883L31.789 36.1407C31.8458 36.368 33.0304 40.8061 36.4363 43.5686C33.8972 44.3146 31.4585 45.3675 29.1743 46.7039L30.6112 49.1366C34.3718 46.9176 38.4803 45.7262 42.4614 45.1783C41.4246 47.361 40.7016 50.4667 41.2018 54.7479L44.0075 54.4205C43.4231 49.4413 44.7282 46.4629 45.9219 44.8441C51.568 44.5648 57.2226 45.1849 62.6739 46.6811L63.522 43.9937C58.1015 42.452 52.4754 41.7572 46.8427 41.9338V41.9338Z" fill="#00AEEF"/>
<path d="M78.0258 48.2133C81.9569 49.7934 90.5944 63.4033 90.101 76.0696C89.4576 92.6396 67.7945 82.3015 66.1802 66.3931C65.1525 56.2618 71.2458 45.4895 78.0258 48.2133Z" fill="#D9F1FD"/>
<path d="M89.0215 78.9818L88.9261 76.1602C88.8738 76.1602 83.3398 76.3057 80.6478 72.8544L80.4204 73.0317C80.2765 71.4648 80.045 69.9073 79.727 68.3663C80.0763 67.7755 80.3455 67.1409 80.5273 66.4792L79.2177 66.1654C77.8038 60.7137 75.5559 55.5132 72.5537 50.748L70.205 52.3191C73.1821 57.1228 75.3726 62.3713 76.6939 67.8661C75.4776 69.4712 72.9879 71.5652 68.0405 72.4133L68.5134 75.1962C72.7697 74.4709 75.5458 72.8998 77.3465 71.2878C77.9353 75.2644 77.9535 79.5388 76.8918 83.7791L79.6201 84.4611C80.2608 81.8934 80.5846 79.2568 80.5841 76.6104C83.8081 78.834 87.8143 78.9818 88.8033 78.9818C88.9192 78.9863 88.9965 78.984 89.0215 78.9818Z" fill="#00AEEF"/>
<path d="M99.4938 26.9659C99.2945 26.7716 99.0589 26.6185 98.8005 26.5154C98.542 26.4122 98.2658 26.3609 97.9875 26.3645C97.7092 26.3681 97.4344 26.4265 97.1787 26.5363C96.923 26.6461 96.6914 26.8052 96.4972 27.0045C93.4189 30.2208 89.3639 32.3294 84.9631 33.0023C83.9103 31.7017 82.7006 30.5363 81.3617 29.5328C79.62 28.2232 77.6742 27.2099 75.6026 26.5339C74.8325 21.9315 75.6844 17.2045 78.0126 13.1605C78.1491 12.9176 78.2363 12.6502 78.2694 12.3736C78.3026 12.097 78.2809 11.8165 78.2056 11.5483C78.1303 11.2801 78.003 11.0293 77.8308 10.8103C77.6586 10.5913 77.4449 10.4083 77.2021 10.2719C76.9592 10.1354 76.6918 10.0481 76.4152 10.015C76.1385 9.98193 75.8581 10.0036 75.5899 10.0789C75.3216 10.1542 75.0708 10.2815 74.8518 10.4537C74.6328 10.6259 74.4499 10.8395 74.3134 11.0824C71.7791 15.5073 70.6961 20.6155 71.2167 25.6881C66.4876 25.3811 62.029 27.0682 59.3234 30.69C58.8992 31.2624 58.5264 31.871 58.2093 32.5089C51.4999 30.4286 41.8915 29.5055 33.6087 32.2816C27.5495 34.3278 24.7165 38.5454 26.0261 43.5882C27.2152 48.1605 31.8262 52.6827 37.7558 55.1245C36.3036 58.1661 35.7108 61.5469 36.0415 64.9011C36.4666 68.9572 38.2946 72.7109 41.3731 75.9281L39.6997 85.1908L48.1121 80.9755C51.0428 82.492 54.06 83.2696 57.0589 83.2696C58.112 83.2694 59.163 83.1735 60.1987 82.9831C63.5142 82.346 66.5923 80.8145 69.1 78.5541C73.0152 83.4719 78.5174 86.6072 83.1965 86.6072H83.5148C88.7214 86.4435 91.9795 82.5329 92.2273 76.1486C92.5684 67.3929 88.9556 58.4144 85.054 52.5576C85.5694 52.0791 86.0412 51.5556 86.4637 50.9934C88.7578 47.9286 89.4626 43.9861 88.4486 39.8868C88.1884 38.8414 87.8283 37.8234 87.3731 36.847C92.0133 35.7852 96.2425 33.3916 99.5416 29.9602C99.932 29.5566 100.146 29.0146 100.137 28.4532C100.128 27.8917 99.8969 27.3568 99.4938 26.9659V26.9659ZM72.5536 51.58C74.6345 55.2439 76.343 59.1071 77.6534 63.1117L77.5874 63.1004C77.5874 63.1617 76.4688 68.7412 69.5479 70.8079C68.9059 69.3333 68.4816 67.7732 68.2883 66.1766C67.6699 60.0901 69.873 54.2924 72.5536 51.58ZM66.2875 53.3761C64.7589 56.7022 63.9619 60.3175 63.9502 63.978C62.6042 64.1576 59.8759 64.1576 57.027 62.0249C54.1782 59.8923 53.4461 57.3299 53.2483 55.9703C56.7581 54.9294 60.0032 53.146 62.7634 50.741C63.8362 51.7467 65.0182 52.6291 66.2875 53.3716V53.3761ZM50.2243 42.5742C54.4335 42.7044 58.619 43.2566 62.7179 44.2226C60.8717 47.5602 55.9289 51.3071 49.9151 52.428C48.3318 52.7191 46.7157 52.7887 45.1132 52.6349C45.0837 45.3867 50.022 42.7538 50.2494 42.631L50.2243 42.5742ZM44.87 34.7962C53.5097 34.7962 61.4424 37.6723 62.7498 39.3434C63.0977 39.7738 63.3397 40.2799 63.4562 40.8209C63.5727 41.362 63.5604 41.9228 63.4205 42.4582C59.8217 41.582 56.1533 41.0221 52.457 40.7849C48.5582 40.5147 44.6413 40.6894 40.782 41.3055C38.256 40.2096 36.7326 37.7519 35.9301 36.0012C38.8383 35.1802 41.8481 34.7745 44.87 34.7962V34.7962ZM30.1278 42.5265C29.4457 39.9277 30.8098 37.9406 34.1293 36.6151C34.8273 38.1884 36.0574 40.3279 38.0445 41.8626C35.5835 42.4394 33.1966 43.2961 30.9304 44.4158C30.5775 43.8218 30.3074 43.1823 30.1278 42.5151V42.5265ZM32.024 45.9528C36.8691 43.586 42.2553 42.7106 47.23 42.5742C45.4702 44.2476 43.2852 47.3374 43.2352 52.3644C38.497 51.439 34.3703 48.7948 32.024 45.9528ZM59.4348 78.7996C55.3855 79.5408 51.1133 78.3449 47.0776 75.3165C41.3936 71.0716 37.9286 63.7984 41.8233 56.3909C42.4895 56.5387 43.1625 56.6615 43.8468 56.7502C44.2538 60.3879 46.1341 65.6309 51.3862 69.562C54.6963 72.0805 58.7382 73.4496 62.8975 73.4612C63.8879 73.4627 64.8767 73.3806 65.8533 73.2156C66.1215 73.8227 66.4171 74.4138 66.7331 74.9913C64.7236 76.9451 62.1868 78.2688 59.4348 78.7996V78.7996ZM79.5177 81.6507C75.7094 80.1297 72.3967 76.4214 70.3619 72.5313C75.0796 71.0534 77.3987 68.125 78.4992 65.9856C79.7701 70.8238 80.4522 76.2964 79.5177 81.6507ZM83.3829 82.3738C82.6964 82.3943 82.0097 82.3356 81.3366 82.1987C81.7815 79.6866 81.9341 77.1315 81.7914 74.5844C83.8217 76.0577 86.2227 76.6306 87.9302 76.858C87.5868 80.4366 86.059 82.2919 83.3738 82.3738H83.3829ZM88.0097 74.9686C86.1044 74.6912 83.317 73.925 81.5526 71.806C81.0561 67.9307 80.1201 64.1244 78.7629 60.4607C77.4946 56.9783 75.9228 53.6141 74.0656 50.4068C74.6188 50.0859 75.245 49.9121 75.8845 49.902C76.3528 49.9042 76.8162 49.9976 77.2487 50.1772C79.8724 51.2344 87.9847 63.1504 88.0006 74.9686H88.0097Z" fill="black"/>
<defs>
<linearGradient id="paint0_linear_211_8764" x1="106.361" y1="46.9251" x2="106.361" y2="84.5338" gradientUnits="userSpaceOnUse">
<stop stop-color="#FFFDF9"/>
<stop offset="1" stop-color="#FFF6E7"/>
</linearGradient>
<linearGradient id="paint1_linear_211_8764" x1="106.361" y1="46.9251" x2="106.361" y2="84.5338" gradientUnits="userSpaceOnUse">
<stop stop-color="white"/>
<stop offset="0.341346" stop-color="#FBDFB6"/>
<stop offset="1" stop-color="#FBDFB6"/>
</linearGradient>
</defs>
</svg>
