<svg width="128" height="128" viewBox="0 0 128 128" fill="none" xmlns="http://www.w3.org/2000/svg">
<path d="M3 9C3 5.68629 5.68629 3 9 3H119C122.314 3 125 5.68629 125 9V119C125 122.314 122.314 125 119 125H9C5.68629 125 3 122.314 3 119V9Z" fill="#FFEDB9"/>
<path d="M119 122V125H9V122H119ZM122 119V9C122 7.34315 120.657 6 119 6H9C7.34315 6 6 7.34315 6 9V119C6 120.657 7.34315 122 9 122V125C5.78979 125 3.16843 122.479 3.00781 119.309L3 119V9C3 5.68629 5.68629 3 9 3H119L119.309 3.00781C122.479 3.16843 125 5.78979 125 9V119L124.992 119.309C124.837 122.377 122.377 124.837 119.309 124.992L119 125V122C120.657 122 122 120.657 122 119Z" fill="#FFC316"/>
<path d="M60.9642 103.493C60.1019 102.75 59.3302 102.394 57.8749 102.068C59.0933 101.623 59.6267 101.325 60.2806 100.76C61.4096 99.7503 62.0026 98.3235 62.0026 96.5135C62.0026 92.5876 59.1813 90.2754 54.37 90.2754H46.5871C44.1503 90.2754 42.4716 90.2754 42.4716 90.2754C42.4716 90.2754 42.4594 92.8922 42.4594 94.472V103.69C41.6255 104.919 40.4856 106.33 39.4026 107.322C37.6048 108.969 35.3305 110.593 32.455 111.222C31.2681 111.497 30.0327 111.485 28.8513 111.187C26.6176 110.606 25.2909 109.121 24.6438 106.962C24.5639 106.691 24.595 106.663 24.8698 106.608C25.2963 106.526 25.7254 106.458 26.1464 106.357C28.33 105.841 30.3968 104.917 32.2384 103.636C33.4753 102.802 34.5639 101.767 35.4591 100.573C35.9964 99.8764 36.3669 99.0655 36.5421 98.203C36.8304 96.6299 36.3499 95.3195 35.1545 94.2771C34.1378 93.3931 32.9153 93.0181 31.5859 92.9802C30.2565 92.9423 29.0137 93.297 27.8292 93.8805C26.0043 94.7766 24.5422 96.1087 23.3428 97.7332C22.3531 99.0437 21.6468 100.546 21.2688 102.144C20.9291 103.768 20.9112 105.443 21.216 107.074C21.3512 107.711 21.5461 108.333 21.7981 108.933C23.1519 112.056 25.4912 113.922 28.8486 114.491C30.419 114.762 31.9772 114.627 33.5096 114.233C36.4392 113.486 38.9356 111.983 41.0542 109.841C41.4076 109.483 42.0208 108.623 42.4622 107.923V110.706C42.4622 112.786 42.4743 114.995 42.4743 114.995C42.4743 114.995 44.3696 114.984 46.6196 114.984H54.6989C59.8677 114.984 62.8974 112.459 62.8974 108.182C62.8947 106.225 62.2354 104.623 60.9642 103.493ZM24.3879 103.854C24.4799 103.029 24.6987 102.224 25.0363 101.467C25.9068 99.5094 27.2024 97.9079 29.0286 96.7585C29.6832 96.3317 30.4219 96.0505 31.1947 95.9341C31.3788 95.9084 31.5656 95.8962 31.7524 95.8786C32.2482 95.8771 32.7369 95.996 33.1766 96.2252C33.9807 96.6624 34.2515 97.3935 33.9347 98.2558C33.782 98.6517 33.5727 99.0233 33.3133 99.3591C32.4889 100.464 31.4505 101.333 30.2917 102.067C28.7467 103.044 27.0327 103.723 25.2381 104.07C25.0553 104.105 24.8698 104.134 24.6844 104.161C24.4068 104.197 24.354 104.143 24.3879 103.854V103.854ZM48.2807 95.1476H53.4494C55.1416 95.1476 56.0622 95.9788 56.0622 97.4341C56.0622 98.8894 55.0821 99.8099 53.5076 99.8099H48.2807V95.1476ZM53.7459 110.088H48.2807V104.563H53.7161C55.6114 104.563 56.7459 105.573 56.7459 107.295C56.7459 109.048 55.6168 110.088 53.7459 110.088Z" fill="black"/>
<path d="M76.7614 90.2754H70.2633H66.1424C66.1424 90.2754 66.1343 92.922 66.1343 94.5262V110.594C66.1343 112.346 66.1424 115 66.1424 115H72.0516C72.0516 115 72.0516 112.256 72.0516 110.505V106.701H76.7438C82.5069 106.701 85.8927 103.553 85.8927 98.2653C85.8805 93.098 82.6422 90.2754 76.7614 90.2754ZM76.465 101.647H72.0395V95.3249H76.465C78.6026 95.3249 79.7614 96.3944 79.7614 98.4386C79.7614 100.483 78.543 101.659 76.465 101.659V101.647Z" fill="black"/>
<path d="M101.526 95.5024C104.021 95.5024 106.493 95.5024 106.493 95.5024V90.2715C106.493 90.2715 104.109 90.2715 101.496 90.2715H92.9115C90.6236 90.2715 88.8149 90.2715 88.8149 90.2715C88.8149 90.2715 88.8149 92.562 88.8149 94.5223V109.908C88.8149 112.492 88.8149 114.998 88.8149 114.998H94.6998C94.6998 114.998 94.6998 112.611 94.6998 109.818V105.448H100.277C102.535 105.448 105.016 105.455 105.016 105.455V100.38C105.016 100.38 102.594 100.373 100.277 100.373H94.693V95.4997L101.526 95.5024Z" fill="black"/>
<path d="M70.0603 74.598C63.6442 62.2614 69.7397 52.062 69.7397 52.062L67.3001 48.6515L67.2888 48.6356L63.3213 47.2578C63.3213 47.2578 55.2545 55.9817 41.6082 53.2988C38.0272 62.5478 37.9226 67.909 46.0554 76.9762L46.069 76.9921C57.0711 82.2373 62.1754 80.6208 70.0603 74.598Z" fill="#FFE100"/>
<path d="M65.4143 37.0194C62.7928 33.6931 47.2981 29.2414 35.2842 33.2816C19.5689 38.5678 35.5889 56.4406 51.3087 53.5168C61.3195 51.6342 69.9388 42.7671 65.4143 37.0194Z" fill="#D9F1FD"/>
<path d="M47.8427 40.9338L47.181 39.7652C46.5962 40.1275 46.0611 40.5647 45.5895 41.0657C44.0213 41.1955 42.4615 41.4119 40.9172 41.7137L41.0218 41.4477C36.9816 39.8562 35.5333 34.4859 35.5173 34.4336L34.1532 34.7883L32.789 35.1407C32.8458 35.368 34.0304 39.8061 37.4363 42.5686C34.8972 43.3146 32.4585 44.3675 30.1743 45.7039L31.6112 48.1366C35.3718 45.9176 39.4803 44.7262 43.4614 44.1783C42.4246 46.361 41.7016 49.4667 42.2018 53.7479L45.0075 53.4205C44.4231 48.4413 45.7282 45.4629 46.9219 43.8441C52.568 43.5648 58.2226 44.1849 63.6739 45.6811L64.522 42.9937C59.1015 41.452 53.4754 40.7572 47.8427 40.9338V40.9338Z" fill="#00AEEF"/>
<path d="M79.0258 47.2133C82.9569 48.7934 91.5944 62.4033 91.101 75.0696C90.4576 91.6396 68.7945 81.3015 67.1802 65.3931C66.1525 55.2618 72.2458 44.4895 79.0258 47.2133Z" fill="#D9F1FD"/>
<path d="M90.0215 77.9818L89.9261 75.1602C89.8738 75.1602 84.3398 75.3057 81.6478 71.8544L81.4204 72.0317C81.2765 70.4648 81.045 68.9073 80.727 67.3663C81.0763 66.7755 81.3455 66.1409 81.5273 65.4792L80.2177 65.1654C78.8038 59.7137 76.5559 54.5132 73.5537 49.748L71.205 51.3191C74.1821 56.1228 76.3726 61.3713 77.6939 66.8661C76.4776 68.4712 73.9879 70.5652 69.0405 71.4133L69.5134 74.1962C73.7697 73.4709 76.5458 71.8998 78.3465 70.2878C78.9353 74.2644 78.9535 78.5388 77.8918 82.7791L80.6201 83.4611C81.2608 80.8934 81.5846 78.2568 81.5841 75.6104C84.8081 77.834 88.8143 77.9818 89.8033 77.9818C89.9192 77.9863 89.9965 77.984 90.0215 77.9818Z" fill="#00AEEF"/>
<path d="M100.494 25.9659C100.295 25.7716 100.059 25.6185 99.8005 25.5154C99.542 25.4122 99.2658 25.3609 98.9875 25.3645C98.7092 25.3681 98.4344 25.4265 98.1787 25.5363C97.923 25.6461 97.6914 25.8052 97.4972 26.0045C94.4189 29.2208 90.3639 31.3294 85.9631 32.0023C84.9103 30.7017 83.7006 29.5363 82.3617 28.5328C80.62 27.2232 78.6742 26.2099 76.6026 25.5339C75.8325 20.9315 76.6844 16.2045 79.0126 12.1605C79.1491 11.9176 79.2363 11.6502 79.2694 11.3736C79.3026 11.097 79.2809 10.8165 79.2056 10.5483C79.1303 10.2801 79.003 10.0293 78.8308 9.81028C78.6586 9.59127 78.4449 9.40832 78.2021 9.27187C77.9592 9.13542 77.6918 9.04815 77.4152 9.01504C77.1385 8.98193 76.8581 9.00362 76.5899 9.07889C76.3216 9.15415 76.0708 9.28152 75.8518 9.4537C75.6328 9.62589 75.4499 9.83952 75.3134 10.0824C72.7791 14.5073 71.6961 19.6155 72.2167 24.6881C67.4876 24.3811 63.029 26.0682 60.3234 29.69C59.8992 30.2624 59.5264 30.871 59.2093 31.5089C52.4999 29.4286 42.8915 28.5055 34.6087 31.2816C28.5495 33.3278 25.7165 37.5454 27.0261 42.5882C28.2152 47.1605 32.8262 51.6827 38.7558 54.1245C37.3036 57.1661 36.7108 60.5469 37.0415 63.9011C37.4666 67.9572 39.2946 71.7109 42.3731 74.9281L40.6997 84.1908L49.1121 79.9755C52.0428 81.492 55.06 82.2696 58.0589 82.2696C59.112 82.2694 60.163 82.1735 61.1987 81.9831C64.5142 81.346 67.5923 79.8145 70.1 77.5541C74.0152 82.4719 79.5174 85.6072 84.1965 85.6072H84.5148C89.7214 85.4435 92.9795 81.5329 93.2273 75.1486C93.5684 66.3929 89.9556 57.4144 86.054 51.5576C86.5694 51.0791 87.0412 50.5556 87.4637 49.9934C89.7578 46.9286 90.4626 42.9861 89.4486 38.8868C89.1884 37.8414 88.8283 36.8234 88.3731 35.847C93.0133 34.7852 97.2425 32.3916 100.542 28.9602C100.932 28.5566 101.146 28.0146 101.137 27.4532C101.128 26.8917 100.897 26.3568 100.494 25.9659V25.9659ZM73.5536 50.58C75.6345 54.2439 77.343 58.1071 78.6534 62.1117L78.5874 62.1004C78.5874 62.1617 77.4688 67.7412 70.5479 69.8079C69.9059 68.3333 69.4816 66.7732 69.2883 65.1766C68.6699 59.0901 70.873 53.2924 73.5536 50.58ZM67.2875 52.3761C65.7589 55.7022 64.9619 59.3175 64.9502 62.978C63.6042 63.1576 60.8759 63.1576 58.027 61.0249C55.1782 58.8923 54.4461 56.3299 54.2483 54.9703C57.7581 53.9294 61.0032 52.146 63.7634 49.741C64.8362 50.7467 66.0182 51.6291 67.2875 52.3716V52.3761ZM51.2243 41.5742C55.4335 41.7044 59.619 42.2566 63.7179 43.2226C61.8717 46.5602 56.9289 50.3071 50.9151 51.428C49.3318 51.7191 47.7157 51.7887 46.1132 51.6349C46.0837 44.3867 51.022 41.7538 51.2494 41.631L51.2243 41.5742ZM45.87 33.7962C54.5097 33.7962 62.4424 36.6723 63.7498 38.3434C64.0977 38.7738 64.3397 39.2799 64.4562 39.8209C64.5727 40.362 64.5604 40.9228 64.4205 41.4582C60.8217 40.582 57.1533 40.0221 53.457 39.7849C49.5582 39.5147 45.6413 39.6894 41.782 40.3055C39.256 39.2096 37.7326 36.7519 36.9301 35.0012C39.8383 34.1802 42.8481 33.7745 45.87 33.7962V33.7962ZM31.1278 41.5265C30.4457 38.9277 31.8098 36.9406 35.1293 35.6151C35.8273 37.1884 37.0574 39.3279 39.0445 40.8626C36.5835 41.4394 34.1966 42.2961 31.9304 43.4158C31.5775 42.8218 31.3074 42.1823 31.1278 41.5151V41.5265ZM33.024 44.9528C37.8691 42.586 43.2553 41.7106 48.23 41.5742C46.4702 43.2476 44.2852 46.3374 44.2352 51.3644C39.497 50.439 35.3703 47.7948 33.024 44.9528ZM60.4348 77.7996C56.3855 78.5408 52.1133 77.3449 48.0776 74.3165C42.3936 70.0716 38.9286 62.7984 42.8233 55.3909C43.4895 55.5387 44.1625 55.6615 44.8468 55.7502C45.2538 59.3879 47.1341 64.6309 52.3862 68.562C55.6963 71.0805 59.7382 72.4496 63.8975 72.4612C64.8879 72.4627 65.8767 72.3806 66.8533 72.2156C67.1215 72.8227 67.4171 73.4138 67.7331 73.9913C65.7236 75.9451 63.1868 77.2688 60.4348 77.7996V77.7996ZM80.5177 80.6507C76.7094 79.1297 73.3967 75.4214 71.3619 71.5313C76.0796 70.0534 78.3987 67.125 79.4992 64.9856C80.7701 69.8238 81.4522 75.2964 80.5177 80.6507ZM84.3829 81.3738C83.6964 81.3943 83.0097 81.3356 82.3366 81.1987C82.7815 78.6866 82.9341 76.1315 82.7914 73.5844C84.8217 75.0577 87.2227 75.6306 88.9302 75.858C88.5868 79.4366 87.059 81.2919 84.3738 81.3738H84.3829ZM89.0097 73.9686C87.1044 73.6912 84.317 72.925 82.5526 70.806C82.0561 66.9307 81.1201 63.1244 79.7629 59.4607C78.4946 55.9783 76.9228 52.6141 75.0656 49.4068C75.6188 49.0859 76.245 48.9121 76.8845 48.902C77.3528 48.9042 77.8162 48.9976 78.2487 49.1772C80.8724 50.2344 88.9847 62.1504 89.0006 73.9686H89.0097Z" fill="black"/>
</svg>
