<svg width="128" height="128" viewBox="0 0 128 128" fill="none" xmlns="http://www.w3.org/2000/svg">
<path d="M4 43.4737C4 40.4507 6.45065 38 9.47368 38H118.947C121.97 38 124.421 40.4507 124.421 43.4737V84.5263C124.421 87.5493 121.97 90 118.947 90H9.47369C6.45065 90 4 87.5493 4 84.5263V43.4737Z" fill="#FFEDB9"/>
<path d="M118.947 87.2632V90H9.47368V87.2632H118.947ZM121.684 84.5263V43.4737C121.684 41.9622 120.459 40.7368 118.947 40.7368H9.47368C7.96217 40.7368 6.73684 41.9622 6.73684 43.4737V84.5263C6.73684 86.0378 7.96217 87.2632 9.47368 87.2632V90C6.54521 90 4.15342 87.7003 4.00668 84.8083L4 84.5263V43.4737C4 40.4507 6.45065 38 9.47368 38H118.947L119.229 38.0067C122.121 38.1534 124.421 40.5452 124.421 43.4737V84.5263L124.414 84.8083C124.272 87.6069 122.028 89.8513 119.229 89.9933L118.947 90V87.2632C120.459 87.2632 121.684 86.0378 121.684 84.5263Z" fill="#FFC316"/>
<path d="M92.3853 57.6394C96.7429 57.6396 99.1422 59.7316 99.1512 63.5608C99.151 67.4789 96.6423 69.8107 92.3719 69.8109H88.8947V75.9621H84.5155C84.5155 75.9621 84.5088 73.9942 84.5088 72.696V60.7892C84.5088 59.6066 84.5154 57.66 84.5155 57.6394H92.3853ZM75.7905 57.6421C79.3558 57.6421 81.4459 59.3552 81.4459 62.2645C81.4459 63.6056 81.0075 64.6632 80.171 65.4116C79.6865 65.8299 79.2899 66.0504 78.387 66.3804C79.4655 66.6222 80.0385 66.8867 80.6775 67.4375C81.6191 68.274 82.1079 69.4615 82.1101 70.9107C82.1101 74.0808 79.864 75.9527 76.0337 75.9527H70.0469C68.3795 75.9527 66.9746 75.9607 66.9746 75.9607C66.9746 75.9607 66.9666 74.3237 66.9666 72.7829V70.7196C66.6395 71.2382 66.1847 71.8756 65.9229 72.1414C64.3528 73.7285 62.5026 74.8417 60.3316 75.3955C59.196 75.6874 58.0409 75.7885 56.8771 75.5879C54.3894 75.1655 52.6565 73.7822 51.6534 71.4679C51.4666 71.0234 51.3219 70.5618 51.2217 70.0902C50.9959 68.8815 51.0088 67.6401 51.2605 66.4366C51.5406 65.2524 52.0639 64.1389 52.7973 63.1679C53.6861 61.9641 54.7699 60.9775 56.1221 60.3134C56.9998 59.8811 57.9207 59.6186 58.9057 59.6466C59.8909 59.6747 60.7969 59.9523 61.5504 60.6074C62.4362 61.3799 62.793 62.3509 62.5793 63.5167C62.4495 64.1557 62.1743 64.7561 61.7762 65.2726C61.1128 66.1569 60.3061 66.9251 59.3895 67.5431C58.0249 68.4927 56.4932 69.1758 54.8753 69.5583C54.5633 69.6335 54.2452 69.6842 53.9292 69.7454C53.7255 69.7855 53.7029 69.8067 53.7621 70.0073C54.2417 71.6074 55.2245 72.708 56.8798 73.1384C57.7551 73.359 58.6704 73.3686 59.5498 73.1651C61.6806 72.6986 63.3665 71.4954 64.6988 70.2746C65.5012 69.5393 66.3459 68.494 66.9639 67.5832V60.7517C66.9639 59.5908 66.9731 57.6741 66.9733 57.6421H75.7905ZM114.416 57.6367V61.5135H110.736L105.673 61.5121V65.1229H109.811C111.513 65.1229 113.292 65.1282 113.322 65.1283V68.8888C113.291 68.8887 111.471 68.8848 109.811 68.8848H105.678V75.9607H101.316V57.6367H114.416ZM71.2776 72.3232H75.3281C76.7143 72.3231 77.5503 71.5534 77.5505 70.2545C77.5505 68.9784 76.7099 68.23 75.3054 68.23H71.2776V72.3232ZM58.6157 61.8355C58.0433 61.9218 57.4957 62.13 57.0108 62.4462C55.6576 63.298 54.6971 64.4849 54.0521 65.9354C53.802 66.4965 53.6406 67.093 53.5723 67.7034C53.5473 67.918 53.5861 67.959 53.7915 67.9319C53.9288 67.9119 54.0665 67.8912 54.2018 67.8651C55.5317 67.6079 56.8026 67.1031 57.9476 66.3791C58.806 65.8355 59.5751 65.1916 60.1859 64.3733C60.3781 64.1244 60.5338 63.8488 60.647 63.5554C60.8816 62.9165 60.6802 62.3747 60.0844 62.0507C59.7588 61.8811 59.3971 61.793 59.03 61.7941C58.8916 61.8071 58.7522 61.8165 58.6157 61.8355ZM88.8854 66.0664H92.1648V66.0758C93.7046 66.0758 94.6075 65.2037 94.6076 63.689C94.6076 62.1742 93.7489 61.3812 92.1648 61.3812H88.8854V66.0664ZM71.2776 64.7073H75.1517C76.3182 64.7072 77.044 64.0244 77.044 62.946C77.0437 61.868 76.3614 61.2529 75.1076 61.2529H71.2776V64.7073Z" fill="black"/>
<path d="M35.2596 76.2877C32.0505 70.1174 35.0993 65.0161 35.0993 65.0161L33.8791 63.3104L33.8734 63.3024L31.889 62.6133C31.889 62.6133 27.8543 66.9766 21.0291 65.6347C19.238 70.2607 19.1857 72.9422 23.2534 77.4772L23.2602 77.4852C28.7629 80.1086 31.3159 79.3001 35.2596 76.2877Z" fill="#FFE100"/>
<path d="M32.9363 57.4842C31.6251 55.8205 23.8753 53.5939 17.8665 55.6147C10.0064 58.2586 18.0189 67.1979 25.8813 65.7355C30.8882 64.7939 35.1992 60.359 32.9363 57.4842Z" fill="#D9F1FD"/>
<path d="M24.148 59.4504L23.8171 58.8659C23.5245 59.0471 23.2569 59.2658 23.021 59.5163C22.2367 59.5813 21.4566 59.6895 20.6842 59.8404L20.7365 59.7074C18.7157 58.9114 17.9913 56.2254 17.9834 56.1992L17.3011 56.3766L16.6188 56.5529C16.6472 56.6666 17.2397 58.8863 18.9432 60.268C17.6732 60.6411 16.4535 61.1677 15.311 61.8362L16.0297 63.0529C17.9106 61.943 19.9655 61.3472 21.9567 61.0731C21.4381 62.1648 21.0765 63.7182 21.3267 65.8595L22.7299 65.6957C22.4377 63.2053 23.0904 61.7156 23.6874 60.906C26.5114 60.7663 29.3395 61.0764 32.0661 61.8248L32.4903 60.4807C29.7792 59.7095 26.9652 59.362 24.148 59.4504V59.4504Z" fill="#00AEEF"/>
<path d="M39.7452 62.5813C41.7114 63.3716 46.0315 70.1787 45.7847 76.5139C45.4629 84.8016 34.628 79.6309 33.8206 71.6741C33.3066 66.6069 36.3542 61.219 39.7452 62.5813Z" fill="#D9F1FD"/>
<path d="M45.2443 77.9729L45.1965 76.5617C45.1704 76.5617 42.4025 76.6345 41.0561 74.9082L40.9424 74.9969C40.8704 74.2133 40.7546 73.4342 40.5955 72.6635C40.7703 72.368 40.9049 72.0506 40.9958 71.7196L40.3408 71.5627C39.6336 68.836 38.5094 66.2349 37.0078 63.8516L35.8331 64.6373C37.3221 67.04 38.4177 69.665 39.0786 72.4133C38.4702 73.2161 37.225 74.2635 34.7505 74.6876L34.987 76.0795C37.1158 75.7168 38.5043 74.931 39.4049 74.1247C39.6994 76.1136 39.7085 78.2515 39.1775 80.3723L40.5421 80.7135C40.8625 79.4292 41.0245 78.1105 41.0242 76.7868C42.6368 77.899 44.6404 77.9729 45.1351 77.9729C45.1931 77.9752 45.2318 77.974 45.2443 77.9729Z" fill="#00AEEF"/>
<path d="M50.4826 51.9583C50.3829 51.8611 50.2651 51.7846 50.1358 51.733C50.0065 51.6814 49.8684 51.6557 49.7292 51.6575C49.59 51.6593 49.4525 51.6885 49.3246 51.7434C49.1968 51.7984 49.0809 51.8779 48.9838 51.9776C47.4442 53.5862 45.416 54.6409 43.2149 54.9775C42.6884 54.3269 42.0834 53.7441 41.4137 53.2421C40.5426 52.5871 39.5693 52.0803 38.5332 51.7422C38.1481 49.4403 38.5741 47.0761 39.7386 45.0534C39.8069 44.9319 39.8505 44.7982 39.8671 44.6598C39.8836 44.5215 39.8728 44.3812 39.8351 44.2471C39.7975 44.1129 39.7338 43.9875 39.6477 43.8779C39.5615 43.7684 39.4547 43.6769 39.3332 43.6086C39.2117 43.5404 39.078 43.4967 38.9396 43.4802C38.8013 43.4636 38.661 43.4745 38.5269 43.5121C38.3927 43.5498 38.2673 43.6135 38.1577 43.6996C38.0482 43.7857 37.9567 43.8926 37.8884 44.014C36.6209 46.2272 36.0792 48.7821 36.3396 51.3192C33.9743 51.1657 31.7443 52.0095 30.3911 53.821C30.1789 54.1072 29.9925 54.4116 29.8339 54.7307C26.4781 53.6902 21.6724 53.2285 17.5297 54.617C14.4991 55.6404 13.0822 57.7499 13.7372 60.2721C14.332 62.559 16.6382 64.8208 19.6039 66.0421C18.8776 67.5634 18.5811 69.2543 18.7465 70.9319C18.9591 72.9606 19.8734 74.8381 21.4131 76.4472L20.5762 81.08L24.7837 78.9717C26.2495 79.7302 27.7585 80.1191 29.2585 80.1191C29.7852 80.119 30.3108 80.071 30.8289 79.9758C32.4871 79.6572 34.0267 78.8912 35.2809 77.7606C37.2391 80.2203 39.9911 81.7884 42.3314 81.7884H42.4906C45.0947 81.7066 46.7242 79.7506 46.8482 76.5575C47.0188 72.1782 45.2118 67.6876 43.2604 64.7582C43.5182 64.5189 43.7542 64.2571 43.9655 63.9759C45.1129 62.443 45.4654 60.4711 44.9582 58.4208C44.8281 57.8979 44.648 57.3888 44.4203 56.9004C46.7412 56.3693 48.8564 55.1722 50.5065 53.4559C50.7017 53.2541 50.8089 52.983 50.8044 52.7022C50.7999 52.4214 50.6842 52.1538 50.4826 51.9583V51.9583ZM37.0083 64.2693C38.049 66.1018 38.9035 68.034 39.5589 70.037L39.526 70.0313C39.526 70.062 38.9665 72.8526 35.5049 73.8863C35.1838 73.1487 34.9716 72.3684 34.8749 71.5699C34.5656 68.5257 35.6675 65.6259 37.0083 64.2693ZM33.8742 65.1676C33.1097 66.8312 32.711 68.6394 32.7052 70.4702C32.032 70.5601 30.6674 70.5601 29.2425 69.4934C27.8177 68.4267 27.4515 67.1451 27.3526 66.4651C29.1081 65.9445 30.7311 65.0525 32.1116 63.8496C32.6482 64.3527 33.2394 64.794 33.8742 65.1653V65.1676ZM25.8401 59.7649C27.9454 59.83 30.0388 60.1062 32.0889 60.5894C31.1655 62.2587 28.6933 64.1328 25.6855 64.6934C24.8936 64.839 24.0853 64.8738 23.2838 64.7969C23.269 61.1716 25.7389 59.8548 25.8526 59.7934L25.8401 59.7649ZM23.1621 55.8747C27.4833 55.8747 31.4509 57.3132 32.1048 58.149C32.2788 58.3643 32.3998 58.6174 32.4581 58.888C32.5164 59.1586 32.5103 59.4391 32.4403 59.7069C30.6403 59.2687 28.8055 58.9886 26.9568 58.87C25.0068 58.7349 23.0477 58.8222 21.1175 59.1304C19.8541 58.5823 19.0922 57.353 18.6907 56.4774C20.1453 56.0667 21.6507 55.8638 23.1621 55.8747V55.8747ZM15.7887 59.7411C15.4475 58.4413 16.1298 57.4474 17.7901 56.7844C18.1392 57.5713 18.7544 58.6414 19.7483 59.409C18.5174 59.6975 17.3236 60.126 16.1901 60.686C16.0136 60.3889 15.8786 60.0691 15.7887 59.7354V59.7411ZM16.7371 61.4548C19.1604 60.271 21.8544 59.8332 24.3425 59.7649C23.4623 60.6019 22.3695 62.1473 22.3445 64.6616C19.9746 64.1987 17.9107 62.8762 16.7371 61.4548ZM30.4468 77.8834C28.4215 78.2541 26.2848 77.656 24.2663 76.1413C21.4234 74.0182 19.6903 70.3804 21.6383 66.6755C21.9715 66.7494 22.3081 66.8108 22.6504 66.8552C22.8539 68.6746 23.7944 71.2969 26.4212 73.2631C28.0768 74.5228 30.0984 75.2076 32.1787 75.2133C32.6741 75.2141 33.1686 75.173 33.657 75.0905C33.7912 75.3942 33.939 75.6898 34.0971 75.9787C33.092 76.9558 31.8232 77.6179 30.4468 77.8834V77.8834ZM40.4914 79.3094C38.5867 78.5487 36.9298 76.6939 35.912 74.7482C38.2717 74.0091 39.4316 72.5444 39.982 71.4743C40.6176 73.8942 40.9588 76.6314 40.4914 79.3094ZM42.4246 79.671C42.0812 79.6813 41.7378 79.6519 41.4012 79.5835C41.6236 78.327 41.7 77.0491 41.6286 75.7751C42.6441 76.512 43.8449 76.7986 44.6989 76.9123C44.5272 78.7022 43.7631 79.6301 42.4201 79.671H42.4246ZM44.7387 75.9673C43.7858 75.8286 42.3916 75.4453 41.5092 74.3855C41.2608 72.4472 40.7927 70.5435 40.1139 68.711C39.4795 66.9693 38.6934 65.2866 37.7645 63.6825C38.0412 63.522 38.3544 63.4351 38.6742 63.43C38.9084 63.4311 39.1402 63.4778 39.3565 63.5676C40.6688 64.0964 44.7262 70.0563 44.7342 75.9673H44.7387Z" fill="black"/>
</svg>
