<svg width="128" height="128" viewBox="0 0 128 128" fill="none" xmlns="http://www.w3.org/2000/svg">
<path d="M125 52.0563C125 51.4729 124.527 51 123.944 51L4.05637 51C3.473 51 3.00009 51.4729 3.00009 52.0563L3.00011 76.3506C3.00011 76.934 3.47303 77.4069 4.0564 77.4069L123.944 77.4069C124.527 77.4069 125 76.934 125 76.3506L125 52.0563Z" fill="url(#paint0_linear_220_11604)"/>
<path opacity="0.5" d="M122.359 74.7662L5.6408 74.7662L5.64079 53.6407L122.359 53.6407L122.359 74.7662ZM3.00011 76.3507L3.00579 76.4584C3.0562 76.9557 3.45136 77.3508 3.9486 77.4013L4.05639 77.4069L123.944 77.4069L124.052 77.4013C124.549 77.3508 124.944 76.9557 124.994 76.4584L125 76.3507L125 52.0563C125 51.4729 124.527 51 123.944 51L4.05637 51L3.94858 51.0057C3.41589 51.0597 3.00009 51.5093 3.00009 52.0563L3.00011 76.3507Z" fill="url(#paint1_linear_220_11604)"/>
<path d="M4.05639 76.3507L4.05639 77.4069L123.944 77.4069L123.944 76.3507L4.05639 76.3507ZM4.05637 52.0563L123.944 52.0563L123.944 77.4069L124.052 77.4013C124.549 77.3508 124.944 76.9557 124.994 76.4584L125 76.3507L125 52.0563C125 51.4729 124.527 51 123.944 51L4.05637 51L3.94858 51.0057C3.41589 51.0597 3.00009 51.5093 3.00009 52.0563L3.00011 76.3507L3.00579 76.4584C3.0562 76.9557 3.45136 77.3508 3.9486 77.4013L4.05639 77.4069L4.05637 52.0563Z" fill="#FEB36D"/>
<path d="M67.4485 67.4732C67.0166 67.4732 66.6453 67.3755 66.3344 67.1802C66.0263 66.9849 65.7884 66.7167 65.6206 66.3756C65.4556 66.0318 65.373 65.6412 65.373 65.2038C65.373 64.761 65.4597 64.3676 65.633 64.0238C65.8063 63.6799 66.0456 63.4103 66.3509 63.215C66.6563 63.017 67.007 62.918 67.4031 62.918C67.8157 62.918 68.1733 63.0142 68.4759 63.2068C68.7812 63.3993 69.0178 63.6675 69.1855 64.0114C69.3533 64.3525 69.4372 64.7472 69.4372 65.1956V65.4308H66.2313C66.2478 65.8241 66.3606 66.1418 66.5696 66.3839C66.7814 66.6259 67.0785 66.747 67.4608 66.747C67.7469 66.747 67.9821 66.6823 68.1664 66.553C68.3507 66.4238 68.4731 66.256 68.5336 66.0497H69.3712C69.319 66.3302 69.2021 66.5778 69.0205 66.7924C68.8417 67.0069 68.6161 67.1747 68.3438 67.2957C68.0743 67.414 67.7758 67.4732 67.4485 67.4732ZM66.2395 64.7706H68.5873C68.5515 64.424 68.4291 64.1503 68.22 63.9495C68.011 63.7459 67.7414 63.6442 67.4113 63.6442C67.0812 63.6442 66.8117 63.7459 66.6026 63.9495C66.3963 64.1503 66.2753 64.424 66.2395 64.7706Z" fill="black"/>
<path d="M58.3677 67.3696V63.0124H59.2135V63.7427C59.3483 63.4732 59.5312 63.2696 59.7623 63.1321C59.9934 62.9945 60.2437 62.9258 60.5132 62.9258C60.8103 62.9258 61.0703 63.0014 61.2931 63.1527C61.5186 63.304 61.6768 63.4966 61.7676 63.7304C61.8858 63.4938 62.0646 63.3013 62.304 63.1527C62.546 63.0014 62.828 62.9258 63.1498 62.9258C63.4194 62.9258 63.6642 62.9849 63.8842 63.1032C64.1043 63.2215 64.279 63.3975 64.4083 63.6313C64.5375 63.8624 64.6022 64.1526 64.6022 64.5019V67.3696H63.7275V64.5762C63.7275 64.2654 63.6408 64.0398 63.4675 63.8995C63.2942 63.7592 63.0893 63.6891 62.8527 63.6891C62.5612 63.6891 62.3315 63.7799 62.1637 63.9614C61.9959 64.1402 61.912 64.3685 61.912 64.6464V67.3696H61.0538V64.5184C61.0538 64.2681 60.9726 64.0673 60.8103 63.916C60.6508 63.7648 60.4472 63.6891 60.1997 63.6891C59.9466 63.6891 59.7224 63.7785 59.5271 63.9573C59.3346 64.1361 59.2383 64.3974 59.2383 64.7413V67.3696H58.3677Z" fill="black"/>
<path d="M56.511 67.3701V63.013H57.3816V67.3701H56.511ZM56.9443 62.262C56.7902 62.262 56.6596 62.2111 56.5523 62.1093C56.4478 62.0048 56.3955 61.8783 56.3955 61.7298C56.3955 61.5785 56.4478 61.4519 56.5523 61.3502C56.6596 61.2456 56.7902 61.1934 56.9443 61.1934C57.0983 61.1934 57.229 61.2456 57.3363 61.3502C57.4435 61.4519 57.4972 61.5785 57.4972 61.7298C57.4972 61.8783 57.4435 62.0048 57.3363 62.1093C57.229 62.2111 57.0983 62.262 56.9443 62.262Z" fill="black"/>
<path d="M55.823 63.0164V63.7344H54.94V66.2224C54.94 66.3847 54.973 66.4975 55.0391 66.5607C55.1051 66.624 55.2247 66.6556 55.398 66.6556H55.823V67.3736H55.2742C54.4683 67.3736 54.0653 67.027 54.0653 66.3338V63.7344H53.2979V63.0164H54.0653V61.8281H54.94V63.0164H55.823Z" fill="black"/>
<path d="M49.8633 64.8609V67.3696H48.9927V63.0124H49.8468V63.6685C50.1439 63.1733 50.5826 62.9258 51.163 62.9258C51.4628 62.9258 51.731 62.9918 51.9676 63.1238C52.2069 63.2531 52.3953 63.4457 52.5329 63.7015C52.6704 63.9573 52.7392 64.275 52.7392 64.6546V67.3696H51.8686V64.7619C51.8686 64.4125 51.7847 64.1499 51.6169 63.9738C51.4491 63.795 51.2153 63.7056 50.9154 63.7056C50.6184 63.7056 50.368 63.7978 50.1645 63.9821C49.9637 64.1636 49.8633 64.4566 49.8633 64.8609Z" fill="black"/>
<path d="M45.8418 67.4633C45.5447 67.4633 45.2765 67.3987 45.0372 67.2694C44.8006 67.1374 44.6122 66.9434 44.4719 66.6876C44.3344 66.4318 44.2656 66.1141 44.2656 65.7345V63.0195H45.1362V65.6272C45.1362 65.9766 45.2201 66.2406 45.3879 66.4194C45.5557 66.5955 45.7909 66.6835 46.0935 66.6835C46.3878 66.6835 46.6354 66.5927 46.8362 66.4112C47.0397 66.2269 47.1415 65.9325 47.1415 65.5282V63.0195H48.0121V67.3767H47.158V66.7206C46.8609 67.2158 46.4222 67.4633 45.8418 67.4633Z" fill="black"/>
<path d="M38.9375 67.3744V61.2266H41.277C41.9344 61.2266 42.4557 61.3985 42.8408 61.7423C43.2259 62.0862 43.4184 62.5524 43.4184 63.1411C43.4184 63.5702 43.3084 63.936 43.0883 64.2386C42.8683 64.5384 42.5671 64.7571 42.1847 64.8946L43.5133 67.3744H42.4818L41.2564 65.0473C41.2426 65.0473 41.2289 65.0473 41.2151 65.0473H39.8535V67.3744H38.9375ZM39.8535 64.2675H41.2399C41.636 64.2675 41.9468 64.1671 42.1723 63.9663C42.4007 63.7627 42.5148 63.4877 42.5148 63.1411C42.5148 62.7945 42.4007 62.5208 42.1723 62.32C41.944 62.1192 41.6318 62.0188 41.2357 62.0188H39.8535V64.2675Z" fill="black"/>
<path d="M35.8687 61.2266V67.3744H34.998V61.2266H35.8687Z" fill="black"/>
<path d="M32.2541 67.4732C31.8223 67.4732 31.4509 67.3755 31.1401 67.1802C30.832 66.9849 30.5941 66.7167 30.4263 66.3756C30.2612 66.0318 30.1787 65.6412 30.1787 65.2038C30.1787 64.761 30.2654 64.3676 30.4387 64.0238C30.6119 63.6799 30.8513 63.4103 31.1566 63.215C31.4619 63.017 31.8126 62.918 32.2087 62.918C32.6214 62.918 32.9789 63.0142 33.2815 63.2068C33.5869 63.3993 33.8234 63.6675 33.9912 64.0114C34.159 64.3525 34.2429 64.7472 34.2429 65.1956V65.4308H31.0369C31.0534 65.8241 31.1662 66.1418 31.3753 66.3839C31.5871 66.6259 31.8842 66.747 32.2665 66.747C32.5526 66.747 32.7878 66.6823 32.9721 66.553C33.1564 66.4238 33.2788 66.256 33.3393 66.0497H34.1769C34.1246 66.3302 34.0077 66.5778 33.8262 66.7924C33.6474 67.0069 33.4218 67.1747 33.1495 67.2957C32.8799 67.414 32.5815 67.4732 32.2541 67.4732ZM31.0452 64.7706H33.3929C33.3572 64.424 33.2348 64.1503 33.0257 63.9495C32.8167 63.7459 32.5471 63.6442 32.217 63.6442C31.8869 63.6442 31.6173 63.7459 31.4083 63.9495C31.202 64.1503 31.0809 64.424 31.0452 64.7706Z" fill="black"/>
<path d="M26.5337 64.8609V67.3696H25.6631V63.0124H26.5172V63.6685C26.8143 63.1733 27.253 62.9258 27.8334 62.9258C28.1332 62.9258 28.4014 62.9918 28.638 63.1238C28.8773 63.2531 29.0657 63.4457 29.2033 63.7015C29.3408 63.9573 29.4096 64.275 29.4096 64.6546V67.3696H28.539V64.7619C28.539 64.4125 28.4551 64.1499 28.2873 63.9738C28.1195 63.795 27.8857 63.7056 27.5858 63.7056C27.2888 63.7056 27.0384 63.7978 26.8349 63.9821C26.6341 64.1636 26.5337 64.4566 26.5337 64.8609Z" fill="black"/>
<path d="M22.7686 67.3717V63.0146H23.602V63.7201H23.6185C23.6983 63.4808 23.8235 63.2952 23.994 63.1631C24.1673 63.0283 24.3929 62.9609 24.6707 62.9609C24.7367 62.9609 24.7972 62.9637 24.8522 62.9692C24.9072 62.9747 24.9526 62.9788 24.9884 62.9816V63.7944C24.9554 63.7862 24.8962 63.7779 24.811 63.7696C24.7257 63.7586 24.6322 63.7531 24.5304 63.7531C24.2856 63.7531 24.0751 63.8384 23.8991 64.009C23.7258 64.1795 23.6392 64.4422 23.6392 64.797V67.3717H22.7686Z" fill="black"/>
<path d="M20.0246 67.4732C19.5928 67.4732 19.2214 67.3755 18.9106 67.1802C18.6025 66.9849 18.3646 66.7167 18.1968 66.3756C18.0317 66.0318 17.9492 65.6412 17.9492 65.2038C17.9492 64.761 18.0359 64.3676 18.2092 64.0238C18.3825 63.6799 18.6218 63.4103 18.9271 63.215C19.2324 63.017 19.5831 62.918 19.9793 62.918C20.3919 62.918 20.7495 63.0142 21.052 63.2068C21.3574 63.3993 21.5939 63.6675 21.7617 64.0114C21.9295 64.3525 22.0134 64.7472 22.0134 65.1956V65.4308H18.8074C18.8239 65.8241 18.9367 66.1418 19.1458 66.3839C19.3576 66.6259 19.6547 66.747 20.037 66.747C20.3231 66.747 20.5583 66.6823 20.7426 66.553C20.9269 66.4238 21.0493 66.256 21.1098 66.0497H21.9474C21.8951 66.3302 21.7782 66.5778 21.5967 66.7924C21.4179 67.0069 21.1923 67.1747 20.92 67.2957C20.6504 67.414 20.352 67.4732 20.0246 67.4732ZM18.8157 64.7706H21.1634C21.1277 64.424 21.0053 64.1503 20.7962 63.9495C20.5872 63.7459 20.3176 63.6442 19.9875 63.6442C19.6574 63.6442 19.3878 63.7459 19.1788 63.9495C18.9725 64.1503 18.8515 64.424 18.8157 64.7706Z" fill="black"/>
<path d="M13.0679 67.3744V61.2266H13.9839V64.2881C14.1517 64.0983 14.3194 63.9099 14.4872 63.7228C14.655 63.5358 14.8242 63.346 14.9948 63.1534L16.7442 61.2266H17.9036L15.4775 63.8879L17.9243 67.3744H16.8515L14.8503 64.5109L13.9839 65.4682V67.3744H13.0679Z" fill="black"/>
<path d="M107.883 61.2159C109.565 61.2159 110.492 62.0233 110.495 63.5012C110.495 65.0136 109.526 65.9135 107.878 65.9135H106.536V68.2876H104.847C104.846 68.28 104.844 67.5261 104.844 67.0276V62.4315C104.844 61.9733 104.847 61.2178 104.847 61.2159H107.883ZM101.479 61.2169C102.855 61.217 103.661 61.8782 103.661 63.001C103.661 63.5186 103.492 63.9267 103.169 64.2156C102.982 64.377 102.829 64.4627 102.481 64.59C102.897 64.6833 103.118 64.785 103.364 64.9975C103.728 65.3204 103.916 65.779 103.917 66.3385C103.917 67.562 103.051 68.284 101.572 68.284H99.2619C98.6184 68.284 98.0762 68.2871 98.0762 68.2871C98.0761 68.2799 98.0725 67.6519 98.0725 67.0606V66.2642C97.9464 66.4643 97.7713 66.7103 97.6702 66.813C97.0643 67.4255 96.3502 67.8552 95.5123 68.0689C95.074 68.1816 94.6282 68.2206 94.1791 68.1432C93.2189 67.9801 92.5501 67.4463 92.163 66.5531C92.0909 66.3816 92.035 66.2038 91.9964 66.0218C91.9092 65.5554 91.9143 65.0762 92.0113 64.6117C92.1195 64.1547 92.3215 63.7249 92.6045 63.3501C92.9475 62.8855 93.3657 62.5043 93.8877 62.2479C94.2264 62.0811 94.5818 61.9797 94.962 61.9906C95.3422 62.0014 95.6919 62.1086 95.9827 62.3614C96.3245 62.6595 96.4622 63.0344 96.3798 63.4842C96.3297 63.7309 96.2235 63.9631 96.0698 64.1625C95.8139 64.5037 95.5024 64.7998 95.1487 65.0382C94.622 65.4048 94.031 65.6689 93.4065 65.8165C93.2861 65.8456 93.1633 65.8646 93.0413 65.8882C92.9628 65.9037 92.954 65.912 92.9768 65.9893C93.1619 66.6069 93.5413 67.0317 94.1801 67.1978C94.5179 67.2829 94.8712 67.2866 95.2106 67.2081C96.033 67.028 96.6836 66.5637 97.1978 66.0925C97.5075 65.8087 97.8335 65.4053 98.072 65.0537V62.4171C98.072 61.9652 98.0756 61.2169 98.0756 61.2169H101.479ZM116.387 61.2148V62.7111C116.387 62.7111 115.679 62.7111 114.966 62.7111L113.012 62.7101V64.1042H114.609C115.271 64.1042 115.964 64.1062 115.964 64.1062V65.5576C115.964 65.5576 115.255 65.5556 114.609 65.5556H113.014V68.2871H111.331V61.2148H116.387ZM99.7369 66.8837H101.3C101.835 66.8836 102.158 66.5861 102.158 66.0847C102.158 65.5922 101.833 65.3033 101.291 65.3033H99.7369V66.8837ZM94.8501 62.8354C94.6291 62.8687 94.4178 62.949 94.2307 63.0711C93.7084 63.3998 93.3377 63.8579 93.0888 64.4178C92.9922 64.6344 92.9299 64.8649 92.9036 65.1007C92.894 65.1834 92.9089 65.1988 92.9882 65.1883C93.0412 65.1806 93.0943 65.1726 93.1465 65.1625C93.6598 65.0633 94.1503 64.8689 94.5922 64.5895C94.9236 64.3797 95.2203 64.1308 95.4561 63.8148C95.5303 63.7188 95.5904 63.6124 95.634 63.4992C95.7245 63.2527 95.6468 63.0435 95.4169 62.9184C95.2913 62.853 95.1516 62.819 95.01 62.8194C94.9565 62.8244 94.9027 62.828 94.8501 62.8354ZM106.533 64.4683H107.799V64.4719C108.393 64.4719 108.741 64.1353 108.742 63.5508C108.742 62.9661 108.41 62.6601 107.799 62.66H106.533V64.4683ZM99.7369 63.9438H101.232C101.682 63.9437 101.962 63.6806 101.962 63.2645C101.962 62.8483 101.699 62.6105 101.215 62.6105H99.7369V63.9438Z" fill="black"/>
<path d="M85.8368 68.4182C84.5983 66.0368 85.7749 64.068 85.7749 64.068L85.304 63.4097L85.3018 63.4066L84.5359 63.1406C84.5359 63.1406 82.9788 64.8246 80.3446 64.3067C79.6534 66.0921 79.6332 67.127 81.2031 68.8773L81.2057 68.8804C83.3295 69.8929 84.3148 69.5808 85.8368 68.4182Z" fill="#FFE100"/>
<path d="M84.9375 61.1647C84.4315 60.5226 81.4405 59.6633 79.1214 60.4432C76.0878 61.4636 79.1802 64.9137 82.2147 64.3493C84.1471 63.9859 85.8109 62.2742 84.9375 61.1647Z" fill="#D9F1FD"/>
<path d="M81.5458 61.9188L81.4181 61.6933C81.3052 61.7632 81.2019 61.8476 81.1109 61.9443C80.8082 61.9694 80.5071 62.0111 80.209 62.0694L80.2292 62.018C79.4493 61.7108 79.1697 60.6742 79.1666 60.6641L78.9033 60.7325L78.64 60.8006C78.6509 60.8444 78.8796 61.7012 79.5371 62.2344C79.0469 62.3784 78.5762 62.5816 78.1353 62.8396L78.4126 63.3092C79.1385 62.8809 79.9316 62.6509 80.7001 62.5451C80.5 62.9665 80.3604 63.566 80.457 64.3924L80.9985 64.3292C80.8857 63.368 81.1377 62.7931 81.3681 62.4806C82.458 62.4267 83.5495 62.5464 84.6018 62.8352L84.7655 62.3165C83.7192 62.0189 82.6331 61.8847 81.5458 61.9188V61.9188Z" fill="#00AEEF"/>
<path d="M87.5664 63.1295C88.3252 63.4345 89.9925 66.0617 89.8973 68.5068C89.7731 71.7054 85.5914 69.7097 85.2798 66.6389C85.0814 64.6832 86.2576 62.6037 87.5664 63.1295Z" fill="#D9F1FD"/>
<path d="M89.6887 69.0673L89.6703 68.5226C89.6602 68.5226 88.5919 68.5507 88.0723 67.8845L88.0284 67.9187C88.0006 67.6163 87.9559 67.3156 87.8945 67.0181C87.962 66.9041 88.0139 66.7816 88.049 66.6538L87.7962 66.5933C87.5233 65.5409 87.0894 64.537 86.5099 63.6172L86.0565 63.9205C86.6312 64.8477 87.054 65.8609 87.3091 66.9216C87.0743 67.2314 86.5937 67.6356 85.6387 67.7993L85.73 68.3365C86.5516 68.1965 87.0874 67.8933 87.435 67.5821C87.5487 68.3497 87.5522 69.1748 87.3472 69.9933L87.8739 70.125C87.9976 69.6293 88.0601 69.1204 88.06 68.6095C88.6823 69.0388 89.4557 69.0673 89.6466 69.0673C89.669 69.0682 89.6839 69.0677 89.6887 69.0673Z" fill="#00AEEF"/>
<path d="M91.7091 59.0289C91.6707 58.9914 91.6252 58.9619 91.5753 58.942C91.5254 58.922 91.4721 58.9121 91.4184 58.9128C91.3646 58.9135 91.3116 58.9248 91.2622 58.946C91.2129 58.9672 91.1682 58.9979 91.1307 59.0364C90.5365 59.6572 89.7537 60.0643 88.9042 60.1942C88.701 59.9431 88.4675 59.7181 88.209 59.5244C87.8728 59.2716 87.4972 59.076 87.0973 58.9455C86.9487 58.0571 87.1131 57.1446 87.5626 56.364C87.5889 56.3171 87.6057 56.2655 87.6121 56.2121C87.6185 56.1587 87.6143 56.1046 87.5998 56.0528C87.5853 56.001 87.5607 55.9526 87.5275 55.9103C87.4942 55.868 87.453 55.8327 87.4061 55.8064C87.3592 55.78 87.3076 55.7632 87.2542 55.7568C87.2008 55.7504 87.1467 55.7546 87.0949 55.7691C87.0431 55.7837 86.9947 55.8082 86.9524 55.8415C86.9101 55.8747 86.8748 55.916 86.8485 55.9628C86.3593 56.817 86.1502 57.8031 86.2507 58.7823C85.3378 58.723 84.4772 59.0487 83.9549 59.7478C83.873 59.8583 83.8011 59.9758 83.7399 60.0989C82.4447 59.6973 80.59 59.5191 78.9911 60.055C77.8215 60.45 77.2747 61.2642 77.5275 62.2376C77.757 63.1202 78.647 63.9932 79.7917 64.4645C79.5113 65.0517 79.3969 65.7043 79.4607 66.3517C79.5428 67.1347 79.8957 67.8593 80.4899 68.4803L80.1669 70.2684L81.7908 69.4547C82.3565 69.7474 82.9389 69.8975 83.5178 69.8975C83.7211 69.8975 83.9239 69.879 84.1239 69.8422C84.7639 69.7192 85.3581 69.4236 85.8421 68.9872C86.5979 69.9366 87.66 70.5418 88.5632 70.5418H88.6247C89.6297 70.5102 90.2586 69.7553 90.3065 68.5229C90.3723 66.8328 89.6749 65.0996 88.9218 63.969C89.0213 63.8766 89.1123 63.7756 89.1939 63.6671C89.6367 63.0754 89.7728 62.3144 89.577 61.5231C89.5268 61.3213 89.4573 61.1248 89.3694 60.9363C90.2651 60.7313 91.0815 60.2693 91.7184 59.6069C91.7937 59.529 91.8351 59.4244 91.8333 59.316C91.8316 59.2076 91.7869 59.1044 91.7091 59.0289V59.0289ZM86.5088 63.7803C86.9105 64.4876 87.2403 65.2333 87.4932 66.0063L87.4805 66.0041C87.4805 66.016 87.2645 67.093 85.9286 67.492C85.8046 67.2073 85.7227 66.9062 85.6854 66.5979C85.5661 65.423 85.9913 64.3039 86.5088 63.7803ZM85.2992 64.127C85.0042 64.7691 84.8503 65.4669 84.8481 66.1735C84.5882 66.2082 84.0616 66.2082 83.5116 65.7965C82.9617 65.3849 82.8204 64.8902 82.7822 64.6278C83.4597 64.4269 84.0861 64.0826 84.619 63.6183C84.826 63.8125 85.0542 63.9828 85.2992 64.1261V64.127ZM82.1985 62.0419C83.011 62.067 83.819 62.1736 84.6102 62.3601C84.2538 63.0043 83.2997 63.7276 82.1388 63.944C81.8332 64.0002 81.5212 64.0136 81.2119 63.9839C81.2062 62.5848 82.1594 62.0765 82.2033 62.0528L82.1985 62.0419ZM81.1649 60.5404C82.8327 60.5404 84.364 61.0956 84.6163 61.4182C84.6835 61.5013 84.7302 61.599 84.7527 61.7034C84.7752 61.8079 84.7728 61.9161 84.7458 62.0195C84.0511 61.8503 83.343 61.7423 82.6295 61.6965C81.8769 61.6443 81.1208 61.678 80.3758 61.797C79.8882 61.5854 79.5942 61.111 79.4392 60.773C80.0006 60.6146 80.5816 60.5362 81.1649 60.5404V60.5404ZM78.3192 62.0327C78.1875 61.531 78.4509 61.1474 79.0916 60.8915C79.2264 61.1953 79.4638 61.6082 79.8474 61.9045C79.3723 62.0158 78.9116 62.1812 78.4741 62.3974C78.406 62.2827 78.3539 62.1592 78.3192 62.0305V62.0327ZM78.6852 62.6941C79.6205 62.2372 80.6602 62.0682 81.6205 62.0419C81.2808 62.3649 80.859 62.9613 80.8494 63.9317C79.9347 63.7531 79.1382 63.2427 78.6852 62.6941ZM83.9764 69.0346C83.1948 69.1777 82.3701 68.9469 81.5911 68.3623C80.4939 67.5429 79.825 66.1389 80.5768 64.709C80.7054 64.7375 80.8353 64.7612 80.9674 64.7783C81.046 65.4805 81.4089 66.4926 82.4228 67.2514C83.0617 67.7376 83.842 68.0019 84.6448 68.0041C84.836 68.0044 85.0269 67.9886 85.2154 67.9567C85.2672 68.0739 85.3242 68.188 85.3852 68.2995C84.9973 68.6766 84.5077 68.9322 83.9764 69.0346V69.0346ZM87.8531 69.585C87.118 69.2914 86.4785 68.5756 86.0857 67.8246C86.9964 67.5394 87.4441 66.9741 87.6565 66.5611C87.9018 67.495 88.0335 68.5514 87.8531 69.585ZM88.5992 69.7246C88.4667 69.7285 88.3341 69.7172 88.2042 69.6908C88.2901 69.2059 88.3195 68.7126 88.292 68.2209C88.6839 68.5053 89.1474 68.6159 89.477 68.6598C89.4107 69.3506 89.1158 69.7088 88.5974 69.7246H88.5992ZM89.4923 68.2951C89.1245 68.2416 88.5865 68.0937 88.2459 67.6846C88.15 66.9366 87.9694 66.2018 87.7074 65.4946C87.4626 64.8224 87.1591 64.1729 86.8006 63.5538C86.9074 63.4919 87.0283 63.4583 87.1518 63.4564C87.2422 63.4568 87.3316 63.4748 87.4151 63.5095C87.9216 63.7136 89.4875 66.0138 89.4906 68.2951H89.4923Z" fill="black"/>
<defs>
<linearGradient id="paint0_linear_220_11604" x1="64" y1="52.9057" x2="64" y2="77.4069" gradientUnits="userSpaceOnUse">
<stop stop-color="#FFFDF9"/>
<stop offset="1" stop-color="#FFF6E7"/>
</linearGradient>
<linearGradient id="paint1_linear_220_11604" x1="64" y1="52.9057" x2="64" y2="77.4069" gradientUnits="userSpaceOnUse">
<stop stop-color="white"/>
<stop offset="0.341346" stop-color="#FBDFB6"/>
<stop offset="1" stop-color="#FBDFB6"/>
</linearGradient>
</defs>
</svg>
