<svg width="128" height="128" viewBox="0 0 128 128" fill="none" xmlns="http://www.w3.org/2000/svg">
<path d="M125 52.9569C125 52.4284 124.572 52 124.043 52L3.95688 52C3.42842 52 3.00001 52.4284 3.00002 52.9569L3.00004 74.9647C3.00004 75.4932 3.42844 75.9216 3.9569 75.9216L124.043 75.9216C124.572 75.9216 125 75.4932 125 74.9647L125 52.9569Z" fill="url(#paint0_linear_211_8711)"/>
<path opacity="0.5" d="M122.608 73.5294L5.39219 73.5294L5.39217 54.3922L122.608 54.3922L122.608 73.5294ZM3.00004 74.9647L3.00518 75.0624C3.05085 75.5128 3.40879 75.8708 3.85925 75.9164L3.9569 75.9216L124.043 75.9216L124.141 75.9164C124.591 75.8708 124.949 75.5128 124.995 75.0624L125 74.9647L125 52.9569C125 52.4284 124.572 52 124.043 52L3.95688 52L3.85923 52.0051C3.37665 52.0541 3.00002 52.4614 3.00002 52.9569L3.00004 74.9647Z" fill="url(#paint1_linear_211_8711)"/>
<path d="M3.9569 74.9647L3.9569 75.9216L124.043 75.9216L124.043 74.9647L3.9569 74.9647ZM3.95688 52.9569L124.043 52.9569L124.043 75.9216L124.141 75.9164C124.591 75.8708 124.949 75.5128 124.995 75.0624L125 74.9647L125 52.9569C125 52.4284 124.572 52 124.043 52L3.95688 52L3.85923 52.0051C3.37665 52.0541 3.00002 52.4614 3.00002 52.9569L3.00004 74.9647L3.00518 75.0624C3.05085 75.5128 3.40879 75.8708 3.85925 75.9164L3.9569 75.9216L3.95688 52.9569Z" fill="#FEB36D"/>
<path d="M77.2307 60.2667C79.1995 60.2667 80.2837 61.2118 80.2878 62.9418C80.2877 64.712 79.1542 65.7659 77.2249 65.7659H75.6539V68.5445H73.6756C73.6756 68.5445 73.6729 67.6556 73.6729 67.0691V61.6898C73.6729 61.1527 73.6756 60.2667 73.6756 60.2667H77.2307ZM87.1842 60.2656V62.0168C87.1842 62.0168 86.3565 62.0168 85.5212 62.0168L83.2339 62.0163V63.6475H85.1034C85.8789 63.6475 86.6897 63.6502 86.6897 63.6502V65.3491C86.6897 65.3491 85.8594 65.347 85.1034 65.347H83.236V68.544H81.2661V60.2656H87.1842ZM69.7337 60.2677C71.3444 60.2677 72.2888 61.0416 72.2889 62.3559C72.2889 62.9619 72.0905 63.4399 71.7125 63.778C71.4937 63.9669 71.3151 64.0664 70.9075 64.2154C71.3945 64.3246 71.6526 64.4442 71.9413 64.693C72.3669 65.071 72.588 65.6075 72.5889 66.2624C72.5889 67.6946 71.5744 68.5397 69.8441 68.5397H67.1389C66.3857 68.5397 65.7511 68.5434 65.7511 68.5434C65.7511 68.5356 65.7474 67.8001 65.7474 67.1076V66.1758C65.5997 66.4101 65.394 66.698 65.2757 66.8182C64.5664 67.5351 63.7308 68.0381 62.7501 68.2883C62.237 68.4202 61.7154 68.4656 61.1896 68.3749C60.0656 68.1841 59.2826 67.5595 58.8294 66.5139C58.745 66.313 58.6797 66.1047 58.6344 65.8916C58.5324 65.3455 58.5382 64.7845 58.6519 64.2408C58.7784 63.7058 59.0152 63.203 59.3465 62.7643C59.7481 62.2205 60.2375 61.7743 60.8484 61.4743C61.2449 61.279 61.6611 61.1605 62.1061 61.1732C62.5511 61.1859 62.9602 61.3115 63.3005 61.6074C63.7007 61.9564 63.8619 62.3951 63.7654 62.9217C63.7068 63.2105 63.5824 63.4818 63.4025 63.7152C63.1028 64.1146 62.7384 64.4614 62.3243 64.7405C61.7079 65.1695 61.0161 65.4784 60.2852 65.6512C60.1444 65.6852 60.0006 65.7081 59.8579 65.7357C59.7659 65.7539 59.7551 65.7635 59.7818 65.8541C59.9984 66.577 60.4429 67.0743 61.1907 67.2688C61.5861 67.3684 61.9999 67.3723 62.3972 67.2804C63.3598 67.0696 64.1213 66.5261 64.7231 65.9745C65.0857 65.6423 65.4672 65.17 65.7464 64.7585V61.6724C65.7464 61.1476 65.7505 60.2813 65.7506 60.2677H69.7337ZM67.6951 66.9006H69.525C70.1513 66.9005 70.5292 66.5524 70.5292 65.9655C70.5292 65.3891 70.1495 65.0511 69.515 65.0511H67.6951V66.9006ZM61.9751 62.1621C61.7164 62.201 61.469 62.2949 61.2498 62.4378C60.6385 62.8226 60.2048 63.3589 59.9133 64.0142C59.8003 64.2677 59.727 64.5375 59.6962 64.8134C59.6849 64.9104 59.7026 64.9287 59.7955 64.9164C59.8576 64.9074 59.9198 64.8976 59.981 64.8858C60.5818 64.7696 61.1558 64.5425 61.673 64.2154C62.0609 63.9698 62.4086 63.6787 62.6846 63.3089C62.7714 63.1965 62.8411 63.0717 62.8922 62.9391C62.9982 62.6505 62.9078 62.4056 62.6386 62.2593C62.4915 62.1826 62.3276 62.1431 62.1616 62.1436C62.0992 62.1495 62.0367 62.1535 61.9751 62.1621ZM75.6502 64.0738H77.1314V64.0781C77.827 64.0781 78.2349 63.6841 78.235 62.9999C78.235 62.3155 77.8471 61.9571 77.1314 61.9571H75.6502V64.0738ZM67.6951 63.4595H69.4453C69.9722 63.4594 70.3004 63.1515 70.3005 62.6645C70.3005 62.1772 69.9922 61.899 69.4257 61.899H67.6951V63.4595Z" fill="black"/>
<path d="M51.4233 68.6953C49.9735 65.9077 51.3508 63.6031 51.3508 63.6031L50.7996 62.8325L50.797 62.8289L49.9005 62.5176C49.9005 62.5176 48.0778 64.4888 44.9944 63.8826C44.1852 65.9725 44.1616 67.1839 45.9992 69.2327L46.0023 69.2363C48.4883 70.4215 49.6416 70.0562 51.4233 68.6953Z" fill="#FFE100"/>
<path d="M50.3741 60.204C49.7818 59.4524 46.2807 58.4465 43.5661 59.3594C40.0151 60.5538 43.6349 64.5923 47.1869 63.9317C49.4489 63.5063 51.3965 61.5027 50.3741 60.204Z" fill="#D9F1FD"/>
<path d="M46.4039 61.0879L46.2544 60.8239C46.1222 60.9057 46.0013 61.0045 45.8948 61.1177C45.5404 61.1471 45.188 61.1959 44.839 61.2641L44.8627 61.204C43.9498 60.8444 43.6225 59.631 43.6189 59.6191L43.3107 59.6993L43.0024 59.7789C43.0153 59.8303 43.2829 60.8331 44.0525 61.4573C43.4788 61.6259 42.9277 61.8638 42.4116 62.1658L42.7363 62.7155C43.586 62.214 44.5143 61.9448 45.4139 61.821C45.1796 62.3142 45.0163 63.016 45.1293 63.9834L45.7632 63.9094C45.6312 62.7843 45.9261 62.1113 46.1958 61.7455C47.4716 61.6824 48.7493 61.8225 49.981 62.1606L50.1727 61.5534C48.9479 61.205 47.6766 61.048 46.4039 61.0879V61.0879Z" fill="#00AEEF"/>
<path d="M53.4503 62.5069C54.3386 62.8639 56.2903 65.9392 56.1788 68.8012C56.0334 72.5454 51.1385 70.2094 50.7738 66.6148C50.5415 64.3255 51.9184 61.8914 53.4503 62.5069Z" fill="#D9F1FD"/>
<path d="M55.9346 69.4558L55.913 68.8182C55.9012 68.8182 54.6508 68.8511 54.0425 68.0713L53.9911 68.1113C53.9586 67.7573 53.9063 67.4053 53.8345 67.0571C53.9134 66.9237 53.9742 66.7803 54.0153 66.6307L53.7194 66.5598C53.3999 65.328 52.892 64.1529 52.2136 63.0762L51.6829 63.4312C52.3556 64.5166 52.8506 65.7025 53.1491 66.9441C52.8743 67.3068 52.3117 67.78 51.1938 67.9716L51.3007 68.6004C52.2624 68.4365 52.8897 68.0815 53.2966 67.7173C53.4296 68.6158 53.4337 69.5817 53.1938 70.5398L53.8103 70.6939C53.9551 70.1137 54.0282 69.518 54.0281 68.92C54.7566 69.4224 55.6618 69.4558 55.8853 69.4558C55.9115 69.4568 55.929 69.4563 55.9346 69.4558Z" fill="#00AEEF"/>
<path d="M58.3003 57.7047C58.2553 57.6608 58.202 57.6262 58.1436 57.6029C58.0852 57.5796 58.0228 57.568 57.9599 57.5688C57.8971 57.5696 57.835 57.5828 57.7772 57.6076C57.7194 57.6324 57.6671 57.6684 57.6232 57.7134C56.9276 58.4401 56.0114 58.9166 55.017 59.0686C54.7791 58.7748 54.5058 58.5114 54.2032 58.2847C53.8097 57.9888 53.37 57.7598 52.902 57.6071C52.728 56.5671 52.9204 55.499 53.4465 54.5852C53.4773 54.5303 53.4971 54.4699 53.5045 54.4074C53.512 54.3449 53.5071 54.2816 53.4901 54.2209C53.4731 54.1603 53.4443 54.1037 53.4054 54.0542C53.3665 54.0047 53.3182 53.9634 53.2634 53.9325C53.2085 53.9017 53.1481 53.882 53.0856 53.8745C53.0231 53.867 52.9597 53.8719 52.8991 53.8889C52.8385 53.9059 52.7818 53.9347 52.7323 53.9736C52.6828 54.0125 52.6415 54.0608 52.6107 54.1157C52.038 55.1155 51.7933 56.2697 51.911 57.4159C50.8424 57.3466 49.8349 57.7278 49.2236 58.5462C49.1277 58.6755 49.0435 58.813 48.9719 58.9572C47.4558 58.4871 45.2848 58.2785 43.4132 58.9058C42.0441 59.3682 41.404 60.3211 41.6999 61.4606C41.9686 62.4937 43.0105 63.5156 44.3503 64.0673C44.0221 64.7546 43.8882 65.5185 43.9629 66.2764C44.059 67.1929 44.472 68.0411 45.1676 68.7681L44.7895 70.861L46.6904 69.9086C47.3526 70.2512 48.0343 70.4269 48.7119 70.4269C48.9499 70.4269 49.1873 70.4052 49.4214 70.3622C50.1705 70.2182 50.866 69.8722 51.4327 69.3614C52.3173 70.4726 53.5606 71.1811 54.6178 71.1811H54.6898C55.8662 71.1441 56.6024 70.2605 56.6584 68.8179C56.7355 66.8395 55.9191 64.8107 55.0376 63.4873C55.154 63.3792 55.2606 63.2609 55.3561 63.1339C55.8744 62.4413 56.0337 61.5505 55.8046 60.6242C55.7458 60.388 55.6644 60.158 55.5616 59.9374C56.61 59.6975 57.5657 59.1566 58.3111 58.3813C58.3993 58.2901 58.4477 58.1676 58.4457 58.0407C58.4437 57.9139 58.3914 57.793 58.3003 57.7047V57.7047ZM52.213 63.2664C52.6832 64.0943 53.0692 64.9672 53.3653 65.8721L53.3504 65.8695C53.3504 65.8834 53.0977 67.1441 51.5339 67.6111C51.3888 67.2779 51.2929 66.9254 51.2493 66.5646C51.1095 65.1893 51.6073 63.8793 52.213 63.2664ZM50.7972 63.6723C50.4518 64.4238 50.2717 65.2407 50.269 66.0678C49.9649 66.1084 49.3484 66.1084 48.7047 65.6265C48.061 65.1446 47.8956 64.5657 47.8509 64.2584C48.644 64.0232 49.3772 63.6203 50.0009 63.0768C50.2433 63.3041 50.5104 63.5035 50.7972 63.6712V63.6723ZM47.1676 61.2315C48.1187 61.2609 49.0644 61.3857 49.9906 61.6039C49.5734 62.3581 48.4566 63.2048 47.0977 63.458C46.74 63.5238 46.3748 63.5395 46.0127 63.5048C46.0061 61.867 47.1219 61.2721 47.1733 61.2443L47.1676 61.2315ZM45.9578 59.474C47.91 59.474 49.7024 60.1239 49.9978 60.5015C50.0764 60.5987 50.1311 60.7131 50.1574 60.8353C50.1837 60.9576 50.181 61.0843 50.1493 61.2053C49.3362 61.0073 48.5073 60.8808 47.6721 60.8272C46.7911 60.7661 45.9061 60.8056 45.0341 60.9448C44.4633 60.6972 44.1191 60.1418 43.9377 59.7463C44.5949 59.5607 45.275 59.4691 45.9578 59.474V59.474ZM42.6267 61.2207C42.4726 60.6335 42.7808 60.1845 43.5309 59.885C43.6886 60.2405 43.9665 60.7239 44.4155 61.0707C43.8594 61.201 43.3201 61.3946 42.808 61.6476C42.7283 61.5134 42.6673 61.3689 42.6267 61.2181V61.2207ZM43.0551 61.9949C44.1499 61.4601 45.367 61.2623 46.491 61.2315C46.0934 61.6096 45.5997 62.3078 45.5884 63.4437C44.5178 63.2346 43.5853 62.6371 43.0551 61.9949ZM49.2488 69.4169C48.3338 69.5844 47.3685 69.3142 46.4566 68.6299C45.1723 67.6707 44.3893 66.0273 45.2694 64.3535C45.4199 64.3869 45.5719 64.4146 45.7266 64.4347C45.8185 65.2566 46.2434 66.4413 47.4301 67.3296C48.1781 67.8987 49.0914 68.208 50.0312 68.2106C50.255 68.211 50.4784 68.1924 50.699 68.1552C50.7597 68.2923 50.8265 68.4259 50.8979 68.5564C50.4438 68.9979 49.8706 69.297 49.2488 69.4169V69.4169ZM53.7866 70.0611C52.9261 69.7174 52.1776 68.8795 51.7178 68.0005C52.7838 67.6666 53.3078 67.0049 53.5565 66.5215C53.8436 67.6147 53.9978 68.8513 53.7866 70.0611ZM54.66 70.2245C54.5048 70.2292 54.3497 70.2159 54.1976 70.185C54.2981 69.6173 54.3326 69.04 54.3003 68.4644C54.7591 68.7973 55.3016 68.9268 55.6874 68.9782C55.6099 69.7868 55.2646 70.206 54.6579 70.2245H54.66ZM55.7054 68.5513C55.2749 68.4886 54.6451 68.3155 54.2464 67.8366C54.1342 66.961 53.9227 66.1009 53.616 65.2731C53.3295 64.4862 52.9743 63.726 52.5547 63.0013C52.6797 62.9288 52.8212 62.8895 52.9657 62.8873C53.0715 62.8878 53.1762 62.9089 53.2739 62.9494C53.8668 63.1883 55.6998 65.8808 55.7034 68.5513H55.7054Z" fill="black"/>
<defs>
<linearGradient id="paint0_linear_211_8711" x1="64" y1="53.7263" x2="64" y2="75.9216" gradientUnits="userSpaceOnUse">
<stop stop-color="#FFFDF9"/>
<stop offset="1" stop-color="#FFF6E7"/>
</linearGradient>
<linearGradient id="paint1_linear_211_8711" x1="64" y1="53.7263" x2="64" y2="75.9216" gradientUnits="userSpaceOnUse">
<stop stop-color="white"/>
<stop offset="0.341346" stop-color="#FBDFB6"/>
<stop offset="1" stop-color="#FBDFB6"/>
</linearGradient>
</defs>
</svg>
