<svg width="128" height="128" viewBox="0 0 128 128" fill="none" xmlns="http://www.w3.org/2000/svg">
<path d="M110 21.547C110 19.5881 108.41 18 106.448 18L21.5516 18C19.5902 18 18.0001 19.5881 18.0001 21.547L18.0001 106.453C18.0001 108.412 19.5902 110 21.5516 110L106.448 110C108.41 110 110 108.412 110 106.453L110 21.547Z" fill="url(#paint0_linear_211_8794)"/>
<path opacity="0.5" d="M101.121 101.132L26.8789 101.132L26.8789 26.8676L101.121 26.8676L101.121 101.132ZM18.0001 106.453L18.0192 106.815C18.1887 108.485 19.5172 109.812 21.1892 109.981L21.5516 110L106.448 110L106.811 109.981C108.483 109.812 109.811 108.485 109.981 106.815L110 106.453L110 21.547C110 19.5881 108.41 18 106.448 18L21.5516 18L21.1892 18.0191C19.398 18.2004 18.0001 19.7103 18.0001 21.547L18.0001 106.453Z" fill="url(#paint1_linear_211_8794)"/>
<path d="M21.5516 106.453L21.5516 110L106.448 110L106.448 106.453L21.5516 106.453ZM21.5516 21.547L106.448 21.547L106.448 110L106.811 109.981C108.483 109.812 109.811 108.485 109.981 106.815L110 106.453L110 21.547C110 19.5881 108.41 18 106.448 18L21.5516 18L21.1892 18.0191C19.398 18.2004 18.0001 19.7103 18.0001 21.547L18.0001 106.453L18.0192 106.815C18.1887 108.485 19.5172 109.812 21.1892 109.981L21.5516 110L21.5516 21.547Z" fill="#FEB36D"/>
<path d="M69.8919 84.3455C64.5109 73.9991 69.623 65.4451 69.623 65.4451L67.577 62.5849L67.5675 62.5715L64.2401 61.416C64.2401 61.416 57.4748 68.7325 46.0301 66.4824C43.0269 74.2394 42.9392 78.7356 49.7598 86.34L49.7713 86.3534C58.9983 90.7524 63.2791 89.3967 69.8919 84.3455Z" fill="#FFE100"/>
<path d="M65.9975 52.8309C63.799 50.0412 50.8041 46.3076 40.7285 49.6961C27.5486 54.1294 40.984 69.1189 54.1677 66.6668C62.5634 65.0879 69.7921 57.6513 65.9975 52.8309Z" fill="#D9F1FD"/>
<path d="M51.2622 56.1157L50.7073 55.1355C50.2167 55.4394 49.768 55.8061 49.3725 56.2262C48.0573 56.3351 46.7492 56.5166 45.454 56.7697L45.5417 56.5466C42.1533 55.2118 40.9387 50.7079 40.9253 50.6641L39.7813 50.9615L38.6372 51.2571C38.6848 51.4478 39.6783 55.1699 42.5347 57.4867C40.4052 58.1123 38.36 58.9953 36.4443 60.1162L37.6494 62.1565C40.8033 60.2954 44.2489 59.2962 47.5877 58.8367C46.7182 60.6672 46.1119 63.2719 46.5314 66.8625L48.8844 66.5879C48.3943 62.412 49.4888 59.914 50.4899 58.5564C55.2251 58.3221 59.9674 58.8422 64.5393 60.0971L65.2505 57.8432C60.7046 56.5502 55.9861 55.9675 51.2622 56.1157V56.1157Z" fill="#00AEEF"/>
<path d="M77.4161 61.3766C80.713 62.7019 87.957 74.1161 87.5432 84.739C87.0036 98.6359 68.8355 89.9656 67.4817 76.6235C66.6198 68.1268 71.73 59.0922 77.4161 61.3766Z" fill="#D9F1FD"/>
<path d="M86.6361 87.173L86.556 84.8067C86.5121 84.8067 81.871 84.9287 79.6133 82.0341L79.4226 82.1829C79.3019 80.8688 79.1077 79.5625 78.841 78.2701C79.134 77.7747 79.3597 77.2424 79.5122 76.6874L78.4139 76.4243C77.2281 71.8521 75.3429 67.4906 72.8251 63.4941L70.8553 64.8118C73.3521 68.8405 75.1892 73.2422 76.2974 77.8506C75.2772 79.1968 73.1893 80.953 69.04 81.6642L69.4367 83.9982C73.0062 83.3899 75.3344 82.0723 76.8446 80.7203C77.3385 84.0554 77.3537 87.6402 76.4632 91.1964L78.7514 91.7684C79.2888 89.6149 79.5603 87.4037 79.5599 85.1842C82.2638 87.0491 85.6236 87.173 86.453 87.173C86.5503 87.1768 86.6151 87.1749 86.6361 87.173Z" fill="#00AEEF"/>
<path d="M95.4163 43.5511C95.2492 43.3882 95.0516 43.2598 94.8348 43.1733C94.6181 43.0867 94.3864 43.0438 94.153 43.0468C93.9196 43.0498 93.6891 43.0987 93.4747 43.1908C93.2602 43.2829 93.066 43.4164 92.9031 43.5835C90.3215 46.2809 86.9207 48.0493 83.2299 48.6137C82.347 47.5229 81.3325 46.5455 80.2095 45.7039C78.7488 44.6056 77.1169 43.7558 75.3796 43.1888C74.7338 39.3289 75.4482 35.3645 77.4008 31.9729C77.5152 31.7692 77.5884 31.5449 77.6162 31.3129C77.644 31.0809 77.6258 30.8458 77.5626 30.6208C77.4995 30.3958 77.3927 30.1855 77.2483 30.0018C77.1039 29.8182 76.9247 29.6647 76.721 29.5503C76.5173 29.4358 76.293 29.3626 76.0611 29.3349C75.8291 29.3071 75.5939 29.3253 75.3689 29.3884C75.144 29.4515 74.9336 29.5584 74.75 29.7028C74.5663 29.8472 74.4128 30.0264 74.2984 30.2301C72.173 33.9411 71.2647 38.2252 71.7013 42.4795C67.7352 42.222 63.9959 43.6369 61.7268 46.6745C61.3711 47.1544 61.0584 47.6649 60.7925 48.1999C55.1655 46.4552 47.1073 45.681 40.1608 48.0092C35.0792 49.7254 32.7033 53.2625 33.8016 57.4918C34.7989 61.3265 38.6659 65.1191 43.6388 67.167C42.4209 69.7179 41.9238 72.5533 42.2011 75.3664C42.5577 78.7681 44.0908 81.9163 46.6726 84.6144L45.2692 92.3828L52.3243 88.8476C54.7822 90.1194 57.3126 90.7715 59.8276 90.7715C60.7109 90.7714 61.5923 90.691 62.4609 90.5313C65.2415 89.997 67.823 88.7125 69.9261 86.8168C73.2096 90.9413 77.8241 93.5708 81.7483 93.5708H82.0153C86.3819 93.4335 89.1143 90.1537 89.3221 84.7994C89.6082 77.4562 86.5782 69.9262 83.3062 65.0142C83.7384 64.6129 84.1341 64.1739 84.4884 63.7024C86.4124 61.132 87.0035 57.8255 86.153 54.3875C85.9349 53.5108 85.6328 52.657 85.2511 51.8381C89.1427 50.9476 92.6895 48.9402 95.4563 46.0624C95.7838 45.7239 95.9634 45.2693 95.9559 44.7984C95.9484 44.3276 95.7543 43.879 95.4163 43.5511V43.5511ZM72.8225 64.1943C74.5677 67.2671 76.0005 70.5071 77.0995 73.8657L77.0442 73.8562C77.0442 73.9076 76.1061 78.587 70.3017 80.3203C69.7633 79.0836 69.4074 77.7752 69.2454 76.4361C68.7267 71.3315 70.5744 66.4691 72.8225 64.1943ZM67.5674 65.7007C66.2854 68.4902 65.6169 71.5223 65.6072 74.5922C64.4783 74.7428 62.1902 74.7428 59.8009 72.9542C57.4117 71.1656 56.7977 69.0167 56.6318 67.8764C59.5754 67.0034 62.2969 65.5077 64.6118 63.4907C65.5115 64.3342 66.5029 65.0742 67.5674 65.6969V65.7007ZM54.0958 56.6414C57.6259 56.7506 61.1361 57.2137 64.5737 58.0238C63.0254 60.8231 58.88 63.9655 53.8365 64.9056C52.5086 65.1496 51.1532 65.208 49.8093 65.0791C49.7845 59.0001 53.9261 56.792 54.1168 56.6891L54.0958 56.6414ZM49.6052 50.1182C56.8511 50.1182 63.504 52.5303 64.6004 53.9318C64.8922 54.2928 65.0951 54.7172 65.1928 55.171C65.2905 55.6247 65.2803 56.0951 65.1629 56.5442C62.1448 55.8093 59.0682 55.3397 55.9683 55.1407C52.6984 54.9141 49.4135 55.0606 46.1768 55.5774C44.0583 54.6583 42.7808 52.597 42.1077 51.1288C44.5467 50.4402 47.0709 50.1 49.6052 50.1182V50.1182ZM37.2415 56.6014C36.6695 54.4219 37.8135 52.7553 40.5975 51.6436C41.1829 52.9631 42.2145 54.7575 43.881 56.0446C41.817 56.5284 39.8152 57.2468 37.9146 58.1859C37.6187 57.6877 37.3922 57.1514 37.2415 56.5918V56.6014ZM38.8318 59.4749C42.8952 57.4899 47.4124 56.7558 51.5845 56.6414C50.1086 58.0448 48.2762 60.6362 48.2342 64.8522C44.2605 64.0761 40.7996 61.8585 38.8318 59.4749ZM61.8203 87.0227C58.4242 87.6444 54.8413 86.6414 51.4568 84.1015C46.6897 80.5415 43.7838 74.4416 47.0501 68.2291C47.6088 68.3531 48.1732 68.456 48.7472 68.5304C49.0885 71.5813 50.6654 75.9784 55.0702 79.2753C57.8463 81.3876 61.236 82.5358 64.7243 82.5455C65.5549 82.5468 66.3842 82.4779 67.2032 82.3396C67.4282 82.8487 67.6761 83.3445 67.9411 83.8288C66.2558 85.4673 64.1283 86.5775 61.8203 87.0227V87.0227ZM78.6631 89.4139C75.4692 88.1382 72.691 85.0282 70.9844 81.7656C74.941 80.5262 76.8859 78.0702 77.8088 76.2759C78.8747 80.3336 79.4468 84.9233 78.6631 89.4139ZM81.9047 90.0203C81.3289 90.0375 80.753 89.9882 80.1885 89.8734C80.5616 87.7666 80.6896 85.6237 80.5699 83.4875C82.2727 84.7231 84.2863 85.2036 85.7183 85.3943C85.4304 88.3957 84.149 89.9516 81.897 90.0203H81.9047ZM85.785 83.8098C84.1871 83.5771 81.8494 82.9345 80.3697 81.1574C79.9532 77.9072 79.1683 74.715 78.03 71.6423C76.9663 68.7218 75.6481 65.9003 74.0906 63.2104C74.5545 62.9413 75.0797 62.7955 75.616 62.7871C76.0087 62.7889 76.3974 62.8672 76.7601 63.0178C78.9606 63.9045 85.764 73.8981 85.7774 83.8098H85.785Z" fill="black"/>
<defs>
<linearGradient id="paint0_linear_211_8794" x1="244.41" y1="24.3993" x2="244.41" y2="106.676" gradientUnits="userSpaceOnUse">
<stop stop-color="#FFFDF9"/>
<stop offset="1" stop-color="#FFF6E7"/>
</linearGradient>
<linearGradient id="paint1_linear_211_8794" x1="244.41" y1="24.3993" x2="244.41" y2="106.676" gradientUnits="userSpaceOnUse">
<stop stop-color="white"/>
<stop offset="0.341346" stop-color="#FBDFB6"/>
<stop offset="1" stop-color="#FBDFB6"/>
</linearGradient>
</defs>
</svg>
