<svg width="128" height="128" viewBox="0 0 128 128" fill="none" xmlns="http://www.w3.org/2000/svg">
<path d="M88.6125 119.774V121H38.3544V119.774H88.6125ZM92.2899 116.097V103.839C92.2899 101.808 90.6435 100.161 88.6125 100.161H38.3544C36.3234 100.161 34.677 101.808 34.677 103.839V116.097C34.677 118.128 36.3234 119.774 38.3544 119.774V121C35.7311 121 33.5886 118.94 33.4572 116.349L33.4512 116.097V103.839C33.4512 101.215 35.5112 99.073 38.1018 98.9415L38.3544 98.9355H88.6125L88.8651 98.9415C91.4557 99.073 93.5157 101.215 93.5157 103.839V116.097C93.5157 118.805 91.3204 121 88.6125 121V119.774C90.6435 119.774 92.2899 118.128 92.2899 116.097Z" fill="black"/>
<path d="M82.4839 115.071C81.6013 115.071 80.8359 114.873 80.1879 114.476C79.5399 114.08 79.0399 113.535 78.688 112.842C78.3416 112.144 78.1685 111.348 78.1685 110.454C78.1685 109.555 78.3472 108.759 78.7047 108.066C79.0679 107.368 79.5678 106.82 80.2047 106.424C80.8415 106.021 81.5733 105.82 82.4001 105.82C83.2492 105.82 83.9922 106.016 84.6291 106.407C85.2659 106.798 85.7603 107.34 86.1123 108.033C86.4642 108.72 86.6402 109.516 86.6402 110.421V110.999H80.2382C80.2661 111.719 80.4784 112.3 80.875 112.742C81.2717 113.183 81.8247 113.404 82.5342 113.404C83.0649 113.404 83.5034 113.289 83.8498 113.06C84.1961 112.826 84.4308 112.518 84.5537 112.138H86.5312C86.4195 112.714 86.1737 113.222 85.7938 113.664C85.4195 114.105 84.9475 114.451 84.3777 114.703C83.8079 114.948 83.1766 115.071 82.4839 115.071ZM80.255 109.541H84.6123C84.5453 108.91 84.3162 108.412 83.9252 108.049C83.5397 107.681 83.0426 107.496 82.4336 107.496C81.8191 107.496 81.3192 107.681 80.9337 108.049C80.5538 108.412 80.3276 108.91 80.255 109.541Z" fill="black"/>
<path d="M72.1685 114.87L68.8418 106.021H71.0791L72.6964 110.63C72.8137 110.982 72.9254 111.334 73.0316 111.686C73.1433 112.032 73.2522 112.379 73.3584 112.725C73.4645 112.379 73.5706 112.032 73.6768 111.686C73.7829 111.334 73.8919 110.982 74.0036 110.63L75.5957 106.021H77.8079L74.4812 114.87H72.1685Z" fill="black"/>
<path d="M65.6416 114.87V106.021H67.7533V114.87H65.6416ZM66.6974 104.706C66.3343 104.706 66.0327 104.591 65.7924 104.362C65.5522 104.128 65.4321 103.84 65.4321 103.499C65.4321 103.158 65.5522 102.873 65.7924 102.644C66.0327 102.415 66.3343 102.301 66.6974 102.301C67.055 102.301 67.3538 102.415 67.594 102.644C67.8343 102.873 67.9544 103.158 67.9544 103.499C67.9544 103.84 67.8343 104.128 67.594 104.362C67.3538 104.591 67.055 104.706 66.6974 104.706Z" fill="black"/>
<path d="M64.3082 106.023V107.724H62.5066V112.332C62.5066 112.651 62.5708 112.872 62.6993 112.994C62.8278 113.112 63.0624 113.17 63.4032 113.17H64.3082V114.871H63.0345C62.1351 114.871 61.4675 114.69 61.0318 114.327C60.6016 113.964 60.3866 113.402 60.3866 112.642V107.724H58.8447V106.023H60.3866V103.609H62.5066V106.023H64.3082Z" fill="black"/>
<path d="M53.0551 115.011C52.1725 115.011 51.4407 114.79 50.8597 114.349C50.2843 113.902 49.9966 113.237 49.9966 112.355C49.9966 111.684 50.1586 111.168 50.4826 110.804C50.8122 110.436 51.2395 110.168 51.7647 110C52.2954 109.832 52.8652 109.718 53.4741 109.656C54.2953 109.561 54.8679 109.478 55.1919 109.405C55.5159 109.332 55.6779 109.145 55.6779 108.844V108.777C55.6779 108.397 55.5327 108.087 55.2422 107.846C54.9573 107.606 54.5634 107.486 54.0607 107.486C53.5467 107.486 53.1277 107.606 52.8037 107.846C52.4853 108.087 52.3121 108.394 52.2842 108.768H50.248C50.2982 107.891 50.6642 107.184 51.3457 106.648C52.0272 106.112 52.9462 105.844 54.1026 105.844C55.2533 105.844 56.1527 106.112 56.8008 106.648C57.4488 107.184 57.7728 107.913 57.7728 108.835V114.868H55.6947V113.62H55.6611C55.4489 114.011 55.1416 114.341 54.7394 114.609C54.3372 114.877 53.7758 115.011 53.0551 115.011ZM53.5746 113.444C54.2674 113.444 54.7925 113.265 55.15 112.908C55.5075 112.545 55.6863 112.106 55.6863 111.592V110.637C55.5578 110.721 55.3092 110.799 54.9405 110.871C54.5718 110.938 54.1696 111.006 53.7339 111.073C53.2814 111.14 52.8875 111.268 52.5523 111.458C52.2227 111.642 52.0579 111.936 52.0579 112.338C52.0579 112.684 52.1948 112.955 52.4685 113.151C52.7423 113.346 53.111 113.444 53.5746 113.444Z" fill="black"/>
<path d="M42.6307 109.866V114.868H40.519V106.02H42.5972V107.377C43.2117 106.355 44.1167 105.844 45.3121 105.844C46.2395 105.844 46.9964 106.143 47.583 106.74C48.1751 107.338 48.4712 108.204 48.4712 109.338V114.868H46.3512V109.673C46.3512 109.025 46.1948 108.534 45.8819 108.198C45.5691 107.863 45.1306 107.696 44.5664 107.696C44.0133 107.696 43.5524 107.869 43.1837 108.215C42.815 108.562 42.6307 109.112 42.6307 109.866Z" fill="black"/>
<path d="M61.9642 80.2122C61.296 79.6363 60.6981 79.3605 59.5706 79.1077C60.5146 78.7626 60.9278 78.5318 61.4345 78.0944C62.3092 77.312 62.7687 76.2064 62.7687 74.804C62.7687 71.7622 60.5828 69.9707 56.855 69.9707H50.8248C48.9368 69.9707 47.6362 69.9707 47.6362 69.9707C47.6362 69.9707 47.6267 71.9982 47.6267 73.2223V80.3643C46.9806 81.3167 46.0974 82.4096 45.2583 83.1785C43.8654 84.455 42.1032 85.7126 39.8753 86.2003C38.9557 86.4132 37.9985 86.4039 37.0832 86.1731C35.3525 85.7231 34.3245 84.5725 33.8232 82.8995C33.7613 82.6897 33.7854 82.6676 33.9983 82.6257C34.3287 82.5617 34.6612 82.5093 34.9874 82.4306C36.6793 82.0307 38.2806 81.3154 39.7075 80.3223C40.6659 79.6762 41.5093 78.8743 42.2028 77.9497C42.6192 77.4096 42.9062 76.7813 43.042 76.1131C43.2654 74.8942 42.893 73.8789 41.9668 73.0713C41.1791 72.3863 40.232 72.0958 39.2019 72.0664C38.1719 72.037 37.209 72.3119 36.2912 72.7639C34.8773 73.4583 33.7445 74.4904 32.8152 75.7491C32.0484 76.7645 31.5012 77.9282 31.2083 79.1664C30.9451 80.4249 30.9312 81.7227 31.1673 82.9865C31.2721 83.4797 31.4231 83.9619 31.6184 84.4267C32.6673 86.8465 34.4798 88.2919 37.0811 88.7334C38.2978 88.9432 39.5051 88.8383 40.6924 88.5331C42.9622 87.9541 44.8964 86.7898 46.538 85.1305C46.8117 84.8525 47.2869 84.1865 47.6288 83.6442V85.8007C47.6288 87.4118 47.6383 89.1236 47.6383 89.1236C47.6383 89.1236 49.1067 89.1152 50.85 89.1152H57.1098C61.1145 89.1152 63.462 87.159 63.462 83.8445C63.4599 82.3289 62.9491 81.087 61.9642 80.2122ZM33.6249 80.4912C33.6962 79.8526 33.8657 79.2288 34.1273 78.642C34.8018 77.1253 35.8056 75.8844 37.2206 74.9939C37.7277 74.6631 38.3001 74.4453 38.8988 74.3551C39.0415 74.3352 39.1862 74.3257 39.331 74.3121C39.7151 74.3109 40.0938 74.4031 40.4344 74.5806C41.0574 74.9194 41.2672 75.4858 41.0218 76.154C40.9035 76.4607 40.7413 76.7486 40.5403 77.0088C39.9016 77.8647 39.097 78.5381 38.1992 79.1066C37.0021 79.8635 35.6741 80.39 34.2836 80.659C34.142 80.6863 33.9983 80.7083 33.8546 80.7293C33.6396 80.7576 33.5987 80.7156 33.6249 80.4912V80.4912ZM52.137 73.7457H56.1417C57.4528 73.7457 58.1661 74.3897 58.1661 75.5173C58.1661 76.6449 57.4067 77.3581 56.1868 77.3581H52.137V73.7457ZM56.3714 85.3214H52.137V81.0408H56.3483C57.8168 81.0408 58.6958 81.8233 58.6958 83.1575C58.6958 84.5158 57.821 85.3214 56.3714 85.3214Z" fill="black"/>
<path d="M74.2036 69.9707H69.1689H65.976C65.976 69.9707 65.9697 72.0213 65.9697 73.2643V85.7137C65.9697 87.0709 65.976 89.1278 65.976 89.1278H70.5545C70.5545 89.1278 70.5545 87.0017 70.5545 85.6444V82.697H74.19C78.6552 82.697 81.2785 80.2583 81.2785 76.1613C81.269 72.1577 78.76 69.9707 74.2036 69.9707ZM73.9739 78.7815H70.545V73.8831H73.9739C75.6301 73.8831 76.528 74.7117 76.528 76.2956C76.528 77.8794 75.584 78.7909 73.9739 78.7909V78.7815Z" fill="black"/>
<path d="M93.3906 74.0217C95.3238 74.0217 97.2391 74.0217 97.2391 74.0217V69.9688C97.2391 69.9688 95.3919 69.9688 93.3676 69.9688H86.7165C84.9438 69.9688 83.5425 69.9688 83.5425 69.9688C83.5425 69.9688 83.5425 71.7435 83.5425 73.2623V85.183C83.5425 87.1854 83.5425 89.1269 83.5425 89.1269H88.1021C88.1021 89.1269 88.1021 87.2777 88.1021 85.1138V81.728H92.4235C94.1731 81.728 96.0947 81.7332 96.0947 81.7332V77.8009C96.0947 77.8009 94.2182 77.7956 92.4235 77.7956H88.0968V74.0196L93.3906 74.0217Z" fill="black"/>
<path d="M69.0098 57.824C64.0386 48.2655 68.7614 40.3629 68.7614 40.3629L66.8712 37.7205L66.8624 37.7082L63.7884 36.6406C63.7884 36.6406 57.5383 43.3999 46.9652 41.3212C44.1907 48.4874 44.1096 52.6413 50.4109 59.6666L50.4214 59.6789C58.9458 63.743 62.9006 62.4905 69.0098 57.824Z" fill="#FFE100"/>
<path d="M65.4105 28.7102C63.3794 26.1329 51.3741 22.6837 42.0658 25.8141C29.8896 29.9098 42.3018 43.7578 54.4815 41.4924C62.2379 40.0338 68.9161 33.1635 65.4105 28.7102Z" fill="#D9F1FD"/>
<path d="M51.7963 31.7435L51.2837 30.838C50.8305 31.1187 50.416 31.4575 50.0506 31.8456C48.8356 31.9462 47.627 32.1138 46.4305 32.3477L46.5115 32.1416C43.3812 30.9085 42.259 26.7475 42.2467 26.707L41.1897 26.9818L40.1328 27.2549C40.1768 27.4311 41.0946 30.8697 43.7335 33.0101C41.7662 33.5881 39.8767 34.4039 38.1069 35.4393L39.2203 37.3242C42.134 35.6049 45.3172 34.6818 48.4017 34.2573C47.5984 35.9484 47.0382 38.3548 47.4258 41.6719L49.5996 41.4182C49.1469 37.5603 50.158 35.2526 51.0829 33.9983C55.4575 33.7819 59.8386 34.2624 64.0623 35.4217L64.7194 33.3395C60.5197 32.1449 56.1605 31.6066 51.7963 31.7435V31.7435Z" fill="#00AEEF"/>
<path d="M75.958 36.6051C79.0038 37.8295 85.6961 48.3744 85.3138 58.1884C84.8153 71.027 68.0308 63.0169 66.78 50.691C65.9838 42.8412 70.7049 34.4947 75.958 36.6051Z" fill="#D9F1FD"/>
<path d="M84.4753 60.4499L84.4013 58.2637C84.3608 58.2637 80.073 58.3765 77.9873 55.7023L77.8111 55.8397C77.6996 54.6257 77.5202 53.4189 77.2739 52.2249C77.5445 51.7672 77.7531 51.2755 77.8939 50.7628L76.8793 50.5197C75.7838 46.2957 74.0421 42.2663 71.716 38.5742L69.8963 39.7915C72.2029 43.5134 73.9001 47.58 74.9239 51.8374C73.9814 53.0811 72.0525 54.7035 68.2192 55.3606L68.5856 57.5168C71.8834 56.9548 74.0343 55.7376 75.4295 54.4886C75.8857 57.5696 75.8998 60.8815 75.0771 64.1669L77.1911 64.6953C77.6875 62.7058 77.9383 60.663 77.938 58.6125C80.4359 60.3354 83.5399 60.4499 84.3062 60.4499C84.396 60.4534 84.4559 60.4516 84.4753 60.4499Z" fill="#00AEEF"/>
<path d="M92.5893 20.1453C92.4349 19.9948 92.2524 19.8762 92.0521 19.7962C91.8519 19.7163 91.6378 19.6766 91.4222 19.6793C91.2066 19.6821 90.9937 19.7273 90.7956 19.8124C90.5975 19.8975 90.418 20.0208 90.2676 20.1752C87.8825 22.6672 84.7407 24.3009 81.331 24.8223C80.5153 23.8146 79.578 22.9117 78.5406 22.1341C77.1912 21.1194 75.6835 20.3343 74.0785 19.8105C73.4818 16.2446 74.1418 12.5821 75.9458 9.44877C76.0515 9.26058 76.1191 9.0534 76.1448 8.83908C76.1704 8.62475 76.1536 8.40747 76.0953 8.19964C76.037 7.99181 75.9383 7.79751 75.8049 7.62781C75.6715 7.45812 75.5059 7.31637 75.3177 7.21065C75.1296 7.10493 74.9224 7.03731 74.7081 7.01165C74.4937 6.986 74.2765 7.00281 74.0686 7.06112C73.8608 7.11944 73.6665 7.21812 73.4968 7.35153C73.3271 7.48494 73.1854 7.65047 73.0796 7.83866C71.1161 11.2671 70.277 15.2249 70.6803 19.1552C67.0162 18.9174 63.5617 20.2245 61.4654 23.0308C61.1368 23.4742 60.8479 23.9458 60.6022 24.4401C55.4038 22.8282 47.9592 22.113 41.5417 24.2639C36.8471 25.8493 34.6521 29.1171 35.6668 33.0244C36.5881 36.567 40.1606 40.0708 44.7549 41.9628C43.6297 44.3194 43.1704 46.9388 43.4266 49.5377C43.7561 52.6804 45.1724 55.5888 47.5576 58.0815L46.2611 65.2583L52.779 61.9923C55.0497 63.1672 57.3873 63.7697 59.7109 63.7697C60.5268 63.7696 61.3411 63.6953 62.1436 63.5478C64.7124 63.0542 67.0973 61.8675 69.0403 60.1161C72.0738 63.9265 76.3368 66.3558 79.9622 66.3558H80.2088C84.2429 66.2289 86.7673 63.199 86.9593 58.2524C87.2235 51.4684 84.4243 44.5118 81.4014 39.9739C81.8008 39.6032 82.1663 39.1976 82.4936 38.7619C84.2711 36.3873 84.8172 33.3327 84.0315 30.1565C83.8299 29.3465 83.5509 28.5578 83.1983 27.8012C86.7935 26.9785 90.0702 25.124 92.6263 22.4653C92.9288 22.1526 93.0948 21.7326 93.0879 21.2976C93.0809 20.8626 92.9016 20.4482 92.5893 20.1453V20.1453ZM71.7162 39.2164C73.3284 42.0552 74.6521 45.0485 75.6674 48.1513L75.6163 48.1425C75.6163 48.1901 74.7496 52.513 69.3873 54.1143C68.8899 52.9718 68.5611 51.763 68.4114 50.5259C67.9322 45.8101 69.6392 41.318 71.7162 39.2164ZM66.8612 40.6081C65.6768 43.1851 65.0593 45.9863 65.0503 48.8225C64.0074 48.9616 61.8935 48.9616 59.6862 47.3092C57.4789 45.6569 56.9117 43.6715 56.7584 42.6181C59.4779 41.8116 61.9921 40.4298 64.1307 38.5664C64.9619 39.3456 65.8778 40.0293 66.8612 40.6046V40.6081ZM54.4155 32.2387C57.6768 32.3396 60.9197 32.7674 64.0955 33.5159C62.6651 36.1019 58.8354 39.005 54.1759 39.8735C52.9492 40.099 51.697 40.1529 50.4554 40.0338C50.4325 34.4178 54.2587 32.3779 54.4349 32.2827L54.4155 32.2387ZM50.2669 26.2122C56.961 26.2122 63.1072 28.4407 64.1202 29.7355C64.3897 30.0689 64.5772 30.461 64.6675 30.8802C64.7577 31.2994 64.7483 31.734 64.6398 32.1489C61.8515 31.4699 59.0092 31.0361 56.1454 30.8523C53.1246 30.643 50.0898 30.7783 47.0996 31.2557C45.1424 30.4066 43.9622 28.5023 43.3403 27.1459C45.5936 26.5098 47.9256 26.1954 50.2669 26.2122V26.2122ZM38.8447 32.2017C38.3162 30.1882 39.3732 28.6485 41.9451 27.6215C42.486 28.8406 43.439 30.4982 44.9786 31.6873C43.0718 32.1343 41.2224 32.798 39.4666 33.6656C39.1932 33.2053 38.9839 32.7098 38.8447 32.1929V32.2017ZM40.3139 34.8564C44.0679 33.0226 48.2411 32.3444 52.0955 32.2387C50.732 33.5352 49.0391 35.9293 49.0003 39.8242C45.3292 39.1072 42.1319 37.0585 40.3139 34.8564ZM61.5517 60.3064C58.4143 60.8807 55.1043 59.9541 51.9774 57.6076C47.5735 54.3187 44.8888 48.6833 47.9064 42.944C48.4225 43.0585 48.944 43.1536 49.4742 43.2223C49.7895 46.0409 51.2464 50.1032 55.3157 53.149C57.8804 55.1004 61.012 56.1612 64.2347 56.1701C65.002 56.1713 65.7681 56.1077 66.5247 55.9799C66.7326 56.4502 66.9616 56.9082 67.2065 57.3557C65.6495 58.8695 63.684 59.8951 61.5517 60.3064V60.3064ZM77.1119 62.5155C74.1613 61.3369 71.5946 58.4638 70.018 55.4496C73.6733 54.3046 75.4701 52.0356 76.3227 50.378C77.3075 54.1267 77.836 58.3669 77.1119 62.5155ZM80.1067 63.0756C79.5747 63.0916 79.0427 63.0461 78.5212 62.94C78.8659 60.9936 78.9841 59.0139 78.8735 57.0404C80.4466 58.1819 82.3069 58.6258 83.6299 58.802C83.3639 61.5748 82.1801 63.0122 80.0996 63.0756H80.1067ZM83.6915 57.3381C82.2153 57.1232 80.0556 56.5295 78.6886 54.8877C78.3038 51.885 77.5787 48.9359 76.5271 46.0973C75.5444 43.3991 74.3265 40.7925 72.8876 38.3074C73.3163 38.0588 73.8014 37.9242 74.2969 37.9164C74.6597 37.918 75.0188 37.9904 75.3539 38.1295C77.3867 38.9487 83.6721 48.1812 83.6845 57.3381H83.6915Z" fill="black"/>
</svg>
