<svg width="128" height="128" viewBox="0 0 128 128" fill="none" xmlns="http://www.w3.org/2000/svg">
<path d="M1 49C1 46.7909 2.79086 45 5 45H123C125.209 45 127 46.7909 127 49V79C127 81.2091 125.209 83 123 83H5C2.79086 83 1 81.2091 1 79V49Z" fill="#FFEDB9"/>
<path d="M123 81V83H5V81H123ZM125 79V49C125 47.8954 124.105 47 123 47H5C3.89543 47 3 47.8954 3 49V79C3 80.1046 3.89543 81 5 81V83L4.79395 82.9951C2.7488 82.8913 1.10865 81.2512 1.00488 79.2061L1 79V49C1 46.7909 2.79086 45 5 45H123C125.209 45 127 46.7909 127 49V79L126.995 79.2061C126.891 81.2512 125.251 82.8913 123.206 82.9951L123 83V81C124.105 81 125 80.1046 125 79Z" fill="#FFC316"/>
<path d="M84.5892 59.3496C87.7736 59.3498 89.527 60.8786 89.5336 63.6768C89.5334 66.54 87.7001 68.2441 84.5795 68.2441H82.0384V72.7393H78.8383C78.8383 72.7393 78.8334 71.3012 78.8334 70.3525V61.6514C78.8334 60.7872 78.8382 59.3647 78.8383 59.3496H84.5892ZM72.4623 59.3516C75.0677 59.3516 76.5951 60.6035 76.5951 62.7295C76.5951 63.7095 76.2747 64.4824 75.6634 65.0293C75.3093 65.335 75.0195 65.4961 74.3597 65.7373C75.1478 65.914 75.5666 66.1073 76.0336 66.5098C76.7216 67.1211 77.0789 67.9889 77.0804 69.0479C77.0804 71.3645 75.4391 72.7324 72.64 72.7324H68.265C67.0466 72.7324 66.0199 72.7383 66.0199 72.7383C66.0199 72.7383 66.014 71.542 66.014 70.416V68.9082C65.775 69.2872 65.4427 69.753 65.2513 69.9473C64.104 71.1071 62.7519 71.9205 61.1654 72.3252C60.3355 72.5385 59.4914 72.6124 58.641 72.4658C56.823 72.1571 55.5567 71.1463 54.8236 69.4551C54.6871 69.1302 54.5814 68.7929 54.5082 68.4482C54.3432 67.565 54.3526 66.6578 54.5365 65.7783C54.7412 64.913 55.1236 64.0993 55.6595 63.3896C56.309 62.51 57.1011 61.789 58.0892 61.3037C58.7306 60.9878 59.4036 60.7959 60.1234 60.8164C60.8433 60.8369 61.5055 61.0398 62.056 61.5186C62.7034 62.0831 62.9641 62.7926 62.808 63.6445C62.7131 64.1115 62.512 64.5503 62.2211 64.9277C61.7363 65.574 61.1468 66.1353 60.4769 66.5869C59.4797 67.2809 58.3604 67.7801 57.1781 68.0596C56.9501 68.1146 56.7176 68.1516 56.4867 68.1963C56.3379 68.2256 56.3214 68.2411 56.3646 68.3877C56.7151 69.557 57.4333 70.3613 58.6429 70.6758C59.2826 70.837 59.9515 70.844 60.5941 70.6953C62.1512 70.3544 63.3832 69.4752 64.3568 68.583C64.9432 68.0457 65.5605 67.2818 66.0121 66.6162V61.624C66.0121 60.7756 66.0188 59.375 66.0189 59.3516H72.4623ZM100.689 59.3477V62.1807H97.9994L94.2992 62.1797V64.8184H97.3236C98.5673 64.8184 99.8671 64.8222 99.889 64.8223V67.5703C99.8668 67.5703 98.5361 67.5674 97.3236 67.5674H94.3031V72.7383H91.1156V59.3477H100.689ZM69.1644 70.0801H72.1244C73.1374 70.08 73.7483 69.5175 73.7484 68.5684C73.7484 67.6358 73.1342 67.0889 72.1078 67.0889H69.1644V70.0801ZM59.9115 62.416C59.4932 62.4791 59.093 62.6312 58.7386 62.8623C57.7498 63.4847 57.0479 64.3521 56.5765 65.4121C56.3938 65.8221 56.2758 66.258 56.2259 66.7041C56.2076 66.8609 56.236 66.8908 56.3861 66.8711C56.4864 66.8564 56.587 66.8413 56.6859 66.8223C57.6578 66.6343 58.5865 66.2654 59.4232 65.7363C60.0505 65.3391 60.6126 64.8685 61.059 64.2705C61.1994 64.0887 61.3132 63.8872 61.3959 63.6729C61.5673 63.2059 61.4201 62.81 60.9847 62.5732C60.7468 62.4493 60.4825 62.385 60.2142 62.3857C60.1131 62.3953 60.0112 62.4021 59.9115 62.416ZM82.0316 65.5078H84.4281V65.5146C85.5533 65.5146 86.2131 64.8773 86.2133 63.7705C86.2133 62.6635 85.5857 62.084 84.4281 62.084H82.0316V65.5078ZM69.1644 64.5146H71.9955C72.8479 64.5145 73.3783 64.0156 73.3783 63.2275C73.3781 62.4397 72.8795 61.9902 71.9633 61.9902H69.1644V64.5146Z" fill="black"/>
<path d="M42.8439 72.9772C40.4988 68.4682 42.7267 64.7403 42.7267 64.7403L41.835 63.4938L41.8309 63.488L40.3808 62.9844C40.3808 62.9844 37.4323 66.1729 32.4446 65.1924C31.1358 68.5729 31.0976 70.5324 34.0701 73.8465L34.0751 73.8523C38.0963 75.7694 39.9619 75.1786 42.8439 72.9772Z" fill="#FFE100"/>
<path d="M41.1457 59.2409C40.1875 58.0252 34.5242 56.3981 30.1332 57.8748C24.3892 59.8068 30.2445 66.3394 35.9901 65.2707C39.649 64.5826 42.7994 61.3417 41.1457 59.2409Z" fill="#D9F1FD"/>
<path d="M34.7229 60.6727L34.4811 60.2456C34.2673 60.378 34.0717 60.5378 33.8994 60.7209C33.3262 60.7684 32.7561 60.8474 32.1917 60.9578L32.2299 60.8605C30.7532 60.2788 30.2238 58.316 30.218 58.2969L29.7194 58.4265L29.2208 58.5553C29.2416 58.6384 29.6745 60.2605 30.9194 61.2702C29.9913 61.5429 29.1 61.9277 28.2651 62.4162L28.7903 63.3054C30.1648 62.4943 31.6665 62.0588 33.1216 61.8586C32.7426 62.6563 32.4784 63.7915 32.6612 65.3563L33.6866 65.2366C33.4731 63.4167 33.9501 62.3281 34.3863 61.7364C36.45 61.6343 38.5167 61.861 40.5092 62.4079L40.8192 61.4256C38.838 60.8621 36.7817 60.6081 34.7229 60.6727V60.6727Z" fill="#00AEEF"/>
<path d="M46.1211 62.9651C47.558 63.5426 50.715 68.517 50.5346 73.1466C50.2994 79.2029 42.3816 75.4244 41.7916 69.6098C41.416 65.9068 43.6431 61.9695 46.1211 62.9651Z" fill="#D9F1FD"/>
<path d="M50.1397 74.214L50.1048 73.1827C50.0857 73.1827 48.063 73.2359 47.0791 71.9744L46.996 72.0392C46.9434 71.4665 46.8588 70.8972 46.7426 70.334C46.8703 70.1181 46.9686 69.8861 47.0351 69.6443L46.5564 69.5296C46.0396 67.537 45.2181 65.6362 44.1207 63.8945L43.2623 64.4688C44.3504 66.2245 45.1511 68.1428 45.634 70.1512C45.1894 70.7379 44.2795 71.5032 42.4712 71.8132L42.644 72.8303C44.1997 72.5653 45.2143 71.991 45.8725 71.4018C46.0877 72.8553 46.0944 74.4176 45.7063 75.9674L46.7035 76.2167C46.9377 75.2782 47.056 74.3145 47.0559 73.3472C48.2342 74.16 49.6985 74.214 50.06 74.214C50.1023 74.2156 50.1306 74.2148 50.1397 74.214Z" fill="#00AEEF"/>
<path d="M53.9672 55.201C53.8944 55.13 53.8083 55.0741 53.7138 55.0364C53.6193 54.9987 53.5184 54.9799 53.4167 54.9812C53.3149 54.9826 53.2145 55.0039 53.121 55.044C53.0276 55.0842 52.9429 55.1423 52.8719 55.2152C51.7468 56.3907 50.2647 57.1614 48.6562 57.4074C48.2715 56.932 47.8293 56.506 47.3399 56.1392C46.7033 55.6606 45.9921 55.2902 45.235 55.0431C44.9535 53.361 45.2649 51.6333 46.1158 50.1552C46.1657 50.0664 46.1976 49.9687 46.2097 49.8676C46.2218 49.7664 46.2139 49.6639 46.1864 49.5659C46.1589 49.4679 46.1123 49.3762 46.0494 49.2962C45.9865 49.2161 45.9084 49.1492 45.8196 49.0994C45.7308 49.0495 45.6331 49.0176 45.532 49.0055C45.4309 48.9934 45.3284 49.0013 45.2303 49.0288C45.1323 49.0563 45.0406 49.1029 44.9606 49.1658C44.8805 49.2288 44.8137 49.3068 44.7638 49.3956C43.8375 51.0129 43.4417 52.88 43.632 54.734C41.9035 54.6218 40.2739 55.2384 39.285 56.5622C39.1299 56.7714 38.9937 56.9939 38.8778 57.227C36.4255 56.4667 32.9136 56.1293 29.8863 57.1439C27.6716 57.8918 26.6362 59.4334 27.1149 61.2765C27.5495 62.9477 29.2348 64.6006 31.402 65.4931C30.8712 66.6048 30.6546 67.8404 30.7754 69.0664C30.9308 70.5489 31.599 71.9209 32.7242 73.0968L32.1125 76.4823L35.1873 74.9416C36.2584 75.4959 37.3612 75.7801 38.4573 75.7801C38.8422 75.78 39.2263 75.745 39.6049 75.6754C40.8167 75.4425 41.9417 74.8827 42.8583 74.0566C44.2893 75.854 46.3003 77 48.0105 77H48.1269C50.0299 76.9402 51.2207 75.5108 51.3113 73.1774C51.436 69.9772 50.1155 66.6955 48.6895 64.5548C48.8779 64.3799 49.0503 64.1886 49.2047 63.9831C50.0432 62.8629 50.3008 61.422 49.9302 59.9236C49.8351 59.5415 49.7035 59.1695 49.5371 58.8126C51.2331 58.4245 52.7789 57.5497 53.9847 56.2955C54.1274 56.148 54.2057 55.9498 54.2024 55.7446C54.1991 55.5394 54.1145 55.3439 53.9672 55.201V55.201ZM44.1206 64.1975C44.8812 65.5367 45.5056 66.9487 45.9846 68.4124L45.9605 68.4082C45.9605 68.4307 45.5516 70.4699 43.022 71.2253C42.7873 70.6864 42.6323 70.1162 42.5616 69.5326C42.3356 67.308 43.1408 65.1889 44.1206 64.1975ZM41.8303 64.854C41.2716 66.0697 40.9803 67.3911 40.9761 68.729C40.4841 68.7946 39.4869 68.7946 38.4456 68.0152C37.4044 67.2357 37.1368 66.2991 37.0645 65.8022C38.3474 65.4217 39.5334 64.7699 40.5423 63.8909C40.9344 64.2585 41.3664 64.581 41.8303 64.8523V64.854ZM35.9593 60.9059C37.4977 60.9535 39.0275 61.1553 40.5257 61.5084C39.8509 62.7283 38.0443 64.0978 35.8463 64.5075C35.2675 64.6138 34.6769 64.6393 34.0912 64.5831C34.0804 61.9339 35.8853 60.9715 35.9684 60.9267L35.9593 60.9059ZM34.0022 58.063C37.1601 58.063 40.0595 59.1142 40.5373 59.725C40.6645 59.8823 40.7529 60.0673 40.7955 60.2651C40.8381 60.4628 40.8336 60.6678 40.7824 60.8635C39.4671 60.5433 38.1263 60.3386 36.7753 60.2519C35.3503 60.1531 33.9187 60.217 32.5081 60.4422C31.5848 60.0416 31.0281 59.1433 30.7347 58.5035C31.7977 58.2034 32.8978 58.0551 34.0022 58.063V58.063ZM28.614 60.8884C28.3647 59.9386 28.8633 59.2123 30.0766 58.7278C30.3317 59.3029 30.7813 60.0849 31.5076 60.6458C30.608 60.8566 29.7356 61.1697 28.9073 61.579C28.7784 61.3619 28.6797 61.1281 28.614 60.8843V60.8884ZM29.307 62.1408C31.0779 61.2757 33.0466 60.9558 34.8648 60.9059C34.2216 61.5175 33.423 62.6469 33.4047 64.4842C31.6729 64.146 30.1646 63.1795 29.307 62.1408ZM39.3257 74.1463C37.8457 74.4172 36.2842 73.9801 34.8092 72.8732C32.7316 71.3217 31.4652 68.6633 32.8887 65.9559C33.1322 66.0099 33.3782 66.0548 33.6283 66.0872C33.777 67.4168 34.4643 69.3331 36.3839 70.7699C37.5938 71.6905 39.0711 72.1909 40.5913 72.1951C40.9533 72.1957 41.3147 72.1657 41.6716 72.1054C41.7697 72.3272 41.8777 72.5433 41.9932 72.7544C41.2587 73.4685 40.3315 73.9523 39.3257 74.1463V74.1463ZM46.666 75.1884C45.274 74.6325 44.0633 73.2771 43.3195 71.8552C45.0438 71.3151 45.8915 70.2447 46.2937 69.4628C46.7582 71.2312 47.0075 73.2314 46.666 75.1884ZM48.0787 75.4527C47.8278 75.4602 47.5768 75.4387 47.3308 75.3887C47.4934 74.4705 47.5491 73.5366 47.497 72.6056C48.2391 73.1441 49.1166 73.3535 49.7407 73.4366C49.6152 74.7446 49.0568 75.4227 48.0754 75.4527H48.0787ZM49.7698 72.7461C49.0734 72.6447 48.0546 72.3646 47.4097 71.5901C47.2282 70.1737 46.8862 68.7825 46.3901 67.4434C45.9265 66.1706 45.352 64.941 44.6732 63.7687C44.8754 63.6514 45.1043 63.5879 45.338 63.5842C45.5092 63.585 45.6785 63.6192 45.8366 63.6848C46.7956 64.0712 49.7607 68.4265 49.7665 72.7461H49.7698Z" fill="black"/>
</svg>
