<svg width="128" height="128" viewBox="0 0 128 128" fill="none" xmlns="http://www.w3.org/2000/svg">
<path d="M2 48.7015C2 46.6572 3.65721 45 5.70149 45H122.299C124.343 45 126 46.6572 126 48.7015V79.2388C126 81.2831 124.343 82.9403 122.299 82.9403H5.70149C3.65721 82.9403 2 81.2831 2 79.2388V48.7015Z" fill="url(#paint0_linear_229_14019)"/>
<path d="M122.299 81.0896V82.9403H5.70149V81.0896H122.299ZM124.149 79.2388V48.7015C124.149 47.6794 123.321 46.8507 122.299 46.8507H5.70149C4.67935 46.8507 3.85075 47.6794 3.85075 48.7015V79.2388C3.85075 80.2609 4.67936 81.0896 5.70149 81.0896V82.9403L5.51082 82.9358C3.55514 82.8366 2 81.2191 2 79.2388V48.7015C2 46.7212 3.55514 45.1037 5.51082 45.0045L5.70149 45H122.299C124.343 45 126 46.6572 126 48.7015V79.2388L125.995 79.4295C125.896 81.3852 124.279 82.9403 122.299 82.9403V81.0896C123.321 81.0896 124.149 80.2609 124.149 79.2388Z" fill="url(#paint1_linear_229_14019)"/>
<path d="M113.514 70.102C113.566 70.2694 113.616 70.4371 113.665 70.6045C113.713 70.7718 113.762 70.941 113.811 71.1114C113.857 70.9411 113.903 70.7718 113.952 70.6045C114.004 70.4371 114.056 70.2694 114.108 70.102L114.833 67.8844H116.458L114.381 73.3842C114.217 73.8192 114.01 74.1324 113.761 74.324C113.514 74.5157 113.188 74.6123 112.784 74.6123H111.729V73.3932H112.396C112.56 73.3932 112.676 73.3569 112.743 73.2839C112.81 73.2139 112.872 73.0906 112.93 72.9143L113.012 72.6947L111.159 67.8844H112.802L113.514 70.102ZM80.6767 65.7969C81.2122 65.7969 81.7012 65.8985 82.1424 66.1023C82.5866 66.3031 82.9502 66.5852 83.2332 66.9473C83.516 67.3093 83.6815 67.7324 83.7302 68.216H82.0602C81.9994 67.9149 81.8545 67.6759 81.6264 67.4994C81.4013 67.3199 81.1045 67.2301 80.7363 67.2301C80.2068 67.2301 79.7958 67.4141 79.5037 67.7823C79.2147 68.1474 79.0699 68.6572 79.0699 69.3113C79.0699 69.9654 79.2161 70.4752 79.5082 70.8403C79.8033 71.2024 80.2189 71.3834 80.7544 71.3835C81.1865 71.3835 81.5293 71.2751 81.7819 71.059C82.0372 70.8431 82.1679 70.5602 82.1741 70.2105H80.814V69.005H83.7808V69.9276C83.7808 70.5024 83.65 71.0073 83.3886 71.4422C83.13 71.8743 82.7685 72.2127 82.306 72.4561C81.8437 72.6963 81.3099 72.8167 80.7047 72.8167C80.0474 72.8167 79.4716 72.672 78.9786 72.3829C78.4858 72.0939 78.103 71.6871 77.8291 71.1639C77.5553 70.6375 77.418 70.0202 77.418 69.3113C77.418 68.5719 77.5612 67.9405 77.8472 67.4172C78.1333 66.8908 78.5213 66.4886 79.0112 66.2117C79.504 65.9349 80.0592 65.7969 80.6767 65.7969ZM95.6805 67.7778C96.1642 67.7778 96.5888 67.8838 96.9538 68.0968C97.322 68.3067 97.6099 68.5991 97.8168 68.9733C98.0237 69.3444 98.1268 69.7735 98.1268 70.2602V70.6849H94.7723C94.7815 70.9922 94.8727 71.2356 95.0461 71.4151C95.2226 71.5946 95.466 71.6844 95.7763 71.6844C96.0073 71.6844 96.2005 71.6376 96.3556 71.5434C96.5138 71.4491 96.6222 71.3221 96.68 71.1639H98.0907C98.0328 71.4864 97.8926 71.7728 97.6704 72.0224C97.4484 72.2718 97.1685 72.4662 96.8309 72.6061C96.4962 72.7461 96.1259 72.8167 95.7212 72.8167C95.2284 72.8167 94.795 72.7082 94.4208 72.4923C94.0496 72.2762 93.7587 71.9795 93.5487 71.6021C93.3419 71.2219 93.2388 70.787 93.2388 70.2972C93.2388 69.8073 93.3418 69.3732 93.5487 68.9959C93.7587 68.6157 94.0482 68.3173 94.4163 68.1013C94.7844 67.8854 95.206 67.7778 95.6805 67.7778ZM86.7765 67.7832C87.4762 67.7832 88.0136 67.9309 88.3878 68.226C88.7617 68.518 88.9489 68.9301 88.949 69.4622V72.7074H87.4154V72.0323H87.3974C87.2543 72.2909 87.0695 72.4823 86.8443 72.607C86.6192 72.7287 86.3365 72.7896 85.9957 72.7896C85.5119 72.7896 85.1151 72.6724 84.8047 72.4381C84.4975 72.2008 84.3439 71.8423 84.3438 71.3618C84.3438 70.9997 84.4268 70.7132 84.5941 70.5033C84.7645 70.2933 84.9916 70.1383 85.2746 70.0379C85.5575 69.9375 85.8707 69.8737 86.2144 69.8463C86.6465 69.8098 86.9516 69.7652 87.1281 69.7134C87.3042 69.6617 87.3919 69.5629 87.3919 69.417V69.3944C87.3919 69.2514 87.3311 69.1357 87.2094 69.0474C87.0907 68.9562 86.9282 68.9101 86.7214 68.9101C86.5023 68.9101 86.3272 68.9591 86.1964 69.0565C86.0687 69.1538 85.9975 69.2845 85.9822 69.4487H84.5218C84.5554 68.9256 84.7632 68.518 85.1463 68.226C85.5327 67.9308 86.0767 67.7832 86.7765 67.7832ZM108.721 67.7832C109.421 67.7832 109.958 67.9308 110.332 68.226C110.706 68.518 110.893 68.9299 110.893 69.4622V72.7074H109.36V72.0323H109.342C109.199 72.2908 109.014 72.4823 108.789 72.607C108.564 72.7288 108.281 72.7896 107.94 72.7896C107.456 72.7895 107.059 72.6723 106.749 72.4381C106.442 72.2008 106.288 71.8421 106.288 71.3618C106.288 70.9997 106.372 70.7132 106.539 70.5033C106.71 70.2934 106.936 70.1383 107.219 70.0379C107.502 69.9375 107.816 69.8737 108.16 69.8463C108.592 69.8098 108.896 69.7652 109.072 69.7134C109.249 69.6617 109.337 69.5631 109.337 69.417V69.3944C109.337 69.2515 109.276 69.1357 109.154 69.0474C109.036 68.9562 108.873 68.9101 108.666 68.9101C108.447 68.9101 108.272 68.9592 108.141 69.0565C108.014 69.1538 107.942 69.2845 107.926 69.4487H106.466C106.5 68.9255 106.708 68.518 107.091 68.226C107.478 67.9308 108.021 67.7832 108.721 67.7832ZM91.8688 67.8862H92.8592V69.1007H91.8688V71.0861C91.8688 71.241 91.8994 71.3473 91.9601 71.4051C92.0209 71.4629 92.1397 71.4919 92.3161 71.4919H92.8592V72.7064H91.9691C91.3911 72.7064 90.9666 72.598 90.6958 72.382C90.4282 72.163 90.2946 71.8193 90.2946 71.3509V69.1007H89.4731V67.8862H90.2946V66.5722H91.8688V67.8862ZM100.286 69.3908C100.353 69.6706 100.416 69.961 100.477 70.262C100.541 70.5601 100.605 70.8585 100.669 71.1566C100.739 70.8585 100.809 70.5601 100.879 70.262C100.952 69.9609 101.025 69.6706 101.098 69.3908L101.495 67.8844H102.887L103.284 69.3908C103.357 69.6706 103.428 69.961 103.498 70.262C103.571 70.5601 103.643 70.8585 103.713 71.1566C103.774 70.8585 103.834 70.5601 103.891 70.262C103.952 69.964 104.016 69.6736 104.083 69.3908L104.444 67.8844H106.124L104.64 72.7037H103.019L102.485 70.9009C102.434 70.7215 102.383 70.5388 102.334 70.3533C102.286 70.1647 102.239 69.9761 102.193 69.7875C102.145 69.9761 102.096 70.1647 102.047 70.3533C101.998 70.5387 101.949 70.7215 101.897 70.9009L101.363 72.7037H99.7426L98.2587 67.8844H99.9107L100.286 69.3908ZM87.4064 70.5349C87.3242 70.5744 87.2099 70.6102 87.0639 70.6406C86.9178 70.6711 86.7472 70.7029 86.5524 70.7364C86.3425 70.7699 86.1688 70.8307 86.0319 70.919C85.8982 71.0072 85.8313 71.1305 85.8313 71.2886C85.8313 71.4375 85.8907 71.5549 86.0093 71.6401C86.1279 71.7222 86.2832 71.763 86.4747 71.763C86.7364 71.763 86.9576 71.6918 87.1371 71.5488C87.3166 71.4028 87.4064 71.2105 87.4064 70.9732V70.5349ZM109.351 70.5349C109.268 70.5744 109.154 70.6102 109.008 70.6406C108.862 70.671 108.692 70.703 108.497 70.7364C108.288 70.7699 108.114 70.8307 107.977 70.919C107.843 71.0072 107.776 71.1304 107.776 71.2886C107.776 71.4375 107.836 71.5549 107.954 71.6401C108.073 71.7221 108.228 71.763 108.42 71.763C108.681 71.763 108.902 71.6917 109.081 71.5488C109.261 71.4028 109.351 71.2105 109.351 70.9732V70.5349ZM95.7212 68.9372C95.4566 68.9372 95.2421 69.0084 95.0778 69.1514C94.9135 69.2944 94.8148 69.4925 94.7814 69.7451H96.6619C96.6254 69.4925 96.5244 69.2944 96.3601 69.1514C96.1958 69.0085 95.9828 68.9372 95.7212 68.9372Z" fill="black"/>
<path d="M52.0415 67.7882C52.6652 67.7882 53.1304 68.0487 53.4377 68.5689H53.4422V67.893H55.0037V72.4485C55.0037 73.2334 54.781 73.8026 54.3368 74.1555C53.8956 74.5083 53.2989 74.6851 52.5475 74.6851C51.8055 74.685 51.2472 74.5343 50.873 74.2332C50.5018 73.932 50.2791 73.5498 50.2061 73.0874H51.708C51.7506 73.2364 51.8449 73.3537 51.9909 73.4389C52.1368 73.5271 52.3225 73.5708 52.5475 73.5708C53.1439 73.5708 53.4422 73.2481 53.4422 72.603V71.8593H53.4377C53.3099 72.1453 53.1259 72.3538 52.8855 72.4846C52.6452 72.6154 52.3684 72.6807 52.055 72.6807C51.6322 72.6807 51.2641 72.5775 50.9507 72.3707C50.6403 72.1608 50.3985 71.8729 50.2251 71.5077C50.0547 71.1426 49.9693 70.7241 49.9693 70.2525C49.9694 69.7749 50.0576 69.3504 50.2341 68.9792C50.4106 68.6082 50.654 68.318 50.9643 68.1081C51.2747 67.8951 51.6337 67.7882 52.0415 67.7882ZM66.9252 67.7918C67.5975 67.7918 68.1333 67.941 68.5319 68.2391C68.9304 68.5372 69.1374 68.9432 69.1527 69.4573H67.7059C67.7028 69.2902 67.633 69.1504 67.4963 69.038C67.3624 68.9254 67.1902 68.869 66.9803 68.869C66.7766 68.869 66.6169 68.9084 66.5013 68.9873C66.3887 69.0665 66.3323 69.166 66.3323 69.2847C66.3326 69.4822 66.5062 69.6145 66.8529 69.6814L67.8198 69.8594C68.3158 69.9507 68.6831 70.1028 68.9205 70.3158C69.1577 70.5287 69.2765 70.8153 69.2765 71.1743C69.2765 71.5027 69.1799 71.7915 68.9883 72.0409C68.7996 72.2903 68.5355 72.4856 68.1948 72.6256C67.8571 72.7625 67.4623 72.8307 67.0119 72.8307C66.5678 72.8307 66.1736 72.7639 65.8299 72.6301C65.4861 72.4962 65.2108 72.3039 65.0039 72.0545C64.8002 71.8051 64.6843 71.5103 64.6569 71.1697H66.204C66.2284 71.349 66.308 71.4902 66.4417 71.5936C66.5755 71.697 66.7581 71.749 66.9893 71.749C67.2054 71.749 67.3746 71.7112 67.4963 71.6351C67.618 71.5591 67.6788 71.4595 67.6788 71.3378C67.6786 71.1372 67.4834 71.002 67.0941 70.9321L66.223 70.7766C65.7485 70.6915 65.3863 70.5289 65.1368 70.2887C64.8903 70.0483 64.7663 69.7373 64.7663 69.357C64.7663 68.8824 64.9586 68.5039 65.3419 68.221C65.7252 67.9351 66.2529 67.7918 66.9252 67.7918ZM71.9641 67.7918C72.6366 67.7918 73.1722 67.9409 73.5709 68.2391C73.9693 68.5372 74.1764 68.9433 74.1917 69.4573H72.7449C72.7417 69.2901 72.6711 69.1504 72.5343 69.038C72.4005 68.9255 72.229 68.869 72.0192 68.869C71.8154 68.869 71.655 68.9082 71.5394 68.9873C71.4268 69.0665 71.3704 69.166 71.3704 69.2847C71.3706 69.4822 71.5443 69.6145 71.8909 69.6814L72.8587 69.8594C73.3546 69.9507 73.7212 70.1028 73.9585 70.3158C74.1959 70.5288 74.3146 70.8152 74.3146 71.1743C74.3145 71.5027 74.2188 71.7915 74.0272 72.0409C73.8386 72.2904 73.5737 72.4856 73.2329 72.6256C72.8952 72.7625 72.5011 72.8307 72.0509 72.8307C71.6067 72.8307 71.2126 72.7639 70.8688 72.6301C70.525 72.4962 70.2498 72.304 70.0429 72.0545C69.8391 71.8051 69.7233 71.5103 69.6959 71.1697H71.243C71.2674 71.3491 71.3469 71.4902 71.4806 71.5936C71.6145 71.697 71.7971 71.749 72.0283 71.749C72.244 71.749 72.4127 71.711 72.5343 71.6351C72.656 71.5591 72.7169 71.4595 72.7169 71.3378C72.7166 71.1372 72.5223 71.002 72.1331 70.9321L71.261 70.7766C70.7865 70.6915 70.4243 70.529 70.1748 70.2887C69.9283 70.0483 69.8052 69.7373 69.8052 69.357C69.8053 68.8826 69.9968 68.5039 70.3799 68.221C70.7633 67.935 71.2916 67.7918 71.9641 67.7918ZM61.7769 67.7827C62.2607 67.7827 62.6859 67.8896 63.0511 68.1026C63.4189 68.3125 63.7064 68.6043 63.9132 68.9783C64.1201 69.3495 64.224 69.7792 64.224 70.2661V70.6899H60.8687C60.8778 70.997 60.9692 71.2406 61.1425 71.4201C61.3189 71.5995 61.5625 71.6893 61.8727 71.6894C62.1039 71.6894 62.2976 71.6427 62.4528 71.5484C62.611 71.4541 62.7194 71.3279 62.7772 71.1697H64.187C64.1292 71.492 63.9896 71.778 63.7677 72.0273C63.5455 72.2769 63.265 72.4721 62.9273 72.612C62.5926 72.7519 62.223 72.8217 61.8184 72.8217C61.3255 72.8217 60.8914 72.7133 60.5171 72.4973C60.1461 72.2812 59.8559 71.9843 59.646 71.6071C59.4391 71.2268 59.3351 70.792 59.3351 70.3022C59.3351 69.8124 59.4391 69.3791 59.646 69.0018C59.8559 68.6216 60.1446 68.3232 60.5126 68.1072C60.8807 67.8912 61.3023 67.7828 61.7769 67.7827ZM49.4488 67.3092H46.0256V68.6186H49.1885V69.9742H46.0256V71.3161H49.4488V72.7132H44.3818V65.9121H49.4488V67.3092ZM58.8236 67.8776C58.8935 67.8776 58.9604 67.8791 59.0242 67.8821V69.178C58.9664 69.175 58.8765 69.172 58.7549 69.169C58.6333 69.1659 58.5159 69.1645 58.4034 69.1645C58.1207 69.1645 57.8912 69.259 57.7148 69.4473C57.5414 69.6359 57.4546 69.901 57.4545 70.2417V72.7114H55.8839V67.8912H57.4039V68.7406H57.4175C57.5057 68.4333 57.643 68.2121 57.8287 68.0782C58.0172 67.9415 58.2727 67.8732 58.595 67.8731C58.6802 67.8731 58.7567 67.8746 58.8236 67.8776ZM52.4933 69.0072C52.2042 69.0072 51.9757 69.1147 51.8083 69.3307C51.644 69.5468 51.5616 69.8451 51.5616 70.2254C51.5616 70.6087 51.6441 70.9085 51.8083 71.1246C51.9757 71.3406 52.2042 71.449 52.4933 71.449C52.7914 71.4489 53.0319 71.3391 53.2144 71.12C53.4 70.8979 53.4928 70.5996 53.4928 70.2254C53.4928 69.8572 53.4001 69.5619 53.2144 69.3398C53.0319 69.1177 52.7914 69.0073 52.4933 69.0072ZM61.8184 68.9422C61.5538 68.9422 61.3393 69.0135 61.175 69.1563C61.0107 69.2993 60.9112 69.4975 60.8777 69.7501H62.7583C62.7217 69.4975 62.6217 69.2993 62.4573 69.1563C62.2931 69.0134 62.08 68.9422 61.8184 68.9422Z" fill="black"/>
<path d="M48.4632 54.9023C49.0916 54.9024 49.5912 55.0663 49.9615 55.3949C50.3345 55.7235 50.5297 56.1728 50.548 56.7413H49.7067C49.6858 56.405 49.5639 56.141 49.3398 55.9506C49.1155 55.7577 48.8191 55.6615 48.4514 55.6614C48.0994 55.6614 47.8109 55.7459 47.5866 55.9154C47.3624 56.0822 47.2505 56.2973 47.2504 56.5606C47.2504 56.7718 47.3359 56.9445 47.508 57.0775C47.6801 57.2079 47.9665 57.3208 48.3656 57.4173L48.9955 57.5664C49.5793 57.7046 50.0095 57.904 50.2859 58.1646C50.565 58.4255 50.7043 58.7649 50.7043 59.1822C50.7043 59.5316 50.6149 59.8369 50.435 60.0976C50.2551 60.3584 50.0019 60.5606 49.6759 60.704C49.3499 60.8474 48.9663 60.9191 48.5255 60.9191C47.8267 60.9191 47.2751 60.7432 46.8709 60.3913C46.4692 60.0366 46.2681 59.551 46.2681 58.9355H47.1366C47.1392 59.3189 47.2618 59.6191 47.5044 59.8356C47.7495 60.052 48.09 60.16 48.5255 60.16C48.922 60.16 49.2389 60.0766 49.4762 59.9097C49.7161 59.7402 49.8358 59.5134 49.8359 59.2292C49.8359 59.005 49.7504 58.8234 49.5783 58.6852C49.4088 58.5443 49.1214 58.4256 48.7171 58.3291L48.0791 58.1764C47.49 58.0356 47.0599 57.8402 46.7887 57.5899C46.52 57.3369 46.3856 57.0082 46.3856 56.604C46.3856 56.2624 46.472 55.964 46.6441 55.7084C46.8162 55.4528 47.0575 55.2546 47.3679 55.1138C47.6809 54.973 48.046 54.9023 48.4632 54.9023ZM53.9946 54.9023C54.5137 54.9023 54.9757 55.0289 55.38 55.2819C55.7841 55.5349 56.1012 55.8882 56.3307 56.3419C56.5627 56.793 56.6786 57.3172 56.6786 57.9143C56.6786 58.5089 56.5627 59.032 56.3307 59.4831C56.1012 59.9342 55.7841 60.2866 55.38 60.5395C54.9757 60.7925 54.5137 60.9191 53.9946 60.9191C53.4783 60.9191 53.0181 60.7925 52.6138 60.5395C52.2095 60.2865 51.8907 59.9343 51.6586 59.4831C51.4292 59.032 51.3152 58.5088 51.3152 57.9143C51.3152 57.3173 51.4292 56.793 51.6586 56.3419C51.8907 55.8881 52.2095 55.5349 52.6138 55.2819C53.0181 55.0289 53.4782 54.9024 53.9946 54.9023ZM45.4422 60.8233H44.5737V54.9945H45.4422V60.8233ZM58.8547 58.2803C58.9251 58.4915 59.0056 58.7409 59.0968 59.0277C59.1881 59.3146 59.2951 59.6501 59.4177 60.0335C59.535 59.6501 59.638 59.3146 59.7267 59.0277C59.818 58.7408 59.8994 58.4916 59.9698 58.2803L61.0922 54.9945H62.0121L59.9264 60.8233H58.8818L56.7653 54.9945H57.7007L58.8547 58.2803ZM66.5929 60.8233H65.6504L65.1335 59.3096H62.783L62.2507 60.8233H61.3271L63.4436 54.9945H64.4918L66.5929 60.8233ZM68.0641 60.0606H70.8222V60.8233H67.1957V54.9945H68.0641V60.0606ZM75.4662 55.7572H72.4144V57.4742H75.2385V58.2297H72.4144V60.0606H75.4662V60.8233H71.546V54.9945H75.4662V55.7572ZM79.4523 58.5189C79.5202 58.6284 79.6133 58.7844 79.7307 58.9852C79.848 59.1859 79.9649 59.3893 80.0822 59.5952C80.0744 59.3839 80.0685 59.17 80.0632 58.9536C80.0606 58.7346 80.0596 58.5716 80.0596 58.4647V54.9945H80.9317V60.8233H79.9611L77.9703 57.6739C77.8894 57.5461 77.7717 57.3558 77.6179 57.1028C77.4666 56.8473 77.2948 56.5538 77.1019 56.2226C77.1149 56.5643 77.1228 56.8596 77.1254 57.1073C77.1306 57.3523 77.1326 57.54 77.1326 57.6703V60.8233H76.2641V54.9945H77.2266L79.4523 58.5189ZM86.2282 55.7572H84.3774V60.8233H83.5054V55.7572H81.6474V54.9945H86.2282V55.7572ZM53.9946 55.6967C53.6608 55.6967 53.3567 55.7821 53.0828 55.9542C52.809 56.1238 52.5912 56.3749 52.4295 56.7061C52.2679 57.0372 52.1873 57.44 52.1873 57.9143C52.1873 58.3864 52.2678 58.7886 52.4295 59.1198C52.5911 59.4483 52.8091 59.6987 53.0828 59.8708C53.3567 60.0403 53.6608 60.1247 53.9946 60.1247C54.331 60.1247 54.6363 60.0403 54.9101 59.8708C55.1838 59.6987 55.4017 59.4483 55.5634 59.1198C55.7251 58.7886 55.8065 58.3864 55.8065 57.9143C55.8065 57.4399 55.725 57.0372 55.5634 56.7061C55.4017 56.3749 55.1839 56.1238 54.9101 55.9542C54.6363 55.7822 54.331 55.6967 53.9946 55.6967ZM63.6632 56.7666C63.5745 57.0405 63.4892 57.2975 63.4083 57.5375L63.045 58.5704H64.8795L64.5271 57.5375C64.4488 57.2975 64.3654 57.0405 64.2768 56.7666C64.1881 56.4929 64.0869 56.1669 63.9722 55.7889C63.8549 56.1669 63.7518 56.4929 63.6632 56.7666Z" fill="black"/>
<path fill-rule="evenodd" clip-rule="evenodd" d="M38.1437 69.9924L31.4212 77.3872V74.25H11.2539V65.7348H31.4212V62.5977L38.1437 69.9924ZM20.2172 67.9757V72.0092H22.458V67.9757H20.2172Z" fill="#006BFF"/>
<path d="M25.4822 60.3573C25.4822 57.8203 23.4255 55.7636 20.8885 55.7636C18.3515 55.7636 16.2948 57.8203 16.2948 60.3573V63.7185H12.9336V60.3573C12.9336 55.9639 16.4951 52.4023 20.8885 52.4023C25.2818 52.4023 28.8434 55.9639 28.8434 60.3573V63.7185H25.4822V60.3573Z" fill="url(#paint2_linear_229_14019)"/>
<defs>
<linearGradient id="paint0_linear_229_14019" x1="12.0479" y1="-10.6022" x2="134.365" y2="12.7983" gradientUnits="userSpaceOnUse">
<stop stop-color="white"/>
<stop offset="1" stop-color="#E7F3FF"/>
</linearGradient>
<linearGradient id="paint1_linear_229_14019" x1="2" y1="59.5356" x2="101.736" y2="113.767" gradientUnits="userSpaceOnUse">
<stop stop-color="#37A8FF"/>
<stop offset="1" stop-color="#3071FF"/>
</linearGradient>
<linearGradient id="paint2_linear_229_14019" x1="12.9336" y1="59.5255" x2="28.8388" y2="59.2291" gradientUnits="userSpaceOnUse">
<stop stop-color="#049FFC"/>
<stop offset="1" stop-color="#19C9FF"/>
</linearGradient>
</defs>
</svg>
