<svg width="128" height="128" viewBox="0 0 128 128" fill="none" xmlns="http://www.w3.org/2000/svg">
<path d="M2 6C2 3.79086 3.79086 2 6 2H122C124.209 2 126 3.79086 126 6V122C126 124.209 124.209 126 122 126H6C3.79086 126 2 124.209 2 122V6Z" fill="url(#paint0_linear_229_14359)"/>
<path d="M122 122V126H6V122H122ZM122 6H6V126C3.79086 126 2 124.209 2 122V6C2 3.85997 3.68056 2.11211 5.79395 2.00488L6 2H122L122.206 2.00488C124.319 2.11212 126 3.85996 126 6V122L125.995 122.206C125.888 124.319 124.14 126 122 126V6Z" fill="url(#paint1_linear_229_14359)"/>
<path fill-rule="evenodd" clip-rule="evenodd" d="M119.449 83.979L93.087 112.98V100.676H14V67.2818H93.087V54.9785L119.449 83.979ZM49.1498 76.0698V91.8883H57.9372V76.0698H49.1498Z" fill="#006BFF"/>
<path d="M69.7976 46.1975C69.7976 36.2479 61.7323 28.1821 51.7833 28.1821C41.8343 28.1821 33.7691 36.2479 33.7691 46.1975V59.3796H20.5879V46.1975C20.5879 28.9676 34.5546 15 51.7833 15C69.0121 15 82.9787 28.9676 82.9787 46.1975V59.3796H69.7976V46.1975Z" fill="url(#paint2_linear_229_14359)"/>
<defs>
<linearGradient id="paint0_linear_229_14359" x1="-19.5" y1="-42.5" x2="140" y2="143.5" gradientUnits="userSpaceOnUse">
<stop stop-color="white"/>
<stop offset="1" stop-color="#E7F3FF"/>
</linearGradient>
<linearGradient id="paint1_linear_229_14359" x1="2" y1="49.5065" x2="127.744" y2="70.4267" gradientUnits="userSpaceOnUse">
<stop stop-color="#37A8FF"/>
<stop offset="1" stop-color="#3071FF"/>
</linearGradient>
<linearGradient id="paint2_linear_229_14359" x1="20.5879" y1="42.9354" x2="82.9608" y2="41.7731" gradientUnits="userSpaceOnUse">
<stop stop-color="#049FFC"/>
<stop offset="1" stop-color="#19C9FF"/>
</linearGradient>
</defs>
</svg>
