<svg width="128" height="128" viewBox="0 0 128 128" fill="none" xmlns="http://www.w3.org/2000/svg">
<path d="M5 9C5 6.79086 6.79086 5 9 5H65C67.2091 5 69 6.79086 69 9V65C69 67.2091 67.2091 69 65 69H9C6.79086 69 5 67.2091 5 65V9Z" fill="url(#paint0_linear_229_14294)"/>
<path d="M65 67V69H9V67H65ZM67 65V9C67 7.89543 66.1046 7 65 7H9C7.89543 7 7 7.89543 7 9V65C7 66.1046 7.89543 67 9 67V69L8.79395 68.9951C6.68056 68.8879 5 67.14 5 65V9C5 6.85996 6.68056 5.11211 8.79395 5.00488L9 5H65C67.2091 5 69 6.79086 69 9V65C69 67.2091 67.2091 69 65 69V67C66.1046 67 67 66.1046 67 65Z" fill="url(#paint1_linear_229_14294)"/>
<path fill-rule="evenodd" clip-rule="evenodd" d="M64.6377 48.7791L51.7282 62.98V56.9554H13V40.6028H51.7282V34.5781L64.6377 48.7791ZM30.2126 44.9061V52.652H34.5157V44.9061H30.2126Z" fill="#006BFF"/>
<path d="M40.3237 30.2768C40.3237 25.4046 36.3742 21.455 31.5022 21.455C26.6303 21.455 22.6808 25.4046 22.6808 30.2768V36.7317H16.2261V30.2768C16.2261 21.8396 23.0654 15 31.5022 15C39.939 15 46.7784 21.8396 46.7784 30.2768V36.7317H40.3237V30.2768Z" fill="url(#paint2_linear_229_14294)"/>
<path d="M56.7412 126.857V125.032H57.7393C58.2314 125.032 58.3682 124.841 58.5391 124.314L58.6621 123.986L55.8867 116.781H58.3477L59.4141 120.104C59.5713 120.603 59.7148 121.108 59.8584 121.614C59.9951 121.108 60.1455 120.603 60.3027 120.104L61.3896 116.781H63.8232L60.7129 125.019C60.2207 126.324 59.5303 126.857 58.3203 126.857H56.7412Z" fill="black"/>
<path d="M51.0674 124.124C49.625 124.124 48.5928 123.42 48.5928 121.984C48.5928 120.364 49.8574 119.838 51.3955 119.715C52.6875 119.605 53.1592 119.503 53.1592 119.072V119.038C53.1592 118.607 52.7764 118.313 52.1543 118.313C51.498 118.313 51.0947 118.628 51.0469 119.12H48.8594C48.9619 117.555 50.1445 116.625 52.2363 116.625C54.335 116.625 55.4902 117.548 55.4902 119.141V124.001H53.1934V122.989H53.166C52.7354 123.769 52.0859 124.124 51.0674 124.124ZM51.7852 122.586C52.5713 122.586 53.1797 122.114 53.1797 121.403V120.747C52.9268 120.863 52.4824 120.952 51.9014 121.048C51.2725 121.144 50.8213 121.403 50.8213 121.875C50.8213 122.319 51.2109 122.586 51.7852 122.586Z" fill="black"/>
<path d="M38.79 124L36.5684 116.781H39.043L39.6035 119.037C39.8086 119.878 39.9932 120.787 40.1777 121.683C40.3896 120.787 40.6016 119.878 40.8203 119.037L41.415 116.781H43.5L44.0947 119.037C44.3135 119.878 44.5254 120.787 44.7373 121.683C44.915 120.787 45.0928 119.885 45.291 119.037L45.8311 116.781H48.3467L46.125 124H43.6982L42.8984 121.3C42.748 120.767 42.6045 120.199 42.4609 119.632C42.3174 120.199 42.1738 120.767 42.0166 121.3L41.2168 124H38.79Z" fill="black"/>
<path d="M32.7676 124.164C30.5527 124.164 29.0488 122.592 29.0488 120.391C29.0488 118.189 30.5664 116.617 32.7061 116.617C34.873 116.617 36.3701 118.148 36.3701 120.336V120.972H31.3457C31.373 121.888 31.9199 122.469 32.8496 122.469C33.54 122.469 34.0322 122.168 34.2031 121.689H36.3154C36.0488 123.146 34.5928 124.164 32.7676 124.164ZM31.3594 119.563H34.1758C34.0732 118.805 33.5537 118.354 32.7676 118.354C31.9746 118.354 31.4619 118.805 31.3594 119.563Z" fill="black"/>
<path d="M28.4814 116.781V118.6H26.998V121.573C26.998 122.038 27.1416 122.182 27.668 122.182H28.4814V124H27.1484C25.4189 124 24.6396 123.371 24.6396 121.97V118.6H23.4092V116.781H24.6396V114.812H26.998V116.781H28.4814Z" fill="black"/>
<path d="M18.2002 124.124C16.7578 124.124 15.7256 123.42 15.7256 121.984C15.7256 120.364 16.9902 119.838 18.5283 119.715C19.8203 119.605 20.292 119.503 20.292 119.072V119.038C20.292 118.607 19.9092 118.313 19.2871 118.313C18.6309 118.313 18.2275 118.628 18.1797 119.12H15.9922C16.0947 117.555 17.2773 116.625 19.3691 116.625C21.4678 116.625 22.623 117.548 22.623 119.141V124.001H20.3262V122.989H20.2988C19.8682 123.769 19.2188 124.124 18.2002 124.124ZM18.918 122.586C19.7041 122.586 20.3125 122.114 20.3125 121.403V120.747C20.0596 120.863 19.6152 120.952 19.0342 121.048C18.4053 121.144 17.9541 121.403 17.9541 121.875C17.9541 122.319 18.3438 122.586 18.918 122.586Z" fill="black"/>
<path d="M10.2773 124.164C7.31738 124.164 5.35547 122.093 5.35547 118.914C5.35547 115.585 7.46777 113.65 10.2363 113.65C12.6357 113.65 14.584 115.106 14.8096 117.273H12.3076C12.123 116.371 11.4258 115.797 10.3252 115.797C8.73926 115.797 7.83008 116.952 7.83008 118.914C7.83008 120.869 8.74609 122.018 10.3525 122.018C11.6445 122.018 12.458 121.313 12.4785 120.261H10.4414V118.456H14.8848V119.837C14.8848 122.421 13.0049 124.164 10.2773 124.164Z" fill="black"/>
<path d="M47.0957 107.178C45.0996 107.178 43.6982 106.228 43.5684 104.689H45.8857C45.9541 105.223 46.3711 105.558 47.0615 105.558C47.7109 105.558 48.0938 105.305 48.0938 104.942C48.0938 104.628 47.793 104.437 47.2188 104.334L45.9131 104.102C44.4912 103.849 43.7324 103.117 43.7324 101.976C43.7324 100.547 44.9561 99.6309 46.9658 99.6309C48.9824 99.6309 50.2607 100.588 50.3018 102.126H48.1348C48.1211 101.62 47.6699 101.244 47.0479 101.244C46.4326 101.244 46.0771 101.511 46.0771 101.866C46.0771 102.167 46.3574 102.365 46.8564 102.461L48.3057 102.728C49.7891 103.001 50.4863 103.623 50.4863 104.696C50.4863 106.18 49.1191 107.178 47.0957 107.178Z" fill="black"/>
<path d="M39.5488 107.178C37.5527 107.178 36.1514 106.228 36.0215 104.689H38.3389C38.4072 105.223 38.8242 105.558 39.5146 105.558C40.1641 105.558 40.5469 105.305 40.5469 104.942C40.5469 104.628 40.2461 104.437 39.6719 104.334L38.3662 104.102C36.9443 103.849 36.1855 103.117 36.1855 101.976C36.1855 100.547 37.4092 99.6309 39.4189 99.6309C41.4355 99.6309 42.7139 100.588 42.7549 102.126H40.5879C40.5742 101.62 40.123 101.244 39.501 101.244C38.8857 101.244 38.5303 101.511 38.5303 101.866C38.5303 102.167 38.8105 102.365 39.3096 102.461L40.7588 102.728C42.2422 103.001 42.9395 103.623 42.9395 104.696C42.9395 106.18 41.5723 107.178 39.5488 107.178Z" fill="black"/>
<path d="M31.7695 107.164C29.5547 107.164 28.0508 105.592 28.0508 103.391C28.0508 101.189 29.5684 99.6172 31.708 99.6172C33.875 99.6172 35.3721 101.148 35.3721 103.336V103.972H30.3477C30.375 104.888 30.9219 105.469 31.8516 105.469C32.542 105.469 33.0342 105.168 33.2051 104.689H35.3174C35.0508 106.146 33.5947 107.164 31.7695 107.164ZM30.3613 102.563H33.1777C33.0752 101.805 32.5557 101.354 31.7695 101.354C30.9766 101.354 30.4639 101.805 30.3613 102.563Z" fill="black"/>
<path d="M22.8828 107V99.7812H25.1592V101.053H25.1797C25.4395 100.137 25.9795 99.7539 26.9434 99.7539C27.1963 99.7539 27.3945 99.7607 27.5859 99.7676V101.709C27.415 101.702 26.998 101.688 26.6562 101.688C25.8154 101.688 25.2344 102.276 25.2344 103.302V107H22.8828Z" fill="black"/>
<path d="M17.8857 109.954C15.6641 109.954 14.5977 108.949 14.3789 107.562H16.6279C16.751 108.013 17.209 108.286 17.8857 108.286C18.7607 108.286 19.2256 107.794 19.2256 106.837V105.723H19.2188C18.8359 106.577 18.0908 106.953 17.1475 106.953C15.2539 106.953 14.0234 105.436 14.0234 103.316C14.0234 101.17 15.2949 99.625 17.127 99.625C18.0635 99.625 18.7676 100.035 19.2188 100.794H19.2256V99.7822H21.5635V106.604C21.5635 108.956 20.1416 109.954 17.8857 109.954ZM17.8037 105.107C18.6924 105.107 19.3008 104.39 19.3008 103.275C19.3008 102.168 18.6924 101.45 17.8037 101.45C16.9424 101.45 16.4092 102.134 16.4092 103.275C16.4092 104.424 16.9424 105.107 17.8037 105.107Z" fill="black"/>
<path d="M5.65625 107V96.8145H13.2441V98.9062H8.11719V100.868H12.8545V102.898H8.11719V104.908H13.2441V107H5.65625Z" fill="black"/>
<path d="M63.9336 80.7808V79.543H71.3667V80.7808H68.3643V89.001H66.9487V80.7808H63.9336Z" fill="black"/>
<path d="M55.4595 89.001V79.543H57.021L60.6328 85.2622C60.7428 85.4399 60.8931 85.6917 61.0835 86.0176C61.2739 86.3434 61.4644 86.6735 61.6548 87.0078C61.6421 86.665 61.6315 86.318 61.623 85.9668C61.6188 85.6113 61.6167 85.3468 61.6167 85.1733V79.543H63.0322V89.001H61.458L58.2271 83.8911C58.0959 83.6838 57.9054 83.3748 57.6558 82.9644C57.4103 82.5496 57.131 82.0736 56.8179 81.5361C56.839 82.0905 56.8517 82.5687 56.856 82.9707C56.8644 83.3685 56.8687 83.6732 56.8687 83.8848V89.001H55.4595Z" fill="black"/>
<path d="M48.064 89.001V79.543H54.4243V80.7808H49.4731V83.5674H54.0562V84.7925H49.4731V87.7632H54.4243V89.001H48.064Z" fill="black"/>
<path d="M41.2656 89.001V79.543H42.6748V87.7632H47.1499V89.001H41.2656Z" fill="black"/>
<path d="M32.0039 89.001L35.438 79.543H37.1392L40.5479 89.001H39.0181L38.1802 86.5444H34.3652L33.502 89.001H32.0039ZM34.7905 85.3447H37.7676L37.1963 83.6689C37.0693 83.2796 36.9339 82.8628 36.79 82.4185C36.6462 81.9741 36.4811 81.4451 36.2949 80.8315C36.1045 81.4451 35.9373 81.9741 35.7935 82.4185C35.6496 82.8628 35.512 83.2796 35.3809 83.6689L34.7905 85.3447Z" fill="black"/>
<path d="M28.2969 89.001L24.8628 79.543H26.3799L28.2524 84.875C28.3667 85.2178 28.4979 85.6219 28.646 86.0874C28.7941 86.5529 28.9676 87.0967 29.1665 87.7188C29.3569 87.0967 29.5241 86.5529 29.668 86.0874C29.8161 85.6219 29.9473 85.2178 30.0615 84.875L31.8833 79.543H33.375L29.9917 89.001H28.2969Z" fill="black"/>
<path d="M20.6284 89.1533C19.7905 89.1533 19.0436 88.9481 18.3877 88.5376C17.7318 88.1271 17.2155 87.5558 16.8389 86.8237C16.4665 86.0916 16.2803 85.2432 16.2803 84.2783C16.2803 83.3092 16.4665 82.4587 16.8389 81.7266C17.2155 80.9902 17.7318 80.4168 18.3877 80.0063C19.0436 79.5959 19.7905 79.3906 20.6284 79.3906C21.4705 79.3906 22.2196 79.5959 22.8755 80.0063C23.5314 80.4168 24.0456 80.9902 24.418 81.7266C24.7946 82.4587 24.9829 83.3092 24.9829 84.2783C24.9829 85.2432 24.7946 86.0916 24.418 86.8237C24.0456 87.5558 23.5314 88.1271 22.8755 88.5376C22.2196 88.9481 21.4705 89.1533 20.6284 89.1533ZM20.6284 87.8647C21.1743 87.8647 21.6694 87.7272 22.1138 87.4521C22.5581 87.1729 22.9115 86.7666 23.1738 86.2334C23.4362 85.696 23.5674 85.0443 23.5674 84.2783C23.5674 83.5081 23.4362 82.8543 23.1738 82.3169C22.9115 81.7795 22.5581 81.3732 22.1138 81.0981C21.6694 80.8188 21.1743 80.6792 20.6284 80.6792C20.0868 80.6792 19.5938 80.8188 19.1494 81.0981C18.7051 81.3732 18.3517 81.7795 18.0894 82.3169C17.827 82.8543 17.6958 83.5081 17.6958 84.2783C17.6958 85.0443 17.827 85.696 18.0894 86.2334C18.3517 86.7666 18.7051 87.1729 19.1494 87.4521C19.5938 87.7272 20.0868 87.8647 20.6284 87.8647Z" fill="black"/>
<path d="M12.0146 89.1533C10.8805 89.1533 9.98551 88.8677 9.32959 88.2964C8.6779 87.7209 8.35205 86.9338 8.35205 85.9351H9.76123C9.76546 86.5571 9.96436 87.0438 10.3579 87.395C10.7557 87.7463 11.3079 87.9219 12.0146 87.9219C12.6579 87.9219 13.172 87.7865 13.5571 87.5156C13.9465 87.2406 14.1411 86.8724 14.1411 86.4111C14.1411 86.0472 14.0015 85.7531 13.7222 85.5288C13.4471 85.3003 12.9816 85.1077 12.3257 84.9512L11.291 84.7036C10.3346 84.4751 9.63639 84.1577 9.19629 83.7515C8.76042 83.341 8.54248 82.8078 8.54248 82.1519C8.54248 81.5975 8.68213 81.113 8.96143 80.6982C9.24072 80.2835 9.63216 79.9619 10.1357 79.7334C10.6436 79.5049 11.236 79.3906 11.9131 79.3906C12.9329 79.3906 13.7433 79.6572 14.3442 80.1904C14.9494 80.7236 15.2668 81.4515 15.2964 82.374H13.9316C13.8978 81.8281 13.6989 81.4007 13.335 81.0918C12.971 80.7786 12.4907 80.6221 11.894 80.6221C11.3228 80.6221 10.8551 80.7596 10.4912 81.0347C10.1273 81.3055 9.94531 81.6546 9.94531 82.082C9.94531 82.4248 10.085 82.7041 10.3643 82.9199C10.6436 83.1315 11.1069 83.3156 11.7544 83.4722L12.7764 83.7134C13.7243 83.9377 14.4225 84.2614 14.8711 84.6846C15.3239 85.1077 15.5503 85.6579 15.5503 86.335C15.5503 86.902 15.4043 87.3971 15.1123 87.8203C14.8203 88.2435 14.4098 88.5715 13.8809 88.8042C13.3519 89.0369 12.7298 89.1533 12.0146 89.1533Z" fill="black"/>
<path d="M7.27246 79.543V89.001H5.86328V79.543H7.27246Z" fill="black"/>
<defs>
<linearGradient id="paint0_linear_229_14294" x1="-6.09677" y1="-17.9677" x2="76.2258" y2="78.0323" gradientUnits="userSpaceOnUse">
<stop stop-color="white"/>
<stop offset="1" stop-color="#E7F3FF"/>
</linearGradient>
<linearGradient id="paint1_linear_229_14294" x1="5" y1="29.5195" x2="69.9001" y2="40.317" gradientUnits="userSpaceOnUse">
<stop stop-color="#37A8FF"/>
<stop offset="1" stop-color="#3071FF"/>
</linearGradient>
<linearGradient id="paint2_linear_229_14294" x1="16.2261" y1="28.6793" x2="46.7696" y2="28.1102" gradientUnits="userSpaceOnUse">
<stop stop-color="#049FFC"/>
<stop offset="1" stop-color="#19C9FF"/>
</linearGradient>
</defs>
</svg>
