<svg width="128" height="128" viewBox="0 0 128 128" fill="none" xmlns="http://www.w3.org/2000/svg">
<path d="M2 6C2 3.79086 3.79086 2 6 2H122C124.209 2 126 3.79086 126 6V122C126 124.209 124.209 126 122 126H6C3.79086 126 2 124.209 2 122V6Z" fill="url(#paint0_linear_229_14221)"/>
<path d="M122 124V126H6V124H122ZM124 122V6C124 4.89543 123.105 4 122 4H6C4.89543 4 4 4.89543 4 6V122C4 123.105 4.89543 124 6 124V126C3.79086 126 2 124.209 2 122V6C2 3.85997 3.68056 2.11211 5.79395 2.00488L6 2H122L122.206 2.00488C124.319 2.11212 126 3.85996 126 6V122L125.995 122.206C125.888 124.319 124.14 126 122 126V124C123.105 124 124 123.105 124 122Z" fill="url(#paint1_linear_229_14221)"/>
<path fill-rule="evenodd" clip-rule="evenodd" d="M65.5614 47.0749L52.9211 60.9798V55.0808H15V39.069H52.9211V33.1699L65.5614 47.0749ZM31.8538 43.2826V50.8671H36.0673V43.2826H31.8538Z" fill="#006BFF"/>
<path d="M41.754 28.9584C41.754 24.1878 37.8868 20.3204 33.1164 20.3204C28.346 20.3204 24.4789 24.1878 24.4789 28.9584V35.2788H18.1587V28.9584C18.1587 20.6971 24.8555 14 33.1164 14C41.3774 14 48.0742 20.6971 48.0742 28.9584V35.2788H41.754V28.9584Z" fill="url(#paint2_linear_229_14221)"/>
<path d="M65.7412 115.857V114.032H66.7393C67.2314 114.032 67.3682 113.841 67.5391 113.314L67.6621 112.986L64.8867 105.781H67.3477L68.4141 109.104C68.5713 109.603 68.7148 110.108 68.8584 110.614C68.9951 110.108 69.1455 109.603 69.3027 109.104L70.3896 105.781H72.8232L69.7129 114.019C69.2207 115.324 68.5303 115.857 67.3203 115.857H65.7412Z" fill="black"/>
<path d="M60.0674 113.124C58.625 113.124 57.5928 112.42 57.5928 110.984C57.5928 109.364 58.8574 108.838 60.3955 108.715C61.6875 108.605 62.1592 108.503 62.1592 108.072V108.038C62.1592 107.607 61.7764 107.313 61.1543 107.313C60.498 107.313 60.0947 107.628 60.0469 108.12H57.8594C57.9619 106.555 59.1445 105.625 61.2363 105.625C63.335 105.625 64.4902 106.548 64.4902 108.141V113.001H62.1934V111.989H62.166C61.7354 112.769 61.0859 113.124 60.0674 113.124ZM60.7852 111.586C61.5713 111.586 62.1797 111.114 62.1797 110.403V109.747C61.9268 109.863 61.4824 109.952 60.9014 110.048C60.2725 110.144 59.8213 110.403 59.8213 110.875C59.8213 111.319 60.2109 111.586 60.7852 111.586Z" fill="black"/>
<path d="M47.79 113L45.5684 105.781H48.043L48.6035 108.037C48.8086 108.878 48.9932 109.787 49.1777 110.683C49.3896 109.787 49.6016 108.878 49.8203 108.037L50.415 105.781H52.5L53.0947 108.037C53.3135 108.878 53.5254 109.787 53.7373 110.683C53.915 109.787 54.0928 108.885 54.291 108.037L54.8311 105.781H57.3467L55.125 113H52.6982L51.8984 110.3C51.748 109.767 51.6045 109.199 51.4609 108.632C51.3174 109.199 51.1738 109.767 51.0166 110.3L50.2168 113H47.79Z" fill="black"/>
<path d="M41.7676 113.164C39.5527 113.164 38.0488 111.592 38.0488 109.391C38.0488 107.189 39.5664 105.617 41.7061 105.617C43.873 105.617 45.3701 107.148 45.3701 109.336V109.972H40.3457C40.373 110.888 40.9199 111.469 41.8496 111.469C42.54 111.469 43.0322 111.168 43.2031 110.689H45.3154C45.0488 112.146 43.5928 113.164 41.7676 113.164ZM40.3594 108.563H43.1758C43.0732 107.805 42.5537 107.354 41.7676 107.354C40.9746 107.354 40.4619 107.805 40.3594 108.563Z" fill="black"/>
<path d="M37.4814 105.781V107.6H35.998V110.573C35.998 111.038 36.1416 111.182 36.668 111.182H37.4814V113H36.1484C34.4189 113 33.6396 112.371 33.6396 110.97V107.6H32.4092V105.781H33.6396V103.812H35.998V105.781H37.4814Z" fill="black"/>
<path d="M27.2002 113.124C25.7578 113.124 24.7256 112.42 24.7256 110.984C24.7256 109.364 25.9902 108.838 27.5283 108.715C28.8203 108.605 29.292 108.503 29.292 108.072V108.038C29.292 107.607 28.9092 107.313 28.2871 107.313C27.6309 107.313 27.2275 107.628 27.1797 108.12H24.9922C25.0947 106.555 26.2773 105.625 28.3691 105.625C30.4678 105.625 31.623 106.548 31.623 108.141V113.001H29.3262V111.989H29.2988C28.8682 112.769 28.2188 113.124 27.2002 113.124ZM27.918 111.586C28.7041 111.586 29.3125 111.114 29.3125 110.403V109.747C29.0596 109.863 28.6152 109.952 28.0342 110.048C27.4053 110.144 26.9541 110.403 26.9541 110.875C26.9541 111.319 27.3438 111.586 27.918 111.586Z" fill="black"/>
<path d="M19.2773 113.164C16.3174 113.164 14.3555 111.093 14.3555 107.914C14.3555 104.585 16.4678 102.65 19.2363 102.65C21.6357 102.65 23.584 104.106 23.8096 106.273H21.3076C21.123 105.371 20.4258 104.797 19.3252 104.797C17.7393 104.797 16.8301 105.952 16.8301 107.914C16.8301 109.869 17.7461 111.018 19.3525 111.018C20.6445 111.018 21.458 110.313 21.4785 109.261H19.4414V107.456H23.8848V108.837C23.8848 111.421 22.0049 113.164 19.2773 113.164Z" fill="black"/>
<path d="M56.0957 96.1777C54.0996 96.1777 52.6982 95.2275 52.5684 93.6895H54.8857C54.9541 94.2227 55.3711 94.5576 56.0615 94.5576C56.7109 94.5576 57.0938 94.3047 57.0938 93.9424C57.0938 93.6279 56.793 93.4365 56.2188 93.334L54.9131 93.1016C53.4912 92.8486 52.7324 92.1172 52.7324 90.9756C52.7324 89.5469 53.9561 88.6309 55.9658 88.6309C57.9824 88.6309 59.2607 89.5879 59.3018 91.126H57.1348C57.1211 90.6201 56.6699 90.2441 56.0479 90.2441C55.4326 90.2441 55.0771 90.5107 55.0771 90.8662C55.0771 91.167 55.3574 91.3652 55.8564 91.4609L57.3057 91.7275C58.7891 92.001 59.4863 92.623 59.4863 93.6963C59.4863 95.1797 58.1191 96.1777 56.0957 96.1777Z" fill="black"/>
<path d="M48.5488 96.1777C46.5527 96.1777 45.1514 95.2275 45.0215 93.6895H47.3389C47.4072 94.2227 47.8242 94.5576 48.5146 94.5576C49.1641 94.5576 49.5469 94.3047 49.5469 93.9424C49.5469 93.6279 49.2461 93.4365 48.6719 93.334L47.3662 93.1016C45.9443 92.8486 45.1855 92.1172 45.1855 90.9756C45.1855 89.5469 46.4092 88.6309 48.4189 88.6309C50.4355 88.6309 51.7139 89.5879 51.7549 91.126H49.5879C49.5742 90.6201 49.123 90.2441 48.501 90.2441C47.8857 90.2441 47.5303 90.5107 47.5303 90.8662C47.5303 91.167 47.8105 91.3652 48.3096 91.4609L49.7588 91.7275C51.2422 92.001 51.9395 92.623 51.9395 93.6963C51.9395 95.1797 50.5723 96.1777 48.5488 96.1777Z" fill="black"/>
<path d="M40.7695 96.1641C38.5547 96.1641 37.0508 94.5918 37.0508 92.3906C37.0508 90.1895 38.5684 88.6172 40.708 88.6172C42.875 88.6172 44.3721 90.1484 44.3721 92.3359V92.9717H39.3477C39.375 93.8877 39.9219 94.4688 40.8516 94.4688C41.542 94.4688 42.0342 94.168 42.2051 93.6895H44.3174C44.0508 95.1455 42.5947 96.1641 40.7695 96.1641ZM39.3613 91.5635H42.1777C42.0752 90.8047 41.5557 90.3535 40.7695 90.3535C39.9766 90.3535 39.4639 90.8047 39.3613 91.5635Z" fill="black"/>
<path d="M31.8828 96V88.7812H34.1592V90.0527H34.1797C34.4395 89.1367 34.9795 88.7539 35.9434 88.7539C36.1963 88.7539 36.3945 88.7607 36.5859 88.7676V90.709C36.415 90.7021 35.998 90.6885 35.6562 90.6885C34.8154 90.6885 34.2344 91.2764 34.2344 92.3018V96H31.8828Z" fill="black"/>
<path d="M26.8857 98.9541C24.6641 98.9541 23.5977 97.9492 23.3789 96.5615H25.6279C25.751 97.0127 26.209 97.2861 26.8857 97.2861C27.7607 97.2861 28.2256 96.7939 28.2256 95.8369V94.7227H28.2188C27.8359 95.5771 27.0908 95.9531 26.1475 95.9531C24.2539 95.9531 23.0234 94.4355 23.0234 92.3164C23.0234 90.1699 24.2949 88.625 26.127 88.625C27.0635 88.625 27.7676 89.0352 28.2188 89.7939H28.2256V88.7822H30.5635V95.6045C30.5635 97.9561 29.1416 98.9541 26.8857 98.9541ZM26.8037 94.1074C27.6924 94.1074 28.3008 93.3896 28.3008 92.2754C28.3008 91.168 27.6924 90.4502 26.8037 90.4502C25.9424 90.4502 25.4092 91.1338 25.4092 92.2754C25.4092 93.4238 25.9424 94.1074 26.8037 94.1074Z" fill="black"/>
<path d="M14.6562 96V85.8145H22.2441V87.9062H17.1172V89.8682H21.8545V91.8984H17.1172V93.9082H22.2441V96H14.6562Z" fill="black"/>
<path d="M72.9336 69.7808V68.543H80.3667V69.7808H77.3643V78.001H75.9487V69.7808H72.9336Z" fill="black"/>
<path d="M64.4595 78.001V68.543H66.021L69.6328 74.2622C69.7428 74.4399 69.8931 74.6917 70.0835 75.0176C70.2739 75.3434 70.4644 75.6735 70.6548 76.0078C70.6421 75.665 70.6315 75.318 70.623 74.9668C70.6188 74.6113 70.6167 74.3468 70.6167 74.1733V68.543H72.0322V78.001H70.458L67.2271 72.8911C67.0959 72.6838 66.9054 72.3748 66.6558 71.9644C66.4103 71.5496 66.131 71.0736 65.8179 70.5361C65.839 71.0905 65.8517 71.5687 65.856 71.9707C65.8644 72.3685 65.8687 72.6732 65.8687 72.8848V78.001H64.4595Z" fill="black"/>
<path d="M57.064 78.001V68.543H63.4243V69.7808H58.4731V72.5674H63.0562V73.7925H58.4731V76.7632H63.4243V78.001H57.064Z" fill="black"/>
<path d="M50.2656 78.001V68.543H51.6748V76.7632H56.1499V78.001H50.2656Z" fill="black"/>
<path d="M41.0039 78.001L44.438 68.543H46.1392L49.5479 78.001H48.0181L47.1802 75.5444H43.3652L42.502 78.001H41.0039ZM43.7905 74.3447H46.7676L46.1963 72.6689C46.0693 72.2796 45.9339 71.8628 45.79 71.4185C45.6462 70.9741 45.4811 70.4451 45.2949 69.8315C45.1045 70.4451 44.9373 70.9741 44.7935 71.4185C44.6496 71.8628 44.512 72.2796 44.3809 72.6689L43.7905 74.3447Z" fill="black"/>
<path d="M37.2969 78.001L33.8628 68.543H35.3799L37.2524 73.875C37.3667 74.2178 37.4979 74.6219 37.646 75.0874C37.7941 75.5529 37.9676 76.0967 38.1665 76.7188C38.3569 76.0967 38.5241 75.5529 38.668 75.0874C38.8161 74.6219 38.9473 74.2178 39.0615 73.875L40.8833 68.543H42.375L38.9917 78.001H37.2969Z" fill="black"/>
<path d="M29.6284 78.1533C28.7905 78.1533 28.0436 77.9481 27.3877 77.5376C26.7318 77.1271 26.2155 76.5558 25.8389 75.8237C25.4665 75.0916 25.2803 74.2432 25.2803 73.2783C25.2803 72.3092 25.4665 71.4587 25.8389 70.7266C26.2155 69.9902 26.7318 69.4168 27.3877 69.0063C28.0436 68.5959 28.7905 68.3906 29.6284 68.3906C30.4705 68.3906 31.2196 68.5959 31.8755 69.0063C32.5314 69.4168 33.0456 69.9902 33.418 70.7266C33.7946 71.4587 33.9829 72.3092 33.9829 73.2783C33.9829 74.2432 33.7946 75.0916 33.418 75.8237C33.0456 76.5558 32.5314 77.1271 31.8755 77.5376C31.2196 77.9481 30.4705 78.1533 29.6284 78.1533ZM29.6284 76.8647C30.1743 76.8647 30.6694 76.7272 31.1138 76.4521C31.5581 76.1729 31.9115 75.7666 32.1738 75.2334C32.4362 74.696 32.5674 74.0443 32.5674 73.2783C32.5674 72.5081 32.4362 71.8543 32.1738 71.3169C31.9115 70.7795 31.5581 70.3732 31.1138 70.0981C30.6694 69.8188 30.1743 69.6792 29.6284 69.6792C29.0868 69.6792 28.5938 69.8188 28.1494 70.0981C27.7051 70.3732 27.3517 70.7795 27.0894 71.3169C26.827 71.8543 26.6958 72.5081 26.6958 73.2783C26.6958 74.0443 26.827 74.696 27.0894 75.2334C27.3517 75.7666 27.7051 76.1729 28.1494 76.4521C28.5938 76.7272 29.0868 76.8647 29.6284 76.8647Z" fill="black"/>
<path d="M21.0146 78.1533C19.8805 78.1533 18.9855 77.8677 18.3296 77.2964C17.6779 76.7209 17.3521 75.9338 17.3521 74.9351H18.7612C18.7655 75.5571 18.9644 76.0438 19.3579 76.395C19.7557 76.7463 20.3079 76.9219 21.0146 76.9219C21.6579 76.9219 22.172 76.7865 22.5571 76.5156C22.9465 76.2406 23.1411 75.8724 23.1411 75.4111C23.1411 75.0472 23.0015 74.7531 22.7222 74.5288C22.4471 74.3003 21.9816 74.1077 21.3257 73.9512L20.291 73.7036C19.3346 73.4751 18.6364 73.1577 18.1963 72.7515C17.7604 72.341 17.5425 71.8078 17.5425 71.1519C17.5425 70.5975 17.6821 70.113 17.9614 69.6982C18.2407 69.2835 18.6322 68.9619 19.1357 68.7334C19.6436 68.5049 20.236 68.3906 20.9131 68.3906C21.9329 68.3906 22.7433 68.6572 23.3442 69.1904C23.9494 69.7236 24.2668 70.4515 24.2964 71.374H22.9316C22.8978 70.8281 22.6989 70.4007 22.335 70.0918C21.971 69.7786 21.4907 69.6221 20.894 69.6221C20.3228 69.6221 19.8551 69.7596 19.4912 70.0347C19.1273 70.3055 18.9453 70.6546 18.9453 71.082C18.9453 71.4248 19.085 71.7041 19.3643 71.9199C19.6436 72.1315 20.1069 72.3156 20.7544 72.4722L21.7764 72.7134C22.7243 72.9377 23.4225 73.2614 23.8711 73.6846C24.3239 74.1077 24.5503 74.6579 24.5503 75.335C24.5503 75.902 24.4043 76.3971 24.1123 76.8203C23.8203 77.2435 23.4098 77.5715 22.8809 77.8042C22.3519 78.0369 21.7298 78.1533 21.0146 78.1533Z" fill="black"/>
<path d="M16.2725 68.543V78.001H14.8633V68.543H16.2725Z" fill="black"/>
<defs>
<linearGradient id="paint0_linear_229_14221" x1="-19.5" y1="-42.5" x2="140" y2="143.5" gradientUnits="userSpaceOnUse">
<stop stop-color="white"/>
<stop offset="1" stop-color="#E7F3FF"/>
</linearGradient>
<linearGradient id="paint1_linear_229_14221" x1="2" y1="49.5065" x2="127.744" y2="70.4267" gradientUnits="userSpaceOnUse">
<stop stop-color="#37A8FF"/>
<stop offset="1" stop-color="#3071FF"/>
</linearGradient>
<linearGradient id="paint2_linear_229_14221" x1="18.1587" y1="27.3942" x2="48.0656" y2="26.8369" gradientUnits="userSpaceOnUse">
<stop stop-color="#049FFC"/>
<stop offset="1" stop-color="#19C9FF"/>
</linearGradient>
</defs>
</svg>
