<svg width="128" height="128" viewBox="0 0 128 128" fill="none" xmlns="http://www.w3.org/2000/svg">
<path d="M14 43.9275C14 42.3107 15.3107 41 16.9275 41H57.9125C59.5294 41 60.84 42.3107 60.84 43.9275V84.9125C60.84 86.5293 59.5294 87.84 57.9125 87.84H16.9275C15.3107 87.84 14 86.5293 14 84.9125V43.9275Z" fill="url(#paint0_linear_229_14611)"/>
<path d="M57.9125 86.3763V87.84H16.9275V86.3763H57.9125ZM59.3763 84.9125V43.9275C59.3763 43.1191 58.721 42.4638 57.9125 42.4638H16.9275C16.1191 42.4638 15.4638 43.1191 15.4638 43.9275V84.9125C15.4638 85.7209 16.1191 86.3763 16.9275 86.3763V87.84L16.7767 87.8364C15.23 87.7579 14 86.4787 14 84.9125V43.9275C14 42.3613 15.23 41.0821 16.7767 41.0036L16.9275 41H57.9125C59.5294 41 60.84 42.3107 60.84 43.9275V84.9125C60.84 86.5293 59.5294 87.84 57.9125 87.84V86.3763C58.721 86.3763 59.3763 85.7209 59.3763 84.9125Z" fill="url(#paint1_linear_229_14611)"/>
<path fill-rule="evenodd" clip-rule="evenodd" d="M57.6473 73.0476L48.1992 83.4409V79.0316H19.855V67.0636H48.1992V62.6543L57.6473 73.0476ZM32.4524 70.2131V75.8821H35.6018V70.2131H32.4524Z" fill="#006BFF"/>
<path d="M39.8513 59.501C39.8513 55.9352 36.9607 53.0445 33.3951 53.0445C29.8294 53.0445 26.9389 55.9352 26.9389 59.501V64.2252H22.2148V59.501C22.2148 53.3261 27.2204 48.3203 33.3951 48.3203C39.5698 48.3203 44.5753 53.3261 44.5753 59.501V64.2252H39.8513V59.501Z" fill="url(#paint2_linear_229_14611)"/>
<path d="M103.099 83.3393V82.0035H103.829C104.189 82.0035 104.289 81.8634 104.414 81.4782L104.504 81.2381L102.473 75.9648H104.274L105.055 78.3963C105.17 78.7616 105.275 79.1318 105.38 79.502C105.48 79.1318 105.59 78.7616 105.705 78.3963L106.501 75.9648H108.282L106.005 81.9935C105.645 82.9491 105.14 83.3393 104.254 83.3393H103.099Z" fill="black"/>
<path d="M98.9464 81.3438C97.8907 81.3438 97.1353 80.8285 97.1353 79.7779C97.1353 78.5921 98.0608 78.2069 99.1865 78.1168C100.132 78.0368 100.477 77.9618 100.477 77.6466V77.6215C100.477 77.3064 100.197 77.0912 99.7418 77.0912C99.2616 77.0912 98.9664 77.3214 98.9314 77.6816H97.3304C97.4054 76.5359 98.2709 75.8555 99.8019 75.8555C101.338 75.8555 102.183 76.5309 102.183 77.6966V81.2538H100.502V80.5133H100.482C100.167 81.0837 99.6918 81.3438 98.9464 81.3438ZM99.4717 80.2181C100.047 80.2181 100.492 79.8729 100.492 79.3526V78.8723C100.307 78.9574 99.982 79.0224 99.5567 79.0924C99.0965 79.1625 98.7663 79.3526 98.7663 79.6978C98.7663 80.023 99.0514 80.2181 99.4717 80.2181Z" fill="black"/>
<path d="M89.961 81.2481L88.335 75.9648H90.1461L90.5563 77.6159C90.7064 78.2312 90.8415 78.8966 90.9766 79.552C91.1317 78.8966 91.2868 78.2312 91.4469 77.6159L91.8821 75.9648H93.4081L93.8433 77.6159C94.0034 78.2312 94.1585 78.8966 94.3136 79.552C94.4437 78.8966 94.5738 78.2362 94.7189 77.6159L95.1141 75.9648H96.9552L95.3292 81.2481H93.5531L92.9678 79.2719C92.8577 78.8816 92.7527 78.4664 92.6476 78.0511C92.5425 78.4664 92.4375 78.8816 92.3224 79.2719L91.737 81.2481H89.961Z" fill="black"/>
<path d="M85.5552 81.373C83.9342 81.373 82.8335 80.2223 82.8335 78.6113C82.8335 77.0003 83.9442 75.8496 85.5101 75.8496C87.0961 75.8496 88.1918 76.9703 88.1918 78.5713V79.0366H84.5145C84.5345 79.707 84.9348 80.1322 85.6152 80.1322C86.1205 80.1322 86.4807 79.9121 86.6058 79.5619H88.1517C87.9566 80.6275 86.891 81.373 85.5552 81.373ZM84.5245 78.0059H86.5858C86.5107 77.4506 86.1305 77.1204 85.5552 77.1204C84.9748 77.1204 84.5996 77.4506 84.5245 78.0059Z" fill="black"/>
<path d="M82.4159 75.9799V77.3108H81.3302V79.4871C81.3302 79.8273 81.4353 79.9324 81.8205 79.9324H82.4159V81.2632H81.4403C80.1745 81.2632 79.6042 80.8029 79.6042 79.7773V77.3108H78.7036V75.9799H79.6042V74.5391H81.3302V75.9799H82.4159Z" fill="black"/>
<path d="M74.8907 81.3438C73.8351 81.3438 73.0796 80.8285 73.0796 79.7779C73.0796 78.5921 74.0052 78.2069 75.1308 78.1168C76.0764 78.0368 76.4216 77.9618 76.4216 77.6466V77.6215C76.4216 77.3064 76.1415 77.0912 75.6862 77.0912C75.2059 77.0912 74.9107 77.3214 74.8757 77.6816H73.2747C73.3498 76.5359 74.2153 75.8555 75.7462 75.8555C77.2822 75.8555 78.1277 76.5309 78.1277 77.6966V81.2538H76.4466V80.5133H76.4266C76.1114 81.0837 75.6362 81.3438 74.8907 81.3438ZM75.416 80.2181C75.9914 80.2181 76.4366 79.8729 76.4366 79.3526V78.8723C76.2515 78.9574 75.9263 79.0224 75.5011 79.0924C75.0408 79.1625 74.7106 79.3526 74.7106 79.6978C74.7106 80.023 74.9958 80.2181 75.416 80.2181Z" fill="black"/>
<path d="M69.0924 81.3685C66.9261 81.3685 65.4902 79.8526 65.4902 77.5262C65.4902 75.0897 67.0362 73.6738 69.0624 73.6738C70.8185 73.6738 72.2444 74.7395 72.4095 76.3254H70.5783C70.4433 75.665 69.9329 75.2448 69.1275 75.2448C67.9667 75.2448 67.3013 76.0903 67.3013 77.5262C67.3013 78.9571 67.9718 79.7976 69.1475 79.7976C70.093 79.7976 70.6884 79.2822 70.7034 78.5118H69.2125V77.191H72.4645V78.2016C72.4645 80.0927 71.0887 81.3685 69.0924 81.3685Z" fill="black"/>
<path d="M96.0401 68.9413C94.5792 68.9413 93.5536 68.2459 93.4585 67.1202H95.1545C95.2046 67.5105 95.5097 67.7556 96.0151 67.7556C96.4903 67.7556 96.7705 67.5705 96.7705 67.3053C96.7705 67.0752 96.5504 66.9351 96.1301 66.8601L95.1745 66.69C94.1339 66.5049 93.5786 65.9695 93.5786 65.134C93.5786 64.0884 94.4741 63.418 95.945 63.418C97.4209 63.418 98.3565 64.1184 98.3865 65.2441H96.8005C96.7905 64.8739 96.4603 64.5987 96.0051 64.5987C95.5548 64.5987 95.2946 64.7938 95.2946 65.054C95.2946 65.2741 95.4997 65.4192 95.865 65.4892L96.9256 65.6844C98.0113 65.8845 98.5216 66.3398 98.5216 67.1252C98.5216 68.2109 97.521 68.9413 96.0401 68.9413Z" fill="black"/>
<path d="M90.5176 68.9413C89.0567 68.9413 88.0311 68.2459 87.936 67.1202H89.6321C89.6821 67.5105 89.9873 67.7556 90.4926 67.7556C90.9679 67.7556 91.2481 67.5705 91.2481 67.3053C91.2481 67.0752 91.0279 66.9351 90.6077 66.8601L89.6521 66.69C88.6114 66.5049 88.0561 65.9695 88.0561 65.134C88.0561 64.0884 88.9517 63.418 90.4226 63.418C91.8985 63.418 92.834 64.1184 92.864 65.2441H91.2781C91.2681 64.8739 90.9379 64.5987 90.4826 64.5987C90.0323 64.5987 89.7722 64.7938 89.7722 65.054C89.7722 65.2741 89.9773 65.4192 90.3425 65.4892L91.4032 65.6844C92.4888 65.8845 92.9991 66.3398 92.9991 67.1252C92.9991 68.2109 91.9985 68.9413 90.5176 68.9413Z" fill="black"/>
<path d="M84.8242 68.9316C83.2032 68.9316 82.1025 67.7809 82.1025 66.1699C82.1025 64.5589 83.2132 63.4082 84.7792 63.4082C86.3651 63.4082 87.4608 64.5289 87.4608 66.1299V66.5951H83.7836C83.8036 67.2656 84.2038 67.6908 84.8842 67.6908C85.3895 67.6908 85.7498 67.4707 85.8748 67.1205H87.4208C87.2257 68.1861 86.16 68.9316 84.8242 68.9316ZM83.7936 65.5645H85.8548C85.7798 65.0092 85.3996 64.679 84.8242 64.679C84.2438 64.679 83.8686 65.0092 83.7936 65.5645Z" fill="black"/>
<path d="M78.3184 68.8071V63.5239H79.9844V64.4545H79.9994C80.1895 63.7841 80.5847 63.5039 81.2902 63.5039C81.4753 63.5039 81.6204 63.5089 81.7605 63.5139V64.9348C81.6354 64.9298 81.3302 64.9198 81.08 64.9198C80.4647 64.9198 80.0394 65.35 80.0394 66.1005V68.8071H78.3184Z" fill="black"/>
<path d="M74.6627 70.9717C73.0367 70.9717 72.2562 70.2363 72.0961 69.2207H73.7421C73.8322 69.5509 74.1674 69.751 74.6627 69.751C75.3031 69.751 75.6433 69.3908 75.6433 68.6903V67.8748H75.6383C75.3581 68.5002 74.8128 68.7754 74.1223 68.7754C72.7365 68.7754 71.8359 67.6647 71.8359 66.1138C71.8359 64.5428 72.7665 63.4121 74.1073 63.4121C74.7927 63.4121 75.3081 63.7123 75.6383 64.2676H75.6433V63.5272H77.3543V68.5202C77.3543 70.2413 76.3137 70.9717 74.6627 70.9717ZM74.6026 67.4246C75.253 67.4246 75.6983 66.8992 75.6983 66.0837C75.6983 65.2732 75.253 64.7479 74.6026 64.7479C73.9722 64.7479 73.582 65.2482 73.582 66.0837C73.582 66.9243 73.9722 67.4246 74.6026 67.4246Z" fill="black"/>
<path d="M65.7119 68.8237V61.3691H71.2653V62.9001H67.513V64.336H70.9801V65.8219H67.513V67.2928H71.2653V68.8237H65.7119Z" fill="black"/>
<path d="M108.363 49.6129V48.707H113.803V49.6129H111.606V55.6291H110.57V49.6129H108.363Z" fill="black"/>
<path d="M102.162 55.6291V48.707H103.305L105.948 52.8928C106.029 53.0229 106.139 53.2072 106.278 53.4456C106.418 53.6841 106.557 53.9257 106.696 54.1704C106.687 53.9195 106.679 53.6655 106.673 53.4085C106.67 53.1483 106.668 52.9547 106.668 52.8278V48.707H107.704V55.6291H106.552L104.188 51.8893C104.092 51.7376 103.952 51.5115 103.77 51.2111C103.59 50.9075 103.385 50.5591 103.156 50.1658C103.172 50.5715 103.181 50.9215 103.184 51.2157C103.19 51.5068 103.193 51.7298 103.193 51.8847V55.6291H102.162Z" fill="black"/>
<path d="M96.7485 55.6291V48.707H101.404V49.6129H97.7799V51.6524H101.134V52.549H97.7799V54.7232H101.404V55.6291H96.7485Z" fill="black"/>
<path d="M91.7759 55.6291V48.707H92.8072V54.7232H96.0824V55.6291H91.7759Z" fill="black"/>
<path d="M84.9946 55.6291L87.508 48.707H88.753L91.2477 55.6291H90.1281L89.5149 53.8312H86.7228L86.091 55.6291H84.9946ZM87.0341 52.9532H89.2129L88.7948 51.7267C88.7019 51.4418 88.6028 51.1367 88.4975 50.8115C88.3922 50.4863 88.2714 50.0992 88.1351 49.6501C87.9957 50.0992 87.8734 50.4863 87.7681 50.8115C87.6628 51.1367 87.5621 51.4418 87.4661 51.7267L87.0341 52.9532Z" fill="black"/>
<path d="M82.2829 55.6291L79.7695 48.707H80.8799L82.2503 52.6094C82.334 52.8603 82.43 53.1561 82.5384 53.4967C82.6468 53.8374 82.7737 54.2354 82.9193 54.6907C83.0587 54.2354 83.181 53.8374 83.2863 53.4967C83.3947 53.1561 83.4907 52.8603 83.5744 52.6094L84.9077 48.707H85.9994L83.5233 55.6291H82.2829Z" fill="black"/>
<path d="M76.6691 55.7486C76.0559 55.7486 75.5092 55.5984 75.0292 55.298C74.5491 54.9975 74.1713 54.5794 73.8956 54.0436C73.6231 53.5078 73.4868 52.8868 73.4868 52.1807C73.4868 51.4715 73.6231 50.8489 73.8956 50.3131C74.1713 49.7742 74.5491 49.3546 75.0292 49.0541C75.5092 48.7537 76.0559 48.6035 76.6691 48.6035C77.2854 48.6035 77.8336 48.7537 78.3137 49.0541C78.7938 49.3546 79.1701 49.7742 79.4426 50.3131C79.7182 50.8489 79.8561 51.4715 79.8561 52.1807C79.8561 52.8868 79.7182 53.5078 79.4426 54.0436C79.1701 54.5794 78.7938 54.9975 78.3137 55.298C77.8336 55.5984 77.2854 55.7486 76.6691 55.7486ZM76.6691 54.8055C77.0686 54.8055 77.431 54.7049 77.7562 54.5035C78.0814 54.2991 78.34 54.0018 78.532 53.6116C78.7241 53.2182 78.8201 52.7413 78.8201 52.1807C78.8201 51.617 78.7241 51.1385 78.532 50.7452C78.34 50.3518 78.0814 50.0545 77.7562 49.8532C77.431 49.6488 77.0686 49.5466 76.6691 49.5466C76.2727 49.5466 75.9119 49.6488 75.5867 49.8532C75.2615 50.0545 75.0029 50.3518 74.8108 50.7452C74.6188 51.1385 74.5228 51.617 74.5228 52.1807C74.5228 52.7413 74.6188 53.2182 74.8108 53.6116C75.0029 54.0018 75.2615 54.2991 75.5867 54.5035C75.9119 54.7049 76.2727 54.8055 76.6691 54.8055Z" fill="black"/>
<path d="M70.3646 55.7486C69.5346 55.7486 68.8796 55.5395 68.3995 55.1214C67.9226 54.7002 67.6841 54.1241 67.6841 53.3932H68.7154C68.7185 53.8485 68.8641 54.2047 69.1521 54.4617C69.4433 54.7188 69.8474 54.8473 70.3646 54.8473C70.8354 54.8473 71.2117 54.7482 71.4936 54.55C71.7785 54.3487 71.921 54.0792 71.921 53.7417C71.921 53.4753 71.8188 53.26 71.6143 53.0959C71.413 52.9287 71.0723 52.7877 70.5923 52.6731L69.835 52.492C69.1351 52.3247 68.6241 52.0924 68.302 51.7951C67.983 51.4947 67.8235 51.1044 67.8235 50.6244C67.8235 50.2187 67.9257 49.864 68.1301 49.5605C68.3345 49.257 68.621 49.0216 68.9895 48.8544C69.3612 48.6871 69.7948 48.6035 70.2903 48.6035C71.0367 48.6035 71.6298 48.7986 72.0696 49.1889C72.5125 49.5791 72.7448 50.1118 72.7665 50.787H71.7676C71.7429 50.3875 71.5973 50.0747 71.331 49.8486C71.0646 49.6194 70.7131 49.5048 70.2764 49.5048C69.8583 49.5048 69.516 49.6054 69.2497 49.8067C68.9833 50.005 68.8502 50.2605 68.8502 50.5733C68.8502 50.8242 68.9524 51.0286 69.1568 51.1865C69.3612 51.3414 69.7003 51.4761 70.1742 51.5907L70.9221 51.7672C71.6159 51.9314 72.1269 52.1683 72.4552 52.478C72.7866 52.7877 72.9523 53.1904 72.9523 53.6859C72.9523 54.1009 72.8455 54.4633 72.6317 54.773C72.418 55.0827 72.1176 55.3227 71.7305 55.4931C71.3433 55.6634 70.8881 55.7486 70.3646 55.7486Z" fill="black"/>
<path d="M66.8961 48.707V55.6291H65.8647V48.707H66.8961Z" fill="black"/>
<defs>
<linearGradient id="paint0_linear_229_14611" x1="5.87854" y1="24.1905" x2="66.1284" y2="94.4505" gradientUnits="userSpaceOnUse">
<stop stop-color="white"/>
<stop offset="1" stop-color="#E7F3FF"/>
</linearGradient>
<linearGradient id="paint1_linear_229_14611" x1="14" y1="58.9452" x2="61.4988" y2="66.8476" gradientUnits="userSpaceOnUse">
<stop stop-color="#37A8FF"/>
<stop offset="1" stop-color="#3071FF"/>
</linearGradient>
<linearGradient id="paint2_linear_229_14611" x1="22.2148" y1="58.3319" x2="44.5689" y2="57.9153" gradientUnits="userSpaceOnUse">
<stop stop-color="#049FFC"/>
<stop offset="1" stop-color="#19C9FF"/>
</linearGradient>
</defs>
</svg>
