<svg width="128" height="128" viewBox="0 0 128 128" fill="none" xmlns="http://www.w3.org/2000/svg">
<path d="M14 38H114C115.657 38 117 39.3431 117 41V87C117 88.6569 115.657 90 114 90H14C12.3431 90 11 88.6569 11 87V41C11 39.3431 12.3431 38 14 38Z" fill="url(#paint0_linear_172_1041)" stroke="url(#paint1_linear_172_1041)" stroke-width="2"/>
<path d="M100.507 76.127C100.563 76.3078 100.617 76.4891 100.67 76.6699C100.723 76.8508 100.776 77.0336 100.828 77.2178C100.877 77.0337 100.928 76.8508 100.98 76.6699C101.036 76.4891 101.093 76.3078 101.148 76.127L101.933 73.7305H103.688L101.444 79.6738C101.267 80.1439 101.043 80.4823 100.773 80.6895C100.507 80.8966 100.155 81.001 99.7178 81.001H98.5781V79.6836H99.2988C99.4763 79.6836 99.6015 79.6443 99.6738 79.5654C99.7461 79.4898 99.8135 79.3566 99.876 79.166L99.9648 78.9287L97.9619 73.7305H99.7373L100.507 76.127ZM65.0215 71.4746C65.6002 71.4746 66.1287 71.5844 66.6055 71.8047C67.0855 72.0217 67.4784 72.3265 67.7842 72.7178C68.0898 73.109 68.2687 73.5662 68.3213 74.0889H66.5166C66.4509 73.7634 66.2944 73.5052 66.0479 73.3145C65.8045 73.1205 65.4838 73.0234 65.0859 73.0234C64.5138 73.0234 64.0696 73.2222 63.7539 73.6201C63.4416 74.0147 63.2852 74.5656 63.2852 75.2725C63.2852 75.9793 63.4431 76.5303 63.7588 76.9248C64.0777 77.3161 64.5268 77.5117 65.1055 77.5117C65.5724 77.5117 65.9429 77.3946 66.2158 77.1611C66.4918 76.9277 66.633 76.622 66.6396 76.2441H65.1699V74.9414H68.376V75.9385C68.3759 76.5596 68.2347 77.1052 67.9521 77.5752C67.6726 78.0421 67.2821 78.4078 66.7822 78.6709C66.2826 78.9305 65.7058 79.0605 65.0518 79.0605C64.3415 79.0605 63.7192 78.9042 63.1865 78.5918C62.6539 78.2794 62.2402 77.8399 61.9443 77.2744C61.6485 76.7056 61.5 76.0385 61.5 75.2725C61.5 74.4735 61.6548 73.7911 61.9639 73.2256C62.273 72.6567 62.6923 72.2221 63.2217 71.9229C63.7542 71.6238 64.3542 71.4747 65.0215 71.4746ZM81.2354 73.6152C81.758 73.6153 82.2168 73.7299 82.6113 73.96C83.0092 74.1868 83.3203 74.5028 83.5439 74.9072C83.7675 75.3083 83.8789 75.7719 83.8789 76.2979V76.7568H80.2539C80.2638 77.0889 80.3624 77.3519 80.5498 77.5459C80.7405 77.7399 81.0035 77.8369 81.3389 77.8369C81.5885 77.8369 81.7972 77.7863 81.9648 77.6846C82.1358 77.5826 82.253 77.4454 82.3154 77.2744H83.8398C83.7774 77.623 83.6258 77.9325 83.3857 78.2021C83.1458 78.4717 82.8433 78.6818 82.4785 78.833C82.1168 78.9843 81.7166 79.0605 81.2793 79.0605C80.7467 79.0605 80.2784 78.9433 79.874 78.71C79.4728 78.4765 79.1585 78.1558 78.9316 77.748C78.7081 77.3371 78.5967 76.8671 78.5967 76.3379C78.5967 75.8085 78.708 75.3394 78.9316 74.9316C79.1585 74.5207 79.4713 74.1983 79.8691 73.9648C80.2669 73.7315 80.7226 73.6152 81.2354 73.6152ZM71.6133 73.6211C72.3694 73.6211 72.9501 73.7807 73.3545 74.0996C73.7586 74.4152 73.9608 74.8605 73.9609 75.4355V78.9424H72.3037V78.2129H72.2842C72.1296 78.4924 71.9299 78.6992 71.6865 78.834C71.4432 78.9655 71.1377 79.0312 70.7695 79.0312C70.2467 79.0312 69.8178 78.9046 69.4824 78.6514C69.1504 78.395 68.9845 78.0076 68.9844 77.4883C68.9844 77.0971 69.0741 76.7874 69.2549 76.5605C69.439 76.3337 69.6844 76.1661 69.9902 76.0576C70.2959 75.9492 70.6344 75.8802 71.0059 75.8506C71.4728 75.8111 71.8024 75.7629 71.9932 75.707C72.1835 75.6511 72.2783 75.5444 72.2783 75.3867V75.3623C72.2783 75.2078 72.2126 75.0827 72.0811 74.9873C71.9528 74.8888 71.7772 74.8389 71.5537 74.8389C71.317 74.8389 71.1277 74.8918 70.9863 74.9971C70.8484 75.1022 70.7714 75.2435 70.7549 75.4209H69.1768C69.213 74.8557 69.4376 74.4152 69.8516 74.0996C70.2692 73.7807 70.857 73.6211 71.6133 73.6211ZM95.3271 73.6211C96.0835 73.6211 96.6639 73.7807 97.0684 74.0996C97.4727 74.4152 97.6747 74.8604 97.6748 75.4355V78.9424H96.0176V78.2129H95.998C95.8435 78.4923 95.6446 78.6992 95.4014 78.834C95.158 78.9655 94.8517 79.0312 94.4834 79.0312C93.9608 79.0312 93.5316 78.9045 93.1963 78.6514C92.8645 78.395 92.6983 78.0074 92.6982 77.4883C92.6982 77.097 92.7889 76.7874 92.9697 76.5605C93.1538 76.3338 93.3985 76.1661 93.7041 76.0576C94.0099 75.9491 94.3491 75.8802 94.7207 75.8506C95.1876 75.8111 95.5163 75.7629 95.707 75.707C95.8977 75.6511 95.9931 75.5445 95.9932 75.3867V75.3623C95.9932 75.2078 95.9274 75.0827 95.7959 74.9873C95.6677 74.8887 95.492 74.8389 95.2686 74.8389C95.0319 74.8389 94.8426 74.8919 94.7012 74.9971C94.5631 75.1022 94.4852 75.2435 94.4688 75.4209H92.8906C92.9268 74.8555 93.1522 74.4152 93.5664 74.0996C93.984 73.7807 94.5709 73.6211 95.3271 73.6211ZM77.1162 73.7324H78.1865V75.0449H77.1162V77.1904C77.1162 77.3578 77.1493 77.4726 77.2148 77.5352C77.2806 77.5976 77.409 77.6289 77.5996 77.6289H78.1865V78.9414H77.2246C76.6 78.9414 76.1412 78.8242 75.8486 78.5908C75.5595 78.3541 75.4151 77.9827 75.415 77.4766V75.0449H74.5273V73.7324H75.415V72.3125H77.1162V73.7324ZM86.2119 75.3584C86.2842 75.6607 86.3532 75.9745 86.4189 76.2998C86.488 76.622 86.5569 76.9444 86.626 77.2666C86.7016 76.9444 86.7769 76.622 86.8525 76.2998C86.9314 75.9744 87.011 75.6608 87.0898 75.3584L87.5186 73.7305H89.0234L89.4521 75.3584C89.531 75.6607 89.608 75.9745 89.6836 76.2998C89.7625 76.622 89.8404 76.9444 89.916 77.2666C89.9818 76.9444 90.0459 76.622 90.1084 76.2998C90.1741 75.9778 90.2431 75.664 90.3154 75.3584L90.7051 73.7305H92.5205L90.917 78.9385H89.166L88.5889 76.9902C88.533 76.7963 88.4784 76.5989 88.4258 76.3984C88.3732 76.1947 88.3227 75.9908 88.2734 75.7871C88.2208 75.9909 88.1678 76.1946 88.1152 76.3984C88.0627 76.5989 88.009 76.7964 87.9531 76.9902L87.376 78.9385H85.625L84.0215 73.7305H85.8066L86.2119 75.3584ZM72.2939 76.5947C72.2052 76.6375 72.0816 76.6761 71.9238 76.709C71.766 76.7419 71.5815 76.7763 71.3711 76.8125C71.1443 76.8487 70.9565 76.9144 70.8086 77.0098C70.6642 77.1051 70.5918 77.2383 70.5918 77.4092C70.5919 77.5702 70.656 77.697 70.7842 77.7891C70.9124 77.8778 71.0801 77.9218 71.2871 77.9219C71.5699 77.9219 71.8089 77.845 72.0029 77.6904C72.1969 77.5326 72.2939 77.3248 72.2939 77.0684V76.5947ZM96.0078 76.5947C95.919 76.6375 95.7955 76.6761 95.6377 76.709C95.48 76.7418 95.2961 76.7764 95.0859 76.8125C94.859 76.8487 94.6714 76.9144 94.5234 77.0098C94.3788 77.1051 94.3066 77.2382 94.3066 77.4092C94.3067 77.5702 94.3709 77.697 94.499 77.7891C94.6272 77.8777 94.795 77.9219 95.002 77.9219C95.2845 77.9218 95.5229 77.8448 95.7168 77.6904C95.9108 77.5326 96.0078 77.3248 96.0078 77.0684V76.5947ZM81.2793 74.8682C80.9933 74.8682 80.7615 74.9451 80.584 75.0996C80.4064 75.2542 80.2998 75.4683 80.2637 75.7412H82.2959C82.2564 75.4683 82.1473 75.2542 81.9697 75.0996C81.7922 74.9452 81.562 74.8682 81.2793 74.8682Z" fill="black"/>
<path d="M70.0771 61.627C70.7511 61.627 71.2539 61.9085 71.5859 62.4707H71.5908V61.7402H73.2783V66.6631C73.2783 67.5113 73.0377 68.1264 72.5576 68.5078C72.0808 68.8891 71.436 69.0801 70.624 69.0801C69.8221 69.08 69.2188 68.9171 68.8145 68.5918C68.4133 68.2663 68.1727 67.8533 68.0938 67.3535H69.7168C69.7628 67.5146 69.8647 67.6414 70.0225 67.7334C70.1802 67.8287 70.3809 67.8759 70.624 67.876C71.2685 67.876 71.5908 67.5272 71.5908 66.8301V66.0264H71.5859C71.4478 66.3355 71.249 66.5608 70.9893 66.7021C70.7295 66.8435 70.4304 66.9141 70.0918 66.9141C69.6349 66.9141 69.2371 66.8026 68.8984 66.5791C68.563 66.3522 68.3017 66.0411 68.1143 65.6465C67.9301 65.2519 67.8379 64.7997 67.8379 64.29C67.8379 63.7739 67.9333 63.3151 68.124 62.9141C68.3147 62.5131 68.5778 62.1995 68.9131 61.9727C69.2485 61.7425 69.6365 61.627 70.0771 61.627ZM86.1611 61.6309C86.8877 61.6309 87.4667 61.7921 87.8975 62.1143C88.3281 62.4364 88.5518 62.8752 88.5684 63.4307H87.0049C87.0015 63.2501 86.926 63.0991 86.7783 62.9775C86.6336 62.8559 86.4476 62.7949 86.2207 62.7949C86.0006 62.7949 85.828 62.8375 85.7031 62.9229C85.5815 63.0083 85.5205 63.1159 85.5205 63.2441C85.5208 63.4576 85.7084 63.6006 86.083 63.6729L87.1279 63.8652C87.6639 63.9639 88.0609 64.1282 88.3174 64.3584C88.5738 64.5886 88.7021 64.8982 88.7021 65.2861C88.7021 65.6411 88.5977 65.9531 88.3906 66.2227C88.1868 66.4922 87.9013 66.7033 87.5332 66.8545C87.1682 67.0025 86.7416 67.0762 86.2549 67.0762C85.775 67.0761 85.349 67.004 84.9775 66.8594C84.606 66.7147 84.3085 66.5069 84.085 66.2373C83.8649 65.9678 83.7396 65.6492 83.71 65.2812H85.3818C85.4082 65.475 85.4942 65.6275 85.6387 65.7393C85.7833 65.851 85.9806 65.9072 86.2305 65.9072C86.4639 65.9072 86.6468 65.8664 86.7783 65.7842C86.9099 65.702 86.9756 65.5944 86.9756 65.4629C86.9753 65.2461 86.7644 65.1 86.3438 65.0244L85.4023 64.8564C84.8896 64.7644 84.4981 64.5887 84.2285 64.3291C83.9622 64.0693 83.8281 63.7333 83.8281 63.3223C83.8282 62.8095 84.036 62.4005 84.4502 62.0947C84.8644 61.7857 85.4346 61.6309 86.1611 61.6309ZM91.6064 61.6309C92.3331 61.6309 92.912 61.792 93.3428 62.1143C93.7734 62.4364 93.9971 62.8752 94.0137 63.4307H92.4502C92.4468 63.25 92.3705 63.0991 92.2227 62.9775C92.0781 62.856 91.8927 62.795 91.666 62.7949C91.4457 62.7949 91.2724 62.8374 91.1475 62.9229C91.0258 63.0083 90.9648 63.1159 90.9648 63.2441C90.9651 63.4576 91.1528 63.6005 91.5273 63.6729L92.5732 63.8652C93.1091 63.9639 93.5052 64.1283 93.7617 64.3584C94.0182 64.5886 94.1465 64.8981 94.1465 65.2861C94.1464 65.641 94.0429 65.9532 93.8359 66.2227C93.6321 66.4923 93.3458 66.7032 92.9775 66.8545C92.6126 67.0024 92.1868 67.0762 91.7002 67.0762C91.2202 67.0762 90.7944 67.004 90.4229 66.8594C90.0513 66.7147 89.7539 66.5069 89.5303 66.2373C89.3101 65.9678 89.1849 65.6493 89.1553 65.2812H90.8271C90.8535 65.475 90.9394 65.6276 91.084 65.7393C91.2287 65.851 91.426 65.9072 91.6758 65.9072C91.9089 65.9072 92.0912 65.8662 92.2227 65.7842C92.3542 65.702 92.4199 65.5944 92.4199 65.4629C92.4197 65.2461 92.2096 65.1 91.7891 65.0244L90.8467 64.8564C90.3339 64.7644 89.9425 64.5888 89.6729 64.3291C89.4065 64.0693 89.2734 63.7333 89.2734 63.3223C89.2735 62.8096 89.4805 62.4004 89.8945 62.0947C90.3089 61.7856 90.8797 61.6309 91.6064 61.6309ZM80.5977 61.6211C81.1205 61.6211 81.58 61.7366 81.9746 61.9668C82.3722 62.1936 82.6827 62.5089 82.9062 62.9131C83.1299 63.3142 83.2422 63.7786 83.2422 64.3047V64.7627H79.6162C79.6261 65.0946 79.7249 65.3578 79.9121 65.5518C80.1027 65.7457 80.366 65.8427 80.7012 65.8428C80.9511 65.8428 81.1604 65.7924 81.3281 65.6904C81.4991 65.5885 81.6162 65.4521 81.6787 65.2812H83.2021C83.1396 65.6295 82.9888 65.9385 82.749 66.208C82.509 66.4776 82.2058 66.6886 81.8408 66.8398C81.4792 66.991 81.0797 67.0664 80.6426 67.0664C80.1099 67.0664 79.6408 66.9493 79.2363 66.7158C78.8354 66.4824 78.5217 66.1615 78.2949 65.7539C78.0714 65.3429 77.959 64.873 77.959 64.3438C77.959 63.8144 78.0714 63.3462 78.2949 62.9385C78.5217 62.5276 78.8338 62.2051 79.2314 61.9717C79.6292 61.7383 80.0848 61.6212 80.5977 61.6211ZM67.2754 61.1094H63.5762V62.5244H66.9941V63.9893H63.5762V65.4395H67.2754V66.9492H61.7998V59.5996H67.2754V61.1094ZM77.4062 61.7236C77.4818 61.7236 77.5541 61.7252 77.623 61.7285V63.1289C77.5606 63.1256 77.4634 63.1224 77.332 63.1191C77.2006 63.1159 77.0738 63.1143 76.9521 63.1143C76.6467 63.1143 76.3986 63.2164 76.208 63.4199C76.0206 63.6237 75.9268 63.9102 75.9268 64.2783V66.9473H74.2295V61.7383H75.8721V62.6562H75.8867C75.9821 62.3241 76.1305 62.0851 76.3311 61.9404C76.5348 61.7926 76.8109 61.7188 77.1592 61.7188C77.2513 61.7188 77.3339 61.7203 77.4062 61.7236ZM70.5654 62.9443C70.253 62.9443 70.0061 63.0605 69.8252 63.2939C69.6476 63.5274 69.5586 63.8498 69.5586 64.2607C69.5586 64.675 69.6477 64.999 69.8252 65.2324C70.0061 65.4659 70.253 65.583 70.5654 65.583C70.8876 65.583 71.1475 65.4642 71.3447 65.2275C71.5453 64.9875 71.6455 64.6652 71.6455 64.2607C71.6455 63.8629 71.5453 63.5437 71.3447 63.3037C71.1475 63.0638 70.8876 62.9444 70.5654 62.9443ZM80.6426 62.874C80.3567 62.874 80.1248 62.9511 79.9473 63.1055C79.7697 63.26 79.6621 63.4741 79.626 63.7471H81.6582C81.6187 63.4741 81.5106 63.26 81.333 63.1055C81.1555 62.951 80.9253 62.874 80.6426 62.874Z" fill="black"/>
<path d="M66.21 47.7012C66.8891 47.7012 67.4289 47.8784 67.8291 48.2334C68.2322 48.5885 68.4432 49.0741 68.4629 49.6885H67.5537C67.5312 49.325 67.3994 49.0397 67.1572 48.834C66.9149 48.6255 66.5946 48.5215 66.1973 48.5215C65.8168 48.5215 65.5051 48.6127 65.2627 48.7959C65.0204 48.9762 64.8995 49.2087 64.8994 49.4932C64.8994 49.7214 64.9918 49.908 65.1777 50.0518C65.3638 50.1927 65.6733 50.3147 66.1045 50.4189L66.7852 50.5801C67.4161 50.7294 67.881 50.9449 68.1797 51.2266C68.4813 51.5084 68.6318 51.8752 68.6318 52.3262C68.6318 52.7038 68.5352 53.0336 68.3408 53.3154C68.1464 53.5972 67.8728 53.8157 67.5205 53.9707C67.1682 54.1257 66.7537 54.2031 66.2773 54.2031C65.5222 54.2031 64.9261 54.0131 64.4893 53.6328C64.0552 53.2495 63.8379 52.7247 63.8379 52.0596H64.7764C64.7792 52.4739 64.9117 52.7983 65.1738 53.0322C65.4388 53.2661 65.8067 53.3828 66.2773 53.3828C66.7058 53.3828 67.0482 53.2927 67.3047 53.1123C67.5639 52.9291 67.6933 52.6841 67.6934 52.377C67.6934 52.1347 67.6009 51.9384 67.415 51.7891C67.2318 51.6369 66.9213 51.5086 66.4844 51.4043L65.7949 51.2393C65.1583 51.0871 64.6935 50.8759 64.4004 50.6055C64.1101 50.3321 63.9648 49.9769 63.9648 49.54C63.9648 49.1709 64.0582 48.8485 64.2441 48.5723C64.4302 48.2961 64.691 48.0819 65.0264 47.9297C65.3645 47.7776 65.7591 47.7012 66.21 47.7012ZM72.1875 47.7012C72.7484 47.7012 73.2477 47.8379 73.6846 48.1113C74.1213 48.3847 74.4639 48.7666 74.7119 49.2568C74.9627 49.7443 75.0879 50.3108 75.0879 50.9561C75.0879 51.5985 74.9627 52.1638 74.7119 52.6514C74.4639 53.1389 74.1213 53.5196 73.6846 53.793C73.2477 54.0664 72.7484 54.2031 72.1875 54.2031C71.6295 54.2031 71.1322 54.0663 70.6953 53.793C70.2584 53.5196 69.9139 53.139 69.6631 52.6514C69.4152 52.1639 69.292 51.5985 69.292 50.9561C69.292 50.3108 69.4152 49.7443 69.6631 49.2568C69.9139 48.7664 70.2584 48.3847 70.6953 48.1113C71.1322 47.838 71.6295 47.7012 72.1875 47.7012ZM62.9453 54.0996H62.0068V47.8008H62.9453V54.0996ZM77.4395 51.3516C77.5155 51.5798 77.6026 51.8492 77.7012 52.1592C77.7998 52.4692 77.9154 52.8318 78.0479 53.2461C78.1747 52.8318 78.286 52.4692 78.3818 52.1592C78.4805 51.8492 78.5684 51.5798 78.6445 51.3516L79.8574 47.8008H80.8516L78.5977 54.0996H77.4688L75.1816 47.8008H76.1924L77.4395 51.3516ZM85.8018 54.0996H84.7832L84.2246 52.4639H81.6846L81.1094 54.0996H80.1113L82.3984 47.8008H83.5312L85.8018 54.0996ZM87.3916 53.2754H90.3721V54.0996H86.4531V47.8008H87.3916V53.2754ZM95.3906 48.625H92.0928V50.4805H95.1445V51.2969H92.0928V53.2754H95.3906V54.0996H91.1543V47.8008H95.3906V48.625ZM99.6982 51.6094C99.7715 51.7278 99.8722 51.8963 99.999 52.1133C100.126 52.3301 100.252 52.55 100.379 52.7725C100.37 52.5442 100.364 52.313 100.358 52.0791C100.356 51.8425 100.354 51.6663 100.354 51.5508V47.8008H101.297V54.0996H100.248L98.0967 50.6963C98.0093 50.5582 97.8821 50.3525 97.7158 50.0791C97.5524 49.803 97.3667 49.4858 97.1582 49.1279C97.1723 49.4971 97.1808 49.8162 97.1836 50.084C97.1892 50.3487 97.1914 50.5515 97.1914 50.6924V54.0996H96.2529V47.8008H97.293L99.6982 51.6094ZM107.021 48.625H105.021V54.0996H104.078V48.625H102.07V47.8008H107.021V48.625ZM72.1875 48.5596C71.8268 48.5596 71.4981 48.6519 71.2021 48.8379C70.9063 49.0211 70.6708 49.2925 70.4961 49.6504C70.3215 50.0082 70.2344 50.4434 70.2344 50.9561C70.2344 51.4662 70.3213 51.9008 70.4961 52.2588C70.6708 52.6138 70.9063 52.8843 71.2021 53.0703C71.4981 53.2535 71.8268 53.3447 72.1875 53.3447C72.551 53.3447 72.8809 53.2534 73.1768 53.0703C73.4726 52.8844 73.7081 52.6137 73.8828 52.2588C74.0576 51.9008 74.1455 51.4662 74.1455 50.9561C74.1455 50.4433 74.0574 50.0082 73.8828 49.6504C73.7081 49.2924 73.4727 49.0211 73.1768 48.8379C72.8809 48.652 72.551 48.5596 72.1875 48.5596ZM82.6357 49.7158C82.5399 50.0118 82.4477 50.2895 82.3604 50.5488L81.9678 51.665H83.9502L83.5693 50.5488C83.4848 50.2895 83.3947 50.0118 83.2988 49.7158C83.203 49.42 83.0937 49.0677 82.9697 48.6592C82.8429 49.0677 82.7316 49.4199 82.6357 49.7158Z" fill="black"/>
<path fill-rule="evenodd" clip-rule="evenodd" d="M54.5157 72.2335L45.6368 82.0002V77.8568H19V66.6103H45.6368V62.4668L54.5157 72.2335ZM30.8386 69.5699V74.8972H33.7982V69.5699H30.8386Z" fill="#006BFF"/>
<path d="M37.7937 59.5066C37.7937 56.1558 35.0773 53.4394 31.7265 53.4394C28.3756 53.4394 25.6592 56.1558 25.6592 59.5066V63.946H21.2197V59.5066C21.2197 53.704 25.9237 49 31.7265 49C37.5292 49 42.2332 53.704 42.2332 59.5066V63.946H37.7937V59.5066Z" fill="url(#paint2_linear_172_1041)"/>
<defs>
<linearGradient id="paint0_linear_172_1041" x1="18.7514" y1="-42.1379" x2="127.692" y2="-29.3843" gradientUnits="userSpaceOnUse">
<stop stop-color="white"/>
<stop offset="1" stop-color="#E7F3FF"/>
</linearGradient>
<linearGradient id="paint1_linear_172_1041" x1="10" y1="57.6883" x2="111.331" y2="91.4055" gradientUnits="userSpaceOnUse">
<stop stop-color="#37A8FF"/>
<stop offset="1" stop-color="#3071FF"/>
</linearGradient>
<linearGradient id="paint2_linear_172_1041" x1="21.2197" y1="58.408" x2="42.2271" y2="58.0165" gradientUnits="userSpaceOnUse">
<stop stop-color="#049FFC"/>
<stop offset="1" stop-color="#19C9FF"/>
</linearGradient>
</defs>
</svg>
