<svg width="128" height="128" viewBox="0 0 128 128" fill="none" xmlns="http://www.w3.org/2000/svg">
<path d="M2 47.5714C2 43.9421 4.94213 41 8.57143 41H118.643C122.272 41 125.214 43.9421 125.214 47.5714V80.4286C125.214 84.0579 122.272 87 118.643 87H8.57143C4.94213 87 2 84.0579 2 80.4286V47.5714Z" fill="url(#paint0_linear_209_7808)"/>
<path d="M118.643 83.7143V87H8.57143V83.7143H118.643ZM121.929 80.4286V47.5714C121.929 45.7568 120.458 44.2857 118.643 44.2857H8.57143C6.75678 44.2857 5.28571 45.7568 5.28571 47.5714V80.4286C5.28571 82.2432 6.75678 83.7143 8.57143 83.7143V87C5.05566 87 2.18419 84.2391 2.00802 80.7671L2 80.4286V47.5714C2 43.9421 4.94213 41 8.57143 41H118.643L118.981 41.008C122.453 41.1842 125.214 44.0557 125.214 47.5714V80.4286C125.214 83.9443 122.453 86.8158 118.981 86.992L118.643 87V83.7143C120.458 83.7143 121.929 82.2432 121.929 80.4286Z" fill="url(#paint1_linear_209_7808)"/>
<path d="M96.9902 72.5368C95.9549 72.5368 95.0222 72.37 94.1922 72.0363C93.3623 71.7026 92.6906 71.2063 92.1772 70.5474C91.6723 69.8886 91.39 69.0714 91.3301 68.096H93.9997C94.1537 69.619 95.1335 70.3806 96.9389 70.3806C97.7946 70.3806 98.4705 70.2052 98.9668 69.8544C99.4716 69.5035 99.7241 69.0586 99.7241 68.5195C99.7241 68.0575 99.5444 67.6895 99.185 67.4157C98.8256 67.1334 98.355 66.928 97.7732 66.7997L95.5271 66.2991C92.9344 65.7344 91.6381 64.4423 91.6381 62.423C91.6381 61.2251 92.113 60.2496 93.0628 59.4967C94.0211 58.7437 95.2746 58.3672 96.8234 58.3672C98.355 58.3672 99.6128 58.7651 100.597 59.5608C101.589 60.348 102.103 61.4262 102.137 62.7952H99.5444C99.5358 62.1363 99.2877 61.593 98.7999 61.1652C98.3122 60.7288 97.6662 60.5106 96.8619 60.5106C96.0918 60.5106 95.48 60.6903 95.0265 61.0497C94.573 61.409 94.3463 61.8497 94.3463 62.3717C94.3463 62.8337 94.5174 63.2059 94.8597 63.4883C95.2105 63.7706 95.6896 63.9803 96.2972 64.1172L98.6074 64.6306C99.9251 64.9215 100.896 65.3707 101.521 65.9782C102.146 66.5858 102.458 67.3815 102.458 68.3655C102.458 69.2297 102.218 69.9741 101.739 70.5988C101.269 71.2148 100.622 71.694 99.8011 72.0363C98.9796 72.37 98.0427 72.5368 96.9902 72.5368Z" fill="black"/>
<path d="M84.1045 72.5368C83.0692 72.5368 82.1365 72.37 81.3065 72.0363C80.4765 71.7026 79.8048 71.2063 79.2914 70.5474C78.7866 69.8886 78.5042 69.0714 78.4443 68.096H81.114C81.268 69.619 82.2477 70.3806 84.0532 70.3806C84.9088 70.3806 85.5848 70.2052 86.0811 69.8544C86.5859 69.5035 86.8383 69.0586 86.8383 68.5195C86.8383 68.0575 86.6586 67.6895 86.2992 67.4157C85.9399 67.1334 85.4693 66.928 84.8874 66.7997L82.6413 66.2991C80.0487 65.7344 78.7524 64.4423 78.7524 62.423C78.7524 61.2251 79.2273 60.2496 80.177 59.4967C81.1354 58.7437 82.3889 58.3672 83.9376 58.3672C85.4693 58.3672 86.7271 58.7651 87.7111 59.5608C88.7036 60.348 89.217 61.4262 89.2513 62.7952H86.6586C86.6501 62.1363 86.4019 61.593 85.9142 61.1652C85.4265 60.7288 84.7805 60.5106 83.9761 60.5106C83.2061 60.5106 82.5943 60.6903 82.1408 61.0497C81.6873 61.409 81.4605 61.8497 81.4605 62.3717C81.4605 62.8337 81.6317 63.2059 81.9739 63.4883C82.3247 63.7706 82.8039 63.9803 83.4114 64.1172L85.7217 64.6306C87.0394 64.9215 88.0106 65.3707 88.6352 65.9782C89.2598 66.5858 89.5721 67.3815 89.5721 68.3655C89.5721 69.2297 89.3325 69.9741 88.8534 70.5988C88.3828 71.2148 87.7367 71.694 86.9153 72.0363C86.0939 72.37 85.1569 72.5368 84.1045 72.5368Z" fill="black"/>
<path d="M70.5506 72.5212C69.2073 72.5212 68.0521 72.2174 67.0852 71.6099C66.1269 71.0024 65.3868 70.1682 64.8648 69.1071C64.3514 68.0376 64.0947 66.8225 64.0947 65.4621C64.0947 64.0844 64.3643 62.8609 64.9033 61.7913C65.4424 60.7217 66.1868 59.8832 67.1366 59.2757C68.0864 58.6596 69.1773 58.3516 70.4095 58.3516C71.6929 58.3516 72.8053 58.651 73.7465 59.25C74.6963 59.849 75.4322 60.6832 75.9541 61.7528C76.4761 62.8138 76.737 64.0417 76.737 65.4364V66.168H66.7644C66.8157 67.3916 67.1665 68.3798 67.8168 69.1328C68.4757 69.8858 69.3998 70.2623 70.5891 70.2623C71.479 70.2623 72.2106 70.0612 72.7839 69.659C73.3572 69.2569 73.738 68.7349 73.9262 68.0932H76.5317C76.3691 68.966 76.0054 69.736 75.4407 70.4035C74.8845 71.0709 74.1829 71.5928 73.3358 71.9693C72.4973 72.3372 71.5689 72.5212 70.5506 72.5212ZM66.79 64.1144H74.0931C73.9818 63.0363 73.6011 62.1849 72.9508 61.5603C72.3005 60.9271 71.4619 60.6105 70.4351 60.6105C69.4083 60.6105 68.5698 60.9271 67.9195 61.5603C67.2778 62.1849 66.9013 63.0363 66.79 64.1144Z" fill="black"/>
<path d="M56.0342 72.2126V58.659H58.6268V60.8538H58.6782C58.9263 60.1094 59.3156 59.5318 59.8461 59.1211C60.3852 58.7018 61.0868 58.4922 61.951 58.4922C62.1564 58.4922 62.3446 58.5007 62.5158 58.5179C62.6869 58.535 62.8281 58.5478 62.9393 58.5564V61.0848C62.8366 61.0592 62.6527 61.0335 62.3874 61.0078C62.1222 60.9736 61.8312 60.9565 61.5146 60.9565C60.7531 60.9565 60.0985 61.2217 59.5509 61.7522C59.0119 62.2827 58.7423 63.0999 58.7423 64.2037V72.2126H56.0342Z" fill="black"/>
<path d="M46.8059 77.7584C45.146 77.7584 43.7898 77.3904 42.7373 76.6546C41.6848 75.9187 41.0688 74.8876 40.8891 73.5614H43.5972C43.7684 74.2202 44.1406 74.7165 44.7139 75.0502C45.2872 75.3839 45.9845 75.5508 46.8059 75.5508C47.9012 75.5508 48.7568 75.2556 49.3729 74.6652C49.989 74.0748 50.297 73.232 50.297 72.1367V70.0831H50.2842C49.8136 70.8704 49.2189 71.4522 48.5001 71.8287C47.7899 72.2052 46.9899 72.3934 46.1 72.3934C44.9192 72.3934 43.8882 72.0982 43.0068 71.5078C42.1255 70.9089 41.441 70.0874 40.9533 69.0435C40.4655 67.9911 40.2217 66.776 40.2217 65.3984C40.2217 64.0208 40.4655 62.8058 40.9533 61.7533C41.4495 60.7009 42.1383 59.8795 43.0197 59.2891C43.901 58.6901 44.9235 58.3906 46.0872 58.3906C46.9685 58.3906 47.7771 58.5789 48.513 58.9554C49.2488 59.3318 49.8435 59.9222 50.297 60.7266H50.3099V58.6602H52.9795V72.034C52.9795 73.4031 52.7014 74.5069 52.1452 75.3454C51.5891 76.184 50.8446 76.7958 49.912 77.1808C48.9793 77.5658 47.944 77.7584 46.8059 77.7584ZM46.6519 70.0703C47.8071 70.0703 48.7269 69.6468 49.4114 68.7997C50.1045 67.944 50.451 66.806 50.451 65.3856C50.451 63.9652 50.1045 62.8315 49.4114 61.9844C48.7269 61.1287 47.8071 60.7009 46.6519 60.7009C45.5567 60.7009 44.6668 61.1031 43.9823 61.9074C43.3063 62.7031 42.9683 63.8625 42.9683 65.3856C42.9683 66.9087 43.3063 68.0724 43.9823 68.8767C44.6668 69.6724 45.5567 70.0703 46.6519 70.0703Z" fill="black"/>
<path d="M25.6289 72.2137V53.0898H38.4894V55.5926H28.4782V61.2271H37.745V63.7042H28.4782V69.7109H38.4894V72.2137H25.6289Z" fill="black"/>
<defs>
<linearGradient id="paint0_linear_209_7808" x1="11.9842" y1="-26.4138" x2="134.952" y2="-7.13368" gradientUnits="userSpaceOnUse">
<stop stop-color="white"/>
<stop offset="1" stop-color="#E7F3FF"/>
</linearGradient>
<linearGradient id="paint1_linear_209_7808" x1="2" y1="58.6234" x2="109.13" y2="106.365" gradientUnits="userSpaceOnUse">
<stop stop-color="#37A8FF"/>
<stop offset="1" stop-color="#3071FF"/>
</linearGradient>
</defs>
</svg>
