<svg width="128" height="128" viewBox="0 0 128 128" fill="none" xmlns="http://www.w3.org/2000/svg">
<path d="M114.545 116.772V117.999H13.9091V116.772H114.545ZM118.227 113.09V100.817C118.227 98.7839 116.579 97.1355 114.545 97.1355H13.9091C11.8757 97.1355 10.2273 98.7839 10.2273 100.817V113.09C10.2273 115.123 11.8757 116.772 13.9091 116.772V117.999L13.6562 117.993C11.1463 117.866 9.13335 115.853 9.00599 113.343L9 113.09V100.817C9 98.1061 11.1979 95.9082 13.9091 95.9082H114.545C117.257 95.9082 119.455 98.1061 119.455 100.817V113.09C119.455 115.716 117.392 117.861 114.798 117.993L114.545 117.999V116.772C116.579 116.772 118.227 115.123 118.227 113.09Z" fill="black"/>
<path d="M106.987 112.067C106.103 112.067 105.337 111.868 104.688 111.471C104.04 111.074 103.539 110.529 103.187 109.835C102.84 109.136 102.667 108.339 102.667 107.444C102.667 106.544 102.845 105.747 103.203 105.053C103.567 104.354 104.068 103.806 104.705 103.409C105.343 103.006 106.075 102.805 106.903 102.805C107.753 102.805 108.497 103 109.135 103.392C109.772 103.783 110.267 104.326 110.62 105.02C110.972 105.707 111.148 106.504 111.148 107.411V107.989H104.739C104.767 108.711 104.979 109.293 105.376 109.734C105.773 110.176 106.327 110.397 107.037 110.397C107.569 110.397 108.008 110.283 108.355 110.053C108.701 109.818 108.936 109.511 109.059 109.13H111.039C110.927 109.706 110.681 110.215 110.301 110.657C109.926 111.099 109.454 111.446 108.883 111.698C108.313 111.944 107.681 112.067 106.987 112.067ZM104.756 106.53H109.118C109.051 105.898 108.822 105.4 108.43 105.036C108.044 104.667 107.546 104.483 106.937 104.483C106.322 104.483 105.821 104.667 105.435 105.036C105.055 105.4 104.828 105.898 104.756 106.53Z" fill="black"/>
<path d="M97.4754 112.067C96.5917 112.067 95.8255 111.868 95.1767 111.471C94.5279 111.074 94.0273 110.529 93.6749 109.835C93.3282 109.136 93.1548 108.339 93.1548 107.444C93.1548 106.544 93.3338 105.747 93.6917 105.053C94.0553 104.354 94.5558 103.806 95.1934 103.409C95.8311 103.006 96.5637 102.805 97.3915 102.805C98.2417 102.805 98.9855 103 99.6231 103.392C100.261 103.783 100.756 104.326 101.108 105.02C101.46 105.707 101.637 106.504 101.637 107.411V107.989H95.227C95.255 108.711 95.4675 109.293 95.8646 109.734C96.2617 110.176 96.8154 110.397 97.5257 110.397C98.0571 110.397 98.4961 110.283 98.8429 110.053C99.1897 109.818 99.4246 109.511 99.5476 109.13H101.528C101.416 109.706 101.17 110.215 100.789 110.657C100.415 111.099 99.9419 111.446 99.3714 111.698C98.801 111.944 98.1689 112.067 97.4754 112.067ZM95.2438 106.53H99.6064C99.5392 105.898 99.3099 105.4 98.9184 105.036C98.5325 104.667 98.0347 104.483 97.4251 104.483C96.8098 104.483 96.3093 104.667 95.9233 105.036C95.543 105.4 95.3165 105.898 95.2438 106.53Z" fill="black"/>
<path d="M87.5596 111.863V103.004H89.5982V104.472H89.6234C89.7856 103.969 90.0401 103.585 90.3869 103.323C90.7392 103.054 91.2006 102.92 91.7711 102.92C91.9165 102.92 92.0452 102.926 92.157 102.937C92.2745 102.942 92.3752 102.948 92.4591 102.953V104.833C92.3808 104.822 92.2465 104.808 92.0564 104.791C91.8662 104.774 91.6677 104.766 91.4607 104.766C90.9573 104.766 90.5323 104.939 90.1855 105.286C89.8443 105.633 89.6737 106.153 89.6737 106.846V111.863H87.5596Z" fill="black"/>
<path d="M86.2762 103.004V104.707H84.4724V111.864H82.3499V104.707H80.7559V103.004H82.3499V101.712C82.3499 100.952 82.5792 100.37 83.0378 99.9673C83.502 99.5646 84.1704 99.3633 85.0429 99.3633H86.2762V101.066H85.4624C85.0989 101.066 84.8416 101.142 84.6906 101.293C84.5451 101.444 84.4724 101.701 84.4724 102.065V103.004H86.2762Z" fill="black"/>
<path d="M79.6369 105.99V107.769H74.0327V105.99H79.6369Z" fill="black"/>
<path d="M68.3442 111.863V103.004H70.3829V104.472H70.4081C70.5703 103.969 70.8248 103.585 71.1715 103.323C71.5239 103.054 71.9853 102.92 72.5558 102.92C72.7012 102.92 72.8299 102.926 72.9417 102.937C73.0592 102.942 73.1598 102.948 73.2437 102.953V104.833C73.1654 104.822 73.0312 104.808 72.841 104.791C72.6509 104.774 72.4523 104.766 72.2454 104.766C71.742 104.766 71.3169 104.939 70.9702 105.286C70.629 105.633 70.4584 106.153 70.4584 106.846V111.863H68.3442Z" fill="black"/>
<path d="M61.7502 112.004C60.8665 112.004 60.1338 111.783 59.5521 111.342C58.976 110.894 58.688 110.229 58.688 109.345C58.688 108.674 58.8502 108.156 59.1746 107.793C59.5046 107.424 59.9324 107.155 60.4582 106.987C60.9895 106.82 61.56 106.705 62.1697 106.643C62.9918 106.548 63.5651 106.464 63.8895 106.392C64.2139 106.319 64.3761 106.132 64.3761 105.83V105.763C64.3761 105.382 64.2307 105.072 63.9399 104.831C63.6546 104.591 63.2603 104.471 62.7569 104.471C62.2424 104.471 61.8229 104.591 61.4985 104.831C61.1797 105.072 61.0063 105.379 60.9783 105.754H58.9397C58.99 104.876 59.3564 104.169 60.0387 103.632C60.7211 103.095 61.6411 102.826 62.7989 102.826C63.951 102.826 64.8515 103.095 65.5003 103.632C66.1491 104.169 66.4735 104.898 66.4735 105.821V111.862H64.3929V110.612H64.3593C64.1468 111.003 63.8392 111.333 63.4365 111.602C63.0338 111.87 62.4717 112.004 61.7502 112.004ZM62.2703 110.435C62.9639 110.435 63.4896 110.257 63.8476 109.899C64.2055 109.535 64.3845 109.096 64.3845 108.581V107.625C64.2559 107.709 64.007 107.787 63.6378 107.86C63.2687 107.927 62.866 107.994 62.4297 108.061C61.9767 108.128 61.5824 108.257 61.2468 108.447C60.9168 108.632 60.7518 108.925 60.7518 109.328C60.7518 109.675 60.8888 109.946 61.1629 110.142C61.437 110.338 61.8061 110.435 62.2703 110.435Z" fill="black"/>
<path d="M53.4901 112.067C52.6288 112.067 51.871 111.871 51.2166 111.479C50.5678 111.088 50.0616 110.545 49.6981 109.852C49.3401 109.158 49.1611 108.356 49.1611 107.444C49.1611 106.532 49.3401 105.73 49.6981 105.036C50.0616 104.337 50.5678 103.792 51.2166 103.4C51.871 103.003 52.6288 102.805 53.4901 102.805C54.234 102.805 54.8968 102.95 55.4785 103.241C56.0601 103.526 56.5272 103.923 56.8795 104.432C57.2375 104.936 57.4472 105.517 57.5087 106.177H55.4365C55.3582 105.702 55.1541 105.316 54.8241 105.02C54.4997 104.718 54.0634 104.566 53.5153 104.566C52.8218 104.566 52.2793 104.827 51.8877 105.347C51.4962 105.867 51.3005 106.566 51.3005 107.444C51.3005 108.317 51.4962 109.013 51.8877 109.533C52.2793 110.048 52.8218 110.305 53.5153 110.305C54.069 110.305 54.4997 110.16 54.8073 109.869C55.1149 109.572 55.3191 109.178 55.4197 108.686H57.5087C57.4584 109.335 57.2543 109.913 56.8963 110.422C56.5439 110.931 56.0741 111.334 55.4869 111.63C54.9052 111.921 54.2396 112.067 53.4901 112.067Z" fill="black"/>
<path d="M43.9652 112.067C43.0815 112.067 42.3152 111.868 41.6664 111.471C41.0176 111.074 40.517 110.529 40.1647 109.835C39.8179 109.136 39.6445 108.339 39.6445 107.444C39.6445 106.544 39.8235 105.747 40.1815 105.053C40.545 104.354 41.0456 103.806 41.6832 103.409C42.3208 103.006 43.0535 102.805 43.8813 102.805C44.7314 102.805 45.4753 103 46.1129 103.392C46.7505 103.783 47.2455 104.326 47.5978 105.02C47.9502 105.707 48.1264 106.504 48.1264 107.411V107.989H41.7168C41.7447 108.711 41.9573 109.293 42.3544 109.734C42.7515 110.176 43.3052 110.397 44.0155 110.397C44.5468 110.397 44.9859 110.283 45.3327 110.053C45.6794 109.818 45.9143 109.511 46.0374 109.13H48.0173C47.9055 109.706 47.6594 110.215 47.279 110.657C46.9043 111.099 46.4317 111.446 45.8612 111.698C45.2907 111.944 44.6587 112.067 43.9652 112.067ZM41.7335 106.53H46.0961C46.029 105.898 45.7997 105.4 45.4082 105.036C45.0222 104.667 44.5245 104.483 43.9148 104.483C43.2996 104.483 42.799 104.667 42.4131 105.036C42.0328 105.4 41.8062 105.898 41.7335 106.53Z" fill="black"/>
<path d="M33.3956 112.04C32.6237 112.04 31.9498 111.847 31.3737 111.461C30.7976 111.075 30.3501 110.538 30.0313 109.85C29.7181 109.157 29.5615 108.348 29.5615 107.426C29.5615 106.52 29.7209 105.723 30.0397 105.035C30.3585 104.341 30.806 103.801 31.3821 103.415C31.9581 103.024 32.6237 102.828 33.3788 102.828C33.9549 102.828 34.4722 102.946 34.9308 103.181C35.3895 103.415 35.7614 103.776 36.0467 104.263H36.0634V99.3633H38.1776V111.864H36.097V110.513H36.0802C35.8006 111.028 35.4258 111.411 34.956 111.662C34.4918 111.914 33.9716 112.04 33.3956 112.04ZM33.8905 110.27C34.5841 110.27 35.1378 110.012 35.5517 109.498C35.9711 108.978 36.1809 108.287 36.1809 107.426C36.1809 106.564 35.9711 105.876 35.5517 105.362C35.1378 104.842 34.5841 104.582 33.8905 104.582C33.2362 104.582 32.7076 104.828 32.3049 105.32C31.9022 105.812 31.7009 106.514 31.7009 107.426C31.7009 108.343 31.9022 109.048 32.3049 109.54C32.7076 110.026 33.2362 110.27 33.8905 110.27Z" fill="black"/>
<path d="M25.9788 111.862V103.002H28.093V111.862H25.9788ZM27.0359 101.685C26.6723 101.685 26.3703 101.57 26.1298 101.341C25.8893 101.106 25.769 100.818 25.769 100.477C25.769 100.136 25.8893 99.8506 26.1298 99.6213C26.3703 99.392 26.6723 99.2773 27.0359 99.2773C27.3938 99.2773 27.693 99.392 27.9335 99.6213C28.1741 99.8506 28.2943 100.136 28.2943 100.477C28.2943 100.818 28.1741 101.106 27.9335 101.341C27.693 101.57 27.3938 101.685 27.0359 101.685Z" fill="black"/>
<path d="M20.7795 112.075C19.7 112.075 18.7967 111.823 18.0696 111.32C17.3481 110.811 16.9538 110.081 16.8867 109.13H18.9757C19.0205 109.56 19.1938 109.896 19.4959 110.137C19.7979 110.371 20.2146 110.489 20.7459 110.489C21.2549 110.489 21.6548 110.388 21.9456 110.187C22.2421 109.986 22.3903 109.728 22.3903 109.415C22.3903 109.147 22.2812 108.931 22.0631 108.769C21.8449 108.607 21.5513 108.487 21.1822 108.408L19.6721 108.098C17.9494 107.74 17.0881 106.887 17.0881 105.539C17.0881 104.723 17.4125 104.065 18.0613 103.568C18.71 103.064 19.5742 102.812 20.6536 102.812C21.7275 102.812 22.6 103.078 23.2712 103.61C23.9479 104.135 24.2975 104.854 24.3199 105.766H22.3315C22.3204 105.369 22.1665 105.041 21.8701 104.784C21.5737 104.527 21.185 104.398 20.704 104.398C20.2397 104.398 19.8734 104.502 19.6049 104.709C19.3365 104.915 19.2022 105.17 19.2022 105.472C19.2022 105.735 19.3057 105.95 19.5127 106.118C19.7196 106.28 20.0076 106.403 20.3768 106.487L21.9708 106.814C22.8489 106.999 23.4949 107.29 23.9088 107.687C24.3283 108.084 24.538 108.607 24.538 109.256C24.538 109.832 24.3758 110.332 24.0514 110.757C23.7326 111.177 23.2908 111.501 22.7259 111.731C22.161 111.96 21.5122 112.075 20.7795 112.075Z" fill="black"/>
<path d="M94.1193 43.7657C94.1365 44.1748 94.1249 44.5845 94.0846 44.9919C94.022 45.3126 93.8795 45.6123 93.6702 45.8632C93.4609 46.114 93.1916 46.3079 92.8874 46.4269L80.7127 51.674C78.5763 52.5929 76.437 53.5061 74.3064 54.4425C73.8694 54.649 73.3863 54.7388 72.9043 54.7032C72.4222 54.6677 71.9576 54.5079 71.5555 54.2395C65.1783 50.297 58.8078 46.3515 52.4441 42.4032C51.9916 42.1521 51.6169 41.7812 51.3612 41.3312C51.1056 40.8812 50.9788 40.3695 50.9948 39.8522C50.9745 37.3968 50.8991 34.9414 50.844 32.486C50.8015 30.5302 50.7561 28.5734 50.7078 26.6157C50.6595 24.6579 50.6121 22.6779 50.5657 20.6758C50.5657 20.4786 50.5252 20.2815 50.5368 20.096C50.5402 19.6987 50.6639 19.3119 50.8916 18.9864C51.1193 18.6608 51.4403 18.412 51.8122 18.2725C58.0078 15.6017 64.2034 12.9288 70.3989 10.2541C70.8378 10.0534 71.321 9.96934 71.8019 10.01C72.2828 10.0506 72.745 10.2146 73.144 10.486L86.4783 18.7422L92.2381 22.3107C92.6857 22.5488 93.0584 22.9067 93.3143 23.3444C93.5703 23.7821 93.6995 24.2824 93.6874 24.7893C93.6874 26.7693 93.7686 28.7493 93.815 30.7292L93.9541 36.5996C94.0005 38.5921 94.0478 40.5836 94.0961 42.5742C94.0759 42.9946 94.1048 43.4207 94.1193 43.7657ZM89.0668 41.2813H88.9973C88.9973 40.7015 88.9973 40.1218 88.9973 39.542C88.9567 37.6548 88.9045 35.7734 88.8639 33.8804C88.803 31.1467 88.7422 28.4101 88.6958 25.6764C88.7048 25.5665 88.6824 25.4564 88.631 25.3588C88.5797 25.2612 88.5016 25.1803 88.4059 25.1256C82.9949 21.7783 77.5781 18.4223 72.1556 15.0576C72.0809 15.0079 71.9937 14.9801 71.904 14.9775C71.8143 14.975 71.7257 14.9977 71.6483 15.0431C66.3977 17.3101 61.1462 19.5732 55.8936 21.8324C55.7954 21.8578 55.7099 21.9186 55.6537 22.0031C55.5976 22.0877 55.5746 22.19 55.5893 22.2904C55.6385 23.7022 55.6733 25.114 55.711 26.5258L55.8502 32.3642C55.9023 34.6109 55.9574 36.8576 55.9951 39.1042C55.9926 39.2007 56.0188 39.2958 56.0704 39.3773C56.122 39.4589 56.1967 39.5232 56.285 39.5623C61.665 42.8902 67.0412 46.223 72.4136 49.5607C72.5183 49.6378 72.6426 49.6838 72.7723 49.6936C72.902 49.7033 73.0319 49.6763 73.1469 49.6157C75.7906 48.4562 78.4362 47.3121 81.0837 46.1834C83.6346 45.0847 86.1855 43.9802 88.7422 42.8931C88.8646 42.8609 88.9698 42.7825 89.0357 42.6745C89.1017 42.5664 89.1232 42.437 89.0958 42.3133C89.0465 41.9771 89.0668 41.6292 89.0668 41.2813Z" fill="#D04A9B"/>
<path d="M66.3098 53.1158C65.617 53.4057 64.9647 53.6956 64.3096 53.9855C62.0776 54.9479 59.8398 55.8988 57.6135 56.8844C57.2246 57.0682 56.7946 57.1477 56.3657 57.1152C55.9368 57.0827 55.5237 56.9392 55.167 56.6989C53.6809 55.7789 52.1948 54.8571 50.7087 53.9333C47.2708 51.8055 43.8416 49.669 40.395 47.5556C39.9661 47.3242 39.6105 46.9772 39.3687 46.554C39.1269 46.1307 39.0084 45.6482 39.0268 45.1611C39.0268 43.5058 38.9746 41.8477 38.9399 40.1924C38.8973 38.1998 38.851 36.2083 38.8007 34.2177C38.7659 32.8987 38.7195 31.5797 38.679 30.2606C38.6471 29.1359 38.9543 28.6372 39.9921 28.1908L48.6014 24.4599C48.6651 24.4338 48.7289 24.4164 48.8912 24.3613C48.8912 25.231 48.8912 26.0514 48.8912 26.8718C48.8912 27.4719 48.9057 28.0749 48.9434 28.6749C48.9608 28.9387 48.8419 29.0315 48.6245 29.1214C46.9114 29.8519 45.204 30.5969 43.488 31.3245C43.3619 31.3544 43.2516 31.4306 43.1791 31.538C43.1066 31.6454 43.0771 31.7762 43.0966 31.9043C43.1662 34.4525 43.2068 37.0007 43.2648 39.5459C43.2996 41.2128 43.3517 42.8797 43.3865 44.5466C43.3802 44.6368 43.4001 44.7269 43.4439 44.8061C43.4876 44.8853 43.5532 44.9502 43.6329 44.993C47.6911 47.5054 51.7494 50.0178 55.8076 52.5302C55.9391 52.626 56.0955 52.6819 56.2579 52.6912C56.4204 52.7004 56.5821 52.6627 56.7236 52.5824C58.3527 51.8606 59.9934 51.1677 61.6312 50.4575C61.7 50.4163 61.7786 50.3946 61.8587 50.3946C61.9389 50.3946 62.0175 50.4163 62.0863 50.4575C63.4487 51.3126 64.8198 52.1591 66.188 53.0085L66.3098 53.1158Z" fill="#BA69AA"/>
<path d="M50.1369 55.7015L47.2381 56.9567C45.9221 57.5249 44.6051 58.0931 43.2871 58.6613C42.9657 58.8142 42.6104 58.8823 42.2552 58.8589C41.9 58.8356 41.5567 58.7216 41.258 58.528C37.4587 56.176 33.6585 53.8211 29.8573 51.4633C29.1094 50.9995 28.8891 50.2834 28.8833 49.434C28.8688 47.6164 28.8224 45.7959 28.7818 43.9783C28.7384 42.0331 28.6978 40.0879 28.6398 38.1427C28.6125 37.8108 28.6969 37.4793 28.8797 37.2008C29.0625 36.9224 29.3331 36.7132 29.6486 36.6063C31.9907 35.6033 34.3281 34.5935 36.6606 33.5769C36.9505 33.4552 36.9911 33.545 36.9969 33.8088C37.0114 34.8959 37.0317 35.9859 37.0664 37.073C37.0846 37.1775 37.0632 37.285 37.0064 37.3745C36.9496 37.464 36.8614 37.5291 36.7592 37.5571C35.391 38.1369 34.0373 38.7167 32.6719 39.2965C32.5855 39.3198 32.5109 39.3747 32.4631 39.4505C32.4153 39.5262 32.3978 39.6172 32.414 39.7052C32.4719 41.8475 32.5125 43.9899 32.5618 46.1322C32.5821 47.0946 32.6111 48.0541 32.6256 49.0311C32.6181 49.1059 32.6327 49.1813 32.6678 49.2478C32.7029 49.3143 32.7567 49.369 32.8227 49.405C35.8664 51.2855 38.9081 53.1717 41.9479 55.0637C42.01 55.1029 42.0818 55.1237 42.1552 55.1237C42.2285 55.1237 42.3004 55.1029 42.3624 55.0637L46.0931 53.4548C46.2033 53.4085 46.3047 53.3302 46.4468 53.4201C47.6526 54.1651 48.8643 54.913 50.1369 55.7015Z" fill="#A53895"/>
<path d="M49.1261 40.0656C48.8624 39.9061 48.5986 39.7467 48.3377 39.5844C47.3144 38.9495 46.2912 38.3117 45.265 37.6856C45.1886 37.6489 45.1245 37.5907 45.0807 37.518C45.037 37.4454 45.0154 37.3616 45.0186 37.2768C45.0012 36.1549 44.9723 35.0302 44.9346 33.9083C44.9346 33.6184 45.0099 33.6039 45.2389 33.7459C46.4564 34.5074 47.6758 35.264 48.8972 36.0158C49.0073 36.0825 49.1059 36.1404 49.1088 36.3057C49.129 37.5319 49.1551 38.7582 49.1783 39.9873C49.1783 39.9989 49.158 40.0163 49.1261 40.0656Z" fill="#A53895"/>
<path d="M51.2798 43.7891L54.8278 45.9807C54.8833 46.0067 54.9305 46.0476 54.9642 46.0987C54.998 46.1499 55.017 46.2093 55.0191 46.2705C55.0365 47.4301 55.0684 48.6071 55.0945 49.7753C55.0929 49.8153 55.088 49.855 55.08 49.8942C54.967 49.9319 54.909 49.8594 54.8452 49.8188L51.4827 47.7345C51.387 47.6765 51.2769 47.6359 51.2769 47.4852C51.2807 46.2599 51.2817 45.0279 51.2798 43.7891Z" fill="#A53895"/>
<path d="M73.115 46.3617C73.115 46.7212 73.115 47.0807 73.115 47.4401C73.115 47.73 72.9874 47.817 72.7294 47.6604C71.4366 46.8632 70.1496 46.0631 68.8538 45.2688C68.7903 45.2295 68.7394 45.1729 68.7071 45.1056C68.6747 45.0383 68.6623 44.9632 68.6712 44.8891C68.6422 43.2347 68.6104 41.5785 68.5756 39.9203C68.535 38.0563 68.4857 36.1923 68.448 34.3283C68.4516 34.2487 68.4318 34.1698 68.3911 34.1013C68.3504 34.0328 68.2906 33.9777 68.219 33.9427C64.7405 31.7879 61.2533 29.6311 57.7575 27.4723C57.6626 27.4234 57.5845 27.3474 57.5329 27.254C57.4813 27.1606 57.4586 27.0539 57.4676 26.9476C57.4531 25.788 57.4183 24.6285 57.3951 23.4689C57.3951 23.3153 57.3458 23.15 57.5574 23.0602C57.6388 23.018 57.7303 22.9989 57.8217 23.005C57.9132 23.0112 58.0013 23.0423 58.0763 23.0949L71.6308 31.5018C71.9995 31.7145 72.3038 32.0229 72.5115 32.3944C72.7192 32.766 72.8226 33.1868 72.8106 33.6122C72.8338 35.3835 72.857 37.1576 72.9121 38.9289C72.97 40.8856 73.0193 42.8395 73.0483 44.7963C73.0512 45.321 73.0889 45.8399 73.115 46.3617Z" fill="#BA69AA"/>
<path d="M97.7834 66.645C98.5922 66.6661 99.401 66.6451 100.254 66.645C99.9752 67.3575 99.7149 68.0319 99.4505 68.7041C97.4861 73.7312 95.5206 78.7578 93.5539 83.7837C93.4138 84.1339 93.2486 84.4846 93.084 84.8348C92.2629 86.5696 90.8814 87.377 88.9732 87.3193C88.2995 87.3235 87.6287 87.2288 86.9824 87.0388C86.7987 86.9776 86.7461 86.8971 86.7775 86.6889C86.8896 85.9885 86.973 85.2738 87.0675 84.5507C87.5914 84.7618 88.1507 84.8726 88.7155 84.8779C89.6942 84.8639 90.4158 84.4438 90.85 83.5596C91.321 82.6019 91.6449 81.5808 92.0545 80.5969C92.1225 80.4325 92.0404 80.3049 91.9862 80.1702L87.2257 68.595C87.0017 68.0524 86.777 67.5101 86.5582 66.9674C86.4964 66.8735 86.4696 66.7603 86.4827 66.6486H89.3016C89.5099 66.6486 89.5125 66.801 89.558 66.9183C90.3517 69.0017 91.1433 71.0864 91.9323 73.1721C92.4155 74.4489 92.8981 75.7257 93.3801 77.0025C93.4203 77.1076 93.4695 77.2111 93.5167 77.3213C93.6373 77.253 93.6387 77.1354 93.6737 77.0409C94.8981 73.6829 96.1189 70.3243 97.3352 66.965C97.3524 66.8633 97.4094 66.7722 97.4934 66.7122C97.5773 66.6522 97.6816 66.6284 97.7834 66.645ZM35.4442 66.3167C36.9079 66.2607 38.2951 66.5059 39.5347 67.3498C41.1103 68.4265 41.9395 69.9641 42.2757 71.8058C42.4015 72.5978 42.4599 73.3997 42.4507 74.2016C42.4506 74.4271 42.3863 74.4826 42.1642 74.4809C40.4046 74.4721 38.6622 74.4761 36.9183 74.4761C35.1955 74.4761 33.4744 74.487 31.7516 74.4677C31.4296 74.4677 31.4016 74.5827 31.4436 74.838C31.6834 76.5206 32.7039 77.556 34.2325 78.1267C36.2845 78.8953 38.0581 78.3958 39.5778 76.6502C39.7684 76.4335 39.8774 76.4212 40.1028 76.601C40.5808 76.995 41.0751 77.3718 41.5793 77.7324C41.7857 77.8811 41.7666 77.9689 41.6165 78.1471C40.4927 79.5202 38.882 80.4086 37.1209 80.6256C35.6416 80.8304 34.1727 80.7738 32.7739 80.1786C30.4084 79.1718 29.1304 77.3137 28.7469 74.8344C28.4179 72.7127 28.7973 70.7201 30.1348 68.9869C31.4725 67.2536 33.2696 66.3989 35.4442 66.3167ZM79.1274 66.3035C83.065 66.393 86.295 69.6422 86.2478 73.5868C86.2022 77.5805 83.0191 80.7143 78.9273 80.7143C74.8497 80.7142 71.6612 77.5527 71.6451 73.5173C71.6294 69.4816 75.0215 66.2089 79.1274 66.3035ZM69.0468 66.6438C69.8469 66.6614 70.648 66.6438 71.4989 66.6438C71.3239 67.0726 71.1783 67.4666 71.0243 67.8603C69.4228 71.9457 67.8223 76.0271 66.2243 80.1031C66.2044 80.1928 66.1513 80.2714 66.0757 80.3236C66 80.3758 65.9077 80.3979 65.8168 80.3847C65.0464 80.369 64.2776 80.3707 63.5073 80.3847C63.4274 80.3972 63.3458 80.3806 63.2771 80.338C63.2084 80.2953 63.1563 80.2294 63.1321 80.1522C61.3404 75.7343 59.5434 71.3196 57.74 66.9087C57.6455 66.6759 57.7049 66.6493 57.915 66.651C58.7378 66.6615 59.5623 66.6633 60.3851 66.651C60.4712 66.639 60.559 66.6597 60.6308 66.7086C60.7026 66.7574 60.7542 66.8315 60.7747 66.9159C62.0422 70.1757 63.3151 73.4334 64.5943 76.6885C64.6451 76.8058 64.6982 76.9308 64.7753 77.1164C65.0029 76.5124 65.2104 75.9655 65.4153 75.4193C66.4658 72.6022 67.5308 69.7881 68.5674 66.9674C68.5903 66.8622 68.6531 66.77 68.7423 66.7098C68.8316 66.6495 68.9406 66.6258 69.0468 66.6438ZM47.283 68.77C48.6838 66.0772 52.4193 65.8107 54.4345 66.9015C55.8825 67.6859 56.5481 68.9854 56.7704 70.5594C56.8171 70.9413 56.8349 71.3264 56.8256 71.7111V80.0527C56.8256 80.3224 56.7573 80.3929 56.4912 80.3859C55.8189 80.3649 55.1445 80.3684 54.4705 80.3859C54.2398 80.3858 54.1931 80.3205 54.1948 80.1019C54.1948 77.4388 54.2071 74.7757 54.1948 72.1126C54.1948 71.1217 53.9509 70.1974 53.1893 69.5023C52.2982 68.69 51.2216 68.6183 50.1151 68.8599C48.4869 69.21 47.7175 70.3755 47.4005 71.9125C47.3126 72.3639 47.2718 72.8237 47.2771 73.2836V80.0839C47.2771 80.3201 47.2258 80.3928 46.981 80.3859C46.2982 80.3684 45.6108 80.3684 44.928 80.3859C44.6764 80.3858 44.6343 80.3059 44.6343 80.0767C44.6413 75.6928 44.6413 71.3082 44.6343 66.9231C44.6343 66.7008 44.6886 66.6327 44.916 66.6379C45.6163 66.653 46.3116 66.653 47.0014 66.6379C47.236 66.6379 47.2823 66.7113 47.2771 66.9267C47.2753 67.5184 47.283 68.1066 47.283 68.77ZM81.9895 69.857C80.862 68.8576 79.5228 68.5848 78.0715 68.8263C77.3883 68.9169 76.7393 69.1816 76.1875 69.5946C75.6358 70.0075 75.199 70.5552 74.9195 71.185C74.542 72.0191 74.3812 72.9352 74.4508 73.8481C74.5928 76.5266 76.3663 78.2754 79.4163 78.2754C80.766 78.235 82.1809 77.5071 82.9758 75.8004C83.4473 74.7587 83.5802 73.5949 83.357 72.4734C83.1819 71.4579 82.7721 70.5469 81.9895 69.857ZM36.1141 68.4236C35.0257 68.3102 33.935 68.6174 33.0663 69.283C32.1976 69.9488 31.6168 70.9228 31.4436 72.0036C31.3946 72.3169 31.4782 72.3798 31.7755 72.3763C33.0309 72.3605 34.2815 72.3703 35.5317 72.3703V72.3751H39.3453C39.4923 72.3752 39.6445 72.4114 39.627 72.163C39.4518 69.845 38.0979 68.597 36.1141 68.4236Z" fill="#4A2465"/>
</svg>
