<svg width="128" height="128" viewBox="0 0 128 128" fill="none" xmlns="http://www.w3.org/2000/svg">
<path d="M96.375 118.738V119.999H32.0455V118.738H96.375ZM100.159 114.954V102.34C100.159 100.25 98.4649 98.5563 96.375 98.5563H32.0455C29.9556 98.5563 28.2614 100.25 28.2614 102.34V114.954C28.2614 117.044 29.9556 118.738 32.0455 118.738V119.999L31.7855 119.993C29.2059 119.862 27.137 117.794 27.0062 115.214L27 114.954V102.34C27 99.5539 29.2589 97.2949 32.0455 97.2949H96.375C99.1615 97.2949 101.42 99.5539 101.42 102.34V114.954C101.42 117.653 99.3007 119.858 96.6349 119.993L96.375 119.999V118.738C98.4649 118.738 100.159 117.044 100.159 114.954Z" fill="black"/>
<path d="M87.9922 113.692V104.586H90.0875V106.095H90.1133C90.2801 105.578 90.5416 105.184 90.898 104.914C91.2602 104.638 91.7344 104.5 92.3207 104.5C92.4702 104.5 92.6024 104.506 92.7174 104.517C92.8381 104.523 92.9416 104.529 93.0278 104.534V106.466C92.9473 106.454 92.8093 106.44 92.6139 106.423C92.4185 106.406 92.2144 106.397 92.0017 106.397C91.4843 106.397 91.0475 106.575 90.6911 106.932C90.3404 107.288 90.1651 107.823 90.1651 108.535V113.692H87.9922Z" fill="black"/>
<path d="M81.2151 113.837C80.3069 113.837 79.5538 113.61 78.956 113.156C78.3639 112.696 78.0679 112.012 78.0679 111.104C78.0679 110.414 78.2346 109.883 78.568 109.509C78.9071 109.129 79.3469 108.854 79.8872 108.681C80.4333 108.509 81.0197 108.391 81.6463 108.328C82.4913 108.23 83.0805 108.144 83.4139 108.069C83.7473 107.994 83.914 107.802 83.914 107.491V107.422C83.914 107.031 83.7645 106.712 83.4656 106.465C83.1725 106.218 82.7672 106.094 82.2498 106.094C81.721 106.094 81.2899 106.218 80.9564 106.465C80.6288 106.712 80.4506 107.028 80.4218 107.414H78.3265C78.3783 106.511 78.7548 105.784 79.4561 105.232C80.1574 104.68 81.103 104.404 82.2929 104.404C83.4771 104.404 84.4026 104.68 85.0694 105.232C85.7362 105.784 86.0696 106.534 86.0696 107.483V113.691H83.9312V112.406H83.8968C83.6783 112.808 83.3621 113.148 82.9483 113.424C82.5344 113.699 81.9567 113.837 81.2151 113.837ZM81.7497 112.225C82.4625 112.225 83.0029 112.041 83.3708 111.673C83.7387 111.3 83.9226 110.848 83.9226 110.319V109.336C83.7904 109.423 83.5346 109.503 83.1552 109.578C82.7758 109.647 82.3619 109.716 81.9136 109.785C81.4479 109.854 81.0427 109.986 80.6978 110.181C80.3586 110.371 80.189 110.673 80.189 111.087C80.189 111.443 80.3299 111.722 80.6115 111.923C80.8932 112.124 81.2726 112.225 81.7497 112.225Z" fill="black"/>
<path d="M72.7266 113.902C71.8414 113.902 71.0624 113.701 70.3899 113.299C69.7231 112.896 69.2028 112.339 68.8292 111.626C68.4613 110.913 68.2773 110.088 68.2773 109.151C68.2773 108.214 68.4613 107.389 68.8292 106.676C69.2028 105.958 69.7231 105.397 70.3899 104.995C71.0624 104.587 71.8414 104.383 72.7266 104.383C73.4911 104.383 74.1723 104.532 74.7702 104.831C75.368 105.124 75.848 105.532 76.2101 106.056C76.578 106.573 76.7936 107.171 76.8568 107.849H74.7271C74.6466 107.36 74.4368 106.964 74.0976 106.659C73.7642 106.349 73.3158 106.194 72.7525 106.194C72.0397 106.194 71.4821 106.461 71.0797 106.995C70.6773 107.53 70.4761 108.249 70.4761 109.151C70.4761 110.048 70.6773 110.764 71.0797 111.298C71.4821 111.827 72.0397 112.091 72.7525 112.091C73.3216 112.091 73.7642 111.942 74.0804 111.643C74.3965 111.338 74.6063 110.933 74.7098 110.427H76.8568C76.8051 111.094 76.5953 111.689 76.2274 112.212C75.8652 112.735 75.3824 113.149 74.7788 113.454C74.181 113.753 73.4969 113.902 72.7266 113.902Z" fill="black"/>
<path d="M62.9362 113.902C62.028 113.902 61.2405 113.698 60.5737 113.29C59.9068 112.882 59.3924 112.321 59.0302 111.609C58.6738 110.89 58.4956 110.071 58.4956 109.151C58.4956 108.226 58.6796 107.406 59.0475 106.694C59.4211 105.975 59.9356 105.412 60.5909 105.004C61.2462 104.59 61.9993 104.383 62.85 104.383C63.7238 104.383 64.4883 104.584 65.1436 104.986C65.799 105.389 66.3077 105.946 66.6698 106.659C67.032 107.366 67.2131 108.185 67.2131 109.117V109.712H60.6254C60.6541 110.453 60.8726 111.051 61.2807 111.505C61.6888 111.959 62.2579 112.186 62.988 112.186C63.5341 112.186 63.9853 112.068 64.3417 111.833C64.6981 111.591 64.9396 111.275 65.066 110.884H67.101C66.986 111.476 66.7331 111.999 66.3422 112.454C65.957 112.908 65.4713 113.264 64.885 113.523C64.2986 113.776 63.649 113.902 62.9362 113.902ZM60.6426 108.211H65.1264C65.0574 107.562 64.8217 107.05 64.4193 106.676C64.0227 106.297 63.5111 106.107 62.8845 106.107C62.2522 106.107 61.7377 106.297 61.3411 106.676C60.9502 107.05 60.7174 107.562 60.6426 108.211Z" fill="black"/>
<path d="M52.0733 113.874C51.2801 113.874 50.5874 113.676 49.9953 113.28C49.4032 112.883 48.9433 112.331 48.6157 111.624C48.2938 110.911 48.1328 110.081 48.1328 109.132C48.1328 108.201 48.2966 107.382 48.6243 106.675C48.952 105.962 49.4118 105.407 50.0039 105.01C50.596 104.608 51.2801 104.407 52.0561 104.407C52.6482 104.407 53.1799 104.528 53.6513 104.769C54.1226 105.01 54.5049 105.381 54.7981 105.881H54.8153V100.846H56.9882V113.693H54.8498V112.305H54.8326C54.5452 112.834 54.16 113.228 53.6771 113.486C53.2 113.745 52.6654 113.874 52.0733 113.874ZM52.5821 112.055C53.2949 112.055 53.864 111.791 54.2894 111.262C54.7205 110.727 54.936 110.017 54.936 109.132C54.936 108.247 54.7205 107.54 54.2894 107.011C53.864 106.476 53.2949 106.209 52.5821 106.209C51.9095 106.209 51.3663 106.462 50.9524 106.968C50.5385 107.474 50.3316 108.195 50.3316 109.132C50.3316 110.075 50.5385 110.799 50.9524 111.305C51.3663 111.805 51.9095 112.055 52.5821 112.055Z" fill="black"/>
<path d="M44.4504 113.692V104.586H46.6233V113.692H44.4504ZM45.5369 103.233C45.1632 103.233 44.8528 103.115 44.6056 102.879C44.3585 102.638 44.2349 102.341 44.2349 101.991C44.2349 101.64 44.3585 101.347 44.6056 101.111C44.8528 100.876 45.1632 100.758 45.5369 100.758C45.9048 100.758 46.2123 100.876 46.4595 101.111C46.7067 101.347 46.8303 101.64 46.8303 101.991C46.8303 102.341 46.7067 102.638 46.4595 102.879C46.2123 103.115 45.9048 103.233 45.5369 103.233Z" fill="black"/>
<path d="M39.1073 113.91C37.9979 113.91 37.0695 113.651 36.3222 113.134C35.5807 112.611 35.1754 111.861 35.1064 110.883H37.2535C37.2995 111.326 37.4777 111.671 37.7881 111.918C38.0985 112.16 38.5267 112.28 39.0728 112.28C39.5959 112.28 40.007 112.177 40.3059 111.97C40.6105 111.763 40.7629 111.499 40.7629 111.177C40.7629 110.901 40.6508 110.679 40.4266 110.513C40.2024 110.346 39.9006 110.222 39.5212 110.142L37.9691 109.823C36.1986 109.455 35.3134 108.578 35.3134 107.193C35.3134 106.354 35.6468 105.678 36.3136 105.167C36.9804 104.649 37.8686 104.391 38.978 104.391C40.0817 104.391 40.9784 104.664 41.6682 105.21C42.3638 105.75 42.7231 106.489 42.7461 107.426H40.7025C40.691 107.018 40.5329 106.681 40.2283 106.417C39.9236 106.153 39.5241 106.02 39.0297 106.02C38.5526 106.02 38.1761 106.127 37.9002 106.339C37.6242 106.552 37.4863 106.814 37.4863 107.124C37.4863 107.394 37.5926 107.615 37.8053 107.788C38.018 107.955 38.3141 108.081 38.6934 108.167L40.3317 108.504C41.2342 108.693 41.8982 108.992 42.3236 109.4C42.7547 109.808 42.9703 110.346 42.9703 111.013C42.9703 111.605 42.8036 112.119 42.4701 112.556C42.1425 112.987 41.6884 113.321 41.1078 113.556C40.5272 113.792 39.8604 113.91 39.1073 113.91Z" fill="black"/>
<path d="M94.2983 43.7037C94.316 44.1241 94.304 44.5453 94.2625 44.964C94.1983 45.2936 94.0518 45.6016 93.8367 45.8594C93.6216 46.1173 93.3448 46.3166 93.0321 46.4389L80.5192 51.8317C78.3235 52.7762 76.1248 53.7147 73.935 54.6771C73.4858 54.8893 72.9894 54.9816 72.4939 54.9451C71.9985 54.9085 71.5209 54.7444 71.1077 54.4685C64.5533 50.4164 58.0059 46.3614 51.4654 42.3034C51.0003 42.0453 50.6152 41.6641 50.3525 41.2016C50.0897 40.7391 49.9594 40.2131 49.9758 39.6814C49.9549 37.1578 49.8775 34.6342 49.8209 32.1106C49.7772 30.1005 49.7305 28.0894 49.6809 26.0772C49.6312 24.0651 49.5825 22.0301 49.5349 19.9723C49.5349 19.7697 49.4932 19.5671 49.5051 19.3764C49.5086 18.9682 49.6358 18.5705 49.8698 18.236C50.1038 17.9014 50.4337 17.6457 50.816 17.5024C57.1836 14.7573 63.5513 12.0102 69.919 9.26117C70.3701 9.05491 70.8667 8.96848 71.3609 9.01024C71.8552 9.05199 72.3303 9.22051 72.7403 9.49952L86.445 17.985L92.3647 21.6527C92.8249 21.8974 93.2078 22.2652 93.4709 22.7151C93.734 23.165 93.8668 23.6792 93.8544 24.2002C93.8544 26.2351 93.9378 28.2701 93.9855 30.3051L94.1285 36.3385C94.1761 38.3864 94.2248 40.4333 94.2744 42.4792C94.2536 42.9112 94.2834 43.3492 94.2983 43.7037ZM89.1054 41.1503H89.0339C89.0339 40.5544 89.0339 39.9585 89.0339 39.3626C88.9922 37.423 88.9386 35.4893 88.8969 33.5438C88.8343 30.7341 88.7717 27.9215 88.7241 25.1119C88.7334 24.999 88.7103 24.8857 88.6575 24.7855C88.6048 24.6852 88.5245 24.6021 88.4262 24.5458C82.8649 21.1055 77.2976 17.6563 71.7244 14.1981C71.6477 14.147 71.5581 14.1185 71.4659 14.1158C71.3737 14.1132 71.2826 14.1365 71.203 14.1832C65.8066 16.5132 60.4092 18.8391 55.0108 21.1611C54.9097 21.1872 54.8219 21.2497 54.7642 21.3366C54.7065 21.4235 54.6829 21.5286 54.6979 21.6319C54.7486 23.0829 54.7843 24.5339 54.8231 25.9849L54.9661 31.9855C55.0197 34.2946 55.0763 36.6037 55.115 38.9127C55.1125 39.0119 55.1394 39.1096 55.1924 39.1934C55.2455 39.2772 55.3222 39.3434 55.413 39.3835C60.9425 42.8039 66.468 46.2293 71.9896 49.6596C72.0972 49.7389 72.225 49.7862 72.3583 49.7962C72.4916 49.8063 72.625 49.7785 72.7433 49.7163C75.4604 48.5245 78.1795 47.3486 80.9006 46.1886C83.5223 45.0594 86.144 43.9242 88.7718 42.8069C88.8976 42.7738 89.0057 42.6932 89.0735 42.5822C89.1412 42.4711 89.1634 42.338 89.1352 42.211C89.0846 41.8654 89.1054 41.5078 89.1054 41.1503Z" fill="#D04A9B"/>
<path d="M65.7165 53.313C65.0045 53.611 64.3341 53.9089 63.6608 54.2069C61.3668 55.196 59.0668 56.1733 56.7787 57.1863C56.379 57.3752 55.9371 57.457 55.4963 57.4235C55.0554 57.3901 54.6309 57.2426 54.2642 56.9956C52.7369 56.0501 51.2095 55.1027 49.6821 54.1532C46.1487 51.9663 42.6242 49.7704 39.0819 47.5984C38.641 47.3605 38.2756 47.0039 38.0271 46.5689C37.7785 46.1339 37.6568 45.638 37.6757 45.1374C37.6757 43.4361 37.6221 41.7319 37.5863 40.0306C37.5426 37.9827 37.495 35.9358 37.4433 33.8899C37.4076 32.5343 37.3599 31.1786 37.3182 29.823C37.2854 28.6669 37.6012 28.1545 38.6678 27.6956L47.5162 23.8611C47.5817 23.8343 47.6473 23.8164 47.8141 23.7598C47.8141 24.6536 47.8141 25.4968 47.8141 26.34C47.8141 26.9567 47.829 27.5765 47.8678 28.1932C47.8856 28.4643 47.7635 28.5597 47.54 28.652C45.7793 29.4029 44.0245 30.1686 42.2608 30.9164C42.1312 30.9471 42.0178 31.0254 41.9433 31.1358C41.8688 31.2462 41.8385 31.3806 41.8586 31.5123C41.9301 34.1313 41.9718 36.7502 42.0314 39.3662C42.0671 41.0794 42.1208 42.7925 42.1565 44.5057C42.15 44.5985 42.1705 44.6911 42.2154 44.7725C42.2604 44.8539 42.3278 44.9206 42.4097 44.9646C46.5807 47.5468 50.7517 50.129 54.9226 52.7112C55.0578 52.8096 55.2185 52.8671 55.3855 52.8766C55.5524 52.8861 55.7186 52.8473 55.8641 52.7648C57.5384 52.0229 59.2247 51.3108 60.908 50.5808C60.9787 50.5386 61.0595 50.5163 61.1418 50.5163C61.2242 50.5163 61.305 50.5386 61.3757 50.5808C62.776 51.4598 64.1852 52.3298 65.5914 53.2028L65.7165 53.313Z" fill="#BA69AA"/>
<path d="M49.0994 55.9719L46.1201 57.262C44.7675 57.846 43.4139 58.43 42.0594 59.0139C41.729 59.1711 41.3639 59.241 40.9988 59.217C40.6337 59.193 40.2809 59.0759 39.9739 58.8769C36.0691 56.4596 32.1633 54.0392 28.2565 51.6159C27.4878 51.1392 27.2614 50.4033 27.2554 49.5303C27.2405 47.6622 27.1929 45.7911 27.1512 43.923C27.1065 41.9238 27.0648 39.9246 27.0052 37.9253C26.9771 37.5842 27.0639 37.2434 27.2518 36.9573C27.4396 36.6712 27.7178 36.4561 28.0419 36.3462C30.4492 35.3153 32.8515 34.2775 35.2488 33.2327C35.5467 33.1076 35.5884 33.1999 35.5944 33.4711C35.6093 34.5883 35.6301 35.7086 35.6659 36.8259C35.6846 36.9333 35.6626 37.0438 35.6042 37.1358C35.5458 37.2278 35.4552 37.2947 35.3501 37.3235C33.9439 37.9194 32.5526 38.5153 31.1493 39.1112C31.0604 39.1351 30.9838 39.1916 30.9347 39.2694C30.8856 39.3473 30.8675 39.4407 30.8842 39.5313C30.9438 41.7331 30.9855 43.9349 31.0361 46.1367C31.057 47.1259 31.0868 48.1121 31.1017 49.1162C31.0939 49.1931 31.109 49.2705 31.1451 49.3389C31.1811 49.4072 31.2365 49.4635 31.3042 49.5005C34.4325 51.4332 37.5587 53.3718 40.683 55.3164C40.7467 55.3567 40.8206 55.378 40.896 55.378C40.9714 55.378 41.0452 55.3567 41.109 55.3164L44.9433 53.6628C45.0565 53.6152 45.1608 53.5347 45.3068 53.6271C46.5461 54.3928 47.7915 55.1615 49.0994 55.9719Z" fill="#A53895"/>
<path d="M48.0605 39.8998C47.7893 39.736 47.5182 39.5721 47.2501 39.4053C46.1984 38.7527 45.1467 38.0973 44.0921 37.4537C44.0135 37.416 43.9477 37.3561 43.9027 37.2815C43.8577 37.2069 43.8355 37.1207 43.8388 37.0336C43.821 35.8805 43.7912 34.7245 43.7524 33.5715C43.7524 33.2735 43.8299 33.2586 44.0653 33.4046C45.3165 34.1872 46.5698 34.9649 47.8251 35.7375C47.9383 35.8061 48.0396 35.8656 48.0426 36.0355C48.0634 37.2958 48.0903 38.5561 48.1141 39.8194C48.1141 39.8313 48.0932 39.8492 48.0605 39.8998Z" fill="#A53895"/>
<path d="M50.2686 43.7266L53.9152 45.979C53.9722 46.0058 54.0207 46.0478 54.0554 46.1004C54.0901 46.1529 54.1096 46.214 54.1119 46.277C54.1297 47.4688 54.1625 48.6784 54.1893 49.8791C54.1877 49.9202 54.1827 49.9611 54.1744 50.0013C54.0582 50.04 53.9986 49.9656 53.9331 49.9238L50.4771 47.7816C50.3788 47.722 50.2656 47.6803 50.2656 47.5254C50.2696 46.2661 50.2706 44.9998 50.2686 43.7266Z" fill="#A53895"/>
<path d="M72.7105 46.3739C72.7105 46.7433 72.7105 47.1128 72.7105 47.4822C72.7105 47.7802 72.5794 47.8696 72.3142 47.7087C70.9855 46.8893 69.6627 46.067 68.331 45.2506C68.2657 45.2102 68.2134 45.1521 68.1801 45.0829C68.1468 45.0137 68.1341 44.9365 68.1433 44.8603C68.1135 43.16 68.0807 41.4578 68.045 39.7535C68.0033 37.8377 67.9526 35.9219 67.9139 34.0062C67.9175 33.9243 67.8972 33.8433 67.8554 33.7729C67.8136 33.7025 67.7521 33.6458 67.6785 33.6099C64.1034 31.3952 60.5193 29.1784 56.9263 26.9597C56.8289 26.9094 56.7486 26.8313 56.6955 26.7353C56.6425 26.6393 56.6191 26.5297 56.6284 26.4205C56.6135 25.2287 56.5778 24.0369 56.5539 22.8451C56.5539 22.6872 56.5033 22.5174 56.7208 22.425C56.8044 22.3816 56.8984 22.362 56.9924 22.3683C57.0864 22.3746 57.1769 22.4066 57.2541 22.4608L71.1851 31.1012C71.564 31.3197 71.8768 31.6367 72.0903 32.0186C72.3037 32.4004 72.4099 32.8329 72.3977 33.2702C72.4215 35.0907 72.4453 36.9141 72.5019 38.7345C72.5615 40.7457 72.6122 42.7538 72.642 44.765C72.6449 45.3043 72.6837 45.8376 72.7105 46.3739Z" fill="#BA69AA"/>
<path d="M98.0694 67.2191C98.9006 67.2407 99.732 67.2191 100.608 67.2191C100.322 67.9513 100.055 68.6444 99.7828 69.3353C97.7638 74.502 95.7438 79.6683 93.7224 84.8338C93.5784 85.1937 93.4087 85.5542 93.2395 85.9141C92.3956 87.6971 90.9757 88.527 89.0145 88.4676C88.3221 88.472 87.6327 88.3746 86.9684 88.1794C86.7795 88.1164 86.7255 88.0337 86.7578 87.8197C86.873 87.0999 86.9587 86.3654 87.0559 85.6222C87.5944 85.839 88.1691 85.953 88.7496 85.9585C89.7556 85.9441 90.4972 85.5122 90.9434 84.6035C91.4275 83.6192 91.7604 82.5697 92.1814 81.5585C92.2513 81.3895 92.1669 81.2584 92.1112 81.1199L87.2185 69.2232C86.9882 68.6655 86.7573 68.1081 86.5324 67.5504C86.4689 67.4539 86.4413 67.3375 86.4548 67.2228H89.352C89.5661 67.2228 89.5688 67.3793 89.6156 67.4999C90.4313 69.6412 91.2448 71.7838 92.0558 73.9275C92.5524 75.2397 93.0484 76.552 93.5438 77.8643C93.5852 77.9722 93.6356 78.0786 93.6842 78.1919C93.8082 78.1218 93.8096 78.0008 93.8456 77.9037C95.104 74.4524 96.3587 71.0005 97.6087 67.548C97.6264 67.4434 97.685 67.3497 97.7713 67.288C97.8576 67.2265 97.9648 67.2019 98.0694 67.2191ZM33.9985 66.8815C35.5029 66.824 36.9287 67.076 38.2027 67.9434C39.8221 69.05 40.6743 70.6303 41.0198 72.5232C41.1491 73.3372 41.2092 74.1614 41.1997 74.9856C41.1996 75.2173 41.1335 75.2743 40.9053 75.2726C39.0967 75.2636 37.306 75.2677 35.5137 75.2677C33.743 75.2677 31.9741 75.2788 30.2034 75.259C29.8724 75.259 29.8437 75.3772 29.8868 75.6397C30.1333 77.369 31.1822 78.4331 32.7532 79.0197C34.8622 79.8096 36.6851 79.2962 38.247 77.5021C38.4429 77.2794 38.5549 77.2668 38.7866 77.4516C39.2778 77.8565 39.7859 78.2438 40.3041 78.6145C40.5163 78.7673 40.4966 78.8575 40.3423 79.0407C39.1873 80.4519 37.5318 81.3649 35.7218 81.588C34.2014 81.7985 32.6917 81.7403 31.2541 81.1286C28.8229 80.0939 27.5093 78.184 27.1152 75.636C26.7771 73.4552 27.167 71.4073 28.5417 69.626C29.9165 67.8445 31.7635 66.9661 33.9985 66.8815ZM78.8952 66.868C82.9422 66.96 86.2619 70.2995 86.2133 74.3537C86.1665 78.4583 82.895 81.6792 78.6895 81.6792C74.4986 81.6791 71.2216 78.4297 71.2051 74.2822C71.1889 70.1344 74.6753 66.7708 78.8952 66.868ZM68.5345 67.2178C69.3569 67.2358 70.1802 67.2178 71.0548 67.2178C70.8749 67.6585 70.7253 68.0634 70.567 68.4681C68.921 72.6669 67.276 76.8617 65.6336 81.051C65.6132 81.1432 65.5586 81.2239 65.4809 81.2776C65.4032 81.3313 65.3083 81.354 65.2148 81.3404C64.4231 81.3242 63.6329 81.326 62.8412 81.3404C62.7591 81.3532 62.6752 81.3362 62.6046 81.2924C62.534 81.2485 62.4805 81.1808 62.4556 81.1015C60.6141 76.5608 58.7672 72.0235 56.9137 67.4901C56.8166 67.2507 56.8776 67.2234 57.0936 67.2252C57.9392 67.236 58.7867 67.2378 59.6323 67.2252C59.7207 67.2129 59.811 67.2341 59.8848 67.2843C59.9586 67.3346 60.0116 67.4107 60.0327 67.4974C61.3354 70.8478 62.6436 74.196 63.9584 77.5416C64.0106 77.6621 64.0652 77.7906 64.1444 77.9813C64.3783 77.3605 64.5917 76.7985 64.8022 76.2371C65.8819 73.3417 66.9765 70.4494 68.0418 67.5504C68.0654 67.4423 68.1299 67.3475 68.2217 67.2856C68.3134 67.2237 68.4254 67.1993 68.5345 67.2178ZM46.1663 69.403C47.6059 66.6354 51.4452 66.3616 53.5164 67.4827C55.0046 68.2888 55.6886 69.6245 55.9172 71.2421C55.9652 71.6347 55.9835 72.0305 55.9739 72.4259V80.9992C55.9739 81.2763 55.9037 81.3489 55.6302 81.3417C54.9393 81.3201 54.2461 81.3237 53.5534 81.3417C53.3163 81.3416 53.2683 81.2744 53.2701 81.0497C53.2701 78.3127 53.2827 75.5756 53.2701 72.8385C53.2701 71.8201 53.0193 70.8701 52.2366 70.1557C51.3207 69.3208 50.2142 69.2472 49.077 69.4954C47.4036 69.8553 46.6128 71.0531 46.287 72.6328C46.1967 73.0968 46.1547 73.5693 46.1601 74.042V81.0312C46.1601 81.274 46.1074 81.3488 45.8559 81.3417C45.154 81.3237 44.4476 81.3237 43.7458 81.3417C43.4872 81.3415 43.444 81.2594 43.444 81.0239C43.4512 76.5181 43.4512 72.0118 43.444 67.5048C43.444 67.2764 43.4998 67.2063 43.7335 67.2117C44.4532 67.2273 45.1679 67.2273 45.8768 67.2117C46.1179 67.2117 46.1655 67.2872 46.1601 67.5085C46.1583 68.1167 46.1663 68.7212 46.1663 69.403ZM81.8367 70.5203C80.678 69.4931 79.3015 69.2127 77.81 69.4609C77.1078 69.554 76.4407 69.8261 75.8736 70.2505C75.3066 70.6749 74.8577 71.2378 74.5704 71.8851C74.1824 72.7424 74.0171 73.684 74.0887 74.6222C74.2347 77.3752 76.0574 79.1725 79.1921 79.1725C80.5793 79.131 82.0336 78.3829 82.8505 76.6288C83.3351 75.5581 83.4717 74.362 83.2422 73.2093C83.0623 72.1656 82.6411 71.2293 81.8367 70.5203ZM34.6871 69.0471C33.5684 68.9304 32.4474 69.2462 31.5547 69.9303C30.6618 70.6146 30.0649 71.6156 29.8868 72.7264C29.8364 73.0484 29.9224 73.1131 30.228 73.1095C31.5183 73.0933 32.8036 73.1034 34.0885 73.1034V73.1083H38.0081C38.1591 73.1083 38.3155 73.1456 38.2975 72.8903C38.1175 70.5079 36.7259 69.2252 34.6871 69.0471Z" fill="#4A2465"/>
</svg>
