<svg width="128" height="128" viewBox="0 0 128 128" fill="none" xmlns="http://www.w3.org/2000/svg">
<path d="M9 42.7619C9 40.132 11.132 38 13.7619 38H113.857C116.487 38 118.619 40.132 118.619 42.7619V83.2381C118.619 85.868 116.487 88 113.857 88H13.7619C11.132 88 9 85.868 9 83.2381V42.7619Z" fill="#F6F6F6"/>
<path d="M113.857 85.619V88H13.7619V85.619H113.857ZM116.238 83.2381V42.7619C116.238 41.4469 115.172 40.381 113.857 40.381H13.7619C12.4469 40.381 11.381 41.4469 11.381 42.7619V83.2381C11.381 84.5531 12.4469 85.619 13.7619 85.619V88L13.5166 87.9942C11.0819 87.8707 9.12935 85.9181 9.00581 83.4834L9 83.2381V42.7619C9 40.132 11.132 38 13.7619 38H113.857C116.487 38 118.619 40.132 118.619 42.7619V83.2381C118.619 85.7858 116.618 87.8665 114.102 87.9942L113.857 88V85.619C115.172 85.619 116.238 84.5531 116.238 83.2381Z" fill="#898989"/>
<path d="M93.021 64.4844V70.1391H91.0586V56.2812H93.021V61.7314C93.6969 60.6587 94.6734 60.1224 95.9507 60.1224C96.6266 60.1224 97.2311 60.2712 97.7643 60.5688C98.3038 60.8602 98.7285 61.2943 99.0385 61.8709C99.3485 62.4475 99.5035 63.1637 99.5035 64.0193V70.1391H97.5411V64.2612C97.5411 63.4737 97.352 62.8816 96.9738 62.4847C96.5956 62.0817 96.0685 61.8802 95.3927 61.8802C94.723 61.8802 94.1588 62.0879 93.7 62.5033C93.2473 62.9126 93.021 63.5729 93.021 64.4844Z" fill="black"/>
<path d="M89.5045 60.3192V61.9375H87.5141V67.5458C87.5141 67.9116 87.5885 68.1658 87.7374 68.3084C87.8862 68.451 88.1559 68.5223 88.5465 68.5223H89.5045V70.1406H88.2675C86.4508 70.1406 85.5424 69.3594 85.5424 67.7969V61.9375H83.8125V60.3192H85.5424V57.6406H87.5141V60.3192H89.5045Z" fill="black"/>
<path d="M78.5884 70.3616C77.6149 70.3616 76.7778 70.1415 76.0772 69.7013C75.3828 69.261 74.8464 68.6565 74.4682 67.8876C74.0962 67.1126 73.9102 66.2321 73.9102 65.2463C73.9102 64.248 74.1055 63.3614 74.4961 62.5863C74.8867 61.8113 75.4262 61.2036 76.1144 60.7634C76.8026 60.317 77.5932 60.0938 78.4861 60.0938C79.4161 60.0938 80.2222 60.3108 80.9042 60.7448C81.5925 61.1788 82.1257 61.7834 82.5039 62.5584C82.8821 63.3273 83.0712 64.217 83.0712 65.2277V65.7578H75.8447C75.8819 66.6445 76.1361 67.3606 76.6073 67.9063C77.0848 68.4519 77.7544 68.7247 78.6163 68.7247C79.2611 68.7247 79.7912 68.579 80.2067 68.2876C80.6221 67.9962 80.898 67.6179 81.0344 67.1529H82.9224C82.8046 67.7853 82.5411 68.3434 82.1319 68.827C81.7289 69.3106 81.2204 69.6889 80.6066 69.9617C79.9989 70.2283 79.3262 70.3616 78.5884 70.3616ZM75.8633 64.2697H81.1553C81.0747 63.4885 80.7988 62.8715 80.3276 62.4189C79.8563 61.9601 79.2487 61.7307 78.5047 61.7307C77.7606 61.7307 77.153 61.9601 76.6817 62.4189C76.2167 62.8715 75.9439 63.4885 75.8633 64.2697Z" fill="black"/>
<path fill-rule="evenodd" clip-rule="evenodd" d="M28.0469 74.8973V53.4688H39.6628C40.61 53.4688 41.5184 53.845 42.1882 54.5148L44.7135 57.0402H66.1421V71.3259C66.1421 73.2983 64.5431 74.8973 62.5707 74.8973H28.0469Z" fill="#23B82E"/>
<path d="M39.6633 53.4688C40.6103 53.4689 41.5188 53.8454 42.1884 54.5151L44.7135 57.0402H66.1421V71.3259C66.1421 73.2983 64.5431 74.8973 62.5707 74.8973H28.0469V53.4688H39.6633ZM29.2374 73.7068H62.5707C63.8857 73.7068 64.9516 72.6409 64.9516 71.3259V58.2307H44.2206L41.3467 55.3568C40.9003 54.9104 40.2946 54.6594 39.6633 54.6592H29.2374V73.7068Z" fill="#19A824"/>
<path d="M26.8555 51.0967C26.8555 50.4392 27.3885 49.9062 28.0459 49.9062V49.9062C28.7034 49.9062 29.2364 50.4392 29.2364 51.0967V76.0967C29.2364 76.7542 28.7034 77.2872 28.0459 77.2872V77.2872C27.3885 77.2872 26.8555 76.7542 26.8555 76.0967V51.0967Z" fill="black"/>
<path d="M35.1914 58.8326C35.1914 57.8464 35.9909 57.0469 36.9771 57.0469V57.0469C37.9633 57.0469 38.7628 57.8464 38.7628 58.8326V60.0231C38.7628 61.0093 37.9633 61.8088 36.9771 61.8088V61.8088C35.9909 61.8088 35.1914 61.0093 35.1914 60.0231V58.8326Z" fill="black"/>
<path d="M29.2383 57.0469H30.4288C31.7437 57.0469 32.8097 58.1129 32.8097 59.4278V59.4278C32.8097 60.7428 31.7437 61.8088 30.4288 61.8088H29.2383V57.0469Z" fill="black"/>
<path d="M59 52.2812H62.5714V57.0432H59V52.2812Z" fill="#FF8A00"/>
<path d="M51.8555 54.6622C51.8555 53.3472 52.9215 52.2812 54.2364 52.2812H55.4269V57.0432H51.8555V54.6622Z" fill="#FF8A00"/>
<path d="M62.5703 52.2812H63.7608C65.0758 52.2812 66.1417 53.3472 66.1417 54.6622V57.0432H62.5703V52.2812Z" fill="#FFC683"/>
<path d="M55.4297 52.2812H59.0011V57.0432H55.4297V52.2812Z" fill="#FFC683"/>
<path d="M59 61.8155C59 61.158 59.533 60.625 60.1905 60.625H61.381C62.0384 60.625 62.5714 61.158 62.5714 61.8155V70.1488C62.5714 70.8063 62.0384 71.3393 61.381 71.3393H60.1905C59.533 71.3393 59 70.8063 59 70.1488V61.8155Z" fill="black"/>
<path d="M48.2852 68.9561C48.2852 68.2986 48.8182 67.7656 49.4756 67.7656H54.2375C54.895 67.7656 55.428 68.2986 55.428 68.9561V70.1466C55.428 70.8041 54.895 71.3371 54.2375 71.3371H49.4756C48.8182 71.3371 48.2852 70.8041 48.2852 70.1466V68.9561Z" fill="black"/>
<path d="M48.2852 64.1905C48.2852 63.533 48.8182 63 49.4756 63H54.2375C54.895 63 55.428 63.533 55.428 64.1905V64.1905C55.428 64.848 54.895 65.381 54.2375 65.381H49.4756C48.8182 65.381 48.2852 64.848 48.2852 64.1905V64.1905Z" fill="#D3F8D6"/>
<path d="M37.5696 68.3512C37.5696 69.9949 36.2371 71.3274 34.5934 71.3274C32.9497 71.3274 31.6172 69.9949 31.6172 68.3512C31.6172 66.7075 32.9497 65.375 34.5934 65.375C36.2371 65.375 37.5696 66.7075 37.5696 68.3512Z" fill="#D3F8D6"/>
<path d="M44.716 64.7857C44.716 65.7719 43.9165 66.5714 42.9302 66.5714C41.944 66.5714 41.1445 65.7719 41.1445 64.7857C41.1445 63.7995 41.944 63 42.9302 63C43.9165 63 44.716 63.7995 44.716 64.7857Z" fill="#D3F8D6"/>
<path d="M44.716 69.5513C44.716 70.5376 43.9165 71.3371 42.9302 71.3371C41.944 71.3371 41.1445 70.5376 41.1445 69.5513C41.1445 68.5651 41.944 67.7656 42.9302 67.7656C43.9165 67.7656 44.716 68.5651 44.716 69.5513Z" fill="#D3F8D6"/>
</svg>
