<svg width="128" height="128" viewBox="0 0 128 128" fill="none" xmlns="http://www.w3.org/2000/svg">
<path d="M12 35.6667C12 31.9848 14.9848 29 18.6667 29H108.4C112.082 29 115.067 31.9848 115.067 35.6667V92.3333C115.067 96.0152 112.082 99 108.4 99H18.6667C14.9848 99 12 96.0152 12 92.3333V35.6667Z" fill="#F6F6F6"/>
<path d="M108.4 95.6667V99H18.6667V95.6667H108.4ZM111.733 92.3333V35.6667C111.733 33.8257 110.241 32.3333 108.4 32.3333H18.6667C16.8257 32.3333 15.3333 33.8257 15.3333 35.6667V92.3333C15.3333 94.1743 16.8257 95.6667 18.6667 95.6667V99L18.3232 98.9919C14.9147 98.8189 12.1811 96.0853 12.0081 92.6768L12 92.3333V35.6667C12 31.9848 14.9848 29 18.6667 29H108.4C112.082 29 115.067 31.9848 115.067 35.6667V92.3333C115.067 95.9001 112.266 98.8131 108.743 98.9919L108.4 99V95.6667C110.241 95.6667 111.733 94.1743 111.733 92.3333Z" fill="#898989"/>
<path fill-rule="evenodd" clip-rule="evenodd" d="M37.2656 80.6563V50.6562H53.5279C54.854 50.6562 56.1257 51.183 57.0634 52.1207L60.599 55.6563H90.599V75.6563C90.599 78.4177 88.3604 80.6563 85.599 80.6563H37.2656Z" fill="#23B82E"/>
<path d="M53.5287 50.6562C54.8545 50.6564 56.1263 51.1836 57.0638 52.1211L60.599 55.6563H90.599V75.6563C90.599 78.4177 88.3604 80.6563 85.599 80.6563H37.2656V50.6562H53.5287ZM38.9323 78.9896H85.599C87.4399 78.9896 88.9323 77.4972 88.9323 75.6563V57.3229H59.9089L55.8854 53.2995C55.2605 52.6745 54.4124 52.3231 53.5287 52.3229H38.9323V78.9896Z" fill="#19A824"/>
<path d="M35.5977 47.3346C35.5977 46.4142 36.3438 45.668 37.2643 45.668V45.668C38.1848 45.668 38.931 46.4142 38.931 47.3346V82.3346C38.931 83.2551 38.1848 84.0013 37.2643 84.0013V84.0013C36.3438 84.0013 35.5977 83.2551 35.5977 82.3346V47.3346Z" fill="black"/>
<path d="M47.2676 58.1641C47.2676 56.7834 48.3869 55.6641 49.7676 55.6641V55.6641C51.1483 55.6641 52.2676 56.7834 52.2676 58.1641V59.8307C52.2676 61.2114 51.1483 62.3307 49.7676 62.3307V62.3307C48.3869 62.3307 47.2676 61.2114 47.2676 59.8307V58.1641Z" fill="black"/>
<path d="M38.9336 55.6641H40.6003C42.4412 55.6641 43.9336 57.1564 43.9336 58.9974V58.9974C43.9336 60.8383 42.4412 62.3307 40.6003 62.3307H38.9336V55.6641Z" fill="black"/>
<path d="M80.5996 48.9922H85.5996V55.6589H80.5996V48.9922Z" fill="#FF8A00"/>
<path d="M70.5977 52.3255C70.5977 50.4846 72.09 48.9922 73.931 48.9922H75.5977V55.6589H70.5977V52.3255Z" fill="#FF8A00"/>
<path d="M85.5986 48.9922H87.2653C89.1062 48.9922 90.5986 50.4846 90.5986 52.3255V55.6589H85.5986V48.9922Z" fill="#FFC683"/>
<path d="M75.6016 48.9922H80.6016V55.6589H75.6016V48.9922Z" fill="#FFC683"/>
<path d="M80.5996 62.3424C80.5996 61.422 81.3458 60.6758 82.2663 60.6758H83.9329C84.8534 60.6758 85.5996 61.422 85.5996 62.3424V74.0091C85.5996 74.9296 84.8534 75.6758 83.9329 75.6758H82.2663C81.3458 75.6758 80.5996 74.9296 80.5996 74.0091V62.3424Z" fill="black"/>
<path d="M65.5996 72.3385C65.5996 71.4181 66.3458 70.6719 67.2663 70.6719H73.9329C74.8534 70.6719 75.5996 71.4181 75.5996 72.3385V74.0052C75.5996 74.9257 74.8534 75.6719 73.9329 75.6719H67.2663C66.3458 75.6719 65.5996 74.9257 65.5996 74.0052V72.3385Z" fill="black"/>
<path d="M65.5996 65.6667C65.5996 64.7462 66.3458 64 67.2663 64H73.9329C74.8534 64 75.5996 64.7462 75.5996 65.6667V65.6667C75.5996 66.5871 74.8534 67.3333 73.9329 67.3333H67.2663C66.3458 67.3333 65.5996 66.5871 65.5996 65.6667V65.6667Z" fill="#D3F8D6"/>
<path d="M50.597 71.4909C50.597 73.7921 48.7315 75.6576 46.4303 75.6576C44.1292 75.6576 42.2637 73.7921 42.2637 71.4909C42.2637 69.1897 44.1292 67.3242 46.4303 67.3242C48.7315 67.3242 50.597 69.1897 50.597 71.4909Z" fill="#D3F8D6"/>
<path d="M60.6025 66.5C60.6025 67.8807 59.4833 69 58.1025 69C56.7218 69 55.6025 67.8807 55.6025 66.5C55.6025 65.1193 56.7218 64 58.1025 64C59.4833 64 60.6025 65.1193 60.6025 66.5Z" fill="#D3F8D6"/>
<path d="M60.6025 73.1719C60.6025 74.5526 59.4833 75.6719 58.1025 75.6719C56.7218 75.6719 55.6025 74.5526 55.6025 73.1719C55.6025 71.7912 56.7218 70.6719 58.1025 70.6719C59.4833 70.6719 60.6025 71.7912 60.6025 73.1719Z" fill="#D3F8D6"/>
</svg>
