<svg width="128" height="128" viewBox="0 0 128 128" fill="none" xmlns="http://www.w3.org/2000/svg">
<path d="M3 42.7619C3 40.132 5.13198 38 7.76191 38H120.857C123.487 38 125.619 40.132 125.619 42.7619V83.2381C125.619 85.868 123.487 88 120.857 88H7.7619C5.13197 88 3 85.868 3 83.2381V42.7619Z" fill="#F6F6F6"/>
<path d="M120.857 85.619V88H7.76191V85.619H120.857ZM123.238 83.2381V42.7619C123.238 41.4469 122.172 40.381 120.857 40.381H7.76191C6.44694 40.381 5.38095 41.4469 5.38095 42.7619V83.2381C5.38095 84.5531 6.44694 85.619 7.76191 85.619V88L7.5166 87.9942C5.08191 87.8707 3.12935 85.9181 3.00581 83.4834L3 83.2381V42.7619C3 40.132 5.13198 38 7.76191 38H120.857C123.487 38 125.619 40.132 125.619 42.7619V83.2381C125.619 85.7858 123.618 87.8665 121.102 87.9942L120.857 88V85.619C122.172 85.619 123.238 84.5531 123.238 83.2381Z" fill="#898989"/>
<path d="M100.572 70.3668C99.4989 70.3668 98.572 70.0754 97.7907 69.4926C97.0157 68.9097 96.4173 68.0851 95.9957 67.0186C95.5741 65.9459 95.3633 64.6811 95.3633 63.224C95.3633 61.7607 95.5741 60.4927 95.9957 59.42C96.4173 58.3473 97.0157 57.5196 97.7907 56.9368C98.572 56.3539 99.4989 56.0625 100.572 56.0625C101.638 56.0625 102.559 56.3539 103.334 56.9368C104.115 57.5196 104.717 58.3473 105.138 59.42C105.56 60.4927 105.771 61.7607 105.771 63.224C105.771 64.6811 105.56 65.9459 105.138 67.0186C104.717 68.0851 104.115 68.9097 103.334 69.4926C102.559 70.0754 101.638 70.3668 100.572 70.3668ZM100.572 68.609C101.576 68.609 102.367 68.1316 102.943 67.1767C103.526 66.2156 103.818 64.8981 103.818 63.224C103.818 61.5437 103.526 60.223 102.943 59.2619C102.367 58.3008 101.576 57.8203 100.572 57.8203C99.561 57.8203 98.7642 58.3008 98.1814 59.2619C97.6047 60.223 97.3164 61.5437 97.3164 63.224C97.3164 64.8981 97.6047 66.2156 98.1814 67.1767C98.7642 68.1316 99.561 68.609 100.572 68.609Z" fill="black"/>
<path d="M87.021 64.4844V70.1391H85.0586V56.2812H87.021V61.7314C87.6969 60.6587 88.6734 60.1224 89.9507 60.1224C90.6266 60.1224 91.2311 60.2712 91.7643 60.5688C92.3038 60.8602 92.7285 61.2943 93.0385 61.8709C93.3485 62.4475 93.5035 63.1637 93.5035 64.0193V70.1391H91.5411V64.2612C91.5411 63.4737 91.352 62.8816 90.9738 62.4847C90.5956 62.0817 90.0685 61.8802 89.3927 61.8802C88.723 61.8802 88.1588 62.0879 87.7 62.5033C87.2473 62.9126 87.021 63.5729 87.021 64.4844Z" fill="black"/>
<path d="M83.5045 60.3192V61.9375H81.5141V67.5458C81.5141 67.9116 81.5885 68.1658 81.7374 68.3084C81.8862 68.451 82.1559 68.5223 82.5465 68.5223H83.5045V70.1406H82.2675C80.4508 70.1406 79.5424 69.3594 79.5424 67.7969V61.9375H77.8125V60.3192H79.5424V57.6406H81.5141V60.3192H83.5045Z" fill="black"/>
<path d="M72.5884 70.3616C71.6149 70.3616 70.7778 70.1415 70.0772 69.7013C69.3828 69.261 68.8464 68.6565 68.4682 67.8876C68.0962 67.1126 67.9102 66.2321 67.9102 65.2463C67.9102 64.248 68.1055 63.3614 68.4961 62.5863C68.8867 61.8113 69.4262 61.2036 70.1144 60.7634C70.8026 60.317 71.5932 60.0938 72.4861 60.0938C73.4161 60.0938 74.2222 60.3108 74.9042 60.7448C75.5925 61.1788 76.1257 61.7834 76.5039 62.5584C76.8821 63.3273 77.0712 64.217 77.0712 65.2277V65.7578H69.8447C69.8819 66.6445 70.1361 67.3606 70.6073 67.9063C71.0848 68.4519 71.7544 68.7247 72.6163 68.7247C73.2611 68.7247 73.7912 68.579 74.2067 68.2876C74.6221 67.9962 74.898 67.6179 75.0344 67.1529H76.9224C76.8046 67.7853 76.5411 68.3434 76.1319 68.827C75.7289 69.3106 75.2204 69.6889 74.6066 69.9617C73.9989 70.2283 73.3262 70.3616 72.5884 70.3616ZM69.8633 64.2697H75.1553C75.0747 63.4885 74.7988 62.8715 74.3276 62.4189C73.8563 61.9601 73.2487 61.7307 72.5047 61.7307C71.7606 61.7307 71.153 61.9601 70.6817 62.4189C70.2167 62.8715 69.9439 63.4885 69.8633 64.2697Z" fill="black"/>
<path fill-rule="evenodd" clip-rule="evenodd" d="M22.0469 74.8973V53.4688H33.6628C34.61 53.4688 35.5184 53.845 36.1882 54.5148L38.7135 57.0402H60.1421V71.3259C60.1421 73.2983 58.5431 74.8973 56.5707 74.8973H22.0469Z" fill="#23B82E"/>
<path d="M33.6633 53.4688C34.6103 53.4689 35.5188 53.8454 36.1884 54.5151L38.7135 57.0402H60.1421V71.3259C60.1421 73.2983 58.5431 74.8973 56.5707 74.8973H22.0469V53.4688H33.6633ZM23.2374 73.7068H56.5707C57.8857 73.7068 58.9516 72.6409 58.9516 71.3259V58.2307H38.2206L35.3467 55.3568C34.9003 54.9104 34.2946 54.6594 33.6633 54.6592H23.2374V73.7068Z" fill="#19A824"/>
<path d="M20.8555 51.0967C20.8555 50.4392 21.3885 49.9062 22.0459 49.9062V49.9062C22.7034 49.9062 23.2364 50.4392 23.2364 51.0967V76.0967C23.2364 76.7542 22.7034 77.2872 22.0459 77.2872V77.2872C21.3885 77.2872 20.8555 76.7542 20.8555 76.0967V51.0967Z" fill="black"/>
<path d="M29.1914 58.8326C29.1914 57.8464 29.9909 57.0469 30.9771 57.0469V57.0469C31.9633 57.0469 32.7628 57.8464 32.7628 58.8326V60.0231C32.7628 61.0093 31.9633 61.8088 30.9771 61.8088V61.8088C29.9909 61.8088 29.1914 61.0093 29.1914 60.0231V58.8326Z" fill="black"/>
<path d="M23.2383 57.0469H24.4288C25.7437 57.0469 26.8097 58.1129 26.8097 59.4278V59.4278C26.8097 60.7428 25.7437 61.8088 24.4288 61.8088H23.2383V57.0469Z" fill="black"/>
<path d="M53 52.2812H56.5714V57.0432H53V52.2812Z" fill="#FF8A00"/>
<path d="M45.8555 54.6622C45.8555 53.3472 46.9215 52.2812 48.2364 52.2812H49.4269V57.0432H45.8555V54.6622Z" fill="#FF8A00"/>
<path d="M56.5703 52.2812H57.7608C59.0758 52.2812 60.1417 53.3472 60.1417 54.6622V57.0432H56.5703V52.2812Z" fill="#FFC683"/>
<path d="M49.4297 52.2812H53.0011V57.0432H49.4297V52.2812Z" fill="#FFC683"/>
<path d="M53 61.8155C53 61.158 53.533 60.625 54.1905 60.625H55.381C56.0384 60.625 56.5714 61.158 56.5714 61.8155V70.1488C56.5714 70.8063 56.0384 71.3393 55.381 71.3393H54.1905C53.533 71.3393 53 70.8063 53 70.1488V61.8155Z" fill="black"/>
<path d="M42.2852 68.9561C42.2852 68.2986 42.8182 67.7656 43.4756 67.7656H48.2375C48.895 67.7656 49.428 68.2986 49.428 68.9561V70.1466C49.428 70.8041 48.895 71.3371 48.2375 71.3371H43.4756C42.8182 71.3371 42.2852 70.8041 42.2852 70.1466V68.9561Z" fill="black"/>
<path d="M42.2852 64.1905C42.2852 63.533 42.8182 63 43.4756 63H48.2375C48.895 63 49.428 63.533 49.428 64.1905V64.1905C49.428 64.848 48.895 65.381 48.2375 65.381H43.4756C42.8182 65.381 42.2852 64.848 42.2852 64.1905V64.1905Z" fill="#D3F8D6"/>
<path d="M31.5696 68.3512C31.5696 69.9949 30.2371 71.3274 28.5934 71.3274C26.9497 71.3274 25.6172 69.9949 25.6172 68.3512C25.6172 66.7075 26.9497 65.375 28.5934 65.375C30.2371 65.375 31.5696 66.7075 31.5696 68.3512Z" fill="#D3F8D6"/>
<path d="M38.716 64.7857C38.716 65.7719 37.9165 66.5714 36.9302 66.5714C35.944 66.5714 35.1445 65.7719 35.1445 64.7857C35.1445 63.7995 35.944 63 36.9302 63C37.9165 63 38.716 63.7995 38.716 64.7857Z" fill="#D3F8D6"/>
<path d="M38.716 69.5513C38.716 70.5376 37.9165 71.3371 36.9302 71.3371C35.944 71.3371 35.1445 70.5376 35.1445 69.5513C35.1445 68.5651 35.944 67.7656 36.9302 67.7656C37.9165 67.7656 38.716 68.5651 38.716 69.5513Z" fill="#D3F8D6"/>
</svg>
