<svg width="128" height="128" viewBox="0 0 128 128" fill="none" xmlns="http://www.w3.org/2000/svg">
<path d="M2 38.7328C2 36.119 4.11896 34 6.73282 34H121.267C123.881 34 126 36.119 126 38.7328V89.8473C126 92.4612 123.881 94.5802 121.267 94.5802H6.73283C4.11896 94.5802 2 92.4612 2 89.8473V38.7328Z" fill="white"/>
<path d="M121.267 92.687V94.5802H6.73282V92.687H121.267ZM124.107 89.8473V38.7328C124.107 37.1645 122.835 35.8931 121.267 35.8931H6.73282C5.1645 35.8931 3.89313 37.1645 3.89313 38.7328V89.8473C3.89313 91.4156 5.1645 92.687 6.73282 92.687V94.5802C4.2005 94.5801 2.13302 92.5913 2.00647 90.0904L2 89.8473V38.7328C2 36.2005 3.98883 34.133 6.48971 34.0065L6.73282 34H121.267L121.51 34.0065C124.011 34.133 126 36.2005 126 38.7328V89.8473C126 92.4612 123.881 94.5802 121.267 94.5802V92.687C122.835 92.687 124.107 91.4156 124.107 89.8473Z" fill="#BFD4E8"/>
<path d="M103.233 76.7505C101.587 76.7505 100.403 75.9634 100.295 74.5995H102.037C102.103 75.1523 102.512 75.4828 103.203 75.4828C103.858 75.4828 104.261 75.2064 104.261 74.8158C104.261 74.4793 103.954 74.2811 103.437 74.1789L102.326 73.9626C101.094 73.7223 100.439 73.0974 100.439 72.112C100.439 70.9103 101.479 70.1172 103.131 70.1172C104.771 70.1172 105.853 70.9403 105.889 72.2622H104.248C104.236 71.7515 103.804 71.373 103.179 71.373C102.572 71.373 102.206 71.6674 102.206 72.0459C102.206 72.3704 102.488 72.5807 102.975 72.6828L104.176 72.9171C105.456 73.1695 106.045 73.7223 106.045 74.6536C106.045 75.9214 104.891 76.7505 103.233 76.7505Z" fill="black"/>
<path d="M96.8293 76.7505C95.1829 76.7505 93.9993 75.9634 93.8911 74.5995H95.6336C95.6997 75.1523 96.1082 75.4828 96.7992 75.4828C97.4541 75.4828 97.8567 75.2064 97.8567 74.8158C97.8567 74.4793 97.5503 74.2811 97.0335 74.1789L95.922 73.9626C94.6902 73.7223 94.0353 73.0974 94.0353 72.112C94.0353 70.9103 95.0748 70.1172 96.7271 70.1172C98.3674 70.1172 99.4489 70.9403 99.485 72.2622H97.8447C97.8327 71.7515 97.4001 71.373 96.7752 71.373C96.1683 71.373 95.8018 71.6674 95.8018 72.0459C95.8018 72.3704 96.0842 72.5807 96.5709 72.6828L97.7726 72.9171C99.0524 73.1695 99.6412 73.7223 99.6412 74.6536C99.6412 75.9214 98.4876 76.7505 96.8293 76.7505Z" fill="black"/>
<path d="M90.1774 76.7388C88.2546 76.7388 87.0049 75.3569 87.0049 73.4282C87.0049 71.4934 88.2967 70.1055 90.1173 70.1055C91.9859 70.1055 93.2417 71.4574 93.2417 73.3921V73.8668H88.7293C88.7594 74.8041 89.3001 75.4109 90.2314 75.4109C90.9224 75.4109 91.3971 75.0925 91.5593 74.5998H93.1756C92.9412 75.8616 91.7155 76.7388 90.1774 76.7388ZM88.7413 72.7372H91.5713C91.4812 71.9441 90.9524 71.4514 90.1533 71.4514C89.3602 71.4514 88.8375 71.9441 88.7413 72.7372Z" fill="black"/>
<path d="M83.352 76.7388C81.4413 76.7388 80.1675 75.3929 80.1675 73.4282C80.1675 71.4634 81.4473 70.1055 83.352 70.1055C85.0223 70.1055 86.218 71.1449 86.3322 72.623H84.6198C84.5296 71.9741 84.085 71.5355 83.376 71.5355C82.4807 71.5355 81.952 72.2685 81.952 73.4282C81.952 74.5818 82.4867 75.3088 83.376 75.3088C84.091 75.3088 84.4936 74.8762 84.6077 74.2093H86.3322C86.2541 75.6753 85.0403 76.7388 83.352 76.7388Z" fill="black"/>
<path d="M76.5141 76.7388C74.6034 76.7388 73.3296 75.3929 73.3296 73.4282C73.3296 71.4634 74.6094 70.1055 76.5141 70.1055C78.1844 70.1055 79.3801 71.1449 79.4943 72.623H77.7819C77.6917 71.9741 77.2471 71.5355 76.5381 71.5355C75.6428 71.5355 75.1141 72.2685 75.1141 73.4282C75.1141 74.5818 75.6489 75.3088 76.5381 75.3088C77.2531 75.3088 77.6557 74.8762 77.7698 74.2093H79.4943C79.4162 75.6753 78.2025 76.7388 76.5141 76.7388Z" fill="black"/>
<path d="M64.5278 76.5972L67.6703 67.6445H70.0496L73.192 76.5972H71.1432L70.5183 74.6444H67.1716L66.5226 76.5972H64.5278ZM67.6703 73.1663H70.0376L69.7372 72.241C69.4608 71.3277 69.1844 70.4144 68.8659 69.3029C68.5415 70.4144 68.2651 71.3277 67.9767 72.241L67.6703 73.1663Z" fill="black"/>
<path d="M81.213 62.5376C79.2903 62.5376 78.0405 61.1557 78.0405 59.227C78.0405 57.2923 79.3323 55.9043 81.1529 55.9043C83.0215 55.9043 84.2773 57.2562 84.2773 59.1909V59.6656H79.765C79.795 60.6029 80.3358 61.2098 81.2671 61.2098C81.958 61.2098 82.4327 60.8913 82.5949 60.3986H84.2112C83.9769 61.6604 82.7512 62.5376 81.213 62.5376ZM79.777 58.536H82.607C82.5168 57.7429 81.9881 57.2502 81.189 57.2502C80.3958 57.2502 79.8731 57.7429 79.777 58.536Z" fill="black"/>
<path d="M77.0606 53.4434V62.396H75.2881V53.4434H77.0606Z" fill="black"/>
<path d="M72.26 62.396V56.051H74.0325V62.396H72.26ZM73.1432 55.2519C72.5604 55.2519 72.1338 54.8493 72.1338 54.3086C72.1338 53.7678 72.5604 53.3652 73.1432 53.3652C73.726 53.3652 74.1526 53.7678 74.1526 54.3086C74.1526 54.8493 73.726 55.2519 73.1432 55.2519Z" fill="black"/>
<path d="M65.1406 62.396V53.4434H71.3654V55.0296H66.9912V57.2287H71.065V58.7669H66.9912V62.396H65.1406Z" fill="black"/>
<path d="M19.0376 50.0943C19.0376 49.0488 19.8852 48.2012 20.9307 48.2012H29.01L33.1815 53.4073H49.4733C50.5188 53.4073 51.3664 54.2549 51.3664 55.3004V76.5981C51.3664 77.6437 50.5188 78.4912 49.4733 78.4912H20.9307C19.8852 78.4912 19.0376 77.6437 19.0376 76.5981V50.0943Z" fill="#2A70FE"/>
<path d="M19.0376 55.9141H51.3664V76.5929C51.3664 77.6384 50.5188 78.486 49.4733 78.486H20.9307C19.8852 78.486 19.0376 77.6384 19.0376 76.5929V55.9141Z" fill="url(#paint0_linear_220_12220)"/>
<defs>
<linearGradient id="paint0_linear_220_12220" x1="27.3647" y1="55.9141" x2="35.8648" y2="78.2336" gradientUnits="userSpaceOnUse">
<stop stop-color="#A2C6FF"/>
<stop offset="1" stop-color="#226AFE"/>
</linearGradient>
</defs>
</svg>
