<svg width="128" height="128" viewBox="0 0 128 128" fill="none" xmlns="http://www.w3.org/2000/svg">
<path d="M2 42.0523C2 39.8143 3.81427 38 6.05229 38H121.948C124.186 38 126 39.8143 126 42.0523V85.817C126 88.055 124.186 89.8693 121.948 89.8693H6.05229C3.81427 89.8693 2 88.055 2 85.817V42.0523Z" fill="white"/>
<path d="M121.948 88.2484V89.8693H6.05229V88.2484H121.948ZM124.379 85.817V42.0523C124.379 40.7095 123.291 39.6209 121.948 39.6209H6.05229C4.70948 39.6209 3.62092 40.7095 3.62092 42.0523V85.817C3.62092 87.1598 4.70948 88.2484 6.05229 88.2484V89.8693L5.84413 89.8637C3.77181 89.7589 2.1104 88.0975 2.00554 86.0251L2 85.817V42.0523C2 39.8143 3.81427 38 6.05229 38H121.948C124.186 38 126 39.8143 126 42.0523V85.817C126 87.9852 124.297 89.7554 122.156 89.8637L121.948 89.8693V88.2484C123.291 88.2484 124.379 87.1598 124.379 85.817Z" fill="#BFD4E8"/>
<path d="M96.3268 75.4044C94.3616 75.4044 93.2144 74.4321 93.2144 72.7653H94.7423C94.7629 73.609 95.3545 74.1029 96.3371 74.1029C97.2168 74.1029 97.7981 73.717 97.7981 73.1203C97.7981 72.6264 97.3968 72.3383 96.4245 72.1274L95.6168 71.9525C94.0992 71.6232 93.3635 70.9184 93.3635 69.8226C93.3635 68.4285 94.5313 67.4922 96.2753 67.4922C98.0399 67.4922 99.1357 68.4233 99.182 69.9667H97.7004C97.6438 69.2413 97.1036 68.7937 96.2805 68.7937C95.4985 68.7937 94.9481 69.1847 94.9481 69.7455C94.9481 70.2188 95.3287 70.4811 96.2702 70.6869L97.0059 70.8464C98.6418 71.1911 99.3672 71.865 99.3672 73.0174C99.3672 74.4939 98.2148 75.4044 96.3268 75.4044Z" fill="black"/>
<path d="M87.5605 75.2825V67.6172H89.1451V73.9244H92.6279V75.2825H87.5605Z" fill="black"/>
<path d="M80.5229 68.9753V67.6172H86.7529V68.9753H84.4328V75.2825H82.8483V68.9753H80.5229Z" fill="black"/>
<path d="M76.0166 76.8865L76.3973 74.0312H77.8532L77.0764 76.8865H76.0166Z" fill="black"/>
<path d="M72.3741 75.4044C70.4089 75.4044 69.2617 74.4321 69.2617 72.7653H70.7896C70.8102 73.609 71.4018 74.1029 72.3844 74.1029C73.2641 74.1029 73.8455 73.717 73.8455 73.1203C73.8455 72.6264 73.4442 72.3383 72.4719 72.1274L71.6642 71.9525C70.1466 71.6232 69.4109 70.9184 69.4109 69.8226C69.4109 68.4285 70.5787 67.4922 72.3227 67.4922C74.0873 67.4922 75.183 68.4233 75.2293 69.9667H73.7477C73.6911 69.2413 73.151 68.7937 72.3278 68.7937C71.5459 68.7937 70.9954 69.1847 70.9954 69.7455C70.9954 70.2188 71.3761 70.4811 72.3176 70.6869L73.0532 70.8464C74.6892 71.1911 75.4145 71.865 75.4145 73.0174C75.4145 74.4939 74.2622 75.4044 72.3741 75.4044Z" fill="black"/>
<path d="M61.8276 75.2825V67.6172H63.4945L65.9587 71.5373C66.1387 71.8254 66.468 72.4067 66.7715 72.9572C66.7509 72.3656 66.7458 71.7328 66.7458 71.4087V67.6172H68.3251V75.2825H66.6532L64.4205 71.7328C64.1993 71.383 63.8083 70.7193 63.3761 69.9425C63.407 70.745 63.4121 71.3984 63.4121 71.7276V75.2825H61.8276Z" fill="black"/>
<path d="M57.1464 75.2825H54.4404V67.6172H57.1773C59.482 67.6172 60.9328 69.0937 60.9328 71.4447C60.9328 73.806 59.4975 75.2825 57.1464 75.2825ZM56.0249 73.9501H57.0641C58.6126 73.9501 59.338 73.0601 59.338 71.4447C59.338 69.8345 58.6023 68.9496 57.0796 68.9496H56.0249V73.9501Z" fill="black"/>
<path d="M81.3154 64.7282L81.6961 61.873H83.152L82.3752 64.7282H81.3154Z" fill="black"/>
<path d="M75.4092 63.1243V55.459H78.4341C80.1576 55.459 81.2379 56.4313 81.2379 57.9746C81.2379 59.518 80.137 60.4903 78.4136 60.4903H76.9937V63.1243H75.4092ZM76.9937 59.163H78.3313C79.1698 59.163 79.6894 58.7052 79.6894 57.9746C79.6894 57.2441 79.1698 56.7863 78.3313 56.7863H76.9937V59.163Z" fill="black"/>
<path d="M68.3716 56.8171V55.459H74.6016V56.8171H72.2814V63.1243H70.6969V56.8171H68.3716Z" fill="black"/>
<path d="M61.6733 56.8171V55.459H67.9033V56.8171H65.5832V63.1243H63.9987V56.8171H61.6733Z" fill="black"/>
<path d="M54.4404 63.1243V55.459H56.0249V58.5354H59.2814V55.459H60.8608V63.1243H59.2814V59.8935H56.0249V63.1243H54.4404Z" fill="black"/>
<path d="M14.9673 64.3376C14.9673 56.5081 21.327 50.1517 29.1558 50.1563C36.9782 50.1608 43.3542 56.5192 43.3372 64.4087C43.3203 72.1789 36.956 78.5203 29.1461 78.5223C21.3426 78.5242 14.9686 72.186 14.9673 64.3376ZM29.1174 77.2278C29.8885 77.2147 30.0899 77.0361 30.1753 76.2605C30.2111 75.932 30.3786 75.7456 30.711 75.7149C30.8192 75.7052 30.9274 75.6993 31.035 75.6876C31.3909 75.6478 31.5421 75.4738 31.4919 75.1198C31.4613 74.9067 31.3785 74.702 31.3335 74.4902C31.2051 73.8944 31.4619 73.502 32.0636 73.4401C32.4677 73.3984 32.6619 73.1794 32.7466 72.8203C32.8542 72.3666 32.9396 71.9077 33.0582 71.4573C33.2564 70.7064 33.592 70.2639 34.4498 70.2684C34.7816 70.2704 34.9921 70.0774 35.0612 69.7496C35.0951 69.5905 35.1316 69.4295 35.1362 69.2686C35.1499 68.8325 35.3337 68.4844 35.6211 68.1644C35.8512 67.9082 36.0748 67.6345 36.239 67.334C36.4815 66.8901 36.3218 66.5792 35.8232 66.4703C35.4529 66.3895 35.0762 66.34 34.7008 66.2852C33.8326 66.1588 33.0915 65.8687 32.744 64.9529C32.6697 64.7567 32.4383 64.5944 32.2441 64.4745C31.7768 64.1858 31.2846 63.9368 30.8095 63.6604C30.393 63.4179 30.1674 63.4375 29.7848 63.7419C29.5997 63.8892 29.3996 64.0248 29.1884 64.131C28.6898 64.3826 28.5405 64.3363 28.2218 63.8788C27.9689 63.5164 27.6221 63.4101 27.2317 63.6219C26.8087 63.8514 26.4697 64.1766 26.4078 64.6844C26.3518 65.1465 26.3113 65.6126 26.3074 66.0773C26.3029 66.6248 26.1275 67.1098 25.9203 67.6064C25.7795 67.9428 25.6595 68.3508 25.7182 68.6956C25.9242 69.9132 26.4254 70.943 27.7179 71.3876C28.4753 71.6483 28.8384 72.2584 28.8162 73.0249C28.7999 73.5894 28.6461 74.1532 28.5249 74.7105C28.403 75.2697 28.2179 75.816 28.1142 76.3778C28.0458 76.7467 28.2537 77.0485 28.5725 77.1463C28.7458 77.1997 28.9349 77.2017 29.1167 77.2271L29.1174 77.2278ZM24.2008 59.9855C24.2497 59.788 24.3266 59.4517 24.4178 59.1193C24.6486 58.281 24.8598 58.1487 25.6726 58.4746C26.2618 58.7106 26.8126 59.0443 27.3816 59.3311C27.8268 59.556 27.9624 59.5012 28.0471 59.0182C28.126 58.5704 28.1964 58.1174 28.214 57.6644C28.2322 57.1945 28.461 56.9122 28.8762 56.7708C29.3566 56.6065 29.8578 56.499 30.3317 56.3191C30.874 56.1131 31.4261 55.9032 31.9169 55.6028C32.3432 55.342 32.2793 54.8499 31.8315 54.6133C31.6373 54.511 31.3981 54.4386 31.1817 54.4445C30.5109 54.4621 29.8402 54.5123 29.1721 54.5736C28.884 54.5996 28.6507 54.7359 28.4923 55.0122C28.3763 55.2136 28.2075 55.3981 28.0249 55.5428C27.8503 55.6816 27.6006 55.8205 27.4018 55.6308C26.9723 55.2208 26.6255 54.7574 26.7031 54.101C26.7272 53.9002 26.7311 53.6864 26.6894 53.4902C26.5994 53.0679 26.2846 52.9525 25.9392 53.2028C25.8003 53.3038 25.6661 53.4225 25.5624 53.558C25.3838 53.7914 25.2111 53.794 24.9908 53.6213C24.7692 53.4479 24.5332 53.2934 24.3012 53.1331C23.8788 52.841 23.4401 52.8026 22.9852 53.0542C21.7122 53.7581 20.5741 54.6342 19.6127 55.7279C19.0209 56.4012 19.1037 57.3287 19.8545 57.8209C20.6054 58.3136 21.0845 58.9452 21.2787 59.8219C21.3706 60.2365 21.4417 60.2586 21.8543 60.1452C22.16 60.0611 22.392 60.1426 22.5648 60.3896C22.6879 60.5663 22.774 60.7696 22.8985 60.945C23.2733 61.4723 23.6383 62.0094 24.0515 62.5054C24.1773 62.656 24.4563 62.7726 24.6505 62.7531C25.0292 62.7159 25.4197 62.6195 25.7638 62.4598C26.1751 62.2688 26.1595 61.8119 25.7586 61.5981C25.5311 61.4768 25.2789 61.4019 25.0338 61.3158C24.5006 61.1288 24.1962 60.7012 24.2008 59.9868V59.9855ZM42.0356 64.3148L42.0897 64.3044C41.9665 63.3938 41.8843 62.4748 41.7097 61.574C41.4476 60.2241 40.9249 58.9635 40.2157 57.7844C40.0078 57.4382 39.7223 57.2675 39.4133 57.375C38.9857 57.5236 38.5399 57.712 38.345 58.1598C38.0172 58.9126 37.7317 59.685 37.4331 60.4509C37.3126 60.7592 37.3699 61.0421 37.5694 61.3048C38.0445 61.9292 38.1997 62.5973 37.8581 63.343C37.7121 63.6611 37.774 63.9778 37.9324 64.2796C38.2772 64.9379 38.6455 65.5722 39.3801 65.8811C39.5183 65.9391 39.648 66.0278 39.764 66.1242C40.1733 66.4638 40.6439 66.5042 41.1452 66.4378C41.6164 66.3758 41.8909 66.1255 41.9443 65.6445C41.9932 65.2032 42.0069 64.7587 42.0362 64.3155L42.0356 64.3148Z" fill="url(#paint0_linear_222_12614)"/>
<path d="M29.7798 63.7431C30.1624 63.4381 30.3883 63.4191 30.8048 63.6616C31.2799 63.9379 31.7716 64.1873 32.2389 64.476C32.4331 64.5959 32.6648 64.7579 32.7391 64.954C33.0865 65.8698 33.8268 66.1597 34.6956 66.2868C35.0709 66.3416 35.4478 66.3911 35.8179 66.4713C36.3165 66.5795 36.4767 66.8917 36.2342 67.3355C36.07 67.636 35.8461 67.9097 35.6161 68.1658C35.3287 68.4858 35.1439 68.8332 35.1309 69.2699C35.1257 69.4308 35.0904 69.5927 35.0565 69.7511C34.9867 70.0788 34.7764 70.2714 34.4447 70.2695C33.5871 70.2649 33.2515 70.7069 33.0533 71.4583C32.9347 71.9086 32.849 72.3676 32.7415 72.8212C32.6561 73.1803 32.4626 73.3999 32.0585 73.4417C31.457 73.5036 31.2011 73.8955 31.3287 74.4911C31.3744 74.703 31.457 74.908 31.487 75.1211C31.5378 75.4749 31.3866 75.6488 31.0303 75.6886C30.9228 75.7004 30.8134 75.7066 30.7058 75.7163C30.3736 75.747 30.2059 75.9339 30.17 76.2616C30.0846 77.0372 29.8835 77.2157 29.1126 77.2288L29.1118 77.228C28.93 77.2026 28.7407 77.2007 28.5673 77.1473C28.2487 77.0495 28.0406 76.7476 28.1091 76.3788C28.2133 75.8171 28.3986 75.2711 28.5198 74.712C28.6411 74.154 28.7948 73.5906 28.8111 73.0261C28.8332 72.2596 28.4706 71.6493 27.7125 71.3886C26.4203 70.944 25.9193 69.9143 25.7133 68.6968C25.6553 68.3527 25.775 67.9441 25.9151 67.6078C26.1224 67.1112 26.2982 66.6261 26.3021 66.0787C26.3061 65.614 26.3466 65.1472 26.4027 64.6857C26.4646 64.178 26.8029 63.8522 27.2266 63.6228C27.617 63.4117 27.9645 63.5176 28.2167 63.88C28.5354 64.3375 28.6847 64.3845 29.1831 64.1325C29.3936 64.0262 29.5947 63.8904 29.7798 63.7431ZM39.4175 57.3742C39.7263 57.2668 40.0121 57.4382 40.22 57.7842C40.9291 58.9632 41.4515 60.224 41.7135 61.5737C41.8882 62.4744 41.9702 63.3937 42.0934 64.3042L42.0396 64.3145L42.0404 64.3153C42.0111 64.7584 41.9974 65.2037 41.9486 65.6442C41.8951 66.1257 41.6197 66.3753 41.1492 66.4372C40.6487 66.503 40.178 66.4633 39.7681 66.1238C39.6521 66.028 39.5223 65.9388 39.3842 65.8808C38.6496 65.5719 38.2815 64.9372 37.9366 64.2789C37.7783 63.9765 37.7163 63.6607 37.8622 63.3426C38.2031 62.5977 38.0477 61.9289 37.5734 61.3046C37.3739 61.042 37.3167 60.7588 37.4372 60.4506C37.7364 59.6847 38.0211 58.9128 38.349 58.1593C38.5439 57.7115 38.9899 57.5228 39.4175 57.3742ZM22.9851 53.0536C23.4399 52.8021 23.8783 52.8402 24.3005 53.1319C24.5319 53.2923 24.7691 53.4469 24.9907 53.6203C25.2116 53.7936 25.3842 53.7903 25.5621 53.557C25.6658 53.4214 25.8001 53.3019 25.9389 53.2016C26.2843 52.9515 26.5992 53.0674 26.6892 53.4897C26.7308 53.6857 26.7267 53.8993 26.7026 54.0999C26.6251 54.7562 26.972 55.2198 27.4015 55.6298C27.6002 55.8194 27.8497 55.6801 28.0244 55.5419C28.2068 55.3966 28.3768 55.213 28.4921 55.0117C28.6512 54.7353 28.8839 54.5985 29.172 54.5724C29.8407 54.5118 30.5109 54.461 31.1815 54.4434C31.3979 54.4376 31.6371 54.5105 31.8313 54.6128C32.2789 54.8494 32.343 55.3414 31.9168 55.6021C31.4253 55.9026 30.8731 56.1124 30.3315 56.3184C29.8576 56.4989 29.357 56.6067 28.876 56.7703C28.4615 56.9117 28.2324 57.1939 28.2135 57.6639C28.1959 58.1167 28.1254 58.5696 28.0465 59.0173C27.9618 59.5008 27.8268 59.5547 27.3817 59.3299C26.8127 59.0424 26.262 58.7095 25.6721 58.4735C24.8595 58.1477 24.6477 58.2804 24.4177 59.1186C24.3265 59.4508 24.2497 59.7876 24.2008 59.9844V59.986C24.1963 60.7003 24.5003 61.1278 25.0334 61.3149C25.2785 61.4009 25.5309 61.4762 25.7584 61.5974C26.1591 61.8113 26.1744 62.2676 25.7632 62.4585C25.4191 62.6188 25.029 62.715 24.6504 62.7522C24.4561 62.7711 24.177 62.655 24.0512 62.5044C23.6381 62.0085 23.2728 61.4724 22.8981 60.9445C22.7736 60.7692 22.688 60.5655 22.5649 60.3889C22.3922 60.1412 22.1598 60.0603 21.8541 60.1443C21.4417 60.2577 21.3706 60.2356 21.2787 59.8214C21.0845 58.9447 20.605 58.3119 19.8541 57.8198C19.1034 57.3276 19.0209 56.4004 19.6127 55.7272C20.5741 54.6328 21.7122 53.7569 22.9851 53.0536Z" fill="#276BF0"/>
<defs>
<linearGradient id="paint0_linear_222_12614" x1="19.2734" y1="78.5223" x2="45.8957" y2="67" gradientUnits="userSpaceOnUse">
<stop stop-color="#3679FE"/>
<stop offset="1" stop-color="#A3C5FF"/>
</linearGradient>
</defs>
</svg>
