<svg width="128" height="128" viewBox="0 0 128 128" fill="none" xmlns="http://www.w3.org/2000/svg">
<path d="M2 42.0523C2 39.8143 3.81427 38 6.05229 38H121.948C124.186 38 126 39.8143 126 42.0523V85.817C126 88.055 124.186 89.8693 121.948 89.8693H6.05229C3.81427 89.8693 2 88.055 2 85.817V42.0523Z" fill="white"/>
<path d="M121.948 88.2484V89.8693H6.05229V88.2484H121.948ZM124.379 85.817V42.0523C124.379 40.7095 123.291 39.6209 121.948 39.6209H6.05229C4.70948 39.6209 3.62092 40.7095 3.62092 42.0523V85.817C3.62092 87.1598 4.70948 88.2484 6.05229 88.2484V89.8693L5.84413 89.8637C3.77181 89.7589 2.1104 88.0975 2.00554 86.0251L2 85.817V42.0523C2 39.8143 3.81427 38 6.05229 38H121.948C124.186 38 126 39.8143 126 42.0523V85.817C126 87.9852 124.297 89.7554 122.156 89.8637L121.948 89.8693V88.2484C123.291 88.2484 124.379 87.1598 124.379 85.817Z" fill="#BFD4E8"/>
<path d="M96.3268 75.4044C94.3616 75.4044 93.2144 74.4321 93.2144 72.7653H94.7423C94.7629 73.609 95.3545 74.1029 96.3371 74.1029C97.2168 74.1029 97.7981 73.717 97.7981 73.1203C97.7981 72.6264 97.3968 72.3383 96.4245 72.1274L95.6168 71.9525C94.0992 71.6232 93.3635 70.9184 93.3635 69.8226C93.3635 68.4285 94.5313 67.4922 96.2753 67.4922C98.0399 67.4922 99.1357 68.4233 99.182 69.9667H97.7004C97.6438 69.2413 97.1036 68.7937 96.2805 68.7937C95.4985 68.7937 94.9481 69.1847 94.9481 69.7455C94.9481 70.2188 95.3287 70.4811 96.2702 70.6869L97.0059 70.8464C98.6418 71.1911 99.3672 71.865 99.3672 73.0174C99.3672 74.4939 98.2148 75.4044 96.3268 75.4044Z" fill="black"/>
<path d="M87.5605 75.2825V67.6172H89.1451V73.9244H92.6279V75.2825H87.5605Z" fill="black"/>
<path d="M80.5229 68.9753V67.6172H86.7529V68.9753H84.4328V75.2825H82.8483V68.9753H80.5229Z" fill="black"/>
<path d="M76.0166 76.8865L76.3973 74.0312H77.8532L77.0764 76.8865H76.0166Z" fill="black"/>
<path d="M72.3741 75.4044C70.4089 75.4044 69.2617 74.4321 69.2617 72.7653H70.7896C70.8102 73.609 71.4018 74.1029 72.3844 74.1029C73.2641 74.1029 73.8455 73.717 73.8455 73.1203C73.8455 72.6264 73.4442 72.3383 72.4719 72.1274L71.6642 71.9525C70.1466 71.6232 69.4109 70.9184 69.4109 69.8226C69.4109 68.4285 70.5787 67.4922 72.3227 67.4922C74.0873 67.4922 75.183 68.4233 75.2293 69.9667H73.7477C73.6911 69.2413 73.151 68.7937 72.3278 68.7937C71.5459 68.7937 70.9954 69.1847 70.9954 69.7455C70.9954 70.2188 71.3761 70.4811 72.3176 70.6869L73.0532 70.8464C74.6892 71.1911 75.4145 71.865 75.4145 73.0174C75.4145 74.4939 74.2622 75.4044 72.3741 75.4044Z" fill="black"/>
<path d="M61.8276 75.2825V67.6172H63.4945L65.9587 71.5373C66.1387 71.8254 66.468 72.4067 66.7715 72.9572C66.7509 72.3656 66.7458 71.7328 66.7458 71.4087V67.6172H68.3251V75.2825H66.6532L64.4205 71.7328C64.1993 71.383 63.8083 70.7193 63.3761 69.9425C63.407 70.745 63.4121 71.3984 63.4121 71.7276V75.2825H61.8276Z" fill="black"/>
<path d="M57.1464 75.2825H54.4404V67.6172H57.1773C59.482 67.6172 60.9328 69.0937 60.9328 71.4447C60.9328 73.806 59.4975 75.2825 57.1464 75.2825ZM56.0249 73.9501H57.0641C58.6126 73.9501 59.338 73.0601 59.338 71.4447C59.338 69.8345 58.6023 68.9496 57.0796 68.9496H56.0249V73.9501Z" fill="black"/>
<path d="M81.3154 64.7282L81.6961 61.873H83.152L82.3752 64.7282H81.3154Z" fill="black"/>
<path d="M75.4092 63.1243V55.459H78.4341C80.1576 55.459 81.2379 56.4313 81.2379 57.9746C81.2379 59.518 80.137 60.4903 78.4136 60.4903H76.9937V63.1243H75.4092ZM76.9937 59.163H78.3313C79.1698 59.163 79.6894 58.7052 79.6894 57.9746C79.6894 57.2441 79.1698 56.7863 78.3313 56.7863H76.9937V59.163Z" fill="black"/>
<path d="M68.3716 56.8171V55.459H74.6016V56.8171H72.2814V63.1243H70.6969V56.8171H68.3716Z" fill="black"/>
<path d="M61.6733 56.8171V55.459H67.9033V56.8171H65.5832V63.1243H63.9987V56.8171H61.6733Z" fill="black"/>
<path d="M54.4404 63.1243V55.459H56.0249V58.5354H59.2814V55.459H60.8608V63.1243H59.2814V59.8935H56.0249V63.1243H54.4404Z" fill="black"/>
<path d="M15 64.4983C15 56.4938 21.5018 49.9953 29.5057 50C37.5028 50.0047 44.0213 56.5052 44.004 64.571C43.9867 72.5148 37.4802 78.998 29.4957 79C21.5178 79.002 15.0013 72.5222 15 64.4983ZM29.4664 77.6766C30.2547 77.6632 30.4606 77.4807 30.5479 76.6877C30.5845 76.3518 30.7558 76.1612 31.0956 76.1299C31.2063 76.1199 31.3169 76.1139 31.4268 76.1019C31.7907 76.0613 31.9453 75.8834 31.894 75.5215C31.8626 75.3036 31.778 75.0944 31.732 74.8778C31.6008 74.2687 31.8633 73.8676 32.4784 73.8043C32.8915 73.7616 33.0901 73.5377 33.1767 73.1705C33.2867 72.7067 33.374 72.2376 33.4953 71.7772C33.6978 71.0095 34.041 70.557 34.918 70.5617C35.2572 70.5637 35.4724 70.3664 35.543 70.0313C35.5777 69.8687 35.615 69.7041 35.6197 69.5395C35.6337 69.0937 35.8216 68.7378 36.1154 68.4106C36.3507 68.1487 36.5792 67.8689 36.7472 67.5617C36.9951 67.1079 36.8318 66.79 36.322 66.6787C35.9435 66.5961 35.5584 66.5454 35.1745 66.4895C34.2869 66.3602 33.5292 66.0637 33.1741 65.1274C33.0981 64.9268 32.8615 64.7609 32.663 64.6383C32.1852 64.3431 31.6821 64.0885 31.1963 63.806C30.7704 63.5581 30.5399 63.5781 30.1487 63.8893C29.9595 64.0399 29.7549 64.1785 29.539 64.2871C29.0292 64.5443 28.8766 64.497 28.5508 64.0292C28.2922 63.6587 27.9377 63.5501 27.5385 63.7667C27.106 64.0012 26.7595 64.3337 26.6962 64.8528C26.6389 65.3253 26.5976 65.8018 26.5936 66.2769C26.5889 66.8366 26.4097 67.3324 26.1978 67.8402C26.0538 68.1841 25.9312 68.6012 25.9912 68.9537C26.2018 70.1985 26.7142 71.2514 28.0356 71.7059C28.81 71.9724 29.1811 72.5961 29.1585 73.3798C29.1418 73.9569 28.9846 74.5333 28.8606 75.103C28.736 75.6748 28.5468 76.2332 28.4408 76.8076C28.3708 77.1848 28.5834 77.4933 28.9093 77.5933C29.0865 77.6479 29.2798 77.6499 29.4657 77.6759L29.4664 77.6766ZM24.4399 60.0489C24.4899 59.847 24.5685 59.5032 24.6618 59.1633C24.8977 58.3064 25.1136 58.1711 25.9446 58.5043C26.547 58.7455 27.11 59.0867 27.6918 59.3799C28.1469 59.6098 28.2855 59.5538 28.3722 59.06C28.4528 58.6022 28.5248 58.1391 28.5428 57.676C28.5614 57.1955 28.7953 56.907 29.2198 56.7624C29.7109 56.5945 30.2234 56.4845 30.7078 56.3006C31.2622 56.09 31.8267 55.8754 32.3284 55.5682C32.7642 55.3017 32.6989 54.7986 32.2411 54.5567C32.0426 54.4521 31.798 54.3781 31.5768 54.3841C30.8911 54.4021 30.2054 54.4534 29.5223 54.516C29.2278 54.5427 28.9892 54.682 28.8273 54.9645C28.7087 55.1704 28.5361 55.359 28.3495 55.5069C28.1709 55.6489 27.9157 55.7908 27.7125 55.5969C27.2733 55.1777 26.9188 54.7039 26.9981 54.0329C27.0228 53.8277 27.0267 53.6091 26.9841 53.4085C26.8921 52.9767 26.5703 52.8588 26.2171 53.1146C26.0752 53.2179 25.9379 53.3392 25.8319 53.4778C25.6494 53.7164 25.4728 53.719 25.2475 53.5425C25.021 53.3652 24.7797 53.2073 24.5425 53.0433C24.1107 52.7448 23.6622 52.7055 23.1971 52.9627C21.8957 53.6824 20.7322 54.578 19.7493 55.6962C19.1442 56.3845 19.2288 57.3328 19.9965 57.8359C20.7642 58.3397 21.2539 58.9854 21.4525 59.8817C21.5465 60.3055 21.6191 60.3282 22.0409 60.2122C22.3535 60.1262 22.5907 60.2095 22.7673 60.4621C22.8932 60.6427 22.9812 60.8506 23.1085 61.0299C23.4916 61.5689 23.8648 62.118 24.2873 62.6252C24.4159 62.7791 24.7011 62.8984 24.8997 62.8784C25.2868 62.8404 25.686 62.7418 26.0378 62.5785C26.4583 62.3833 26.4423 61.9161 26.0325 61.6976C25.8 61.5736 25.5421 61.497 25.2915 61.409C24.7464 61.2178 24.4352 60.7806 24.4399 60.0503V60.0489ZM42.6733 64.475L42.7286 64.4643C42.6026 63.5334 42.5187 62.5938 42.3401 61.6729C42.0722 60.2928 41.5377 59.0041 40.8127 57.7986C40.6002 57.4447 40.3083 57.2702 39.9924 57.3801C39.5553 57.532 39.0995 57.7246 38.9002 58.1824C38.565 58.9521 38.2732 59.7417 37.968 60.5247C37.8447 60.8399 37.9033 61.1291 38.1072 61.3977C38.593 62.0361 38.7516 62.7191 38.4025 63.4814C38.2532 63.8066 38.3165 64.1305 38.4784 64.439C38.8309 65.1121 39.2074 65.7604 39.9584 66.0763C40.0997 66.1356 40.2323 66.2262 40.3509 66.3249C40.7694 66.6721 41.2505 66.7134 41.763 66.6454C42.2448 66.5821 42.5253 66.3262 42.58 65.8344C42.6299 65.3833 42.6439 64.9288 42.6739 64.4757L42.6733 64.475Z" fill="url(#paint0_linear_222_12940)"/>
<path d="M30.1469 63.8908C30.538 63.5792 30.7681 63.56 31.1938 63.8078C31.6796 64.0903 32.1828 64.3447 32.6606 64.6399C32.8592 64.7625 33.0963 64.9285 33.1723 65.1291C33.5276 66.0652 34.285 66.3615 35.1733 66.4914C35.5571 66.5474 35.9423 66.598 36.3208 66.6799C36.8305 66.7905 36.9933 67.109 36.7456 67.5627C36.5776 67.8699 36.349 68.1504 36.1137 68.4123C35.82 68.7394 35.6319 69.0949 35.6186 69.5412C35.6132 69.7056 35.5761 69.8707 35.5415 70.0324C35.4702 70.3676 35.2556 70.5647 34.9165 70.5627C34.0394 70.558 33.6962 71.0103 33.4936 71.7785C33.3723 72.239 33.2852 72.7083 33.1753 73.1721C33.0879 73.5393 32.8892 73.7632 32.476 73.8059C31.8612 73.8693 31.5994 74.2703 31.7299 74.8791C31.7766 75.0956 31.8614 75.3049 31.892 75.5227C31.944 75.8845 31.7888 76.0631 31.4243 76.1037C31.3145 76.1157 31.203 76.1211 31.0932 76.1311C30.7536 76.1625 30.5821 76.3538 30.5454 76.6887C30.4581 77.4816 30.2525 77.6646 29.4643 77.6779L29.4633 77.677C29.2774 77.651 29.084 77.6496 28.9067 77.5949C28.5808 77.495 28.368 77.1859 28.4379 76.8088C28.5446 76.2345 28.7339 75.6763 28.8579 75.1047C28.9818 74.5343 29.1391 73.9582 29.1557 73.3811C29.1783 72.5975 28.8077 71.9738 28.0327 71.7072C26.7114 71.2527 26.1993 70.1999 25.9887 68.9553C25.9294 68.6036 26.0516 68.1858 26.1948 67.842C26.4067 67.3343 26.5872 66.8382 26.5913 66.2785C26.5953 65.8035 26.6365 65.3264 26.6938 64.8547C26.7571 64.3356 27.1024 64.0024 27.5356 63.7678C27.9348 63.5519 28.2904 63.6601 28.5483 64.0305C28.8742 64.4983 29.0267 64.5462 29.5366 64.2883C29.7518 64.1797 29.9577 64.0414 30.1469 63.8908ZM40.0004 57.383C40.3162 57.2731 40.6082 57.4474 40.8208 57.801C41.5459 59.0065 42.0802 60.2959 42.3481 61.676C42.5267 62.5968 42.6108 63.5362 42.7368 64.467L42.6821 64.4778V64.4787C42.6521 64.9317 42.6383 65.3868 42.5883 65.8371C42.5337 66.3296 42.2521 66.5853 41.771 66.6486C41.2593 66.7159 40.7779 66.6745 40.3588 66.3274C40.2403 66.2295 40.1074 66.1386 39.9663 66.0793C39.2153 65.7634 38.8383 65.1146 38.4858 64.4416C38.324 64.1326 38.2614 63.8096 38.4106 63.4846C38.7592 62.7229 38.5999 62.039 38.1147 61.4006C37.9109 61.1321 37.8528 60.8427 37.976 60.5276C38.2818 59.7448 38.5726 58.9559 38.9077 58.1858C39.1069 57.728 39.5633 57.535 40.0004 57.383ZM23.1987 52.9651C23.6637 52.7082 24.1117 52.7478 24.5434 53.0461C24.7799 53.21 25.022 53.368 25.2485 53.5451C25.4744 53.7223 25.6516 53.7191 25.8335 53.4807C25.9393 53.3422 26.0764 53.22 26.2182 53.1174C26.5714 52.8615 26.8938 52.9795 26.9858 53.4113C27.0284 53.6118 27.0241 53.8302 26.9995 54.0354C26.9202 54.7064 27.2751 55.1807 27.7143 55.5998C27.9174 55.7933 28.1725 55.6511 28.351 55.51C28.5376 55.3614 28.7116 55.1729 28.8295 54.967C28.9921 54.6848 29.2296 54.5455 29.5239 54.5188C30.2075 54.4568 30.8929 54.4049 31.5786 54.3869C31.7998 54.3809 32.045 54.4542 32.2436 54.5588C32.7015 54.8007 32.7664 55.304 32.3305 55.5705C31.8282 55.8776 31.2641 56.0924 30.7104 56.3029C30.226 56.4875 29.7139 56.5977 29.2221 56.7649C28.7983 56.9095 28.5637 57.1985 28.5444 57.6789C28.5264 58.1419 28.4551 58.605 28.3745 59.0627C28.2878 59.5572 28.149 59.6119 27.6938 59.382C27.112 59.0882 26.5489 58.7483 25.9458 58.507C25.1148 58.174 24.8988 58.3093 24.6635 59.1662C24.5702 59.506 24.4909 59.8508 24.4409 60.052V60.0529C24.4362 60.7832 24.7483 61.2201 25.2934 61.4113C25.5438 61.4992 25.8012 61.5766 26.0336 61.7004C26.4435 61.919 26.46 62.386 26.0395 62.5813C25.6876 62.7452 25.2881 62.8431 24.9008 62.8811C24.7023 62.9003 24.4172 62.7819 24.2885 62.6281C23.866 62.1211 23.493 61.5722 23.1098 61.0324C22.9825 60.8532 22.894 60.6456 22.768 60.4651C22.5914 60.2118 22.354 60.1291 22.0415 60.2151C21.62 60.3309 21.5475 60.3077 21.4536 59.884C21.2549 58.9879 20.7652 58.3412 19.9975 57.8381C19.2298 57.335 19.1444 56.3868 19.7495 55.6985C20.7325 54.5796 21.8971 53.6841 23.1987 52.9651Z" fill="#CF8900"/>
<defs>
<linearGradient id="paint0_linear_222_12940" x1="19.5006" y1="74.25" x2="44.5015" y2="65.8181" gradientUnits="userSpaceOnUse">
<stop stop-color="#DB9307"/>
<stop offset="1" stop-color="#FFC95F"/>
</linearGradient>
</defs>
</svg>
