<svg width="128" height="128" viewBox="0 0 128 128" fill="none" xmlns="http://www.w3.org/2000/svg">
<path d="M2 48.2857C2 44.8142 4.81421 42 8.28571 42H119.857C123.329 42 126.143 44.8142 126.143 48.2857V79.7143C126.143 83.1858 123.329 86 119.857 86H8.28571C4.81421 86 2 83.1858 2 79.7143V48.2857Z" fill="url(#paint0_linear_209_7772)"/>
<path d="M119.857 82.8571V86H8.28571V82.8571H119.857ZM123 79.7143V48.2857C123 46.55 121.593 45.1429 119.857 45.1429H8.28571C6.54996 45.1429 5.14286 46.55 5.14286 48.2857V79.7143C5.14286 81.45 6.54996 82.8571 8.28571 82.8571V86L7.96191 85.9923C4.74812 85.8293 2.17074 83.2519 2.00767 80.0381L2 79.7143V48.2857C2 44.9228 4.64088 42.1762 7.96191 42.0077L8.28571 42H119.857C123.329 42 126.143 44.8142 126.143 48.2857V79.7143C126.143 83.1858 123.329 86 119.857 86V82.8571C121.593 82.8571 123 81.45 123 79.7143Z" fill="url(#paint1_linear_209_7772)"/>
<path d="M99.4531 72.1669C98.4628 72.1669 97.5707 72.0073 96.7768 71.6881C95.9829 71.3689 95.3404 70.8942 94.8493 70.264C94.3664 69.6337 94.0964 68.8521 94.0391 67.9191H96.5926C96.74 69.3759 97.6771 70.1044 99.404 70.1044C100.222 70.1044 100.869 69.9366 101.344 69.601C101.827 69.2654 102.068 68.8398 102.068 68.3242C102.068 67.8823 101.896 67.5303 101.552 67.2684C101.209 66.9983 100.759 66.8019 100.202 66.6791L98.0536 66.2003C95.5737 65.6602 94.3337 64.4243 94.3337 62.4927C94.3337 61.3469 94.7879 60.4139 95.6964 59.6936C96.6131 58.9734 97.8121 58.6133 99.2935 58.6133C100.759 58.6133 101.962 58.9939 102.903 59.755C103.852 60.508 104.343 61.5392 104.376 62.8488H101.896C101.888 62.2186 101.651 61.6988 101.184 61.2896C100.718 60.8722 100.1 60.6635 99.3304 60.6635C98.5937 60.6635 98.0086 60.8354 97.5748 61.1791C97.141 61.5229 96.9241 61.9444 96.9241 62.4436C96.9241 62.8856 97.0878 63.2416 97.4152 63.5117C97.7507 63.7818 98.2091 63.9823 98.7902 64.1133L101 64.6044C102.26 64.8826 103.189 65.3123 103.787 65.8934C104.384 66.4745 104.683 67.2357 104.683 68.1769C104.683 69.0035 104.454 69.7156 103.996 70.3131C103.545 70.9023 102.927 71.3607 102.142 71.6881C101.356 72.0073 100.46 72.1669 99.4531 72.1669Z" fill="black"/>
<path d="M87.1279 72.1669C86.1376 72.1669 85.2455 72.0073 84.4516 71.6881C83.6577 71.3689 83.0152 70.8942 82.5241 70.264C82.0412 69.6337 81.7712 68.8521 81.7139 67.9191H84.2674C84.4148 69.3759 85.3519 70.1044 87.0788 70.1044C87.8973 70.1044 88.5439 69.9366 89.0186 69.601C89.5014 69.2654 89.7429 68.8398 89.7429 68.3242C89.7429 67.8823 89.571 67.5303 89.2273 67.2684C88.8835 66.9983 88.4334 66.8019 87.8768 66.6791L85.7284 66.2003C83.2485 65.6602 82.0085 64.4243 82.0085 62.4927C82.0085 61.3469 82.4628 60.4139 83.3712 59.6936C84.2879 58.9734 85.4869 58.6133 86.9683 58.6133C88.4334 58.6133 89.6365 58.9939 90.5777 59.755C91.5271 60.508 92.0182 61.5392 92.0509 62.8488H89.571C89.5628 62.2186 89.3255 61.6988 88.859 61.2896C88.3924 60.8722 87.7745 60.6635 87.0052 60.6635C86.2686 60.6635 85.6834 60.8354 85.2496 61.1791C84.8158 61.5229 84.5989 61.9444 84.5989 62.4436C84.5989 62.8856 84.7626 63.2416 85.09 63.5117C85.4255 63.7818 85.8839 63.9823 86.465 64.1133L88.6748 64.6044C89.9352 64.8826 90.8642 65.3123 91.4616 65.8934C92.0591 66.4745 92.3578 67.2357 92.3578 68.1769C92.3578 69.0035 92.1287 69.7156 91.6703 70.3131C91.2202 70.9023 90.6023 71.3607 89.8165 71.6881C89.0308 72.0073 88.1346 72.1669 87.1279 72.1669Z" fill="black"/>
<path d="M74.1635 72.1512C72.8785 72.1512 71.7736 71.8607 70.8488 71.2796C69.9321 70.6985 69.2241 69.9005 68.7249 68.8856C68.2338 67.8625 67.9883 66.7003 67.9883 65.399C67.9883 64.0813 68.2461 62.9109 68.7617 61.8878C69.2773 60.8648 69.9894 60.0627 70.8979 59.4816C71.8064 58.8923 72.8499 58.5977 74.0285 58.5977C75.2561 58.5977 76.3201 58.8841 77.2204 59.457C78.1289 60.0299 78.8328 60.8279 79.332 61.851C79.8313 62.8659 80.0809 64.0404 80.0809 65.3744V66.0742H70.5419C70.591 67.2446 70.9265 68.1899 71.5485 68.9102C72.1788 69.6304 73.0627 69.9905 74.2003 69.9905C75.0515 69.9905 75.7513 69.7982 76.2997 69.4135C76.848 69.0288 77.2122 68.5296 77.3923 67.9157H79.8845C79.729 68.7506 79.3811 69.4872 78.841 70.1256C78.309 70.764 77.6378 71.2632 76.8276 71.6233C76.0255 71.9753 75.1375 72.1512 74.1635 72.1512ZM70.5664 64.1099H77.5519C77.4455 63.0787 77.0813 62.2643 76.4593 61.6669C75.8372 61.0612 75.0352 60.7584 74.053 60.7584C73.0709 60.7584 72.2688 61.0612 71.6468 61.6669C71.0329 62.2643 70.6728 63.0787 70.5664 64.1099Z" fill="black"/>
<path d="M60.2773 71.8544V58.8901H62.7573V60.9894H62.8064C63.0437 60.2773 63.4161 59.7249 63.9235 59.332C64.4392 58.931 65.1103 58.7305 65.9369 58.7305C66.1334 58.7305 66.3134 58.7387 66.4771 58.755C66.6408 58.7714 66.7759 58.7837 66.8823 58.7919V61.2104C66.784 61.1858 66.6081 61.1613 66.3544 61.1367C66.1006 61.104 65.8224 61.0876 65.5195 61.0876C64.7911 61.0876 64.165 61.3413 63.6412 61.8488C63.1256 62.3562 62.8677 63.1378 62.8677 64.1936V71.8544H60.2773Z" fill="black"/>
<path d="M51.4503 77.1585C49.8625 77.1585 48.5653 76.8065 47.5586 76.1027C46.5519 75.3988 45.9626 74.4126 45.7907 73.144H48.3811C48.5448 73.7742 48.9009 74.2489 49.4492 74.5681C49.9976 74.8873 50.6646 75.0469 51.4503 75.0469C52.498 75.0469 53.3164 74.7645 53.9057 74.1998C54.495 73.635 54.7896 72.8289 54.7896 71.7813V69.817H54.7773C54.3272 70.5699 53.7584 71.1265 53.0709 71.4866C52.3916 71.8467 51.6263 72.0268 50.7751 72.0268C49.6456 72.0268 48.6594 71.7444 47.8164 71.1797C46.9734 70.6068 46.3186 69.8211 45.8521 68.8225C45.3856 67.8158 45.1523 66.6536 45.1523 65.3359C45.1523 64.0182 45.3856 62.856 45.8521 61.8493C46.3268 60.8426 46.9857 60.0569 47.8287 59.4922C48.6717 58.9193 49.6497 58.6328 50.7628 58.6328C51.6058 58.6328 52.3793 58.8129 53.0831 59.173C53.787 59.5331 54.3558 60.0978 54.7896 60.8672H54.8019V58.8906H57.3555V71.683C57.3555 72.9926 57.0895 74.0484 56.5575 74.8504C56.0255 75.6525 55.3134 76.2377 54.4213 76.606C53.5292 76.9743 52.5389 77.1585 51.4503 77.1585ZM51.303 69.8047C52.4079 69.8047 53.2878 69.3996 53.9425 68.5893C54.6055 67.7708 54.9369 66.6823 54.9369 65.3237C54.9369 63.965 54.6055 62.8806 53.9425 62.0703C53.2878 61.2519 52.4079 60.8426 51.303 60.8426C50.2554 60.8426 49.4042 61.2273 48.7494 61.9967C48.1029 62.7578 47.7796 63.8668 47.7796 65.3237C47.7796 66.7805 48.1029 67.8936 48.7494 68.6629C49.4042 69.4241 50.2554 69.8047 51.303 69.8047Z" fill="black"/>
<path d="M34.3131 64.3906V71.8549H31.7227V58.8906H34.264V60.8426C35.1479 59.3694 36.4533 58.6328 38.1802 58.6328C39.0724 58.6328 39.8704 58.8292 40.5742 59.2221C41.2863 59.6068 41.8469 60.1797 42.2561 60.9408C42.6654 61.702 42.87 62.6473 42.87 63.7768V71.8549H40.2796V64.096C40.2796 63.0565 40.0299 62.2749 39.5307 61.7511C39.0314 61.2191 38.3358 60.9531 37.4436 60.9531C36.5597 60.9531 35.8149 61.2273 35.2093 61.7757C34.6118 62.3158 34.3131 63.1875 34.3131 64.3906Z" fill="black"/>
<path d="M28.5917 53.5625V71.8549H25.8662V53.5625H28.5917Z" fill="black"/>
<defs>
<linearGradient id="paint0_linear_209_7772" x1="12.0595" y1="-22.4828" x2="135.629" y2="-2.07495" gradientUnits="userSpaceOnUse">
<stop stop-color="white"/>
<stop offset="1" stop-color="#E7F3FF"/>
</linearGradient>
<linearGradient id="paint1_linear_209_7772" x1="2" y1="58.8571" x2="108.014" y2="108.621" gradientUnits="userSpaceOnUse">
<stop stop-color="#37A8FF"/>
<stop offset="1" stop-color="#3071FF"/>
</linearGradient>
</defs>
</svg>
