<svg width="128" height="128" viewBox="0 0 128 128" fill="none" xmlns="http://www.w3.org/2000/svg">
<rect x="2" y="19" width="124" height="90" rx="3" fill="#E0F2FF" stroke="#3C89C1" stroke-width="2"/>
<path d="M69.3906 56.1328C68.5677 56.1328 67.8854 55.9271 67.3438 55.5156C66.8073 55.099 66.5391 54.4792 66.5391 53.6562C66.5391 53.0312 66.6901 52.5495 66.9922 52.2109C67.2995 51.8672 67.6979 51.6172 68.1875 51.4609C68.6823 51.3047 69.2135 51.1979 69.7812 51.1406C70.5469 51.0521 71.0807 50.974 71.3828 50.9062C71.6849 50.8385 71.8359 50.6641 71.8359 50.3828V50.3203C71.8359 49.9661 71.7005 49.6771 71.4297 49.4531C71.1641 49.2292 70.7969 49.1172 70.3281 49.1172C69.849 49.1172 69.4583 49.2292 69.1562 49.4531C68.8594 49.6771 68.6979 49.9635 68.6719 50.3125H66.7734C66.8203 49.4948 67.1615 48.8359 67.7969 48.3359C68.4323 47.8359 69.2891 47.5859 70.3672 47.5859C71.4401 47.5859 72.2786 47.8359 72.8828 48.3359C73.487 48.8359 73.7891 49.5156 73.7891 50.375V56H71.8516V54.8359H71.8203C71.6224 55.2005 71.3359 55.5078 70.9609 55.7578C70.5859 56.0078 70.0625 56.1328 69.3906 56.1328ZM69.875 54.6719C70.5208 54.6719 71.0104 54.5052 71.3438 54.1719C71.6771 53.8333 71.8438 53.4245 71.8438 52.9453V52.0547C71.724 52.1328 71.4922 52.2057 71.1484 52.2734C70.8047 52.3359 70.4297 52.3984 70.0234 52.4609C69.6016 52.5234 69.2344 52.6432 68.9219 52.8203C68.6146 52.9922 68.4609 53.2656 68.4609 53.6406C68.4609 53.9635 68.5885 54.2161 68.8438 54.3984C69.099 54.5807 69.4427 54.6719 69.875 54.6719ZM75.5312 59.2656V47.75H77.4688V48.8984H77.4922C77.7526 48.4609 78.1016 48.1328 78.5391 47.9141C78.9766 47.6953 79.4609 47.5859 79.9922 47.5859C80.7005 47.5859 81.3203 47.7682 81.8516 48.1328C82.388 48.4922 82.8047 48.9948 83.1016 49.6406C83.4036 50.2812 83.5547 51.0234 83.5547 51.8672C83.5547 52.7266 83.4062 53.4792 83.1094 54.125C82.8177 54.7656 82.4036 55.2656 81.8672 55.625C81.3307 55.9844 80.7031 56.1641 79.9844 56.1641C79.4427 56.1641 78.9609 56.0469 78.5391 55.8125C78.1224 55.5781 77.7839 55.2266 77.5234 54.7578H77.5V59.2656H75.5312ZM79.5234 54.5156C80.1328 54.5156 80.625 54.2891 81 53.8359C81.375 53.3776 81.5625 52.7214 81.5625 51.8672C81.5625 51.0182 81.375 50.3646 81 49.9062C80.625 49.4479 80.1328 49.2188 79.5234 49.2188C78.8776 49.2188 78.3594 49.4609 77.9688 49.9453C77.5833 50.4245 77.3906 51.0651 77.3906 51.8672C77.3906 52.6693 77.5833 53.3125 77.9688 53.7969C78.3594 54.276 78.8776 54.5156 79.5234 54.5156ZM84.9219 59.2656V47.75H86.8594V48.8984H86.8828C87.1432 48.4609 87.4922 48.1328 87.9297 47.9141C88.3672 47.6953 88.8516 47.5859 89.3828 47.5859C90.0911 47.5859 90.7109 47.7682 91.2422 48.1328C91.7786 48.4922 92.1953 48.9948 92.4922 49.6406C92.7943 50.2812 92.9453 51.0234 92.9453 51.8672C92.9453 52.7266 92.7969 53.4792 92.5 54.125C92.2083 54.7656 91.7943 55.2656 91.2578 55.625C90.7214 55.9844 90.0938 56.1641 89.375 56.1641C88.8333 56.1641 88.3516 56.0469 87.9297 55.8125C87.513 55.5781 87.1745 55.2266 86.9141 54.7578H86.8906V59.2656H84.9219ZM88.9141 54.5156C89.5234 54.5156 90.0156 54.2891 90.3906 53.8359C90.7656 53.3776 90.9531 52.7214 90.9531 51.8672C90.9531 51.0182 90.7656 50.3646 90.3906 49.9062C90.0156 49.4479 89.5234 49.2188 88.9141 49.2188C88.2682 49.2188 87.75 49.4609 87.3594 49.9453C86.974 50.4245 86.7812 51.0651 86.7812 51.8672C86.7812 52.6693 86.974 53.3125 87.3594 53.7969C87.75 54.276 88.2682 54.5156 88.9141 54.5156Z" fill="black"/>
<path d="M56.096 38.562C55.895 37.9182 55.4124 37.3954 54.809 37.0739L42.5426 31.2014C42.2211 31.0403 41.8589 31 41.5371 31C41.2152 31 40.8535 31 40.5316 31.0806L28.2652 36.9933C27.9629 37.1317 27.6966 37.3379 27.487 37.596C27.2774 37.8541 27.1302 38.1571 27.0569 38.4814L24.039 51.7144C23.9796 52.0495 23.9881 52.3931 24.0642 52.7248C24.1402 53.0565 24.2822 53.3695 24.4817 53.6452L32.9686 64.143C33.4512 64.626 34.1348 64.9486 34.8188 64.9878H48.3334C49.0573 65.0683 49.7409 64.7465 50.1836 64.143L58.6705 53.6452C59.0671 53.0846 59.2393 52.3957 59.1531 51.7144L56.096 38.562V38.562Z" fill="#326DE6"/>
<path d="M54.2125 51.1912C54.1723 51.1912 54.132 51.1912 54.132 51.1509C54.132 51.1107 54.0514 51.1121 53.9694 51.1121C53.8087 51.0718 53.6479 51.0718 53.4868 51.0718C53.4043 51.0782 53.3215 51.0644 53.2455 51.0316H53.2052C52.7433 50.9901 52.2858 50.9094 51.8376 50.7903C51.7735 50.7658 51.7153 50.7281 51.6669 50.6796C51.6184 50.6311 51.5807 50.5728 51.5564 50.5087L51.2345 50.4281C51.3953 49.2619 51.3147 48.055 51.0734 46.8888C50.7896 45.7192 50.314 44.6047 49.6659 43.5904L49.9087 43.3495V43.3092C49.9087 43.1884 49.949 43.0277 50.0291 42.9471C50.3913 42.6256 50.7534 42.3843 51.1555 42.1415L51.3968 42.0211C51.5579 41.9405 51.6783 41.86 51.8391 41.7798C51.8794 41.7395 51.9196 41.7395 51.9599 41.6992C52.0002 41.6589 51.9599 41.6589 51.9599 41.6187C52.3217 41.3356 52.4022 40.8541 52.1207 40.4935C52.0521 40.4094 51.9665 40.3408 51.8695 40.2923C51.7725 40.2437 51.6663 40.2163 51.5579 40.2119C51.3535 40.2172 51.1562 40.2876 50.9947 40.4129V40.4129L50.9544 40.4532C50.9142 40.4935 50.8739 40.5334 50.8336 40.5334C50.7131 40.6542 50.5923 40.775 50.5117 40.8955C50.4718 40.9761 50.3913 41.0163 50.351 41.0566C50.0546 41.3928 49.7167 41.69 49.3455 41.9413C49.265 41.9815 49.1844 42.0218 49.1042 42.0218C49.0639 42.0218 48.9834 42.0218 48.9431 41.9815H48.9032L48.5813 42.1826C48.2595 41.8607 47.8974 41.5392 47.5759 41.2174C46.0874 40.0508 44.2372 39.3269 42.3467 39.1258L42.3064 38.804V38.8443C42.186 38.7637 42.1457 38.6432 42.1054 38.5224C42.1054 38.0801 42.1054 37.6374 42.186 37.1548V37.1145C42.186 37.0343 42.2263 36.9538 42.2263 36.8732C42.2665 36.7125 42.2665 36.5517 42.3064 36.3906V36.1493C42.3467 35.7465 42.0249 35.3438 41.6228 35.3046C41.3815 35.2643 41.1402 35.3851 40.9392 35.5862C40.8636 35.6594 40.8034 35.7468 40.7619 35.8435C40.7204 35.9402 40.6985 36.0441 40.6975 36.1493V36.1493V36.3503C40.6975 36.5115 40.7378 36.6722 40.7781 36.8329C40.8109 36.9091 40.8247 36.992 40.8184 37.0746V37.1145C40.8975 37.5561 40.8975 37.9984 40.8975 38.4796C40.8572 38.6004 40.8169 38.7209 40.6961 38.8014V38.8824L40.6562 39.2042C40.2135 39.2441 39.7712 39.3247 39.2886 39.4052C37.3981 39.808 35.6683 40.8128 34.341 42.2206L34.0997 42.0599H34.0594C34.0195 42.0599 33.9792 42.1002 33.8987 42.1002C33.8181 42.1002 33.7379 42.0599 33.6574 42.0196C33.2944 41.7428 32.9578 41.4331 32.6519 41.0943V41.0943C32.6116 41.0141 32.5311 40.9739 32.4908 40.9336C32.3703 40.8127 32.2898 40.6923 32.1693 40.5715C32.129 40.5312 32.0887 40.5312 32.0485 40.4913L32.0082 40.451C31.8467 40.3257 31.6494 40.2552 31.445 40.25C31.2037 40.25 31.0027 40.3302 30.8819 40.5312C30.768 40.7067 30.7216 40.9175 30.7513 41.1245C30.7809 41.3316 30.8845 41.5209 31.043 41.6575C31.0483 41.6574 31.0536 41.6584 31.0585 41.6603C31.0634 41.6623 31.0679 41.6653 31.0717 41.6691C31.0754 41.6728 31.0784 41.6773 31.0804 41.6822C31.0824 41.6872 31.0834 41.6924 31.0833 41.6978C31.0833 41.6978 31.1634 41.7783 31.2037 41.7783C31.3466 41.867 31.4944 41.9476 31.6464 42.0196L31.8899 42.1412C32.2927 42.3828 32.6955 42.6241 33.0159 42.9467C33.0964 43.0273 33.177 43.188 33.1367 43.3089V43.2686L33.378 43.5099C33.3377 43.5904 33.2974 43.6307 33.2575 43.7113C32.0096 45.6809 31.4871 48.0137 31.8489 50.3066L31.527 50.3868C31.5271 50.3921 31.5262 50.3974 31.5242 50.4023C31.5222 50.4072 31.5192 50.4117 31.5155 50.4155C31.5117 50.4192 31.5072 50.4222 31.5023 50.4242C31.4974 50.4262 31.4921 50.4271 31.4868 50.427C31.4465 50.5479 31.326 50.6281 31.2052 50.7086C30.7584 50.8313 30.3012 50.9121 29.8394 50.9499V50.9499C29.7569 50.9436 29.6741 50.9574 29.5981 50.9902C29.4374 50.9902 29.2766 51.0305 29.1155 51.0305C29.0752 51.0305 29.035 51.0707 28.9548 51.0707C28.9145 51.0707 28.9145 51.0707 28.8742 51.111C28.7703 51.1277 28.6708 51.1652 28.5817 51.2211C28.4925 51.2771 28.4155 51.3503 28.3553 51.4366C28.295 51.5229 28.2527 51.6204 28.2309 51.7234C28.2091 51.8263 28.2082 51.9326 28.2283 52.0359V52.0359C28.3089 52.3981 28.671 52.6394 29.0339 52.5991C29.1035 52.6053 29.1734 52.5913 29.2352 52.5588V52.5588C29.2755 52.5588 29.2755 52.5588 29.2755 52.5185C29.2755 52.4783 29.396 52.5185 29.4363 52.5185C29.597 52.4783 29.7581 52.3981 29.8786 52.3578C29.9591 52.3175 30.0397 52.2772 30.1199 52.2772H30.1602C30.5899 52.1144 31.0342 51.9933 31.4871 51.9155H31.5274C31.6463 51.9121 31.7618 51.9554 31.8493 52.0359C31.8546 52.0358 31.8599 52.0368 31.8648 52.0388C31.8697 52.0408 31.8742 52.0438 31.878 52.0475C31.8817 52.0513 31.8847 52.0558 31.8867 52.0607C31.8887 52.0656 31.8896 52.0709 31.8895 52.0762V52.0762L32.2513 52.0359C32.8547 53.8862 33.9811 55.5353 35.5497 56.7418C35.9118 57.0234 36.2333 57.2647 36.6357 57.4661L36.4347 57.7477C36.4346 57.753 36.4356 57.7582 36.4375 57.7631C36.4395 57.768 36.4424 57.7724 36.4462 57.7761C36.4499 57.7799 36.4543 57.7828 36.4592 57.7848C36.4641 57.7867 36.4693 57.7877 36.4746 57.7876C36.5552 57.9084 36.5552 58.0692 36.5149 58.1904C36.3541 58.5932 36.1121 58.9959 35.8715 59.357V59.3969C35.8313 59.4774 35.791 59.5177 35.7104 59.5983C35.6299 59.6788 35.5497 59.8396 35.4289 60.001C35.3886 60.0413 35.3886 60.0816 35.3487 60.1219C35.3488 60.1272 35.3478 60.1324 35.3458 60.1374C35.3438 60.1423 35.3408 60.1467 35.3371 60.1505C35.3333 60.1542 35.3288 60.1571 35.3239 60.1591C35.319 60.161 35.3137 60.1619 35.3084 60.1618C35.1074 60.5646 35.2681 61.0468 35.6302 61.2478C35.7178 61.2931 35.8135 61.3205 35.9118 61.3284C36.2333 61.3284 36.5149 61.1274 36.676 60.8458C36.6758 60.8405 36.6768 60.8352 36.6787 60.8303C36.6807 60.8253 36.6836 60.8209 36.6873 60.8171C36.6911 60.8133 36.6955 60.8104 36.7004 60.8084C36.7053 60.8064 36.7106 60.8054 36.7159 60.8055C36.7159 60.7652 36.7562 60.7249 36.7965 60.685C36.8367 60.5239 36.9173 60.4034 36.9576 60.2423L37.0378 60.001C37.1586 59.5587 37.3596 59.1563 37.5606 58.7543C37.6385 58.6406 37.7516 58.5558 37.8825 58.513C37.9228 58.513 37.9228 58.513 37.9228 58.4727L38.0835 58.1508C39.2098 58.5932 40.3764 58.7945 41.5829 58.7945C42.3159 58.7995 43.0462 58.7044 43.7535 58.5119C44.1958 58.4313 44.6385 58.2706 45.0406 58.1497L45.2013 58.4313C45.2416 58.4313 45.2416 58.4313 45.2416 58.4716C45.3725 58.5143 45.4857 58.5992 45.5634 58.7129C45.7645 59.1157 45.9662 59.5184 46.0863 59.9578V59.9981L46.1669 60.2394C46.2072 60.4005 46.2474 60.5613 46.3276 60.6817C46.3679 60.722 46.3679 60.7623 46.4082 60.8026C46.4081 60.8079 46.4091 60.8132 46.411 60.8181C46.413 60.823 46.416 60.8275 46.4198 60.8313C46.4235 60.835 46.428 60.838 46.4329 60.84C46.4379 60.842 46.4431 60.8429 46.4485 60.8428V60.8428C46.6096 61.1263 46.8919 61.328 47.2137 61.328C47.3342 61.328 47.4148 61.2877 47.5356 61.2475C47.6963 61.1673 47.8571 61.0062 47.8974 60.8051C47.9444 60.6045 47.9303 60.3943 47.8571 60.2017V60.2017C47.8572 60.1964 47.8563 60.1911 47.8544 60.1862C47.8524 60.1813 47.8495 60.1768 47.8457 60.173C47.842 60.1692 47.8376 60.1663 47.8326 60.1643C47.8277 60.1623 47.8225 60.1613 47.8172 60.1614C47.8172 60.1215 47.7769 60.0812 47.7366 60.041C47.6664 59.8916 47.5711 59.7554 47.455 59.6382C47.4148 59.558 47.3745 59.5177 47.2943 59.4372V59.357C47.0127 58.9948 46.8113 58.5924 46.6506 58.1904C46.6103 58.0695 46.6103 57.9088 46.6909 57.7876C46.6908 57.7823 46.6917 57.777 46.6937 57.7721C46.6957 57.7672 46.6987 57.7628 46.7025 57.759C46.7062 57.7553 46.7107 57.7524 46.7156 57.7504C46.7206 57.7485 46.7258 57.7475 46.7311 57.7477V57.7477L46.6103 57.4258C48.6608 56.1787 50.2305 54.2483 50.9544 51.9554L51.2763 51.9957C51.2816 51.9958 51.2869 51.9948 51.2918 51.9928C51.2967 51.9908 51.3011 51.9878 51.3049 51.9841C51.3086 51.9803 51.3115 51.9758 51.3135 51.9709C51.3154 51.966 51.3163 51.9607 51.3162 51.9554C51.4038 51.875 51.5192 51.8318 51.6381 51.8349H51.6783C52.1182 51.9128 52.5493 52.034 52.9654 52.1967H53.0057C53.0862 52.237 53.1664 52.2772 53.247 52.2772C53.4081 52.3578 53.5285 52.4384 53.6893 52.4783C53.7296 52.4783 53.7698 52.5185 53.8504 52.5185C53.8907 52.5185 53.8907 52.5185 53.931 52.5588C53.9927 52.5914 54.0625 52.6054 54.132 52.5991C54.3072 52.5967 54.4777 52.5417 54.6213 52.4413C54.7649 52.3409 54.8751 52.1997 54.9375 52.0359C54.9212 51.8369 54.8424 51.648 54.7124 51.4963C54.5824 51.3447 54.4079 51.2379 54.2136 51.1912H54.2125ZM42.588 49.9463L41.502 50.4691L40.4163 49.9463L40.1347 48.7797L40.8975 47.8126H42.1058L42.87 48.7778L42.588 49.9463ZM49.1445 47.3319C49.3379 48.1618 49.3923 49.018 49.3052 49.8657L45.484 48.7778C45.1222 48.6977 44.9212 48.3355 45.0014 47.9723C45.0304 47.8663 45.0859 47.7694 45.1625 47.6907L48.1789 44.9559C48.6235 45.6916 48.9494 46.4928 49.1445 47.33V47.3319ZM46.9724 43.4685L43.6741 45.8028C43.3925 45.9635 42.9904 45.9233 42.7894 45.6417C42.7501 45.6063 42.719 45.5627 42.6981 45.5141C42.6773 45.4655 42.6672 45.413 42.6686 45.3601L42.4273 41.2979C44.1969 41.4989 45.7656 42.2631 46.9724 43.4696V43.4685ZM39.6921 41.418L40.4976 41.2573L40.2966 45.2795C40.2966 45.6413 39.9747 45.9229 39.613 45.9229C39.4921 45.9229 39.4116 45.8826 39.2911 45.8423L35.9525 43.4692C36.9971 42.463 38.2845 41.7384 39.6921 41.4173V41.418ZM34.7855 44.9577L37.762 47.6124C38.0432 47.8537 38.0835 48.2557 37.8422 48.5373C37.762 48.6581 37.6815 48.6984 37.5204 48.7387L33.6186 49.8639C33.4999 48.1477 33.9068 46.4361 34.7851 44.957L34.7855 44.9577ZM34.1012 51.7544L38.0832 51.0707C38.405 51.0707 38.7269 51.2718 38.7671 51.5936C38.8074 51.7141 38.8074 51.8752 38.7269 51.9964L37.1992 55.6961C35.7906 54.7712 34.6643 53.3633 34.1012 51.7544ZM43.2317 56.7418C42.6686 56.8627 42.1054 56.9432 41.502 56.9432C40.6576 56.9432 39.7726 56.7821 38.9682 56.5405L40.9392 52.9609C41.1402 52.7196 41.4621 52.639 41.7448 52.7998C41.8615 52.882 41.9693 52.9764 42.0662 53.0813L43.997 56.5807C43.739 56.6193 43.4834 56.6731 43.2317 56.7418V56.7418ZM48.1383 53.2428C47.5252 54.218 46.7005 55.0427 45.7253 55.6558L44.1563 51.8752C44.0761 51.5533 44.2368 51.2315 44.5184 51.111C44.6393 51.0707 44.7597 51.0305 44.8806 51.0305L48.9028 51.7141C48.7018 52.2772 48.4605 52.8001 48.1387 53.2428H48.1383Z" fill="white"/>
</svg>
