<svg width="128" height="128" viewBox="0 0 128 128" fill="none" xmlns="http://www.w3.org/2000/svg">
<rect x="13" y="34" width="101" height="60" rx="3" fill="#E0F2FF" stroke="#3C89C1" stroke-width="2"/>
<path d="M72.3906 71.1328C71.5677 71.1328 70.8854 70.9271 70.3438 70.5156C69.8073 70.099 69.5391 69.4792 69.5391 68.6562C69.5391 68.0312 69.6901 67.5495 69.9922 67.2109C70.2995 66.8672 70.6979 66.6172 71.1875 66.4609C71.6823 66.3047 72.2135 66.1979 72.7812 66.1406C73.5469 66.0521 74.0807 65.974 74.3828 65.9062C74.6849 65.8385 74.8359 65.6641 74.8359 65.3828V65.3203C74.8359 64.9661 74.7005 64.6771 74.4297 64.4531C74.1641 64.2292 73.7969 64.1172 73.3281 64.1172C72.849 64.1172 72.4583 64.2292 72.1562 64.4531C71.8594 64.6771 71.6979 64.9635 71.6719 65.3125H69.7734C69.8203 64.4948 70.1615 63.8359 70.7969 63.3359C71.4323 62.8359 72.2891 62.5859 73.3672 62.5859C74.4401 62.5859 75.2786 62.8359 75.8828 63.3359C76.487 63.8359 76.7891 64.5156 76.7891 65.375V71H74.8516V69.8359H74.8203C74.6224 70.2005 74.3359 70.5078 73.9609 70.7578C73.5859 71.0078 73.0625 71.1328 72.3906 71.1328ZM72.875 69.6719C73.5208 69.6719 74.0104 69.5052 74.3438 69.1719C74.6771 68.8333 74.8438 68.4245 74.8438 67.9453V67.0547C74.724 67.1328 74.4922 67.2057 74.1484 67.2734C73.8047 67.3359 73.4297 67.3984 73.0234 67.4609C72.6016 67.5234 72.2344 67.6432 71.9219 67.8203C71.6146 67.9922 71.4609 68.2656 71.4609 68.6406C71.4609 68.9635 71.5885 69.2161 71.8438 69.3984C72.099 69.5807 72.4427 69.6719 72.875 69.6719ZM78.5312 74.2656V62.75H80.4688V63.8984H80.4922C80.7526 63.4609 81.1016 63.1328 81.5391 62.9141C81.9766 62.6953 82.4609 62.5859 82.9922 62.5859C83.7005 62.5859 84.3203 62.7682 84.8516 63.1328C85.388 63.4922 85.8047 63.9948 86.1016 64.6406C86.4036 65.2812 86.5547 66.0234 86.5547 66.8672C86.5547 67.7266 86.4062 68.4792 86.1094 69.125C85.8177 69.7656 85.4036 70.2656 84.8672 70.625C84.3307 70.9844 83.7031 71.1641 82.9844 71.1641C82.4427 71.1641 81.9609 71.0469 81.5391 70.8125C81.1224 70.5781 80.7839 70.2266 80.5234 69.7578H80.5V74.2656H78.5312ZM82.5234 69.5156C83.1328 69.5156 83.625 69.2891 84 68.8359C84.375 68.3776 84.5625 67.7214 84.5625 66.8672C84.5625 66.0182 84.375 65.3646 84 64.9062C83.625 64.4479 83.1328 64.2188 82.5234 64.2188C81.8776 64.2188 81.3594 64.4609 80.9688 64.9453C80.5833 65.4245 80.3906 66.0651 80.3906 66.8672C80.3906 67.6693 80.5833 68.3125 80.9688 68.7969C81.3594 69.276 81.8776 69.5156 82.5234 69.5156ZM87.9219 74.2656V62.75H89.8594V63.8984H89.8828C90.1432 63.4609 90.4922 63.1328 90.9297 62.9141C91.3672 62.6953 91.8516 62.5859 92.3828 62.5859C93.0911 62.5859 93.7109 62.7682 94.2422 63.1328C94.7786 63.4922 95.1953 63.9948 95.4922 64.6406C95.7943 65.2812 95.9453 66.0234 95.9453 66.8672C95.9453 67.7266 95.7969 68.4792 95.5 69.125C95.2083 69.7656 94.7943 70.2656 94.2578 70.625C93.7214 70.9844 93.0938 71.1641 92.375 71.1641C91.8333 71.1641 91.3516 71.0469 90.9297 70.8125C90.513 70.5781 90.1745 70.2266 89.9141 69.7578H89.8906V74.2656H87.9219ZM91.9141 69.5156C92.5234 69.5156 93.0156 69.2891 93.3906 68.8359C93.7656 68.3776 93.9531 67.7214 93.9531 66.8672C93.9531 66.0182 93.7656 65.3646 93.3906 64.9062C93.0156 64.4479 92.5234 64.2188 91.9141 64.2188C91.2682 64.2188 90.75 64.4609 90.3594 64.9453C89.974 65.4245 89.7812 66.0651 89.7812 66.8672C89.7812 67.6693 89.974 68.3125 90.3594 68.7969C90.75 69.276 91.2682 69.5156 91.9141 69.5156Z" fill="black"/>
<path d="M59.096 53.562C58.895 52.9182 58.4124 52.3954 57.809 52.0739L45.5426 46.2014C45.2211 46.0403 44.8589 46 44.5371 46C44.2152 46 43.8535 46 43.5316 46.0806L31.2652 51.9933C30.9629 52.1317 30.6966 52.3379 30.487 52.596C30.2774 52.8541 30.1302 53.1571 30.0569 53.4814L27.039 66.7144C26.9796 67.0495 26.9881 67.3931 27.0642 67.7248C27.1402 68.0565 27.2822 68.3695 27.4817 68.6452L35.9686 79.143C36.4512 79.626 37.1348 79.9486 37.8188 79.9878H51.3334C52.0573 80.0683 52.7409 79.7465 53.1836 79.143L61.6705 68.6452C62.0671 68.0846 62.2393 67.3957 62.1531 66.7144L59.096 53.562V53.562Z" fill="#326DE6"/>
<path d="M57.2125 66.1912C57.1723 66.1912 57.132 66.1912 57.132 66.1509C57.132 66.1107 57.0514 66.1121 56.9694 66.1121C56.8087 66.0718 56.6479 66.0718 56.4868 66.0718C56.4043 66.0782 56.3215 66.0644 56.2455 66.0316H56.2052C55.7433 65.9901 55.2858 65.9094 54.8376 65.7903C54.7735 65.7658 54.7153 65.7281 54.6669 65.6796C54.6184 65.6311 54.5807 65.5728 54.5564 65.5087L54.2345 65.4281C54.3953 64.2619 54.3147 63.055 54.0734 61.8888C53.7896 60.7192 53.314 59.6047 52.6659 58.5904L52.9087 58.3495V58.3092C52.9087 58.1884 52.949 58.0277 53.0291 57.9471C53.3913 57.6256 53.7534 57.3843 54.1555 57.1415L54.3968 57.0211C54.5579 56.9405 54.6783 56.86 54.8391 56.7798C54.8794 56.7395 54.9196 56.7395 54.9599 56.6992C55.0002 56.6589 54.9599 56.6589 54.9599 56.6187C55.3217 56.3356 55.4022 55.8541 55.1207 55.4935C55.0521 55.4094 54.9665 55.3408 54.8695 55.2923C54.7725 55.2437 54.6663 55.2163 54.5579 55.2119C54.3535 55.2172 54.1562 55.2876 53.9947 55.4129V55.4129L53.9544 55.4532C53.9142 55.4935 53.8739 55.5334 53.8336 55.5334C53.7131 55.6542 53.5923 55.775 53.5117 55.8955C53.4718 55.9761 53.3913 56.0163 53.351 56.0566C53.0546 56.3928 52.7167 56.69 52.3455 56.9413C52.265 56.9815 52.1844 57.0218 52.1042 57.0218C52.0639 57.0218 51.9834 57.0218 51.9431 56.9815H51.9032L51.5813 57.1826C51.2595 56.8607 50.8974 56.5392 50.5759 56.2174C49.0874 55.0508 47.2372 54.3269 45.3467 54.1258L45.3064 53.804V53.8443C45.186 53.7637 45.1457 53.6432 45.1054 53.5224C45.1054 53.0801 45.1054 52.6374 45.186 52.1548V52.1145C45.186 52.0343 45.2263 51.9538 45.2263 51.8732C45.2665 51.7125 45.2665 51.5517 45.3064 51.3906V51.1493C45.3467 50.7465 45.0249 50.3438 44.6228 50.3046C44.3815 50.2643 44.1402 50.3851 43.9392 50.5862C43.8636 50.6594 43.8034 50.7468 43.7619 50.8435C43.7204 50.9402 43.6985 51.0441 43.6975 51.1493V51.1493V51.3503C43.6975 51.5115 43.7378 51.6722 43.7781 51.8329C43.8109 51.9091 43.8247 51.992 43.8184 52.0746V52.1145C43.8975 52.5561 43.8975 52.9984 43.8975 53.4796C43.8572 53.6004 43.8169 53.7209 43.6961 53.8014V53.8824L43.6562 54.2042C43.2135 54.2441 42.7712 54.3247 42.2886 54.4052C40.3981 54.808 38.6683 55.8128 37.341 57.2206L37.0997 57.0599H37.0594C37.0195 57.0599 36.9792 57.1002 36.8987 57.1002C36.8181 57.1002 36.7379 57.0599 36.6574 57.0196C36.2944 56.7428 35.9578 56.4331 35.6519 56.0943V56.0943C35.6116 56.0141 35.5311 55.9739 35.4908 55.9336C35.3703 55.8127 35.2898 55.6923 35.1693 55.5715C35.129 55.5312 35.0887 55.5312 35.0485 55.4913L35.0082 55.451C34.8467 55.3257 34.6494 55.2552 34.445 55.25C34.2037 55.25 34.0027 55.3302 33.8819 55.5312C33.768 55.7067 33.7216 55.9175 33.7513 56.1245C33.7809 56.3316 33.8845 56.5209 34.043 56.6575C34.0483 56.6574 34.0536 56.6584 34.0585 56.6603C34.0634 56.6623 34.0679 56.6653 34.0717 56.6691C34.0754 56.6728 34.0784 56.6773 34.0804 56.6822C34.0824 56.6872 34.0834 56.6924 34.0833 56.6978C34.0833 56.6978 34.1634 56.7783 34.2037 56.7783C34.3466 56.867 34.4944 56.9476 34.6464 57.0196L34.8899 57.1412C35.2927 57.3828 35.6955 57.6241 36.0159 57.9467C36.0964 58.0273 36.177 58.188 36.1367 58.3089V58.2686L36.378 58.5099C36.3377 58.5904 36.2974 58.6307 36.2575 58.7113C35.0096 60.6809 34.4871 63.0137 34.8489 65.3066L34.527 65.3868C34.5271 65.3921 34.5262 65.3974 34.5242 65.4023C34.5222 65.4072 34.5192 65.4117 34.5155 65.4155C34.5117 65.4192 34.5072 65.4222 34.5023 65.4242C34.4974 65.4262 34.4921 65.4271 34.4868 65.427C34.4465 65.5479 34.326 65.6281 34.2052 65.7086C33.7584 65.8313 33.3012 65.9121 32.8394 65.9499V65.9499C32.7569 65.9436 32.6741 65.9574 32.5981 65.9902C32.4374 65.9902 32.2766 66.0305 32.1155 66.0305C32.0752 66.0305 32.035 66.0707 31.9548 66.0707C31.9145 66.0707 31.9145 66.0707 31.8742 66.111C31.7703 66.1277 31.6708 66.1652 31.5817 66.2211C31.4925 66.2771 31.4155 66.3503 31.3553 66.4366C31.295 66.5229 31.2527 66.6204 31.2309 66.7234C31.2091 66.8263 31.2082 66.9326 31.2283 67.0359V67.0359C31.3089 67.3981 31.671 67.6394 32.0339 67.5991C32.1035 67.6053 32.1734 67.5913 32.2352 67.5588V67.5588C32.2755 67.5588 32.2755 67.5588 32.2755 67.5185C32.2755 67.4783 32.396 67.5185 32.4363 67.5185C32.597 67.4783 32.7581 67.3981 32.8786 67.3578C32.9591 67.3175 33.0397 67.2772 33.1199 67.2772H33.1602C33.5899 67.1144 34.0342 66.9933 34.4871 66.9155H34.5274C34.6463 66.9121 34.7618 66.9554 34.8493 67.0359C34.8546 67.0358 34.8599 67.0368 34.8648 67.0388C34.8697 67.0408 34.8742 67.0438 34.878 67.0475C34.8817 67.0513 34.8847 67.0558 34.8867 67.0607C34.8887 67.0656 34.8896 67.0709 34.8895 67.0762V67.0762L35.2513 67.0359C35.8547 68.8862 36.9811 70.5353 38.5497 71.7418C38.9118 72.0234 39.2333 72.2647 39.6357 72.4661L39.4347 72.7477C39.4346 72.753 39.4356 72.7582 39.4375 72.7631C39.4395 72.768 39.4424 72.7724 39.4462 72.7761C39.4499 72.7799 39.4543 72.7828 39.4592 72.7848C39.4641 72.7867 39.4693 72.7877 39.4746 72.7876C39.5552 72.9084 39.5552 73.0692 39.5149 73.1904C39.3541 73.5932 39.1121 73.9959 38.8715 74.357V74.3969C38.8313 74.4774 38.791 74.5177 38.7104 74.5983C38.6299 74.6788 38.5497 74.8396 38.4289 75.001C38.3886 75.0413 38.3886 75.0816 38.3487 75.1219C38.3488 75.1272 38.3478 75.1324 38.3458 75.1374C38.3438 75.1423 38.3408 75.1467 38.3371 75.1505C38.3333 75.1542 38.3288 75.1571 38.3239 75.1591C38.319 75.161 38.3137 75.1619 38.3084 75.1618C38.1074 75.5646 38.2681 76.0468 38.6302 76.2478C38.7178 76.2931 38.8135 76.3205 38.9118 76.3284C39.2333 76.3284 39.5149 76.1274 39.676 75.8458C39.6758 75.8405 39.6768 75.8352 39.6787 75.8303C39.6807 75.8253 39.6836 75.8209 39.6873 75.8171C39.6911 75.8133 39.6955 75.8104 39.7004 75.8084C39.7053 75.8064 39.7106 75.8054 39.7159 75.8055C39.7159 75.7652 39.7562 75.7249 39.7965 75.685C39.8367 75.5239 39.9173 75.4034 39.9576 75.2423L40.0378 75.001C40.1586 74.5587 40.3596 74.1563 40.5606 73.7543C40.6385 73.6406 40.7516 73.5558 40.8825 73.513C40.9228 73.513 40.9228 73.513 40.9228 73.4727L41.0835 73.1508C42.2098 73.5932 43.3764 73.7945 44.5829 73.7945C45.3159 73.7995 46.0462 73.7044 46.7535 73.5119C47.1958 73.4313 47.6385 73.2706 48.0406 73.1497L48.2013 73.4313C48.2416 73.4313 48.2416 73.4313 48.2416 73.4716C48.3725 73.5143 48.4857 73.5992 48.5634 73.7129C48.7645 74.1157 48.9662 74.5184 49.0863 74.9578V74.9981L49.1669 75.2394C49.2072 75.4005 49.2474 75.5613 49.3276 75.6817C49.3679 75.722 49.3679 75.7623 49.4082 75.8026C49.4081 75.8079 49.4091 75.8132 49.411 75.8181C49.413 75.823 49.416 75.8275 49.4198 75.8313C49.4235 75.835 49.428 75.838 49.4329 75.84C49.4379 75.842 49.4431 75.8429 49.4485 75.8428V75.8428C49.6096 76.1263 49.8919 76.328 50.2137 76.328C50.3342 76.328 50.4148 76.2877 50.5356 76.2475C50.6963 76.1673 50.8571 76.0062 50.8974 75.8051C50.9444 75.6045 50.9303 75.3943 50.8571 75.2017V75.2017C50.8572 75.1964 50.8563 75.1911 50.8544 75.1862C50.8524 75.1813 50.8495 75.1768 50.8457 75.173C50.842 75.1692 50.8376 75.1663 50.8326 75.1643C50.8277 75.1623 50.8225 75.1613 50.8172 75.1614C50.8172 75.1215 50.7769 75.0812 50.7366 75.041C50.6664 74.8916 50.5711 74.7554 50.455 74.6382C50.4148 74.558 50.3745 74.5177 50.2943 74.4372V74.357C50.0127 73.9948 49.8113 73.5924 49.6506 73.1904C49.6103 73.0695 49.6103 72.9088 49.6909 72.7876C49.6908 72.7823 49.6917 72.777 49.6937 72.7721C49.6957 72.7672 49.6987 72.7628 49.7025 72.759C49.7062 72.7553 49.7107 72.7524 49.7156 72.7504C49.7206 72.7485 49.7258 72.7475 49.7311 72.7477V72.7477L49.6103 72.4258C51.6608 71.1787 53.2305 69.2483 53.9544 66.9554L54.2763 66.9957C54.2816 66.9958 54.2869 66.9948 54.2918 66.9928C54.2967 66.9908 54.3011 66.9878 54.3049 66.9841C54.3086 66.9803 54.3115 66.9758 54.3135 66.9709C54.3154 66.966 54.3163 66.9607 54.3162 66.9554C54.4038 66.875 54.5192 66.8318 54.6381 66.8349H54.6783C55.1182 66.9128 55.5493 67.034 55.9654 67.1967H56.0057C56.0862 67.237 56.1664 67.2772 56.247 67.2772C56.4081 67.3578 56.5285 67.4384 56.6893 67.4783C56.7296 67.4783 56.7698 67.5185 56.8504 67.5185C56.8907 67.5185 56.8907 67.5185 56.931 67.5588C56.9927 67.5914 57.0625 67.6054 57.132 67.5991C57.3072 67.5967 57.4777 67.5417 57.6213 67.4413C57.7649 67.3409 57.8751 67.1997 57.9375 67.0359C57.9212 66.8369 57.8424 66.648 57.7124 66.4963C57.5824 66.3447 57.4079 66.2379 57.2136 66.1912H57.2125ZM45.588 64.9463L44.502 65.4691L43.4163 64.9463L43.1347 63.7797L43.8975 62.8126H45.1058L45.87 63.7778L45.588 64.9463ZM52.1445 62.3319C52.3379 63.1618 52.3923 64.018 52.3052 64.8657L48.484 63.7778C48.1222 63.6977 47.9212 63.3355 48.0014 62.9723C48.0304 62.8663 48.0859 62.7694 48.1625 62.6907L51.1789 59.9559C51.6235 60.6916 51.9494 61.4928 52.1445 62.33V62.3319ZM49.9724 58.4685L46.6741 60.8028C46.3925 60.9635 45.9904 60.9233 45.7894 60.6417C45.7501 60.6063 45.719 60.5627 45.6981 60.5141C45.6773 60.4655 45.6672 60.413 45.6686 60.3601L45.4273 56.2979C47.1969 56.4989 48.7656 57.2631 49.9724 58.4696V58.4685ZM42.6921 56.418L43.4976 56.2573L43.2966 60.2795C43.2966 60.6413 42.9747 60.9229 42.613 60.9229C42.4921 60.9229 42.4116 60.8826 42.2911 60.8423L38.9525 58.4692C39.9971 57.463 41.2845 56.7384 42.6921 56.4173V56.418ZM37.7855 59.9577L40.762 62.6124C41.0432 62.8537 41.0835 63.2557 40.8422 63.5373C40.762 63.6581 40.6815 63.6984 40.5204 63.7387L36.6186 64.8639C36.4999 63.1477 36.9068 61.4361 37.7851 59.957L37.7855 59.9577ZM37.1012 66.7544L41.0832 66.0707C41.405 66.0707 41.7269 66.2718 41.7671 66.5936C41.8074 66.7141 41.8074 66.8752 41.7269 66.9964L40.1992 70.6961C38.7906 69.7712 37.6643 68.3633 37.1012 66.7544ZM46.2317 71.7418C45.6686 71.8627 45.1054 71.9432 44.502 71.9432C43.6576 71.9432 42.7726 71.7821 41.9682 71.5405L43.9392 67.9609C44.1402 67.7196 44.4621 67.639 44.7448 67.7998C44.8615 67.882 44.9693 67.9764 45.0662 68.0813L46.997 71.5807C46.739 71.6193 46.4834 71.6731 46.2317 71.7418V71.7418ZM51.1383 68.2428C50.5252 69.218 49.7005 70.0427 48.7253 70.6558L47.1563 66.8752C47.0761 66.5533 47.2368 66.2315 47.5184 66.111C47.6393 66.0707 47.7597 66.0305 47.8806 66.0305L51.9028 66.7141C51.7018 67.2772 51.4605 67.8001 51.1387 68.2428H51.1383Z" fill="white"/>
</svg>
