<svg width="128" height="128" viewBox="0 0 128 128" fill="none" xmlns="http://www.w3.org/2000/svg">
<path d="M3 48.1083C3 46.3916 4.39162 45 6.10828 45H121.892C123.608 45 125 46.3916 125 48.1083V79.1911C125 80.9077 123.608 82.2994 121.892 82.2994H6.10828C4.39162 82.2994 3 80.9077 3 79.1911V48.1083Z" fill="#E0F2FF"/>
<path d="M121.892 80.7452V82.2994H6.10828V80.7452H121.892ZM123.446 79.1911V48.1083C123.446 47.25 122.75 46.5541 121.892 46.5541H6.10828C5.24995 46.5541 4.55414 47.25 4.55414 48.1083V79.1911C4.55414 80.0494 5.24995 80.7452 6.10828 80.7452V82.2994C4.44532 82.2994 3.08712 80.9935 3.00379 79.3512L3 79.1911V48.1083C3 46.3916 4.39162 45 6.10828 45H121.892L122.052 45.0038C123.694 45.0871 125 46.4453 125 48.1083V79.1911C125 80.854 123.694 82.2122 122.052 82.2956L121.892 82.2994V80.7452C122.75 80.7452 123.446 80.0494 123.446 79.1911Z" fill="#3C89C1"/>
<path d="M33.6849 58.2132C33.5608 57.816 33.263 57.4934 32.8906 57.295L25.3212 53.6711C25.1229 53.5717 24.8994 53.5469 24.7008 53.5469C24.5022 53.5469 24.2789 53.5469 24.0803 53.5966L16.5109 57.2453C16.3243 57.3306 16.16 57.4579 16.0307 57.6172C15.9013 57.7764 15.8105 57.9634 15.7653 58.1635L13.903 66.3295C13.8663 66.5362 13.8716 66.7482 13.9185 66.9529C13.9654 67.1576 14.0531 67.3508 14.1761 67.5209L19.4133 73.999C19.7111 74.297 20.1329 74.4961 20.555 74.5202H28.8947C29.3414 74.5699 29.7632 74.3713 30.0364 73.999L35.2735 67.5209C35.5183 67.175 35.6245 66.7499 35.5713 66.3295L33.6849 58.2132V58.2132Z" fill="#326DE6"/>
<path d="M32.5224 66.0074C32.4975 66.0074 32.4727 66.0074 32.4727 65.9825C32.4727 65.9577 32.423 65.9586 32.3724 65.9586C32.2732 65.9337 32.174 65.9337 32.0746 65.9337C32.0236 65.9376 31.9725 65.9291 31.9256 65.9089H31.9008C31.6158 65.8833 31.3334 65.8335 31.0569 65.76C31.0173 65.7449 30.9814 65.7216 30.9515 65.6917C30.9216 65.6617 30.8984 65.6258 30.8833 65.5862L30.6847 65.5365C30.7839 64.8168 30.7342 64.0721 30.5853 63.3524C30.4101 62.6307 30.1166 61.9429 29.7167 61.3171L29.8665 61.1684V61.1435C29.8665 61.069 29.8914 60.9698 29.9409 60.9201C30.1644 60.7217 30.3878 60.5728 30.6359 60.423L30.7848 60.3486C30.8842 60.2989 30.9586 60.2492 31.0578 60.1997C31.0826 60.1749 31.1075 60.1749 31.1323 60.15C31.1572 60.1252 31.1323 60.1252 31.1323 60.1003C31.3556 59.9256 31.4053 59.6285 31.2315 59.406C31.1892 59.3541 31.1364 59.3118 31.0765 59.2818C31.0167 59.2519 30.9511 59.2349 30.8842 59.2322C30.7581 59.2354 30.6364 59.2789 30.5367 59.3562V59.3562L30.5119 59.3811C30.487 59.406 30.4622 59.4306 30.4373 59.4306C30.363 59.5051 30.2884 59.5797 30.2387 59.654C30.2141 59.7038 30.1643 59.7286 30.1395 59.7535C29.9566 59.9609 29.7481 60.1443 29.519 60.2994C29.4693 60.3242 29.4196 60.3491 29.3701 60.3491C29.3453 60.3491 29.2956 60.3491 29.2707 60.3242H29.2461L29.0475 60.4483C28.8489 60.2497 28.6254 60.0513 28.427 59.8527C27.5085 59.1328 26.3668 58.6861 25.2002 58.562L25.1753 58.3634V58.3883C25.101 58.3386 25.0761 58.2642 25.0513 58.1897C25.0513 57.9167 25.0513 57.6435 25.101 57.3457V57.3209C25.101 57.2714 25.1258 57.2217 25.1258 57.172C25.1507 57.0728 25.1507 56.9736 25.1753 56.8742V56.7253C25.2002 56.4767 25.0016 56.2282 24.7535 56.204C24.6046 56.1791 24.4557 56.2537 24.3316 56.3777C24.285 56.4229 24.2478 56.4769 24.2222 56.5365C24.1966 56.5962 24.1831 56.6603 24.1825 56.7253V56.7253V56.8493C24.1825 56.9487 24.2073 57.0479 24.2322 57.1471C24.2524 57.1941 24.2609 57.2452 24.2571 57.2962V57.3209C24.3059 57.5934 24.3059 57.8663 24.3059 58.1632C24.281 58.2378 24.2561 58.3121 24.1816 58.3618V58.4118L24.157 58.6104C23.8838 58.635 23.6108 58.6847 23.313 58.7344C22.1464 58.983 21.079 59.603 20.26 60.4718L20.1111 60.3726H20.0862C20.0616 60.3726 20.0367 60.3974 19.987 60.3974C19.9373 60.3974 19.8878 60.3726 19.8381 60.3477C19.6141 60.1769 19.4064 59.9858 19.2176 59.7767V59.7767C19.1928 59.7273 19.1431 59.7024 19.1182 59.6775C19.0439 59.603 18.9942 59.5286 18.9198 59.4541C18.895 59.4292 18.8701 59.4292 18.8453 59.4046L18.8204 59.3797C18.7208 59.3024 18.599 59.2589 18.4729 59.2557C18.324 59.2557 18.2 59.3052 18.1254 59.4292C18.0551 59.5375 18.0265 59.6676 18.0448 59.7954C18.0631 59.9232 18.127 60.04 18.2248 60.1243C18.2281 60.1242 18.2313 60.1248 18.2344 60.126C18.2374 60.1272 18.2402 60.1291 18.2425 60.1314C18.2448 60.1337 18.2467 60.1365 18.2479 60.1395C18.2491 60.1426 18.2497 60.1458 18.2497 60.1491C18.2497 60.1491 18.2991 60.1988 18.324 60.1988C18.4122 60.2536 18.5034 60.3033 18.5972 60.3477L18.7474 60.4227C18.996 60.5719 19.2445 60.7208 19.4422 60.9198C19.4919 60.9695 19.5417 61.0687 19.5168 61.1433V61.1184L19.6657 61.2673C19.6408 61.3171 19.616 61.3419 19.5914 61.3916C18.8213 62.607 18.4989 64.0466 18.7221 65.4615L18.5235 65.511C18.5236 65.5142 18.523 65.5175 18.5217 65.5205C18.5205 65.5236 18.5187 65.5264 18.5164 65.5287C18.5141 65.531 18.5113 65.5328 18.5082 65.534C18.5052 65.5353 18.5019 65.5359 18.4987 65.5358C18.4738 65.6104 18.3995 65.6599 18.3249 65.7096C18.0492 65.7853 17.7671 65.8351 17.4821 65.8585V65.8585C17.4312 65.8546 17.3801 65.8631 17.3332 65.8833C17.234 65.8833 17.1348 65.9082 17.0354 65.9082C17.0105 65.9082 16.9857 65.933 16.9362 65.933C16.9113 65.933 16.9113 65.933 16.8865 65.9579C16.8224 65.9682 16.761 65.9913 16.706 66.0258C16.651 66.0603 16.6034 66.1056 16.5663 66.1588C16.5291 66.2121 16.503 66.2722 16.4895 66.3358C16.4761 66.3993 16.4755 66.4649 16.4879 66.5286V66.5286C16.5376 66.7521 16.7611 66.901 16.985 66.8762C17.028 66.88 17.0711 66.8714 17.1093 66.8513V66.8513C17.1341 66.8513 17.1341 66.8513 17.1341 66.8265C17.1341 66.8016 17.2085 66.8265 17.2333 66.8265C17.3325 66.8016 17.4319 66.7521 17.5063 66.7273C17.556 66.7024 17.6057 66.6776 17.6552 66.6776H17.68C17.9452 66.5771 18.2194 66.5023 18.4989 66.4543H18.5237C18.5971 66.4523 18.6684 66.4789 18.7224 66.5286C18.7256 66.5286 18.7289 66.5292 18.7319 66.5304C18.735 66.5316 18.7377 66.5335 18.7401 66.5358C18.7424 66.5381 18.7442 66.5409 18.7454 66.5439C18.7467 66.547 18.7473 66.5502 18.7472 66.5535V66.5535L18.9704 66.5286C19.3428 67.6704 20.0378 68.6881 21.0058 69.4326C21.2293 69.6063 21.4277 69.7552 21.676 69.8795L21.552 70.0533C21.5519 70.0565 21.5525 70.0598 21.5537 70.0628C21.5549 70.0658 21.5567 70.0685 21.559 70.0708C21.5613 70.0731 21.5641 70.0749 21.5671 70.0762C21.5701 70.0774 21.5733 70.078 21.5766 70.0779C21.6263 70.1525 21.6263 70.2517 21.6014 70.3265C21.5022 70.575 21.3529 70.8236 21.2044 71.0463V71.071C21.1796 71.1207 21.1547 71.1455 21.105 71.1952C21.0553 71.245 21.0058 71.3441 20.9313 71.4438C20.9064 71.4686 20.9064 71.4935 20.8818 71.5184C20.8818 71.5216 20.8812 71.5249 20.88 71.5279C20.8788 71.5309 20.8769 71.5337 20.8746 71.536C20.8723 71.5383 20.8695 71.5401 20.8665 71.5413C20.8634 71.5425 20.8602 71.5431 20.8569 71.543C20.7329 71.7915 20.8321 72.0891 21.0555 72.2132C21.1096 72.2411 21.1687 72.258 21.2293 72.2629C21.4277 72.2629 21.6014 72.1388 21.7009 71.9651C21.7008 71.9618 21.7013 71.9585 21.7025 71.9555C21.7037 71.9525 21.7055 71.9497 21.7078 71.9474C21.7102 71.945 21.7129 71.9432 21.7159 71.942C21.719 71.9407 21.7222 71.9401 21.7255 71.9402C21.7255 71.9154 21.7503 71.8905 21.7752 71.8659C21.8 71.7665 21.8498 71.6921 21.8746 71.5927L21.9241 71.4438C21.9987 71.1708 22.1227 70.9225 22.2468 70.6744C22.2948 70.6043 22.3646 70.552 22.4454 70.5255C22.4702 70.5255 22.4702 70.5255 22.4702 70.5007L22.5694 70.3021C23.2644 70.575 23.9843 70.6993 24.7288 70.6993C25.1812 70.7023 25.6318 70.6436 26.0683 70.5248C26.3412 70.4751 26.6144 70.3759 26.8625 70.3014L26.9617 70.4751C26.9866 70.4751 26.9866 70.4751 26.9866 70.5C27.0674 70.5264 27.1372 70.5787 27.1852 70.6489C27.3092 70.8974 27.4337 71.146 27.5078 71.4171V71.442L27.5575 71.5909C27.5824 71.6903 27.6072 71.7895 27.6567 71.8638C27.6816 71.8887 27.6816 71.9135 27.7064 71.9384C27.7064 71.9417 27.707 71.9449 27.7082 71.948C27.7094 71.951 27.7113 71.9538 27.7136 71.9561C27.7159 71.9584 27.7187 71.9603 27.7217 71.9615C27.7248 71.9627 27.728 71.9633 27.7313 71.9633V71.9633C27.8307 72.1381 28.0049 72.2626 28.2035 72.2626C28.2779 72.2626 28.3276 72.2378 28.4021 72.2129C28.5013 72.1634 28.6005 72.064 28.6254 71.94C28.6544 71.8162 28.6457 71.6865 28.6005 71.5676V71.5676C28.6006 71.5643 28.6001 71.5611 28.5989 71.558C28.5976 71.555 28.5958 71.5522 28.5935 71.5499C28.5912 71.5476 28.5885 71.5458 28.5855 71.5445C28.5824 71.5433 28.5792 71.5427 28.5759 71.5428C28.5759 71.5181 28.5511 71.4933 28.5262 71.4684C28.4829 71.3763 28.4241 71.2922 28.3524 71.2199C28.3276 71.1704 28.3027 71.1455 28.2532 71.0958V71.0463C28.0795 70.8229 27.9552 70.5746 27.856 70.3265C27.8312 70.2519 27.8312 70.1527 27.8809 70.0779C27.8808 70.0746 27.8814 70.0714 27.8826 70.0684C27.8839 70.0653 27.8857 70.0626 27.888 70.0603C27.8904 70.058 27.8931 70.0562 27.8962 70.055C27.8992 70.0538 27.9025 70.0532 27.9057 70.0533V70.0533L27.8312 69.8547C29.0965 69.0851 30.0652 67.8939 30.5119 66.4789L30.7105 66.5038C30.7137 66.5039 30.717 66.5033 30.72 66.502C30.7231 66.5008 30.7258 66.499 30.7281 66.4966C30.7304 66.4943 30.7322 66.4915 30.7334 66.4885C30.7346 66.4855 30.7352 66.4822 30.7351 66.4789C30.7892 66.4293 30.8604 66.4027 30.9337 66.4046H30.9586C31.23 66.4527 31.4961 66.5274 31.7528 66.6278H31.7776C31.8274 66.6527 31.8768 66.6776 31.9266 66.6776C32.026 66.7273 32.1003 66.777 32.1995 66.8016C32.2244 66.8016 32.2492 66.8265 32.2989 66.8265C32.3238 66.8265 32.3238 66.8265 32.3486 66.8513C32.3867 66.8714 32.4298 66.88 32.4727 66.8762C32.5808 66.8747 32.686 66.8407 32.7746 66.7788C32.8632 66.7168 32.9312 66.6297 32.9698 66.5286C32.9597 66.4058 32.9111 66.2893 32.8308 66.1957C32.7506 66.1021 32.6429 66.0362 32.5231 66.0074H32.5224ZM25.3491 65.2391L24.6789 65.5618L24.009 65.2391L23.8352 64.5193L24.3059 63.9225H25.0515L25.5231 64.5181L25.3491 65.2391ZM29.395 63.6258C29.5144 64.138 29.5479 64.6663 29.4942 65.1894L27.1361 64.5181C26.9129 64.4686 26.7888 64.2452 26.8383 64.021C26.8563 63.9556 26.8905 63.8959 26.9378 63.8473L28.7991 62.1596C29.0735 62.6137 29.2746 63.1081 29.395 63.6247V63.6258ZM28.0546 61.2418L26.0193 62.6823C25.8455 62.7815 25.5974 62.7566 25.4734 62.5828C25.4491 62.561 25.4299 62.5341 25.417 62.5041C25.4042 62.4741 25.3979 62.4417 25.3988 62.4091L25.2499 59.9024C26.3419 60.0264 27.3099 60.498 28.0546 61.2425V61.2418ZM23.562 59.9765L24.0591 59.8773L23.9351 62.3594C23.9351 62.5826 23.7365 62.7564 23.5132 62.7564C23.4387 62.7564 23.3889 62.7315 23.3146 62.7067L21.2544 61.2423C21.899 60.6214 22.6935 60.1742 23.562 59.976V59.9765ZM20.5343 62.1608L22.371 63.7989C22.5446 63.9478 22.5694 64.1959 22.4205 64.3697C22.371 64.4442 22.3213 64.4691 22.2219 64.4939L19.8142 65.1883C19.7409 64.1293 19.992 63.0731 20.534 62.1603L20.5343 62.1608ZM20.112 66.3549L22.5692 65.933C22.7678 65.933 22.9664 66.0571 22.9913 66.2557C23.0161 66.33 23.0161 66.4295 22.9664 66.5042L22.0237 68.7873C21.1545 68.2165 20.4595 67.3477 20.112 66.3549ZM25.7463 69.4326C25.3988 69.5072 25.0513 69.5569 24.6789 69.5569C24.1579 69.5569 23.6117 69.4574 23.1153 69.3083L24.3316 67.0994C24.4557 66.9505 24.6543 66.9008 24.8287 67C24.9008 67.0508 24.9673 67.109 25.0271 67.1737L26.2185 69.3332C26.0593 69.3569 25.9016 69.3901 25.7463 69.4326V69.4326ZM28.7741 67.2734C28.3957 67.8752 27.8868 68.3841 27.285 68.7624L26.3168 66.4295C26.2674 66.2308 26.3665 66.0322 26.5403 65.9579C26.6149 65.933 26.6892 65.9082 26.7638 65.9082L29.2459 66.33C29.1218 66.6776 28.9729 67.0002 28.7743 67.2734H28.7741Z" fill="white"/>
<path d="M104.675 68.4639C103.894 68.4639 103.24 68.2818 102.714 67.9176C102.192 67.5493 101.906 67.0211 101.858 66.3331H103.37C103.402 66.6447 103.527 66.8875 103.746 67.0616C103.964 67.2316 104.266 67.3166 104.651 67.3166C105.019 67.3166 105.308 67.2437 105.519 67.098C105.733 66.9523 105.84 66.7661 105.84 66.5395C105.84 66.3452 105.761 66.1894 105.604 66.072C105.446 65.9547 105.233 65.8676 104.966 65.811L103.873 65.5864C102.627 65.3273 102.004 64.7101 102.004 63.7347C102.004 63.1439 102.238 62.6683 102.708 62.3081C103.177 61.9438 103.803 61.7617 104.584 61.7617C105.361 61.7617 105.992 61.954 106.478 62.3385C106.968 62.7189 107.221 63.239 107.237 63.8987H105.798C105.79 63.6113 105.679 63.3745 105.464 63.1884C105.249 63.0022 104.968 62.9091 104.62 62.9091C104.284 62.9091 104.019 62.984 103.825 63.1337C103.631 63.2835 103.533 63.4676 103.533 63.6862C103.533 63.8764 103.608 64.0322 103.758 64.1536C103.908 64.271 104.116 64.36 104.383 64.4208L105.537 64.6575C106.172 64.7911 106.64 65.0015 106.939 65.2889C107.243 65.5762 107.395 65.9547 107.395 66.4241C107.395 66.841 107.277 67.2032 107.042 67.5108C106.812 67.8144 106.492 68.0491 106.083 68.215C105.674 68.381 105.205 68.4639 104.675 68.4639Z" fill="black"/>
<path d="M98.106 68.4581C97.4665 68.4581 96.912 68.3144 96.4426 68.0271C95.9731 67.7397 95.6109 67.3451 95.3559 66.8432C95.105 66.3373 94.9795 65.7606 94.9795 65.113C94.9795 64.4614 95.109 63.8847 95.368 63.3828C95.6311 62.8769 95.9933 62.4803 96.4547 62.193C96.9161 61.9016 97.4463 61.7559 98.0453 61.7559C98.6605 61.7559 99.1987 61.8975 99.6601 62.1808C100.122 62.4641 100.48 62.8567 100.735 63.3586C100.99 63.8564 101.117 64.4331 101.117 65.0888V65.5077H96.479C96.4992 66.0297 96.653 66.4507 96.9404 66.7704C97.2277 67.0901 97.6284 67.25 98.1424 67.25C98.5269 67.25 98.8446 67.167 99.0955 67.0011C99.3465 66.8311 99.5164 66.6085 99.6055 66.3333H101.038C100.957 66.7502 100.779 67.1185 100.504 67.4382C100.233 67.7579 99.8908 68.0088 99.478 68.191C99.0652 68.369 98.6078 68.4581 98.106 68.4581ZM96.4911 64.4513H99.648C99.5994 63.994 99.4335 63.6338 99.1502 63.3707C98.8709 63.1036 98.5107 62.97 98.0696 62.97C97.6244 62.97 97.2621 63.1036 96.9829 63.3707C96.7077 63.6338 96.5438 63.994 96.4911 64.4513Z" fill="black"/>
<path d="M94.4089 61.9008V63.1331H93.1036V66.4721C93.1036 66.7028 93.1502 66.8627 93.2433 66.9517C93.3364 67.0367 93.5063 67.0792 93.7532 67.0792H94.4089V68.3116H93.4861C92.8345 68.3116 92.3509 68.18 92.0352 67.917C91.7235 67.6539 91.5677 67.2472 91.5677 66.6967V63.1331H90.4507V61.9008H91.5677V60.1523H93.1036V61.9008H94.4089Z" fill="black"/>
<path d="M86.9722 68.4581C86.3327 68.4581 85.7783 68.3144 85.3088 68.0271C84.8393 67.7397 84.4771 67.3451 84.2221 66.8432C83.9712 66.3373 83.8457 65.7606 83.8457 65.113C83.8457 64.4614 83.9752 63.8847 84.2342 63.3828C84.4973 62.8769 84.8595 62.4803 85.3209 62.193C85.7823 61.9016 86.3125 61.7559 86.9115 61.7559C87.5267 61.7559 88.065 61.8975 88.5263 62.1808C88.9877 62.4641 89.3459 62.8567 89.6009 63.3586C89.8559 63.8564 89.9833 64.4331 89.9833 65.0888V65.5077H85.3452C85.3654 66.0297 85.5192 66.4507 85.8066 66.7704C86.0939 67.0901 86.4946 67.25 87.0086 67.25C87.3931 67.25 87.7108 67.167 87.9617 67.0011C88.2127 66.8311 88.3827 66.6085 88.4717 66.3333H89.9044C89.8235 66.7502 89.6454 67.1185 89.3702 67.4382C89.099 67.7579 88.757 68.0088 88.3442 68.191C87.9314 68.369 87.4741 68.4581 86.9722 68.4581ZM85.3573 64.4513H88.5142C88.4656 63.994 88.2997 63.6338 88.0164 63.3707C87.7371 63.1036 87.3769 62.97 86.9358 62.97C86.4906 62.97 86.1283 63.1036 85.8491 63.3707C85.5739 63.6338 85.41 63.994 85.3573 64.4513Z" fill="black"/>
<path d="M78.546 64.6875V68.3118H77.0161V61.9009H78.5217V62.8844C78.9669 62.1438 79.6225 61.7734 80.4886 61.7734C81.1605 61.7734 81.7089 61.99 82.1338 62.423C82.5629 62.8561 82.7774 63.4834 82.7774 64.305V68.3118H81.2414V64.5478C81.2414 64.0783 81.1281 63.7222 80.9015 63.4793C80.6748 63.2365 80.3571 63.1151 79.9483 63.1151C79.5477 63.1151 79.2138 63.2406 78.9466 63.4915C78.6795 63.7424 78.546 64.1411 78.546 64.6875Z" fill="black"/>
<path d="M72.5112 68.3114V61.9006H73.9864V62.963H74.0047C74.122 62.5987 74.3062 62.3215 74.5571 62.1312C74.8121 61.937 75.146 61.8398 75.5588 61.8398C75.664 61.8398 75.7571 61.8439 75.8381 61.852C75.9231 61.856 75.9959 61.8601 76.0566 61.8641V63.224C76 63.2159 75.9028 63.2058 75.7652 63.1936C75.6276 63.1815 75.4839 63.1754 75.3342 63.1754C74.9699 63.1754 74.6623 63.3009 74.4114 63.5518C74.1645 63.8028 74.0411 64.1791 74.0411 64.681V68.3114H72.5112Z" fill="black"/>
<path d="M68.4561 68.4581C67.8166 68.4581 67.2621 68.3144 66.7927 68.0271C66.3232 67.7397 65.961 67.3451 65.706 66.8432C65.4551 66.3373 65.3296 65.7606 65.3296 65.113C65.3296 64.4614 65.4591 63.8847 65.7181 63.3828C65.9812 62.8769 66.3434 62.4803 66.8048 62.193C67.2662 61.9016 67.7964 61.7559 68.3954 61.7559C69.0106 61.7559 69.5488 61.8975 70.0102 62.1808C70.4716 62.4641 70.8298 62.8567 71.0848 63.3586C71.3397 63.8564 71.4672 64.4331 71.4672 65.0888V65.5077H66.8291C66.8493 66.0297 67.0031 66.4507 67.2905 66.7704C67.5778 67.0901 67.9785 67.25 68.4925 67.25C68.877 67.25 69.1947 67.167 69.4456 67.0011C69.6966 66.8311 69.8665 66.6085 69.9556 66.3333H71.3883C71.3074 66.7502 71.1293 67.1185 70.8541 67.4382C70.5829 67.7579 70.2409 68.0088 69.8281 68.191C69.4153 68.369 68.9579 68.4581 68.4561 68.4581ZM66.8412 64.4513H69.9981C69.9495 63.994 69.7836 63.6338 69.5003 63.3707C69.221 63.1036 68.8608 62.97 68.4197 62.97C67.9745 62.97 67.6122 63.1036 67.333 63.3707C67.0578 63.6338 66.8938 63.994 66.8412 64.4513Z" fill="black"/>
<path d="M61.79 68.4387C61.3691 68.4387 60.9886 68.3476 60.6487 68.1655C60.3127 67.9834 60.0456 67.7061 59.8473 67.3338H59.8352V68.3112H58.3296V59.2656H59.8594V62.811H59.8716C60.078 62.4589 60.3471 62.1979 60.679 62.0279C61.0109 61.8579 61.3832 61.7729 61.7961 61.7729C62.3465 61.7729 62.8281 61.9145 63.2409 62.1979C63.6578 62.4771 63.9816 62.8677 64.2123 63.3695C64.447 63.8673 64.5644 64.4441 64.5644 65.0997C64.5644 65.7675 64.449 66.3523 64.2183 66.8542C63.9917 67.352 63.6699 67.7405 63.2531 68.0198C62.8362 68.2991 62.3485 68.4387 61.79 68.4387ZM61.4318 67.1577C61.9053 67.1577 62.2878 66.9817 62.5792 66.6296C62.8706 66.2734 63.0163 65.7635 63.0163 65.0997C63.0163 64.44 62.8706 63.9321 62.5792 63.5759C62.2878 63.2198 61.9053 63.0417 61.4318 63.0417C60.9299 63.0417 60.5272 63.2299 60.2237 63.6063C59.9242 63.9786 59.7745 64.4764 59.7745 65.0997C59.7745 65.723 59.9242 66.2228 60.2237 66.5992C60.5272 66.9716 60.9299 67.1577 61.4318 67.1577Z" fill="black"/>
<path d="M53.4853 68.4387C52.8134 68.4387 52.265 68.2222 51.8401 67.7891C51.4151 67.3561 51.2026 66.7287 51.2026 65.9072V61.9004H52.7325V65.6643C52.7325 66.1338 52.8458 66.49 53.0725 66.7328C53.2991 66.9756 53.6168 67.097 54.0256 67.097C54.4303 67.097 54.7642 66.9716 55.0273 66.7207C55.2944 66.4697 55.428 66.0711 55.428 65.5247V61.9004H56.9639V68.3112H55.4583V67.3277C55.0091 68.0684 54.3514 68.4387 53.4853 68.4387Z" fill="black"/>
<path d="M43.3833 68.3112V59.2656H44.986V63.6306C45.2207 63.3554 45.4555 63.0822 45.6902 62.811C45.929 62.5398 46.1658 62.2667 46.4005 61.9914L48.8046 59.2656H50.7837L47.3051 63.1813L50.8444 68.3112H48.9746L46.2245 64.2619L44.986 65.6643V68.3112H43.3833Z" fill="black"/>
</svg>
