<svg width="128" height="128" viewBox="0 0 128 128" fill="none" xmlns="http://www.w3.org/2000/svg">
<path d="M106.842 35.5861C106.239 33.6632 104.799 32.102 102.996 31.1439L66.3668 13.603C65.4087 13.1206 64.3232 13 63.3651 13C62.407 13 61.3216 13 60.3635 13.2412L23.7272 30.9027C21.9249 31.7402 20.605 33.3081 20.1225 35.3449L11.1176 74.8622C10.7558 76.9057 11.2382 78.9426 12.4375 80.6243L37.7774 111.974C39.2179 113.415 41.2614 114.38 43.305 114.493H83.6598C85.8239 114.735 87.8608 113.77 89.1874 111.974L114.527 80.6243C115.727 78.9426 116.209 76.899 115.968 74.8622L106.842 35.5861Z" fill="#326DE6"/>
<path d="M49.8613 34.4395H75.9918V47.8397H49.8613V34.4395Z" fill="white"/>
<path d="M31.0991 69.9512H49.8595V83.3514H31.0991V69.9512Z" fill="white"/>
<path d="M53.8818 69.9512H72.6422V83.3514H53.8818V69.9512Z" fill="white"/>
<path d="M76.6616 69.9512H95.422V83.3514H76.6616V69.9512Z" fill="white"/>
<path fill-rule="evenodd" clip-rule="evenodd" d="M39.1396 57.8926H87.3805V69.9528H84.7005V60.5726H41.8197V69.9528H39.1396V57.8926Z" fill="white"/>
<path fill-rule="evenodd" clip-rule="evenodd" d="M61.9199 69.9502V47.8398H64.6V69.9502H61.9199Z" fill="white"/>
<path d="M81.532 96.2391H78.7183C78.6669 95.8751 78.562 95.5517 78.4035 95.2691C78.245 94.9821 78.0416 94.738 77.7932 94.5367C77.5448 94.3354 77.2579 94.1812 76.9324 94.0742C76.6112 93.9671 76.2621 93.9136 75.8852 93.9136C75.2043 93.9136 74.6111 94.0827 74.1058 94.4211C73.6004 94.7551 73.2085 95.2434 72.9301 95.8858C72.6518 96.5239 72.5126 97.2991 72.5126 98.2113C72.5126 99.1492 72.6518 99.9373 72.9301 100.575C73.2128 101.214 73.6068 101.695 74.1122 102.021C74.6175 102.346 75.2021 102.509 75.866 102.509C76.2386 102.509 76.5833 102.46 76.9002 102.361C77.2215 102.263 77.5063 102.119 77.7547 101.931C78.0031 101.738 78.2086 101.505 78.3714 101.231C78.5384 100.957 78.654 100.644 78.7183 100.293L81.532 100.306C81.4592 100.909 81.2772 101.492 80.986 102.053C80.699 102.61 80.3115 103.109 79.8232 103.55C79.3393 103.987 78.7611 104.333 78.0887 104.59C77.4206 104.843 76.6647 104.969 75.821 104.969C74.6475 104.969 73.5983 104.704 72.6732 104.173C71.7524 103.642 71.0243 102.873 70.489 101.867C69.9579 100.86 69.6924 99.6417 69.6924 98.2113C69.6924 96.7766 69.9622 95.556 70.5018 94.5496C71.0414 93.5431 71.7738 92.7765 72.6989 92.2497C73.6239 91.7187 74.6647 91.4531 75.821 91.4531C76.5833 91.4531 77.29 91.5602 77.941 91.7743C78.5962 91.9885 79.1765 92.3011 79.6819 92.7123C80.1873 93.1191 80.5984 93.6181 80.9153 94.2091C81.2365 94.8001 81.4421 95.4768 81.532 96.2391Z" fill="white"/>
<path d="M59.5114 91.6406L62.6913 101.637H62.8134L65.9998 91.6406H69.0833L64.5479 104.797H60.9632L56.4214 91.6406H59.5114Z" fill="white"/>
<path d="M52.4167 95.4168C52.3653 94.8986 52.1447 94.496 51.755 94.2091C51.3652 93.9221 50.8363 93.7787 50.1682 93.7787C49.7142 93.7787 49.3309 93.8429 49.0183 93.9714C48.7057 94.0956 48.4658 94.269 48.2988 94.4917C48.1361 94.7144 48.0547 94.9671 48.0547 95.2498C48.0461 95.4853 48.0954 95.6909 48.2024 95.8665C48.3138 96.0421 48.4658 96.1941 48.6585 96.3226C48.8513 96.4468 49.074 96.556 49.3267 96.6502C49.5793 96.7402 49.8492 96.8173 50.1361 96.8815L51.3181 97.1642C51.892 97.2927 52.4188 97.464 52.8985 97.6781C53.3781 97.8922 53.7936 98.1556 54.1447 98.4683C54.4959 98.7809 54.7679 99.1492 54.9606 99.5732C55.1576 99.9972 55.2583 100.483 55.2625 101.031C55.2583 101.837 55.0527 102.535 54.6458 103.126C54.2433 103.712 53.6608 104.169 52.8985 104.494C52.1404 104.815 51.2261 104.976 50.1554 104.976C49.0932 104.976 48.1682 104.813 47.3801 104.488C46.5964 104.162 45.984 103.68 45.5428 103.042C45.106 102.4 44.8769 101.605 44.8555 100.659H47.5472C47.5772 101.1 47.7035 101.468 47.9262 101.764C48.1532 102.055 48.4551 102.276 48.832 102.426C49.2132 102.571 49.6436 102.644 50.1232 102.644C50.5944 102.644 51.0034 102.575 51.3503 102.438C51.7014 102.301 51.9734 102.111 52.1661 101.867C52.3588 101.623 52.4552 101.342 52.4552 101.025C52.4552 100.73 52.3674 100.481 52.1918 100.28C52.0205 100.079 51.7678 99.9073 51.4338 99.7659C51.104 99.6246 50.6993 99.4961 50.2196 99.3805L48.787 99.0207C47.6778 98.7509 46.802 98.3291 46.1596 97.7552C45.5172 97.1813 45.1981 96.4083 45.2024 95.4361C45.1981 94.6395 45.4101 93.9435 45.8384 93.3482C46.2709 92.7529 46.8641 92.2883 47.6178 91.9542C48.3716 91.6202 49.2282 91.4531 50.1875 91.4531C51.164 91.4531 52.0162 91.6202 52.7443 91.9542C53.4766 92.2883 54.0462 92.7529 54.4531 93.3482C54.86 93.9435 55.0698 94.6331 55.0827 95.4168H52.4167Z" fill="white"/>
</svg>
