<svg width="128" height="128" viewBox="0 0 128 128" fill="none" xmlns="http://www.w3.org/2000/svg">
<path d="M106.842 35.5861C106.239 33.6632 104.799 32.102 102.996 31.1439L66.3668 13.603C65.4087 13.1206 64.3232 13 63.3651 13C62.407 13 61.3216 13 60.3635 13.2412L23.7272 30.9027C21.9249 31.7402 20.605 33.3081 20.1225 35.3449L11.1176 74.8622C10.7558 76.9057 11.2382 78.9426 12.4375 80.6243L37.7774 111.974C39.2179 113.415 41.2614 114.38 43.305 114.493H83.6598C85.8239 114.735 87.8608 113.77 89.1874 111.974L114.527 80.6243C115.727 78.9426 116.209 76.899 115.968 74.8622L106.842 35.5861Z" fill="#326DE6"/>
<path d="M74.9238 103.236C71.959 103.236 70.0146 100.873 70.0146 97.3174C70.0146 93.8369 72.002 91.4199 74.9023 91.4199C76.374 91.4199 77.5127 92 78.2432 93.2246H78.2539V86.9941H81.4121V103H78.2969V101.26H78.2861C77.6309 102.581 76.417 103.236 74.9238 103.236ZM75.7402 100.658C77.3408 100.658 78.4043 99.3477 78.4043 97.3174C78.4043 95.2979 77.3408 93.9766 75.7402 93.9766C74.2041 93.9766 73.2051 95.1904 73.2051 97.3174C73.2051 99.4443 74.2041 100.658 75.7402 100.658Z" fill="white"/>
<path d="M62.9893 103.258C59.5518 103.258 57.2314 100.895 57.2314 97.3389C57.2314 93.7832 59.5518 91.3984 62.9893 91.3984C66.4375 91.3984 68.7578 93.7832 68.7578 97.3389C68.7578 100.895 66.4375 103.258 62.9893 103.258ZM62.9893 100.69C64.5361 100.69 65.5674 99.4443 65.5674 97.3389C65.5674 95.2227 64.5254 93.9658 62.9893 93.9658C61.4639 93.9658 60.4219 95.2227 60.4219 97.3389C60.4219 99.4443 61.4531 100.69 62.9893 100.69Z" fill="white"/>
<path d="M44.5771 107.49V91.6562H47.7031V93.1924H47.7354C48.4336 92.0107 49.626 91.4199 51.0977 91.4199C53.998 91.4199 55.9854 93.8369 55.9854 97.3174C55.9854 100.873 54.041 103.236 51.0762 103.236C49.583 103.236 48.4336 102.581 47.7783 101.303H47.7461V107.49H44.5771ZM50.2598 100.658C51.7959 100.658 52.7949 99.4443 52.7949 97.3174C52.7949 95.1904 51.7959 93.9766 50.2598 93.9766C48.6592 93.9766 47.5957 95.2979 47.5957 97.3174C47.5957 99.3477 48.6592 100.658 50.2598 100.658Z" fill="white"/>
<path fill-rule="evenodd" clip-rule="evenodd" d="M39 41.7009L63.2196 34.6777L87.4392 41.7009L63.2196 48.7242L39 41.7009Z" fill="white"/>
<path fill-rule="evenodd" clip-rule="evenodd" d="M39 44.3887V70.159L61.5659 82.6587L61.6776 51.1332L39 44.3887Z" fill="white"/>
<path fill-rule="evenodd" clip-rule="evenodd" d="M87.4393 44.3887V70.159L64.8734 82.6587L64.7617 51.1332L87.4393 44.3887Z" fill="white"/>
</svg>
