<svg width="128" height="128" viewBox="0 0 128 128" fill="none" xmlns="http://www.w3.org/2000/svg">
<path d="M121.959 114.905C121.959 116.981 120.675 117.799 119.153 117.799C117.631 117.799 116.347 116.981 116.347 114.905C116.347 112.829 117.631 111.949 119.153 111.949C120.675 111.949 121.959 112.829 121.959 114.905ZM118.014 114.9C118.014 116.2 118.506 116.536 119.153 116.536C119.8 116.536 120.292 116.2 120.292 114.9C120.292 113.601 119.8 113.212 119.153 113.212C118.506 113.212 118.014 113.601 118.014 114.9Z" fill="#8B8B8B"/>
<path d="M115.538 114.905C115.538 116.981 114.254 117.799 112.732 117.799C111.21 117.799 109.926 116.981 109.926 114.905C109.926 112.829 111.21 111.949 112.732 111.949C114.254 111.949 115.538 112.829 115.538 114.905ZM111.593 114.9C111.593 116.2 112.085 116.536 112.732 116.536C113.379 116.536 113.871 116.2 113.871 114.9C113.871 113.601 113.379 113.212 112.732 113.212C112.085 113.212 111.593 113.601 111.593 114.9Z" fill="#8B8B8B"/>
<path d="M109.025 110.82C108.611 110.727 108.233 110.67 107.839 110.67C106.969 110.67 106.778 110.949 106.778 111.752V112.073H108.864V113.424H106.778V116.323H108.326V117.675H103.946V116.323H105.121V113.424H103.609V112.073H105.121C105.152 110.08 105.924 109.262 107.751 109.262C108.253 109.262 108.657 109.324 109.025 109.427V110.82Z" fill="#8B8B8B"/>
<path d="M98.9799 118.709H97.4009L100.574 110.115H102.154L98.9799 118.709Z" fill="#8B8B8B"/>
<path d="M92.1179 115.947V113.358H90.7666V112.146H92.1179V110.635H93.6089V112.146H95.7367V113.358H93.6089V115.972C93.6089 116.475 93.8833 116.656 94.1991 116.656C94.5097 116.656 94.7945 116.485 94.7945 115.983V115.626H95.8247V115.947C95.8247 117.225 95.1672 117.795 93.9558 117.795C92.7288 117.795 92.1179 117.225 92.1179 115.947Z" fill="#8B8B8B"/>
<path d="M84.2949 114.893C84.2949 112.951 85.4753 112.02 87.1579 112.02C88.7525 112.02 89.6689 112.853 89.6689 114.572V115.115H85.8015C85.8584 116.109 86.2985 116.648 87.0958 116.648C87.5928 116.648 88.0018 116.446 88.2141 115.975L89.6585 116.177C89.2495 117.383 88.1623 117.797 87.0906 117.797C85.4494 117.797 84.2949 116.824 84.2949 114.893ZM85.8533 114.246H88.2192V114.235C88.2192 113.511 87.7792 113.164 87.1113 113.164C86.4901 113.164 86.0189 113.469 85.8533 114.246Z" fill="#8B8B8B"/>
<path d="M83.1027 117.673H81.6169V113.992C81.6169 113.371 81.3269 113.2 80.9076 113.2C80.4261 113.2 80.0119 113.433 79.6392 113.775V117.673H78.1533V112.144H79.4528L79.5356 112.967H79.7168C80.2604 112.382 80.8144 112.02 81.6531 112.02C82.6057 112.02 83.1027 112.485 83.1027 113.609V117.673Z" fill="#8B8B8B"/>
<path d="M74.1866 117.881C73.5447 117.881 73.0166 117.451 73.0166 116.752C73.0166 116.043 73.5447 115.629 74.1866 115.629C74.8183 115.629 75.3412 116.043 75.3412 116.752C75.3412 117.451 74.8183 117.881 74.1866 117.881Z" fill="#8B8B8B"/>
<path d="M70.2609 117.673H68.7751V113.992C68.7751 113.371 68.4851 113.2 68.0658 113.2C67.5843 113.2 67.1701 113.433 66.7974 113.775V117.673H65.3115V112.144H66.611L66.6938 112.967H66.875C67.4186 112.382 67.9726 112.02 68.8113 112.02C69.7639 112.02 70.2609 112.485 70.2609 113.609V117.673Z" fill="#8B8B8B"/>
<path d="M58.8643 117.677V116.465H60.6193V113.354H58.8643V112.148L61.9395 112.013L62.1104 112.179V116.465H63.8602V117.677H58.8643ZM60.1482 110.325C60.1482 109.771 60.5468 109.43 61.1319 109.43C61.7169 109.43 62.1104 109.771 62.1104 110.325C62.1104 110.879 61.7169 111.231 61.1319 111.231C60.5468 111.231 60.1482 110.879 60.1482 110.325Z" fill="#8B8B8B"/>
<path d="M54.7425 112.02C56.161 112.02 57.0567 112.485 57.0567 113.754V116.213C57.0567 116.55 57.1602 116.638 57.5951 116.607V117.673C57.2793 117.751 56.9946 117.792 56.7305 117.792C55.9695 117.792 55.7261 117.471 55.6692 117.016H55.519C55.1515 117.466 54.5768 117.797 53.852 117.797C52.9046 117.797 52.2729 117.228 52.2729 116.317C52.2729 114.763 54.1057 114.541 55.5708 114.567V113.816C55.5708 113.221 55.1981 113.024 54.6752 113.019C54.1316 113.019 53.7743 113.236 53.7743 113.702V113.899H52.4542V113.635C52.4542 112.682 53.0806 112.02 54.7425 112.02ZM53.8261 116.109C53.8261 116.498 54.1212 116.736 54.6079 116.736C54.9547 116.736 55.2809 116.612 55.5708 116.42V115.343C55.4673 115.333 55.3637 115.328 55.2498 115.328C54.3283 115.328 53.8261 115.602 53.8261 116.109Z" fill="#8B8B8B"/>
<path d="M49.1599 117.674H47.8915V113.688C47.8915 113.377 47.7569 113.279 47.5705 113.279C47.4152 113.279 47.2702 113.346 47.1356 113.445V117.674H45.8672V112.145H46.9544L47.0269 112.922H47.1511C47.322 112.497 47.6947 112.031 48.3264 112.031C48.8234 112.031 49.0926 112.3 49.1495 112.922H49.2117C49.3773 112.497 49.719 112.031 50.3558 112.031C50.9046 112.031 51.1842 112.373 51.1842 113.181V117.674H49.9158V113.688C49.9158 113.377 49.7811 113.279 49.5948 113.279C49.4343 113.279 49.2893 113.346 49.1599 113.445V117.674Z" fill="#8B8B8B"/>
<path d="M44.8562 114.934C44.8562 116.953 43.6033 117.797 42.1019 117.797C40.6057 117.797 39.3477 116.953 39.3477 114.934C39.3477 112.91 40.6057 112.02 42.1019 112.02C43.6033 112.02 44.8562 112.91 44.8562 114.934ZM40.849 114.929C40.849 116.244 41.3823 116.648 42.1019 116.648C42.8216 116.648 43.3548 116.244 43.3548 114.929C43.3548 113.614 42.8216 113.164 42.1019 113.164C41.3823 113.164 40.849 113.614 40.849 114.929Z" fill="#8B8B8B"/>
<path d="M32.9268 114.931C32.9268 113.269 33.5687 112.027 35.0183 112.027C35.8053 112.027 36.3282 112.394 36.5922 112.819H36.6699V109.754H38.1557V117.675H36.8562L36.7786 117.012H36.5974C36.2764 117.437 35.7587 117.81 34.9769 117.81C33.5584 117.81 32.9268 116.583 32.9268 114.931ZM34.4333 114.931C34.4333 116.086 34.8371 116.577 35.6758 116.577C36.0175 116.577 36.3592 116.495 36.6699 116.319V113.513C36.3437 113.331 36.002 113.254 35.681 113.254C34.8475 113.254 34.4333 113.771 34.4333 114.931Z" fill="#8B8B8B"/>
<path d="M29.2394 117.881C28.5974 117.881 28.0693 117.451 28.0693 116.752C28.0693 116.043 28.5974 115.629 29.2394 115.629C29.871 115.629 30.3939 116.043 30.3939 116.752C30.3939 117.451 29.871 117.881 29.2394 117.881Z" fill="#8B8B8B"/>
<path d="M19.8418 112.145H21.2552L21.9179 115.458H21.9903L22.8756 112.766H23.7765L24.5272 115.458H24.6152L25.2986 112.145H26.6602L25.4021 117.674H24.1958L23.2691 114.604H23.207L22.213 117.674H21.0947L19.8418 112.145Z" fill="#8B8B8B"/>
<path d="M13.4209 112.145H14.798L15.2847 115.385H15.3572L16.0302 112.776H16.9466L17.4798 115.385H17.5678L18.0752 112.145H19.4161L18.3651 117.674H17.1588L16.434 114.635H16.3719L15.5798 117.674H14.4615L13.4209 112.145Z" fill="#8B8B8B"/>
<path d="M7 112.145H8.37713L8.86379 115.385H8.93627L9.60931 112.776H10.5257L11.0589 115.385H11.1469L11.6543 112.145H12.9952L11.9442 117.674H10.7379L10.0131 114.635H9.951L9.15889 117.674H8.04062L7 112.145Z" fill="#8B8B8B"/>
<path d="M105.401 106.137H103.822L106.995 97.543H108.574L105.401 106.137Z" fill="#8B8B8B"/>
<path d="M98.9799 106.137H97.4009L100.574 97.543H102.154L98.9799 106.137Z" fill="#8B8B8B"/>
<path d="M93.4806 105.263C92.8386 105.263 92.3105 104.833 92.3105 104.129C92.3105 103.425 92.8386 103.01 93.4806 103.01C94.1122 103.01 94.6351 103.425 94.6351 104.129C94.6351 104.833 94.1122 105.263 93.4806 105.263ZM92.3105 100.137C92.3105 99.433 92.8386 99.0137 93.4806 99.0137C94.1122 99.0137 94.6351 99.433 94.6351 100.137C94.6351 100.836 94.1122 101.266 93.4806 101.266C92.8386 101.266 92.3105 100.836 92.3105 100.137Z" fill="#8B8B8B"/>
<path d="M89.8032 102.323C89.8032 103.984 89.1612 105.227 87.7116 105.227C86.9247 105.227 86.4018 104.859 86.1377 104.435H86.0601V107.003H84.5742V99.5735H85.8737L85.941 100.247H86.1326C86.4535 99.822 86.9713 99.4492 87.753 99.4492C89.1767 99.4492 89.8032 100.671 89.8032 102.323ZM86.0601 103.741C86.3862 103.922 86.7279 104 87.0489 104C87.8824 104 88.3018 103.482 88.3018 102.323C88.3018 101.168 87.8928 100.676 87.0541 100.676C86.7176 100.676 86.3707 100.759 86.0601 100.935V103.741Z" fill="#8B8B8B"/>
<path d="M79.2761 103.37V100.782H77.9248V99.5703H79.2761V98.0586H80.7671V99.5703H82.8949V100.782H80.7671V103.396C80.7671 103.898 81.0415 104.08 81.3573 104.08C81.6679 104.08 81.9527 103.909 81.9527 103.407V103.049H82.9829V103.37C82.9829 104.649 82.3254 105.219 81.114 105.219C79.887 105.219 79.2761 104.649 79.2761 103.37Z" fill="#8B8B8B"/>
<path d="M72.8552 103.37V100.782H71.5039V99.5703H72.8552V98.0586H74.3462V99.5703H76.474V100.782H74.3462V103.396C74.3462 103.898 74.6206 104.08 74.9364 104.08C75.247 104.08 75.5318 103.909 75.5318 103.407V103.049H76.562V103.37C76.562 104.649 75.9045 105.219 74.6931 105.219C73.4661 105.219 72.8552 104.649 72.8552 103.37Z" fill="#8B8B8B"/>
<path d="M66.7974 105.103H65.3115V97.1816H66.7974V100.397H66.963C67.5015 99.8116 67.983 99.4492 68.8217 99.4492C69.7691 99.4492 70.2609 99.9152 70.2609 101.039V105.103H68.7751V101.422C68.7751 100.8 68.4851 100.63 68.0658 100.63C67.5843 100.63 67.1701 100.863 66.7974 101.209V105.103Z" fill="#8B8B8B"/>
<path d="M52.4434 105.103V103.891H54.1984L54.2036 98.3878H52.4485V97.1815L55.5186 97.0469L55.6946 97.2125L55.6895 103.891H57.4445V105.103H52.4434Z" fill="#8B8B8B"/>
<path d="M48.5383 99.5735L48.6159 100.397H48.8023C49.2683 99.7754 49.7601 99.4492 50.6299 99.4492C50.837 99.4492 51.0078 99.4647 51.1735 99.5113V100.93C50.1277 100.93 49.4339 100.982 48.7247 101.297V103.891H50.3555V105.103H46.0015V103.891H47.2336V100.785H46.0015V99.5735H48.5383Z" fill="#8B8B8B"/>
<path d="M39.627 99.5742H41.1128V103.255C41.1128 103.876 41.4027 104.042 41.8221 104.042C42.3087 104.042 42.7229 103.814 43.0905 103.473V99.5742H44.5764V105.103H43.2769L43.194 104.275H43.0128C42.4744 104.86 41.9204 105.228 41.0766 105.228C40.124 105.228 39.627 104.762 39.627 103.638V99.5742Z" fill="#8B8B8B"/>
<path d="M38.3421 103.348C38.0159 104.735 36.877 105.227 35.6914 105.227C34.0036 105.227 32.9268 104.233 32.9268 102.343C32.9268 100.309 34.1693 99.4492 35.769 99.4492C37.1772 99.4492 38.2282 100.107 38.3369 101.489L36.8977 101.613C36.7941 100.976 36.3903 100.593 35.7173 100.593C34.8682 100.593 34.4333 101.204 34.4333 102.343C34.4333 103.518 34.8993 104.078 35.7121 104.078C36.3748 104.078 36.7372 103.71 36.908 103.172L38.3421 103.348Z" fill="#8B8B8B"/>
<path d="M24.0197 99.7793C23.942 99.0908 23.7401 98.7853 23.3 98.6766V100.623C24.615 101.084 25.5159 101.571 25.5159 102.886C25.5159 104.17 24.6565 104.967 23.3777 105.174V106.644H22.2905V105.215C20.9444 105.112 20.1264 104.434 19.9297 102.948L21.3897 102.73C21.5243 103.553 21.9022 103.854 22.3681 103.942V101.912C22.363 101.907 22.363 101.907 22.3578 101.907C21.1981 101.493 20.2144 100.887 20.2144 99.6085C20.2144 98.3919 20.9651 97.6515 22.2905 97.4703V96H23.3777V97.4393C24.6824 97.5532 25.4538 98.2521 25.402 99.6344L24.0197 99.7793ZM21.721 99.3703C21.721 99.8622 21.9643 100.1 22.3681 100.287V98.6662C21.9747 98.7543 21.721 98.9717 21.721 99.3703ZM23.3 103.9C23.7194 103.766 23.9317 103.465 23.9317 103.113C23.9317 102.735 23.7453 102.508 23.3 102.285V103.9Z" fill="#8B8B8B"/>
<path d="M34.6255 45.9062H93.8755V53.233H34.6255V45.9062Z" fill="black"/>
<mask id="mask0_209_7956" style="mask-type:luminance" maskUnits="userSpaceOnUse" x="25" y="50" width="79" height="37">
<path d="M31.6861 50.6855H96.8165C97.3262 50.6855 97.7626 51.0519 97.8518 51.5552L103.455 83.6209C103.774 85.3793 102.423 87.0007 100.636 87.0007H27.8667C26.0765 87.0007 24.7258 85.3793 25.0476 83.6209L30.6508 51.5552C30.74 51.0519 31.1765 50.6855 31.6861 50.6855Z" fill="white"/>
</mask>
<g mask="url(#mask0_209_7956)">
<path d="M29.377 52.1017C29.4662 51.4709 30.0046 51.0059 30.6385 51.0059H97.8649C98.4988 51.0059 99.0372 51.4741 99.1264 52.1017L103.815 85.5053C103.949 86.4641 103.207 87.3211 102.239 87.3211H26.2648C25.2964 87.3211 24.5542 86.4641 24.688 85.5053L29.377 52.1017Z" fill="#777A7F"/>
<path d="M29.3763 50.8282C29.4655 50.1975 30.0039 49.7324 30.6378 49.7324H97.8642C98.4981 49.7324 99.0365 50.2007 99.1257 50.8282L103.496 83.9133C103.63 84.8722 102.888 86.0476 101.919 86.0476H26.5827C25.6143 86.0476 24.8721 84.8722 25.0059 83.9133L29.3763 50.8282Z" fill="url(#paint0_linear_209_7956)"/>
</g>
<path d="M55.1847 73.9352C55.2102 73.7568 55.3599 73.623 55.5415 73.623H72.9597C73.1412 73.623 73.2942 73.7568 73.3165 73.9352L74.6639 84.043C74.6926 84.2596 74.5237 84.4507 74.3071 84.4507H54.194C53.9742 84.4507 53.8085 84.2596 53.8372 84.043L55.1847 73.9352Z" fill="url(#paint1_linear_209_7956)"/>
<path d="M30.4863 9.59277C30.4863 8.71356 31.1999 8 32.0791 8H96.4258C97.305 8 98.0186 8.71356 98.0186 9.59277V48.4564C98.0186 49.3356 97.305 50.0492 96.4258 50.0492H32.0791C31.1999 50.0492 30.4863 49.3356 30.4863 48.4564V9.59277Z" fill="#3A4246"/>
<mask id="mask1_209_7956" style="mask-type:luminance" maskUnits="userSpaceOnUse" x="30" y="8" width="69" height="43">
<path d="M30.4863 9.59277C30.4863 8.71356 31.1999 8 32.0791 8H96.4258C97.305 8 98.0186 8.71356 98.0186 9.59277V48.4564C98.0186 49.3356 97.305 50.0492 96.4258 50.0492H32.0791C31.1999 50.0492 30.4863 49.3356 30.4863 48.4564V9.59277Z" fill="white"/>
</mask>
<g mask="url(#mask1_209_7956)">
<path d="M57.285 3.99381C56.6957 2.93303 57.4634 1.62695 58.677 1.62695H105.981C106.861 1.62695 107.574 2.34051 107.574 3.21972V51.64C107.574 52.5192 106.861 53.2328 105.981 53.2328H85.5753C84.9955 53.2328 84.4635 52.9206 84.1832 52.4141L57.285 3.99381Z" fill="url(#paint2_linear_209_7956)"/>
</g>
<path d="M33.162 55.2382C33.2735 54.633 33.7991 54.1934 34.4171 54.1934H94.0875C94.7023 54.1934 95.2311 54.633 95.3394 55.2382L98.063 70.2103C98.2064 70.9939 97.6043 71.7138 96.8079 71.7138H31.6935C30.8971 71.7138 30.2982 70.9939 30.4384 70.2103L33.162 55.2382Z" fill="url(#paint3_linear_209_7956)"/>
<mask id="mask2_209_7956" style="mask-type:luminance" maskUnits="userSpaceOnUse" x="32" y="55" width="65" height="16">
<path d="M38.1469 67.2492C38.3412 67.2492 38.4878 67.4212 38.4623 67.6124L38.1533 69.8422C38.131 69.9983 37.9972 70.1162 37.8379 70.1162H32.4608C32.2633 70.1162 32.1136 69.9378 32.1487 69.7435L32.5437 67.5136C32.5691 67.3607 32.7029 67.2492 32.8558 67.2492H38.1469ZM43.5814 67.2492C43.7725 67.2492 43.919 67.4149 43.8967 67.6028L43.6451 69.8327C43.626 69.9951 43.4922 70.1162 43.3297 70.1162H40.3959C40.2016 70.1162 40.055 69.9442 40.0805 69.753L40.3895 67.5232C40.4118 67.3671 40.5456 67.2492 40.7049 67.2492H43.5782H43.5814ZM49.1432 67.2492C49.328 67.2492 49.4745 67.4053 49.4618 67.5901L49.2993 69.8199C49.2866 69.9856 49.1496 70.1162 48.9808 70.1162H45.8845C45.6933 70.1162 45.5468 69.9505 45.5691 69.7626L45.8208 67.5327C45.8399 67.3703 45.9737 67.2492 46.1361 67.2492H49.1432ZM54.5139 67.2492C54.6955 67.2492 54.8389 67.3989 54.8325 67.5773L54.756 69.8072C54.7497 69.9792 54.6095 70.1162 54.4375 70.1162H51.5291C51.3444 70.1162 51.1978 69.9601 51.2106 69.7753L51.3731 67.5455C51.3858 67.3798 51.5228 67.2492 51.6916 67.2492H54.5139ZM76.5001 67.2492C76.669 67.2492 76.8091 67.3798 76.8187 67.5487L76.9493 69.7785C76.9589 69.9601 76.8155 70.1162 76.6307 70.1162H56.9763C56.7947 70.1162 56.6514 69.9665 56.6578 69.7881L56.7342 67.5582C56.7406 67.3862 56.8808 67.2492 57.0528 67.2492H76.5001ZM82.0493 67.2492C82.2181 67.2492 82.3551 67.3798 82.3678 67.5455L82.5239 69.7753C82.5366 69.9601 82.3901 70.1162 82.2053 70.1162H79.1728C79.0039 70.1162 78.8638 69.9856 78.8542 69.8168L78.7236 67.5869C78.714 67.4053 78.8574 67.2492 79.0422 67.2492H82.0493ZM87.5155 67.2492C87.678 67.2492 87.815 67.3734 87.8309 67.5359L88.0507 69.7658C88.0698 69.9537 87.9233 70.1162 87.7322 70.1162H84.7474C84.5785 70.1162 84.4415 69.9856 84.4288 69.8199L84.2727 67.5901C84.26 67.4053 84.4065 67.2492 84.5913 67.2492H87.5124H87.5155ZM96.3584 69.7435C96.3935 69.9378 96.2438 70.1162 96.0463 70.1162H90.2869C90.1245 70.1162 89.9843 69.992 89.9684 69.8295L89.7486 67.5996C89.7294 67.4117 89.876 67.2492 90.0639 67.2492H95.6481C95.801 67.2492 95.9348 67.3607 95.9603 67.5136L96.3553 69.7435H96.3584ZM95.6258 65.6023C95.6608 65.7966 95.5111 65.975 95.3104 65.975H92.4562C92.2938 65.975 92.1568 65.8539 92.1409 65.6915L91.9338 63.7802C91.9147 63.5922 92.0612 63.4266 92.2492 63.4266H94.9728C95.1288 63.4266 95.2594 63.5381 95.2881 63.691L95.6258 65.6023ZM36.4586 63.4266C36.6529 63.4266 36.7995 63.5986 36.774 63.7897L36.5096 65.701C36.4873 65.8571 36.3535 65.975 36.1942 65.975H33.1935C32.996 65.975 32.8463 65.7966 32.8813 65.6023L33.219 63.691C33.2445 63.5381 33.3783 63.4266 33.5312 63.4266H36.4586ZM41.7879 63.4266C41.9759 63.4266 42.1224 63.589 42.1065 63.7738L41.9313 65.6851C41.9154 65.8476 41.7784 65.975 41.6127 65.975H38.7554C38.561 65.975 38.4145 65.803 38.44 65.6118L38.7044 63.7005C38.7267 63.5444 38.8605 63.4266 39.0197 63.4266H41.7847H41.7879ZM47.1969 63.4266C47.3816 63.4266 47.525 63.5826 47.5154 63.7642L47.3976 65.6755C47.388 65.8444 47.2479 65.975 47.079 65.975H44.1611C43.9732 65.975 43.8266 65.8125 43.8426 65.6278L44.0178 63.7164C44.0337 63.554 44.1707 63.4266 44.3363 63.4266H47.1969ZM52.6472 63.4266C52.8288 63.4266 52.9722 63.5763 52.9658 63.7579L52.8925 65.6692C52.8862 65.8412 52.746 65.975 52.574 65.975H49.6242C49.4395 65.975 49.2961 65.8189 49.3057 65.6373L49.4235 63.726C49.4331 63.5572 49.5733 63.4266 49.7421 63.4266H52.6472ZM57.9893 63.4266C58.1677 63.4266 58.311 63.5731 58.3078 63.7483L58.2824 65.6596C58.2824 65.8348 58.139 65.975 57.9638 65.975H55.1765C54.9949 65.975 54.8516 65.8253 54.858 65.6437L54.9249 63.7324C54.9312 63.5604 55.0714 63.4266 55.2434 63.4266H57.9893ZM63.1753 63.4266C63.3505 63.4266 63.4938 63.5667 63.4938 63.7419L63.5129 65.6533C63.5129 65.8316 63.3728 65.975 63.1944 65.975H60.4995C60.3211 65.975 60.1777 65.8285 60.1809 65.6533L60.2064 63.7419C60.2064 63.5667 60.3497 63.4266 60.5249 63.4266H63.1753ZM68.3358 63.4266C68.5078 63.4266 68.6479 63.5635 68.6543 63.7324L68.7212 65.6437C68.7276 65.8253 68.5842 65.975 68.4026 65.975H65.73C65.5548 65.975 65.4147 65.8348 65.4115 65.6596L65.3924 63.7483C65.3924 63.5699 65.5325 63.4266 65.7109 63.4266H68.3358ZM73.5536 63.4266C73.7224 63.4266 73.8626 63.5572 73.8721 63.726L73.9868 65.6373C73.9964 65.8189 73.853 65.975 73.6682 65.975H70.9415C70.7695 65.975 70.6293 65.838 70.6229 65.6692L70.556 63.7579C70.5497 63.5763 70.693 63.4266 70.8746 63.4266H73.5536ZM78.9338 63.4266C79.0995 63.4266 79.2397 63.554 79.2524 63.7196L79.4053 65.631C79.4212 65.8157 79.2747 65.975 79.0868 65.975H76.2071C76.0382 65.975 75.8981 65.8444 75.8885 65.6755L75.7739 63.7642C75.7643 63.5826 75.9076 63.4266 76.0924 63.4266H78.9307H78.9338ZM84.2982 63.4266C84.4607 63.4266 84.5976 63.5508 84.6136 63.7133L84.8079 65.6246C84.827 65.8125 84.6805 65.975 84.4925 65.975H81.632C81.4663 65.975 81.3261 65.8476 81.3134 65.6819L81.1605 63.7706C81.1446 63.5858 81.2911 63.4266 81.4791 63.4266H84.295H84.2982ZM89.6976 63.4266C89.8601 63.4266 89.997 63.5476 90.013 63.7101L90.22 65.6214C90.2391 65.8093 90.0926 65.975 89.9047 65.975H87.0473C86.8848 65.975 86.7478 65.8508 86.7319 65.6883L86.5376 63.777C86.5185 63.589 86.665 63.4266 86.8561 63.4266H89.704H89.6976ZM94.9505 61.7796C94.9855 61.9739 94.8358 62.1523 94.6351 62.1523H90.1022C89.9429 62.1523 89.8059 62.0345 89.7868 61.8752L89.5383 59.9639C89.5128 59.7727 89.6626 59.6039 89.8537 59.6039H94.2974C94.4535 59.6039 94.5841 59.7154 94.6128 59.8683L94.9505 61.7796ZM39.8416 59.6039C40.0359 59.6039 40.1825 59.7759 40.157 59.9671L39.8926 61.8784C39.8703 62.0345 39.7365 62.1523 39.5772 62.1523H33.8688C33.6713 62.1523 33.5216 61.9739 33.5566 61.7796L33.8943 59.8683C33.9198 59.7154 34.0536 59.6039 34.2065 59.6039H39.8448H39.8416ZM45.2792 59.6039C45.4672 59.6039 45.6137 59.7664 45.5978 59.9511L45.4226 61.8625C45.4066 62.0281 45.2697 62.1523 45.104 62.1523H42.1383C41.944 62.1523 41.7975 61.9803 41.823 61.7892L42.0874 59.8779C42.1097 59.7218 42.2435 59.6039 42.4027 59.6039H45.276H45.2792ZM50.6022 59.6039C50.7869 59.6039 50.9303 59.76 50.9207 59.9416L50.8029 61.8529C50.7933 62.0217 50.6531 62.1523 50.4843 62.1523H47.6524C47.4645 62.1523 47.3179 61.9899 47.3339 61.8051L47.5091 59.8938C47.525 59.7281 47.662 59.6039 47.8276 59.6039H50.6022ZM55.7244 59.6039C55.906 59.6039 56.0493 59.7536 56.043 59.932L55.9793 61.8433C55.9729 62.0154 55.8327 62.1523 55.6607 62.1523H53.0295C52.8447 62.1523 52.7014 61.9962 52.711 61.8147L52.8288 59.9033C52.8384 59.7345 52.9785 59.6039 53.1474 59.6039H55.7276H55.7244ZM60.9231 59.6039C61.0983 59.6039 61.2417 59.7473 61.2417 59.9225V61.8338C61.2417 62.009 61.0983 62.1523 60.9231 62.1523H58.1995C58.018 62.1523 57.8746 62.0026 57.881 61.8242L57.9447 59.9129C57.9511 59.7409 58.0912 59.6039 58.2633 59.6039H60.9199H60.9231ZM65.9817 59.6039C66.1537 59.6039 66.2939 59.7409 66.3002 59.9129L66.3671 61.8242C66.3735 62.0058 66.2301 62.1523 66.0486 62.1523H63.462C63.2868 62.1523 63.1434 62.009 63.1434 61.8338V59.9225C63.1434 59.7473 63.2868 59.6039 63.462 59.6039H65.9849H65.9817ZM71.2696 59.6039C71.4384 59.6039 71.5786 59.7345 71.5881 59.9065L71.6901 61.8179C71.6996 61.9994 71.5531 62.1523 71.3715 62.1523H68.5842C68.4122 62.1523 68.272 62.0154 68.2657 61.8433L68.1988 59.932C68.1924 59.7504 68.3357 59.6039 68.5173 59.6039H71.2664H71.2696ZM76.5479 59.6039C76.7136 59.6039 76.8505 59.7313 76.8665 59.897L77.0289 61.8083C77.0449 61.9931 76.8983 62.1523 76.7104 62.1523H73.9103C73.7415 62.1523 73.6014 62.0217 73.5918 61.8497L73.4899 59.9384C73.4803 59.7568 73.6268 59.6039 73.8084 59.6039H76.5479ZM81.9919 59.6039C82.1544 59.6039 82.2913 59.725 82.3073 59.8874L82.5175 61.7987C82.5398 61.9867 82.3901 62.1523 82.2022 62.1523H79.2588C79.0931 62.1523 78.9561 62.0249 78.9402 61.8593L78.7778 59.9479C78.7618 59.7632 78.9084 59.6039 79.0963 59.6039H81.9887H81.9919ZM87.2957 59.6039C87.455 59.6039 87.592 59.7218 87.6111 59.881L87.8596 61.7924C87.8851 61.9835 87.7353 62.1523 87.5442 62.1523H84.7569C84.5945 62.1523 84.4575 62.0313 84.4416 61.8688L84.2313 59.9575C84.209 59.7696 84.3587 59.6039 84.5467 59.6039H87.2957ZM94.2751 57.957C94.3102 58.1513 94.1605 58.3297 93.9598 58.3297H80.8356C80.6699 58.3297 80.533 58.2023 80.517 58.0366L80.3546 56.1253C80.3386 55.9405 80.4852 55.7812 80.6731 55.7812H93.6189C93.775 55.7812 93.9056 55.8927 93.9311 56.0457L94.2688 57.957H94.2751ZM42.3135 58.0398C42.2976 58.2023 42.1606 58.3297 41.995 58.3297H34.541C34.3435 58.3297 34.1937 58.1513 34.2288 57.957L34.5664 56.0457C34.5919 55.8927 34.7257 55.7812 34.8786 55.7812H42.1734C42.3613 55.7812 42.5079 55.9437 42.4919 56.1285L42.3135 58.0398ZM47.7129 58.0334C47.7002 58.1991 47.5632 58.3297 47.3944 58.3297H44.5466C44.3586 58.3297 44.2121 58.1672 44.228 57.9825L44.4064 56.0711C44.4223 55.9087 44.5593 55.7812 44.7249 55.7812H47.5377C47.7225 55.7812 47.869 55.9373 47.8563 56.1221L47.7161 58.0334H47.7129ZM52.9499 58.0271C52.9403 58.1959 52.8001 58.3297 52.6313 58.3297H49.9364C49.7516 58.3297 49.6051 58.1736 49.6179 57.9888L49.758 56.0775C49.7708 55.9119 49.9077 55.7812 50.0766 55.7812H52.7301C52.9116 55.7812 53.0582 55.9342 53.0486 56.1157L52.9499 58.0271ZM58.1677 58.0207C58.1613 58.1927 58.0212 58.3297 57.8491 58.3297H55.167C54.9854 58.3297 54.8389 58.1768 54.8484 57.9952L54.9472 56.0839C54.9567 55.915 55.0969 55.7812 55.2657 55.7812H57.9065C58.0849 55.7812 58.2282 55.9278 58.225 56.1094L58.1709 58.0207H58.1677ZM63.2103 58.0111C63.2103 58.1863 63.067 58.3297 62.8918 58.3297H60.3784C60.2 58.3297 60.0567 58.1832 60.0599 58.0016L60.114 56.0902C60.1204 55.9182 60.2606 55.7812 60.4326 55.7812H62.8918C63.067 55.7812 63.2103 55.9246 63.2103 56.0998V58.0111ZM68.4536 58.0016C68.46 58.1832 68.3166 58.3297 68.1351 58.3297H65.4115C65.2363 58.3297 65.0929 58.1863 65.0929 58.0111V56.0998C65.0929 55.9246 65.2363 55.7812 65.4147 55.7812H68.0714C68.2434 55.7812 68.3835 55.9182 68.3899 56.0902L68.4568 58.0016H68.4536ZM73.5886 57.992C73.6014 58.1768 73.4548 58.3297 73.2701 58.3297H70.6739C70.5019 58.3297 70.3617 58.1927 70.3553 58.0207L70.2884 56.1094C70.2821 55.9278 70.4254 55.7812 70.607 55.7812H73.1522C73.321 55.7812 73.4612 55.9119 73.4707 56.0807L73.5886 57.992ZM78.6057 57.9856C78.6217 58.1704 78.4751 58.3297 78.2872 58.3297H75.8089C75.6401 58.3297 75.4999 58.1991 75.4903 58.0302L75.3725 56.1189C75.3597 55.9342 75.5063 55.7812 75.691 55.7812H78.1247C78.2904 55.7812 78.4274 55.9087 78.4433 56.0743L78.6057 57.9856Z" fill="white"/>
</mask>
<g mask="url(#mask2_209_7956)">
<path d="M32.3964 53.2363H95.4753L98.6449 72.031H29.2236L32.3932 53.2363H32.3964Z" fill="black"/>
<path d="M97.6995 69.4804H31.2949V66.881H97.6995V69.4804ZM97.6995 62.7111H31.2949V65.3105H97.6995V62.7111ZM96.3648 58.9267H32.3684V61.5261H96.3648V58.9267ZM96.3648 55.0371H32.3684V57.6365H96.3648V55.0371Z" fill="#3D3D3D"/>
</g>
<path d="M32.7162 47.8193H95.7887V10.2299H32.7162V47.8193ZM98.0186 48.4564V48.5392C97.974 49.3547 97.321 50.0078 96.5087 50.0492H96.4258H32.0791H31.9962C31.1808 50.0046 30.5277 49.3516 30.4863 48.5392V48.4564V9.59277C30.4863 8.71356 31.1999 8 32.0791 8H96.4258C97.305 8 98.0186 8.71356 98.0186 9.59277V48.4564Z" fill="black"/>
<mask id="mask3_209_7956" style="mask-type:luminance" maskUnits="userSpaceOnUse" x="30" y="8" width="69" height="43">
<path d="M96.4258 49.4121V50.0492H32.0791V49.4121H96.4258ZM97.3815 48.4564V9.59277C97.3815 9.06397 96.9546 8.63711 96.4258 8.63711H32.0791C31.5662 8.63711 31.1489 9.03849 31.1234 9.54499V9.59277V48.4564C31.1234 48.9852 31.5503 49.4121 32.0791 49.4121V50.0492H31.9962C31.1808 50.0046 30.5277 49.3516 30.4863 48.5392V48.4564V9.59277C30.4863 8.71356 31.1999 8 32.0791 8H96.4258C97.305 8 98.0186 8.71356 98.0186 9.59277V48.5392C97.974 49.3547 97.321 50.0078 96.5087 50.0492H96.4258V49.4153C96.9546 49.4153 97.3815 48.9884 97.3815 48.4596V48.4564Z" fill="white"/>
</mask>
<g mask="url(#mask3_209_7956)">
<path d="M30.167 7.68359H98.3364V50.6884H30.167V7.68359Z" fill="url(#paint4_linear_209_7956)"/>
<path d="M30.8042 9.59062C30.8042 8.88662 31.3744 8.31641 32.0784 8.31641H96.4252C97.1292 8.31641 97.6994 8.88662 97.6994 9.59062V48.4543C97.6994 49.1583 97.1292 49.7285 96.4252 49.7285H32.0784C31.3744 49.7285 30.8042 49.1583 30.8042 48.4543V9.59062Z" fill="url(#paint5_linear_209_7956)"/>
</g>
<path d="M43.8443 60.4549L43.8029 61.0442L43.564 61.0346L43.6054 60.4453L43.8443 60.4549Z" fill="white"/>
<path d="M35.209 64.3401C35.2409 64.3656 35.2536 64.3943 35.2504 64.4293C35.2472 64.4644 35.2249 64.493 35.1867 64.5153C35.1485 64.5408 35.0975 64.5599 35.0338 64.5727C34.9669 64.5854 34.8905 64.595 34.8045 64.595H34.591L34.5719 64.767H34.333L34.3872 64.2637H34.8459C34.9319 64.2637 35.0051 64.27 35.0657 64.2828C35.1262 64.2955 35.1772 64.3146 35.209 64.3401ZM34.9542 64.4867C34.9924 64.4707 35.0115 64.4516 35.0147 64.4293C35.0147 64.4038 35.002 64.3847 34.9669 64.372C34.9319 64.3592 34.8809 64.3497 34.8172 64.3497H34.6165L34.6006 64.5058H34.8013C34.865 64.5058 34.916 64.4994 34.9542 64.4835" fill="#FCFCFC"/>
<path d="M40.3756 64.2637L40.7229 64.767H40.4585L40.3916 64.6587H39.9583L39.8596 64.767H39.6016L40.0635 64.2637H40.3724H40.3756ZM40.0348 64.5759H40.3406L40.3056 64.5249C40.2928 64.4994 40.2769 64.4739 40.261 64.4453C40.2482 64.4166 40.2291 64.3879 40.2132 64.3592C40.1909 64.3911 40.1654 64.4198 40.1463 64.4453C40.124 64.4707 40.1049 64.4962 40.0794 64.5249L40.0348 64.5759Z" fill="#FCFCFC"/>
<path d="M45.8202 64.5727L46.0304 64.767H45.7756L45.5877 64.5918H45.3742L45.3551 64.767H45.1162L45.1704 64.2637H45.6354C45.7215 64.2637 45.7979 64.27 45.8584 64.2828C45.919 64.2955 45.9667 64.3146 45.9986 64.3401C46.0304 64.3656 46.0432 64.3943 46.04 64.4293C46.0368 64.4644 46.0145 64.493 45.9763 64.5153C45.9349 64.5408 45.8871 64.5599 45.817 64.5727H45.8202ZM45.7469 64.4867C45.7852 64.4707 45.8043 64.4516 45.8075 64.4293C45.8075 64.4038 45.7947 64.3847 45.7597 64.372C45.7246 64.3561 45.6769 64.3497 45.6131 64.3497H45.4029L45.387 64.5058H45.5972C45.6609 64.5058 45.7119 64.4994 45.7469 64.4835" fill="#FCFCFC"/>
<path d="M51.574 64.2637L51.5645 64.3529H51.2141L51.1695 64.767H50.9274L50.9752 64.3529H50.6216L50.6311 64.2637H51.574Z" fill="#FCFCFC"/>
<path d="M57.1121 64.3796C57.1567 64.4178 57.1822 64.4656 57.1822 64.5229C57.1822 64.5803 57.1567 64.6217 57.1089 64.6631C57.0612 64.7045 56.9943 64.7332 56.9146 64.7555C56.8318 64.7746 56.7394 64.7873 56.6343 64.7873C56.5292 64.7873 56.4368 64.7746 56.3572 64.7555C56.2743 64.7332 56.2075 64.7045 56.1629 64.6631C56.1151 64.6249 56.0928 64.5771 56.0928 64.5229C56.0928 64.4688 56.1151 64.421 56.166 64.3828C56.2106 64.3445 56.2775 64.3127 56.3604 64.2936C56.44 64.2713 56.5356 64.2617 56.6375 64.2617C56.7394 64.2617 56.835 64.2713 56.9178 64.2936C56.9975 64.3159 57.0643 64.3445 57.1121 64.386V64.3796ZM56.8573 64.644C56.9146 64.6153 56.9433 64.5707 56.9433 64.5197C56.9433 64.4688 56.9146 64.421 56.8573 64.3923C56.8 64.3605 56.7267 64.3477 56.6375 64.3477C56.5483 64.3477 56.4782 64.3637 56.4209 64.3923C56.3635 64.421 56.3349 64.4624 56.3349 64.5197C56.3349 64.5771 56.3635 64.6153 56.4209 64.644C56.4782 64.6727 56.5483 64.6886 56.6375 64.6886C56.7267 64.6886 56.8 64.6727 56.8573 64.644Z" fill="#FDFDFD"/>
<path d="M62.1873 64.2617V64.3541L61.6203 64.3509V64.4783H62.1491L62.1459 64.5675H61.6203V64.7714H61.3813V64.2617H62.1873Z" fill="#FDFDFD"/>
<path d="M49.0307 60.4308C49.1613 60.434 49.2665 60.4563 49.3429 60.4913C49.4225 60.5296 49.4608 60.5773 49.4608 60.6379L49.2378 60.6315C49.2378 60.6028 49.2155 60.5773 49.1773 60.5614C49.139 60.5423 49.0881 60.5359 49.0275 60.5327C48.967 60.5296 48.9224 60.5359 48.8842 60.5487C48.8428 60.5614 48.8269 60.5773 48.8237 60.5996C48.8237 60.6187 48.8364 60.6347 48.8683 60.6474C48.9001 60.6602 48.9511 60.6697 49.0212 60.6825L49.1295 60.6984C49.2537 60.7143 49.3429 60.7398 49.4002 60.7685C49.4576 60.7971 49.4831 60.8354 49.4831 60.8831C49.4831 60.9405 49.4385 60.9851 49.3556 61.0169C49.2728 61.0488 49.1581 61.0615 49.018 61.0552C48.8683 61.052 48.7536 61.0297 48.674 60.9915C48.5911 60.95 48.5497 60.8991 48.5529 60.8322L48.7854 60.8385C48.7854 60.8704 48.8046 60.8991 48.8492 60.9182C48.8906 60.9405 48.9479 60.95 49.0244 60.9532C49.0913 60.9532 49.1454 60.95 49.1868 60.9373C49.2282 60.9246 49.2473 60.9054 49.2505 60.8831C49.2505 60.864 49.2346 60.8481 49.2027 60.8354C49.1709 60.8226 49.1167 60.8099 49.0467 60.8003L48.9224 60.7812C48.6963 60.7494 48.5848 60.6888 48.5879 60.6028C48.5879 60.5646 48.6102 60.5359 48.6485 60.5073C48.6835 60.4786 48.7377 60.4595 48.8014 60.4467C48.8683 60.4308 48.9447 60.4276 49.0339 60.4308H49.0307Z" fill="white"/>
<path d="M54.7965 60.5926C54.8443 60.6404 54.8666 60.6978 54.8634 60.7615C54.8602 60.8252 54.8316 60.8793 54.7838 60.9239C54.736 60.9685 54.6691 61.0036 54.5863 61.0259C54.5067 61.0482 54.4111 61.0577 54.306 61.0545C54.2008 61.0514 54.1085 61.0354 54.0256 61.0099C53.946 60.9813 53.8823 60.943 53.8345 60.8953C53.7899 60.8475 53.7676 60.7901 53.7708 60.7264C53.774 60.6627 53.8027 60.6086 53.8504 60.564C53.9014 60.5162 53.9683 60.4843 54.0479 60.462C54.1308 60.4397 54.2263 60.427 54.3315 60.4302C54.4366 60.4334 54.529 60.4493 54.6086 60.478C54.6914 60.5034 54.7551 60.5417 54.7997 60.5926H54.7965ZM54.5321 60.8984C54.5895 60.8666 54.6181 60.8156 54.6213 60.7519C54.6245 60.6882 54.5958 60.6372 54.5449 60.599C54.4875 60.564 54.4143 60.5417 54.3251 60.5417C54.2359 60.5417 54.1626 60.5544 54.1021 60.5863C54.0448 60.6213 54.0129 60.6691 54.0097 60.7328C54.0065 60.7965 54.0352 60.8475 54.0894 60.8825C54.1467 60.9207 54.22 60.9399 54.3092 60.943C54.3983 60.9462 54.4716 60.9303 54.5321 60.8953" fill="white"/>
<path d="M60.1364 60.4355L59.7637 61.0504H59.4611L59.0278 60.4355H59.289L59.4865 60.735C59.5057 60.7668 59.5248 60.7955 59.5439 60.8306C59.5662 60.8656 59.5853 60.8974 59.6076 60.9357C59.6267 60.8974 59.6426 60.8624 59.6617 60.8306C59.6777 60.7987 59.6936 60.7668 59.7095 60.735L59.8784 60.4387H60.1364V60.4355Z" fill="white"/>
<path d="M64.7734 60.4368L65.229 61.0548H64.9614L64.8722 60.9178H64.439L64.3657 61.0484H64.1045L64.4613 60.4336H64.7703L64.7734 60.4368ZM64.4963 60.8159H64.8021L64.7607 60.7521C64.7384 60.7203 64.7193 60.6884 64.7002 60.6566C64.6779 60.6247 64.6588 60.5897 64.6333 60.5515C64.6174 60.5897 64.5982 60.6247 64.5855 60.6566C64.5696 60.6884 64.5536 60.7203 64.5345 60.7521L64.4995 60.8159" fill="white"/>
<path d="M69.7626 60.4368L69.8008 60.9401L70.3264 60.9465L70.336 61.0548L69.5683 61.0484L69.5205 60.4336L69.7626 60.4368Z" fill="white"/>
<path d="M67.0488 64.1997C67.138 64.1997 67.2208 64.2093 67.2941 64.2284C67.3673 64.2475 67.4279 64.2762 67.4788 64.308C67.5298 64.3399 67.5585 64.3845 67.5776 64.4291H67.3355C67.3195 64.3908 67.2877 64.3622 67.2367 64.343C67.1889 64.3239 67.1316 64.3112 67.0615 64.3112C66.9628 64.3112 66.8895 64.3303 66.8353 64.3653C66.7844 64.4004 66.7621 64.4514 66.7685 64.5151C66.7748 64.5788 66.8035 64.6266 66.8608 64.6648C66.9214 64.703 66.9978 64.7189 67.0966 64.7221C67.1666 64.7221 67.2208 64.7126 67.2654 64.6935C67.31 64.6743 67.3387 64.6457 67.3514 64.6074H67.5935C67.5839 64.6552 67.5585 64.6966 67.5139 64.7285C67.4693 64.7604 67.4119 64.7858 67.3418 64.805C67.2718 64.8241 67.1889 64.8304 67.0997 64.8304C66.9946 64.8304 66.8991 64.8145 66.813 64.7922C66.727 64.7667 66.6601 64.7285 66.606 64.6807C66.555 64.6329 66.5295 64.5756 66.5232 64.5119C66.5168 64.4482 66.5359 64.3876 66.5773 64.343C66.6219 64.2953 66.6856 64.2602 66.7653 64.2347C66.8449 64.2093 66.9405 64.1965 67.0456 64.1997H67.0488Z" fill="white"/>
<path d="M72.3134 64.2102L72.3612 64.825L72.1191 64.8218L72.0713 64.207L72.3134 64.2102Z" fill="white"/>
<path d="M75.5187 60.44L75.5282 60.5483L74.9389 60.5451L74.9516 60.6884L75.4964 60.6916L75.5059 60.7967L74.958 60.7936L74.9707 60.9401L75.5601 60.9465L75.5696 61.0548L74.7382 61.0484L74.6904 60.4336L75.5187 60.44Z" fill="white"/>
<path d="M81.0129 60.4387L81.0607 61.0535H80.809L80.449 60.7668C80.4299 60.7509 80.4076 60.7318 80.379 60.7063C80.3503 60.6808 80.3184 60.6522 80.2802 60.6203C80.2866 60.6522 80.2898 60.6808 80.293 60.7063V60.7637L80.3184 61.0504H80.0795L80.0317 60.4355H80.2834L80.6816 60.7541C80.6943 60.7668 80.7166 60.7828 80.7389 60.8051C80.7612 60.8274 80.7867 60.8465 80.809 60.8688C80.809 60.8465 80.8058 60.821 80.7994 60.7987V60.7445L80.7708 60.4387H81.0097H81.0129Z" fill="white"/>
<path d="M77.5582 64.1621C77.6888 64.1621 77.7971 64.1812 77.8768 64.2163C77.9596 64.2513 78.0042 64.3023 78.0105 64.3628H77.7876C77.7812 64.3309 77.7589 64.3086 77.7207 64.2895C77.6793 64.2736 77.6315 64.264 77.5678 64.264C77.5104 64.264 77.4626 64.2704 77.4276 64.2832C77.3894 64.2959 77.3734 64.315 77.3734 64.3373C77.3734 64.3564 77.3894 64.3724 77.4244 64.3819C77.4563 64.3947 77.5104 64.4042 77.5805 64.4138L77.6888 64.4265C77.813 64.4424 77.9054 64.4616 77.9659 64.4902C78.0265 64.5189 78.0583 64.5571 78.0615 64.6049C78.0647 64.6622 78.0297 64.71 77.95 64.7451C77.8736 64.7769 77.7589 64.7928 77.6187 64.7928C77.469 64.7928 77.3543 64.7737 77.2683 64.7355C77.1823 64.6973 77.1345 64.6463 77.1313 64.5794H77.3639C77.3703 64.6145 77.3926 64.6431 77.4372 64.6591C77.4818 64.6782 77.5391 64.6877 77.6155 64.6877C77.6824 64.6877 77.7366 64.6814 77.7748 64.6686C77.813 64.6527 77.8322 64.6368 77.829 64.6113C77.829 64.5922 77.8099 64.5762 77.778 64.5635C77.7462 64.5507 77.6888 64.5412 77.6187 64.5316L77.4945 64.5157C77.2651 64.487 77.1473 64.4329 77.1409 64.3437C77.1409 64.3086 77.1568 64.2736 77.1919 64.2481C77.2237 64.2195 77.2747 64.1972 77.3384 64.1844C77.4021 64.1685 77.4786 64.1621 77.5678 64.1621H77.5582Z" fill="white"/>
<path d="M82.9438 64.1914C83.033 64.1914 83.1159 64.1978 83.1923 64.2137C83.2656 64.2296 83.3325 64.2583 83.3834 64.2902C83.4344 64.322 83.4694 64.3634 83.4917 64.4112L83.2497 64.4176C83.2305 64.3794 83.1955 64.3507 83.1445 64.3316C83.0967 64.3125 83.0362 64.3029 82.9693 64.3029C82.8706 64.3029 82.7973 64.3284 82.7463 64.3666C82.6986 64.4048 82.6795 64.4558 82.689 64.5227C82.6986 64.5896 82.7336 64.6374 82.7909 64.6724C82.8547 64.7075 82.9311 64.7266 83.0299 64.7234C83.0999 64.7234 83.1541 64.7107 83.1955 64.6915C83.2369 64.6692 83.2656 64.6406 83.272 64.6023L83.514 64.596C83.5077 64.6438 83.4854 64.6852 83.444 64.7202C83.4026 64.7552 83.3484 64.7839 83.2783 64.8062C83.2082 64.8253 83.1286 64.8381 83.0394 64.8381C82.9343 64.8381 82.8387 64.8285 82.7495 64.8062C82.6635 64.7807 82.5903 64.7457 82.5361 64.6979C82.4819 64.6501 82.4501 64.5928 82.4405 64.5291C82.431 64.4654 82.4437 64.4017 82.4819 64.3539C82.5234 64.3029 82.5839 64.2647 82.6603 64.236C82.7368 64.2073 82.8324 64.1946 82.9375 64.1914H82.9438Z" fill="white"/>
<path d="M88.8435 64.334C88.9009 64.3818 88.9327 64.4391 88.9423 64.506C88.9518 64.5729 88.9391 64.6303 88.8977 64.678C88.8563 64.729 88.7989 64.7672 88.7225 64.7959C88.6429 64.8214 88.5537 64.8373 88.4485 64.8405C88.3434 64.8437 88.251 64.831 88.165 64.8087C88.079 64.7832 88.0089 64.7481 87.9548 64.7003C87.8974 64.6526 87.8656 64.5952 87.856 64.5315C87.8465 64.4678 87.8592 64.4041 87.9006 64.3563C87.942 64.3053 87.9994 64.2671 88.079 64.2384C88.1587 64.2098 88.2478 64.197 88.3498 64.1938C88.4517 64.1907 88.5473 64.2034 88.6365 64.2257C88.7257 64.248 88.7926 64.2862 88.8467 64.334H88.8435ZM88.6397 64.6685C88.6906 64.6303 88.7129 64.5761 88.7002 64.5124C88.6874 64.4487 88.6524 64.3913 88.5919 64.3595C88.5282 64.3245 88.4549 64.3053 88.3625 64.3085C88.2702 64.3117 88.2064 64.3308 88.1555 64.369C88.1045 64.4073 88.0822 64.4582 88.095 64.5283C88.1077 64.5984 88.1427 64.6462 88.2033 64.6812C88.2638 64.7163 88.3402 64.7322 88.4294 64.7322C88.5186 64.7322 88.5887 64.7099 88.6397 64.6717" fill="white"/>
<path d="M86.4383 60.4258L86.451 60.5373L86.1006 60.5405L86.1611 61.0597L85.9222 61.0629L85.8617 60.5436L85.5113 60.5468L85.4985 60.4353L86.4383 60.4258Z" fill="white"/>
<defs>
<linearGradient id="paint0_linear_209_7956" x1="64.251" y1="50.3695" x2="64.251" y2="85.4105" gradientUnits="userSpaceOnUse">
<stop stop-color="#EEEEEE"/>
<stop offset="1" stop-color="#CACACA"/>
</linearGradient>
<linearGradient id="paint1_linear_209_7956" x1="64.2506" y1="73.623" x2="64.2506" y2="84.4539" gradientUnits="userSpaceOnUse">
<stop stop-color="#ADADAD"/>
<stop offset="1" stop-color="#BCBCBC"/>
</linearGradient>
<linearGradient id="paint2_linear_209_7956" x1="82.3293" y1="1.62695" x2="82.3293" y2="53.2328" gradientUnits="userSpaceOnUse">
<stop stop-color="#41494C"/>
<stop offset="1" stop-color="#54595C"/>
</linearGradient>
<linearGradient id="paint3_linear_209_7956" x1="63.956" y1="54.1615" x2="64.2746" y2="71.682" gradientUnits="userSpaceOnUse">
<stop stop-color="#B5B5B5"/>
<stop offset="1" stop-color="#BFBFBF"/>
</linearGradient>
<linearGradient id="paint4_linear_209_7956" x1="64.2517" y1="7.68359" x2="64.2517" y2="50.6884" gradientUnits="userSpaceOnUse">
<stop stop-color="#7F7F7F"/>
<stop offset="1" stop-color="#5D5D5D"/>
</linearGradient>
<linearGradient id="paint5_linear_209_7956" x1="64.2518" y1="8.31641" x2="64.2518" y2="49.7285" gradientUnits="userSpaceOnUse">
<stop stop-color="#7E7E7E"/>
<stop offset="1" stop-color="#999999"/>
</linearGradient>
</defs>
</svg>
