<svg width="128" height="128" viewBox="0 0 128 128" fill="none" xmlns="http://www.w3.org/2000/svg">
<path d="M123.26 53.2852V74.3587H120.275V53.2852H123.26Z" fill="black"/>
<path d="M110.869 74.7002C109.389 74.7002 108.116 74.3654 107.051 73.696C105.995 73.0265 105.179 72.1072 104.604 70.938C104.038 69.7594 103.755 68.4205 103.755 66.9213C103.755 65.4033 104.052 64.055 104.646 62.8763C105.24 61.6977 106.061 60.7737 107.107 60.1043C108.154 59.4254 109.356 59.0859 110.714 59.0859C112.128 59.0859 113.354 59.4159 114.391 60.076C115.438 60.736 116.249 61.6553 116.824 62.8339C117.399 64.0031 117.686 65.3561 117.686 66.893V67.6992H106.697C106.754 69.0475 107.14 70.1366 107.857 70.9663C108.583 71.7961 109.601 72.2109 110.912 72.2109C111.892 72.2109 112.699 71.9894 113.33 71.5462C113.962 71.103 114.382 70.5279 114.589 69.8207H117.46C117.281 70.7825 116.88 71.6311 116.258 72.3665C115.645 73.102 114.872 73.6771 113.939 74.092C113.014 74.4974 111.991 74.7002 110.869 74.7002ZM106.725 65.4363H114.773C114.65 64.2482 114.231 63.3101 113.514 62.6218C112.798 61.924 111.874 61.5752 110.742 61.5752C109.611 61.5752 108.687 61.924 107.97 62.6218C107.263 63.3101 106.848 64.2482 106.725 65.4363Z" fill="black"/>
<path d="M91.2679 65.768V74.3671H88.2837V59.4318H91.2113V61.6806C92.2297 59.9834 93.7336 59.1348 95.723 59.1348C96.7508 59.1348 97.6701 59.3611 98.481 59.8136C99.3013 60.2568 99.9472 60.9168 100.419 61.7937C100.89 62.6706 101.126 63.7596 101.126 65.0608V74.3671H98.1415V65.4285C98.1415 64.2311 97.854 63.3306 97.2788 62.7272C96.7036 62.1143 95.9022 61.8079 94.8744 61.8079C93.8561 61.8079 92.9981 62.1237 92.3004 62.7555C91.6121 63.3778 91.2679 64.3819 91.2679 65.768Z" fill="black"/>
<path d="M78.355 74.3673V59.4319H81.2119V61.8504H81.2685C81.5419 61.0301 81.9709 60.3937 82.5555 59.9411C83.1495 59.4791 83.9227 59.248 84.875 59.248C85.1013 59.248 85.3087 59.2575 85.4973 59.2763C85.6859 59.2952 85.8415 59.3093 85.9641 59.3188V62.105C85.8509 62.0767 85.6482 62.0484 85.3559 62.0201C85.0636 61.9824 84.743 61.9636 84.3941 61.9636C83.555 61.9636 82.8337 62.2559 82.2302 62.8404C81.6362 63.425 81.3392 64.3255 81.3392 65.5418V74.3673H78.355Z" fill="black"/>
<path d="M68.9495 74.7002C67.4692 74.7002 66.1963 74.3654 65.1308 73.696C64.0748 73.0265 63.2592 72.1072 62.684 70.938C62.1183 69.7594 61.8354 68.4205 61.8354 66.9213C61.8354 65.4033 62.1325 64.055 62.7265 62.8763C63.3205 61.6977 64.1408 60.7737 65.1874 60.1043C66.234 59.4254 67.4362 59.0859 68.7939 59.0859C70.2083 59.0859 71.434 59.4159 72.4712 60.076C73.5178 60.736 74.3287 61.6553 74.9038 62.8339C75.479 64.0031 75.7666 65.3561 75.7666 66.893V67.6992H64.7772C64.8338 69.0475 65.2204 70.1366 65.937 70.9663C66.663 71.7961 67.6813 72.2109 68.9919 72.2109C69.9725 72.2109 70.7787 71.9894 71.4104 71.5462C72.0422 71.103 72.4617 70.5279 72.6692 69.8207H75.5403C75.3611 70.7825 74.9604 71.6311 74.3381 72.3665C73.7252 73.102 72.952 73.6771 72.0186 74.092C71.0946 74.4974 70.0715 74.7002 68.9495 74.7002ZM64.8055 65.4363H72.853C72.7305 64.2482 72.3109 63.3101 71.5943 62.6218C70.8777 61.924 69.9537 61.5752 68.8222 61.5752C67.6908 61.5752 66.7667 61.924 66.0501 62.6218C65.343 63.3101 64.9281 64.2482 64.8055 65.4363Z" fill="black"/>
<path d="M45.1025 74.3587V53.2852H48.2423V63.7795C48.8175 63.1289 49.3927 62.483 49.9678 61.8419C50.543 61.2007 51.1229 60.5501 51.7074 59.8901L57.7042 53.2852H61.6784L53.3622 62.4076L61.7491 74.3587H58.0719L51.2124 64.5432L48.2423 67.8245V74.3587H45.1025Z" fill="black"/>
<path d="M17.0155 78.4883C16.8593 78.9588 16.4213 79.7259 15.8399 80.188C15.1703 80.7316 14.3891 80.7746 13.5823 80.6769C12.8636 80.5975 12.3547 80.3511 11.3303 79.96C10.8939 79.7924 10.3471 79.6656 9.87173 79.5326C9.02527 79.2957 6.9641 78.9018 6.39273 78.7068C5.99879 78.5727 5.57752 78.4744 5.28402 78.0972C4.93528 77.6503 4.94923 77.1675 5.10435 76.7038C5.38073 75.8887 5.47259 75.0222 5.3733 74.1672C5.32207 73.6678 5.31908 73.1647 5.36437 72.6648C5.3945 72.2736 5.84925 71.8619 6.29341 71.7607C6.75095 71.6557 7.20849 71.5512 7.66548 71.4434C8.12246 71.3355 8.46674 71.0573 8.70946 70.6511C8.92262 70.2799 9.16302 69.9251 9.42869 69.5895C9.63459 69.5437 9.60724 69.3923 9.58604 69.2437V68.7408C9.58604 68.685 9.58604 68.6291 9.58604 68.5732C9.56651 67.3552 10.0966 66.3171 10.6289 65.2695C11.0156 64.5107 11.4441 63.7805 11.8682 63.0486C12.3877 62.1546 12.9758 61.2964 13.4964 60.3996C13.9706 59.5822 14.4287 58.7559 14.8037 57.8854C15.0414 57.3339 15.2797 56.7679 15.3394 56.1768C15.4052 55.5315 15.4582 54.8806 15.3572 54.2213C15.2724 53.6676 15.3377 53.0904 15.3371 52.5239C15.3371 51.6696 15.2774 50.8069 15.4125 49.9649C15.5838 48.8978 16.1099 47.9915 16.9224 47.2691C18.6136 45.7644 20.8617 45.6404 22.7521 46.6712C23.3369 46.9903 23.7872 47.5004 24.1471 48.0714C24.6615 48.8866 24.8886 49.7878 24.9985 50.7382C25.1101 51.7232 25.027 52.7071 25.0476 53.691C25.0599 54.2576 25.0566 54.8253 25.1592 55.3834C25.2627 55.9429 25.4629 56.4801 25.7507 56.9708C26.7177 58.6268 27.8917 60.146 28.9239 61.759C29.5902 62.7994 30.2502 63.8425 30.8317 64.9331C31.4041 66.002 31.764 67.1272 31.6329 68.3564C31.5829 68.8703 31.4579 69.374 31.2619 69.8516C31.2061 69.9879 31.1904 70.0751 31.3735 70.1455C31.9454 70.369 32.168 70.8567 32.2406 71.4255C32.3315 72.1301 32.5396 72.7782 33.1021 73.2531C33.5128 73.5995 33.9346 73.9336 34.3073 74.3208C34.4714 74.4912 34.6321 74.6728 34.7035 74.9136C34.882 75.5187 34.5188 75.8847 34.1288 76.24C34.0406 76.3205 33.9457 76.3942 33.8542 76.4713L33.6695 76.6054C33.1746 76.9351 32.0257 77.6938 31.9465 77.7436C31.326 78.1235 29.7916 79.3074 29.0283 79.9494C28.7878 80.1416 28.5501 80.3819 28.2828 80.5383C27.7579 80.8527 27.1551 81.0125 26.5436 80.9992C25.5761 80.9791 24.1939 80.4673 23.9049 79.1046C21.9442 78.2006 19.5052 77.8933 17.0155 78.4883ZM16.2991 56.7853C16.2907 56.8724 16.2868 56.9054 16.2846 56.9389C16.2206 58.1684 15.8909 59.3694 15.3182 60.4589C14.9929 61.0846 14.6776 61.7171 14.4393 62.3837C14.4154 62.4518 14.4036 62.5245 14.3311 62.5708C13.9232 62.8284 13.6704 63.2251 13.4512 63.6324C12.8993 64.6571 12.4289 65.7193 12.1851 66.8641C12.0177 67.6603 11.9217 68.4654 12.2297 69.2537C12.5467 70.0645 13.1125 70.6885 13.7631 71.2445C14.4137 71.8004 15.1162 72.2921 15.7394 72.8804C16.4146 73.5179 16.409 73.942 15.7327 74.5845C15.706 74.6102 15.6769 74.6348 15.6502 74.6594C15.3388 74.9388 15.3388 74.9388 15.6697 75.2181C15.6836 75.2299 15.6981 75.2422 15.7127 75.2533C17.0273 76.3032 18.5226 76.6574 20.1798 76.4602C21.9023 76.2551 23.256 75.4377 24.3089 74.0789C24.3963 73.9714 24.4438 73.837 24.4434 73.6984C24.4575 73.0469 24.4785 72.3951 24.5064 71.7429C24.522 71.3713 24.5444 70.9998 24.6548 70.6411C24.8339 70.06 25.1643 69.8203 25.7674 69.8404C25.9348 69.846 26.1022 69.8404 26.2646 69.8963C26.3901 69.9387 26.4683 69.9158 26.504 69.7633C26.6853 68.9884 26.7796 68.21 26.6836 67.4127C26.5559 66.3512 26.2328 65.3455 25.8467 64.3593C25.5794 63.6732 25.3227 62.9586 24.7949 62.4423C24.4428 62.0982 24.305 61.7032 24.1593 61.2791C24.0751 61.0338 23.9836 60.7902 23.8804 60.5527C23.5963 59.8974 23.3513 59.2257 23.1466 58.5413C22.9307 57.8407 22.7739 57.1255 22.5953 56.3919C21.8439 57.0249 21.0259 57.5742 20.1558 58.0301C19.8659 58.1875 19.5472 58.2845 19.2188 58.3151C18.8904 58.3457 18.5593 58.3094 18.2453 58.2083C17.4418 57.9703 16.7918 57.5278 16.2991 56.7853ZM14.1877 80.4349C15.1921 80.4852 15.9766 79.9421 16.4838 78.9264C16.9101 78.0715 16.707 77.2424 16.1278 76.5032C15.8008 76.0858 15.4175 75.7159 15.1156 75.2773C14.0391 73.7152 12.9622 72.1531 11.8849 70.5913C11.7016 70.3107 11.4783 70.0585 11.222 69.8426C10.6741 69.4018 9.93366 69.4873 9.4923 70.0399C9.3572 70.2178 9.24299 70.4107 9.15193 70.6148C8.83612 71.2741 8.3278 71.6764 7.60466 71.8071C7.21134 71.8756 6.82248 71.9675 6.44015 72.0826C5.97089 72.2289 5.71478 72.5424 5.64782 73.0235C5.61778 73.3105 5.61872 73.5999 5.65061 73.8867C5.73208 74.8851 5.73208 75.8718 5.36828 76.8323C5.13169 77.458 5.3772 77.971 5.99433 78.2425C6.60141 78.5096 7.24867 78.6425 7.89146 78.7962C9.32435 79.1392 10.784 79.3784 12.1483 79.9824C12.7901 80.2711 13.4842 80.4251 14.1877 80.4349V80.4349ZM28.1813 72.2027C28.0139 72.2027 27.8465 72.2144 27.6791 72.2027C26.716 72.12 26.4404 71.7501 26.5927 70.8103C26.6223 70.6276 26.8443 70.4081 26.6546 70.2673C26.5006 70.1555 26.2467 70.1701 26.0358 70.1393C25.934 70.1301 25.8316 70.1284 25.7295 70.1343C25.3646 70.1343 25.1157 70.3114 24.9679 70.6422C24.8894 70.811 24.8395 70.9917 24.82 71.1769C24.7413 72.0764 24.7268 72.9799 24.719 73.8811C24.7174 74.8117 24.5993 75.7384 24.3675 76.6395C24.156 77.4446 24.0238 78.2598 24.2062 79.0918C24.2838 79.4471 24.4294 79.7578 24.6995 80.0081C25.6743 80.9165 27.3778 80.9702 28.4156 80.0852C29.7112 78.9772 31.0576 77.9425 32.5017 77.0345C33.0243 76.7132 33.5274 76.3609 34.0082 75.9797C34.5316 75.5556 34.5662 75.1589 34.136 74.6421C34.0244 74.5069 33.8983 74.38 33.7739 74.2549C33.6549 74.124 33.5256 74.0029 33.3872 73.8928C32.529 73.2715 32.0564 72.4401 31.9688 71.3786C31.9404 71.0344 31.8014 70.736 31.499 70.5282C31.1508 70.2863 31.1034 70.2919 30.902 70.664C30.777 70.8927 30.6313 71.1095 30.4667 71.3115C30.1158 71.7462 29.6856 72.053 29.122 72.1362C28.8107 72.1815 28.4988 72.2317 28.1813 72.2027ZM16.4682 56.6048C16.7106 57.091 17.1044 57.485 17.5903 57.7273C18.3614 58.1245 19.1526 58.319 19.9896 57.891C20.812 57.4697 21.5943 56.9864 22.2951 56.3824C22.9831 55.7902 22.8481 54.9649 22.0161 54.642C21.2539 54.347 20.4834 54.0732 19.715 53.795C19.4165 53.6871 19.1013 53.5989 18.7882 53.6274C17.5808 53.7318 16.6752 54.38 15.9526 55.3035C15.7294 55.5907 15.8198 55.8818 16.12 56.1047C16.366 56.2874 16.6149 56.469 16.876 56.6288C17.6684 57.1121 18.5198 57.2524 19.4199 57.0104C20.2222 56.7953 20.9125 56.3562 21.5843 55.8835C21.6629 55.8276 21.7282 55.7097 21.8839 55.7717C21.8631 55.8062 21.8386 55.8382 21.8108 55.8673C21.2495 56.3143 20.6675 56.7288 20.0063 57.0199C19.1498 57.3976 18.2861 57.444 17.4078 57.1004C17.0752 56.9702 16.7856 56.7685 16.4682 56.6048ZM21.476 54.2241C21.6646 54.2978 21.827 54.3593 21.9877 54.4252C22.0837 54.4649 22.1406 54.4252 22.198 54.3503C22.6361 53.7698 22.9301 53.1519 22.8146 52.3887C22.7147 51.7277 22.2611 51.1315 21.6953 50.9879C21.0927 50.8354 20.4309 51.1176 20.0297 51.6931C19.7708 52.064 19.6799 52.4915 19.6358 52.9267C19.5716 53.5698 19.5895 53.5799 20.2077 53.7547C20.215 53.7547 20.2239 53.7514 20.234 53.7492C20.268 53.6748 20.2312 53.6067 20.2172 53.5352C20.1798 53.3569 20.1814 53.1727 20.2218 52.9951C20.2623 52.8176 20.3406 52.6509 20.4516 52.5066C20.6524 52.2333 20.9225 52.0847 21.2701 52.1356C21.6178 52.1864 21.8069 52.4099 21.9246 52.7138C22.1244 53.229 21.9709 53.7637 21.476 54.2241ZM17.626 53.7067C17.8023 53.6229 18.0082 53.6268 18.0093 53.3603C18.0121 52.7619 17.8977 52.1948 17.5629 51.6908C17.3598 51.3846 17.0741 51.2075 16.6902 51.2578C16.3063 51.3081 16.0675 51.5372 15.9531 51.8925C15.6903 52.706 15.836 53.4715 16.2634 54.1911C16.4447 54.4973 16.4576 54.4895 16.7499 54.2185C16.7025 54.1743 16.654 54.133 16.6093 54.0877C16.2455 53.7207 16.1395 53.0714 16.3672 52.611C16.582 52.1775 17.0167 52.1154 17.3392 52.4741C17.5044 52.6536 17.6042 52.8838 17.6221 53.1273C17.6349 53.3111 17.6237 53.4944 17.6237 53.7067H17.626Z" fill="#444342"/>
<path d="M16.2984 56.7854C16.7911 57.5279 17.4412 57.9704 18.2419 58.209C18.5558 58.3101 18.887 58.3464 19.2154 58.3158C19.5437 58.2851 19.8625 58.1882 20.1524 58.0308C21.0224 57.5748 21.8404 57.0255 22.5919 56.3926C22.7704 57.1262 22.9267 57.8413 23.1432 58.542C23.3479 59.2264 23.5929 59.898 23.8769 60.5534C23.9824 60.7909 24.0739 61.0345 24.1559 61.2797C24.3015 61.7038 24.4394 62.0988 24.7914 62.443C25.3193 62.9593 25.576 63.6722 25.8432 64.36C26.2282 65.3484 26.5513 66.3529 26.6802 67.4134C26.7762 68.2107 26.6802 68.989 26.5005 69.764C26.4648 69.9165 26.3889 69.9394 26.2612 69.8969C26.0988 69.8411 25.9303 69.8466 25.764 69.8411C25.1608 69.8209 24.8305 70.0606 24.6514 70.6417C24.5398 71.0004 24.5186 71.372 24.503 71.7435C24.4754 72.3939 24.4544 73.0457 24.4399 73.699C24.4404 73.8376 24.3928 73.9721 24.3054 74.0795C23.2542 75.4384 21.9006 76.2586 20.1764 76.4608C18.5192 76.658 17.0238 76.3038 15.7092 75.254C15.6947 75.2428 15.6802 75.2305 15.6663 75.2188C15.3354 74.9361 15.3354 74.9361 15.6467 74.6601C15.6746 74.6355 15.7025 74.6109 15.7293 74.5852C16.4061 73.941 16.4112 73.5186 15.736 72.8811C15.1127 72.2927 14.4097 71.8005 13.7596 71.2451C13.1096 70.6898 12.5432 70.0651 12.2263 69.2544C11.9183 68.466 12.012 67.6609 12.1817 66.8647C12.4255 65.7199 12.8959 64.6578 13.4477 63.6331C13.667 63.2258 13.9198 62.8291 14.3277 62.5715C14.4002 62.5251 14.4119 62.4525 14.4359 62.3843C14.6742 61.7178 14.9894 61.0853 15.3147 60.4595C15.8875 59.3701 16.2172 58.1691 16.2811 56.9396C16.2862 56.9055 16.2901 56.8725 16.2984 56.7854Z" fill="#F5F5F5"/>
<path d="M14.1876 80.4362C13.4833 80.4267 12.7884 80.2727 12.1459 79.9837C10.7817 79.3797 9.32199 79.1411 7.89077 78.7975C7.25021 78.6438 6.60296 78.5109 5.99364 78.2438C5.37652 77.9723 5.13101 77.4616 5.36759 76.8336C5.73139 75.8731 5.73139 74.8864 5.64993 73.888C5.61803 73.6012 5.6171 73.3118 5.64714 73.0248C5.71186 72.5437 5.97021 72.2302 6.43947 72.0839C6.82179 71.9688 7.21066 71.8769 7.60397 71.8084C8.32934 71.6749 8.83543 71.2754 9.15125 70.6161C9.2423 70.412 9.35651 70.2191 9.49162 70.0412C9.93298 69.4886 10.6734 69.4031 11.2214 69.8439C11.4778 70.0597 11.7013 70.312 11.8848 70.5926C12.9617 72.1544 14.0386 73.7165 15.1155 75.2787C15.4174 75.7172 15.8007 76.0871 16.1277 76.5045C16.7068 77.2437 16.9088 78.0728 16.4837 78.9277C15.9765 79.9434 15.1914 80.4865 14.1876 80.4362Z" fill="#FDB101"/>
<path d="M28.1798 72.2018C28.4973 72.2309 28.8092 72.1806 29.1222 72.1342C29.688 72.051 30.116 71.7431 30.4669 71.3096C30.6315 71.1075 30.7772 70.8907 30.9022 70.662C31.1036 70.2899 31.151 70.2843 31.4992 70.5262C31.7988 70.7341 31.9405 71.0324 31.969 71.3766C32.0566 72.4382 32.527 73.2684 33.3874 73.8909C33.5258 74.0009 33.6551 74.122 33.7741 74.2529C33.8985 74.3781 34.0229 74.5049 34.1362 74.6401C34.5675 75.1569 34.5318 75.5536 34.0084 75.9777C33.5276 76.3589 33.0245 76.7112 32.5019 77.0326C31.0578 77.9405 29.712 78.9752 28.4158 80.0832C27.3796 80.9682 25.6744 80.9146 24.6997 80.0061C24.4307 79.7558 24.284 79.4474 24.2064 79.0898C24.0239 78.2556 24.1562 77.4427 24.3677 76.6375C24.5995 75.7364 24.7176 74.8097 24.7192 73.8791C24.727 72.9779 24.7415 72.0745 24.8202 71.1749C24.8397 70.9897 24.8896 70.8091 24.968 70.6402C25.1154 70.3095 25.3648 70.134 25.7297 70.1323C25.8318 70.1265 25.9342 70.1281 26.036 70.1374C26.2469 70.1681 26.5008 70.1513 26.6548 70.2653C26.8445 70.4061 26.6225 70.6257 26.5929 70.8084C26.4406 71.7482 26.7162 72.118 27.6793 72.2007C27.8439 72.2136 28.0124 72.2018 28.1798 72.2018Z" fill="#FDB101"/>
<path d="M16.4681 56.6047C16.7856 56.7684 17.0752 56.9701 17.4055 57.0992C18.2838 57.4428 19.1475 57.3964 20.004 57.0187C20.6652 56.7276 21.2472 56.313 21.8085 55.8661C21.8364 55.837 21.8609 55.805 21.8816 55.7705C21.726 55.7079 21.6584 55.8264 21.582 55.8823C20.9124 56.3549 20.22 56.7941 19.4176 57.0092C18.5176 57.2511 17.6661 57.1109 16.8738 56.6276C16.6126 56.4678 16.3638 56.2862 16.1177 56.1035C15.8181 55.88 15.7271 55.5895 15.9503 55.3023C16.6729 54.3804 17.5785 53.7323 18.786 53.6261C19.1018 53.5988 19.4143 53.687 19.7128 53.7937C20.4811 54.0731 21.2517 54.3458 22.0139 54.6408C22.8458 54.9637 22.9809 55.789 22.2929 56.3812C21.592 56.9841 20.8098 57.4674 19.9873 57.8898C19.1503 58.3177 18.3608 58.1233 17.588 57.726C17.1032 57.4837 16.7101 57.0902 16.4681 56.6047V56.6047ZM18.9946 54.0184C19.1262 54.1319 19.2775 54.2202 19.441 54.2787C19.4851 54.2966 19.5353 54.3094 19.5638 54.2608C19.5742 54.2398 19.5778 54.216 19.574 54.1929C19.5702 54.1697 19.5592 54.1483 19.5426 54.1318C19.4064 53.9597 19.2296 53.972 18.9946 54.0184ZM18.2977 54.0368C18.2253 54.0018 18.1439 53.9894 18.0643 54.0012C17.9847 54.0131 17.9105 54.0486 17.8513 54.1033C17.7989 54.1469 17.7727 54.2106 17.8285 54.2709C17.8759 54.324 17.9317 54.3 17.9775 54.2681C18.0729 54.2027 18.1672 54.1307 18.2955 54.0368H18.2977Z" fill="#FDB101"/>
<path d="M21.4758 54.2266C21.9707 53.7662 22.1242 53.2315 21.9222 52.718C21.8045 52.4141 21.6075 52.1889 21.2677 52.1397C20.9279 52.0906 20.65 52.2375 20.4491 52.5107C20.3382 52.6551 20.2598 52.8217 20.2194 52.9993C20.1789 53.1769 20.1773 53.3611 20.2148 53.5393C20.2287 53.6108 20.2655 53.679 20.2315 53.7533C20.2215 53.7533 20.2125 53.7606 20.2053 53.7589C19.587 53.584 19.5692 53.574 19.6334 52.9309C19.6774 52.4956 19.7684 52.0682 20.0273 51.6972C20.4285 51.1217 21.0902 50.8396 21.6929 50.9921C22.2586 51.1357 22.7123 51.7319 22.8122 52.3928C22.9277 53.156 22.6336 53.774 22.1956 54.3545C22.1398 54.4311 22.084 54.469 21.9852 54.4294C21.8268 54.3618 21.6644 54.3003 21.4758 54.2266Z" fill="#F5F5F5"/>
<path d="M17.6236 53.7074C17.6236 53.4973 17.6347 53.3118 17.6236 53.128C17.6056 52.8845 17.5059 52.6543 17.3407 52.4748C17.0181 52.1161 16.5835 52.1781 16.3687 52.6117C16.141 53.0721 16.247 53.7213 16.6108 54.0884C16.6555 54.1337 16.704 54.175 16.7514 54.2192C16.4591 54.4901 16.4462 54.4985 16.2649 54.1918C15.8375 53.4721 15.6918 52.7067 15.9546 51.8932C16.0662 51.5378 16.3112 51.3088 16.6917 51.2585C17.0723 51.2082 17.3613 51.3853 17.5644 51.6915C17.8992 52.1943 18.0108 52.7626 18.0108 53.361C18.0058 53.6275 17.7999 53.6236 17.6236 53.7074Z" fill="#EAEAEA"/>
</svg>
