<svg width="128" height="128" viewBox="0 0 128 128" fill="none" xmlns="http://www.w3.org/2000/svg">
<path d="M122.852 55.0391V72.5H120.379V55.0391H122.852Z" fill="black"/>
<path d="M112.586 72.7773C111.359 72.7773 110.305 72.5 109.422 71.9453C108.547 71.3906 107.871 70.6289 107.395 69.6602C106.926 68.6836 106.691 67.5742 106.691 66.332C106.691 65.0742 106.937 63.957 107.43 62.9805C107.922 62.0039 108.602 61.2383 109.469 60.6836C110.336 60.1211 111.332 59.8398 112.457 59.8398C113.629 59.8398 114.645 60.1133 115.504 60.6602C116.371 61.207 117.043 61.9687 117.52 62.9453C117.996 63.9141 118.234 65.0352 118.234 66.3086V66.9766H109.129C109.176 68.0938 109.496 68.9961 110.09 69.6836C110.691 70.3711 111.535 70.7148 112.621 70.7148C113.434 70.7148 114.102 70.5313 114.625 70.1641C115.148 69.7969 115.496 69.3203 115.668 68.7344H118.047C117.898 69.5312 117.566 70.2344 117.051 70.8438C116.543 71.4531 115.902 71.9297 115.129 72.2734C114.363 72.6094 113.516 72.7773 112.586 72.7773ZM109.152 65.1016H115.82C115.719 64.1172 115.371 63.3398 114.777 62.7695C114.184 62.1914 113.418 61.9023 112.48 61.9023C111.543 61.9023 110.777 62.1914 110.184 62.7695C109.598 63.3398 109.254 64.1172 109.152 65.1016Z" fill="black"/>
<path d="M96.3437 65.3789V72.5039H93.8711V60.1289H96.2969V61.9922C97.1406 60.5859 98.3867 59.8828 100.035 59.8828C100.887 59.8828 101.648 60.0703 102.32 60.4453C103 60.8125 103.535 61.3594 103.926 62.0859C104.316 62.8125 104.512 63.7148 104.512 64.793V72.5039H102.039V65.0977C102.039 64.1055 101.801 63.3594 101.324 62.8594C100.848 62.3516 100.184 62.0977 99.332 62.0977C98.4883 62.0977 97.7773 62.3594 97.1992 62.8828C96.6289 63.3984 96.3437 64.2305 96.3437 65.3789Z" fill="black"/>
<path d="M85.6445 72.5059V60.1309H88.0117V62.1348H88.0586C88.2852 61.4551 88.6406 60.9277 89.125 60.5527C89.6172 60.1699 90.2578 59.9785 91.0469 59.9785C91.2344 59.9785 91.4062 59.9863 91.5625 60.002C91.7187 60.0176 91.8476 60.0293 91.9492 60.0371V62.3457C91.8555 62.3223 91.6875 62.2988 91.4453 62.2754C91.2031 62.2441 90.9375 62.2285 90.6484 62.2285C89.9531 62.2285 89.3555 62.4707 88.8555 62.9551C88.3633 63.4395 88.1172 64.1855 88.1172 65.1934V72.5059H85.6445Z" fill="black"/>
<path d="M77.8516 72.7773C76.625 72.7773 75.5703 72.5 74.6875 71.9453C73.8125 71.3906 73.1367 70.6289 72.6602 69.6602C72.1914 68.6836 71.957 67.5742 71.957 66.332C71.957 65.0742 72.2031 63.957 72.6953 62.9805C73.1875 62.0039 73.8672 61.2383 74.7344 60.6836C75.6016 60.1211 76.5977 59.8398 77.7227 59.8398C78.8945 59.8398 79.9101 60.1133 80.7695 60.6602C81.6367 61.207 82.3086 61.9687 82.7851 62.9453C83.2617 63.9141 83.5 65.0352 83.5 66.3086V66.9766H74.3945C74.4414 68.0938 74.7617 68.9961 75.3555 69.6836C75.957 70.3711 76.8008 70.7148 77.8867 70.7148C78.6992 70.7148 79.3672 70.5313 79.8906 70.1641C80.4141 69.7969 80.7617 69.3203 80.9336 68.7344H83.3125C83.1641 69.5312 82.832 70.2344 82.3164 70.8438C81.8086 71.4531 81.168 71.9297 80.3945 72.2734C79.6289 72.6094 78.7812 72.7773 77.8516 72.7773ZM74.418 65.1016H81.0859C80.9844 64.1172 80.6367 63.3398 80.043 62.7695C79.4492 62.1914 78.6836 61.9023 77.7461 61.9023C76.8086 61.9023 76.043 62.1914 75.4492 62.7695C74.8633 63.3398 74.5195 64.1172 74.418 65.1016Z" fill="black"/>
<path d="M58.0928 72.5V55.0391H60.6943V63.7344C61.1709 63.1953 61.6475 62.6602 62.124 62.1289C62.6006 61.5977 63.081 61.0586 63.5654 60.5117L68.5342 55.0391H71.8271L64.9365 62.5977L71.8857 72.5H68.8389L63.1553 64.3672L60.6943 67.0859V72.5H58.0928Z" fill="black"/>
<path d="M21.5084 85.3401C21.2807 86.0257 20.6425 87.1435 19.7953 87.8168C18.8196 88.6089 17.6813 88.6716 16.5057 88.5291C15.4584 88.4135 14.7169 88.0545 13.2242 87.4846C12.5883 87.2403 11.7915 87.0555 11.0988 86.8618C9.86541 86.5166 6.86198 85.9426 6.0294 85.6585C5.45539 85.4631 4.84153 85.3198 4.41386 84.7702C3.9057 84.1189 3.92603 83.4155 4.15206 82.7398C4.55477 81.5521 4.68864 80.2895 4.54395 79.0436C4.46931 78.316 4.46495 77.5828 4.53094 76.8544C4.57485 76.2845 5.23749 75.6844 5.88468 75.5371C6.55139 75.384 7.21809 75.2318 7.88399 75.0746C8.54988 74.9175 9.05154 74.5121 9.40522 73.9202C9.71583 73.3793 10.0661 72.8622 10.4533 72.3733C10.7533 72.3066 10.7134 72.0859 10.6825 71.8694V71.1366C10.6825 71.0552 10.6825 70.9738 10.6825 70.8924C10.6541 69.1176 11.4265 67.6049 12.2021 66.0784C12.7656 64.9728 13.39 63.9087 14.0079 62.8422C14.7649 61.5396 15.6219 60.289 16.3804 58.9823C17.0715 57.7913 17.7391 56.5871 18.2854 55.3187C18.6318 54.5152 18.979 53.6904 19.066 52.8291C19.1619 51.8887 19.2392 50.9403 19.092 49.9796C18.9684 49.1728 19.0635 48.3318 19.0627 47.5062C19.0627 46.2614 18.9757 45.0044 19.1725 43.7775C19.4221 42.2224 20.1888 40.9019 21.3726 39.8492C23.837 37.6567 27.1128 37.476 29.8674 38.9781C30.7195 39.443 31.3757 40.1863 31.9001 41.0183C32.6497 42.2062 32.9806 43.5194 33.1408 44.9042C33.3034 46.3396 33.1823 47.7733 33.2124 49.207C33.2302 50.0325 33.2254 50.8597 33.375 51.673C33.5257 52.4883 33.8174 53.271 34.2368 53.986C35.6458 56.3991 37.3565 58.6127 38.8607 60.9631C39.8315 62.4791 40.7933 63.9991 41.6405 65.5883C42.4747 67.1457 42.9991 68.7854 42.8081 70.5765C42.7352 71.3253 42.553 72.0593 42.2674 72.7552C42.1861 72.9538 42.1633 73.0808 42.43 73.1834C43.2634 73.5091 43.5878 74.2198 43.6935 75.0486C43.826 76.0752 44.1293 77.0196 44.9488 77.7116C45.5473 78.2164 46.1619 78.7033 46.7051 79.2675C46.9441 79.5158 47.1783 79.7804 47.2823 80.1313C47.5425 81.013 47.0132 81.5462 46.4449 82.064C46.3164 82.1813 46.1782 82.2887 46.0449 82.4011L45.7757 82.5965C45.0545 83.0768 43.3805 84.1824 43.265 84.2549C42.3609 84.8085 40.125 86.5337 39.0127 87.4691C38.6623 87.7492 38.3159 88.0993 37.9265 88.3272C37.1616 88.7854 36.2832 89.0182 35.3922 88.9989C33.9823 88.9696 31.9684 88.2238 31.5472 86.2381C28.6901 84.9209 25.1363 84.4731 21.5084 85.3401ZM20.4644 53.7157C20.4522 53.8427 20.4465 53.8907 20.4433 53.9396C20.3501 55.7312 19.8697 57.4811 19.0351 59.0686C18.5611 59.9805 18.1017 60.9021 17.7545 61.8734C17.7195 61.9727 17.7025 62.0785 17.5968 62.1461C17.0024 62.5214 16.6341 63.0995 16.3146 63.693C15.5105 65.1861 14.8251 66.7338 14.4698 68.4019C14.2258 69.5621 14.086 70.7353 14.5348 71.884C14.9966 73.0653 15.8211 73.9747 16.7691 74.7848C17.7171 75.5949 18.7407 76.3113 19.6489 77.1686C20.6327 78.0975 20.6246 78.7155 19.6392 79.6517C19.6002 79.6892 19.5579 79.725 19.5188 79.7608C19.0652 80.1679 19.0652 80.1679 19.5473 80.575C19.5676 80.5921 19.5888 80.61 19.6099 80.6263C21.5255 82.156 23.7045 82.6722 26.1192 82.3848C28.6292 82.086 30.6016 80.8949 32.1359 78.9149C32.2632 78.7584 32.3325 78.5624 32.3318 78.3605C32.3524 77.4112 32.383 76.4614 32.4237 75.511C32.4465 74.9696 32.479 74.4282 32.64 73.9055C32.901 73.0588 33.3823 72.7096 34.2612 72.7389C34.5051 72.747 34.749 72.7389 34.9856 72.8203C35.1686 72.8822 35.2824 72.8488 35.3344 72.6265C35.5987 71.4973 35.7361 70.3632 35.5962 69.2014C35.4101 67.6546 34.9393 66.1891 34.3767 64.7522C33.9872 63.7524 33.6132 62.7111 32.844 61.9588C32.331 61.4573 32.1302 60.8817 31.918 60.2638C31.7952 59.9064 31.6619 59.5514 31.5114 59.2054C31.0976 58.2504 30.7406 57.2718 30.4423 56.2745C30.1276 55.2536 29.8992 54.2115 29.639 53.1425C28.544 54.0648 27.3521 54.8652 26.0843 55.5296C25.6619 55.759 25.1974 55.9002 24.7189 55.9449C24.2404 55.9895 23.7579 55.9366 23.3004 55.7893C22.1296 55.4425 21.1824 54.7977 20.4644 53.7157ZM17.3878 88.1766C18.8513 88.2499 19.9945 87.4585 20.7336 85.9784C21.3547 84.7328 21.0588 83.5246 20.2148 82.4475C19.7384 81.8393 19.1798 81.3004 18.7399 80.6613C17.1713 78.3849 15.6021 76.1089 14.0323 73.8331C13.7652 73.4242 13.4398 73.0567 13.0664 72.7421C12.268 72.0998 11.1891 72.2243 10.5459 73.0295C10.3491 73.2888 10.1827 73.5699 10.05 73.8673C9.58979 74.828 8.84909 75.4141 7.79537 75.6047C7.22225 75.7044 6.65562 75.8384 6.09852 76.006C5.41473 76.2193 5.04154 76.6761 4.94397 77.377C4.9002 77.7952 4.90156 78.217 4.94804 78.6349C5.06675 80.0897 5.06675 81.5275 4.53663 82.927C4.1919 83.8389 4.54964 84.5862 5.44888 84.9819C6.33349 85.3711 7.27664 85.5648 8.21328 85.7887C10.3012 86.2886 12.4282 86.6371 14.4161 87.5172C15.3513 87.9378 16.3627 88.1623 17.3878 88.1766V88.1766ZM37.7785 76.1811C37.5346 76.1811 37.2907 76.1982 37.0467 76.1811C35.6434 76.0606 35.2418 75.5216 35.4637 74.1522C35.5068 73.886 35.8304 73.566 35.554 73.3609C35.3296 73.1981 34.9596 73.2192 34.6523 73.1744C34.5039 73.161 34.3547 73.1585 34.2059 73.1671C33.6742 73.1671 33.3116 73.4252 33.0961 73.9072C32.9818 74.1532 32.909 74.4165 32.8806 74.6863C32.766 75.9971 32.7449 77.3135 32.7335 78.6267C32.7311 79.9827 32.559 81.333 32.2212 82.6462C31.9131 83.8193 31.7204 85.0072 31.9863 86.2194C32.0993 86.7372 32.3115 87.1899 32.705 87.5546C34.1254 88.8784 36.6077 88.9566 38.12 87.667C40.0079 86.0525 41.9698 84.5447 44.074 83.2218C44.8356 82.7535 45.5686 82.2402 46.2693 81.6847C47.0319 81.0667 47.0823 80.4887 46.4554 79.7356C46.2928 79.5386 46.1091 79.3538 45.9278 79.1714C45.7544 78.9806 45.566 78.8042 45.3643 78.6438C44.1138 77.7385 43.4252 76.5271 43.2975 74.9802C43.2561 74.4787 43.0536 74.0439 42.6129 73.7411C42.1056 73.3886 42.0365 73.3967 41.743 73.9389C41.5608 74.2722 41.3485 74.5881 41.1088 74.8825C40.5974 75.5159 39.9705 75.9629 39.1493 76.0842C38.6956 76.1501 38.2411 76.2234 37.7785 76.1811ZM20.7108 53.4527C21.064 54.1612 21.6379 54.7353 22.3458 55.0883C23.4695 55.6672 24.6224 55.9505 25.842 55.3269C27.0404 54.713 28.1804 54.0088 29.2016 53.1287C30.2041 52.2657 30.0073 51.0632 28.795 50.5926C27.6844 50.1628 26.5615 49.7638 25.442 49.3584C25.007 49.2013 24.5476 49.0726 24.0915 49.1141C22.332 49.2664 21.0124 50.2108 19.9595 51.5566C19.6343 51.975 19.766 52.3992 20.2034 52.724C20.562 52.9903 20.9246 53.2549 21.3051 53.4877C22.4597 54.1919 23.7004 54.3963 25.0119 54.0438C26.181 53.7303 27.1868 53.0904 28.1657 52.4016C28.2804 52.3202 28.3755 52.1484 28.6023 52.2388C28.5721 52.289 28.5363 52.3357 28.4958 52.378C27.6779 53.0293 26.8299 53.6334 25.8664 54.0576C24.6183 54.608 23.3597 54.6755 22.08 54.1748C21.5954 53.9851 21.1734 53.6912 20.7108 53.4527ZM28.008 49.9836C28.2828 50.0911 28.5194 50.1807 28.7536 50.2767C28.8934 50.3345 28.9763 50.2767 29.0601 50.1676C29.6983 49.3218 30.1268 48.4213 29.9585 47.3092C29.813 46.3461 29.152 45.4774 28.3275 45.2681C27.4494 45.0459 26.4851 45.457 25.9005 46.2956C25.5233 46.8362 25.3907 47.459 25.3265 48.0932C25.233 49.0303 25.259 49.0449 26.1599 49.2998C26.1705 49.2998 26.1835 49.2949 26.1981 49.2916C26.2477 49.1833 26.194 49.084 26.1737 48.9798C26.1192 48.7201 26.1215 48.4517 26.1804 48.1929C26.2394 47.9342 26.3536 47.6913 26.5152 47.481C26.8079 47.0829 27.2014 46.8663 27.708 46.9404C28.2145 47.0145 28.4901 47.3401 28.6617 47.783C28.9528 48.5337 28.7292 49.3128 28.008 49.9836ZM22.3979 49.2298C22.6548 49.1076 22.9548 49.1133 22.9565 48.725C22.9605 47.853 22.7938 47.0267 22.306 46.2923C22.0101 45.8462 21.5938 45.5881 21.0344 45.6614C20.475 45.7346 20.127 46.0684 19.9603 46.5862C19.5774 47.7716 19.7896 48.887 20.4124 49.9356C20.6766 50.3818 20.6953 50.3704 21.1214 49.9755C21.0523 49.9112 20.9815 49.8509 20.9165 49.785C20.3864 49.2501 20.2319 48.3041 20.5636 47.6332C20.8766 47.0014 21.51 46.9111 21.98 47.4338C22.2208 47.6953 22.3661 48.0307 22.3922 48.3855C22.4109 48.6533 22.3946 48.9204 22.3946 49.2298H22.3979Z" fill="#444342"/>
<path d="M20.4632 53.7149C21.1812 54.7969 22.1284 55.4417 23.2951 55.7893C23.7526 55.9366 24.2352 55.9896 24.7136 55.9449C25.1921 55.9003 25.6566 55.759 26.079 55.5296C27.3468 54.8653 28.5387 54.0649 29.6337 53.1426C29.8939 54.2115 30.1215 55.2536 30.437 56.2746C30.7353 57.2718 31.0923 58.2505 31.5062 59.2055C31.6598 59.5515 31.7932 59.9065 31.9127 60.2639C32.1249 60.8818 32.3257 61.4574 32.8388 61.9589C33.6079 62.7112 33.9819 63.75 34.3714 64.7522C34.9324 66.1924 35.4032 67.6563 35.591 69.2015C35.7308 70.3633 35.591 71.4974 35.3292 72.6266C35.2771 72.8488 35.1666 72.8822 34.9804 72.8204C34.7438 72.7389 34.4982 72.7471 34.2559 72.7389C33.377 72.7096 32.8957 73.0589 32.6347 73.9056C32.4721 74.4283 32.4412 74.9697 32.4184 75.5111C32.3783 76.4587 32.3477 77.4086 32.3266 78.3606C32.3272 78.5625 32.258 78.7584 32.1306 78.915C30.5988 80.895 28.6263 82.0902 26.114 82.3849C23.6992 82.6723 21.5202 82.1561 19.6046 80.6263C19.5835 80.61 19.5624 80.5921 19.542 80.575C19.0599 80.1631 19.0599 80.1631 19.5136 79.7609C19.5542 79.7251 19.5949 79.6893 19.6339 79.6518C20.6202 78.7131 20.6275 78.0976 19.6437 77.1687C18.7355 76.3114 17.711 75.5941 16.7638 74.7849C15.8166 73.9756 14.9914 73.0654 14.5295 71.8841C14.0807 70.7353 14.2173 69.5622 14.4645 68.402C14.8198 66.7338 15.5052 65.1862 16.3093 63.693C16.6289 63.0995 16.9972 62.5215 17.5915 62.1462C17.6972 62.0786 17.7143 61.9727 17.7493 61.8734C18.0964 60.9021 18.5558 59.9805 19.0298 59.0687C19.8644 57.4812 20.3449 55.7312 20.438 53.9396C20.4454 53.89 20.451 53.8419 20.4632 53.7149Z" fill="#F5F5F5"/>
<path d="M17.3866 88.1825C16.3604 88.1686 15.3479 87.9441 14.4117 87.523C12.4237 86.6429 10.2968 86.2953 8.21129 85.7946C7.2779 85.5707 6.33475 85.3769 5.44689 84.9878C4.54765 84.5921 4.1899 83.848 4.53464 82.9329C5.06475 81.5334 5.06475 80.0956 4.94605 78.6407C4.89957 78.2228 4.89821 77.8011 4.94198 77.3829C5.0363 76.6819 5.41274 76.2252 6.09652 76.0119C6.65363 75.8443 7.22026 75.7102 7.79337 75.6105C8.85035 75.4159 9.58779 74.8338 10.048 73.8731C10.1807 73.5758 10.3471 73.2947 10.5439 73.0354C11.1871 72.2302 12.266 72.1056 13.0644 72.748C13.4381 73.0625 13.7638 73.43 14.0312 73.8389C15.6004 76.1147 17.1696 78.3908 18.7388 80.6671C19.1786 81.3062 19.7372 81.8452 20.2136 82.4534C21.0576 83.5305 21.3519 84.7387 20.7324 85.9843C19.9933 87.4644 18.8493 88.2558 17.3866 88.1825Z" fill="#FDB101"/>
<path d="M37.7773 76.1807C38.24 76.2231 38.6945 76.1498 39.1506 76.0822C39.975 75.9609 40.5986 75.5123 41.11 74.8805C41.3498 74.5861 41.5621 74.2702 41.7442 73.937C42.0377 73.3947 42.1069 73.3866 42.6142 73.7391C43.0508 74.042 43.2573 74.4767 43.2988 74.9782C43.4264 76.5251 44.1119 77.7349 45.3656 78.6419C45.5673 78.8022 45.7557 78.9787 45.929 79.1694C46.1104 79.3518 46.2917 79.5366 46.4567 79.7336C47.0852 80.4867 47.0332 81.0647 46.2705 81.6827C45.5699 82.2382 44.8368 82.7515 44.0753 83.2198C41.9711 84.5427 40.01 86.0505 38.1212 87.665C36.6114 88.9546 34.1267 88.8764 32.7063 87.5526C32.3144 87.1879 32.1006 86.7385 31.9875 86.2174C31.7217 85.0019 31.9144 83.8173 32.2225 82.6442C32.5603 81.3311 32.7324 79.9807 32.7347 78.6248C32.7461 77.3116 32.7673 75.9951 32.8819 74.6843C32.9103 74.4145 32.9831 74.1512 33.0974 73.9052C33.312 73.4232 33.6755 73.1676 34.2072 73.1652C34.356 73.1566 34.5052 73.159 34.6536 73.1725C34.9609 73.2173 35.3308 73.1928 35.5552 73.3589C35.8317 73.5641 35.5081 73.884 35.465 74.1503C35.243 75.5196 35.6447 76.0586 37.048 76.1791C37.2879 76.1978 37.5334 76.1807 37.7773 76.1807Z" fill="#FDB101"/>
<path d="M20.7108 53.4452C21.1734 53.6837 21.5954 53.9776 22.0767 54.1657C23.3565 54.6664 24.6151 54.5988 25.8632 54.0485C26.8266 53.6243 27.6746 53.0202 28.4926 52.3689C28.5331 52.3266 28.5688 52.2799 28.5991 52.2297C28.3722 52.1385 28.2739 52.3111 28.1625 52.3925C27.1868 53.0813 26.1778 53.7212 25.0086 54.0346C23.6972 54.3871 22.4564 54.1828 21.3019 53.4786C20.9214 53.2457 20.5588 52.9811 20.2002 52.7149C19.7636 52.3892 19.6311 51.9659 19.9563 51.5474C21.0092 50.2041 22.3288 49.2597 24.0882 49.105C24.5484 49.0651 25.0037 49.1937 25.4387 49.3492C26.5583 49.7563 27.6811 50.1536 28.7918 50.5835C30.0041 51.054 30.2008 52.2565 29.1983 53.1195C28.1771 53.998 27.0372 54.7022 25.8388 55.3177C24.6192 55.9413 23.4687 55.658 22.3426 55.0792C21.6361 54.726 21.0634 54.1526 20.7108 53.4452V53.4452ZM24.3923 49.6765C24.584 49.842 24.8045 49.9706 25.0428 50.0559C25.107 50.082 25.1802 50.1007 25.2216 50.0299C25.2369 49.9992 25.2421 49.9646 25.2365 49.9308C25.231 49.8971 25.215 49.8659 25.1908 49.8418C24.9924 49.591 24.7346 49.6089 24.3923 49.6765ZM23.3768 49.7034C23.2712 49.6523 23.1527 49.6343 23.0367 49.6516C22.9207 49.6688 22.8126 49.7207 22.7264 49.8003C22.6499 49.8638 22.6117 49.9566 22.693 50.0445C22.7621 50.1219 22.8435 50.0868 22.9101 50.0404C23.0492 49.9452 23.1866 49.8402 23.3736 49.7034H23.3768Z" fill="#FDB101"/>
<path d="M28.0087 49.9778C28.7299 49.3069 28.9535 48.5278 28.6591 47.7796C28.4876 47.3367 28.2006 47.0086 27.7054 46.937C27.2103 46.8653 26.8054 47.0795 26.5127 47.4776C26.351 47.6879 26.2368 47.9308 26.1778 48.1895C26.1189 48.4482 26.1166 48.7167 26.1712 48.9764C26.1915 49.0806 26.2452 49.1799 26.1956 49.2882C26.1809 49.2882 26.1679 49.2988 26.1573 49.2964C25.2565 49.0415 25.2305 49.0269 25.324 48.0898C25.3882 47.4556 25.5207 46.8328 25.898 46.2922C26.4826 45.4536 27.4469 45.0425 28.325 45.2647C29.1494 45.474 29.8104 46.3427 29.956 47.3058C30.1243 48.4179 29.6958 49.3183 29.0575 50.1642C28.9762 50.2758 28.8949 50.3311 28.751 50.2733C28.5201 50.1748 28.2835 50.0853 28.0087 49.9778Z" fill="#F5F5F5"/>
<path d="M22.3933 49.2331C22.3933 48.927 22.4096 48.6567 22.3933 48.3888C22.3672 48.034 22.2219 47.6986 21.9811 47.4371C21.5112 46.9144 20.8778 47.0048 20.5648 47.6365C20.233 48.3074 20.3875 49.2534 20.9176 49.7883C20.9827 49.8543 21.0534 49.9145 21.1225 49.9788C20.6965 50.3737 20.6778 50.3859 20.4135 49.9389C19.7907 48.8903 19.5785 47.7749 19.9615 46.5896C20.1241 46.0718 20.481 45.738 21.0355 45.6647C21.59 45.5914 22.0112 45.8495 22.3072 46.2957C22.795 47.0284 22.9576 47.8564 22.9576 48.7283C22.9503 49.1167 22.6503 49.111 22.3933 49.2331Z" fill="#EAEAEA"/>
</svg>
