<svg width="128" height="128" viewBox="0 0 128 128" fill="none" xmlns="http://www.w3.org/2000/svg">
<path d="M103.028 98.1348V119.443H100.011V98.1348H103.028Z" fill="black"/>
<path d="M90.5005 119.781C89.0037 119.781 87.7166 119.442 86.6392 118.765C85.5714 118.088 84.7468 117.159 84.1652 115.977C83.5931 114.785 83.3071 113.431 83.3071 111.915C83.3071 110.38 83.6074 109.017 84.2081 107.825C84.8087 106.633 85.6382 105.699 86.6965 105.022C87.7547 104.335 88.9703 103.992 90.3432 103.992C91.7733 103.992 93.0127 104.326 94.0614 104.993C95.1197 105.661 95.9396 106.59 96.5212 107.782C97.1028 108.964 97.3936 110.332 97.3936 111.886V112.702H86.2817C86.3389 114.065 86.7298 115.166 87.4544 116.005C88.1885 116.844 89.2182 117.264 90.5434 117.264C91.5349 117.264 92.3501 117.04 92.9889 116.591C93.6276 116.143 94.0519 115.562 94.2616 114.847H97.1647C96.9836 115.819 96.5784 116.677 95.9492 117.421C95.3295 118.165 94.5477 118.746 93.6038 119.166C92.6695 119.576 91.635 119.781 90.5005 119.781ZM86.3103 110.413H94.4476C94.3236 109.212 93.8994 108.263 93.1748 107.567C92.4502 106.862 91.5159 106.509 90.3718 106.509C89.2277 106.509 88.2934 106.862 87.5688 107.567C86.8538 108.263 86.4343 109.212 86.3103 110.413Z" fill="black"/>
<path d="M70.6796 110.752V119.447H67.6621V104.345H70.6224V106.619C71.6521 104.903 73.1727 104.045 75.1844 104.045C76.2236 104.045 77.1532 104.274 77.9731 104.731C78.8025 105.179 79.4556 105.847 79.9323 106.734C80.409 107.62 80.6474 108.721 80.6474 110.037V119.447H77.6299V110.409C77.6299 109.198 77.3391 108.288 76.7575 107.677C76.1759 107.058 75.3655 106.748 74.3263 106.748C73.2967 106.748 72.4291 107.067 71.7236 107.706C71.0276 108.335 70.6796 109.351 70.6796 110.752Z" fill="black"/>
<path d="M57.623 119.45V104.348H60.5118V106.794H60.569C60.8455 105.964 61.2793 105.32 61.8704 104.863C62.4711 104.396 63.2528 104.162 64.2158 104.162C64.4446 104.162 64.6543 104.172 64.845 104.191C65.0357 104.21 65.193 104.224 65.3169 104.234V107.051C65.2025 107.022 64.9976 106.994 64.702 106.965C64.4065 106.927 64.0823 106.908 63.7295 106.908C62.881 106.908 62.1517 107.203 61.5415 107.795C60.9409 108.386 60.6405 109.296 60.6405 110.526V119.45H57.623Z" fill="black"/>
<path d="M48.1128 119.781C46.616 119.781 45.3289 119.442 44.2516 118.765C43.1837 118.088 42.3591 117.159 41.7775 115.977C41.2055 114.785 40.9194 113.431 40.9194 111.915C40.9194 110.38 41.2198 109.017 41.8204 107.825C42.421 106.633 43.2505 105.699 44.3088 105.022C45.367 104.335 46.5826 103.992 47.9555 103.992C49.3856 103.992 50.625 104.326 51.6737 104.993C52.732 105.661 53.5519 106.59 54.1335 107.782C54.7151 108.964 55.0059 110.332 55.0059 111.886V112.702H43.894C43.9512 114.065 44.3421 115.166 45.0667 116.005C45.8008 116.844 46.8305 117.264 48.1557 117.264C49.1472 117.264 49.9624 117.04 50.6012 116.591C51.2399 116.143 51.6642 115.562 51.874 114.847H54.777C54.5959 115.819 54.1907 116.677 53.5615 117.421C52.9418 118.165 52.16 118.746 51.2161 119.166C50.2818 119.576 49.2473 119.781 48.1128 119.781ZM43.9226 110.413H52.0599C51.9359 109.212 51.5117 108.263 50.7871 107.567C50.0625 106.862 49.1282 106.509 47.9841 106.509C46.84 106.509 45.9057 106.862 45.1811 107.567C44.4661 108.263 44.0466 109.212 43.9226 110.413Z" fill="black"/>
<path d="M24 119.443V98.1348H27.1748V108.746C27.7564 108.088 28.338 107.435 28.9195 106.787C29.5011 106.139 30.0874 105.481 30.6785 104.813L36.7421 98.1348H40.7607L32.3517 107.359L40.8322 119.443H37.114L30.178 109.518L27.1748 112.836V119.443H24Z" fill="black"/>
<path d="M56.801 81.4982C56.4523 82.548 55.4749 84.2599 54.1775 85.291C52.6833 86.5041 50.9401 86.6001 49.1397 86.3819C47.5359 86.2049 46.4004 85.655 44.1143 84.7823C43.1406 84.4082 41.9204 84.1252 40.8595 83.8285C38.9707 83.2998 34.3712 82.4208 33.0961 81.9857C32.2171 81.6865 31.277 81.467 30.6221 80.6254C29.8439 79.628 29.875 78.5508 30.2211 77.5159C30.8379 75.697 31.0429 73.7635 30.8213 71.8554C30.707 70.7411 30.7003 69.6184 30.8014 68.5028C30.8686 67.63 31.8834 66.7111 32.8745 66.4855C33.8955 66.2511 34.9165 66.0179 35.9363 65.7773C36.9561 65.5367 37.7243 64.9157 38.2659 64.0093C38.7416 63.181 39.2781 62.3891 39.8709 61.6404C40.3304 61.5382 40.2694 61.2003 40.222 60.8686V59.7465C40.222 59.6218 40.222 59.4972 40.222 59.3725C40.1785 56.6544 41.3613 54.3379 42.5492 52.0001C43.4121 50.307 44.3683 48.6774 45.3146 47.0441C46.4738 45.0492 47.7862 43.1341 48.9479 41.133C50.0063 39.309 51.0285 37.4649 51.8653 35.5224C52.3957 34.2918 52.9274 33.0288 53.0606 31.7097C53.2075 30.2696 53.3258 28.8171 53.1004 27.3459C52.9112 26.1103 53.0569 24.8224 53.0556 23.5581C53.0556 21.6518 52.9224 19.7267 53.2237 17.8478C53.606 15.4664 54.7801 13.4441 56.593 11.832C60.367 8.47433 65.3837 8.19754 69.6022 10.4979C70.9071 11.2098 71.9119 12.3481 72.715 13.6224C73.863 15.4414 74.3698 17.4525 74.6151 19.5733C74.8641 21.7715 74.6786 23.9671 74.7246 26.1627C74.752 27.4269 74.7446 28.6937 74.9737 29.9392C75.2046 31.1878 75.6512 32.3865 76.2935 33.4814C78.4513 37.1769 81.0711 40.567 83.3746 44.1665C84.8613 46.488 86.3342 48.8158 87.6317 51.2496C88.9092 53.6347 89.7123 56.1457 89.4197 58.8887C89.3081 60.0354 89.0291 61.1595 88.5917 62.2251C88.4672 62.5294 88.4323 62.7239 88.8407 62.881C90.1169 63.3797 90.6138 64.4681 90.7756 65.7374C90.9786 67.3096 91.443 68.7559 92.6981 69.8157C93.6145 70.5887 94.5558 71.3343 95.3876 72.1983C95.7537 72.5786 96.1123 72.9838 96.2716 73.5212C96.6701 74.8715 95.8595 75.6881 94.9892 76.4811C94.7924 76.6606 94.5808 76.8252 94.3766 76.9972L93.9644 77.2965C92.86 78.0321 90.2963 79.7252 90.1194 79.8362C88.7349 80.684 85.3107 83.326 83.6074 84.7586C83.0708 85.1875 82.5403 85.7236 81.9439 86.0727C80.7726 86.7743 79.4274 87.1308 78.0628 87.1013C75.9038 87.0564 72.8196 85.9144 72.1746 82.8734C67.7992 80.8561 62.3567 80.1704 56.801 81.4982ZM55.2022 33.0675C55.1835 33.262 55.1748 33.3355 55.1698 33.4103C55.0272 36.154 54.2914 38.834 53.0133 41.2652C52.2874 42.6616 51.5839 44.073 51.0522 45.5604C50.9987 45.7125 50.9725 45.8746 50.8106 45.9781C49.9004 46.5529 49.3364 47.4381 48.8471 48.347C47.6156 50.6336 46.566 53.0038 46.0219 55.5585C45.6483 57.3352 45.4342 59.1318 46.1215 60.8911C46.8287 62.7002 48.0913 64.0929 49.5431 65.3334C50.9949 66.574 52.5625 67.6712 53.9534 68.9841C55.46 70.4067 55.4475 71.353 53.9384 72.7868C53.8786 72.8441 53.8139 72.899 53.7541 72.9539C53.0593 73.5773 53.0593 73.5773 53.7977 74.2007C53.8288 74.2269 53.8612 74.2543 53.8936 74.2792C56.8271 76.622 60.1641 77.4124 63.8621 76.9723C67.7058 76.5147 70.7265 74.6907 73.0761 71.6584C73.2711 71.4187 73.3771 71.1186 73.3762 70.8094C73.4077 69.3556 73.4546 67.901 73.5169 66.4456C73.5517 65.6164 73.6015 64.7873 73.8481 63.9869C74.2478 62.6902 74.9849 62.1553 76.3309 62.2002C76.7044 62.2127 77.0779 62.2002 77.4403 62.3249C77.7204 62.4196 77.8947 62.3685 77.9744 62.0282C78.3791 60.2988 78.5895 58.562 78.3754 56.7829C78.0902 54.4139 77.3693 52.1697 76.5077 49.9691C75.9112 48.438 75.3385 46.8434 74.1606 45.6913C73.3749 44.9233 73.0674 44.0418 72.7424 43.0955C72.5544 42.5481 72.3502 42.0045 72.1198 41.4746C71.486 40.0122 70.9393 38.5134 70.4825 36.9862C70.0006 35.4227 69.6507 33.8268 69.2523 32.1897C67.5754 33.6022 65.7501 34.8279 63.8086 35.8453C63.1616 36.1966 62.4503 36.413 61.7176 36.4813C60.9848 36.5497 60.2458 36.4686 59.5452 36.2431C57.7522 35.7119 56.3017 34.7245 55.2022 33.0675ZM50.4906 85.842C52.7319 85.9543 54.4825 84.7424 55.6144 82.4757C56.5656 80.5681 56.1124 78.7178 54.82 77.0683C54.0903 76.137 53.2349 75.3116 52.5613 74.3328C50.159 70.8468 47.7559 67.3611 45.352 63.8759C44.9429 63.2497 44.4446 62.6869 43.8728 62.2052C42.65 61.2215 40.9978 61.4122 40.0129 62.6453C39.7114 63.0424 39.4565 63.4729 39.2533 63.9283C38.5486 65.3995 37.4143 66.2972 35.8006 66.589C34.9229 66.7417 34.0551 66.9469 33.202 67.2036C32.1548 67.5303 31.5833 68.2297 31.4339 69.3032C31.3669 69.9437 31.369 70.5895 31.4401 71.2295C31.6219 73.4576 31.6219 75.6594 30.8101 77.8027C30.2822 79.1991 30.83 80.3437 32.2071 80.9496C33.5618 81.5456 35.0062 81.8423 36.4406 82.1852C39.6381 82.9507 42.8953 83.4844 45.9397 84.8321C47.3719 85.4764 48.9207 85.8201 50.4906 85.842V85.842ZM81.7173 67.4717C81.3438 67.4717 80.9702 67.4979 80.5967 67.4717C78.4476 67.2872 77.8325 66.4618 78.1724 64.3647C78.2384 63.957 78.734 63.467 78.3106 63.1528C77.967 62.9034 77.4004 62.9358 76.9298 62.8672C76.7025 62.8467 76.474 62.8429 76.2462 62.856C75.4319 62.856 74.8765 63.2513 74.5466 63.9894C74.3716 64.3661 74.2601 64.7693 74.2166 65.1826C74.0411 67.1899 74.0087 69.206 73.9913 71.2171C73.9877 73.2937 73.7241 75.3616 73.2068 77.3725C72.7349 79.1692 72.4398 80.9883 72.847 82.8447C73.0201 83.6377 73.345 84.3309 73.9477 84.8895C76.1229 86.9168 79.9243 87.0365 82.2403 85.0616C85.1315 82.5891 88.136 80.2801 91.3584 78.254C92.5246 77.5369 93.6472 76.7508 94.7202 75.9001C95.8881 74.9537 95.9653 74.0685 95.0053 72.9152C94.7563 72.6135 94.4749 72.3305 94.1972 72.0512C93.9318 71.7591 93.6432 71.4889 93.3344 71.2433C91.4194 69.8568 90.3647 68.0016 90.1693 65.6327C90.1058 64.8646 89.7957 64.1988 89.1208 63.735C88.3439 63.1952 88.2381 63.2076 87.7886 64.038C87.5096 64.5484 87.1845 65.0321 86.8174 65.483C86.0342 66.4531 85.0742 67.1375 83.8166 67.3233C83.1218 67.4243 82.4258 67.5365 81.7173 67.4717ZM55.5795 32.6648C56.1204 33.7498 56.9993 34.629 58.0835 35.1696C59.8042 36.0561 61.5698 36.4899 63.4375 35.5349C65.2728 34.5948 67.0185 33.5163 68.5824 32.1685C70.1177 30.8469 69.8163 29.0054 67.9598 28.2847C66.259 27.6264 64.5395 27.0155 62.8249 26.3946C62.1588 26.154 61.4553 25.957 60.7567 26.0206C58.0623 26.2537 56.0414 27.7 54.429 29.761C53.9309 30.4018 54.1326 31.0514 54.8025 31.5489C55.3516 31.9566 55.907 32.3618 56.4897 32.7184C58.2578 33.7968 60.1578 34.1098 62.1662 33.5699C63.9567 33.0899 65.497 32.1099 66.9961 31.0551C67.1717 30.9305 67.3174 30.6674 67.6647 30.8058C67.6184 30.8826 67.5637 30.9541 67.5016 31.019C66.249 32.0164 64.9504 32.9415 63.4749 33.5911C61.5636 34.434 59.6361 34.5374 57.6763 33.7707C56.9342 33.4802 56.288 33.0301 55.5795 32.6648ZM66.7545 27.3521C67.1754 27.5167 67.5377 27.6539 67.8963 27.801C68.1105 27.8895 68.2375 27.801 68.3657 27.6339C69.3432 26.3385 69.9994 24.9595 69.7416 23.2564C69.5187 21.7814 68.5065 20.4511 67.2439 20.1307C65.8991 19.7903 64.4224 20.4199 63.5272 21.7041C62.9494 22.532 62.7465 23.4858 62.6481 24.4571C62.5049 25.8921 62.5448 25.9146 63.9244 26.3048C63.9406 26.3048 63.9605 26.2973 63.9829 26.2924C64.0588 26.1265 63.9767 25.9744 63.9455 25.8148C63.862 25.4171 63.8655 25.006 63.9558 24.6098C64.046 24.2135 64.221 23.8416 64.4685 23.5195C64.9167 22.9098 65.5194 22.5781 66.2951 22.6916C67.0708 22.8051 67.4929 23.3038 67.7556 23.982C68.2014 25.1316 67.859 26.3248 66.7545 27.3521ZM58.1631 26.1976C58.5566 26.0106 59.0161 26.0193 59.0185 25.4246C59.0248 24.0893 58.7695 22.8238 58.0224 21.6991C57.5692 21.0159 56.9317 20.6207 56.0751 20.7329C55.2184 20.8451 54.6855 21.3563 54.4302 22.1492C53.8438 23.9646 54.1688 25.6727 55.1225 27.2786C55.5272 27.9618 55.5558 27.9444 56.2083 27.3397C56.1024 27.2412 55.9941 27.1489 55.8945 27.0479C55.0827 26.2288 54.8461 24.78 55.3541 23.7526C55.8335 22.7851 56.8035 22.6467 57.5231 23.4472C57.892 23.8476 58.1145 24.3614 58.1544 24.9047C58.1831 25.3149 58.1582 25.7238 58.1582 26.1976H58.1631Z" fill="#444342"/>
<path d="M55.2006 33.066C56.3 34.723 57.7506 35.7104 59.5374 36.2428C60.238 36.4684 60.977 36.5494 61.7097 36.4811C62.4425 36.4127 63.1538 36.1964 63.8007 35.8451C65.7422 34.8277 67.5675 33.6019 69.2444 32.1895C69.6429 33.8265 69.9915 35.4224 70.4746 36.9859C70.9314 38.5131 71.4781 40.0119 72.112 41.4744C72.3473 42.0043 72.5515 42.5479 72.7345 43.0952C73.0595 44.0415 73.367 44.923 74.1527 45.6911C75.3306 46.8431 75.9034 48.434 76.4998 49.9688C77.3589 52.1744 78.0799 54.4162 78.3675 56.7826C78.5817 58.5618 78.3675 60.2986 77.9666 62.0279C77.8869 62.3683 77.7175 62.4194 77.4324 62.3246C77.0701 62.1999 76.694 62.2124 76.323 62.1999C74.977 62.1551 74.2399 62.6899 73.8402 63.9866C73.5912 64.7871 73.5438 65.6162 73.509 66.4453C73.4476 67.8966 73.4007 69.3512 73.3683 70.8091C73.3693 71.1183 73.2632 71.4184 73.0682 71.6582C70.7224 74.6904 67.7017 76.5207 63.8542 76.972C60.1562 77.4122 56.8193 76.6217 53.8857 74.2789C53.8534 74.254 53.821 74.2266 53.7899 74.2004C53.0515 73.5695 53.0515 73.5695 53.7463 72.9536C53.8085 72.8987 53.8708 72.8439 53.9306 72.7865C55.4409 71.349 55.4521 70.4064 53.9455 68.9838C52.5547 67.6709 50.9858 66.5725 49.5352 65.3332C48.0847 64.0938 46.8209 62.6999 46.1136 60.8908C45.4263 59.1316 45.6355 57.3349 46.014 55.5582C46.5581 53.0035 47.6078 50.6334 48.8392 48.3467C49.3286 47.4378 49.8926 46.5526 50.8028 45.9778C50.9647 45.8743 50.9908 45.7122 51.0443 45.5601C51.576 44.0727 52.2795 42.6613 53.0054 41.2649C54.2835 38.8338 55.0193 36.1538 55.162 33.4101C55.1732 33.334 55.1819 33.2605 55.2006 33.066Z" fill="#F5F5F5"/>
<path d="M50.4869 85.8587C48.9152 85.8374 47.3647 85.4936 45.9309 84.8488C42.8866 83.501 39.6293 82.9686 36.4355 82.2018C35.0061 81.8589 33.5618 81.5622 32.2021 80.9662C30.825 80.3603 30.2771 79.2207 30.805 77.8193C31.6169 75.676 31.6169 73.4742 31.4351 71.2461C31.3639 70.6061 31.3618 69.9603 31.4289 69.3198C31.5733 68.2463 32.1498 67.5469 33.1969 67.2202C34.0501 66.9635 34.9179 66.7583 35.7955 66.6055C37.4142 66.3076 38.5435 65.4161 39.2483 63.9449C39.4515 63.4895 39.7063 63.059 40.0078 62.6619C40.9927 61.4288 42.645 61.2381 43.8677 62.2218C44.44 62.7034 44.9388 63.2662 45.3482 63.8925C47.7513 67.3777 50.1544 70.8634 52.5575 74.3494C53.2311 75.3282 54.0865 76.1536 54.8162 77.0849C56.1086 78.7344 56.5594 80.5847 55.6106 82.4923C54.4787 84.759 52.7268 85.9709 50.4869 85.8587Z" fill="#FDB101"/>
<path d="M81.7168 67.4715C82.4253 67.5363 83.1213 67.4241 83.8199 67.3206C85.0824 67.1349 86.0374 66.4479 86.8206 65.4804C87.1878 65.0294 87.5129 64.5457 87.7918 64.0353C88.2413 63.205 88.3472 63.1925 89.1241 63.7323C89.7928 64.1962 90.109 64.8619 90.1725 65.63C90.368 67.9989 91.4176 69.8516 93.3376 71.2406C93.6465 71.4862 93.9351 71.7564 94.2005 72.0485C94.4782 72.3278 94.7558 72.6108 95.0086 72.9125C95.9711 74.0658 95.8914 74.951 94.7235 75.8973C93.6505 76.7481 92.5279 77.5342 91.3616 78.2513C88.1392 80.2773 85.136 82.5864 82.2435 85.0588C79.9313 87.0337 76.1262 86.914 73.951 84.8868C73.3508 84.3282 73.0233 83.64 72.8503 82.842C72.4431 80.9805 72.7382 79.1664 73.2101 77.3698C73.7274 75.3589 73.9909 73.2909 73.9945 71.2144C74.012 69.2033 74.0443 67.1872 74.2199 65.1799C74.2634 64.7666 74.3749 64.3635 74.5499 63.9867C74.8786 63.2486 75.4351 62.8571 76.2495 62.8534C76.4773 62.8402 76.7058 62.844 76.933 62.8646C77.4037 62.9332 77.9702 62.8957 78.3139 63.1501C78.7372 63.4643 78.2417 63.9543 78.1757 64.362C77.8358 66.4591 78.4509 67.2845 80.6 67.469C80.9673 67.4977 81.3433 67.4715 81.7168 67.4715Z" fill="#FDB101"/>
<path d="M55.5839 32.6404C56.2923 33.0057 56.9386 33.4558 57.6757 33.7438C59.6355 34.5106 61.563 34.4071 63.4743 33.5642C64.9498 32.9147 66.2484 31.9895 67.501 30.9921C67.5631 30.9273 67.6178 30.8558 67.6641 30.7789C67.3168 30.6392 67.1661 30.9036 66.9955 31.0282C65.5014 32.083 63.9561 33.063 62.1656 33.543C60.1572 34.0829 58.2572 33.77 56.4891 32.6915C55.9064 32.3349 55.351 31.9297 54.8019 31.522C54.1333 31.0233 53.9303 30.3749 54.4284 29.7341C56.0408 27.6768 58.0617 26.2305 60.7562 25.9937C61.4609 25.9326 62.1582 26.1296 62.8243 26.3677C64.5389 26.9911 66.2584 27.5995 67.9592 28.2578C69.8157 28.9785 70.1171 30.82 68.5818 32.1416C67.0179 33.4869 65.2722 34.5654 63.4369 35.508C61.5692 36.4631 59.8074 36.0292 58.0828 35.1427C57.001 34.6019 56.1239 33.7237 55.5839 32.6404V32.6404ZM61.2218 26.8689C61.5153 27.1223 61.853 27.3193 62.2179 27.4499C62.3163 27.4898 62.4284 27.5185 62.4919 27.41C62.5152 27.3631 62.5232 27.3101 62.5147 27.2584C62.5062 27.2067 62.4817 27.159 62.4446 27.122C62.1407 26.738 61.746 26.7654 61.2218 26.8689ZM59.6667 26.9101C59.5049 26.8319 59.3234 26.8042 59.1458 26.8307C58.9682 26.8572 58.8026 26.9365 58.6706 27.0584C58.5535 27.1557 58.495 27.2978 58.6195 27.4325C58.7253 27.5509 58.8499 27.4973 58.952 27.4262C59.1649 27.2804 59.3753 27.1195 59.6617 26.9101H59.6667Z" fill="#FDB101"/>
<path d="M66.757 27.3345C67.8614 26.3071 68.2038 25.1139 67.7531 23.9681C67.4903 23.2899 67.0508 22.7874 66.2925 22.6777C65.5342 22.568 64.9142 22.8959 64.4659 23.5055C64.2184 23.8276 64.0435 24.1996 63.9532 24.5958C63.8629 24.9921 63.8594 25.4032 63.943 25.8009C63.9741 25.9605 64.0563 26.1126 63.9803 26.2784C63.9579 26.2784 63.938 26.2946 63.9218 26.2909C62.5422 25.9006 62.5023 25.8782 62.6455 24.4431C62.7439 23.4719 62.9469 22.5181 63.5246 21.6902C64.4198 20.406 65.8966 19.7764 67.2413 20.1168C68.5039 20.4372 69.5162 21.7675 69.7391 23.2425C69.9968 24.9456 69.3406 26.3246 68.3632 27.62C68.2387 27.7908 68.1142 27.8756 67.8938 27.7871C67.5401 27.6362 67.1778 27.499 66.757 27.3345Z" fill="#F5F5F5"/>
<path d="M58.1541 26.2082C58.1541 25.7395 58.179 25.3255 58.1541 24.9153C58.1141 24.372 57.8916 23.8583 57.5228 23.4578C56.8031 22.6574 55.8332 22.7958 55.3538 23.7633C54.8458 24.7906 55.0824 26.2394 55.8942 27.0586C55.9938 27.1596 56.1021 27.2518 56.208 27.3503C55.5555 27.955 55.5269 27.9737 55.1222 27.2892C54.1685 25.6833 53.8435 23.9752 54.4299 22.1599C54.679 21.3669 55.2256 20.8557 56.0747 20.7435C56.9239 20.6313 57.5689 21.0266 58.0221 21.7098C58.7692 22.8319 59.0182 24.0999 59.0182 25.4352C59.007 26.03 58.5476 26.0212 58.1541 26.2082Z" fill="#EAEAEA"/>
</svg>
