<svg width="128" height="128" viewBox="0 0 128 128" fill="none" xmlns="http://www.w3.org/2000/svg">
<path d="M2 6C2 3.79086 3.79086 2 6 2H122C124.209 2 126 3.79086 126 6V122C126 124.209 124.209 126 122 126H6C3.79086 126 2 124.209 2 122V6Z" fill="url(#paint0_linear_229_14192)"/>
<path d="M122 124V126H6V124H122ZM124 122V6C124 4.89543 123.105 4 122 4H6C4.89543 4 4 4.89543 4 6V122C4 123.105 4.89543 124 6 124V126C3.79086 126 2 124.209 2 122V6C2 3.85997 3.68056 2.11211 5.79395 2.00488L6 2H122L122.206 2.00488C124.319 2.11212 126 3.85996 126 6V122L125.995 122.206C125.888 124.319 124.14 126 122 126V124C123.105 124 124 123.105 124 122Z" fill="url(#paint1_linear_229_14192)"/>
<path d="M27.3039 46.0434H59.3898V56.9993H14V22.5664H27.3039V46.0434Z" fill="url(#paint2_linear_229_14192)"/>
<path d="M43.3483 43.3099H30.0444V22.5723H43.3483V43.3099Z" fill="#006BFF"/>
<path d="M59.3913 43.3099H46.0874V22.5723H59.3913V43.3099Z" fill="#006BFF"/>
<path d="M38.2592 14.3477H54.3022V20.6082H51.1718V17.478H38.2592V20.6082H35.1289V17.478H22.2163V20.6082H19.0859V14.3477H35.1289V12H38.2592V14.3477Z" fill="#1F4DBE"/>
<path d="M67.6621 113V105.781H69.9385V107.053H69.959C70.2188 106.137 70.7588 105.754 71.7227 105.754C71.9756 105.754 72.1738 105.761 72.3652 105.768V107.709C72.1943 107.702 71.7773 107.688 71.4355 107.688C70.5947 107.688 70.0137 108.276 70.0137 109.302V113H67.6621Z" fill="black"/>
<path d="M63.0684 113.164C60.8535 113.164 59.3496 111.592 59.3496 109.391C59.3496 107.189 60.8672 105.617 63.0068 105.617C65.1738 105.617 66.6709 107.148 66.6709 109.336V109.972H61.6465C61.6738 110.888 62.2207 111.469 63.1504 111.469C63.8408 111.469 64.333 111.168 64.5039 110.689H66.6162C66.3496 112.146 64.8936 113.164 63.0684 113.164ZM61.6602 108.563H64.4766C64.374 107.805 63.8545 107.354 63.0684 107.354C62.2754 107.354 61.7627 107.805 61.6602 108.563Z" fill="black"/>
<path d="M55.125 113.164C52.8896 113.164 51.3926 111.64 51.3926 109.391C51.3926 107.148 52.8896 105.617 55.125 105.617C57.1348 105.617 58.5635 106.848 58.666 108.618H56.3965C56.3213 107.928 55.8701 107.483 55.1729 107.483C54.291 107.483 53.7783 108.208 53.7783 109.391C53.7783 110.573 54.2979 111.298 55.1729 111.298C55.8701 111.298 56.3008 110.847 56.3896 110.143H58.666C58.6182 111.906 57.1689 113.164 55.125 113.164Z" fill="black"/>
<path d="M45.623 109.077V113.001H43.2715V105.782H45.5957V106.951C46.0742 106.124 46.8057 105.625 47.8926 105.625C49.458 105.625 50.374 106.685 50.374 108.462V113.001H48.0225V108.954C48.0225 108.1 47.5918 107.635 46.8467 107.635C46.1016 107.635 45.623 108.093 45.623 109.077Z" fill="black"/>
<path d="M37.5361 113.124C36.0938 113.124 35.0615 112.42 35.0615 110.984C35.0615 109.364 36.3262 108.838 37.8643 108.715C39.1562 108.605 39.6279 108.503 39.6279 108.072V108.038C39.6279 107.607 39.2451 107.313 38.623 107.313C37.9668 107.313 37.5635 107.628 37.5156 108.12H35.3281C35.4307 106.555 36.6133 105.625 38.7051 105.625C40.8037 105.625 41.959 106.548 41.959 108.141V113.001H39.6621V111.989H39.6348C39.2041 112.769 38.5547 113.124 37.5361 113.124ZM38.2539 111.586C39.04 111.586 39.6484 111.114 39.6484 110.403V109.747C39.3955 109.863 38.9512 109.952 38.3701 110.048C37.7412 110.144 37.29 110.403 37.29 110.875C37.29 111.319 37.6797 111.586 38.2539 111.586Z" fill="black"/>
<path d="M34.0156 102.814V113H31.6641V102.814H34.0156Z" fill="black"/>
<path d="M25.9287 113.124C24.4863 113.124 23.4541 112.42 23.4541 110.984C23.4541 109.364 24.7188 108.838 26.2568 108.715C27.5488 108.605 28.0205 108.503 28.0205 108.072V108.038C28.0205 107.607 27.6377 107.313 27.0156 107.313C26.3594 107.313 25.9561 107.628 25.9082 108.12H23.7207C23.8232 106.555 25.0059 105.625 27.0977 105.625C29.1963 105.625 30.3516 106.548 30.3516 108.141V113.001H28.0547V111.989H28.0273C27.5967 112.769 26.9473 113.124 25.9287 113.124ZM26.6465 111.586C27.4326 111.586 28.041 111.114 28.041 110.403V109.747C27.7881 109.863 27.3438 109.952 26.7627 110.048C26.1338 110.144 25.6826 110.403 25.6826 110.875C25.6826 111.319 26.0723 111.586 26.6465 111.586Z" fill="black"/>
<path d="M14.6562 113V102.814H18.8945C21.1572 102.814 22.3877 103.874 22.3877 105.398C22.3877 106.574 21.6426 107.401 20.4941 107.654V107.668C21.7656 107.75 22.7432 108.68 22.7432 110.122C22.7432 111.811 21.4648 113 19.2021 113H14.6562ZM17.0557 111.113H18.7988C19.6875 111.113 20.2344 110.676 20.2344 109.944C20.2344 109.206 19.6943 108.741 18.8125 108.741H17.0557V111.113ZM17.0557 106.95H18.6621C19.4482 106.95 19.9336 106.513 19.9336 105.822C19.9336 105.139 19.4482 104.701 18.6621 104.701H17.0557V106.95Z" fill="black"/>
<path d="M41.7744 96.1572C39.8809 96.1572 38.6504 94.6602 38.6504 92.377C38.6504 90.1689 39.9219 88.624 41.7539 88.624C42.6904 88.624 43.3672 88.9863 43.8252 89.752H43.832V85.8145H46.1904V96H43.8594V94.8857H43.8525C43.4766 95.7266 42.7246 96.1572 41.7744 96.1572ZM42.4307 94.2773C43.3193 94.2773 43.9277 93.5322 43.9277 92.377C43.9277 91.2354 43.3193 90.4971 42.4307 90.4971C41.5693 90.4971 41.0361 91.2012 41.0361 92.377C41.0361 93.5664 41.5693 94.2773 42.4307 94.2773Z" fill="black"/>
<path d="M33.2158 96.124C31.7734 96.124 30.7412 95.4199 30.7412 93.9844C30.7412 92.3643 32.0059 91.8379 33.5439 91.7148C34.8359 91.6055 35.3076 91.5029 35.3076 91.0723V91.0381C35.3076 90.6074 34.9248 90.3135 34.3027 90.3135C33.6465 90.3135 33.2432 90.6279 33.1953 91.1201H31.0078C31.1104 89.5547 32.293 88.625 34.3848 88.625C36.4834 88.625 37.6387 89.5479 37.6387 91.1406V96.001H35.3418V94.9893H35.3145C34.8838 95.7686 34.2344 96.124 33.2158 96.124ZM33.9336 94.5859C34.7197 94.5859 35.3281 94.1143 35.3281 93.4033V92.7471C35.0752 92.8633 34.6309 92.9521 34.0498 93.0479C33.4209 93.1436 32.9697 93.4033 32.9697 93.875C32.9697 94.3193 33.3594 94.5859 33.9336 94.5859Z" fill="black"/>
<path d="M26.0723 96.1641C23.8096 96.1641 22.2715 94.6807 22.2715 92.3906C22.2715 90.1143 23.8096 88.6172 26.0723 88.6172C28.335 88.6172 29.8662 90.1143 29.8662 92.3906C29.8662 94.6807 28.335 96.1641 26.0723 96.1641ZM26.0723 94.291C26.8926 94.291 27.4873 93.6143 27.4873 92.3906C27.4873 91.1738 26.8926 90.4902 26.0723 90.4902C25.252 90.4902 24.6572 91.1738 24.6572 92.3906C24.6572 93.6143 25.2451 94.291 26.0723 94.291Z" fill="black"/>
<path d="M14.6562 96V85.8145H17.1172V93.9082H21.6289V96H14.6562Z" fill="black"/>
<path d="M72.9336 69.7808V68.543H80.3667V69.7808H77.3643V78.001H75.9487V69.7808H72.9336Z" fill="black"/>
<path d="M64.4595 78.001V68.543H66.021L69.6328 74.2622C69.7428 74.4399 69.8931 74.6917 70.0835 75.0176C70.2739 75.3434 70.4644 75.6735 70.6548 76.0078C70.6421 75.665 70.6315 75.318 70.623 74.9668C70.6188 74.6113 70.6167 74.3468 70.6167 74.1733V68.543H72.0322V78.001H70.458L67.2271 72.8911C67.0959 72.6838 66.9054 72.3748 66.6558 71.9644C66.4103 71.5496 66.131 71.0736 65.8179 70.5361C65.839 71.0905 65.8517 71.5687 65.856 71.9707C65.8644 72.3685 65.8687 72.6732 65.8687 72.8848V78.001H64.4595Z" fill="black"/>
<path d="M57.064 78.001V68.543H63.4243V69.7808H58.4731V72.5674H63.0562V73.7925H58.4731V76.7632H63.4243V78.001H57.064Z" fill="black"/>
<path d="M50.2656 78.001V68.543H51.6748V76.7632H56.1499V78.001H50.2656Z" fill="black"/>
<path d="M41.0039 78.001L44.438 68.543H46.1392L49.5479 78.001H48.0181L47.1802 75.5444H43.3652L42.502 78.001H41.0039ZM43.7905 74.3447H46.7676L46.1963 72.6689C46.0693 72.2796 45.9339 71.8628 45.79 71.4185C45.6462 70.9741 45.4811 70.4451 45.2949 69.8315C45.1045 70.4451 44.9373 70.9741 44.7935 71.4185C44.6496 71.8628 44.512 72.2796 44.3809 72.6689L43.7905 74.3447Z" fill="black"/>
<path d="M37.2969 78.001L33.8628 68.543H35.3799L37.2524 73.875C37.3667 74.2178 37.4979 74.6219 37.646 75.0874C37.7941 75.5529 37.9676 76.0967 38.1665 76.7188C38.3569 76.0967 38.5241 75.5529 38.668 75.0874C38.8161 74.6219 38.9473 74.2178 39.0615 73.875L40.8833 68.543H42.375L38.9917 78.001H37.2969Z" fill="black"/>
<path d="M29.6284 78.1533C28.7905 78.1533 28.0436 77.9481 27.3877 77.5376C26.7318 77.1271 26.2155 76.5558 25.8389 75.8237C25.4665 75.0916 25.2803 74.2432 25.2803 73.2783C25.2803 72.3092 25.4665 71.4587 25.8389 70.7266C26.2155 69.9902 26.7318 69.4168 27.3877 69.0063C28.0436 68.5959 28.7905 68.3906 29.6284 68.3906C30.4705 68.3906 31.2196 68.5959 31.8755 69.0063C32.5314 69.4168 33.0456 69.9902 33.418 70.7266C33.7946 71.4587 33.9829 72.3092 33.9829 73.2783C33.9829 74.2432 33.7946 75.0916 33.418 75.8237C33.0456 76.5558 32.5314 77.1271 31.8755 77.5376C31.2196 77.9481 30.4705 78.1533 29.6284 78.1533ZM29.6284 76.8647C30.1743 76.8647 30.6694 76.7272 31.1138 76.4521C31.5581 76.1729 31.9115 75.7666 32.1738 75.2334C32.4362 74.696 32.5674 74.0443 32.5674 73.2783C32.5674 72.5081 32.4362 71.8543 32.1738 71.3169C31.9115 70.7795 31.5581 70.3732 31.1138 70.0981C30.6694 69.8188 30.1743 69.6792 29.6284 69.6792C29.0868 69.6792 28.5938 69.8188 28.1494 70.0981C27.7051 70.3732 27.3517 70.7795 27.0894 71.3169C26.827 71.8543 26.6958 72.5081 26.6958 73.2783C26.6958 74.0443 26.827 74.696 27.0894 75.2334C27.3517 75.7666 27.7051 76.1729 28.1494 76.4521C28.5938 76.7272 29.0868 76.8647 29.6284 76.8647Z" fill="black"/>
<path d="M21.0146 78.1533C19.8805 78.1533 18.9855 77.8677 18.3296 77.2964C17.6779 76.7209 17.3521 75.9338 17.3521 74.9351H18.7612C18.7655 75.5571 18.9644 76.0438 19.3579 76.395C19.7557 76.7463 20.3079 76.9219 21.0146 76.9219C21.6579 76.9219 22.172 76.7865 22.5571 76.5156C22.9465 76.2406 23.1411 75.8724 23.1411 75.4111C23.1411 75.0472 23.0015 74.7531 22.7222 74.5288C22.4471 74.3003 21.9816 74.1077 21.3257 73.9512L20.291 73.7036C19.3346 73.4751 18.6364 73.1577 18.1963 72.7515C17.7604 72.341 17.5425 71.8078 17.5425 71.1519C17.5425 70.5975 17.6821 70.113 17.9614 69.6982C18.2407 69.2835 18.6322 68.9619 19.1357 68.7334C19.6436 68.5049 20.236 68.3906 20.9131 68.3906C21.9329 68.3906 22.7433 68.6572 23.3442 69.1904C23.9494 69.7236 24.2668 70.4515 24.2964 71.374H22.9316C22.8978 70.8281 22.6989 70.4007 22.335 70.0918C21.971 69.7786 21.4907 69.6221 20.894 69.6221C20.3228 69.6221 19.8551 69.7596 19.4912 70.0347C19.1273 70.3055 18.9453 70.6546 18.9453 71.082C18.9453 71.4248 19.085 71.7041 19.3643 71.9199C19.6436 72.1315 20.1069 72.3156 20.7544 72.4722L21.7764 72.7134C22.7243 72.9377 23.4225 73.2614 23.8711 73.6846C24.3239 74.1077 24.5503 74.6579 24.5503 75.335C24.5503 75.902 24.4043 76.3971 24.1123 76.8203C23.8203 77.2435 23.4098 77.5715 22.8809 77.8042C22.3519 78.0369 21.7298 78.1533 21.0146 78.1533Z" fill="black"/>
<path d="M16.2725 68.543V78.001H14.8633V68.543H16.2725Z" fill="black"/>
<defs>
<linearGradient id="paint0_linear_229_14192" x1="-19.5" y1="-42.5" x2="140" y2="143.5" gradientUnits="userSpaceOnUse">
<stop stop-color="white"/>
<stop offset="1" stop-color="#E7F3FF"/>
</linearGradient>
<linearGradient id="paint1_linear_229_14192" x1="2" y1="49.5065" x2="127.744" y2="70.4267" gradientUnits="userSpaceOnUse">
<stop stop-color="#37A8FF"/>
<stop offset="1" stop-color="#3071FF"/>
</linearGradient>
<linearGradient id="paint2_linear_229_14192" x1="14" y1="44.3114" x2="61.6287" y2="43.4331" gradientUnits="userSpaceOnUse">
<stop stop-color="#049FFC"/>
<stop offset="1" stop-color="#19C9FF"/>
</linearGradient>
</defs>
</svg>
