<svg width="128" height="128" viewBox="0 0 128 128" fill="none" xmlns="http://www.w3.org/2000/svg">
<path d="M14 42.9465C14 41.3192 15.3192 40 16.9465 40H58.1968C59.8241 40 61.1433 41.3192 61.1433 42.9465V84.197C61.1433 85.8243 59.8241 87.1435 58.1968 87.1435H16.9465C15.3192 87.1435 14 85.8243 14 84.197V42.9465Z" fill="url(#paint0_linear_229_14520)"/>
<path d="M58.1968 85.6702V87.1435H16.9465V85.6702H58.1968ZM59.67 84.197V42.9465C59.67 42.1328 59.0105 41.4732 58.1968 41.4732H16.9465C16.1328 41.4732 15.4732 42.1328 15.4732 42.9465V84.197C15.4732 85.0107 16.1328 85.6702 16.9465 85.6702V87.1435L16.7947 87.1399C15.2379 87.0609 14 85.7734 14 84.197V42.9465C14 41.3701 15.2379 40.0826 16.7947 40.0036L16.9465 40H58.1968C59.8241 40 61.1433 41.3192 61.1433 42.9465V84.197C61.1433 85.8243 59.8241 87.1435 58.1968 87.1435V85.6702C59.0105 85.6702 59.67 85.0107 59.67 84.197Z" fill="url(#paint1_linear_229_14520)"/>
<path d="M30.4302 70.9596H54.0651V79.0299H20.6304V53.666H30.4302V70.9596Z" fill="url(#paint2_linear_229_14520)"/>
<path d="M42.2491 68.9456H32.4492V53.6699H42.2491V68.9456Z" fill="#006BFF"/>
<path d="M54.0665 68.9456H44.2667V53.6699H54.0665V68.9456Z" fill="#006BFF"/>
<path d="M38.4968 47.6239H50.3143V52.2355H48.0084V49.9297H38.4968V52.2355H36.191V49.9297H26.6794V52.2355H24.3735V47.6239H36.191V45.8945H38.4968V47.6239Z" fill="#1F4DBE"/>
<path d="M105.091 80.5192V75.2018H106.768V76.1384H106.783C106.975 75.4636 107.372 75.1816 108.082 75.1816C108.269 75.1816 108.415 75.1867 108.556 75.1917V76.6218C108.43 76.6167 108.123 76.6067 107.871 76.6067C107.252 76.6067 106.824 77.0397 106.824 77.795V80.5192H105.091Z" fill="black"/>
<path d="M101.708 80.6295C100.077 80.6295 98.9688 79.4713 98.9688 77.8499C98.9688 76.2285 100.087 75.0703 101.663 75.0703C103.259 75.0703 104.362 76.1983 104.362 77.8096V78.2779H100.661C100.681 78.9527 101.084 79.3807 101.768 79.3807C102.277 79.3807 102.64 79.1591 102.765 78.8066H104.321C104.125 79.8792 103.052 80.6295 101.708 80.6295ZM100.671 77.2406H102.745C102.67 76.6817 102.287 76.3493 101.708 76.3493C101.124 76.3493 100.746 76.6817 100.671 77.2406Z" fill="black"/>
<path d="M95.8558 80.6295C94.2092 80.6295 93.1064 79.5066 93.1064 77.8499C93.1064 76.1983 94.2092 75.0703 95.8558 75.0703C97.3362 75.0703 98.3886 75.9767 98.4642 77.2809H96.7924C96.737 76.7723 96.4047 76.445 95.891 76.445C95.2415 76.445 94.8638 76.9788 94.8638 77.8499C94.8638 78.721 95.2465 79.2548 95.891 79.2548C96.4047 79.2548 96.7219 78.9224 96.7874 78.4038H98.4642C98.4289 79.7029 97.3614 80.6295 95.8558 80.6295Z" fill="black"/>
<path d="M88.8567 77.621V80.5114H87.1245V75.1939H88.8366V76.055C89.189 75.4457 89.7278 75.0781 90.5285 75.0781C91.6816 75.0781 92.3563 75.8586 92.3563 77.1678V80.5114H90.6241V77.5304C90.6241 76.901 90.3069 76.5586 89.758 76.5586C89.2092 76.5586 88.8567 76.8959 88.8567 77.621Z" fill="black"/>
<path d="M82.898 80.602C81.8355 80.602 81.0752 80.0834 81.0752 79.0259C81.0752 77.8325 82.0068 77.4448 83.1397 77.3542C84.0914 77.2736 84.4389 77.1981 84.4389 76.8808V76.8556C84.4389 76.5384 84.1569 76.3219 83.6987 76.3219C83.2153 76.3219 82.9182 76.5535 82.8829 76.9161H81.2716C81.3471 75.7629 82.2182 75.0781 83.7591 75.0781C85.305 75.0781 86.156 75.7579 86.156 76.9312V80.5114H84.464V79.7661H84.4439C84.1267 80.3402 83.6483 80.602 82.898 80.602ZM83.4267 79.4691C84.0058 79.4691 84.454 79.1216 84.454 78.5979V78.1145C84.2677 78.2001 83.9404 78.2656 83.5124 78.3361C83.0491 78.4066 82.7168 78.5979 82.7168 78.9454C82.7168 79.2727 83.0038 79.4691 83.4267 79.4691Z" fill="black"/>
<path d="M80.3049 73.0117V80.5146H78.5728V73.0117H80.3049Z" fill="black"/>
<path d="M74.3507 80.602C73.2882 80.602 72.5278 80.0834 72.5278 79.0259C72.5278 77.8325 73.4594 77.4448 74.5924 77.3542C75.5441 77.2736 75.8915 77.1981 75.8915 76.8808V76.8556C75.8915 76.5384 75.6095 76.3219 75.1513 76.3219C74.6679 76.3219 74.3708 76.5535 74.3356 76.9161H72.7242C72.7997 75.7629 73.6709 75.0781 75.2117 75.0781C76.7576 75.0781 77.6086 75.7579 77.6086 76.9312V80.5114H75.9167V79.7661H75.8965C75.5793 80.3402 75.1009 80.602 74.3507 80.602ZM74.8794 79.4691C75.4585 79.4691 75.9066 79.1216 75.9066 78.5979V78.1145C75.7203 78.2001 75.393 78.2656 74.965 78.3361C74.5017 78.4066 74.1694 78.5979 74.1694 78.9454C74.1694 79.2727 74.4564 79.4691 74.8794 79.4691Z" fill="black"/>
<path d="M66.0469 80.5146V73.0117H69.1689C70.8356 73.0117 71.742 73.7922 71.742 74.9151C71.742 75.7812 71.1931 76.3905 70.3471 76.5768V76.5869C71.2837 76.6473 72.0038 77.3321 72.0038 78.3946C72.0038 79.6384 71.0622 80.5146 69.3954 80.5146H66.0469ZM67.8143 79.1248H69.0984C69.753 79.1248 70.1558 78.8025 70.1558 78.2637C70.1558 77.7199 69.758 77.3775 69.1084 77.3775H67.8143V79.1248ZM67.8143 76.0582H68.9976C69.5767 76.0582 69.9342 75.7359 69.9342 75.2273C69.9342 74.7238 69.5767 74.4015 68.9976 74.4015H67.8143V76.0582Z" fill="black"/>
<path d="M86.0229 68.1128C84.6281 68.1128 83.7217 67.01 83.7217 65.3282C83.7217 63.7017 84.6583 62.5637 86.0078 62.5637C86.6976 62.5637 87.1961 62.8306 87.5335 63.3946H87.5385V60.4941H89.2758V67.997H87.5587V67.1762H87.5537C87.2767 67.7956 86.7228 68.1128 86.0229 68.1128ZM86.5063 66.728C87.1609 66.728 87.609 66.1792 87.609 65.3282C87.609 64.4873 87.1609 63.9434 86.5063 63.9434C85.8718 63.9434 85.479 64.4621 85.479 65.3282C85.479 66.2044 85.8718 66.728 86.5063 66.728Z" fill="black"/>
<path d="M79.7164 68.0825C78.6539 68.0825 77.8936 67.5638 77.8936 66.5064C77.8936 65.313 78.8251 64.9253 79.9581 64.8346C80.9098 64.7541 81.2572 64.6785 81.2572 64.3613V64.3361C81.2572 64.0189 80.9752 63.8024 80.517 63.8024C80.0336 63.8024 79.7365 64.034 79.7013 64.3965H78.0899C78.1655 63.2434 79.0366 62.5586 80.5774 62.5586C82.1233 62.5586 82.9743 63.2384 82.9743 64.4116V67.9919H81.2824V67.2466H81.2623C80.945 67.8207 80.4667 68.0825 79.7164 68.0825ZM80.2451 66.9495C80.8242 66.9495 81.2723 66.6021 81.2723 66.0784V65.595C81.086 65.6806 80.7587 65.746 80.3307 65.8165C79.8674 65.887 79.5351 66.0784 79.5351 66.4258C79.5351 66.7531 79.8221 66.9495 80.2451 66.9495Z" fill="black"/>
<path d="M74.4555 68.1119C72.7887 68.1119 71.6558 67.0192 71.6558 65.3323C71.6558 63.6555 72.7887 62.5527 74.4555 62.5527C76.1222 62.5527 77.2501 63.6555 77.2501 65.3323C77.2501 67.0192 76.1222 68.1119 74.4555 68.1119ZM74.4555 66.7322C75.0597 66.7322 75.4978 66.2337 75.4978 65.3323C75.4978 64.436 75.0597 63.9325 74.4555 63.9325C73.8512 63.9325 73.4131 64.436 73.4131 65.3323C73.4131 66.2337 73.8462 66.7322 74.4555 66.7322Z" fill="black"/>
<path d="M66.0469 67.997V60.4941H67.8596V66.4561H71.183V67.997H66.0469Z" fill="black"/>
<path d="M108.975 48.6735V47.7617H114.45V48.6735H112.239V54.7286H111.196V48.6735H108.975Z" fill="black"/>
<path d="M102.732 54.7286V47.7617H103.882L106.543 51.9746C106.624 52.1055 106.734 52.291 106.875 52.531C107.015 52.771 107.155 53.0142 107.295 53.2604C107.286 53.008 107.278 52.7523 107.272 52.4936C107.269 52.2318 107.267 52.0369 107.267 51.9091V47.7617H108.31V54.7286H107.151L104.771 50.9646C104.674 50.8119 104.534 50.5843 104.35 50.282C104.169 49.9765 103.963 49.6258 103.733 49.2299C103.748 49.6383 103.757 49.9905 103.761 50.2866C103.767 50.5797 103.77 50.8041 103.77 50.96V54.7286H102.732Z" fill="black"/>
<path d="M97.2847 54.7286V47.7617H101.97V48.6735H98.3227V50.7262H101.699V51.6286H98.3227V53.8169H101.97V54.7286H97.2847Z" fill="black"/>
<path d="M92.2769 54.7286V47.7617H93.3149V53.8169H96.6113V54.7286H92.2769Z" fill="black"/>
<path d="M85.4546 54.7286L87.9842 47.7617H89.2373L91.7482 54.7286H90.6213L90.0041 52.9191H87.194L86.5581 54.7286H85.4546ZM87.5073 52.0354H89.7002L89.2794 50.801C89.1859 50.5142 89.0861 50.2072 88.9801 49.8799C88.8741 49.5525 88.7526 49.1629 88.6154 48.7109C88.4751 49.1629 88.352 49.5525 88.246 49.8799C88.14 50.2072 88.0387 50.5142 87.9421 50.801L87.5073 52.0354Z" fill="black"/>
<path d="M82.722 54.7286L80.1924 47.7617H81.3099L82.6892 51.6894C82.7734 51.9419 82.87 52.2396 82.9791 52.5825C83.0882 52.9253 83.216 53.3259 83.3626 53.7841C83.5028 53.3259 83.626 52.9253 83.7319 52.5825C83.841 52.2396 83.9377 51.9419 84.0218 51.6894L85.3638 47.7617H86.4626L83.9704 54.7286H82.722Z" fill="black"/>
<path d="M77.0735 54.8476C76.4563 54.8476 75.9061 54.6964 75.423 54.3941C74.9398 54.0917 74.5595 53.6709 74.2821 53.1316C74.0078 52.5923 73.8706 51.9673 73.8706 51.2566C73.8706 50.5428 74.0078 49.9162 74.2821 49.3769C74.5595 48.8345 74.9398 48.4122 75.423 48.1098C75.9061 47.8074 76.4563 47.6562 77.0735 47.6562C77.6938 47.6562 78.2456 47.8074 78.7287 48.1098C79.2119 48.4122 79.5906 48.8345 79.8649 49.3769C80.1424 49.9162 80.2811 50.5428 80.2811 51.2566C80.2811 51.9673 80.1424 52.5923 79.8649 53.1316C79.5906 53.6709 79.2119 54.0917 78.7287 54.3941C78.2456 54.6964 77.6938 54.8476 77.0735 54.8476ZM77.0735 53.8984C77.4756 53.8984 77.8403 53.7971 78.1676 53.5945C78.4949 53.3888 78.7552 53.0895 78.9485 52.6968C79.1418 52.3009 79.2384 51.8208 79.2384 51.2566C79.2384 50.6893 79.1418 50.2077 78.9485 49.8118C78.7552 49.4159 78.4949 49.1167 78.1676 48.914C77.8403 48.7083 77.4756 48.6054 77.0735 48.6054C76.6745 48.6054 76.3114 48.7083 75.9841 48.914C75.6567 49.1167 75.3965 49.4159 75.2032 49.8118C75.0099 50.2077 74.9133 50.6893 74.9133 51.2566C74.9133 51.8208 75.0099 52.3009 75.2032 52.6968C75.3965 53.0895 75.6567 53.3888 75.9841 53.5945C76.3114 53.7971 76.6745 53.8984 77.0735 53.8984Z" fill="black"/>
<path d="M70.7292 54.8476C69.8938 54.8476 69.2345 54.6372 68.7513 54.2164C68.2713 53.7924 68.0312 53.2126 68.0312 52.477H69.0693C69.0724 52.9352 69.2189 53.2937 69.5088 53.5524C69.8018 53.8111 70.2086 53.9405 70.7292 53.9405C71.203 53.9405 71.5817 53.8408 71.8654 53.6413C72.1522 53.4386 72.2956 53.1674 72.2956 52.8277C72.2956 52.5596 72.1927 52.343 71.987 52.1777C71.7843 52.0094 71.4414 51.8676 70.9583 51.7522L70.1961 51.5699C69.4916 51.4016 68.9773 51.1678 68.6531 50.8685C68.3321 50.5662 68.1715 50.1734 68.1715 49.6902C68.1715 49.2819 68.2744 48.9249 68.4801 48.6195C68.6859 48.314 68.9742 48.0771 69.3451 47.9087C69.7192 47.7404 70.1556 47.6562 70.6544 47.6562C71.4056 47.6562 72.0025 47.8526 72.4452 48.2454C72.8909 48.6382 73.1247 49.1743 73.1465 49.8539H72.1413C72.1163 49.4518 71.9698 49.1369 71.7017 48.9094C71.4337 48.6787 71.0799 48.5634 70.6403 48.5634C70.2195 48.5634 69.8751 48.6647 69.607 48.8673C69.3389 49.0668 69.2049 49.3239 69.2049 49.6388C69.2049 49.8913 69.3077 50.097 69.5135 50.256C69.7192 50.4118 70.0605 50.5474 70.5375 50.6628L71.2903 50.8405C71.9885 51.0057 72.5028 51.2441 72.8333 51.5559C73.1668 51.8676 73.3336 52.2728 73.3336 52.7716C73.3336 53.1893 73.226 53.554 73.0109 53.8657C72.7959 54.1774 72.4935 54.419 72.1038 54.5904C71.7142 54.7619 71.256 54.8476 70.7292 54.8476Z" fill="black"/>
<path d="M67.2372 47.7617V54.7286H66.1992V47.7617H67.2372Z" fill="black"/>
<defs>
<linearGradient id="paint0_linear_229_14520" x1="5.82597" y1="23.0816" x2="66.4662" y2="93.7965" gradientUnits="userSpaceOnUse">
<stop stop-color="white"/>
<stop offset="1" stop-color="#E7F3FF"/>
</linearGradient>
<linearGradient id="paint1_linear_229_14520" x1="14" y1="58.0615" x2="61.8063" y2="66.015" gradientUnits="userSpaceOnUse">
<stop stop-color="#37A8FF"/>
<stop offset="1" stop-color="#3071FF"/>
</linearGradient>
<linearGradient id="paint2_linear_229_14520" x1="20.6304" y1="69.6838" x2="55.7143" y2="69.0368" gradientUnits="userSpaceOnUse">
<stop stop-color="#049FFC"/>
<stop offset="1" stop-color="#19C9FF"/>
</linearGradient>
</defs>
</svg>
