<svg width="128" height="128" viewBox="0 0 128 128" fill="none" xmlns="http://www.w3.org/2000/svg">
<path d="M5 9C5 6.79086 6.79086 5 9 5H65C67.2091 5 69 6.79086 69 9V65C69 67.2091 67.2091 69 65 69H9C6.79086 69 5 67.2091 5 65V9Z" fill="url(#paint0_linear_229_14264)"/>
<path d="M65 67V69H9V67H65ZM67 65V9C67 7.89543 66.1046 7 65 7H9C7.89543 7 7 7.89543 7 9V65C7 66.1046 7.89543 67 9 67V69L8.79395 68.9951C6.68056 68.8879 5 67.14 5 65V9C5 6.85996 6.68056 5.11211 8.79395 5.00488L9 5H65C67.2091 5 69 6.79086 69 9V65C69 67.2091 67.2091 69 65 69V67C66.1046 67 67 66.1046 67 65Z" fill="url(#paint1_linear_229_14264)"/>
<path d="M27.3039 47.0434H59.3898V57.9993H14V23.5664H27.3039V47.0434Z" fill="url(#paint2_linear_229_14264)"/>
<path d="M43.3483 44.3099H30.0444V23.5723H43.3483V44.3099Z" fill="#006BFF"/>
<path d="M59.3913 44.3099H46.0874V23.5723H59.3913V44.3099Z" fill="#006BFF"/>
<path d="M38.2592 15.3477H54.3022V21.6082H51.1718V18.478H38.2592V21.6082H35.1289V18.478H22.2163V21.6082H19.0859V15.3477H35.1289V13H38.2592V15.3477Z" fill="#1F4DBE"/>
<path d="M58.6621 124V116.781H60.9385V118.053H60.959C61.2188 117.137 61.7588 116.754 62.7227 116.754C62.9756 116.754 63.1738 116.761 63.3652 116.768V118.709C63.1943 118.702 62.7773 118.688 62.4355 118.688C61.5947 118.688 61.0137 119.276 61.0137 120.302V124H58.6621Z" fill="black"/>
<path d="M54.0684 124.164C51.8535 124.164 50.3496 122.592 50.3496 120.391C50.3496 118.189 51.8672 116.617 54.0068 116.617C56.1738 116.617 57.6709 118.148 57.6709 120.336V120.972H52.6465C52.6738 121.888 53.2207 122.469 54.1504 122.469C54.8408 122.469 55.333 122.168 55.5039 121.689H57.6162C57.3496 123.146 55.8936 124.164 54.0684 124.164ZM52.6602 119.563H55.4766C55.374 118.805 54.8545 118.354 54.0684 118.354C53.2754 118.354 52.7627 118.805 52.6602 119.563Z" fill="black"/>
<path d="M46.125 124.164C43.8896 124.164 42.3926 122.64 42.3926 120.391C42.3926 118.148 43.8896 116.617 46.125 116.617C48.1348 116.617 49.5635 117.848 49.666 119.618H47.3965C47.3213 118.928 46.8701 118.483 46.1729 118.483C45.291 118.483 44.7783 119.208 44.7783 120.391C44.7783 121.573 45.2979 122.298 46.1729 122.298C46.8701 122.298 47.3008 121.847 47.3896 121.143H49.666C49.6182 122.906 48.1689 124.164 46.125 124.164Z" fill="black"/>
<path d="M36.623 120.077V124.001H34.2715V116.782H36.5957V117.951C37.0742 117.124 37.8057 116.625 38.8926 116.625C40.458 116.625 41.374 117.685 41.374 119.462V124.001H39.0225V119.954C39.0225 119.1 38.5918 118.635 37.8467 118.635C37.1016 118.635 36.623 119.093 36.623 120.077Z" fill="black"/>
<path d="M28.5361 124.124C27.0938 124.124 26.0615 123.42 26.0615 121.984C26.0615 120.364 27.3262 119.838 28.8643 119.715C30.1562 119.605 30.6279 119.503 30.6279 119.072V119.038C30.6279 118.607 30.2451 118.313 29.623 118.313C28.9668 118.313 28.5635 118.628 28.5156 119.12H26.3281C26.4307 117.555 27.6133 116.625 29.7051 116.625C31.8037 116.625 32.959 117.548 32.959 119.141V124.001H30.6621V122.989H30.6348C30.2041 123.769 29.5547 124.124 28.5361 124.124ZM29.2539 122.586C30.04 122.586 30.6484 122.114 30.6484 121.403V120.747C30.3955 120.863 29.9512 120.952 29.3701 121.048C28.7412 121.144 28.29 121.403 28.29 121.875C28.29 122.319 28.6797 122.586 29.2539 122.586Z" fill="black"/>
<path d="M25.0156 113.814V124H22.6641V113.814H25.0156Z" fill="black"/>
<path d="M16.9287 124.124C15.4863 124.124 14.4541 123.42 14.4541 121.984C14.4541 120.364 15.7188 119.838 17.2568 119.715C18.5488 119.605 19.0205 119.503 19.0205 119.072V119.038C19.0205 118.607 18.6377 118.313 18.0156 118.313C17.3594 118.313 16.9561 118.628 16.9082 119.12H14.7207C14.8232 117.555 16.0059 116.625 18.0977 116.625C20.1963 116.625 21.3516 117.548 21.3516 119.141V124.001H19.0547V122.989H19.0273C18.5967 123.769 17.9473 124.124 16.9287 124.124ZM17.6465 122.586C18.4326 122.586 19.041 122.114 19.041 121.403V120.747C18.7881 120.863 18.3438 120.952 17.7627 121.048C17.1338 121.144 16.6826 121.403 16.6826 121.875C16.6826 122.319 17.0723 122.586 17.6465 122.586Z" fill="black"/>
<path d="M5.65625 124V113.814H9.89453C12.1572 113.814 13.3877 114.874 13.3877 116.398C13.3877 117.574 12.6426 118.401 11.4941 118.654V118.668C12.7656 118.75 13.7432 119.68 13.7432 121.122C13.7432 122.811 12.4648 124 10.2021 124H5.65625ZM8.05566 122.113H9.79883C10.6875 122.113 11.2344 121.676 11.2344 120.944C11.2344 120.206 10.6943 119.741 9.8125 119.741H8.05566V122.113ZM8.05566 117.95H9.66211C10.4482 117.95 10.9336 117.513 10.9336 116.822C10.9336 116.139 10.4482 115.701 9.66211 115.701H8.05566V117.95Z" fill="black"/>
<path d="M32.7744 107.157C30.8809 107.157 29.6504 105.66 29.6504 103.377C29.6504 101.169 30.9219 99.624 32.7539 99.624C33.6904 99.624 34.3672 99.9863 34.8252 100.752H34.832V96.8145H37.1904V107H34.8594V105.886H34.8525C34.4766 106.727 33.7246 107.157 32.7744 107.157ZM33.4307 105.277C34.3193 105.277 34.9277 104.532 34.9277 103.377C34.9277 102.235 34.3193 101.497 33.4307 101.497C32.5693 101.497 32.0361 102.201 32.0361 103.377C32.0361 104.566 32.5693 105.277 33.4307 105.277Z" fill="black"/>
<path d="M24.2158 107.124C22.7734 107.124 21.7412 106.42 21.7412 104.984C21.7412 103.364 23.0059 102.838 24.5439 102.715C25.8359 102.605 26.3076 102.503 26.3076 102.072V102.038C26.3076 101.607 25.9248 101.313 25.3027 101.313C24.6465 101.313 24.2432 101.628 24.1953 102.12H22.0078C22.1104 100.555 23.293 99.625 25.3848 99.625C27.4834 99.625 28.6387 100.548 28.6387 102.141V107.001H26.3418V105.989H26.3145C25.8838 106.769 25.2344 107.124 24.2158 107.124ZM24.9336 105.586C25.7197 105.586 26.3281 105.114 26.3281 104.403V103.747C26.0752 103.863 25.6309 103.952 25.0498 104.048C24.4209 104.144 23.9697 104.403 23.9697 104.875C23.9697 105.319 24.3594 105.586 24.9336 105.586Z" fill="black"/>
<path d="M17.0723 107.164C14.8096 107.164 13.2715 105.681 13.2715 103.391C13.2715 101.114 14.8096 99.6172 17.0723 99.6172C19.335 99.6172 20.8662 101.114 20.8662 103.391C20.8662 105.681 19.335 107.164 17.0723 107.164ZM17.0723 105.291C17.8926 105.291 18.4873 104.614 18.4873 103.391C18.4873 102.174 17.8926 101.49 17.0723 101.49C16.252 101.49 15.6572 102.174 15.6572 103.391C15.6572 104.614 16.2451 105.291 17.0723 105.291Z" fill="black"/>
<path d="M5.65625 107V96.8145H8.11719V104.908H12.6289V107H5.65625Z" fill="black"/>
<path d="M63.9336 80.7808V79.543H71.3667V80.7808H68.3643V89.001H66.9487V80.7808H63.9336Z" fill="black"/>
<path d="M55.4595 89.001V79.543H57.021L60.6328 85.2622C60.7428 85.4399 60.8931 85.6917 61.0835 86.0176C61.2739 86.3434 61.4644 86.6735 61.6548 87.0078C61.6421 86.665 61.6315 86.318 61.623 85.9668C61.6188 85.6113 61.6167 85.3468 61.6167 85.1733V79.543H63.0322V89.001H61.458L58.2271 83.8911C58.0959 83.6838 57.9054 83.3748 57.6558 82.9644C57.4103 82.5496 57.131 82.0736 56.8179 81.5361C56.839 82.0905 56.8517 82.5687 56.856 82.9707C56.8644 83.3685 56.8687 83.6732 56.8687 83.8848V89.001H55.4595Z" fill="black"/>
<path d="M48.064 89.001V79.543H54.4243V80.7808H49.4731V83.5674H54.0562V84.7925H49.4731V87.7632H54.4243V89.001H48.064Z" fill="black"/>
<path d="M41.2656 89.001V79.543H42.6748V87.7632H47.1499V89.001H41.2656Z" fill="black"/>
<path d="M32.0039 89.001L35.438 79.543H37.1392L40.5479 89.001H39.0181L38.1802 86.5444H34.3652L33.502 89.001H32.0039ZM34.7905 85.3447H37.7676L37.1963 83.6689C37.0693 83.2796 36.9339 82.8628 36.79 82.4185C36.6462 81.9741 36.4811 81.4451 36.2949 80.8315C36.1045 81.4451 35.9373 81.9741 35.7935 82.4185C35.6496 82.8628 35.512 83.2796 35.3809 83.6689L34.7905 85.3447Z" fill="black"/>
<path d="M28.2969 89.001L24.8628 79.543H26.3799L28.2524 84.875C28.3667 85.2178 28.4979 85.6219 28.646 86.0874C28.7941 86.5529 28.9676 87.0967 29.1665 87.7188C29.3569 87.0967 29.5241 86.5529 29.668 86.0874C29.8161 85.6219 29.9473 85.2178 30.0615 84.875L31.8833 79.543H33.375L29.9917 89.001H28.2969Z" fill="black"/>
<path d="M20.6284 89.1533C19.7905 89.1533 19.0436 88.9481 18.3877 88.5376C17.7318 88.1271 17.2155 87.5558 16.8389 86.8237C16.4665 86.0916 16.2803 85.2432 16.2803 84.2783C16.2803 83.3092 16.4665 82.4587 16.8389 81.7266C17.2155 80.9902 17.7318 80.4168 18.3877 80.0063C19.0436 79.5959 19.7905 79.3906 20.6284 79.3906C21.4705 79.3906 22.2196 79.5959 22.8755 80.0063C23.5314 80.4168 24.0456 80.9902 24.418 81.7266C24.7946 82.4587 24.9829 83.3092 24.9829 84.2783C24.9829 85.2432 24.7946 86.0916 24.418 86.8237C24.0456 87.5558 23.5314 88.1271 22.8755 88.5376C22.2196 88.9481 21.4705 89.1533 20.6284 89.1533ZM20.6284 87.8647C21.1743 87.8647 21.6694 87.7272 22.1138 87.4521C22.5581 87.1729 22.9115 86.7666 23.1738 86.2334C23.4362 85.696 23.5674 85.0443 23.5674 84.2783C23.5674 83.5081 23.4362 82.8543 23.1738 82.3169C22.9115 81.7795 22.5581 81.3732 22.1138 81.0981C21.6694 80.8188 21.1743 80.6792 20.6284 80.6792C20.0868 80.6792 19.5938 80.8188 19.1494 81.0981C18.7051 81.3732 18.3517 81.7795 18.0894 82.3169C17.827 82.8543 17.6958 83.5081 17.6958 84.2783C17.6958 85.0443 17.827 85.696 18.0894 86.2334C18.3517 86.7666 18.7051 87.1729 19.1494 87.4521C19.5938 87.7272 20.0868 87.8647 20.6284 87.8647Z" fill="black"/>
<path d="M12.0146 89.1533C10.8805 89.1533 9.98551 88.8677 9.32959 88.2964C8.6779 87.7209 8.35205 86.9338 8.35205 85.9351H9.76123C9.76546 86.5571 9.96436 87.0438 10.3579 87.395C10.7557 87.7463 11.3079 87.9219 12.0146 87.9219C12.6579 87.9219 13.172 87.7865 13.5571 87.5156C13.9465 87.2406 14.1411 86.8724 14.1411 86.4111C14.1411 86.0472 14.0015 85.7531 13.7222 85.5288C13.4471 85.3003 12.9816 85.1077 12.3257 84.9512L11.291 84.7036C10.3346 84.4751 9.63639 84.1577 9.19629 83.7515C8.76042 83.341 8.54248 82.8078 8.54248 82.1519C8.54248 81.5975 8.68213 81.113 8.96143 80.6982C9.24072 80.2835 9.63216 79.9619 10.1357 79.7334C10.6436 79.5049 11.236 79.3906 11.9131 79.3906C12.9329 79.3906 13.7433 79.6572 14.3442 80.1904C14.9494 80.7236 15.2668 81.4515 15.2964 82.374H13.9316C13.8978 81.8281 13.6989 81.4007 13.335 81.0918C12.971 80.7786 12.4907 80.6221 11.894 80.6221C11.3228 80.6221 10.8551 80.7596 10.4912 81.0347C10.1273 81.3055 9.94531 81.6546 9.94531 82.082C9.94531 82.4248 10.085 82.7041 10.3643 82.9199C10.6436 83.1315 11.1069 83.3156 11.7544 83.4722L12.7764 83.7134C13.7243 83.9377 14.4225 84.2614 14.8711 84.6846C15.3239 85.1077 15.5503 85.6579 15.5503 86.335C15.5503 86.902 15.4043 87.3971 15.1123 87.8203C14.8203 88.2435 14.4098 88.5715 13.8809 88.8042C13.3519 89.0369 12.7298 89.1533 12.0146 89.1533Z" fill="black"/>
<path d="M7.27246 79.543V89.001H5.86328V79.543H7.27246Z" fill="black"/>
<defs>
<linearGradient id="paint0_linear_229_14264" x1="-6.09677" y1="-17.9677" x2="76.2258" y2="78.0323" gradientUnits="userSpaceOnUse">
<stop stop-color="white"/>
<stop offset="1" stop-color="#E7F3FF"/>
</linearGradient>
<linearGradient id="paint1_linear_229_14264" x1="5" y1="29.5195" x2="69.9001" y2="40.317" gradientUnits="userSpaceOnUse">
<stop stop-color="#37A8FF"/>
<stop offset="1" stop-color="#3071FF"/>
</linearGradient>
<linearGradient id="paint2_linear_229_14264" x1="14" y1="45.3114" x2="61.6287" y2="44.4331" gradientUnits="userSpaceOnUse">
<stop stop-color="#049FFC"/>
<stop offset="1" stop-color="#19C9FF"/>
</linearGradient>
</defs>
</svg>
