<svg width="128" height="128" viewBox="0 0 128 128" fill="none" xmlns="http://www.w3.org/2000/svg">
<path d="M16 24.931C16 21.6554 18.6554 19 21.931 19H105.163C108.439 19 111.094 21.6554 111.094 24.931V103.069C111.094 106.345 108.439 109 105.163 109H21.931C18.6554 109 16 106.345 16 103.069V24.931Z" fill="url(#paint0_linear_211_8536)"/>
<path d="M105.163 106.034V109H21.931V106.034H105.163ZM108.128 103.069V24.931C108.128 23.3957 106.962 22.1335 105.467 21.9814L105.163 21.9655H21.931C20.2932 21.9655 18.9655 23.2932 18.9655 24.931V103.069C18.9655 104.707 20.2932 106.034 21.931 106.034V109C18.6554 109 16 106.344 16 103.069V24.931C16 21.6554 18.6554 19 21.931 19H105.163C108.439 19 111.094 21.6554 111.094 24.931V103.069C111.094 106.344 108.439 109 105.163 109V106.034C106.801 106.034 108.128 104.707 108.128 103.069Z" fill="url(#paint1_linear_211_8536)"/>
<path d="M62.5293 72.0257V54.7656H69.2016C71.0242 54.7656 72.4336 55.1749 73.4298 55.9935C74.4337 56.8121 74.9357 57.8971 74.9357 59.2486C74.9357 60.2448 74.6654 61.0596 74.1248 61.6928C73.5919 62.3261 72.8622 62.7701 71.9354 63.025V63.0481C72.9626 63.1717 73.8275 63.5849 74.5302 64.2876C75.2407 64.9826 75.596 65.9441 75.596 67.172C75.596 68.6239 75.0786 69.7977 74.0437 70.6935C73.0166 71.5816 71.503 72.0257 69.5028 72.0257H62.5293ZM65.5411 69.5351H69.1785C70.221 69.5351 71.028 69.3228 71.5995 68.898C72.171 68.4733 72.4567 67.8632 72.4567 67.0678C72.4567 66.2646 72.1748 65.6313 71.6111 65.168C71.0551 64.7046 70.2674 64.473 69.248 64.473H65.5411V69.5351ZM65.5411 62.0751H69.0626C69.943 62.0751 70.6303 61.8588 71.1246 61.4264C71.6265 60.9862 71.8775 60.3993 71.8775 59.6656C71.8775 58.9243 71.6265 58.3373 71.1246 57.9049C70.6303 57.4724 69.943 57.2562 69.0626 57.2562H65.5411V62.0751Z" fill="black"/>
<path d="M49.4858 72.0218V54.7617H52.544V69.3691H60.5485V72.0218H49.4858Z" fill="black"/>
<defs>
<linearGradient id="paint0_linear_211_8536" x1="23.7056" y1="-112.897" x2="120.572" y2="-106.906" gradientUnits="userSpaceOnUse">
<stop stop-color="white"/>
<stop offset="1" stop-color="#E7F3FF"/>
</linearGradient>
<linearGradient id="paint1_linear_211_8536" x1="16" y1="53.4805" x2="112.13" y2="70.3791" gradientUnits="userSpaceOnUse">
<stop stop-color="#37A8FF"/>
<stop offset="1" stop-color="#3071FF"/>
</linearGradient>
</defs>
</svg>
