<svg width="128" height="128" viewBox="0 0 128 128" fill="none" xmlns="http://www.w3.org/2000/svg">
<path d="M3 48C3 45.7909 4.79086 44 7 44H120C122.209 44 124 45.7909 124 48V79C124 81.2091 122.209 83 120 83H7C4.79086 83 3 81.2091 3 79V48Z" fill="url(#paint0_linear_229_13915)"/>
<path d="M120 81V83H7V81H120ZM122 79V48C122 46.9644 121.213 46.113 120.204 46.0107L120 46H7C5.96435 46 5.113 46.7872 5.01074 47.7959L5 48V79C5 80.1046 5.89543 81 7 81V83C4.85996 83 3.11211 81.3194 3.00488 79.2061L3 79V48C3 45.86 4.68056 44.1121 6.79395 44.0049L7 44H120L120.206 44.0049C122.319 44.1121 124 45.86 124 48V79C124 81.2091 122.209 83 120 83V81C121.105 81 122 80.1046 122 79Z" fill="url(#paint1_linear_229_13915)"/>
<path d="M84.9453 54.721V53.9004H89.8735V54.721H87.8829V60.171H86.9444V54.721H84.9453Z" fill="black"/>
<path d="M79.1548 60.171V53.9004H80.1901L82.5847 57.6922C82.6577 57.81 82.7573 57.977 82.8835 58.193C83.0098 58.409 83.136 58.6279 83.2623 58.8495C83.2539 58.6223 83.2469 58.3922 83.2413 58.1593C83.2385 57.9237 83.2371 57.7483 83.2371 57.6333V53.9004H84.1755V60.171H83.1318L80.9897 56.7832C80.9027 56.6457 80.7765 56.4409 80.6109 56.1687C80.4482 55.8938 80.263 55.5782 80.0554 55.2218C80.0694 55.5894 80.0779 55.9064 80.0807 56.173C80.0863 56.4367 80.0891 56.6387 80.0891 56.779V60.171H79.1548Z" fill="black"/>
<path d="M74.0786 60.171V53.9004H78.2956V54.721H75.0129V56.5686H78.0515V57.3808H75.0129V59.3503H78.2956V60.171H74.0786Z" fill="black"/>
<path d="M69.3989 60.171V53.9004H70.3332V59.3503H73.3002V60.171H69.3989Z" fill="black"/>
<path d="M63.0859 60.171L65.3627 53.9004H66.4906L68.7506 60.171H67.7364L67.1808 58.5423H64.6515L64.0791 60.171H63.0859ZM64.9335 57.7469H66.9073L66.5285 56.6359C66.4443 56.3778 66.3546 56.1014 66.2592 55.8068C66.1638 55.5122 66.0543 55.1615 65.9309 54.7547C65.8046 55.1615 65.6938 55.5122 65.5984 55.8068C65.503 56.1014 65.4118 56.3778 65.3249 56.6359L64.9335 57.7469Z" fill="black"/>
<path d="M60.4565 60.171L58.1797 53.9004H59.1855L60.427 57.4355C60.5028 57.6627 60.5898 57.9307 60.688 58.2393C60.7862 58.5479 60.9012 58.9085 61.0331 59.3209C61.1593 58.9085 61.2701 58.5479 61.3655 58.2393C61.4637 57.9307 61.5507 57.6627 61.6265 57.4355L62.8343 53.9004H63.8233L61.5802 60.171H60.4565Z" fill="black"/>
<path d="M55.1997 60.2734C54.6442 60.2734 54.149 60.1373 53.7141 59.8652C53.2792 59.593 52.9369 59.2143 52.6872 58.7289C52.4403 58.2435 52.3169 57.681 52.3169 57.0413C52.3169 56.3988 52.4403 55.8349 52.6872 55.3495C52.9369 54.8613 53.2792 54.4811 53.7141 54.209C54.149 53.9369 54.6442 53.8008 55.1997 53.8008C55.7581 53.8008 56.2547 53.9369 56.6895 54.209C57.1244 54.4811 57.4653 54.8613 57.7122 55.3495C57.9619 55.8349 58.0868 56.3988 58.0868 57.0413C58.0868 57.681 57.9619 58.2435 57.7122 58.7289C57.4653 59.2143 57.1244 59.593 56.6895 59.8652C56.2547 60.1373 55.7581 60.2734 55.1997 60.2734ZM55.1997 59.4191C55.5617 59.4191 55.8899 59.3279 56.1845 59.1455C56.4791 58.9603 56.7134 58.691 56.8873 58.3375C57.0613 57.9812 57.1483 57.5491 57.1483 57.0413C57.1483 56.5307 57.0613 56.0972 56.8873 55.7409C56.7134 55.3846 56.4791 55.1152 56.1845 54.9329C55.8899 54.7477 55.5617 54.6551 55.1997 54.6551C54.8406 54.6551 54.5137 54.7477 54.2191 54.9329C53.9245 55.1152 53.6903 55.3846 53.5163 55.7409C53.3424 56.0972 53.2554 56.5307 53.2554 57.0413C53.2554 57.5491 53.3424 57.9812 53.5163 58.3375C53.6903 58.691 53.9245 58.9603 54.2191 59.1455C54.5137 59.3279 54.8406 59.4191 55.1997 59.4191Z" fill="black"/>
<path d="M49.3155 60.2734C48.5636 60.2734 47.9702 60.084 47.5353 59.7052C47.1032 59.3237 46.8872 58.8018 46.8872 58.1397H47.8215C47.8243 58.5521 47.9562 58.8748 48.2171 59.1076C48.4808 59.3405 48.847 59.4569 49.3155 59.4569C49.742 59.4569 50.0829 59.3672 50.3382 59.1876C50.5963 59.0052 50.7254 58.7611 50.7254 58.4553C50.7254 58.214 50.6328 58.0191 50.4476 57.8704C50.2652 57.7189 49.9566 57.5912 49.5217 57.4874L48.8358 57.3233C48.2017 57.1718 47.7387 56.9613 47.4469 56.692C47.158 56.4198 47.0135 56.0663 47.0135 55.6315C47.0135 55.2639 47.1061 54.9427 47.2912 54.6677C47.4764 54.3928 47.7359 54.1795 48.0698 54.028C48.4065 53.8765 48.7993 53.8008 49.2482 53.8008C49.9244 53.8008 50.4616 53.9775 50.8601 54.331C51.2613 54.6846 51.4717 55.1671 51.4913 55.7788H50.5865C50.5641 55.4168 50.4322 55.1335 50.1909 54.9286C49.9496 54.721 49.6312 54.6172 49.2356 54.6172C48.8568 54.6172 48.5468 54.7084 48.3055 54.8908C48.0642 55.0703 47.9435 55.3018 47.9435 55.5852C47.9435 55.8124 48.0361 55.9976 48.2213 56.1407C48.4065 56.281 48.7137 56.403 49.143 56.5068L49.8205 56.6667C50.449 56.8154 50.912 57.0301 51.2094 57.3106C51.5096 57.5912 51.6597 57.9559 51.6597 58.4048C51.6597 58.7808 51.5629 59.109 51.3693 59.3896C51.1757 59.6702 50.9035 59.8876 50.5528 60.0419C50.2021 60.1962 49.7897 60.2734 49.3155 60.2734Z" fill="black"/>
<path d="M45.9997 53.9004V60.171H45.0654V53.9004H45.9997Z" fill="black"/>
<path d="M99.6411 67.7148C100.122 67.7149 100.549 67.806 100.922 67.9893C101.296 68.1726 101.592 68.4269 101.811 68.751C102.034 69.075 102.158 69.448 102.184 69.8701H100.554C100.528 69.6246 100.436 69.4285 100.279 69.2812C100.125 69.1307 99.924 69.0547 99.6753 69.0547C99.358 69.0547 99.1108 69.1776 98.9341 69.4229C98.7606 69.6651 98.6734 69.9993 98.6733 70.4248C98.6733 70.8503 98.7622 71.1861 98.939 71.4316C99.1157 71.6737 99.3612 71.7949 99.6753 71.7949C99.9238 71.7949 100.123 71.7196 100.274 71.5693C100.424 71.4188 100.517 71.2169 100.549 70.9648H102.184C102.171 71.387 102.055 71.7616 101.835 72.0889C101.619 72.4129 101.322 72.6689 100.942 72.8555C100.566 73.042 100.132 73.1347 99.6411 73.1348C99.1043 73.1348 98.6345 73.0217 98.2319 72.7959C97.8326 72.5668 97.5193 72.2496 97.2935 71.8438C97.071 71.4379 96.9604 70.9648 96.9604 70.4248C96.9605 69.8881 97.0709 69.4166 97.2935 69.0107C97.5193 68.6016 97.8342 68.2844 98.2368 68.0586C98.6394 67.8295 99.1076 67.7148 99.6411 67.7148ZM105.302 67.7148C105.823 67.7148 106.28 67.8295 106.672 68.0586C107.068 68.2844 107.378 68.5985 107.6 69.001C107.823 69.4003 107.934 69.862 107.934 70.3857V70.8418H104.326C104.336 71.1724 104.434 71.4348 104.621 71.6279C104.81 71.8208 105.072 71.918 105.406 71.918C105.654 71.918 105.862 71.8669 106.029 71.7656C106.199 71.6642 106.315 71.5276 106.377 71.3574H107.895C107.833 71.7044 107.682 72.0128 107.443 72.2812C107.204 72.5494 106.903 72.7587 106.54 72.9092C106.18 73.0596 105.782 73.1347 105.347 73.1348C104.817 73.1348 104.35 73.0185 103.948 72.7861C103.548 72.5537 103.235 72.235 103.009 71.8291C102.787 71.42 102.676 70.9517 102.676 70.4248C102.676 69.8979 102.787 69.4312 103.009 69.0254C103.235 68.6162 103.547 68.2959 103.943 68.0635C104.339 67.8312 104.792 67.7149 105.302 67.7148ZM79.5103 67.7188C80.2629 67.7188 80.8411 67.877 81.2437 68.1943C81.6463 68.5086 81.8481 68.9526 81.8481 69.5254V73.0166H80.1978V72.29H80.1782C80.0245 72.568 79.8265 72.7741 79.5845 72.9082C79.3423 73.0391 79.0378 73.1044 78.6714 73.1045C78.1509 73.1045 77.723 72.9786 77.3892 72.7266C77.0588 72.4713 76.8941 72.0852 76.894 71.5684C76.894 71.1788 76.9835 70.8704 77.1636 70.6445C77.3469 70.4188 77.5907 70.2515 77.895 70.1436C78.1994 70.0355 78.5369 69.967 78.9067 69.9375C79.371 69.8983 79.6983 69.8515 79.8882 69.7959C80.0779 69.7403 80.1732 69.6335 80.1733 69.4766V69.4521C80.1733 69.2983 80.108 69.173 79.9771 69.0781C79.8494 68.98 79.6741 68.9316 79.4517 68.9316C79.216 68.9316 79.028 68.9841 78.8872 69.0889C78.7498 69.1936 78.6721 69.334 78.6558 69.5107H77.0854C77.1215 68.9477 77.3449 68.5086 77.7573 68.1943C78.173 67.8769 78.7575 67.7188 79.5103 67.7188ZM87.8472 67.7188C88.5998 67.7188 89.178 67.877 89.5806 68.1943C89.9832 68.5086 90.1851 68.9526 90.1851 69.5254V73.0166H88.5347V72.29H88.5151C88.3614 72.568 88.1634 72.7741 87.9214 72.9082C87.6793 73.0391 87.3747 73.1044 87.0083 73.1045C86.4878 73.1045 86.06 72.9786 85.7261 72.7266C85.3957 72.4713 85.2311 72.0852 85.231 71.5684C85.231 71.1788 85.3205 70.8704 85.5005 70.6445C85.6838 70.4188 85.9276 70.2515 86.2319 70.1436C86.5363 70.0355 86.8738 69.967 87.2437 69.9375C87.708 69.8983 88.0352 69.8515 88.2251 69.7959C88.4148 69.7403 88.5101 69.6335 88.5103 69.4766V69.4521C88.5103 69.2983 88.4449 69.173 88.314 69.0781C88.1863 68.98 88.011 68.9316 87.7886 68.9316C87.5529 68.9316 87.3649 68.9841 87.2241 69.0889C87.0867 69.1936 87.009 69.334 86.9927 69.5107H85.4224C85.4584 68.9477 85.6818 68.5086 86.0942 68.1943C86.5099 67.8769 87.0945 67.7188 87.8472 67.7188ZM111.809 67.8193C111.884 67.8193 111.956 67.821 112.025 67.8242V69.2188C111.963 69.2155 111.866 69.2123 111.735 69.209C111.604 69.2057 111.478 69.2041 111.357 69.2041C111.053 69.2042 110.805 69.305 110.616 69.5078C110.429 69.7107 110.336 69.9958 110.336 70.3623V73.0186H108.647V67.834H110.282V68.7471H110.296C110.391 68.4165 110.539 68.1792 110.739 68.0352C110.942 67.8879 111.217 67.8145 111.564 67.8145C111.655 67.8145 111.737 67.8161 111.809 67.8193ZM73.6187 65.7012C74.4303 65.7012 75.0503 65.8732 75.479 66.2168C75.911 66.5604 76.1274 67.0069 76.1274 67.5566C76.1274 67.9788 76.003 68.3325 75.7544 68.6172C75.5089 68.8987 75.1795 69.0851 74.7671 69.1768V69.1865C75.0715 69.2062 75.3452 69.2918 75.5874 69.4424C75.8327 69.5896 76.0258 69.7924 76.1665 70.0508C76.3105 70.306 76.3823 70.6057 76.3823 70.9492C76.3823 71.3516 76.283 71.7087 76.0835 72.0195C75.8871 72.3305 75.5989 72.5752 75.2192 72.752C74.8428 72.9287 74.3827 73.0166 73.8394 73.0166H70.5747V65.7012H73.6187ZM84.48 73.0166H82.7905V65.7012H84.48V73.0166ZM94.4468 67.7188C95.0098 67.7188 95.4473 67.8987 95.7583 68.2588C96.0724 68.6188 96.229 69.1179 96.229 69.7559V73.0166H94.5405V70.1094C94.5405 69.8019 94.4671 69.5676 94.3198 69.4072C94.1725 69.2436 93.9642 69.1621 93.6958 69.1621C93.4307 69.1621 93.2175 69.2468 93.0571 69.417C92.8967 69.5839 92.8169 69.8447 92.8169 70.1982V73.0166H91.1284V67.8311H92.7974V68.6709C92.9708 68.3764 93.1921 68.1438 93.4604 67.9736C93.7287 67.8036 94.0575 67.7188 94.4468 67.7188ZM80.188 70.6797C80.0996 70.7222 79.9768 70.7593 79.8198 70.792C79.6627 70.8247 79.4795 70.8595 79.27 70.8955C79.0442 70.9315 78.8577 70.9969 78.7104 71.0918C78.5664 71.1867 78.4946 71.3191 78.4946 71.4893C78.4946 71.6496 78.5584 71.7755 78.686 71.8672C78.8136 71.9554 78.9801 71.9999 79.186 72C79.4675 72 79.7058 71.9234 79.8989 71.7695C80.092 71.6124 80.188 71.4056 80.188 71.1504V70.6797ZM88.5249 70.6797C88.4365 70.7222 88.3137 70.7593 88.1567 70.792C87.9996 70.8247 87.8164 70.8595 87.6069 70.8955C87.3811 70.9315 87.1946 70.9969 87.0474 71.0918C86.9034 71.1867 86.8316 71.3191 86.8315 71.4893C86.8315 71.6496 86.8953 71.7755 87.0229 71.8672C87.1505 71.9554 87.317 71.9999 87.5229 72C87.8045 72 88.0427 71.9234 88.2358 71.7695C88.4289 71.6124 88.5249 71.4056 88.5249 71.1504V70.6797ZM72.2974 71.6611H73.5493C73.8701 71.6611 74.1228 71.5877 74.3062 71.4404C74.4892 71.2899 74.5805 71.0838 74.5806 70.8223C74.5806 70.5572 74.4894 70.3472 74.3062 70.1934C74.1261 70.0362 73.8766 69.958 73.5591 69.958H72.2974V71.6611ZM105.347 68.9619C105.063 68.9619 104.832 69.0387 104.655 69.1924C104.478 69.3462 104.371 69.5594 104.335 69.8311H106.358C106.319 69.5595 106.211 69.3462 106.035 69.1924C105.858 69.0386 105.628 68.962 105.347 68.9619ZM72.2974 68.6719H73.4517C73.7331 68.6718 73.956 68.5991 74.1196 68.4551C74.283 68.3078 74.3647 68.1099 74.3647 67.8613C74.3647 67.616 74.283 67.4213 74.1196 67.2773C73.956 67.1301 73.7331 67.0557 73.4517 67.0557H72.2974V68.6719Z" fill="black"/>
<path d="M52.8994 67.6133C53.4394 67.6133 53.9141 67.7264 54.3232 67.9521C54.7357 68.1747 55.0554 68.4903 55.2812 68.8994C55.5103 69.3052 55.625 69.78 55.625 70.3232C55.625 70.873 55.5102 71.351 55.2812 71.7568C55.0554 72.1594 54.7357 72.4743 54.3232 72.7002C53.9142 72.9226 53.4394 73.0342 52.8994 73.0342C52.3561 73.0341 51.8798 72.9227 51.4707 72.7002C51.0615 72.4776 50.7428 72.1627 50.5137 71.7568C50.2846 71.351 50.1699 70.8731 50.1699 70.3232C50.17 69.78 50.2846 69.3052 50.5137 68.8994C50.7428 68.4905 51.0617 68.1747 51.4707 67.9521C51.8798 67.7263 52.3561 67.6133 52.8994 67.6133ZM67.3496 72.915H65.6748V72.1152H65.6699C65.5357 72.4195 65.3379 72.649 65.0762 72.8027C64.8176 72.9532 64.5181 73.0283 64.1777 73.0283C63.7227 73.0283 63.3264 72.9169 62.9893 72.6943C62.6556 72.4685 62.3955 72.1527 62.209 71.7471C62.0257 71.338 61.9336 70.8599 61.9336 70.3135C61.9336 69.7866 62.029 69.3199 62.2188 68.9141C62.4086 68.5082 62.6701 68.1901 63.0039 67.9609C63.3378 67.7318 63.7245 67.6172 64.1631 67.6172C64.8307 67.6172 65.3263 67.8877 65.6504 68.4277H65.6553V65.5996H67.3496V72.915ZM58.8711 67.6172C59.6237 67.6172 60.201 67.7764 60.6035 68.0938C61.0061 68.4079 61.208 68.8511 61.208 69.4238V72.915H59.5576V72.1885H59.5381C59.3843 72.4665 59.1864 72.6725 58.9443 72.8066C58.7021 72.9376 58.3978 73.0029 58.0312 73.0029C57.5109 73.0029 57.0839 72.877 56.75 72.625C56.4195 72.3697 56.254 71.9838 56.2539 71.4668C56.2539 71.0775 56.3436 70.7698 56.5234 70.5439C56.7066 70.3182 56.9507 70.151 57.2549 70.043C57.5592 69.935 57.8968 69.8664 58.2666 69.8369C58.7314 69.7976 59.0592 69.75 59.249 69.6943C59.4387 69.6387 59.5332 69.532 59.5332 69.375V69.3506C59.5332 69.1967 59.4678 69.0725 59.3369 68.9775C59.2093 68.8793 59.0341 68.8301 58.8115 68.8301C58.576 68.8301 58.3878 68.8826 58.2471 68.9873C58.1097 69.092 58.033 69.2326 58.0166 69.4092H56.4453C56.4813 68.8462 56.7058 68.408 57.1182 68.0938C57.5339 67.7763 58.1183 67.6172 58.8711 67.6172ZM46.4678 71.4131H49.708V72.915H44.7002V65.5996H46.4678V71.4131ZM59.5479 70.5781C59.4595 70.6206 59.3365 70.6578 59.1797 70.6904C59.0226 70.7231 58.8393 70.758 58.6299 70.7939C58.4041 70.83 58.2176 70.8953 58.0703 70.9902C57.9264 71.0851 57.8546 71.2176 57.8545 71.3877C57.8545 71.548 57.9183 71.674 58.0459 71.7656C58.1736 71.854 58.3407 71.8984 58.5469 71.8984C58.8283 71.8984 59.0657 71.8218 59.2588 71.668C59.4519 71.5109 59.5479 71.3041 59.5479 71.0488V70.5781ZM52.8994 68.959C52.6049 68.959 52.361 69.0769 52.168 69.3125C51.9783 69.5481 51.8829 69.885 51.8828 70.3232C51.8828 70.7618 51.9781 71.0993 52.168 71.335C52.3578 71.5706 52.6017 71.6884 52.8994 71.6885C53.1939 71.6885 53.4361 71.5705 53.626 71.335C53.8191 71.0993 53.916 70.7619 53.916 70.3232C53.916 69.8848 53.819 69.5481 53.626 69.3125C53.4361 69.0768 53.194 68.959 52.8994 68.959ZM64.6494 68.9629C64.3385 68.9629 64.0921 69.0823 63.9121 69.3213C63.7355 69.5602 63.6475 69.8914 63.6475 70.3135C63.6475 70.7386 63.7356 71.0723 63.9121 71.3145C64.0921 71.5567 64.3385 71.6777 64.6494 71.6777C64.97 71.6777 65.2285 71.555 65.4248 71.3096C65.6244 71.0609 65.7245 70.7289 65.7246 70.3135C65.7246 69.9043 65.6245 69.5765 65.4248 69.3311C65.2285 69.0857 64.97 68.963 64.6494 68.9629Z" fill="black"/>
<path d="M18.0955 68.1575H35.2081V74.0006H11V55.6367H18.0955V68.1575Z" fill="url(#paint2_linear_229_13915)"/>
<path d="M26.6526 66.6985H19.5571V55.6387H26.6526V66.6985Z" fill="#006BFF"/>
<path d="M35.2089 66.6985H28.1134V55.6387H35.2089V66.6985Z" fill="#006BFF"/>
<path d="M23.9382 51.2521H32.4945V54.591H30.825V52.9215H23.9382V54.591H22.2687V52.9215H15.3819V54.591H13.7124V51.2521H22.2687V50H23.9382V51.2521Z" fill="#1F4DBE"/>
<defs>
<linearGradient id="paint0_linear_229_13915" x1="12.8048" y1="-13.1552" x2="132.581" y2="8.59717" gradientUnits="userSpaceOnUse">
<stop stop-color="white"/>
<stop offset="1" stop-color="#E7F3FF"/>
</linearGradient>
<linearGradient id="paint1_linear_229_13915" x1="3" y1="58.9416" x2="102.569" y2="110.337" gradientUnits="userSpaceOnUse">
<stop stop-color="#37A8FF"/>
<stop offset="1" stop-color="#3071FF"/>
</linearGradient>
<linearGradient id="paint2_linear_229_13915" x1="11" y1="67.2338" x2="36.4022" y2="66.7654" gradientUnits="userSpaceOnUse">
<stop stop-color="#049FFC"/>
<stop offset="1" stop-color="#19C9FF"/>
</linearGradient>
</defs>
</svg>
