<svg width="128" height="128" viewBox="0 0 128 128" fill="none" xmlns="http://www.w3.org/2000/svg">
<path d="M13 38H115C116.657 38 118 39.3431 118 41V87C118 88.6569 116.657 90 115 90H13C11.3431 90 10 88.6569 10 87V41C10 39.3431 11.3431 38 13 38Z" fill="url(#paint0_linear_172_941)" stroke="url(#paint1_linear_172_941)" stroke-width="2"/>
<path d="M100.945 48.721V47.9004H105.873V48.721H103.883V54.171H102.944V48.721H100.945Z" fill="black"/>
<path d="M95.1548 54.171V47.9004H96.1901L98.5847 51.6922C98.6577 51.81 98.7573 51.977 98.8835 52.193C99.0098 52.409 99.136 52.6279 99.2623 52.8495C99.2539 52.6223 99.2469 52.3922 99.2413 52.1593C99.2385 51.9237 99.237 51.7483 99.237 51.6333V47.9004H100.176V54.171H99.1318L96.9897 50.7832C96.9027 50.6457 96.7765 50.4409 96.6109 50.1687C96.4482 49.8938 96.263 49.5782 96.0554 49.2218C96.0694 49.5894 96.0779 49.9064 96.0807 50.173C96.0863 50.4367 96.0891 50.6387 96.0891 50.779V54.171H95.1548Z" fill="black"/>
<path d="M90.0786 54.171V47.9004H94.2956V48.721H91.0129V50.5686H94.0515V51.3808H91.0129V53.3503H94.2956V54.171H90.0786Z" fill="black"/>
<path d="M85.3989 54.171V47.9004H86.3332V53.3503H89.3002V54.171H85.3989Z" fill="black"/>
<path d="M79.0859 54.171L81.3627 47.9004H82.4906L84.7506 54.171H83.7364L83.1808 52.5423H80.6515L80.0791 54.171H79.0859ZM80.9335 51.7469H82.9073L82.5285 50.6359C82.4443 50.3778 82.3546 50.1014 82.2592 49.8068C82.1638 49.5122 82.0543 49.1615 81.9309 48.7547C81.8046 49.1615 81.6938 49.5122 81.5984 49.8068C81.503 50.1014 81.4118 50.3778 81.3249 50.6359L80.9335 51.7469Z" fill="black"/>
<path d="M76.4565 54.171L74.1797 47.9004H75.1855L76.427 51.4355C76.5028 51.6628 76.5898 51.9307 76.688 52.2393C76.7862 52.5479 76.9012 52.9085 77.0331 53.3209C77.1593 52.9085 77.2701 52.5479 77.3655 52.2393C77.4637 51.9307 77.5507 51.6628 77.6265 51.4355L78.8343 47.9004H79.8233L77.5802 54.171H76.4565Z" fill="black"/>
<path d="M71.1997 54.2734C70.6442 54.2734 70.149 54.1373 69.7141 53.8652C69.2792 53.593 68.9369 53.2143 68.6872 52.7289C68.4403 52.2435 68.3169 51.681 68.3169 51.0413C68.3169 50.3988 68.4403 49.8349 68.6872 49.3495C68.9369 48.8613 69.2792 48.4811 69.7141 48.209C70.149 47.9369 70.6442 47.8008 71.1997 47.8008C71.7581 47.8008 72.2547 47.9369 72.6895 48.209C73.1244 48.4811 73.4653 48.8613 73.7122 49.3495C73.9619 49.8349 74.0868 50.3988 74.0868 51.0413C74.0868 51.681 73.9619 52.2435 73.7122 52.7289C73.4653 53.2143 73.1244 53.593 72.6895 53.8652C72.2547 54.1373 71.7581 54.2734 71.1997 54.2734ZM71.1997 53.4191C71.5617 53.4191 71.8899 53.3279 72.1845 53.1455C72.4791 52.9603 72.7134 52.691 72.8873 52.3375C73.0613 51.9812 73.1483 51.5491 73.1483 51.0413C73.1483 50.5307 73.0613 50.0972 72.8873 49.7409C72.7134 49.3846 72.4791 49.1152 72.1845 48.9329C71.8899 48.7477 71.5617 48.6551 71.1997 48.6551C70.8406 48.6551 70.5137 48.7477 70.2191 48.9329C69.9245 49.1152 69.6903 49.3846 69.5163 49.7409C69.3424 50.0972 69.2554 50.5307 69.2554 51.0413C69.2554 51.5491 69.3424 51.9812 69.5163 52.3375C69.6903 52.691 69.9245 52.9603 70.2191 53.1455C70.5137 53.3279 70.8406 53.4191 71.1997 53.4191Z" fill="black"/>
<path d="M65.3155 54.2734C64.5636 54.2734 63.9702 54.084 63.5353 53.7052C63.1032 53.3237 62.8872 52.8018 62.8872 52.1397H63.8215C63.8243 52.5521 63.9562 52.8748 64.2171 53.1076C64.4808 53.3405 64.847 53.4569 65.3155 53.4569C65.742 53.4569 66.0829 53.3672 66.3382 53.1876C66.5963 53.0052 66.7254 52.7611 66.7254 52.4553C66.7254 52.214 66.6328 52.0191 66.4476 51.8704C66.2652 51.7189 65.9566 51.5912 65.5217 51.4874L64.8358 51.3233C64.2017 51.1718 63.7387 50.9613 63.4469 50.692C63.158 50.4198 63.0135 50.0663 63.0135 49.6315C63.0135 49.2639 63.1061 48.9427 63.2912 48.6677C63.4764 48.3928 63.7359 48.1795 64.0698 48.028C64.4065 47.8765 64.7993 47.8008 65.2482 47.8008C65.9244 47.8008 66.4616 47.9775 66.8601 48.331C67.2613 48.6846 67.4717 49.1671 67.4913 49.7788H66.5865C66.5641 49.4168 66.4322 49.1335 66.1909 48.9286C65.9496 48.721 65.6312 48.6172 65.2356 48.6172C64.8568 48.6172 64.5468 48.7084 64.3055 48.8908C64.0642 49.0703 63.9435 49.3018 63.9435 49.5852C63.9435 49.8124 64.0361 49.9976 64.2213 50.1407C64.4065 50.281 64.7137 50.403 65.143 50.5068L65.8205 50.6667C66.449 50.8154 66.912 51.0301 67.2094 51.3106C67.5096 51.5912 67.6597 51.9559 67.6597 52.4048C67.6597 52.7808 67.5629 53.109 67.3693 53.3896C67.1757 53.6702 66.9035 53.8876 66.5528 54.0419C66.2021 54.1962 65.7897 54.2734 65.3155 54.2734Z" fill="black"/>
<path d="M61.9997 47.9004V54.171H61.0654V47.9004H61.9997Z" fill="black"/>
<path d="M89.6411 73.9219C90.1222 73.9219 90.5493 74.014 90.9224 74.1973C91.2954 74.3806 91.5918 74.634 91.811 74.958C92.0335 75.282 92.1579 75.655 92.1841 76.0771H90.5542C90.528 75.8317 90.4359 75.6355 90.2788 75.4883C90.125 75.3378 89.924 75.2627 89.6753 75.2627C89.3578 75.2627 89.1108 75.3854 88.9341 75.6309C88.7607 75.873 88.6734 76.2065 88.6733 76.6318C88.6733 77.0574 88.7622 77.3932 88.939 77.6387C89.1157 77.8808 89.3611 78.002 89.6753 78.002C89.9239 78.0019 90.1234 77.9267 90.2739 77.7764C90.4245 77.6258 90.5166 77.4239 90.5493 77.1719H92.1841C92.171 77.5941 92.0548 77.9696 91.8354 78.2969C91.6194 78.6208 91.3215 78.876 90.9419 79.0625C90.5656 79.249 90.132 79.3427 89.6411 79.3428C89.1045 79.3428 88.6345 79.2296 88.2319 79.0039C87.8326 78.7748 87.5193 78.4567 87.2935 78.0508C87.071 77.645 86.9604 77.1718 86.9604 76.6318C86.9605 76.0951 87.0709 75.6236 87.2935 75.2178C87.5193 74.8087 87.8342 74.4915 88.2368 74.2656C88.6394 74.0366 89.1076 73.9219 89.6411 73.9219ZM95.3022 73.9219C95.8227 73.9219 96.2796 74.0365 96.6724 74.2656C97.0683 74.4914 97.3775 74.8056 97.6001 75.208C97.8227 75.6073 97.9341 76.0691 97.9341 76.5928V77.0498H94.3257C94.3356 77.3802 94.4341 77.6419 94.6206 77.835C94.8104 78.0279 95.072 78.125 95.4058 78.125C95.6543 78.125 95.862 78.074 96.0288 77.9727C96.1988 77.8713 96.3152 77.7354 96.3774 77.5654H97.895C97.8328 77.9122 97.6817 78.22 97.4429 78.4883C97.204 78.7565 96.9027 78.9657 96.5396 79.1162C96.1796 79.2667 95.7823 79.3427 95.3472 79.3428C94.8171 79.3428 94.3503 79.2264 93.9478 78.9941C93.5484 78.7617 93.2351 78.442 93.0093 78.0361C92.7868 77.6271 92.6763 77.1587 92.6763 76.6318C92.6763 76.105 92.7867 75.6382 93.0093 75.2324C93.2351 74.8233 93.5468 74.5029 93.9429 74.2705C94.3388 74.0383 94.7919 73.9219 95.3022 73.9219ZM69.5103 73.9258C70.2631 73.9258 70.841 74.0848 71.2437 74.4023C71.6462 74.7165 71.8481 75.1597 71.8481 75.7324V79.2236H70.1978V78.4971H70.1782C70.0245 78.7751 69.8265 78.9811 69.5845 79.1152C69.3423 79.2461 69.0378 79.3115 68.6714 79.3115C68.1509 79.3115 67.723 79.1856 67.3892 78.9336C67.0588 78.6783 66.8941 78.2923 66.894 77.7754C66.894 77.3861 66.9837 77.0784 67.1636 76.8525C67.3468 76.6267 67.5907 76.4596 67.895 76.3516C68.1994 76.2435 68.5369 76.175 68.9067 76.1455C69.3711 76.1063 69.6983 76.0585 69.8882 76.0029C70.078 75.9473 70.1733 75.8407 70.1733 75.6836V75.6592C70.1733 75.5054 70.1079 75.381 69.9771 75.2861C69.8494 75.1879 69.6742 75.1387 69.4517 75.1387C69.216 75.1387 69.028 75.1912 68.8872 75.2959C68.7497 75.4006 68.6721 75.541 68.6558 75.7178H67.0854C67.1215 75.155 67.3452 74.7165 67.7573 74.4023C68.173 74.0849 68.7575 73.9258 69.5103 73.9258ZM77.8472 73.9258C78.6 73.9258 79.178 74.0848 79.5806 74.4023C79.9831 74.7165 80.185 75.1597 80.1851 75.7324V79.2236H78.5347V78.4971H78.5151C78.3614 78.7751 78.1634 78.9811 77.9214 79.1152C77.6793 79.2461 77.3747 79.3115 77.0083 79.3115C76.4878 79.3115 76.06 79.1856 75.7261 78.9336C75.3957 78.6783 75.231 78.2923 75.231 77.7754C75.231 77.3861 75.3206 77.0784 75.5005 76.8525C75.6837 76.6267 75.9276 76.4596 76.2319 76.3516C76.5363 76.2435 76.8738 76.175 77.2437 76.1455C77.708 76.1063 78.0352 76.0585 78.2251 76.0029C78.4149 75.9473 78.5102 75.8407 78.5103 75.6836V75.6592C78.5103 75.5054 78.4448 75.381 78.314 75.2861C78.1863 75.1879 78.0111 75.1387 77.7886 75.1387C77.5529 75.1387 77.3649 75.1912 77.2241 75.2959C77.0867 75.4006 77.0091 75.541 76.9927 75.7178H75.4224C75.4584 75.155 75.6821 74.7165 76.0942 74.4023C76.5099 74.0849 77.0945 73.9258 77.8472 73.9258ZM101.809 74.0264C101.884 74.0264 101.956 74.028 102.025 74.0312V75.4258C101.963 75.4225 101.866 75.4193 101.735 75.416C101.604 75.4128 101.478 75.4111 101.357 75.4111C101.053 75.4112 100.806 75.513 100.616 75.7158C100.429 75.9187 100.336 76.2031 100.336 76.5693V79.2256H98.647V74.041H100.282V74.9541H100.296C100.391 74.6236 100.539 74.3862 100.739 74.2422C100.942 74.095 101.217 74.0215 101.564 74.0215C101.655 74.0215 101.737 74.0231 101.809 74.0264ZM63.6187 71.9082C64.4302 71.9082 65.0503 72.0802 65.479 72.4238C65.911 72.7674 66.1273 73.214 66.1274 73.7637C66.1274 74.1857 66.003 74.5395 65.7544 74.8242C65.5089 75.1057 65.1795 75.2931 64.7671 75.3848V75.3945C65.0715 75.4142 65.3452 75.4988 65.5874 75.6494C65.8329 75.7967 66.0258 76.0002 66.1665 76.2588C66.3104 76.514 66.3823 76.8137 66.3823 77.1572C66.3823 77.5597 66.2831 77.9167 66.0835 78.2275C65.8871 78.5384 65.5989 78.7823 65.2192 78.959C64.8428 79.1357 64.3827 79.2236 63.8394 79.2236H60.5737V71.9082H63.6187ZM74.48 79.2236H72.7905V71.9082H74.48V79.2236ZM84.4468 73.9258C85.0098 73.9258 85.4473 74.1058 85.7583 74.4658C86.0724 74.8258 86.2289 75.3249 86.229 75.9629V79.2236H84.5405V76.3164C84.5405 76.0093 84.4668 75.7755 84.3198 75.6152C84.1725 75.4516 83.9642 75.3691 83.6958 75.3691C83.4307 75.3691 83.2175 75.4548 83.0571 75.625C82.897 75.792 82.8169 76.0521 82.8169 76.4053V79.2236H81.1284V74.0391H82.7974V74.8779C82.9708 74.5835 83.1921 74.3508 83.4604 74.1807C83.7287 74.0107 84.0576 73.9258 84.4468 73.9258ZM70.188 76.8867C70.0996 76.9292 69.9768 76.9663 69.8198 76.999C69.6627 77.0318 69.4795 77.0665 69.27 77.1025C69.0442 77.1385 68.8577 77.204 68.7104 77.2988C68.5665 77.3937 68.4947 77.5262 68.4946 77.6963C68.4946 77.8567 68.5584 77.9826 68.686 78.0742C68.8136 78.1625 68.9801 78.207 69.186 78.207C69.4675 78.207 69.7058 78.1304 69.8989 77.9766C70.0919 77.8195 70.188 77.6126 70.188 77.3574V76.8867ZM78.5249 76.8867C78.4365 76.9292 78.3137 76.9663 78.1567 76.999C77.9996 77.0318 77.8164 77.0665 77.6069 77.1025C77.3812 77.1385 77.1946 77.204 77.0474 77.2988C76.9034 77.3937 76.8316 77.5262 76.8315 77.6963C76.8315 77.8567 76.8953 77.9826 77.0229 78.0742C77.1505 78.1625 77.317 78.207 77.5229 78.207C77.8045 78.207 78.0427 78.1304 78.2358 77.9766C78.4288 77.8195 78.5249 77.6126 78.5249 77.3574V76.8867ZM62.2974 77.8691H63.5493C63.8701 77.8691 64.1228 77.7948 64.3062 77.6475C64.4892 77.4969 64.5805 77.2909 64.5806 77.0293C64.5806 76.7642 64.4894 76.5542 64.3062 76.4004C64.1261 76.2433 63.8766 76.165 63.5591 76.165H62.2974V77.8691ZM95.3472 75.1689C95.0626 75.1689 94.8315 75.2458 94.6548 75.3994C94.478 75.5533 94.3715 75.7664 94.3354 76.0381H96.3579C96.3186 75.7665 96.2114 75.5532 96.0347 75.3994C95.858 75.2456 95.6285 75.169 95.3472 75.1689ZM62.2974 74.8789H63.4517C63.7331 74.8789 63.956 74.8071 64.1196 74.6631C64.2833 74.5158 64.3647 74.3171 64.3647 74.0684C64.3647 73.8231 64.2831 73.6283 64.1196 73.4844C63.956 73.3371 63.7331 73.2637 63.4517 73.2637H62.2974V74.8789Z" fill="black"/>
<path d="M68.8994 61.6133C69.4394 61.6133 69.9141 61.7264 70.3232 61.9521C70.7357 62.1747 71.0554 62.4903 71.2812 62.8994C71.5103 63.3052 71.625 63.78 71.625 64.3232C71.625 64.873 71.5102 65.351 71.2812 65.7568C71.0554 66.1594 70.7357 66.4743 70.3232 66.7002C69.9142 66.9226 69.4394 67.0342 68.8994 67.0342C68.3561 67.0341 67.8798 66.9227 67.4707 66.7002C67.0615 66.4776 66.7428 66.1627 66.5137 65.7568C66.2846 65.351 66.1699 64.8731 66.1699 64.3232C66.17 63.78 66.2846 63.3052 66.5137 62.8994C66.7428 62.4905 67.0617 62.1747 67.4707 61.9521C67.8798 61.7263 68.3561 61.6133 68.8994 61.6133ZM83.3496 66.915H81.6748V66.1152H81.6699C81.5357 66.4195 81.3379 66.649 81.0762 66.8027C80.8176 66.9532 80.5181 67.0283 80.1777 67.0283C79.7227 67.0283 79.3264 66.9169 78.9893 66.6943C78.6556 66.4685 78.3955 66.1527 78.209 65.7471C78.0257 65.338 77.9336 64.8599 77.9336 64.3135C77.9336 63.7866 78.029 63.3199 78.2188 62.9141C78.4086 62.5082 78.6701 62.1901 79.0039 61.9609C79.3378 61.7318 79.7245 61.6172 80.1631 61.6172C80.8307 61.6172 81.3263 61.8877 81.6504 62.4277H81.6553V59.5996H83.3496V66.915ZM74.8711 61.6172C75.6237 61.6172 76.201 61.7764 76.6035 62.0938C77.0061 62.4079 77.208 62.8511 77.208 63.4238V66.915H75.5576V66.1885H75.5381C75.3843 66.4665 75.1864 66.6725 74.9443 66.8066C74.7021 66.9376 74.3978 67.0029 74.0312 67.0029C73.5109 67.0029 73.0839 66.877 72.75 66.625C72.4195 66.3697 72.254 65.9838 72.2539 65.4668C72.2539 65.0775 72.3436 64.7698 72.5234 64.5439C72.7066 64.3182 72.9507 64.151 73.2549 64.043C73.5592 63.935 73.8968 63.8664 74.2666 63.8369C74.7314 63.7976 75.0592 63.75 75.249 63.6943C75.4387 63.6387 75.5332 63.532 75.5332 63.375V63.3506C75.5332 63.1967 75.4678 63.0725 75.3369 62.9775C75.2093 62.8793 75.0341 62.8301 74.8115 62.8301C74.576 62.8301 74.3878 62.8826 74.2471 62.9873C74.1097 63.092 74.033 63.2326 74.0166 63.4092H72.4453C72.4813 62.8462 72.7058 62.408 73.1182 62.0938C73.5339 61.7763 74.1183 61.6172 74.8711 61.6172ZM62.4678 65.4131H65.708V66.915H60.7002V59.5996H62.4678V65.4131ZM75.5479 64.5781C75.4595 64.6206 75.3365 64.6578 75.1797 64.6904C75.0226 64.7231 74.8393 64.758 74.6299 64.7939C74.4041 64.83 74.2176 64.8953 74.0703 64.9902C73.9264 65.0851 73.8546 65.2176 73.8545 65.3877C73.8545 65.548 73.9183 65.674 74.0459 65.7656C74.1736 65.854 74.3407 65.8984 74.5469 65.8984C74.8283 65.8984 75.0657 65.8218 75.2588 65.668C75.4519 65.5109 75.5479 65.3041 75.5479 65.0488V64.5781ZM68.8994 62.959C68.6049 62.959 68.361 63.0769 68.168 63.3125C67.9783 63.5481 67.8829 63.885 67.8828 64.3232C67.8828 64.7618 67.9781 65.0993 68.168 65.335C68.3578 65.5706 68.6017 65.6884 68.8994 65.6885C69.1939 65.6885 69.4361 65.5705 69.626 65.335C69.8191 65.0993 69.916 64.7619 69.916 64.3232C69.916 63.8848 69.819 63.5481 69.626 63.3125C69.4361 63.0768 69.194 62.959 68.8994 62.959ZM80.6494 62.9629C80.3385 62.9629 80.0921 63.0823 79.9121 63.3213C79.7355 63.5602 79.6475 63.8914 79.6475 64.3135C79.6475 64.7386 79.7356 65.0723 79.9121 65.3145C80.0921 65.5567 80.3385 65.6777 80.6494 65.6777C80.97 65.6777 81.2285 65.555 81.4248 65.3096C81.6244 65.0609 81.7245 64.7289 81.7246 64.3135C81.7246 63.9043 81.6245 63.5765 81.4248 63.3311C81.2285 63.0857 80.97 62.963 80.6494 62.9629Z" fill="black"/>
<path d="M29.1652 71.4512H51.2696V78.999H20V55.2773H29.1652V71.4512Z" fill="url(#paint2_linear_172_941)"/>
<path d="M40.2175 69.566H31.0522V55.2793H40.2175V69.566Z" fill="#006BFF"/>
<path d="M51.2697 69.566H42.1044V55.2793H51.2697V69.566Z" fill="#006BFF"/>
<path d="M36.7131 49.6174H47.7653V53.9304H45.6088V51.7739H36.7131V53.9304H34.5566V51.7739H25.6609V53.9304H23.5044V49.6174H34.5566V48H36.7131V49.6174Z" fill="#1F4DBE"/>
<defs>
<linearGradient id="paint0_linear_172_941" x1="17.9134" y1="-42.1379" x2="128.815" y2="-28.9142" gradientUnits="userSpaceOnUse">
<stop stop-color="white"/>
<stop offset="1" stop-color="#E7F3FF"/>
</linearGradient>
<linearGradient id="paint1_linear_172_941" x1="9" y1="57.6883" x2="111.825" y2="92.536" gradientUnits="userSpaceOnUse">
<stop stop-color="#37A8FF"/>
<stop offset="1" stop-color="#3071FF"/>
</linearGradient>
<linearGradient id="paint2_linear_172_941" x1="20" y1="70.258" x2="52.8121" y2="69.6529" gradientUnits="userSpaceOnUse">
<stop stop-color="#049FFC"/>
<stop offset="1" stop-color="#19C9FF"/>
</linearGradient>
</defs>
</svg>
