<svg width="128" height="128" viewBox="0 0 128 128" fill="none" xmlns="http://www.w3.org/2000/svg">
<path d="M10 43.9231C10 42.3087 11.3087 41 12.9231 41H53.847C55.4614 41 56.7701 42.3087 56.7701 43.9231V84.8468C56.7701 86.4612 55.4614 87.7699 53.847 87.7699H12.9231C11.3087 87.7699 10 86.4612 10 84.8468V43.9231Z" fill="url(#paint0_linear_229_14561)"/>
<path d="M53.847 86.3083V87.7699H12.9231V86.3083H53.847ZM55.3086 84.8468V43.9231C55.3086 43.1159 54.6542 42.4616 53.847 42.4616H12.9231C12.1159 42.4616 11.4616 43.1159 11.4616 43.9231V84.8468C11.4616 85.654 12.1159 86.3083 12.9231 86.3083V87.7699L12.7726 87.7663C11.2281 87.688 10 86.4107 10 84.8468V43.9231C10 42.3592 11.2281 41.0819 12.7726 41.0036L12.9231 41H53.847C55.4614 41 56.7701 42.3087 56.7701 43.9231V84.8468C56.7701 86.4612 55.4614 87.7699 53.847 87.7699V86.3083C54.6542 86.3083 55.3086 85.654 55.3086 84.8468Z" fill="url(#paint1_linear_229_14561)"/>
<path d="M29.7347 73.7541C28.7694 74.4551 28.0367 75.457 27.6752 76.6224L22.7612 73.0968C23.7266 72.3958 24.4593 71.394 24.8208 70.2285L29.7347 73.7541Z" fill="#006BFF"/>
<path d="M41.2112 70.2285C41.5727 71.3939 42.3055 72.3958 43.2708 73.0968L38.3568 76.6224C37.9953 75.457 37.2627 74.4551 36.2973 73.7541L41.2112 70.2285Z" fill="#006BFF"/>
<path d="M34.7817 72.9744C34.2267 72.7898 33.6331 72.6899 33.0162 72.6899C32.3992 72.6899 31.8056 72.7898 31.2506 72.9744V68.8737C31.8056 69.0583 32.3992 69.1585 33.0162 69.1585C33.6331 69.1585 34.2267 69.0583 34.7817 68.8737V72.9744Z" fill="#006BFF"/>
<path d="M27.4283 63.75C27.4685 65.0016 27.9201 66.149 28.6522 67.0621L25.0676 68.3869C25.0274 67.1353 24.5759 65.9879 23.8437 65.0748L27.4283 63.75Z" fill="#006BFF"/>
<path d="M42.1883 65.0748C41.4562 65.9878 41.0046 67.1353 40.9644 68.3869L37.3798 67.0621C38.1119 66.149 38.5635 65.0017 38.6037 63.75L42.1883 65.0748Z" fill="#006BFF"/>
<path d="M37.1339 78.2723C37.1339 80.5476 35.2894 82.3922 33.0142 82.3922C30.739 82.3922 28.8945 80.5476 28.8945 78.2723C28.8945 75.9969 30.739 74.1523 33.0142 74.1523C35.2894 74.1523 37.1339 75.9969 37.1339 78.2723Z" fill="#006BFF"/>
<path d="M41.8439 47.0996C44.1192 47.0996 45.9636 48.9442 45.9636 51.2195C45.9636 52.5303 45.3513 53.6977 44.3975 54.4523L47.1226 64.5015C49.1278 64.7793 50.6718 66.5002 50.6718 68.582C50.6718 70.8574 48.8274 72.702 46.5521 72.702C44.2769 72.702 42.4325 70.8574 42.4325 68.582C42.4325 67.2713 43.0445 66.1036 43.9983 65.349L41.2729 55.2998C41.1667 55.2851 41.0618 55.2664 40.9583 55.2438L36.5352 61.4363C36.9161 62.0607 37.1357 62.7943 37.1357 63.5793C37.1357 65.8547 35.2913 67.6992 33.0161 67.6992C30.7408 67.6992 28.8964 65.8547 28.8964 63.5793C28.8964 62.7944 29.1155 62.0606 29.4964 61.4363L25.0733 55.2438C24.9698 55.2664 24.8649 55.2851 24.7586 55.2998L22.0335 65.349C22.9875 66.1036 23.5997 67.2713 23.5997 68.582C23.5997 70.8574 21.7553 72.702 19.48 72.702C17.2048 72.702 15.3604 70.8574 15.3604 68.582C15.3604 66.5003 16.9042 64.7794 18.9093 64.5015L21.6344 54.4523C20.6806 53.6977 20.0685 52.5302 20.0685 51.2195C20.0685 48.9442 21.913 47.0996 24.1882 47.0996C26.4634 47.0996 28.3079 48.9442 28.3079 51.2195C28.3079 52.0043 28.0884 52.7377 27.7076 53.362L32.1307 59.5548C32.4159 59.4923 32.7121 59.4594 33.0161 59.4594C33.3199 59.4594 33.6161 59.4924 33.9012 59.5548L38.3243 53.362C37.9435 52.7377 37.7243 52.0042 37.7243 51.2195C37.7243 48.9442 39.5687 47.0996 41.8439 47.0996Z" fill="url(#paint2_linear_229_14561)"/>
<path d="M36.5394 49.4531C36.3548 50.0082 36.2546 50.6018 36.2546 51.2188C36.2546 51.8358 36.3548 52.4294 36.5394 52.9845H29.4961C29.6807 52.4294 29.7809 51.8358 29.7809 51.2188C29.7809 50.6018 29.6807 50.0082 29.4961 49.4531H36.5394Z" fill="#006BFF"/>
<path d="M115.903 83.3491C114.279 83.3491 113.5 82.6147 113.34 81.6006H114.983C115.073 81.9303 115.408 82.1302 115.903 82.1302C116.542 82.1302 116.882 81.7705 116.882 81.0711V80.2568H116.877C116.597 80.8813 116.052 81.156 115.363 81.156C113.979 81.156 113.08 80.047 113.08 78.4984C113.08 76.9298 114.009 75.8008 115.348 75.8008C116.032 75.8008 116.547 76.1005 116.877 76.655H116.882V75.9157H118.59V80.9013C118.59 82.6197 117.551 83.3491 115.903 83.3491ZM115.843 79.8072C116.492 79.8072 116.937 79.2827 116.937 78.4684C116.937 77.6591 116.492 77.1346 115.843 77.1346C115.213 77.1346 114.824 77.6342 114.824 78.4684C114.824 79.3077 115.213 79.8072 115.843 79.8072Z" fill="black"/>
<path d="M108.863 78.3235V81.191H107.145V75.9157H108.843V76.7699C109.193 76.1655 109.727 75.8008 110.522 75.8008C111.666 75.8008 112.335 76.5751 112.335 77.8739V81.191H110.616V78.2336C110.616 77.6092 110.302 77.2695 109.757 77.2695C109.213 77.2695 108.863 77.6042 108.863 78.3235Z" fill="black"/>
<path d="M104.468 81.1932V75.9179H106.186V81.1932H104.468ZM105.322 75.4034C104.773 75.4034 104.378 75.0387 104.378 74.5342C104.378 74.0296 104.773 73.6699 105.322 73.6699C105.877 73.6699 106.271 74.0296 106.271 74.5342C106.271 75.0387 105.877 75.4034 105.322 75.4034Z" fill="black"/>
<path d="M98.6528 81.1856V73.7422H100.371V77.7836H100.391L101.995 75.9103H103.978L102.015 78.2132L104.063 81.1856H102.08L100.736 79.1923L100.371 79.617V81.1856H98.6528Z" fill="black"/>
<path d="M94.5757 81.2015V75.9262H96.2392V76.8554H96.2542C96.444 76.186 96.8387 75.9062 97.5431 75.9062C97.7279 75.9062 97.8728 75.9112 98.0126 75.9162V77.335C97.8878 77.33 97.583 77.32 97.3332 77.32C96.7188 77.32 96.2942 77.7496 96.2942 78.4989V81.2015H94.5757Z" fill="black"/>
<path d="M91.0583 81.31C89.4048 81.31 88.2808 80.226 88.2808 78.5525C88.2808 76.889 89.4048 75.7949 91.0583 75.7949C92.7118 75.7949 93.8309 76.889 93.8309 78.5525C93.8309 80.226 92.7118 81.31 91.0583 81.31ZM91.0583 79.9412C91.6578 79.9412 92.0924 79.4467 92.0924 78.5525C92.0924 77.6633 91.6578 77.1637 91.0583 77.1637C90.4588 77.1637 90.0242 77.6633 90.0242 78.5525C90.0242 79.4467 90.4538 79.9412 91.0583 79.9412Z" fill="black"/>
<path d="M81.1333 81.2011L79.5098 75.9258H81.3182L81.7278 77.5743C81.8777 78.1888 82.0126 78.8532 82.1474 79.5076C82.3023 78.8532 82.4572 78.1888 82.617 77.5743L83.0516 75.9258H84.5753L85.0099 77.5743C85.1698 78.1888 85.3246 78.8532 85.4795 79.5076C85.6094 78.8532 85.7393 78.1938 85.8841 77.5743L86.2788 75.9258H88.1172L86.4936 81.2011H84.7202L84.1357 79.2278C84.0258 78.8382 83.9209 78.4236 83.816 78.0089C83.7111 78.4236 83.6061 78.8382 83.4912 79.2278L82.9068 81.2011H81.1333Z" fill="black"/>
<path d="M79.0256 75.9211V77.25H77.9415V79.423C77.9415 79.7627 78.0464 79.8676 78.4311 79.8676H79.0256V81.1965H78.0514C76.7876 81.1965 76.2181 80.7369 76.2181 79.7128V77.25H75.3188V75.9211H76.2181V74.4824H77.9415V75.9211H79.0256Z" fill="black"/>
<path d="M72.348 81.31C70.7294 81.31 69.6304 80.161 69.6304 78.5525C69.6304 76.9439 70.7394 75.7949 72.303 75.7949C73.8866 75.7949 74.9806 76.9139 74.9806 78.5125V78.9771H71.3089C71.3289 79.6465 71.7285 80.0711 72.4079 80.0711C72.9125 80.0711 73.2722 79.8513 73.397 79.5016H74.9407C74.7459 80.5657 73.6818 81.31 72.348 81.31ZM71.3189 77.948H73.3771C73.3021 77.3935 72.9225 77.0638 72.348 77.0638C71.7685 77.0638 71.3938 77.3935 71.3189 77.948Z" fill="black"/>
<path d="M62.3667 81.1856V73.7422H64.2251L66.3382 77.1242C66.513 77.4039 66.8278 77.9634 67.1175 78.498C67.1025 77.9085 67.0925 77.304 67.0925 76.9693V73.7422H68.8909V81.1856H67.0276L65.0893 78.0883C64.8745 77.7436 64.5198 77.1342 64.1351 76.4348C64.1601 77.1592 64.1651 77.7736 64.1651 78.0833V81.1856H62.3667Z" fill="black"/>
<path d="M84.7532 65.906V68.7735H83.0347V61.3301H84.7532V64.3124C85.1078 63.7329 85.6374 63.3833 86.4117 63.3833C87.5557 63.3833 88.2251 64.1576 88.2251 65.4564V68.7735H86.5066V65.8161C86.5066 65.1916 86.1919 64.852 85.6474 64.852C85.1028 64.852 84.7532 65.1867 84.7532 65.906Z" fill="black"/>
<path d="M79.8516 68.9116C78.3929 68.9116 77.3688 68.2172 77.2739 67.0932H78.9674C79.0174 67.4829 79.3221 67.7276 79.8267 67.7276C80.3013 67.7276 80.581 67.5428 80.581 67.278C80.581 67.0482 80.3612 66.9084 79.9416 66.8334L78.9874 66.6636C77.9483 66.4787 77.3938 65.9442 77.3938 65.11C77.3938 64.0659 78.288 63.3965 79.7567 63.3965C81.2304 63.3965 82.1646 64.0959 82.1946 65.2199H80.611C80.601 64.8502 80.2713 64.5754 79.8167 64.5754C79.3671 64.5754 79.1073 64.7703 79.1073 65.03C79.1073 65.2498 79.3121 65.3947 79.6768 65.4646L80.7359 65.6595C81.8199 65.8593 82.3295 66.3139 82.3295 67.0982C82.3295 68.1822 81.3303 68.9116 79.8516 68.9116Z" fill="black"/>
<path d="M74.1649 68.8803C72.5463 68.8803 71.4473 67.7314 71.4473 66.1228C71.4473 64.5142 72.5563 63.3652 74.1199 63.3652C75.7035 63.3652 76.7975 64.4842 76.7975 66.0828V66.5474H73.1258C73.1458 67.2168 73.5454 67.6414 74.2248 67.6414C74.7294 67.6414 75.089 67.4216 75.2139 67.0719H76.7576C76.5627 68.136 75.4987 68.8803 74.1649 68.8803ZM73.1358 65.5183H75.194C75.119 64.9638 74.7394 64.6341 74.1649 64.6341C73.5854 64.6341 73.2107 64.9638 73.1358 65.5183Z" fill="black"/>
<path d="M62.3667 68.7735V61.3301H65.0244L65.9835 64.2525C66.1284 64.7271 66.3582 65.5463 66.543 66.2507C66.7278 65.5463 66.9526 64.7271 67.0925 64.2525L68.0417 61.3301H70.7043V68.7735H68.9409V65.5513C68.9409 65.0418 68.9809 64.0976 69.0008 63.2134C68.7511 64.1176 68.4963 65.0518 68.3364 65.5513L67.2674 68.7735H65.8137L64.7246 65.5513C64.5698 65.0718 64.32 64.1825 64.0752 63.3133C64.0952 64.1676 64.1301 65.0618 64.1301 65.5513V68.7735H62.3667Z" fill="black"/>
<path d="M104.954 49.6057V48.7012H110.386V49.6057H108.191V55.6129H107.157V49.6057H104.954Z" fill="black"/>
<path d="M98.7603 55.6129V48.7012H99.9014L102.541 52.8807C102.621 53.0106 102.731 53.1946 102.87 53.4327C103.009 53.6708 103.149 53.912 103.288 54.1563C103.278 53.9058 103.271 53.6523 103.264 53.3956C103.261 53.1358 103.26 52.9425 103.26 52.8157V48.7012H104.294V55.6129H103.144L100.783 51.8787C100.687 51.7272 100.548 51.5014 100.365 51.2015C100.186 50.8984 99.9818 50.5505 99.7529 50.1577C99.7684 50.5629 99.7777 50.9123 99.7808 51.2061C99.787 51.4968 99.7901 51.7194 99.7901 51.8741V55.6129H98.7603Z" fill="black"/>
<path d="M93.3555 55.6129V48.7012H98.0035V49.6057H94.3853V51.6421H97.7345V52.5374H94.3853V54.7083H98.0035V55.6129H93.3555Z" fill="black"/>
<path d="M88.3862 55.6129V48.7012H89.416V54.7083H92.6864V55.6129H88.3862Z" fill="black"/>
<path d="M81.6216 55.6129L84.1312 48.7012H85.3743L87.8654 55.6129H86.7474L86.1351 53.8177H83.3472L82.7163 55.6129H81.6216ZM83.658 52.941H85.8336L85.4161 51.7164C85.3233 51.4318 85.2244 51.1272 85.1192 50.8025C85.0141 50.4778 84.8935 50.0912 84.7574 49.6428C84.6182 50.0912 84.4961 50.4778 84.3909 50.8025C84.2858 51.1272 84.1853 51.4318 84.0894 51.7164L83.658 52.941Z" fill="black"/>
<path d="M78.9095 55.6129L76.3999 48.7012H77.5086L78.877 52.5977C78.9605 52.8482 79.0564 53.1435 79.1646 53.4837C79.2728 53.8239 79.3996 54.2213 79.545 54.6759C79.6841 54.2213 79.8063 53.8239 79.9114 53.4837C80.0197 53.1435 80.1155 52.8482 80.199 52.5977L81.5304 48.7012H82.6205L80.148 55.6129H78.9095Z" fill="black"/>
<path d="M73.3065 55.732C72.6941 55.732 72.1483 55.582 71.669 55.2821C71.1896 54.9821 70.8124 54.5646 70.5371 54.0296C70.265 53.4946 70.1289 52.8746 70.1289 52.1695C70.1289 51.4613 70.265 50.8397 70.5371 50.3047C70.8124 49.7666 71.1896 49.3476 71.669 49.0476C72.1483 48.7476 72.6941 48.5977 73.3065 48.5977C73.9219 48.5977 74.4692 48.7476 74.9486 49.0476C75.4279 49.3476 75.8037 49.7666 76.0758 50.3047C76.351 50.8397 76.4886 51.4613 76.4886 52.1695C76.4886 52.8746 76.351 53.4946 76.0758 54.0296C75.8037 54.5646 75.4279 54.9821 74.9486 55.2821C74.4692 55.582 73.9219 55.732 73.3065 55.732ZM73.3065 54.7904C73.7054 54.7904 74.0672 54.6899 74.3919 54.4889C74.7166 54.2847 74.9749 53.9879 75.1666 53.5982C75.3583 53.2055 75.4542 52.7292 75.4542 52.1695C75.4542 51.6067 75.3583 51.1289 75.1666 50.7361C74.9749 50.3434 74.7166 50.0465 74.3919 49.8455C74.0672 49.6414 73.7054 49.5393 73.3065 49.5393C72.9106 49.5393 72.5503 49.6414 72.2256 49.8455C71.9009 50.0465 71.6427 50.3434 71.451 50.7361C71.2592 51.1289 71.1634 51.6067 71.1634 52.1695C71.1634 52.7292 71.2592 53.2055 71.451 53.5982C71.6427 53.9879 71.9009 54.2847 72.2256 54.4889C72.5503 54.6899 72.9106 54.7904 73.3065 54.7904Z" fill="black"/>
<path d="M67.013 55.732C66.1842 55.732 65.5301 55.5233 65.0508 55.1058C64.5745 54.6852 64.3364 54.11 64.3364 53.3802H65.3662C65.3693 53.8348 65.5147 54.1904 65.8023 54.4471C66.093 54.7038 66.4965 54.8321 67.013 54.8321C67.4831 54.8321 67.8588 54.7332 68.1402 54.5352C68.4247 54.3342 68.567 54.0652 68.567 53.7281C68.567 53.4621 68.4649 53.2472 68.2608 53.0833C68.0598 52.9163 67.7196 52.7756 67.2403 52.6612L66.4842 52.4803C65.7853 52.3133 65.275 52.0813 64.9534 51.7845C64.6349 51.4845 64.4756 51.0948 64.4756 50.6155C64.4756 50.2104 64.5776 49.8563 64.7817 49.5532C64.9859 49.2502 65.2719 49.0151 65.6399 48.8481C66.011 48.6812 66.444 48.5977 66.9388 48.5977C67.6841 48.5977 68.2763 48.7925 68.7154 49.1821C69.1576 49.5718 69.3896 50.1037 69.4112 50.7779H68.4139C68.3892 50.3789 68.2438 50.0666 67.9779 49.8408C67.7119 49.612 67.3609 49.4976 66.9249 49.4976C66.5074 49.4976 66.1656 49.5981 65.8997 49.7991C65.6337 49.997 65.5008 50.2521 65.5008 50.5645C65.5008 50.815 65.6028 51.0191 65.8069 51.1768C66.011 51.3314 66.3496 51.4659 66.8228 51.5804L67.5696 51.7566C68.2624 51.9205 68.7726 52.1571 69.1004 52.4664C69.4313 52.7756 69.5968 53.1776 69.5968 53.6724C69.5968 54.0868 69.4901 54.4487 69.2767 54.7579C69.0633 55.0671 68.7634 55.3068 68.3768 55.4769C67.9902 55.647 67.5356 55.732 67.013 55.732Z" fill="black"/>
<path d="M63.5445 48.7012V55.6129H62.5146V48.7012H63.5445Z" fill="black"/>
<defs>
<linearGradient id="paint0_linear_229_14561" x1="1.89066" y1="24.2156" x2="62.0503" y2="94.3708" gradientUnits="userSpaceOnUse">
<stop stop-color="white"/>
<stop offset="1" stop-color="#E7F3FF"/>
</linearGradient>
<linearGradient id="paint1_linear_229_14561" x1="10" y1="58.9183" x2="57.4279" y2="66.809" gradientUnits="userSpaceOnUse">
<stop stop-color="#37A8FF"/>
<stop offset="1" stop-color="#3071FF"/>
</linearGradient>
<linearGradient id="paint2_linear_229_14561" x1="15.3604" y1="63.268" x2="52.4124" y2="62.553" gradientUnits="userSpaceOnUse">
<stop stop-color="#19C9FF"/>
<stop offset="1" stop-color="#049FFC"/>
</linearGradient>
</defs>
</svg>
