<svg width="128" height="128" viewBox="0 0 128 128" fill="none" xmlns="http://www.w3.org/2000/svg">
<path d="M5 9C5 6.79086 6.79086 5 9 5H65C67.2091 5 69 6.79086 69 9V65C69 67.2091 67.2091 69 65 69H9C6.79086 69 5 67.2091 5 65V9Z" fill="url(#paint0_linear_229_14278)"/>
<path d="M65 67V69H9V67H65ZM67 65V9C67 7.89543 66.1046 7 65 7H9C7.89543 7 7 7.89543 7 9V65C7 66.1046 7.89543 67 9 67V69L8.79395 68.9951C6.68056 68.8879 5 67.14 5 65V9C5 6.85996 6.68056 5.11211 8.79395 5.00488L9 5H65C67.2091 5 69 6.79086 69 9V65C69 67.2091 67.2091 69 65 69V67C66.1046 67 67 66.1046 67 65Z" fill="url(#paint1_linear_229_14278)"/>
<path d="M32.0044 49.8283C30.6835 50.7875 29.6808 52.1586 29.1861 53.7533L22.4619 48.9289C23.783 47.9696 24.7855 46.5987 25.2802 45.0038L32.0044 49.8283Z" fill="#006BFF"/>
<path d="M47.7088 45.0038C48.2034 46.5987 49.2061 47.9696 50.5271 48.9289L43.8029 53.7533C43.3081 52.1585 42.3056 50.7875 40.9846 49.8283L47.7088 45.0038Z" fill="#006BFF"/>
<path d="M38.9107 48.7614C38.1513 48.5088 37.3389 48.372 36.4947 48.372C35.6504 48.372 34.8381 48.5088 34.0787 48.7614V43.15C34.8382 43.4026 35.6504 43.5397 36.4947 43.5397C37.339 43.5397 38.1512 43.4026 38.9107 43.15V48.7614Z" fill="#006BFF"/>
<path d="M28.8483 36.1387C28.9034 37.8514 29.5213 39.4215 30.5231 40.6709L25.618 42.4838C25.5629 40.7711 24.9451 39.201 23.9432 37.9516L28.8483 36.1387Z" fill="#006BFF"/>
<path d="M49.0458 37.9516C48.044 39.2009 47.4261 40.7712 47.371 42.4838L42.4659 40.6709C43.4677 39.4215 44.0856 37.8514 44.1406 36.1387L49.0458 37.9516Z" fill="#006BFF"/>
<path d="M42.1331 56.0186C42.1331 59.1322 39.6091 61.6563 36.4957 61.6563C33.3823 61.6563 30.8584 59.1322 30.8584 56.0186C30.8584 52.9049 33.3823 50.3809 36.4957 50.3809C39.6091 50.3809 42.1331 52.9049 42.1331 56.0186Z" fill="#006BFF"/>
<path d="M48.5759 13.3359C51.6893 13.3359 54.2133 15.86 54.2133 18.9736C54.2133 20.7672 53.3754 22.3648 52.0702 23.3974L55.7992 37.1487C58.5431 37.5288 60.6559 39.8838 60.6559 42.7325C60.6559 45.8462 58.132 48.3702 55.0186 48.3702C51.9052 48.3702 49.3813 45.8462 49.3813 42.7325C49.3813 40.939 50.2187 39.341 51.524 38.3084L47.7946 24.5571C47.6492 24.5369 47.5056 24.5114 47.364 24.4804L41.3114 32.9543C41.8328 33.8087 42.1333 34.8126 42.1333 35.8868C42.1333 39.0004 39.6094 41.5245 36.4959 41.5245C33.3825 41.5245 30.8586 39.0004 30.8586 35.8868C30.8586 34.8127 31.1584 33.8086 31.6797 32.9543L25.6271 24.4804C25.4855 24.5114 25.3419 24.5369 25.1965 24.5571L21.4675 38.3084C22.7729 39.341 23.6106 40.9389 23.6106 42.7325C23.6106 45.8462 21.0867 48.3702 17.9733 48.3702C14.8599 48.3702 12.3359 45.8462 12.3359 42.7325C12.3359 39.8839 14.4485 37.529 17.1923 37.1487L20.9213 23.3974C19.6162 22.3648 18.7786 20.7671 18.7786 18.9736C18.7786 15.86 21.3025 13.3359 24.4159 13.3359C27.5294 13.3359 30.0533 15.86 30.0533 18.9736C30.0533 20.0475 29.7529 21.0511 29.2318 21.9054L35.2844 30.3796C35.6747 30.2941 36.08 30.2491 36.4959 30.2491C36.9117 30.2491 37.3169 30.2942 37.7071 30.3796L43.7597 21.9054C43.2387 21.0512 42.9386 20.0474 42.9386 18.9736C42.9386 15.86 45.4625 13.3359 48.5759 13.3359Z" fill="url(#paint2_linear_229_14278)"/>
<path d="M41.3153 16.5586C41.0627 17.3181 40.9256 18.1304 40.9256 18.9748C40.9256 19.8191 41.0627 20.6314 41.3153 21.3909H31.6772C31.9298 20.6314 32.0669 19.8191 32.0669 18.9748C32.0669 18.1304 31.9298 17.3181 31.6772 16.5586H41.3153Z" fill="#006BFF"/>
<path d="M78.917 126.954C76.6953 126.954 75.6289 125.949 75.4102 124.562H77.6592C77.7822 125.013 78.2402 125.286 78.917 125.286C79.792 125.286 80.2568 124.794 80.2568 123.837V122.723H80.25C79.8672 123.577 79.1221 123.953 78.1787 123.953C76.2852 123.953 75.0547 122.436 75.0547 120.316C75.0547 118.17 76.3262 116.625 78.1582 116.625C79.0947 116.625 79.7988 117.035 80.25 117.794H80.2568V116.782H82.5947V123.604C82.5947 125.956 81.1729 126.954 78.917 126.954ZM78.835 122.107C79.7236 122.107 80.332 121.39 80.332 120.275C80.332 119.168 79.7236 118.45 78.835 118.45C77.9736 118.45 77.4404 119.134 77.4404 120.275C77.4404 121.424 77.9736 122.107 78.835 122.107Z" fill="black"/>
<path d="M69.2852 120.077V124.001H66.9336V116.782H69.2578V117.951C69.7363 117.124 70.4678 116.625 71.5547 116.625C73.1201 116.625 74.0361 117.685 74.0361 119.462V124.001H71.6846V119.954C71.6846 119.1 71.2539 118.635 70.5088 118.635C69.7637 118.635 69.2852 119.093 69.2852 120.077Z" fill="black"/>
<path d="M63.2695 124V116.781H65.6211V124H63.2695ZM64.4385 116.077C63.6865 116.077 63.1465 115.578 63.1465 114.888C63.1465 114.197 63.6865 113.705 64.4385 113.705C65.1973 113.705 65.7373 114.197 65.7373 114.888C65.7373 115.578 65.1973 116.077 64.4385 116.077Z" fill="black"/>
<path d="M55.3125 124V113.814H57.6641V119.345H57.6914L59.8857 116.781H62.5996L59.9131 119.933L62.7158 124H60.002L58.1631 121.272L57.6641 121.854V124H55.3125Z" fill="black"/>
<path d="M49.7344 124V116.781H52.0107V118.053H52.0312C52.291 117.137 52.8311 116.754 53.7949 116.754C54.0479 116.754 54.2461 116.761 54.4375 116.768V118.709C54.2666 118.702 53.8496 118.688 53.5078 118.688C52.667 118.688 52.0859 119.276 52.0859 120.302V124H49.7344Z" fill="black"/>
<path d="M44.9219 124.164C42.6592 124.164 41.1211 122.681 41.1211 120.391C41.1211 118.114 42.6592 116.617 44.9219 116.617C47.1846 116.617 48.7158 118.114 48.7158 120.391C48.7158 122.681 47.1846 124.164 44.9219 124.164ZM44.9219 122.291C45.7422 122.291 46.3369 121.614 46.3369 120.391C46.3369 119.174 45.7422 118.49 44.9219 118.49C44.1016 118.49 43.5068 119.174 43.5068 120.391C43.5068 121.614 44.0947 122.291 44.9219 122.291Z" fill="black"/>
<path d="M31.3389 124L29.1172 116.781H31.5918L32.1523 119.037C32.3574 119.878 32.542 120.787 32.7266 121.683C32.9385 120.787 33.1504 119.878 33.3691 119.037L33.9639 116.781H36.0488L36.6436 119.037C36.8623 119.878 37.0742 120.787 37.2861 121.683C37.4639 120.787 37.6416 119.885 37.8398 119.037L38.3799 116.781H40.8955L38.6738 124H36.2471L35.4473 121.3C35.2969 120.767 35.1533 120.199 35.0098 119.632C34.8662 120.199 34.7227 120.767 34.5654 121.3L33.7656 124H31.3389Z" fill="black"/>
<path d="M28.4541 116.781V118.6H26.9707V121.573C26.9707 122.038 27.1143 122.182 27.6406 122.182H28.4541V124H27.1211C25.3916 124 24.6123 123.371 24.6123 121.97V118.6H23.3818V116.781H24.6123V114.812H26.9707V116.781H28.4541Z" fill="black"/>
<path d="M19.3145 124.164C17.0996 124.164 15.5957 122.592 15.5957 120.391C15.5957 118.189 17.1133 116.617 19.2529 116.617C21.4199 116.617 22.917 118.148 22.917 120.336V120.972H17.8926C17.9199 121.888 18.4668 122.469 19.3965 122.469C20.0869 122.469 20.5791 122.168 20.75 121.689H22.8623C22.5957 123.146 21.1396 124.164 19.3145 124.164ZM17.9062 119.563H20.7227C20.6201 118.805 20.1006 118.354 19.3145 118.354C18.5215 118.354 18.0088 118.805 17.9062 119.563Z" fill="black"/>
<path d="M5.65625 124V113.814H8.19922L11.0908 118.442C11.3301 118.825 11.7607 119.591 12.1572 120.322C12.1367 119.516 12.123 118.688 12.123 118.23V113.814H14.584V124H12.0342L9.38184 119.762C9.08789 119.29 8.60254 118.456 8.07617 117.499C8.11035 118.49 8.11719 119.331 8.11719 119.755V124H5.65625Z" fill="black"/>
<path d="M36.2949 103.076V107H33.9434V96.8145H36.2949V100.896C36.7803 100.103 37.5049 99.624 38.5645 99.624C40.1299 99.624 41.0459 100.684 41.0459 102.461V107H38.6943V102.953C38.6943 102.099 38.2637 101.634 37.5186 101.634C36.7734 101.634 36.2949 102.092 36.2949 103.076Z" fill="black"/>
<path d="M29.582 107.178C27.5859 107.178 26.1846 106.228 26.0547 104.689H28.3721C28.4404 105.223 28.8574 105.558 29.5479 105.558C30.1973 105.558 30.5801 105.305 30.5801 104.942C30.5801 104.628 30.2793 104.437 29.7051 104.334L28.3994 104.102C26.9775 103.849 26.2188 103.117 26.2188 101.976C26.2188 100.547 27.4424 99.6309 29.4521 99.6309C31.4688 99.6309 32.7471 100.588 32.7881 102.126H30.6211C30.6074 101.62 30.1562 101.244 29.5342 101.244C28.9189 101.244 28.5635 101.511 28.5635 101.866C28.5635 102.167 28.8438 102.365 29.3428 102.461L30.792 102.728C32.2754 103.001 32.9727 103.623 32.9727 104.696C32.9727 106.18 31.6055 107.178 29.582 107.178Z" fill="black"/>
<path d="M21.8027 107.164C19.5879 107.164 18.084 105.592 18.084 103.391C18.084 101.189 19.6016 99.6172 21.7412 99.6172C23.9082 99.6172 25.4053 101.148 25.4053 103.336V103.972H20.3809C20.4082 104.888 20.9551 105.469 21.8848 105.469C22.5752 105.469 23.0674 105.168 23.2383 104.689H25.3506C25.084 106.146 23.6279 107.164 21.8027 107.164ZM20.3945 102.563H23.2109C23.1084 101.805 22.5889 101.354 21.8027 101.354C21.0098 101.354 20.4971 101.805 20.3945 102.563Z" fill="black"/>
<path d="M5.65625 107V96.8145H9.29297L10.6055 100.813C10.8037 101.463 11.1182 102.584 11.3711 103.548C11.624 102.584 11.9316 101.463 12.123 100.813L13.4219 96.8145H17.0654V107H14.6523V102.591C14.6523 101.894 14.707 100.602 14.7344 99.3916C14.3926 100.629 14.0439 101.907 13.8252 102.591L12.3623 107H10.373L8.88281 102.591C8.6709 101.935 8.3291 100.718 7.99414 99.5283C8.02148 100.697 8.06934 101.921 8.06934 102.591V107H5.65625Z" fill="black"/>
<path d="M63.9336 80.7808V79.543H71.3667V80.7808H68.3643V89.001H66.9487V80.7808H63.9336Z" fill="black"/>
<path d="M55.4595 89.001V79.543H57.021L60.6328 85.2622C60.7428 85.4399 60.8931 85.6917 61.0835 86.0176C61.2739 86.3434 61.4644 86.6735 61.6548 87.0078C61.6421 86.665 61.6315 86.318 61.623 85.9668C61.6188 85.6113 61.6167 85.3468 61.6167 85.1733V79.543H63.0322V89.001H61.458L58.2271 83.8911C58.0959 83.6838 57.9054 83.3748 57.6558 82.9644C57.4103 82.5496 57.131 82.0736 56.8179 81.5361C56.839 82.0905 56.8517 82.5687 56.856 82.9707C56.8644 83.3685 56.8687 83.6732 56.8687 83.8848V89.001H55.4595Z" fill="black"/>
<path d="M48.064 89.001V79.543H54.4243V80.7808H49.4731V83.5674H54.0562V84.7925H49.4731V87.7632H54.4243V89.001H48.064Z" fill="black"/>
<path d="M41.2656 89.001V79.543H42.6748V87.7632H47.1499V89.001H41.2656Z" fill="black"/>
<path d="M32.0039 89.001L35.438 79.543H37.1392L40.5479 89.001H39.0181L38.1802 86.5444H34.3652L33.502 89.001H32.0039ZM34.7905 85.3447H37.7676L37.1963 83.6689C37.0693 83.2796 36.9339 82.8628 36.79 82.4185C36.6462 81.9741 36.4811 81.4451 36.2949 80.8315C36.1045 81.4451 35.9373 81.9741 35.7935 82.4185C35.6496 82.8628 35.512 83.2796 35.3809 83.6689L34.7905 85.3447Z" fill="black"/>
<path d="M28.2969 89.001L24.8628 79.543H26.3799L28.2524 84.875C28.3667 85.2178 28.4979 85.6219 28.646 86.0874C28.7941 86.5529 28.9676 87.0967 29.1665 87.7188C29.3569 87.0967 29.5241 86.5529 29.668 86.0874C29.8161 85.6219 29.9473 85.2178 30.0615 84.875L31.8833 79.543H33.375L29.9917 89.001H28.2969Z" fill="black"/>
<path d="M20.6284 89.1533C19.7905 89.1533 19.0436 88.9481 18.3877 88.5376C17.7318 88.1271 17.2155 87.5558 16.8389 86.8237C16.4665 86.0916 16.2803 85.2432 16.2803 84.2783C16.2803 83.3092 16.4665 82.4587 16.8389 81.7266C17.2155 80.9902 17.7318 80.4168 18.3877 80.0063C19.0436 79.5959 19.7905 79.3906 20.6284 79.3906C21.4705 79.3906 22.2196 79.5959 22.8755 80.0063C23.5314 80.4168 24.0456 80.9902 24.418 81.7266C24.7946 82.4587 24.9829 83.3092 24.9829 84.2783C24.9829 85.2432 24.7946 86.0916 24.418 86.8237C24.0456 87.5558 23.5314 88.1271 22.8755 88.5376C22.2196 88.9481 21.4705 89.1533 20.6284 89.1533ZM20.6284 87.8647C21.1743 87.8647 21.6694 87.7272 22.1138 87.4521C22.5581 87.1729 22.9115 86.7666 23.1738 86.2334C23.4362 85.696 23.5674 85.0443 23.5674 84.2783C23.5674 83.5081 23.4362 82.8543 23.1738 82.3169C22.9115 81.7795 22.5581 81.3732 22.1138 81.0981C21.6694 80.8188 21.1743 80.6792 20.6284 80.6792C20.0868 80.6792 19.5938 80.8188 19.1494 81.0981C18.7051 81.3732 18.3517 81.7795 18.0894 82.3169C17.827 82.8543 17.6958 83.5081 17.6958 84.2783C17.6958 85.0443 17.827 85.696 18.0894 86.2334C18.3517 86.7666 18.7051 87.1729 19.1494 87.4521C19.5938 87.7272 20.0868 87.8647 20.6284 87.8647Z" fill="black"/>
<path d="M12.0146 89.1533C10.8805 89.1533 9.98551 88.8677 9.32959 88.2964C8.6779 87.7209 8.35205 86.9338 8.35205 85.9351H9.76123C9.76546 86.5571 9.96436 87.0438 10.3579 87.395C10.7557 87.7463 11.3079 87.9219 12.0146 87.9219C12.6579 87.9219 13.172 87.7865 13.5571 87.5156C13.9465 87.2406 14.1411 86.8724 14.1411 86.4111C14.1411 86.0472 14.0015 85.7531 13.7222 85.5288C13.4471 85.3003 12.9816 85.1077 12.3257 84.9512L11.291 84.7036C10.3346 84.4751 9.63639 84.1577 9.19629 83.7515C8.76042 83.341 8.54248 82.8078 8.54248 82.1519C8.54248 81.5975 8.68213 81.113 8.96143 80.6982C9.24072 80.2835 9.63216 79.9619 10.1357 79.7334C10.6436 79.5049 11.236 79.3906 11.9131 79.3906C12.9329 79.3906 13.7433 79.6572 14.3442 80.1904C14.9494 80.7236 15.2668 81.4515 15.2964 82.374H13.9316C13.8978 81.8281 13.6989 81.4007 13.335 81.0918C12.971 80.7786 12.4907 80.6221 11.894 80.6221C11.3228 80.6221 10.8551 80.7596 10.4912 81.0347C10.1273 81.3055 9.94531 81.6546 9.94531 82.082C9.94531 82.4248 10.085 82.7041 10.3643 82.9199C10.6436 83.1315 11.1069 83.3156 11.7544 83.4722L12.7764 83.7134C13.7243 83.9377 14.4225 84.2614 14.8711 84.6846C15.3239 85.1077 15.5503 85.6579 15.5503 86.335C15.5503 86.902 15.4043 87.3971 15.1123 87.8203C14.8203 88.2435 14.4098 88.5715 13.8809 88.8042C13.3519 89.0369 12.7298 89.1533 12.0146 89.1533Z" fill="black"/>
<path d="M7.27246 79.543V89.001H5.86328V79.543H7.27246Z" fill="black"/>
<defs>
<linearGradient id="paint0_linear_229_14278" x1="-6.09677" y1="-17.9677" x2="76.2258" y2="78.0323" gradientUnits="userSpaceOnUse">
<stop stop-color="white"/>
<stop offset="1" stop-color="#E7F3FF"/>
</linearGradient>
<linearGradient id="paint1_linear_229_14278" x1="5" y1="29.5195" x2="69.9001" y2="40.317" gradientUnits="userSpaceOnUse">
<stop stop-color="#37A8FF"/>
<stop offset="1" stop-color="#3071FF"/>
</linearGradient>
<linearGradient id="paint2_linear_229_14278" x1="12.3359" y1="35.4607" x2="63.0378" y2="34.4825" gradientUnits="userSpaceOnUse">
<stop stop-color="#19C9FF"/>
<stop offset="1" stop-color="#049FFC"/>
</linearGradient>
</defs>
</svg>
