<svg width="128" height="128" viewBox="0 0 128 128" fill="none" xmlns="http://www.w3.org/2000/svg">
<path d="M8 38H120C121.657 38 123 39.3431 123 41V87C123 88.6569 121.657 90 120 90H8C6.34315 90 5 88.6569 5 87V41C5 39.3431 6.34315 38 8 38Z" fill="url(#paint0_linear_172_872)" stroke="url(#paint1_linear_172_872)" stroke-width="2"/>
<path d="M109.13 82.0036C107.507 82.0036 106.727 81.2692 106.567 80.2551H108.211C108.301 80.5848 108.635 80.7846 109.13 80.7846C109.769 80.7846 110.109 80.4249 110.109 79.7255V78.9112H110.104C109.824 79.5357 109.28 79.8105 108.591 79.8105C107.207 79.8105 106.308 78.7014 106.308 77.1528C106.308 75.5841 107.237 74.4551 108.576 74.4551C109.26 74.4551 109.774 74.7548 110.104 75.3093H110.109V74.57H111.818V79.5557C111.818 81.2742 110.779 82.0036 109.13 82.0036ZM109.07 78.4616C109.719 78.4616 110.164 77.9371 110.164 77.1228C110.164 76.3135 109.719 75.7889 109.07 75.7889C108.441 75.7889 108.051 76.2885 108.051 77.1228C108.051 77.9621 108.441 78.4616 109.07 78.4616Z" fill="black"/>
<path d="M102.091 76.9779V79.8454H100.373V74.57H102.071V75.4242C102.421 74.8198 102.955 74.4551 103.749 74.4551C104.893 74.4551 105.563 75.2294 105.563 76.5283V79.8454H103.844V76.888C103.844 76.2635 103.53 75.9238 102.985 75.9238C102.441 75.9238 102.091 76.2585 102.091 76.9779Z" fill="black"/>
<path d="M97.6959 79.8438V74.5684H99.4143V79.8438H97.6959ZM98.5501 74.0538C98.0006 74.0538 97.606 73.6891 97.606 73.1846C97.606 72.68 98.0006 72.3203 98.5501 72.3203C99.1046 72.3203 99.4992 72.68 99.4992 73.1846C99.4992 73.6891 99.1046 74.0538 98.5501 74.0538Z" fill="black"/>
<path d="M91.8813 79.844V72.4004H93.5998V76.4419H93.6198L95.2233 74.5685H97.2065L95.2433 76.8715L97.2914 79.844H95.3082L93.9644 77.8507L93.5998 78.2753V79.844H91.8813Z" fill="black"/>
<path d="M87.8042 79.8462V74.5708H89.4677V75.5H89.4827C89.6725 74.8305 90.0671 74.5508 90.7715 74.5508C90.9563 74.5508 91.1012 74.5558 91.2411 74.5608V75.9796C91.1162 75.9746 90.8114 75.9646 90.5617 75.9646C89.9472 75.9646 89.5226 76.3942 89.5226 77.1435V79.8462H87.8042Z" fill="black"/>
<path d="M84.2882 79.9645C82.6347 79.9645 81.5107 78.8804 81.5107 77.2068C81.5107 75.5433 82.6347 74.4492 84.2882 74.4492C85.9417 74.4492 87.0607 75.5433 87.0607 77.2068C87.0607 78.8804 85.9417 79.9645 84.2882 79.9645ZM84.2882 78.5956C84.8876 78.5956 85.3222 78.1011 85.3222 77.2068C85.3222 76.3176 84.8876 75.818 84.2882 75.818C83.6887 75.818 83.2541 76.3176 83.2541 77.2068C83.2541 78.1011 83.6838 78.5956 84.2882 78.5956Z" fill="black"/>
<path d="M74.3623 79.8458L72.7388 74.5703H74.5471L74.9567 76.2189C75.1066 76.8334 75.2415 77.4978 75.3764 78.1522C75.5312 77.4978 75.6861 76.8334 75.8459 76.2189L76.2805 74.5703H77.8041L78.2387 76.2189C78.3986 76.8334 78.5534 77.4978 78.7083 78.1522C78.8382 77.4978 78.9681 76.8384 79.1129 76.2189L79.5076 74.5703H81.3459L79.7224 79.8458H77.949L77.3645 77.8725C77.2546 77.4828 77.1497 77.0682 77.0448 76.6535C76.9399 77.0682 76.835 77.4828 76.7201 77.8725L76.1357 79.8458H74.3623Z" fill="black"/>
<path d="M72.254 74.5696V75.8985H71.17V78.0716C71.17 78.4113 71.2749 78.5162 71.6595 78.5162H72.254V79.8451H71.2799C70.016 79.8451 69.4465 79.3855 69.4465 78.3614V75.8985H68.5474V74.5696H69.4465V73.1309H71.17V74.5696H72.254Z" fill="black"/>
<path d="M65.5749 79.9645C63.9564 79.9645 62.8574 78.8155 62.8574 77.2068C62.8574 75.5982 63.9664 74.4492 65.53 74.4492C67.1135 74.4492 68.2075 75.5683 68.2075 77.1669V77.6315H64.5359C64.5559 78.3009 64.9555 78.7255 65.6349 78.7255C66.1394 78.7255 66.4991 78.5057 66.624 78.156H68.1676C67.9727 79.2201 66.9087 79.9645 65.5749 79.9645ZM64.5459 76.6024H66.604C66.5291 76.0478 66.1494 75.7181 65.5749 75.7181C64.9955 75.7181 64.6208 76.0478 64.5459 76.6024Z" fill="black"/>
<path d="M55.5942 79.844V72.4004H57.4525L59.5656 75.7825C59.7404 76.0622 60.0552 76.6218 60.3449 77.1563C60.3299 76.5668 60.3199 75.9623 60.3199 75.6276V72.4004H62.1183V79.844H60.255L58.3167 76.7466C58.1019 76.4019 57.7473 75.7925 57.3626 75.0931C57.3876 75.8174 57.3926 76.4319 57.3926 76.7416V79.844H55.5942Z" fill="black"/>
<path d="M77.9831 65.0604V67.928H76.2646V60.4844H77.9831V63.4668C78.3377 62.8873 78.8673 62.5376 79.6416 62.5376C80.7855 62.5376 81.4549 63.3119 81.4549 64.6108V67.928H79.7365V64.9705C79.7365 64.346 79.4218 64.0063 78.8773 64.0063C78.3328 64.0063 77.9831 64.3411 77.9831 65.0604Z" fill="black"/>
<path d="M73.0781 68.0582C71.6195 68.0582 70.5954 67.3638 70.5005 66.2398H72.1939C72.2439 66.6294 72.5486 66.8742 73.0532 66.8742C73.5277 66.8742 73.8075 66.6894 73.8075 66.4246C73.8075 66.1948 73.5877 66.0549 73.168 65.98L72.2139 65.8102C71.1749 65.6253 70.6204 65.0908 70.6204 64.2565C70.6204 63.2124 71.5146 62.543 72.9832 62.543C74.4569 62.543 75.391 63.2424 75.421 64.3664H73.8374C73.8274 63.9967 73.4977 63.722 73.0432 63.722C72.5936 63.722 72.3338 63.9168 72.3338 64.1766C72.3338 64.3964 72.5386 64.5412 72.9033 64.6112L73.9623 64.806C75.0463 65.0058 75.5559 65.4605 75.5559 66.2448C75.5559 67.3288 74.5568 68.0582 73.0781 68.0582Z" fill="black"/>
<path d="M67.3933 68.0465C65.7748 68.0465 64.6758 66.8975 64.6758 65.2889C64.6758 63.6803 65.7848 62.5312 67.3483 62.5312C68.9319 62.5312 70.0259 63.6503 70.0259 65.2489V65.7135H66.3542C66.3742 66.3829 66.7739 66.8076 67.4532 66.8076C67.9578 66.8076 68.3174 66.5878 68.4423 66.2381H69.9859C69.7911 67.3021 68.7271 68.0465 67.3933 68.0465ZM66.3642 64.6844H68.4223C68.3474 64.1299 67.9678 63.8002 67.3933 63.8002C66.8138 63.8002 66.4392 64.1299 66.3642 64.6844Z" fill="black"/>
<path d="M55.5942 67.928V60.4844H58.2518L59.2109 63.4069C59.3558 63.8814 59.5856 64.7007 59.7704 65.4051C59.9552 64.7007 60.18 63.8814 60.3199 63.4069L61.269 60.4844H63.9316V67.928H62.1682V64.7057C62.1682 64.1962 62.2082 63.252 62.2282 62.3678C61.9784 63.272 61.7236 64.2062 61.5638 64.7057L60.4948 67.928H59.0411L57.9521 64.7057C57.7972 64.2261 57.5474 63.3369 57.3027 62.4677C57.3227 63.3219 57.3576 64.2162 57.3576 64.7057V67.928H55.5942Z" fill="black"/>
<path d="M95.8213 49.9696V49.1523H100.729V49.9696H98.7466V55.3972H97.812V49.9696H95.8213Z" fill="black"/>
<path d="M90.0547 55.3972V49.1523H91.0857L93.4703 52.9286C93.543 53.046 93.6422 53.2122 93.7679 53.4274C93.8936 53.6425 94.0194 53.8605 94.1451 54.0812C94.1367 53.8549 94.1297 53.6258 94.1241 53.3938C94.1213 53.1591 94.1199 52.9845 94.1199 52.8699V49.1523H95.0545V55.3972H94.0152L91.882 52.0233C91.7953 51.8864 91.6696 51.6824 91.5048 51.4114C91.3427 51.1376 91.1583 50.8232 90.9516 50.4684C90.9655 50.8344 90.9739 51.1502 90.9767 51.4156C90.9823 51.6782 90.9851 51.8794 90.9851 52.0191V55.3972H90.0547Z" fill="black"/>
<path d="M85.0005 55.3972V49.1523H89.1999V49.9696H85.9309V51.8096H88.9568V52.6185H85.9309V54.58H89.1999V55.3972H85.0005Z" fill="black"/>
<path d="M80.3398 55.3972V49.1523H81.2702V54.58H84.2249V55.3972H80.3398Z" fill="black"/>
<path d="M74.0542 55.3972L76.3215 49.1523H77.4447L79.6953 55.3972H78.6852L78.132 53.7752H75.6132L75.0433 55.3972H74.0542ZM75.894 52.9831H77.8596L77.4824 51.8766C77.3986 51.6196 77.3092 51.3443 77.2142 51.051C77.1192 50.7576 77.0102 50.4083 76.8873 50.0032C76.7616 50.4083 76.6512 50.7576 76.5562 51.051C76.4612 51.3443 76.3704 51.6196 76.2838 51.8766L75.894 52.9831Z" fill="black"/>
<path d="M71.4343 55.3972L69.167 49.1523H70.1686L71.405 52.673C71.4804 52.8993 71.567 53.1661 71.6648 53.4735C71.7626 53.7808 71.8772 54.1399 72.0085 54.5506C72.1342 54.1399 72.2446 53.7808 72.3396 53.4735C72.4374 53.1661 72.524 52.8993 72.5994 52.673L73.8022 49.1523H74.7871L72.5533 55.3972H71.4343Z" fill="black"/>
<path d="M66.1999 55.4988C65.6467 55.4988 65.1536 55.3633 64.7205 55.0923C64.2874 54.8212 63.9466 54.444 63.6979 53.9606C63.452 53.4773 63.3291 52.917 63.3291 52.28C63.3291 51.6401 63.452 51.0785 63.6979 50.5951C63.9466 50.1089 64.2874 49.7303 64.7205 49.4593C65.1536 49.1883 65.6467 49.0527 66.1999 49.0527C66.7559 49.0527 67.2505 49.1883 67.6835 49.4593C68.1166 49.7303 68.4561 50.1089 68.702 50.5951C68.9506 51.0785 69.075 51.6401 69.075 52.28C69.075 52.917 68.9506 53.4773 68.702 53.9606C68.4561 54.444 68.1166 54.8212 67.6835 55.0923C67.2505 55.3633 66.7559 55.4988 66.1999 55.4988ZM66.1999 54.648C66.5604 54.648 66.8873 54.5572 67.1806 54.3756C67.474 54.1912 67.7073 53.9229 67.8805 53.5709C68.0537 53.216 68.1404 52.7857 68.1404 52.28C68.1404 51.7714 68.0537 51.3397 67.8805 50.9849C67.7073 50.63 67.474 50.3618 67.1806 50.1802C66.8873 49.9958 66.5604 49.9036 66.1999 49.9036C65.8423 49.9036 65.5168 49.9958 65.2234 50.1802C64.9301 50.3618 64.6968 50.63 64.5235 50.9849C64.3503 51.3397 64.2637 51.7714 64.2637 52.28C64.2637 52.7857 64.3503 53.216 64.5235 53.5709C64.6968 53.9229 64.9301 54.1912 65.2234 54.3756C65.5168 54.5572 65.8423 54.648 66.1999 54.648Z" fill="black"/>
<path d="M60.3406 55.4988C59.5918 55.4988 59.0008 55.3102 58.5678 54.933C58.1375 54.553 57.9224 54.0333 57.9224 53.3739H58.8528C58.8556 53.7846 58.9869 54.1059 59.2467 54.3379C59.5094 54.5698 59.874 54.6857 60.3406 54.6857C60.7653 54.6857 61.1047 54.5963 61.359 54.4175C61.616 54.2359 61.7445 53.9928 61.7445 53.6882C61.7445 53.4479 61.6523 53.2537 61.4679 53.1056C61.2863 52.9548 60.979 52.8276 60.5459 52.7242L59.8628 52.5608C59.2313 52.4099 58.7703 52.2003 58.4798 51.9321C58.192 51.6611 58.0481 51.309 58.0481 50.8759C58.0481 50.5099 58.1403 50.1899 58.3247 49.9161C58.5091 49.6423 58.7675 49.4299 59.1 49.2791C59.4353 49.1282 59.8265 49.0527 60.2735 49.0527C60.9469 49.0527 61.4819 49.2288 61.8787 49.5808C62.2782 49.9329 62.4878 50.4135 62.5073 51.0226H61.6062C61.5839 50.6622 61.4526 50.38 61.2123 50.176C60.972 49.9692 60.6549 49.8658 60.2609 49.8658C59.8837 49.8658 59.575 49.9566 59.3347 50.1383C59.0944 50.3171 58.9743 50.5476 58.9743 50.8298C58.9743 51.0561 59.0665 51.2405 59.2509 51.383C59.4353 51.5228 59.7413 51.6443 60.1687 51.7477L60.8435 51.9069C61.4693 52.055 61.9303 52.2688 62.2265 52.5482C62.5255 52.8276 62.6749 53.1909 62.6749 53.6379C62.6749 54.0123 62.5786 54.3392 62.3858 54.6187C62.193 54.8981 61.922 55.1146 61.5727 55.2683C61.2235 55.422 60.8128 55.4988 60.3406 55.4988Z" fill="black"/>
<path d="M57.0378 49.1523V55.3972H56.1074V49.1523H57.0378Z" fill="black"/>
<path d="M27.1511 74.2532C26.2008 74.9433 25.4794 75.9297 25.1235 77.077L20.2856 73.6061C21.2361 72.916 21.9574 71.9297 22.3133 70.7823L27.1511 74.2532Z" fill="#006BFF"/>
<path d="M38.4499 70.7823C38.8057 71.9297 39.5271 72.916 40.4775 73.6061L35.6397 77.077C35.2837 75.9297 34.5625 74.9433 33.612 74.2532L38.4499 70.7823Z" fill="#006BFF"/>
<path d="M32.1199 73.4856C31.5736 73.3039 30.9891 73.2055 30.3817 73.2055C29.7743 73.2055 29.1899 73.3039 28.6435 73.4856V69.4486C29.1899 69.6303 29.7743 69.7289 30.3817 69.7289C30.9892 69.7289 31.5735 69.6303 32.1199 69.4486V73.4856Z" fill="#006BFF"/>
<path d="M24.8805 64.4043C24.92 65.6365 25.3646 66.7661 26.0854 67.665L22.5563 68.9693C22.5167 67.7371 22.0722 66.6074 21.3514 65.7086L24.8805 64.4043Z" fill="#006BFF"/>
<path d="M39.4118 65.7086C38.691 66.6074 38.2465 67.7371 38.2068 68.9693L34.6778 67.665C35.3986 66.7661 35.8431 65.6365 35.8827 64.4043L39.4118 65.7086Z" fill="#006BFF"/>
<ellipse cx="30.382" cy="78.7083" rx="4.05585" ry="4.056" fill="#006BFF"/>
<path d="M39.0734 48C41.3133 48 43.1292 49.8159 43.1292 52.056C43.1292 53.3464 42.5264 54.4958 41.5873 55.2386L44.2702 65.1319C46.2444 65.4054 47.7645 67.0997 47.7645 69.1492C47.7645 71.3892 45.9486 73.2052 43.7086 73.2052C41.4686 73.2052 39.6528 71.3892 39.6528 69.1492C39.6528 67.8588 40.2553 66.7091 41.1944 65.9663L38.5112 56.073C38.4066 56.0585 38.3033 56.0401 38.2014 56.0178L33.8468 62.1143C34.2219 62.7289 34.4381 63.4512 34.4381 64.224C34.4381 66.4641 32.6222 68.28 30.3822 68.28C28.1422 68.28 26.3264 66.4641 26.3264 64.224C26.3264 63.4513 26.5421 62.7289 26.9171 62.1143L22.5625 56.0178C22.4606 56.0401 22.3573 56.0585 22.2527 56.073L19.5698 65.9663C20.509 66.7091 21.1117 67.8587 21.1117 69.1492C21.1117 71.3892 19.2958 73.2052 17.0559 73.2052C14.8159 73.2052 13 71.3892 13 69.1492C13 67.0998 14.5199 65.4055 16.494 65.1319L19.1769 55.2386C18.2379 54.4958 17.6353 53.3463 17.6353 52.056C17.6353 49.8159 19.4511 48 21.6911 48C23.9311 48 25.747 49.8159 25.747 52.056C25.747 52.8286 25.5309 53.5506 25.156 54.1652L29.5106 60.2619C29.7914 60.2005 30.083 60.168 30.3822 60.168C30.6814 60.168 30.9729 60.2005 31.2536 60.2619L35.6082 54.1652C35.2334 53.5507 35.0175 52.8285 35.0175 52.056C35.0175 49.8159 36.8334 48 39.0734 48Z" fill="url(#paint2_linear_172_872)"/>
<path d="M33.8493 50.3184C33.6675 50.8648 33.5689 51.4492 33.5689 52.0566C33.5689 52.6641 33.6675 53.2485 33.8493 53.7949H26.915C27.0968 53.2485 27.1954 52.6641 27.1954 52.0566C27.1954 51.4492 27.0968 50.8648 26.915 50.3184H33.8493Z" fill="#006BFF"/>
<defs>
<linearGradient id="paint0_linear_172_872" x1="13.7238" y1="-42.1379" x2="134.386" y2="-26.4425" gradientUnits="userSpaceOnUse">
<stop stop-color="white"/>
<stop offset="1" stop-color="#E7F3FF"/>
</linearGradient>
<linearGradient id="paint1_linear_172_872" x1="4" y1="57.6883" x2="114.018" y2="98.3634" gradientUnits="userSpaceOnUse">
<stop stop-color="#37A8FF"/>
<stop offset="1" stop-color="#3071FF"/>
</linearGradient>
<linearGradient id="paint2_linear_172_872" x1="13" y1="63.9175" x2="49.4781" y2="63.2137" gradientUnits="userSpaceOnUse">
<stop stop-color="#19C9FF"/>
<stop offset="1" stop-color="#049FFC"/>
</linearGradient>
</defs>
</svg>
