<svg width="128" height="128" viewBox="0 0 128 128" fill="none" xmlns="http://www.w3.org/2000/svg">
<path d="M2 49.6204C2 47.6209 3.62093 46 5.62044 46H122.38C124.379 46 126 47.6209 126 49.6204V77.6788C126 79.6783 124.379 81.2993 122.38 81.2993H5.62044C3.62093 81.2993 2 79.6783 2 77.6788V49.6204Z" fill="url(#paint0_linear_229_13965)"/>
<path d="M122.38 79.4891V81.2993H5.62044V79.4891H122.38ZM124.19 77.6788V49.6204C124.19 48.6207 123.379 47.8102 122.38 47.8102H5.62044C4.68306 47.8102 3.9125 48.5227 3.81994 49.4357L3.81022 49.6204V77.6788C3.81022 78.6786 4.62068 79.4891 5.62044 79.4891V81.2993C3.68347 81.2993 2.10148 79.7782 2.00442 77.8653L2 77.6788V49.6204C2 47.6835 3.52109 46.1015 5.43394 46.0044L5.62044 46H122.38L122.566 46.0044C124.479 46.1015 126 47.6835 126 49.6204V77.6788C126 79.6783 124.379 81.2993 122.38 81.2993V79.4891C123.379 79.4891 124.19 78.6786 124.19 77.6788Z" fill="url(#paint1_linear_229_13965)"/>
<path d="M111.85 67.2994C112.469 67.2994 112.934 67.5702 113.233 68.0719H113.237V67.4028H114.784V71.916C114.784 73.4711 113.843 74.1309 112.352 74.131C110.882 74.131 110.176 73.4667 110.031 72.5488H111.519C111.6 72.8472 111.904 73.0279 112.352 73.0279C112.93 73.0278 113.237 72.7024 113.237 72.0698V71.3326H113.233C112.98 71.8976 112.487 72.1467 111.863 72.1467C110.61 72.1466 109.797 71.1424 109.797 69.7407C109.797 68.3209 110.638 67.2994 111.85 67.2994ZM72.8883 67.2941C74.3214 67.2941 75.3117 68.3064 75.3119 69.7531V70.1738H71.9885C72.0065 70.7797 72.3688 71.1647 72.9837 71.1647C73.4402 71.1646 73.7652 70.9649 73.8782 70.6485H75.2757C75.0993 71.6116 74.1361 72.2854 72.9289 72.2854C71.4641 72.2853 70.4699 71.2452 70.4699 69.7893C70.4701 68.3336 71.4733 67.2942 72.8883 67.2941ZM89.867 67.2941C91.3633 67.2942 92.3762 68.2839 92.3764 69.7893C92.3764 71.304 91.3634 72.2853 89.867 72.2854C88.3704 72.2854 87.3532 71.3041 87.3532 69.7893C87.3534 68.2838 88.3706 67.2941 89.867 67.2941ZM81.4205 68.8957C81.5561 69.4517 81.6785 70.0528 81.8006 70.6449C81.9407 70.0528 82.0811 69.4517 82.2257 68.8957L82.6191 67.4037H83.998L84.3913 68.8957C84.5359 69.4517 84.6763 70.0528 84.8164 70.6449C84.934 70.0528 85.0513 69.4562 85.1824 68.8957L85.5395 67.4037H87.2038L85.7339 72.1785H84.1288L83.6002 70.3921C83.5007 70.0395 83.4052 69.6643 83.3103 69.289C83.2154 69.6642 83.1208 70.0395 83.0168 70.3921L82.4874 72.1785H80.8822L79.4132 67.4037H81.0502L81.4205 68.8957ZM96.1595 67.3948V68.6791C96.0463 68.6746 95.771 68.665 95.5452 68.665C94.989 68.665 94.6047 69.0545 94.6047 69.7327V72.1785H93.049V67.4037H94.5543V68.2452H94.5685C94.7402 67.6394 95.0971 67.3861 95.7343 67.386C95.9015 67.386 96.033 67.3903 96.1595 67.3948ZM77.9936 67.4028H78.9748V68.6058H77.9936V70.5725C77.9937 70.8799 78.0884 70.9746 78.4365 70.9746H78.9748V72.1776H78.0926C76.9489 72.1776 76.4337 71.7617 76.4336 70.835V68.6058H75.6195V67.4028H76.4336V66.1008H77.9936V67.4028ZM107.481 67.2994C108.517 67.2994 109.123 68.0003 109.123 69.1759V72.1776H107.567V69.5012C107.567 68.936 107.282 68.6288 106.789 68.6288C106.297 68.6289 105.98 68.9315 105.98 69.5825V72.1776H104.425V67.4028H105.962V68.1762C106.278 67.6291 106.762 67.2994 107.481 67.2994ZM67.4903 68.5006C67.6486 68.7539 67.9335 69.2606 68.1957 69.7442C68.1821 69.2107 68.1727 68.663 68.1727 68.3601V65.4397H69.8008V72.1767H68.1143L66.3598 69.373C66.1654 69.061 65.8443 68.5095 65.4962 67.8766C65.5188 68.5321 65.5236 69.0882 65.5236 69.3686V72.1767H63.8955V65.4397H65.5776L67.4903 68.5006ZM98.295 69.0972H98.3126L99.764 67.4019H101.559L99.7826 69.4861L101.636 72.1767H99.8409L98.6247 70.3727L98.295 70.7572V72.1767H96.7393V65.4397H98.295V69.0972ZM103.558 72.1767H102.002V67.4019H103.558V72.1767ZM89.867 68.5324C89.3245 68.5324 88.9311 68.9847 88.931 69.7893C88.931 70.5987 89.3199 71.0471 89.867 71.0471C90.4094 71.0469 90.8022 70.5985 90.8022 69.7893C90.8021 68.9849 90.4093 68.5326 89.867 68.5324ZM112.297 68.5059C111.727 68.506 111.375 68.9585 111.375 69.7133C111.375 70.4728 111.727 70.925 112.297 70.9251C112.885 70.9251 113.288 70.4503 113.288 69.7133C113.288 68.981 112.884 68.5059 112.297 68.5059ZM72.9289 68.4423C72.4047 68.4423 72.0652 68.7405 71.9973 69.2422H73.8606C73.7926 68.7405 73.4488 68.4423 72.9289 68.4423ZM102.775 65.3672C103.277 65.3673 103.635 65.6928 103.635 66.1494C103.634 66.6059 103.277 66.936 102.775 66.9361C102.278 66.9361 101.921 66.6059 101.921 66.1494C101.921 65.6927 102.278 65.3672 102.775 65.3672Z" fill="black"/>
<path d="M53.5756 67.3066C54.9093 67.3066 55.7554 67.9396 55.7827 68.9568H54.349C54.3398 68.6224 54.0416 68.3736 53.6304 68.3735C53.2234 68.3735 52.9878 68.5502 52.9878 68.7854C52.9879 68.9841 53.1734 69.1154 53.5031 69.1787L54.4621 69.3546C55.4432 69.5355 55.9046 69.9476 55.9046 70.6575C55.9044 71.6384 55.0001 72.2987 53.6622 72.2989C52.3421 72.2989 51.4148 71.6702 51.3287 70.653H52.8614C52.9067 71.0055 53.1827 71.2267 53.6392 71.2267C54.0686 71.2267 54.3215 71.0596 54.3216 70.8201C54.3216 70.6122 54.123 70.4858 53.7435 70.4179L52.8799 70.2641C51.9396 70.0969 51.4376 69.6128 51.4374 68.8578C51.4374 67.9129 52.2464 67.3067 53.5756 67.3066ZM48.4755 67.296C49.9088 67.296 50.8991 68.309 50.8991 69.7559V70.1766H47.5757C47.5939 70.7823 47.9561 71.1666 48.5709 71.1666C49.0273 71.1665 49.3523 70.9675 49.4655 70.6513H50.8629C50.6865 71.6143 49.7233 72.2882 48.5161 72.2882C47.0514 72.2882 46.0572 71.2479 46.0571 69.7921C46.0571 68.3362 47.0604 67.2961 48.4755 67.296ZM41.11 68.0889C41.2411 68.5184 41.4492 69.2599 41.6165 69.8973C41.7837 69.2599 41.9875 68.5185 42.1141 68.0889L42.9732 65.4434H45.3827V72.1804H43.7873V69.2644C43.7873 68.8033 43.8231 67.9486 43.8412 67.1484C43.6152 67.9667 43.3848 68.8123 43.2402 69.2644L42.2723 72.1804H40.9571L39.9706 69.2644C39.8305 68.8304 39.6044 68.0253 39.3828 67.2386C39.4009 68.0117 39.4332 68.8213 39.4332 69.2644V72.1804H37.8369V65.4434H40.242L41.11 68.0889ZM58.1011 68.1428C58.4221 67.6184 58.9014 67.3023 59.602 67.3022C60.6372 67.3022 61.2432 68.0024 61.2434 69.1778V72.1804H59.6886V69.504C59.6886 68.9388 59.4035 68.6308 58.9108 68.6307C58.4179 68.6307 58.1011 68.9342 58.1011 69.5853V72.1804H56.5463V65.4434H58.1011V68.1428ZM48.5161 68.4442C47.9918 68.4443 47.6523 68.7432 47.5845 69.245H49.4478C49.38 68.7431 49.0361 68.4442 48.5161 68.4442Z" fill="black"/>
<path d="M74.2471 55.9292V55.1895H78.689V55.9292H76.8948V60.8418H76.0489V55.9292H74.2471Z" fill="black"/>
<path d="M69.0278 60.8418V55.1895H69.961L72.1194 58.6074C72.1851 58.7136 72.2749 58.8641 72.3887 59.0588C72.5025 59.2536 72.6163 59.4508 72.7301 59.6506C72.7225 59.4458 72.7162 59.2384 72.7111 59.0285C72.7086 58.816 72.7073 58.658 72.7073 58.5543V55.1895H73.5532V60.8418H72.6125L70.6817 57.788C70.6033 57.6641 70.4895 57.4795 70.3403 57.2342C70.1936 56.9863 70.0267 56.7018 69.8396 56.3806C69.8522 56.7119 69.8598 56.9977 69.8624 57.2379C69.8674 57.4757 69.8699 57.6578 69.8699 57.7842V60.8418H69.0278Z" fill="black"/>
<path d="M64.4531 60.8418V55.1895H68.254V55.9292H65.2952V57.5945H68.034V58.3267H65.2952V60.102H68.254V60.8418H64.4531Z" fill="black"/>
<path d="M60.2344 60.8418V55.1895H61.0765V60.102H63.7508V60.8418H60.2344Z" fill="black"/>
<path d="M54.5454 60.8418L56.5976 55.1895H57.6142L59.6512 60.8418H58.737L58.2363 59.3737H55.9565L55.4406 60.8418H54.5454ZM56.2107 58.6567H57.9897L57.6483 57.6552C57.5725 57.4226 57.4915 57.1735 57.4056 56.9079C57.3196 56.6424 57.221 56.3262 57.1097 55.9595C56.9959 56.3262 56.896 56.6424 56.81 56.9079C56.724 57.1735 56.6418 57.4226 56.5634 57.6552L56.2107 58.6567Z" fill="black"/>
<path d="M52.1742 60.8418L50.1221 55.1895H51.0287L52.1477 58.376C52.216 58.5808 52.2944 58.8224 52.3829 59.1006C52.4714 59.3787 52.5751 59.7037 52.6939 60.0755C52.8077 59.7037 52.9076 59.3787 52.9936 59.1006C53.0821 58.8224 53.1605 58.5808 53.2288 58.376L54.3175 55.1895H55.2089L53.1871 60.8418H52.1742Z" fill="black"/>
<path d="M47.4363 60.934C46.9356 60.934 46.4892 60.8114 46.0973 60.566C45.7053 60.3207 45.3968 59.9793 45.1717 59.5418C44.9492 59.1043 44.8379 58.5972 44.8379 58.0206C44.8379 57.4415 44.9492 56.9331 45.1717 56.4956C45.3968 56.0556 45.7053 55.7129 46.0973 55.4676C46.4892 55.2223 46.9356 55.0996 47.4363 55.0996C47.9396 55.0996 48.3872 55.2223 48.7791 55.4676C49.1711 55.7129 49.4784 56.0556 49.7009 56.4956C49.926 56.9331 50.0385 57.4415 50.0385 58.0206C50.0385 58.5972 49.926 59.1043 49.7009 59.5418C49.4784 59.9793 49.1711 60.3207 48.7791 60.566C48.3872 60.8114 47.9396 60.934 47.4363 60.934ZM47.4363 60.1639C47.7625 60.1639 48.0584 60.0817 48.3239 59.9174C48.5895 59.7504 48.8006 59.5077 48.9574 59.189C49.1142 58.8678 49.1926 58.4784 49.1926 58.0206C49.1926 57.5603 49.1142 57.1696 48.9574 56.8484C48.8006 56.5272 48.5895 56.2844 48.3239 56.1201C48.0584 55.9531 47.7625 55.8697 47.4363 55.8697C47.1126 55.8697 46.818 55.9531 46.5525 56.1201C46.2869 56.2844 46.0758 56.5272 45.919 56.8484C45.7622 57.1696 45.6838 57.5603 45.6838 58.0206C45.6838 58.4784 45.7622 58.8678 45.919 59.189C46.0758 59.5077 46.2869 59.7504 46.5525 59.9174C46.818 60.0817 47.1126 60.1639 47.4363 60.1639Z" fill="black"/>
<path d="M42.1331 60.934C41.4553 60.934 40.9205 60.7633 40.5285 60.4219C40.1391 60.078 39.9443 59.6076 39.9443 59.0107H40.7865C40.789 59.3825 40.9078 59.6733 41.143 59.8832C41.3807 60.0931 41.7108 60.1981 42.1331 60.1981C42.5175 60.1981 42.8247 60.1172 43.0548 59.9553C43.2875 59.7909 43.4038 59.5709 43.4038 59.2952C43.4038 59.0777 43.3204 58.902 43.1535 58.7679C42.9891 58.6314 42.7109 58.5163 42.3189 58.4227L41.7006 58.2748C41.1291 58.1382 40.7118 57.9485 40.4488 57.7057C40.1884 57.4604 40.0581 57.1418 40.0581 56.7498C40.0581 56.4185 40.1416 56.1289 40.3085 55.8811C40.4754 55.6332 40.7093 55.441 41.0103 55.3045C41.3137 55.1679 41.6678 55.0996 42.0724 55.0996C42.6818 55.0996 43.1661 55.2589 43.5252 55.5776C43.8868 55.8962 44.0765 56.3312 44.0942 56.8826H43.2787C43.2584 56.5563 43.1396 56.3009 42.9221 56.1163C42.7046 55.9291 42.4176 55.8355 42.061 55.8355C41.7196 55.8355 41.4402 55.9177 41.2227 56.0821C41.0052 56.244 40.8965 56.4526 40.8965 56.7081C40.8965 56.9129 40.9799 57.0798 41.1468 57.2088C41.3137 57.3352 41.5906 57.4453 41.9775 57.5388L42.5883 57.683C43.1547 57.817 43.572 58.0105 43.8401 58.2634C44.1107 58.5163 44.2459 58.8451 44.2459 59.2497C44.2459 59.5886 44.1587 59.8845 43.9842 60.1374C43.8097 60.3903 43.5644 60.5863 43.2483 60.7254C42.9322 60.8645 42.5605 60.934 42.1331 60.934Z" fill="black"/>
<path d="M39.1439 55.1895V60.8418H38.3018V55.1895H39.1439Z" fill="black"/>
<path d="M17.8267 69.9412C17.1893 70.404 16.7055 71.0656 16.4668 71.835L13.2222 69.5072C13.8596 69.0444 14.3434 68.3829 14.5821 67.6134L17.8267 69.9412Z" fill="#006BFF"/>
<path d="M25.4044 67.6134C25.6431 68.3829 26.1269 69.0444 26.7643 69.5072L23.5197 71.835C23.281 71.0655 22.7973 70.404 22.1598 69.9412L25.4044 67.6134Z" fill="#006BFF"/>
<path d="M21.1591 69.4264C20.7927 69.3045 20.4007 69.2386 19.9933 69.2386C19.586 69.2386 19.194 69.3045 18.8276 69.4264V66.7189C19.194 66.8408 19.5859 66.907 19.9933 66.907C20.4007 66.907 20.7927 66.8408 21.1591 66.7189V69.4264Z" fill="#006BFF"/>
<path d="M16.3038 63.3359C16.3303 64.1623 16.6285 64.9199 17.1119 65.5228L14.745 66.3975C14.7185 65.5711 14.4204 64.8135 13.9369 64.2107L16.3038 63.3359Z" fill="#006BFF"/>
<path d="M26.0496 64.2107C25.5662 64.8135 25.268 65.5711 25.2414 66.3975L22.8746 65.5228C23.358 64.9199 23.6562 64.1624 23.6827 63.3359L26.0496 64.2107Z" fill="#006BFF"/>
<path d="M22.7137 72.9311C22.7137 74.4335 21.4959 75.6513 19.9936 75.6513C18.4913 75.6513 17.2734 74.4335 17.2734 72.9311C17.2734 71.4288 18.4913 70.2109 19.9936 70.2109C21.4959 70.2109 22.7137 71.4288 22.7137 72.9311Z" fill="#006BFF"/>
<path d="M25.8227 52.3359C27.325 52.3359 28.5428 53.5538 28.5428 55.0561C28.5428 55.9216 28.1385 56.6924 27.5087 57.1906L29.308 63.8256C30.6321 64.009 31.6516 65.1453 31.6516 66.5198C31.6516 68.0222 30.4337 69.24 28.9314 69.24C27.4291 69.24 26.2112 68.0222 26.2112 66.5198C26.2112 65.6544 26.6153 64.8834 27.2452 64.3852L25.4456 57.7502C25.3755 57.7404 25.3062 57.7281 25.2379 57.7132L22.3173 61.8018C22.5689 62.2141 22.7139 62.6985 22.7139 63.2167C22.7139 64.7191 21.496 65.9369 19.9937 65.9369C18.4914 65.9369 17.2736 64.7191 17.2736 63.2167C17.2736 62.6985 17.4183 62.214 17.6698 61.8018L14.7493 57.7132C14.6809 57.7281 14.6116 57.7404 14.5415 57.7502L12.7421 64.3852C13.372 64.8834 13.7762 65.6544 13.7762 66.5198C13.7762 68.0222 12.5584 69.24 11.0561 69.24C9.55379 69.24 8.33594 68.0222 8.33594 66.5198C8.33594 65.1454 9.35532 64.0091 10.6793 63.8256L12.4786 57.1906C11.8488 56.6924 11.4447 55.9215 11.4447 55.0561C11.4447 53.5538 12.6625 52.3359 14.1648 52.3359C15.6671 52.3359 16.885 53.5538 16.885 55.0561C16.885 55.5743 16.7401 56.0585 16.4886 56.4707L19.4091 60.5595C19.5975 60.5183 19.7931 60.4965 19.9937 60.4965C20.1944 60.4965 20.3899 60.5183 20.5782 60.5595L23.4987 56.4707C23.2473 56.0585 23.1025 55.5742 23.1025 55.0561C23.1025 53.5538 24.3204 52.3359 25.8227 52.3359Z" fill="url(#paint2_linear_229_13965)"/>
<path d="M22.3191 53.8906C22.1972 54.2571 22.131 54.649 22.131 55.0564C22.131 55.4638 22.1972 55.8558 22.3191 56.2222H17.6685C17.7903 55.8558 17.8565 55.4638 17.8565 55.0564C17.8565 54.649 17.7903 54.2571 17.6685 53.8906H22.3191Z" fill="#006BFF"/>
<defs>
<linearGradient id="paint0_linear_229_13965" x1="12.0479" y1="-5.73169" x2="133.698" y2="19.2824" gradientUnits="userSpaceOnUse">
<stop stop-color="white"/>
<stop offset="1" stop-color="#E7F3FF"/>
</linearGradient>
<linearGradient id="paint1_linear_229_13965" x1="2" y1="59.5237" x2="98.324" y2="115.819" gradientUnits="userSpaceOnUse">
<stop stop-color="#37A8FF"/>
<stop offset="1" stop-color="#3071FF"/>
</linearGradient>
<linearGradient id="paint2_linear_229_13965" x1="8.33594" y1="63.0112" x2="32.8009" y2="62.5391" gradientUnits="userSpaceOnUse">
<stop stop-color="#19C9FF"/>
<stop offset="1" stop-color="#049FFC"/>
</linearGradient>
</defs>
</svg>
