<svg width="128" height="128" viewBox="0 0 128 128" fill="none" xmlns="http://www.w3.org/2000/svg">
<path d="M2 6C2 3.79086 3.79086 2 6 2H122C124.209 2 126 3.79086 126 6V122C126 124.209 124.209 126 122 126H6C3.79086 126 2 124.209 2 122V6Z" fill="url(#paint0_linear_229_14346)"/>
<path d="M122 122V126H6V122H122ZM122 6H6V126C3.79086 126 2 124.209 2 122V6C2 3.85997 3.68056 2.11211 5.79395 2.00488L6 2H122L122.206 2.00488C124.319 2.11212 126 3.85996 126 6V122L125.995 122.206C125.888 124.319 124.14 126 122 126V6Z" fill="url(#paint1_linear_229_14346)"/>
<path d="M53.8907 91.1424C50.9656 93.2666 48.7453 96.3027 47.6499 99.8341L32.7598 89.1509C35.6851 87.0266 37.9052 83.9909 39.0006 80.4592L53.8907 91.1424Z" fill="#006BFF"/>
<path d="M88.6666 80.4592C89.7619 83.9908 91.9823 87.0266 94.9074 89.1509L80.0172 99.8341C78.9217 96.3026 76.7017 93.2666 73.7764 91.1424L88.6666 80.4592Z" fill="#006BFF"/>
<path d="M69.184 88.7799C67.5023 88.2206 65.7035 87.9178 63.834 87.9178C61.9645 87.9178 60.1657 88.2206 58.484 88.7799V76.3541C60.1658 76.9134 61.9644 77.2171 63.834 77.2171C65.7036 77.2171 67.5022 76.9134 69.184 76.3541V88.7799Z" fill="#006BFF"/>
<path d="M46.9019 60.8281C47.0237 64.6207 48.3922 68.0977 50.6105 70.8644L39.7486 74.8789C39.6265 71.0862 38.2585 67.6093 36.0399 64.8426L46.9019 60.8281Z" fill="#006BFF"/>
<path d="M91.6272 64.8426C89.4088 67.6092 88.0406 71.0864 87.9186 74.8789L77.0566 70.8644C79.2751 68.0976 80.6434 64.6209 80.7652 60.8281L91.6272 64.8426Z" fill="#006BFF"/>
<path d="M76.3202 104.851C76.3202 111.746 70.7312 117.335 63.8368 117.335C56.9425 117.335 51.3535 111.746 51.3535 104.851C51.3535 97.9565 56.9425 92.3672 63.8368 92.3672C70.7312 92.3672 76.3202 97.9565 76.3202 104.851Z" fill="#006BFF"/>
<path d="M90.5859 10.3359C97.4803 10.3359 103.069 15.9253 103.069 22.8201C103.069 26.7919 101.214 30.3295 98.3236 32.616L106.581 63.0671C112.657 63.9088 117.336 69.1237 117.336 75.4319C117.336 82.3267 111.747 87.9161 104.853 87.9161C97.9582 87.9161 92.3693 82.3267 92.3693 75.4319C92.3693 71.4602 94.2238 67.9216 97.1141 65.6351L88.8557 35.1841C88.5338 35.1394 88.2158 35.083 87.9022 35.0143L74.4994 53.7788C75.6538 55.6708 76.3193 57.894 76.3193 60.2726C76.3193 67.1674 70.7303 72.7568 63.8359 72.7568C56.9416 72.7568 51.3526 67.1674 51.3526 60.2726C51.3526 57.8943 52.0166 55.6707 53.1708 53.7788L39.7679 35.0143C39.4543 35.0829 39.1363 35.1395 38.8144 35.1841L30.5569 65.6351C33.4476 67.9216 35.3026 71.46 35.3026 75.4319C35.3026 82.3267 29.7136 87.9161 22.8193 87.9161C15.9249 87.9161 10.3359 82.3267 10.3359 75.4319C10.3359 69.124 15.0141 63.9092 21.0899 63.0671L29.3474 32.616C26.4573 30.3295 24.6026 26.7916 24.6026 22.8201C24.6026 15.9253 30.1916 10.3359 37.0859 10.3359C43.9803 10.3359 49.5693 15.9253 49.5693 22.8201C49.5693 25.198 48.9041 27.4205 47.7502 29.3121L61.1531 48.0775C62.0173 47.8883 62.915 47.7884 63.8359 47.7884C64.7566 47.7884 65.654 47.8884 66.5179 48.0775L79.9208 29.3121C78.767 27.4206 78.1026 25.1979 78.1026 22.8201C78.1026 15.9253 83.6916 10.3359 90.5859 10.3359Z" fill="url(#paint2_linear_229_14346)"/>
<path d="M74.509 17.4668C73.9497 19.1487 73.6461 20.9474 73.6461 22.8172C73.6461 24.6869 73.9497 26.4856 74.509 28.1675H53.1665C53.7258 26.4856 54.0294 24.6869 54.0294 22.8172C54.0294 20.9474 53.7258 19.1487 53.1665 17.4668H74.509Z" fill="#006BFF"/>
<defs>
<linearGradient id="paint0_linear_229_14346" x1="-19.5" y1="-42.5" x2="140" y2="143.5" gradientUnits="userSpaceOnUse">
<stop stop-color="white"/>
<stop offset="1" stop-color="#E7F3FF"/>
</linearGradient>
<linearGradient id="paint1_linear_229_14346" x1="2" y1="49.5065" x2="127.744" y2="70.4267" gradientUnits="userSpaceOnUse">
<stop stop-color="#37A8FF"/>
<stop offset="1" stop-color="#3071FF"/>
</linearGradient>
<linearGradient id="paint2_linear_229_14346" x1="10.3359" y1="59.3292" x2="122.61" y2="57.1629" gradientUnits="userSpaceOnUse">
<stop stop-color="#19C9FF"/>
<stop offset="1" stop-color="#049FFC"/>
</linearGradient>
</defs>
</svg>
