<svg width="128" height="128" viewBox="0 0 128 128" fill="none" xmlns="http://www.w3.org/2000/svg">
<path d="M2 6C2 3.79086 3.79086 2 6 2H122C124.209 2 126 3.79086 126 6V122C126 124.209 124.209 126 122 126H6C3.79086 126 2 124.209 2 122V6Z" fill="url(#paint0_linear_229_14206)"/>
<path d="M122 124V126H6V124H122ZM124 122V6C124 4.89543 123.105 4 122 4H6C4.89543 4 4 4.89543 4 6V122C4 123.105 4.89543 124 6 124V126C3.79086 126 2 124.209 2 122V6C2 3.85997 3.68056 2.11211 5.79395 2.00488L6 2H122L122.206 2.00488C124.319 2.11212 126 3.85996 126 6V122L125.995 122.206C125.888 124.319 124.14 126 122 126V124C123.105 124 124 123.105 124 122Z" fill="url(#paint1_linear_229_14206)"/>
<path d="M34.0044 48.8283C32.6835 49.7875 31.6808 51.1586 31.1861 52.7533L24.4619 47.9289C25.783 46.9696 26.7855 45.5987 27.2802 44.0038L34.0044 48.8283Z" fill="#006BFF"/>
<path d="M49.7088 44.0038C50.2034 45.5987 51.2061 46.9696 52.5271 47.9289L45.8029 52.7533C45.3081 51.1585 44.3056 49.7875 42.9846 48.8283L49.7088 44.0038Z" fill="#006BFF"/>
<path d="M40.9107 47.7614C40.1513 47.5088 39.3389 47.372 38.4947 47.372C37.6504 47.372 36.8381 47.5088 36.0787 47.7614V42.15C36.8382 42.4026 37.6504 42.5397 38.4947 42.5397C39.339 42.5397 40.1512 42.4026 40.9107 42.15V47.7614Z" fill="#006BFF"/>
<path d="M30.8483 35.1387C30.9034 36.8514 31.5213 38.4215 32.5231 39.6709L27.618 41.4838C27.5629 39.7711 26.9451 38.201 25.9432 36.9516L30.8483 35.1387Z" fill="#006BFF"/>
<path d="M51.0458 36.9516C50.044 38.2009 49.4261 39.7712 49.371 41.4838L44.4659 39.6709C45.4677 38.4215 46.0856 36.8514 46.1406 35.1387L51.0458 36.9516Z" fill="#006BFF"/>
<path d="M44.1331 55.0186C44.1331 58.1322 41.6091 60.6563 38.4957 60.6563C35.3823 60.6563 32.8584 58.1322 32.8584 55.0186C32.8584 51.9049 35.3823 49.3809 38.4957 49.3809C41.6091 49.3809 44.1331 51.9049 44.1331 55.0186Z" fill="#006BFF"/>
<path d="M50.5759 12.3359C53.6893 12.3359 56.2133 14.86 56.2133 17.9736C56.2133 19.7672 55.3754 21.3648 54.0702 22.3974L57.7992 36.1487C60.5431 36.5288 62.6559 38.8838 62.6559 41.7325C62.6559 44.8462 60.132 47.3702 57.0186 47.3702C53.9052 47.3702 51.3813 44.8462 51.3813 41.7325C51.3813 39.939 52.2187 38.341 53.524 37.3084L49.7946 23.5571C49.6492 23.5369 49.5056 23.5114 49.364 23.4804L43.3114 31.9543C43.8328 32.8087 44.1333 33.8126 44.1333 34.8868C44.1333 38.0004 41.6094 40.5245 38.4959 40.5245C35.3825 40.5245 32.8586 38.0004 32.8586 34.8868C32.8586 33.8127 33.1584 32.8086 33.6797 31.9543L27.6271 23.4804C27.4855 23.5114 27.3419 23.5369 27.1965 23.5571L23.4675 37.3084C24.7729 38.341 25.6106 39.9389 25.6106 41.7325C25.6106 44.8462 23.0867 47.3702 19.9733 47.3702C16.8599 47.3702 14.3359 44.8462 14.3359 41.7325C14.3359 38.8839 16.4485 36.529 19.1923 36.1487L22.9213 22.3974C21.6162 21.3648 20.7786 19.7671 20.7786 17.9736C20.7786 14.86 23.3025 12.3359 26.4159 12.3359C29.5294 12.3359 32.0533 14.86 32.0533 17.9736C32.0533 19.0475 31.7529 20.0511 31.2318 20.9054L37.2844 29.3796C37.6747 29.2941 38.08 29.2491 38.4959 29.2491C38.9117 29.2491 39.3169 29.2942 39.7071 29.3796L45.7597 20.9054C45.2387 20.0512 44.9386 19.0474 44.9386 17.9736C44.9386 14.86 47.4625 12.3359 50.5759 12.3359Z" fill="url(#paint2_linear_229_14206)"/>
<path d="M43.3153 15.5586C43.0627 16.3181 42.9256 17.1304 42.9256 17.9748C42.9256 18.8191 43.0627 19.6314 43.3153 20.3909H33.6772C33.9298 19.6314 34.0669 18.8191 34.0669 17.9748C34.0669 17.1304 33.9298 16.3181 33.6772 15.5586H43.3153Z" fill="#006BFF"/>
<path d="M87.917 115.954C85.6953 115.954 84.6289 114.949 84.4102 113.562H86.6592C86.7822 114.013 87.2402 114.286 87.917 114.286C88.792 114.286 89.2568 113.794 89.2568 112.837V111.723H89.25C88.8672 112.577 88.1221 112.953 87.1787 112.953C85.2852 112.953 84.0547 111.436 84.0547 109.316C84.0547 107.17 85.3262 105.625 87.1582 105.625C88.0947 105.625 88.7988 106.035 89.25 106.794H89.2568V105.782H91.5947V112.604C91.5947 114.956 90.1729 115.954 87.917 115.954ZM87.835 111.107C88.7236 111.107 89.332 110.39 89.332 109.275C89.332 108.168 88.7236 107.45 87.835 107.45C86.9736 107.45 86.4404 108.134 86.4404 109.275C86.4404 110.424 86.9736 111.107 87.835 111.107Z" fill="black"/>
<path d="M78.2852 109.077V113.001H75.9336V105.782H78.2578V106.951C78.7363 106.124 79.4678 105.625 80.5547 105.625C82.1201 105.625 83.0361 106.685 83.0361 108.462V113.001H80.6846V108.954C80.6846 108.1 80.2539 107.635 79.5088 107.635C78.7637 107.635 78.2852 108.093 78.2852 109.077Z" fill="black"/>
<path d="M72.2695 113V105.781H74.6211V113H72.2695ZM73.4385 105.077C72.6865 105.077 72.1465 104.578 72.1465 103.888C72.1465 103.197 72.6865 102.705 73.4385 102.705C74.1973 102.705 74.7373 103.197 74.7373 103.888C74.7373 104.578 74.1973 105.077 73.4385 105.077Z" fill="black"/>
<path d="M64.3125 113V102.814H66.6641V108.345H66.6914L68.8857 105.781H71.5996L68.9131 108.933L71.7158 113H69.002L67.1631 110.272L66.6641 110.854V113H64.3125Z" fill="black"/>
<path d="M58.7344 113V105.781H61.0107V107.053H61.0312C61.291 106.137 61.8311 105.754 62.7949 105.754C63.0479 105.754 63.2461 105.761 63.4375 105.768V107.709C63.2666 107.702 62.8496 107.688 62.5078 107.688C61.667 107.688 61.0859 108.276 61.0859 109.302V113H58.7344Z" fill="black"/>
<path d="M53.9219 113.164C51.6592 113.164 50.1211 111.681 50.1211 109.391C50.1211 107.114 51.6592 105.617 53.9219 105.617C56.1846 105.617 57.7158 107.114 57.7158 109.391C57.7158 111.681 56.1846 113.164 53.9219 113.164ZM53.9219 111.291C54.7422 111.291 55.3369 110.614 55.3369 109.391C55.3369 108.174 54.7422 107.49 53.9219 107.49C53.1016 107.49 52.5068 108.174 52.5068 109.391C52.5068 110.614 53.0947 111.291 53.9219 111.291Z" fill="black"/>
<path d="M40.3389 113L38.1172 105.781H40.5918L41.1523 108.037C41.3574 108.878 41.542 109.787 41.7266 110.683C41.9385 109.787 42.1504 108.878 42.3691 108.037L42.9639 105.781H45.0488L45.6436 108.037C45.8623 108.878 46.0742 109.787 46.2861 110.683C46.4639 109.787 46.6416 108.885 46.8398 108.037L47.3799 105.781H49.8955L47.6738 113H45.2471L44.4473 110.3C44.2969 109.767 44.1533 109.199 44.0098 108.632C43.8662 109.199 43.7227 109.767 43.5654 110.3L42.7656 113H40.3389Z" fill="black"/>
<path d="M37.4541 105.781V107.6H35.9707V110.573C35.9707 111.038 36.1143 111.182 36.6406 111.182H37.4541V113H36.1211C34.3916 113 33.6123 112.371 33.6123 110.97V107.6H32.3818V105.781H33.6123V103.812H35.9707V105.781H37.4541Z" fill="black"/>
<path d="M28.3145 113.164C26.0996 113.164 24.5957 111.592 24.5957 109.391C24.5957 107.189 26.1133 105.617 28.2529 105.617C30.4199 105.617 31.917 107.148 31.917 109.336V109.972H26.8926C26.9199 110.888 27.4668 111.469 28.3965 111.469C29.0869 111.469 29.5791 111.168 29.75 110.689H31.8623C31.5957 112.146 30.1396 113.164 28.3145 113.164ZM26.9062 108.563H29.7227C29.6201 107.805 29.1006 107.354 28.3145 107.354C27.5215 107.354 27.0088 107.805 26.9062 108.563Z" fill="black"/>
<path d="M14.6562 113V102.814H17.1992L20.0908 107.442C20.3301 107.825 20.7607 108.591 21.1572 109.322C21.1367 108.516 21.123 107.688 21.123 107.23V102.814H23.584V113H21.0342L18.3818 108.762C18.0879 108.29 17.6025 107.456 17.0762 106.499C17.1104 107.49 17.1172 108.331 17.1172 108.755V113H14.6562Z" fill="black"/>
<path d="M45.2949 92.0762V96H42.9434V85.8145H45.2949V89.8955C45.7803 89.1025 46.5049 88.624 47.5645 88.624C49.1299 88.624 50.0459 89.6836 50.0459 91.4609V96H47.6943V91.9531C47.6943 91.0986 47.2637 90.6338 46.5186 90.6338C45.7734 90.6338 45.2949 91.0918 45.2949 92.0762Z" fill="black"/>
<path d="M38.582 96.1777C36.5859 96.1777 35.1846 95.2275 35.0547 93.6895H37.3721C37.4404 94.2227 37.8574 94.5576 38.5479 94.5576C39.1973 94.5576 39.5801 94.3047 39.5801 93.9424C39.5801 93.6279 39.2793 93.4365 38.7051 93.334L37.3994 93.1016C35.9775 92.8486 35.2188 92.1172 35.2188 90.9756C35.2188 89.5469 36.4424 88.6309 38.4521 88.6309C40.4688 88.6309 41.7471 89.5879 41.7881 91.126H39.6211C39.6074 90.6201 39.1562 90.2441 38.5342 90.2441C37.9189 90.2441 37.5635 90.5107 37.5635 90.8662C37.5635 91.167 37.8438 91.3652 38.3428 91.4609L39.792 91.7275C41.2754 92.001 41.9727 92.623 41.9727 93.6963C41.9727 95.1797 40.6055 96.1777 38.582 96.1777Z" fill="black"/>
<path d="M30.8027 96.1641C28.5879 96.1641 27.084 94.5918 27.084 92.3906C27.084 90.1895 28.6016 88.6172 30.7412 88.6172C32.9082 88.6172 34.4053 90.1484 34.4053 92.3359V92.9717H29.3809C29.4082 93.8877 29.9551 94.4688 30.8848 94.4688C31.5752 94.4688 32.0674 94.168 32.2383 93.6895H34.3506C34.084 95.1455 32.6279 96.1641 30.8027 96.1641ZM29.3945 91.5635H32.2109C32.1084 90.8047 31.5889 90.3535 30.8027 90.3535C30.0098 90.3535 29.4971 90.8047 29.3945 91.5635Z" fill="black"/>
<path d="M14.6562 96V85.8145H18.293L19.6055 89.8135C19.8037 90.4629 20.1182 91.584 20.3711 92.5479C20.624 91.584 20.9316 90.4629 21.123 89.8135L22.4219 85.8145H26.0654V96H23.6523V91.5908C23.6523 90.8936 23.707 89.6016 23.7344 88.3916C23.3926 89.6289 23.0439 90.9072 22.8252 91.5908L21.3623 96H19.373L17.8828 91.5908C17.6709 90.9346 17.3291 89.7178 16.9941 88.5283C17.0215 89.6973 17.0693 90.9209 17.0693 91.5908V96H14.6562Z" fill="black"/>
<path d="M72.9336 69.7808V68.543H80.3667V69.7808H77.3643V78.001H75.9487V69.7808H72.9336Z" fill="black"/>
<path d="M64.4595 78.001V68.543H66.021L69.6328 74.2622C69.7428 74.4399 69.8931 74.6917 70.0835 75.0176C70.2739 75.3434 70.4644 75.6735 70.6548 76.0078C70.6421 75.665 70.6315 75.318 70.623 74.9668C70.6188 74.6113 70.6167 74.3468 70.6167 74.1733V68.543H72.0322V78.001H70.458L67.2271 72.8911C67.0959 72.6838 66.9054 72.3748 66.6558 71.9644C66.4103 71.5496 66.131 71.0736 65.8179 70.5361C65.839 71.0905 65.8517 71.5687 65.856 71.9707C65.8644 72.3685 65.8687 72.6732 65.8687 72.8848V78.001H64.4595Z" fill="black"/>
<path d="M57.064 78.001V68.543H63.4243V69.7808H58.4731V72.5674H63.0562V73.7925H58.4731V76.7632H63.4243V78.001H57.064Z" fill="black"/>
<path d="M50.2656 78.001V68.543H51.6748V76.7632H56.1499V78.001H50.2656Z" fill="black"/>
<path d="M41.0039 78.001L44.438 68.543H46.1392L49.5479 78.001H48.0181L47.1802 75.5444H43.3652L42.502 78.001H41.0039ZM43.7905 74.3447H46.7676L46.1963 72.6689C46.0693 72.2796 45.9339 71.8628 45.79 71.4185C45.6462 70.9741 45.4811 70.4451 45.2949 69.8315C45.1045 70.4451 44.9373 70.9741 44.7935 71.4185C44.6496 71.8628 44.512 72.2796 44.3809 72.6689L43.7905 74.3447Z" fill="black"/>
<path d="M37.2969 78.001L33.8628 68.543H35.3799L37.2524 73.875C37.3667 74.2178 37.4979 74.6219 37.646 75.0874C37.7941 75.5529 37.9676 76.0967 38.1665 76.7188C38.3569 76.0967 38.5241 75.5529 38.668 75.0874C38.8161 74.6219 38.9473 74.2178 39.0615 73.875L40.8833 68.543H42.375L38.9917 78.001H37.2969Z" fill="black"/>
<path d="M29.6284 78.1533C28.7905 78.1533 28.0436 77.9481 27.3877 77.5376C26.7318 77.1271 26.2155 76.5558 25.8389 75.8237C25.4665 75.0916 25.2803 74.2432 25.2803 73.2783C25.2803 72.3092 25.4665 71.4587 25.8389 70.7266C26.2155 69.9902 26.7318 69.4168 27.3877 69.0063C28.0436 68.5959 28.7905 68.3906 29.6284 68.3906C30.4705 68.3906 31.2196 68.5959 31.8755 69.0063C32.5314 69.4168 33.0456 69.9902 33.418 70.7266C33.7946 71.4587 33.9829 72.3092 33.9829 73.2783C33.9829 74.2432 33.7946 75.0916 33.418 75.8237C33.0456 76.5558 32.5314 77.1271 31.8755 77.5376C31.2196 77.9481 30.4705 78.1533 29.6284 78.1533ZM29.6284 76.8647C30.1743 76.8647 30.6694 76.7272 31.1138 76.4521C31.5581 76.1729 31.9115 75.7666 32.1738 75.2334C32.4362 74.696 32.5674 74.0443 32.5674 73.2783C32.5674 72.5081 32.4362 71.8543 32.1738 71.3169C31.9115 70.7795 31.5581 70.3732 31.1138 70.0981C30.6694 69.8188 30.1743 69.6792 29.6284 69.6792C29.0868 69.6792 28.5938 69.8188 28.1494 70.0981C27.7051 70.3732 27.3517 70.7795 27.0894 71.3169C26.827 71.8543 26.6958 72.5081 26.6958 73.2783C26.6958 74.0443 26.827 74.696 27.0894 75.2334C27.3517 75.7666 27.7051 76.1729 28.1494 76.4521C28.5938 76.7272 29.0868 76.8647 29.6284 76.8647Z" fill="black"/>
<path d="M21.0146 78.1533C19.8805 78.1533 18.9855 77.8677 18.3296 77.2964C17.6779 76.7209 17.3521 75.9338 17.3521 74.9351H18.7612C18.7655 75.5571 18.9644 76.0438 19.3579 76.395C19.7557 76.7463 20.3079 76.9219 21.0146 76.9219C21.6579 76.9219 22.172 76.7865 22.5571 76.5156C22.9465 76.2406 23.1411 75.8724 23.1411 75.4111C23.1411 75.0472 23.0015 74.7531 22.7222 74.5288C22.4471 74.3003 21.9816 74.1077 21.3257 73.9512L20.291 73.7036C19.3346 73.4751 18.6364 73.1577 18.1963 72.7515C17.7604 72.341 17.5425 71.8078 17.5425 71.1519C17.5425 70.5975 17.6821 70.113 17.9614 69.6982C18.2407 69.2835 18.6322 68.9619 19.1357 68.7334C19.6436 68.5049 20.236 68.3906 20.9131 68.3906C21.9329 68.3906 22.7433 68.6572 23.3442 69.1904C23.9494 69.7236 24.2668 70.4515 24.2964 71.374H22.9316C22.8978 70.8281 22.6989 70.4007 22.335 70.0918C21.971 69.7786 21.4907 69.6221 20.894 69.6221C20.3228 69.6221 19.8551 69.7596 19.4912 70.0347C19.1273 70.3055 18.9453 70.6546 18.9453 71.082C18.9453 71.4248 19.085 71.7041 19.3643 71.9199C19.6436 72.1315 20.1069 72.3156 20.7544 72.4722L21.7764 72.7134C22.7243 72.9377 23.4225 73.2614 23.8711 73.6846C24.3239 74.1077 24.5503 74.6579 24.5503 75.335C24.5503 75.902 24.4043 76.3971 24.1123 76.8203C23.8203 77.2435 23.4098 77.5715 22.8809 77.8042C22.3519 78.0369 21.7298 78.1533 21.0146 78.1533Z" fill="black"/>
<path d="M16.2725 68.543V78.001H14.8633V68.543H16.2725Z" fill="black"/>
<defs>
<linearGradient id="paint0_linear_229_14206" x1="-19.5" y1="-42.5" x2="140" y2="143.5" gradientUnits="userSpaceOnUse">
<stop stop-color="white"/>
<stop offset="1" stop-color="#E7F3FF"/>
</linearGradient>
<linearGradient id="paint1_linear_229_14206" x1="2" y1="49.5065" x2="127.744" y2="70.4267" gradientUnits="userSpaceOnUse">
<stop stop-color="#37A8FF"/>
<stop offset="1" stop-color="#3071FF"/>
</linearGradient>
<linearGradient id="paint2_linear_229_14206" x1="14.3359" y1="34.4607" x2="65.0378" y2="33.4825" gradientUnits="userSpaceOnUse">
<stop stop-color="#19C9FF"/>
<stop offset="1" stop-color="#049FFC"/>
</linearGradient>
</defs>
</svg>
