<svg width="128" height="128" viewBox="0 0 128 128" fill="none" xmlns="http://www.w3.org/2000/svg">
<path d="M119.735 70.2031C117.594 70.2031 116.055 69.1797 115.915 67.4062H118.18C118.266 68.125 118.797 68.5547 119.696 68.5547C120.547 68.5547 121.071 68.1953 121.071 67.6875C121.071 67.25 120.672 66.9922 120 66.8594L118.555 66.5781C116.954 66.2656 116.102 65.4531 116.102 64.1719C116.102 62.6094 117.454 61.5781 119.602 61.5781C121.735 61.5781 123.141 62.6484 123.188 64.3672H121.055C121.04 63.7031 120.477 63.2109 119.665 63.2109C118.875 63.2109 118.399 63.5938 118.399 64.0859C118.399 64.5078 118.766 64.7812 119.399 64.9141L120.961 65.2188C122.625 65.5469 123.391 66.2656 123.391 67.4766C123.391 69.125 121.891 70.2031 119.735 70.2031Z" fill="#6A6A6A"/>
<path d="M111.086 70.1875C108.586 70.1875 106.961 68.3906 106.961 65.8828C106.961 63.3672 108.641 61.5625 111.008 61.5625C113.438 61.5625 115.071 63.3203 115.071 65.8359V66.4531H109.204C109.243 67.6719 109.946 68.4609 111.157 68.4609C112.055 68.4609 112.672 68.0469 112.883 67.4062H114.985C114.68 69.0469 113.086 70.1875 111.086 70.1875ZM109.219 64.9844H112.899C112.782 63.9531 112.094 63.3125 111.055 63.3125C110.024 63.3125 109.344 63.9531 109.219 64.9844Z" fill="#6A6A6A"/>
<path d="M102.211 70.1875C99.7271 70.1875 98.0708 68.4375 98.0708 65.8828C98.0708 63.3281 99.7349 61.5625 102.211 61.5625C104.383 61.5625 105.938 62.9141 106.086 64.8359H103.86C103.743 63.9922 103.165 63.4219 102.243 63.4219C101.079 63.4219 100.391 64.375 100.391 65.8828C100.391 67.3828 101.086 68.3281 102.243 68.3281C103.172 68.3281 103.696 67.7656 103.844 66.8984H106.086C105.985 68.8047 104.407 70.1875 102.211 70.1875Z" fill="#6A6A6A"/>
<path d="M92.1099 70.1406C90.4614 70.1406 89.2739 69.3203 89.2739 67.6719C89.2739 65.8125 90.7739 65.2812 92.4927 65.125C94.0005 64.9766 94.5317 64.9062 94.5317 64.375V64.3203C94.5317 63.7109 94.0239 63.2891 93.1802 63.2891C92.3208 63.2891 91.7583 63.7266 91.7036 64.3594H89.5396C89.6411 62.6562 90.9849 61.5781 93.2505 61.5781C95.5083 61.5781 96.8052 62.6406 96.8052 64.4062V70H94.5552V68.8359H94.5239C94.0864 69.6406 93.3755 70.1406 92.1099 70.1406ZM92.7505 68.5391C93.8599 68.5391 94.5474 67.875 94.5474 66.9844V66.1562C94.2817 66.3047 93.6333 66.4141 92.8911 66.5312C92.1021 66.6484 91.4771 66.9531 91.4771 67.6094C91.4771 68.1953 91.9771 68.5391 92.7505 68.5391Z" fill="#6A6A6A"/>
<path d="M79.8989 73.2656V61.75H82.1724V62.8672H82.1958C82.7036 62.0078 83.5708 61.5781 84.6411 61.5781C86.7505 61.5781 88.1958 63.3359 88.1958 65.8672C88.1958 68.4531 86.7817 70.1719 84.6255 70.1719C83.5396 70.1719 82.7036 69.6953 82.2271 68.7656H82.2036V73.2656H79.8989ZM84.0317 68.2969C85.1489 68.2969 85.8755 67.4141 85.8755 65.8672C85.8755 64.3203 85.1489 63.4375 84.0317 63.4375C82.8677 63.4375 82.0942 64.3984 82.0942 65.8672C82.0942 67.3438 82.8677 68.2969 84.0317 68.2969Z" fill="#6A6A6A"/>
<path d="M75.0005 70.2031C72.8599 70.2031 71.3208 69.1797 71.1802 67.4062H73.4458C73.5317 68.125 74.063 68.5547 74.9614 68.5547C75.813 68.5547 76.3364 68.1953 76.3364 67.6875C76.3364 67.25 75.938 66.9922 75.2661 66.8594L73.8208 66.5781C72.2192 66.2656 71.3677 65.4531 71.3677 64.1719C71.3677 62.6094 72.7192 61.5781 74.8677 61.5781C77.0005 61.5781 78.4067 62.6484 78.4536 64.3672H76.3208C76.3052 63.7031 75.7427 63.2109 74.9302 63.2109C74.1411 63.2109 73.6646 63.5938 73.6646 64.0859C73.6646 64.5078 74.0317 64.7812 74.6646 64.9141L76.2271 65.2188C77.8911 65.5469 78.6567 66.2656 78.6567 67.4766C78.6567 69.125 77.1567 70.2031 75.0005 70.2031Z" fill="#6A6A6A"/>
<path d="M66.3521 70.1875C63.8521 70.1875 62.2271 68.3906 62.2271 65.8828C62.2271 63.3672 63.9067 61.5625 66.2739 61.5625C68.7036 61.5625 70.3364 63.3203 70.3364 65.8359V66.4531H64.4692C64.5083 67.6719 65.2114 68.4609 66.4224 68.4609C67.3208 68.4609 67.938 68.0469 68.1489 67.4062H70.2505C69.9458 69.0469 68.3521 70.1875 66.3521 70.1875ZM64.4849 64.9844H68.1646C68.0474 63.9531 67.3599 63.3125 66.3208 63.3125C65.2896 63.3125 64.6099 63.9531 64.4849 64.9844Z" fill="#6A6A6A"/>
<path d="M48.4458 70V61.75H50.6646V63.2344C51.1567 62.1172 52.1177 61.5781 53.1646 61.5781C54.2739 61.5781 55.2036 62.1797 55.5474 63.1875C55.9771 62.1797 56.9927 61.5781 58.188 61.5781C59.7739 61.5781 60.9536 62.6406 60.9536 64.5312V70H58.6567V64.9531C58.6567 63.9609 58.0474 63.4766 57.2583 63.4766C56.3677 63.4766 55.813 64.1094 55.813 65.0312V70H53.5942V64.8906C53.5942 64.0312 53.0317 63.4766 52.2271 63.4766C51.4067 63.4766 50.7505 64.0703 50.7505 65.1328V70H48.4458Z" fill="#6A6A6A"/>
<path d="M42.1255 70.1406C40.4771 70.1406 39.2896 69.3203 39.2896 67.6719C39.2896 65.8125 40.7896 65.2812 42.5083 65.125C44.0161 64.9766 44.5474 64.9062 44.5474 64.375V64.3203C44.5474 63.7109 44.0396 63.2891 43.1958 63.2891C42.3364 63.2891 41.7739 63.7266 41.7192 64.3594H39.5552C39.6567 62.6562 41.0005 61.5781 43.2661 61.5781C45.5239 61.5781 46.8208 62.6406 46.8208 64.4062V70H44.5708V68.8359H44.5396C44.1021 69.6406 43.3911 70.1406 42.1255 70.1406ZM42.7661 68.5391C43.8755 68.5391 44.563 67.875 44.563 66.9844V66.1562C44.2974 66.3047 43.6489 66.4141 42.9067 66.5312C42.1177 66.6484 41.4927 66.9531 41.4927 67.6094C41.4927 68.1953 41.9927 68.5391 42.7661 68.5391Z" fill="#6A6A6A"/>
<path d="M28.0474 70V58.3594H30.5786L34.3208 64.3125C34.5942 64.75 35.0942 65.6328 35.5552 66.4688C35.5239 65.5703 35.5161 64.6094 35.5161 64.1172V58.3594H37.9146V70H35.3755L31.9849 64.6094C31.6489 64.0781 31.0552 63.0703 30.3989 61.8906C30.4458 63.1094 30.4536 64.1016 30.4536 64.6016V70H28.0474Z" fill="#6A6A6A"/>
<path d="M21.5107 59V69L12.8506 74L4.19141 69V59L12.8506 54L21.5107 59ZM5.90527 68.0098L12.8506 72.0205L12.8516 72.0195V65.1094L12.8252 65.1533L5.90527 61.001V68.0098ZM6.74316 59.5049L13.5566 63.5928L19.7969 59.9893L12.8506 55.9785L6.74316 59.5049Z" fill="#6A6A6A"/>
</svg>
