<svg width="128" height="128" viewBox="0 0 128 128" fill="none" xmlns="http://www.w3.org/2000/svg">
<path d="M106.771 81.2105C105.316 81.2105 104.295 80.5181 104.2 79.3973H105.889C105.939 79.7858 106.243 80.0299 106.746 80.0299C107.219 80.0299 107.498 79.8456 107.498 79.5816C107.498 79.3524 107.279 79.2129 106.86 79.1382L105.909 78.9689C104.873 78.7845 104.32 78.2515 104.32 77.4196C104.32 76.3785 105.211 75.7109 106.676 75.7109C108.146 75.7109 109.077 76.4084 109.107 77.5292H107.528C107.518 77.1606 107.189 76.8866 106.736 76.8866C106.287 76.8866 106.028 77.0809 106.028 77.3399C106.028 77.5591 106.233 77.7035 106.596 77.7733L107.652 77.9676C108.733 78.1668 109.241 78.6201 109.241 79.4022C109.241 80.4832 108.245 81.2105 106.771 81.2105Z" fill="black"/>
<path d="M101.102 81.1969C99.4875 81.1969 98.3916 80.0511 98.3916 78.4471C98.3916 76.843 99.4975 75.6973 101.057 75.6973C102.636 75.6973 103.727 76.8131 103.727 78.4072V78.8705H100.065C100.085 79.538 100.484 79.9614 101.161 79.9614C101.664 79.9614 102.023 79.7423 102.148 79.3936H103.687C103.493 80.4546 102.432 81.1969 101.102 81.1969ZM100.075 77.8443H102.128C102.053 77.2914 101.674 76.9626 101.102 76.9626C100.524 76.9626 100.15 77.2914 100.075 77.8443Z" fill="black"/>
<path d="M97.978 75.8155V77.1406H96.897V79.3076C96.897 79.6463 97.0016 79.7509 97.3852 79.7509H97.978V81.076H97.0066C95.7463 81.076 95.1784 80.6177 95.1784 79.5965V77.1406H94.2817V75.8155H95.1784V74.3809H96.897V75.8155H97.978Z" fill="black"/>
<path d="M91.3183 81.1969C89.7043 81.1969 88.6084 80.0511 88.6084 78.4471C88.6084 76.843 89.7143 75.6973 91.2735 75.6973C92.8526 75.6973 93.9436 76.8131 93.9436 78.4072V78.8705H90.2822C90.3021 79.538 90.7006 79.9614 91.3781 79.9614C91.8812 79.9614 92.2399 79.7423 92.3644 79.3936H93.9037C93.7095 80.4546 92.6484 81.1969 91.3183 81.1969ZM90.2921 77.8443H92.3445C92.2698 77.2914 91.8912 76.9626 91.3183 76.9626C90.7405 76.9626 90.3669 77.2914 90.2921 77.8443Z" fill="black"/>
<path d="M84.4041 78.2207V81.0801H82.6904V75.8197H84.3841V76.6715C84.7328 76.0687 85.2659 75.7051 86.0579 75.7051C87.1987 75.7051 87.8662 76.4772 87.8662 77.7724V81.0801H86.1526V78.1311C86.1526 77.5084 85.8387 77.1696 85.2958 77.1696C84.7528 77.1696 84.4041 77.5034 84.4041 78.2207Z" fill="black"/>
<path d="M78.5552 81.0812V75.8207H80.214V76.7473H80.229C80.4183 76.0797 80.8118 75.8008 81.5142 75.8008C81.6985 75.8008 81.843 75.8058 81.9824 75.8107V77.2255C81.8579 77.2205 81.554 77.2106 81.305 77.2106C80.6922 77.2106 80.2688 77.639 80.2688 78.3862V81.0812H78.5552Z" fill="black"/>
<path d="M75.207 81.1969C73.593 81.1969 72.4971 80.0511 72.4971 78.4471C72.4971 76.843 73.603 75.6973 75.1622 75.6973C76.7413 75.6973 77.8323 76.8131 77.8323 78.4072V78.8705H74.1709C74.1908 79.538 74.5893 79.9614 75.2668 79.9614C75.7699 79.9614 76.1286 79.7423 76.2531 79.3936H77.7924C77.5981 80.4546 76.5371 81.1969 75.207 81.1969ZM74.1808 77.8443H76.2332C76.1585 77.2914 75.7799 76.9626 75.207 76.9626C74.6292 76.9626 74.2555 77.2914 74.1808 77.8443Z" fill="black"/>
<path d="M69.699 81.1894C69.0066 81.1894 68.4536 80.8755 68.1846 80.2628H68.1747V81.0748H66.481V73.6523H68.1946V76.5217H68.2046C68.5383 75.9638 69.0315 75.6997 69.7139 75.6997C71.044 75.6997 71.9706 76.8256 71.9706 78.4346C71.9706 80.0984 71.0789 81.1894 69.699 81.1894ZM69.2158 79.8195C69.8484 79.8195 70.237 79.3014 70.237 78.4346C70.237 77.5778 69.8484 77.0647 69.2158 77.0647C68.5682 77.0647 68.1249 77.6027 68.1249 78.4346C68.1249 79.2765 68.5682 79.8195 69.2158 79.8195Z" fill="black"/>
<path d="M62.1515 81.2032C61.0108 81.2032 60.3433 80.431 60.3433 79.1359V75.8281H62.0569V78.7772C62.0569 79.3999 62.3707 79.7386 62.9137 79.7386C63.4567 79.7386 63.8054 79.4049 63.8054 78.6875V75.8281H65.519V81.0886H63.8253V80.2368C63.4766 80.8395 62.9436 81.2032 62.1515 81.2032Z" fill="black"/>
<path d="M53.4888 81.0748V73.6523H55.2821V76.9651C55.6258 76.5366 55.9696 76.1132 56.3133 75.6848L57.9721 73.6523H60.0793L57.3943 76.8505L60.1839 81.0748H58.1315L56.2236 78.061L55.2821 79.1868V81.0748H53.4888Z" fill="black"/>
<path d="M122.573 68.6925V63.432H124.232V64.3586H124.247C124.436 63.6911 124.829 63.4121 125.532 63.4121C125.716 63.4121 125.861 63.4171 126 63.4221V64.8368C125.875 64.8318 125.572 64.8219 125.323 64.8219C124.71 64.8219 124.286 65.2503 124.286 65.9975V68.6925H122.573Z" fill="black"/>
<path d="M119.066 68.8082C117.417 68.8082 116.296 67.7272 116.296 66.0584C116.296 64.3995 117.417 63.3086 119.066 63.3086C120.714 63.3086 121.83 64.3995 121.83 66.0584C121.83 67.7272 120.714 68.8082 119.066 68.8082ZM119.066 67.4433C119.663 67.4433 120.097 66.9501 120.097 66.0584C120.097 65.1717 119.663 64.6735 119.066 64.6735C118.468 64.6735 118.034 65.1717 118.034 66.0584C118.034 66.9501 118.463 67.4433 119.066 67.4433Z" fill="black"/>
<path d="M115.932 63.4276V64.7527H114.851V68.6881H113.132V64.7527H112.176V63.4276H113.132V62.8448C113.132 61.7737 113.725 61.2656 114.975 61.2656H115.932V62.5907H115.409C115 62.5907 114.851 62.7451 114.851 63.1437V63.4276H115.932Z" fill="black"/>
<path d="M106.876 70.8435C105.257 70.8435 104.479 70.1112 104.32 69.1H105.959C106.049 69.4287 106.382 69.628 106.876 69.628C107.513 69.628 107.852 69.2693 107.852 68.5719V67.7599H107.847C107.568 68.3826 107.025 68.6566 106.338 68.6566C104.958 68.6566 104.061 67.5507 104.061 66.0064C104.061 64.4422 104.988 63.3164 106.323 63.3164C107.005 63.3164 107.518 63.6153 107.847 64.1682H107.852V63.431H109.556V68.4025C109.556 70.1162 108.519 70.8435 106.876 70.8435ZM106.816 67.3116C107.463 67.3116 107.907 66.7885 107.907 65.9765C107.907 65.1695 107.463 64.6465 106.816 64.6465C106.188 64.6465 105.8 65.1446 105.8 65.9765C105.8 66.8134 106.188 67.3116 106.816 67.3116Z" fill="black"/>
<path d="M99.8562 65.8321V68.6915H98.1426V63.431H99.8363V64.2828C100.185 63.6801 100.718 63.3164 101.51 63.3164C102.651 63.3164 103.318 64.0885 103.318 65.3837V68.6915H101.605V65.7424C101.605 65.1197 101.291 64.781 100.748 64.781C100.205 64.781 99.8562 65.1147 99.8562 65.8321Z" fill="black"/>
<path d="M95.473 68.6819V63.4214H97.1866V68.6819H95.473ZM96.3248 62.9083C95.7768 62.9083 95.3833 62.5446 95.3833 62.0415C95.3833 61.5384 95.7768 61.1797 96.3248 61.1797C96.8777 61.1797 97.2713 61.5384 97.2713 62.0415C97.2713 62.5446 96.8777 62.9083 96.3248 62.9083Z" fill="black"/>
<path d="M89.6743 68.6881V61.2656H91.388V65.2957H91.4079L93.0069 63.4276H94.9846L93.0269 65.7241L95.0693 68.6881H93.0916L91.7516 66.7005L91.388 67.1239V68.6881H89.6743Z" fill="black"/>
<path d="M85.6094 68.6925V63.432H87.2682V64.3586H87.2832C87.4725 63.6911 87.866 63.4121 88.5684 63.4121C88.7527 63.4121 88.8972 63.4171 89.0366 63.4221V64.8368C88.9121 64.8318 88.6082 64.8219 88.3592 64.8219C87.7464 64.8219 87.323 65.2503 87.323 65.9975V68.6925H85.6094Z" fill="black"/>
<path d="M82.1027 68.8082C80.4538 68.8082 79.333 67.7272 79.333 66.0584C79.333 64.3995 80.4538 63.3086 82.1027 63.3086C83.7516 63.3086 84.8674 64.3995 84.8674 66.0584C84.8674 67.7272 83.7516 68.8082 82.1027 68.8082ZM82.1027 67.4433C82.7005 67.4433 83.1339 66.9501 83.1339 66.0584C83.1339 65.1717 82.7005 64.6735 82.1027 64.6735C81.5049 64.6735 81.0715 65.1717 81.0715 66.0584C81.0715 66.9501 81.5 67.4433 82.1027 67.4433Z" fill="black"/>
<path d="M72.2035 68.6999L70.5845 63.4395H72.3878L72.7963 65.0834C72.9457 65.6961 73.0802 66.3586 73.2147 67.0112C73.3691 66.3586 73.5236 65.6961 73.683 65.0834L74.1164 63.4395H75.6357L76.0691 65.0834C76.2285 65.6961 76.3829 66.3586 76.5374 67.0112C76.6669 66.3586 76.7964 65.7011 76.9409 65.0834L77.3344 63.4395H79.1676L77.5486 68.6999H75.7802L75.1973 66.7322C75.0877 66.3437 74.9831 65.9302 74.8785 65.5167C74.7739 65.9302 74.6693 66.3437 74.5547 66.7322L73.9719 68.6999H72.2035Z" fill="black"/>
<path d="M70.1025 63.4288V64.7539H69.0215V66.9209C69.0215 67.2596 69.1261 67.3642 69.5097 67.3642H70.1025V68.6893H69.1311C67.8708 68.6893 67.3029 68.231 67.3029 67.2098V64.7539H66.4062V63.4288H67.3029V61.9941H69.0215V63.4288H70.1025Z" fill="black"/>
<path d="M63.4424 68.8082C61.8284 68.8082 60.7324 67.6624 60.7324 66.0584C60.7324 64.4543 61.8383 63.3086 63.3975 63.3086C64.9767 63.3086 66.0676 64.4245 66.0676 66.0185V66.4818H62.4062C62.4261 67.1493 62.8247 67.5728 63.5021 67.5728C64.0053 67.5728 64.3639 67.3536 64.4885 67.0049H66.0278C65.8335 68.0659 64.7724 68.8082 63.4424 68.8082ZM62.4162 65.4556H64.4685C64.3938 64.9027 64.0152 64.5739 63.4424 64.5739C62.8645 64.5739 62.4909 64.9027 62.4162 65.4556Z" fill="black"/>
<path d="M53.4888 68.7018V61.2793H55.3419L57.4491 64.6518C57.6234 64.9308 57.9372 65.4887 58.2262 66.0217C58.2112 65.4339 58.2013 64.8311 58.2013 64.4974V61.2793H59.9946V68.7018H58.1365L56.2037 65.6132C55.9895 65.2695 55.6358 64.6617 55.2522 63.9643C55.2771 64.6867 55.2821 65.2994 55.2821 65.6082V68.7018H53.4888Z" fill="black"/>
<path d="M95.9565 49.5954V48.6934H101.373V49.5954H99.1853V55.5856H98.1537V49.5954H95.9565Z" fill="black"/>
<path d="M89.7812 55.5856V48.6934H90.9192L93.5512 52.8611C93.6314 52.9906 93.7408 53.1741 93.8796 53.4116C94.0184 53.649 94.1571 53.8896 94.2959 54.1332C94.2867 53.8834 94.2789 53.6305 94.2728 53.3746C94.2697 53.1155 94.2682 52.9228 94.2682 52.7964V48.6934H95.2997V55.5856H94.1525L91.798 51.862C91.7024 51.7109 91.5637 51.4857 91.3817 51.1866C91.2029 50.8844 90.9993 50.5375 90.7711 50.1458C90.7866 50.5498 90.7958 50.8983 90.7989 51.1912C90.8051 51.4811 90.8081 51.7031 90.8081 51.8573V55.5856H89.7812Z" fill="black"/>
<path d="M84.3921 55.5856V48.6934H89.027V49.5954H85.419V51.6261H88.7587V52.5188H85.419V54.6836H89.027V55.5856H84.3921Z" fill="black"/>
<path d="M79.4385 55.5856V48.6934H80.4654V54.6836H83.7265V55.5856H79.4385Z" fill="black"/>
<path d="M72.6895 55.5856L75.1919 48.6934H76.4316L78.9156 55.5856H77.8008L77.1902 53.7955H74.4102L73.7811 55.5856H72.6895ZM74.7201 52.9212H76.8896L76.4733 51.7001C76.3807 51.4164 76.2821 51.1126 76.1772 50.7888C76.0724 50.465 75.9521 50.0795 75.8164 49.6324C75.6776 50.0795 75.5558 50.465 75.451 50.7888C75.3461 51.1126 75.2459 51.4164 75.1503 51.7001L74.7201 52.9212Z" fill="black"/>
<path d="M69.9874 55.5856L67.4849 48.6934H68.5904L69.955 52.5789C70.0382 52.8287 70.1338 53.1232 70.2418 53.4625C70.3497 53.8017 70.4761 54.1979 70.6211 54.6513C70.7598 54.1979 70.8817 53.8017 70.9865 53.4625C71.0944 53.1232 71.19 52.8287 71.2733 52.5789L72.6009 48.6934H73.6879L71.2224 55.5856H69.9874Z" fill="black"/>
<path d="M64.3991 55.6905C63.7885 55.6905 63.2442 55.5409 62.7662 55.2418C62.2882 54.9427 61.912 54.5264 61.6375 53.9929C61.3662 53.4594 61.2305 52.8411 61.2305 52.138C61.2305 51.4318 61.3662 50.8119 61.6375 50.2784C61.912 49.7418 62.2882 49.324 62.7662 49.0249C63.2442 48.7257 63.7885 48.5762 64.3991 48.5762C65.0127 48.5762 65.5586 48.7257 66.0365 49.0249C66.5145 49.324 66.8892 49.7418 67.1606 50.2784C67.435 50.8119 67.5723 51.4318 67.5723 52.138C67.5723 52.8411 67.435 53.4594 67.1606 53.9929C66.8892 54.5264 66.5145 54.9427 66.0365 55.2418C65.5586 55.5409 65.0127 55.6905 64.3991 55.6905ZM64.3991 54.7515C64.7969 54.7515 65.1577 54.6513 65.4815 54.4508C65.8053 54.2473 66.0628 53.9512 66.254 53.5627C66.4451 53.171 66.5407 52.6961 66.5407 52.138C66.5407 51.5767 66.4451 51.1003 66.254 50.7086C66.0628 50.317 65.8053 50.0209 65.4815 49.8205C65.1577 49.617 64.7969 49.5152 64.3991 49.5152C64.0043 49.5152 63.6451 49.617 63.3213 49.8205C62.9975 50.0209 62.74 50.317 62.5488 50.7086C62.3576 51.1003 62.262 51.5767 62.262 52.138C62.262 52.6961 62.3576 53.171 62.5488 53.5627C62.74 53.9512 62.9975 54.2473 63.3213 54.4508C63.6451 54.6513 64.0043 54.7515 64.3991 54.7515Z" fill="black"/>
<path d="M58.1231 55.6905C57.2967 55.6905 56.6444 55.4823 56.1665 55.066C55.6916 54.6466 55.4541 54.073 55.4541 53.3453H56.481C56.4841 53.7986 56.629 54.1532 56.9158 54.4092C57.2057 54.6651 57.6081 54.7931 58.1231 54.7931C58.5919 54.7931 58.9665 54.6944 59.2472 54.4971C59.5309 54.2966 59.6727 54.0283 59.6727 53.6922C59.6727 53.427 59.571 53.2127 59.3674 53.0492C59.167 52.8827 58.8278 52.7424 58.3498 52.6283L57.5958 52.4479C56.8989 52.2814 56.39 52.0501 56.0693 51.754C55.7517 51.4549 55.5929 51.0663 55.5929 50.5884C55.5929 50.1844 55.6946 49.8313 55.8982 49.5291C56.1017 49.2269 56.3869 48.9925 56.7539 48.826C57.124 48.6594 57.5557 48.5762 58.0491 48.5762C58.7923 48.5762 59.3828 48.7705 59.8207 49.159C60.2617 49.5476 60.493 50.078 60.5146 50.7502H59.5201C59.4954 50.3524 59.3505 50.041 59.0853 49.8159C58.8201 49.5877 58.47 49.4736 58.0352 49.4736C57.6189 49.4736 57.2782 49.5738 57.013 49.7742C56.7477 49.9716 56.6151 50.226 56.6151 50.5375C56.6151 50.7873 56.7169 50.9908 56.9204 51.1481C57.124 51.3022 57.4616 51.4364 57.9335 51.5505L58.6782 51.7263C59.369 51.8897 59.8778 52.1256 60.2047 52.434C60.5346 52.7424 60.6996 53.1433 60.6996 53.6367C60.6996 54.0499 60.5932 54.4107 60.3804 54.7191C60.1677 55.0275 59.8685 55.2665 59.4831 55.4361C59.0976 55.6057 58.6443 55.6905 58.1231 55.6905Z" fill="black"/>
<path d="M54.6661 48.6934V55.5856H53.6392V48.6934H54.6661Z" fill="black"/>
<path d="M2 43.9149C2 42.305 3.30504 41 4.91489 41H45.7233C47.3332 41 48.6382 42.305 48.6382 43.9149V84.7235C48.6382 86.3334 47.3332 87.6384 45.7233 87.6384H4.91489C3.30504 87.6384 2 86.3334 2 84.7235V43.9149Z" fill="url(#paint0_linear_229_14371)"/>
<path d="M45.7233 86.181V87.6384H4.91489V86.181H45.7233ZM47.1807 84.7235V43.9149C47.1807 43.11 46.5282 42.4575 45.7233 42.4575H4.91489C4.10996 42.4575 3.45744 43.11 3.45744 43.9149V84.7235C3.45744 85.5284 4.10996 86.181 4.91489 86.181V87.6384L4.76473 87.6349C3.22466 87.5567 2 86.283 2 84.7235V43.9149C2 42.3554 3.22466 41.0817 4.76473 41.0036L4.91489 41H45.7233C47.3332 41 48.6382 42.305 48.6382 43.9149V84.7235C48.6382 86.3334 47.3332 87.6384 45.7233 87.6384V86.181C46.5282 86.181 47.1807 85.5284 47.1807 84.7235Z" fill="url(#paint1_linear_229_14371)"/>
<path d="M25.3177 46.8301L39.0789 53.7105L42.8059 68.6181L33.0584 80.6588H17.5771L7.82959 68.6181L11.2699 53.7105L25.3177 46.8301Z" fill="#1F4DBE"/>
<path d="M25.3159 65.167L15.5684 59.4333L25.3159 53.9863L35.0634 59.4333L25.3159 65.167Z" fill="white"/>
<path d="M35.0634 59.4434L34.9201 72.0575L25.3159 76.9311V65.177L35.0634 59.4434Z" fill="url(#paint2_linear_229_14371)"/>
<path d="M7.82959 68.623L17.5771 80.6638H33.0584L7.82959 68.623Z" fill="#006BFF"/>
<path d="M39.0791 53.7109L42.8061 68.6185L33.0586 80.6593L39.0791 53.7109Z" fill="#006BFF"/>
<defs>
<linearGradient id="paint0_linear_229_14371" x1="-6.08646" y1="24.2628" x2="53.9041" y2="94.2202" gradientUnits="userSpaceOnUse">
<stop stop-color="white"/>
<stop offset="1" stop-color="#E7F3FF"/>
</linearGradient>
<linearGradient id="paint1_linear_229_14371" x1="2" y1="58.868" x2="49.2941" y2="66.7363" gradientUnits="userSpaceOnUse">
<stop stop-color="#37A8FF"/>
<stop offset="1" stop-color="#3071FF"/>
</linearGradient>
<linearGradient id="paint2_linear_229_14371" x1="25.3159" y1="70.4872" x2="35.5471" y2="70.4074" gradientUnits="userSpaceOnUse">
<stop stop-color="#049FFC"/>
<stop offset="1" stop-color="#19C9FF"/>
</linearGradient>
</defs>
</svg>
