<svg width="128" height="128" viewBox="0 0 128 128" fill="none" xmlns="http://www.w3.org/2000/svg">
<path d="M5 9C5 6.79086 6.79086 5 9 5H65C67.2091 5 69 6.79086 69 9V65C69 67.2091 67.2091 69 65 69H9C6.79086 69 5 67.2091 5 65V9Z" fill="url(#paint0_linear_229_14235)"/>
<path d="M65 67V69H9V67H65ZM67 65V9C67 7.89543 66.1046 7 65 7H9C7.89543 7 7 7.89543 7 9V65C7 66.1046 7.89543 67 9 67V69L8.79395 68.9951C6.68056 68.8879 5 67.14 5 65V9C5 6.85996 6.68056 5.11211 8.79395 5.00488L9 5H65C67.2091 5 69 6.79086 69 9V65C69 67.2091 67.2091 69 65 69V67C66.1046 67 67 66.1046 67 65Z" fill="url(#paint1_linear_229_14235)"/>
<path d="M78.7734 124.178C76.7773 124.178 75.376 123.228 75.2461 121.689H77.5635C77.6318 122.223 78.0488 122.558 78.7393 122.558C79.3887 122.558 79.7715 122.305 79.7715 121.942C79.7715 121.628 79.4707 121.437 78.8965 121.334L77.5908 121.102C76.1689 120.849 75.4102 120.117 75.4102 118.976C75.4102 117.547 76.6338 116.631 78.6436 116.631C80.6602 116.631 81.9385 117.588 81.9795 119.126H79.8125C79.7988 118.62 79.3477 118.244 78.7256 118.244C78.1104 118.244 77.7549 118.511 77.7549 118.866C77.7549 119.167 78.0352 119.365 78.5342 119.461L79.9834 119.728C81.4668 120.001 82.1641 120.623 82.1641 121.696C82.1641 123.18 80.7969 124.178 78.7734 124.178Z" fill="black"/>
<path d="M70.9941 124.164C68.7793 124.164 67.2754 122.592 67.2754 120.391C67.2754 118.189 68.793 116.617 70.9326 116.617C73.0996 116.617 74.5967 118.148 74.5967 120.336V120.972H69.5723C69.5996 121.888 70.1465 122.469 71.0762 122.469C71.7666 122.469 72.2588 122.168 72.4297 121.689H74.542C74.2754 123.146 72.8193 124.164 70.9941 124.164ZM69.5859 119.563H72.4023C72.2998 118.805 71.7803 118.354 70.9941 118.354C70.2012 118.354 69.6885 118.805 69.5859 119.563Z" fill="black"/>
<path d="M66.708 116.781V118.6H65.2246V121.573C65.2246 122.038 65.3682 122.182 65.8945 122.182H66.708V124H65.375C63.6455 124 62.8662 123.371 62.8662 121.97V118.6H61.6357V116.781H62.8662V114.812H65.2246V116.781H66.708Z" fill="black"/>
<path d="M57.5684 124.164C55.3535 124.164 53.8496 122.592 53.8496 120.391C53.8496 118.189 55.3672 116.617 57.5068 116.617C59.6738 116.617 61.1709 118.148 61.1709 120.336V120.972H56.1465C56.1738 121.888 56.7207 122.469 57.6504 122.469C58.3408 122.469 58.833 122.168 59.0039 121.689H61.1162C60.8496 123.146 59.3936 124.164 57.5684 124.164ZM56.1602 119.563H58.9766C58.874 118.805 58.3545 118.354 57.5684 118.354C56.7754 118.354 56.2627 118.805 56.1602 119.563Z" fill="black"/>
<path d="M48.0801 120.077V124.001H45.7285V116.782H48.0527V117.951C48.5312 117.124 49.2627 116.625 50.3496 116.625C51.915 116.625 52.8311 117.685 52.8311 119.462V124.001H50.4795V119.954C50.4795 119.1 50.0488 118.635 49.3037 118.635C48.5586 118.635 48.0801 119.093 48.0801 120.077Z" fill="black"/>
<path d="M40.0547 124V116.781H42.3311V118.053H42.3516C42.6113 117.137 43.1514 116.754 44.1152 116.754C44.3682 116.754 44.5664 116.761 44.7578 116.768V118.709C44.5869 118.702 44.1699 118.688 43.8281 118.688C42.9873 118.688 42.4062 119.276 42.4062 120.302V124H40.0547Z" fill="black"/>
<path d="M35.4609 124.164C33.2461 124.164 31.7422 122.592 31.7422 120.391C31.7422 118.189 33.2598 116.617 35.3994 116.617C37.5664 116.617 39.0635 118.148 39.0635 120.336V120.972H34.0391C34.0664 121.888 34.6133 122.469 35.543 122.469C36.2334 122.469 36.7256 122.168 36.8965 121.689H39.0088C38.7422 123.146 37.2861 124.164 35.4609 124.164ZM34.0527 119.563H36.8691C36.7666 118.805 36.2471 118.354 35.4609 118.354C34.668 118.354 34.1553 118.805 34.0527 119.563Z" fill="black"/>
<path d="M27.9004 124.157C26.9502 124.157 26.1914 123.727 25.8223 122.886H25.8086V124H23.4844V113.814H25.8359V117.752H25.8496C26.3076 116.986 26.9844 116.624 27.9209 116.624C29.7461 116.624 31.0176 118.169 31.0176 120.377C31.0176 122.66 29.7939 124.157 27.9004 124.157ZM27.2373 122.277C28.1055 122.277 28.6387 121.566 28.6387 120.377C28.6387 119.201 28.1055 118.497 27.2373 118.497C26.3486 118.497 25.7402 119.235 25.7402 120.377C25.7402 121.532 26.3486 122.277 27.2373 122.277Z" fill="black"/>
<path d="M17.5439 124.157C15.9785 124.157 15.0625 123.098 15.0625 121.32V116.781H17.4141V120.828C17.4141 121.683 17.8447 122.147 18.5898 122.147C19.335 122.147 19.8135 121.689 19.8135 120.705V116.781H22.165V124H19.8408V122.831C19.3623 123.658 18.6309 124.157 17.5439 124.157Z" fill="black"/>
<path d="M5.65625 124V113.814H8.11719V118.36C8.58887 117.772 9.06055 117.191 9.53223 116.604L11.8086 113.814H14.7002L11.0156 118.203L14.8438 124H12.0273L9.40918 119.864L8.11719 121.409V124H5.65625Z" fill="black"/>
<path d="M100.457 107V99.7812H102.733V101.053H102.754C103.014 100.137 103.554 99.7539 104.518 99.7539C104.771 99.7539 104.969 99.7607 105.16 99.7676V101.709C104.989 101.702 104.572 101.688 104.23 101.688C103.39 101.688 102.809 102.276 102.809 103.302V107H100.457Z" fill="black"/>
<path d="M95.6445 107.164C93.3818 107.164 91.8438 105.681 91.8438 103.391C91.8438 101.114 93.3818 99.6172 95.6445 99.6172C97.9072 99.6172 99.4385 101.114 99.4385 103.391C99.4385 105.681 97.9072 107.164 95.6445 107.164ZM95.6445 105.291C96.4648 105.291 97.0596 104.614 97.0596 103.391C97.0596 102.174 96.4648 101.49 95.6445 101.49C94.8242 101.49 94.2295 102.174 94.2295 103.391C94.2295 104.614 94.8174 105.291 95.6445 105.291Z" fill="black"/>
<path d="M91.3447 99.7812V101.6H89.8613V107H87.5029V101.6H86.1904V99.7812H87.5029V98.9814C87.5029 97.5117 88.3164 96.8145 90.0322 96.8145H91.3447V98.6328H90.627C90.0664 98.6328 89.8613 98.8447 89.8613 99.3916V99.7812H91.3447Z" fill="black"/>
<path d="M78.917 109.954C76.6953 109.954 75.6289 108.949 75.4102 107.562H77.6592C77.7822 108.013 78.2402 108.286 78.917 108.286C79.792 108.286 80.2568 107.794 80.2568 106.837V105.723H80.25C79.8672 106.577 79.1221 106.953 78.1787 106.953C76.2852 106.953 75.0547 105.436 75.0547 103.316C75.0547 101.17 76.3262 99.625 78.1582 99.625C79.0947 99.625 79.7988 100.035 80.25 100.794H80.2568V99.7822H82.5947V106.604C82.5947 108.956 81.1729 109.954 78.917 109.954ZM78.835 105.107C79.7236 105.107 80.332 104.39 80.332 103.275C80.332 102.168 79.7236 101.45 78.835 101.45C77.9736 101.45 77.4404 102.134 77.4404 103.275C77.4404 104.424 77.9736 105.107 78.835 105.107Z" fill="black"/>
<path d="M69.2852 103.077V107.001H66.9336V99.7822H69.2578V100.951C69.7363 100.124 70.4678 99.625 71.5547 99.625C73.1201 99.625 74.0361 100.685 74.0361 102.462V107.001H71.6846V102.954C71.6846 102.1 71.2539 101.635 70.5088 101.635C69.7637 101.635 69.2852 102.093 69.2852 103.077Z" fill="black"/>
<path d="M63.2695 107V99.7812H65.6211V107H63.2695ZM64.4385 99.0771C63.6865 99.0771 63.1465 98.5781 63.1465 97.8877C63.1465 97.1973 63.6865 96.7051 64.4385 96.7051C65.1973 96.7051 65.7373 97.1973 65.7373 97.8877C65.7373 98.5781 65.1973 99.0771 64.4385 99.0771Z" fill="black"/>
<path d="M55.3125 107V96.8145H57.6641V102.345H57.6914L59.8857 99.7812H62.5996L59.9131 102.933L62.7158 107H60.002L58.1631 104.272L57.6641 104.854V107H55.3125Z" fill="black"/>
<path d="M49.7344 107V99.7812H52.0107V101.053H52.0312C52.291 100.137 52.8311 99.7539 53.7949 99.7539C54.0479 99.7539 54.2461 99.7607 54.4375 99.7676V101.709C54.2666 101.702 53.8496 101.688 53.5078 101.688C52.667 101.688 52.0859 102.276 52.0859 103.302V107H49.7344Z" fill="black"/>
<path d="M44.9219 107.164C42.6592 107.164 41.1211 105.681 41.1211 103.391C41.1211 101.114 42.6592 99.6172 44.9219 99.6172C47.1846 99.6172 48.7158 101.114 48.7158 103.391C48.7158 105.681 47.1846 107.164 44.9219 107.164ZM44.9219 105.291C45.7422 105.291 46.3369 104.614 46.3369 103.391C46.3369 102.174 45.7422 101.49 44.9219 101.49C44.1016 101.49 43.5068 102.174 43.5068 103.391C43.5068 104.614 44.0947 105.291 44.9219 105.291Z" fill="black"/>
<path d="M31.3389 107L29.1172 99.7812H31.5918L32.1523 102.037C32.3574 102.878 32.542 103.787 32.7266 104.683C32.9385 103.787 33.1504 102.878 33.3691 102.037L33.9639 99.7812H36.0488L36.6436 102.037C36.8623 102.878 37.0742 103.787 37.2861 104.683C37.4639 103.787 37.6416 102.885 37.8398 102.037L38.3799 99.7812H40.8955L38.6738 107H36.2471L35.4473 104.3C35.2969 103.767 35.1533 103.199 35.0098 102.632C34.8662 103.199 34.7227 103.767 34.5654 104.3L33.7656 107H31.3389Z" fill="black"/>
<path d="M28.4541 99.7812V101.6H26.9707V104.573C26.9707 105.038 27.1143 105.182 27.6406 105.182H28.4541V107H27.1211C25.3916 107 24.6123 106.371 24.6123 104.97V101.6H23.3818V99.7812H24.6123V97.8125H26.9707V99.7812H28.4541Z" fill="black"/>
<path d="M19.3145 107.164C17.0996 107.164 15.5957 105.592 15.5957 103.391C15.5957 101.189 17.1133 99.6172 19.2529 99.6172C21.4199 99.6172 22.917 101.148 22.917 103.336V103.972H17.8926C17.9199 104.888 18.4668 105.469 19.3965 105.469C20.0869 105.469 20.5791 105.168 20.75 104.689H22.8623C22.5957 106.146 21.1396 107.164 19.3145 107.164ZM17.9062 102.563H20.7227C20.6201 101.805 20.1006 101.354 19.3145 101.354C18.5215 101.354 18.0088 101.805 17.9062 102.563Z" fill="black"/>
<path d="M5.65625 107V96.8145H8.19922L11.0908 101.442C11.3301 101.825 11.7607 102.591 12.1572 103.322C12.1367 102.516 12.123 101.688 12.123 101.23V96.8145H14.584V107H12.0342L9.38184 102.762C9.08789 102.29 8.60254 101.456 8.07617 100.499C8.11035 101.49 8.11719 102.331 8.11719 102.755V107H5.65625Z" fill="black"/>
<path d="M63.9336 80.7808V79.543H71.3667V80.7808H68.3643V89.001H66.9487V80.7808H63.9336Z" fill="black"/>
<path d="M55.4595 89.001V79.543H57.021L60.6328 85.2622C60.7428 85.4399 60.8931 85.6917 61.0835 86.0176C61.2739 86.3434 61.4644 86.6735 61.6548 87.0078C61.6421 86.665 61.6315 86.318 61.623 85.9668C61.6188 85.6113 61.6167 85.3468 61.6167 85.1733V79.543H63.0322V89.001H61.458L58.2271 83.8911C58.0959 83.6838 57.9054 83.3748 57.6558 82.9644C57.4103 82.5496 57.131 82.0736 56.8179 81.5361C56.839 82.0905 56.8517 82.5687 56.856 82.9707C56.8644 83.3685 56.8687 83.6732 56.8687 83.8848V89.001H55.4595Z" fill="black"/>
<path d="M48.064 89.001V79.543H54.4243V80.7808H49.4731V83.5674H54.0562V84.7925H49.4731V87.7632H54.4243V89.001H48.064Z" fill="black"/>
<path d="M41.2656 89.001V79.543H42.6748V87.7632H47.1499V89.001H41.2656Z" fill="black"/>
<path d="M32.0039 89.001L35.438 79.543H37.1392L40.5479 89.001H39.0181L38.1802 86.5444H34.3652L33.502 89.001H32.0039ZM34.7905 85.3447H37.7676L37.1963 83.6689C37.0693 83.2796 36.9339 82.8628 36.79 82.4185C36.6462 81.9741 36.4811 81.4451 36.2949 80.8315C36.1045 81.4451 35.9373 81.9741 35.7935 82.4185C35.6496 82.8628 35.512 83.2796 35.3809 83.6689L34.7905 85.3447Z" fill="black"/>
<path d="M28.2969 89.001L24.8628 79.543H26.3799L28.2524 84.875C28.3667 85.2178 28.4979 85.6219 28.646 86.0874C28.7941 86.5529 28.9676 87.0967 29.1665 87.7188C29.3569 87.0967 29.5241 86.5529 29.668 86.0874C29.8161 85.6219 29.9473 85.2178 30.0615 84.875L31.8833 79.543H33.375L29.9917 89.001H28.2969Z" fill="black"/>
<path d="M20.6284 89.1533C19.7905 89.1533 19.0436 88.9481 18.3877 88.5376C17.7318 88.1271 17.2155 87.5558 16.8389 86.8237C16.4665 86.0916 16.2803 85.2432 16.2803 84.2783C16.2803 83.3092 16.4665 82.4587 16.8389 81.7266C17.2155 80.9902 17.7318 80.4168 18.3877 80.0063C19.0436 79.5959 19.7905 79.3906 20.6284 79.3906C21.4705 79.3906 22.2196 79.5959 22.8755 80.0063C23.5314 80.4168 24.0456 80.9902 24.418 81.7266C24.7946 82.4587 24.9829 83.3092 24.9829 84.2783C24.9829 85.2432 24.7946 86.0916 24.418 86.8237C24.0456 87.5558 23.5314 88.1271 22.8755 88.5376C22.2196 88.9481 21.4705 89.1533 20.6284 89.1533ZM20.6284 87.8647C21.1743 87.8647 21.6694 87.7272 22.1138 87.4521C22.5581 87.1729 22.9115 86.7666 23.1738 86.2334C23.4362 85.696 23.5674 85.0443 23.5674 84.2783C23.5674 83.5081 23.4362 82.8543 23.1738 82.3169C22.9115 81.7795 22.5581 81.3732 22.1138 81.0981C21.6694 80.8188 21.1743 80.6792 20.6284 80.6792C20.0868 80.6792 19.5938 80.8188 19.1494 81.0981C18.7051 81.3732 18.3517 81.7795 18.0894 82.3169C17.827 82.8543 17.6958 83.5081 17.6958 84.2783C17.6958 85.0443 17.827 85.696 18.0894 86.2334C18.3517 86.7666 18.7051 87.1729 19.1494 87.4521C19.5938 87.7272 20.0868 87.8647 20.6284 87.8647Z" fill="black"/>
<path d="M12.0146 89.1533C10.8805 89.1533 9.98551 88.8677 9.32959 88.2964C8.6779 87.7209 8.35205 86.9338 8.35205 85.9351H9.76123C9.76546 86.5571 9.96436 87.0438 10.3579 87.395C10.7557 87.7463 11.3079 87.9219 12.0146 87.9219C12.6579 87.9219 13.172 87.7865 13.5571 87.5156C13.9465 87.2406 14.1411 86.8724 14.1411 86.4111C14.1411 86.0472 14.0015 85.7531 13.7222 85.5288C13.4471 85.3003 12.9816 85.1077 12.3257 84.9512L11.291 84.7036C10.3346 84.4751 9.63639 84.1577 9.19629 83.7515C8.76042 83.341 8.54248 82.8078 8.54248 82.1519C8.54248 81.5975 8.68213 81.113 8.96143 80.6982C9.24072 80.2835 9.63216 79.9619 10.1357 79.7334C10.6436 79.5049 11.236 79.3906 11.9131 79.3906C12.9329 79.3906 13.7433 79.6572 14.3442 80.1904C14.9494 80.7236 15.2668 81.4515 15.2964 82.374H13.9316C13.8978 81.8281 13.6989 81.4007 13.335 81.0918C12.971 80.7786 12.4907 80.6221 11.894 80.6221C11.3228 80.6221 10.8551 80.7596 10.4912 81.0347C10.1273 81.3055 9.94531 81.6546 9.94531 82.082C9.94531 82.4248 10.085 82.7041 10.3643 82.9199C10.6436 83.1315 11.1069 83.3156 11.7544 83.4722L12.7764 83.7134C13.7243 83.9377 14.4225 84.2614 14.8711 84.6846C15.3239 85.1077 15.5503 85.6579 15.5503 86.335C15.5503 86.902 15.4043 87.3971 15.1123 87.8203C14.8203 88.2435 14.4098 88.5715 13.8809 88.8042C13.3519 89.0369 12.7298 89.1533 12.0146 89.1533Z" fill="black"/>
<path d="M7.27246 79.543V89.001H5.86328V79.543H7.27246Z" fill="black"/>
<path d="M36.9984 13L55.8824 22.4417L60.9968 42.8988L47.6206 59.4218H26.3762L13 42.8988L17.721 22.4417L36.9984 13Z" fill="#1F4DBE"/>
<path d="M36.9972 38.1787L23.6211 30.3106L36.9972 22.8359L50.3734 30.3106L36.9972 38.1787Z" fill="white"/>
<path d="M50.3727 30.3086L50.176 47.6184L36.9966 54.3063V38.1767L50.3727 30.3086Z" fill="url(#paint2_linear_229_14235)"/>
<path d="M13 42.8984L26.3762 59.4215H47.6206L13 42.8984Z" fill="#006BFF"/>
<path d="M55.8833 22.4395L60.9977 42.8965L47.6216 59.4195L55.8833 22.4395Z" fill="#006BFF"/>
<defs>
<linearGradient id="paint0_linear_229_14235" x1="-6.09677" y1="-17.9677" x2="76.2258" y2="78.0323" gradientUnits="userSpaceOnUse">
<stop stop-color="white"/>
<stop offset="1" stop-color="#E7F3FF"/>
</linearGradient>
<linearGradient id="paint1_linear_229_14235" x1="5" y1="29.5195" x2="69.9001" y2="40.317" gradientUnits="userSpaceOnUse">
<stop stop-color="#37A8FF"/>
<stop offset="1" stop-color="#3071FF"/>
</linearGradient>
<linearGradient id="paint2_linear_229_14235" x1="36.9966" y1="45.4636" x2="51.0365" y2="45.3541" gradientUnits="userSpaceOnUse">
<stop stop-color="#049FFC"/>
<stop offset="1" stop-color="#19C9FF"/>
</linearGradient>
</defs>
</svg>
