<svg width="128" height="128" viewBox="0 0 128 128" fill="none" xmlns="http://www.w3.org/2000/svg">
<path d="M2 6C2 3.79086 3.79086 2 6 2H122C124.209 2 126 3.79086 126 6V122C126 124.209 124.209 126 122 126H6C3.79086 126 2 124.209 2 122V6Z" fill="url(#paint0_linear_229_14309)"/>
<path d="M122 122V126H6V122H122ZM122 6H6V126C3.79086 126 2 124.209 2 122V6C2 3.85997 3.68056 2.11211 5.79395 2.00488L6 2H122L122.206 2.00488C124.319 2.11212 126 3.85996 126 6V122L125.995 122.206C125.888 124.319 124.14 126 122 126V6Z" fill="url(#paint1_linear_229_14309)"/>
<path d="M64.1123 16L103.545 35.7163L114.225 78.4349L86.2932 112.938H41.9315L14 78.4349L23.8582 35.7163L64.1123 16Z" fill="#1F4DBE"/>
<path d="M64.1107 68.5722L36.1792 52.1419L64.1107 36.5332L92.0421 52.1419L64.1107 68.5722Z" fill="white"/>
<path d="M92.0403 52.1445L91.6296 88.291L64.1089 102.257V68.5748L92.0403 52.1445Z" fill="url(#paint2_linear_229_14309)"/>
<path d="M14 78.4355L41.9314 112.939H86.2932L14 78.4355Z" fill="#006BFF"/>
<path d="M103.546 35.7109L114.226 78.4296L86.2944 112.933L103.546 35.7109Z" fill="#006BFF"/>
<defs>
<linearGradient id="paint0_linear_229_14309" x1="-19.5" y1="-42.5" x2="140" y2="143.5" gradientUnits="userSpaceOnUse">
<stop stop-color="white"/>
<stop offset="1" stop-color="#E7F3FF"/>
</linearGradient>
<linearGradient id="paint1_linear_229_14309" x1="2" y1="49.5065" x2="127.744" y2="70.4267" gradientUnits="userSpaceOnUse">
<stop stop-color="#37A8FF"/>
<stop offset="1" stop-color="#3071FF"/>
</linearGradient>
<linearGradient id="paint2_linear_229_14309" x1="64.1089" y1="83.7913" x2="93.4263" y2="83.5627" gradientUnits="userSpaceOnUse">
<stop stop-color="#049FFC"/>
<stop offset="1" stop-color="#19C9FF"/>
</linearGradient>
</defs>
</svg>
