<svg width="128" height="128" viewBox="0 0 128 128" fill="none" xmlns="http://www.w3.org/2000/svg">
<path d="M2 52.6957C2 51.2069 3.20688 50 4.69565 50H123.304C124.793 50 126 51.2069 126 52.6957V74.9348C126 76.4236 124.793 77.6304 123.304 77.6304H4.69565C3.20688 77.6304 2 76.4236 2 74.9348V52.6957Z" fill="url(#paint0_linear_229_13744)"/>
<path d="M123.304 76.2826V77.6304H4.69565V76.2826H123.304ZM124.652 74.9348V52.6957C124.652 51.9977 124.122 51.424 123.442 51.3551L123.304 51.3478H4.69565C3.95127 51.3478 3.34783 51.9513 3.34783 52.6957V74.9348C3.34783 75.6792 3.95127 76.2826 4.69565 76.2826V77.6304L4.55679 77.6271C3.17854 77.5572 2.07322 76.4519 2.00329 75.0736L2 74.9348V52.6957C2 51.2535 3.13255 50.0756 4.55679 50.0033L4.69565 50H123.304L123.443 50.0033C124.867 50.0756 126 51.2535 126 52.6957V74.9348L125.997 75.0736C125.927 76.4519 124.821 77.5572 123.443 77.6271L123.304 77.6304V76.2826C124.049 76.2826 124.652 75.6792 124.652 74.9348Z" fill="url(#paint1_linear_229_13744)"/>
<path d="M57.9922 58.7107V58.1562H61.3219V58.7107H59.977V62.3931H59.3429V58.7107H57.9922Z" fill="black"/>
<path d="M54.0796 62.3931V58.1562H54.7791L56.3971 60.7183C56.4463 60.7979 56.5136 60.9107 56.5989 61.0566C56.6843 61.2026 56.7696 61.3505 56.8549 61.5002C56.8492 61.3467 56.8444 61.1912 56.8406 61.0339C56.8388 60.8746 56.8378 60.7562 56.8378 60.6784V58.1562H57.4719V62.3931H56.7667L55.3194 60.1041C55.2606 60.0112 55.1753 59.8728 55.0634 59.6889C54.9535 59.5031 54.8284 59.2899 54.6881 59.0491C54.6976 59.2974 54.7033 59.5117 54.7052 59.6917C54.709 59.8699 54.7109 60.0064 54.7109 60.1012V62.3931H54.0796Z" fill="black"/>
<path d="M50.6494 62.3931V58.1562H53.4986V58.7107H51.2807V59.959H53.3337V60.5078H51.2807V61.8386H53.4986V62.3931H50.6494Z" fill="black"/>
<path d="M47.4883 62.3931V58.1562H48.1195V61.8386H50.1242V62.3931H47.4883Z" fill="black"/>
<path d="M43.2227 62.3931L44.761 58.1562H45.5231L47.05 62.3931H46.3647L45.9894 61.2926H44.2804L43.8937 62.3931H43.2227ZM44.471 60.7552H45.8046L45.5487 60.0045C45.4918 59.8301 45.4311 59.6434 45.3667 59.4444C45.3022 59.2453 45.2283 59.0084 45.1449 58.7335C45.0596 59.0084 44.9847 59.2453 44.9202 59.4444C44.8558 59.6434 44.7942 59.8301 44.7354 60.0045L44.471 60.7552Z" fill="black"/>
<path d="M41.4451 62.3931L39.9067 58.1562H40.5863L41.4252 60.5448C41.4764 60.6983 41.5351 60.8794 41.6015 61.0879C41.6678 61.2964 41.7455 61.54 41.8346 61.8187C41.92 61.54 41.9948 61.2964 42.0593 61.0879C42.1256 60.8794 42.1844 60.6983 42.2356 60.5448L43.0517 58.1562H43.7199L42.2043 62.3931H41.4451Z" fill="black"/>
<path d="M37.8931 62.4612C37.5178 62.4612 37.1832 62.3693 36.8894 62.1854C36.5955 62.0015 36.3643 61.7456 36.1955 61.4176C36.0287 61.0897 35.9453 60.7096 35.9453 60.2774C35.9453 59.8433 36.0287 59.4623 36.1955 59.1343C36.3643 58.8045 36.5955 58.5476 36.8894 58.3637C37.1832 58.1798 37.5178 58.0879 37.8931 58.0879C38.2704 58.0879 38.6059 58.1798 38.8997 58.3637C39.1936 58.5476 39.4239 58.8045 39.5907 59.1343C39.7594 59.4623 39.8438 59.8433 39.8438 60.2774C39.8438 60.7096 39.7594 61.0897 39.5907 61.4176C39.4239 61.7456 39.1936 62.0015 38.8997 62.1854C38.6059 62.3693 38.2704 62.4612 37.8931 62.4612ZM37.8931 61.884C38.1377 61.884 38.3595 61.8224 38.5585 61.6991C38.7576 61.574 38.9158 61.3921 39.0334 61.1532C39.1509 60.9124 39.2097 60.6205 39.2097 60.2774C39.2097 59.9324 39.1509 59.6395 39.0334 59.3987C38.9158 59.158 38.7576 58.976 38.5585 58.8528C38.3595 58.7277 38.1377 58.6651 37.8931 58.6651C37.6505 58.6651 37.4296 58.7277 37.2306 58.8528C37.0315 58.976 36.8732 59.158 36.7557 59.3987C36.6382 59.6395 36.5794 59.9324 36.5794 60.2774C36.5794 60.6205 36.6382 60.9124 36.7557 61.1532C36.8732 61.3921 37.0315 61.574 37.2306 61.6991C37.4296 61.8224 37.6505 61.884 37.8931 61.884Z" fill="black"/>
<path d="M33.9185 62.4612C33.4105 62.4612 33.0096 62.3333 32.7157 62.0773C32.4238 61.8195 32.2778 61.4669 32.2778 61.0196H32.9091C32.911 61.2982 33.0001 61.5162 33.1764 61.6736C33.3546 61.8309 33.602 61.9096 33.9185 61.9096C34.2067 61.9096 34.437 61.8489 34.6095 61.7276C34.7839 61.6044 34.8711 61.4394 34.8711 61.2328C34.8711 61.0698 34.8086 60.938 34.6834 60.8376C34.5602 60.7352 34.3517 60.6489 34.0579 60.5788L33.5944 60.4679C33.166 60.3655 32.8532 60.2234 32.656 60.0414C32.4608 59.8575 32.3631 59.6186 32.3631 59.3248C32.3631 59.0765 32.4257 58.8594 32.5508 58.6737C32.6759 58.4879 32.8513 58.3438 33.0769 58.2414C33.3043 58.1391 33.5697 58.0879 33.873 58.0879C34.3299 58.0879 34.6929 58.2073 34.9621 58.4462C35.2332 58.685 35.3754 59.0111 35.3886 59.4243H34.7773C34.7621 59.1798 34.673 58.9883 34.51 58.85C34.347 58.7097 34.1318 58.6395 33.8645 58.6395C33.6086 58.6395 33.3991 58.7011 33.2361 58.8244C33.0731 58.9457 32.9916 59.1021 32.9916 59.2935C32.9916 59.4471 33.0541 59.5722 33.1792 59.6689C33.3043 59.7637 33.5119 59.8461 33.802 59.9163L34.2598 60.0243C34.6844 60.1248 34.9972 60.2698 35.1981 60.4594C35.401 60.6489 35.5024 60.8954 35.5024 61.1987C35.5024 61.4527 35.437 61.6745 35.3062 61.8641C35.1754 62.0536 34.9915 62.2006 34.7545 62.3048C34.5176 62.4091 34.2389 62.4612 33.9185 62.4612Z" fill="black"/>
<path d="M31.6781 58.1562V62.3931H31.0469V58.1562H31.6781Z" fill="black"/>
<path d="M116.942 67.0674C117.431 67.0674 117.82 67.1759 118.109 67.3925C118.399 67.6093 118.55 67.9046 118.561 68.2784H117.509C117.507 68.1567 117.456 68.0548 117.357 67.973C117.259 67.8912 117.134 67.8506 116.981 67.8506C116.833 67.8506 116.717 67.8793 116.633 67.9368C116.551 67.9943 116.51 68.0664 116.51 68.1527C116.51 68.2962 116.637 68.3923 116.889 68.4409L117.592 68.5706C117.953 68.6369 118.219 68.7475 118.392 68.9023C118.564 69.057 118.65 69.2648 118.65 69.5255C118.65 69.7644 118.58 69.9746 118.441 70.156C118.304 70.3373 118.112 70.4787 117.864 70.5805C117.618 70.68 117.332 70.7298 117.005 70.7299C116.682 70.7299 116.395 70.6811 116.146 70.5838C115.896 70.4864 115.696 70.3472 115.545 70.1658C115.397 69.9845 115.313 69.7699 115.293 69.5222H116.417C116.435 69.6526 116.493 69.7557 116.59 69.8309C116.687 69.906 116.82 69.944 116.988 69.9441C117.145 69.9441 117.268 69.9164 117.357 69.8611C117.445 69.8059 117.489 69.7337 117.489 69.6453C117.489 69.4993 117.347 69.4006 117.064 69.3498L116.431 69.2372C116.086 69.1753 115.823 69.0571 115.641 68.8825C115.462 68.7078 115.372 68.4818 115.372 68.2053C115.372 67.8604 115.512 67.585 115.791 67.3794C116.069 67.1716 116.453 67.0674 116.942 67.0674ZM95.9558 67.0608C96.3075 67.0608 96.6164 67.1383 96.8818 67.2932C97.1493 67.4457 97.358 67.6583 97.5083 67.9302C97.6587 68.2 97.734 68.5116 97.7341 68.8654V69.1741H95.2957C95.3024 69.3974 95.3691 69.5747 95.4951 69.7052C95.6234 69.8355 95.8002 69.9006 96.0256 69.9006C96.1936 69.9006 96.334 69.8664 96.4468 69.798C96.5618 69.7294 96.6404 69.6372 96.6824 69.5222H97.7077C97.6657 69.7566 97.5638 69.9648 97.4024 70.1461C97.241 70.3274 97.0376 70.4689 96.7923 70.5706C96.5491 70.6723 96.2802 70.7232 95.9861 70.7233C95.6278 70.7233 95.3124 70.6447 95.0404 70.4877C94.7706 70.3306 94.5592 70.1149 94.4066 69.8407C94.2563 69.5644 94.1816 69.2483 94.1815 68.8924C94.1815 68.5363 94.2562 68.2209 94.4066 67.9467C94.5592 67.6702 94.7695 67.4535 95.0371 67.2965C95.3046 67.1395 95.6109 67.0609 95.9558 67.0608ZM106.684 67.0608C107.036 67.0608 107.345 67.1383 107.61 67.2932C107.878 67.4457 108.087 67.6583 108.237 67.9302C108.387 68.2 108.463 68.5116 108.463 68.8654V69.1741H106.024C106.031 69.3974 106.098 69.5747 106.224 69.7052C106.352 69.8355 106.529 69.9006 106.754 69.9006C106.922 69.9006 107.063 69.8664 107.175 69.798C107.29 69.7294 107.369 69.6372 107.411 69.5222H108.436C108.394 69.7566 108.292 69.9648 108.131 70.1461C107.97 70.3274 107.766 70.4689 107.521 70.5706C107.278 70.6723 107.009 70.7232 106.715 70.7233C106.356 70.7233 106.041 70.6447 105.769 70.4877C105.499 70.3306 105.288 70.1149 105.135 69.8407C104.985 69.5644 104.91 69.2483 104.91 68.8924C104.91 68.5363 104.985 68.2209 105.135 67.9467C105.288 67.6702 105.498 67.4535 105.766 67.2965C106.033 67.1395 106.34 67.0609 106.684 67.0608ZM113.2 67.0608C113.552 67.0609 113.86 67.1384 114.126 67.2932C114.393 67.4458 114.603 67.6582 114.753 67.9302C114.903 68.2 114.979 68.5117 114.979 68.8654V69.1741H112.54C112.547 69.3974 112.613 69.5747 112.739 69.7052C112.867 69.8356 113.045 69.9006 113.27 69.9006C113.438 69.9006 113.579 69.8665 113.691 69.798C113.806 69.7294 113.885 69.6372 113.927 69.5222H114.952C114.91 69.7566 114.808 69.9648 114.647 70.1461C114.486 70.3275 114.282 70.4689 114.036 70.5706C113.793 70.6723 113.524 70.7233 113.23 70.7233C112.872 70.7233 112.557 70.6446 112.285 70.4877C112.015 70.3306 111.804 70.115 111.651 69.8407C111.501 69.5644 111.426 69.2483 111.426 68.8924C111.426 68.5363 111.501 68.2209 111.651 67.9467C111.804 67.6703 112.014 67.4535 112.282 67.2965C112.549 67.1395 112.856 67.0608 113.2 67.0608ZM87.2285 69.105C87.2285 69.3127 87.2778 69.4722 87.3773 69.5828C87.4768 69.6911 87.6178 69.7453 87.7991 69.7453C87.9781 69.7452 88.1219 69.6889 88.2302 69.5762C88.3384 69.4612 88.3927 69.2844 88.3927 69.0457V67.1411H89.5339V70.6443H88.4059V70.077C88.2887 70.276 88.1396 70.4332 87.9584 70.5482C87.777 70.6632 87.5542 70.7206 87.291 70.7206C86.9107 70.7206 86.6142 70.5993 86.4019 70.356C86.1918 70.1128 86.0873 69.7751 86.0873 69.3439V67.1411H87.2285V69.105ZM91.3148 67.6123H91.3214C91.538 67.2475 91.8731 67.0649 92.3263 67.0648C92.6227 67.0648 92.8839 67.1423 93.1095 67.2971C93.335 67.4519 93.5112 67.6665 93.6373 67.9407C93.7654 68.2149 93.8294 68.5299 93.8294 68.8858C93.8294 69.255 93.7666 69.5782 93.6406 69.8546C93.5167 70.1288 93.3405 70.3423 93.1128 70.4949C92.8872 70.6453 92.6216 70.7206 92.3164 70.7206C92.0865 70.7206 91.8832 70.6696 91.7064 70.568C91.5316 70.464 91.3989 70.309 91.3082 70.1033H91.3016V70.6443H90.1736V65.7012H91.3148V67.6123ZM82.7165 67.9072C82.8292 67.7657 82.9431 67.6242 83.058 67.4827C83.173 67.339 83.2879 67.1964 83.4029 67.0549L84.5079 65.7012H85.911L84.1229 67.8308L85.9807 70.6443H84.6138L83.343 68.637L82.7165 69.3873V70.6443H81.522V65.7012H82.7165V67.9072ZM100.352 67.1313C100.403 67.1313 100.452 67.1323 100.498 67.1346V68.077C100.456 68.0748 100.391 68.0726 100.303 68.0704C100.214 68.0682 100.129 68.0671 100.047 68.0671C99.8417 68.0671 99.6741 68.1353 99.5459 68.2724C99.4198 68.4095 99.357 68.602 99.357 68.8496V70.6443H98.2158V67.1411H99.3208V67.7584H99.3307C99.3948 67.5352 99.494 67.3747 99.6288 67.2774C99.7659 67.1779 99.9518 67.128 100.186 67.128C100.248 67.128 100.303 67.1291 100.352 67.1313ZM103.212 67.0648C103.592 67.0648 103.887 67.1868 104.097 67.43C104.31 67.6733 104.416 68.0104 104.416 68.4416V70.6443H103.275V68.6805C103.275 68.4726 103.225 68.3143 103.125 68.206C103.026 68.0955 102.885 68.0401 102.704 68.0401C102.525 68.0401 102.381 68.0977 102.273 68.2126C102.165 68.3253 102.111 68.5015 102.111 68.7404V70.6443H100.969V67.1411H102.097V67.7084C102.214 67.5094 102.364 67.3522 102.545 67.2372C102.726 67.1223 102.948 67.0648 103.212 67.0648ZM110.43 67.1411H111.15V68.0237H110.43V69.4669C110.431 69.5795 110.453 69.6566 110.497 69.6986C110.541 69.7406 110.627 69.7618 110.756 69.7618H111.15V70.6443H110.504C110.083 70.6443 109.774 70.5657 109.578 70.4087C109.383 70.2495 109.286 69.9995 109.286 69.6591V68.0237H108.689V67.1411H109.286V66.1855H110.43V67.1411ZM91.9946 67.9737C91.7802 67.9737 91.6056 68.0567 91.4707 68.2224C91.3359 68.3882 91.2681 68.6095 91.268 68.8858C91.268 69.1667 91.3358 69.3916 91.4707 69.5597C91.6056 69.7254 91.7803 69.8084 91.9946 69.8085C92.2047 69.8085 92.3712 69.7267 92.4928 69.563C92.6144 69.3994 92.6751 69.1733 92.6751 68.8858C92.6751 68.6007 92.6144 68.3772 92.4928 68.2158C92.3712 68.0544 92.2047 67.9737 91.9946 67.9737ZM95.9861 67.9039C95.7938 67.9039 95.6376 67.9554 95.5182 68.0592C95.3987 68.1632 95.3266 68.3074 95.3023 68.4909H96.6692C96.6427 68.3074 96.5695 68.1632 96.4501 68.0592C96.3307 67.9555 96.176 67.9039 95.9861 67.9039ZM106.715 67.9039C106.522 67.9039 106.366 67.9554 106.247 68.0592C106.127 68.1632 106.055 68.3074 106.031 68.4909H107.398C107.371 68.3074 107.298 68.1632 107.179 68.0592C107.059 67.9555 106.905 67.9039 106.715 67.9039ZM113.23 67.9039C113.038 67.9039 112.882 67.9553 112.762 68.0592C112.643 68.1632 112.571 68.3074 112.547 68.4909H113.914C113.887 68.3074 113.814 68.1632 113.695 68.0592C113.575 67.9553 113.42 67.9039 113.23 67.9039Z" fill="black"/>
<path d="M66.163 67.0628C66.6164 67.0628 66.9551 67.2519 67.1785 67.6301H67.1818V67.1391H68.3157V70.4501C68.3157 71.0205 68.1547 71.4341 67.832 71.6906C67.5114 71.9471 67.0777 72.0756 66.5315 72.0756C65.9921 72.0756 65.5861 71.966 65.314 71.7472C65.0442 71.5283 64.8827 71.2502 64.8297 70.9141H65.9208C65.9518 71.0224 66.0206 71.1075 66.1268 71.1694C66.233 71.2335 66.3679 71.2662 66.5315 71.2662C66.9648 71.266 67.1818 71.0314 67.1818 70.5626V70.0217H67.1785C67.0856 70.2295 66.9516 70.3813 66.777 70.4764C66.6023 70.5715 66.4007 70.6192 66.1729 70.6192C65.8655 70.6192 65.5977 70.5439 65.37 70.3935C65.1444 70.2409 64.9689 70.0317 64.8428 69.7663C64.719 69.5009 64.6572 69.1969 64.6572 68.8542C64.6572 68.507 64.7212 68.1986 64.8494 67.9288C64.9776 67.6591 65.1544 67.4477 65.3798 67.2951C65.6054 67.1403 65.8666 67.0628 66.163 67.0628ZM37.5763 67.0601C37.928 67.0601 38.2369 67.1376 38.5023 67.2924C38.7698 67.445 38.9785 67.6575 39.1288 67.9295C39.2792 68.1993 39.3545 68.5109 39.3546 68.8647V69.1733H36.9162C36.9229 69.3967 36.9896 69.574 37.1156 69.7044C37.2439 69.8347 37.4207 69.8999 37.6461 69.8999C37.814 69.8999 37.9545 69.8657 38.0673 69.7972C38.1823 69.7287 38.2609 69.6365 38.3029 69.5215H39.3282C39.2862 69.7559 39.1843 69.964 39.0229 70.1454C38.8615 70.3266 38.6581 70.4682 38.4128 70.5699C38.1696 70.6716 37.9007 70.7225 37.6066 70.7226C37.2483 70.7226 36.9329 70.644 36.6609 70.4869C36.3911 70.3299 36.1797 70.1142 36.0271 69.84C35.8768 69.5637 35.8021 69.2475 35.802 68.8917C35.802 68.5357 35.8768 68.2202 36.0271 67.9459C36.1797 67.6695 36.39 67.4528 36.6576 67.2957C36.9251 67.1387 37.2314 67.0602 37.5763 67.0601ZM50.0338 67.0601C50.3987 67.0602 50.7196 67.1366 50.996 67.2891C51.2745 67.4395 51.4897 67.6531 51.6423 67.9295C51.7971 68.2037 51.8746 68.5245 51.8746 68.8917C51.8746 69.263 51.797 69.5856 51.6423 69.8598C51.4897 70.1317 51.2745 70.3442 50.996 70.4968C50.7196 70.6472 50.3987 70.7225 50.0338 70.7226C49.6667 70.7226 49.3448 70.6472 49.0684 70.4968C48.7919 70.3464 48.5763 70.134 48.4215 69.8598C48.2667 69.5856 48.1892 69.263 48.1891 68.8917C48.1891 68.5246 48.2667 68.2037 48.4215 67.9295C48.5763 67.653 48.7919 67.4395 49.0684 67.2891C49.3448 67.1366 49.6667 67.0601 50.0338 67.0601ZM74.6488 67.0601C75.0136 67.0602 75.3345 67.1366 75.6109 67.2891C75.8895 67.4395 76.1047 67.6531 76.2572 67.9295C76.412 68.2037 76.4895 68.5245 76.4895 68.8917C76.4895 69.263 76.412 69.5856 76.2572 69.8598C76.1047 70.1317 75.8895 70.3442 75.6109 70.4968C75.3345 70.6472 75.0136 70.7225 74.6488 70.7226C74.2817 70.7226 73.9598 70.6472 73.6833 70.4968C73.4069 70.3464 73.1912 70.134 73.0364 69.8598C72.8817 69.5856 72.8041 69.263 72.8041 68.8917C72.8041 68.5246 72.8816 68.2037 73.0364 67.9295C73.1912 67.653 73.4069 67.4395 73.6833 67.2891C73.9598 67.1366 74.2817 67.0601 74.6488 67.0601ZM33.6151 67.9453C33.6748 68.0381 33.7524 68.1694 33.8474 68.3395C33.9425 68.5076 34.0379 68.6805 34.133 68.8574C34.1286 68.6629 34.1243 68.4726 34.1199 68.2869C34.1177 68.1011 34.1166 67.9525 34.1166 67.842V65.6991H35.3104V70.6423H34.0732L32.7859 68.585C32.7129 68.47 32.6212 68.3165 32.5108 68.1243C32.4002 67.9319 32.2804 67.7195 32.1521 67.4872C32.161 67.7283 32.167 67.9451 32.1692 68.1375C32.1714 68.3297 32.1725 68.4778 32.1725 68.5817V70.6423H30.978V65.6991H32.212L33.6151 67.9453ZM41.3217 67.1391H42.0417V68.0216H41.3217V69.4642C41.3217 69.577 41.3439 69.6545 41.3881 69.6965C41.4324 69.7385 41.5185 69.7597 41.6468 69.7597H42.0417V70.6423H41.3947C40.9745 70.6423 40.6656 70.5637 40.4688 70.4067C40.2743 70.2474 40.1772 69.9975 40.1772 69.6571V68.0216H39.5803V67.1391H40.1772V66.1835H41.3217V67.1391ZM43.8363 68.2335C43.885 68.437 43.931 68.6484 43.9752 68.8673C44.0216 69.084 44.0683 69.3008 44.1147 69.5175C44.1656 69.3008 44.2166 69.084 44.2674 68.8673C44.3205 68.6484 44.3736 68.437 44.4267 68.2335L44.7149 67.1391H45.7271L46.0154 68.2335C46.0684 68.437 46.1205 68.6484 46.1713 68.8673C46.2244 69.084 46.2765 69.3009 46.3273 69.5175C46.3715 69.3008 46.415 69.084 46.457 68.8673C46.5012 68.6506 46.5478 68.4392 46.5965 68.2335L46.8584 67.1391H48.0792L47.0012 70.6423H45.8232L45.4349 69.3319C45.3973 69.2015 45.361 69.0687 45.3257 68.9338C45.2903 68.7967 45.2562 68.6596 45.223 68.5225C45.1876 68.6596 45.1518 68.7967 45.1164 68.9338C45.081 69.0687 45.0447 69.2015 45.0071 69.3319L44.6188 70.6423H43.4415L42.3635 67.1391H43.5639L43.8363 68.2335ZM54.5058 67.1292C54.5566 67.1292 54.6055 67.1303 54.6519 67.1325V68.0749C54.6098 68.0727 54.5442 68.0706 54.4557 68.0684C54.3673 68.0661 54.2822 68.0651 54.2004 68.0651C53.9947 68.0651 53.8278 68.1333 53.6996 68.2704C53.5735 68.4075 53.5107 68.5999 53.5107 68.8476V70.6423H52.3695V67.1391H53.4738V67.7564H53.4837C53.5478 67.533 53.6476 67.3726 53.7825 67.2753C53.9196 67.1758 54.1055 67.1259 54.3399 67.1259C54.4018 67.1259 54.4571 67.127 54.5058 67.1292ZM56.2175 68.3829H56.2307L57.2955 67.1391H58.6124L57.3087 68.6679L58.669 70.6423H57.3515L56.4597 69.3181L56.2175 69.6005V70.6423H55.0763V65.6991H56.2175V68.3829ZM60.0787 70.6423H58.9375V67.1391H60.0787V70.6423ZM62.958 67.0628C63.3383 67.0628 63.6337 67.1842 63.8438 67.4274C64.0561 67.6706 64.1623 68.0083 64.1623 68.4395V70.6423H63.0211V68.6784C63.0211 68.4705 62.9713 68.3123 62.8718 68.2039C62.7722 68.0934 62.6319 68.0381 62.4506 68.0381C62.2715 68.0381 62.1278 68.0956 62.0195 68.2105C61.9111 68.3233 61.8569 68.4995 61.8569 68.7383V70.6423H60.7158V67.1391H61.8431V67.7064C61.9603 67.5073 62.1099 67.3502 62.2913 67.2352C62.4726 67.1202 62.6948 67.0628 62.958 67.0628ZM72.5619 66.5817H72.2137C72.0788 66.5817 71.9823 66.6104 71.9248 66.6679C71.8697 66.7232 71.8419 66.8171 71.8419 66.9496V67.1391H72.5619V68.0216H71.8419V70.6423H70.6974V68.0216H70.061V67.1391H70.6974V66.7508C70.6974 66.3947 70.7972 66.1303 70.9962 65.9578C71.1974 65.7853 71.507 65.6992 71.9248 65.6991H72.5619V66.5817ZM79.1207 67.1292C79.1715 67.1292 79.2204 67.1303 79.2668 67.1325V68.0749C79.2248 68.0727 79.1591 68.0706 79.0707 68.0684C78.9822 68.0661 78.8971 68.0651 78.8153 68.0651C78.6097 68.0651 78.4428 68.1333 78.3145 68.2704C78.1885 68.4075 78.1256 68.5999 78.1256 68.8476V70.6423H76.9844V67.1391H78.0888V67.7564H78.0986C78.1628 67.533 78.2625 67.3726 78.3974 67.2753C78.5345 67.1758 78.7204 67.1259 78.9548 67.1259C79.0167 67.1259 79.0721 67.127 79.1207 67.1292ZM50.0338 67.969C49.8349 67.969 49.6701 68.0488 49.5396 68.2079C49.4113 68.3671 49.3468 68.5953 49.3468 68.8917C49.3468 69.1879 49.4114 69.4156 49.5396 69.5748C49.6679 69.7339 49.8327 69.8137 50.0338 69.8137C50.2328 69.8136 50.3966 69.734 50.5248 69.5748C50.6552 69.4156 50.7202 69.1878 50.7203 68.8917C50.7203 68.5953 50.6553 68.3671 50.5248 68.2079C50.3966 68.0487 50.2328 67.969 50.0338 67.969ZM74.6488 67.969C74.4498 67.969 74.285 68.0488 74.1545 68.2079C74.0263 68.3671 73.9617 68.5953 73.9617 68.8917C73.9618 69.1879 74.0263 69.4156 74.1545 69.5748C74.2828 69.7339 74.4476 69.8137 74.6488 69.8137C74.8477 69.8136 75.0115 69.734 75.1397 69.5748C75.2701 69.4156 75.3352 69.1878 75.3352 68.8917C75.3352 68.5953 75.2702 68.3671 75.1397 68.2079C75.0115 68.0487 74.8477 67.969 74.6488 67.969ZM66.4914 67.9486C66.2813 67.9486 66.1155 68.0272 65.9939 68.1842C65.8745 68.3412 65.8149 68.558 65.8149 68.8344C65.8149 69.113 65.8745 69.3309 65.9939 69.4879C66.1155 69.6449 66.2814 69.7235 66.4914 69.7235C66.7081 69.7235 66.8832 69.6439 67.0159 69.4846C67.1508 69.3232 67.2179 69.1063 67.218 68.8344C67.218 68.5669 67.1507 68.3522 67.0159 68.1908C66.8832 68.0293 66.7081 67.9486 66.4914 67.9486ZM37.6066 67.9025C37.4142 67.9025 37.2581 67.9546 37.1387 68.0585C37.0192 68.1624 36.9471 68.3066 36.9228 68.4902H38.2897C38.2632 68.3066 38.19 68.1624 38.0706 68.0585C37.9512 67.9547 37.7966 67.9026 37.6066 67.9025ZM59.5048 65.6465C59.6883 65.6465 59.8385 65.7008 59.9556 65.809C60.0751 65.9152 60.1346 66.0523 60.1346 66.2204C60.1346 66.3884 60.0751 66.5266 59.9556 66.635C59.8385 66.7433 59.6883 66.7975 59.5048 66.7975C59.3235 66.7975 59.1728 66.7433 59.0534 66.635C58.9362 66.5266 58.8776 66.3884 58.8776 66.2204C58.8776 66.0523 58.9362 65.9152 59.0534 65.809C59.1728 65.7007 59.3235 65.6465 59.5048 65.6465Z" fill="black"/>
<path d="M16.1235 54.7168L23.5251 58.4176L25.5297 66.4359L20.2869 72.9122H11.9601L6.71729 66.4359L8.56769 58.4176L16.1235 54.7168Z" fill="#1F4DBE"/>
<path d="M16.1227 64.586L10.8799 61.502L16.1227 58.5723L21.3655 61.502L16.1227 64.586Z" fill="white"/>
<path d="M21.3659 61.502L21.2888 68.2867L16.123 70.908V64.5859L21.3659 61.502Z" fill="url(#paint2_linear_229_13744)"/>
<path d="M6.71729 66.4336L11.9601 72.9099H20.2869L6.71729 66.4336Z" fill="#006BFF"/>
<path d="M23.5253 58.418L25.5299 66.4363L20.2871 72.9126L23.5253 58.418Z" fill="#006BFF"/>
<defs>
<linearGradient id="paint0_linear_229_13744" x1="8.14579" y1="9.50712" x2="83.7475" y2="21.6546" gradientUnits="userSpaceOnUse">
<stop stop-color="white"/>
<stop offset="1" stop-color="#E7F3FF"/>
</linearGradient>
<linearGradient id="paint1_linear_229_13744" x1="2" y1="60.5857" x2="67.4003" y2="90.4529" gradientUnits="userSpaceOnUse">
<stop stop-color="#37A8FF"/>
<stop offset="1" stop-color="#3071FF"/>
</linearGradient>
<linearGradient id="paint2_linear_229_13744" x1="16.123" y1="67.4421" x2="21.626" y2="67.3992" gradientUnits="userSpaceOnUse">
<stop stop-color="#049FFC"/>
<stop offset="1" stop-color="#19C9FF"/>
</linearGradient>
</defs>
</svg>
