<svg width="128" height="128" viewBox="0 0 128 128" fill="none" xmlns="http://www.w3.org/2000/svg">
<path d="M1 38.5949C1 37.7141 1.71408 37 2.59494 37H125.405C126.286 37 127 37.7141 127 38.5949V90.0316C127 90.9125 126.286 91.6266 125.405 91.6266H2.59494C1.71408 91.6266 1 90.9125 1 90.0316V38.5949Z" fill="url(#paint0_linear_214_10002)"/>
<path d="M125.405 90.8291V91.6266H2.59494V90.8291H125.405ZM126.203 90.0316V38.5949C126.203 38.1545 125.845 37.7975 125.405 37.7975H2.59494C2.15451 37.7975 1.79747 38.1545 1.79747 38.5949V90.0316C1.79747 90.4721 2.15451 90.8291 2.59494 90.8291V91.6266L2.51278 91.6246C1.69731 91.5833 1.04332 90.9293 1.00195 90.1138L1 90.0316V38.5949C1 37.7141 1.71408 37 2.59494 37H125.405C126.286 37 127 37.7141 127 38.5949V90.0316L126.998 90.1138C126.957 90.9293 126.303 91.5833 125.487 91.6246L125.405 91.6266V90.8291C125.845 90.8291 126.203 90.4721 126.203 90.0316Z" fill="url(#paint1_linear_214_10002)"/>
<path d="M1.79736 84.8496H126.202V90.0332C126.202 90.4736 125.845 90.8306 125.405 90.8306H3.3923C2.51144 90.8306 1.79736 90.1165 1.79736 89.2357V84.8496Z" fill="url(#paint2_linear_214_10002)"/>
<path d="M72.4521 80.5051H78.3911V69.666H72.4521V72.612L75.3445 77.7209L72.4521 79.0658V80.5051Z" fill="#B5D5FF"/>
<path d="M83.4991 76.6015H82.4333V74.8286H81.5912L81.398 73.0427H82.0137V72.4197H81.1087L80.7713 69.666H78.3911V79.4513H83.1081V77.72H83.4991V76.6015Z" fill="#6999F3"/>
<path d="M73.8688 77.2574V81.4133H73.5674V77.2399L71.092 77.0901V80.9207H70.7907V77.0726L68.3162 76.9228V80.428H68.0148V76.9052L65.5394 76.7555V79.9344H65.238V76.7379L62.5537 76.5762V81.4207L76.1473 82.2397V77.3952L73.8688 77.2574Z" fill="#003575"/>
<path d="M73.8682 74.1931L76.1467 74.3308V71.8018L73.8682 71.6641V74.1931Z" fill="#003575"/>
<path d="M64.295 80.1772L62.8373 78.2546C62.3881 77.662 61.7253 77.3653 60.9895 77.2553L49.2446 76.2949C49.2446 76.2949 50.9547 78.6243 52.7258 83.0631L64.295 84.2084V80.1772Z" fill="white"/>
<path d="M76.6108 65.209H76.0303V69.669H76.6108V65.209Z" fill="#3E7ED1"/>
<path d="M75.3765 66.8306V67.1227H75.1055V66.8306H75.3765ZM75.6144 65.7754V66.0674H75.3434V65.7754H75.6144Z" fill="#3E7ED1"/>
<path d="M78.4057 68.8457H77.4277V69.6693H78.4057V68.8457Z" fill="#3E7ED1"/>
<path d="M76.9614 65.1992V65.7779H77.6786V66.0711H76.9614V66.8327H77.6786V67.1255H76.9614V69.6686H76.6101V67.1255H75.377V66.8327H76.6101V66.0711H75.6137V65.7779H76.6101V65.1992H76.9614ZM79.4936 67.7754V68.7625H80.1516V69.6686H78.3908V68.8606H77.4275V68.5705H78.3908V67.7754H79.4936Z" fill="#003EA2"/>
<path d="M73.5778 70.4453V71.0718H73.0806V70.4453H73.5778ZM74.496 71.0718H73.9987V70.4453H74.496V71.0718ZM75.4146 71.0718H74.9173V70.4453H75.4146V71.0718ZM76.3335 71.0718H75.8363V70.4453H76.3335V71.0718ZM77.2525 71.0718H76.7552V70.4453H77.2525V71.0718Z" fill="#003EA2"/>
<path d="M79.5279 78.7416H79.063V77.9558H79.5279V78.7416ZM80.8269 77.9558V78.7416H80.0855V77.9558H80.8269ZM81.7435 77.3141H78.987V76.9785H81.7435V77.3141ZM81.6804 76.0891H78.987V75.6779H81.6804V76.0891ZM80.8378 74.8228H79.0022V74.4116H80.8378V74.8228ZM80.8148 73.4545H79.0022V73.0433H80.8148V73.4545ZM79.4625 71.7163H78.9648V70.4453H79.4625V71.7163ZM80.3811 71.7163H79.8838V70.4453H80.3811V71.7163Z" fill="#003EA2"/>
<path d="M72.4521 80.5049H78.3911L78.5908 76.4386L76.0895 73.3633L72.4521 80.5049Z" fill="#598AF4"/>
<path d="M62.5537 70.9824V79.7546L76.1473 79.7833V71.8023L62.5537 70.9824Z" fill="#003EA2"/>
<path d="M55.3267 77.1063V70.9648L62.5533 70.9824L62.5607 79.0715L55.3267 77.1063Z" fill="#0054DC"/>
<path d="M57.5001 77.9976H57.7922V76.5752H60.046V77.9976H60.338V76.5752H62.5591V79.9667H55.3262V76.5752H57.5001V77.9976ZM57.5001 76.2831H55.3262V73.805H57.5001V76.2831ZM60.0456 76.2831H57.7922V73.805H60.0456V76.2831ZM62.5591 76.2831H60.338V73.805H62.5591V76.2831ZM57.5001 70.9648V73.5134H55.3262V70.9648H57.5001ZM60.0456 73.5134H57.7922V70.9648H60.0456V73.5134ZM62.5591 73.5134H60.338V70.9648H62.5591V73.5134Z" fill="#91BBFF"/>
<path d="M58.4645 77.851H58.1935V76.8701H58.4645V77.851ZM59.0552 77.851H58.7842V76.8701H59.0552V77.851ZM59.6459 77.851H59.3753V76.8701H59.6459V77.851ZM61.0064 77.851H60.7354V76.8701H61.0064V77.851ZM61.5971 77.851H61.3261V76.8701H61.5971V77.851ZM62.1878 77.851H61.9172V76.8701H62.1878V77.851ZM55.9214 76.0263H55.6504V74.0649H55.9214V76.0263ZM56.5121 76.0263H56.2411V74.0649H56.5121V76.0263ZM57.1028 76.0263H56.8322V74.0649H57.1028V76.0263ZM58.4645 76.0263H58.1935V74.0649H58.4645V76.0263ZM59.0552 76.0263H58.7842V74.0649H59.0552V76.0263ZM59.6459 76.0263H59.3753V74.0649H59.6459V76.0263ZM61.0064 76.0263H60.7354V74.0649H61.0064V76.0263ZM61.5971 76.0263H61.3261V74.0649H61.5971V76.0263ZM62.1878 74.0649V76.0263H61.9172V74.0649H62.1878ZM55.9214 73.2211H55.6504V71.2598H55.9214V73.2211ZM56.5121 73.2211H56.2411V71.2598H56.5121V73.2211ZM57.1028 73.2211H56.8322V71.2598H57.1028V73.2211ZM58.4645 73.2211H58.1935V71.2598H58.4645V73.2211ZM59.0552 73.2211H58.7842V71.2598H59.0552V73.2211ZM59.6459 73.2211H59.3753V71.2598H59.6459V73.2211ZM61.0064 73.2211H60.7354V71.2598H61.0064V73.2211ZM61.5971 73.2211H61.3261V71.2598H61.5971V73.2211ZM62.1878 73.2211H61.9172V71.2598H62.1878V73.2211Z" fill="#245BD1"/>
<path d="M65.2382 76.7388V79.9352H65.5395V76.7567L68.0149 76.9062V80.429H68.3163V76.9237L70.7908 77.0736V80.9216H71.0918V77.0912L73.5676 77.2407V81.4141H73.8686V77.2586L76.1473 77.396V82.2408L62.5537 81.4215V76.5772L65.2382 76.7388ZM76.1469 74.6205V77.1063L73.8686 76.9685V74.4838L76.1469 74.6205ZM73.5672 74.4651V76.9498L71.0918 76.8011V74.3164L73.5672 74.4651ZM70.7905 74.2985V76.7831L68.3159 76.6344V74.1497L70.7905 74.2985ZM68.0141 74.131V76.6157L65.5388 76.467V73.9823L68.0141 74.131ZM65.2382 73.9632V76.4479L62.5537 76.2863V73.8016L65.2382 73.9632ZM76.1469 71.8017V74.3308L73.8686 74.1929V71.6639L76.1469 71.8017ZM73.5672 71.6471V74.1758L71.0918 74.0263V71.4972L73.5672 71.6471ZM70.7905 71.4785V74.0084L68.3159 73.8588V71.3298L70.7905 71.4785ZM68.0141 71.3118V73.8417L65.5388 73.6922V71.1631L68.0141 71.3118ZM65.2382 71.144V73.6731L62.5537 73.5115V70.9824L65.2382 71.144Z" fill="#457BEF"/>
<path d="M64.2942 80.1796L62.8365 78.2569C62.3872 77.6644 61.7245 77.2715 60.9887 77.1606L50.1885 76.373C50.1885 76.373 51.2441 77.9759 53.0577 84.2098H64.2942V80.1786V80.1796Z" fill="#B5D5FF"/>
<path d="M78.4005 79.357C78.3755 79.6103 78.0696 79.8294 77.8348 79.8275C77.2432 79.821 64.426 79.455 64.426 79.455C64.0147 79.455 63.6265 79.2674 63.3695 78.9457L63.1393 78.6582C63.1393 78.6582 61.482 82.6431 61.2647 82.8557C61.0706 83.0295 60.8395 83.048 60.5613 83.0609C58.3844 83.0748 56.202 83.0609 54.0252 83.0665H52.7246C52.8559 83.6091 52.9696 84.2931 52.9594 84.9448C52.9594 84.9448 76.7902 84.9531 81.339 84.9448C84.333 83.1626 85.2888 80.6659 85.2888 79.455C84.5669 79.4532 79.9728 79.43 78.4005 79.3589V79.357Z" fill="#91BBFF"/>
<path d="M56.3855 78.4141H55.0767V79.4151H56.3855V78.4141Z" fill="#245BD1"/>
<mask id="mask0_214_10002" style="mask-type:alpha" maskUnits="userSpaceOnUse" x="52" y="78" width="34" height="7">
<path d="M78.4005 79.357C78.3755 79.6103 78.0696 79.8294 77.8348 79.8275C77.2432 79.821 64.426 79.455 64.426 79.455C64.0147 79.455 63.6265 79.2674 63.3695 78.9457L63.1393 78.6582C63.1393 78.6582 61.482 82.6431 61.2647 82.8557C61.0706 83.0295 60.8395 83.048 60.5613 83.0609C58.3844 83.0748 56.202 83.0609 54.0252 83.0665H52.7246C52.8559 83.6091 52.9298 84.1859 52.9196 84.8376C52.9196 84.8376 76.7902 84.9531 81.339 84.9448C84.333 83.1626 85.2888 80.6659 85.2888 79.455C84.5669 79.4532 79.9728 79.43 78.4005 79.3589V79.357Z" fill="#91BCFF"/>
</mask>
<g mask="url(#mask0_214_10002)">
<path d="M74.6021 82.0991C74.5513 81.9364 74.4293 81.8042 74.2768 81.7229L71.1765 80.2383C71.0951 80.1977 71.0036 80.1875 70.9223 80.1875C70.8409 80.1875 70.7494 80.1875 70.6681 80.2078L67.5678 81.7025C67.4153 81.7737 67.3034 81.9059 67.2627 82.0787L66.5001 85.4231C66.4696 85.5959 66.5103 85.7688 66.612 85.9111L68.7565 88.564C68.8785 88.6861 69.0514 88.7674 69.2242 88.7776H72.6397C72.8227 88.7979 72.9956 88.7166 73.1074 88.564L75.252 85.9111C75.3536 85.7688 75.3943 85.5959 75.374 85.4231L74.6012 82.0991H74.6021Z" fill="#245BD1"/>
<path d="M74.1247 85.2878C74.1145 85.2878 74.1043 85.2878 74.1043 85.2777C74.1043 85.2675 74.084 85.2675 74.0637 85.2675C74.023 85.2573 73.9823 85.2573 73.9417 85.2573C73.9213 85.2573 73.901 85.2573 73.8806 85.2472H73.8705C73.7586 85.237 73.6366 85.2166 73.5248 85.1861C73.4943 85.176 73.4638 85.1455 73.4536 85.115L73.3722 85.0946C73.4129 84.7998 73.3926 84.4947 73.3316 84.1999C73.2604 83.905 73.1384 83.6203 72.9757 83.3661L73.0367 83.3051V83.2949C73.0367 83.2644 73.0469 83.2237 73.0672 83.2034C73.1587 83.122 73.2502 83.061 73.3519 83C73.3722 82.9899 73.3926 82.9797 73.4129 82.9695C73.4536 82.9492 73.4841 82.9289 73.5248 82.9085C73.5349 82.8984 73.5451 82.8984 73.5553 82.8882C73.5654 82.878 73.5553 82.878 73.5553 82.8679C73.6468 82.7967 73.6671 82.6747 73.5959 82.5831C73.5654 82.5425 73.5044 82.512 73.4536 82.512C73.4028 82.512 73.3519 82.5323 73.3112 82.5628L73.3011 82.573C73.2909 82.5831 73.2807 82.5933 73.2706 82.5933C73.2401 82.6238 73.2096 82.6543 73.1892 82.6848C73.1791 82.7052 73.1587 82.7153 73.1486 82.7255C73.0774 82.8068 72.9859 82.8882 72.8944 82.9492C72.874 82.9594 72.8537 82.9695 72.8333 82.9695C72.8232 82.9695 72.8028 82.9695 72.7927 82.9594H72.7825L72.7012 83.0102C72.6198 82.9289 72.5283 82.8475 72.447 82.7662C72.0708 82.4713 71.603 82.2883 71.1251 82.2374L71.115 82.1561V82.1663C71.0845 82.1459 71.0743 82.1154 71.0641 82.0849C71.0641 81.9731 71.0641 81.8612 71.0845 81.7392V81.729C71.0845 81.7087 71.0946 81.6884 71.0946 81.668C71.1048 81.6274 71.1048 81.5867 71.115 81.546V81.485C71.1251 81.3833 71.0438 81.2816 70.9421 81.2715C70.8811 81.2613 70.8201 81.2918 70.7693 81.3427C70.7286 81.3833 70.7083 81.4342 70.7083 81.485V81.5358C70.7083 81.5765 70.7184 81.6172 70.7286 81.6579C70.7388 81.6782 70.7388 81.6985 70.7388 81.7189V81.729C70.7591 81.8409 70.7591 81.9527 70.7591 82.0747C70.7489 82.1053 70.7388 82.1358 70.7083 82.1561V82.1764L70.6981 82.2578C70.5862 82.2679 70.4744 82.2883 70.3524 82.3086C69.8745 82.4103 69.4373 82.6645 69.1017 83.0204L69.0407 82.9797H69.0305C69.0204 82.9797 69.0102 82.9899 68.9899 82.9899C68.9695 82.9899 68.9492 82.9797 68.9289 82.9695C68.8374 82.8984 68.7458 82.817 68.6747 82.7357C68.6645 82.7153 68.6442 82.7052 68.634 82.695C68.6035 82.6645 68.5832 82.634 68.5527 82.6035C68.5425 82.5933 68.5323 82.5933 68.5221 82.5831L68.512 82.573C68.4713 82.5425 68.4205 82.5221 68.3696 82.5221C68.3086 82.5221 68.2578 82.5425 68.2273 82.5933C68.1663 82.6848 68.1866 82.8068 68.2679 82.878C68.2781 82.878 68.2781 82.8882 68.2781 82.8882C68.2781 82.8882 68.2985 82.9085 68.3086 82.9085C68.3391 82.9289 68.3798 82.9492 68.4205 82.9695C68.4408 82.9797 68.4611 82.9899 68.4815 83C68.5832 83.061 68.6848 83.122 68.7662 83.2034C68.7865 83.2237 68.8069 83.2644 68.7967 83.2949V83.2847L68.8577 83.3457C68.8475 83.3661 68.8374 83.3762 68.8272 83.3966C68.512 83.8948 68.3798 84.4846 68.4713 85.0632L68.39 85.0835C68.39 85.0937 68.3798 85.0937 68.3798 85.0937C68.3696 85.1242 68.3391 85.1445 68.3086 85.1649C68.1968 85.1954 68.0849 85.2157 67.9629 85.2259C67.9426 85.2259 67.9222 85.2259 67.9019 85.2361C67.8612 85.2361 67.8206 85.2462 67.7799 85.2462C67.7697 85.2462 67.7596 85.2564 67.7392 85.2564C67.7324 85.2564 67.7257 85.2598 67.7189 85.2666C67.607 85.2869 67.5359 85.3886 67.5562 85.5004C67.5765 85.5919 67.668 85.6529 67.7596 85.6428C67.7799 85.6428 67.7901 85.6428 67.8104 85.6326C67.8172 85.6326 67.8206 85.6292 67.8206 85.6224C67.8206 85.6123 67.8511 85.6224 67.8612 85.6224C67.9019 85.6123 67.9426 85.5919 67.9731 85.5818C67.9934 85.5716 68.0138 85.5614 68.0341 85.5614H68.0443C68.1561 85.5208 68.2578 85.4903 68.3798 85.4699H68.39C68.4205 85.4699 68.451 85.4801 68.4713 85.5004C68.4815 85.5004 68.4815 85.5106 68.4815 85.5106L68.573 85.5004C68.7255 85.9682 69.0102 86.385 69.4068 86.6901C69.4983 86.7613 69.5796 86.8223 69.6813 86.8731L69.6305 86.9443C69.6305 86.9544 69.6406 86.9544 69.6406 86.9544C69.661 86.9849 69.661 87.0256 69.6508 87.0561C69.6101 87.1578 69.5491 87.2595 69.4881 87.351V87.3612C69.4779 87.3815 69.4678 87.3917 69.4474 87.412C69.4271 87.4323 69.4068 87.473 69.3763 87.5137C69.3661 87.5239 69.3661 87.534 69.3559 87.5442C69.3559 87.5442 69.3559 87.5544 69.3458 87.5544C69.2949 87.656 69.3356 87.7781 69.4271 87.8289C69.4474 87.8391 69.4779 87.8492 69.4983 87.8492C69.5796 87.8492 69.6508 87.7984 69.6915 87.7272C69.6915 87.7272 69.6915 87.717 69.7016 87.717C69.7016 87.7069 69.7118 87.6967 69.722 87.6865C69.7321 87.6459 69.7525 87.6154 69.7626 87.5747L69.783 87.5137C69.8135 87.4018 69.8643 87.3002 69.9152 87.1985C69.9355 87.168 69.966 87.1476 69.9965 87.1375C70.0033 87.1375 70.0067 87.1341 70.0067 87.1273L70.0473 87.046C70.332 87.1578 70.6269 87.2086 70.9319 87.2086C71.115 87.2086 71.298 87.1883 71.481 87.1375C71.5929 87.1171 71.7047 87.0765 71.8064 87.046L71.8471 87.1171C71.8538 87.1171 71.8572 87.1205 71.8572 87.1273C71.8877 87.1375 71.9182 87.1578 71.9386 87.1883C71.9894 87.29 72.0402 87.3917 72.0708 87.5035V87.5137L72.0911 87.5747C72.1013 87.6154 72.1114 87.656 72.1318 87.6865C72.1419 87.6967 72.1419 87.7069 72.1521 87.717C72.1521 87.717 72.1521 87.7272 72.1623 87.7272C72.2029 87.7984 72.2741 87.8492 72.3555 87.8492C72.386 87.8492 72.4063 87.8391 72.4368 87.8289C72.4775 87.8086 72.5181 87.7679 72.5283 87.717C72.5385 87.6662 72.5385 87.6154 72.5181 87.5645C72.5181 87.5544 72.508 87.5544 72.508 87.5544C72.508 87.5442 72.4978 87.534 72.4876 87.5239C72.4673 87.4832 72.447 87.4527 72.4165 87.4222C72.4063 87.4018 72.3961 87.3917 72.3758 87.3713V87.351C72.3046 87.2595 72.2538 87.1578 72.2131 87.0561C72.2029 87.0256 72.2029 86.9849 72.2233 86.9544C72.2233 86.9443 72.2334 86.9443 72.2334 86.9443L72.2029 86.8629C72.7215 86.5477 73.118 86.0597 73.3011 85.4801L73.3824 85.4903C73.3926 85.4903 73.3926 85.4801 73.3926 85.4801C73.4129 85.4598 73.4434 85.4496 73.4739 85.4496H73.4841C73.5959 85.4699 73.7078 85.5004 73.8095 85.5411H73.8196C73.84 85.5513 73.8603 85.5614 73.8806 85.5614C73.9213 85.5818 73.9518 85.6021 73.9925 85.6123C74.0027 85.6123 74.0128 85.6224 74.0332 85.6224C74.0399 85.6224 74.0467 85.6258 74.0535 85.6326C74.0738 85.6428 74.084 85.6428 74.1043 85.6428C74.1958 85.6428 74.2772 85.5818 74.3077 85.5004C74.2975 85.3886 74.2162 85.3072 74.1247 85.2869V85.2878ZM71.1871 84.9726L70.9125 85.1048L70.638 84.9726L70.5668 84.6777L70.76 84.4337H71.0651L71.2582 84.6777L71.1871 84.9726ZM72.8435 84.3117C72.8944 84.5252 72.9045 84.7388 72.8842 84.9523L71.9182 84.6777C71.8267 84.6574 71.7759 84.5659 71.7962 84.4744C71.8064 84.4439 71.8166 84.4235 71.8369 84.4032L72.5995 83.7118C72.7113 83.8948 72.7927 84.0982 72.8435 84.3117ZM72.2944 83.3365L71.4607 83.9262C71.3895 83.9669 71.2878 83.9567 71.237 83.8856C71.2167 83.8652 71.2065 83.8449 71.2065 83.8144L71.1455 82.7874C71.5929 82.8383 71.9894 83.0315 72.2944 83.3365ZM70.455 82.8179L70.6583 82.7773L70.6075 83.7941C70.6075 83.8856 70.5262 83.9567 70.4346 83.9567C70.4041 83.9567 70.3838 83.9466 70.3533 83.9364L69.5094 83.3365C69.7737 83.0823 70.0991 82.8993 70.455 82.8179ZM69.2145 83.7118L69.9669 84.3829C70.0381 84.4439 70.0483 84.5456 69.9873 84.6167C69.9669 84.6472 69.9466 84.6574 69.9059 84.6676L68.9196 84.9523C68.8891 84.5252 68.9908 84.088 69.2145 83.7118ZM69.0416 85.4302L70.0483 85.2573C70.1296 85.2573 70.2109 85.3082 70.2211 85.3895C70.2313 85.42 70.2313 85.4607 70.2109 85.4912L69.8246 86.4266C69.4687 86.1928 69.184 85.8369 69.0416 85.4302ZM71.3488 86.691C71.2065 86.7215 71.0641 86.7418 70.9116 86.7418C70.6981 86.7418 70.4744 86.7012 70.271 86.6402L70.7693 85.7352C70.8201 85.6742 70.9014 85.6539 70.9726 85.6945C71.0031 85.7149 71.0235 85.7352 71.054 85.7657L71.542 86.6503C71.481 86.6605 71.42 86.6707 71.3488 86.691ZM72.5893 85.8064C72.4368 86.0504 72.2233 86.2639 71.9792 86.4165L71.5827 85.4607C71.5624 85.3793 71.603 85.298 71.6742 85.2675C71.7047 85.2573 71.7352 85.2472 71.7657 85.2472L72.7825 85.42C72.7317 85.5624 72.6707 85.6945 72.5893 85.8064Z" fill="white"/>
</g>
<path d="M89.1203 77.4824V78.2799H102.113L104.905 81.071H107.861V80.2736H105.235L102.444 77.4824H89.1203Z" fill="#B7D6FC"/>
<path d="M85.5319 72.6992V71.9018H100.917L105.304 67.5157H108.26V68.3131H105.634L101.248 72.6992H85.5319Z" fill="#B7D6FC"/>
<path d="M102.677 74.6934V75.4908H104.923L107.602 77.7871L107.713 77.8832H121.418V77.0858H108.008L105.329 74.7895L105.217 74.6934H102.677Z" fill="#B7D6FC"/>
<path d="M85.5319 74.6934V75.4908H109.655V74.6934H85.5319Z" fill="#B7D6FC"/>
<path d="M101.879 71.1035V71.901H113.642V71.1035H101.879Z" fill="#B7D6FC"/>
<path d="M108.288 81.5285C108.744 81.5285 109.114 81.1588 109.114 80.7027C109.114 80.2467 108.744 79.877 108.288 79.877C107.832 79.877 107.462 80.2467 107.462 80.7027C107.462 81.1588 107.832 81.5285 108.288 81.5285Z" fill="#91BBFF"/>
<path d="M110.281 75.9445C110.737 75.9445 111.107 75.5748 111.107 75.1188C111.107 74.6627 110.737 74.293 110.281 74.293C109.825 74.293 109.456 74.6627 109.456 75.1188C109.456 75.5748 109.825 75.9445 110.281 75.9445Z" fill="#91BBFF"/>
<path d="M121.446 78.3391C121.902 78.3391 122.272 77.9694 122.272 77.5133C122.272 77.0572 121.902 76.6875 121.446 76.6875C120.99 76.6875 120.621 77.0572 120.621 77.5133C120.621 77.9694 120.99 78.3391 121.446 78.3391Z" fill="#91BBFF"/>
<path d="M113.87 72.3567C114.326 72.3567 114.696 71.9869 114.696 71.5309C114.696 71.0748 114.326 70.7051 113.87 70.7051C113.414 70.7051 113.044 71.0748 113.044 71.5309C113.044 71.9869 113.414 72.3567 113.87 72.3567Z" fill="#91BBFF"/>
<path d="M108.288 68.7707C108.744 68.7707 109.114 68.401 109.114 67.9449C109.114 67.4889 108.744 67.1191 108.288 67.1191C107.832 67.1191 107.462 67.4889 107.462 67.9449C107.462 68.401 107.832 68.7707 108.288 68.7707Z" fill="#91BBFF"/>
<path d="M46.8543 77.4824V78.2799H39.0447L36.2536 81.071H33.2974V80.2736H35.9234L38.7145 77.4824H46.8543Z" fill="#B7D6FC"/>
<path d="M46.6547 74.6934V75.4908H34.2371L29.851 79.0794H20.5376V78.282H29.566L33.952 74.6934H46.6547Z" fill="#B7D6FC"/>
<path d="M27.0966 68.3145L27.2154 68.4484L30.2861 71.9031H52.2371V72.7005H29.9282L29.8095 72.5666L26.7388 69.1119H15.7529V68.3145H27.0966Z" fill="#B7D6FC"/>
<path d="M35.0922 71.9004V72.6979H9.57324V71.9004H35.0922Z" fill="#B7D6FC"/>
<path d="M47.2528 74.6934V75.4908H25.7212V74.6934H47.2528Z" fill="#B7D6FC"/>
<path d="M10.5691 72.3014C10.5691 72.7418 10.212 73.0988 9.77159 73.0988C9.33116 73.0988 8.97412 72.7418 8.97412 72.3014C8.97412 71.8609 9.33116 71.5039 9.77159 71.5039C10.212 71.5039 10.5691 71.8609 10.5691 72.3014Z" fill="#91BBFF"/>
<path d="M16.1521 68.7096C16.1521 69.15 15.795 69.507 15.3546 69.507C14.9142 69.507 14.5571 69.15 14.5571 68.7096C14.5571 68.2691 14.9142 67.9121 15.3546 67.9121C15.795 67.9121 16.1521 68.2691 16.1521 68.7096Z" fill="#91BBFF"/>
<path d="M21.3352 78.6803C21.3352 79.1207 20.9781 79.4777 20.5377 79.4777C20.0973 79.4777 19.7402 79.1207 19.7402 78.6803C19.7402 78.2399 20.0973 77.8828 20.5377 77.8828C20.9781 77.8828 21.3352 78.2399 21.3352 78.6803Z" fill="#91BBFF"/>
<path d="M26.1208 75.0904C26.1208 75.5309 25.7638 75.8879 25.3233 75.8879C24.8829 75.8879 24.5259 75.5309 24.5259 75.0904C24.5259 74.65 24.8829 74.293 25.3233 74.293C25.7638 74.293 26.1208 74.65 26.1208 75.0904Z" fill="#91BBFF"/>
<path d="M34.0949 80.6744C34.0949 81.1149 33.7379 81.4719 33.2975 81.4719C32.857 81.4719 32.5 81.1149 32.5 80.6744C32.5 80.234 32.857 79.877 33.2975 79.877C33.7379 79.877 34.0949 80.234 34.0949 80.6744Z" fill="#91BBFF"/>
<path d="M57.3921 46.2984V45.7207H60.8611V46.2984H59.4599V50.1347H58.7992V46.2984H57.3921Z" fill="black"/>
<path d="M53.3169 50.1347V45.7207H54.0456L55.7313 48.3898C55.7826 48.4728 55.8527 48.5903 55.9416 48.7423C56.0305 48.8944 56.1193 49.0485 56.2082 49.2045C56.2023 49.0445 56.1973 48.8826 56.1934 48.7186C56.1914 48.5528 56.1904 48.4293 56.1904 48.3483V45.7207H56.851V50.1347H56.1164L54.6085 47.7499C54.5473 47.6532 54.4584 47.509 54.3419 47.3174C54.2273 47.1239 54.097 46.9017 53.9509 46.6509C53.9607 46.9096 53.9666 47.1328 53.9686 47.3204C53.9726 47.506 53.9745 47.6482 53.9745 47.747V50.1347H53.3169Z" fill="black"/>
<path d="M49.7432 50.1347V45.7207H52.7115V46.2984H50.4008V47.5989H52.5397V48.1706H50.4008V49.557H52.7115V50.1347H49.7432Z" fill="black"/>
<path d="M46.4492 50.1347V45.7207H47.1069V49.557H49.1954V50.1347H46.4492Z" fill="black"/>
<path d="M42.0054 50.1347L43.608 45.7207H44.402L45.9928 50.1347H45.2788L44.8878 48.9882H43.1074L42.7045 50.1347H42.0054ZM43.3059 48.4283H44.6952L44.4286 47.6463C44.3694 47.4646 44.3062 47.27 44.239 47.0627C44.1719 46.8553 44.0949 46.6084 44.008 46.3221C43.9191 46.6084 43.8411 46.8553 43.7739 47.0627C43.7068 47.27 43.6426 47.4646 43.5814 47.6463L43.3059 48.4283Z" fill="black"/>
<path d="M40.1544 50.1347L38.5518 45.7207H39.2598L40.1337 48.2091C40.187 48.3691 40.2482 48.5577 40.3174 48.7749C40.3865 48.9922 40.4674 49.246 40.5603 49.5363C40.6491 49.246 40.7272 48.9922 40.7943 48.7749C40.8634 48.5577 40.9246 48.3691 40.978 48.2091L41.8282 45.7207H42.5243L40.9454 50.1347H40.1544Z" fill="black"/>
<path d="M36.4536 50.2066C36.0625 50.2066 35.714 50.1108 35.4078 49.9192C35.1017 49.7276 34.8608 49.461 34.685 49.1194C34.5112 48.7777 34.4243 48.3817 34.4243 47.9314C34.4243 47.4792 34.5112 47.0822 34.685 46.7406C34.8608 46.3969 35.1017 46.1293 35.4078 45.9377C35.714 45.7462 36.0625 45.6504 36.4536 45.6504C36.8466 45.6504 37.1961 45.7462 37.5023 45.9377C37.8084 46.1293 38.0483 46.3969 38.2221 46.7406C38.3979 47.0822 38.4858 47.4792 38.4858 47.9314C38.4858 48.3817 38.3979 48.7777 38.2221 49.1194C38.0483 49.461 37.8084 49.7276 37.5023 49.9192C37.1961 50.1108 36.8466 50.2066 36.4536 50.2066ZM36.4536 49.6052C36.7083 49.6052 36.9394 49.541 37.1468 49.4126C37.3541 49.2823 37.519 49.0927 37.6415 48.8439C37.7639 48.593 37.8252 48.2889 37.8252 47.9314C37.8252 47.572 37.7639 47.2669 37.6415 47.0161C37.519 46.7652 37.3541 46.5756 37.1468 46.4473C36.9394 46.3169 36.7083 46.2518 36.4536 46.2518C36.2008 46.2518 35.9707 46.3169 35.7633 46.4473C35.556 46.5756 35.391 46.7652 35.2686 47.0161C35.1462 47.2669 35.0849 47.572 35.0849 47.9314C35.0849 48.2889 35.1462 48.593 35.2686 48.8439C35.391 49.0927 35.556 49.2823 35.7633 49.4126C35.9707 49.541 36.2008 49.6052 36.4536 49.6052Z" fill="black"/>
<path d="M32.3128 50.2066C31.7835 50.2066 31.3658 50.0733 31.0597 49.8066C30.7556 49.538 30.6035 49.1707 30.6035 48.7046H31.2612C31.2631 48.9949 31.356 49.2221 31.5396 49.386C31.7253 49.5499 31.983 49.6319 32.3128 49.6319C32.613 49.6319 32.853 49.5687 33.0327 49.4423C33.2144 49.3139 33.3052 49.1421 33.3052 48.9268C33.3052 48.757 33.2401 48.6197 33.1097 48.515C32.9813 48.4084 32.7641 48.3185 32.458 48.2455L31.9751 48.1299C31.5288 48.0233 31.2029 47.8752 30.9975 47.6856C30.7941 47.494 30.6924 47.2451 30.6924 46.939C30.6924 46.6803 30.7576 46.4542 30.8879 46.2606C31.0183 46.0671 31.2009 45.917 31.436 45.8104C31.6729 45.7037 31.9494 45.6504 32.2654 45.6504C32.7414 45.6504 33.1196 45.7748 33.4 46.0237C33.6824 46.2725 33.8306 46.6122 33.8444 47.0427H33.2075C33.1917 46.788 33.0989 46.5885 32.929 46.4443C32.7592 46.2982 32.535 46.2251 32.2565 46.2251C31.9899 46.2251 31.7717 46.2893 31.6018 46.4177C31.432 46.544 31.3471 46.707 31.3471 46.9064C31.3471 47.0664 31.4123 47.1968 31.5426 47.2975C31.6729 47.3962 31.8892 47.4821 32.1914 47.5552L32.6683 47.6678C33.1107 47.7725 33.4366 47.9235 33.6459 48.121C33.8572 48.3185 33.9629 48.5753 33.9629 48.8913C33.9629 49.1559 33.8948 49.387 33.7585 49.5845C33.6222 49.7819 33.4306 49.935 33.1838 50.0436C32.9369 50.1522 32.6466 50.2066 32.3128 50.2066Z" fill="black"/>
<path d="M29.9785 45.7207V50.1347H29.3208V45.7207H29.9785Z" fill="black"/>
<path d="M118.35 54.992C118.859 54.992 119.264 55.1049 119.566 55.3307C119.868 55.5565 120.024 55.8642 120.036 56.2536H118.941C118.938 56.1269 118.885 56.0207 118.781 55.9355C118.68 55.8502 118.55 55.8077 118.391 55.8077C118.237 55.8077 118.115 55.8374 118.028 55.8973C117.943 55.9572 117.9 56.0322 117.9 56.122C117.9 56.2717 118.032 56.3723 118.294 56.423L119.027 56.5577C119.402 56.6268 119.68 56.7418 119.86 56.9031C120.04 57.0644 120.129 57.2811 120.129 57.553C120.129 57.8017 120.057 58.0206 119.912 58.2095C119.769 58.3984 119.568 58.5458 119.31 58.6518C119.054 58.7555 118.756 58.8076 118.415 58.8076C118.079 58.8076 117.78 58.7567 117.52 58.6553C117.26 58.554 117.051 58.4089 116.894 58.22C116.74 58.0311 116.653 57.8075 116.632 57.5495H117.803C117.822 57.6854 117.882 57.7928 117.983 57.8711C118.085 57.9494 118.223 57.9883 118.398 57.9883C118.561 57.9883 118.689 57.9595 118.781 57.9019C118.874 57.8443 118.92 57.7694 118.92 57.6772C118.919 57.5252 118.772 57.4229 118.477 57.37L117.817 57.2524C117.458 57.1879 117.183 57.0645 116.994 56.8824C116.808 56.7004 116.715 56.4652 116.715 56.1773C116.715 55.8179 116.86 55.531 117.15 55.3167C117.441 55.1002 117.84 54.992 118.35 54.992ZM96.4861 54.985C96.8524 54.985 97.1738 55.0655 97.4503 55.2268C97.729 55.3857 97.947 55.6069 98.1037 55.8903C98.2603 56.1713 98.3388 56.4963 98.3389 56.8649V57.1866H95.7985C95.8054 57.4192 95.8744 57.6036 96.0056 57.7395C96.1392 57.8754 96.3236 57.9435 96.5586 57.9435C96.7337 57.9435 96.8803 57.9079 96.9978 57.8365C97.1176 57.765 97.1993 57.6693 97.2431 57.5495H98.3108C98.267 57.7936 98.1612 58.0101 97.9931 58.199C97.8249 58.3879 97.613 58.5357 97.3572 58.6417C97.1038 58.7477 96.8237 58.8006 96.5173 58.8006C96.144 58.8006 95.8155 58.7189 95.5321 58.5553C95.2511 58.3917 95.0311 58.1669 94.8721 57.8812C94.7155 57.5932 94.6373 57.2635 94.6373 56.8926C94.6374 56.5217 94.7155 56.1935 94.8721 55.9078C95.0311 55.6198 95.2499 55.3939 95.5286 55.2303C95.8074 55.0667 96.1267 54.985 96.4861 54.985ZM107.664 54.985C108.03 54.985 108.351 55.0655 108.628 55.2268C108.906 55.3857 109.124 55.607 109.281 55.8903C109.437 56.1713 109.516 56.4963 109.516 56.8649V57.1866H106.976C106.982 57.4193 107.052 57.6036 107.183 57.7395C107.317 57.8754 107.501 57.9435 107.736 57.9435C107.911 57.9435 108.057 57.9078 108.175 57.8365C108.295 57.765 108.376 57.6692 108.42 57.5495H109.488C109.444 57.7937 109.338 58.0101 109.17 58.199C109.002 58.3879 108.79 58.5357 108.534 58.6417C108.281 58.7477 108.001 58.8006 107.694 58.8006C107.321 58.8006 106.993 58.7188 106.71 58.5553C106.428 58.3917 106.209 58.1669 106.05 57.8812C105.893 57.5932 105.814 57.2635 105.814 56.8926C105.814 56.5217 105.893 56.1935 106.05 55.9078C106.209 55.6198 106.427 55.3939 106.706 55.2303C106.985 55.0667 107.304 54.985 107.664 54.985ZM114.452 54.985C114.818 54.985 115.139 55.0655 115.416 55.2268C115.695 55.3857 115.912 55.607 116.069 55.8903C116.226 56.1713 116.304 56.4963 116.304 56.8649V57.1866H113.764C113.771 57.4193 113.84 57.6036 113.971 57.7395C114.105 57.8754 114.289 57.9435 114.524 57.9435C114.699 57.9435 114.846 57.9078 114.963 57.8365C115.083 57.765 115.165 57.6692 115.208 57.5495H116.276C116.233 57.7937 116.126 58.0101 115.958 58.199C115.79 58.3879 115.578 58.5357 115.322 58.6417C115.069 58.7477 114.789 58.8006 114.483 58.8006C114.109 58.8006 113.781 58.7188 113.498 58.5553C113.217 58.3917 112.997 58.1669 112.838 57.8812C112.681 57.5932 112.603 57.2635 112.603 56.8926C112.603 56.5217 112.681 56.1935 112.838 55.9078C112.997 55.6198 113.215 55.3939 113.494 55.2303C113.773 55.0667 114.092 54.985 114.452 54.985ZM87.3931 57.1141C87.3931 57.3307 87.4452 57.497 87.5489 57.6122C87.6526 57.725 87.7989 57.7812 87.9877 57.7812C88.1744 57.7812 88.3242 57.7227 88.4371 57.6052C88.55 57.4854 88.6065 57.301 88.6065 57.0522V55.0683H89.7953V58.718H88.6201V58.1269C88.498 58.3343 88.3425 58.4978 88.1536 58.6176C87.9647 58.7374 87.7331 58.7975 87.4589 58.7975C87.0627 58.7975 86.7538 58.6708 86.5326 58.4174C86.3137 58.164 86.2044 57.8126 86.2043 57.3633V55.0683H87.3931V57.1141ZM91.6511 55.5589H91.6577C91.8835 55.1788 92.2329 54.9888 92.7052 54.9888C93.0139 54.9889 93.286 55.0694 93.521 55.2307C93.7559 55.3919 93.9391 55.6155 94.0704 55.9012C94.204 56.1869 94.2709 56.5154 94.2709 56.8863C94.2709 57.271 94.2051 57.6073 94.0739 57.8952C93.9449 58.181 93.7614 58.4037 93.5241 58.5627C93.2891 58.7193 93.0125 58.7975 92.6947 58.7975C92.4551 58.7975 92.2431 58.7446 92.0588 58.6386C91.8768 58.5303 91.7386 58.3689 91.6441 58.1546H91.6371V58.718H90.4619V53.5684H91.6511V55.5589ZM82.6928 55.8669C82.8103 55.7195 82.9293 55.5716 83.0491 55.4242C83.1689 55.2745 83.2888 55.1257 83.4085 54.9783L84.5592 53.5684H86.0213L84.1585 55.7871L86.0937 58.718H84.6698L83.3462 56.627L82.6928 57.4081V58.718H81.4487V53.5684H82.6928V55.8669ZM104.045 54.9888C104.442 54.9888 104.749 55.1155 104.968 55.3689C105.189 55.6223 105.3 55.9738 105.3 56.423V58.718H104.111V56.6722C104.111 56.4556 104.059 56.2906 103.955 56.1777C103.852 56.0625 103.705 56.0052 103.517 56.0052C103.33 56.0052 103.18 56.0649 103.067 56.1847C102.954 56.3022 102.898 56.4853 102.898 56.7341V58.718H101.709V55.0683H102.884V55.6594C103.006 55.452 103.162 55.2886 103.351 55.1687C103.54 55.0489 103.771 54.9889 104.045 54.9888ZM111.566 55.0683H112.316V55.9876H111.566V57.4911C111.566 57.6085 111.589 57.6891 111.635 57.7329C111.681 57.7767 111.771 57.7987 111.905 57.7987H112.316V58.718H111.642C111.204 58.718 110.883 58.6362 110.678 58.4727C110.475 58.3068 110.374 58.0464 110.374 57.6916V55.9876H109.751V55.0683H110.374V54.073H111.566V55.0683ZM101.066 55.0578C101.119 55.0578 101.17 55.059 101.218 55.0613V56.0425C101.175 56.0402 101.106 56.0382 101.014 56.0359C100.922 56.0336 100.833 56.0324 100.748 56.0324C100.534 56.0325 100.36 56.1038 100.226 56.2466C100.095 56.3894 100.029 56.5901 100.029 56.8482V58.7176H98.8404V55.0683H99.9914V55.7108H100.002C100.068 55.4781 100.172 55.311 100.313 55.2096C100.456 55.106 100.649 55.0543 100.893 55.0543C100.958 55.0543 101.015 55.0555 101.066 55.0578ZM92.3594 55.9358C92.136 55.9359 91.954 56.0224 91.8135 56.1952C91.673 56.368 91.6024 56.5984 91.6024 56.8863C91.6024 57.1789 91.6729 57.4129 91.8135 57.588C91.954 57.7607 92.136 57.8469 92.3594 57.847C92.5783 57.847 92.7513 57.7616 92.8781 57.5911C93.0047 57.4207 93.0681 57.1857 93.0681 56.8863C93.0681 56.5892 93.0047 56.3564 92.8781 56.1882C92.7513 56.02 92.5783 55.9358 92.3594 55.9358ZM96.5173 55.8626C96.3168 55.8626 96.1542 55.9171 96.0298 56.0254C95.9055 56.1336 95.8309 56.2833 95.8055 56.4744H97.2291C97.2014 56.2833 97.1256 56.1336 97.0013 56.0254C96.8769 55.9171 96.7154 55.8626 96.5173 55.8626ZM107.694 55.8626C107.494 55.8627 107.332 55.9171 107.207 56.0254C107.083 56.1337 107.008 56.2832 106.983 56.4744H108.407C108.379 56.2832 108.303 56.1337 108.178 56.0254C108.054 55.9171 107.892 55.8626 107.694 55.8626ZM114.483 55.8626C114.282 55.8627 114.12 55.9171 113.995 56.0254C113.871 56.1337 113.796 56.2832 113.771 56.4744H115.195C115.167 56.2832 115.091 56.1337 114.967 56.0254C114.842 55.9171 114.681 55.8626 114.483 55.8626Z" fill="black"/>
<path d="M77.1792 58.7299V55.0802H78.3301V55.7231H78.3405C78.4073 55.4904 78.511 55.3233 78.6515 55.2219C78.7944 55.1182 78.9879 55.0664 79.2321 55.0664C79.2967 55.0664 79.3543 55.0676 79.405 55.0699C79.458 55.0699 79.5086 55.071 79.557 55.0733V56.0549C79.5132 56.0526 79.4453 56.0503 79.3531 56.0479C79.261 56.0456 79.1722 56.0445 79.087 56.0445C78.8727 56.0445 78.6988 56.1159 78.5651 56.2588C78.4338 56.4016 78.3681 56.6021 78.3681 56.8601V58.7299H77.1792Z" fill="black"/>
<path d="M74.7463 58.8136C74.3638 58.8136 74.0286 58.7353 73.7406 58.5786C73.4526 58.4219 73.2279 58.2007 73.0666 57.915C72.9054 57.6293 72.8247 57.2929 72.8247 56.9058C72.8247 56.5234 72.9054 56.1893 73.0666 55.9036C73.2279 55.6155 73.4526 55.3932 73.7406 55.2365C74.0286 55.0775 74.3638 54.998 74.7463 54.998C75.1265 54.998 75.4606 55.0775 75.7486 55.2365C76.0389 55.3932 76.2636 55.6155 76.4226 55.9036C76.5838 56.1893 76.6645 56.5234 76.6645 56.9058C76.6645 57.2929 76.5838 57.6293 76.4226 57.915C76.2636 58.1984 76.0389 58.4196 75.7486 58.5786C75.4606 58.7353 75.1265 58.8136 74.7463 58.8136ZM74.7463 57.8666C74.9537 57.8666 75.1242 57.7837 75.2578 57.6178C75.3938 57.4519 75.4617 57.2146 75.4617 56.9058C75.4617 56.5971 75.3938 56.3598 75.2578 56.1939C75.1242 56.028 74.9537 55.945 74.7463 55.945C74.539 55.945 74.3673 56.028 74.2314 56.1939C74.0977 56.3598 74.0309 56.5971 74.0309 56.9058C74.0309 57.2146 74.0977 57.4519 74.2314 57.6178C74.365 57.7837 74.5366 57.8666 74.7463 57.8666Z" fill="black"/>
<path d="M72.5718 55.08V55.9994H71.8218V58.7297H70.6294V55.9994H69.9658V55.08H70.6294V54.6757C70.6294 54.3047 70.7331 54.0294 70.9405 53.8497C71.1501 53.6699 71.4727 53.5801 71.9082 53.5801H72.5718V54.4994H72.2089C72.0683 54.4994 71.9681 54.5294 71.9082 54.5893C71.8506 54.6469 71.8218 54.7448 71.8218 54.883V55.08H72.5718Z" fill="black"/>
<path d="M66.2896 60.2222C65.7274 60.2222 65.3046 60.1082 65.0212 59.8801C64.7401 59.652 64.5719 59.3628 64.5166 59.0126H65.6537C65.686 59.1255 65.7574 59.2142 65.868 59.2787C65.9786 59.3455 66.1191 59.3789 66.2896 59.3789C66.7412 59.3789 66.967 59.1347 66.967 58.6462V58.0829H66.9636C66.8668 58.2995 66.7274 58.4573 66.5454 58.5564C66.3634 58.6554 66.1537 58.705 65.9164 58.705C65.5961 58.705 65.3173 58.6266 65.08 58.47C64.845 58.311 64.6618 58.0932 64.5305 57.8167C64.4014 57.5403 64.3369 57.2234 64.3369 56.8663C64.3369 56.5046 64.4037 56.1831 64.5374 55.9021C64.671 55.621 64.8553 55.4009 65.0904 55.2419C65.3254 55.0806 65.5973 55 65.906 55C66.3783 55 66.7309 55.197 66.9636 55.591H66.967V55.0795H68.149V58.5287C68.149 59.1232 67.9808 59.554 67.6444 59.8213C67.3103 60.0886 66.8587 60.2222 66.2896 60.2222ZM66.2482 57.7718C66.474 57.7718 66.656 57.6889 66.7942 57.523C66.9348 57.3548 67.0051 57.129 67.0051 56.8456C67.0051 56.5668 66.9348 56.3433 66.7942 56.1751C66.656 56.0069 66.474 55.9228 66.2482 55.9228C66.0293 55.9228 65.8565 56.0046 65.7297 56.1682C65.6053 56.3318 65.5431 56.5576 65.5431 56.8456C65.5431 57.1359 65.6053 57.3628 65.7297 57.5264C65.8565 57.69 66.0293 57.7718 66.2482 57.7718Z" fill="black"/>
<path d="M61.4184 56.7453V58.7292H60.2295V55.0795H61.4046V55.6705C61.5267 55.4631 61.6822 55.2995 61.8712 55.1797C62.0601 55.0599 62.2917 55 62.5658 55C62.9621 55 63.2697 55.1267 63.4886 55.3802C63.7098 55.6336 63.8204 55.985 63.8204 56.4343V58.7292H62.6315V56.6831C62.6315 56.4666 62.5797 56.3018 62.476 56.1889C62.3723 56.0737 62.226 56.0161 62.0371 56.0161C61.8504 56.0161 61.7007 56.076 61.5878 56.1958C61.4749 56.3133 61.4184 56.4965 61.4184 56.7453Z" fill="black"/>
<path d="M58.3772 58.7303V55.0806H59.5661V58.7303H58.3772ZM58.9682 54.7247C58.7792 54.7247 58.6225 54.6682 58.4981 54.5553C58.376 54.4424 58.3149 54.2984 58.3149 54.1233C58.3149 53.9482 58.376 53.8053 58.4981 53.6947C58.6225 53.5818 58.7792 53.5254 58.9682 53.5254C59.1594 53.5254 59.3161 53.5818 59.4382 53.6947C59.5626 53.8053 59.6248 53.9482 59.6248 54.1233C59.6248 54.2984 59.5626 54.4424 59.4382 54.5553C59.3161 54.6682 59.1594 54.7247 58.9682 54.7247Z" fill="black"/>
<path d="M54.355 58.7297V53.5801H55.5439V56.3761H55.5577L56.6671 55.08H58.0392L56.681 56.6733L58.098 58.7297H56.7259L55.7962 57.3507L55.5439 57.6445V58.7297H54.355Z" fill="black"/>
<path d="M51.5352 58.7299V55.0802H52.6861V55.7231H52.6964C52.7632 55.4904 52.8669 55.3233 53.0075 55.2219C53.1503 55.1182 53.3439 55.0664 53.5881 55.0664C53.6526 55.0664 53.7102 55.0676 53.7609 55.0699C53.8139 55.0699 53.8646 55.071 53.913 55.0733V56.0549C53.8692 56.0526 53.8012 56.0503 53.7091 56.0479C53.6169 56.0456 53.5282 56.0445 53.4429 56.0445C53.2287 56.0445 53.0547 56.1159 52.9211 56.2588C52.7897 56.4016 52.7241 56.6021 52.7241 56.8601V58.7299H51.5352Z" fill="black"/>
<path d="M49.1013 58.8136C48.7188 58.8136 48.3836 58.7353 48.0956 58.5786C47.8076 58.4219 47.5829 58.2007 47.4216 57.915C47.2603 57.6293 47.1797 57.2929 47.1797 56.9058C47.1797 56.5234 47.2603 56.1893 47.4216 55.9036C47.5829 55.6155 47.8076 55.3932 48.0956 55.2365C48.3836 55.0775 48.7188 54.998 49.1013 54.998C49.4815 54.998 49.8156 55.0775 50.1036 55.2365C50.3939 55.3932 50.6186 55.6155 50.7775 55.9036C50.9388 56.1893 51.0195 56.5234 51.0195 56.9058C51.0195 57.2929 50.9388 57.6293 50.7775 57.915C50.6186 58.1984 50.3939 58.4196 50.1036 58.5786C49.8156 58.7353 49.4815 58.8136 49.1013 58.8136ZM49.1013 57.8666C49.3087 57.8666 49.4792 57.7837 49.6128 57.6178C49.7488 57.4519 49.8167 57.2146 49.8167 56.9058C49.8167 56.5971 49.7488 56.3598 49.6128 56.1939C49.4792 56.028 49.3087 55.945 49.1013 55.945C48.8939 55.945 48.7223 56.028 48.5863 56.1939C48.4527 56.3598 48.3859 56.5971 48.3859 56.9058C48.3859 57.2146 48.4527 57.4519 48.5863 57.6178C48.72 57.7837 48.8916 57.8666 49.1013 57.8666Z" fill="black"/>
<path d="M42.2336 58.7317L41.1104 55.082H42.3615L42.6449 56.2226C42.6956 56.4345 42.744 56.6546 42.79 56.8827C42.8384 57.1085 42.8868 57.3343 42.9352 57.5601C42.9882 57.3343 43.0412 57.1085 43.0942 56.8827C43.1495 56.6546 43.2048 56.4345 43.2601 56.2226L43.5608 55.082H44.6149L44.9156 56.2226C44.9709 56.4345 45.025 56.6546 45.078 56.8827C45.1333 57.1085 45.1875 57.3343 45.2404 57.5601C45.2865 57.3343 45.3315 57.1085 45.3752 56.8827C45.4213 56.6569 45.4697 56.4368 45.5204 56.2226L45.7934 55.082H47.0653L45.942 58.7317H44.7151L44.3107 57.3665C44.2716 57.2306 44.2336 57.0923 44.1967 56.9518C44.1598 56.8089 44.1241 56.6661 44.0895 56.5232C44.0527 56.6661 44.0158 56.8089 43.979 56.9518C43.9421 57.0923 43.9041 57.2306 43.8649 57.3665L43.4605 58.7317H42.2336Z" fill="black"/>
<path d="M40.7759 55.0813V56.0006H40.0259V57.5041C40.0259 57.6216 40.0489 57.7022 40.095 57.746C40.1411 57.7898 40.231 57.8116 40.3646 57.8116H40.7759V58.731H40.1019C39.6642 58.731 39.3427 58.6492 39.1377 58.4856C38.9349 58.3197 38.8335 58.0593 38.8335 57.7045V56.0006H38.2114V55.0813H38.8335V54.0859H40.0259V55.0813H40.7759Z" fill="black"/>
<path d="M36.1546 58.8136C35.7813 58.8136 35.453 58.7318 35.1696 58.5682C34.8885 58.4046 34.6684 58.18 34.5094 57.8943C34.3528 57.6063 34.2744 57.2768 34.2744 56.9058C34.2744 56.5349 34.3528 56.2065 34.5094 55.9208C34.6684 55.6328 34.8873 55.407 35.1661 55.2434C35.4449 55.0798 35.764 54.998 36.1235 54.998C36.4898 54.998 36.8112 55.0787 37.0877 55.24C37.3665 55.399 37.5842 55.6202 37.7409 55.9036C37.8976 56.1847 37.9759 56.5095 37.9759 56.8782V57.1996H35.4357C35.4426 57.4323 35.5117 57.6166 35.643 57.7526C35.7767 57.8885 35.961 57.9565 36.196 57.9565C36.3711 57.9565 36.5175 57.9208 36.635 57.8494C36.7548 57.7779 36.8366 57.6823 36.8803 57.5625H37.9483C37.9045 57.8067 37.7985 58.0233 37.6303 58.2122C37.4621 58.4012 37.2502 58.5486 36.9944 58.6546C36.7409 58.7606 36.461 58.8136 36.1546 58.8136ZM35.4426 56.4876H36.8665C36.8389 56.2964 36.7628 56.1466 36.6384 56.0383C36.514 55.93 36.3527 55.8759 36.1546 55.8759C35.9541 55.8759 35.7917 55.93 35.6672 56.0383C35.5428 56.1466 35.4679 56.2964 35.4426 56.4876Z" fill="black"/>
<path d="M29.2495 58.7297V53.5801H30.5352L31.9971 55.9199C32.0594 56.0166 32.14 56.1537 32.2391 56.3312C32.3382 56.5063 32.4372 56.686 32.5363 56.8703C32.5317 56.6676 32.5271 56.4694 32.5225 56.2759C32.5202 56.0823 32.519 55.9279 32.519 55.8127V53.5801H33.7632V58.7297H32.4741L31.1331 56.5869C31.0571 56.4671 30.9615 56.307 30.8463 56.1065C30.731 55.9061 30.6066 55.6849 30.473 55.4429C30.4822 55.6941 30.488 55.9199 30.4903 56.1203C30.4926 56.3208 30.4937 56.4752 30.4937 56.5835V58.7297H29.2495Z" fill="black"/>
<path d="M16.1517 43.3789L22.7401 46.6732L24.5245 53.8109L19.8577 59.5759H12.4456L7.77881 53.8109L9.42593 46.6732L16.1517 43.3789Z" fill="#1F4DBE"/>
<path d="M16.1512 52.1638L11.4844 49.4185L16.1512 46.8105L20.818 49.4185L16.1512 52.1638Z" fill="white"/>
<path d="M20.8182 49.4219L20.7496 55.4614L16.1514 57.7949V52.1671L20.8182 49.4219Z" fill="url(#paint3_linear_214_10002)"/>
<path d="M7.77881 53.8125L12.4456 59.5775H19.8577L7.77881 53.8125Z" fill="#006BFF"/>
<path d="M22.7399 46.6758L24.5243 53.8135L19.8574 59.5785L22.7399 46.6758Z" fill="#006BFF"/>
<defs>
<linearGradient id="paint0_linear_214_10002" x1="11.2099" y1="17.5924" x2="109.547" y2="72.3599" gradientUnits="userSpaceOnUse">
<stop stop-color="white"/>
<stop offset="1" stop-color="#E7F3FF"/>
</linearGradient>
<linearGradient id="paint1_linear_214_10002" x1="1" y1="42.0735" x2="38.4553" y2="101.364" gradientUnits="userSpaceOnUse">
<stop stop-color="#37A8FF"/>
<stop offset="1" stop-color="#3071FF"/>
</linearGradient>
<linearGradient id="paint2_linear_214_10002" x1="1.79736" y1="87.7495" x2="126.202" y2="87.7495" gradientUnits="userSpaceOnUse">
<stop stop-color="#F1F8FF"/>
<stop offset="1" stop-color="#B7D6FC"/>
</linearGradient>
<linearGradient id="paint3_linear_214_10002" x1="16.1514" y1="54.7096" x2="21.0498" y2="54.6714" gradientUnits="userSpaceOnUse">
<stop stop-color="#049FFC"/>
<stop offset="1" stop-color="#19C9FF"/>
</linearGradient>
</defs>
</svg>
