<svg width="128" height="128" viewBox="0 0 128 128" fill="none" xmlns="http://www.w3.org/2000/svg">
<path d="M5 40H123C124.657 40 126 41.3431 126 43V85C126 86.6569 124.657 88 123 88H5C3.34315 88 2 86.6569 2 85V43C2 41.3431 3.34315 40 5 40Z" fill="url(#paint0_linear_172_52)" stroke="url(#paint1_linear_172_52)" stroke-width="2"/>
<path d="M89.085 49.9243V49.1016H94.0259V49.9243H92.0301V55.3885H91.0892V49.9243H89.085Z" fill="black"/>
<path d="M83.2793 55.3885V49.1016H84.3173L86.7181 52.9032C86.7913 53.0214 86.8911 53.1888 87.0177 53.4054C87.1443 53.6219 87.2709 53.8414 87.3974 54.0636C87.389 53.8357 87.382 53.6051 87.3763 53.3716C87.3735 53.1353 87.3721 52.9595 87.3721 52.8442V49.1016H88.3131V55.3885H87.2666L85.119 51.9919C85.0318 51.854 84.9052 51.6487 84.7392 51.3758C84.5761 51.1002 84.3904 50.7837 84.1823 50.4265C84.1963 50.7949 84.2048 51.1128 84.2076 51.38C84.2132 51.6445 84.216 51.847 84.216 51.9876V55.3885H83.2793Z" fill="black"/>
<path d="M78.1895 55.3885V49.1016H82.4173V49.9243H79.1262V51.7767H82.1726V52.591H79.1262V54.5657H82.4173V55.3885H78.1895Z" fill="black"/>
<path d="M73.4985 55.3885V49.1016H74.4352V54.5657H77.4099V55.3885H73.4985Z" fill="black"/>
<path d="M67.1694 55.3885L69.4521 49.1016H70.5829L72.8488 55.3885H71.8319L71.2749 53.7556H68.7391L68.1652 55.3885H67.1694ZM69.0218 52.9581H71.0007L70.6209 51.8442C70.5365 51.5854 70.4465 51.3083 70.3509 51.013C70.2552 50.7176 70.1455 50.366 70.0218 49.9581C69.8952 50.366 69.7841 50.7176 69.6884 51.013C69.5928 51.3083 69.5014 51.5854 69.4142 51.8442L69.0218 52.9581Z" fill="black"/>
<path d="M64.5317 55.3885L62.249 49.1016H63.2575L64.5022 52.6459C64.5781 52.8737 64.6653 53.1423 64.7638 53.4518C64.8622 53.7612 64.9776 54.1227 65.1098 54.5362C65.2364 54.1227 65.3475 53.7612 65.4431 53.4518C65.5416 53.1423 65.6288 52.8737 65.7047 52.6459L66.9157 49.1016H67.9073L65.6583 55.3885H64.5317Z" fill="black"/>
<path d="M59.2609 55.4894C58.7039 55.4894 58.2075 55.353 57.7715 55.0802C57.3354 54.8073 56.9923 54.4276 56.7419 53.9409C56.4944 53.4543 56.3706 52.8903 56.3706 52.2489C56.3706 51.6048 56.4944 51.0394 56.7419 50.5527C56.9923 50.0633 57.3354 49.6821 57.7715 49.4093C58.2075 49.1364 58.7039 49 59.2609 49C59.8207 49 60.3186 49.1364 60.7546 49.4093C61.1906 49.6821 61.5324 50.0633 61.7799 50.5527C62.0302 51.0394 62.1554 51.6048 62.1554 52.2489C62.1554 52.8903 62.0302 53.4543 61.7799 53.9409C61.5324 54.4276 61.1906 54.8073 60.7546 55.0802C60.3186 55.353 59.8207 55.4894 59.2609 55.4894ZM59.2609 54.6329C59.6238 54.6329 59.9529 54.5415 60.2482 54.3586C60.5436 54.173 60.7785 53.9029 60.9529 53.5485C61.1273 53.1913 61.2145 52.7581 61.2145 52.2489C61.2145 51.737 61.1273 51.3024 60.9529 50.9451C60.7785 50.5879 60.5436 50.3179 60.2482 50.135C59.9529 49.9494 59.6238 49.8565 59.2609 49.8565C58.9008 49.8565 58.5731 49.9494 58.2778 50.135C57.9824 50.3179 57.7475 50.5879 57.5731 50.9451C57.3987 51.3024 57.3115 51.737 57.3115 52.2489C57.3115 52.7581 57.3987 53.1913 57.5731 53.5485C57.7475 53.9029 57.9824 54.173 58.2778 54.3586C58.5731 54.5415 58.9008 54.6329 59.2609 54.6329Z" fill="black"/>
<path d="M53.3633 55.4894C52.6094 55.4894 52.0145 55.2996 51.5785 54.9198C51.1453 54.5373 50.9287 54.0141 50.9287 53.3502H51.8654C51.8682 53.7637 52.0004 54.0872 52.262 54.3207C52.5265 54.5541 52.8936 54.6709 53.3633 54.6709C53.7909 54.6709 54.1327 54.5809 54.3886 54.4008C54.6474 54.218 54.7768 53.9733 54.7768 53.6667C54.7768 53.4247 54.684 53.2292 54.4983 53.0802C54.3155 52.9283 54.0061 52.8003 53.5701 52.6962L52.8823 52.5316C52.2466 52.3797 51.7824 52.1688 51.4899 51.8987C51.2002 51.6259 51.0553 51.2714 51.0553 50.8354C51.0553 50.4669 51.1481 50.1449 51.3338 49.8692C51.5194 49.5935 51.7796 49.3797 52.1144 49.2278C52.4519 49.0759 52.8457 49 53.2958 49C53.9737 49 54.5124 49.1772 54.9118 49.5316C55.3141 49.8861 55.5251 50.3699 55.5448 50.9831H54.6376C54.6151 50.6203 54.4829 50.3361 54.241 50.1308C53.999 49.9226 53.6798 49.8186 53.2831 49.8186C52.9034 49.8186 52.5926 49.91 52.3507 50.0928C52.1087 50.2729 51.9878 50.5049 51.9878 50.789C51.9878 51.0169 52.0806 51.2025 52.2663 51.346C52.4519 51.4866 52.7599 51.609 53.1903 51.7131L53.8696 51.8734C54.4997 52.0225 54.9639 52.2377 55.2621 52.519C55.563 52.8003 55.7135 53.166 55.7135 53.616C55.7135 53.993 55.6165 54.3221 55.4224 54.6034C55.2283 54.8847 54.9554 55.1027 54.6038 55.2574C54.2522 55.4121 53.8387 55.4894 53.3633 55.4894Z" fill="black"/>
<path d="M50.0383 49.1016V55.3885H49.1016V49.1016H50.0383Z" fill="black"/>
<path d="M101.652 79.999C101.173 79.999 100.748 79.9268 100.377 79.7824C100.006 79.638 99.7091 79.4313 99.4859 79.1622C99.2661 78.8931 99.1414 78.5748 99.1118 78.2072H100.781C100.807 78.4008 100.892 78.5534 101.037 78.665C101.181 78.7766 101.378 78.8324 101.627 78.8324C101.86 78.8324 102.042 78.7914 102.174 78.7093C102.305 78.6273 102.371 78.5206 102.371 78.3893C102.371 78.1727 102.161 78.0267 101.741 77.9512L100.8 77.7839C100.288 77.692 99.8978 77.5164 99.6287 77.2571C99.3629 76.9979 99.23 76.6631 99.23 76.2529C99.23 75.741 99.4367 75.3324 99.8502 75.0272C100.264 74.7187 100.833 74.5645 101.558 74.5645C102.284 74.5645 102.861 74.7253 103.291 75.0469C103.721 75.3685 103.944 75.8066 103.961 76.3612H102.4C102.397 76.1807 102.321 76.0298 102.174 75.9083C102.029 75.7869 101.844 75.7262 101.617 75.7262C101.398 75.7262 101.225 75.7689 101.101 75.8542C100.979 75.9395 100.918 76.0462 100.918 76.1742C100.918 76.3875 101.105 76.5302 101.48 76.6024L102.523 76.7944C103.058 76.8929 103.454 77.0569 103.71 77.2867C103.966 77.5164 104.094 77.8249 104.094 78.2121C104.094 78.5666 103.99 78.8783 103.783 79.1474C103.58 79.4165 103.294 79.6266 102.927 79.7775C102.563 79.9252 102.138 79.999 101.652 79.999Z" fill="black"/>
<path d="M96.051 79.9893C95.5193 79.9893 95.0517 79.8728 94.648 79.6398C94.2476 79.4068 93.9342 79.0868 93.7078 78.6799C93.4846 78.2696 93.373 77.8003 93.373 77.272C93.373 76.7436 93.4846 76.276 93.7078 75.869C93.9342 75.4588 94.246 75.1372 94.6431 74.9042C95.0402 74.6712 95.4947 74.5547 96.0067 74.5547C96.5285 74.5547 96.9863 74.6695 97.3801 74.8993C97.7772 75.1257 98.0873 75.4408 98.3105 75.8444C98.5336 76.2448 98.6452 76.7075 98.6452 77.2326V77.6904H95.0271C95.0369 78.0219 95.1354 78.2844 95.3224 78.478C95.5128 78.6717 95.7753 78.7685 96.11 78.7685C96.3595 78.7685 96.5678 78.7176 96.7352 78.6159C96.9059 78.5141 97.0224 78.3779 97.0847 78.2073H98.6058C98.5435 78.5551 98.3925 78.8636 98.1529 79.1327C97.9134 79.4018 97.6115 79.6119 97.2472 79.7628C96.8862 79.9138 96.4874 79.9893 96.051 79.9893ZM95.0369 76.6763H97.065C97.0257 76.404 96.9174 76.1906 96.7401 76.0364C96.5629 75.8822 96.3332 75.805 96.051 75.805C95.7655 75.805 95.5341 75.8822 95.3569 76.0364C95.1797 76.1906 95.073 76.404 95.0369 76.6763Z" fill="black"/>
<path d="M92.9646 74.6736V75.983H91.8964V78.1243C91.8964 78.2917 91.9292 78.4066 91.9949 78.4689C92.0605 78.5313 92.1885 78.5625 92.3788 78.5625H92.9646V79.8719H92.0047C91.3812 79.8719 90.9234 79.7554 90.6313 79.5224C90.3425 79.2861 90.1981 78.9153 90.1981 78.4099V75.983H89.312V74.6736H90.1981V73.2559H91.8964V74.6736H92.9646Z" fill="black"/>
<path d="M86.3825 79.9893C85.8509 79.9893 85.3832 79.8728 84.9796 79.6398C84.5792 79.4068 84.2658 79.0868 84.0393 78.6799C83.8162 78.2696 83.7046 77.8003 83.7046 77.272C83.7046 76.7436 83.8162 76.276 84.0393 75.869C84.2658 75.4588 84.5775 75.1372 84.9746 74.9042C85.3717 74.6712 85.8263 74.5547 86.3382 74.5547C86.86 74.5547 87.3178 74.6695 87.7116 74.8993C88.1087 75.1257 88.4188 75.4408 88.642 75.8444C88.8652 76.2448 88.9767 76.7075 88.9767 77.2326V77.6904H85.3586C85.3684 78.0219 85.4669 78.2844 85.654 78.478C85.8443 78.6717 86.1068 78.7685 86.4416 78.7685C86.691 78.7685 86.8994 78.7176 87.0668 78.6159C87.2374 78.5141 87.3539 78.3779 87.4163 78.2073H88.9374C88.875 78.5551 88.7241 78.8636 88.4845 79.1327C88.2449 79.4018 87.943 79.6119 87.5787 79.7628C87.2177 79.9138 86.819 79.9893 86.3825 79.9893ZM85.3684 76.6763H87.3966C87.3572 76.404 87.2489 76.1906 87.0717 76.0364C86.8945 75.8822 86.6647 75.805 86.3825 75.805C86.097 75.805 85.8656 75.8822 85.6884 76.0364C85.5112 76.1906 85.4045 76.404 85.3684 76.6763Z" fill="black"/>
<path d="M79.5503 77.0465V79.8721H77.8569V74.6738H79.5306V75.5155C79.7046 75.2202 79.9261 74.9872 80.1952 74.8165C80.4643 74.6459 80.7941 74.5605 81.1846 74.5605C81.7491 74.5605 82.1872 74.741 82.499 75.102C82.814 75.463 82.9716 75.9635 82.9716 76.6034V79.8721H81.2782V76.9579C81.2782 76.6494 81.2043 76.4147 81.0567 76.2539C80.909 76.0898 80.7006 76.0078 80.4315 76.0078C80.1657 76.0078 79.9523 76.0931 79.7915 76.2638C79.6307 76.4311 79.5503 76.692 79.5503 77.0465Z" fill="black"/>
<path d="M73.7715 79.8723V74.674H75.4107V75.5896H75.4255C75.5207 75.2581 75.6683 75.0202 75.8685 74.8758C76.072 74.7281 76.3477 74.6543 76.6955 74.6543C76.7874 74.6543 76.8695 74.6559 76.9417 74.6592C77.0172 74.6592 77.0894 74.6609 77.1583 74.6641V76.0622C77.0959 76.0589 76.9991 76.0556 76.8678 76.0523C76.7366 76.049 76.6102 76.0474 76.4888 76.0474C76.1836 76.0474 75.9358 76.1491 75.7455 76.3526C75.5584 76.5561 75.4649 76.8416 75.4649 77.2091V79.8723H73.7715Z" fill="black"/>
<path d="M70.4626 79.9893C69.9309 79.9893 69.4633 79.8728 69.0596 79.6398C68.6593 79.4068 68.3459 79.0868 68.1194 78.6799C67.8962 78.2696 67.7847 77.8003 67.7847 77.272C67.7847 76.7436 67.8962 76.276 68.1194 75.869C68.3459 75.4588 68.6576 75.1372 69.0547 74.9042C69.4518 74.6712 69.9063 74.5547 70.4183 74.5547C70.9401 74.5547 71.3979 74.6695 71.7917 74.8993C72.1888 75.1257 72.4989 75.4408 72.7221 75.8444C72.9452 76.2448 73.0568 76.7075 73.0568 77.2326V77.6904H69.4387C69.4485 78.0219 69.547 78.2844 69.734 78.478C69.9244 78.6717 70.1869 78.7685 70.5217 78.7685C70.7711 78.7685 70.9795 78.7176 71.1468 78.6159C71.3175 78.5141 71.434 78.3779 71.4963 78.2073H73.0174C72.9551 78.5551 72.8041 78.8636 72.5646 79.1327C72.325 79.4018 72.0231 79.6119 71.6588 79.7628C71.2978 79.9138 70.8991 79.9893 70.4626 79.9893ZM69.4485 76.6763H71.4767C71.4373 76.404 71.329 76.1906 71.1518 76.0364C70.9745 75.8822 70.7448 75.805 70.4626 75.805C70.1771 75.805 69.9457 75.8822 69.7685 76.0364C69.5913 76.1906 69.4846 76.404 69.4485 76.6763Z" fill="black"/>
<path d="M65.0179 79.9851C64.6766 79.9851 64.3747 79.9096 64.1122 79.7586C63.8529 79.6044 63.656 79.3746 63.5214 79.0694H63.5116V79.8718H61.8379V72.5371H63.5313V75.3725H63.5411C63.8627 74.8311 64.3599 74.5603 65.0327 74.5603C65.4724 74.5603 65.8597 74.6752 66.1944 74.9049C66.5292 75.1346 66.7901 75.4529 66.9771 75.8599C67.1675 76.2668 67.2627 76.7345 67.2627 77.2628C67.2627 77.8109 67.1691 78.29 66.9821 78.7002C66.7983 79.1072 66.5374 79.4239 66.1994 79.6503C65.8646 79.8735 65.4708 79.9851 65.0179 79.9851ZM64.5404 78.6313C64.8522 78.6313 65.0983 78.5099 65.2788 78.2671C65.4593 78.0242 65.5496 77.6895 65.5496 77.2628C65.5496 76.8395 65.4593 76.508 65.2788 76.2685C65.0983 76.0289 64.8522 75.9091 64.5404 75.9091C64.2221 75.9091 63.9628 76.0322 63.7626 76.2783C63.5625 76.5244 63.4624 76.8526 63.4624 77.2628C63.4624 77.6796 63.5625 78.0127 63.7626 78.2621C63.9628 78.5083 64.2221 78.6313 64.5404 78.6313Z" fill="black"/>
<path d="M57.5608 79.9854C56.9964 79.9854 56.5566 79.8049 56.2416 79.4439C55.9298 79.0829 55.7739 78.5824 55.7739 77.9425V74.6738H57.4673V77.588C57.4673 77.8965 57.5412 78.1328 57.6888 78.2969C57.8365 78.4577 58.0449 78.5381 58.314 78.5381C58.5798 78.5381 58.7932 78.4544 58.954 78.287C59.1148 78.1164 59.1952 77.8539 59.1952 77.4994V74.6738H60.8886V79.8721H59.2149V79.0304C59.0409 79.3257 58.8194 79.5587 58.5503 79.7294C58.2812 79.9 57.9514 79.9854 57.5608 79.9854Z" fill="black"/>
<path d="M49 79.8718V72.5371H50.7722V75.8107C50.9395 75.6006 51.1085 75.3906 51.2792 75.1806C51.4498 74.9673 51.6205 74.7556 51.7911 74.5455L53.4304 72.5371H55.5127L52.8594 75.6974L55.616 79.8718H53.5879L51.7025 76.8936L50.7722 78.0062V79.8718H49Z" fill="black"/>
<path d="M117.267 67.6301V62.4318H118.906V63.3474H118.921C119.016 63.016 119.164 62.778 119.364 62.6336C119.568 62.4859 119.843 62.4121 120.191 62.4121C120.283 62.4121 120.365 62.4138 120.437 62.417C120.513 62.417 120.585 62.4187 120.654 62.422V63.82C120.592 63.8167 120.495 63.8134 120.363 63.8101C120.232 63.8069 120.106 63.8052 119.984 63.8052C119.679 63.8052 119.431 63.9069 119.241 64.1104C119.054 64.3139 118.96 64.5994 118.96 64.967V67.6301H117.267Z" fill="black"/>
<path d="M113.801 67.749C113.257 67.749 112.779 67.6375 112.369 67.4143C111.959 67.1911 111.639 66.8761 111.409 66.4692C111.179 66.0622 111.064 65.5831 111.064 65.0317C111.064 64.487 111.179 64.0111 111.409 63.6042C111.639 63.194 111.959 62.8773 112.369 62.6541C112.779 62.4277 113.257 62.3145 113.801 62.3145C114.343 62.3145 114.819 62.4277 115.229 62.6541C115.643 62.8773 115.962 63.194 116.189 63.6042C116.419 64.0111 116.534 64.487 116.534 65.0317C116.534 65.5831 116.419 66.0622 116.189 66.4692C115.962 66.8728 115.643 67.1879 115.229 67.4143C114.819 67.6375 114.343 67.749 113.801 67.749ZM113.801 66.4002C114.097 66.4002 114.34 66.2821 114.53 66.0458C114.724 65.8095 114.82 65.4715 114.82 65.0317C114.82 64.592 114.724 64.254 114.53 64.0177C114.34 63.7814 114.097 63.6633 113.801 63.6633C113.506 63.6633 113.262 63.7814 113.068 64.0177C112.878 64.254 112.782 64.592 112.782 65.0317C112.782 65.4715 112.878 65.8095 113.068 66.0458C113.258 66.2821 113.503 66.4002 113.801 66.4002Z" fill="black"/>
<path d="M110.705 62.4313V63.7408H109.637V67.6296H107.939V63.7408H106.994V62.4313H107.939V61.8554C107.939 61.327 108.086 60.9349 108.382 60.6789C108.68 60.4229 109.14 60.2949 109.76 60.2949H110.705V61.6043H110.188C109.988 61.6043 109.846 61.647 109.76 61.7323C109.678 61.8144 109.637 61.9538 109.637 62.1508V62.4313H110.705Z" fill="black"/>
<path d="M101.756 69.7565C100.956 69.7565 100.353 69.594 99.9498 69.2691C99.5494 68.9442 99.3098 68.5324 99.2311 68.0335H100.851C100.897 68.1943 100.998 68.3207 101.156 68.4126C101.313 68.5078 101.514 68.5553 101.756 68.5553C102.4 68.5553 102.721 68.2075 102.721 67.5117V66.7094H102.716C102.578 67.0178 102.38 67.2426 102.121 67.3838C101.861 67.5249 101.563 67.5954 101.225 67.5954C100.769 67.5954 100.371 67.4838 100.033 67.2607C99.6987 67.0342 99.4378 66.7241 99.2508 66.3303C99.067 65.9365 98.9751 65.4853 98.9751 64.9766C98.9751 64.4613 99.0703 64.0035 99.2606 63.6032C99.451 63.2028 99.7135 62.8894 100.048 62.6629C100.383 62.4332 100.77 62.3184 101.21 62.3184C101.883 62.3184 102.385 62.5989 102.716 63.1601H102.721V62.4316H104.405V67.3444C104.405 68.1911 104.165 68.8048 103.686 69.1854C103.21 69.5661 102.567 69.7565 101.756 69.7565ZM101.697 66.2663C102.019 66.2663 102.278 66.1482 102.475 65.9119C102.675 65.6723 102.775 65.3507 102.775 64.947C102.775 64.55 102.675 64.2316 102.475 63.9921C102.278 63.7525 102.019 63.6327 101.697 63.6327C101.386 63.6327 101.139 63.7492 100.959 63.9822C100.782 64.2152 100.693 64.5368 100.693 64.947C100.693 65.3605 100.782 65.6838 100.959 65.9168C101.139 66.1498 101.386 66.2663 101.697 66.2663Z" fill="black"/>
<path d="M94.8199 64.8043V67.6299H93.1265V62.4316H94.8002V63.2734C94.9741 62.978 95.1956 62.745 95.4647 62.5743C95.7338 62.4037 96.0636 62.3184 96.4542 62.3184C97.0186 62.3184 97.4568 62.4989 97.7685 62.8598C98.0836 63.2208 98.2411 63.7213 98.2411 64.3613V67.6299H96.5477V64.7157C96.5477 64.4072 96.4739 64.1726 96.3262 64.0117C96.1785 63.8477 95.9701 63.7656 95.701 63.7656C95.4352 63.7656 95.2219 63.8509 95.0611 64.0216C94.9003 64.189 94.8199 64.4499 94.8199 64.8043Z" fill="black"/>
<path d="M90.488 67.6303V62.432H92.1814V67.6303H90.488ZM91.3298 61.925C91.0607 61.925 90.8375 61.8445 90.6603 61.6837C90.4864 61.5229 90.3994 61.3178 90.3994 61.0684C90.3994 60.819 90.4864 60.6155 90.6603 60.458C90.8375 60.2972 91.0607 60.2168 91.3298 60.2168C91.6022 60.2168 91.8253 60.2972 91.9993 60.458C92.1765 60.6155 92.2651 60.819 92.2651 61.0684C92.2651 61.3178 92.1765 61.5229 91.9993 61.6837C91.8253 61.8445 91.6022 61.925 91.3298 61.925Z" fill="black"/>
<path d="M84.7583 67.6296V60.2949H86.4517V64.2773H86.4714L88.0516 62.4313H90.0058L88.0712 64.7007L90.0895 67.6296H88.1352L86.811 65.6655L86.4517 66.0839V67.6296H84.7583Z" fill="black"/>
<path d="M80.7417 67.6301V62.4318H82.3809V63.3474H82.3957C82.4909 63.016 82.6386 62.778 82.8387 62.6336C83.0422 62.4859 83.3179 62.4121 83.6658 62.4121C83.7576 62.4121 83.8397 62.4138 83.9119 62.417C83.9874 62.417 84.0596 62.4187 84.1285 62.422V63.82C84.0661 63.8167 83.9693 63.8134 83.838 63.8101C83.7068 63.8069 83.5804 63.8052 83.459 63.8052C83.1538 63.8052 82.906 63.9069 82.7157 64.1104C82.5286 64.3139 82.4351 64.5994 82.4351 64.967V67.6301H80.7417Z" fill="black"/>
<path d="M77.2761 67.749C76.7313 67.749 76.2538 67.6375 75.8436 67.4143C75.4333 67.1911 75.1134 66.8761 74.8836 66.4692C74.6539 66.0622 74.5391 65.5831 74.5391 65.0317C74.5391 64.487 74.6539 64.0111 74.8836 63.6042C75.1134 63.194 75.4333 62.8773 75.8436 62.6541C76.2538 62.4277 76.7313 62.3145 77.2761 62.3145C77.8175 62.3145 78.2934 62.4277 78.7036 62.6541C79.1171 62.8773 79.4371 63.194 79.6635 63.6042C79.8933 64.0111 80.0081 64.487 80.0081 65.0317C80.0081 65.5831 79.8933 66.0622 79.6635 66.4692C79.4371 66.8728 79.1171 67.1879 78.7036 67.4143C78.2934 67.6375 77.8175 67.749 77.2761 67.749ZM77.2761 66.4002C77.5714 66.4002 77.8143 66.2821 78.0046 66.0458C78.1982 65.8095 78.295 65.4715 78.295 65.0317C78.295 64.592 78.1982 64.254 78.0046 64.0177C77.8143 63.7814 77.5714 63.6633 77.2761 63.6633C76.9807 63.6633 76.7362 63.7814 76.5426 64.0177C76.3522 64.254 76.2571 64.592 76.2571 65.0317C76.2571 65.4715 76.3522 65.8095 76.5426 66.0458C76.7329 66.2821 76.9774 66.4002 77.2761 66.4002Z" fill="black"/>
<path d="M67.4939 67.6299L65.894 62.4316H67.676L68.0797 64.0561C68.1519 64.358 68.2208 64.6714 68.2865 64.9963C68.3554 65.3179 68.4243 65.6396 68.4932 65.9612C68.5687 65.6396 68.6442 65.3179 68.7196 64.9963C68.7984 64.6714 68.8772 64.358 68.9559 64.0561L69.3842 62.4316H70.8856L71.3139 64.0561C71.3926 64.358 71.4698 64.6714 71.5452 64.9963C71.624 65.3179 71.7011 65.6396 71.7766 65.9612C71.8422 65.6396 71.9062 65.3179 71.9686 64.9963C72.0342 64.6747 72.1031 64.3613 72.1753 64.0561L72.5642 62.4316H74.3758L72.7759 67.6299H71.0284L70.4524 65.6855C70.3966 65.4919 70.3425 65.295 70.29 65.0948C70.2375 64.8913 70.1866 64.6878 70.1374 64.4844C70.0849 64.6878 70.0324 64.8913 69.9798 65.0948C69.9273 65.295 69.8732 65.4919 69.8174 65.6855L69.2414 67.6299H67.4939Z" fill="black"/>
<path d="M65.4168 62.4314V63.7408H64.3486V65.8822C64.3486 66.0495 64.3814 66.1644 64.447 66.2267C64.5126 66.2891 64.6406 66.3203 64.831 66.3203H65.4168V67.6297H64.4569C63.8333 67.6297 63.3755 67.5132 63.0834 67.2802C62.7946 67.0439 62.6502 66.6731 62.6502 66.1677V63.7408H61.7642V62.4314H62.6502V61.0137H64.3486V62.4314H65.4168Z" fill="black"/>
<path d="M58.8356 67.749C58.304 67.749 57.8363 67.6325 57.4327 67.3995C57.0323 67.1665 56.7189 66.8466 56.4925 66.4396C56.2693 66.0294 56.1577 65.5601 56.1577 65.0317C56.1577 64.5034 56.2693 64.0357 56.4925 63.6288C56.7189 63.2186 57.0307 62.897 57.4278 62.664C57.8249 62.431 58.2794 62.3145 58.7913 62.3145C59.3131 62.3145 59.7709 62.4293 60.1648 62.659C60.5618 62.8855 60.872 63.2005 61.0951 63.6042C61.3183 64.0046 61.4299 64.4673 61.4299 64.9924V65.4502H57.8117C57.8216 65.7816 57.92 66.0442 58.1071 66.2378C58.2974 66.4314 58.56 66.5282 58.8947 66.5282C59.1441 66.5282 59.3525 66.4774 59.5199 66.3756C59.6905 66.2739 59.807 66.1377 59.8694 65.967H61.3905C61.3281 66.3149 61.1772 66.6234 60.9376 66.8925C60.698 67.1616 60.3961 67.3716 60.0318 67.5226C59.6708 67.6736 59.2721 67.749 58.8356 67.749ZM57.8216 64.4361H59.8497C59.8103 64.1637 59.702 63.9504 59.5248 63.7962C59.3476 63.6419 59.1179 63.5648 58.8356 63.5648C58.5501 63.5648 58.3188 63.6419 58.1415 63.7962C57.9643 63.9504 57.8577 64.1637 57.8216 64.4361Z" fill="black"/>
<path d="M49 67.6296V60.2949H50.8312L52.9135 63.6275C53.0021 63.7654 53.117 63.9606 53.2581 64.2133C53.3992 64.4628 53.5403 64.7187 53.6814 64.9813C53.6749 64.6925 53.6683 64.4102 53.6618 64.1346C53.6585 63.8589 53.6568 63.639 53.6568 63.4749V60.2949H55.429V67.6296H53.5928L51.6828 64.5776C51.5745 64.407 51.4384 64.1789 51.2743 63.8934C51.1102 63.6079 50.933 63.2928 50.7426 62.9482C50.7557 63.3059 50.764 63.6275 50.7672 63.9131C50.7705 64.1986 50.7722 64.4184 50.7722 64.5727V67.6296H49Z" fill="black"/>
<path d="M24.5424 48L37.5594 54.5085L41.0848 68.6102L31.8644 80H17.2204L8 68.6102L11.2542 54.5085L24.5424 48Z" fill="#1F4DBE"/>
<path d="M24.5416 65.3556L15.3213 59.9318L24.5416 54.7793L33.762 59.9318L24.5416 65.3556Z" fill="white"/>
<path d="M33.7619 59.9316L33.6263 71.8638L24.5415 76.474V65.3554L33.7619 59.9316Z" fill="url(#paint2_linear_172_52)"/>
<path d="M8 68.6094L17.2203 79.9992H31.8644L8 68.6094Z" fill="#006BFF"/>
<path d="M37.5597 54.5078L41.0851 68.6095L31.8647 79.9993L37.5597 54.5078Z" fill="#006BFF"/>
<defs>
<linearGradient id="paint0_linear_172_52" x1="11.2099" y1="-34.2759" x2="137.305" y2="-15.6758" gradientUnits="userSpaceOnUse">
<stop stop-color="white"/>
<stop offset="1" stop-color="#E7F3FF"/>
</linearGradient>
<linearGradient id="paint1_linear_172_52" x1="1" y1="58.1558" x2="112.678" y2="104.978" gradientUnits="userSpaceOnUse">
<stop stop-color="#37A8FF"/>
<stop offset="1" stop-color="#3071FF"/>
</linearGradient>
<linearGradient id="paint2_linear_172_52" x1="24.5415" y1="70.3785" x2="34.2194" y2="70.303" gradientUnits="userSpaceOnUse">
<stop stop-color="#049FFC"/>
<stop offset="1" stop-color="#19C9FF"/>
</linearGradient>
</defs>
</svg>
