<svg width="128" height="128" viewBox="0 0 128 128" fill="none" xmlns="http://www.w3.org/2000/svg">
<path d="M102.93 70V58.3594H105.235V64.9062H105.258L108.149 61.75H110.852L107.625 65.3281L111.024 70H108.329L105.899 66.6484L105.235 67.3828V70H102.93Z" fill="#6A6A6A"/>
<path d="M96.9458 70V61.75H99.1646V63.1562H99.188C99.4927 62.1641 100.118 61.6953 101.204 61.6953C101.469 61.6953 101.696 61.7031 101.883 61.7109V63.6719C101.711 63.6641 101.282 63.6328 100.891 63.6328C99.9458 63.6328 99.2505 64.2891 99.2505 65.5312V70H96.9458Z" fill="#6A6A6A"/>
<path d="M91.4771 70.1875C88.9771 70.1875 87.2896 68.4688 87.2896 65.8828C87.2896 63.2969 88.9771 61.5625 91.4771 61.5625C93.9849 61.5625 95.6724 63.2969 95.6724 65.8828C95.6724 68.4688 93.9849 70.1875 91.4771 70.1875ZM91.4771 68.3203C92.6021 68.3203 93.3521 67.4141 93.3521 65.8828C93.3521 64.3438 92.5942 63.4297 91.4771 63.4297C90.3677 63.4297 89.6099 64.3438 89.6099 65.8828C89.6099 67.4141 90.3599 68.3203 91.4771 68.3203Z" fill="#6A6A6A"/>
<path d="M76.5942 70L74.0552 61.75H76.4614L77.2192 64.6328C77.4692 65.6094 77.6958 66.6562 77.9224 67.6797C78.1724 66.6562 78.4224 65.6094 78.6802 64.6328L79.4692 61.75H81.5474L82.3286 64.6328C82.5864 65.6016 82.8364 66.6484 83.0786 67.6719C83.3052 66.6484 83.5239 65.6094 83.7661 64.6328L84.5161 61.75H86.9614L84.4224 70H82.0396L81.0786 66.7188C80.8833 66.0234 80.6958 65.2891 80.5083 64.5547C80.3208 65.2891 80.1333 66.0234 79.9302 66.7188L78.9614 70H76.5942Z" fill="#6A6A6A"/>
<path d="M73.2192 61.75V63.5547H71.5317V67.4531C71.5317 68.0156 71.7114 68.1953 72.3364 68.1953H73.2192V70H71.8755C70.063 70 69.2271 69.3125 69.2271 67.8125V63.5547H67.8052V61.75H69.2271V59.5H71.5317V61.75H73.2192Z" fill="#6A6A6A"/>
<path d="M63.2583 70.1875C60.7583 70.1875 59.1333 68.3906 59.1333 65.8828C59.1333 63.3672 60.813 61.5625 63.1802 61.5625C65.6099 61.5625 67.2427 63.3203 67.2427 65.8359V66.4531H61.3755C61.4146 67.6719 62.1177 68.4609 63.3286 68.4609C64.2271 68.4609 64.8442 68.0469 65.0552 67.4062H67.1567C66.8521 69.0469 65.2583 70.1875 63.2583 70.1875ZM61.3911 64.9844H65.0708C64.9536 63.9531 64.2661 63.3125 63.2271 63.3125C62.1958 63.3125 61.5161 63.9531 61.3911 64.9844Z" fill="#6A6A6A"/>
<path d="M47.938 70V58.3594H50.4692L54.2114 64.3125C54.4849 64.75 54.9849 65.6328 55.4458 66.4688C55.4146 65.5703 55.4067 64.6094 55.4067 64.1172V58.3594H57.8052V70H55.2661L51.8755 64.6094C51.5396 64.0781 50.9458 63.0703 50.2896 61.8906C50.3364 63.1094 50.3442 64.1016 50.3442 64.6016V70H47.938Z" fill="#6A6A6A"/>
<path d="M22.0251 64.423C22.2557 64.423 22.442 64.4962 22.5836 64.6419C22.723 64.7874 22.7939 64.9815 22.794 65.222H21.1955C21.24 64.9753 21.3374 64.7789 21.483 64.6373C21.6286 64.4958 21.8107 64.423 22.0251 64.423Z" fill="#6A6A6A"/>
<path d="M35.58 63.2759C35.9077 63.2759 36.1462 63.4093 36.2979 63.6723C36.4476 63.9352 36.5247 64.3681 36.5247 64.9668C36.5247 65.5655 36.4496 65.9983 36.2979 66.2653C36.1462 66.5323 35.9077 66.6662 35.58 66.6662C35.2423 66.6662 34.9974 66.5347 34.8497 66.2698C34.702 66.0069 34.6274 65.5716 34.6274 64.9668C34.6274 64.3681 34.7 63.9372 34.8497 63.6723C34.9994 63.4073 35.2422 63.2759 35.58 63.2759Z" fill="#6A6A6A"/>
<path fill-rule="evenodd" clip-rule="evenodd" d="M26.2784 57C26.7404 57 27.1833 57.1837 27.51 57.5103L29.0002 58.9999H40V69.2581C39.9999 70.22 39.22 71 38.2581 71H17V57H26.2784ZM25.0037 62.5541V63.7068H24.427V64.613H25.0037V66.3974C25.0037 66.814 25.1308 67.1378 25.3836 67.3744C25.6365 67.6111 25.9687 67.7282 26.3793 67.7282C26.5835 67.7282 26.7859 67.7042 26.9861 67.6556C27.1862 67.6071 27.362 67.5379 27.5157 67.451L27.2548 66.4825C27.0507 66.5734 26.8728 66.6196 26.7252 66.6197C26.4845 66.6197 26.3629 66.472 26.3629 66.1808V64.613H27.4391V63.7068H26.3629V62.5541H25.0037ZM22.0149 63.4625C21.5841 63.4625 21.2039 63.5513 20.8763 63.7273C20.5486 63.9032 20.2953 64.154 20.1153 64.4797C19.9353 64.8053 19.8465 65.1817 19.8465 65.6064C19.8465 66.0271 19.9353 66.3957 20.1113 66.7132C20.2873 67.0308 20.5425 67.2776 20.8763 67.4515C21.21 67.6254 21.6005 67.7124 22.0455 67.7124C22.4298 67.7123 22.7738 67.6495 23.0792 67.5241C23.3845 67.3987 23.6456 67.2147 23.86 66.9741L23.1455 66.2602C23.008 66.3996 22.8542 66.5047 22.6885 66.5755C22.5227 66.6462 22.3508 66.6826 22.1708 66.6826C21.9362 66.6826 21.7358 66.6198 21.572 66.4944C21.4082 66.369 21.2929 66.1889 21.2261 65.9523H24.1169C24.1229 65.8957 24.1248 65.8127 24.1248 65.7056C24.1248 65.0099 23.9428 64.4617 23.5787 64.0612C23.2146 63.6607 22.6945 63.4604 22.0149 63.4625ZM35.58 62.2297C34.8053 62.2297 34.2128 62.4667 33.8001 62.938C33.3875 63.4093 33.1809 64.0849 33.1809 64.9668C33.1809 65.8487 33.3875 66.5263 33.8001 66.9996C34.2128 67.4729 34.8053 67.7101 35.58 67.7101C36.3426 67.7101 36.9314 67.4729 37.3441 66.9996C37.7566 66.5263 37.9627 65.8486 37.9627 64.9668C37.9627 64.0849 37.7567 63.4093 37.3441 62.938C36.9314 62.4666 36.3447 62.2297 35.58 62.2297ZM28.2216 61.9615V67.6659H29.5893V65.6109C29.5893 65.3359 29.662 65.1109 29.8076 64.939C29.9552 64.7672 30.1534 64.6803 30.4041 64.6742C30.6226 64.6742 30.797 64.7428 30.9224 64.8783C31.0478 65.0159 31.1101 65.2002 31.1101 65.4369V67.6659H32.4778V65.0445C32.4778 64.557 32.3423 64.1704 32.0673 63.8832C31.7921 63.598 31.4256 63.4543 30.9644 63.4522C30.6631 63.4523 30.394 63.5132 30.1614 63.6365C29.9289 63.7599 29.7369 63.942 29.5893 64.1826V61.9615H28.2216ZM21.0061 59.2653C20.5931 59.2654 20.2583 59.6002 20.2582 60.0132V60.7055C20.2582 61.1187 20.593 61.4539 21.0061 61.454C21.4193 61.454 21.7546 61.1187 21.7546 60.7055V60.0132C21.7545 59.6001 21.4192 59.2653 21.0061 59.2653ZM23.9677 59.2256C23.6471 59.2256 23.3871 59.4856 23.3871 59.8062C23.3871 60.1269 23.647 60.3869 23.9677 60.3869H26.2903C26.611 60.3869 26.8709 60.1269 26.8709 59.8062C26.8709 59.4856 26.611 59.2256 26.2903 59.2256H23.9677Z" fill="#6A6A6A"/>
</svg>
