<svg width="128" height="128" viewBox="0 0 128 128" fill="none" xmlns="http://www.w3.org/2000/svg">
<path d="M2 6C2 3.79086 3.79086 2 6 2H122C124.209 2 126 3.79086 126 6V122C126 124.209 124.209 126 122 126H6C3.79086 126 2 124.209 2 122V6Z" fill="url(#paint0_linear_229_14059)"/>
<path d="M122 124V126H6V124H122ZM124 122V6C124 4.89543 123.105 4 122 4H6C4.89543 4 4 4.89543 4 6V122C4 123.105 4.89543 124 6 124V126C3.79086 126 2 124.209 2 122V6C2 3.85997 3.68056 2.11211 5.79395 2.00488L6 2H122L122.206 2.00488C124.319 2.11212 126 3.85996 126 6V122L125.995 122.206C125.888 124.319 124.14 126 122 126V124C123.105 124 124 123.105 124 122Z" fill="url(#paint1_linear_229_14059)"/>
<path d="M84.7734 113.178C82.7773 113.178 81.376 112.228 81.2461 110.689H83.5635C83.6318 111.223 84.0488 111.558 84.7393 111.558C85.3887 111.558 85.7715 111.305 85.7715 110.942C85.7715 110.628 85.4707 110.437 84.8965 110.334L83.5908 110.102C82.1689 109.849 81.4102 109.117 81.4102 107.976C81.4102 106.547 82.6338 105.631 84.6436 105.631C86.6602 105.631 87.9385 106.588 87.9795 108.126H85.8125C85.7988 107.62 85.3477 107.244 84.7256 107.244C84.1104 107.244 83.7549 107.511 83.7549 107.866C83.7549 108.167 84.0352 108.365 84.5342 108.461L85.9834 108.728C87.4668 109.001 88.1641 109.623 88.1641 110.696C88.1641 112.18 86.7969 113.178 84.7734 113.178Z" fill="black"/>
<path d="M76.9941 113.164C74.7793 113.164 73.2754 111.592 73.2754 109.391C73.2754 107.189 74.793 105.617 76.9326 105.617C79.0996 105.617 80.5967 107.148 80.5967 109.336V109.972H75.5723C75.5996 110.888 76.1465 111.469 77.0762 111.469C77.7666 111.469 78.2588 111.168 78.4297 110.689H80.542C80.2754 112.146 78.8193 113.164 76.9941 113.164ZM75.5859 108.563H78.4023C78.2998 107.805 77.7803 107.354 76.9941 107.354C76.2012 107.354 75.6885 107.805 75.5859 108.563Z" fill="black"/>
<path d="M72.708 105.781V107.6H71.2246V110.573C71.2246 111.038 71.3682 111.182 71.8945 111.182H72.708V113H71.375C69.6455 113 68.8662 112.371 68.8662 110.97V107.6H67.6357V105.781H68.8662V103.812H71.2246V105.781H72.708Z" fill="black"/>
<path d="M63.5684 113.164C61.3535 113.164 59.8496 111.592 59.8496 109.391C59.8496 107.189 61.3672 105.617 63.5068 105.617C65.6738 105.617 67.1709 107.148 67.1709 109.336V109.972H62.1465C62.1738 110.888 62.7207 111.469 63.6504 111.469C64.3408 111.469 64.833 111.168 65.0039 110.689H67.1162C66.8496 112.146 65.3936 113.164 63.5684 113.164ZM62.1602 108.563H64.9766C64.874 107.805 64.3545 107.354 63.5684 107.354C62.7754 107.354 62.2627 107.805 62.1602 108.563Z" fill="black"/>
<path d="M54.0801 109.077V113.001H51.7285V105.782H54.0527V106.951C54.5312 106.124 55.2627 105.625 56.3496 105.625C57.915 105.625 58.8311 106.685 58.8311 108.462V113.001H56.4795V108.954C56.4795 108.1 56.0488 107.635 55.3037 107.635C54.5586 107.635 54.0801 108.093 54.0801 109.077Z" fill="black"/>
<path d="M46.0547 113V105.781H48.3311V107.053H48.3516C48.6113 106.137 49.1514 105.754 50.1152 105.754C50.3682 105.754 50.5664 105.761 50.7578 105.768V107.709C50.5869 107.702 50.1699 107.688 49.8281 107.688C48.9873 107.688 48.4062 108.276 48.4062 109.302V113H46.0547Z" fill="black"/>
<path d="M41.4609 113.164C39.2461 113.164 37.7422 111.592 37.7422 109.391C37.7422 107.189 39.2598 105.617 41.3994 105.617C43.5664 105.617 45.0635 107.148 45.0635 109.336V109.972H40.0391C40.0664 110.888 40.6133 111.469 41.543 111.469C42.2334 111.469 42.7256 111.168 42.8965 110.689H45.0088C44.7422 112.146 43.2861 113.164 41.4609 113.164ZM40.0527 108.563H42.8691C42.7666 107.805 42.2471 107.354 41.4609 107.354C40.668 107.354 40.1553 107.805 40.0527 108.563Z" fill="black"/>
<path d="M33.9004 113.157C32.9502 113.157 32.1914 112.727 31.8223 111.886H31.8086V113H29.4844V102.814H31.8359V106.752H31.8496C32.3076 105.986 32.9844 105.624 33.9209 105.624C35.7461 105.624 37.0176 107.169 37.0176 109.377C37.0176 111.66 35.7939 113.157 33.9004 113.157ZM33.2373 111.277C34.1055 111.277 34.6387 110.566 34.6387 109.377C34.6387 108.201 34.1055 107.497 33.2373 107.497C32.3486 107.497 31.7402 108.235 31.7402 109.377C31.7402 110.532 32.3486 111.277 33.2373 111.277Z" fill="black"/>
<path d="M23.5439 113.157C21.9785 113.157 21.0625 112.098 21.0625 110.32V105.781H23.4141V109.828C23.4141 110.683 23.8447 111.147 24.5898 111.147C25.335 111.147 25.8135 110.689 25.8135 109.705V105.781H28.165V113H25.8408V111.831C25.3623 112.658 24.6309 113.157 23.5439 113.157Z" fill="black"/>
<path d="M11.6562 113V102.814H14.1172V107.36C14.5889 106.772 15.0605 106.191 15.5322 105.604L17.8086 102.814H20.7002L17.0156 107.203L20.8438 113H18.0273L15.4092 108.864L14.1172 110.409V113H11.6562Z" fill="black"/>
<path d="M106.457 96V88.7812H108.733V90.0527H108.754C109.014 89.1367 109.554 88.7539 110.518 88.7539C110.771 88.7539 110.969 88.7607 111.16 88.7676V90.709C110.989 90.7021 110.572 90.6885 110.23 90.6885C109.39 90.6885 108.809 91.2764 108.809 92.3018V96H106.457Z" fill="black"/>
<path d="M101.645 96.1641C99.3818 96.1641 97.8438 94.6807 97.8438 92.3906C97.8438 90.1143 99.3818 88.6172 101.645 88.6172C103.907 88.6172 105.438 90.1143 105.438 92.3906C105.438 94.6807 103.907 96.1641 101.645 96.1641ZM101.645 94.291C102.465 94.291 103.06 93.6143 103.06 92.3906C103.06 91.1738 102.465 90.4902 101.645 90.4902C100.824 90.4902 100.229 91.1738 100.229 92.3906C100.229 93.6143 100.817 94.291 101.645 94.291Z" fill="black"/>
<path d="M97.3447 88.7812V90.5996H95.8613V96H93.5029V90.5996H92.1904V88.7812H93.5029V87.9814C93.5029 86.5117 94.3164 85.8145 96.0322 85.8145H97.3447V87.6328H96.627C96.0664 87.6328 95.8613 87.8447 95.8613 88.3916V88.7812H97.3447Z" fill="black"/>
<path d="M84.917 98.9541C82.6953 98.9541 81.6289 97.9492 81.4102 96.5615H83.6592C83.7822 97.0127 84.2402 97.2861 84.917 97.2861C85.792 97.2861 86.2568 96.7939 86.2568 95.8369V94.7227H86.25C85.8672 95.5771 85.1221 95.9531 84.1787 95.9531C82.2852 95.9531 81.0547 94.4355 81.0547 92.3164C81.0547 90.1699 82.3262 88.625 84.1582 88.625C85.0947 88.625 85.7988 89.0352 86.25 89.7939H86.2568V88.7822H88.5947V95.6045C88.5947 97.9561 87.1729 98.9541 84.917 98.9541ZM84.835 94.1074C85.7236 94.1074 86.332 93.3896 86.332 92.2754C86.332 91.168 85.7236 90.4502 84.835 90.4502C83.9736 90.4502 83.4404 91.1338 83.4404 92.2754C83.4404 93.4238 83.9736 94.1074 84.835 94.1074Z" fill="black"/>
<path d="M75.2852 92.0771V96.001H72.9336V88.7822H75.2578V89.9512C75.7363 89.124 76.4678 88.625 77.5547 88.625C79.1201 88.625 80.0361 89.6846 80.0361 91.4619V96.001H77.6846V91.9541C77.6846 91.0996 77.2539 90.6348 76.5088 90.6348C75.7637 90.6348 75.2852 91.0928 75.2852 92.0771Z" fill="black"/>
<path d="M69.2695 96V88.7812H71.6211V96H69.2695ZM70.4385 88.0771C69.6865 88.0771 69.1465 87.5781 69.1465 86.8877C69.1465 86.1973 69.6865 85.7051 70.4385 85.7051C71.1973 85.7051 71.7373 86.1973 71.7373 86.8877C71.7373 87.5781 71.1973 88.0771 70.4385 88.0771Z" fill="black"/>
<path d="M61.3125 96V85.8145H63.6641V91.3447H63.6914L65.8857 88.7812H68.5996L65.9131 91.9326L68.7158 96H66.002L64.1631 93.2725L63.6641 93.8535V96H61.3125Z" fill="black"/>
<path d="M55.7344 96V88.7812H58.0107V90.0527H58.0312C58.291 89.1367 58.8311 88.7539 59.7949 88.7539C60.0479 88.7539 60.2461 88.7607 60.4375 88.7676V90.709C60.2666 90.7021 59.8496 90.6885 59.5078 90.6885C58.667 90.6885 58.0859 91.2764 58.0859 92.3018V96H55.7344Z" fill="black"/>
<path d="M50.9219 96.1641C48.6592 96.1641 47.1211 94.6807 47.1211 92.3906C47.1211 90.1143 48.6592 88.6172 50.9219 88.6172C53.1846 88.6172 54.7158 90.1143 54.7158 92.3906C54.7158 94.6807 53.1846 96.1641 50.9219 96.1641ZM50.9219 94.291C51.7422 94.291 52.3369 93.6143 52.3369 92.3906C52.3369 91.1738 51.7422 90.4902 50.9219 90.4902C50.1016 90.4902 49.5068 91.1738 49.5068 92.3906C49.5068 93.6143 50.0947 94.291 50.9219 94.291Z" fill="black"/>
<path d="M37.3389 96L35.1172 88.7812H37.5918L38.1523 91.0371C38.3574 91.8779 38.542 92.7871 38.7266 93.6826C38.9385 92.7871 39.1504 91.8779 39.3691 91.0371L39.9639 88.7812H42.0488L42.6436 91.0371C42.8623 91.8779 43.0742 92.7871 43.2861 93.6826C43.4639 92.7871 43.6416 91.8848 43.8398 91.0371L44.3799 88.7812H46.8955L44.6738 96H42.2471L41.4473 93.2998C41.2969 92.7666 41.1533 92.1992 41.0098 91.6318C40.8662 92.1992 40.7227 92.7666 40.5654 93.2998L39.7656 96H37.3389Z" fill="black"/>
<path d="M34.4541 88.7812V90.5996H32.9707V93.5732C32.9707 94.0381 33.1143 94.1816 33.6406 94.1816H34.4541V96H33.1211C31.3916 96 30.6123 95.3711 30.6123 93.9697V90.5996H29.3818V88.7812H30.6123V86.8125H32.9707V88.7812H34.4541Z" fill="black"/>
<path d="M25.3145 96.1641C23.0996 96.1641 21.5957 94.5918 21.5957 92.3906C21.5957 90.1895 23.1133 88.6172 25.2529 88.6172C27.4199 88.6172 28.917 90.1484 28.917 92.3359V92.9717H23.8926C23.9199 93.8877 24.4668 94.4688 25.3965 94.4688C26.0869 94.4688 26.5791 94.168 26.75 93.6895H28.8623C28.5957 95.1455 27.1396 96.1641 25.3145 96.1641ZM23.9062 91.5635H26.7227C26.6201 90.8047 26.1006 90.3535 25.3145 90.3535C24.5215 90.3535 24.0088 90.8047 23.9062 91.5635Z" fill="black"/>
<path d="M11.6562 96V85.8145H14.1992L17.0908 90.4424C17.3301 90.8252 17.7607 91.5908 18.1572 92.3223C18.1367 91.5156 18.123 90.6885 18.123 90.2305V85.8145H20.584V96H18.0342L15.3818 91.7617C15.0879 91.29 14.6025 90.4561 14.0762 89.499C14.1104 90.4902 14.1172 91.3311 14.1172 91.7549V96H11.6562Z" fill="black"/>
<path d="M69.9336 69.7808V68.543H77.3667V69.7808H74.3643V78.001H72.9487V69.7808H69.9336Z" fill="black"/>
<path d="M61.4595 78.001V68.543H63.021L66.6328 74.2622C66.7428 74.4399 66.8931 74.6917 67.0835 75.0176C67.2739 75.3434 67.4644 75.6735 67.6548 76.0078C67.6421 75.665 67.6315 75.318 67.623 74.9668C67.6188 74.6113 67.6167 74.3468 67.6167 74.1733V68.543H69.0322V78.001H67.458L64.2271 72.8911C64.0959 72.6838 63.9054 72.3748 63.6558 71.9644C63.4103 71.5496 63.131 71.0736 62.8179 70.5361C62.839 71.0905 62.8517 71.5687 62.856 71.9707C62.8644 72.3685 62.8687 72.6732 62.8687 72.8848V78.001H61.4595Z" fill="black"/>
<path d="M54.064 78.001V68.543H60.4243V69.7808H55.4731V72.5674H60.0562V73.7925H55.4731V76.7632H60.4243V78.001H54.064Z" fill="black"/>
<path d="M47.2656 78.001V68.543H48.6748V76.7632H53.1499V78.001H47.2656Z" fill="black"/>
<path d="M38.0039 78.001L41.438 68.543H43.1392L46.5479 78.001H45.0181L44.1802 75.5444H40.3652L39.502 78.001H38.0039ZM40.7905 74.3447H43.7676L43.1963 72.6689C43.0693 72.2796 42.9339 71.8628 42.79 71.4185C42.6462 70.9741 42.4811 70.4451 42.2949 69.8315C42.1045 70.4451 41.9373 70.9741 41.7935 71.4185C41.6496 71.8628 41.512 72.2796 41.3809 72.6689L40.7905 74.3447Z" fill="black"/>
<path d="M34.2969 78.001L30.8628 68.543H32.3799L34.2524 73.875C34.3667 74.2178 34.4979 74.6219 34.646 75.0874C34.7941 75.5529 34.9676 76.0967 35.1665 76.7188C35.3569 76.0967 35.5241 75.5529 35.668 75.0874C35.8161 74.6219 35.9473 74.2178 36.0615 73.875L37.8833 68.543H39.375L35.9917 78.001H34.2969Z" fill="black"/>
<path d="M26.6284 78.1533C25.7905 78.1533 25.0436 77.9481 24.3877 77.5376C23.7318 77.1271 23.2155 76.5558 22.8389 75.8237C22.4665 75.0916 22.2803 74.2432 22.2803 73.2783C22.2803 72.3092 22.4665 71.4587 22.8389 70.7266C23.2155 69.9902 23.7318 69.4168 24.3877 69.0063C25.0436 68.5959 25.7905 68.3906 26.6284 68.3906C27.4705 68.3906 28.2196 68.5959 28.8755 69.0063C29.5314 69.4168 30.0456 69.9902 30.418 70.7266C30.7946 71.4587 30.9829 72.3092 30.9829 73.2783C30.9829 74.2432 30.7946 75.0916 30.418 75.8237C30.0456 76.5558 29.5314 77.1271 28.8755 77.5376C28.2196 77.9481 27.4705 78.1533 26.6284 78.1533ZM26.6284 76.8647C27.1743 76.8647 27.6694 76.7272 28.1138 76.4521C28.5581 76.1729 28.9115 75.7666 29.1738 75.2334C29.4362 74.696 29.5674 74.0443 29.5674 73.2783C29.5674 72.5081 29.4362 71.8543 29.1738 71.3169C28.9115 70.7795 28.5581 70.3732 28.1138 70.0981C27.6694 69.8188 27.1743 69.6792 26.6284 69.6792C26.0868 69.6792 25.5938 69.8188 25.1494 70.0981C24.7051 70.3732 24.3517 70.7795 24.0894 71.3169C23.827 71.8543 23.6958 72.5081 23.6958 73.2783C23.6958 74.0443 23.827 74.696 24.0894 75.2334C24.3517 75.7666 24.7051 76.1729 25.1494 76.4521C25.5938 76.7272 26.0868 76.8647 26.6284 76.8647Z" fill="black"/>
<path d="M18.0146 78.1533C16.8805 78.1533 15.9855 77.8677 15.3296 77.2964C14.6779 76.7209 14.3521 75.9338 14.3521 74.9351H15.7612C15.7655 75.5571 15.9644 76.0438 16.3579 76.395C16.7557 76.7463 17.3079 76.9219 18.0146 76.9219C18.6579 76.9219 19.172 76.7865 19.5571 76.5156C19.9465 76.2406 20.1411 75.8724 20.1411 75.4111C20.1411 75.0472 20.0015 74.7531 19.7222 74.5288C19.4471 74.3003 18.9816 74.1077 18.3257 73.9512L17.291 73.7036C16.3346 73.4751 15.6364 73.1577 15.1963 72.7515C14.7604 72.341 14.5425 71.8078 14.5425 71.1519C14.5425 70.5975 14.6821 70.113 14.9614 69.6982C15.2407 69.2835 15.6322 68.9619 16.1357 68.7334C16.6436 68.5049 17.236 68.3906 17.9131 68.3906C18.9329 68.3906 19.7433 68.6572 20.3442 69.1904C20.9494 69.7236 21.2668 70.4515 21.2964 71.374H19.9316C19.8978 70.8281 19.6989 70.4007 19.335 70.0918C18.971 69.7786 18.4907 69.6221 17.894 69.6221C17.3228 69.6221 16.8551 69.7596 16.4912 70.0347C16.1273 70.3055 15.9453 70.6546 15.9453 71.082C15.9453 71.4248 16.085 71.7041 16.3643 71.9199C16.6436 72.1315 17.1069 72.3156 17.7544 72.4722L18.7764 72.7134C19.7243 72.9377 20.4225 73.2614 20.8711 73.6846C21.3239 74.1077 21.5503 74.6579 21.5503 75.335C21.5503 75.902 21.4043 76.3971 21.1123 76.8203C20.8203 77.2435 20.4098 77.5715 19.8809 77.8042C19.3519 78.0369 18.7298 78.1533 18.0146 78.1533Z" fill="black"/>
<path d="M13.2725 68.543V78.001H11.8633V68.543H13.2725Z" fill="black"/>
<path d="M32.9984 11L51.8824 20.4417L56.9968 40.8988L43.6206 57.4218H22.3762L9 40.8988L13.721 20.4417L32.9984 11Z" fill="#1F4DBE"/>
<path d="M32.9972 36.1787L19.6211 28.3106L32.9972 20.8359L46.3734 28.3106L32.9972 36.1787Z" fill="white"/>
<path d="M46.3727 28.3086L46.176 45.6184L32.9966 52.3063V36.1767L46.3727 28.3086Z" fill="url(#paint2_linear_229_14059)"/>
<path d="M9 40.8984L22.3762 57.4215H43.6206L9 40.8984Z" fill="#006BFF"/>
<path d="M51.8833 20.4395L56.9977 40.8965L43.6216 57.4195L51.8833 20.4395Z" fill="#006BFF"/>
<defs>
<linearGradient id="paint0_linear_229_14059" x1="-19.5" y1="-42.5" x2="140" y2="143.5" gradientUnits="userSpaceOnUse">
<stop stop-color="white"/>
<stop offset="1" stop-color="#E7F3FF"/>
</linearGradient>
<linearGradient id="paint1_linear_229_14059" x1="2" y1="49.5065" x2="127.744" y2="70.4267" gradientUnits="userSpaceOnUse">
<stop stop-color="#37A8FF"/>
<stop offset="1" stop-color="#3071FF"/>
</linearGradient>
<linearGradient id="paint2_linear_229_14059" x1="32.9966" y1="43.4636" x2="47.0365" y2="43.3541" gradientUnits="userSpaceOnUse">
<stop stop-color="#049FFC"/>
<stop offset="1" stop-color="#19C9FF"/>
</linearGradient>
</defs>
</svg>
