<svg width="128" height="128" viewBox="0 0 128 128" fill="none" xmlns="http://www.w3.org/2000/svg">
<path d="M1 56.8222C1 56.3681 1.36811 56 1.82219 56H126.178C126.632 56 127 56.3681 127 56.8222V71.6215C127 72.0756 126.632 72.4437 126.178 72.4437H1.82219C1.3681 72.4437 1 72.0756 1 71.6215V56.8222Z" fill="url(#paint0_linear_214_9760)"/>
<path d="M126.178 72.0326V72.4437H1.82219V72.0326H126.178ZM126.589 71.6215V56.8222C126.589 56.5951 126.405 56.4111 126.178 56.4111H1.82219C1.59515 56.4111 1.41109 56.5951 1.41109 56.8222V71.6215C1.41109 71.8486 1.59515 72.0326 1.82219 72.0326V72.4437L1.77983 72.4427C1.35946 72.4214 1.02233 72.0843 1.001 71.6639L1 71.6215V56.8222C1 56.3681 1.36811 56 1.82219 56H126.178C126.632 56 127 56.3681 127 56.8222V71.6215L126.999 71.6639C126.978 72.0843 126.641 72.4214 126.22 72.4427L126.178 72.4437V72.0326C126.405 72.0326 126.589 71.8486 126.589 71.6215Z" fill="url(#paint1_linear_214_9760)"/>
<path d="M70.6812 68.9531H126.59V71.6252C126.59 71.8523 126.406 72.0363 126.179 72.0363H70.6812V68.9531Z" fill="url(#paint2_linear_214_9760)"/>
<path d="M103.608 66.6617H106.67V61.0742H103.608V62.5928L105.099 65.2265L103.608 65.9198V66.6617Z" fill="#B5D5FF"/>
<path d="M109.304 64.6494H108.754V63.7355H108.32L108.22 62.8149H108.538V62.4937H108.071L107.897 61.0742H106.67V66.1185H109.102V65.226H109.304V64.6494Z" fill="#6999F3"/>
<path d="M104.338 64.984V67.1264H104.183V64.9749L102.907 64.8977V66.8724H102.751V64.8887L101.476 64.8115V66.6184H101.321V64.8024L100.044 64.7253V66.364H99.8891V64.7162L98.5054 64.6328V67.1302L105.513 67.5524V65.055L104.338 64.984Z" fill="#003575"/>
<path d="M104.339 63.4072L105.513 63.4782V62.1745L104.339 62.1035V63.4072Z" fill="#003575"/>
<path d="M99.4025 66.4955L98.651 65.5043C98.4195 65.1989 98.0778 65.0459 97.6985 64.9892L91.644 64.4941C91.644 64.4941 92.5256 65.6949 93.4386 67.9831L99.4025 68.5735V66.4955Z" fill="white"/>
<path d="M105.753 58.7715H105.454V61.0706H105.753V58.7715Z" fill="#3E7ED1"/>
<path d="M105.116 59.6063V59.7568H104.977V59.6063H105.116ZM105.239 59.0625V59.213H105.099V59.0625H105.239Z" fill="#3E7ED1"/>
<path d="M106.677 60.6484H106.172V61.073H106.677V60.6484Z" fill="#3E7ED1"/>
<path d="M105.932 58.7656V59.0639H106.302V59.2151H105.932V59.6077H106.302V59.7586H105.932V61.0696H105.751V59.7586H105.116V59.6077H105.751V59.2151H105.238V59.0639H105.751V58.7656H105.932ZM107.238 60.0936V60.6025H107.577V61.0694H106.669V60.6531H106.173V60.5033H106.669V60.0936H107.238Z" fill="#003EA2"/>
<path d="M104.188 61.4727V61.7956H103.932V61.4727H104.188ZM104.662 61.7956H104.405V61.4727H104.662V61.7956ZM105.135 61.7956H104.879V61.4727H105.135V61.7956ZM105.609 61.7956H105.353V61.4727H105.609V61.7956ZM106.083 61.7956H105.826V61.4727H106.083V61.7956Z" fill="#003EA2"/>
<path d="M107.255 65.7494H107.015V65.3443H107.255V65.7494ZM107.925 65.3443V65.7494H107.542V65.3443H107.925ZM108.397 65.0135H106.976V64.8405H108.397V65.0135ZM108.365 64.3822H106.976V64.1703H108.365V64.3822ZM107.93 63.7295H106.984V63.5175H107.93V63.7295ZM107.918 63.0241H106.984V62.8121H107.918V63.0241ZM107.221 62.1278H106.965V61.4727H107.221V62.1278ZM107.695 62.1278H107.438V61.4727H107.695V62.1278Z" fill="#003EA2"/>
<path d="M103.608 66.6561H106.67L106.773 64.5599L105.483 62.9746L103.608 66.6561Z" fill="#598AF4"/>
<path d="M98.5054 61.748V66.2701L105.513 66.2849V62.1707L98.5054 61.748Z" fill="#003EA2"/>
<path d="M94.7793 64.9042V61.7383L98.5046 61.7473L98.5084 65.9172L94.7793 64.9042Z" fill="#0054DC"/>
<path d="M95.9002 65.3638H96.0507V64.6306H97.2123V65.3638H97.3629V64.6306H98.508V66.3787H94.7793V64.6306H95.9002V65.3638ZM95.9002 64.4798H94.7793V63.2022H95.9002V64.4798ZM97.2121 64.4798H96.0505V63.2022H97.2121V64.4798ZM98.5078 64.4798H97.3629V63.2022H98.5078V64.4798ZM95.9002 61.7383V63.0521H94.7793V61.7383H95.9002ZM97.2121 63.0521H96.0505V61.7383H97.2121V63.0521ZM98.5078 63.0521H97.3629V61.7383H98.5078V63.0521Z" fill="#91BBFF"/>
<path d="M96.3972 65.2903H96.2577V64.7847H96.3972V65.2903ZM96.702 65.2903H96.5622V64.7847H96.702V65.2903ZM97.0065 65.2903H96.867V64.7847H97.0065V65.2903ZM97.7078 65.2903H97.5681V64.7847H97.7078V65.2903ZM98.0123 65.2903H97.8726V64.7847H98.0123V65.2903ZM98.3168 65.2903H98.1773V64.7847H98.3168V65.2903ZM95.0865 64.3497H94.9468V63.3386H95.0865V64.3497ZM95.391 64.3497H95.2513V63.3386H95.391V64.3497ZM95.6955 64.3497H95.556V63.3386H95.6955V64.3497ZM96.3972 64.3497H96.2577V63.3386H96.3972V64.3497ZM96.702 64.3497H96.5622V63.3386H96.702V64.3497ZM97.0065 64.3497H96.867V63.3386H97.0065V64.3497ZM97.7078 64.3497H97.5681V63.3386H97.7078V64.3497ZM98.0123 64.3497H97.8726V63.3386H98.0123V64.3497ZM98.3168 63.3386V64.3497H98.1773V63.3386H98.3168ZM95.0865 62.9039H94.9468V61.8926H95.0865V62.9039ZM95.391 62.9039H95.2513V61.8926H95.391V62.9039ZM95.6955 62.9039H95.556V61.8926H95.6955V62.9039ZM96.3972 62.9039H96.2577V61.8926H96.3972V62.9039ZM96.702 62.9039H96.5622V61.8926H96.702V62.9039ZM97.0065 62.9039H96.867V61.8926H97.0065V62.9039ZM97.7078 62.9039H97.5681V61.8926H97.7078V62.9039ZM98.0123 62.9039H97.8726V61.8926H98.0123V62.9039ZM98.3168 62.9039H98.1773V61.8926H98.3168V62.9039Z" fill="#245BD1"/>
<path d="M99.8892 64.7152V66.363H100.045V64.7245L101.321 64.8015V66.6175H101.476V64.8106L102.752 64.8878V66.8715H102.907V64.8969L104.183 64.974V67.1254H104.338V64.9832L105.513 65.0541V67.5515L98.5054 67.1292V64.6319L99.8892 64.7152ZM105.513 63.6235V64.9047L104.338 64.8337V63.553L105.513 63.6235ZM104.183 63.5436V64.8244L102.907 64.7475V63.4669L104.183 63.5436ZM102.751 63.4575V64.7383L101.476 64.6614V63.3808L102.751 63.4575ZM101.32 63.3711V64.652L100.044 64.5753V63.2945L101.32 63.3711ZM99.8892 63.2848V64.5657L98.5054 64.4824V63.2015L99.8892 63.2848ZM105.513 62.1704V63.4741L104.338 63.4033V62.0995L105.513 62.1704ZM104.183 62.0905V63.3942L102.907 63.3171V62.0134L104.183 62.0905ZM102.751 62.004V63.3081L101.476 63.231V61.9273L102.751 62.004ZM101.32 61.9177V63.222L100.044 63.1447V61.841L101.32 61.9177ZM99.8892 61.8313V63.1351L98.5054 63.0518V61.748L99.8892 61.8313Z" fill="#457BEF"/>
<path d="M99.4028 66.4935L98.6513 65.5024C98.4198 65.1969 98.0781 64.9944 97.6988 64.9372L92.1313 64.5312C92.1313 64.5312 92.6755 65.3575 93.6104 68.5711H99.4028V66.493V66.4935Z" fill="#B5D5FF"/>
<path d="M106.675 66.0634C106.662 66.1939 106.505 66.3069 106.384 66.3059C106.079 66.3026 99.4715 66.1139 99.4715 66.1139C99.2595 66.1139 99.0593 66.0171 98.9269 65.8513L98.8082 65.7031C98.8082 65.7031 97.9539 67.7573 97.8419 67.8669C97.7418 67.9565 97.6227 67.966 97.4793 67.9727C96.3571 67.9799 95.2321 67.9727 94.1099 67.9756H93.4395C93.5071 68.2553 93.5657 68.6079 93.5605 68.9438C93.5605 68.9438 105.845 68.9481 108.19 68.9438C109.733 68.0251 110.226 66.7381 110.226 66.1139C109.854 66.1129 107.486 66.101 106.675 66.0643V66.0634Z" fill="#91BBFF"/>
<path d="M95.3256 65.5801H94.6509V66.0961H95.3256V65.5801Z" fill="#245BD1"/>
<mask id="mask0_214_9760" style="mask-type:luminance" maskUnits="userSpaceOnUse" x="93" y="65" width="18" height="4">
<path d="M106.677 66.0634C106.664 66.1939 106.507 66.3069 106.386 66.3059C106.081 66.3026 99.4735 66.1139 99.4735 66.1139C99.2614 66.1139 99.0613 66.0171 98.9288 65.8513L98.8102 65.7031C98.8102 65.7031 97.9558 67.7573 97.8438 67.8669C97.7438 67.9565 97.6246 67.966 97.4812 67.9727C96.359 67.9799 95.234 67.9727 94.1118 67.9756H93.4414C93.5091 68.2553 93.5472 68.5526 93.5419 68.8886C93.5419 68.8886 105.847 68.9481 108.192 68.9438C109.735 68.0251 110.228 66.7381 110.228 66.1139C109.856 66.1129 107.488 66.101 106.677 66.0643V66.0634Z" fill="white"/>
</mask>
<g mask="url(#mask0_214_9760)">
<path d="M104.717 67.4835C104.691 67.3996 104.628 67.3315 104.549 67.2895L102.951 66.5243C102.909 66.5033 102.862 66.498 102.82 66.498C102.778 66.498 102.731 66.498 102.689 66.5085L101.091 67.279C101.012 67.3157 100.954 67.3839 100.933 67.473L100.54 69.197C100.525 69.2861 100.546 69.3752 100.598 69.4486L101.703 70.8161C101.766 70.879 101.855 70.921 101.945 70.9262H103.705C103.8 70.9367 103.889 70.8948 103.946 70.8161L105.052 69.4486C105.104 69.3752 105.125 69.2861 105.115 69.197L104.716 67.4835H104.717Z" fill="#245BD1"/>
<path d="M104.471 69.1261C104.466 69.1261 104.461 69.1261 104.461 69.1209C104.461 69.1156 104.45 69.1156 104.44 69.1156C104.419 69.1104 104.398 69.1104 104.377 69.1104C104.366 69.1104 104.356 69.1104 104.346 69.1051H104.34C104.283 69.0999 104.22 69.0894 104.162 69.0737C104.146 69.0685 104.131 69.0527 104.125 69.037L104.083 69.0265C104.104 68.8745 104.094 68.7173 104.062 68.5653C104.026 68.4133 103.963 68.2665 103.879 68.1355L103.91 68.104V68.0988C103.91 68.083 103.916 68.0621 103.926 68.0516C103.973 68.0097 104.021 67.9782 104.073 67.9468C104.083 67.9415 104.094 67.9363 104.104 67.931C104.125 67.9205 104.141 67.9101 104.162 67.8996C104.167 67.8943 104.173 67.8943 104.178 67.8891C104.183 67.8839 104.178 67.8839 104.178 67.8786C104.225 67.8419 104.235 67.779 104.199 67.7319C104.183 67.7109 104.152 67.6952 104.125 67.6952C104.099 67.6952 104.073 67.7056 104.052 67.7214L104.047 67.7266C104.042 67.7319 104.036 67.7371 104.031 67.7371C104.015 67.7528 104 67.7685 103.989 67.7843C103.984 67.7948 103.973 67.8 103.968 67.8052C103.931 67.8472 103.884 67.8891 103.837 67.9205C103.827 67.9258 103.816 67.931 103.806 67.931C103.8 67.931 103.79 67.931 103.785 67.9258H103.779L103.737 67.952C103.696 67.9101 103.648 67.8681 103.606 67.8262C103.413 67.6742 103.171 67.5798 102.925 67.5536L102.92 67.5117V67.5169C102.904 67.5065 102.899 67.4907 102.894 67.475C102.894 67.4174 102.894 67.3597 102.904 67.2968V67.2916C102.904 67.2811 102.909 67.2706 102.909 67.2601C102.915 67.2391 102.915 67.2182 102.92 67.1972V67.1658C102.925 67.1133 102.883 67.0609 102.831 67.0557C102.799 67.0505 102.768 67.0662 102.742 67.0924C102.721 67.1133 102.71 67.1396 102.71 67.1658V67.192C102.71 67.2129 102.715 67.2339 102.721 67.2549C102.726 67.2654 102.726 67.2758 102.726 67.2863V67.2916C102.736 67.3492 102.736 67.4069 102.736 67.4698C102.731 67.4855 102.726 67.5012 102.71 67.5117V67.5222L102.705 67.5641C102.647 67.5694 102.59 67.5798 102.527 67.5903C102.28 67.6427 102.055 67.7738 101.882 67.9572L101.851 67.9363H101.845C101.84 67.9363 101.835 67.9415 101.824 67.9415C101.814 67.9415 101.803 67.9363 101.793 67.931C101.746 67.8943 101.699 67.8524 101.662 67.8105C101.657 67.8 101.646 67.7948 101.641 67.7895C101.625 67.7738 101.615 67.7581 101.599 67.7423C101.594 67.7371 101.588 67.7371 101.583 67.7319L101.578 67.7266C101.557 67.7109 101.531 67.7004 101.505 67.7004C101.473 67.7004 101.447 67.7109 101.431 67.7371C101.4 67.7843 101.41 67.8472 101.452 67.8839C101.457 67.8839 101.457 67.8891 101.457 67.8891C101.457 67.8891 101.468 67.8996 101.473 67.8996C101.489 67.9101 101.51 67.9205 101.531 67.931C101.541 67.9363 101.552 67.9415 101.562 67.9468C101.615 67.9782 101.667 68.0097 101.709 68.0516C101.72 68.0621 101.73 68.083 101.725 68.0988V68.0935L101.756 68.125C101.751 68.1355 101.746 68.1407 101.74 68.1512C101.578 68.408 101.51 68.712 101.557 69.0103L101.515 69.0208C101.515 69.026 101.51 69.026 101.51 69.026C101.505 69.0418 101.489 69.0522 101.473 69.0627C101.415 69.0785 101.358 69.0889 101.295 69.0942C101.284 69.0942 101.274 69.0942 101.263 69.0994C101.243 69.0994 101.222 69.1047 101.201 69.1047C101.195 69.1047 101.19 69.1099 101.18 69.1099C101.176 69.1099 101.173 69.1117 101.169 69.1151C101.111 69.1256 101.075 69.178 101.085 69.2357C101.096 69.2829 101.143 69.3143 101.19 69.3091C101.201 69.3091 101.206 69.3091 101.216 69.3038C101.22 69.3038 101.222 69.3021 101.222 69.2986C101.222 69.2934 101.237 69.2986 101.243 69.2986C101.263 69.2934 101.284 69.2829 101.3 69.2776C101.311 69.2724 101.321 69.2672 101.332 69.2672H101.337C101.395 69.2462 101.447 69.2305 101.51 69.22H101.515C101.531 69.22 101.547 69.2252 101.557 69.2357C101.562 69.2357 101.562 69.2409 101.562 69.2409L101.609 69.2357C101.688 69.4768 101.835 69.6917 102.039 69.849C102.086 69.8857 102.128 69.9171 102.181 69.9433L102.155 69.98C102.155 69.9852 102.16 69.9852 102.16 69.9852C102.17 70.001 102.17 70.0219 102.165 70.0377C102.144 70.0901 102.113 70.1425 102.081 70.1897V70.1949C102.076 70.2054 102.071 70.2106 102.06 70.2211C102.05 70.2316 102.039 70.2526 102.024 70.2735C102.018 70.2788 102.018 70.284 102.013 70.2893C102.013 70.2893 102.013 70.2945 102.008 70.2945C101.982 70.3469 102.003 70.4098 102.05 70.436C102.06 70.4413 102.076 70.4465 102.086 70.4465C102.128 70.4465 102.165 70.4203 102.186 70.3836C102.186 70.3836 102.186 70.3784 102.191 70.3784C102.191 70.3731 102.196 70.3679 102.202 70.3626C102.207 70.3417 102.217 70.3259 102.223 70.305L102.233 70.2735C102.249 70.2159 102.275 70.1635 102.301 70.111C102.312 70.0953 102.328 70.0848 102.343 70.0796C102.347 70.0796 102.348 70.0778 102.348 70.0744L102.369 70.0324C102.516 70.0901 102.668 70.1163 102.825 70.1163C102.92 70.1163 103.014 70.1058 103.109 70.0796C103.166 70.0691 103.224 70.0481 103.276 70.0324L103.297 70.0691C103.301 70.0691 103.302 70.0709 103.302 70.0744C103.318 70.0796 103.334 70.0901 103.344 70.1058C103.371 70.1582 103.397 70.2106 103.413 70.2683V70.2735L103.423 70.305C103.428 70.3259 103.433 70.3469 103.444 70.3626C103.449 70.3679 103.449 70.3731 103.454 70.3784C103.454 70.3784 103.454 70.3836 103.46 70.3836C103.481 70.4203 103.517 70.4465 103.559 70.4465C103.575 70.4465 103.585 70.4413 103.601 70.436C103.622 70.4255 103.643 70.4046 103.648 70.3784C103.654 70.3522 103.654 70.3259 103.643 70.2997C103.643 70.2945 103.638 70.2945 103.638 70.2945C103.638 70.2893 103.633 70.284 103.627 70.2788C103.617 70.2578 103.606 70.2421 103.591 70.2264C103.585 70.2159 103.58 70.2106 103.57 70.2002V70.1897C103.533 70.1425 103.507 70.0901 103.486 70.0377C103.481 70.0219 103.481 70.001 103.491 69.9852C103.491 69.98 103.496 69.98 103.496 69.98L103.481 69.9381C103.748 69.7756 103.952 69.524 104.047 69.2252L104.089 69.2305C104.094 69.2305 104.094 69.2252 104.094 69.2252C104.104 69.2147 104.12 69.2095 104.136 69.2095H104.141C104.199 69.22 104.256 69.2357 104.309 69.2567H104.314C104.325 69.2619 104.335 69.2672 104.346 69.2672C104.366 69.2776 104.382 69.2881 104.403 69.2934C104.408 69.2934 104.414 69.2986 104.424 69.2986C104.428 69.2986 104.431 69.3004 104.435 69.3038C104.445 69.3091 104.45 69.3091 104.461 69.3091C104.508 69.3091 104.55 69.2776 104.566 69.2357C104.56 69.178 104.518 69.1361 104.471 69.1256V69.1261ZM102.957 68.9636L102.815 69.0318L102.674 68.9636L102.637 68.8116L102.737 68.6858H102.894L102.994 68.8116L102.957 68.9636ZM103.811 68.6229C103.837 68.733 103.842 68.8431 103.832 68.9531L103.334 68.8116C103.287 68.8011 103.261 68.754 103.271 68.7068C103.276 68.6911 103.281 68.6806 103.292 68.6701L103.685 68.3137C103.743 68.408 103.785 68.5128 103.811 68.6229ZM103.528 68.1202L103.098 68.4242C103.061 68.4452 103.009 68.4399 102.983 68.4032C102.972 68.3928 102.967 68.3823 102.967 68.3666L102.936 67.8372C103.166 67.8634 103.371 67.963 103.528 68.1202ZM102.58 67.8529L102.684 67.8319L102.658 68.3561C102.658 68.4032 102.616 68.4399 102.569 68.4399C102.553 68.4399 102.543 68.4347 102.527 68.4295L102.092 68.1202C102.228 67.9892 102.396 67.8948 102.58 67.8529ZM101.94 68.3137L102.328 68.6596C102.365 68.6911 102.37 68.7435 102.338 68.7802C102.328 68.7959 102.318 68.8011 102.297 68.8064L101.788 68.9531C101.772 68.733 101.825 68.5076 101.94 68.3137ZM101.851 69.1995L102.37 69.1104C102.412 69.1104 102.454 69.1366 102.459 69.1785C102.464 69.1942 102.464 69.2152 102.454 69.2309L102.255 69.7132C102.071 69.5926 101.924 69.4092 101.851 69.1995ZM103.04 69.8494C102.967 69.8652 102.894 69.8757 102.815 69.8757C102.705 69.8757 102.59 69.8547 102.485 69.8232L102.742 69.3567C102.768 69.3253 102.81 69.3148 102.846 69.3358C102.862 69.3463 102.873 69.3567 102.888 69.3725L103.14 69.8285C103.109 69.8337 103.077 69.839 103.04 69.8494ZM103.68 69.3934C103.601 69.5192 103.491 69.6293 103.365 69.7079L103.161 69.2152C103.15 69.1733 103.171 69.1313 103.208 69.1156C103.224 69.1104 103.24 69.1051 103.255 69.1051L103.779 69.1942C103.753 69.2676 103.722 69.3358 103.68 69.3934Z" fill="white"/>
</g>
<path d="M111.789 65.252V65.663H114.171L115.609 67.1019H117.133V66.6908H115.78L114.341 65.252H111.789Z" fill="#B7D6FC"/>
<path d="M109.939 62.7871V62.376H113.554L115.815 60.115H117.339V60.5261H115.985L113.724 62.7871H109.939Z" fill="#B7D6FC"/>
<path d="M114.461 63.8125V64.2236H115.619L117 65.4073L117.057 65.4569H124.122V65.0458H117.209L115.828 63.8621L115.771 63.8125H114.461Z" fill="#B7D6FC"/>
<path d="M109.94 63.8125V64.2236H118.059V63.8125H109.94Z" fill="#B7D6FC"/>
<path d="M114.051 61.959V62.3701H120.114V61.959H114.051Z" fill="#B7D6FC"/>
<path d="M117.353 67.3377C117.589 67.3377 117.779 67.1471 117.779 66.912C117.779 66.6769 117.589 66.4863 117.353 66.4863C117.118 66.4863 116.928 66.6769 116.928 66.912C116.928 67.1471 117.118 67.3377 117.353 67.3377Z" fill="#91BBFF"/>
<path d="M118.382 64.4569C118.617 64.4569 118.807 64.2663 118.807 64.0312C118.807 63.7961 118.617 63.6055 118.382 63.6055C118.147 63.6055 117.956 63.7961 117.956 64.0312C117.956 64.2663 118.147 64.4569 118.382 64.4569Z" fill="#91BBFF"/>
<path d="M124.137 65.6912C124.372 65.6912 124.562 65.5006 124.562 65.2655C124.562 65.0304 124.372 64.8398 124.137 64.8398C123.902 64.8398 123.711 65.0304 123.711 65.2655C123.711 65.5006 123.902 65.6912 124.137 65.6912Z" fill="#91BBFF"/>
<path d="M120.231 62.6033C120.466 62.6033 120.657 62.4127 120.657 62.1776C120.657 61.9425 120.466 61.752 120.231 61.752C119.996 61.752 119.806 61.9425 119.806 62.1776C119.806 62.4127 119.996 62.6033 120.231 62.6033Z" fill="#91BBFF"/>
<path d="M117.353 60.7576C117.589 60.7576 117.779 60.567 117.779 60.3319C117.779 60.0968 117.589 59.9062 117.353 59.9062C117.118 59.9062 116.928 60.0968 116.928 60.3319C116.928 60.567 117.118 60.7576 117.353 60.7576Z" fill="#91BBFF"/>
<path d="M90.2074 65.252V65.663H81.6595L80.2207 67.1019H78.6968V66.6908H80.0505L81.4893 65.252H90.2074Z" fill="#B7D6FC"/>
<path d="M90.1045 63.8125V64.2236H79.1812L76.9202 66.0735H72.1191V65.6624H76.7732L79.0343 63.8125H90.1045Z" fill="#B7D6FC"/>
<path d="M75.5005 60.5195L75.5617 60.5886L77.1446 62.3694H92.9824V62.7805H76.9602L76.8989 62.7115L75.316 60.9306H69.6528V60.5195H75.5005Z" fill="#B7D6FC"/>
<path d="M79.6213 62.373V62.7841H66.4663V62.373H79.6213Z" fill="#B7D6FC"/>
<path d="M85.89 63.8125V64.2236H74.7905V63.8125H85.89Z" fill="#B7D6FC"/>
<path d="M66.9804 62.5771C66.9804 62.8041 66.7963 62.9882 66.5693 62.9882C66.3423 62.9882 66.1582 62.8041 66.1582 62.5771C66.1582 62.3501 66.3423 62.166 66.5693 62.166C66.7963 62.166 66.9804 62.3501 66.9804 62.5771Z" fill="#91BBFF"/>
<path d="M69.8583 60.7314C69.8583 60.9584 69.6743 61.1425 69.4472 61.1425C69.2202 61.1425 69.0361 60.9584 69.0361 60.7314C69.0361 60.5044 69.2202 60.3203 69.4472 60.3203C69.6743 60.3203 69.8583 60.5044 69.8583 60.7314Z" fill="#91BBFF"/>
<path d="M72.5297 65.8623C72.5297 66.0893 72.3457 66.2734 72.1186 66.2734C71.8916 66.2734 71.7075 66.0893 71.7075 65.8623C71.7075 65.6352 71.8916 65.4512 72.1186 65.4512C72.3457 65.4512 72.5297 65.6352 72.5297 65.8623Z" fill="#91BBFF"/>
<path d="M74.996 64.0166C74.996 64.2436 74.812 64.4277 74.5849 64.4277C74.3579 64.4277 74.1738 64.2436 74.1738 64.0166C74.1738 63.7895 74.3579 63.6055 74.5849 63.6055C74.812 63.6055 74.996 63.7895 74.996 64.0166Z" fill="#91BBFF"/>
<path d="M79.1073 66.8974C79.1073 67.1245 78.9233 67.3085 78.6962 67.3085C78.4692 67.3085 78.2852 67.1245 78.2852 66.8974C78.2852 66.6704 78.4692 66.4863 78.6962 66.4863C78.9233 66.4863 79.1073 66.6704 79.1073 66.8974Z" fill="#91BBFF"/>
<path d="M30.0713 61.4111V61.1133H31.8595V61.4111H31.1372V63.3887H30.7967V61.4111H30.0713Z" fill="black"/>
<path d="M27.9683 63.3887V61.1133H28.3439L29.2129 62.4892C29.2393 62.532 29.2755 62.5925 29.3213 62.6709C29.3671 62.7493 29.4129 62.8287 29.4587 62.9092C29.4557 62.8267 29.4531 62.7432 29.4511 62.6587C29.4501 62.5732 29.4496 62.5096 29.4496 62.4678V61.1133H29.7901V63.3887H29.4114L28.6341 62.1594C28.6025 62.1095 28.5567 62.0351 28.4966 61.9364C28.4376 61.8366 28.3704 61.7221 28.2951 61.5928C28.3002 61.7262 28.3032 61.8412 28.3042 61.9379C28.3063 62.0336 28.3073 62.1069 28.3073 62.1578V63.3887H27.9683Z" fill="black"/>
<path d="M26.126 63.3887V61.1133H27.6561V61.4111H26.465V62.0815H27.5676V62.3762H26.465V63.0909H27.6561V63.3887H26.126Z" fill="black"/>
<path d="M24.4297 63.3887V61.1133H24.7687V63.0909H25.8453V63.3887H24.4297Z" fill="black"/>
<path d="M22.1392 63.3887L22.9653 61.1133H23.3746L24.1947 63.3887H23.8266L23.625 62.7977H22.7072L22.4996 63.3887H22.1392ZM22.8096 62.5091H23.5258L23.3883 62.1059C23.3578 62.0122 23.3252 61.912 23.2906 61.8051C23.256 61.6982 23.2163 61.5709 23.1715 61.4233C23.1257 61.5709 23.0855 61.6982 23.0508 61.8051C23.0162 61.912 22.9831 62.0122 22.9516 62.1059L22.8096 62.5091Z" fill="black"/>
<path d="M21.1846 63.3887L20.3584 61.1133H20.7234L21.1739 62.3961C21.2014 62.4785 21.2329 62.5757 21.2686 62.6877C21.3042 62.7997 21.3459 62.9305 21.3938 63.0802C21.4396 62.9305 21.4798 62.7997 21.5144 62.6877C21.5501 62.5757 21.5816 62.4785 21.6091 62.3961L22.0474 61.1133H22.4063L21.5923 63.3887H21.1846Z" fill="black"/>
<path d="M19.2761 63.4268C19.0745 63.4268 18.8948 63.3774 18.737 63.2787C18.5792 63.1799 18.455 63.0425 18.3644 62.8664C18.2748 62.6902 18.23 62.4861 18.23 62.254C18.23 62.0209 18.2748 61.8162 18.3644 61.6401C18.455 61.463 18.5792 61.325 18.737 61.2263C18.8948 61.1275 19.0745 61.0781 19.2761 61.0781C19.4787 61.0781 19.6589 61.1275 19.8167 61.2263C19.9745 61.325 20.0982 61.463 20.1877 61.6401C20.2783 61.8162 20.3237 62.0209 20.3237 62.254C20.3237 62.4861 20.2783 62.6902 20.1877 62.8664C20.0982 63.0425 19.9745 63.1799 19.8167 63.2787C19.6589 63.3774 19.4787 63.4268 19.2761 63.4268ZM19.2761 63.1168C19.4074 63.1168 19.5265 63.0837 19.6334 63.0176C19.7403 62.9504 19.8253 62.8526 19.8884 62.7243C19.9515 62.5951 19.9831 62.4383 19.9831 62.254C19.9831 62.0687 19.9515 61.9114 19.8884 61.7821C19.8253 61.6528 19.7403 61.5551 19.6334 61.4889C19.5265 61.4217 19.4074 61.3881 19.2761 61.3881C19.1457 61.3881 19.0271 61.4217 18.9202 61.4889C18.8133 61.5551 18.7283 61.6528 18.6652 61.7821C18.6021 61.9114 18.5705 62.0687 18.5705 62.254C18.5705 62.4383 18.6021 62.5951 18.6652 62.7243C18.7283 62.8526 18.8133 62.9504 18.9202 63.0176C19.0271 63.0837 19.1457 63.1168 19.2761 63.1168Z" fill="black"/>
<path d="M17.1414 63.4268C16.8686 63.4268 16.6532 63.3581 16.4954 63.2207C16.3386 63.0822 16.2603 62.8928 16.2603 62.6526H16.5993C16.6003 62.8022 16.6481 62.9193 16.7428 63.0038C16.8385 63.0883 16.9714 63.1306 17.1414 63.1306C17.2961 63.1306 17.4198 63.098 17.5125 63.0328C17.6062 62.9666 17.653 62.8781 17.653 62.7671C17.653 62.6796 17.6194 62.6088 17.5522 62.5548C17.486 62.4999 17.374 62.4535 17.2162 62.4159L16.9673 62.3563C16.7372 62.3013 16.5692 62.225 16.4634 62.1272C16.3585 62.0285 16.3061 61.9002 16.3061 61.7424C16.3061 61.609 16.3397 61.4925 16.4069 61.3927C16.474 61.2929 16.5682 61.2156 16.6894 61.1606C16.8115 61.1056 16.9541 61.0781 17.117 61.0781C17.3623 61.0781 17.5573 61.1423 17.7018 61.2705C17.8474 61.3988 17.9238 61.5739 17.9309 61.7959H17.6026C17.5944 61.6645 17.5466 61.5617 17.459 61.4874C17.3715 61.4121 17.2559 61.3744 17.1124 61.3744C16.9749 61.3744 16.8624 61.4075 16.7749 61.4736C16.6873 61.5388 16.6436 61.6228 16.6436 61.7256C16.6436 61.8081 16.6772 61.8753 16.7443 61.9272C16.8115 61.9781 16.923 62.0224 17.0788 62.0601L17.3247 62.1181C17.5527 62.172 17.7207 62.2499 17.8286 62.3517C17.9375 62.4535 17.992 62.5859 17.992 62.7488C17.992 62.8852 17.9569 63.0043 17.8866 63.1061C17.8164 63.2079 17.7176 63.2868 17.5904 63.3428C17.4631 63.3988 17.3135 63.4268 17.1414 63.4268Z" fill="black"/>
<path d="M15.9377 61.1133V63.3887H15.5986V61.1133H15.9377Z" fill="black"/>
<path d="M61.4935 65.8903C61.7559 65.8903 61.965 65.9484 62.1206 66.0647C62.2761 66.1811 62.3569 66.3398 62.3628 66.5405H61.7982C61.797 66.4752 61.7695 66.4206 61.7161 66.3767C61.6638 66.3327 61.5967 66.3106 61.5148 66.3106C61.4352 66.3106 61.3728 66.3261 61.3277 66.357C61.2838 66.3879 61.2618 66.4265 61.2618 66.4728C61.2618 66.55 61.3296 66.6017 61.465 66.6278L61.8425 66.6972C62.0361 66.7329 62.1793 66.7924 62.2719 66.8755C62.3645 66.9586 62.411 67.0704 62.411 67.2105C62.411 67.3387 62.3736 67.4516 62.2988 67.5489C62.2252 67.6463 62.1217 67.7223 61.9887 67.777C61.8568 67.8304 61.703 67.8571 61.5272 67.8571C61.3539 67.8571 61.2001 67.831 61.0659 67.7788C60.9317 67.7265 60.8241 67.6517 60.7434 67.5544C60.6638 67.457 60.6186 67.3417 60.6079 67.2087H61.2119C61.2214 67.2788 61.2523 67.3339 61.3046 67.3743C61.3568 67.4147 61.4281 67.4349 61.5184 67.4349C61.6027 67.4349 61.6686 67.42 61.7161 67.3904C61.7636 67.3607 61.7873 67.3221 61.7873 67.2745C61.7873 67.1962 61.7113 67.1433 61.5593 67.116L61.2191 67.0553C61.0338 67.0221 60.8923 66.9587 60.7949 66.8649C60.6987 66.771 60.6506 66.6498 60.6506 66.5013C60.6506 66.316 60.7256 66.1682 60.8752 66.0577C61.0249 65.9461 61.231 65.8903 61.4935 65.8903ZM50.2229 65.8867C50.4118 65.8867 50.5774 65.9282 50.7199 66.0114C50.8637 66.0933 50.976 66.2073 51.0568 66.3534C51.1375 66.4983 51.1778 66.6658 51.1778 66.8558V67.0216H49.8685C49.872 67.1416 49.9076 67.2366 49.9752 67.3067C50.0441 67.3767 50.1392 67.4118 50.2603 67.4118C50.3505 67.4118 50.4261 67.3933 50.4867 67.3564C50.5484 67.3196 50.5906 67.2704 50.6132 67.2087H51.1636C51.141 67.3346 51.0864 67.4462 50.9998 67.5435C50.9131 67.6409 50.8038 67.7169 50.672 67.7715C50.5413 67.8262 50.397 67.8536 50.239 67.8536C50.0466 67.8536 49.8773 67.8115 49.7312 67.7272C49.5863 67.6429 49.4729 67.527 49.3909 67.3797C49.3102 67.2313 49.2697 67.0613 49.2697 66.8701C49.2697 66.6789 49.3102 66.5097 49.3909 66.3624C49.4729 66.214 49.5857 66.0975 49.7294 66.0132C49.8731 65.9288 50.0377 65.8867 50.2229 65.8867ZM55.9849 65.8867C56.1737 65.8867 56.3394 65.9282 56.4819 66.0114C56.6256 66.0933 56.7379 66.2073 56.8187 66.3534C56.8995 66.4983 56.9397 66.6658 56.9397 66.8558V67.0216H55.6302C55.6338 67.1416 55.6695 67.2366 55.7372 67.3067C55.8061 67.3767 55.9011 67.4118 56.0222 67.4118C56.1125 67.4118 56.1879 67.3933 56.2484 67.3564C56.3102 67.3196 56.3525 67.2705 56.3751 67.2087H56.9255C56.9029 67.3345 56.8483 67.4462 56.7617 67.5435C56.675 67.6409 56.5655 67.7169 56.4337 67.7715C56.3031 67.8262 56.1589 67.8536 56.0009 67.8536C55.8085 67.8536 55.6392 67.8115 55.4931 67.7272C55.3482 67.6429 55.2348 67.527 55.1528 67.3797C55.0721 67.2313 55.0316 67.0613 55.0316 66.8701C55.0316 66.6789 55.0721 66.5097 55.1528 66.3624C55.2348 66.214 55.3476 66.0975 55.4913 66.0132C55.635 65.9288 55.7996 65.8867 55.9849 65.8867ZM59.4842 65.8867C59.673 65.8867 59.8387 65.9282 59.9812 66.0114C60.1249 66.0933 60.2372 66.2073 60.318 66.3534C60.3988 66.4983 60.439 66.6658 60.439 66.8558V67.0216H59.1295C59.1331 67.1416 59.1688 67.2366 59.2365 67.3067C59.3054 67.3767 59.4004 67.4118 59.5215 67.4118C59.6118 67.4118 59.6872 67.3933 59.7477 67.3564C59.8095 67.3196 59.8518 67.2705 59.8744 67.2087H60.4248C60.4022 67.3345 60.3477 67.4462 60.261 67.5435C60.1743 67.6409 60.0648 67.7169 59.933 67.7715C59.8024 67.8262 59.6582 67.8536 59.5002 67.8536C59.3078 67.8536 59.1385 67.8115 58.9924 67.7272C58.8475 67.6429 58.7341 67.527 58.6522 67.3797C58.5714 67.2313 58.5309 67.0613 58.5309 66.8701C58.5309 66.6789 58.5714 66.5097 58.6522 66.3624C58.7341 66.214 58.8469 66.0975 58.9906 66.0132C59.1343 65.9288 59.2989 65.8867 59.4842 65.8867ZM45.5355 66.9843C45.5355 67.0959 45.5624 67.1814 45.6158 67.2408C45.6693 67.299 45.7447 67.3281 45.842 67.3281C45.9382 67.3281 46.0155 67.2978 46.0737 67.2372C46.1319 67.1754 46.161 67.0804 46.161 66.9522V65.9295H46.7738V67.8109H46.168V67.5064C46.1051 67.6132 46.0249 67.6976 45.9275 67.7593C45.8302 67.8211 45.7108 67.8518 45.5694 67.8518C45.3652 67.8518 45.2059 67.7866 45.0919 67.6559C44.9791 67.5253 44.9227 67.3441 44.9227 67.1126V65.9295H45.5355V66.9843ZM47.7305 66.1824H47.7339C47.8503 65.9864 48.0304 65.8885 48.2739 65.8885C48.433 65.8885 48.5732 65.93 48.6944 66.0132C48.8155 66.0963 48.9099 66.2116 48.9776 66.3588C49.0465 66.5061 49.081 66.6754 49.081 66.8667C49.081 67.0649 49.0471 67.2383 48.9794 67.3868C48.9129 67.534 48.8183 67.6488 48.696 67.7308C48.5749 67.8115 48.4323 67.8518 48.2684 67.8518C48.1449 67.8518 48.0357 67.8246 47.9407 67.7699C47.8468 67.7141 47.7756 67.6309 47.7269 67.5204H47.7233V67.8109H47.1175V65.1562H47.7305V66.1824ZM43.1125 66.3412C43.1731 66.2651 43.2344 66.1889 43.2962 66.1129C43.3579 66.0358 43.4197 65.9591 43.4815 65.8831L44.0746 65.1562H44.8284L43.8681 66.3L44.8657 67.8109H44.1316L43.4493 66.733L43.1125 67.1356V67.8109H42.4712V65.1562H43.1125V66.3412ZM52.5839 65.9242C52.6112 65.9242 52.6375 65.9249 52.6624 65.926V66.4319C52.6398 66.4307 52.6047 66.4295 52.5572 66.4283C52.5097 66.4271 52.464 66.4267 52.4201 66.4267C52.3097 66.4267 52.2198 66.4634 52.1509 66.5371C52.0833 66.6107 52.0494 66.714 52.0494 66.847V67.8109H51.4366V65.9295H52.0299V66.2609H52.0351C52.0696 66.1409 52.1231 66.0548 52.1955 66.0025C52.2691 65.9491 52.3689 65.9224 52.4948 65.9224C52.528 65.9224 52.5578 65.9231 52.5839 65.9242ZM54.1197 65.8885C54.324 65.8885 54.4826 65.9538 54.5954 66.0844C54.7094 66.2151 54.7664 66.3962 54.7664 66.6278V67.8109H54.1536V66.7563C54.1536 66.6446 54.1268 66.5595 54.0733 66.5013C54.0199 66.442 53.9445 66.4124 53.8471 66.4124C53.7509 66.4124 53.6737 66.4432 53.6155 66.5049C53.5573 66.5655 53.5282 66.6599 53.5281 66.7882V67.8109H52.9153V65.9295H53.5211V66.2342C53.5841 66.1273 53.6642 66.043 53.7616 65.9812C53.859 65.9195 53.9784 65.8885 54.1197 65.8885ZM57.9966 65.9295H58.3832V66.4034H57.9966V67.1784C57.9966 67.2389 58.0084 67.2805 58.0321 67.303C58.0559 67.3256 58.1023 67.337 58.1712 67.337H58.3832V67.8109H58.0357C57.8101 67.8109 57.6444 67.7687 57.5387 67.6844C57.4342 67.5989 57.3819 67.4647 57.3819 67.2818V66.4034H57.0612V65.9295H57.3819V65.4164H57.9966V65.9295ZM48.0956 66.3767C47.9804 66.3767 47.8866 66.4213 47.8142 66.5104C47.7418 66.5994 47.7054 66.7182 47.7054 66.8667C47.7054 67.0175 47.7418 67.1381 47.8142 67.2284C47.8866 67.3174 47.9805 67.3618 48.0956 67.3619C48.2085 67.3619 48.2977 67.3179 48.363 67.23C48.4283 67.1421 48.4609 67.021 48.4609 66.8667C48.4609 66.7135 48.4283 66.5935 48.363 66.5068C48.2977 66.42 48.2085 66.3767 48.0956 66.3767ZM50.239 66.3391C50.1357 66.3391 50.0518 66.367 49.9877 66.4228C49.9236 66.4787 49.8849 66.5559 49.8719 66.6545H50.6059C50.5917 66.5559 50.5526 66.4787 50.4885 66.4228C50.4244 66.367 50.3411 66.3391 50.239 66.3391ZM56.0009 66.3391C55.8976 66.3391 55.8137 66.367 55.7496 66.4228C55.6855 66.4787 55.6469 66.5559 55.6338 66.6545H56.3679C56.3536 66.5559 56.3144 66.4787 56.2502 66.4228C56.1861 66.3671 56.103 66.3392 56.0009 66.3391ZM59.5002 66.3391C59.3969 66.3391 59.3131 66.367 59.2489 66.4228C59.1848 66.4787 59.1462 66.5559 59.1331 66.6545H59.8672C59.8529 66.5559 59.8137 66.4787 59.7495 66.4228C59.6854 66.3671 59.6023 66.3392 59.5002 66.3391Z" fill="black"/>
<path d="M40.2695 67.8143V65.9329H40.8628V66.2643H40.8682C40.9026 66.1443 40.9561 66.0582 41.0285 66.006C41.1021 65.9525 41.2019 65.9258 41.3278 65.9258C41.3611 65.9258 41.3908 65.9264 41.4169 65.9276C41.4442 65.9276 41.4704 65.9282 41.4953 65.9293V66.4353C41.4727 66.4341 41.4377 66.433 41.3902 66.4318C41.3427 66.4306 41.2969 66.43 41.253 66.43C41.1425 66.43 41.0529 66.4668 40.984 66.5404C40.9163 66.6141 40.8824 66.7174 40.8824 66.8504V67.8143H40.2695Z" fill="black"/>
<path d="M39.016 67.8595C38.8188 67.8595 38.646 67.8191 38.4975 67.7383C38.3491 67.6576 38.2332 67.5436 38.1501 67.3963C38.067 67.249 38.0254 67.0756 38.0254 66.876C38.0254 66.6789 38.067 66.5066 38.1501 66.3594C38.2332 66.2109 38.3491 66.0963 38.4975 66.0155C38.646 65.9336 38.8188 65.8926 39.016 65.8926C39.212 65.8926 39.3842 65.9336 39.5327 66.0155C39.6823 66.0963 39.7981 66.2109 39.8801 66.3594C39.9632 66.5066 40.0048 66.6789 40.0048 66.876C40.0048 67.0756 39.9632 67.249 39.8801 67.3963C39.7981 67.5424 39.6823 67.6564 39.5327 67.7383C39.3842 67.8191 39.212 67.8595 39.016 67.8595ZM39.016 67.3713C39.1229 67.3713 39.2108 67.3286 39.2797 67.2431C39.3497 67.1575 39.3848 67.0352 39.3848 66.876C39.3848 66.7169 39.3497 66.5945 39.2797 66.509C39.2108 66.4235 39.1229 66.3807 39.016 66.3807C38.9091 66.3807 38.8206 66.4235 38.7505 66.509C38.6816 66.5945 38.6472 66.7169 38.6472 66.876C38.6472 67.0352 38.6816 67.1575 38.7505 67.2431C38.8194 67.3286 38.9079 67.3713 39.016 67.3713Z" fill="black"/>
<path d="M37.8956 65.9353V66.4092H37.509V67.8167H36.8943V66.4092H36.5522V65.9353H36.8943V65.7269C36.8943 65.5357 36.9478 65.3937 37.0547 65.3011C37.1628 65.2084 37.329 65.1621 37.5535 65.1621H37.8956V65.636H37.7085C37.6361 65.636 37.5844 65.6515 37.5535 65.6823C37.5238 65.712 37.509 65.7625 37.509 65.8338V65.9353H37.8956Z" fill="black"/>
<path d="M34.657 68.5866C34.3672 68.5866 34.1492 68.5278 34.0032 68.4102C33.8582 68.2926 33.7715 68.1435 33.743 67.963H34.3292C34.3458 68.0212 34.3826 68.0669 34.4397 68.1002C34.4967 68.1346 34.5691 68.1519 34.657 68.1519C34.8898 68.1519 35.0062 68.026 35.0062 67.7741V67.4837H35.0044C34.9545 67.5954 34.8827 67.6768 34.7889 67.7278C34.695 67.7789 34.5869 67.8044 34.4646 67.8044C34.2995 67.8044 34.1558 67.7641 34.0334 67.6833C33.9123 67.6013 33.8179 67.4891 33.7502 67.3466C33.6836 67.204 33.6504 67.0407 33.6504 66.8566C33.6504 66.6701 33.6848 66.5044 33.7537 66.3595C33.8226 66.2146 33.9176 66.1012 34.0388 66.0192C34.1599 65.9361 34.3001 65.8945 34.4593 65.8945C34.7027 65.8945 34.8845 65.9961 35.0044 66.1992H35.0062V65.9355H35.6155V67.7136C35.6155 68.02 35.5288 68.2421 35.3554 68.3799C35.1832 68.5177 34.9504 68.5866 34.657 68.5866ZM34.6356 67.3234C34.752 67.3234 34.8459 67.2806 34.9171 67.1951C34.9896 67.1084 35.0258 66.992 35.0258 66.8459C35.0258 66.7022 34.9896 66.587 34.9171 66.5003C34.8459 66.4136 34.752 66.3702 34.6356 66.3702C34.5228 66.3702 34.4337 66.4124 34.3684 66.4967C34.3043 66.5811 34.2722 66.6975 34.2722 66.8459C34.2722 66.9956 34.3043 67.1126 34.3684 67.1969C34.4337 67.2812 34.5228 67.3234 34.6356 67.3234Z" fill="black"/>
<path d="M32.1451 66.7943V67.8169H31.5322V65.9355H32.138V66.2402C32.2009 66.1333 32.2811 66.0489 32.3785 65.9872C32.4759 65.9254 32.5953 65.8945 32.7366 65.8945C32.9409 65.8945 33.0995 65.9599 33.2123 66.0905C33.3263 66.2212 33.3833 66.4023 33.3833 66.6339V67.8169H32.7705V66.7622C32.7705 66.6505 32.7437 66.5656 32.6903 66.5074C32.6368 66.448 32.5614 66.4183 32.464 66.4183C32.3678 66.4183 32.2906 66.4492 32.2324 66.511C32.1742 66.5715 32.1451 66.666 32.1451 66.7943Z" fill="black"/>
<path d="M30.5775 67.8179V65.9365H31.1904V67.8179H30.5775ZM30.8821 65.753C30.7847 65.753 30.704 65.7239 30.6398 65.6657C30.5769 65.6075 30.5454 65.5333 30.5454 65.443C30.5454 65.3527 30.5769 65.2791 30.6398 65.2221C30.704 65.1639 30.7847 65.1348 30.8821 65.1348C30.9807 65.1348 31.0615 65.1639 31.1244 65.2221C31.1886 65.2791 31.2206 65.3527 31.2206 65.443C31.2206 65.5333 31.1886 65.6075 31.1244 65.6657C31.0615 65.7239 30.9807 65.753 30.8821 65.753Z" fill="black"/>
<path d="M28.5044 67.8167V65.1621H29.1173V66.6034H29.1244L29.6963 65.9353H30.4036L29.7034 66.7567L30.4339 67.8167H29.7266L29.2473 67.1059L29.1173 67.2573V67.8167H28.5044Z" fill="black"/>
<path d="M27.0498 67.8143V65.9329H27.6431V66.2643H27.6484C27.6829 66.1443 27.7363 66.0582 27.8088 66.006C27.8824 65.9525 27.9822 65.9258 28.1081 65.9258C28.1414 65.9258 28.171 65.9264 28.1972 65.9276C28.2245 65.9276 28.2506 65.9282 28.2756 65.9293V66.4353C28.253 66.4341 28.218 66.433 28.1705 66.4318C28.1229 66.4306 28.0772 66.43 28.0333 66.43C27.9228 66.43 27.8331 66.4668 27.7642 66.5404C27.6965 66.6141 27.6627 66.7174 27.6627 66.8504V67.8143H27.0498Z" fill="black"/>
<path d="M25.7963 67.8595C25.5991 67.8595 25.4263 67.8191 25.2778 67.7383C25.1293 67.6576 25.0135 67.5436 24.9304 67.3963C24.8472 67.249 24.8057 67.0756 24.8057 66.876C24.8057 66.6789 24.8472 66.5066 24.9304 66.3594C25.0135 66.2109 25.1293 66.0963 25.2778 66.0155C25.4263 65.9336 25.5991 65.8926 25.7963 65.8926C25.9922 65.8926 26.1645 65.9336 26.3129 66.0155C26.4626 66.0963 26.5784 66.2109 26.6603 66.3594C26.7435 66.5066 26.7851 66.6789 26.7851 66.876C26.7851 67.0756 26.7435 67.249 26.6603 67.3963C26.5784 67.5424 26.4626 67.6564 26.3129 67.7383C26.1645 67.8191 25.9922 67.8595 25.7963 67.8595ZM25.7963 67.3713C25.9032 67.3713 25.991 67.3286 26.0599 67.2431C26.13 67.1575 26.1651 67.0352 26.1651 66.876C26.1651 66.7169 26.13 66.5945 26.0599 66.509C25.991 66.4235 25.9032 66.3807 25.7963 66.3807C25.6894 66.3807 25.6009 66.4235 25.5308 66.509C25.4619 66.5945 25.4275 66.7169 25.4275 66.876C25.4275 67.0352 25.4619 67.1575 25.5308 67.2431C25.5997 67.3286 25.6882 67.3713 25.7963 67.3713Z" fill="black"/>
<path d="M22.2558 67.815L21.6768 65.9336H22.3217L22.4678 66.5215C22.4939 66.6308 22.5189 66.7442 22.5426 66.8618C22.5676 66.9782 22.5925 67.0946 22.6175 67.211C22.6448 67.0946 22.6721 66.9782 22.6994 66.8618C22.7279 66.7442 22.7564 66.6308 22.7849 66.5215L22.9399 65.9336H23.4833L23.6383 66.5215C23.6668 66.6308 23.6948 66.7442 23.7221 66.8618C23.7506 66.9782 23.7785 67.0946 23.8058 67.211C23.8296 67.0946 23.8527 66.9782 23.8753 66.8618C23.899 66.7454 23.924 66.632 23.9501 66.5215L24.0909 65.9336H24.7465L24.1675 67.815H23.535L23.3266 67.1112C23.3064 67.0412 23.2868 66.9699 23.2678 66.8975C23.2488 66.8238 23.2303 66.7502 23.2125 66.6765C23.1935 66.7502 23.1745 66.8238 23.1555 66.8975C23.1365 66.9699 23.1169 67.0412 23.0967 67.1112L22.8883 67.815H22.2558Z" fill="black"/>
<path d="M21.5046 65.935V66.4089H21.118V67.1839C21.118 67.2445 21.1299 67.2861 21.1536 67.3086C21.1774 67.3312 21.2237 67.3425 21.2926 67.3425H21.5046V67.8164H21.1572C20.9315 67.8164 20.7658 67.7742 20.6601 67.6899C20.5556 67.6044 20.5033 67.4702 20.5033 67.2872V66.4089H20.1826V65.935H20.5033V65.4219H21.118V65.935H21.5046Z" fill="black"/>
<path d="M19.1225 67.8595C18.9301 67.8595 18.7609 67.8173 18.6148 67.733C18.4699 67.6487 18.3564 67.5329 18.2745 67.3856C18.1937 67.2371 18.1533 67.0673 18.1533 66.876C18.1533 66.6848 18.1937 66.5156 18.2745 66.3683C18.3564 66.2198 18.4693 66.1034 18.613 66.0191C18.7567 65.9347 18.9212 65.8926 19.1065 65.8926C19.2953 65.8926 19.461 65.9341 19.6036 66.0173C19.7473 66.0992 19.8595 66.2133 19.9403 66.3594C20.0211 66.5043 20.0615 66.6717 20.0615 66.8618V67.0275H18.7519C18.7555 67.1474 18.7911 67.2425 18.8588 67.3125C18.9277 67.3826 19.0228 67.4177 19.1439 67.4177C19.2342 67.4177 19.3096 67.3992 19.3702 67.3624C19.4319 67.3256 19.4741 67.2763 19.4967 67.2145H20.0472C20.0246 67.3404 19.97 67.4521 19.8833 67.5495C19.7966 67.6469 19.6873 67.7229 19.5555 67.7775C19.4248 67.8322 19.2805 67.8595 19.1225 67.8595ZM18.7555 66.6605H19.4895C19.4753 66.5619 19.4361 66.4847 19.372 66.4288C19.3078 66.373 19.2247 66.3451 19.1225 66.3451C19.0192 66.3451 18.9355 66.373 18.8713 66.4288C18.8072 66.4847 18.7686 66.5619 18.7555 66.6605Z" fill="black"/>
<path d="M15.563 67.8167V65.1621H16.2258L16.9794 66.3683C17.0115 66.4182 17.053 66.4888 17.1041 66.5803C17.1552 66.6706 17.2062 66.7632 17.2573 66.8582C17.2549 66.7537 17.2526 66.6515 17.2502 66.5518C17.249 66.452 17.2484 66.3724 17.2484 66.313V65.1621H17.8898V67.8167H17.2253L16.534 66.7121C16.4948 66.6504 16.4455 66.5678 16.3861 66.4645C16.3267 66.3611 16.2626 66.2471 16.1937 66.1224C16.1984 66.2519 16.2014 66.3683 16.2026 66.4716C16.2038 66.5749 16.2044 66.6545 16.2044 66.7103V67.8167H15.563Z" fill="black"/>
<path d="M8.81081 59.9062L12.2072 61.6045L13.127 65.2839L10.7213 68.2558H6.90037L4.49463 65.2839L5.34371 61.6045L8.81081 59.9062Z" fill="#1F4DBE"/>
<path d="M8.81053 64.4334L6.40479 63.0182L8.81053 61.6738L11.2163 63.0182L8.81053 64.4334Z" fill="white"/>
<path d="M11.2163 63.0215L11.1809 66.1349L8.81055 67.3378V64.4367L11.2163 63.0215Z" fill="url(#paint3_linear_214_9760)"/>
<path d="M4.49463 65.2852L6.90037 68.257H10.7213L4.49463 65.2852Z" fill="#006BFF"/>
<path d="M12.2071 61.6055L13.1269 65.2849L10.7212 68.2568L12.2071 61.6055Z" fill="#006BFF"/>
<defs>
<linearGradient id="paint0_linear_214_9760" x1="11.2099" y1="31.9014" x2="118.471" y2="80.0106" gradientUnits="userSpaceOnUse">
<stop stop-color="white"/>
<stop offset="1" stop-color="#E7F3FF"/>
</linearGradient>
<linearGradient id="paint1_linear_214_9760" x1="1" y1="62.2999" x2="51.0193" y2="126.065" gradientUnits="userSpaceOnUse">
<stop stop-color="#37A8FF"/>
<stop offset="1" stop-color="#3071FF"/>
</linearGradient>
<linearGradient id="paint2_linear_214_9760" x1="70.6812" y1="70.4947" x2="126.59" y2="70.4947" gradientUnits="userSpaceOnUse">
<stop stop-color="#F1F8FF"/>
<stop offset="1" stop-color="#B7D6FC"/>
</linearGradient>
<linearGradient id="paint3_linear_214_9760" x1="8.81055" y1="65.7473" x2="11.3357" y2="65.7276" gradientUnits="userSpaceOnUse">
<stop stop-color="#049FFC"/>
<stop offset="1" stop-color="#19C9FF"/>
</linearGradient>
</defs>
</svg>
