<svg width="128" height="128" viewBox="0 0 128 128" fill="none" xmlns="http://www.w3.org/2000/svg">
<path d="M110.361 123.446V15.26C110.361 14.1326 109.447 13.2188 108.32 13.2188H90.4599H39.6862H20.5504C19.4231 13.2188 18.5093 14.1326 18.5093 15.26V123.446C18.5093 124.574 19.4231 125.488 20.5504 125.488H108.32C109.447 125.488 110.361 124.574 110.361 123.446Z" fill="#E0F2FF"/>
<path d="M18 123.449V15.2625C18 13.8533 19.1423 12.7109 20.5514 12.7109H39.6872V13.7316H20.5514C19.706 13.7316 19.0206 14.417 19.0206 15.2625V123.449C19.0206 124.294 19.706 124.98 20.5514 124.98H108.321C109.166 124.98 109.852 124.294 109.852 123.449V15.2625C109.852 14.417 109.166 13.7316 108.321 13.7316H65.9671V12.7109H108.321C109.73 12.7109 110.872 13.8533 110.872 15.2625V123.449C110.872 124.858 109.73 126 108.321 126H20.5514C19.1423 126 18 124.858 18 123.449Z" fill="#3C89C1"/>
<path d="M81.5731 10.2667C81.1559 10.2667 80.7971 10.1723 80.4968 9.98362C80.1991 9.79491 79.9692 9.53577 79.8071 9.20619C79.6476 8.87395 79.5679 8.49653 79.5679 8.07393C79.5679 7.64601 79.6516 7.26594 79.819 6.9337C79.9865 6.60147 80.2177 6.34099 80.5127 6.15229C80.8077 5.96092 81.1466 5.86523 81.5293 5.86523C81.928 5.86523 82.2735 5.95826 82.5658 6.14431C82.8608 6.33036 83.0894 6.58951 83.2515 6.92174C83.4136 7.25132 83.4947 7.63272 83.4947 8.06596V8.29321H80.3971C80.413 8.67328 80.522 8.98027 80.724 9.21416C80.9286 9.44806 81.2157 9.565 81.5851 9.565C81.8615 9.565 82.0887 9.50254 82.2668 9.37762C82.4449 9.2527 82.5632 9.09057 82.6216 8.89123H83.4309C83.3804 9.16233 83.2675 9.40154 83.092 9.60886C82.9193 9.81617 82.7014 9.9783 82.4382 10.0952C82.1778 10.2095 81.8894 10.2667 81.5731 10.2667ZM80.4051 7.65532H82.6735C82.6389 7.32042 82.5206 7.05596 82.3186 6.86194C82.1167 6.66526 81.8562 6.56691 81.5373 6.56691C81.2183 6.56691 80.9579 6.66526 80.7559 6.86194C80.5566 7.05596 80.4396 7.32042 80.4051 7.65532Z" fill="black"/>
<path d="M76.6877 10.2409C76.3209 10.2409 76.0007 10.1492 75.7269 9.96579C75.4532 9.77974 75.2405 9.52325 75.0891 9.19633C74.9376 8.86676 74.8618 8.48535 74.8618 8.05212C74.8618 7.61888 74.9376 7.23881 75.0891 6.91189C75.2432 6.58231 75.4572 6.32582 75.7309 6.14243C76.0046 5.95638 76.3223 5.86335 76.6837 5.86335C76.9575 5.86335 77.2073 5.9205 77.4332 6.03479C77.6591 6.14908 77.8398 6.32317 77.9754 6.55706H77.9833V4.2168H78.8245V10.1572H77.9993V9.51528H77.9913C77.8505 9.75981 77.6657 9.94187 77.4372 10.0615C77.2113 10.1811 76.9614 10.2409 76.6877 10.2409ZM76.8591 9.51528C77.2179 9.51528 77.5036 9.38239 77.7162 9.1166C77.9315 8.84815 78.0392 8.49333 78.0392 8.05212C78.0392 7.60825 77.9315 7.25342 77.7162 6.98764C77.5036 6.71919 77.2179 6.58497 76.8591 6.58497C76.5189 6.58497 76.2425 6.71122 76.0299 6.96372C75.8199 7.21356 75.715 7.57636 75.715 8.05212C75.715 8.52788 75.8199 8.89068 76.0299 9.14052C76.2425 9.39036 76.5189 9.51528 76.8591 9.51528Z" fill="black"/>
<path d="M72.3102 10.2667C71.9089 10.2667 71.5567 10.1737 71.2537 9.9876C70.9508 9.80155 70.7142 9.54374 70.5441 9.21416C70.3767 8.88459 70.293 8.50451 70.293 8.07393C70.293 7.63804 70.3767 7.25531 70.5441 6.92573C70.7142 6.59349 70.9508 6.33435 71.2537 6.1483C71.5567 5.95959 71.9089 5.86523 72.3102 5.86523C72.7115 5.86523 73.0623 5.95959 73.3627 6.1483C73.6657 6.33435 73.9009 6.59349 74.0683 6.92573C74.2384 7.25531 74.3234 7.63804 74.3234 8.07393C74.3234 8.50451 74.2384 8.88459 74.0683 9.21416C73.9009 9.54374 73.6657 9.80155 73.3627 9.9876C73.0623 10.1737 72.7115 10.2667 72.3102 10.2667ZM72.3102 9.54108C72.6717 9.54108 72.956 9.40819 73.1633 9.1424C73.3706 8.87661 73.4743 8.52046 73.4743 8.07393C73.4743 7.62209 73.3693 7.26195 73.1594 6.9935C72.952 6.72506 72.669 6.59084 72.3102 6.59084C71.9514 6.59084 71.667 6.72506 71.4571 6.9935C71.2498 7.25929 71.1461 7.61943 71.1461 8.07393C71.1461 8.52311 71.2498 8.8806 71.4571 9.14639C71.6644 9.40952 71.9487 9.54108 72.3102 9.54108Z" fill="black"/>
<path d="M66.7748 7.73701V10.161H65.9336V5.95091H66.7588V6.58481C67.0459 6.1064 67.4698 5.86719 68.0306 5.86719C68.3203 5.86719 68.5794 5.93098 68.808 6.05855C69.0392 6.18348 69.2212 6.36953 69.3541 6.61671C69.487 6.86389 69.5534 7.17088 69.5534 7.53766V10.161H68.7123V7.64132C68.7123 7.30377 68.6312 7.04994 68.4691 6.87984C68.307 6.70708 68.0811 6.6207 67.7914 6.6207C67.5043 6.6207 67.2625 6.70973 67.0658 6.88781C66.8718 7.06323 66.7748 7.3463 66.7748 7.73701Z" fill="black"/>
<path d="M60.8016 6.31296C60.687 5.94582 60.4117 5.64759 60.0676 5.46423L53.0718 2.11486C52.8885 2.02297 52.6819 2 52.4984 2C52.3148 2 52.1085 2 51.9249 2.04594L44.9291 5.41829C44.7567 5.49719 44.6048 5.61482 44.4853 5.76203C44.3658 5.90924 44.2818 6.08205 44.24 6.26701L42.5188 13.8145C42.4849 14.0056 42.4898 14.2016 42.5332 14.3907C42.5766 14.5799 42.6575 14.7584 42.7713 14.9157L47.6115 20.9031C47.8868 21.1786 48.2767 21.3626 48.6668 21.3849H56.3744C56.7873 21.4309 57.1772 21.2473 57.4297 20.9031L62.2699 14.9157C62.4961 14.5959 62.5943 14.2031 62.5451 13.8145L60.8016 6.31296V6.31296Z" fill="#326DE6"/>
<path d="M59.7241 13.5185C59.7011 13.5185 59.6781 13.5185 59.6781 13.4955C59.6781 13.4725 59.6322 13.4733 59.5854 13.4733C59.4937 13.4504 59.4021 13.4504 59.3102 13.4504C59.2631 13.454 59.2159 13.4461 59.1726 13.4274H59.1496C58.8862 13.4038 58.6252 13.3577 58.3696 13.2898C58.3331 13.2758 58.2999 13.2543 58.2722 13.2266C58.2446 13.199 58.2231 13.1658 58.2092 13.1292L58.0257 13.0832C58.1174 12.4181 58.0714 11.7297 57.9338 11.0646C57.7719 10.3975 57.5007 9.76181 57.1311 9.18336L57.2695 9.04594V9.02297C57.2695 8.95405 57.2925 8.86237 57.3382 8.81643C57.5447 8.63307 57.7513 8.49544 57.9806 8.35698L58.1182 8.28827C58.2101 8.24233 58.2788 8.19638 58.3705 8.15065C58.3934 8.12768 58.4164 8.12768 58.4394 8.1047C58.4623 8.08173 58.4394 8.08173 58.4394 8.05876C58.6457 7.89733 58.6916 7.6227 58.531 7.41699C58.492 7.36904 58.4431 7.32993 58.3878 7.30225C58.3325 7.27456 58.2719 7.25894 58.2101 7.2564C58.0935 7.2594 57.981 7.29958 57.8889 7.37105V7.37105L57.8659 7.39402C57.843 7.41699 57.82 7.43976 57.797 7.43976C57.7283 7.50867 57.6594 7.57759 57.6135 7.6463C57.5907 7.69225 57.5447 7.71522 57.5218 7.73819C57.3527 7.92993 57.16 8.09947 56.9483 8.24275C56.9024 8.26572 56.8564 8.28869 56.8107 8.28869C56.7877 8.28869 56.7418 8.28869 56.7188 8.26572H56.6961L56.5125 8.38037C56.3289 8.1968 56.1224 8.01344 55.9391 7.82987C55.0902 7.16451 54.0349 6.75163 52.9568 6.63698L52.9338 6.45341V6.47638C52.8651 6.43044 52.8421 6.36173 52.8191 6.29281C52.8191 6.04053 52.8191 5.78804 52.8651 5.51279V5.48982C52.8651 5.44409 52.8881 5.39814 52.8881 5.3522C52.911 5.26052 52.911 5.16883 52.9338 5.07695V4.93932C52.9568 4.7096 52.7732 4.47987 52.5439 4.45753C52.4063 4.43455 52.2687 4.50347 52.154 4.61812C52.1109 4.65987 52.0765 4.70975 52.0529 4.76489C52.0292 4.82003 52.0168 4.87932 52.0162 4.93932V4.93932V5.05397C52.0162 5.14586 52.0392 5.23754 52.0621 5.32922C52.0808 5.37264 52.0887 5.41993 52.0851 5.46706V5.48982C52.1302 5.74168 52.1302 5.99396 52.1302 6.26838C52.1072 6.33729 52.0843 6.406 52.0154 6.45195V6.4981L51.9926 6.68167C51.7401 6.70443 51.4879 6.75038 51.2126 6.79632C50.1344 7.02605 49.1479 7.5991 48.3909 8.40209L48.2533 8.31041H48.2303C48.2076 8.31041 48.1846 8.33338 48.1386 8.33338C48.0927 8.33338 48.047 8.31041 48.001 8.28744C47.794 8.12957 47.6021 7.95291 47.4276 7.7597V7.7597C47.4046 7.71396 47.3587 7.69099 47.3357 7.66802C47.267 7.5991 47.2211 7.53039 47.1523 7.46148C47.1294 7.4385 47.1064 7.4385 47.0834 7.41574L47.0605 7.39277C46.9684 7.3213 46.8558 7.28112 46.7393 7.27812C46.6017 7.27812 46.487 7.32385 46.4181 7.4385C46.3532 7.5386 46.3267 7.65882 46.3436 7.77693C46.3605 7.89503 46.4196 8.00302 46.51 8.0809C46.513 8.08084 46.516 8.08139 46.5188 8.08253C46.5217 8.08366 46.5242 8.08535 46.5264 8.0875C46.5285 8.08964 46.5302 8.0922 46.5313 8.09501C46.5325 8.09782 46.533 8.10084 46.533 8.10387C46.533 8.10387 46.5787 8.14981 46.6017 8.14981C46.6832 8.20041 46.7675 8.24636 46.8541 8.28744L46.993 8.35677C47.2227 8.49461 47.4524 8.63223 47.6352 8.81622C47.6811 8.86216 47.727 8.95385 47.7041 9.02276V8.99979L47.8417 9.13742C47.8187 9.18336 47.7958 9.20633 47.773 9.25228C47.0613 10.3756 46.7633 11.7061 46.9696 13.0139L46.7861 13.0596C46.7861 13.0627 46.7856 13.0657 46.7844 13.0685C46.7833 13.0713 46.7816 13.0739 46.7795 13.076C46.7773 13.0781 46.7748 13.0798 46.7719 13.081C46.7691 13.0821 46.7661 13.0827 46.7631 13.0826C46.7401 13.1515 46.6714 13.1973 46.6025 13.2432C46.3477 13.3132 46.0869 13.3593 45.8236 13.3808V13.3808C45.7765 13.3772 45.7293 13.3851 45.6859 13.4038C45.5943 13.4038 45.5026 13.4268 45.4107 13.4268C45.3877 13.4268 45.3648 13.4497 45.319 13.4497C45.2961 13.4497 45.2961 13.4497 45.2731 13.4727C45.2138 13.4823 45.1571 13.5036 45.1063 13.5355C45.0554 13.5674 45.0115 13.6092 44.9771 13.6584C44.9428 13.7076 44.9186 13.7633 44.9062 13.822C44.8938 13.8807 44.8933 13.9413 44.9047 14.0002V14.0002C44.9507 14.2068 45.1572 14.3444 45.3641 14.3214C45.4038 14.325 45.4437 14.317 45.479 14.2985V14.2985C45.502 14.2985 45.502 14.2985 45.502 14.2755C45.502 14.2525 45.5707 14.2755 45.5936 14.2755C45.6853 14.2525 45.7772 14.2068 45.8459 14.1838C45.8919 14.1608 45.9378 14.1379 45.9835 14.1379H46.0065C46.2516 14.045 46.505 13.9759 46.7633 13.9315H46.7863C46.8541 13.9296 46.9199 13.9543 46.9698 14.0002C46.9729 14.0002 46.9759 14.0007 46.9787 14.0019C46.9815 14.003 46.9841 14.0047 46.9862 14.0068C46.9883 14.009 46.99 14.0115 46.9912 14.0144C46.9923 14.0172 46.9929 14.0202 46.9928 14.0232V14.0232L47.1991 14.0002C47.5433 15.0555 48.1856 15.9961 49.0803 16.6843C49.2868 16.8449 49.4701 16.9825 49.6996 17.0973L49.585 17.2579C49.5849 17.2609 49.5855 17.2639 49.5866 17.2667C49.5877 17.2695 49.5894 17.272 49.5915 17.2742C49.5937 17.2763 49.5962 17.278 49.599 17.2791C49.6018 17.2802 49.6048 17.2808 49.6078 17.2807C49.6537 17.3496 49.6537 17.4413 49.6307 17.5104C49.5391 17.7401 49.401 17.9699 49.2638 18.1758V18.1986C49.2409 18.2445 49.2179 18.2675 49.1719 18.3134C49.126 18.3594 49.0803 18.451 49.0113 18.5431C48.9884 18.5661 48.9884 18.5891 48.9656 18.6121C48.9657 18.6151 48.9651 18.6181 48.964 18.6209C48.9628 18.6237 48.9611 18.6262 48.959 18.6284C48.9569 18.6305 48.9543 18.6322 48.9515 18.6333C48.9487 18.6344 48.9457 18.6349 48.9426 18.6348C48.828 18.8645 48.9197 19.1396 49.1262 19.2542C49.1762 19.28 49.2307 19.2957 49.2868 19.3002C49.4701 19.3002 49.6307 19.1855 49.7226 19.0249C49.7225 19.0219 49.7231 19.0189 49.7242 19.0161C49.7253 19.0133 49.727 19.0107 49.7291 19.0086C49.7312 19.0064 49.7338 19.0047 49.7366 19.0036C49.7394 19.0025 49.7424 19.0019 49.7454 19.002C49.7454 18.979 49.7684 18.956 49.7913 18.9332C49.8143 18.8414 49.8602 18.7727 49.8832 18.6808L49.9289 18.5431C49.9979 18.2909 50.1125 18.0613 50.2272 17.832C50.2715 17.7672 50.3361 17.7188 50.4107 17.6944C50.4337 17.6944 50.4337 17.6944 50.4337 17.6714L50.5254 17.4879C51.1677 17.7401 51.8331 17.855 52.5211 17.855C52.9392 17.8578 53.3557 17.8036 53.7591 17.6938C54.0114 17.6478 54.2638 17.5562 54.4931 17.4872L54.5848 17.6478C54.6078 17.6478 54.6078 17.6478 54.6078 17.6708C54.6825 17.6952 54.747 17.7436 54.7913 17.8084C54.906 18.0382 55.021 18.2679 55.0895 18.5185V18.5415L55.1355 18.6791C55.1584 18.771 55.1814 18.8627 55.2272 18.9314C55.2501 18.9543 55.2501 18.9773 55.2731 19.0003C55.273 19.0033 55.2736 19.0063 55.2747 19.0091C55.2759 19.012 55.2776 19.0145 55.2797 19.0167C55.2818 19.0188 55.2844 19.0205 55.2872 19.0216C55.29 19.0228 55.293 19.0233 55.2961 19.0233V19.0233C55.388 19.1849 55.549 19.3 55.7325 19.3C55.8012 19.3 55.8472 19.277 55.9161 19.254C56.0078 19.2083 56.0994 19.1164 56.1224 19.0017C56.1492 18.8873 56.1412 18.7674 56.0994 18.6576V18.6576C56.0995 18.6546 56.099 18.6516 56.0979 18.6487C56.0968 18.6459 56.0951 18.6434 56.093 18.6412C56.0908 18.6391 56.0883 18.6374 56.0855 18.6362C56.0827 18.6351 56.0797 18.6346 56.0767 18.6346C56.0767 18.6118 56.0537 18.5889 56.0307 18.5659C55.9907 18.4807 55.9364 18.403 55.8701 18.3362C55.8472 18.2904 55.8242 18.2675 55.7785 18.2215V18.1758C55.6179 17.9692 55.503 17.7397 55.4113 17.5104C55.3884 17.4415 55.3884 17.3498 55.4343 17.2807C55.4343 17.2777 55.4348 17.2747 55.4359 17.2719C55.4371 17.2691 55.4388 17.2665 55.4409 17.2644C55.4431 17.2623 55.4456 17.2606 55.4484 17.2595C55.4513 17.2584 55.4543 17.2579 55.4573 17.2579V17.2579L55.3884 17.0744C56.5578 16.3631 57.4531 15.2621 57.8659 13.9543L58.0495 13.9773C58.0525 13.9773 58.0555 13.9768 58.0583 13.9756C58.0611 13.9745 58.0637 13.9728 58.0658 13.9707C58.0679 13.9685 58.0696 13.966 58.0707 13.9631C58.0718 13.9603 58.0723 13.9573 58.0722 13.9543C58.1222 13.9085 58.188 13.8838 58.2558 13.8856H58.2788C58.5297 13.93 58.7755 13.9991 59.0128 14.0919H59.0358C59.0817 14.1149 59.1275 14.1379 59.1734 14.1379C59.2653 14.1838 59.334 14.2298 59.4257 14.2525C59.4486 14.2525 59.4716 14.2755 59.5176 14.2755C59.5405 14.2755 59.5405 14.2755 59.5635 14.2985C59.5987 14.317 59.6385 14.325 59.6781 14.3214C59.7781 14.3201 59.8753 14.2887 59.9572 14.2314C60.0391 14.1742 60.102 14.0936 60.1376 14.0002C60.1282 13.8867 60.0833 13.779 60.0092 13.6925C59.935 13.606 59.8355 13.5451 59.7247 13.5185H59.7241ZM53.0944 12.8084L52.475 13.1066L51.8558 12.8084L51.6952 12.143L52.1302 11.5915H52.8194L53.2552 12.142L53.0944 12.8084ZM56.8337 11.3173C56.944 11.7906 56.975 12.279 56.9254 12.7625L54.746 12.142C54.5397 12.0963 54.425 11.8897 54.4708 11.6825C54.4873 11.6221 54.5189 11.5669 54.5627 11.5219L56.283 9.96212C56.5365 10.3818 56.7224 10.8387 56.8337 11.3162V11.3173ZM55.5949 9.11382L53.7138 10.4452C53.5532 10.5368 53.3239 10.5139 53.2092 10.3533C53.1868 10.3331 53.1691 10.3083 53.1572 10.2805C53.1453 10.2528 53.1395 10.2228 53.1403 10.1927L53.0027 7.87581C54.012 7.99047 54.9066 8.42632 55.5949 9.11444V9.11382ZM51.4427 7.94431L51.9022 7.85263L51.7875 10.1467C51.7875 10.3531 51.604 10.5137 51.3976 10.5137C51.3287 10.5137 51.2828 10.4907 51.2141 10.4677L49.31 9.11423C49.9058 8.54034 50.64 8.12705 51.4427 7.9439V7.94431ZM48.6444 9.96317L50.342 11.4773C50.5024 11.6149 50.5254 11.8442 50.3877 12.0048C50.342 12.0737 50.2961 12.0967 50.2042 12.1196L47.9789 12.7614C47.9112 11.7826 48.1433 10.8064 48.6442 9.96275L48.6444 9.96317ZM48.2541 13.8396L50.5252 13.4497C50.7087 13.4497 50.8923 13.5644 50.9152 13.748C50.9382 13.8167 50.9382 13.9086 50.8923 13.9777L50.021 16.0878C49.2177 15.5603 48.5753 14.7573 48.2541 13.8396ZM53.4615 16.6843C53.1403 16.7532 52.8191 16.7991 52.475 16.7991C51.9934 16.7991 51.4887 16.7072 51.0299 16.5694L52.154 14.5278C52.2687 14.3902 52.4522 14.3442 52.6134 14.4359C52.68 14.4828 52.7415 14.5366 52.7968 14.5965L53.898 16.5924C53.7508 16.6143 53.605 16.645 53.4615 16.6843V16.6843ZM56.2598 14.6886C55.9102 15.2448 55.4398 15.7152 54.8836 16.0648L53.9888 13.9086C53.9431 13.725 54.0347 13.5414 54.1953 13.4727C54.2642 13.4497 54.3329 13.4268 54.4019 13.4268L56.6959 13.8167C56.5812 14.1379 56.4436 14.4361 56.26 14.6886H56.2598Z" fill="white"/>
</svg>
