<svg width="128" height="128" viewBox="0 0 128 128" fill="none" xmlns="http://www.w3.org/2000/svg">
<path d="M125.891 115.019V24.4822C125.891 23.1663 124.824 22.0996 123.508 22.0996H92.5356H33.2706H4.97822C3.66239 22.0996 2.5957 23.1663 2.5957 24.4822V115.019C2.5957 116.335 3.66239 117.402 4.97821 117.402H123.508C124.824 117.402 125.891 116.335 125.891 115.019Z" fill="#E0F2FF"/>
<path d="M2 115.021V24.4841C2 22.8392 3.33336 21.5059 4.97814 21.5059H33.2705V22.6971H4.97814C3.99127 22.6971 3.19126 23.4972 3.19126 24.4841V115.021C3.19126 116.008 3.99127 116.808 4.97814 116.808H123.508C124.495 116.808 125.295 116.008 125.295 115.021V24.4841C125.295 23.4972 124.495 22.6971 123.508 22.6971H63.9454V21.5059H123.508C125.153 21.5059 126.486 22.8392 126.486 24.4841V115.021C126.486 116.666 125.153 117.999 123.508 117.999H4.97814C3.33336 117.999 2 116.666 2 115.021Z" fill="#3C89C1"/>
<path d="M82.1595 18.6413C81.6724 18.6413 81.2536 18.5312 80.9031 18.3109C80.5556 18.0906 80.2873 17.7882 80.098 17.4035C79.9119 17.0157 79.8188 16.5752 79.8188 16.0819C79.8188 15.5824 79.9166 15.1388 80.112 14.751C80.3074 14.3632 80.5773 14.0592 80.9217 13.839C81.266 13.6156 81.6616 13.5039 82.1083 13.5039C82.5736 13.5039 82.9769 13.6125 83.3182 13.8296C83.6625 14.0468 83.9293 14.3493 84.1185 14.7371C84.3078 15.1217 84.4024 15.5669 84.4024 16.0726V16.3378H80.7867C80.8054 16.7815 80.9325 17.1398 81.1683 17.4128C81.4072 17.6858 81.7422 17.8223 82.1734 17.8223C82.4961 17.8223 82.7613 17.7494 82.9692 17.6036C83.177 17.4578 83.3151 17.2685 83.3833 17.0359H84.3279C84.269 17.3523 84.1372 17.6315 83.9324 17.8735C83.7308 18.1155 83.4764 18.3047 83.1693 18.4412C82.8652 18.5746 82.5286 18.6413 82.1595 18.6413ZM80.7961 15.5933H83.4438C83.4035 15.2024 83.2654 14.8937 83.0297 14.6673C82.7939 14.4377 82.4899 14.3229 82.1176 14.3229C81.7453 14.3229 81.4413 14.4377 81.2055 14.6673C80.9729 14.8937 80.8364 15.2024 80.7961 15.5933Z" fill="black"/>
<path d="M76.4579 18.629C76.0298 18.629 75.656 18.522 75.3364 18.3079C75.0169 18.0907 74.7687 17.7914 74.5919 17.4098C74.4151 17.0251 74.3267 16.5799 74.3267 16.0743C74.3267 15.5686 74.4151 15.125 74.5919 14.7434C74.7718 14.3587 75.0216 14.0593 75.3411 13.8453C75.6606 13.6281 76.0313 13.5195 76.4532 13.5195C76.7728 13.5195 77.0644 13.5862 77.3281 13.7196C77.5918 13.853 77.8027 14.0562 77.9609 14.3292H77.9702V11.5977H78.9521V18.5313H77.9888V17.7821H77.9795C77.8151 18.0675 77.5995 18.28 77.3327 18.4196C77.069 18.5592 76.7774 18.629 76.4579 18.629ZM76.658 17.7821C77.0768 17.7821 77.4103 17.627 77.6585 17.3167C77.9097 17.0034 78.0354 16.5892 78.0354 16.0743C78.0354 15.5562 77.9097 15.142 77.6585 14.8318C77.4103 14.5185 77.0768 14.3618 76.658 14.3618C76.2609 14.3618 75.9383 14.5092 75.6901 14.8039C75.445 15.0955 75.3225 15.5189 75.3225 16.0743C75.3225 16.6296 75.445 17.053 75.6901 17.3446C75.9383 17.6363 76.2609 17.7821 76.658 17.7821Z" fill="black"/>
<path d="M71.3482 18.6413C70.8798 18.6413 70.4688 18.5327 70.1151 18.3156C69.7615 18.0984 69.4854 17.7975 69.2868 17.4128C69.0914 17.0281 68.9937 16.5845 68.9937 16.0819C68.9937 15.5731 69.0914 15.1264 69.2868 14.7417C69.4854 14.3539 69.7615 14.0515 70.1151 13.8343C70.4688 13.614 70.8798 13.5039 71.3482 13.5039C71.8167 13.5039 72.2262 13.614 72.5767 13.8343C72.9304 14.0515 73.2049 14.3539 73.4004 14.7417C73.5989 15.1264 73.6982 15.5731 73.6982 16.0819C73.6982 16.5845 73.5989 17.0281 73.4004 17.4128C73.2049 17.7975 72.9304 18.0984 72.5767 18.3156C72.2262 18.5327 71.8167 18.6413 71.3482 18.6413ZM71.3482 17.7944C71.7701 17.7944 72.1021 17.6393 72.3441 17.329C72.586 17.0188 72.707 16.6031 72.707 16.0819C72.707 15.5545 72.5845 15.1342 72.3394 14.8208C72.0974 14.5075 71.767 14.3508 71.3482 14.3508C70.9294 14.3508 70.5975 14.5075 70.3524 14.8208C70.1105 15.1311 69.9895 15.5514 69.9895 16.0819C69.9895 16.6062 70.1105 17.0235 70.3524 17.3337C70.5944 17.6408 70.9263 17.7944 71.3482 17.7944Z" fill="black"/>
<path d="M64.8857 15.7059V18.5352H63.9038V13.6212H64.8671V14.3611C65.2021 13.8026 65.6969 13.5234 66.3515 13.5234C66.6896 13.5234 66.9921 13.5979 67.2589 13.7468C67.5288 13.8926 67.7413 14.1098 67.8964 14.3983C68.0515 14.6868 68.129 15.0451 68.129 15.4732V18.5352H67.1472V15.5942C67.1472 15.2002 67.0526 14.904 66.8633 14.7054C66.6741 14.5038 66.4104 14.4029 66.0723 14.4029C65.7372 14.4029 65.4549 14.5069 65.2254 14.7147C64.9989 14.9195 64.8857 15.2499 64.8857 15.7059Z" fill="black"/>
<path d="M57.9128 14.0341C57.779 13.6056 57.4577 13.2575 57.056 13.0435L48.8902 9.13407C48.6762 9.02681 48.4351 9 48.2209 9C48.0066 9 47.7658 9 47.5515 9.05363L39.3858 12.9898C39.1845 13.0819 39.0072 13.2192 38.8677 13.3911C38.7282 13.5629 38.6302 13.7646 38.5814 13.9805L36.5723 22.7899C36.5328 23.013 36.5385 23.2417 36.5891 23.4625C36.6397 23.6833 36.7343 23.8917 36.867 24.0753L42.5168 31.0638C42.838 31.3853 43.2931 31.6001 43.7485 31.6262H52.7452C53.2271 31.6798 53.6822 31.4655 53.9769 31.0638L59.6266 24.0753C59.8906 23.702 60.0053 23.2435 59.9479 22.7899L57.9128 14.0341V14.0341Z" fill="#326DE6"/>
<path d="M56.6584 22.4483C56.6316 22.4483 56.6048 22.4483 56.6048 22.4215C56.6048 22.3947 56.5512 22.3956 56.4966 22.3956C56.3896 22.3688 56.2826 22.3688 56.1753 22.3688C56.1204 22.373 56.0653 22.3638 56.0147 22.342H55.9879C55.6804 22.3144 55.3758 22.2607 55.0775 22.1814C55.0348 22.1651 54.9961 22.14 54.9638 22.1077C54.9315 22.0754 54.9065 22.0366 54.8903 21.9939L54.676 21.9403C54.783 21.1639 54.7294 20.3605 54.5687 19.5841C54.3798 18.8055 54.0632 18.0635 53.6318 17.3883L53.7934 17.2279V17.2011C53.7934 17.1207 53.8202 17.0137 53.8736 16.9601C54.1146 16.746 54.3557 16.5854 54.6233 16.4238L54.784 16.3436C54.8912 16.29 54.9714 16.2363 55.0784 16.183C55.1052 16.1561 55.1321 16.1561 55.1589 16.1293C55.1857 16.1025 55.1589 16.1025 55.1589 16.0757C55.3997 15.8873 55.4533 15.5667 55.2659 15.3266C55.2202 15.2707 55.1633 15.225 55.0987 15.1927C55.0341 15.1604 54.9634 15.1421 54.8912 15.1392C54.7552 15.1427 54.6238 15.1896 54.5163 15.273V15.273L54.4895 15.2998C54.4627 15.3266 54.4359 15.3532 54.4091 15.3532C54.3289 15.4336 54.2485 15.5141 54.1948 15.5943C54.1683 15.6479 54.1146 15.6747 54.0878 15.7015C53.8905 15.9253 53.6656 16.1232 53.4185 16.2905C53.3648 16.3173 53.3112 16.3441 53.2578 16.3441C53.231 16.3441 53.1774 16.3441 53.1506 16.3173H53.124L52.9098 16.4511C52.6955 16.2368 52.4544 16.0228 52.2404 15.8085C51.2495 15.0319 50.0179 14.55 48.7594 14.4162L48.7325 14.2019V14.2287C48.6523 14.1751 48.6255 14.0949 48.5987 14.0145C48.5987 13.72 48.5987 13.4253 48.6523 13.104V13.0772C48.6523 13.0238 48.6792 12.9702 48.6792 12.9166C48.706 12.8096 48.706 12.7026 48.7325 12.5953V12.4347C48.7594 12.1665 48.5451 11.8984 48.2775 11.8723C48.1168 11.8455 47.9562 11.926 47.8224 12.0598C47.7721 12.1085 47.7319 12.1667 47.7043 12.2311C47.6767 12.2954 47.6621 12.3646 47.6615 12.4347V12.4347V12.5685C47.6615 12.6758 47.6883 12.7828 47.7151 12.8898C47.7369 12.9404 47.7461 12.9956 47.7419 13.0507V13.0772C47.7946 13.3712 47.7946 13.6657 47.7946 13.986C47.7678 14.0664 47.7409 14.1466 47.6605 14.2002V14.2541L47.6339 14.4684C47.3392 14.4949 47.0448 14.5486 46.7235 14.6022C45.465 14.8703 44.3135 15.5392 43.4299 16.4764L43.2693 16.3694H43.2425C43.2159 16.3694 43.1891 16.3962 43.1355 16.3962C43.0818 16.3962 43.0284 16.3694 42.9748 16.3426C42.7332 16.1584 42.5091 15.9522 42.3055 15.7266V15.7266C42.2787 15.6733 42.225 15.6464 42.1982 15.6196C42.118 15.5392 42.0644 15.459 41.9842 15.3785C41.9574 15.3517 41.9306 15.3517 41.9038 15.3252L41.877 15.2984C41.7694 15.2149 41.6381 15.168 41.5021 15.1645C41.3414 15.1645 41.2076 15.2179 41.1272 15.3517C41.0514 15.4686 41.0205 15.6089 41.0402 15.7467C41.0599 15.8846 41.1289 16.0106 41.2344 16.1015C41.238 16.1015 41.2415 16.1021 41.2448 16.1034C41.248 16.1048 41.251 16.1067 41.2535 16.1092C41.256 16.1117 41.258 16.1147 41.2593 16.118C41.2607 16.1213 41.2613 16.1248 41.2612 16.1284C41.2612 16.1284 41.3146 16.182 41.3414 16.182C41.4366 16.241 41.5349 16.2947 41.6361 16.3426L41.7982 16.4235C42.0664 16.5844 42.3345 16.7451 42.5478 16.9598C42.6014 17.0134 42.655 17.1204 42.6282 17.2009V17.1741L42.7888 17.3347C42.762 17.3883 42.7352 17.4152 42.7086 17.4688C41.8779 18.78 41.5301 20.3329 41.7709 21.8594L41.5567 21.9127C41.5567 21.9163 41.5561 21.9198 41.5548 21.9231C41.5534 21.9264 41.5515 21.9293 41.549 21.9319C41.5465 21.9344 41.5435 21.9363 41.5402 21.9377C41.5369 21.939 41.5334 21.9396 41.5298 21.9396C41.503 22.02 41.4228 22.0734 41.3424 22.127C41.045 22.2087 40.7406 22.2625 40.4332 22.2876V22.2876C40.3783 22.2834 40.3231 22.2926 40.2726 22.3145C40.1656 22.3145 40.0586 22.3413 39.9513 22.3413C39.9245 22.3413 39.8977 22.3681 39.8443 22.3681C39.8175 22.3681 39.8175 22.3681 39.7907 22.3949C39.7215 22.406 39.6553 22.431 39.5959 22.4682C39.5366 22.5054 39.4853 22.5542 39.4452 22.6117C39.4051 22.6691 39.3769 22.734 39.3624 22.8026C39.3479 22.8711 39.3473 22.9419 39.3607 23.0106V23.0106C39.4143 23.2517 39.6554 23.4123 39.8969 23.3855C39.9433 23.3897 39.9898 23.3804 40.031 23.3587V23.3587C40.0578 23.3587 40.0578 23.3587 40.0578 23.3319C40.0578 23.3051 40.138 23.3319 40.1648 23.3319C40.2718 23.3051 40.3791 23.2517 40.4593 23.2249C40.5129 23.1981 40.5665 23.1713 40.6199 23.1713H40.6467C40.9328 23.0629 41.2286 22.9822 41.5301 22.9304H41.5569C41.636 22.9282 41.7129 22.957 41.7712 23.0106C41.7747 23.0106 41.7782 23.0112 41.7815 23.0125C41.7848 23.0139 41.7878 23.0158 41.7903 23.0183C41.7928 23.0208 41.7947 23.0238 41.7961 23.0271C41.7974 23.0304 41.798 23.0339 41.798 23.0374V23.0374L42.0388 23.0106C42.4405 24.2423 43.1903 25.3402 44.2345 26.1434C44.4756 26.3309 44.6896 26.4915 44.9575 26.6256L44.8237 26.813C44.8236 26.8165 44.8243 26.82 44.8256 26.8233C44.8269 26.8265 44.8289 26.8295 44.8313 26.832C44.8338 26.8344 44.8368 26.8364 44.84 26.8377C44.8433 26.839 44.8468 26.8397 44.8503 26.8396C44.9039 26.92 44.9039 27.027 44.8771 27.1077C44.7701 27.3759 44.609 27.644 44.4488 27.8843V27.9109C44.422 27.9645 44.3952 27.9914 44.3416 28.045C44.2879 28.0986 44.2345 28.2056 44.1541 28.3131C44.1273 28.3399 44.1273 28.3667 44.1007 28.3936C44.1008 28.3971 44.1001 28.4006 44.0988 28.4039C44.0975 28.4071 44.0955 28.4101 44.093 28.4126C44.0905 28.4151 44.0875 28.417 44.0842 28.4183C44.081 28.4196 44.0774 28.4202 44.0739 28.4201C43.9401 28.6883 44.0471 29.0093 44.2882 29.1431C44.3465 29.1732 44.4102 29.1915 44.4756 29.1967C44.6896 29.1967 44.8771 29.0629 44.9843 28.8755C44.9842 28.8719 44.9849 28.8684 44.9861 28.8651C44.9874 28.8619 44.9894 28.8589 44.9919 28.8564C44.9944 28.8539 44.9973 28.8519 45.0006 28.8506C45.0039 28.8492 45.0074 28.8486 45.0109 28.8487C45.0109 28.8218 45.0377 28.795 45.0645 28.7685C45.0913 28.6612 45.145 28.581 45.1718 28.4737L45.2252 28.3131C45.3056 28.0187 45.4394 27.7508 45.5732 27.4831C45.6251 27.4075 45.7004 27.351 45.7875 27.3225C45.8143 27.3225 45.8143 27.3225 45.8143 27.2957L45.9213 27.0814C46.6711 27.3759 47.4477 27.5099 48.2509 27.5099C48.7389 27.5132 49.225 27.4499 49.6959 27.3217C49.9903 27.2681 50.285 27.1611 50.5527 27.0807L50.6597 27.2681C50.6865 27.2681 50.6865 27.2681 50.6865 27.2949C50.7737 27.3234 50.849 27.3799 50.9007 27.4556C51.0346 27.7237 51.1689 27.9918 51.2488 28.2843V28.3112L51.3024 28.4718C51.3293 28.5791 51.3561 28.6861 51.4094 28.7663C51.4363 28.7931 51.4363 28.8199 51.4631 28.8467C51.463 28.8502 51.4637 28.8538 51.465 28.857C51.4663 28.8603 51.4683 28.8633 51.4708 28.8658C51.4733 28.8683 51.4763 28.8703 51.4795 28.8716C51.4828 28.8729 51.4863 28.8736 51.4899 28.8735V28.8735C51.5971 29.0622 51.7851 29.1965 51.9993 29.1965C52.0795 29.1965 52.1332 29.1697 52.2136 29.1429C52.3206 29.0895 52.4276 28.9822 52.4544 28.8484C52.4857 28.7148 52.4764 28.5749 52.4276 28.4467V28.4467C52.4277 28.4432 52.4271 28.4397 52.4258 28.4364C52.4245 28.4331 52.4225 28.4301 52.4201 28.4276C52.4176 28.4251 52.4146 28.4231 52.4113 28.4218C52.4081 28.4205 52.4046 28.4198 52.401 28.4199C52.401 28.3933 52.3742 28.3665 52.3474 28.3397C52.3007 28.2403 52.2373 28.1496 52.16 28.0715C52.1332 28.0182 52.1063 27.9914 52.053 27.9377V27.8843C51.8655 27.6433 51.7314 27.3754 51.6244 27.1077C51.5976 27.0273 51.5976 26.9203 51.6513 26.8396C51.6512 26.8361 51.6518 26.8326 51.6532 26.8293C51.6545 26.826 51.6565 26.8231 51.659 26.8206C51.6615 26.8181 51.6645 26.8161 51.6677 26.8148C51.671 26.8135 51.6745 26.8129 51.6781 26.813V26.813L51.5976 26.5988C52.9626 25.7685 54.0076 24.4834 54.4895 22.957L54.7038 22.9838C54.7073 22.9839 54.7108 22.9832 54.7141 22.9819C54.7174 22.9806 54.7203 22.9786 54.7228 22.9761C54.7253 22.9736 54.7272 22.9706 54.7285 22.9673C54.7298 22.964 54.7305 22.9605 54.7304 22.957C54.7887 22.9035 54.8655 22.8747 54.9446 22.8768H54.9714C55.2643 22.9287 55.5513 23.0093 55.8282 23.1176H55.855C55.9087 23.1445 55.962 23.1713 56.0157 23.1713C56.1229 23.2249 56.2031 23.2785 56.3101 23.3051C56.3369 23.3051 56.3637 23.3319 56.4174 23.3319C56.4442 23.3319 56.4442 23.3319 56.471 23.3587C56.5121 23.3804 56.5586 23.3897 56.6048 23.3855C56.7215 23.3839 56.8349 23.3473 56.9306 23.2805C57.0262 23.2136 57.0995 23.1196 57.1411 23.0106C57.1302 22.8781 57.0777 22.7524 56.9912 22.6514C56.9047 22.5504 56.7885 22.4793 56.6592 22.4483H56.6584ZM48.92 21.6195L48.197 21.9676L47.4743 21.6195L47.2868 20.8429L47.7946 20.1991H48.599L49.1077 20.8417L48.92 21.6195ZM53.2846 19.8791C53.4134 20.4315 53.4496 21.0016 53.3917 21.5659L50.8478 20.8417C50.607 20.7883 50.4732 20.5472 50.5266 20.3054C50.5459 20.2349 50.5828 20.1704 50.6338 20.1179L52.6419 18.2973C52.9378 18.7871 53.1547 19.3205 53.2846 19.8778V19.8791ZM51.8387 17.3072L49.643 18.8611C49.4555 18.9681 49.1879 18.9413 49.0541 18.7539C49.0279 18.7303 49.0072 18.7013 48.9933 18.669C48.9794 18.6366 48.9727 18.6016 48.9736 18.5664L48.813 15.8622C49.991 15.996 51.0353 16.5047 51.8387 17.3079V17.3072ZM46.9921 15.9421L47.5284 15.8351L47.3946 18.5128C47.3946 18.7536 47.1803 18.9411 46.9395 18.9411C46.859 18.9411 46.8054 18.9143 46.7252 18.8875L44.5027 17.3077C45.1981 16.6378 46.0551 16.1554 46.9921 15.9416V15.9421ZM43.7258 18.2985L45.7073 20.0658C45.8945 20.2264 45.9213 20.4941 45.7607 20.6815C45.7073 20.762 45.6537 20.7888 45.5464 20.8156L42.949 21.5647C42.87 20.4222 43.1409 19.2827 43.7256 18.298L43.7258 18.2985ZM43.2703 22.8232L45.9211 22.3681C46.1353 22.3681 46.3496 22.5019 46.3764 22.7162C46.4032 22.7964 46.4032 22.9036 46.3496 22.9843L45.3327 25.4472C44.3949 24.8315 43.6451 23.8943 43.2703 22.8232ZM49.3485 26.1434C48.9736 26.2239 48.5987 26.2775 48.197 26.2775C47.6349 26.2775 47.0458 26.1702 46.5102 26.0093L47.8224 23.6264C47.9562 23.4657 48.1704 23.4121 48.3586 23.5191C48.4364 23.5739 48.5081 23.6367 48.5726 23.7066L49.858 26.0362C49.6862 26.0618 49.5161 26.0976 49.3485 26.1434V26.1434ZM52.6148 23.8141C52.2067 24.4633 51.6577 25.0123 51.0085 25.4204L49.964 22.9036C49.9106 22.6894 50.0176 22.4751 50.2051 22.3949C50.2855 22.3681 50.3657 22.3413 50.4461 22.3413L53.1238 22.7964C52.9899 23.1713 52.8293 23.5194 52.6151 23.8141H52.6148Z" fill="white"/>
</svg>
