<svg width="128" height="128" viewBox="0 0 128 128" fill="none" xmlns="http://www.w3.org/2000/svg">
<path d="M14 33C14 30.7909 15.7909 29 18 29H90.08C92.2405 29 94.3092 29.8739 95.8155 31.4229L111.735 47.7948C113.188 49.2881 114 51.2889 114 53.3719V96C114 97.1046 113.105 98 112 98H18C15.7909 98 14 96.2091 14 94V33Z" fill="#FAFAFA"/>
<path d="M92.5 29.5V46.5C92.5 48.7091 94.2909 50.5 96.5 50.5H113.5L92.5 29.5Z" fill="#E9E9E9"/>
<path d="M18 29.5H90.502C92.2574 29.5 93.9383 30.2103 95.1621 31.4688L111.66 48.4346C112.84 49.6479 113.5 51.2735 113.5 52.9658V95C113.5 96.933 111.933 98.5 110 98.5H18C16.067 98.5 14.5 96.933 14.5 95V33C14.5 31.067 16.067 29.5 18 29.5Z" stroke="#BEBEBE"/>
<path d="M92.5 29.5V46.5C92.5 48.7091 94.2909 50.5 96.5 50.5H113" stroke="#BEBEBE"/>
</svg>
