<svg width="128" height="128" viewBox="0 0 128 128" fill="none" xmlns="http://www.w3.org/2000/svg">
<path d="M14 18C14 15.7909 15.7909 14 18 14H90.08C92.2405 14 94.3092 14.8739 95.8155 16.4229L111.735 32.7948C113.188 34.2881 114 36.2889 114 38.3719V111C114 112.105 113.105 113 112 113H18C15.7909 113 14 111.209 14 109V18Z" fill="#FAFAFA"/>
<path d="M92.5 14.5V31.5C92.5 33.7091 94.2909 35.5 96.5 35.5H113.5L92.5 14.5Z" fill="#E9E9E9"/>
<path d="M14 110V18C14 15.86 15.6806 14.1121 17.7939 14.0049L18 14H90.502C92.3924 14 94.2026 14.7649 95.5205 16.1201L112.019 33.0859C113.289 34.3926 114 36.1433 114 37.9658V110C114 112.209 112.209 114 110 114V113C111.657 113 113 111.657 113 110V37.9658C113 36.4037 112.391 34.9032 111.302 33.7832L94.8037 16.8174C93.6741 15.6557 92.1224 15 90.502 15H18C16.3431 15 15 16.3431 15 18V110C15 111.657 16.3431 113 18 113V114C15.7909 114 14 112.209 14 110ZM110 113V114H18V113H110Z" fill="#BEBEBE"/>
<path d="M92 31.5V14.5H93V31.5C93 33.433 94.567 35 96.5 35H113V36H96.5C94.0147 36 92 33.9853 92 31.5Z" fill="#BEBEBE"/>
</svg>
