<svg width="128" height="128" viewBox="0 0 128 128" fill="none" xmlns="http://www.w3.org/2000/svg">
<path d="M2 53.9497C2 52.8729 2.8729 52 3.94969 52H124.05C125.127 52 126 52.8729 126 53.9497V75.0063C126 76.0831 125.127 76.956 124.05 76.956H3.94969C2.87291 76.956 2 76.0831 2 75.0063V53.9497Z" fill="white"/>
<path d="M124.05 76.1761V76.956H3.94969V76.1761H124.05ZM125.22 75.0063V53.9497C125.22 53.3036 124.696 52.7799 124.05 52.7799H3.94969C3.30362 52.7799 2.77987 53.3036 2.77987 53.9497V75.0063C2.77987 75.6524 3.30362 76.1761 3.94969 76.1761V76.956C2.9065 76.956 2.0548 76.1367 2.00267 75.1064L2 75.0063V53.9497C2 52.8729 2.8729 52 3.94969 52H124.05L124.15 52.0027C125.181 52.0548 126 52.9065 126 53.9497V75.0063C126 76.0495 125.181 76.9012 124.15 76.9533L124.05 76.956V76.1761C124.696 76.1761 125.22 75.6524 125.22 75.0063Z" fill="#BFD4E8"/>
<path d="M62.8301 54.7305H63.61V74.2273H62.8301V54.7305Z" fill="#EEF1F5"/>
<path d="M114.765 70.0021C114.086 70.0021 113.599 69.6779 113.554 69.116H114.272C114.299 69.3437 114.468 69.4799 114.752 69.4799C115.022 69.4799 115.188 69.366 115.188 69.2051C115.188 69.0665 115.062 68.9848 114.849 68.9428L114.391 68.8537C113.883 68.7546 113.614 68.4972 113.614 68.0913C113.614 67.5963 114.042 67.2695 114.722 67.2695C115.398 67.2695 115.844 67.6086 115.859 68.1532H115.183C115.178 67.9428 115 67.7868 114.742 67.7868C114.492 67.7868 114.341 67.9081 114.341 68.0641C114.341 68.1977 114.458 68.2844 114.658 68.3264L115.153 68.423C115.68 68.5269 115.923 68.7546 115.923 69.1383C115.923 69.6606 115.448 70.0021 114.765 70.0021Z" fill="black"/>
<path d="M111.438 68.4848V69.9378H110.708V67.324H111.426V67.7349C111.602 67.4378 111.866 67.2695 112.243 67.2695C112.8 67.2695 113.158 67.6408 113.158 68.3017V69.9378H112.431V68.4353C112.431 68.0839 112.255 67.8982 111.951 67.8982C111.649 67.8982 111.438 68.0789 111.438 68.4848Z" fill="black"/>
<path d="M108.975 69.9963C108.183 69.9963 107.648 69.4517 107.648 68.6325C107.648 67.8132 108.183 67.2637 108.975 67.2637C109.77 67.2637 110.304 67.8132 110.304 68.6325C110.304 69.4517 109.77 69.9963 108.975 69.9963ZM108.975 69.4047C109.332 69.4047 109.569 69.1176 109.569 68.6325C109.569 68.1448 109.329 67.8552 108.975 67.8552C108.624 67.8552 108.384 68.1448 108.384 68.6325C108.384 69.1176 108.621 69.4047 108.975 69.4047Z" fill="black"/>
<path d="M106.515 69.935V67.3213H107.245V69.935H106.515ZM106.879 66.9921C106.639 66.9921 106.463 66.8262 106.463 66.6034C106.463 66.3807 106.639 66.2148 106.879 66.2148C107.119 66.2148 107.295 66.3807 107.295 66.6034C107.295 66.8262 107.119 66.9921 106.879 66.9921Z" fill="black"/>
<path d="M106.146 67.3222V67.894H105.611V69.1291C105.611 69.3073 105.668 69.3643 105.866 69.3643H106.146V69.936H105.72C105.146 69.936 104.881 69.7182 104.881 69.243V67.894H104.431V67.3222H104.881V66.6094H105.611V67.3222H106.146Z" fill="black"/>
<path d="M102.642 69.9823C102.119 69.9823 101.743 69.7224 101.743 69.2002C101.743 68.6111 102.218 68.4428 102.763 68.3933C103.241 68.3462 103.409 68.324 103.409 68.1556V68.1383C103.409 67.9453 103.248 67.8116 102.981 67.8116C102.708 67.8116 102.53 67.9502 102.513 68.1507H101.827C101.859 67.6111 102.285 67.2695 103.003 67.2695C103.718 67.2695 104.129 67.6062 104.129 68.1655V69.9378H103.416V69.569H103.406C103.268 69.8239 103.043 69.9823 102.642 69.9823ZM102.845 69.4749C103.196 69.4749 103.414 69.2645 103.414 68.9824V68.72C103.33 68.767 103.124 68.8017 102.889 68.8388C102.639 68.8759 102.441 68.9725 102.441 69.1804C102.441 69.366 102.6 69.4749 102.845 69.4749Z" fill="black"/>
<path d="M101.324 66.25V69.938H100.594V66.25H101.324Z" fill="black"/>
<path d="M98.5923 69.9823C98.0701 69.9823 97.6938 69.7224 97.6938 69.2002C97.6938 68.6111 98.1691 68.4428 98.7136 68.3933C99.1913 68.3462 99.3596 68.324 99.3596 68.1556V68.1383C99.3596 67.9453 99.1988 67.8116 98.9314 67.8116C98.6592 67.8116 98.481 67.9502 98.4636 68.1507H97.778C97.8102 67.6111 98.2359 67.2695 98.9537 67.2695C99.669 67.2695 100.08 67.6062 100.08 68.1655V69.9378H99.3671V69.569H99.3572C99.2186 69.8239 98.9933 69.9823 98.5923 69.9823ZM98.7953 69.4749C99.1468 69.4749 99.3646 69.2645 99.3646 68.9824V68.72C99.2804 68.767 99.075 68.8017 98.8399 68.8388C98.5899 68.8759 98.3919 68.9725 98.3919 69.1804C98.3919 69.366 98.5503 69.4749 98.7953 69.4749Z" fill="black"/>
<path d="M96.1346 69.9963C95.3475 69.9963 94.8228 69.4418 94.8228 68.6325C94.8228 67.8231 95.35 67.2637 96.1346 67.2637C96.8227 67.2637 97.3153 67.6919 97.3623 68.3008H96.6569C96.6197 68.0335 96.4366 67.8528 96.1445 67.8528C95.7757 67.8528 95.5579 68.1547 95.5579 68.6325C95.5579 69.1077 95.7782 69.4072 96.1445 69.4072C96.4391 69.4072 96.6049 69.229 96.6519 68.9542H97.3623C97.3301 69.5582 96.8301 69.9963 96.1346 69.9963Z" fill="black"/>
<path d="M93.3842 70.0021C92.706 70.0021 92.2184 69.6779 92.1738 69.116H92.8916C92.9189 69.3437 93.0872 69.4799 93.3718 69.4799C93.6416 69.4799 93.8075 69.366 93.8075 69.2051C93.8075 69.0665 93.6812 68.9848 93.4684 68.9428L93.0104 68.8537C92.503 68.7546 92.2332 68.4972 92.2332 68.0913C92.2332 67.5963 92.6614 67.2695 93.3421 67.2695C94.0178 67.2695 94.4634 67.6086 94.4782 68.1532H93.8025C93.7976 67.9428 93.6193 67.7868 93.3619 67.7868C93.1119 67.7868 92.9609 67.9081 92.9609 68.0641C92.9609 68.1977 93.0773 68.2844 93.2778 68.3264L93.7728 68.423C94.3 68.5269 94.5426 68.7546 94.5426 69.1383C94.5426 69.6606 94.0673 70.0021 93.3842 70.0021Z" fill="black"/>
<path d="M89.2305 69.938V66.25H91.8764V66.9034H89.9928V67.7574H91.7354V68.3935H89.9928V69.2846H91.8764V69.938H89.2305Z" fill="black"/>
<path d="M96.2998 64.0884L95.332 61.4746H96.0969L96.5275 62.7667C96.5944 62.9721 96.6563 63.18 96.7157 63.3855C96.7751 63.18 96.8369 62.9721 96.8988 62.7667L97.3246 61.4746H98.082L97.1117 64.0884H96.2998Z" fill="black"/>
<path d="M94.3127 64.0874V61.4736H95.0429V64.0874H94.3127ZM94.6766 61.1444C94.4365 61.1444 94.2607 60.9786 94.2607 60.7558C94.2607 60.533 94.4365 60.3672 94.6766 60.3672C94.9167 60.3672 95.0924 60.533 95.0924 60.7558C95.0924 60.9786 94.9167 61.1444 94.6766 61.1444Z" fill="black"/>
<path d="M92.3916 64.0882V61.4744H93.0946V61.9199H93.102C93.1985 61.6055 93.3965 61.457 93.7406 61.457C93.8247 61.457 93.8965 61.4595 93.9559 61.462V62.0833C93.9015 62.0808 93.7653 62.0709 93.6416 62.0709C93.3421 62.0709 93.1218 62.2788 93.1218 62.6723V64.0882H92.3916Z" fill="black"/>
<path d="M89.2305 64.0884V60.4004H90.6859C91.5151 60.4004 92.0349 60.8682 92.0349 61.6108C92.0349 62.3533 91.5052 62.8211 90.676 62.8211H89.9928V64.0884H89.2305ZM89.9928 62.1825H90.6364C91.0398 62.1825 91.2898 61.9622 91.2898 61.6108C91.2898 61.2593 91.0398 61.039 90.6364 61.039H89.9928V62.1825Z" fill="black"/>
<path d="M81.5049 61.8505C81.5049 60.1922 80.1606 58.8478 78.5023 58.8478C76.8439 58.8478 75.4996 60.1922 75.4996 61.8505V69.4727H73.6519V61.8505C73.6519 59.1716 75.8235 57 78.5023 57C81.181 57 83.3526 59.1716 83.3526 61.8505V62.5434H81.5049V61.8505Z" fill="#CF8900"/>
<path d="M72 65.0922C72 64.3595 72.5939 63.7656 73.3265 63.7656H83.6735C84.4061 63.7656 85 64.3595 85 65.0922V70.1331C85 70.8657 84.4061 71.4597 83.6735 71.4597H73.3265C72.5939 71.4597 72 70.8657 72 70.1331V65.0922Z" fill="url(#paint0_linear_222_12869)"/>
<path d="M78.4674 65.8418C79.1052 65.8418 79.6223 66.3589 79.6223 66.9967C79.6223 67.4702 79.337 67.8769 78.9292 68.0551V69.4547C78.9292 69.528 78.8698 69.5874 78.7966 69.5874H78.138C78.0647 69.5874 78.0053 69.528 78.0053 69.4547V68.0551C77.5976 67.8768 77.3125 67.4702 77.3125 66.9967C77.3125 66.3589 77.8296 65.8418 78.4674 65.8418Z" fill="white"/>
<path d="M46.3368 69.6115C45.6586 69.6115 45.171 69.2873 45.1265 68.7254H45.8443C45.8715 68.9531 46.0398 69.0892 46.3245 69.0892C46.5943 69.0892 46.7601 68.9754 46.7601 68.8145C46.7601 68.6759 46.6339 68.5942 46.421 68.5521L45.9631 68.463C45.4557 68.364 45.1859 68.1066 45.1859 67.7007C45.1859 67.2056 45.6141 66.8789 46.2948 66.8789C46.9705 66.8789 47.416 67.218 47.4309 67.7625H46.7551C46.7502 67.5522 46.572 67.3962 46.3146 67.3962C46.0646 67.3962 45.9136 67.5175 45.9136 67.6734C45.9136 67.8071 46.0299 67.8937 46.2304 67.9358L46.7254 68.0323C47.2527 68.1363 47.4952 68.364 47.4952 68.7477C47.4952 69.2699 47.02 69.6115 46.3368 69.6115Z" fill="black"/>
<path d="M43.5969 69.6076C42.8049 69.6076 42.29 69.0383 42.29 68.2438C42.29 67.4468 42.8222 66.875 43.5722 66.875C44.342 66.875 44.8593 67.4319 44.8593 68.2289V68.4245H43.0004C43.0128 68.8106 43.2356 69.0606 43.6192 69.0606C43.9039 69.0606 44.0994 68.9294 44.1662 68.7264H44.8321C44.7355 69.2462 44.2306 69.6076 43.5969 69.6076ZM43.0054 67.9591H44.1712C44.1341 67.6324 43.9162 67.4294 43.587 67.4294C43.2603 67.4294 43.045 67.6324 43.0054 67.9591Z" fill="black"/>
<path d="M39.374 70.5818V66.9334H40.0943V67.2873H40.1017C40.2626 67.015 40.5374 66.8789 40.8765 66.8789C41.5448 66.8789 42.0027 67.4358 42.0027 68.2378C42.0027 69.0571 41.5547 69.6016 40.8715 69.6016C40.5275 69.6016 40.2626 69.4506 40.1116 69.1561H40.1042V70.5818H39.374ZM40.6834 69.0076C41.0373 69.0076 41.2675 68.7279 41.2675 68.2378C41.2675 67.7477 41.0373 67.468 40.6834 67.468C40.3146 67.468 40.0696 67.7724 40.0696 68.2378C40.0696 68.7056 40.3146 69.0076 40.6834 69.0076Z" fill="black"/>
<path d="M37.3721 69.5917C36.8499 69.5917 36.4736 69.3318 36.4736 68.8096C36.4736 68.2205 36.9489 68.0521 37.4934 68.0026C37.9711 67.9556 38.1394 67.9333 38.1394 67.765V67.7477C38.1394 67.5546 37.9785 67.421 37.7112 67.421C37.439 67.421 37.2607 67.5596 37.2434 67.7601H36.5578C36.59 67.2205 37.0157 66.8789 37.7335 66.8789C38.4488 66.8789 38.8597 67.2155 38.8597 67.7749V69.5472H38.1469V69.1784H38.137C37.9983 69.4333 37.7731 69.5917 37.3721 69.5917ZM37.5751 69.0843C37.9266 69.0843 38.1444 68.8739 38.1444 68.5917V68.3294C38.0602 68.3764 37.8548 68.411 37.6196 68.4482C37.3697 68.4853 37.1716 68.5818 37.1716 68.7898C37.1716 68.9754 37.33 69.0843 37.5751 69.0843Z" fill="black"/>
<path d="M34.9144 69.6076C34.1273 69.6076 33.6025 69.0532 33.6025 68.2438C33.6025 67.4344 34.1298 66.875 34.9144 66.875C35.6025 66.875 36.0951 67.3032 36.1421 67.9121H35.4367C35.3995 67.6448 35.2164 67.4641 34.9243 67.4641C34.5555 67.4641 34.3377 67.7661 34.3377 68.2438C34.3377 68.719 34.558 69.0185 34.9243 69.0185C35.2188 69.0185 35.3847 68.8403 35.4317 68.5656H36.1421C36.1099 69.1695 35.6099 69.6076 34.9144 69.6076Z" fill="black"/>
<path d="M32.164 69.6115C31.4858 69.6115 30.9982 69.2873 30.9536 68.7254H31.6714C31.6986 68.9531 31.867 69.0892 32.1516 69.0892C32.4214 69.0892 32.5872 68.9754 32.5872 68.8145C32.5872 68.6759 32.461 68.5942 32.2481 68.5521L31.7902 68.463C31.2828 68.364 31.013 68.1066 31.013 67.7007C31.013 67.2056 31.4412 66.8789 32.1219 66.8789C32.7976 66.8789 33.2432 67.218 33.258 67.7625H32.5823C32.5773 67.5522 32.3991 67.3962 32.1417 67.3962C31.8917 67.3962 31.7407 67.5175 31.7407 67.6734C31.7407 67.8071 31.8571 67.8937 32.0575 67.9358L32.5526 68.0323C33.0798 68.1363 33.3224 68.364 33.3224 68.7477C33.3224 69.2699 32.8471 69.6115 32.164 69.6115Z" fill="black"/>
<path d="M28.0103 69.5474V65.8594H30.6562V66.5128H28.7726V67.3668H30.5151V68.0029H28.7726V68.894H30.6562V69.5474H28.0103Z" fill="black"/>
<path d="M33.0849 63.758C32.1394 63.758 31.5874 63.2902 31.5874 62.4882H32.3225C32.3324 62.8942 32.6171 63.1318 33.0898 63.1318C33.5131 63.1318 33.7928 62.9461 33.7928 62.659C33.7928 62.4214 33.5997 62.2828 33.1319 62.1813L32.7433 62.0972C32.0131 61.9387 31.6592 61.5996 31.6592 61.0724C31.6592 60.4017 32.2211 59.9512 33.0601 59.9512C33.9091 59.9512 34.4363 60.3992 34.4586 61.1417H33.7458C33.7185 60.7927 33.4586 60.5774 33.0626 60.5774C32.6864 60.5774 32.4215 60.7655 32.4215 61.0353C32.4215 61.263 32.6047 61.3893 33.0577 61.4883L33.4116 61.565C34.1987 61.7308 34.5477 62.0551 34.5477 62.6095C34.5477 63.3199 33.9933 63.758 33.0849 63.758Z" fill="black"/>
<path d="M28.0103 63.6997V60.0117H28.8122L29.9978 61.8978C30.0845 62.0364 30.2429 62.3161 30.3889 62.581C30.379 62.2963 30.3765 61.9919 30.3765 61.8359V60.0117H31.1364V63.6997H30.332L29.2577 61.9919C29.1513 61.8236 28.9632 61.5043 28.7553 61.1305C28.7701 61.5166 28.7726 61.831 28.7726 61.9894V63.6997H28.0103Z" fill="black"/>
<path d="M13.2643 66.7358L10.4853 67.4806L10.2368 66.5543L13.0159 65.8095L13.2643 66.7358Z" fill="#FFDB93"/>
<path d="M14.554 70.8715L13.6277 70.6231L14.3722 67.8443L15.2989 68.0924L14.554 70.8715Z" fill="#FFDB93"/>
<path d="M14.3251 58.9381C15.6745 60.2876 15.6746 62.4757 14.3251 63.8251C12.9757 65.1744 10.7875 65.1744 9.43809 63.8251L7.5 61.8871L8.84585 60.5412L10.7839 62.4793C11.3901 63.0853 12.3731 63.0853 12.9793 62.4793C13.5854 61.8731 13.5854 60.8901 12.9793 60.2839L11.0412 58.3459L12.3871 57L14.3251 58.9381Z" fill="#FFDB93"/>
<path d="M22.8844 70.1891L20.9157 68.2204C20.3095 67.6142 19.3266 67.6142 18.7204 68.2204C18.1144 68.8266 18.1146 69.8093 18.7207 70.4154L20.6894 72.3841L19.3435 73.73L17.3748 71.7613C16.0254 70.4119 16.0253 68.224 17.3745 66.8745C18.724 65.525 20.9121 65.5251 22.2616 66.8745L24.2303 68.8432L22.8844 70.1891Z" fill="#FFDB93"/>
<path d="M17.0895 62.9118L16.1631 62.6639L16.9076 59.8846L17.834 60.133L17.0895 62.9118Z" fill="#FFDB93"/>
<path d="M21.2249 64.2018L18.4458 64.9466L18.1973 64.0203L20.9767 63.2757L21.2249 64.2018Z" fill="#FFDB93"/>
<path d="M13.2644 66.736L10.4853 67.4808L10.2368 66.5545L13.0159 65.8096L13.2644 66.736Z" fill="#E79800"/>
<path d="M14.554 70.8717L13.6277 70.6232L14.3722 67.8445L15.2989 68.0926L14.554 70.8717Z" fill="#E79800"/>
<path d="M17.0895 62.912L16.1631 62.6641L16.9077 59.8848L17.834 60.1332L17.0895 62.912Z" fill="#E79800"/>
<path d="M21.2249 64.202L18.4458 64.9468L18.1974 64.0205L20.9767 63.2759L21.2249 64.202Z" fill="#E79800"/>
<path d="M10.9343 60.4328C11.5348 59.8324 12.5082 59.8324 13.1086 60.4328L16.4295 63.7537L15.4117 63.8585L14.2552 65.928L10.9343 62.6071C10.3339 62.0067 10.3339 61.0333 10.9343 60.4328V60.4328Z" fill="url(#paint1_linear_222_12869)"/>
<path d="M20.7678 70.2668C21.3682 69.6664 21.3682 68.693 20.7678 68.0925L17.447 64.7717L16.1726 65.0004L15.2727 66.946L18.5935 70.2668C19.194 70.8672 20.1674 70.8672 20.7678 70.2668V70.2668Z" fill="url(#paint2_linear_222_12869)"/>
<defs>
<linearGradient id="paint0_linear_222_12869" x1="78.5" y1="63.7656" x2="78.5" y2="71.4597" gradientUnits="userSpaceOnUse">
<stop stop-color="#FFC960"/>
<stop offset="1" stop-color="#E79800"/>
</linearGradient>
<linearGradient id="paint1_linear_222_12869" x1="13.1569" y1="60.4811" x2="11.4789" y2="63.3944" gradientUnits="userSpaceOnUse">
<stop stop-color="#FFC85E"/>
<stop offset="1" stop-color="#DA9206"/>
</linearGradient>
<linearGradient id="paint2_linear_222_12869" x1="20.5849" y1="67.9096" x2="17.698" y2="69.6771" gradientUnits="userSpaceOnUse">
<stop stop-color="#FFC85E"/>
<stop offset="1" stop-color="#DA9206"/>
</linearGradient>
</defs>
</svg>
