<svg width="128" height="128" viewBox="0 0 128 128" fill="none" xmlns="http://www.w3.org/2000/svg">
<path d="M2 39.5615C2 37.0423 4.04227 35 6.56153 35H121.438C123.958 35 126 37.0423 126 39.5615V88.826C126 91.3453 123.958 93.3876 121.438 93.3876H6.56153C4.04227 93.3876 2 91.3453 2 88.826V39.5615Z" fill="white"/>
<path d="M121.438 91.5629V93.3876H6.56153V91.5629H121.438ZM124.175 88.826V39.5615C124.175 38.05 122.95 36.8246 121.438 36.8246H6.56153C5.04997 36.8246 3.82461 38.05 3.82461 39.5615V88.826C3.82461 90.3376 5.04997 91.5629 6.56153 91.5629V93.3876C4.12086 93.3876 2.12821 91.4707 2.00624 89.0603L2 88.826V39.5615C2 37.0423 4.04227 35 6.56153 35H121.438L121.673 35.0062C124.083 35.1282 126 37.1209 126 39.5615V88.826C126 91.2667 124.083 93.2594 121.673 93.3813L121.438 93.3876V91.5629C122.95 91.5629 124.175 90.3376 124.175 88.826Z" fill="#BFD4E8"/>
<path d="M105.731 76.2038C104.144 76.2038 103.004 75.4452 102.899 74.1306H104.579C104.643 74.6634 105.036 74.9819 105.702 74.9819C106.333 74.9819 106.721 74.7155 106.721 74.3391C106.721 74.0148 106.426 73.8237 105.928 73.7253L104.857 73.5168C103.67 73.2851 103.038 72.6829 103.038 71.7332C103.038 70.575 104.04 69.8105 105.633 69.8105C107.214 69.8105 108.256 70.6039 108.291 71.8779H106.71C106.698 71.3857 106.281 71.0209 105.679 71.0209C105.094 71.0209 104.741 71.3046 104.741 71.6695C104.741 71.9822 105.013 72.1849 105.482 72.2833L106.64 72.5092C107.874 72.7524 108.441 73.2851 108.441 74.1828C108.441 75.4047 107.33 76.2038 105.731 76.2038Z" fill="black"/>
<path d="M99.3213 76.196C97.4682 76.196 96.2637 74.8641 96.2637 73.0052C96.2637 71.1405 97.5087 69.8027 99.2634 69.8027C101.064 69.8027 102.275 71.1057 102.275 72.9704V73.4279H97.9257C97.9546 74.3313 98.4758 74.9162 99.3734 74.9162C100.039 74.9162 100.497 74.6093 100.653 74.1344H102.211C101.985 75.3505 100.804 76.196 99.3213 76.196ZM97.9373 72.3392H100.665C100.578 71.5748 100.068 71.0999 99.2982 71.0999C98.5337 71.0999 98.0299 71.5748 97.9373 72.3392Z" fill="black"/>
<path d="M89.4409 78.4739V69.9379H91.1261V70.7661H91.1435C91.5199 70.1291 92.1627 69.8105 92.9561 69.8105C94.5196 69.8105 95.591 71.1135 95.591 72.9898C95.591 74.9066 94.5428 76.1807 92.9445 76.1807C92.1395 76.1807 91.5199 75.8274 91.1666 75.1383H91.1493V78.4739H89.4409ZM92.5044 74.7908C93.3325 74.7908 93.871 74.1364 93.871 72.9898C93.871 71.8432 93.3325 71.1888 92.5044 71.1888C91.6415 71.1888 91.0682 71.9011 91.0682 72.9898C91.0682 74.0843 91.6415 74.7908 92.5044 74.7908Z" fill="black"/>
<path d="M84.7574 76.1575C83.5355 76.1575 82.6553 75.5494 82.6553 74.3275C82.6553 72.9493 83.7671 72.5555 85.0412 72.4397C86.1588 72.3296 86.5526 72.2775 86.5526 71.8837V71.8432C86.5526 71.3915 86.1762 71.0788 85.5508 71.0788C84.9138 71.0788 84.4968 71.4031 84.4563 71.8721H82.8522C82.9275 70.6097 83.9235 69.8105 85.6029 69.8105C87.2765 69.8105 88.2378 70.5981 88.2378 71.9069V76.0532H86.57V75.1904H86.5468C86.2225 75.7869 85.6955 76.1575 84.7574 76.1575ZM85.2323 74.9703C86.0546 74.9703 86.5642 74.4781 86.5642 73.8179V73.2041C86.3673 73.3141 85.8867 73.3952 85.3365 73.482C84.7516 73.5689 84.2883 73.7948 84.2883 74.2812C84.2883 74.7155 84.659 74.9703 85.2323 74.9703Z" fill="black"/>
<path d="M79.0072 76.196C77.1657 76.196 75.938 74.8988 75.938 73.0052C75.938 71.1115 77.1715 69.8027 79.0072 69.8027C80.6171 69.8027 81.7695 70.8046 81.8796 72.2292H80.2291C80.1423 71.6037 79.7137 71.181 79.0304 71.181C78.1675 71.181 77.6579 71.8875 77.6579 73.0052C77.6579 74.117 78.1733 74.8177 79.0304 74.8177C79.7195 74.8177 80.1075 74.4008 80.2175 73.758H81.8796C81.8043 75.171 80.6345 76.196 79.0072 76.196Z" fill="black"/>
<path d="M72.5725 76.2038C70.9858 76.2038 69.845 75.4452 69.7407 74.1306H71.4201C71.4838 74.6634 71.8776 74.9819 72.5436 74.9819C73.1748 74.9819 73.5628 74.7155 73.5628 74.3391C73.5628 74.0148 73.2674 73.8237 72.7694 73.7253L71.6981 73.5168C70.5109 73.2851 69.8797 72.6829 69.8797 71.7332C69.8797 70.575 70.8816 69.8105 72.4741 69.8105C74.055 69.8105 75.0974 70.6039 75.1321 71.8779H73.5512C73.5396 71.3857 73.1227 71.0209 72.5204 71.0209C71.9355 71.0209 71.5823 71.3046 71.5823 71.6695C71.5823 71.9822 71.8544 72.1849 72.3235 72.2833L73.4817 72.5092C74.7152 72.7524 75.2827 73.2851 75.2827 74.1828C75.2827 75.4047 74.1708 76.2038 72.5725 76.2038Z" fill="black"/>
<path d="M62.854 76.0544V67.4258H69.0446V68.9546H64.6376V70.9525H68.7145V72.4408H64.6376V74.5256H69.0446V76.0544H62.854Z" fill="black"/>
<path d="M74.7267 62.5101C72.5145 62.5101 71.2231 61.4156 71.2231 59.5393H72.9431C72.9662 60.489 73.6322 61.045 74.7383 61.045C75.7285 61.045 76.3829 60.6106 76.3829 59.9389C76.3829 59.3829 75.9312 59.0586 74.8367 58.8212L73.9275 58.6243C72.2192 58.2537 71.3911 57.4603 71.3911 56.2268C71.3911 54.6575 72.7056 53.6035 74.6688 53.6035C76.6551 53.6035 77.8886 54.6517 77.9407 56.389H76.2729C76.2092 55.5725 75.6011 55.0686 74.6746 55.0686C73.7943 55.0686 73.1747 55.5088 73.1747 56.14C73.1747 56.6727 73.6032 56.9681 74.663 57.1997L75.4911 57.3792C77.3327 57.7672 78.1492 58.5259 78.1492 59.8231C78.1492 61.4851 76.852 62.5101 74.7267 62.5101Z" fill="black"/>
<path d="M62.854 62.3727V53.7441H64.7303L67.5042 58.1569C67.7069 58.4812 68.0775 59.1356 68.4192 59.7552C68.396 59.0892 68.3902 58.3769 68.3902 58.0121V53.7441H70.168V62.3727H68.286L65.7727 58.3769C65.5237 57.9832 65.0835 57.2361 64.5971 56.3617C64.6318 57.2651 64.6376 58.0005 64.6376 58.3712V62.3727H62.854Z" fill="black"/>
<path d="M28.6453 69.2275L22.4728 70.8818L21.9209 68.8243L28.0935 67.17L28.6453 69.2275Z" fill="#97BBFF"/>
<path d="M31.5098 78.4132L29.4523 77.8614L31.106 71.6895L33.1642 72.2407L31.5098 78.4132Z" fill="#97BBFF"/>
<path d="M31.0014 51.9082C33.9984 54.9055 33.9987 59.7655 31.0014 62.7627C28.0042 65.7595 23.1441 65.7595 20.1469 62.7627L15.8423 58.458L18.8315 55.4688L23.1362 59.7734C24.4825 61.1194 26.6658 61.1193 28.0122 59.7734C29.3585 58.4271 29.3583 56.2438 28.0122 54.8974L23.7076 50.5928L26.6968 47.6035L31.0014 51.9082Z" fill="#97BBFF"/>
<path d="M50.0123 76.8975L45.6396 72.5248C44.2932 71.1785 42.11 71.1784 40.7636 72.5248C39.4177 73.8712 39.4181 76.054 40.7642 77.4002L45.1369 81.7729L42.1476 84.7621L37.775 80.3895C34.7779 77.3923 34.7776 72.5329 37.7743 69.5356C40.7716 66.5383 45.6316 66.5384 48.6289 69.5356L53.0015 73.9082L50.0123 76.8975Z" fill="#97BBFF"/>
<path d="M37.1412 60.7341L35.0837 60.1835L36.7374 54.0104L38.7949 54.5623L37.1412 60.7341Z" fill="#97BBFF"/>
<path d="M46.3263 63.5993L40.1538 65.2536L39.6019 63.1961L45.7751 61.5424L46.3263 63.5993Z" fill="#97BBFF"/>
<path d="M28.6467 69.2269L22.4742 70.8812L21.9224 68.8237L28.0949 67.1694L28.6467 69.2269Z" fill="#3D7FFF"/>
<path d="M31.5113 78.4126L29.4537 77.8607L31.1074 71.6888L33.1656 72.2401L31.5113 78.4126Z" fill="#3D7FFF"/>
<path d="M37.1426 60.7335L35.0851 60.1829L36.7388 54.0098L38.7963 54.5616L37.1426 60.7335Z" fill="#3D7FFF"/>
<path d="M46.3277 63.5987L40.1552 65.253L39.6033 63.1955L45.7765 61.5418L46.3277 63.5987Z" fill="#3D7FFF"/>
<path d="M23.4692 55.2369C24.8027 53.9033 26.9649 53.9033 28.2984 55.2369L35.6742 62.6127L33.4137 62.8454L30.845 67.442L23.4692 60.0662C22.1356 58.7326 22.1356 56.5705 23.4692 55.2369V55.2369Z" fill="url(#paint0_linear_222_12526)"/>
<path d="M45.3119 77.0689C46.6455 75.7354 46.6455 73.5732 45.3119 72.2397L37.9361 64.8638L35.1056 65.3718L33.1068 69.6931L40.4827 77.0689C41.8162 78.4025 43.9784 78.4025 45.3119 77.0689V77.0689Z" fill="url(#paint1_linear_222_12526)"/>
<defs>
<linearGradient id="paint0_linear_222_12526" x1="30.2599" y1="57.1984" x2="25.4307" y2="62.0277" gradientUnits="userSpaceOnUse">
<stop stop-color="#92BBFF"/>
<stop offset="1" stop-color="#226AFE"/>
</linearGradient>
<linearGradient id="paint1_linear_222_12526" x1="42.8313" y1="69.7591" x2="38.0021" y2="74.5883" gradientUnits="userSpaceOnUse">
<stop stop-color="#92BBFF"/>
<stop offset="1" stop-color="#226AFE"/>
</linearGradient>
</defs>
</svg>
