<svg width="128" height="128" viewBox="0 0 128 128" fill="none" xmlns="http://www.w3.org/2000/svg">
<path d="M2 39.5615C2 37.0423 4.04227 35 6.56153 35H121.438C123.958 35 126 37.0423 126 39.5615V88.826C126 91.3453 123.958 93.3876 121.438 93.3876H6.56153C4.04227 93.3876 2 91.3453 2 88.826V39.5615Z" fill="white"/>
<path d="M121.438 91.5629V93.3876H6.56153V91.5629H121.438ZM124.175 88.826V39.5615C124.175 38.05 122.95 36.8246 121.438 36.8246H6.56153C5.04997 36.8246 3.82461 38.05 3.82461 39.5615V88.826C3.82461 90.3376 5.04997 91.5629 6.56153 91.5629V93.3876C4.12086 93.3876 2.12821 91.4707 2.00624 89.0603L2 88.826V39.5615C2 37.0423 4.04227 35 6.56153 35H121.438L121.673 35.0062C124.083 35.1282 126 37.1209 126 39.5615V88.826C126 91.2667 124.083 93.2594 121.673 93.3813L121.438 93.3876V91.5629C122.95 91.5629 124.175 90.3376 124.175 88.826Z" fill="#BFD4E8"/>
<path d="M105.731 76.2038C104.144 76.2038 103.004 75.4452 102.899 74.1306H104.579C104.643 74.6634 105.036 74.9819 105.702 74.9819C106.333 74.9819 106.721 74.7155 106.721 74.3391C106.721 74.0148 106.426 73.8237 105.928 73.7253L104.857 73.5168C103.67 73.2851 103.038 72.6829 103.038 71.7332C103.038 70.575 104.04 69.8105 105.633 69.8105C107.214 69.8105 108.256 70.6039 108.291 71.8779H106.71C106.698 71.3857 106.281 71.0209 105.679 71.0209C105.094 71.0209 104.741 71.3046 104.741 71.6695C104.741 71.9822 105.013 72.1849 105.482 72.2833L106.64 72.5092C107.874 72.7524 108.441 73.2851 108.441 74.1828C108.441 75.4047 107.33 76.2038 105.731 76.2038Z" fill="black"/>
<path d="M99.3213 76.196C97.4682 76.196 96.2637 74.8641 96.2637 73.0052C96.2637 71.1405 97.5087 69.8027 99.2634 69.8027C101.064 69.8027 102.275 71.1057 102.275 72.9704V73.4279H97.9257C97.9546 74.3313 98.4758 74.9162 99.3734 74.9162C100.039 74.9162 100.497 74.6093 100.653 74.1344H102.211C101.985 75.3505 100.804 76.196 99.3213 76.196ZM97.9373 72.3392H100.665C100.578 71.5748 100.068 71.0999 99.2982 71.0999C98.5337 71.0999 98.0299 71.5748 97.9373 72.3392Z" fill="black"/>
<path d="M89.4409 78.4739V69.9379H91.1261V70.7661H91.1435C91.5199 70.1291 92.1627 69.8105 92.9561 69.8105C94.5196 69.8105 95.591 71.1135 95.591 72.9898C95.591 74.9066 94.5428 76.1807 92.9445 76.1807C92.1395 76.1807 91.5199 75.8274 91.1666 75.1383H91.1493V78.4739H89.4409ZM92.5044 74.7908C93.3325 74.7908 93.871 74.1364 93.871 72.9898C93.871 71.8432 93.3325 71.1888 92.5044 71.1888C91.6415 71.1888 91.0682 71.9011 91.0682 72.9898C91.0682 74.0843 91.6415 74.7908 92.5044 74.7908Z" fill="black"/>
<path d="M84.7574 76.1575C83.5355 76.1575 82.6553 75.5494 82.6553 74.3275C82.6553 72.9493 83.7671 72.5555 85.0412 72.4397C86.1588 72.3296 86.5526 72.2775 86.5526 71.8837V71.8432C86.5526 71.3915 86.1762 71.0788 85.5508 71.0788C84.9138 71.0788 84.4968 71.4031 84.4563 71.8721H82.8522C82.9275 70.6097 83.9235 69.8105 85.6029 69.8105C87.2765 69.8105 88.2378 70.5981 88.2378 71.9069V76.0532H86.57V75.1904H86.5468C86.2225 75.7869 85.6955 76.1575 84.7574 76.1575ZM85.2323 74.9703C86.0546 74.9703 86.5642 74.4781 86.5642 73.8179V73.2041C86.3673 73.3141 85.8867 73.3952 85.3365 73.482C84.7516 73.5689 84.2883 73.7948 84.2883 74.2812C84.2883 74.7155 84.659 74.9703 85.2323 74.9703Z" fill="black"/>
<path d="M79.0072 76.196C77.1657 76.196 75.938 74.8988 75.938 73.0052C75.938 71.1115 77.1715 69.8027 79.0072 69.8027C80.6171 69.8027 81.7695 70.8046 81.8796 72.2292H80.2291C80.1423 71.6037 79.7137 71.181 79.0304 71.181C78.1675 71.181 77.6579 71.8875 77.6579 73.0052C77.6579 74.117 78.1733 74.8177 79.0304 74.8177C79.7195 74.8177 80.1075 74.4008 80.2175 73.758H81.8796C81.8043 75.171 80.6345 76.196 79.0072 76.196Z" fill="black"/>
<path d="M72.5725 76.2038C70.9858 76.2038 69.845 75.4452 69.7407 74.1306H71.4201C71.4838 74.6634 71.8776 74.9819 72.5436 74.9819C73.1748 74.9819 73.5628 74.7155 73.5628 74.3391C73.5628 74.0148 73.2674 73.8237 72.7694 73.7253L71.6981 73.5168C70.5109 73.2851 69.8797 72.6829 69.8797 71.7332C69.8797 70.575 70.8816 69.8105 72.4741 69.8105C74.055 69.8105 75.0974 70.6039 75.1321 71.8779H73.5512C73.5396 71.3857 73.1227 71.0209 72.5204 71.0209C71.9355 71.0209 71.5823 71.3046 71.5823 71.6695C71.5823 71.9822 71.8544 72.1849 72.3235 72.2833L73.4817 72.5092C74.7152 72.7524 75.2827 73.2851 75.2827 74.1828C75.2827 75.4047 74.1708 76.2038 72.5725 76.2038Z" fill="black"/>
<path d="M62.854 76.0544V67.4258H69.0446V68.9546H64.6376V70.9525H68.7145V72.4408H64.6376V74.5256H69.0446V76.0544H62.854Z" fill="black"/>
<path d="M74.7267 62.5101C72.5145 62.5101 71.2231 61.4156 71.2231 59.5393H72.9431C72.9662 60.489 73.6322 61.045 74.7383 61.045C75.7285 61.045 76.3829 60.6106 76.3829 59.9389C76.3829 59.3829 75.9312 59.0586 74.8367 58.8212L73.9275 58.6243C72.2192 58.2537 71.3911 57.4603 71.3911 56.2268C71.3911 54.6575 72.7056 53.6035 74.6688 53.6035C76.6551 53.6035 77.8886 54.6517 77.9407 56.389H76.2729C76.2092 55.5725 75.6011 55.0686 74.6746 55.0686C73.7943 55.0686 73.1747 55.5088 73.1747 56.14C73.1747 56.6727 73.6032 56.9681 74.663 57.1997L75.4911 57.3792C77.3327 57.7672 78.1492 58.5259 78.1492 59.8231C78.1492 61.4851 76.852 62.5101 74.7267 62.5101Z" fill="black"/>
<path d="M62.854 62.3727V53.7441H64.7303L67.5042 58.1569C67.7069 58.4812 68.0775 59.1356 68.4192 59.7552C68.396 59.0892 68.3902 58.3769 68.3902 58.0121V53.7441H70.168V62.3727H68.286L65.7727 58.3769C65.5237 57.9832 65.0835 57.2361 64.5971 56.3617C64.6318 57.2651 64.6376 58.0005 64.6376 58.3712V62.3727H62.854Z" fill="black"/>
<path d="M28.9997 68.9561L22.7324 70.6359L22.172 68.5468L28.4394 66.867L28.9997 68.9561Z" fill="#FFDB93"/>
<path d="M31.9082 78.2829L29.8191 77.7226L31.4982 71.4559L33.5879 72.0156L31.9082 78.2829Z" fill="#FFDB93"/>
<path d="M31.392 51.3708C34.435 54.4141 34.4353 59.3487 31.392 62.392C28.3487 65.4348 23.414 65.4349 20.3708 62.392L16 58.0212L19.0352 54.9861L23.4059 59.3568C24.7729 60.7235 26.9898 60.7234 28.3568 59.3568C29.7238 57.9898 29.7236 55.773 28.3568 54.4059L23.9861 50.0352L27.0212 47L31.392 51.3708Z" fill="#FFDB93"/>
<path d="M50.6949 76.7439L46.255 72.3041C44.8879 70.9371 42.6711 70.937 41.3041 72.3041C39.9375 73.6712 39.9379 75.8875 41.3047 77.2544L45.7446 81.6942L42.7094 84.7294L38.2696 80.2895C35.2265 77.2464 35.2261 72.3123 38.2689 69.2689C41.3122 66.2256 46.2468 66.2257 49.2902 69.2689L53.73 73.7088L50.6949 76.7439Z" fill="#FFDB93"/>
<path d="M37.6261 60.3323L35.537 59.7733L37.2161 53.5053L39.3052 54.0656L37.6261 60.3323Z" fill="#FFDB93"/>
<path d="M46.9522 63.2415L40.6849 64.9212L40.1246 62.8321L46.3925 61.153L46.9522 63.2415Z" fill="#FFDB93"/>
<path d="M28.9995 68.9626L22.7322 70.6423L22.1719 68.5532L28.4392 66.8735L28.9995 68.9626Z" fill="#E79800"/>
<path d="M31.9081 78.2894L29.8189 77.729L31.498 71.4623L33.5878 72.022L31.9081 78.2894Z" fill="#E79800"/>
<path d="M37.6259 60.3388L35.5368 59.7797L37.2159 53.5117L39.305 54.0721L37.6259 60.3388Z" fill="#E79800"/>
<path d="M46.9521 63.2479L40.6848 64.9276L40.1244 62.8385L46.3924 61.1594L46.9521 63.2479Z" fill="#E79800"/>
<path d="M23.7455 54.7388C25.0996 53.3848 27.2949 53.3848 28.649 54.7388L36.1381 62.2279L33.8429 62.4642L31.2347 67.1314L23.7455 59.6423C22.3915 58.2882 22.3915 56.0929 23.7455 54.7388V54.7388Z" fill="url(#paint0_linear_222_12961)"/>
<path d="M45.9228 76.9127C47.2768 75.5586 47.2768 73.3633 45.9228 72.0092L38.4337 64.5201L35.5597 65.0359L33.5302 69.4235L41.0193 76.9127C42.3734 78.2667 44.5687 78.2667 45.9228 76.9127V76.9127Z" fill="url(#paint1_linear_222_12961)"/>
<defs>
<linearGradient id="paint0_linear_222_12961" x1="28.7578" y1="54.8476" x2="24.9736" y2="61.4176" gradientUnits="userSpaceOnUse">
<stop stop-color="#FFC85E"/>
<stop offset="1" stop-color="#DA9206"/>
</linearGradient>
<linearGradient id="paint1_linear_222_12961" x1="45.5103" y1="71.5967" x2="38.9998" y2="75.5826" gradientUnits="userSpaceOnUse">
<stop stop-color="#FFC85E"/>
<stop offset="1" stop-color="#DA9206"/>
</linearGradient>
</defs>
</svg>
