<svg width="128" height="128" viewBox="0 0 128 128" fill="none" xmlns="http://www.w3.org/2000/svg">
<path d="M2 39.3433C2 37.4968 3.49684 36 5.34328 36H37.9403C39.7867 36 41.2836 37.4968 41.2836 39.3433V59.403C41.2836 61.2494 39.7867 62.7463 37.9403 62.7463H5.34328C3.49684 62.7463 2 61.2494 2 59.403V39.3433Z" fill="#C1E5FF"/>
<path d="M37.9403 61.0746V62.7463H5.34328V61.0746H37.9403ZM39.6119 59.403V39.3433C39.6119 38.4201 38.8635 37.6716 37.9403 37.6716H5.34328C4.42006 37.6716 3.67164 38.4201 3.67164 39.3433V59.403C3.67164 60.3262 4.42006 61.0746 5.34328 61.0746V62.7463L5.17106 62.7422C3.40465 62.6526 2 61.1917 2 59.403V39.3433C2 37.5546 3.40465 36.0937 5.17106 36.0041L5.34328 36H37.9403C39.7867 36 41.2836 37.4968 41.2836 39.3433V59.403C41.2836 61.2494 39.7867 62.7463 37.9403 62.7463V61.0746C38.8635 61.0746 39.6119 60.3262 39.6119 59.403Z" fill="#3C89C1"/>
<path d="M28.3217 54.5248C27.721 54.5248 27.1964 54.3746 26.748 54.0742C26.2996 53.7695 25.9514 53.3494 25.7033 52.814C25.4551 52.2742 25.3311 51.6495 25.3311 50.9399C25.3311 50.2303 25.4551 49.6078 25.7033 49.0724C25.9557 48.5326 26.3062 48.1125 26.7546 47.8121C27.2029 47.5074 27.7232 47.355 28.3152 47.355C28.7636 47.355 29.1728 47.4486 29.5428 47.6358C29.9128 47.823 30.2088 48.1081 30.4309 48.4912H30.4439V44.6582H31.8217V54.3877H30.47V53.3364H30.457C30.2263 53.7369 29.9237 54.0351 29.5493 54.231C29.1793 54.4269 28.7701 54.5248 28.3217 54.5248ZM28.6025 53.3364C29.1902 53.3364 29.6582 53.1187 30.0064 52.6834C30.359 52.2437 30.5353 51.6626 30.5353 50.9399C30.5353 50.2129 30.359 49.6318 30.0064 49.1964C29.6582 48.7568 29.1902 48.5369 28.6025 48.5369C28.0453 48.5369 27.5926 48.7437 27.2443 49.1573C26.9004 49.5665 26.7284 50.1607 26.7284 50.9399C26.7284 51.7191 26.9004 52.3134 27.2443 52.7226C27.5926 53.1318 28.0453 53.3364 28.6025 53.3364Z" fill="black"/>
<path d="M21.1518 54.5449C20.4944 54.5449 19.9176 54.3925 19.4213 54.0878C18.9251 53.7831 18.5376 53.3608 18.259 52.821C17.9848 52.2812 17.8477 51.6587 17.8477 50.9535C17.8477 50.2395 17.9848 49.6127 18.259 49.0729C18.5376 48.5287 18.9251 48.1043 19.4213 47.7996C19.9176 47.4905 20.4944 47.3359 21.1518 47.3359C21.8091 47.3359 22.3837 47.4905 22.8756 47.7996C23.3719 48.1043 23.7572 48.5287 24.0314 49.0729C24.31 49.6127 24.4493 50.2395 24.4493 50.9535C24.4493 51.6587 24.31 52.2812 24.0314 52.821C23.7572 53.3608 23.3719 53.7831 22.8756 54.0878C22.3837 54.3925 21.8091 54.5449 21.1518 54.5449ZM21.1518 53.3565C21.7438 53.3565 22.2096 53.1388 22.5491 52.7035C22.8887 52.2682 23.0585 51.6848 23.0585 50.9535C23.0585 50.2134 22.8865 49.6236 22.5426 49.1839C22.2031 48.7442 21.7394 48.5244 21.1518 48.5244C20.5641 48.5244 20.0983 48.7442 19.7544 49.1839C19.4148 49.6192 19.245 50.2091 19.245 50.9535C19.245 51.6892 19.4148 52.2747 19.7544 52.71C20.0939 53.141 20.5597 53.3565 21.1518 53.3565Z" fill="black"/>
<path d="M10.4102 54.3877V44.6582H14.0146C15.0551 44.6582 15.88 44.9303 16.4894 45.4744C17.0989 46.0186 17.4036 46.7565 17.4036 47.6881C17.4036 48.3106 17.2621 48.8504 16.9792 49.3075C16.6962 49.7602 16.2979 50.1106 15.7842 50.3588C15.2705 50.6025 14.6654 50.7244 13.9689 50.7244H11.8598V54.3877H10.4102ZM11.8598 49.4707H13.9428C14.5697 49.4707 15.0638 49.3118 15.4251 48.994C15.7907 48.6719 15.9736 48.2366 15.9736 47.6881C15.9736 47.1395 15.7907 46.7086 15.4251 46.3951C15.0638 46.0774 14.5697 45.9185 13.9428 45.9185H11.8598V49.4707Z" fill="black"/>
<path d="M2 68.5972C2 66.7507 3.49684 65.2539 5.34328 65.2539H37.9403C39.7867 65.2539 41.2836 66.7507 41.2836 68.5972V88.6569C41.2836 90.5033 39.7867 92.0002 37.9403 92.0002H5.34328C3.49684 92.0002 2 90.5033 2 88.6569V68.5972Z" fill="#C1E5FF"/>
<path d="M37.9403 90.3285V92.0002H5.34328V90.3285H37.9403ZM39.6119 88.6569V68.5972C39.6119 67.674 38.8635 66.9255 37.9403 66.9255H5.34328C4.42006 66.9255 3.67164 67.674 3.67164 68.5972V88.6569C3.67164 89.5801 4.42006 90.3285 5.34328 90.3285V92.0002L5.17106 91.9961C3.40465 91.9065 2 90.4456 2 88.6569V68.5972C2 66.8085 3.40465 65.3476 5.17106 65.258L5.34328 65.2539H37.9403C39.7867 65.2539 41.2836 66.7507 41.2836 68.5972V88.6569C41.2836 90.5033 39.7867 92.0002 37.9403 92.0002V90.3285C38.8635 90.3285 39.6119 89.5801 39.6119 88.6569Z" fill="#3C89C1"/>
<path d="M28.3217 83.7787C27.721 83.7787 27.1964 83.6285 26.748 83.3282C26.2996 83.0234 25.9514 82.6033 25.7033 82.0679C25.4551 81.5281 25.3311 80.9034 25.3311 80.1938C25.3311 79.4842 25.4551 78.8617 25.7033 78.3263C25.9557 77.7865 26.3062 77.3664 26.7546 77.066C27.2029 76.7613 27.7232 76.6089 28.3152 76.6089C28.7636 76.6089 29.1728 76.7025 29.5428 76.8897C29.9128 77.0769 30.2088 77.362 30.4309 77.7451H30.4439V73.9121H31.8217V83.6416H30.47V82.5903H30.457C30.2263 82.9908 29.9237 83.289 29.5493 83.4849C29.1793 83.6808 28.7701 83.7787 28.3217 83.7787ZM28.6025 82.5903C29.1902 82.5903 29.6582 82.3726 30.0064 81.9373C30.359 81.4976 30.5353 80.9165 30.5353 80.1938C30.5353 79.4668 30.359 78.8857 30.0064 78.4504C29.6582 78.0107 29.1902 77.7908 28.6025 77.7908C28.0453 77.7908 27.5926 77.9976 27.2443 78.4112C26.9004 78.8204 26.7284 79.4146 26.7284 80.1938C26.7284 80.9731 26.9004 81.5673 27.2443 81.9765C27.5926 82.3857 28.0453 82.5903 28.6025 82.5903Z" fill="black"/>
<path d="M21.1518 83.7988C20.4944 83.7988 19.9176 83.6464 19.4213 83.3417C18.9251 83.037 18.5376 82.6147 18.259 82.0749C17.9848 81.5351 17.8477 80.9126 17.8477 80.2074C17.8477 79.4935 17.9848 78.8666 18.259 78.3268C18.5376 77.7826 18.9251 77.3582 19.4213 77.0535C19.9176 76.7444 20.4944 76.5898 21.1518 76.5898C21.8091 76.5898 22.3837 76.7444 22.8756 77.0535C23.3719 77.3582 23.7572 77.7826 24.0314 78.3268C24.31 78.8666 24.4493 79.4935 24.4493 80.2074C24.4493 80.9126 24.31 81.5351 24.0314 82.0749C23.7572 82.6147 23.3719 83.037 22.8756 83.3417C22.3837 83.6464 21.8091 83.7988 21.1518 83.7988ZM21.1518 82.6104C21.7438 82.6104 22.2096 82.3927 22.5491 81.9574C22.8887 81.5221 23.0585 80.9387 23.0585 80.2074C23.0585 79.4673 22.8865 78.8775 22.5426 78.4378C22.2031 77.9981 21.7394 77.7783 21.1518 77.7783C20.5641 77.7783 20.0983 77.9981 19.7544 78.4378C19.4148 78.8731 19.245 79.463 19.245 80.2074C19.245 80.9431 19.4148 81.5286 19.7544 81.9639C20.0939 82.3949 20.5597 82.6104 21.1518 82.6104Z" fill="black"/>
<path d="M10.4102 83.6416V73.9121H14.0146C15.0551 73.9121 15.88 74.1842 16.4894 74.7283C17.0989 75.2725 17.4036 76.0104 17.4036 76.942C17.4036 77.5645 17.2621 78.1043 16.9792 78.5614C16.6962 79.0141 16.2979 79.3645 15.7842 79.6127C15.2705 79.8565 14.6654 79.9783 13.9689 79.9783H11.8598V83.6416H10.4102ZM11.8598 78.7246H13.9428C14.5697 78.7246 15.0638 78.5657 15.4251 78.2479C15.7907 77.9258 15.9736 77.4905 15.9736 76.942C15.9736 76.3935 15.7907 75.9625 15.4251 75.649C15.0638 75.3313 14.5697 75.1724 13.9428 75.1724H11.8598V78.7246Z" fill="black"/>
<path d="M43.791 39.3433C43.791 37.4968 45.2879 36 47.1343 36H79.7313C81.5777 36 83.0746 37.4968 83.0746 39.3433V59.403C83.0746 61.2494 81.5777 62.7463 79.7313 62.7463H47.1343C45.2879 62.7463 43.791 61.2494 43.791 59.403V39.3433Z" fill="#C1E5FF"/>
<path d="M79.7313 61.0746V62.7463H47.1343V61.0746H79.7313ZM81.4029 59.403V39.3433C81.4029 38.4201 80.6545 37.6716 79.7313 37.6716H47.1343C46.2111 37.6716 45.4627 38.4201 45.4627 39.3433V59.403C45.4627 60.3262 46.2111 61.0746 47.1343 61.0746V62.7463L46.9621 62.7422C45.1957 62.6526 43.791 61.1917 43.791 59.403V39.3433C43.791 37.5546 45.1957 36.0937 46.9621 36.0041L47.1343 36H79.7313C81.5777 36 83.0746 37.4968 83.0746 39.3433V59.403C83.0746 61.2494 81.5777 62.7463 79.7313 62.7463V61.0746C80.6545 61.0746 81.4029 60.3262 81.4029 59.403Z" fill="#3C89C1"/>
<path d="M70.1127 54.5248C69.512 54.5248 68.9874 54.3746 68.539 54.0742C68.0907 53.7695 67.7424 53.3494 67.4943 52.814C67.2461 52.2742 67.1221 51.6495 67.1221 50.9399C67.1221 50.2303 67.2461 49.6078 67.4943 49.0724C67.7468 48.5326 68.0972 48.1125 68.5456 47.8121C68.994 47.5074 69.5142 47.355 70.1062 47.355C70.5546 47.355 70.9638 47.4486 71.3338 47.6358C71.7038 47.823 71.9999 48.1081 72.2219 48.4912H72.2349V44.6582H73.6127V54.3877H72.2611V53.3364H72.248C72.0173 53.7369 71.7147 54.0351 71.3404 54.231C70.9703 54.4269 70.5611 54.5248 70.1127 54.5248ZM70.3935 53.3364C70.9812 53.3364 71.4492 53.1187 71.7974 52.6834C72.1501 52.2437 72.3264 51.6626 72.3264 50.9399C72.3264 50.2129 72.1501 49.6318 71.7974 49.1964C71.4492 48.7568 70.9812 48.5369 70.3935 48.5369C69.8363 48.5369 69.3836 48.7437 69.0353 49.1573C68.6914 49.5665 68.5195 50.1607 68.5195 50.9399C68.5195 51.7191 68.6914 52.3134 69.0353 52.7226C69.3836 53.1318 69.8363 53.3364 70.3935 53.3364Z" fill="black"/>
<path d="M62.9428 54.5449C62.2854 54.5449 61.7086 54.3925 61.2124 54.0878C60.7161 53.7831 60.3287 53.3608 60.0501 52.821C59.7758 52.2812 59.6387 51.6587 59.6387 50.9535C59.6387 50.2395 59.7758 49.6127 60.0501 49.0729C60.3287 48.5287 60.7161 48.1043 61.2124 47.7996C61.7086 47.4905 62.2854 47.3359 62.9428 47.3359C63.6001 47.3359 64.1747 47.4905 64.6667 47.7996C65.1629 48.1043 65.5482 48.5287 65.8224 49.0729C66.101 49.6127 66.2403 50.2395 66.2403 50.9535C66.2403 51.6587 66.101 52.2812 65.8224 52.821C65.5482 53.3608 65.1629 53.7831 64.6667 54.0878C64.1747 54.3925 63.6001 54.5449 62.9428 54.5449ZM62.9428 53.3565C63.5348 53.3565 64.0006 53.1388 64.3402 52.7035C64.6797 52.2682 64.8495 51.6848 64.8495 50.9535C64.8495 50.2134 64.6775 49.6236 64.3336 49.1839C63.9941 48.7442 63.5305 48.5244 62.9428 48.5244C62.3551 48.5244 61.8893 48.7442 61.5454 49.1839C61.2058 49.6192 61.0361 50.2091 61.0361 50.9535C61.0361 51.6892 61.2058 52.2747 61.5454 52.71C61.8849 53.141 62.3507 53.3565 62.9428 53.3565Z" fill="black"/>
<path d="M52.2012 54.3877V44.6582H55.8056C56.8461 44.6582 57.671 44.9303 58.2805 45.4744C58.8899 46.0186 59.1946 46.7565 59.1946 47.6881C59.1946 48.3106 59.0532 48.8504 58.7702 49.3075C58.4872 49.7602 58.0889 50.1106 57.5752 50.3588C57.0616 50.6025 56.4565 50.7244 55.7599 50.7244H53.6508V54.3877H52.2012ZM53.6508 49.4707H55.7338C56.3607 49.4707 56.8548 49.3118 57.2161 48.994C57.5818 48.6719 57.7646 48.2366 57.7646 47.6881C57.7646 47.1395 57.5818 46.7086 57.2161 46.3951C56.8548 46.0774 56.3607 45.9185 55.7338 45.9185H53.6508V49.4707Z" fill="black"/>
<path d="M43.791 68.5972C43.791 66.7507 45.2879 65.2539 47.1343 65.2539H79.7313C81.5777 65.2539 83.0746 66.7507 83.0746 68.5972V88.6569C83.0746 90.5033 81.5777 92.0002 79.7313 92.0002H47.1343C45.2879 92.0002 43.791 90.5033 43.791 88.6569V68.5972Z" fill="#C1E5FF"/>
<path d="M79.7313 90.3285V92.0002H47.1343V90.3285H79.7313ZM81.4029 88.6569V68.5972C81.4029 67.674 80.6545 66.9255 79.7313 66.9255H47.1343C46.2111 66.9255 45.4627 67.674 45.4627 68.5972V88.6569C45.4627 89.5801 46.2111 90.3285 47.1343 90.3285V92.0002L46.9621 91.9961C45.1957 91.9065 43.791 90.4456 43.791 88.6569V68.5972C43.791 66.8085 45.1957 65.3476 46.9621 65.258L47.1343 65.2539H79.7313C81.5777 65.2539 83.0746 66.7507 83.0746 68.5972V88.6569C83.0746 90.5033 81.5777 92.0002 79.7313 92.0002V90.3285C80.6545 90.3285 81.4029 89.5801 81.4029 88.6569Z" fill="#3C89C1"/>
<path d="M70.1127 83.7787C69.512 83.7787 68.9874 83.6285 68.539 83.3282C68.0907 83.0234 67.7424 82.6033 67.4943 82.0679C67.2461 81.5281 67.1221 80.9034 67.1221 80.1938C67.1221 79.4842 67.2461 78.8617 67.4943 78.3263C67.7468 77.7865 68.0972 77.3664 68.5456 77.066C68.994 76.7613 69.5142 76.6089 70.1062 76.6089C70.5546 76.6089 70.9638 76.7025 71.3338 76.8897C71.7038 77.0769 71.9999 77.362 72.2219 77.7451H72.2349V73.9121H73.6127V83.6416H72.2611V82.5903H72.248C72.0173 82.9908 71.7147 83.289 71.3404 83.4849C70.9703 83.6808 70.5611 83.7787 70.1127 83.7787ZM70.3935 82.5903C70.9812 82.5903 71.4492 82.3726 71.7974 81.9373C72.1501 81.4976 72.3264 80.9165 72.3264 80.1938C72.3264 79.4668 72.1501 78.8857 71.7974 78.4504C71.4492 78.0107 70.9812 77.7908 70.3935 77.7908C69.8363 77.7908 69.3836 77.9976 69.0353 78.4112C68.6914 78.8204 68.5195 79.4146 68.5195 80.1938C68.5195 80.9731 68.6914 81.5673 69.0353 81.9765C69.3836 82.3857 69.8363 82.5903 70.3935 82.5903Z" fill="black"/>
<path d="M62.9428 83.7988C62.2854 83.7988 61.7086 83.6464 61.2124 83.3417C60.7161 83.037 60.3287 82.6147 60.0501 82.0749C59.7758 81.5351 59.6387 80.9126 59.6387 80.2074C59.6387 79.4935 59.7758 78.8666 60.0501 78.3268C60.3287 77.7826 60.7161 77.3582 61.2124 77.0535C61.7086 76.7444 62.2854 76.5898 62.9428 76.5898C63.6001 76.5898 64.1747 76.7444 64.6667 77.0535C65.1629 77.3582 65.5482 77.7826 65.8224 78.3268C66.101 78.8666 66.2403 79.4935 66.2403 80.2074C66.2403 80.9126 66.101 81.5351 65.8224 82.0749C65.5482 82.6147 65.1629 83.037 64.6667 83.3417C64.1747 83.6464 63.6001 83.7988 62.9428 83.7988ZM62.9428 82.6104C63.5348 82.6104 64.0006 82.3927 64.3402 81.9574C64.6797 81.5221 64.8495 80.9387 64.8495 80.2074C64.8495 79.4673 64.6775 78.8775 64.3336 78.4378C63.9941 77.9981 63.5305 77.7783 62.9428 77.7783C62.3551 77.7783 61.8893 77.9981 61.5454 78.4378C61.2058 78.8731 61.0361 79.463 61.0361 80.2074C61.0361 80.9431 61.2058 81.5286 61.5454 81.9639C61.8849 82.3949 62.3507 82.6104 62.9428 82.6104Z" fill="black"/>
<path d="M52.2012 83.6416V73.9121H55.8056C56.8461 73.9121 57.671 74.1842 58.2805 74.7283C58.8899 75.2725 59.1946 76.0104 59.1946 76.942C59.1946 77.5645 59.0532 78.1043 58.7702 78.5614C58.4872 79.0141 58.0889 79.3645 57.5752 79.6127C57.0616 79.8565 56.4565 79.9783 55.7599 79.9783H53.6508V83.6416H52.2012ZM53.6508 78.7246H55.7338C56.3607 78.7246 56.8548 78.5657 57.2161 78.2479C57.5818 77.9258 57.7646 77.4905 57.7646 76.942C57.7646 76.3935 57.5818 75.9625 57.2161 75.649C56.8548 75.3313 56.3607 75.1724 55.7338 75.1724H53.6508V78.7246Z" fill="black"/>
<path d="M85.582 39.3433C85.582 37.4968 87.0789 36 88.9253 36H121.522C123.369 36 124.866 37.4968 124.866 39.3433V59.403C124.866 61.2494 123.369 62.7463 121.522 62.7463H88.9253C87.0789 62.7463 85.582 61.2494 85.582 59.403V39.3433Z" fill="#C1E5FF"/>
<path d="M121.522 61.0746V62.7463H88.9253V61.0746H121.522ZM123.194 59.403V39.3433C123.194 38.4201 122.446 37.6716 121.522 37.6716H88.9253C88.0021 37.6716 87.2537 38.4201 87.2537 39.3433V59.403C87.2537 60.3262 88.0021 61.0746 88.9253 61.0746V62.7463L88.7531 62.7422C86.9867 62.6526 85.582 61.1917 85.582 59.403V39.3433C85.582 37.5546 86.9867 36.0937 88.7531 36.0041L88.9253 36H121.522C123.369 36 124.866 37.4968 124.866 39.3433V59.403C124.866 61.2494 123.369 62.7463 121.522 62.7463V61.0746C122.446 61.0746 123.194 60.3262 123.194 59.403Z" fill="#3C89C1"/>
<path d="M111.904 54.5248C111.303 54.5248 110.779 54.3746 110.331 54.0742C109.882 53.7695 109.534 53.3494 109.286 52.814C109.038 52.2742 108.914 51.6495 108.914 50.9399C108.914 50.2303 109.038 49.6078 109.286 49.0724C109.538 48.5326 109.889 48.1125 110.337 47.8121C110.785 47.5074 111.306 47.355 111.898 47.355C112.346 47.355 112.755 47.4486 113.125 47.6358C113.495 47.823 113.791 48.1081 114.013 48.4912H114.026V44.6582H115.404V54.3877H114.053V53.3364H114.04C113.809 53.7369 113.506 54.0351 113.132 54.231C112.762 54.4269 112.353 54.5248 111.904 54.5248ZM112.185 53.3364C112.773 53.3364 113.241 53.1187 113.589 52.6834C113.942 52.2437 114.118 51.6626 114.118 50.9399C114.118 50.2129 113.942 49.6318 113.589 49.1964C113.241 48.7568 112.773 48.5369 112.185 48.5369C111.628 48.5369 111.175 48.7437 110.827 49.1573C110.483 49.5665 110.311 50.1607 110.311 50.9399C110.311 51.7191 110.483 52.3134 110.827 52.7226C111.175 53.1318 111.628 53.3364 112.185 53.3364Z" fill="black"/>
<path d="M104.734 54.5449C104.077 54.5449 103.5 54.3925 103.004 54.0878C102.508 53.7831 102.12 53.3608 101.842 52.821C101.567 52.2812 101.43 51.6587 101.43 50.9535C101.43 50.2395 101.567 49.6127 101.842 49.0729C102.12 48.5287 102.508 48.1043 103.004 47.7996C103.5 47.4905 104.077 47.3359 104.734 47.3359C105.392 47.3359 105.966 47.4905 106.458 47.7996C106.954 48.1043 107.34 48.5287 107.614 49.0729C107.893 49.6127 108.032 50.2395 108.032 50.9535C108.032 51.6587 107.893 52.2812 107.614 52.821C107.34 53.3608 106.954 53.7831 106.458 54.0878C105.966 54.3925 105.392 54.5449 104.734 54.5449ZM104.734 53.3565C105.326 53.3565 105.792 53.1388 106.132 52.7035C106.471 52.2682 106.641 51.6848 106.641 50.9535C106.641 50.2134 106.469 49.6236 106.125 49.1839C105.786 48.7442 105.322 48.5244 104.734 48.5244C104.147 48.5244 103.681 48.7442 103.337 49.1839C102.997 49.6192 102.828 50.2091 102.828 50.9535C102.828 51.6892 102.997 52.2747 103.337 52.71C103.676 53.141 104.142 53.3565 104.734 53.3565Z" fill="black"/>
<path d="M93.9927 54.3877V44.6582H97.5972C98.6376 44.6582 99.4625 44.9303 100.072 45.4744C100.681 46.0186 100.986 46.7565 100.986 47.6881C100.986 48.3106 100.845 48.8504 100.562 49.3075C100.279 49.7602 99.8804 50.1106 99.3667 50.3588C98.8531 50.6025 98.248 50.7244 97.5514 50.7244H95.4423V54.3877H93.9927ZM95.4423 49.4707H97.5253C98.1522 49.4707 98.6463 49.3118 99.0076 48.994C99.3733 48.6719 99.5561 48.2366 99.5561 47.6881C99.5561 47.1395 99.3733 46.7086 99.0076 46.3951C98.6463 46.0774 98.1522 45.9185 97.5253 45.9185H95.4423V49.4707Z" fill="black"/>
<path d="M85.582 68.5972C85.582 66.7507 87.0789 65.2539 88.9253 65.2539H121.522C123.369 65.2539 124.866 66.7507 124.866 68.5972V88.6569C124.866 90.5033 123.369 92.0002 121.522 92.0002H88.9253C87.0789 92.0002 85.582 90.5033 85.582 88.6569V68.5972Z" fill="#C1E5FF"/>
<path d="M121.522 90.3285V92.0002H88.9253V90.3285H121.522ZM123.194 88.6569V68.5972C123.194 67.674 122.446 66.9255 121.522 66.9255H88.9253C88.0021 66.9255 87.2537 67.674 87.2537 68.5972V88.6569C87.2537 89.5801 88.0021 90.3285 88.9253 90.3285V92.0002L88.7531 91.9961C86.9867 91.9065 85.582 90.4456 85.582 88.6569V68.5972C85.582 66.8085 86.9867 65.3476 88.7531 65.258L88.9253 65.2539H121.522C123.369 65.2539 124.866 66.7507 124.866 68.5972V88.6569C124.866 90.5033 123.369 92.0002 121.522 92.0002V90.3285C122.446 90.3285 123.194 89.5801 123.194 88.6569Z" fill="#3C89C1"/>
<path d="M111.904 83.7787C111.303 83.7787 110.779 83.6285 110.331 83.3282C109.882 83.0234 109.534 82.6033 109.286 82.0679C109.038 81.5281 108.914 80.9034 108.914 80.1938C108.914 79.4842 109.038 78.8617 109.286 78.3263C109.538 77.7865 109.889 77.3664 110.337 77.066C110.785 76.7613 111.306 76.6089 111.898 76.6089C112.346 76.6089 112.755 76.7025 113.125 76.8897C113.495 77.0769 113.791 77.362 114.013 77.7451H114.026V73.9121H115.404V83.6416H114.053V82.5903H114.04C113.809 82.9908 113.506 83.289 113.132 83.4849C112.762 83.6808 112.353 83.7787 111.904 83.7787ZM112.185 82.5903C112.773 82.5903 113.241 82.3726 113.589 81.9373C113.942 81.4976 114.118 80.9165 114.118 80.1938C114.118 79.4668 113.942 78.8857 113.589 78.4504C113.241 78.0107 112.773 77.7908 112.185 77.7908C111.628 77.7908 111.175 77.9976 110.827 78.4112C110.483 78.8204 110.311 79.4146 110.311 80.1938C110.311 80.9731 110.483 81.5673 110.827 81.9765C111.175 82.3857 111.628 82.5903 112.185 82.5903Z" fill="black"/>
<path d="M104.734 83.7988C104.077 83.7988 103.5 83.6464 103.004 83.3417C102.508 83.037 102.12 82.6147 101.842 82.0749C101.567 81.5351 101.43 80.9126 101.43 80.2074C101.43 79.4935 101.567 78.8666 101.842 78.3268C102.12 77.7826 102.508 77.3582 103.004 77.0535C103.5 76.7444 104.077 76.5898 104.734 76.5898C105.392 76.5898 105.966 76.7444 106.458 77.0535C106.954 77.3582 107.34 77.7826 107.614 78.3268C107.893 78.8666 108.032 79.4935 108.032 80.2074C108.032 80.9126 107.893 81.5351 107.614 82.0749C107.34 82.6147 106.954 83.037 106.458 83.3417C105.966 83.6464 105.392 83.7988 104.734 83.7988ZM104.734 82.6104C105.326 82.6104 105.792 82.3927 106.132 81.9574C106.471 81.5221 106.641 80.9387 106.641 80.2074C106.641 79.4673 106.469 78.8775 106.125 78.4378C105.786 77.9981 105.322 77.7783 104.734 77.7783C104.147 77.7783 103.681 77.9981 103.337 78.4378C102.997 78.8731 102.828 79.463 102.828 80.2074C102.828 80.9431 102.997 81.5286 103.337 81.9639C103.676 82.3949 104.142 82.6104 104.734 82.6104Z" fill="black"/>
<path d="M93.9927 83.6416V73.9121H97.5972C98.6376 73.9121 99.4625 74.1842 100.072 74.7283C100.681 75.2725 100.986 76.0104 100.986 76.942C100.986 77.5645 100.845 78.1043 100.562 78.5614C100.279 79.0141 99.8804 79.3645 99.3667 79.6127C98.8531 79.8565 98.248 79.9783 97.5514 79.9783H95.4423V83.6416H93.9927ZM95.4423 78.7246H97.5253C98.1522 78.7246 98.6463 78.5657 99.0076 78.2479C99.3733 77.9258 99.5561 77.4905 99.5561 76.942C99.5561 76.3935 99.3733 75.9625 99.0076 75.649C98.6463 75.3313 98.1522 75.1724 97.5253 75.1724H95.4423V78.7246Z" fill="black"/>
</svg>
