<svg width="128" height="128" viewBox="0 0 128 128" fill="none" xmlns="http://www.w3.org/2000/svg">
<path d="M3 44.2632C3 41.3564 5.3564 39 8.26316 39H120.105C123.012 39 125.368 41.3564 125.368 44.2632V83.7368C125.368 86.6436 123.012 89 120.105 89H8.26316C5.3564 89 3 86.6436 3 83.7368V44.2632Z" fill="#326DE6"/>
<path d="M91.7228 72.1353C90.718 72.1353 89.8406 71.8841 89.0906 71.3817C88.3406 70.8792 87.7581 70.1766 87.3431 69.2737C86.9353 68.3708 86.7314 67.3186 86.7314 66.1172C86.7314 64.9376 86.939 63.8964 87.354 62.9935C87.7763 62.0906 88.3588 61.388 89.1015 60.8855C89.8515 60.3758 90.718 60.121 91.701 60.121C92.4437 60.121 93.1027 60.2739 93.6779 60.5797C94.2531 60.8783 94.7264 61.337 95.0978 61.9559H95.1087V55.6211H98.3198V71.895H95.1524V70.1256H95.1414C94.8065 70.7955 94.3405 71.2979 93.7434 71.6329C93.1536 71.9678 92.4801 72.1353 91.7228 72.1353ZM92.5529 69.514C93.3684 69.514 94.0238 69.2082 94.5189 68.5965C95.014 67.9776 95.2616 67.1512 95.2616 66.1172C95.2616 65.0905 95.014 64.2677 94.5189 63.6488C94.0238 63.0299 93.3684 62.7204 92.5529 62.7204C91.7738 62.7204 91.1476 63.019 90.6743 63.6161C90.2083 64.2058 89.9753 65.0396 89.9753 66.1172C89.9753 67.1949 90.2083 68.0322 90.6743 68.6293C91.1476 69.2191 91.7738 69.514 92.5529 69.514Z" fill="white"/>
<path d="M79.5881 72.1576C78.4231 72.1576 77.4001 71.9064 76.519 71.404C75.6453 70.9015 74.9608 70.2025 74.4657 69.3069C73.9778 68.404 73.7339 67.3482 73.7339 66.1395C73.7339 64.9308 73.9778 63.875 74.4657 62.9721C74.9608 62.0692 75.6453 61.3666 76.519 60.8642C77.4001 60.3545 78.4231 60.0996 79.5881 60.0996C80.7604 60.0996 81.7835 60.3545 82.6572 60.8642C83.5383 61.3666 84.2227 62.0692 84.7106 62.9721C85.2057 63.875 85.4533 64.9308 85.4533 66.1395C85.4533 67.3409 85.2057 68.3931 84.7106 69.296C84.2227 70.1989 83.5383 70.9015 82.6572 71.404C81.7835 71.9064 80.7604 72.1576 79.5881 72.1576ZM79.5881 69.5472C80.3745 69.5472 81.008 69.2487 81.4886 68.6516C81.9691 68.0472 82.2094 67.2099 82.2094 66.1395C82.2094 65.0619 81.9691 64.2209 81.4886 63.6165C81.008 63.0122 80.3745 62.71 79.5881 62.71C78.809 62.71 78.1792 63.0122 77.6986 63.6165C77.218 64.2209 76.9777 65.0619 76.9777 66.1395C76.9777 67.2099 77.218 68.0472 77.6986 68.6516C78.1792 69.2487 78.809 69.5472 79.5881 69.5472Z" fill="white"/>
<path d="M60.791 71.895V55.6211H67.2132C68.4292 55.6211 69.4814 55.8395 70.3697 56.2764C71.2653 56.706 71.9534 57.3213 72.434 58.1222C72.9218 58.9232 73.1657 59.8698 73.1657 60.962C73.1657 62.0542 72.9182 63.0008 72.423 63.8017C71.9352 64.5954 71.2434 65.2107 70.3478 65.6476C69.4522 66.0844 68.3928 66.3029 67.1695 66.3029H64.155V71.895H60.791ZM64.155 63.485H66.9948C67.8831 63.485 68.5857 63.2593 69.1027 62.8078C69.6197 62.3491 69.8782 61.7338 69.8782 60.962C69.8782 60.1829 69.6197 59.5676 69.1027 59.1162C68.5857 58.6647 67.8831 58.439 66.9948 58.439H64.155V63.485Z" fill="white"/>
<path d="M47.5784 55.3802C47.4228 54.882 47.0493 54.4773 46.5823 54.2285L37.0882 49.6832C36.8393 49.5585 36.559 49.5273 36.3099 49.5273C36.0608 49.5273 35.7808 49.5273 35.5317 49.5897L26.0376 54.1661C25.8036 54.2732 25.5974 54.4328 25.4352 54.6326C25.273 54.8324 25.1591 55.0669 25.1023 55.3179L22.7665 65.5602C22.7205 65.8195 22.7271 66.0855 22.786 66.3422C22.8449 66.5989 22.9548 66.8412 23.1091 67.0546L29.6779 75.1799C30.0515 75.5537 30.5806 75.8034 31.11 75.8337H41.5702C42.1305 75.896 42.6596 75.6469 43.0023 75.1799L49.5711 67.0546C49.878 66.6207 50.0113 66.0875 49.9446 65.5602L47.5784 55.3802V55.3802Z" fill="white"/>
<path d="M46.1213 65.1537C46.0902 65.1537 46.059 65.1537 46.059 65.1225C46.059 65.0913 45.9966 65.0925 45.9332 65.0925C45.8087 65.0613 45.6843 65.0613 45.5596 65.0613C45.4958 65.0662 45.4317 65.0555 45.3729 65.0301H45.3417C44.9842 64.998 44.6301 64.9356 44.2832 64.8433C44.2336 64.8244 44.1885 64.7952 44.151 64.7577C44.1135 64.7201 44.0844 64.675 44.0655 64.6254L43.8164 64.5631C43.9408 63.6604 43.8785 62.7263 43.6917 61.8237C43.472 60.9184 43.1039 60.0557 42.6023 59.2707L42.7902 59.0843V59.0531C42.7902 58.9596 42.8214 58.8351 42.8834 58.7728C43.1637 58.524 43.444 58.3372 43.7552 58.1493L43.9419 58.0561C44.0666 57.9937 44.1599 57.9314 44.2843 57.8693C44.3155 57.8381 44.3467 57.8381 44.3778 57.8069C44.409 57.7758 44.3778 57.7758 44.3778 57.7446C44.6578 57.5255 44.7202 57.1528 44.5022 56.8737C44.4492 56.8086 44.3829 56.7555 44.3078 56.718C44.2327 56.6804 44.1505 56.6592 44.0667 56.6557C43.9085 56.6598 43.7558 56.7143 43.6308 56.8113V56.8113L43.5996 56.8425C43.5684 56.8737 43.5372 56.9046 43.5061 56.9046C43.4128 56.9981 43.3193 57.0916 43.257 57.1849C43.2261 57.2472 43.1637 57.2784 43.1325 57.3096C42.9031 57.5698 42.6416 57.7998 42.3543 57.9943C42.292 58.0254 42.2296 58.0566 42.1675 58.0566C42.1364 58.0566 42.074 58.0566 42.0428 58.0254H42.012L41.7628 58.181C41.5137 57.9319 41.2334 57.6831 40.9846 57.434C39.8326 56.531 38.4005 55.9708 36.9373 55.8152L36.9061 55.566V55.5972C36.8129 55.5349 36.7817 55.4416 36.7505 55.3481C36.7505 55.0058 36.7505 54.6631 36.8129 54.2896V54.2584C36.8129 54.1963 36.844 54.134 36.844 54.0716C36.8752 53.9472 36.8752 53.8228 36.9061 53.6981V53.5114C36.9373 53.1996 36.6882 52.8879 36.377 52.8575C36.1902 52.8264 36.0035 52.9199 35.8479 53.0755C35.7894 53.1321 35.7427 53.1998 35.7106 53.2746C35.6785 53.3495 35.6616 53.4299 35.6608 53.5114V53.5114V53.6669C35.6608 53.7916 35.692 53.9161 35.7232 54.0405C35.7485 54.0994 35.7592 54.1636 35.7543 54.2275V54.2584C35.8156 54.6002 35.8156 54.9426 35.8156 55.315C35.7844 55.4085 35.7532 55.5017 35.6597 55.5641V55.6267L35.6288 55.8758C35.2862 55.9067 34.9438 55.9691 34.5703 56.0314C33.107 56.3431 31.7682 57.1208 30.7409 58.2105L30.5541 58.0861H30.5229C30.4921 58.0861 30.4609 58.1173 30.3985 58.1173C30.3362 58.1173 30.2741 58.0861 30.2118 58.0549C29.9308 57.8407 29.6703 57.6009 29.4335 57.3388V57.3388C29.4024 57.2767 29.34 57.2455 29.3088 57.2143C29.2156 57.1208 29.1532 57.0276 29.06 56.9341C29.0288 56.9029 28.9977 56.9029 28.9665 56.872L28.9353 56.8408C28.8103 56.7438 28.6576 56.6893 28.4994 56.6852C28.3127 56.6852 28.1571 56.7473 28.0636 56.9029C27.9754 57.0387 27.9395 57.2019 27.9625 57.3621C27.9854 57.5224 28.0656 57.6689 28.1882 57.7746C28.1924 57.7746 28.1965 57.7753 28.2003 57.7768C28.2041 57.7784 28.2076 57.7807 28.2105 57.7836C28.2134 57.7865 28.2157 57.79 28.2172 57.7938C28.2187 57.7976 28.2195 57.8017 28.2194 57.8058C28.2194 57.8058 28.2815 57.8682 28.3127 57.8682C28.4233 57.9368 28.5377 57.9992 28.6553 58.0549L28.8438 58.149C29.1555 58.3361 29.4673 58.5228 29.7152 58.7725C29.7776 58.8349 29.8399 58.9593 29.8088 59.0528V59.0216L29.9955 59.2084C29.9644 59.2707 29.9332 59.3019 29.9023 59.3643C28.9364 60.8887 28.532 62.6943 28.812 64.469L28.5629 64.531C28.563 64.5351 28.5622 64.5392 28.5607 64.5431C28.5592 64.5469 28.5569 64.5503 28.554 64.5532C28.551 64.5562 28.5476 64.5585 28.5438 64.56C28.5399 64.5615 28.5359 64.5623 28.5317 64.5622C28.5006 64.6557 28.4073 64.7178 28.3138 64.7801C27.968 64.8751 27.6141 64.9376 27.2567 64.9669V64.9669C27.1928 64.962 27.1287 64.9727 27.0699 64.9981C26.9455 64.9981 26.8211 65.0293 26.6964 65.0293C26.6652 65.0293 26.634 65.0604 26.572 65.0604C26.5408 65.0604 26.5408 65.0604 26.5096 65.0916C26.4292 65.1046 26.3522 65.1335 26.2832 65.1768C26.2142 65.2201 26.1546 65.2768 26.108 65.3436C26.0613 65.4104 26.0286 65.4859 26.0117 65.5656C25.9948 65.6453 25.9942 65.7275 26.0097 65.8075V65.8075C26.0721 66.0878 26.3523 66.2745 26.6332 66.2434C26.6871 66.2482 26.7412 66.2374 26.7891 66.2122V66.2122C26.8202 66.2122 26.8202 66.2122 26.8202 66.181C26.8202 66.1498 26.9135 66.181 26.9447 66.181C27.0691 66.1498 27.1938 66.0878 27.287 66.0566C27.3494 66.0254 27.4117 65.9943 27.4738 65.9943H27.505C27.8375 65.8682 28.1815 65.7745 28.532 65.7143H28.5632C28.6552 65.7117 28.7446 65.7451 28.8123 65.8075C28.8164 65.8074 28.8205 65.8082 28.8243 65.8097C28.8281 65.8113 28.8316 65.8135 28.8345 65.8165C28.8374 65.8194 28.8397 65.8228 28.8413 65.8267C28.8428 65.8305 28.8436 65.8346 28.8435 65.8387V65.8387L29.1235 65.8075C29.5905 67.2395 30.4623 68.516 31.6764 69.4498C31.9567 69.6678 32.2055 69.8545 32.517 70.0104L32.3614 70.2283C32.3613 70.2324 32.3621 70.2365 32.3636 70.2403C32.3651 70.244 32.3674 70.2475 32.3703 70.2504C32.3732 70.2532 32.3766 70.2555 32.3804 70.257C32.3842 70.2586 32.3882 70.2593 32.3923 70.2592C32.4546 70.3528 32.4546 70.4772 32.4235 70.571C32.2991 70.8827 32.1117 71.1945 31.9255 71.4739V71.5048C31.8944 71.5672 31.8632 71.5983 31.8008 71.6607C31.7385 71.723 31.6764 71.8474 31.5829 71.9724C31.5517 72.0036 31.5517 72.0348 31.5208 72.066C31.5209 72.0701 31.5201 72.0741 31.5186 72.0779C31.5171 72.0817 31.5148 72.0852 31.5118 72.0881C31.5089 72.091 31.5055 72.0932 31.5016 72.0947C31.4978 72.0962 31.4937 72.097 31.4896 72.0968C31.3341 72.4086 31.4585 72.7818 31.7388 72.9374C31.8066 72.9725 31.8806 72.9937 31.9567 72.9998C32.2055 72.9998 32.4235 72.8442 32.5482 72.6262C32.5481 72.6221 32.5488 72.6181 32.5503 72.6142C32.5518 72.6104 32.5541 72.607 32.5569 72.604C32.5598 72.6011 32.5633 72.5988 32.5671 72.5973C32.5709 72.5957 32.575 72.595 32.5791 72.5951C32.5791 72.5639 32.6102 72.5327 32.6414 72.5018C32.6726 72.3771 32.7349 72.2839 32.7661 72.1592L32.8282 71.9724C32.9217 71.6301 33.0773 71.3186 33.2329 71.0074C33.2931 70.9195 33.3807 70.8538 33.482 70.8207C33.5132 70.8207 33.5132 70.8207 33.5132 70.7895L33.6376 70.5404C34.5093 70.8827 35.4123 71.0386 36.3461 71.0386C36.9135 71.0424 37.4787 70.9688 38.0261 70.8198C38.3685 70.7575 38.7111 70.6331 39.0223 70.5395L39.1467 70.7575C39.1779 70.7575 39.1779 70.7575 39.1779 70.7886C39.2793 70.8217 39.3668 70.8874 39.427 70.9754C39.5826 71.2872 39.7388 71.5989 39.8317 71.939V71.9702L39.8941 72.1569C39.9252 72.2816 39.9564 72.406 40.0185 72.4993C40.0496 72.5305 40.0497 72.5616 40.0808 72.5928C40.0807 72.5969 40.0815 72.601 40.083 72.6048C40.0846 72.6086 40.0869 72.6121 40.0898 72.615C40.0927 72.6179 40.0962 72.6202 40.1 72.6218C40.1038 72.6233 40.1079 72.6241 40.112 72.624V72.624C40.2367 72.8433 40.4552 72.9995 40.7043 72.9995C40.7976 72.9995 40.8599 72.9683 40.9534 72.9371C41.0778 72.8751 41.2023 72.7504 41.2334 72.5948C41.2698 72.4395 41.259 72.2768 41.2023 72.1277V72.1277C41.2024 72.1236 41.2017 72.1196 41.2002 72.1157C41.1986 72.1119 41.1964 72.1084 41.1935 72.1055C41.1906 72.1026 41.1872 72.1003 41.1834 72.0988C41.1795 72.0972 41.1755 72.0965 41.1714 72.0966C41.1714 72.0657 41.1402 72.0345 41.109 72.0033C41.0547 71.8878 40.981 71.7823 40.8911 71.6916C40.8599 71.6295 40.8287 71.5983 40.7667 71.536V71.4739C40.5487 71.1936 40.3929 70.8822 40.2684 70.571C40.2373 70.4775 40.2373 70.353 40.2996 70.2592C40.2995 70.2551 40.3003 70.2511 40.3018 70.2473C40.3034 70.2435 40.3057 70.24 40.3086 70.2371C40.3115 70.2342 40.315 70.232 40.3188 70.2305C40.3226 70.2289 40.3267 70.2282 40.3308 70.2283V70.2283L40.2373 69.9792C41.8243 69.014 43.0393 67.5198 43.5996 65.7451L43.8487 65.7763C43.8528 65.7764 43.8569 65.7756 43.8607 65.7741C43.8645 65.7726 43.8679 65.7703 43.8708 65.7673C43.8737 65.7644 43.876 65.761 43.8775 65.7571C43.879 65.7533 43.8797 65.7492 43.8796 65.7451C43.9474 65.6829 44.0367 65.6495 44.1287 65.6519H44.1599C44.5004 65.7122 44.834 65.806 45.1561 65.9319H45.1872C45.2496 65.9631 45.3117 65.9943 45.374 65.9943C45.4987 66.0566 45.5919 66.119 45.7164 66.1498C45.7475 66.1498 45.7787 66.181 45.8411 66.181C45.8722 66.181 45.8722 66.181 45.9034 66.2122C45.9512 66.2374 46.0052 66.2482 46.059 66.2434C46.1946 66.2415 46.3266 66.1989 46.4377 66.1212C46.5489 66.0435 46.6341 65.9342 46.6825 65.8075C46.6698 65.6534 46.6088 65.5072 46.5082 65.3898C46.4076 65.2724 46.2725 65.1898 46.1222 65.1537H46.1213ZM37.124 64.1901L36.2835 64.5948L35.4432 64.1901L35.2252 63.2872L35.8156 62.5387H36.7508L37.3423 63.2857L37.124 64.1901ZM42.1987 62.1666C42.3484 62.8089 42.3905 63.4716 42.3231 64.1277L39.3655 63.2857C39.0855 63.2237 38.9299 62.9434 38.992 62.6623C39.0145 62.5802 39.0574 62.5053 39.1167 62.4443L41.4514 60.3276C41.7955 60.897 42.0477 61.5172 42.1987 62.1652V62.1666ZM40.5176 59.1764L37.9646 60.9831C37.7467 61.1075 37.4355 61.0763 37.2799 60.8584C37.2495 60.831 37.2254 60.7973 37.2093 60.7597C37.1931 60.722 37.1853 60.6814 37.1864 60.6404L36.9996 57.4963C38.3693 57.6519 39.5834 58.2434 40.5176 59.1772V59.1764ZM34.8826 57.5893L35.5061 57.4649L35.3505 60.5781C35.3505 60.8581 35.1014 61.076 34.8214 61.076C34.7278 61.076 34.6655 61.0449 34.5723 61.0137L31.9882 59.1769C32.7967 58.3981 33.7932 57.8373 34.8826 57.5887V57.5893ZM31.0849 60.329L33.3888 62.3837C33.6064 62.5704 33.6376 62.8816 33.4508 63.0995C33.3888 63.1931 33.3264 63.2242 33.2017 63.2554L30.1817 64.1263C30.0899 62.798 30.4049 61.4733 31.0847 60.3284L31.0849 60.329ZM30.5553 65.5896L33.6373 65.0604C33.8864 65.0604 34.1355 65.216 34.1667 65.4651C34.1979 65.5584 34.1979 65.6831 34.1355 65.7769L32.9532 68.6404C31.8629 67.9245 30.9911 66.8348 30.5553 65.5896ZM37.6223 69.4498C37.1864 69.5434 36.7505 69.6057 36.2835 69.6057C35.6299 69.6057 34.9449 69.481 34.3223 69.294L35.8479 66.5234C36.0035 66.3366 36.2526 66.2743 36.4714 66.3987C36.5617 66.4624 36.6452 66.5354 36.7202 66.6166L38.2146 69.3251C38.0149 69.355 37.8171 69.3966 37.6223 69.4498V69.4498ZM41.4199 66.7416C40.9454 67.4964 40.3071 68.1347 39.5523 68.6092L38.3379 65.6831C38.2758 65.434 38.4002 65.1849 38.6182 65.0916C38.7117 65.0604 38.8049 65.0293 38.8985 65.0293L42.0117 65.5584C41.8561 65.9943 41.6693 66.399 41.4202 66.7416H41.4199Z" fill="#1071D3"/>
</svg>
