<svg width="128" height="128" viewBox="0 0 128 128" fill="none" xmlns="http://www.w3.org/2000/svg">
<path d="M18 40.75C18 36.4698 21.4698 33 25.75 33H101.312C105.593 33 109.062 36.4698 109.062 40.75V87.25C109.062 91.5302 105.593 95 101.312 95H25.75C21.4698 95 18 91.5302 18 87.25V40.75Z" fill="#C1E5FF"/>
<path d="M101.312 91.125V95H25.75V91.125H101.312ZM105.188 87.25V40.75C105.188 38.6099 103.453 36.875 101.312 36.875H25.75C23.6099 36.875 21.875 38.6099 21.875 40.75V87.25C21.875 89.3901 23.6099 91.125 25.75 91.125V95L25.3508 94.9905C21.2561 94.7828 18 91.3963 18 87.25V40.75C18 36.6037 21.2561 33.2172 25.3508 33.0095L25.75 33H101.312C105.593 33 109.062 36.4698 109.062 40.75V87.25C109.062 91.5302 105.593 95 101.312 95V91.125C103.453 91.125 105.188 89.3901 105.188 87.25Z" fill="#3C89C1"/>
<path d="M79.0161 75.9419C77.6235 75.9419 76.4076 75.5938 75.3682 74.8975C74.3288 74.1911 73.5215 73.2173 72.9463 71.9761C72.3711 70.7248 72.0835 69.2767 72.0835 67.6318C72.0835 65.987 72.3711 64.5439 72.9463 63.3027C73.5316 62.0514 74.3439 61.0776 75.3833 60.3813C76.4227 59.675 77.6286 59.3218 79.001 59.3218C80.0404 59.3218 80.9889 59.5387 81.8467 59.9727C82.7044 60.4066 83.3906 61.0675 83.9053 61.9556H83.9355V53.0703H87.1294V75.624H83.9961V73.187H83.9658C83.431 74.1154 82.7297 74.8066 81.8618 75.2607C81.0041 75.7148 80.0555 75.9419 79.0161 75.9419ZM79.667 73.187C81.0293 73.187 82.1141 72.6825 82.9214 71.6733C83.7388 70.6541 84.1475 69.307 84.1475 67.6318C84.1475 65.9466 83.7388 64.5994 82.9214 63.5903C82.1141 62.5711 81.0293 62.0615 79.667 62.0615C78.3753 62.0615 77.3258 62.5409 76.5186 63.4995C75.7214 64.4481 75.3228 65.8255 75.3228 67.6318C75.3228 69.4382 75.7214 70.8156 76.5186 71.7642C77.3258 72.7127 78.3753 73.187 79.667 73.187Z" fill="black"/>
<path d="M62.396 75.9883C60.8722 75.9883 59.5352 75.6351 58.3848 74.9287C57.2344 74.2223 56.3363 73.2435 55.6904 71.9922C55.0547 70.7409 54.7368 69.2979 54.7368 67.6631C54.7368 66.0081 55.0547 64.555 55.6904 63.3037C56.3363 62.0423 57.2344 61.0584 58.3848 60.3521C59.5352 59.6356 60.8722 59.2773 62.396 59.2773C63.9198 59.2773 65.2518 59.6356 66.3921 60.3521C67.5425 61.0584 68.4355 62.0423 69.0713 63.3037C69.7171 64.555 70.04 66.0081 70.04 67.6631C70.04 69.2979 69.7171 70.7409 69.0713 71.9922C68.4355 73.2435 67.5425 74.2223 66.3921 74.9287C65.2518 75.6351 63.9198 75.9883 62.396 75.9883ZM62.396 73.2334C63.7684 73.2334 64.8481 72.7288 65.6353 71.7197C66.4224 70.7106 66.8159 69.3584 66.8159 67.6631C66.8159 65.9476 66.4173 64.5802 65.6201 63.561C64.833 62.5418 63.7583 62.0322 62.396 62.0322C61.0337 62.0322 59.9539 62.5418 59.1567 63.561C58.3696 64.5701 57.9761 65.9375 57.9761 67.6631C57.9761 69.3685 58.3696 70.7257 59.1567 71.7349C59.9438 72.7339 61.0236 73.2334 62.396 73.2334Z" fill="black"/>
<path d="M37.4961 75.624V53.0703H45.8516C48.2633 53.0703 50.1756 53.701 51.5884 54.9624C53.0011 56.2238 53.7075 57.9342 53.7075 60.0938C53.7075 61.5368 53.3796 62.7881 52.7236 63.8477C52.0677 64.8971 51.1444 65.7095 49.9536 66.2847C48.7629 66.8498 47.3602 67.1323 45.7456 67.1323H40.8564V75.624H37.4961ZM40.8564 64.2261H45.6851C47.1382 64.2261 48.2835 63.8577 49.1211 63.1211C49.9688 62.3743 50.3926 61.3652 50.3926 60.0938C50.3926 58.8223 49.9688 57.8232 49.1211 57.0967C48.2835 56.36 47.1382 55.9917 45.6851 55.9917H40.8564V64.2261Z" fill="black"/>
</svg>
