<svg width="128" height="128" viewBox="0 0 128 128" fill="none" xmlns="http://www.w3.org/2000/svg">
<path d="M2 24.4412C2 23.093 3.09295 22 4.44118 22H124.059C125.407 22 126.5 23.093 126.5 24.4412V102.559C126.5 103.907 125.407 105 124.059 105H4.44118C3.09295 105 2 103.907 2 102.559V24.4412Z" fill="url(#paint0_linear_215_10860)"/>
<path d="M124.059 103.373V105H4.44118V103.373H124.059ZM124.873 102.559V24.4412C124.873 23.9918 124.508 23.6275 124.059 23.6275H4.44118C3.99177 23.6275 3.62745 23.9918 3.62745 24.4412V102.559C3.62745 103.008 3.99177 103.373 4.44118 103.373V105L4.31562 104.997C3.02575 104.931 2 103.865 2 102.559V24.4412C2 23.093 3.09295 22 4.44118 22H124.059L124.184 22.0032C125.474 22.0685 126.5 23.1351 126.5 24.4412V102.559L126.497 102.684C126.434 103.933 125.433 104.934 124.184 104.997L124.059 105V103.373C124.508 103.373 124.873 103.008 124.873 102.559Z" fill="#478ECC"/>
<path d="M31.2944 70.0088C31.2944 68.2112 32.7517 66.7539 34.5493 66.7539H93.9513C95.7489 66.7539 97.2062 68.2112 97.2062 70.0088V84.6559C97.2062 86.4535 95.7489 87.9108 93.9513 87.9108H34.5493C32.7517 87.9108 31.2944 86.4535 31.2944 84.6559V70.0088Z" fill="#4482E6"/>
<path d="M77.2759 83.2456V82.114H78.0007C78.2126 82.114 78.3842 82.0525 78.5156 81.9296C78.6512 81.8109 78.7699 81.6139 78.8716 81.3384L79.1768 80.5437L76.583 73.875H78.0197L79.3611 77.5558C79.4501 77.8059 79.537 78.0581 79.6218 78.3123C79.7065 78.5624 79.7892 78.8124 79.8697 79.0625C79.9502 78.8124 80.0329 78.5624 80.1176 78.3123C80.2066 78.0581 80.2956 77.8059 80.3846 77.5558L81.7069 73.875H83.1246L80.0731 81.7643C79.6959 82.7518 79.0475 83.2456 78.1278 83.2456H77.2759Z" fill="white"/>
<path d="M69.9395 83.2443V73.8737H71.2554V74.84H71.2745C71.4864 74.4713 71.7767 74.1958 72.1454 74.0136C72.5141 73.8314 72.9168 73.7402 73.3533 73.7402C73.9297 73.7402 74.4361 73.8886 74.8727 74.1852C75.3092 74.4777 75.6482 74.8867 75.8898 75.4122C76.1356 75.9335 76.2585 76.5395 76.2585 77.2304C76.2585 77.9212 76.1378 78.5293 75.8962 79.0549C75.6546 79.5762 75.3156 79.9852 74.879 80.2818C74.4425 80.5743 73.9318 80.7205 73.3469 80.7205C72.9104 80.7205 72.5163 80.6251 72.1645 80.4344C71.8127 80.2437 71.5245 79.9576 71.2999 79.5762H71.2808V83.2443H69.9395ZM73.0736 79.5635C73.6161 79.5635 74.0547 79.3643 74.3895 78.9659C74.7286 78.5675 74.8981 77.989 74.8981 77.2304C74.8981 76.4717 74.7286 75.8932 74.3895 75.4948C74.0547 75.0922 73.6161 74.8909 73.0736 74.8909C72.5014 74.8909 72.0437 75.1049 71.7004 75.533C71.3614 75.9568 71.1918 76.5226 71.1918 77.2304C71.1918 77.9339 71.3614 78.4997 71.7004 78.9277C72.0437 79.3516 72.5014 79.5635 73.0736 79.5635Z" fill="white"/>
<path d="M67.6888 80.696C67.443 80.696 67.2332 80.6113 67.0595 80.4418C66.8899 80.268 66.8052 80.0561 66.8052 79.806C66.8052 79.5602 66.8899 79.3504 67.0595 79.1767C67.2332 79.0029 67.443 78.916 67.6888 78.916C67.9389 78.916 68.1487 79.0029 68.3182 79.1767C68.492 79.3504 68.5788 79.5602 68.5788 79.806C68.5788 80.0561 68.492 80.268 68.3182 80.4418C68.1487 80.6113 67.9389 80.696 67.6888 80.696Z" fill="white"/>
<path d="M59.4629 83.2443V73.8737H60.7788V74.84H60.7979C61.0098 74.4713 61.3001 74.1958 61.6688 74.0136C62.0376 73.8314 62.4402 73.7402 62.8767 73.7402C63.4531 73.7402 63.9596 73.8886 64.3961 74.1852C64.8326 74.4777 65.1717 74.8867 65.4133 75.4122C65.6591 75.9335 65.782 76.5395 65.782 77.2304C65.782 77.9212 65.6612 78.5293 65.4196 79.0549C65.178 79.5762 64.839 79.9852 64.4025 80.2818C63.9659 80.5743 63.4552 80.7205 62.8704 80.7205C62.4338 80.7205 62.0397 80.6251 61.6879 80.4344C61.3362 80.2437 61.048 79.9576 60.8233 79.5762H60.8043V83.2443H59.4629ZM62.597 79.5635C63.1395 79.5635 63.5781 79.3643 63.913 78.9659C64.252 78.5675 64.4215 77.989 64.4215 77.2304C64.4215 76.4717 64.252 75.8932 63.913 75.4948C63.5781 75.0922 63.1395 74.8909 62.597 74.8909C62.0249 74.8909 61.5671 75.1049 61.2238 75.533C60.8848 75.9568 60.7153 76.5226 60.7153 77.2304C60.7153 77.9339 60.8848 78.4997 61.2238 78.9277C61.5671 79.3516 62.0249 79.5635 62.597 79.5635Z" fill="white"/>
<path d="M51.9614 83.2443V73.8737H53.2774V74.84H53.2964C53.5084 74.4713 53.7987 74.1958 54.1674 74.0136C54.5361 73.8314 54.9387 73.7402 55.3753 73.7402C55.9516 73.7402 56.4581 73.8886 56.8946 74.1852C57.3312 74.4777 57.6702 74.8867 57.9118 75.4122C58.1576 75.9335 58.2805 76.5395 58.2805 77.2304C58.2805 77.9212 58.1597 78.5293 57.9182 79.0549C57.6766 79.5762 57.3375 79.9852 56.901 80.2818C56.4645 80.5743 55.9538 80.7205 55.3689 80.7205C54.9324 80.7205 54.5382 80.6251 54.1865 80.4344C53.8347 80.2437 53.5465 79.9576 53.3219 79.5762H53.3028V83.2443H51.9614ZM55.0955 79.5635C55.638 79.5635 56.0767 79.3643 56.4115 78.9659C56.7505 78.5675 56.9201 77.989 56.9201 77.2304C56.9201 76.4717 56.7505 75.8932 56.4115 75.4948C56.0767 75.0922 55.638 74.8909 55.0955 74.8909C54.5234 74.8909 54.0657 75.1049 53.7224 75.533C53.3833 75.9568 53.2138 76.5226 53.2138 77.2304C53.2138 77.9339 53.3833 78.4997 53.7224 78.9277C54.0657 79.3516 54.5234 79.5635 55.0955 79.5635Z" fill="white"/>
<path d="M47.1178 80.695C46.4481 80.695 45.8929 80.5255 45.4522 80.1865C45.0114 79.8432 44.791 79.3367 44.791 78.6671C44.791 78.1585 44.916 77.7686 45.1661 77.4974C45.4204 77.2219 45.7488 77.0248 46.1515 76.9061C46.5583 76.7875 46.9885 76.7006 47.442 76.6455C47.8616 76.5946 48.1943 76.5522 48.4401 76.5183C48.6859 76.4844 48.8596 76.4336 48.9614 76.3658C49.0673 76.298 49.1203 76.1814 49.1203 76.0161V75.9589C49.1203 75.6326 49.0016 75.3656 48.7643 75.1579C48.5269 74.946 48.1943 74.84 47.7662 74.84C47.3381 74.84 46.9885 74.9439 46.7173 75.1515C46.446 75.355 46.2977 75.6114 46.2723 75.9208H44.9563C44.986 75.2808 45.2551 74.7574 45.7637 74.3505C46.2723 73.9437 46.9461 73.7402 47.7853 73.7402C48.6117 73.7402 49.2623 73.9437 49.7369 74.3505C50.2116 74.7574 50.449 75.302 50.449 75.9843V80.587H49.1266V79.6334H49.1012C48.9614 79.9046 48.7389 80.1504 48.4337 80.3708C48.1328 80.587 47.6942 80.695 47.1178 80.695ZM47.3911 79.6143C47.9845 79.6143 48.421 79.4617 48.7007 79.1566C48.9847 78.8472 49.1266 78.487 49.1266 78.0759V77.2876C49.0376 77.3596 48.8363 77.4253 48.5227 77.4846C48.2091 77.5397 47.8743 77.5927 47.5183 77.6436C47.1495 77.6987 46.8253 77.8025 46.5456 77.9551C46.2659 78.1077 46.126 78.3535 46.126 78.6925C46.126 78.9807 46.2383 79.2075 46.463 79.3727C46.6918 79.5338 47.0012 79.6143 47.3911 79.6143Z" fill="white"/>
<path d="M55.1979 41.8949C55.0584 41.4482 54.7235 41.0853 54.3046 40.8621L45.791 36.7863C45.5679 36.6744 45.3166 36.6465 45.0932 36.6465C44.8698 36.6465 44.6187 36.6465 44.3953 36.7024L35.8817 40.8062C35.6719 40.9022 35.487 41.0454 35.3416 41.2245C35.1961 41.4036 35.0939 41.6139 35.0431 41.839L32.9485 51.0236C32.9072 51.2561 32.9132 51.4946 32.9659 51.7248C33.0187 51.955 33.1173 52.1723 33.2557 52.3636L39.1461 59.6497C39.4811 59.985 39.9555 60.2088 40.4303 60.236H49.8102C50.3127 60.292 50.7871 60.0686 51.0944 59.6497L56.9848 52.3636C57.2601 51.9745 57.3796 51.4964 57.3197 51.0236L55.1979 41.8949V41.8949Z" fill="#326DE6"/>
<path d="M53.8903 50.6625C53.8624 50.6625 53.8344 50.6625 53.8344 50.6345C53.8344 50.6066 53.7785 50.6076 53.7216 50.6076C53.61 50.5796 53.4985 50.5796 53.3866 50.5796C53.3294 50.584 53.2719 50.5744 53.2192 50.5517H53.1912C52.8706 50.5229 52.5531 50.4669 52.242 50.3842C52.1975 50.3672 52.1571 50.3411 52.1235 50.3074C52.0898 50.2737 52.0637 50.2333 52.0468 50.1888L51.8234 50.1329C51.935 49.3234 51.8791 48.4858 51.7116 47.6764C51.5146 46.8646 51.1845 46.091 50.7347 45.3871L50.9032 45.2199V45.1919C50.9032 45.1081 50.9312 44.9965 50.9868 44.9406C51.2382 44.7174 51.4895 44.55 51.7685 44.3815L51.936 44.2979C52.0478 44.242 52.1315 44.186 52.243 44.1304C52.271 44.1024 52.2989 44.1024 52.3269 44.0745C52.3548 44.0465 52.3269 44.0465 52.3269 44.0186C52.578 43.8221 52.6339 43.4879 52.4384 43.2376C52.3909 43.1792 52.3315 43.1317 52.2641 43.098C52.1968 43.0643 52.1231 43.0453 52.0478 43.0422C51.906 43.0458 51.7691 43.0947 51.657 43.1817V43.1817L51.629 43.2096C51.6011 43.2376 51.5731 43.2653 51.5452 43.2653C51.4615 43.3492 51.3777 43.433 51.3218 43.5166C51.2941 43.5726 51.2382 43.6005 51.2102 43.6285C51.0045 43.8618 50.77 44.0681 50.5123 44.2425C50.4564 44.2704 50.4005 44.2984 50.3449 44.2984C50.3169 44.2984 50.261 44.2984 50.233 44.2704H50.2053L49.982 44.4099C49.7586 44.1865 49.5072 43.9634 49.2841 43.74C48.251 42.9303 46.9669 42.4279 45.6548 42.2884L45.6268 42.065V42.093C45.5432 42.0371 45.5152 41.9534 45.4873 41.8696C45.4873 41.5626 45.4873 41.2553 45.5432 40.9204V40.8924C45.5432 40.8368 45.5711 40.7809 45.5711 40.7249C45.5991 40.6134 45.5991 40.5018 45.6268 40.39V40.2225C45.6548 39.943 45.4314 39.6634 45.1523 39.6362C44.9848 39.6083 44.8174 39.6921 44.6779 39.8316C44.6254 39.8824 44.5836 39.9432 44.5548 40.0103C44.526 40.0773 44.5108 40.1495 44.5101 40.2225V40.2225V40.362C44.5101 40.4739 44.5381 40.5854 44.566 40.697C44.5888 40.7498 44.5984 40.8074 44.594 40.8647V40.8924C44.6489 41.1989 44.6489 41.5059 44.6489 41.8398C44.6209 41.9237 44.593 42.0073 44.5091 42.0632V42.1194L44.4814 42.3428C44.1741 42.3705 43.8672 42.4264 43.5322 42.4823C42.2201 42.7619 41.0195 43.4592 40.0983 44.4364L39.9308 44.3248H39.9029C39.8752 44.3248 39.8472 44.3528 39.7913 44.3528C39.7354 44.3528 39.6797 44.3248 39.6238 44.2968C39.3719 44.1047 39.1383 43.8898 38.926 43.6546V43.6546C38.898 43.599 38.8421 43.571 38.8141 43.5431C38.7305 43.4592 38.6746 43.3756 38.591 43.2917C38.563 43.2638 38.5351 43.2638 38.5071 43.2361L38.4792 43.2081C38.3671 43.1211 38.2301 43.0723 38.0883 43.0686C37.9208 43.0686 37.7813 43.1243 37.6975 43.2638C37.6184 43.3856 37.5862 43.5319 37.6068 43.6756C37.6274 43.8193 37.6993 43.9507 37.8093 44.0455C37.813 44.0454 37.8166 44.0461 37.8201 44.0475C37.8235 44.0489 37.8266 44.0509 37.8292 44.0535C37.8318 44.0561 37.8339 44.0593 37.8352 44.0627C37.8366 44.0661 37.8373 44.0698 37.8372 44.0735C37.8372 44.0735 37.8929 44.1294 37.9208 44.1294C38.02 44.1909 38.1226 44.2469 38.2281 44.2968L38.3971 44.3812C38.6766 44.5489 38.9562 44.7164 39.1786 44.9403C39.2345 44.9962 39.2904 45.1078 39.2624 45.1917V45.1637L39.4299 45.3312C39.402 45.3871 39.374 45.415 39.3463 45.471C38.4802 46.838 38.1175 48.4571 38.3686 50.0485L38.1452 50.1041C38.1453 50.1078 38.1446 50.1115 38.1433 50.1149C38.1419 50.1183 38.1398 50.1215 38.1372 50.1241C38.1346 50.1267 38.1315 50.1287 38.1281 50.1301C38.1246 50.1315 38.121 50.1322 38.1173 50.1321C38.0893 50.216 38.0057 50.2716 37.9219 50.3275C37.6118 50.4127 37.2944 50.4688 36.9739 50.495V50.495C36.9167 50.4906 36.8592 50.5002 36.8064 50.523C36.6949 50.523 36.5833 50.5509 36.4715 50.5509C36.4435 50.5509 36.4156 50.5789 36.3599 50.5789C36.332 50.5789 36.332 50.5789 36.304 50.6068C36.2319 50.6184 36.1629 50.6444 36.101 50.6832C36.0391 50.7221 35.9857 50.7729 35.9438 50.8328C35.902 50.8927 35.8727 50.9604 35.8575 51.0318C35.8424 51.1033 35.8418 51.1771 35.8557 51.2488V51.2488C35.9116 51.5001 36.163 51.6676 36.4148 51.6396C36.4631 51.644 36.5117 51.6343 36.5546 51.6117V51.6117C36.5826 51.6117 36.5826 51.6117 36.5826 51.5837C36.5826 51.5558 36.6662 51.5837 36.6941 51.5837C36.8057 51.5558 36.9175 51.5001 37.0011 51.4722C37.057 51.4442 37.1129 51.4163 37.1686 51.4163H37.1965C37.4948 51.3032 37.8032 51.2191 38.1175 51.1652H38.1455C38.228 51.1629 38.3082 51.1929 38.3689 51.2488C38.3726 51.2487 38.3762 51.2494 38.3797 51.2508C38.3831 51.2521 38.3862 51.2542 38.3888 51.2568C38.3914 51.2594 38.3935 51.2625 38.3949 51.266C38.3962 51.2694 38.3969 51.273 38.3968 51.2767V51.2767L38.6479 51.2488C39.0667 52.5329 39.8485 53.6776 40.9372 54.515C41.1885 54.7104 41.4117 54.8779 41.691 55.0176L41.5515 55.2131C41.5514 55.2167 41.5521 55.2204 41.5534 55.2237C41.5548 55.2271 41.5568 55.2302 41.5594 55.2328C41.562 55.2354 41.5651 55.2374 41.5685 55.2388C41.5719 55.2402 41.5755 55.2408 41.5792 55.2408C41.6351 55.3246 41.6351 55.4362 41.6071 55.5203C41.4955 55.7999 41.3276 56.0794 41.1606 56.33V56.3577C41.1326 56.4136 41.1047 56.4416 41.0488 56.4975C40.9929 56.5534 40.9372 56.665 40.8533 56.777C40.8254 56.805 40.8254 56.8329 40.7977 56.8609C40.7977 56.8646 40.7971 56.8682 40.7957 56.8716C40.7943 56.875 40.7922 56.8781 40.7896 56.8807C40.787 56.8833 40.7839 56.8854 40.7805 56.8867C40.7771 56.8881 40.7734 56.8887 40.7697 56.8886C40.6302 57.1681 40.7418 57.5028 40.9931 57.6424C41.0539 57.6738 41.1203 57.6928 41.1885 57.6983C41.4117 57.6983 41.6071 57.5588 41.7189 57.3633C41.7188 57.3596 41.7195 57.356 41.7208 57.3526C41.7222 57.3491 41.7242 57.346 41.7268 57.3434C41.7294 57.3408 41.7325 57.3387 41.7359 57.3374C41.7393 57.336 41.7429 57.3353 41.7466 57.3354C41.7466 57.3074 41.7746 57.2795 41.8025 57.2518C41.8305 57.1399 41.8864 57.0563 41.9144 56.9445L41.97 56.777C42.0539 56.47 42.1934 56.1907 42.3329 55.9117C42.3869 55.8328 42.4655 55.7739 42.5563 55.7442C42.5843 55.7442 42.5843 55.7442 42.5843 55.7163L42.6958 55.4929C43.4776 55.7999 44.2872 55.9396 45.1246 55.9396C45.6334 55.9431 46.1402 55.8771 46.6312 55.7435C46.9381 55.6875 47.2454 55.576 47.5244 55.4921L47.636 55.6875C47.664 55.6875 47.664 55.6875 47.664 55.7155C47.7549 55.7452 47.8334 55.804 47.8874 55.883C48.0269 56.1625 48.1669 56.4421 48.2503 56.747V56.775L48.3062 56.9425C48.3341 57.0543 48.3621 57.1659 48.4177 57.2495C48.4457 57.2774 48.4457 57.3054 48.4736 57.3333C48.4736 57.337 48.4743 57.3407 48.4756 57.3441C48.477 57.3475 48.4791 57.3506 48.4817 57.3533C48.4843 57.3559 48.4874 57.3579 48.4908 57.3593C48.4942 57.3607 48.4979 57.3614 48.5016 57.3613V57.3613C48.6134 57.558 48.8094 57.698 49.0328 57.698C49.1164 57.698 49.1723 57.6701 49.2561 57.6421C49.3677 57.5865 49.4793 57.4746 49.5072 57.3351C49.5399 57.1958 49.5301 57.05 49.4793 56.9163V56.9163C49.4794 56.9126 49.4787 56.909 49.4774 56.9055C49.476 56.9021 49.474 56.899 49.4714 56.8964C49.4688 56.8938 49.4657 56.8917 49.4623 56.8903C49.4589 56.8889 49.4552 56.8883 49.4516 56.8883C49.4516 56.8606 49.4236 56.8327 49.3957 56.8047C49.3469 56.7011 49.2808 56.6066 49.2002 56.5252C49.1723 56.4695 49.1443 56.4416 49.0887 56.3857V56.33C48.8932 56.0787 48.7535 55.7994 48.6419 55.5203C48.6139 55.4365 48.6139 55.3249 48.6698 55.2408C48.6698 55.2371 48.6704 55.2334 48.6718 55.23C48.6732 55.2266 48.6753 55.2235 48.6779 55.2209C48.6805 55.2183 48.6836 55.2163 48.687 55.215C48.6905 55.2136 48.6941 55.213 48.6978 55.2131V55.2131L48.6139 54.9897C50.0371 54.1241 51.1266 52.7843 51.629 51.1929L51.8524 51.2208C51.8561 51.2209 51.8597 51.2202 51.8631 51.2188C51.8666 51.2174 51.8697 51.2154 51.8722 51.2128C51.8748 51.2102 51.8769 51.207 51.8782 51.2036C51.8796 51.2002 51.8802 51.1965 51.8801 51.1929C51.9409 51.1371 52.021 51.1071 52.1035 51.1093H52.1314C52.4368 51.1633 52.736 51.2474 53.0247 51.3603H53.0527C53.1086 51.3883 53.1643 51.4163 53.2202 51.4163C53.332 51.4722 53.4156 51.5281 53.5272 51.5558C53.5551 51.5558 53.5831 51.5837 53.639 51.5837C53.6669 51.5837 53.6669 51.5837 53.6949 51.6117C53.7377 51.6343 53.7862 51.644 53.8344 51.6396C53.956 51.638 54.0743 51.5998 54.174 51.5301C54.2737 51.4604 54.3502 51.3624 54.3935 51.2488C54.3822 51.1106 54.3275 50.9795 54.2373 50.8743C54.147 50.769 54.0259 50.6949 53.8911 50.6625H53.8903ZM45.8222 49.7984L45.0685 50.1613L44.3149 49.7984L44.1195 48.9887L44.6489 48.3176H45.4875L46.0179 48.9875L45.8222 49.7984ZM50.3728 47.9839C50.5071 48.5599 50.5448 49.1542 50.4844 49.7425L47.8322 48.9875C47.5811 48.9318 47.4416 48.6805 47.4973 48.4284C47.5174 48.3548 47.5559 48.2876 47.6091 48.2329L49.7027 46.3348C50.0112 46.8454 50.2374 47.4015 50.3728 47.9826V47.9839ZM48.8653 45.3025L46.576 46.9226C46.3806 47.0342 46.1015 47.0062 45.962 46.8108C45.9347 46.7862 45.9131 46.756 45.8986 46.7223C45.8842 46.6885 45.8772 46.652 45.8781 46.6153L45.7107 43.7959C46.9389 43.9355 48.0276 44.4658 48.8653 45.3032V45.3025ZM43.8123 43.8793L44.3714 43.7677L44.2318 46.5594C44.2318 46.8105 44.0085 47.0059 43.7574 47.0059C43.6735 47.0059 43.6176 46.978 43.534 46.95L41.2168 45.303C41.9418 44.6046 42.8354 44.1017 43.8123 43.8788V43.8793ZM40.4068 46.336L42.4727 48.1785C42.6679 48.346 42.6958 48.6251 42.5284 48.8205C42.4727 48.9044 42.4168 48.9323 42.305 48.9603L39.5969 49.7412C39.5145 48.5501 39.797 47.3622 40.4066 46.3355L40.4068 46.336ZM39.9318 51.0533L42.6956 50.5789C42.919 50.5789 43.1424 50.7184 43.1703 50.9418C43.1983 51.0254 43.1983 51.1372 43.1424 51.2213L42.0821 53.7891C41.1044 53.1472 40.3227 52.17 39.9318 51.0533ZM46.269 54.515C45.8781 54.5988 45.4873 54.6547 45.0685 54.6547C44.4824 54.6547 43.8682 54.5429 43.3098 54.3752L44.6779 51.8907C44.8174 51.7233 45.0408 51.6673 45.237 51.7789C45.318 51.836 45.3928 51.9015 45.4601 51.9743L46.8002 54.4031C46.621 54.4299 46.4437 54.4672 46.269 54.515V54.515ZM49.6744 52.0864C49.2489 52.7633 48.6765 53.3357 47.9997 53.7612L46.9107 51.1372C46.855 50.9138 46.9666 50.6904 47.162 50.6068C47.2459 50.5789 47.3295 50.5509 47.4134 50.5509L50.2051 51.0254C50.0656 51.4163 49.8981 51.7792 49.6747 52.0864H49.6744Z" fill="white"/>
<path d="M82.5527 53.8758C80.7981 53.8758 79.6475 52.4772 79.6475 50.373C79.6475 48.3132 80.8235 46.8829 82.54 46.8829C83.4109 46.8829 84.0848 47.2261 84.5171 47.9509H84.5235V44.2637H86.3925V53.7359H84.5489V52.7061H84.5425C84.1547 53.488 83.4364 53.8758 82.5527 53.8758ZM83.0359 52.3501C83.9831 52.3501 84.6125 51.5745 84.6125 50.373C84.6125 49.1778 83.9831 48.3959 83.0359 48.3959C82.1268 48.3959 81.5356 49.1142 81.5356 50.373C81.5356 51.6317 82.1268 52.3501 83.0359 52.3501Z" fill="black"/>
<path d="M75.489 53.8875C73.4547 53.8875 72.0815 52.4889 72.0815 50.3847C72.0815 48.2804 73.4547 46.8691 75.489 46.8691C77.5297 46.8691 78.9029 48.2804 78.9029 50.3847C78.9029 52.4889 77.5297 53.8875 75.489 53.8875ZM75.489 52.3681C76.4045 52.3681 77.0148 51.6307 77.0148 50.3847C77.0148 49.1323 76.3981 48.3885 75.489 48.3885C74.5863 48.3885 73.9696 49.1323 73.9696 50.3847C73.9696 51.6307 74.5799 52.3681 75.489 52.3681Z" fill="black"/>
<path d="M64.5483 53.7359V44.2637H68.2864C70.4161 44.2637 71.7511 45.4652 71.7511 47.3724C71.7511 49.2795 70.3906 50.481 68.261 50.481H66.5064V53.7359H64.5483ZM66.5064 48.8409H68.1592C69.1955 48.8409 69.8376 48.2751 69.8376 47.3724C69.8376 46.4696 69.1955 45.9038 68.1592 45.9038H66.5064V48.8409Z" fill="black"/>
<defs>
<linearGradient id="paint0_linear_215_10860" x1="64.25" y1="22" x2="64.25" y2="105" gradientUnits="userSpaceOnUse">
<stop stop-color="#F0F7FD"/>
<stop offset="1" stop-color="#F9FCFF"/>
</linearGradient>
</defs>
</svg>
