<svg width="128" height="128" viewBox="0 0 128 128" fill="none" xmlns="http://www.w3.org/2000/svg">
<path d="M1 24.4706C1 23.1061 2.10612 22 3.47059 22H124.529C125.894 22 127 23.1061 127 24.4706V103.529C127 104.894 125.894 106 124.529 106H3.47059C2.10612 106 1 104.894 1 103.529V24.4706Z" fill="url(#paint0_linear_215_10976)"/>
<path d="M124.529 104.353V106H3.47059V104.353H124.529ZM125.353 103.529V24.4706C125.353 24.0158 124.984 23.6471 124.529 23.6471H3.47059C3.01577 23.6471 2.64706 24.0158 2.64706 24.4706V103.529C2.64706 103.984 3.01577 104.353 3.47059 104.353V106L3.34352 105.997C2.0381 105.931 1 104.851 1 103.529V24.4706C1 23.1061 2.10612 22 3.47059 22H124.529L124.656 22.0032C125.962 22.0694 127 23.1487 127 24.4706V103.529L126.997 103.656C126.933 104.92 125.92 105.933 124.656 105.997L124.529 106V104.353C124.984 104.353 125.353 103.984 125.353 103.529Z" fill="#478ECC"/>
<path d="M30.6475 70.5871C30.6475 68.7678 32.1223 67.293 33.9416 67.293H94.0592C95.8785 67.293 97.3533 68.7678 97.3533 70.5871V85.4106C97.3533 87.2299 95.8785 88.7047 94.0592 88.7047H33.9416C32.1223 88.7047 30.6475 87.2299 30.6475 85.4106V70.5871Z" fill="#4482E6"/>
<path d="M80.2711 81.4467C79.6235 81.4467 79.0551 81.2966 78.5662 80.9963C78.0772 80.6961 77.6955 80.28 77.421 79.7482C77.1507 79.2163 77.0156 78.6029 77.0156 77.9081C77.0156 77.2047 77.1507 76.587 77.421 76.0551C77.6955 75.519 78.0772 75.1008 78.5662 74.8006C79.0551 74.496 79.6235 74.3438 80.2711 74.3438C80.9188 74.3438 81.485 74.496 81.9697 74.8006C82.4586 75.1008 82.8382 75.519 83.1085 76.0551C83.383 76.587 83.5202 77.2047 83.5202 77.9081C83.5202 78.6029 83.383 79.2163 83.1085 79.7482C82.8382 80.28 82.4586 80.6961 81.9697 80.9963C81.485 81.2966 80.9188 81.4467 80.2711 81.4467ZM80.2711 80.2757C80.8545 80.2757 81.3134 80.0613 81.648 79.6324C81.9825 79.2034 82.1498 78.6287 82.1498 77.9081C82.1498 77.1789 81.9804 76.5977 81.6415 76.1645C81.307 75.7313 80.8502 75.5147 80.2711 75.5147C79.6921 75.5147 79.2331 75.7313 78.8943 76.1645C78.5597 76.5934 78.3925 77.1746 78.3925 77.9081C78.3925 78.633 78.5597 79.2099 78.8943 79.6388C79.2289 80.0634 79.6878 80.2757 80.2711 80.2757Z" fill="white"/>
<path d="M72.7244 84.0719C71.8923 84.0719 71.2124 83.8875 70.6849 83.5186C70.1573 83.1497 69.8485 82.6329 69.7584 81.9681H71.1159C71.2017 82.2983 71.3883 82.5471 71.6757 82.7144C71.963 82.8817 72.3126 82.9653 72.7244 82.9653C73.2734 82.9653 73.7023 82.8173 74.0111 82.5214C74.32 82.2254 74.4744 81.8029 74.4744 81.2539V80.2245H74.4679C74.232 80.6191 73.9339 80.9108 73.5736 81.0995C73.2176 81.2882 72.8166 81.3826 72.3705 81.3826C71.7786 81.3826 71.2618 81.2346 70.82 80.9386C70.3782 80.6384 70.035 80.2266 69.7906 79.7034C69.5461 79.1758 69.4238 78.5667 69.4238 77.8761C69.4238 77.1856 69.5461 76.5765 69.7906 76.0489C70.0393 75.5214 70.3846 75.1096 70.8264 74.8136C71.2682 74.5134 71.7808 74.3633 72.3641 74.3633C72.8059 74.3633 73.2112 74.4576 73.5801 74.6464C73.949 74.8351 74.2471 75.1311 74.4744 75.5342H74.4808V74.4984H75.819V81.2024C75.819 81.8887 75.6796 82.442 75.4009 82.8624C75.1221 83.2827 74.7489 83.5894 74.2814 83.7824C73.8138 83.9754 73.2948 84.0719 72.7244 84.0719ZM72.6472 80.2181C73.2262 80.2181 73.6873 80.0057 74.0304 79.5811C74.3779 79.1522 74.5516 78.5817 74.5516 77.8697C74.5516 77.1577 74.3779 76.5894 74.0304 76.1648C73.6873 75.7358 73.2262 75.5214 72.6472 75.5214C72.0982 75.5214 71.6521 75.723 71.3089 76.1261C70.9701 76.525 70.8007 77.1062 70.8007 77.8697C70.8007 78.6332 70.9701 79.2165 71.3089 79.6197C71.6521 80.0186 72.0982 80.2181 72.6472 80.2181Z" fill="white"/>
<path d="M67.4802 81.403C67.2315 81.403 67.0191 81.3172 66.8433 81.1457C66.6717 80.9698 66.5859 80.7554 66.5859 80.5023C66.5859 80.2535 66.6717 80.0412 66.8433 79.8653C67.0191 79.6895 67.2315 79.6016 67.4802 79.6016C67.7333 79.6016 67.9456 79.6895 68.1172 79.8653C68.293 80.0412 68.381 80.2535 68.381 80.5023C68.381 80.7554 68.293 80.9698 68.1172 81.1457C67.9456 81.3172 67.7333 81.403 67.4802 81.403Z" fill="white"/>
<path d="M59.1553 83.9818V74.4984H60.4871V75.4763H60.5064C60.7208 75.1032 61.0146 74.8244 61.3878 74.6399C61.761 74.4555 62.1684 74.3633 62.6102 74.3633C63.1936 74.3633 63.7061 74.5134 64.1479 74.8136C64.5897 75.1096 64.9328 75.5235 65.1773 76.0554C65.4261 76.583 65.5505 77.1963 65.5505 77.8955C65.5505 78.5946 65.4283 79.2101 65.1838 79.742C64.9393 80.2695 64.5961 80.6834 64.1544 80.9837C63.7126 81.2796 63.1957 81.4276 62.6038 81.4276C62.162 81.4276 61.7631 81.3311 61.4071 81.1381C61.0511 80.9451 60.7594 80.6556 60.5321 80.2695H60.5128V83.9818H59.1553ZM62.3271 80.2567C62.8762 80.2567 63.3201 80.0551 63.6589 79.6519C64.0021 79.2487 64.1737 78.6632 64.1737 77.8955C64.1737 77.1277 64.0021 76.5422 63.6589 76.139C63.3201 75.7315 62.8762 75.5278 62.3271 75.5278C61.7481 75.5278 61.2849 75.7444 60.9374 76.1776C60.5943 76.6065 60.4227 77.1792 60.4227 77.8955C60.4227 78.6075 60.5943 79.1801 60.9374 79.6133C61.2849 80.0422 61.7481 80.2567 62.3271 80.2567Z" fill="white"/>
<path d="M51.5635 83.9818V74.4984H52.8953V75.4763H52.9146C53.129 75.1032 53.4229 74.8244 53.796 74.6399C54.1692 74.4555 54.5767 74.3633 55.0184 74.3633C55.6018 74.3633 56.1143 74.5134 56.5561 74.8136C56.9979 75.1096 57.3411 75.5235 57.5855 76.0554C57.8343 76.583 57.9587 77.1963 57.9587 77.8955C57.9587 78.5946 57.8365 79.2101 57.592 79.742C57.3475 80.2695 57.0043 80.6834 56.5626 80.9837C56.1208 81.2796 55.6039 81.4276 55.012 81.4276C54.5702 81.4276 54.1713 81.3311 53.8153 81.1381C53.4593 80.9451 53.1676 80.6556 52.9403 80.2695H52.921V83.9818H51.5635ZM54.7354 80.2567C55.2844 80.2567 55.7283 80.0551 56.0672 79.6519C56.4103 79.2487 56.5819 78.6632 56.5819 77.8955C56.5819 77.1277 56.4103 76.5422 56.0672 76.139C55.7283 75.7315 55.2844 75.5278 54.7354 75.5278C54.1563 75.5278 53.6931 75.7444 53.3456 76.1776C53.0025 76.6065 52.8309 77.1792 52.8309 77.8955C52.8309 78.6075 53.0025 79.1801 53.3456 79.6133C53.6931 80.0422 54.1563 80.2567 54.7354 80.2567Z" fill="white"/>
<path d="M46.6614 81.4019C45.9837 81.4019 45.4218 81.2303 44.9758 80.8872C44.5297 80.5398 44.3066 80.0272 44.3066 79.3495C44.3066 78.8348 44.4332 78.4402 44.6862 78.1657C44.9436 77.8869 45.276 77.6874 45.6835 77.5673C46.0952 77.4472 46.5306 77.3593 46.9895 77.3035C47.4142 77.2521 47.7509 77.2092 47.9997 77.1749C48.2484 77.1405 48.4243 77.0891 48.5272 77.0205C48.6345 76.9518 48.6881 76.8339 48.6881 76.6666V76.6087C48.6881 76.2784 48.568 76.0082 48.3278 75.798C48.0876 75.5836 47.7509 75.4763 47.3177 75.4763C46.8845 75.4763 46.5306 75.5814 46.2561 75.7916C45.9816 75.9975 45.8315 76.257 45.8057 76.5701H44.4739C44.5039 75.9224 44.7763 75.3927 45.291 74.9809C45.8057 74.5692 46.4877 74.3633 47.337 74.3633C48.1734 74.3633 48.8318 74.5692 49.3122 74.9809C49.7925 75.3927 50.0327 75.9439 50.0327 76.6344V81.2925H48.6945V80.3274H48.6688C48.5272 80.6019 48.302 80.8507 47.9932 81.0738C47.6887 81.2925 47.2448 81.4019 46.6614 81.4019ZM46.9381 80.3081C47.5386 80.3081 47.9804 80.1537 48.2634 79.8449C48.5508 79.5318 48.6945 79.1672 48.6945 78.7511V77.9534C48.6044 78.0263 48.4007 78.0928 48.0833 78.1528C47.7659 78.2086 47.427 78.2622 47.0668 78.3136C46.6936 78.3694 46.3655 78.4745 46.0824 78.6289C45.7993 78.7833 45.6577 79.0321 45.6577 79.3752C45.6577 79.6669 45.7714 79.8964 45.9987 80.0636C46.2304 80.2266 46.5435 80.3081 46.9381 80.3081Z" fill="white"/>
<path d="M54.8389 42.1339C54.6977 41.6818 54.3587 41.3145 53.9348 41.0887L45.3187 36.9637C45.0928 36.8506 44.8385 36.8223 44.6124 36.8223C44.3863 36.8223 44.1322 36.8223 43.9061 36.8788L35.2899 41.0321C35.0776 41.1293 34.8905 41.2741 34.7433 41.4554C34.5961 41.6367 34.4927 41.8496 34.4412 42.0774L32.3213 51.3726C32.2796 51.6079 32.2856 51.8493 32.339 52.0823C32.3925 52.3152 32.4922 52.5351 32.6323 52.7288L38.5937 60.1027C38.9326 60.4419 39.4128 60.6685 39.8933 60.696H49.3863C49.8947 60.7526 50.3749 60.5265 50.6859 60.1027L56.6473 52.7288C56.9259 52.335 57.0468 51.8511 56.9862 51.3726L54.8389 42.1339V42.1339Z" fill="#326DE6"/>
<path d="M53.5155 51.0083C53.4872 51.0083 53.4589 51.0083 53.4589 50.98C53.4589 50.9517 53.4023 50.9527 53.3447 50.9527C53.2318 50.9244 53.1189 50.9244 53.0057 50.9244C52.9477 50.9289 52.8896 50.9192 52.8362 50.8961H52.8079C52.4835 50.867 52.1621 50.8103 51.8473 50.7266C51.8022 50.7095 51.7614 50.683 51.7273 50.6489C51.6933 50.6148 51.6668 50.5739 51.6497 50.5289L51.4237 50.4723C51.5366 49.6531 51.48 48.8054 51.3105 47.9862C51.1111 47.1646 50.777 46.3817 50.3218 45.6693L50.4923 45.5001V45.4718C50.4923 45.3869 50.5206 45.274 50.577 45.2174C50.8313 44.9916 51.0857 44.8221 51.3681 44.6516L51.5376 44.567C51.6508 44.5104 51.7354 44.4538 51.8483 44.3975C51.8766 44.3692 51.9049 44.3692 51.9332 44.3409C51.9615 44.3126 51.9332 44.3126 51.9332 44.2843C52.1873 44.0855 52.2439 43.7473 52.0461 43.4939C51.9979 43.4349 51.9378 43.3867 51.8696 43.3526C51.8015 43.3185 51.7269 43.2993 51.6508 43.2962C51.5072 43.2999 51.3686 43.3493 51.2552 43.4374V43.4374L51.2269 43.4657C51.1986 43.4939 51.1703 43.522 51.142 43.522C51.0574 43.6069 50.9725 43.6917 50.9159 43.7764C50.8879 43.8329 50.8313 43.8612 50.803 43.8895C50.5948 44.1257 50.3575 44.3345 50.0968 44.5109C50.0402 44.5392 49.9836 44.5675 49.9273 44.5675C49.899 44.5675 49.8424 44.5675 49.8141 44.5392H49.7861L49.56 44.6804C49.3339 44.4543 49.0795 44.2285 48.8537 44.0024C47.8082 43.183 46.5086 42.6745 45.1807 42.5333L45.1524 42.3072V42.3355C45.0677 42.2789 45.0394 42.1943 45.0112 42.1094C45.0112 41.7987 45.0112 41.4878 45.0677 41.1488V41.1205C45.0677 41.0642 45.096 41.0076 45.096 40.951C45.1243 40.8381 45.1243 40.7252 45.1524 40.612V40.4425C45.1807 40.1596 44.9546 39.8767 44.6722 39.8492C44.5027 39.8209 44.3332 39.9058 44.192 40.047C44.1389 40.0984 44.0966 40.1598 44.0674 40.2277C44.0383 40.2956 44.0229 40.3686 44.0222 40.4425V40.4425V40.5837C44.0222 40.6969 44.0505 40.8098 44.0788 40.9227C44.1018 40.9762 44.1115 41.0344 44.1071 41.0925V41.1205C44.1627 41.4307 44.1627 41.7414 44.1627 42.0793C44.1344 42.1642 44.1061 42.2488 44.0212 42.3054V42.3623L43.9932 42.5883C43.6822 42.6164 43.3715 42.673 43.0325 42.7295C41.7046 43.0125 40.4896 43.7182 39.5572 44.7072L39.3877 44.5942H39.3595C39.3314 44.5942 39.3031 44.6225 39.2465 44.6225C39.19 44.6225 39.1336 44.5942 39.0771 44.566C38.8221 44.3715 38.5857 44.154 38.3708 43.916V43.916C38.3425 43.8597 38.2859 43.8314 38.2576 43.8031C38.173 43.7182 38.1164 43.6336 38.0318 43.5487C38.0035 43.5204 37.9752 43.5204 37.9469 43.4924L37.9186 43.4641C37.8052 43.3761 37.6666 43.3266 37.5231 43.3229C37.3536 43.3229 37.2124 43.3792 37.1275 43.5204C37.0475 43.6437 37.0149 43.7918 37.0357 43.9372C37.0565 44.0827 37.1293 44.2157 37.2406 44.3116C37.2444 44.3115 37.2481 44.3122 37.2516 44.3136C37.255 44.315 37.2582 44.3171 37.2608 44.3197C37.2634 44.3224 37.2655 44.3255 37.2669 44.329C37.2683 44.3324 37.269 44.3361 37.2689 44.3399C37.2689 44.3399 37.3253 44.3965 37.3536 44.3965C37.4539 44.4588 37.5577 44.5154 37.6645 44.566L37.8355 44.6513C38.1185 44.8211 38.4014 44.9906 38.6264 45.2172C38.683 45.2738 38.7396 45.3867 38.7113 45.4716V45.4433L38.8808 45.6128C38.8525 45.6693 38.8242 45.6976 38.7962 45.7542C37.9197 47.1377 37.5526 48.7763 37.8067 50.3869L37.5807 50.4432C37.5807 50.447 37.5801 50.4507 37.5787 50.4541C37.5773 50.4576 37.5752 50.4607 37.5725 50.4634C37.5699 50.466 37.5667 50.4681 37.5633 50.4695C37.5598 50.4709 37.5561 50.4716 37.5524 50.4715C37.5241 50.5564 37.4395 50.6127 37.3546 50.6693C37.0408 50.7555 36.7196 50.8122 36.3952 50.8388V50.8388C36.3373 50.8343 36.2791 50.844 36.2257 50.8671C36.1128 50.8671 35.9999 50.8954 35.8868 50.8954C35.8585 50.8954 35.8302 50.9237 35.7738 50.9237C35.7455 50.9237 35.7455 50.9237 35.7173 50.952C35.6443 50.9637 35.5744 50.99 35.5118 51.0293C35.4492 51.0686 35.3951 51.1201 35.3527 51.1807C35.3104 51.2413 35.2807 51.3098 35.2654 51.3821C35.2501 51.4544 35.2494 51.5291 35.2636 51.6016V51.6016C35.3201 51.856 35.5745 52.0255 35.8294 51.9972C35.8783 52.0016 35.9274 51.9918 35.9709 51.9689V51.9689C35.9991 51.9689 35.9991 51.9689 35.9991 51.9406C35.9991 51.9123 36.0838 51.9406 36.1121 51.9406C36.225 51.9123 36.3381 51.856 36.4228 51.8277C36.4793 51.7994 36.5359 51.7711 36.5922 51.7711H36.6205C36.9224 51.6567 37.2345 51.5717 37.5526 51.517H37.5809C37.6644 51.5147 37.7456 51.545 37.807 51.6016C37.8107 51.6016 37.8144 51.6023 37.8179 51.6037C37.8214 51.6051 37.8245 51.6071 37.8272 51.6098C37.8298 51.6124 37.8319 51.6156 37.8333 51.619C37.8347 51.6225 37.8354 51.6262 37.8353 51.6299V51.6299L38.0894 51.6016C38.5133 52.9013 39.3044 54.0597 40.4063 54.9072C40.6606 55.105 40.8864 55.2745 41.1691 55.4159L41.0279 55.6137C41.0278 55.6174 41.0285 55.6211 41.0299 55.6245C41.0313 55.6279 41.0333 55.6311 41.036 55.6337C41.0386 55.6363 41.0417 55.6384 41.0451 55.6397C41.0486 55.6411 41.0522 55.6418 41.0559 55.6417C41.1125 55.7266 41.1125 55.8395 41.0842 55.9246C40.9713 56.2076 40.8013 56.4905 40.6323 56.7441V56.7721C40.604 56.8287 40.5758 56.857 40.5192 56.9136C40.4626 56.9702 40.4063 57.0831 40.3214 57.1965C40.2931 57.2248 40.2931 57.2531 40.2651 57.2814C40.2651 57.2851 40.2644 57.2888 40.263 57.2922C40.2616 57.2957 40.2596 57.2988 40.2569 57.3014C40.2543 57.3041 40.2511 57.3061 40.2477 57.3075C40.2442 57.3089 40.2405 57.3095 40.2368 57.3094C40.0956 57.5923 40.2085 57.9311 40.4628 58.0723C40.5244 58.1041 40.5916 58.1233 40.6606 58.1288C40.8864 58.1288 41.0842 57.9876 41.1974 57.7899C41.1973 57.7861 41.1979 57.7824 41.1993 57.779C41.2007 57.7755 41.2027 57.7724 41.2054 57.7697C41.208 57.7671 41.2111 57.765 41.2146 57.7636C41.218 57.7622 41.2217 57.7615 41.2254 57.7616C41.2254 57.7333 41.2537 57.705 41.282 57.6769C41.3103 57.5638 41.3669 57.4792 41.3952 57.366L41.4515 57.1965C41.5364 56.8858 41.6776 56.6031 41.8188 56.3207C41.8735 56.2409 41.9529 56.1813 42.0449 56.1512C42.0732 56.1512 42.0732 56.1512 42.0732 56.123L42.1861 55.8969C42.9772 56.2076 43.7967 56.349 44.6441 56.349C45.159 56.3525 45.672 56.2857 46.1688 56.1505C46.4795 56.0939 46.7905 55.981 47.0729 55.8961L47.1858 56.0939C47.2141 56.0939 47.2141 56.0939 47.2141 56.1222C47.3061 56.1522 47.3855 56.2118 47.4401 56.2917C47.5813 56.5746 47.7231 56.8575 47.8074 57.1662V57.1944L47.864 57.3639C47.8923 57.4771 47.9206 57.59 47.9769 57.6746C48.0052 57.7029 48.0052 57.7312 48.0335 57.7595C48.0334 57.7632 48.0341 57.767 48.0355 57.7704C48.0369 57.7739 48.039 57.777 48.0416 57.7797C48.0443 57.7823 48.0474 57.7844 48.0509 57.7858C48.0544 57.7872 48.0581 57.7879 48.0618 57.7878V57.7878C48.175 57.9869 48.3733 58.1286 48.5993 58.1286C48.684 58.1286 48.7405 58.1003 48.8254 58.072C48.9383 58.0157 49.0512 57.9025 49.0795 57.7613C49.1126 57.6204 49.1027 57.4728 49.0512 57.3374V57.3374C49.0513 57.3337 49.0507 57.33 49.0493 57.3266C49.048 57.3231 49.0459 57.3199 49.0433 57.3173C49.0407 57.3147 49.0375 57.3126 49.0341 57.3112C49.0306 57.3098 49.0269 57.3091 49.0232 57.3092C49.0232 57.2811 48.9949 57.2528 48.9666 57.2245C48.9173 57.1197 48.8504 57.024 48.7688 56.9416C48.7405 56.8853 48.7123 56.857 48.6559 56.8004V56.7441C48.4581 56.4897 48.3167 56.2071 48.2038 55.9246C48.1755 55.8398 48.1755 55.7269 48.2321 55.6417C48.232 55.638 48.2327 55.6343 48.2341 55.6309C48.2355 55.6274 48.2376 55.6243 48.2402 55.6217C48.2429 55.619 48.246 55.617 48.2495 55.6156C48.2529 55.6142 48.2566 55.6136 48.2604 55.6137V55.6137L48.1755 55.3876C49.6158 54.5116 50.7184 53.1556 51.2269 51.5451L51.453 51.5734C51.4567 51.5734 51.4604 51.5727 51.4638 51.5713C51.4673 51.5699 51.4704 51.5679 51.473 51.5652C51.4757 51.5626 51.4777 51.5594 51.4791 51.5559C51.4805 51.5525 51.4811 51.5488 51.481 51.5451C51.5425 51.4886 51.6236 51.4583 51.7071 51.4604H51.7354C52.0444 51.5151 52.3472 51.6003 52.6394 51.7146H52.6677C52.7243 51.7428 52.7806 51.7711 52.8372 51.7711C52.9504 51.8277 53.035 51.8843 53.1479 51.9123C53.1762 51.9123 53.2045 51.9406 53.2611 51.9406C53.2894 51.9406 53.2894 51.9406 53.3177 51.9689C53.361 51.9918 53.4101 52.0016 53.4589 51.9972C53.582 51.9955 53.7017 51.9569 53.8026 51.8864C53.9035 51.8158 53.9808 51.7167 54.0247 51.6016C54.0132 51.4618 53.9579 51.3292 53.8666 51.2226C53.7753 51.1161 53.6527 51.0411 53.5162 51.0083H53.5155ZM45.3501 50.1338L44.5873 50.5011L43.8247 50.1338L43.6269 49.3144L44.1627 48.6351H45.0114L45.5482 49.3131L45.3501 50.1338ZM49.9556 48.2974C50.0914 48.8803 50.1296 49.4818 50.0685 50.0772L47.3843 49.3131C47.1302 49.2568 46.989 49.0024 47.0453 48.7472C47.0657 48.6728 47.1047 48.6048 47.1585 48.5495L49.2773 46.6284C49.5896 47.1452 49.8185 47.708 49.9556 48.2961V48.2974ZM48.4298 45.5837L46.113 47.2233C45.9152 47.3362 45.6328 47.308 45.4916 47.1102C45.464 47.0853 45.4421 47.0547 45.4275 47.0206C45.4128 46.9864 45.4058 46.9495 45.4067 46.9124L45.2372 44.059C46.4803 44.2002 47.5821 44.737 48.4298 45.5845V45.5837ZM43.316 44.1434L43.8818 44.0305L43.7406 46.8558C43.7406 47.1099 43.5145 47.3077 43.2604 47.3077C43.1755 47.3077 43.1189 47.2794 43.0343 47.2511L40.6892 45.5842C41.423 44.8774 42.3273 44.3684 43.316 44.1429V44.1434ZM39.8695 46.6297L41.9603 48.4944C42.1578 48.6639 42.1861 48.9463 42.0166 49.1441C41.9603 49.229 41.9037 49.2573 41.7905 49.2856L39.0498 50.0759C38.9665 48.8705 39.2523 47.6682 39.8692 46.6292L39.8695 46.6297ZM39.3888 51.4039L42.1858 50.9237C42.4119 50.9237 42.638 51.0649 42.6663 51.2909C42.6946 51.3756 42.6946 51.4887 42.638 51.5739L41.5649 54.1726C40.5755 53.5229 39.7844 52.534 39.3888 51.4039ZM45.8023 54.9072C45.4067 54.992 45.0112 55.0486 44.5873 55.0486C43.9942 55.0486 43.3725 54.9355 42.8075 54.7657L44.192 52.2513C44.3332 52.0818 44.5593 52.0252 44.7578 52.1382C44.8398 52.196 44.9155 52.2623 44.9836 52.3359L46.3398 54.794C46.1586 54.8211 45.9791 54.8589 45.8023 54.9072V54.9072ZM49.2488 52.4494C48.8181 53.1344 48.2388 53.7137 47.5538 54.1443L46.4517 51.4887C46.3954 51.2627 46.5083 51.0366 46.7061 50.952C46.791 50.9237 46.8756 50.8954 46.9605 50.8954L49.7858 51.3756C49.6446 51.7711 49.4751 52.1384 49.249 52.4494H49.2488Z" fill="white"/>
<path d="M82.5233 54.2592C80.7475 54.2592 79.583 52.8437 79.583 50.7142C79.583 48.6296 80.7733 47.182 82.5104 47.182C83.3918 47.182 84.0738 47.5294 84.5113 48.2629H84.5178V44.5312H86.4093V54.1176H84.5435V53.0754H84.5371C84.1446 53.8667 83.4176 54.2592 82.5233 54.2592ZM83.0122 52.7151C83.9709 52.7151 84.6078 51.9301 84.6078 50.7142C84.6078 49.5046 83.9709 48.7132 83.0122 48.7132C82.0922 48.7132 81.4939 49.4403 81.4939 50.7142C81.4939 51.9881 82.0922 52.7151 83.0122 52.7151Z" fill="black"/>
<path d="M75.3743 54.2709C73.3155 54.2709 71.9258 52.8555 71.9258 50.7259C71.9258 48.5963 73.3155 47.168 75.3743 47.168C77.4396 47.168 78.8293 48.5963 78.8293 50.7259C78.8293 52.8555 77.4396 54.2709 75.3743 54.2709ZM75.3743 52.7332C76.3008 52.7332 76.9184 51.9869 76.9184 50.7259C76.9184 49.4584 76.2943 48.7057 75.3743 48.7057C74.4607 48.7057 73.8366 49.4584 73.8366 50.7259C73.8366 51.9869 74.4543 52.7332 75.3743 52.7332Z" fill="black"/>
<path d="M64.3018 54.1176V44.5312H68.0848C70.2402 44.5312 71.5913 45.7472 71.5913 47.6774C71.5913 49.6075 70.2144 50.8235 68.0591 50.8235H66.2834V54.1176H64.3018ZM66.2834 49.1636H67.9562C69.0049 49.1636 69.6547 48.591 69.6547 47.6774C69.6547 46.7638 69.0049 46.1912 67.9562 46.1912H66.2834V49.1636Z" fill="black"/>
<defs>
<linearGradient id="paint0_linear_215_10976" x1="64" y1="22" x2="64" y2="106" gradientUnits="userSpaceOnUse">
<stop stop-color="#F0F7FD"/>
<stop offset="1" stop-color="#F9FCFF"/>
</linearGradient>
</defs>
</svg>
