<svg width="128" height="128" viewBox="0 0 128 128" fill="none" xmlns="http://www.w3.org/2000/svg">
<path d="M2 25.36C2 23.5043 3.50432 22 5.36 22H122.12C123.976 22 125.48 23.5043 125.48 25.36V102.64C125.48 104.496 123.976 106 122.12 106H5.36C3.50432 106 2 104.496 2 102.64V25.36Z" fill="#E0F2FF"/>
<path d="M122.12 104.32V106H5.36V104.32H122.12ZM123.8 102.64V25.36C123.8 24.4322 123.048 23.68 122.12 23.68H5.36C4.43216 23.68 3.68 24.4322 3.68 25.36V102.64C3.68 103.568 4.43216 104.32 5.36 104.32V106C3.50432 106 2 104.496 2 102.64V25.36C2 23.5624 3.41167 22.0942 5.18691 22.0041L5.36 22H122.12L122.293 22.0041C124.068 22.0942 125.48 23.5624 125.48 25.36V102.64L125.476 102.813C125.386 104.588 123.918 106 122.12 106V104.32C123.048 104.32 123.8 103.568 123.8 102.64Z" fill="#3C89C1"/>
<path d="M85.573 52.3808C84.9693 52.3808 84.4421 52.2298 83.9914 51.928C83.5408 51.6217 83.1908 51.1995 82.9414 50.6614C82.6921 50.1189 82.5674 49.4911 82.5674 48.778C82.5674 48.0648 82.6921 47.4392 82.9414 46.9011C83.1952 46.3586 83.5474 45.9364 83.998 45.6345C84.4486 45.3283 84.9714 45.1752 85.5664 45.1752C86.0171 45.1752 86.4283 45.2692 86.8002 45.4573C87.1721 45.6455 87.4696 45.932 87.6927 46.317H87.7058V42.4648H89.0905V52.243H87.7321V51.1864H87.7189C87.4871 51.5889 87.183 51.8886 86.8068 52.0855C86.4349 52.2823 86.0236 52.3808 85.573 52.3808ZM85.8552 51.1864C86.4458 51.1864 86.9161 50.9677 87.2661 50.5302C87.6205 50.0883 87.7977 49.5042 87.7977 48.778C87.7977 48.0473 87.6205 47.4633 87.2661 47.0258C86.9161 46.5839 86.4458 46.363 85.8552 46.363C85.2952 46.363 84.8402 46.5708 84.4902 46.9864C84.1446 47.3977 83.9718 47.9948 83.9718 48.778C83.9718 49.5611 84.1446 50.1583 84.4902 50.5695C84.8402 50.9808 85.2952 51.1864 85.8552 51.1864Z" fill="black"/>
<path d="M78.3675 52.3973C77.7069 52.3973 77.1272 52.2442 76.6284 51.938C76.1297 51.6317 75.7403 51.2073 75.4603 50.6648C75.1847 50.1223 75.0469 49.4967 75.0469 48.788C75.0469 48.0705 75.1847 47.4405 75.4603 46.898C75.7403 46.3511 76.1297 45.9245 76.6284 45.6183C77.1272 45.3077 77.7069 45.1523 78.3675 45.1523C79.0281 45.1523 79.6056 45.3077 80.1 45.6183C80.5987 45.9245 80.9859 46.3511 81.2616 46.898C81.5416 47.4405 81.6816 48.0705 81.6816 48.788C81.6816 49.4967 81.5416 50.1223 81.2616 50.6648C80.9859 51.2073 80.5987 51.6317 80.1 51.938C79.6056 52.2442 79.0281 52.3973 78.3675 52.3973ZM78.3675 51.203C78.9625 51.203 79.4306 50.9842 79.7719 50.5467C80.1131 50.1092 80.2837 49.523 80.2837 48.788C80.2837 48.0442 80.1109 47.4514 79.7653 47.0095C79.4241 46.5677 78.9581 46.3467 78.3675 46.3467C77.7769 46.3467 77.3087 46.5677 76.9631 47.0095C76.6219 47.447 76.4512 48.0398 76.4512 48.788C76.4512 49.5273 76.6219 50.1158 76.9631 50.5533C77.3044 50.9864 77.7725 51.203 78.3675 51.203Z" fill="black"/>
<path d="M67.5732 52.243V42.4648H71.1957C72.2414 42.4648 73.0704 42.7383 73.6829 43.2852C74.2954 43.832 74.6017 44.5736 74.6017 45.5098C74.6017 46.1355 74.4595 46.678 74.1751 47.1373C73.8907 47.5923 73.4904 47.9445 72.9742 48.1939C72.4579 48.4389 71.8498 48.5614 71.1498 48.5614H69.0301V52.243H67.5732ZM69.0301 47.3014H71.1236C71.7536 47.3014 72.2501 47.1417 72.6132 46.8223C72.9807 46.4986 73.1645 46.0611 73.1645 45.5098C73.1645 44.9586 72.9807 44.5255 72.6132 44.2105C72.2501 43.8911 71.7536 43.7314 71.1236 43.7314H69.0301V47.3014Z" fill="black"/>
<path d="M58.361 37.5903C58.1922 37.0496 57.7868 36.6104 57.2799 36.3403L46.9761 31.4074C46.7061 31.2721 46.4019 31.2383 46.1315 31.2383C45.8612 31.2383 45.5573 31.2383 45.2869 31.3059L34.9832 36.2727C34.7292 36.3889 34.5055 36.5621 34.3295 36.7789C34.1534 36.9957 34.0298 37.2502 33.9682 37.5227L31.4331 48.6384C31.3832 48.9199 31.3904 49.2085 31.4543 49.4871C31.5182 49.7657 31.6375 50.0287 31.805 50.2603L38.934 59.0784C39.3394 59.4841 39.9136 59.7551 40.4882 59.788H51.8404C52.4485 59.8557 53.0228 59.5853 53.3946 59.0784L60.5236 50.2603C60.8567 49.7893 61.0014 49.2107 60.929 48.6384L58.361 37.5903V37.5903Z" fill="#326DE6"/>
<path d="M56.7783 48.1989C56.7445 48.1989 56.7107 48.1989 56.7107 48.1651C56.7107 48.1312 56.643 48.1325 56.5741 48.1325C56.4391 48.0986 56.304 48.0986 56.1687 48.0986C56.0994 48.104 56.0298 48.0923 55.966 48.0648H55.9322C55.5442 48.03 55.1599 47.9622 54.7834 47.8621C54.7296 47.8416 54.6807 47.8099 54.64 47.7691C54.5993 47.7284 54.5676 47.6794 54.5472 47.6256L54.2768 47.5579C54.4118 46.5783 54.3442 45.5645 54.1415 44.5849C53.903 43.6024 53.5035 42.6662 52.9592 41.8143L53.1631 41.6119V41.578C53.1631 41.4765 53.1969 41.3415 53.2643 41.2738C53.5685 41.0038 53.8727 40.8011 54.2104 40.5972L54.4131 40.496C54.5484 40.4283 54.6496 40.3607 54.7846 40.2933C54.8185 40.2595 54.8523 40.2595 54.8861 40.2256C54.92 40.1918 54.8861 40.1918 54.8861 40.158C55.19 39.9202 55.2577 39.5157 55.0212 39.2128C54.9636 39.1422 54.8917 39.0846 54.8102 39.0438C54.7287 39.003 54.6395 38.98 54.5484 38.9763C54.3768 38.9807 54.211 39.0399 54.0754 39.1451V39.1451L54.0415 39.179C54.0077 39.2128 53.9739 39.2463 53.94 39.2463C53.8388 39.3478 53.7373 39.4493 53.6697 39.5505C53.6361 39.6182 53.5685 39.652 53.5346 39.6858C53.2856 39.9682 53.0018 40.2179 52.69 40.4289C52.6224 40.4628 52.5547 40.4966 52.4874 40.4966C52.4535 40.4966 52.3858 40.4966 52.352 40.4628H52.3185L52.0481 40.6316C51.7778 40.3613 51.4736 40.0912 51.2035 39.8209C49.9532 38.8409 48.3991 38.2329 46.8111 38.064L46.7772 37.7936V37.8275C46.676 37.7598 46.6422 37.6586 46.6084 37.5571C46.6084 37.1856 46.6084 36.8137 46.676 36.4083V36.3745C46.676 36.3071 46.7099 36.2395 46.7099 36.1718C46.7437 36.0368 46.7437 35.9017 46.7772 35.7664V35.5637C46.8111 35.2254 46.5407 34.887 46.203 34.8541C46.0003 34.8203 45.7976 34.9218 45.6287 35.0907C45.5653 35.1521 45.5146 35.2256 45.4798 35.3068C45.4449 35.388 45.4266 35.4754 45.4257 35.5637V35.5637V35.7326C45.4257 35.8679 45.4596 36.0029 45.4934 36.138C45.5209 36.2019 45.5325 36.2716 45.5272 36.341V36.3745C45.5937 36.7454 45.5937 37.117 45.5937 37.5211C45.5598 37.6226 45.526 37.7238 45.4245 37.7915V37.8595L45.391 38.1298C45.0191 38.1633 44.6476 38.231 44.2422 38.2987C42.6542 38.637 41.2012 39.481 40.0862 40.6636L39.8835 40.5286H39.8497C39.8162 40.5286 39.7823 40.5624 39.7147 40.5624C39.647 40.5624 39.5797 40.5286 39.512 40.4948C39.2071 40.2623 38.9244 40.0021 38.6674 39.7175V39.7175C38.6336 39.6502 38.5659 39.6163 38.5321 39.5825C38.4309 39.481 38.3632 39.3798 38.262 39.2783C38.2282 39.2445 38.1943 39.2445 38.1605 39.2109L38.1267 39.1771C37.991 39.0718 37.8253 39.0127 37.6536 39.0082C37.4509 39.0082 37.2821 39.0756 37.1806 39.2445C37.085 39.3919 37.046 39.5689 37.0709 39.7429C37.0957 39.9168 37.1828 40.0759 37.3159 40.1906C37.3204 40.1905 37.3248 40.1913 37.329 40.193C37.3331 40.1946 37.3369 40.1971 37.34 40.2003C37.3432 40.2034 37.3457 40.2072 37.3473 40.2114C37.349 40.2155 37.3498 40.2199 37.3497 40.2244C37.3497 40.2244 37.4171 40.2921 37.4509 40.2921C37.571 40.3666 37.6951 40.4343 37.8228 40.4948L38.0273 40.5969C38.3657 40.7999 38.704 41.0026 38.9731 41.2735C39.0408 41.3412 39.1085 41.4762 39.0746 41.5777V41.5439L39.2773 41.7466C39.2435 41.8143 39.2096 41.8481 39.1761 41.9158C38.1279 43.5702 37.689 45.5298 37.9929 47.4558L37.7225 47.5232C37.7226 47.5276 37.7218 47.5321 37.7201 47.5362C37.7184 47.5403 37.716 47.5441 37.7128 47.5473C37.7096 47.5504 37.7059 47.5529 37.7017 47.5546C37.6976 47.5563 37.6932 47.5571 37.6887 47.557C37.6549 47.6585 37.5537 47.7258 37.4522 47.7935C37.0769 47.8966 36.6928 47.9644 36.3049 47.9962V47.9962C36.2356 47.9909 36.166 48.0025 36.1022 48.03C35.9672 48.03 35.8322 48.0639 35.6968 48.0639C35.663 48.0639 35.6292 48.0977 35.5618 48.0977C35.528 48.0977 35.528 48.0977 35.4941 48.1315C35.4069 48.1456 35.3233 48.177 35.2484 48.224C35.1735 48.271 35.1089 48.3326 35.0582 48.405C35.0076 48.4775 34.9721 48.5594 34.9538 48.6459C34.9355 48.7324 34.9347 48.8217 34.9516 48.9085V48.9085C35.0192 49.2127 35.3234 49.4154 35.6282 49.3815C35.6867 49.3868 35.7454 49.375 35.7974 49.3477V49.3477C35.8312 49.3477 35.8312 49.3477 35.8312 49.3139C35.8312 49.28 35.9324 49.3139 35.9663 49.3139C36.1013 49.28 36.2366 49.2127 36.3378 49.1788C36.4055 49.145 36.4732 49.1112 36.5405 49.1112H36.5743C36.9353 48.9744 37.3086 48.8726 37.689 48.8073H37.7228C37.8227 48.8045 37.9197 48.8408 37.9932 48.9085C37.9977 48.9084 38.0021 48.9092 38.0062 48.9109C38.0104 48.9126 38.0141 48.915 38.0173 48.9182C38.0205 48.9214 38.0229 48.9251 38.0246 48.9293C38.0263 48.9334 38.0271 48.9378 38.027 48.9423V48.9423L38.3309 48.9085C38.8378 50.4627 39.7839 51.848 41.1015 52.8614C41.4057 53.098 41.6758 53.3006 42.0138 53.4698L41.8449 53.7063C41.8449 53.7108 41.8457 53.7152 41.8473 53.7193C41.849 53.7234 41.8515 53.7271 41.8546 53.7302C41.8577 53.7334 41.8614 53.7358 41.8655 53.7375C41.8697 53.7391 41.874 53.7399 41.8785 53.7399C41.9461 53.8414 41.9461 53.9764 41.9123 54.0782C41.7773 54.4165 41.574 54.7549 41.3719 55.0581V55.0917C41.3381 55.1593 41.3042 55.1932 41.2366 55.2608C41.1689 55.3285 41.1015 55.4635 41 55.5992C40.9662 55.633 40.9662 55.6668 40.9327 55.7007C40.9328 55.7051 40.9319 55.7095 40.9303 55.7137C40.9286 55.7178 40.9261 55.7215 40.9229 55.7247C40.9198 55.7278 40.916 55.7303 40.9119 55.7319C40.9077 55.7335 40.9033 55.7343 40.8988 55.7342C40.73 56.0725 40.865 56.4776 41.1692 56.6464C41.2428 56.6845 41.3232 56.7075 41.4057 56.7141C41.6758 56.7141 41.9123 56.5453 42.0476 56.3087C42.0475 56.3043 42.0483 56.2999 42.0499 56.2957C42.0516 56.2916 42.054 56.2878 42.0572 56.2846C42.0603 56.2815 42.064 56.279 42.0682 56.2773C42.0723 56.2756 42.0767 56.2748 42.0812 56.2749C42.0812 56.2411 42.115 56.2072 42.1488 56.1737C42.1827 56.0384 42.2503 55.9372 42.2842 55.8018L42.3515 55.5992C42.453 55.2276 42.6219 54.8896 42.7907 54.5519C42.8561 54.4564 42.9511 54.3852 43.0611 54.3492C43.0949 54.3492 43.0949 54.3492 43.0949 54.3153L43.23 54.045C44.1761 54.4165 45.156 54.5857 46.1695 54.5857C46.7852 54.5898 47.3986 54.51 47.9928 54.3482C48.3643 54.2806 48.7362 54.1456 49.0739 54.0441L49.2089 54.2806C49.2427 54.2806 49.2427 54.2806 49.2427 54.3144C49.3527 54.3503 49.4478 54.4216 49.5131 54.5171C49.682 54.8554 49.8514 55.1938 49.9523 55.5629V55.5967L50.02 55.7994C50.0538 55.9347 50.0876 56.0697 50.155 56.1709C50.1888 56.2048 50.1888 56.2386 50.2227 56.2724C50.2226 56.2769 50.2234 56.2813 50.2251 56.2855C50.2268 56.2896 50.2292 56.2934 50.2324 56.2965C50.2356 56.2997 50.2393 56.3022 50.2435 56.3039C50.2476 56.3055 50.252 56.3064 50.2565 56.3063V56.3063C50.3918 56.5443 50.629 56.7138 50.8993 56.7138C51.0005 56.7138 51.0682 56.68 51.1697 56.6461C51.3047 56.5788 51.4397 56.4434 51.4736 56.2746C51.5131 56.106 51.5013 55.9295 51.4398 55.7677V55.7677C51.4399 55.7633 51.4391 55.7588 51.4375 55.7547C51.4358 55.7505 51.4334 55.7468 51.4302 55.7436C51.4271 55.7405 51.4234 55.738 51.4192 55.7363C51.4151 55.7346 51.4107 55.7338 51.4062 55.7339C51.4062 55.7003 51.3724 55.6665 51.3386 55.6327C51.2796 55.5073 51.1996 55.3928 51.102 55.2943C51.0682 55.227 51.0344 55.1932 50.967 55.1255V55.0581C50.7305 54.7539 50.5613 54.4159 50.4263 54.0782C50.3925 53.9767 50.3925 53.8417 50.4601 53.7399C50.46 53.7354 50.4609 53.731 50.4625 53.7269C50.4642 53.7227 50.4667 53.719 50.4699 53.7159C50.473 53.7127 50.4768 53.7103 50.4809 53.7086C50.4851 53.707 50.4895 53.7062 50.494 53.7063V53.7063L50.3925 53.436C52.1149 52.3884 53.4334 50.7668 54.0415 48.8408L54.3119 48.8746C54.3163 48.8747 54.3208 48.8739 54.3249 48.8722C54.329 48.8706 54.3328 48.8681 54.3359 48.8649C54.339 48.8617 54.3415 48.858 54.3431 48.8538C54.3448 48.8497 54.3455 48.8453 54.3454 48.8408C54.419 48.7733 54.5159 48.737 54.6158 48.7396H54.6496C55.0191 48.805 55.3812 48.9068 55.7307 49.0435H55.7646C55.8322 49.0773 55.8996 49.1112 55.9673 49.1112C56.1026 49.1788 56.2038 49.2465 56.3388 49.28C56.3726 49.28 56.4065 49.3139 56.4741 49.3139C56.508 49.3139 56.508 49.3139 56.5418 49.3477C56.5936 49.375 56.6523 49.3868 56.7107 49.3815C56.8578 49.3795 57.001 49.3333 57.1217 49.249C57.2423 49.1646 57.3349 49.046 57.3873 48.9085C57.3736 48.7412 57.3074 48.5826 57.1982 48.4552C57.089 48.3278 56.9424 48.2381 56.7793 48.1989H56.7783ZM47.0137 47.1531L46.1015 47.5924L45.1895 47.1531L44.953 46.1732L45.5937 45.3609H46.6087L47.2506 46.1717L47.0137 47.1531ZM52.5212 44.9571C52.6837 45.6542 52.7293 46.3734 52.6562 47.0855L49.4464 46.1717C49.1425 46.1043 48.9736 45.8001 49.041 45.495C49.0654 45.406 49.1119 45.3246 49.1763 45.2585L51.7101 42.9612C52.0836 43.5792 52.3573 44.2523 52.5212 44.9555V44.9571ZM50.6966 41.7118L47.926 43.6726C47.6895 43.8076 47.3518 43.7738 47.1829 43.5373C47.1499 43.5075 47.1238 43.471 47.1062 43.4302C47.0887 43.3893 47.0802 43.3452 47.0814 43.3008L46.8787 39.8885C48.3652 40.0574 49.6829 40.6993 50.6966 41.7128V41.7118ZM44.5811 39.9894L45.2578 39.8544L45.0889 43.2331C45.0889 43.537 44.8186 43.7735 44.5147 43.7735C44.4132 43.7735 44.3455 43.7397 44.2443 43.7058L41.4399 41.7124C42.3174 40.8672 43.3988 40.2585 44.5811 39.9888V39.9894ZM40.4596 42.9627L42.9599 45.1927C43.1961 45.3954 43.23 45.7331 43.0273 45.9696C42.9599 46.0711 42.8922 46.1049 42.7569 46.1388L39.4794 47.0839C39.3797 45.6424 39.7215 44.2046 40.4593 42.9621L40.4596 42.9627ZM39.8848 48.6719L43.2297 48.0977C43.5 48.0977 43.7704 48.2666 43.8042 48.5369C43.838 48.6381 43.838 48.7734 43.7704 48.8753L42.4872 51.983C41.3039 51.2061 40.3578 50.0234 39.8848 48.6719ZM47.5545 52.8614C47.0814 52.9629 46.6084 53.0306 46.1015 53.0306C45.3922 53.0306 44.6488 52.8953 43.9731 52.6923L45.6287 49.6854C45.7976 49.4827 46.068 49.4151 46.3054 49.5501C46.4035 49.6192 46.494 49.6985 46.5755 49.7866L48.1973 52.7261C47.9805 52.7585 47.7659 52.8036 47.5545 52.8614V52.8614ZM51.676 49.9222C51.161 50.7414 50.4682 51.4342 49.649 51.9492L48.3311 48.7735C48.2637 48.5031 48.3988 48.2327 48.6353 48.1315C48.7368 48.0977 48.838 48.0639 48.9395 48.0639L52.3182 48.6381C52.1493 49.1112 51.9466 49.5504 51.6763 49.9222H51.676Z" fill="white"/>
<path d="M10.4004 70.7155C10.4004 68.8598 11.9047 67.3555 13.7604 67.3555H113.72C115.576 67.3555 117.08 68.8598 117.08 70.7155V92.5555C117.08 94.4111 115.576 95.9155 113.72 95.9155H13.7604C11.9047 95.9155 10.4004 94.4111 10.4004 92.5555V70.7155Z" fill="#1071D3"/>
<path d="M91.5059 86.6755V79.7455H92.8315V80.8677H92.8577C92.9846 80.487 93.1837 80.1917 93.4549 79.9817C93.7305 79.7673 94.0893 79.6602 94.5312 79.6602C94.6362 79.6602 94.7324 79.6645 94.8199 79.6733C94.9074 79.682 94.9796 79.6886 95.0365 79.693V80.9858C94.984 80.9727 94.8899 80.9595 94.7543 80.9464C94.6187 80.9289 94.4699 80.9202 94.308 80.9202C93.9187 80.9202 93.584 81.0558 93.304 81.327C93.0284 81.5983 92.8905 82.0161 92.8905 82.5805V86.6755H91.5059Z" fill="white"/>
<path d="M87.1408 86.8387C86.4539 86.8387 85.8633 86.6834 85.3689 86.3728C84.8789 86.0622 84.5005 85.6356 84.2336 85.0931C83.9711 84.5462 83.8398 83.925 83.8398 83.2294C83.8398 82.525 83.9777 81.8994 84.2533 81.3525C84.5289 80.8056 84.9095 80.3769 85.3952 80.0662C85.8808 79.7512 86.4386 79.5938 87.0686 79.5938C87.7248 79.5938 88.2936 79.7469 88.7748 80.0531C89.2605 80.3594 89.6367 80.7859 89.9036 81.3328C90.1705 81.8753 90.3039 82.5031 90.3039 83.2162V83.5903H85.2048C85.2311 84.2159 85.4105 84.7212 85.743 85.1062C86.0798 85.4912 86.5523 85.6837 87.1605 85.6837C87.6155 85.6837 87.9895 85.5809 88.2827 85.3753C88.5758 85.1697 88.7705 84.9028 88.8667 84.5747H90.1989C90.1158 85.0209 89.9298 85.4147 89.6411 85.7559C89.3567 86.0972 88.998 86.3641 88.5648 86.5566C88.1361 86.7447 87.6614 86.8387 87.1408 86.8387ZM85.218 82.5403H88.952C88.8952 81.9891 88.7005 81.5537 88.368 81.2344C88.0355 80.9106 87.6067 80.7487 87.0817 80.7487C86.5567 80.7487 86.128 80.9106 85.7955 81.2344C85.4673 81.5537 85.2748 81.9891 85.218 82.5403Z" fill="white"/>
<path d="M78.0458 82.6872V86.6772H76.6611V79.7472H78.0196V80.7906C78.4921 80.0031 79.1899 79.6094 80.113 79.6094C80.5899 79.6094 81.0164 79.7144 81.3927 79.9244C81.7733 80.13 82.073 80.4363 82.2918 80.8431C82.5105 81.25 82.6199 81.7553 82.6199 82.3591V86.6772H81.2352V82.5297C81.2352 81.9741 81.1018 81.5563 80.8349 81.2763C80.568 80.9919 80.1961 80.8497 79.7193 80.8497C79.2468 80.8497 78.8486 80.9963 78.5249 81.2894C78.2055 81.5781 78.0458 82.0441 78.0458 82.6872Z" fill="white"/>
<path d="M73.7091 86.6756V79.7456H75.0938V86.6756H73.7091ZM74.3982 78.5512C74.1532 78.5512 73.9454 78.4703 73.7748 78.3084C73.6085 78.1422 73.5254 77.9409 73.5254 77.7047C73.5254 77.4641 73.6085 77.2628 73.7748 77.1009C73.9454 76.9347 74.1532 76.8516 74.3982 76.8516C74.6432 76.8516 74.851 76.9347 75.0216 77.1009C75.1923 77.2628 75.2776 77.4641 75.2776 77.7047C75.2776 77.9409 75.1923 78.1422 75.0216 78.3084C74.851 78.4703 74.6432 78.5512 74.3982 78.5512Z" fill="white"/>
<path d="M68.7085 86.7887C68.0173 86.7887 67.4441 86.6137 66.9891 86.2637C66.5341 85.9094 66.3066 85.3866 66.3066 84.6953C66.3066 84.1703 66.4357 83.7678 66.6938 83.4878C66.9563 83.2034 67.2954 83 67.711 82.8775C68.131 82.755 68.5751 82.6653 69.0432 82.6084C69.4763 82.5559 69.8198 82.5122 70.0735 82.4772C70.3273 82.4422 70.5066 82.3897 70.6116 82.3197C70.721 82.2497 70.7757 82.1294 70.7757 81.9587V81.8997C70.7757 81.5628 70.6532 81.2872 70.4082 81.0728C70.1632 80.8541 69.8198 80.7447 69.3779 80.7447C68.936 80.7447 68.5751 80.8519 68.2951 81.0662C68.0151 81.2762 67.862 81.5409 67.8357 81.8603H66.4773C66.5079 81.1997 66.7857 80.6594 67.3107 80.2394C67.8357 79.8194 68.5313 79.6094 69.3976 79.6094C70.2507 79.6094 70.9223 79.8194 71.4123 80.2394C71.9023 80.6594 72.1473 81.2216 72.1473 81.9259V86.6772H70.7823V85.6928H70.756C70.6116 85.9728 70.382 86.2266 70.067 86.4541C69.7563 86.6772 69.3035 86.7887 68.7085 86.7887ZM68.9907 85.6731C69.6032 85.6731 70.0538 85.5156 70.3426 85.2006C70.6357 84.8812 70.7823 84.5094 70.7823 84.085V83.2712C70.6904 83.3456 70.4826 83.4134 70.1588 83.4747C69.8351 83.5316 69.4895 83.5862 69.122 83.6387C68.7413 83.6956 68.4066 83.8028 68.1179 83.9603C67.8291 84.1178 67.6848 84.3716 67.6848 84.7216C67.6848 85.0191 67.8007 85.2531 68.0326 85.4237C68.2688 85.59 68.5882 85.6731 68.9907 85.6731Z" fill="white"/>
<path d="M65.3278 79.7455V80.8873H63.9234V84.8445C63.9234 85.1027 63.9759 85.282 64.0809 85.3827C64.1859 85.4833 64.3762 85.5336 64.6518 85.5336H65.3278V86.6755H64.455C63.1731 86.6755 62.5321 86.1242 62.5321 85.0217V80.8873H61.3115V79.7455H62.5321V77.8555H63.9234V79.7455H65.3278Z" fill="white"/>
<path d="M55.8515 82.6872V86.6772H54.4668V79.7472H55.8252V80.7906C56.2977 80.0031 56.9955 79.6094 57.9187 79.6094C58.3955 79.6094 58.8221 79.7144 59.1984 79.9244C59.579 80.13 59.8787 80.4363 60.0974 80.8431C60.3162 81.25 60.4255 81.7553 60.4255 82.3591V86.6772H59.0409V82.5297C59.0409 81.9741 58.9074 81.5563 58.6405 81.2763C58.3737 80.9919 58.0018 80.8497 57.5249 80.8497C57.0524 80.8497 56.6543 80.9963 56.3305 81.2894C56.0112 81.5781 55.8515 82.0441 55.8515 82.6872Z" fill="white"/>
<path d="M49.9271 86.8387C49.2664 86.8387 48.6868 86.6856 48.188 86.3794C47.6893 86.0731 47.2999 85.6487 47.0199 85.1062C46.7443 84.5637 46.6064 83.9381 46.6064 83.2294C46.6064 82.5119 46.7443 81.8819 47.0199 81.3394C47.2999 80.7925 47.6893 80.3659 48.188 80.0597C48.6868 79.7491 49.2664 79.5938 49.9271 79.5938C50.5877 79.5938 51.1652 79.7491 51.6596 80.0597C52.1583 80.3659 52.5455 80.7925 52.8211 81.3394C53.1011 81.8819 53.2411 82.5119 53.2411 83.2294C53.2411 83.9381 53.1011 84.5637 52.8211 85.1062C52.5455 85.6487 52.1583 86.0731 51.6596 86.3794C51.1652 86.6856 50.5877 86.8387 49.9271 86.8387ZM49.9271 85.6444C50.5221 85.6444 50.9902 85.4256 51.3314 84.9881C51.6727 84.5506 51.8433 83.9644 51.8433 83.2294C51.8433 82.4856 51.6705 81.8928 51.3249 81.4509C50.9836 81.0091 50.5177 80.7881 49.9271 80.7881C49.3364 80.7881 48.8683 81.0091 48.5227 81.4509C48.1814 81.8884 48.0108 82.4812 48.0108 83.2294C48.0108 83.9687 48.1814 84.5572 48.5227 84.9947C48.8639 85.4278 49.3321 85.6444 49.9271 85.6444Z" fill="white"/>
<path d="M41.5336 86.8392C40.6367 86.8392 39.8448 86.627 39.158 86.2027C38.4711 85.7783 37.9352 85.1877 37.5502 84.4308C37.1652 83.6739 36.9727 82.7967 36.9727 81.7992C36.9727 80.793 37.1652 79.9114 37.5502 79.1545C37.9352 78.3977 38.4689 77.807 39.1514 77.3827C39.8383 76.9583 40.6323 76.7461 41.5336 76.7461C42.2467 76.7461 42.892 76.8861 43.4695 77.1661C44.0514 77.4461 44.5327 77.842 44.9133 78.3539C45.2939 78.8614 45.5411 79.463 45.6548 80.1586H44.1717C44.0273 79.4936 43.7189 78.9817 43.2464 78.623C42.7783 78.2598 42.2117 78.0783 41.5467 78.0783C40.9036 78.0783 40.3502 78.2336 39.8864 78.5442C39.4227 78.8548 39.0639 79.2902 38.8102 79.8502C38.5608 80.4102 38.4361 81.0598 38.4361 81.7992C38.4361 82.5386 38.5608 83.1861 38.8102 83.7417C39.0595 84.2973 39.4161 84.7305 39.8798 85.0411C40.348 85.3517 40.9036 85.507 41.5467 85.507C42.2073 85.507 42.7717 85.3277 43.2398 84.9689C43.7123 84.6102 44.0252 84.1005 44.1783 83.4398H45.6548C45.5411 84.1311 45.2939 84.7327 44.9133 85.2445C44.5327 85.752 44.0514 86.1458 43.4695 86.4258C42.892 86.7014 42.2467 86.8392 41.5336 86.8392Z" fill="white"/>
</svg>
