<svg width="128" height="128" viewBox="0 0 128 128" fill="none" xmlns="http://www.w3.org/2000/svg">
<path d="M3.90015 78.2771L4.35043 78.3973C4.58591 78.4602 4.83243 78.4978 5.08662 78.5061L5.19589 78.5079H6.35595V79.4403H5.19589C4.82099 79.4403 4.4569 79.391 4.11004 79.2983L3.65931 79.1781L3.90015 78.2771ZM10.5186 78.5079V79.4403H8.19847V78.5079H10.5186ZM14.6812 78.5079V79.4403H12.3611V78.5079H14.6812ZM18.8434 78.5079V79.4403H16.5238V78.5079H18.8434ZM23.0061 78.5079V79.4403H20.6864V78.5079H23.0061ZM27.1687 78.5079V79.4403H24.8486V78.5079H27.1687ZM31.3314 78.5079V79.4403H29.0113V78.5079H31.3314ZM35.494 78.5079V79.4403H33.1739V78.5079H35.494ZM39.6567 78.5079V79.4403H37.3366V78.5079H39.6567ZM43.8193 78.5079V79.4403H41.4992V78.5079H43.8193ZM47.9815 78.5079V79.4403H45.6619V78.5079H47.9815ZM52.1442 78.5079V79.4403H49.8245V78.5079H52.1442ZM56.3068 78.5079V79.4403H53.9867V78.5079H56.3068ZM60.4695 78.5079V79.4403H58.1494V78.5079H60.4695ZM64.6321 78.5079V79.4403H62.312V78.5079H64.6321ZM68.7948 78.5079V79.4403H66.4747V78.5079H68.7948ZM72.9574 78.5079V79.4403H70.6373V78.5079H72.9574ZM77.1196 78.5079V79.4403H74.8V78.5079H77.1196ZM81.2823 78.5079V79.4403H78.9626V78.5079H81.2823ZM85.4449 78.5079V79.4403H83.1253V78.5079H85.4449ZM89.6076 78.5079V79.4403H87.2875V78.5079H89.6076ZM93.7702 78.5079V79.4403H91.4501V78.5079H93.7702ZM97.9329 78.5079V79.4403H95.6128V78.5079H97.9329ZM102.096 78.5079V79.4403H99.7754V78.5079H102.096ZM106.258 78.5079V79.4403H103.938V78.5079H106.258ZM110.42 78.5079V79.4403H108.101V78.5079H110.42ZM114.583 78.5079V79.4403H112.263V78.5079H114.583ZM118.746 78.5079V79.4403H116.426V78.5079H118.746ZM123.044 78.2771L123.285 79.1781L122.834 79.2983C122.487 79.391 122.123 79.4403 121.748 79.4403H120.588V78.5079H121.748L121.858 78.5061C122.112 78.4978 122.358 78.4602 122.594 78.3973L123.044 78.2771ZM1 74.048H1.93242V75.2444L1.93424 75.3537C1.9402 75.5353 1.96091 75.713 1.99525 75.8855L2.04305 76.0899L2.16325 76.5402L1.26224 76.781L1.14205 76.3303C1.04935 75.9834 1 75.6193 1 75.2444V74.048ZM124.901 76.0899L125.802 76.3303L125.682 76.781L124.781 76.5402L124.901 76.0899ZM125.012 74.048H125.944V75.2444C125.944 75.6193 125.895 75.9834 125.802 76.3303L124.901 76.0899C124.973 75.8208 125.012 75.5374 125.012 75.2444V74.048ZM1 69.6654H1.93242V72.0588H1V69.6654ZM125.012 69.6654H125.944V72.0588H125.012V69.6654ZM1 65.2833H1.93242V67.6763H1V65.2833ZM125.012 65.2833H125.944V67.6763H125.012V65.2833ZM1 60.9008H1.93242V63.2937H1V60.9008ZM125.012 60.9008H125.944V63.2937H125.012V60.9008ZM1 56.5182H1.93242V58.9116H1V56.5182ZM125.012 56.5182H125.944V58.9116H125.012V56.5182ZM1 53.3326C1 52.9577 1.04935 52.5936 1.14205 52.2468L1.26224 51.796L2.16325 52.0369L2.04305 52.4871L1.99525 52.6916C1.95406 52.8985 1.93242 53.1128 1.93242 53.3326V54.5291H1V53.3326ZM125.012 53.3326C125.012 53.0397 124.973 52.7562 124.901 52.4871L124.781 52.0369L125.682 51.796L125.802 52.2468C125.895 52.5936 125.944 52.9577 125.944 53.3326V54.5291H125.012V53.3326ZM6.03952 49.1367V50.0691H5.19589C4.90294 50.0691 4.61951 50.1078 4.35043 50.1798L3.90015 50.3L3.65931 49.399L4.11004 49.2788C4.4569 49.1861 4.82099 49.1367 5.19589 49.1367H6.03952ZM121.748 49.1367C122.123 49.1367 122.487 49.1861 122.834 49.2788L123.285 49.399L123.044 50.3L122.594 50.1798C122.325 50.1078 122.041 50.0691 121.748 50.0691H120.59V49.1367H121.748ZM7.92667 49.1367V50.0691H6.61682V49.1367H7.92667ZM56.4489 49.1367V50.0691H54.8244V49.1367H56.4489ZM60.6024 49.1367V50.0691H58.2855V49.1367H60.6024ZM64.756 49.1367V50.0691H62.439V49.1367H64.756ZM68.91 49.1367V50.0691H66.5926V49.1367H68.91ZM73.0635 49.1367V50.0691H70.7466V49.1367H73.0635ZM77.2171 49.1367V50.0691H74.9001V49.1367H77.2171ZM81.3706 49.1367V50.0691H79.0537V49.1367H81.3706ZM85.5241 49.1367V50.0691H83.2072V49.1367H85.5241ZM89.6777 49.1367V50.0691H87.3608V49.1367H89.6777ZM93.8312 49.1367V50.0691H91.5143V49.1367H93.8312ZM97.9852 49.1367V50.0691H95.6683V49.1367H97.9852ZM102.139 49.1367V50.0691H99.8218V49.1367H102.139ZM106.292 49.1367V50.0691H103.975V49.1367H106.292ZM110.446 49.1367V50.0691H108.129V49.1367H110.446ZM114.599 49.1367V50.0691H112.282V49.1367H114.599ZM118.753 49.1367V50.0691H116.436V49.1367H118.753Z" fill="#A0B7C7"/>
<path d="M10.3237 59.859C10.3237 58.8291 11.1586 57.9941 12.1886 57.9941H30.3707C31.4007 57.9941 32.2356 58.8291 32.2356 59.859V71.048C32.2356 72.0779 31.4007 72.9128 30.3707 72.9128H12.1886C11.1586 72.9128 10.3237 72.0779 10.3237 71.048V59.859Z" fill="#C1E5FF"/>
<path d="M30.3707 71.9804V72.9128H12.1886V71.9804H30.3707ZM31.3032 71.048V59.859C31.3032 59.344 30.8857 58.9266 30.3707 58.9266H12.1886C11.6736 58.9266 11.2561 59.344 11.2561 59.859V71.048C11.2561 71.563 11.6736 71.9804 12.1886 71.9804V72.9128L12.0925 72.9106C11.1072 72.8606 10.3237 72.0457 10.3237 71.048V59.859C10.3237 58.8613 11.1072 58.0464 12.0925 57.9964L12.1886 57.9941H30.3707C31.4007 57.9941 32.2356 58.8291 32.2356 59.859V71.048C32.2356 72.0779 31.4007 72.9128 30.3707 72.9128V71.9804C30.8857 71.9804 31.3032 71.563 31.3032 71.048Z" fill="#3C89C1"/>
<path d="M25.0065 68.3277C24.6714 68.3277 24.3789 68.2439 24.1287 68.0764C23.8786 67.9064 23.6844 67.6721 23.546 67.3734C23.4076 67.0723 23.3384 66.7239 23.3384 66.3281C23.3384 65.9323 23.4076 65.5851 23.546 65.2864C23.6868 64.9853 23.8823 64.751 24.1324 64.5834C24.3825 64.4135 24.6727 64.3285 25.0029 64.3285C25.253 64.3285 25.4812 64.3807 25.6876 64.4851C25.894 64.5895 26.0591 64.7485 26.183 64.9622H26.1903V62.8242H26.9588V68.2512H26.2048V67.6648H26.1976C26.0689 67.8882 25.9001 68.0545 25.6913 68.1638C25.4849 68.273 25.2566 68.3277 25.0065 68.3277ZM25.1632 67.6648C25.491 67.6648 25.752 67.5434 25.9462 67.3006C26.1429 67.0553 26.2413 66.7312 26.2413 66.3281C26.2413 65.9226 26.1429 65.5984 25.9462 65.3556C25.752 65.1103 25.491 64.9877 25.1632 64.9877C24.8523 64.9877 24.5998 65.1031 24.4056 65.3337C24.2137 65.562 24.1178 65.8934 24.1178 66.3281C24.1178 66.7627 24.2137 67.0942 24.4056 67.3224C24.5998 67.5507 24.8523 67.6648 25.1632 67.6648Z" fill="black"/>
<path d="M21.0075 68.3394C20.6409 68.3394 20.3191 68.2544 20.0423 68.0845C19.7655 67.9145 19.5494 67.679 19.394 67.3779C19.241 67.0768 19.1646 66.7295 19.1646 66.3362C19.1646 65.938 19.241 65.5883 19.394 65.2872C19.5494 64.9837 19.7655 64.7469 20.0423 64.577C20.3191 64.4046 20.6409 64.3184 21.0075 64.3184C21.3742 64.3184 21.6947 64.4046 21.9691 64.577C22.2459 64.7469 22.4608 64.9837 22.6138 65.2872C22.7692 65.5883 22.8469 65.938 22.8469 66.3362C22.8469 66.7295 22.7692 67.0768 22.6138 67.3779C22.4608 67.679 22.2459 67.9145 21.9691 68.0845C21.6947 68.2544 21.3742 68.3394 21.0075 68.3394ZM21.0075 67.6765C21.3378 67.6765 21.5976 67.5551 21.787 67.3123C21.9764 67.0695 22.0711 66.7441 22.0711 66.3362C22.0711 65.9234 21.9752 65.5944 21.7833 65.3491C21.5939 65.1039 21.3353 64.9813 21.0075 64.9813C20.6797 64.9813 20.4199 65.1039 20.2281 65.3491C20.0387 65.5919 19.944 65.921 19.944 66.3362C19.944 66.7465 20.0387 67.0731 20.2281 67.3159C20.4175 67.5563 20.6773 67.6765 21.0075 67.6765Z" fill="black"/>
<path d="M15.0156 68.2512V62.8242H17.0262C17.6065 62.8242 18.0666 62.976 18.4066 63.2795C18.7465 63.583 18.9165 63.9946 18.9165 64.5142C18.9165 64.8615 18.8376 65.1626 18.6797 65.4175C18.5219 65.67 18.2997 65.8655 18.0132 66.0039C17.7267 66.1399 17.3892 66.2079 17.0007 66.2079H15.8242V68.2512H15.0156ZM15.8242 65.5086H16.9861C17.3357 65.5086 17.6113 65.4199 17.8129 65.2427C18.0168 65.063 18.1188 64.8202 18.1188 64.5142C18.1188 64.2083 18.0168 63.9679 17.8129 63.7931C17.6113 63.6158 17.3357 63.5272 16.9861 63.5272H15.8242V65.5086Z" fill="black"/>
<path d="M38.7627 59.859C38.7627 58.8291 39.5976 57.9941 40.6275 57.9941H58.8097C59.8396 57.9941 60.6745 58.8291 60.6745 59.859V71.048C60.6745 72.0779 59.8396 72.9128 58.8097 72.9128H40.6275C39.5976 72.9128 38.7627 72.0779 38.7627 71.048V59.859Z" fill="#C1E5FF"/>
<path d="M58.8097 71.9804V72.9128H40.6275V71.9804H58.8097ZM59.7421 71.048V59.859C59.7421 59.344 59.3247 58.9266 58.8097 58.9266H40.6275C40.1126 58.9266 39.6951 59.344 39.6951 59.859V71.048C39.6951 71.563 40.1126 71.9804 40.6275 71.9804V72.9128L40.5315 72.9106C39.5462 72.8606 38.7627 72.0457 38.7627 71.048V59.859C38.7627 58.8613 39.5462 58.0464 40.5315 57.9964L40.6275 57.9941H58.8097C59.8396 57.9941 60.6745 58.8291 60.6745 59.859V71.048C60.6745 72.0779 59.8396 72.9128 58.8097 72.9128V71.9804C59.3247 71.9804 59.7421 71.563 59.7421 71.048Z" fill="#3C89C1"/>
<path d="M53.4455 68.3277C53.1104 68.3277 52.8178 68.2439 52.5677 68.0764C52.3176 67.9064 52.1234 67.6721 51.985 67.3734C51.8465 67.0723 51.7773 66.7239 51.7773 66.3281C51.7773 65.9323 51.8465 65.5851 51.985 65.2864C52.1258 64.9853 52.3213 64.751 52.5714 64.5834C52.8215 64.4135 53.1116 64.3285 53.4419 64.3285C53.692 64.3285 53.9202 64.3807 54.1266 64.4851C54.333 64.5895 54.4981 64.7485 54.6219 64.9622H54.6292V62.8242H55.3978V68.2512H54.6438V67.6648H54.6365C54.5078 67.8882 54.3391 68.0545 54.1302 68.1638C53.9238 68.273 53.6956 68.3277 53.4455 68.3277ZM53.6021 67.6648C53.9299 67.6648 54.1909 67.5434 54.3852 67.3006C54.5819 67.0553 54.6802 66.7312 54.6802 66.3281C54.6802 65.9226 54.5819 65.5984 54.3852 65.3556C54.1909 65.1103 53.9299 64.9877 53.6021 64.9877C53.2913 64.9877 53.0388 65.1031 52.8445 65.3337C52.6527 65.562 52.5568 65.8934 52.5568 66.3281C52.5568 66.7627 52.6527 67.0942 52.8445 67.3224C53.0388 67.5507 53.2913 67.6648 53.6021 67.6648Z" fill="black"/>
<path d="M49.4465 68.3394C49.0798 68.3394 48.7581 68.2544 48.4813 68.0845C48.2045 67.9145 47.9884 67.679 47.833 67.3779C47.68 67.0768 47.6035 66.7295 47.6035 66.3362C47.6035 65.938 47.68 65.5883 47.833 65.2872C47.9884 64.9837 48.2045 64.7469 48.4813 64.577C48.7581 64.4046 49.0798 64.3184 49.4465 64.3184C49.8132 64.3184 50.1337 64.4046 50.4081 64.577C50.6849 64.7469 50.8998 64.9837 51.0527 65.2872C51.2081 65.5883 51.2858 65.938 51.2858 66.3362C51.2858 66.7295 51.2081 67.0768 51.0527 67.3779C50.8998 67.679 50.6849 67.9145 50.4081 68.0845C50.1337 68.2544 49.8132 68.3394 49.4465 68.3394ZM49.4465 67.6765C49.7767 67.6765 50.0365 67.5551 50.2259 67.3123C50.4153 67.0695 50.51 66.7441 50.51 66.3362C50.51 65.9234 50.4141 65.5944 50.2223 65.3491C50.0329 65.1039 49.7743 64.9813 49.4465 64.9813C49.1187 64.9813 48.8589 65.1039 48.6671 65.3491C48.4777 65.5919 48.383 65.921 48.383 66.3362C48.383 66.7465 48.4777 67.0731 48.6671 67.3159C48.8565 67.5563 49.1163 67.6765 49.4465 67.6765Z" fill="black"/>
<path d="M43.4546 68.2512V62.8242H45.4651C46.0455 62.8242 46.5056 62.976 46.8455 63.2795C47.1855 63.583 47.3555 63.9946 47.3555 64.5142C47.3555 64.8615 47.2765 65.1626 47.1187 65.4175C46.9609 65.67 46.7387 65.8655 46.4522 66.0039C46.1656 66.1399 45.8281 66.2079 45.4396 66.2079H44.2632V68.2512H43.4546ZM44.2632 65.5086H45.4251C45.7747 65.5086 46.0503 65.4199 46.2518 65.2427C46.4558 65.063 46.5578 64.8202 46.5578 64.5142C46.5578 64.2083 46.4558 63.9679 46.2518 63.7931C46.0503 63.6158 45.7747 63.5272 45.4251 63.5272H44.2632V65.5086Z" fill="black"/>
<path d="M67.2017 59.859C67.2017 58.8291 68.0366 57.9941 69.0665 57.9941H87.2487C88.2786 57.9941 89.1135 58.8291 89.1135 59.859V71.048C89.1135 72.0779 88.2786 72.9128 87.2487 72.9128H69.0665C68.0366 72.9128 67.2017 72.0779 67.2017 71.048V59.859Z" fill="#C1E5FF"/>
<path d="M87.2487 71.9804V72.9128H69.0665V71.9804H87.2487ZM88.1811 71.048V59.859C88.1811 59.344 87.7636 58.9266 87.2487 58.9266H69.0665C68.5515 58.9266 68.1341 59.344 68.1341 59.859V71.048C68.1341 71.563 68.5515 71.9804 69.0665 71.9804V72.9128L68.9704 72.9106C67.9852 72.8606 67.2017 72.0457 67.2017 71.048V59.859C67.2017 58.8613 67.9852 58.0464 68.9704 57.9964L69.0665 57.9941H87.2487C88.2786 57.9941 89.1135 58.8291 89.1135 59.859V71.048C89.1135 72.0779 88.2786 72.9128 87.2487 72.9128V71.9804C87.7636 71.9804 88.1811 71.563 88.1811 71.048Z" fill="#3C89C1"/>
<path d="M81.8845 68.3277C81.5494 68.3277 81.2568 68.2439 81.0067 68.0764C80.7566 67.9064 80.5623 67.6721 80.4239 67.3734C80.2855 67.0723 80.2163 66.7239 80.2163 66.3281C80.2163 65.9323 80.2855 65.5851 80.4239 65.2864C80.5648 64.9853 80.7602 64.751 81.0103 64.5834C81.2604 64.4135 81.5506 64.3285 81.8808 64.3285C82.1309 64.3285 82.3592 64.3807 82.5656 64.4851C82.772 64.5895 82.9371 64.7485 83.0609 64.9622H83.0682V62.8242H83.8367V68.2512H83.0828V67.6648H83.0755C82.9468 67.8882 82.778 68.0545 82.5692 68.1638C82.3628 68.273 82.1346 68.3277 81.8845 68.3277ZM82.0411 67.6648C82.3689 67.6648 82.6299 67.5434 82.8242 67.3006C83.0208 67.0553 83.1192 66.7312 83.1192 66.3281C83.1192 65.9226 83.0208 65.5984 82.8242 65.3556C82.6299 65.1103 82.3689 64.9877 82.0411 64.9877C81.7303 64.9877 81.4777 65.1031 81.2835 65.3337C81.0917 65.562 80.9958 65.8934 80.9958 66.3281C80.9958 66.7627 81.0917 67.0942 81.2835 67.3224C81.4777 67.5507 81.7303 67.6648 82.0411 67.6648Z" fill="black"/>
<path d="M77.8855 68.3394C77.5188 68.3394 77.1971 68.2544 76.9203 68.0845C76.6435 67.9145 76.4273 67.679 76.2719 67.3779C76.119 67.0768 76.0425 66.7295 76.0425 66.3362C76.0425 65.938 76.119 65.5883 76.2719 65.2872C76.4273 64.9837 76.6435 64.7469 76.9203 64.577C77.1971 64.4046 77.5188 64.3184 77.8855 64.3184C78.2521 64.3184 78.5726 64.4046 78.847 64.577C79.1238 64.7469 79.3387 64.9837 79.4917 65.2872C79.6471 65.5883 79.7248 65.938 79.7248 66.3362C79.7248 66.7295 79.6471 67.0768 79.4917 67.3779C79.3387 67.679 79.1238 67.9145 78.847 68.0845C78.5726 68.2544 78.2521 68.3394 77.8855 68.3394ZM77.8855 67.6765C78.2157 67.6765 78.4755 67.5551 78.6649 67.3123C78.8543 67.0695 78.949 66.7441 78.949 66.3362C78.949 65.9234 78.8531 65.5944 78.6613 65.3491C78.4719 65.1039 78.2133 64.9813 77.8855 64.9813C77.5577 64.9813 77.2978 65.1039 77.106 65.3491C76.9166 65.5919 76.8219 65.921 76.8219 66.3362C76.8219 66.7465 76.9166 67.0731 77.106 67.3159C77.2954 67.5563 77.5552 67.6765 77.8855 67.6765Z" fill="black"/>
<path d="M71.8936 68.2512V62.8242H73.9041C74.4844 62.8242 74.9446 62.976 75.2845 63.2795C75.6244 63.583 75.7944 63.9946 75.7944 64.5142C75.7944 64.8615 75.7155 65.1626 75.5577 65.4175C75.3998 65.67 75.1777 65.8655 74.8911 66.0039C74.6046 66.1399 74.2671 66.2079 73.8786 66.2079H72.7021V68.2512H71.8936ZM72.7021 65.5086H73.864C74.2137 65.5086 74.4893 65.4199 74.6908 65.2427C74.8948 65.063 74.9968 64.8202 74.9968 64.5142C74.9968 64.2083 74.8948 63.9679 74.6908 63.7931C74.4893 63.6158 74.2137 63.5272 73.864 63.5272H72.7021V65.5086Z" fill="black"/>
<path d="M95.6401 59.859C95.6401 58.8291 96.4751 57.9941 97.505 57.9941H115.687C116.717 57.9941 117.552 58.8291 117.552 59.859V71.048C117.552 72.0779 116.717 72.9128 115.687 72.9128H97.505C96.4751 72.9128 95.6401 72.0779 95.6401 71.048V59.859Z" fill="#C1E5FF"/>
<path d="M115.687 71.9804V72.9128H97.505V71.9804H115.687ZM116.62 71.048V59.859C116.62 59.344 116.202 58.9266 115.687 58.9266H97.505C96.99 58.9266 96.5726 59.344 96.5726 59.859V71.048C96.5726 71.563 96.99 71.9804 97.505 71.9804V72.9128L97.4089 72.9106C96.4236 72.8606 95.6401 72.0457 95.6401 71.048V59.859C95.6401 58.8613 96.4236 58.0464 97.4089 57.9964L97.505 57.9941H115.687C116.717 57.9941 117.552 58.8291 117.552 59.859V71.048C117.552 72.0779 116.717 72.9128 115.687 72.9128V71.9804C116.202 71.9804 116.62 71.563 116.62 71.048Z" fill="#3C89C1"/>
<path d="M110.323 68.3277C109.988 68.3277 109.695 68.2439 109.445 68.0764C109.195 67.9064 109.001 67.6721 108.862 67.3734C108.724 67.0723 108.655 66.7239 108.655 66.3281C108.655 65.9323 108.724 65.5851 108.862 65.2864C109.003 64.9853 109.199 64.751 109.449 64.5834C109.699 64.4135 109.989 64.3285 110.319 64.3285C110.569 64.3285 110.798 64.3807 111.004 64.4851C111.21 64.5895 111.376 64.7485 111.499 64.9622H111.507V62.8242H112.275V68.2512H111.521V67.6648H111.514C111.385 67.8882 111.217 68.0545 111.008 68.1638C110.801 68.273 110.573 68.3277 110.323 68.3277ZM110.48 67.6648C110.807 67.6648 111.068 67.5434 111.263 67.3006C111.459 67.0553 111.558 66.7312 111.558 66.3281C111.558 65.9226 111.459 65.5984 111.263 65.3556C111.068 65.1103 110.807 64.9877 110.48 64.9877C110.169 64.9877 109.916 65.1031 109.722 65.3337C109.53 65.562 109.434 65.8934 109.434 66.3281C109.434 66.7627 109.53 67.0942 109.722 67.3224C109.916 67.5507 110.169 67.6648 110.48 67.6648Z" fill="black"/>
<path d="M106.324 68.3394C105.957 68.3394 105.636 68.2544 105.359 68.0845C105.082 67.9145 104.866 67.679 104.71 67.3779C104.557 67.0768 104.481 66.7295 104.481 66.3362C104.481 65.938 104.557 65.5883 104.71 65.2872C104.866 64.9837 105.082 64.7469 105.359 64.577C105.636 64.4046 105.957 64.3184 106.324 64.3184C106.691 64.3184 107.011 64.4046 107.285 64.577C107.562 64.7469 107.777 64.9837 107.93 65.2872C108.086 65.5883 108.163 65.938 108.163 66.3362C108.163 66.7295 108.086 67.0768 107.93 67.3779C107.777 67.679 107.562 67.9145 107.285 68.0845C107.011 68.2544 106.691 68.3394 106.324 68.3394ZM106.324 67.6765C106.654 67.6765 106.914 67.5551 107.103 67.3123C107.293 67.0695 107.387 66.7441 107.387 66.3362C107.387 65.9234 107.292 65.5944 107.1 65.3491C106.91 65.1039 106.652 64.9813 106.324 64.9813C105.996 64.9813 105.736 65.1039 105.544 65.3491C105.355 65.5919 105.26 65.921 105.26 66.3362C105.26 66.7465 105.355 67.0731 105.544 67.3159C105.734 67.5563 105.994 67.6765 106.324 67.6765Z" fill="black"/>
<path d="M100.332 68.2512V62.8242H102.343C102.923 62.8242 103.383 62.976 103.723 63.2795C104.063 63.583 104.233 63.9946 104.233 64.5142C104.233 64.8615 104.154 65.1626 103.996 65.4175C103.838 65.67 103.616 65.8655 103.33 66.0039C103.043 66.1399 102.706 66.2079 102.317 66.2079H101.141V68.2512H100.332ZM101.141 65.5086H102.302C102.652 65.5086 102.928 65.4199 103.129 65.2427C103.333 65.063 103.435 64.8202 103.435 64.5142C103.435 64.2083 103.333 63.9679 103.129 63.7931C102.928 63.6158 102.652 63.5272 102.302 63.5272H101.141V65.5086Z" fill="black"/>
<path d="M47.8247 52.0211C47.4435 52.0211 47.1157 51.9349 46.8413 51.7625C46.5694 51.5901 46.3593 51.3533 46.2112 51.0522C46.0655 50.7487 45.9927 50.4039 45.9927 50.0178C45.9927 49.6269 46.0692 49.2796 46.2221 48.9761C46.3751 48.6726 46.5864 48.4346 46.8559 48.2622C47.1254 48.0874 47.435 48 47.7847 48C48.1489 48 48.4646 48.085 48.7317 48.255C49.0012 48.4249 49.21 48.6617 49.3581 48.9652C49.5062 49.2663 49.5803 49.6147 49.5803 50.0105V50.2181H46.7503C46.7648 50.5654 46.8644 50.8458 47.0489 51.0595C47.2359 51.2732 47.4981 51.38 47.8357 51.38C48.0882 51.38 48.2958 51.323 48.4585 51.2088C48.6212 51.0947 48.7292 50.9466 48.7826 50.7645H49.522C49.4759 51.0121 49.3727 51.2307 49.2124 51.4201C49.0546 51.6095 48.8555 51.7576 48.6151 51.8644C48.3771 51.9688 48.1137 52.0211 47.8247 52.0211ZM46.7576 49.6354H48.83C48.7984 49.3294 48.6904 49.0878 48.5058 48.9106C48.3213 48.7309 48.0833 48.641 47.792 48.641C47.5006 48.641 47.2626 48.7309 47.0781 48.9106C46.896 49.0878 46.7891 49.3294 46.7576 49.6354Z" fill="black"/>
<path d="M43.8435 52.0211C43.4769 52.0211 43.1551 51.9361 42.8783 51.7661C42.6039 51.5961 42.3902 51.3606 42.2373 51.0595C42.0843 50.756 42.0078 50.4087 42.0078 50.0178C42.0078 49.622 42.0843 49.2724 42.2373 48.9688C42.3927 48.6653 42.6076 48.4286 42.882 48.2586C43.1563 48.0862 43.4769 48 43.8435 48C44.1495 48 44.4226 48.0607 44.663 48.1821C44.9058 48.3011 45.1025 48.4662 45.2531 48.6775C45.4036 48.8887 45.4947 49.1303 45.5262 49.4023H44.7614C44.7225 49.1862 44.6254 49.0089 44.47 48.8705C44.3146 48.7321 44.107 48.6629 43.8472 48.6629C43.5145 48.6629 43.2547 48.7855 43.0677 49.0308C42.8807 49.276 42.7873 49.605 42.7873 50.0178C42.7873 50.4257 42.8807 50.7511 43.0677 50.9939C43.2547 51.2368 43.5145 51.3582 43.8472 51.3582C44.1118 51.3582 44.3158 51.2914 44.4591 51.1578C44.6023 51.0219 44.6994 50.841 44.7504 50.6151H45.5262C45.4971 50.8822 45.4073 51.1226 45.2567 51.3363C45.1062 51.5476 44.9095 51.7151 44.6667 51.8389C44.4238 51.9604 44.1495 52.0211 43.8435 52.0211Z" fill="black"/>
<path d="M39.4224 51.9964C39.0388 51.9964 38.7207 51.8992 38.4682 51.705C38.2156 51.5083 38.0894 51.2181 38.0894 50.8345C38.0894 50.5431 38.161 50.3197 38.3042 50.1643C38.4499 50.0065 38.6381 49.8936 38.8688 49.8256C39.1019 49.7576 39.3484 49.7078 39.6082 49.6762C39.8486 49.6471 40.0392 49.6228 40.18 49.6034C40.3208 49.584 40.4204 49.5548 40.4787 49.516C40.5394 49.4771 40.5697 49.4103 40.5697 49.3156V49.2829C40.5697 49.0959 40.5017 48.9429 40.3658 48.8239C40.2298 48.7025 40.0392 48.6418 39.7939 48.6418C39.5487 48.6418 39.3484 48.7013 39.193 48.8203C39.0376 48.9369 38.9526 49.0838 38.938 49.261H38.1841C38.2011 48.8944 38.3552 48.5945 38.6466 48.3614C38.938 48.1283 39.3241 48.0117 39.8049 48.0117C40.2784 48.0117 40.6511 48.1283 40.923 48.3614C41.195 48.5945 41.331 48.9065 41.331 49.2974V51.9344H40.5734V51.3881H40.5588C40.4787 51.5435 40.3512 51.6843 40.1764 51.8106C40.004 51.9344 39.7527 51.9964 39.4224 51.9964ZM39.579 51.3772C39.919 51.3772 40.1691 51.2898 40.3293 51.1149C40.492 50.9377 40.5734 50.7313 40.5734 50.4957V50.0441C40.5224 50.0854 40.407 50.123 40.2274 50.157C40.0477 50.1886 39.8559 50.2189 39.6519 50.2481C39.4406 50.2796 39.2549 50.3391 39.0946 50.4265C38.9344 50.514 38.8542 50.6548 38.8542 50.849C38.8542 51.0142 38.9186 51.1441 39.0473 51.2388C39.1784 51.331 39.3556 51.3772 39.579 51.3772Z" fill="black"/>
<path d="M33.9082 53.4569V48.0882H34.6622V48.6418H34.6731C34.7945 48.4306 34.9608 48.2727 35.1721 48.1683C35.3833 48.0639 35.614 48.0117 35.8641 48.0117C36.1943 48.0117 36.4845 48.0967 36.7346 48.2667C36.9847 48.4342 37.179 48.6685 37.3174 48.9696C37.4582 49.2683 37.5286 49.6155 37.5286 50.0113C37.5286 50.4071 37.4594 50.7556 37.321 51.0566C37.1826 51.3553 36.9883 51.5896 36.7382 51.7596C36.4881 51.9271 36.1955 52.0109 35.8605 52.0109C35.6104 52.0109 35.3845 51.9563 35.183 51.847C34.9815 51.7378 34.8163 51.5738 34.6876 51.3553H34.6767V53.4569H33.9082ZM35.7038 51.348C36.0146 51.348 36.266 51.2339 36.4578 51.0057C36.652 50.7774 36.7492 50.446 36.7492 50.0113C36.7492 49.5767 36.652 49.2452 36.4578 49.017C36.266 48.7863 36.0146 48.671 35.7038 48.671C35.376 48.671 35.1138 48.7936 34.9171 49.0388C34.7229 49.2817 34.6257 49.6058 34.6257 50.0113C34.6257 50.4144 34.7229 50.7386 34.9171 50.9838C35.1138 51.2266 35.376 51.348 35.7038 51.348Z" fill="black"/>
<path d="M31.6756 52.025C31.3818 52.025 31.1171 51.9776 30.8816 51.8829C30.646 51.7882 30.4554 51.6474 30.3097 51.4604C30.1665 51.2734 30.0863 51.0416 30.0693 50.7647H30.8269C30.8706 51.197 31.1487 51.4131 31.661 51.4131C31.9038 51.4131 32.0956 51.3633 32.2365 51.2637C32.3797 51.1642 32.4514 51.0379 32.4514 50.8849C32.4514 50.7538 32.4004 50.6494 32.2984 50.5717C32.1964 50.4916 32.0629 50.4333 31.8978 50.3969L31.2604 50.2548C30.5246 50.0946 30.1568 49.7279 30.1568 49.1549C30.1568 48.8149 30.2915 48.5381 30.561 48.3244C30.833 48.1107 31.1887 48.0039 31.6282 48.0039C32.0629 48.0039 32.4198 48.1168 32.699 48.3426C32.9807 48.566 33.1264 48.872 33.1361 49.2605H32.4004C32.398 49.0735 32.3275 48.9193 32.1891 48.7979C32.0507 48.6741 31.8674 48.6122 31.6392 48.6122C31.4206 48.6122 31.247 48.6632 31.1183 48.7651C30.9896 48.8671 30.9253 48.9922 30.9253 49.1403C30.9253 49.2714 30.9738 49.377 31.071 49.4572C31.1705 49.5373 31.3065 49.5968 31.4789 49.6356L32.1345 49.7813C32.5084 49.8639 32.784 49.9914 32.9613 50.1638C33.1385 50.3362 33.2272 50.562 33.2272 50.8412C33.2272 51.0865 33.1592 51.2977 33.0232 51.475C32.8897 51.6498 32.7063 51.7858 32.4732 51.8829C32.2401 51.9776 31.9742 52.025 31.6756 52.025Z" fill="black"/>
<path d="M27.8282 52.0211C27.4469 52.0211 27.1191 51.9349 26.8447 51.7625C26.5728 51.5901 26.3627 51.3533 26.2146 51.0522C26.0689 50.7487 25.9961 50.4039 25.9961 50.0178C25.9961 49.6269 26.0726 49.2796 26.2256 48.9761C26.3785 48.6726 26.5898 48.4346 26.8593 48.2622C27.1288 48.0874 27.4384 48 27.7881 48C28.1523 48 28.468 48.085 28.7351 48.255C29.0046 48.4249 29.2134 48.6617 29.3615 48.9652C29.5097 49.2663 29.5837 49.6147 29.5837 50.0105V50.2181H26.7537C26.7683 50.5654 26.8678 50.8458 27.0523 51.0595C27.2393 51.2732 27.5016 51.38 27.8391 51.38C28.0916 51.38 28.2992 51.323 28.4619 51.2088C28.6246 51.0947 28.7326 50.9466 28.7861 50.7645H29.5254C29.4793 51.0121 29.3761 51.2307 29.2159 51.4201C29.058 51.6095 28.8589 51.7576 28.6185 51.8644C28.3806 51.9688 28.1171 52.0211 27.8282 52.0211ZM26.761 49.6354H28.8334C28.8018 49.3294 28.6938 49.0878 28.5093 48.9106C28.3247 48.7309 28.0868 48.641 27.7954 48.641C27.504 48.641 27.266 48.7309 27.0815 48.9106C26.8994 49.0878 26.7925 49.3294 26.761 49.6354Z" fill="black"/>
<path d="M19.8125 51.9344V48.0882H20.5592V48.7329C20.6781 48.4949 20.8396 48.3152 21.0436 48.1938C21.2476 48.0724 21.4685 48.0117 21.7065 48.0117C21.9687 48.0117 22.1982 48.0785 22.3949 48.212C22.594 48.3456 22.7336 48.5156 22.8137 48.722C22.9181 48.5131 23.076 48.3432 23.2872 48.212C23.5009 48.0785 23.7498 48.0117 24.0339 48.0117C24.2718 48.0117 24.4879 48.0639 24.6822 48.1683C24.8765 48.2727 25.0306 48.4282 25.1448 48.6345C25.2589 48.8385 25.316 49.0947 25.316 49.4031V51.9344H24.5438V49.4686C24.5438 49.1942 24.4673 48.9951 24.3143 48.8713C24.1614 48.7475 23.9805 48.6855 23.7716 48.6855C23.5143 48.6855 23.3115 48.7657 23.1634 48.9259C23.0153 49.0838 22.9412 49.2853 22.9412 49.5305V51.9344H22.1836V49.4176C22.1836 49.1967 22.112 49.0194 21.9687 48.8859C21.8279 48.7523 21.6482 48.6855 21.4297 48.6855C21.2063 48.6855 21.0084 48.7645 20.836 48.9223C20.666 49.0801 20.581 49.3108 20.581 49.6143V51.9344H19.8125Z" fill="black"/>
<path d="M17.0367 51.9964C16.653 51.9964 16.3349 51.8992 16.0824 51.705C15.8299 51.5083 15.7036 51.2181 15.7036 50.8345C15.7036 50.5431 15.7752 50.3197 15.9185 50.1643C16.0642 50.0065 16.2524 49.8936 16.4831 49.8256C16.7162 49.7576 16.9626 49.7078 17.2224 49.6762C17.4628 49.6471 17.6534 49.6228 17.7943 49.6034C17.9351 49.584 18.0347 49.5548 18.0929 49.516C18.1536 49.4771 18.184 49.4103 18.184 49.3156V49.2829C18.184 49.0959 18.116 48.9429 17.98 48.8239C17.844 48.7025 17.6534 48.6418 17.4082 48.6418C17.1629 48.6418 16.9626 48.7013 16.8072 48.8203C16.6518 48.9369 16.5668 49.0838 16.5523 49.261H15.7983C15.8153 48.8944 15.9695 48.5945 16.2609 48.3614C16.5523 48.1283 16.9383 48.0117 17.4191 48.0117C17.8926 48.0117 18.2653 48.1283 18.5373 48.3614C18.8092 48.5945 18.9452 48.9065 18.9452 49.2974V51.9344H18.1876V51.3881H18.1731C18.0929 51.5435 17.9655 51.6843 17.7906 51.8106C17.6182 51.9344 17.3669 51.9964 17.0367 51.9964ZM17.1933 51.3772C17.5332 51.3772 17.7833 51.2898 17.9436 51.1149C18.1063 50.9377 18.1876 50.7313 18.1876 50.4957V50.0441C18.1366 50.0854 18.0213 50.123 17.8416 50.157C17.6619 50.1886 17.4701 50.2189 17.2661 50.2481C17.0549 50.2796 16.8691 50.3391 16.7089 50.4265C16.5486 50.514 16.4685 50.6548 16.4685 50.849C16.4685 51.0142 16.5328 51.1441 16.6615 51.2388C16.7926 51.331 16.9699 51.3772 17.1933 51.3772Z" fill="black"/>
<path d="M12.4585 49.7199V51.9344H11.6899V48.0882H12.4439V48.6673C12.7061 48.2303 13.0934 48.0117 13.6058 48.0117C13.8704 48.0117 14.1072 48.07 14.316 48.1865C14.5273 48.3007 14.6936 48.4706 14.815 48.6965C14.9364 48.9223 14.9971 49.2027 14.9971 49.5378V51.9344H14.2286V49.6325C14.2286 49.3241 14.1545 49.0923 14.0064 48.9369C13.8583 48.779 13.6519 48.7001 13.3872 48.7001C13.125 48.7001 12.904 48.7815 12.7243 48.9441C12.5471 49.1044 12.4585 49.363 12.4585 49.7199Z" fill="black"/>
</svg>
