<svg width="128" height="128" viewBox="0 0 128 128" fill="none" xmlns="http://www.w3.org/2000/svg">
<path d="M120.688 124.105V15.2045C120.688 14.1585 119.84 13.3105 118.794 13.3105H90.3302H36.3906H10.3661C9.32011 13.3105 8.47217 14.1585 8.47217 15.2045V124.105C8.47217 125.151 9.32012 125.999 10.3661 125.999H118.794C119.84 125.999 120.688 125.151 120.688 124.105Z" fill="#E0F2FF"/>
<path d="M8 123.627V15.1994C8 13.892 9.05993 12.832 10.3674 12.832H43.2307V13.779H10.3674C9.58293 13.779 8.94697 14.4149 8.94697 15.1994V123.627C8.94697 124.411 9.58293 125.047 10.3674 125.047H118.322C119.106 125.047 119.742 124.411 119.742 123.627V15.1994C119.742 14.4149 119.106 13.779 118.322 13.779H64.0747V12.832H118.322C119.629 12.832 120.689 13.892 120.689 15.1994V123.627C120.689 124.934 119.629 125.994 118.322 125.994H10.3674C9.05993 125.994 8 124.934 8 123.627Z" fill="#3C89C1"/>
<path d="M15.1001 23.7338C15.1001 22.6878 15.948 21.8398 16.994 21.8398H40.6683C41.7143 21.8398 42.5622 22.6878 42.5622 23.7338V45.5139C42.5622 46.5599 41.7143 47.4078 40.6683 47.4078H16.994C15.948 47.4078 15.1001 46.5599 15.1001 45.5139V23.7338Z" fill="#C1E5FF"/>
<path d="M40.6683 46.4609V47.4078H16.994V46.4609H40.6683ZM41.6153 45.5139V23.7338C41.6153 23.2108 41.1913 22.7868 40.6683 22.7868H16.994C16.471 22.7868 16.0471 23.2108 16.0471 23.7338V45.5139C16.0471 46.0369 16.471 46.4609 16.994 46.4609V47.4078L16.8965 47.4055C15.9281 47.3564 15.1515 46.5798 15.1024 45.6115L15.1001 45.5139V23.7338C15.1001 22.7205 15.8958 21.8929 16.8965 21.8422L16.994 21.8398H40.6683C41.7143 21.8398 42.5622 22.6878 42.5622 23.7338V45.5139L42.5599 45.6115C42.5091 46.6121 41.6816 47.4078 40.6683 47.4078V46.4609C41.1913 46.4609 41.6153 46.0369 41.6153 45.5139Z" fill="#3C89C1"/>
<path d="M32.8548 37.5366C32.5145 37.5366 32.2174 37.4515 31.9633 37.2813C31.7093 37.1087 31.5121 36.8707 31.3715 36.5674C31.2309 36.2616 31.1606 35.9077 31.1606 35.5058C31.1606 35.1038 31.2309 34.7512 31.3715 34.4478C31.5145 34.142 31.713 33.9041 31.967 33.7339C32.2211 33.5613 32.5157 33.475 32.8511 33.475C33.1051 33.475 33.3369 33.528 33.5466 33.634C33.7562 33.7401 33.9239 33.9016 34.0496 34.1186H34.057V31.9473H34.8376V37.4589H34.0718V36.8633H34.0644C33.9337 37.0902 33.7623 37.2591 33.5503 37.3701C33.3406 37.4811 33.1088 37.5366 32.8548 37.5366ZM33.0139 36.8633C33.3468 36.8633 33.6119 36.74 33.8092 36.4934C34.009 36.2444 34.1088 35.9151 34.1088 35.5058C34.1088 35.0939 34.009 34.7647 33.8092 34.5181C33.6119 34.2691 33.3468 34.1445 33.0139 34.1445C32.6982 34.1445 32.4418 34.2617 32.2445 34.4959C32.0497 34.7277 31.9523 35.0644 31.9523 35.5058C31.9523 35.9472 32.0497 36.2838 32.2445 36.5156C32.4418 36.7474 32.6982 36.8633 33.0139 36.8633Z" fill="black"/>
<path d="M28.7926 37.5447C28.4203 37.5447 28.0935 37.4584 27.8124 37.2858C27.5312 37.1132 27.3118 36.8739 27.1539 36.5682C26.9986 36.2624 26.9209 35.9097 26.9209 35.5102C26.9209 35.1058 26.9986 34.7507 27.1539 34.4449C27.3118 34.1366 27.5312 33.8962 27.8124 33.7236C28.0935 33.5485 28.4203 33.4609 28.7926 33.4609C29.165 33.4609 29.4905 33.5485 29.7692 33.7236C30.0503 33.8962 30.2686 34.1366 30.4239 34.4449C30.5818 34.7507 30.6607 35.1058 30.6607 35.5102C30.6607 35.9097 30.5818 36.2624 30.4239 36.5682C30.2686 36.8739 30.0503 37.1132 29.7692 37.2858C29.4905 37.4584 29.165 37.5447 28.7926 37.5447ZM28.7926 36.8715C29.128 36.8715 29.3919 36.7482 29.5843 36.5016C29.7766 36.255 29.8728 35.9245 29.8728 35.5102C29.8728 35.091 29.7754 34.7568 29.5806 34.5078C29.3882 34.2587 29.1256 34.1342 28.7926 34.1342C28.4597 34.1342 28.1959 34.2587 28.001 34.5078C27.8087 34.7544 27.7125 35.0885 27.7125 35.5102C27.7125 35.927 27.8087 36.2587 28.001 36.5053C28.1934 36.7494 28.4573 36.8715 28.7926 36.8715Z" fill="black"/>
<path d="M22.7075 37.4589V31.9473H24.7494C25.3388 31.9473 25.8061 32.1014 26.1514 32.4096C26.4966 32.7179 26.6693 33.1359 26.6693 33.6636C26.6693 34.0163 26.5891 34.3221 26.4288 34.581C26.2685 34.8375 26.0429 35.036 25.7519 35.1766C25.4609 35.3147 25.1181 35.3837 24.7235 35.3837H23.5287V37.4589H22.7075ZM23.5287 34.6735H24.7087C25.0638 34.6735 25.3437 34.5835 25.5484 34.4035C25.7556 34.221 25.8592 33.9744 25.8592 33.6636C25.8592 33.3529 25.7556 33.1088 25.5484 32.9312C25.3437 32.7512 25.0638 32.6612 24.7087 32.6612H23.5287V34.6735Z" fill="black"/>
<path d="M15.1001 54.9818C15.1001 53.9358 15.948 53.0879 16.994 53.0879H40.6683C41.7143 53.0879 42.5622 53.9358 42.5622 54.9818V76.762C42.5622 77.8079 41.7143 78.6559 40.6683 78.6559H16.994C15.948 78.6559 15.1001 77.8079 15.1001 76.762V54.9818Z" fill="#C1E5FF"/>
<path d="M40.6683 77.7089V78.6559H16.994V77.7089H40.6683ZM41.6153 76.762V54.9818C41.6153 54.4588 41.1913 54.0349 40.6683 54.0349H16.994C16.471 54.0349 16.0471 54.4588 16.0471 54.9818V76.762C16.0471 77.285 16.471 77.7089 16.994 77.7089V78.6559L16.8965 78.6536C15.9281 78.6044 15.1515 77.8279 15.1024 76.8595L15.1001 76.762V54.9818C15.1001 53.9685 15.8958 53.141 16.8965 53.0902L16.994 53.0879H40.6683C41.7143 53.0879 42.5622 53.9358 42.5622 54.9818V76.762L42.5599 76.8595C42.5091 77.8602 41.6816 78.6559 40.6683 78.6559V77.7089C41.1913 77.7089 41.6153 77.285 41.6153 76.762Z" fill="#3C89C1"/>
<path d="M32.8548 68.7846C32.5145 68.7846 32.2174 68.6995 31.9633 68.5294C31.7093 68.3568 31.5121 68.1188 31.3715 67.8155C31.2309 67.5097 31.1606 67.1558 31.1606 66.7538C31.1606 66.3519 31.2309 65.9992 31.3715 65.6959C31.5145 65.3901 31.713 65.1521 31.967 64.982C32.2211 64.8093 32.5157 64.723 32.8511 64.723C33.1051 64.723 33.3369 64.776 33.5466 64.8821C33.7562 64.9881 33.9239 65.1497 34.0496 65.3667H34.057V63.1953H34.8376V68.7069H34.0718V68.1114H34.0644C33.9337 68.3383 33.7623 68.5072 33.5503 68.6182C33.3406 68.7291 33.1088 68.7846 32.8548 68.7846ZM33.0139 68.1114C33.3468 68.1114 33.6119 67.9881 33.8092 67.7415C34.009 67.4924 34.1088 67.1632 34.1088 66.7538C34.1088 66.342 34.009 66.0128 33.8092 65.7662C33.6119 65.5171 33.3468 65.3926 33.0139 65.3926C32.6982 65.3926 32.4418 65.5097 32.2445 65.744C32.0497 65.9758 31.9523 66.3124 31.9523 66.7538C31.9523 67.1952 32.0497 67.5319 32.2445 67.7637C32.4418 67.9955 32.6982 68.1114 33.0139 68.1114Z" fill="black"/>
<path d="M28.7926 68.7928C28.4203 68.7928 28.0935 68.7064 27.8124 68.5338C27.5312 68.3612 27.3118 68.122 27.1539 67.8162C26.9986 67.5104 26.9209 67.1578 26.9209 66.7583C26.9209 66.3538 26.9986 65.9987 27.1539 65.6929C27.3118 65.3847 27.5312 65.1442 27.8124 64.9716C28.0935 64.7965 28.4203 64.709 28.7926 64.709C29.165 64.709 29.4905 64.7965 29.7692 64.9716C30.0503 65.1442 30.2686 65.3847 30.4239 65.6929C30.5818 65.9987 30.6607 66.3538 30.6607 66.7583C30.6607 67.1578 30.5818 67.5104 30.4239 67.8162C30.2686 68.122 30.0503 68.3612 29.7692 68.5338C29.4905 68.7064 29.165 68.7928 28.7926 68.7928ZM28.7926 68.1195C29.128 68.1195 29.3919 67.9962 29.5843 67.7496C29.7766 67.503 29.8728 67.1726 29.8728 66.7583C29.8728 66.339 29.7754 66.0049 29.5806 65.7558C29.3882 65.5068 29.1256 65.3822 28.7926 65.3822C28.4597 65.3822 28.1959 65.5068 28.001 65.7558C27.8087 66.0024 27.7125 66.3366 27.7125 66.7583C27.7125 67.175 27.8087 67.5067 28.001 67.7533C28.1934 67.9975 28.4573 68.1195 28.7926 68.1195Z" fill="black"/>
<path d="M22.7075 68.7069V63.1953H24.7494C25.3388 63.1953 25.8061 63.3494 26.1514 63.6577C26.4966 63.966 26.6693 64.3839 26.6693 64.9117C26.6693 65.2643 26.5891 65.5701 26.4288 65.8291C26.2685 66.0855 26.0429 66.284 25.7519 66.4246C25.4609 66.5627 25.1181 66.6318 24.7235 66.6318H23.5287V68.7069H22.7075ZM23.5287 65.9215H24.7087C25.0638 65.9215 25.3437 65.8315 25.5484 65.6515C25.7556 65.469 25.8592 65.2224 25.8592 64.9117C25.8592 64.601 25.7556 64.3568 25.5484 64.1793C25.3437 63.9992 25.0638 63.9092 24.7087 63.9092H23.5287V65.9215Z" fill="black"/>
<path d="M50.6128 23.7338C50.6128 22.6878 51.4607 21.8398 52.5067 21.8398H76.181C77.227 21.8398 78.0749 22.6878 78.0749 23.7338V45.5139C78.0749 46.5599 77.227 47.4078 76.181 47.4078H52.5067C51.4607 47.4078 50.6128 46.5599 50.6128 45.5139V23.7338Z" fill="#C1E5FF"/>
<path d="M76.181 46.4609V47.4078H52.5067V46.4609H76.181ZM77.128 45.5139V23.7338C77.128 23.2108 76.704 22.7868 76.181 22.7868H52.5067C51.9837 22.7868 51.5598 23.2108 51.5598 23.7338V45.5139C51.5598 46.0369 51.9837 46.4609 52.5067 46.4609V47.4078L52.4092 47.4055C51.4408 47.3564 50.6642 46.5798 50.6151 45.6115L50.6128 45.5139V23.7338C50.6128 22.7205 51.4085 21.8929 52.4092 21.8422L52.5067 21.8398H76.181C77.227 21.8398 78.0749 22.6878 78.0749 23.7338V45.5139L78.0726 45.6115C78.0218 46.6121 77.1943 47.4078 76.181 47.4078V46.4609C76.704 46.4609 77.128 46.0369 77.128 45.5139Z" fill="#3C89C1"/>
<path d="M68.3651 37.5366C68.0248 37.5366 67.7276 37.4515 67.4736 37.2813C67.2196 37.1087 67.0223 36.8707 66.8817 36.5674C66.7412 36.2616 66.6709 35.9077 66.6709 35.5058C66.6709 35.1038 66.7412 34.7512 66.8817 34.4478C67.0248 34.142 67.2233 33.9041 67.4773 33.7339C67.7313 33.5613 68.026 33.475 68.3614 33.475C68.6154 33.475 68.8472 33.528 69.0568 33.634C69.2664 33.7401 69.4341 33.9016 69.5599 34.1186H69.5673V31.9473H70.3478V37.4589H69.5821V36.8633H69.5747C69.444 37.0902 69.2726 37.2591 69.0605 37.3701C68.8509 37.4811 68.6191 37.5366 68.3651 37.5366ZM68.5241 36.8633C68.8571 36.8633 69.1222 36.74 69.3195 36.4934C69.5192 36.2444 69.6191 35.9151 69.6191 35.5058C69.6191 35.0939 69.5192 34.7647 69.3195 34.5181C69.1222 34.2691 68.8571 34.1445 68.5241 34.1445C68.2085 34.1445 67.952 34.2617 67.7547 34.4959C67.5599 34.7277 67.4625 35.0644 67.4625 35.5058C67.4625 35.9472 67.5599 36.2838 67.7547 36.5156C67.952 36.7474 68.2085 36.8633 68.5241 36.8633Z" fill="black"/>
<path d="M64.3049 37.5447C63.9325 37.5447 63.6057 37.4584 63.3246 37.2858C63.0435 37.1132 62.824 36.8739 62.6661 36.5682C62.5108 36.2624 62.4331 35.9097 62.4331 35.5102C62.4331 35.1058 62.5108 34.7507 62.6661 34.4449C62.824 34.1366 63.0435 33.8962 63.3246 33.7236C63.6057 33.5485 63.9325 33.4609 64.3049 33.4609C64.6772 33.4609 65.0027 33.5485 65.2814 33.7236C65.5625 33.8962 65.7808 34.1366 65.9362 34.4449C66.094 34.7507 66.1729 35.1058 66.1729 35.5102C66.1729 35.9097 66.094 36.2624 65.9362 36.5682C65.7808 36.8739 65.5625 37.1132 65.2814 37.2858C65.0027 37.4584 64.6772 37.5447 64.3049 37.5447ZM64.3049 36.8715C64.6402 36.8715 64.9041 36.7482 65.0965 36.5016C65.2888 36.255 65.385 35.9245 65.385 35.5102C65.385 35.091 65.2876 34.7568 65.0928 34.5078C64.9004 34.2587 64.6378 34.1342 64.3049 34.1342C63.9719 34.1342 63.7081 34.2587 63.5132 34.5078C63.3209 34.7544 63.2247 35.0885 63.2247 35.5102C63.2247 35.927 63.3209 36.2587 63.5132 36.5053C63.7056 36.7494 63.9695 36.8715 64.3049 36.8715Z" fill="black"/>
<path d="M58.2183 37.4589V31.9473H60.2602C60.8496 31.9473 61.3169 32.1014 61.6621 32.4096C62.0074 32.7179 62.18 33.1359 62.18 33.6636C62.18 34.0163 62.0999 34.3221 61.9396 34.581C61.7793 34.8375 61.5536 35.036 61.2626 35.1766C60.9716 35.3147 60.6288 35.3837 60.2343 35.3837H59.0395V37.4589H58.2183ZM59.0395 34.6735H60.2195C60.5746 34.6735 60.8545 34.5835 61.0592 34.4035C61.2663 34.221 61.3699 33.9744 61.3699 33.6636C61.3699 33.3529 61.2663 33.1088 61.0592 32.9312C60.8545 32.7512 60.5746 32.6612 60.2195 32.6612H59.0395V34.6735Z" fill="black"/>
<path d="M50.6128 54.9818C50.6128 53.9358 51.4607 53.0879 52.5067 53.0879H76.181C77.227 53.0879 78.0749 53.9358 78.0749 54.9818V76.762C78.0749 77.8079 77.227 78.6559 76.181 78.6559H52.5067C51.4607 78.6559 50.6128 77.8079 50.6128 76.762V54.9818Z" fill="#C1E5FF"/>
<path d="M76.181 77.7089V78.6559H52.5067V77.7089H76.181ZM77.128 76.762V54.9818C77.128 54.4588 76.704 54.0349 76.181 54.0349H52.5067C51.9837 54.0349 51.5598 54.4588 51.5598 54.9818V76.762C51.5598 77.285 51.9837 77.7089 52.5067 77.7089V78.6559L52.4092 78.6536C51.4408 78.6044 50.6642 77.8279 50.6151 76.8595L50.6128 76.762V54.9818C50.6128 53.9685 51.4085 53.141 52.4092 53.0902L52.5067 53.0879H76.181C77.227 53.0879 78.0749 53.9358 78.0749 54.9818V76.762L78.0726 76.8595C78.0218 77.8602 77.1943 78.6559 76.181 78.6559V77.7089C76.704 77.7089 77.128 77.285 77.128 76.762Z" fill="#3C89C1"/>
<path d="M68.3651 68.7846C68.0248 68.7846 67.7276 68.6995 67.4736 68.5294C67.2196 68.3568 67.0223 68.1188 66.8817 67.8155C66.7412 67.5097 66.6709 67.1558 66.6709 66.7538C66.6709 66.3519 66.7412 65.9992 66.8817 65.6959C67.0248 65.3901 67.2233 65.1521 67.4773 64.982C67.7313 64.8093 68.026 64.723 68.3614 64.723C68.6154 64.723 68.8472 64.776 69.0568 64.8821C69.2664 64.9881 69.4341 65.1497 69.5599 65.3667H69.5673V63.1953H70.3478V68.7069H69.5821V68.1114H69.5747C69.444 68.3383 69.2726 68.5072 69.0605 68.6182C68.8509 68.7291 68.6191 68.7846 68.3651 68.7846ZM68.5241 68.1114C68.8571 68.1114 69.1222 67.9881 69.3195 67.7415C69.5192 67.4924 69.6191 67.1632 69.6191 66.7538C69.6191 66.342 69.5192 66.0128 69.3195 65.7662C69.1222 65.5171 68.8571 65.3926 68.5241 65.3926C68.2085 65.3926 67.952 65.5097 67.7547 65.744C67.5599 65.9758 67.4625 66.3124 67.4625 66.7538C67.4625 67.1952 67.5599 67.5319 67.7547 67.7637C67.952 67.9955 68.2085 68.1114 68.5241 68.1114Z" fill="black"/>
<path d="M64.3049 68.7928C63.9325 68.7928 63.6057 68.7064 63.3246 68.5338C63.0435 68.3612 62.824 68.122 62.6661 67.8162C62.5108 67.5104 62.4331 67.1578 62.4331 66.7583C62.4331 66.3538 62.5108 65.9987 62.6661 65.6929C62.824 65.3847 63.0435 65.1442 63.3246 64.9716C63.6057 64.7965 63.9325 64.709 64.3049 64.709C64.6772 64.709 65.0027 64.7965 65.2814 64.9716C65.5625 65.1442 65.7808 65.3847 65.9362 65.6929C66.094 65.9987 66.1729 66.3538 66.1729 66.7583C66.1729 67.1578 66.094 67.5104 65.9362 67.8162C65.7808 68.122 65.5625 68.3612 65.2814 68.5338C65.0027 68.7064 64.6772 68.7928 64.3049 68.7928ZM64.3049 68.1195C64.6402 68.1195 64.9041 67.9962 65.0965 67.7496C65.2888 67.503 65.385 67.1726 65.385 66.7583C65.385 66.339 65.2876 66.0049 65.0928 65.7558C64.9004 65.5068 64.6378 65.3822 64.3049 65.3822C63.9719 65.3822 63.7081 65.5068 63.5132 65.7558C63.3209 66.0024 63.2247 66.3366 63.2247 66.7583C63.2247 67.175 63.3209 67.5067 63.5132 67.7533C63.7056 67.9975 63.9695 68.1195 64.3049 68.1195Z" fill="black"/>
<path d="M58.2183 68.7069V63.1953H60.2602C60.8496 63.1953 61.3169 63.3494 61.6621 63.6577C62.0074 63.966 62.18 64.3839 62.18 64.9117C62.18 65.2643 62.0999 65.5701 61.9396 65.8291C61.7793 66.0855 61.5536 66.284 61.2626 66.4246C60.9716 66.5627 60.6288 66.6318 60.2343 66.6318H59.0395V68.7069H58.2183ZM59.0395 65.9215H60.2195C60.5746 65.9215 60.8545 65.8315 61.0592 65.6515C61.2663 65.469 61.3699 65.2224 61.3699 64.9117C61.3699 64.601 61.2663 64.3568 61.0592 64.1793C60.8545 63.9992 60.5746 63.9092 60.2195 63.9092H59.0395V65.9215Z" fill="black"/>
<path d="M86.125 23.7338C86.125 22.6878 86.9729 21.8398 88.0189 21.8398H111.693C112.739 21.8398 113.587 22.6878 113.587 23.7338V45.5139C113.587 46.5599 112.739 47.4078 111.693 47.4078H88.0189C86.9729 47.4078 86.125 46.5599 86.125 45.5139V23.7338Z" fill="#C1E5FF"/>
<path d="M111.693 46.4609V47.4078H88.0189V46.4609H111.693ZM112.64 45.5139V23.7338C112.64 23.2108 112.216 22.7868 111.693 22.7868H88.0189C87.4959 22.7868 87.072 23.2108 87.072 23.7338V45.5139C87.072 46.0369 87.4959 46.4609 88.0189 46.4609V47.4078L87.9214 47.4055C86.953 47.3564 86.1764 46.5798 86.1273 45.6115L86.125 45.5139V23.7338C86.125 22.7205 86.9207 21.8929 87.9214 21.8422L88.0189 21.8398H111.693C112.739 21.8398 113.587 22.6878 113.587 23.7338V45.5139L113.585 45.6115C113.534 46.6121 112.706 47.4078 111.693 47.4078V46.4609C112.216 46.4609 112.64 46.0369 112.64 45.5139Z" fill="#3C89C1"/>
<path d="M103.876 37.5366C103.536 37.5366 103.239 37.4515 102.985 37.2813C102.731 37.1087 102.534 36.8707 102.393 36.5674C102.252 36.2616 102.182 35.9077 102.182 35.5058C102.182 35.1038 102.252 34.7512 102.393 34.4478C102.536 34.142 102.735 33.9041 102.989 33.7339C103.243 33.5613 103.537 33.475 103.873 33.475C104.127 33.475 104.358 33.528 104.568 33.634C104.778 33.7401 104.945 33.9016 105.071 34.1186H105.079V31.9473H105.859V37.4589H105.093V36.8633H105.086C104.955 37.0902 104.784 37.2591 104.572 37.3701C104.362 37.4811 104.13 37.5366 103.876 37.5366ZM104.035 36.8633C104.368 36.8633 104.633 36.74 104.831 36.4934C105.03 36.2444 105.13 35.9151 105.13 35.5058C105.13 35.0939 105.03 34.7647 104.831 34.5181C104.633 34.2691 104.368 34.1445 104.035 34.1445C103.72 34.1445 103.463 34.2617 103.266 34.4959C103.071 34.7277 102.974 35.0644 102.974 35.5058C102.974 35.9472 103.071 36.2838 103.266 36.5156C103.463 36.7474 103.72 36.8633 104.035 36.8633Z" fill="black"/>
<path d="M99.8175 37.5447C99.4452 37.5447 99.1184 37.4584 98.8373 37.2858C98.5562 37.1132 98.3367 36.8739 98.1788 36.5682C98.0235 36.2624 97.9458 35.9097 97.9458 35.5102C97.9458 35.1058 98.0235 34.7507 98.1788 34.4449C98.3367 34.1366 98.5562 33.8962 98.8373 33.7236C99.1184 33.5485 99.4452 33.4609 99.8175 33.4609C100.19 33.4609 100.515 33.5485 100.794 33.7236C101.075 33.8962 101.293 34.1366 101.449 34.4449C101.607 34.7507 101.686 35.1058 101.686 35.5102C101.686 35.9097 101.607 36.2624 101.449 36.5682C101.293 36.8739 101.075 37.1132 100.794 37.2858C100.515 37.4584 100.19 37.5447 99.8175 37.5447ZM99.8175 36.8715C100.153 36.8715 100.417 36.7482 100.609 36.5016C100.802 36.255 100.898 35.9245 100.898 35.5102C100.898 35.091 100.8 34.7568 100.605 34.5078C100.413 34.2587 100.15 34.1342 99.8175 34.1342C99.4846 34.1342 99.2208 34.2587 99.0259 34.5078C98.8336 34.7544 98.7374 35.0885 98.7374 35.5102C98.7374 35.927 98.8336 36.2587 99.0259 36.5053C99.2183 36.7494 99.4822 36.8715 99.8175 36.8715Z" fill="black"/>
<path d="M93.731 37.4589V31.9473H95.7729C96.3623 31.9473 96.8296 32.1014 97.1748 32.4096C97.5201 32.7179 97.6927 33.1359 97.6927 33.6636C97.6927 34.0163 97.6125 34.3221 97.4523 34.581C97.292 34.8375 97.0663 35.036 96.7753 35.1766C96.4843 35.3147 96.1415 35.3837 95.747 35.3837H94.5522V37.4589H93.731ZM94.5522 34.6735H95.7322C96.0873 34.6735 96.3672 34.5835 96.5719 34.4035C96.779 34.221 96.8826 33.9744 96.8826 33.6636C96.8826 33.3529 96.779 33.1088 96.5719 32.9312C96.3672 32.7512 96.0873 32.6612 95.7322 32.6612H94.5522V34.6735Z" fill="black"/>
<path d="M86.125 54.9818C86.125 53.9358 86.9729 53.0879 88.0189 53.0879H111.693C112.739 53.0879 113.587 53.9358 113.587 54.9818V76.762C113.587 77.8079 112.739 78.6559 111.693 78.6559H88.0189C86.9729 78.6559 86.125 77.8079 86.125 76.762V54.9818Z" fill="#C1E5FF"/>
<path d="M111.693 77.7089V78.6559H88.0189V77.7089H111.693ZM112.64 76.762V54.9818C112.64 54.4588 112.216 54.0349 111.693 54.0349H88.0189C87.4959 54.0349 87.072 54.4588 87.072 54.9818V76.762C87.072 77.285 87.4959 77.7089 88.0189 77.7089V78.6559L87.9214 78.6536C86.953 78.6044 86.1764 77.8279 86.1273 76.8595L86.125 76.762V54.9818C86.125 53.9685 86.9207 53.141 87.9214 53.0902L88.0189 53.0879H111.693C112.739 53.0879 113.587 53.9358 113.587 54.9818V76.762L113.585 76.8595C113.534 77.8602 112.706 78.6559 111.693 78.6559V77.7089C112.216 77.7089 112.64 77.285 112.64 76.762Z" fill="#3C89C1"/>
<path d="M103.876 68.7846C103.536 68.7846 103.239 68.6995 102.985 68.5294C102.731 68.3568 102.534 68.1188 102.393 67.8155C102.252 67.5097 102.182 67.1558 102.182 66.7538C102.182 66.3519 102.252 65.9992 102.393 65.6959C102.536 65.3901 102.735 65.1521 102.989 64.982C103.243 64.8093 103.537 64.723 103.873 64.723C104.127 64.723 104.358 64.776 104.568 64.8821C104.778 64.9881 104.945 65.1497 105.071 65.3667H105.079V63.1953H105.859V68.7069H105.093V68.1114H105.086C104.955 68.3383 104.784 68.5072 104.572 68.6182C104.362 68.7291 104.13 68.7846 103.876 68.7846ZM104.035 68.1114C104.368 68.1114 104.633 67.9881 104.831 67.7415C105.03 67.4924 105.13 67.1632 105.13 66.7538C105.13 66.342 105.03 66.0128 104.831 65.7662C104.633 65.5171 104.368 65.3926 104.035 65.3926C103.72 65.3926 103.463 65.5097 103.266 65.744C103.071 65.9758 102.974 66.3124 102.974 66.7538C102.974 67.1952 103.071 67.5319 103.266 67.7637C103.463 67.9955 103.72 68.1114 104.035 68.1114Z" fill="black"/>
<path d="M99.8175 68.7928C99.4452 68.7928 99.1184 68.7064 98.8373 68.5338C98.5562 68.3612 98.3367 68.122 98.1788 67.8162C98.0235 67.5104 97.9458 67.1578 97.9458 66.7583C97.9458 66.3538 98.0235 65.9987 98.1788 65.6929C98.3367 65.3847 98.5562 65.1442 98.8373 64.9716C99.1184 64.7965 99.4452 64.709 99.8175 64.709C100.19 64.709 100.515 64.7965 100.794 64.9716C101.075 65.1442 101.293 65.3847 101.449 65.6929C101.607 65.9987 101.686 66.3538 101.686 66.7583C101.686 67.1578 101.607 67.5104 101.449 67.8162C101.293 68.122 101.075 68.3612 100.794 68.5338C100.515 68.7064 100.19 68.7928 99.8175 68.7928ZM99.8175 68.1195C100.153 68.1195 100.417 67.9962 100.609 67.7496C100.802 67.503 100.898 67.1726 100.898 66.7583C100.898 66.339 100.8 66.0049 100.605 65.7558C100.413 65.5068 100.15 65.3822 99.8175 65.3822C99.4846 65.3822 99.2208 65.5068 99.0259 65.7558C98.8336 66.0024 98.7374 66.3366 98.7374 66.7583C98.7374 67.175 98.8336 67.5067 99.0259 67.7533C99.2183 67.9975 99.4822 68.1195 99.8175 68.1195Z" fill="black"/>
<path d="M93.731 68.7069V63.1953H95.7729C96.3623 63.1953 96.8296 63.3494 97.1748 63.6577C97.5201 63.966 97.6927 64.3839 97.6927 64.9117C97.6927 65.2643 97.6125 65.5701 97.4523 65.8291C97.292 66.0855 97.0663 66.284 96.7753 66.4246C96.4843 66.5627 96.1415 66.6318 95.747 66.6318H94.5522V68.7069H93.731ZM94.5522 65.9215H95.7322C96.0873 65.9215 96.3672 65.8315 96.5719 65.6515C96.779 65.469 96.8826 65.2224 96.8826 64.9117C96.8826 64.601 96.779 64.3568 96.5719 64.1793C96.3672 63.9992 96.0873 63.9092 95.7322 63.9092H94.5522V65.9215Z" fill="black"/>
<path d="M85.5615 9.52658V5.62035H86.3087V6.2529H86.3235C86.3951 6.03835 86.5073 5.87189 86.6602 5.75352C86.8155 5.63268 87.0177 5.57227 87.2668 5.57227C87.326 5.57227 87.3802 5.57473 87.4296 5.57966C87.4789 5.5846 87.5196 5.58829 87.5516 5.59076V6.31948C87.522 6.31208 87.469 6.30468 87.3926 6.29728C87.3161 6.28742 87.2323 6.28249 87.141 6.28249C86.9216 6.28249 86.7329 6.35894 86.5751 6.51183C86.4197 6.66473 86.342 6.90023 86.342 7.21835V9.52658H85.5615Z" fill="black"/>
<path d="M83.1009 9.60917C82.7137 9.60917 82.3808 9.52162 82.1021 9.34653C81.8259 9.17144 81.6126 8.931 81.4622 8.62521C81.3142 8.31696 81.2402 7.96678 81.2402 7.57468C81.2402 7.17764 81.3179 6.825 81.4733 6.51674C81.6286 6.20849 81.8432 5.96681 82.1169 5.79172C82.3907 5.61417 82.7051 5.52539 83.0602 5.52539C83.4301 5.52539 83.7507 5.6117 84.022 5.78433C84.2957 5.95695 84.5078 6.19739 84.6582 6.50565C84.8086 6.81144 84.8838 7.16531 84.8838 7.56728V7.77813H82.0096C82.0244 8.13077 82.1256 8.4156 82.313 8.63261C82.5029 8.84962 82.7692 8.95813 83.112 8.95813C83.3685 8.95813 83.5793 8.90018 83.7445 8.78427C83.9098 8.66837 84.0195 8.51794 84.0737 8.33299H84.8247C84.7778 8.58452 84.673 8.80647 84.5102 8.99882C84.3499 9.19117 84.1477 9.3416 83.9036 9.45011C83.6619 9.55615 83.3943 9.60917 83.1009 9.60917ZM82.017 7.18627H84.1218C84.0898 6.87555 83.98 6.63018 83.7926 6.45016C83.6052 6.26767 83.3635 6.17643 83.0676 6.17643C82.7717 6.17643 82.53 6.26767 82.3426 6.45016C82.1576 6.63018 82.0491 6.87555 82.017 7.18627Z" fill="black"/>
<path d="M80.8796 5.61416V6.2578H80.088V8.48834C80.088 8.63384 80.1176 8.73495 80.1767 8.79166C80.2359 8.84838 80.3432 8.87674 80.4986 8.87674H80.8796V9.52038H80.3876C79.665 9.52038 79.3038 9.20966 79.3038 8.58822V6.2578H78.6157V5.61416H79.3038V4.54883H80.088V5.61416H80.8796Z" fill="black"/>
<path d="M76.6582 9.60917C76.3598 9.60917 76.091 9.56108 75.8518 9.4649C75.6125 9.36873 75.419 9.2257 75.271 9.03581C75.1255 8.84593 75.0441 8.61042 75.0269 8.32929H75.7963C75.8407 8.76824 76.123 8.98772 76.6434 8.98772C76.89 8.98772 77.0848 8.93717 77.2278 8.83606C77.3733 8.73495 77.4461 8.60672 77.4461 8.45136C77.4461 8.31819 77.3943 8.21215 77.2907 8.13324C77.1871 8.05186 77.0515 7.99267 76.8838 7.95568L76.2365 7.81142C75.4892 7.64866 75.1156 7.27629 75.1156 6.6943C75.1156 6.34905 75.2525 6.06792 75.5262 5.85091C75.8024 5.6339 76.1637 5.52539 76.6101 5.52539C77.0515 5.52539 77.414 5.64006 77.6976 5.8694C77.9837 6.09628 78.1316 6.407 78.1415 6.80157H77.3943C77.3918 6.61169 77.3203 6.45509 77.1797 6.33179C77.0392 6.20602 76.853 6.14314 76.6212 6.14314C76.3992 6.14314 76.2229 6.19492 76.0922 6.2985C75.9615 6.40207 75.8961 6.52907 75.8961 6.6795C75.8961 6.81267 75.9455 6.91994 76.0441 7.00132C76.1452 7.0827 76.2833 7.14312 76.4584 7.18258L77.1242 7.33054C77.504 7.41438 77.7839 7.54385 77.9639 7.71894C78.144 7.89403 78.234 8.12337 78.234 8.40697C78.234 8.65604 78.1649 8.87059 78.0268 9.05061C77.8912 9.22816 77.705 9.36626 77.4683 9.4649C77.2315 9.56108 76.9615 9.60917 76.6582 9.60917Z" fill="black"/>
<path d="M72.3828 9.60304C72.1164 9.60304 71.876 9.54509 71.6615 9.42919C71.4494 9.31082 71.2805 9.13696 71.1547 8.90762C71.0314 8.67827 70.9697 8.39345 70.9697 8.05313V5.61914H71.7502V7.95695C71.7502 8.27014 71.8255 8.50688 71.9759 8.66718C72.1263 8.825 72.3372 8.90392 72.6084 8.90392C72.8723 8.90392 73.0942 8.82254 73.2743 8.65978C73.4568 8.49455 73.548 8.23069 73.548 7.86818V5.61914H74.3285V9.52536H73.5628V8.93721C73.2965 9.3811 72.9031 9.60304 72.3828 9.60304Z" fill="black"/>
<path d="M70.0881 4.00977V9.52139H69.3076V4.00977H70.0881Z" fill="black"/>
<path d="M66.9303 9.60917C66.5579 9.60917 66.2311 9.52286 65.95 9.35023C65.6713 9.17761 65.4543 8.9384 65.299 8.63261C65.1436 8.32436 65.0659 7.97171 65.0659 7.57468C65.0659 7.17271 65.1436 6.8176 65.299 6.50934C65.4568 6.20109 65.675 5.96065 65.9537 5.78802C66.2324 5.61294 66.5579 5.52539 66.9303 5.52539C67.241 5.52539 67.5184 5.58704 67.7626 5.71034C68.0092 5.83118 68.2089 5.99887 68.3618 6.21342C68.5147 6.42796 68.6072 6.67334 68.6393 6.94953H67.8624C67.823 6.73006 67.7243 6.55003 67.5665 6.40947C67.4087 6.2689 67.1978 6.19862 66.934 6.19862C66.5961 6.19862 66.3322 6.32316 66.1424 6.57223C65.9525 6.8213 65.8575 7.15545 65.8575 7.57468C65.8575 7.98897 65.9525 8.31942 66.1424 8.56603C66.3322 8.81263 66.5961 8.93594 66.934 8.93594C67.2028 8.93594 67.4099 8.86812 67.5554 8.73249C67.7009 8.59439 67.7996 8.41067 67.8513 8.18133H68.6393C68.6097 8.45259 68.5184 8.69673 68.3655 8.91374C68.2126 9.12829 68.0129 9.29845 67.7663 9.42421C67.5197 9.54752 67.241 9.60917 66.9303 9.60917Z" fill="black"/>
<path d="M61.4429 5.00167C61.3365 4.66103 61.0811 4.38433 60.7618 4.2142L54.2705 1.10657C54.1004 1.02131 53.9088 1 53.7384 1C53.5681 1 53.3767 1 53.2064 1.04263L46.7151 4.17158C46.5551 4.24478 46.4142 4.35392 46.3033 4.49051C46.1924 4.62709 46.1145 4.78743 46.0757 4.95904L44.4786 11.9618C44.4472 12.1391 44.4517 12.3209 44.492 12.4964C44.5322 12.672 44.6074 12.8376 44.7129 12.9835L49.2041 18.5388C49.4595 18.7944 49.8212 18.9651 50.1832 18.9858H57.335C57.7181 19.0285 58.0798 18.8581 58.3141 18.5388L62.8052 12.9835C63.0151 12.6868 63.1062 12.3223 63.0606 11.9618L61.4429 5.00167V5.00167Z" fill="#326DE6"/>
<path d="M60.4442 11.6884C60.4229 11.6884 60.4016 11.6884 60.4016 11.6671C60.4016 11.6458 60.359 11.6465 60.3156 11.6465C60.2305 11.6252 60.1454 11.6252 60.0602 11.6252C60.0165 11.6286 59.9727 11.6213 59.9325 11.6039H59.9112C59.6668 11.582 59.4246 11.5393 59.1875 11.4762C59.1535 11.4633 59.1227 11.4433 59.0971 11.4176C59.0714 11.392 59.0515 11.3611 59.0386 11.3272L58.8683 11.2846C58.9534 10.6674 58.9108 10.0288 58.7831 9.41163C58.6328 8.79268 58.3812 8.20288 58.0382 7.66618L58.1667 7.53868V7.51737C58.1667 7.45342 58.188 7.36836 58.2304 7.32573C58.4221 7.1556 58.6137 7.02791 58.8265 6.89944L58.9542 6.83569C59.0394 6.79306 59.1032 6.75044 59.1882 6.708C59.2095 6.68669 59.2309 6.68669 59.2522 6.66537C59.2735 6.64406 59.2522 6.64406 59.2522 6.62274C59.4436 6.47296 59.4862 6.21816 59.3372 6.0273C59.301 5.98281 59.2557 5.94652 59.2043 5.92083C59.153 5.89515 59.0968 5.88065 59.0394 5.87829C58.9313 5.88108 58.8269 5.91835 58.7414 5.98467V5.98467L58.7201 6.00598C58.6988 6.0273 58.6775 6.04842 58.6561 6.04842C58.5924 6.11236 58.5285 6.1763 58.4858 6.24005C58.4647 6.28268 58.4221 6.304 58.4008 6.32531C58.2439 6.50321 58.0651 6.66051 57.8687 6.79345C57.826 6.81477 57.7834 6.83608 57.741 6.83608C57.7197 6.83608 57.677 6.83608 57.6557 6.81477H57.6346L57.4643 6.92114C57.294 6.75082 57.1023 6.5807 56.9322 6.41037C56.1445 5.79303 55.1654 5.40996 54.165 5.30358L54.1437 5.13326V5.15457C54.0799 5.11194 54.0586 5.04819 54.0373 4.98425C54.0373 4.75018 54.0373 4.51592 54.0799 4.26053V4.23922C54.0799 4.19678 54.1012 4.15415 54.1012 4.11153C54.1226 4.02646 54.1226 3.9414 54.1437 3.85614V3.72845C54.165 3.5153 53.9947 3.30216 53.7819 3.28143C53.6542 3.26011 53.5265 3.32406 53.4201 3.43043C53.3802 3.46916 53.3483 3.51545 53.3263 3.56661C53.3043 3.61777 53.2928 3.67278 53.2923 3.72845V3.72845V3.83483C53.2923 3.92008 53.3136 4.00515 53.3349 4.09021C53.3522 4.13049 53.3595 4.17437 53.3562 4.2181V4.23922C53.3981 4.4729 53.3981 4.70697 53.3981 4.96158C53.3767 5.02552 53.3554 5.08927 53.2915 5.1319V5.17472L53.2704 5.34505C53.0361 5.36617 52.802 5.40879 52.5466 5.45142C51.5462 5.66457 50.6308 6.19626 49.9284 6.9413L49.8007 6.85623H49.7794C49.7583 6.85623 49.737 6.87755 49.6944 6.87755C49.6517 6.87755 49.6093 6.85623 49.5667 6.83492C49.3746 6.68845 49.1965 6.52453 49.0346 6.34527V6.34527C49.0133 6.30283 48.9706 6.28152 48.9493 6.26021C48.8856 6.19626 48.8429 6.13251 48.7792 6.06857C48.7579 6.04726 48.7366 6.04726 48.7153 6.02614L48.6939 6.00482C48.6085 5.93851 48.5041 5.90123 48.3959 5.89844C48.2682 5.89844 48.1619 5.94088 48.0979 6.04726C48.0377 6.14013 48.0131 6.25167 48.0288 6.36125C48.0445 6.47083 48.0993 6.57102 48.1832 6.64328C48.186 6.64323 48.1888 6.64375 48.1914 6.6448C48.194 6.64585 48.1964 6.64742 48.1984 6.64941C48.2003 6.6514 48.2019 6.65377 48.203 6.65638C48.204 6.65899 48.2045 6.66178 48.2045 6.6646C48.2045 6.6646 48.2469 6.70723 48.2682 6.70723C48.3439 6.75417 48.4221 6.7968 48.5025 6.83492L48.6314 6.89925C48.8445 7.02713 49.0576 7.15483 49.2272 7.32554C49.2698 7.36816 49.3124 7.45323 49.2911 7.51717V7.49586L49.4188 7.62355C49.3975 7.66618 49.3762 7.68749 49.3551 7.73012C48.6947 8.77239 48.4182 10.0069 48.6097 11.2202L48.4393 11.2627C48.4394 11.2655 48.4389 11.2683 48.4378 11.2709C48.4368 11.2735 48.4352 11.2759 48.4332 11.2779C48.4312 11.2799 48.4288 11.2814 48.4262 11.2825C48.4236 11.2835 48.4208 11.2841 48.418 11.284C48.3967 11.3479 48.333 11.3904 48.269 11.433C48.0326 11.4979 47.7906 11.5407 47.5463 11.5607V11.5607C47.5026 11.5573 47.4588 11.5647 47.4186 11.582C47.3335 11.582 47.2484 11.6033 47.1632 11.6033C47.1419 11.6033 47.1205 11.6246 47.0781 11.6246C47.0568 11.6246 47.0568 11.6246 47.0355 11.646C46.9805 11.6548 46.9278 11.6746 46.8807 11.7042C46.8335 11.7338 46.7928 11.7726 46.7609 11.8183C46.729 11.8639 46.7066 11.9155 46.6951 11.97C46.6835 12.0245 46.683 12.0807 46.6937 12.1354V12.1354C46.7363 12.327 46.9279 12.4547 47.12 12.4334C47.1568 12.4367 47.1938 12.4293 47.2265 12.4121V12.4121C47.2478 12.4121 47.2479 12.4121 47.2479 12.3908C47.2479 12.3695 47.3116 12.3908 47.3329 12.3908C47.418 12.3695 47.5032 12.327 47.567 12.3057C47.6096 12.2844 47.6522 12.2631 47.6947 12.2631H47.716C47.9434 12.1769 48.1785 12.1128 48.4182 12.0717H48.4395C48.5024 12.0699 48.5636 12.0928 48.6098 12.1354C48.6127 12.1354 48.6155 12.1359 48.6181 12.1369C48.6207 12.138 48.623 12.1395 48.625 12.1415C48.627 12.1435 48.6286 12.1459 48.6296 12.1485C48.6307 12.1511 48.6312 12.1539 48.6312 12.1567V12.1567L48.8226 12.1354C49.1419 13.1145 49.738 13.9872 50.5681 14.6257C50.7597 14.7747 50.9298 14.9024 51.1428 15.009L51.0364 15.158C51.0364 15.1608 51.0369 15.1635 51.0379 15.1661C51.0389 15.1687 51.0405 15.1711 51.0425 15.173C51.0444 15.175 51.0468 15.1766 51.0494 15.1776C51.052 15.1786 51.0547 15.1792 51.0575 15.1791C51.1002 15.243 51.1002 15.3281 51.0788 15.3922C50.9938 15.6054 50.8657 15.8185 50.7384 16.0096V16.0307C50.7171 16.0733 50.6958 16.0946 50.6531 16.1373C50.6105 16.1799 50.5681 16.265 50.5041 16.3504C50.4828 16.3717 50.4828 16.393 50.4617 16.4144C50.4617 16.4172 50.4612 16.42 50.4602 16.4226C50.4591 16.4252 50.4575 16.4275 50.4556 16.4295C50.4536 16.4315 50.4512 16.433 50.4486 16.434C50.446 16.4351 50.4432 16.4356 50.4404 16.4355C50.334 16.6486 50.4191 16.9038 50.6107 17.0102C50.657 17.0341 50.7077 17.0486 50.7597 17.0528C50.9298 17.0528 51.0788 16.9464 51.1641 16.7974C51.164 16.7946 51.1645 16.7918 51.1655 16.7892C51.1666 16.7866 51.1681 16.7843 51.1701 16.7823C51.1721 16.7803 51.1744 16.7787 51.177 16.7776C51.1796 16.7766 51.1824 16.7761 51.1852 16.7761C51.1852 16.7548 51.2065 16.7335 51.2278 16.7124C51.2492 16.6271 51.2918 16.5634 51.3131 16.4781L51.3555 16.3504C51.4195 16.1164 51.5259 15.9034 51.6322 15.6906C51.6734 15.6305 51.7333 15.5856 51.8026 15.563C51.8239 15.563 51.8239 15.563 51.8239 15.5416L51.9089 15.3713C52.505 15.6054 53.1223 15.712 53.7608 15.712C54.1487 15.7146 54.5351 15.6642 54.9094 15.5624C55.1435 15.5197 55.3778 15.4347 55.5905 15.3707L55.6756 15.5197C55.6969 15.5197 55.6969 15.5197 55.6969 15.5411C55.7662 15.5637 55.8261 15.6086 55.8672 15.6687C55.9736 15.8819 56.0804 16.095 56.1439 16.3276V16.3489L56.1866 16.4766C56.2079 16.5618 56.2292 16.6469 56.2716 16.7106C56.2929 16.7319 56.2929 16.7533 56.3143 16.7746C56.3142 16.7774 56.3147 16.7802 56.3158 16.7828C56.3168 16.7854 56.3184 16.7878 56.3204 16.7898C56.3224 16.7918 56.3247 16.7933 56.3274 16.7944C56.33 16.7954 56.3328 16.7959 56.3356 16.7959V16.7959C56.4208 16.9459 56.5702 17.0526 56.7406 17.0526C56.8043 17.0526 56.8469 17.0313 56.9109 17.01C56.9959 16.9676 57.081 16.8823 57.1023 16.7759C57.1272 16.6697 57.1198 16.5585 57.081 16.4566V16.4566C57.0811 16.4538 57.0806 16.451 57.0796 16.4484C57.0785 16.4458 57.077 16.4434 57.075 16.4414C57.073 16.4394 57.0707 16.4379 57.0681 16.4368C57.0655 16.4358 57.0627 16.4352 57.0599 16.4353C57.0599 16.4142 57.0386 16.3929 57.0173 16.3715C56.9801 16.2925 56.9297 16.2204 56.8682 16.1584C56.8469 16.116 56.8256 16.0946 56.7832 16.052V16.0096C56.6342 15.8179 56.5276 15.605 56.4425 15.3922C56.4212 15.3283 56.4212 15.2432 56.4639 15.1791C56.4638 15.1763 56.4643 15.1735 56.4654 15.1709C56.4664 15.1683 56.468 15.166 56.47 15.164C56.472 15.162 56.4744 15.1605 56.477 15.1594C56.4796 15.1584 56.4824 15.1579 56.4852 15.158V15.158L56.4212 14.9877C57.5063 14.3277 58.337 13.3061 58.7201 12.0928L58.8904 12.1141C58.8932 12.1141 58.896 12.1136 58.8986 12.1126C58.9012 12.1115 58.9036 12.11 58.9055 12.108C58.9075 12.106 58.9091 12.1036 58.9101 12.101C58.9111 12.0984 58.9116 12.0956 58.9115 12.0928C58.9579 12.0503 59.019 12.0274 59.0819 12.029H59.1032C59.336 12.0702 59.5641 12.1344 59.7843 12.2205H59.8056C59.8482 12.2418 59.8906 12.2631 59.9333 12.2631C60.0185 12.3057 60.0823 12.3484 60.1673 12.3695C60.1887 12.3695 60.21 12.3908 60.2526 12.3908C60.2739 12.3908 60.2739 12.3908 60.2952 12.4121C60.3279 12.4293 60.3648 12.4367 60.4016 12.4334C60.4943 12.4321 60.5845 12.403 60.6605 12.3499C60.7366 12.2968 60.7949 12.2221 60.8279 12.1354C60.8192 12.0301 60.7775 11.9301 60.7088 11.8499C60.64 11.7696 60.5476 11.7131 60.4448 11.6884H60.4442ZM54.2927 11.0296L53.718 11.3063L53.1434 11.0296L52.9944 10.4122L53.3981 9.9005H54.0375L54.4419 10.4113L54.2927 11.0296ZM57.7623 9.64609C57.8647 10.0853 57.8934 10.5384 57.8474 10.987L55.8252 10.4113C55.6338 10.3688 55.5274 10.1772 55.5698 9.98499C55.5852 9.92891 55.6145 9.87764 55.6551 9.83598L57.2513 8.38873C57.4866 8.77809 57.659 9.20208 57.7623 9.64512V9.64609ZM56.6129 7.60165L54.8674 8.83692C54.7184 8.92198 54.5056 8.90067 54.3993 8.75166C54.3785 8.73292 54.362 8.70989 54.3509 8.68417C54.3399 8.65844 54.3346 8.63063 54.3353 8.60265L54.2076 6.453C55.1441 6.55938 55.9742 6.96377 56.6129 7.60224V7.60165ZM52.7602 6.51656L53.1865 6.4315L53.0801 8.56002C53.0801 8.75147 52.9098 8.90047 52.7183 8.90047C52.6544 8.90047 52.6117 8.87916 52.548 8.85784L50.7812 7.60204C51.334 7.06957 52.0153 6.68611 52.7602 6.51617V6.51656ZM50.1637 8.3897L51.7388 9.79451C51.8876 9.92221 51.9089 10.135 51.7813 10.284C51.7388 10.3479 51.6962 10.3692 51.6109 10.3905L49.5461 10.986C49.4834 10.0778 49.6987 9.17206 50.1635 8.38932L50.1637 8.3897ZM49.8015 11.9864L51.9088 11.6246C52.0791 11.6246 52.2494 11.731 52.2707 11.9013C52.292 11.9651 52.292 12.0503 52.2494 12.1145L51.441 14.0723C50.6956 13.5828 50.0995 12.8378 49.8015 11.9864ZM54.6333 14.6257C54.3353 14.6896 54.0373 14.7323 53.718 14.7323C53.2711 14.7323 52.8028 14.647 52.3771 14.5191L53.4201 12.6249C53.5265 12.4972 53.6968 12.4545 53.8464 12.5396C53.9082 12.5831 53.9653 12.6331 54.0166 12.6886L55.0383 14.5404C54.9017 14.5608 54.7665 14.5893 54.6333 14.6257V14.6257ZM57.2298 12.7741C56.9054 13.2901 56.469 13.7266 55.9529 14.051L55.1226 12.0503C55.0802 11.88 55.1652 11.7097 55.3142 11.646C55.3782 11.6246 55.4419 11.6033 55.5059 11.6033L57.6344 11.9651C57.528 12.2631 57.4003 12.5398 57.23 12.7741H57.2298Z" fill="white"/>
<path d="M15.1001 88.1205C15.1001 87.0745 15.948 86.2266 16.994 86.2266H111.691C112.737 86.2266 113.585 87.0745 113.585 88.1205V117.003C113.585 118.049 112.737 118.897 111.691 118.897H16.994C15.948 118.897 15.1001 118.049 15.1001 117.003V88.1205Z" fill="url(#paint0_linear_219_11197)"/>
<path d="M111.691 117.95V118.897H16.994V117.95H111.691ZM112.638 117.003V88.1205C112.638 87.5975 112.214 87.1735 111.691 87.1735H16.994C16.5037 87.1735 16.1006 87.5463 16.0522 88.0238L16.0471 88.1205V117.003C16.0471 117.526 16.471 117.95 16.994 117.95V118.897C15.9808 118.897 15.1532 118.101 15.1024 117.1L15.1001 117.003V88.1205C15.1001 87.0745 15.948 86.2266 16.994 86.2266H111.691L111.789 86.2289C112.789 86.2796 113.585 87.1072 113.585 88.1205V117.003C113.585 118.016 112.789 118.844 111.789 118.894L111.691 118.897V117.95C112.214 117.95 112.638 117.526 112.638 117.003Z" fill="url(#paint1_linear_219_11197)"/>
<path d="M72.8477 93.6036V93.0801H75.9913V93.6036H74.7215V97.0801H74.1228V93.6036H72.8477Z" fill="black"/>
<path d="M69.1553 97.0801V93.0801H69.8157L71.3432 95.4989C71.3897 95.574 71.4533 95.6805 71.5338 95.8183C71.6144 95.9561 71.6949 96.0957 71.7754 96.2371C71.7701 96.0921 71.7656 95.9454 71.762 95.7968C71.7602 95.6465 71.7593 95.5347 71.7593 95.4613V93.0801H72.358V97.0801H71.6922L70.3258 94.919C70.2703 94.8313 70.1897 94.7007 70.0841 94.5271C69.9803 94.3517 69.8622 94.1503 69.7298 93.923C69.7387 94.1575 69.7441 94.3597 69.7459 94.5297C69.7495 94.698 69.7513 94.8268 69.7513 94.9163V97.0801H69.1553Z" fill="black"/>
<path d="M65.9146 97.0801V93.0801H68.6045V93.6036H66.5105V94.7821H68.4488V95.3002H66.5105V96.5566H68.6045V97.0801H65.9146Z" fill="black"/>
<path d="M62.9297 97.0801V93.0801H63.5257V96.5566H65.4183V97.0801H62.9297Z" fill="black"/>
<path d="M58.9048 97.0801L60.3571 93.0801H61.0766L62.5182 97.0801H61.8713L61.5169 96.0411H59.9035L59.5383 97.0801H58.9048ZM60.0833 95.5338H61.3424L61.1008 94.825C61.0471 94.6604 60.9898 94.4841 60.929 94.2962C60.8681 94.1083 60.7983 93.8845 60.7196 93.625C60.639 93.8845 60.5683 94.1083 60.5075 94.2962C60.4466 94.4841 60.3885 94.6604 60.333 94.825L60.0833 95.5338Z" fill="black"/>
<path d="M57.2287 97.0801L55.7764 93.0801H56.418L57.2099 95.3351C57.2583 95.4801 57.3137 95.651 57.3764 95.8479C57.439 96.0447 57.5124 96.2747 57.5965 96.5378C57.6771 96.2747 57.7477 96.0447 57.8086 95.8479C57.8712 95.651 57.9267 95.4801 57.975 95.3351L58.7455 93.0801H59.3764L57.9455 97.0801H57.2287Z" fill="black"/>
<path d="M53.8736 97.1562C53.5192 97.1562 53.2034 97.0694 52.926 96.8958C52.6485 96.7222 52.4302 96.4806 52.2709 96.171C52.1134 95.8613 52.0347 95.5025 52.0347 95.0945C52.0347 94.6846 52.1134 94.3249 52.2709 94.0153C52.4302 93.7039 52.6485 93.4613 52.926 93.2877C53.2034 93.1141 53.5192 93.0273 53.8736 93.0273C54.2298 93.0273 54.5465 93.1141 54.824 93.2877C55.1014 93.4613 55.3188 93.7039 55.4763 94.0153C55.6356 94.3249 55.7152 94.6846 55.7152 95.0945C55.7152 95.5025 55.6356 95.8613 55.4763 96.171C55.3188 96.4806 55.1014 96.7222 54.824 96.8958C54.5465 97.0694 54.2298 97.1562 53.8736 97.1562ZM53.8736 96.6112C54.1045 96.6112 54.3139 96.5531 54.5018 96.4367C54.6897 96.3186 54.8392 96.1468 54.9501 95.9213C55.0611 95.694 55.1166 95.4184 55.1166 95.0945C55.1166 94.7687 55.0611 94.4922 54.9501 94.2649C54.8392 94.0376 54.6897 93.8658 54.5018 93.7495C54.3139 93.6314 54.1045 93.5723 53.8736 93.5723C53.6445 93.5723 53.436 93.6314 53.2481 93.7495C53.0602 93.8658 52.9107 94.0376 52.7998 94.2649C52.6888 94.4922 52.6333 94.7687 52.6333 95.0945C52.6333 95.4184 52.6888 95.694 52.7998 95.9213C52.9107 96.1468 53.0602 96.3186 53.2481 96.4367C53.436 96.5531 53.6445 96.6112 53.8736 96.6112Z" fill="black"/>
<path d="M50.1203 97.1562C49.6406 97.1562 49.2621 97.0354 48.9847 96.7938C48.7091 96.5504 48.5713 96.2175 48.5713 95.7951H49.1673C49.1691 96.0582 49.2532 96.264 49.4196 96.4126C49.5879 96.5611 49.8214 96.6354 50.1203 96.6354C50.3923 96.6354 50.6098 96.5781 50.7726 96.4636C50.9373 96.3472 51.0196 96.1915 51.0196 95.9965C51.0196 95.8425 50.9606 95.7182 50.8424 95.6233C50.7261 95.5267 50.5292 95.4452 50.2518 95.379L49.8143 95.2743C49.4098 95.1777 49.1145 95.0434 48.9283 94.8716C48.744 94.698 48.6518 94.4725 48.6518 94.1951C48.6518 93.9607 48.7109 93.7558 48.829 93.5804C48.9471 93.405 49.1127 93.269 49.3257 93.1723C49.5404 93.0757 49.791 93.0273 50.0773 93.0273C50.5087 93.0273 50.8514 93.1401 51.1055 93.3656C51.3615 93.5911 51.4957 93.8989 51.5082 94.2891H50.931C50.9167 94.0582 50.8326 93.8775 50.6787 93.7468C50.5248 93.6144 50.3216 93.5481 50.0693 93.5481C49.8277 93.5481 49.6299 93.6063 49.476 93.7226C49.3221 93.8372 49.2451 93.9848 49.2451 94.1656C49.2451 94.3106 49.3042 94.4287 49.4223 94.52C49.5404 94.6094 49.7364 94.6873 50.0102 94.7535L50.4424 94.8555C50.8433 94.9504 51.1386 95.0873 51.3284 95.2663C51.5199 95.4452 51.6156 95.6779 51.6156 95.9642C51.6156 96.2041 51.5539 96.4135 51.4304 96.5924C51.3069 96.7714 51.1333 96.9101 50.9096 97.0085C50.6858 97.107 50.4228 97.1562 50.1203 97.1562Z" fill="black"/>
<path d="M48.0047 93.0801V97.0801H47.4087V93.0801H48.0047Z" fill="black"/>
<path d="M80.8422 112.745C80.5373 112.745 80.2669 112.699 80.031 112.607C79.7951 112.515 79.6061 112.384 79.4641 112.212C79.3242 112.041 79.2449 111.839 79.2261 111.605H80.2878C80.3045 111.728 80.3588 111.825 80.4507 111.896C80.5426 111.967 80.6678 112.003 80.8265 112.003C80.9748 112.003 81.0907 111.976 81.1742 111.924C81.2577 111.872 81.2995 111.804 81.2995 111.721C81.2995 111.583 81.1658 111.49 80.8986 111.442L80.3004 111.335C79.9746 111.277 79.7262 111.165 79.5549 111C79.3858 110.835 79.3012 110.622 79.3012 110.361C79.3012 110.036 79.4328 109.776 79.6959 109.582C79.959 109.385 80.3212 109.287 80.7827 109.287C81.2441 109.287 81.6116 109.389 81.8852 109.594C82.1587 109.799 82.3007 110.077 82.3111 110.43H81.3183C81.3162 110.315 81.2681 110.219 81.1742 110.142C81.0823 110.065 80.9643 110.026 80.8203 110.026C80.6804 110.026 80.5708 110.053 80.4914 110.108C80.4142 110.162 80.3755 110.23 80.3755 110.311C80.3755 110.447 80.4945 110.538 80.7326 110.584L81.3966 110.706C81.7369 110.769 81.9885 110.873 82.1514 111.019C82.3142 111.165 82.3957 111.362 82.3957 111.608C82.3957 111.833 82.3299 112.032 82.1984 112.203C82.0689 112.374 81.8872 112.508 81.6534 112.604C81.4216 112.698 81.1512 112.745 80.8422 112.745Z" fill="black"/>
<path d="M77.28 112.745C76.9417 112.745 76.6442 112.671 76.3874 112.522C76.1326 112.374 75.9332 112.171 75.7891 111.912C75.6472 111.651 75.5762 111.352 75.5762 111.016C75.5762 110.68 75.6472 110.382 75.7891 110.123C75.9332 109.862 76.1316 109.658 76.3842 109.509C76.6369 109.361 76.9261 109.287 77.2518 109.287C77.5838 109.287 77.8751 109.36 78.1256 109.506C78.3783 109.65 78.5756 109.851 78.7176 110.108C78.8596 110.362 78.9306 110.657 78.9306 110.991V111.282H76.6285C76.6348 111.493 76.6974 111.66 76.8165 111.783C76.9376 111.906 77.1046 111.968 77.3176 111.968C77.4763 111.968 77.6089 111.936 77.7153 111.871C77.8239 111.806 77.898 111.72 77.9377 111.611H78.9055C78.8658 111.832 78.7698 112.029 78.6174 112.2C78.4649 112.371 78.2728 112.505 78.0411 112.601C77.8114 112.697 77.5577 112.745 77.28 112.745ZM76.6348 110.637H77.9252C77.9001 110.464 77.8312 110.328 77.7185 110.23C77.6057 110.132 77.4596 110.083 77.28 110.083C77.0983 110.083 76.9511 110.132 76.8384 110.23C76.7256 110.328 76.6578 110.464 76.6348 110.637Z" fill="black"/>
<path d="M75.3161 109.357V110.19H74.6365V111.553C74.6365 111.659 74.6574 111.732 74.6991 111.772C74.7409 111.812 74.8223 111.831 74.9434 111.831H75.3161V112.664H74.7054C74.3087 112.664 74.0174 112.59 73.8316 112.442C73.6478 112.292 73.556 112.056 73.556 111.734V110.19H72.9922V109.357H73.556V108.455H74.6365V109.357H75.3161Z" fill="black"/>
<path d="M71.1252 112.745C70.7869 112.745 70.4894 112.671 70.2326 112.522C69.9778 112.374 69.7784 112.171 69.6344 111.912C69.4924 111.651 69.4214 111.352 69.4214 111.016C69.4214 110.68 69.4924 110.382 69.6344 110.123C69.7784 109.862 69.9768 109.658 70.2294 109.509C70.4821 109.361 70.7713 109.287 71.097 109.287C71.429 109.287 71.7203 109.36 71.9708 109.506C72.2235 109.65 72.4208 109.851 72.5628 110.108C72.7048 110.362 72.7758 110.657 72.7758 110.991V111.282H70.4737C70.48 111.493 70.5426 111.66 70.6617 111.783C70.7828 111.906 70.9498 111.968 71.1628 111.968C71.3215 111.968 71.4541 111.936 71.5606 111.871C71.6691 111.806 71.7433 111.72 71.7829 111.611H72.7507C72.711 111.832 72.615 112.029 72.4626 112.2C72.3102 112.371 72.1181 112.505 71.8863 112.601C71.6566 112.697 71.4029 112.745 71.1252 112.745ZM70.48 110.637H71.7704C71.7453 110.464 71.6764 110.328 71.5637 110.23C71.4509 110.132 71.3048 110.083 71.1252 110.083C70.9435 110.083 70.7963 110.132 70.6836 110.23C70.5708 110.328 70.503 110.464 70.48 110.637Z" fill="black"/>
<path d="M66.784 110.869V112.667H65.7065V109.359H66.7714V109.895C66.8821 109.707 67.023 109.559 67.1943 109.45C67.3655 109.341 67.5753 109.287 67.8238 109.287C68.1829 109.287 68.4617 109.402 68.66 109.632C68.8605 109.861 68.9607 110.18 68.9607 110.587V112.667H67.8833V110.812C67.8833 110.616 67.8363 110.467 67.7424 110.365C67.6484 110.26 67.5158 110.208 67.3446 110.208C67.1755 110.208 67.0397 110.262 66.9374 110.371C66.8351 110.477 66.784 110.643 66.784 110.869Z" fill="black"/>
<path d="M63.1045 112.656V109.348H64.1475V109.931H64.1568C64.2174 109.72 64.3114 109.569 64.4387 109.477C64.5682 109.383 64.7436 109.336 64.9649 109.336C65.0234 109.336 65.0756 109.337 65.1215 109.339C65.1695 109.339 65.2155 109.34 65.2593 109.342V110.232C65.2196 110.23 65.1581 110.228 65.0745 110.225C64.991 110.223 64.9106 110.222 64.8334 110.222C64.6392 110.222 64.4815 110.287 64.3604 110.416C64.2414 110.546 64.1819 110.728 64.1819 110.961V112.656H63.1045Z" fill="black"/>
<path d="M61.0017 112.745C60.6634 112.745 60.3659 112.671 60.109 112.522C59.8543 112.374 59.6549 112.171 59.5108 111.912C59.3688 111.651 59.2979 111.352 59.2979 111.016C59.2979 110.68 59.3688 110.382 59.5108 110.123C59.6549 109.862 59.8533 109.658 60.1059 109.509C60.3586 109.361 60.6478 109.287 60.9735 109.287C61.3055 109.287 61.5968 109.36 61.8473 109.506C62.1 109.65 62.2973 109.851 62.4393 110.108C62.5812 110.362 62.6522 110.657 62.6522 110.991V111.282H60.3502C60.3565 111.493 60.4191 111.66 60.5381 111.783C60.6592 111.906 60.8263 111.968 61.0393 111.968C61.1979 111.968 61.3305 111.936 61.437 111.871C61.5456 111.806 61.6197 111.72 61.6594 111.611H62.6272C62.5875 111.832 62.4915 112.029 62.339 112.2C62.1866 112.371 61.9945 112.505 61.7627 112.601C61.5331 112.697 61.2794 112.745 61.0017 112.745ZM60.3565 110.637H61.6469C61.6218 110.464 61.5529 110.328 61.4402 110.23C61.3274 110.132 61.1812 110.083 61.0017 110.083C60.82 110.083 60.6728 110.132 60.5601 110.23C60.4473 110.328 60.3794 110.464 60.3565 110.637Z" fill="black"/>
<path d="M57.537 112.733C57.3198 112.733 57.1277 112.685 56.9607 112.589C56.7957 112.491 56.6704 112.344 56.5848 112.15H56.5786V112.661H55.5137V107.994H56.5911V109.798H56.5973C56.802 109.454 57.1183 109.281 57.5464 109.281C57.8261 109.281 58.0725 109.354 58.2855 109.501C58.4985 109.647 58.6645 109.849 58.7835 110.108C58.9046 110.367 58.9652 110.665 58.9652 111.001C58.9652 111.35 58.9056 111.654 58.7866 111.915C58.6697 112.174 58.5037 112.376 58.2886 112.52C58.0757 112.662 57.8251 112.733 57.537 112.733ZM57.2331 111.872C57.4315 111.872 57.5881 111.794 57.703 111.64C57.8178 111.485 57.8752 111.272 57.8752 111.001C57.8752 110.731 57.8178 110.521 57.703 110.368C57.5881 110.216 57.4315 110.14 57.2331 110.14C57.0306 110.14 56.8657 110.218 56.7383 110.374C56.6109 110.531 56.5472 110.74 56.5472 111.001C56.5472 111.266 56.6109 111.478 56.7383 111.637C56.8657 111.793 57.0306 111.872 57.2331 111.872Z" fill="black"/>
<path d="M52.7932 112.739C52.434 112.739 52.1542 112.624 51.9538 112.394C51.7554 112.165 51.6562 111.846 51.6562 111.439V109.359H52.7337V111.214C52.7337 111.41 52.7806 111.56 52.8746 111.665C52.9686 111.767 53.1012 111.818 53.2724 111.818C53.4415 111.818 53.5772 111.765 53.6795 111.658C53.7818 111.55 53.833 111.383 53.833 111.157V109.359H54.9104V112.667H53.8455V112.131C53.7349 112.319 53.5939 112.467 53.4227 112.576C53.2515 112.684 53.0416 112.739 52.7932 112.739Z" fill="black"/>
<path d="M47.3442 112.661V107.994H48.4718V110.077C48.5783 109.943 48.6858 109.81 48.7944 109.676C48.9029 109.54 49.0115 109.406 49.1201 109.272L50.1631 107.994H51.4879L49.7997 110.005L51.5537 112.661H50.2633L49.0637 110.766L48.4718 111.474V112.661H47.3442Z" fill="black"/>
<path d="M90.7798 104.869V101.561H91.8227V102.144H91.8321C91.8927 101.933 91.9867 101.782 92.114 101.69C92.2435 101.596 92.4189 101.549 92.6402 101.549C92.6987 101.549 92.7509 101.55 92.7968 101.552C92.8448 101.552 92.8908 101.553 92.9346 101.555V102.445C92.8949 102.442 92.8333 102.44 92.7498 102.438C92.6663 102.436 92.5859 102.435 92.5087 102.435C92.3145 102.435 92.1568 102.5 92.0357 102.629C91.9167 102.759 91.8572 102.94 91.8572 103.174V104.869H90.7798Z" fill="black"/>
<path d="M88.5705 104.958C88.2239 104.958 87.9201 104.887 87.6591 104.745C87.3981 104.603 87.1945 104.402 87.0483 104.143C86.9022 103.884 86.8291 103.58 86.8291 103.229C86.8291 102.882 86.9022 102.579 87.0483 102.321C87.1945 102.06 87.3981 101.858 87.6591 101.716C87.9201 101.572 88.2239 101.5 88.5705 101.5C88.915 101.5 89.2178 101.572 89.4788 101.716C89.7419 101.858 89.9455 102.06 90.0895 102.321C90.2357 102.579 90.3088 102.882 90.3088 103.229C90.3088 103.58 90.2357 103.884 90.0895 104.143C89.9455 104.4 89.7419 104.601 89.4788 104.745C89.2178 104.887 88.915 104.958 88.5705 104.958ZM88.5705 104.1C88.7584 104.1 88.9129 104.024 89.034 103.874C89.1572 103.724 89.2188 103.509 89.2188 103.229C89.2188 102.949 89.1572 102.734 89.034 102.584C88.9129 102.433 88.7584 102.358 88.5705 102.358C88.3826 102.358 88.227 102.433 88.1038 102.584C87.9827 102.734 87.9222 102.949 87.9222 103.229C87.9222 103.509 87.9827 103.724 88.1038 103.874C88.2249 104.024 88.3805 104.1 88.5705 104.1Z" fill="black"/>
<path d="M86.6047 101.566V102.399H85.9251V104.874H84.8445V102.399H84.2432V101.566H84.8445V101.2C84.8445 100.864 84.9385 100.614 85.1264 100.451C85.3164 100.288 85.6087 100.207 86.0034 100.207H86.6047V101.04H86.2758C86.1485 101.04 86.0576 101.067 86.0034 101.122C85.9512 101.174 85.9251 101.263 85.9251 101.388V101.566H86.6047Z" fill="black"/>
<path d="M80.9083 106.232C80.3988 106.232 80.0156 106.129 79.7588 105.922C79.5041 105.716 79.3516 105.454 79.3015 105.136H80.332C80.3612 105.239 80.4259 105.319 80.5262 105.377C80.6264 105.438 80.7537 105.468 80.9083 105.468C81.3175 105.468 81.5221 105.247 81.5221 104.804V104.294H81.519C81.4313 104.49 81.305 104.633 81.14 104.723C80.9751 104.813 80.7851 104.857 80.57 104.857C80.2798 104.857 80.0271 104.786 79.8121 104.645C79.5991 104.5 79.4331 104.303 79.3141 104.053C79.1971 103.802 79.1387 103.515 79.1387 103.191C79.1387 102.863 79.1992 102.572 79.3203 102.317C79.4414 102.063 79.6085 101.863 79.8215 101.719C80.0344 101.573 80.2808 101.5 80.5606 101.5C80.9886 101.5 81.3081 101.679 81.519 102.036H81.5221V101.572H82.5933V104.698C82.5933 105.236 82.4409 105.627 82.136 105.869C81.8332 106.111 81.424 106.232 80.9083 106.232ZM80.8707 104.012C81.0753 104.012 81.2403 103.937 81.3655 103.786C81.4929 103.634 81.5566 103.429 81.5566 103.172C81.5566 102.92 81.4929 102.717 81.3655 102.565C81.2403 102.412 81.0753 102.336 80.8707 102.336C80.6723 102.336 80.5157 102.41 80.4009 102.559C80.2881 102.707 80.2317 102.911 80.2317 103.172C80.2317 103.436 80.2881 103.641 80.4009 103.789C80.5157 103.938 80.6723 104.012 80.8707 104.012Z" fill="black"/>
<path d="M76.4959 103.082V104.879H75.4185V101.572H76.4833V102.108C76.594 101.92 76.7349 101.771 76.9062 101.663C77.0774 101.554 77.2872 101.5 77.5357 101.5C77.8948 101.5 78.1736 101.615 78.3719 101.845C78.5724 102.074 78.6726 102.393 78.6726 102.8V104.879H77.5952V103.025C77.5952 102.829 77.5482 102.68 77.4543 102.577C77.3603 102.473 77.2277 102.421 77.0565 102.421C76.8874 102.421 76.7517 102.475 76.6493 102.584C76.547 102.69 76.4959 102.856 76.4959 103.082Z" fill="black"/>
<path d="M73.7405 104.873V101.566H74.8179V104.873H73.7405ZM74.276 101.243C74.1048 101.243 73.9628 101.192 73.8501 101.09C73.7394 100.987 73.6841 100.857 73.6841 100.698C73.6841 100.539 73.7394 100.41 73.8501 100.31C73.9628 100.207 74.1048 100.156 74.276 100.156C74.4493 100.156 74.5913 100.207 74.702 100.31C74.8147 100.41 74.8711 100.539 74.8711 100.698C74.8711 100.857 74.8147 100.987 74.702 101.09C74.5913 101.192 74.4493 101.243 74.276 101.243Z" fill="black"/>
<path d="M70.0928 104.874V100.207H71.1702V102.741H71.1827L72.1881 101.566H73.4315L72.2006 103.01L73.4847 104.874H72.2413L71.3988 103.624L71.1702 103.89V104.874H70.0928Z" fill="black"/>
<path d="M67.5381 104.869V101.561H68.581V102.144H68.5904C68.651 101.933 68.745 101.782 68.8723 101.69C69.0018 101.596 69.1772 101.549 69.3985 101.549C69.457 101.549 69.5092 101.55 69.5551 101.552C69.6031 101.552 69.6491 101.553 69.6929 101.555V102.445C69.6532 102.442 69.5916 102.44 69.5081 102.438C69.4246 102.436 69.3442 102.435 69.267 102.435C69.0728 102.435 68.9151 102.5 68.794 102.629C68.675 102.759 68.6155 102.94 68.6155 103.174V104.869H67.5381Z" fill="black"/>
<path d="M65.3342 104.958C64.9876 104.958 64.6838 104.887 64.4228 104.745C64.1618 104.603 63.9582 104.402 63.812 104.143C63.6659 103.884 63.5928 103.58 63.5928 103.229C63.5928 102.882 63.6659 102.579 63.812 102.321C63.9582 102.06 64.1618 101.858 64.4228 101.716C64.6838 101.572 64.9876 101.5 65.3342 101.5C65.6787 101.5 65.9815 101.572 66.2425 101.716C66.5055 101.858 66.7091 102.06 66.8532 102.321C66.9994 102.579 67.0724 102.882 67.0724 103.229C67.0724 103.58 66.9994 103.884 66.8532 104.143C66.7091 104.4 66.5055 104.601 66.2425 104.745C65.9815 104.887 65.6787 104.958 65.3342 104.958ZM65.3342 104.1C65.5221 104.1 65.6766 104.024 65.7977 103.874C65.9209 103.724 65.9825 103.509 65.9825 103.229C65.9825 102.949 65.9209 102.734 65.7977 102.584C65.6766 102.433 65.5221 102.358 65.3342 102.358C65.1463 102.358 64.9907 102.433 64.8675 102.584C64.7464 102.734 64.6858 102.949 64.6858 103.229C64.6858 103.509 64.7464 103.724 64.8675 103.874C64.9886 104.024 65.1442 104.1 65.3342 104.1Z" fill="black"/>
<path d="M59.1112 104.88L58.0933 101.572H59.2271L59.4839 102.606C59.5298 102.798 59.5737 102.997 59.6154 103.204C59.6593 103.409 59.7031 103.613 59.747 103.818C59.795 103.613 59.843 103.409 59.891 103.204C59.9412 102.997 59.9913 102.798 60.0414 102.606L60.3139 101.572H61.2691L61.5416 102.606C61.5917 102.798 61.6408 102.997 61.6888 103.204C61.7389 103.409 61.788 103.613 61.836 103.818C61.8778 103.613 61.9185 103.409 61.9582 103.204C61.9999 102.999 62.0438 102.8 62.0897 102.606L62.3371 101.572H63.4897L62.4718 104.88H61.36L60.9935 103.643C60.958 103.519 60.9236 103.394 60.8902 103.267C60.8567 103.137 60.8244 103.008 60.7931 102.878C60.7597 103.008 60.7262 103.137 60.6928 103.267C60.6594 103.394 60.625 103.519 60.5895 103.643L60.223 104.88H59.1112Z" fill="black"/>
<path d="M57.7893 101.572V102.405H57.1096V103.767C57.1096 103.874 57.1305 103.947 57.1723 103.987C57.214 104.026 57.2955 104.046 57.4166 104.046H57.7893V104.879H57.1785C56.7818 104.879 56.4905 104.805 56.3047 104.657C56.121 104.507 56.0291 104.271 56.0291 103.949V102.405H55.4653V101.572H56.0291V100.67H57.1096V101.572H57.7893Z" fill="black"/>
<path d="M53.6042 104.958C53.2659 104.958 52.9684 104.884 52.7116 104.735C52.4568 104.587 52.2574 104.384 52.1134 104.125C51.9714 103.864 51.9004 103.565 51.9004 103.229C51.9004 102.893 51.9714 102.595 52.1134 102.336C52.2574 102.075 52.4558 101.871 52.7085 101.722C52.9611 101.574 53.2503 101.5 53.576 101.5C53.908 101.5 54.1993 101.573 54.4499 101.719C54.7025 101.863 54.8998 102.064 55.0418 102.321C55.1838 102.575 55.2548 102.87 55.2548 103.204V103.495H52.9527C52.959 103.706 53.0217 103.873 53.1407 103.996C53.2618 104.119 53.4288 104.181 53.6418 104.181C53.8005 104.181 53.9331 104.149 54.0396 104.084C54.1481 104.019 54.2223 103.933 54.2619 103.824H55.2297C55.1901 104.045 55.094 104.242 54.9416 104.413C54.7892 104.584 54.5971 104.718 54.3653 104.814C54.1356 104.91 53.8819 104.958 53.6042 104.958ZM52.959 102.85H54.2494C54.2243 102.677 54.1554 102.541 54.0427 102.443C53.9299 102.345 53.7838 102.296 53.6042 102.296C53.4226 102.296 53.2753 102.345 53.1626 102.443C53.0498 102.541 52.982 102.677 52.959 102.85Z" fill="black"/>
<path d="M47.3442 104.874V100.207H48.5093L49.8342 102.327C49.8906 102.415 49.9636 102.539 50.0534 102.7C50.1432 102.859 50.233 103.022 50.3228 103.189C50.3186 103.005 50.3144 102.825 50.3103 102.65C50.3082 102.475 50.3071 102.335 50.3071 102.23V100.207H51.4347V104.874H50.2664L49.0512 102.932C48.9823 102.823 48.8956 102.678 48.7912 102.497C48.6868 102.315 48.5741 102.114 48.453 101.895C48.4613 102.123 48.4665 102.327 48.4686 102.509C48.4707 102.691 48.4718 102.831 48.4718 102.929V104.874H47.3442Z" fill="black"/>
<path d="M31.7833 92.3926L40.0653 96.5335L42.3084 105.506L36.442 112.752H27.1247L21.2583 105.506L23.3288 96.5335L31.7833 92.3926Z" fill="#1F4DBE"/>
<path d="M31.7824 103.42L25.916 99.9697L31.7824 96.6914L37.6488 99.9697L31.7824 103.42Z" fill="white"/>
<path d="M37.6501 99.9746L37.5638 107.566L31.7837 110.5V103.425L37.6501 99.9746Z" fill="url(#paint2_linear_219_11197)"/>
<path d="M21.2583 105.502L27.1247 112.749H36.4419L21.2583 105.502Z" fill="#006BFF"/>
<path d="M40.0638 96.5215L42.3068 105.494L36.4404 112.74L40.0638 96.5215Z" fill="#006BFF"/>
<defs>
<linearGradient id="paint0_linear_219_11197" x1="23.0805" y1="38.3478" x2="120.743" y2="55.5809" gradientUnits="userSpaceOnUse">
<stop stop-color="white"/>
<stop offset="1" stop-color="#E7F3FF"/>
</linearGradient>
<linearGradient id="paint1_linear_219_11197" x1="15.1001" y1="98.7431" x2="97.1071" y2="139.872" gradientUnits="userSpaceOnUse">
<stop stop-color="#37A8FF"/>
<stop offset="1" stop-color="#3071FF"/>
</linearGradient>
<linearGradient id="paint2_linear_219_11197" x1="31.7837" y1="106.621" x2="37.9412" y2="106.573" gradientUnits="userSpaceOnUse">
<stop stop-color="#049FFC"/>
<stop offset="1" stop-color="#19C9FF"/>
</linearGradient>
</defs>
</svg>
