<svg width="128" height="128" viewBox="0 0 128 128" fill="none" xmlns="http://www.w3.org/2000/svg">
<path d="M2 42.0294C2 39.804 3.804 38 6.02935 38H121.971C124.196 38 126 39.804 126 42.0294V85.5463C126 87.7717 124.196 89.5757 121.971 89.5757H6.02935C3.80401 89.5757 2 87.7717 2 85.5463V42.0294Z" fill="white"/>
<path d="M121.971 87.9639V89.5757H6.02935V87.9639H121.971ZM124.388 85.5463V42.0294C124.388 40.6941 123.306 39.6117 121.971 39.6117H6.02935C4.69414 39.6117 3.61174 40.6941 3.61174 42.0294V85.5463C3.61174 86.8815 4.69414 87.9639 6.02935 87.9639V89.5757C3.87343 89.5757 2.11325 87.8825 2.00551 85.7533L2 85.5463V42.0294C2 39.804 3.804 38 6.02935 38H121.971L122.178 38.0055C124.307 38.1132 126 39.8734 126 42.0294V85.5463C126 87.7023 124.307 89.4624 122.178 89.5702L121.971 89.5757V87.9639C123.306 87.9639 124.388 86.8815 124.388 85.5463Z" fill="#BFD4E8"/>
<path d="M104.847 75.204C103.445 75.204 102.437 74.5339 102.345 73.3727H103.829C103.885 73.8433 104.233 74.1247 104.821 74.1247C105.379 74.1247 105.721 73.8894 105.721 73.5569C105.721 73.2704 105.46 73.1016 105.021 73.0146L104.074 72.8305C103.026 72.6259 102.468 72.0939 102.468 71.2549C102.468 70.2319 103.353 69.5566 104.76 69.5566C106.156 69.5566 107.077 70.2574 107.108 71.3828H105.711C105.701 70.948 105.333 70.6258 104.801 70.6258C104.284 70.6258 103.972 70.8764 103.972 71.1987C103.972 71.4749 104.212 71.6539 104.627 71.7409L105.65 71.9404C106.739 72.1553 107.241 72.6259 107.241 73.4188C107.241 74.4981 106.258 75.204 104.847 75.204Z" fill="black"/>
<path d="M97.9724 72.0683V75.071H96.4634V69.6692H97.9468V70.5183C98.31 69.9045 98.8574 69.5566 99.6349 69.5566C100.786 69.5566 101.528 70.3239 101.528 71.6898V75.071H100.024V71.966C100.024 71.2396 99.6605 70.8559 99.0313 70.8559C98.4072 70.8559 97.9724 71.2294 97.9724 72.0683Z" fill="black"/>
<path d="M92.882 75.1923C91.2451 75.1923 90.1401 74.0669 90.1401 72.3737C90.1401 70.6805 91.2451 69.5449 92.882 69.5449C94.524 69.5449 95.6289 70.6805 95.6289 72.3737C95.6289 74.0669 94.524 75.1923 92.882 75.1923ZM92.882 73.9697C93.6186 73.9697 94.1097 73.3763 94.1097 72.3737C94.1097 71.366 93.6135 70.7675 92.882 70.7675C92.1556 70.7675 91.6594 71.366 91.6594 72.3737C91.6594 73.3763 92.1505 73.9697 92.882 73.9697Z" fill="black"/>
<path d="M87.7974 75.0654V69.6635H89.3064V75.0654H87.7974ZM88.5493 68.9832C88.0531 68.9832 87.6899 68.6405 87.6899 68.1801C87.6899 67.7197 88.0531 67.377 88.5493 67.377C89.0455 67.377 89.4087 67.7197 89.4087 68.1801C89.4087 68.6405 89.0455 68.9832 88.5493 68.9832Z" fill="black"/>
<path d="M87.0352 69.6666V70.8482H85.9303V73.4008C85.9303 73.7691 86.0479 73.8868 86.4572 73.8868H87.0352V75.0684H86.1554C84.9686 75.0684 84.4212 74.6183 84.4212 73.6361V70.8482H83.4902V69.6666H84.4212V68.1934H85.9303V69.6666H87.0352Z" fill="black"/>
<path d="M79.7929 75.1631C78.7136 75.1631 77.936 74.626 77.936 73.5466C77.936 72.3292 78.9182 71.9813 80.0436 71.879C81.0308 71.7818 81.3787 71.7358 81.3787 71.3879V71.3521C81.3787 70.9531 81.0462 70.6769 80.4937 70.6769C79.931 70.6769 79.5627 70.9634 79.5269 71.3777H78.11C78.1765 70.2626 79.0563 69.5566 80.5398 69.5566C82.0181 69.5566 82.8673 70.2523 82.8673 71.4084V75.071H81.394V74.3088H81.3736C81.0871 74.8357 80.6216 75.1631 79.7929 75.1631ZM80.2124 74.1144C80.9388 74.1144 81.3889 73.6796 81.3889 73.0965V72.5543C81.215 72.6514 80.7904 72.7231 80.3045 72.7998C79.7878 72.8765 79.3786 73.076 79.3786 73.5057C79.3786 73.8894 79.706 74.1144 80.2124 74.1144Z" fill="black"/>
<path d="M77.0706 67.4492V75.0711H75.5615V67.4492H77.0706Z" fill="black"/>
<path d="M71.4243 75.1631C70.3449 75.1631 69.5674 74.626 69.5674 73.5466C69.5674 72.3292 70.5495 71.9813 71.6749 71.879C72.6622 71.7818 73.01 71.7358 73.01 71.3879V71.3521C73.01 70.9531 72.6775 70.6769 72.1251 70.6769C71.5624 70.6769 71.1941 70.9634 71.1583 71.3777H69.7413C69.8078 70.2626 70.6877 69.5566 72.1711 69.5566C73.6495 69.5566 74.4986 70.2523 74.4986 71.4084V75.071H73.0254V74.3088H73.0049C72.7185 74.8357 72.253 75.1631 71.4243 75.1631ZM71.8437 74.1144C72.5701 74.1144 73.0203 73.6796 73.0203 73.0965V72.5543C72.8463 72.6514 72.4218 72.7231 71.9358 72.7998C71.4192 72.8765 71.0099 73.076 71.0099 73.5057C71.0099 73.8894 71.3373 74.1144 71.8437 74.1144Z" fill="black"/>
<path d="M66.3449 75.1923C64.7183 75.1923 63.6338 74.0465 63.6338 72.3737C63.6338 70.701 64.7234 69.5449 66.3449 69.5449C67.767 69.5449 68.785 70.4299 68.8822 71.6883H67.4243C67.3476 71.1358 66.969 70.7624 66.3654 70.7624C65.6032 70.7624 65.1531 71.3865 65.1531 72.3737C65.1531 73.3559 65.6083 73.9748 66.3654 73.9748C66.9741 73.9748 67.3169 73.6065 67.4141 73.0387H68.8822C68.8157 74.2869 67.7824 75.1923 66.3449 75.1923Z" fill="black"/>
<path d="M60.6606 75.204C59.259 75.204 58.2513 74.5339 58.1592 73.3727H59.6426C59.6989 73.8433 60.0468 74.1247 60.635 74.1247C61.1926 74.1247 61.5353 73.8894 61.5353 73.5569C61.5353 73.2704 61.2744 73.1016 60.8345 73.0146L59.8882 72.8305C58.8395 72.6259 58.2819 72.0939 58.2819 71.2549C58.2819 70.2319 59.1669 69.5566 60.5736 69.5566C61.9701 69.5566 62.8909 70.2574 62.9216 71.3828H61.5251C61.5149 70.948 61.1466 70.6258 60.6146 70.6258C60.0979 70.6258 59.7859 70.8764 59.7859 71.1987C59.7859 71.4749 60.0263 71.6539 60.4406 71.7409L61.4637 71.9404C62.5533 72.1553 63.0546 72.6259 63.0546 73.4188C63.0546 74.4981 62.0725 75.204 60.6606 75.204Z" fill="black"/>
<path d="M52.0762 75.0711V67.4492H57.5445V68.7997H53.6517V70.5645H57.2529V71.8791H53.6517V73.7207H57.5445V75.0711H52.0762Z" fill="black"/>
<path d="M66.6862 62.9819L64.686 57.5801H66.2667L67.1568 60.2503C67.2949 60.6749 67.4228 61.1046 67.5455 61.5292C67.6683 61.1046 67.7962 60.6749 67.9241 60.2503L68.8039 57.5801H70.3692L68.364 62.9819H66.6862Z" fill="black"/>
<path d="M62.5796 62.9814V57.5795H64.0886V62.9814H62.5796ZM63.3316 56.8992C62.8354 56.8992 62.4722 56.5565 62.4722 56.0961C62.4722 55.6357 62.8354 55.293 63.3316 55.293C63.8277 55.293 64.1909 55.6357 64.1909 56.0961C64.1909 56.5565 63.8277 56.8992 63.3316 56.8992Z" fill="black"/>
<path d="M58.6094 62.9826V57.5807H60.0621V58.5015H60.0775C60.277 57.8518 60.6862 57.5449 61.3973 57.5449C61.5712 57.5449 61.7195 57.55 61.8423 57.5552V58.8391C61.7298 58.834 61.4484 58.8135 61.1926 58.8135C60.5737 58.8135 60.1184 59.2432 60.1184 60.0566V62.9826H58.6094Z" fill="black"/>
<path d="M52.0762 62.9833V55.3613H55.084C56.7977 55.3613 57.8719 56.3281 57.8719 57.8628C57.8719 59.3974 56.7772 60.3642 55.0636 60.3642H53.6517V62.9833H52.0762ZM53.6517 59.0444H54.9817C55.8155 59.0444 56.3322 58.5891 56.3322 57.8628C56.3322 57.1364 55.8155 56.6811 54.9817 56.6811H53.6517V59.0444Z" fill="black"/>
<path d="M36.3659 58.3824C36.3659 55.0037 33.6269 52.2647 30.2482 52.2647C26.8695 52.2647 24.1305 55.0037 24.1305 58.3824V73.912H20.3657V58.3824C20.3657 52.9245 24.7903 48.5 30.2482 48.5C35.7061 48.5 40.1307 52.9245 40.1307 58.3824V59.7942H36.3659V58.3824Z" fill="#CF8900"/>
<path d="M17 64.9859C17 63.4933 18.2101 62.2832 19.7028 62.2832H40.7842C42.2769 62.2832 43.487 63.4933 43.487 64.9859V75.2564C43.487 76.7491 42.2769 77.9591 40.7842 77.9591H19.7028C18.2101 77.9591 17 76.7491 17 75.2564V64.9859Z" fill="url(#paint0_linear_222_12912)"/>
<path d="M30.1753 66.5137C31.4748 66.5137 32.5283 67.5672 32.5283 68.8667C32.5283 69.8315 31.9472 70.66 31.1162 71.0231V73.8747C31.1162 74.0239 30.9952 74.145 30.846 74.145H29.5041C29.3549 74.1449 29.2338 74.0239 29.2338 73.8747V71.0231C28.4031 70.6599 27.8223 69.8314 27.8223 68.8667C27.8223 67.5672 28.8758 66.5137 30.1753 66.5137Z" fill="white"/>
<defs>
<linearGradient id="paint0_linear_222_12912" x1="30.2435" y1="62.2832" x2="30.2435" y2="77.9591" gradientUnits="userSpaceOnUse">
<stop stop-color="#FFC960"/>
<stop offset="1" stop-color="#E79800"/>
</linearGradient>
</defs>
</svg>
