<svg width="128" height="128" viewBox="0 0 128 128" fill="none" xmlns="http://www.w3.org/2000/svg">
<path d="M2 52.9531C2 51.8744 2.87444 51 3.95313 51H124.266C125.344 51 126.219 51.8744 126.219 52.9531V74.0469C126.219 75.1256 125.344 76 124.266 76H3.95313C2.87445 76 2 75.1256 2 74.0469V52.9531Z" fill="white"/>
<path d="M124.266 75.2188V76H3.95312V75.2188H124.266ZM125.438 74.0469V52.9531C125.438 52.3059 124.913 51.7813 124.266 51.7812H3.95312C3.30592 51.7813 2.78125 52.3059 2.78125 52.9531V74.0469C2.78125 74.6941 3.30592 75.2187 3.95312 75.2188V76C2.90809 76 2.05489 75.1793 2.00267 74.1472L2 74.0469V52.9531C2 51.8744 2.87444 51 3.95312 51H124.266L124.366 51.0027C125.398 51.0549 126.219 51.9081 126.219 52.9531V74.0469C126.219 75.0919 125.398 75.9451 124.366 75.9973L124.266 76V75.2188C124.913 75.2187 125.438 74.6941 125.438 74.0469Z" fill="#BFD4E8"/>
<path d="M63.3281 53.7344H64.1094V73.2656H63.3281V53.7344Z" fill="#EEF1F5"/>
<path d="M108.894 69.6197V69.042H109.226C109.4 69.042 109.467 68.9651 109.536 68.7643L109.608 68.5733L108.602 65.9648H109.368L109.807 67.2592C109.866 67.4476 109.926 67.6361 109.98 67.8245C110.037 67.6361 110.094 67.4451 110.156 67.2592L110.598 65.9648H111.356L110.203 68.9874C110.037 69.4238 109.784 69.6197 109.378 69.6197H108.894Z" fill="black"/>
<path d="M108.338 65.9563V66.5291H107.803V67.7664C107.803 67.9449 107.86 68.0019 108.058 68.0019H108.338V68.5747H107.912C107.337 68.5747 107.071 68.3565 107.071 67.8804V66.5291H106.62V65.9563H107.071V65.2422H107.803V65.9563H108.338Z" fill="black"/>
<path d="M105.542 68.5705V65.9521H106.274V68.5705H105.542ZM105.907 65.6223C105.666 65.6223 105.49 65.4562 105.49 65.233C105.49 65.0099 105.666 64.8438 105.907 64.8438C106.147 64.8438 106.323 65.0099 106.323 65.233C106.323 65.4562 106.147 65.6223 105.907 65.6223Z" fill="black"/>
<path d="M103.472 68.5833L102.503 65.9648H103.269L103.701 67.2592C103.768 67.465 103.829 67.6733 103.889 67.8791C103.949 67.6733 104.01 67.465 104.072 67.2592L104.499 65.9648H105.258L104.286 68.5833H103.472Z" fill="black"/>
<path d="M101.482 68.5705V65.9521H102.213V68.5705H101.482ZM101.846 65.6223C101.606 65.6223 101.43 65.4562 101.43 65.233C101.43 65.0099 101.606 64.8438 101.846 64.8438C102.087 64.8438 102.263 65.0099 102.263 65.233C102.263 65.4562 102.087 65.6223 101.846 65.6223Z" fill="black"/>
<path d="M101.112 65.9563V66.5291H100.576V67.7664C100.576 67.9449 100.633 68.0019 100.832 68.0019H101.112V68.5747H100.685C100.11 68.5747 99.8448 68.3565 99.8448 67.8804V66.5291H99.3936V65.9563H99.8448V65.2422H100.576V65.9563H101.112Z" fill="black"/>
<path d="M97.986 68.6398C97.1975 68.6398 96.6719 68.0844 96.6719 67.2735C96.6719 66.4627 97.2 65.9023 97.986 65.9023C98.6754 65.9023 99.1688 66.3313 99.2159 66.9413H98.5092C98.472 66.6735 98.2885 66.4925 97.996 66.4925C97.6265 66.4925 97.4083 66.795 97.4083 67.2735C97.4083 67.7496 97.629 68.0496 97.996 68.0496C98.291 68.0496 98.4572 67.8711 98.5043 67.5959H99.2159C99.1837 68.2009 98.6828 68.6398 97.986 68.6398Z" fill="black"/>
<path d="M93.0376 68.5852L94.3344 64.8906H95.3163L96.6131 68.5852H95.7676L95.5097 67.7793H94.1286L93.8608 68.5852H93.0376ZM94.3344 67.1693H95.3113L95.1874 66.7875C95.0733 66.4106 94.9593 66.0337 94.8278 65.575C94.6939 66.0337 94.5799 66.4106 94.4609 66.7875L94.3344 67.1693Z" fill="black"/>
<path d="M109.642 59.0312V62.7258H108.91V59.0312H109.642Z" fill="black"/>
<path d="M108.39 59.0312V62.7258H107.658V59.0312H108.39Z" fill="black"/>
<path d="M105.653 62.7664C105.13 62.7664 104.753 62.5061 104.753 61.9829C104.753 61.3927 105.229 61.2241 105.775 61.1745C106.253 61.1274 106.422 61.1051 106.422 60.9365V60.9192C106.422 60.7257 106.26 60.5919 105.993 60.5919C105.72 60.5919 105.541 60.7307 105.524 60.9315H104.837C104.869 60.391 105.296 60.0488 106.015 60.0488C106.732 60.0488 107.143 60.386 107.143 60.9464V62.7218H106.429V62.3523H106.419C106.28 62.6077 106.055 62.7664 105.653 62.7664ZM105.856 62.2581C106.208 62.2581 106.427 62.0473 106.427 61.7647V61.5018C106.342 61.549 106.137 61.5837 105.901 61.6209C105.651 61.6581 105.452 61.7548 105.452 61.963C105.452 62.149 105.611 62.2581 105.856 62.2581Z" fill="black"/>
<path d="M103.191 62.7804C102.403 62.7804 101.877 62.225 101.877 61.4142C101.877 60.6033 102.405 60.043 103.191 60.043C103.88 60.043 104.374 60.4719 104.421 61.0819H103.714C103.677 60.8141 103.494 60.6331 103.201 60.6331C102.832 60.6331 102.613 60.9356 102.613 61.4142C102.613 61.8902 102.834 62.1903 103.201 62.1903C103.496 62.1903 103.662 62.0117 103.709 61.7365H104.421C104.389 62.3415 103.888 62.7804 103.191 62.7804Z" fill="black"/>
<path d="M100.436 62.7863C99.7562 62.7863 99.2678 62.4614 99.2231 61.8986H99.9422C99.9695 62.1267 100.138 62.2631 100.423 62.2631C100.694 62.2631 100.86 62.149 100.86 61.9878C100.86 61.849 100.733 61.7672 100.52 61.725L100.061 61.6357C99.5529 61.5366 99.2827 61.2787 99.2827 60.872C99.2827 60.3761 99.7116 60.0488 100.393 60.0488C101.07 60.0488 101.517 60.3885 101.532 60.934H100.855C100.85 60.7233 100.671 60.5671 100.413 60.5671C100.163 60.5671 100.012 60.6886 100.012 60.8448C100.012 60.9787 100.128 61.0654 100.329 61.1076L100.825 61.2043C101.353 61.3084 101.596 61.5366 101.596 61.9209C101.596 62.4441 101.12 62.7863 100.436 62.7863Z" fill="black"/>
<path d="M96.65 63.7603V63.1826H96.9823C97.1558 63.1826 97.2228 63.1057 97.2922 62.9049L97.3641 62.714L96.3574 60.1055H97.1236L97.5625 61.3998C97.622 61.5882 97.6815 61.7767 97.7361 61.9651C97.7931 61.7767 97.8501 61.5858 97.9121 61.3998L98.3535 60.1055H99.1122L97.9592 63.128C97.7931 63.5644 97.5402 63.7603 97.1335 63.7603H96.65Z" fill="black"/>
<path d="M94.6906 62.7823C93.7434 62.7823 93.1904 62.3137 93.1904 61.5103H93.9269C93.9368 61.9169 94.2219 62.155 94.6955 62.155C95.1195 62.155 95.3997 61.969 95.3997 61.6814C95.3997 61.4433 95.2063 61.3045 94.7377 61.2028L94.3484 61.1185C93.6169 60.9598 93.2623 60.6201 93.2623 60.092C93.2623 59.42 93.8252 58.9688 94.6658 58.9688C95.5163 58.9688 96.0444 59.4175 96.0667 60.1614H95.3526C95.3253 59.8118 95.065 59.5961 94.6682 59.5961C94.2914 59.5961 94.026 59.7845 94.026 60.0548C94.026 60.2829 94.2095 60.4094 94.6633 60.5086L95.0179 60.5854C95.8064 60.7515 96.156 61.0764 96.156 61.6318C96.156 62.3434 95.6006 62.7823 94.6906 62.7823Z" fill="black"/>
<path d="M80.125 70.6411H79.3438V65.9536H80.125V70.6411ZM80.125 61.1562H79.3438V56.4688H80.125V61.1562Z" fill="#93BEFF"/>
<path d="M76.6306 58.4493C76.7839 58.3255 77.0124 58.4346 77.0124 58.6317V62.3773H82.6395V65.0251H77.0124V68.7704C77.0124 68.9674 76.7839 69.0765 76.6306 68.9527L70.5046 64.005C70.311 63.8487 70.311 63.5533 70.5046 63.397L76.6306 58.4493ZM82.6425 58.6313C82.6427 58.4343 82.8711 58.3252 83.0244 58.4489L89.1504 63.397C89.3439 63.5533 89.3438 63.8483 89.1504 64.0047L83.0244 68.9527C82.8711 69.0765 82.6425 68.9674 82.6425 68.7704V58.6313Z" fill="url(#paint0_linear_220_11998)"/>
<path d="M81.5801 62.3691H82.6391V65.0168H81.5801V62.3691Z" fill="#5A8CE5"/>
<path d="M77.0161 62.3691H78.0752V65.0168H77.0161V62.3691Z" fill="#2069FF"/>
<path d="M49.208 67.1257V68.5812H48.4766V65.9628H49.1956V66.3744C49.3717 66.0768 49.637 65.9082 50.0139 65.9082C50.5718 65.9082 50.9313 66.2801 50.9313 66.9422V68.5812H50.2023V67.0761C50.2023 66.724 50.0263 66.538 49.7213 66.538C49.4188 66.538 49.208 66.719 49.208 67.1257Z" fill="black"/>
<path d="M46.7411 68.6398C45.9477 68.6398 45.4121 68.0943 45.4121 67.2735C45.4121 66.4528 45.9477 65.9023 46.7411 65.9023C47.5371 65.9023 48.0727 66.4528 48.0727 67.2735C48.0727 68.0943 47.5371 68.6398 46.7411 68.6398ZM46.7411 68.0472C47.0982 68.0472 47.3362 67.7595 47.3362 67.2735C47.3362 66.7851 47.0957 66.495 46.7411 66.495C46.3891 66.495 46.1485 66.7851 46.1485 67.2735C46.1485 67.7595 46.3866 68.0472 46.7411 68.0472Z" fill="black"/>
<path d="M44.2752 68.5705V65.9521H45.0067V68.5705H44.2752ZM44.6397 65.6223C44.3992 65.6223 44.2231 65.4562 44.2231 65.233C44.2231 65.0099 44.3992 64.8438 44.6397 64.8438C44.8802 64.8438 45.0563 65.0099 45.0563 65.233C45.0563 65.4562 44.8802 65.6223 44.6397 65.6223Z" fill="black"/>
<path d="M43.9063 65.9563V66.5291H43.3707V67.7664C43.3707 67.9449 43.4278 68.0019 43.6261 68.0019H43.9063V68.5747H43.4798C42.9046 68.5747 42.6393 68.3565 42.6393 67.8804V66.5291H42.188V65.9563H42.6393V65.2422H43.3707V65.9563H43.9063Z" fill="black"/>
<path d="M40.3442 68.6378C39.7863 68.6378 39.4243 68.2659 39.4243 67.6038V65.9648H40.1558V67.4699C40.1558 67.822 40.3318 68.008 40.6368 68.008C40.9393 68.008 41.1501 67.827 41.1501 67.4203V65.9648H41.8791V68.5833H41.1625V68.1716C40.9864 68.4692 40.7211 68.6378 40.3442 68.6378Z" fill="black"/>
<path d="M37.8049 68.6398C37.0164 68.6398 36.4907 68.0844 36.4907 67.2735C36.4907 66.4627 37.0189 65.9023 37.8049 65.9023C38.4942 65.9023 38.9876 66.3313 39.0347 66.9413H38.3281C38.2909 66.6735 38.1074 66.4925 37.8148 66.4925C37.4454 66.4925 37.2271 66.795 37.2271 67.2735C37.2271 67.7496 37.4478 68.0496 37.8148 68.0496C38.1099 68.0496 38.276 67.8711 38.3231 67.5959H39.0347C39.0025 68.2009 38.5016 68.6398 37.8049 68.6398Z" fill="black"/>
<path d="M34.9459 68.6398C34.1525 68.6398 33.6367 68.0695 33.6367 67.2735C33.6367 66.4751 34.1698 65.9023 34.9211 65.9023C35.6923 65.9023 36.2105 66.4602 36.2105 67.2587V67.4545H34.3484C34.3607 67.8414 34.5839 68.0918 34.9682 68.0918C35.2534 68.0918 35.4493 67.9604 35.5162 67.757H36.1832C36.0865 68.2778 35.5807 68.6398 34.9459 68.6398ZM34.3533 66.9884H35.5212C35.484 66.6611 35.2658 66.4578 34.936 66.4578C34.6087 66.4578 34.393 66.6611 34.3533 66.9884Z" fill="black"/>
<path d="M30.9004 68.5833L31.8377 67.2493L30.9649 65.9648H31.7633L31.9939 66.3318C32.0831 66.4831 32.165 66.6244 32.2468 66.7657C32.3286 66.6244 32.4104 66.4831 32.5047 66.3318L32.7402 65.9648H33.5262L32.6435 67.2319L33.5684 68.5833H32.7675L32.5047 68.1816C32.4104 68.0229 32.3237 67.8791 32.2393 67.7328C32.1501 67.8791 32.0633 68.0229 31.9666 68.1816L31.6988 68.5833H30.9004Z" fill="black"/>
<path d="M28.0557 68.5852V64.8906H30.7063V65.5452H28.8194V66.4007H30.565V67.0379H28.8194V67.9306H30.7063V68.5852H28.0557Z" fill="black"/>
<path d="M45.4479 62.7863C44.7685 62.7863 44.28 62.4614 44.2354 61.8986H44.9544C44.9817 62.1267 45.1503 62.2631 45.4355 62.2631C45.7057 62.2631 45.8719 62.149 45.8719 61.9878C45.8719 61.849 45.7454 61.7672 45.5322 61.725L45.0734 61.6357C44.5651 61.5366 44.2949 61.2787 44.2949 60.872C44.2949 60.3761 44.7238 60.0488 45.4057 60.0488C46.0826 60.0488 46.5289 60.3885 46.5438 60.934H45.8669C45.8619 60.7233 45.6834 60.5671 45.4255 60.5671C45.1751 60.5671 45.0238 60.6886 45.0238 60.8448C45.0238 60.9787 45.1404 61.0654 45.3412 61.1076L45.8371 61.2043C46.3653 61.3084 46.6083 61.5366 46.6083 61.9209C46.6083 62.4441 46.1322 62.7863 45.4479 62.7863Z" fill="black"/>
<path d="M42.8063 62.7863C42.1269 62.7863 41.6384 62.4614 41.5938 61.8986H42.3128C42.3401 62.1267 42.5087 62.2631 42.7939 62.2631C43.0641 62.2631 43.2303 62.149 43.2303 61.9878C43.2303 61.849 43.1038 61.7672 42.8906 61.725L42.4318 61.6357C41.9235 61.5366 41.6533 61.2787 41.6533 60.872C41.6533 60.3761 42.0822 60.0488 42.7641 60.0488C43.441 60.0488 43.8873 60.3885 43.9022 60.934H43.2253C43.2203 60.7233 43.0418 60.5671 42.7839 60.5671C42.5335 60.5671 42.3822 60.6886 42.3822 60.8448C42.3822 60.9787 42.4988 61.0654 42.6996 61.1076L43.1955 61.2043C43.7237 61.3084 43.9667 61.5366 43.9667 61.9209C43.9667 62.4441 43.4906 62.7863 42.8063 62.7863Z" fill="black"/>
<path d="M40.0587 62.7804C39.2653 62.7804 38.7495 62.2101 38.7495 61.4142C38.7495 60.6157 39.2826 60.043 40.0339 60.043C40.8051 60.043 41.3233 60.6009 41.3233 61.3993V61.5952H39.4611C39.4735 61.982 39.6967 62.2324 40.081 62.2324C40.3662 62.2324 40.5621 62.101 40.629 61.8977H41.296C41.1993 62.4184 40.6935 62.7804 40.0587 62.7804ZM39.4661 61.129H40.634C40.5968 60.8017 40.3786 60.5984 40.0488 60.5984C39.7215 60.5984 39.5058 60.8017 39.4661 61.129Z" fill="black"/>
<path d="M37.2439 62.7804C36.4554 62.7804 35.9297 62.225 35.9297 61.4142C35.9297 60.6033 36.4578 60.043 37.2439 60.043C37.9332 60.043 38.4266 60.4719 38.4737 61.0819H37.767C37.7298 60.8141 37.5464 60.6331 37.2538 60.6331C36.8843 60.6331 36.6661 60.9356 36.6661 61.4142C36.6661 61.8902 36.8868 62.1903 37.2538 62.1903C37.5488 62.1903 37.715 62.0117 37.7621 61.7365H38.4737C38.4415 62.3415 37.9406 62.7804 37.2439 62.7804Z" fill="black"/>
<path d="M34.3066 62.7804C33.5131 62.7804 32.9775 62.2349 32.9775 61.4142C32.9775 60.5934 33.5131 60.043 34.3066 60.043C35.1025 60.043 35.6381 60.5934 35.6381 61.4142C35.6381 62.2349 35.1025 62.7804 34.3066 62.7804ZM34.3066 62.1878C34.6636 62.1878 34.9017 61.9002 34.9017 61.4142C34.9017 60.9257 34.6612 60.6356 34.3066 60.6356C33.9545 60.6356 33.714 60.9257 33.714 61.4142C33.714 61.9002 33.952 62.1878 34.3066 62.1878Z" fill="black"/>
<path d="M31.2227 62.7197V60.1013H31.9268V60.5477H31.9343C32.031 60.2328 32.2294 60.084 32.574 60.084C32.6583 60.084 32.7302 60.0865 32.7897 60.0889V60.7113C32.7352 60.7088 32.5988 60.6989 32.4748 60.6989C32.1748 60.6989 31.9541 60.9072 31.9541 61.3014V62.7197H31.2227Z" fill="black"/>
<path d="M28.0557 62.7258V59.0312H29.5136C30.3443 59.0312 30.865 59.4999 30.865 60.2438C30.865 60.9876 30.3344 61.4563 29.5037 61.4563H28.8194V62.7258H28.0557ZM28.8194 60.8165H29.4641C29.8682 60.8165 30.1187 60.5958 30.1187 60.2438C30.1187 59.8917 29.8682 59.671 29.4641 59.671H28.8194V60.8165Z" fill="black"/>
<path d="M23.5827 62.6549C23.5827 62.5427 23.5189 62.5417 23.4386 62.5301C22.9199 62.4566 22.4012 62.383 21.8845 62.2998C21.8312 62.2911 21.7538 62.234 21.7432 62.1875C21.5845 61.4995 21.3116 60.8599 20.9487 60.256C20.9264 60.2193 20.9274 60.1428 20.9516 60.1089C21.1006 59.8941 21.2593 59.6861 21.4151 59.4761C21.6038 59.2206 21.7925 58.9651 21.9783 58.7126C21.4925 58.2229 21.0271 57.7584 20.5684 57.2872C20.4823 57.1991 20.432 57.1846 20.3284 57.2659C19.9113 57.592 19.4865 57.9075 19.0617 58.222C19.0288 58.2461 18.9533 58.2558 18.9214 58.2355C18.3282 57.8542 17.6876 57.5881 17.0025 57.4275C16.9057 57.4052 16.867 57.3607 16.8573 57.2649C16.8389 57.0849 16.8119 56.9059 16.7838 56.7278C16.7257 56.3504 16.6648 55.974 16.6038 55.5898H14.471C14.4546 55.6585 14.4381 55.7079 14.4304 55.7592C14.3559 56.243 14.2804 56.7259 14.2127 57.2107C14.1952 57.3336 14.1614 57.3985 14.023 57.4333C13.3717 57.5988 12.7495 57.8426 12.1795 58.2026C12.0934 58.2578 12.0431 58.25 11.9686 58.192C11.6328 57.9326 11.2922 57.6781 10.9535 57.4236C10.8393 57.3375 10.7232 57.2543 10.6206 57.1798C10.1029 57.7013 9.60357 58.2045 9.0936 58.7184C9.13134 58.7755 9.17295 58.8451 9.22036 58.91C9.49809 59.2845 9.77678 59.658 10.0564 60.0296C10.1242 60.1196 10.1522 60.1941 10.0826 60.3083C9.72743 60.8889 9.47487 61.5131 9.31423 62.175C9.30262 62.2233 9.22617 62.2804 9.17198 62.2891C8.77039 62.3559 8.36783 62.4208 7.96334 62.4682C7.49982 62.5224 7.48531 62.5137 7.47563 62.9539C7.46208 63.5413 7.47273 64.1297 7.47273 64.7209C7.50659 64.7306 7.52788 64.7393 7.55014 64.7422C8.09108 64.8235 8.63104 64.9077 9.17295 64.9842C9.26391 64.9967 9.29681 65.0277 9.31907 65.1177C9.48357 65.7777 9.7284 66.4067 10.0903 66.9844C10.1406 67.0657 10.1522 67.1218 10.0884 67.1982C9.99548 67.3095 9.91323 67.4305 9.82613 67.5476C9.57357 67.8882 9.32004 68.2288 9.0665 68.5694C9.55228 69.0581 10.0303 69.5342 10.5016 70.0171C10.5925 70.11 10.6496 70.1032 10.7464 70.0287C11.1461 69.7181 11.5535 69.4181 11.955 69.1094C12.0286 69.0533 12.0837 69.033 12.1718 69.0852C12.7621 69.4433 13.395 69.7007 14.0646 69.869C14.1149 69.8816 14.1768 69.9513 14.1875 70.0045C14.2272 70.1923 14.2475 70.3839 14.2755 70.5745C14.3307 70.949 14.3868 71.3225 14.443 71.7028H16.6135C16.6309 71.6128 16.6483 71.5335 16.6599 71.4532C16.7286 70.9867 16.7973 70.5193 16.8641 70.0529C16.8777 69.9571 16.8989 69.8816 17.0189 69.8545C17.677 69.7065 18.2924 69.451 18.8662 69.0968C18.9669 69.0349 19.0375 69.0465 19.1295 69.1181C19.473 69.3871 19.8243 69.6465 20.1736 69.9087C20.3613 70.0494 20.5378 70.0394 20.7029 69.8787C21.1403 69.4529 21.5777 69.0272 22.018 68.5985C21.957 68.5123 21.9212 68.4601 21.8835 68.4098C21.5903 68.0179 21.2951 67.6269 21.0039 67.234C20.9564 67.1702 20.8868 67.116 20.9555 67.0076C21.3329 66.4125 21.5893 65.7651 21.7567 65.0809C21.7654 65.0442 21.8196 64.9977 21.8593 64.9909C22.1748 64.9367 22.4912 64.8922 22.8076 64.8438C23.065 64.8042 23.3224 64.7645 23.5847 64.7238C23.5847 64.0213 23.5827 63.3391 23.5866 62.6569L23.5827 62.6549ZM15.7522 65.6964C14.5165 65.6964 13.514 64.6948 13.514 63.4581C13.514 62.2214 14.5155 61.2199 15.7522 61.2199C16.9889 61.2199 17.9905 62.2214 17.9905 63.4581C17.9905 64.6948 16.9889 65.6964 15.7522 65.6964Z" fill="#EDE8E4"/>
<path d="M14.7616 55.2988H16.8944C16.9553 55.683 17.0153 56.0594 17.0743 56.4368C17.1014 56.6158 17.1285 56.7949 17.1479 56.9739C17.1576 57.0697 17.1963 57.1142 17.293 57.1364C17.9782 57.2961 18.6188 57.5632 19.212 57.9445C19.2439 57.9648 19.3184 57.9561 19.3523 57.9309C19.7781 57.6164 20.2029 57.301 20.619 56.9748C20.7225 56.8936 20.7728 56.9081 20.859 56.9961C21.3176 57.4674 21.7831 57.9319 22.2689 58.4215C22.0831 58.6741 21.8944 58.9296 21.7057 59.185C21.5499 59.395 21.3912 59.6031 21.2422 59.8179C21.218 59.8527 21.217 59.9282 21.2393 59.965C21.6021 60.5688 21.875 61.2085 22.0337 61.8965C22.0444 61.9439 22.1218 62.001 22.175 62.0088C22.6918 62.091 23.2104 62.1655 23.7291 62.2391C23.8094 62.2507 23.8743 62.2516 23.8733 62.3639C23.8694 63.0461 23.8714 63.7283 23.8714 64.4309C23.6091 64.4715 23.3517 64.5122 23.0943 64.5509C22.7779 64.5993 22.4614 64.6447 22.146 64.698C22.1063 64.7047 22.0531 64.7512 22.0434 64.788C21.876 65.4721 21.6196 66.1195 21.2422 66.7146C21.1735 66.823 21.2431 66.8772 21.2906 66.9411C21.5818 67.3349 21.877 67.7249 22.1702 68.1168C22.2079 68.1671 22.2437 68.2194 22.3047 68.3055C21.8634 68.7352 21.427 69.1609 20.9896 69.5858C20.8251 69.7457 20.6487 69.7557 20.4603 69.6158C20.1109 69.3535 19.7606 69.0942 19.4161 68.8252C19.3242 68.7535 19.2545 68.741 19.1529 68.8039C18.5791 69.158 17.9637 69.4135 17.3056 69.5616C17.1856 69.5887 17.1653 69.6632 17.1508 69.7599C17.0831 70.2273 17.0153 70.6938 16.9466 71.1602C16.935 71.2405 16.9166 71.3199 16.9002 71.4098H14.7296C14.6735 71.0305 14.6174 70.656 14.5622 70.2815C14.5342 70.0909 14.5139 69.8993 14.4742 69.7116C14.4626 69.6583 14.4016 69.5896 14.3513 69.5761C13.6816 69.4077 13.0488 69.1503 12.4585 68.7923C12.3714 68.739 12.3153 68.7594 12.2417 68.8164C11.8401 69.1251 11.4327 69.4251 11.0331 69.7357C10.9373 69.8103 10.8792 69.818 10.7883 69.7241C10.318 69.2413 9.83994 68.7652 9.35319 68.2765C9.60672 67.9358 9.85929 67.5952 10.1128 67.2546C10.1999 67.1375 10.2822 67.0165 10.3751 66.9053C10.4389 66.8278 10.4273 66.7717 10.377 66.6914C10.0151 66.1127 9.77026 65.4847 9.60576 64.8247C9.5835 64.7357 9.5506 64.7047 9.45964 64.6912C8.91773 64.6157 8.37776 64.5315 7.83683 64.4493C7.81457 64.4464 7.79328 64.4377 7.75941 64.428C7.75941 63.8367 7.74974 63.2484 7.76232 62.661C7.77199 62.2207 7.78651 62.2294 8.25003 62.1752C8.65452 62.1278 9.05708 62.0629 9.45867 61.9962C9.51286 61.9875 9.58931 61.9294 9.60092 61.882C9.76155 61.2191 10.0141 60.5959 10.3693 60.0153C10.4389 59.9011 10.4118 59.8266 10.3431 59.7366C10.0625 59.365 9.78478 58.9905 9.50705 58.617C9.45867 58.5522 9.41803 58.4825 9.38029 58.4254C9.89026 57.9116 10.3905 57.4084 10.9073 56.8868C11.0099 56.9623 11.126 57.0455 11.2402 57.1306C11.5798 57.3861 11.9195 57.6396 12.2553 57.899C12.3298 57.9561 12.3791 57.9638 12.4662 57.9096C13.0372 57.5497 13.6584 57.3048 14.3097 57.1403C14.4481 57.1055 14.4819 57.0406 14.4993 56.9178C14.5671 56.4329 14.6426 55.9501 14.7171 55.4662C14.7248 55.4149 14.7413 55.3656 14.7577 55.2969L14.7616 55.2988ZM15.8202 65.9356C17.1885 65.9482 18.3923 64.7822 18.4069 63.4293C18.4233 61.9575 17.3095 60.7982 15.8831 60.7633C14.478 60.7285 13.2646 61.851 13.2423 63.3132C13.221 64.7444 14.3842 65.9221 15.8212 65.9356H15.8202Z" fill="url(#paint1_linear_220_11998)"/>
<path d="M15.8241 67.2507C13.6719 67.2507 11.9214 65.5001 11.9214 63.348C11.9214 61.1959 13.6719 59.4453 15.8241 59.4453C17.9762 59.4453 19.7267 61.1959 19.7267 63.348C19.7267 65.5001 17.9762 67.2507 15.8241 67.2507ZM15.8241 60.025C13.9922 60.025 12.502 61.5152 12.502 63.347C12.502 65.1789 13.9922 66.6691 15.8241 66.6691C17.6559 66.6691 19.1461 65.1789 19.1461 63.347C19.1461 61.5152 17.6559 60.025 15.8241 60.025Z" fill="url(#paint2_linear_220_11998)"/>
<path opacity="0.4" d="M15.8241 67.257C13.6719 67.257 11.9214 65.5065 11.9214 63.3543C11.9214 62.6508 12.1081 61.9909 12.4352 61.4199C10.7466 64.5117 13.8974 68.8121 18.0352 66.569C17.4062 67.0025 16.6447 67.257 15.8241 67.257Z" fill="#FFF1D7"/>
<defs>
<linearGradient id="paint0_linear_220_11998" x1="88.8336" y1="59.7696" x2="84.2287" y2="71.7659" gradientUnits="userSpaceOnUse">
<stop stop-color="#A3C6FF"/>
<stop offset="0.99" stop-color="#1F68FF"/>
</linearGradient>
<linearGradient id="paint1_linear_220_11998" x1="20.7912" y1="57.3822" x2="10.526" y2="69.8054" gradientUnits="userSpaceOnUse">
<stop stop-color="#A3C6FF"/>
<stop offset="0.99" stop-color="#1F68FF"/>
</linearGradient>
<linearGradient id="paint2_linear_220_11998" x1="12.4813" y1="66.2333" x2="19.3172" y2="60.3089" gradientUnits="userSpaceOnUse">
<stop offset="0.0973426" stop-color="#A3C6FF"/>
<stop offset="0.99" stop-color="#1F68FF"/>
</linearGradient>
</defs>
</svg>
