<svg width="128" height="128" viewBox="0 0 128 128" fill="none" xmlns="http://www.w3.org/2000/svg">
<path d="M2 52.9531C2 51.8744 2.87444 51 3.95313 51H124.266C125.344 51 126.219 51.8744 126.219 52.9531V74.0469C126.219 75.1256 125.344 76 124.266 76H3.95313C2.87445 76 2 75.1256 2 74.0469V52.9531Z" fill="white"/>
<path d="M124.266 75.2188V76H3.95312V75.2188H124.266ZM125.438 74.0469V52.9531C125.438 52.3059 124.913 51.7813 124.266 51.7812H3.95312C3.30592 51.7813 2.78125 52.3059 2.78125 52.9531V74.0469C2.78125 74.6941 3.30592 75.2187 3.95312 75.2188V76C2.90809 76 2.05489 75.1793 2.00267 74.1472L2 74.0469V52.9531C2 51.8744 2.87444 51 3.95312 51H124.266L124.366 51.0027C125.398 51.0549 126.219 51.9081 126.219 52.9531V74.0469C126.219 75.0919 125.398 75.9451 124.366 75.9973L124.266 76V75.2188C124.913 75.2187 125.438 74.6941 125.438 74.0469Z" fill="#BFD4E8"/>
<path d="M63.3281 53.7344H64.1094V73.2656H63.3281V53.7344Z" fill="#EEF1F5"/>
<path d="M108.894 69.6197V69.042H109.226C109.4 69.042 109.467 68.9651 109.536 68.7643L109.608 68.5733L108.602 65.9648H109.368L109.807 67.2592C109.866 67.4476 109.926 67.6361 109.98 67.8245C110.037 67.6361 110.094 67.4451 110.156 67.2592L110.598 65.9648H111.356L110.203 68.9874C110.037 69.4238 109.784 69.6197 109.378 69.6197H108.894Z" fill="black"/>
<path d="M108.338 65.9563V66.5291H107.803V67.7664C107.803 67.9449 107.86 68.0019 108.058 68.0019H108.338V68.5747H107.912C107.337 68.5747 107.071 68.3565 107.071 67.8804V66.5291H106.62V65.9563H107.071V65.2422H107.803V65.9563H108.338Z" fill="black"/>
<path d="M105.542 68.5705V65.9521H106.274V68.5705H105.542ZM105.907 65.6223C105.666 65.6223 105.49 65.4562 105.49 65.233C105.49 65.0099 105.666 64.8438 105.907 64.8438C106.147 64.8438 106.323 65.0099 106.323 65.233C106.323 65.4562 106.147 65.6223 105.907 65.6223Z" fill="black"/>
<path d="M103.472 68.5833L102.503 65.9648H103.269L103.701 67.2592C103.768 67.465 103.829 67.6733 103.889 67.8791C103.949 67.6733 104.01 67.465 104.072 67.2592L104.499 65.9648H105.258L104.286 68.5833H103.472Z" fill="black"/>
<path d="M101.482 68.5705V65.9521H102.213V68.5705H101.482ZM101.846 65.6223C101.606 65.6223 101.43 65.4562 101.43 65.233C101.43 65.0099 101.606 64.8438 101.846 64.8438C102.087 64.8438 102.263 65.0099 102.263 65.233C102.263 65.4562 102.087 65.6223 101.846 65.6223Z" fill="black"/>
<path d="M101.112 65.9563V66.5291H100.576V67.7664C100.576 67.9449 100.633 68.0019 100.832 68.0019H101.112V68.5747H100.685C100.11 68.5747 99.8448 68.3565 99.8448 67.8804V66.5291H99.3936V65.9563H99.8448V65.2422H100.576V65.9563H101.112Z" fill="black"/>
<path d="M97.986 68.6398C97.1975 68.6398 96.6719 68.0844 96.6719 67.2735C96.6719 66.4627 97.2 65.9023 97.986 65.9023C98.6754 65.9023 99.1688 66.3313 99.2159 66.9413H98.5092C98.472 66.6735 98.2885 66.4925 97.996 66.4925C97.6265 66.4925 97.4083 66.795 97.4083 67.2735C97.4083 67.7496 97.629 68.0496 97.996 68.0496C98.291 68.0496 98.4572 67.8711 98.5043 67.5959H99.2159C99.1837 68.2009 98.6828 68.6398 97.986 68.6398Z" fill="black"/>
<path d="M93.0376 68.5852L94.3344 64.8906H95.3163L96.6131 68.5852H95.7676L95.5097 67.7793H94.1286L93.8608 68.5852H93.0376ZM94.3344 67.1693H95.3113L95.1874 66.7875C95.0733 66.4106 94.9593 66.0337 94.8278 65.575C94.6939 66.0337 94.5799 66.4106 94.4609 66.7875L94.3344 67.1693Z" fill="black"/>
<path d="M109.642 59.0312V62.7258H108.91V59.0312H109.642Z" fill="black"/>
<path d="M108.39 59.0312V62.7258H107.658V59.0312H108.39Z" fill="black"/>
<path d="M105.653 62.7664C105.13 62.7664 104.753 62.5061 104.753 61.9829C104.753 61.3927 105.229 61.2241 105.775 61.1745C106.253 61.1274 106.422 61.1051 106.422 60.9365V60.9192C106.422 60.7257 106.26 60.5919 105.993 60.5919C105.72 60.5919 105.541 60.7307 105.524 60.9315H104.837C104.869 60.391 105.296 60.0488 106.015 60.0488C106.732 60.0488 107.143 60.386 107.143 60.9464V62.7218H106.429V62.3523H106.419C106.28 62.6077 106.055 62.7664 105.653 62.7664ZM105.856 62.2581C106.208 62.2581 106.427 62.0473 106.427 61.7647V61.5018C106.342 61.549 106.137 61.5837 105.901 61.6209C105.651 61.6581 105.452 61.7548 105.452 61.963C105.452 62.149 105.611 62.2581 105.856 62.2581Z" fill="black"/>
<path d="M103.191 62.7804C102.403 62.7804 101.877 62.225 101.877 61.4142C101.877 60.6033 102.405 60.043 103.191 60.043C103.88 60.043 104.374 60.4719 104.421 61.0819H103.714C103.677 60.8141 103.494 60.6331 103.201 60.6331C102.832 60.6331 102.613 60.9356 102.613 61.4142C102.613 61.8902 102.834 62.1903 103.201 62.1903C103.496 62.1903 103.662 62.0117 103.709 61.7365H104.421C104.389 62.3415 103.888 62.7804 103.191 62.7804Z" fill="black"/>
<path d="M100.436 62.7863C99.7562 62.7863 99.2678 62.4614 99.2231 61.8986H99.9422C99.9695 62.1267 100.138 62.2631 100.423 62.2631C100.694 62.2631 100.86 62.149 100.86 61.9878C100.86 61.849 100.733 61.7672 100.52 61.725L100.061 61.6357C99.5529 61.5366 99.2827 61.2787 99.2827 60.872C99.2827 60.3761 99.7116 60.0488 100.393 60.0488C101.07 60.0488 101.517 60.3885 101.532 60.934H100.855C100.85 60.7233 100.671 60.5671 100.413 60.5671C100.163 60.5671 100.012 60.6886 100.012 60.8448C100.012 60.9787 100.128 61.0654 100.329 61.1076L100.825 61.2043C101.353 61.3084 101.596 61.5366 101.596 61.9209C101.596 62.4441 101.12 62.7863 100.436 62.7863Z" fill="black"/>
<path d="M96.65 63.7603V63.1826H96.9823C97.1558 63.1826 97.2228 63.1057 97.2922 62.9049L97.3641 62.714L96.3574 60.1055H97.1236L97.5625 61.3998C97.622 61.5882 97.6815 61.7767 97.7361 61.9651C97.7931 61.7767 97.8501 61.5858 97.9121 61.3998L98.3535 60.1055H99.1122L97.9592 63.128C97.7931 63.5644 97.5402 63.7603 97.1335 63.7603H96.65Z" fill="black"/>
<path d="M94.6906 62.7823C93.7434 62.7823 93.1904 62.3137 93.1904 61.5103H93.9269C93.9368 61.9169 94.2219 62.155 94.6955 62.155C95.1195 62.155 95.3997 61.969 95.3997 61.6814C95.3997 61.4433 95.2063 61.3045 94.7377 61.2028L94.3484 61.1185C93.6169 60.9598 93.2623 60.6201 93.2623 60.092C93.2623 59.42 93.8252 58.9688 94.6658 58.9688C95.5163 58.9688 96.0444 59.4175 96.0667 60.1614H95.3526C95.3253 59.8118 95.065 59.5961 94.6682 59.5961C94.2914 59.5961 94.026 59.7845 94.026 60.0548C94.026 60.2829 94.2095 60.4094 94.6633 60.5086L95.0179 60.5854C95.8064 60.7515 96.156 61.0764 96.156 61.6318C96.156 62.3434 95.6006 62.7823 94.6906 62.7823Z" fill="black"/>
<path d="M80.1159 70.68H79.3066V65.8246H80.1159V70.68ZM80.1159 60.8554H79.3066V56H80.1159V60.8554Z" fill="#CF8900"/>
<path d="M76.4958 58.0489C76.6546 57.9206 76.8914 58.0337 76.8914 58.2377V62.1176H82.72V64.8602H76.8914V68.7396C76.8914 68.9437 76.6546 69.0567 76.4958 68.9285L70.1504 63.8036C69.9499 63.6416 69.9499 63.3357 70.1504 63.1738L76.4958 58.0489ZM82.7231 58.2373C82.7232 58.0333 82.9599 57.9203 83.1187 58.0485L89.4641 63.1738C89.6645 63.3357 89.6644 63.6412 89.4641 63.8032L83.1187 68.9285C82.9599 69.0567 82.7231 68.9437 82.7231 68.7396V58.2373Z" fill="url(#paint0_linear_222_12726)"/>
<path d="M81.623 62.1133H82.72V64.8558H81.623V62.1133Z" fill="#E49F17"/>
<path d="M76.895 62.1133H77.992V64.8558H76.895V62.1133Z" fill="#DB950C"/>
<path d="M49.208 67.1257V68.5812H48.4766V65.9628H49.1956V66.3744C49.3717 66.0768 49.637 65.9082 50.0139 65.9082C50.5718 65.9082 50.9313 66.2801 50.9313 66.9422V68.5812H50.2023V67.0761C50.2023 66.724 50.0263 66.538 49.7213 66.538C49.4188 66.538 49.208 66.719 49.208 67.1257Z" fill="black"/>
<path d="M46.7411 68.6398C45.9477 68.6398 45.4121 68.0943 45.4121 67.2735C45.4121 66.4528 45.9477 65.9023 46.7411 65.9023C47.5371 65.9023 48.0727 66.4528 48.0727 67.2735C48.0727 68.0943 47.5371 68.6398 46.7411 68.6398ZM46.7411 68.0472C47.0982 68.0472 47.3362 67.7595 47.3362 67.2735C47.3362 66.7851 47.0957 66.495 46.7411 66.495C46.3891 66.495 46.1485 66.7851 46.1485 67.2735C46.1485 67.7595 46.3866 68.0472 46.7411 68.0472Z" fill="black"/>
<path d="M44.2752 68.5705V65.9521H45.0067V68.5705H44.2752ZM44.6397 65.6223C44.3992 65.6223 44.2231 65.4562 44.2231 65.233C44.2231 65.0099 44.3992 64.8438 44.6397 64.8438C44.8802 64.8438 45.0563 65.0099 45.0563 65.233C45.0563 65.4562 44.8802 65.6223 44.6397 65.6223Z" fill="black"/>
<path d="M43.9063 65.9563V66.5291H43.3707V67.7664C43.3707 67.9449 43.4278 68.0019 43.6261 68.0019H43.9063V68.5747H43.4798C42.9046 68.5747 42.6393 68.3565 42.6393 67.8804V66.5291H42.188V65.9563H42.6393V65.2422H43.3707V65.9563H43.9063Z" fill="black"/>
<path d="M40.3442 68.6378C39.7863 68.6378 39.4243 68.2659 39.4243 67.6038V65.9648H40.1558V67.4699C40.1558 67.822 40.3318 68.008 40.6368 68.008C40.9393 68.008 41.1501 67.827 41.1501 67.4203V65.9648H41.8791V68.5833H41.1625V68.1716C40.9864 68.4692 40.7211 68.6378 40.3442 68.6378Z" fill="black"/>
<path d="M37.8049 68.6398C37.0164 68.6398 36.4907 68.0844 36.4907 67.2735C36.4907 66.4627 37.0189 65.9023 37.8049 65.9023C38.4942 65.9023 38.9876 66.3313 39.0347 66.9413H38.3281C38.2909 66.6735 38.1074 66.4925 37.8148 66.4925C37.4454 66.4925 37.2271 66.795 37.2271 67.2735C37.2271 67.7496 37.4478 68.0496 37.8148 68.0496C38.1099 68.0496 38.276 67.8711 38.3231 67.5959H39.0347C39.0025 68.2009 38.5016 68.6398 37.8049 68.6398Z" fill="black"/>
<path d="M34.9459 68.6398C34.1525 68.6398 33.6367 68.0695 33.6367 67.2735C33.6367 66.4751 34.1698 65.9023 34.9211 65.9023C35.6923 65.9023 36.2105 66.4602 36.2105 67.2587V67.4545H34.3484C34.3607 67.8414 34.5839 68.0918 34.9682 68.0918C35.2534 68.0918 35.4493 67.9604 35.5162 67.757H36.1832C36.0865 68.2778 35.5807 68.6398 34.9459 68.6398ZM34.3533 66.9884H35.5212C35.484 66.6611 35.2658 66.4578 34.936 66.4578C34.6087 66.4578 34.393 66.6611 34.3533 66.9884Z" fill="black"/>
<path d="M30.9004 68.5833L31.8377 67.2493L30.9649 65.9648H31.7633L31.9939 66.3318C32.0831 66.4831 32.165 66.6244 32.2468 66.7657C32.3286 66.6244 32.4104 66.4831 32.5047 66.3318L32.7402 65.9648H33.5262L32.6435 67.2319L33.5684 68.5833H32.7675L32.5047 68.1816C32.4104 68.0229 32.3237 67.8791 32.2393 67.7328C32.1501 67.8791 32.0633 68.0229 31.9666 68.1816L31.6988 68.5833H30.9004Z" fill="black"/>
<path d="M28.0557 68.5852V64.8906H30.7063V65.5452H28.8194V66.4007H30.565V67.0379H28.8194V67.9306H30.7063V68.5852H28.0557Z" fill="black"/>
<path d="M45.4479 62.7863C44.7685 62.7863 44.28 62.4614 44.2354 61.8986H44.9544C44.9817 62.1267 45.1503 62.2631 45.4355 62.2631C45.7057 62.2631 45.8719 62.149 45.8719 61.9878C45.8719 61.849 45.7454 61.7672 45.5322 61.725L45.0734 61.6357C44.5651 61.5366 44.2949 61.2787 44.2949 60.872C44.2949 60.3761 44.7238 60.0488 45.4057 60.0488C46.0826 60.0488 46.5289 60.3885 46.5438 60.934H45.8669C45.8619 60.7233 45.6834 60.5671 45.4255 60.5671C45.1751 60.5671 45.0238 60.6886 45.0238 60.8448C45.0238 60.9787 45.1404 61.0654 45.3412 61.1076L45.8371 61.2043C46.3653 61.3084 46.6083 61.5366 46.6083 61.9209C46.6083 62.4441 46.1322 62.7863 45.4479 62.7863Z" fill="black"/>
<path d="M42.8063 62.7863C42.1269 62.7863 41.6384 62.4614 41.5938 61.8986H42.3128C42.3401 62.1267 42.5087 62.2631 42.7939 62.2631C43.0641 62.2631 43.2303 62.149 43.2303 61.9878C43.2303 61.849 43.1038 61.7672 42.8906 61.725L42.4318 61.6357C41.9235 61.5366 41.6533 61.2787 41.6533 60.872C41.6533 60.3761 42.0822 60.0488 42.7641 60.0488C43.441 60.0488 43.8873 60.3885 43.9022 60.934H43.2253C43.2203 60.7233 43.0418 60.5671 42.7839 60.5671C42.5335 60.5671 42.3822 60.6886 42.3822 60.8448C42.3822 60.9787 42.4988 61.0654 42.6996 61.1076L43.1955 61.2043C43.7237 61.3084 43.9667 61.5366 43.9667 61.9209C43.9667 62.4441 43.4906 62.7863 42.8063 62.7863Z" fill="black"/>
<path d="M40.0587 62.7804C39.2653 62.7804 38.7495 62.2101 38.7495 61.4142C38.7495 60.6157 39.2826 60.043 40.0339 60.043C40.8051 60.043 41.3233 60.6009 41.3233 61.3993V61.5952H39.4611C39.4735 61.982 39.6967 62.2324 40.081 62.2324C40.3662 62.2324 40.5621 62.101 40.629 61.8977H41.296C41.1993 62.4184 40.6935 62.7804 40.0587 62.7804ZM39.4661 61.129H40.634C40.5968 60.8017 40.3786 60.5984 40.0488 60.5984C39.7215 60.5984 39.5058 60.8017 39.4661 61.129Z" fill="black"/>
<path d="M37.2439 62.7804C36.4554 62.7804 35.9297 62.225 35.9297 61.4142C35.9297 60.6033 36.4578 60.043 37.2439 60.043C37.9332 60.043 38.4266 60.4719 38.4737 61.0819H37.767C37.7298 60.8141 37.5464 60.6331 37.2538 60.6331C36.8843 60.6331 36.6661 60.9356 36.6661 61.4142C36.6661 61.8902 36.8868 62.1903 37.2538 62.1903C37.5488 62.1903 37.715 62.0117 37.7621 61.7365H38.4737C38.4415 62.3415 37.9406 62.7804 37.2439 62.7804Z" fill="black"/>
<path d="M34.3066 62.7804C33.5131 62.7804 32.9775 62.2349 32.9775 61.4142C32.9775 60.5934 33.5131 60.043 34.3066 60.043C35.1025 60.043 35.6381 60.5934 35.6381 61.4142C35.6381 62.2349 35.1025 62.7804 34.3066 62.7804ZM34.3066 62.1878C34.6636 62.1878 34.9017 61.9002 34.9017 61.4142C34.9017 60.9257 34.6612 60.6356 34.3066 60.6356C33.9545 60.6356 33.714 60.9257 33.714 61.4142C33.714 61.9002 33.952 62.1878 34.3066 62.1878Z" fill="black"/>
<path d="M31.2227 62.7197V60.1013H31.9268V60.5477H31.9343C32.031 60.2328 32.2294 60.084 32.574 60.084C32.6583 60.084 32.7302 60.0865 32.7897 60.0889V60.7113C32.7352 60.7088 32.5988 60.6989 32.4748 60.6989C32.1748 60.6989 31.9541 60.9072 31.9541 61.3014V62.7197H31.2227Z" fill="black"/>
<path d="M28.0557 62.7258V59.0312H29.5136C30.3443 59.0312 30.865 59.4999 30.865 60.2438C30.865 60.9876 30.3344 61.4563 29.5037 61.4563H28.8194V62.7258H28.0557ZM28.8194 60.8165H29.4641C29.8682 60.8165 30.1187 60.5958 30.1187 60.2438C30.1187 59.8917 29.8682 59.671 29.4641 59.671H28.8194V60.8165Z" fill="black"/>
<path d="M14.7418 55.2012H16.8855C16.9468 55.5873 17.0071 55.9656 17.0664 56.3449C17.0936 56.5248 17.1209 56.7048 17.1403 56.8847C17.1501 56.981 17.189 57.0257 17.2862 57.0481C17.9749 57.2086 18.6187 57.477 19.215 57.8602C19.2471 57.8806 19.322 57.8719 19.356 57.8466C19.784 57.5305 20.211 57.2134 20.6292 56.8857C20.7333 56.804 20.7838 56.8186 20.8704 56.9071C21.3314 57.3807 21.7993 57.8475 22.2875 58.3397C22.1008 58.5935 21.9111 58.8503 21.7215 59.107C21.5649 59.3181 21.4054 59.5272 21.2556 59.7431C21.2313 59.7781 21.2303 59.854 21.2527 59.8909C21.6174 60.4978 21.8917 61.1407 22.0512 61.8322C22.0619 61.8798 22.1397 61.9372 22.1932 61.945C22.7126 62.0277 23.2339 62.1026 23.7553 62.1765C23.836 62.1881 23.9012 62.1891 23.9002 62.3019C23.8963 62.9876 23.8982 63.6733 23.8982 64.3794C23.6347 64.4202 23.3759 64.461 23.1172 64.4999C22.7992 64.5486 22.4811 64.5943 22.164 64.6478C22.1241 64.6546 22.0706 64.7013 22.0609 64.7382C21.8927 65.4258 21.6349 66.0765 21.2556 66.6746C21.1865 66.7836 21.2565 66.838 21.3042 66.9022C21.597 67.298 21.8936 67.69 22.1883 68.0839C22.2263 68.1345 22.2623 68.187 22.3235 68.2735C21.88 68.7054 21.4413 69.1333 21.0017 69.5603C20.8364 69.7211 20.659 69.7311 20.4697 69.5904C20.1186 69.3268 19.7665 69.0662 19.4202 68.7958C19.3278 68.7238 19.2578 68.7112 19.1556 68.7744C18.5789 69.1304 17.9603 69.3871 17.2989 69.5359C17.1783 69.5632 17.1578 69.6381 17.1432 69.7353C17.0752 70.2051 17.0071 70.6739 16.938 71.1426C16.9263 71.2234 16.9079 71.3031 16.8913 71.3936H14.7097C14.6533 71.0123 14.5969 70.6359 14.5414 70.2595C14.5132 70.0679 14.4928 69.8754 14.4529 69.6867C14.4413 69.6332 14.38 69.5641 14.3294 69.5505C13.6563 69.3813 13.0202 69.1226 12.4269 68.7627C12.3394 68.7093 12.283 68.7297 12.209 68.7871C11.8054 69.0973 11.3959 69.3988 10.9942 69.711C10.8979 69.7859 10.8396 69.7937 10.7481 69.6993C10.2754 69.214 9.79495 68.7355 9.30571 68.2444C9.56054 67.902 9.8144 67.5597 10.0692 67.2173C10.1568 67.0996 10.2394 66.9781 10.3328 66.8662C10.397 66.7884 10.3853 66.732 10.3348 66.6513C9.97099 66.0697 9.72492 65.4385 9.55957 64.7752C9.5372 64.6857 9.50413 64.6546 9.4127 64.641C8.86802 64.5651 8.32529 64.4805 7.78158 64.3978C7.75921 64.3949 7.73781 64.3862 7.70377 64.3764C7.70377 63.7822 7.69404 63.1909 7.70669 62.6005C7.71641 62.158 7.731 62.1667 8.1969 62.1123C8.60346 62.0646 9.00808 61.9995 9.41173 61.9324C9.46619 61.9236 9.54303 61.8652 9.5547 61.8176C9.71616 61.1514 9.97002 60.525 10.327 59.9415C10.397 59.8267 10.3698 59.7518 10.3007 59.6614C10.0187 59.2879 9.73951 58.9115 9.46036 58.5361C9.41173 58.471 9.37087 58.4009 9.33294 58.3436C9.84552 57.8271 10.3484 57.3214 10.8678 56.7972C10.9709 56.873 11.0876 56.9567 11.2024 57.0422C11.5438 57.299 11.8852 57.5538 12.2227 57.8145C12.2976 57.8719 12.3472 57.8796 12.4347 57.8252C13.0086 57.4634 13.633 57.2173 14.2876 57.052C14.4267 57.017 14.4607 56.9518 14.4782 56.8283C14.5463 56.341 14.6222 55.8557 14.6971 55.3694C14.7048 55.3179 14.7214 55.2683 14.7379 55.1992L14.7418 55.2012ZM15.8059 65.8917C17.1812 65.9043 18.3911 64.7324 18.4057 63.3727C18.4223 61.8934 17.3028 60.7283 15.8691 60.6933C14.4568 60.6583 13.2371 61.7865 13.2148 63.256C13.1934 64.6945 14.3625 65.8781 15.8068 65.8917H15.8059Z" fill="url(#paint1_linear_222_12726)"/>
<path d="M15.8089 67.212C13.6457 67.212 11.8862 65.4526 11.8862 63.2896C11.8862 61.1266 13.6457 59.3672 15.8089 59.3672C17.972 59.3672 19.7315 61.1266 19.7315 63.2896C19.7315 65.4526 17.972 67.212 15.8089 67.212ZM15.8089 59.9498C13.9677 59.9498 12.4698 61.4475 12.4698 63.2886C12.4698 65.1297 13.9677 66.6275 15.8089 66.6275C17.6501 66.6275 19.148 65.1297 19.148 63.2886C19.148 61.4475 17.6501 59.9498 15.8089 59.9498Z" fill="url(#paint2_linear_222_12726)"/>
<path opacity="0.4" d="M15.8089 67.2162C13.6457 67.2162 11.8862 65.4568 11.8862 63.2938C11.8862 62.5867 12.074 61.9234 12.4027 61.3496C10.7054 64.457 13.8724 68.7791 18.0314 66.5247C17.3992 66.9604 16.6337 67.2162 15.8089 67.2162Z" fill="#FFF1D7"/>
<defs>
<linearGradient id="paint0_linear_222_12726" x1="78.6619" y1="68.7902" x2="86.5614" y2="53.7478" gradientUnits="userSpaceOnUse">
<stop stop-color="#DC9100"/>
<stop offset="1" stop-color="#FFC961"/>
</linearGradient>
<linearGradient id="paint1_linear_222_12726" x1="20.8023" y1="57.2951" x2="10.4854" y2="69.7817" gradientUnits="userSpaceOnUse">
<stop stop-color="#FFC85E"/>
<stop offset="0.99" stop-color="#D78E00"/>
</linearGradient>
<linearGradient id="paint2_linear_222_12726" x1="12.449" y1="66.1895" x2="19.3195" y2="60.2346" gradientUnits="userSpaceOnUse">
<stop offset="0.0973426" stop-color="#FFC85E"/>
<stop offset="0.99" stop-color="#D88E00"/>
</linearGradient>
</defs>
</svg>
