<svg width="128" height="128" viewBox="0 0 128 128" fill="none" xmlns="http://www.w3.org/2000/svg">
<path d="M2 40.2969C2 37.9238 3.92378 36 6.29688 36H121.384C123.757 36 125.681 37.9238 125.681 40.2969V86.7031C125.681 89.0762 123.757 91 121.384 91H6.29688C3.92378 91 2 89.0762 2 86.7031V40.2969Z" fill="white"/>
<path d="M121.384 89.2813V91H6.29688V89.2813H121.384ZM123.963 86.7031V40.2969C123.963 38.873 122.808 37.7188 121.384 37.7188H6.29688C4.87302 37.7188 3.71875 38.873 3.71875 40.2969V86.7031C3.71875 88.127 4.87302 89.2812 6.29688 89.2813V91C3.99781 91 2.12077 89.1944 2.00587 86.9238L2 86.7031V40.2969C2 37.9238 3.92378 36 6.29688 36H121.384L121.605 36.0059C123.876 36.1208 125.681 37.9978 125.681 40.2969V86.7031C125.681 89.0022 123.876 90.8792 121.605 90.9941L121.384 91V89.2813C122.808 89.2813 123.963 88.127 123.963 86.7031Z" fill="#BFD4E8"/>
<path d="M105.858 71.4753V74.6774H104.249V68.9169H105.831V69.8224C106.218 69.1678 106.802 68.7969 107.631 68.7969C108.859 68.7969 109.649 69.6151 109.649 71.0716V74.6774H108.046V71.3662C108.046 70.5916 107.658 70.1824 106.987 70.1824C106.322 70.1824 105.858 70.5807 105.858 71.4753Z" fill="black"/>
<path d="M100.43 74.8075C98.6846 74.8075 97.5063 73.6074 97.5063 71.8018C97.5063 69.9962 98.6846 68.7852 100.43 68.7852C102.181 68.7852 103.36 69.9962 103.36 71.8018C103.36 73.6074 102.181 74.8075 100.43 74.8075ZM100.43 73.5037C101.216 73.5037 101.739 72.871 101.739 71.8018C101.739 70.7271 101.21 70.0889 100.43 70.0889C99.6556 70.0889 99.1265 70.7271 99.1265 71.8018C99.1265 72.871 99.6502 73.5037 100.43 73.5037Z" fill="black"/>
<path d="M95.0052 74.654V68.8935H96.6144V74.654H95.0052ZM95.8071 68.168C95.2779 68.168 94.8906 67.8025 94.8906 67.3115C94.8906 66.8206 95.2779 66.4551 95.8071 66.4551C96.3362 66.4551 96.7235 66.8206 96.7235 67.3115C96.7235 67.8025 96.3362 68.168 95.8071 68.168Z" fill="black"/>
<path d="M94.1939 68.905V70.1651H93.0156V72.8872C93.0156 73.28 93.1411 73.4054 93.5775 73.4054H94.1939V74.6655H93.2556C91.9901 74.6655 91.4064 74.1855 91.4064 73.1381V70.1651H90.4136V68.905H91.4064V67.334H93.0156V68.905H94.1939Z" fill="black"/>
<path d="M86.3573 74.8043C85.1299 74.8043 84.3335 73.9861 84.3335 72.5296V68.9238H85.9427V72.235C85.9427 73.0096 86.33 73.4188 87.001 73.4188C87.6665 73.4188 88.1302 73.0205 88.1302 72.1259V68.9238H89.734V74.6843H88.1575V73.7788C87.7702 74.4334 87.1865 74.8043 86.3573 74.8043Z" fill="black"/>
<path d="M80.771 74.8075C79.0363 74.8075 77.8799 73.5856 77.8799 71.8018C77.8799 70.018 79.0418 68.7852 80.771 68.7852C82.2875 68.7852 83.3731 69.7289 83.4767 71.0708H81.9221C81.8402 70.4817 81.4366 70.0835 80.7929 70.0835C79.9801 70.0835 79.5 70.749 79.5 71.8018C79.5 72.8491 79.9855 73.5092 80.7929 73.5092C81.442 73.5092 81.8075 73.1164 81.9111 72.5109H83.4767C83.4058 73.842 82.3039 74.8075 80.771 74.8075Z" fill="black"/>
<path d="M74.4813 74.8075C72.7357 74.8075 71.6011 73.5528 71.6011 71.8018C71.6011 70.0453 72.7739 68.7852 74.4268 68.7852C76.1233 68.7852 77.2634 70.0125 77.2634 71.7691V72.2H73.1667C73.1939 73.051 73.6849 73.6019 74.5304 73.6019C75.1577 73.6019 75.5887 73.3128 75.736 72.8655H77.2034C76.9906 74.0111 75.8778 74.8075 74.4813 74.8075ZM73.1776 71.1745H75.7469C75.6651 70.4544 75.185 70.0071 74.4595 70.0071C73.7394 70.0071 73.2649 70.4544 73.1776 71.1745Z" fill="black"/>
<path d="M65.5806 74.6843L67.6426 71.7495L65.7224 68.9238H67.4789L67.9862 69.7312C68.1826 70.0639 68.3626 70.3749 68.5426 70.6858C68.7227 70.3749 68.9027 70.0639 69.11 69.7312L69.6282 68.9238H71.3574L69.4154 71.7113L71.4502 74.6843H69.6882L69.11 73.8006C68.9027 73.4515 68.7117 73.1351 68.5263 72.8133C68.3299 73.1351 68.139 73.4515 67.9262 73.8006L67.3371 74.6843H65.5806Z" fill="black"/>
<path d="M59.3228 74.6885V66.5605H65.1542V68.0007H61.0029V69.8827H64.8432V71.2846H61.0029V73.2484H65.1542V74.6885H59.3228Z" fill="black"/>
<path d="M97.585 61.9286C96.0903 61.9286 95.0157 61.214 94.9175 59.9757H96.4994C96.5594 60.4776 96.9304 60.7776 97.5577 60.7776C98.1523 60.7776 98.5178 60.5266 98.5178 60.1721C98.5178 59.8666 98.2396 59.6866 97.7705 59.5938L96.7613 59.3975C95.643 59.1793 95.0484 58.6119 95.0484 57.7173C95.0484 56.6263 95.9921 55.9062 97.4922 55.9062C98.9815 55.9062 99.9634 56.6536 99.9961 57.8537H98.5069C98.496 57.39 98.1032 57.0463 97.5359 57.0463C96.9849 57.0463 96.6522 57.3136 96.6522 57.6573C96.6522 57.9519 96.9086 58.1428 97.3504 58.2355L98.4414 58.4483C99.6033 58.6774 100.138 59.1793 100.138 60.0248C100.138 61.1758 99.0906 61.9286 97.585 61.9286Z" fill="black"/>
<path d="M91.7735 61.9286C90.2788 61.9286 89.2041 61.214 89.106 59.9757H90.6879C90.7479 60.4776 91.1189 60.7776 91.7462 60.7776C92.3408 60.7776 92.7063 60.5266 92.7063 60.1721C92.7063 59.8666 92.4281 59.6866 91.9589 59.5938L90.9498 59.3975C89.8315 59.1793 89.2369 58.6119 89.2369 57.7173C89.2369 56.6263 90.1806 55.9062 91.6807 55.9062C93.1699 55.9062 94.1518 56.6536 94.1846 57.8537H92.6954C92.6844 57.39 92.2917 57.0463 91.7244 57.0463C91.1734 57.0463 90.8407 57.3136 90.8407 57.6573C90.8407 57.9519 91.097 58.1428 91.5389 58.2355L92.6299 58.4483C93.7918 58.6774 94.3264 59.1793 94.3264 60.0248C94.3264 61.1758 93.279 61.9286 91.7735 61.9286Z" fill="black"/>
<path d="M85.7289 61.9169C83.9833 61.9169 82.8486 60.6622 82.8486 58.9112C82.8486 57.1546 84.0215 55.8945 85.6743 55.8945C87.3708 55.8945 88.5109 57.1219 88.5109 58.8784V59.3094H84.4142C84.4415 60.1604 84.9324 60.7113 85.778 60.7113C86.4053 60.7113 86.8363 60.4222 86.9835 59.9749H88.4509C88.2382 61.1204 87.1254 61.9169 85.7289 61.9169ZM84.4251 58.2838H86.9944C86.9126 57.5638 86.4326 57.1165 85.7071 57.1165C84.987 57.1165 84.5124 57.5638 84.4251 58.2838Z" fill="black"/>
<path d="M79.5362 61.9169C77.8015 61.9169 76.645 60.6949 76.645 58.9112C76.645 57.1274 77.8069 55.8945 79.5362 55.8945C81.0527 55.8945 82.1382 56.8382 82.2419 58.1802H80.6872C80.6054 57.591 80.2017 57.1928 79.558 57.1928C78.7452 57.1928 78.2652 57.8583 78.2652 58.9112C78.2652 59.9585 78.7507 60.6186 79.558 60.6186C80.2071 60.6186 80.5726 60.2258 80.6763 59.6203H82.2419C82.171 60.9513 81.069 61.9169 79.5362 61.9169Z" fill="black"/>
<path d="M73.0748 61.9169C71.3292 61.9169 70.1509 60.7168 70.1509 58.9112C70.1509 57.1055 71.3292 55.8945 73.0748 55.8945C74.8258 55.8945 76.0041 57.1055 76.0041 58.9112C76.0041 60.7168 74.8258 61.9169 73.0748 61.9169ZM73.0748 60.6131C73.8603 60.6131 74.384 59.9803 74.384 58.9112C74.384 57.8365 73.8548 57.1983 73.0748 57.1983C72.3002 57.1983 71.771 57.8365 71.771 58.9112C71.771 59.9803 72.2947 60.6131 73.0748 60.6131Z" fill="black"/>
<path d="M66.2896 61.7811V56.0206H67.8388V57.0025H67.8551C68.0679 56.3097 68.5043 55.9824 69.2625 55.9824C69.448 55.9824 69.6062 55.9879 69.7371 55.9933V57.3625C69.6171 57.3571 69.3171 57.3353 69.0443 57.3353C68.3843 57.3353 67.8988 57.7935 67.8988 58.6608V61.7811H66.2896Z" fill="black"/>
<path d="M59.3228 61.7979V53.6699H62.5303C64.3577 53.6699 65.5033 54.7009 65.5033 56.3374C65.5033 57.9739 64.3359 59.0049 62.5085 59.0049H61.0029V61.7979H59.3228ZM61.0029 57.5975H62.4212C63.3104 57.5975 63.8613 57.112 63.8613 56.3374C63.8613 55.5628 63.3104 55.0773 62.4212 55.0773H61.0029V57.5975Z" fill="black"/>
<path d="M29.6535 45.0043H34.4189C34.5551 45.8627 34.6892 46.7037 34.8211 47.5469C34.8816 47.9468 34.9422 48.3468 34.9854 48.7468C35.007 48.9608 35.0935 49.0603 35.3097 49.11C36.8406 49.4668 38.2719 50.0635 39.5973 50.9153C39.6687 50.9607 39.8352 50.9413 39.9109 50.8851C40.8622 50.1824 41.8114 49.4776 42.7411 48.749C42.9725 48.5674 43.0849 48.5998 43.2774 48.7965C44.3022 49.8494 45.3422 50.8872 46.4277 51.9812C46.0125 52.5455 45.5909 53.1163 45.1693 53.687C44.8212 54.1562 44.4666 54.621 44.1336 55.101C44.0795 55.1788 44.0774 55.3475 44.1271 55.4296C44.9379 56.7788 45.5477 58.2079 45.9023 59.7451C45.926 59.851 46.099 59.9786 46.2179 59.9959C47.3725 60.1796 48.5315 60.3461 49.6904 60.5104C49.8699 60.5364 50.0147 60.5385 50.0126 60.7893C50.0039 62.3136 50.0082 63.8378 50.0082 65.4074C49.4223 65.4982 48.8471 65.589 48.272 65.6755C47.565 65.7836 46.8579 65.8852 46.1531 66.0041C46.0644 66.0193 45.9455 66.1231 45.9239 66.2052C45.5498 67.7338 44.9768 69.1802 44.1336 70.5098C43.9801 70.752 44.1358 70.873 44.2417 71.0157C44.8925 71.8957 45.552 72.767 46.2071 73.6426C46.2914 73.755 46.3714 73.8718 46.5077 74.0642C45.5217 75.0241 44.5466 75.9754 43.5693 76.9246C43.2017 77.282 42.8075 77.3044 42.3865 76.9916C41.606 76.4057 40.8233 75.8263 40.0536 75.2252C39.8482 75.0652 39.6925 75.0371 39.4654 75.1776C38.1833 75.9689 36.8081 76.5397 35.3378 76.8705C35.0697 76.9311 35.0243 77.0975 34.9919 77.3137C34.8405 78.358 34.6892 79.4001 34.5357 80.4422C34.5097 80.6216 34.4686 80.7989 34.4319 81H29.5821C29.4567 80.1525 29.3313 79.3158 29.2081 78.4791C29.1454 78.0531 29.1 77.6251 29.0113 77.2056C28.9854 77.0867 28.8491 76.9332 28.7367 76.9029C27.2405 76.5268 25.8264 75.9517 24.5075 75.1517C24.3129 75.0328 24.1875 75.0782 24.0232 75.2058C23.1259 75.8954 22.2156 76.5657 21.3226 77.2597C21.1085 77.4262 20.9788 77.4435 20.7756 77.2337C19.7247 76.1549 18.6566 75.0912 17.5691 73.9993C18.1355 73.2383 18.6999 72.4773 19.2664 71.7162C19.461 71.4546 19.6447 71.1844 19.8523 70.9357C19.995 70.7628 19.9691 70.6374 19.8566 70.4579C19.048 69.165 18.501 67.7619 18.1334 66.2874C18.0837 66.0885 18.0101 66.0193 17.8069 65.989C16.5961 65.8204 15.3896 65.6323 14.1809 65.4485C14.1312 65.442 14.0836 65.4226 14.0079 65.4009C14.0079 64.0799 13.9863 62.7654 14.0144 61.4531C14.0361 60.4693 14.0685 60.4888 15.1042 60.3677C16.008 60.2618 16.9074 60.1169 17.8047 59.9677C17.9258 59.9483 18.0966 59.8186 18.1226 59.7126C18.4815 58.2316 19.0458 56.8393 19.8393 55.5421C19.995 55.2869 19.9345 55.1205 19.781 54.9194C19.1539 54.0892 18.5334 53.2525 17.9128 52.4179C17.8047 52.2731 17.7139 52.1174 17.6296 51.9899C18.7691 50.8418 19.8869 49.7176 21.0415 48.5522C21.2707 48.7209 21.5302 48.9068 21.7853 49.0971C22.5442 49.6678 23.3032 50.2343 24.0534 50.8137C24.2199 50.9413 24.3302 50.9586 24.5248 50.8375C25.8005 50.0332 27.1886 49.4862 28.6437 49.1187C28.9529 49.0408 29.0286 48.896 29.0675 48.6214C29.2189 47.5382 29.3875 46.4594 29.554 45.3784C29.5713 45.2638 29.6081 45.1535 29.6448 45L29.6535 45.0043ZM32.0189 68.7694C35.0762 68.7975 37.766 66.1922 37.7984 63.1697C37.8352 59.8813 35.3465 57.2912 32.1594 57.2133C29.02 57.1355 26.3086 59.6434 26.2589 62.9103C26.2113 66.1079 28.8102 68.7391 32.0211 68.7694H32.0189Z" fill="url(#paint0_linear_222_12803)"/>
<path d="M32.0262 71.7124C27.2175 71.7124 23.3062 67.8013 23.3062 62.9929C23.3062 58.1846 27.2175 54.2734 32.0262 54.2734C36.8349 54.2734 40.7463 58.1846 40.7463 62.9929C40.7463 67.8013 36.8349 71.7124 32.0262 71.7124ZM32.0262 55.5685C27.9332 55.5685 24.6035 58.898 24.6035 62.9907C24.6035 67.0835 27.9332 70.413 32.0262 70.413C36.1192 70.413 39.449 67.0835 39.449 62.9907C39.449 58.898 36.1192 55.5685 32.0262 55.5685Z" fill="url(#paint1_linear_222_12803)"/>
<path opacity="0.4" d="M32.0262 71.7035C27.2175 71.7035 23.3062 67.7924 23.3062 62.984C23.3062 61.4122 23.7235 59.9377 24.4543 58.6621C20.6813 65.5698 27.7213 75.1779 36.9668 70.1663C35.5614 71.1349 33.8597 71.7035 32.0262 71.7035Z" fill="#FFF1D7"/>
<defs>
<linearGradient id="paint0_linear_222_12803" x1="43.126" y1="49.6592" x2="20.1915" y2="77.4169" gradientUnits="userSpaceOnUse">
<stop stop-color="#FFC85E"/>
<stop offset="0.99" stop-color="#D78E00"/>
</linearGradient>
<linearGradient id="paint1_linear_222_12803" x1="24.5571" y1="69.4394" x2="39.8302" y2="56.2018" gradientUnits="userSpaceOnUse">
<stop offset="0.0973426" stop-color="#FFC85E"/>
<stop offset="0.99" stop-color="#D88E00"/>
</linearGradient>
</defs>
</svg>
