<svg width="128" height="128" viewBox="0 0 128 128" fill="none" xmlns="http://www.w3.org/2000/svg">
<path d="M2 40.2969C2 37.9238 3.92378 36 6.29688 36H121.384C123.757 36 125.681 37.9238 125.681 40.2969V86.7031C125.681 89.0762 123.757 91 121.384 91H6.29688C3.92378 91 2 89.0762 2 86.7031V40.2969Z" fill="white"/>
<path d="M121.384 89.2813V91H6.29688V89.2813H121.384ZM123.963 86.7031V40.2969C123.963 38.873 122.808 37.7188 121.384 37.7188H6.29688C4.87302 37.7188 3.71875 38.873 3.71875 40.2969V86.7031C3.71875 88.127 4.87302 89.2812 6.29688 89.2813V91C3.99781 91 2.12077 89.1944 2.00587 86.9238L2 86.7031V40.2969C2 37.9238 3.92378 36 6.29688 36H121.384L121.605 36.0059C123.876 36.1208 125.681 37.9978 125.681 40.2969V86.7031C125.681 89.0022 123.876 90.8792 121.605 90.9941L121.384 91V89.2813C122.808 89.2813 123.963 88.127 123.963 86.7031Z" fill="#BFD4E8"/>
<path d="M105.858 71.4753V74.6774H104.249V68.9169H105.831V69.8224C106.218 69.1678 106.802 68.7969 107.631 68.7969C108.859 68.7969 109.649 69.6151 109.649 71.0716V74.6774H108.046V71.3662C108.046 70.5916 107.658 70.1824 106.987 70.1824C106.322 70.1824 105.858 70.5807 105.858 71.4753Z" fill="black"/>
<path d="M100.43 74.8075C98.6846 74.8075 97.5063 73.6074 97.5063 71.8018C97.5063 69.9962 98.6846 68.7852 100.43 68.7852C102.181 68.7852 103.36 69.9962 103.36 71.8018C103.36 73.6074 102.181 74.8075 100.43 74.8075ZM100.43 73.5037C101.216 73.5037 101.739 72.871 101.739 71.8018C101.739 70.7271 101.21 70.0889 100.43 70.0889C99.6556 70.0889 99.1265 70.7271 99.1265 71.8018C99.1265 72.871 99.6502 73.5037 100.43 73.5037Z" fill="black"/>
<path d="M95.0052 74.654V68.8935H96.6144V74.654H95.0052ZM95.8071 68.168C95.2779 68.168 94.8906 67.8025 94.8906 67.3115C94.8906 66.8206 95.2779 66.4551 95.8071 66.4551C96.3362 66.4551 96.7235 66.8206 96.7235 67.3115C96.7235 67.8025 96.3362 68.168 95.8071 68.168Z" fill="black"/>
<path d="M94.1939 68.905V70.1651H93.0156V72.8872C93.0156 73.28 93.1411 73.4054 93.5775 73.4054H94.1939V74.6655H93.2556C91.9901 74.6655 91.4064 74.1855 91.4064 73.1381V70.1651H90.4136V68.905H91.4064V67.334H93.0156V68.905H94.1939Z" fill="black"/>
<path d="M86.3573 74.8043C85.1299 74.8043 84.3335 73.9861 84.3335 72.5296V68.9238H85.9427V72.235C85.9427 73.0096 86.33 73.4188 87.001 73.4188C87.6665 73.4188 88.1302 73.0205 88.1302 72.1259V68.9238H89.734V74.6843H88.1575V73.7788C87.7702 74.4334 87.1865 74.8043 86.3573 74.8043Z" fill="black"/>
<path d="M80.771 74.8075C79.0363 74.8075 77.8799 73.5856 77.8799 71.8018C77.8799 70.018 79.0418 68.7852 80.771 68.7852C82.2875 68.7852 83.3731 69.7289 83.4767 71.0708H81.9221C81.8402 70.4817 81.4366 70.0835 80.7929 70.0835C79.9801 70.0835 79.5 70.749 79.5 71.8018C79.5 72.8491 79.9855 73.5092 80.7929 73.5092C81.442 73.5092 81.8075 73.1164 81.9111 72.5109H83.4767C83.4058 73.842 82.3039 74.8075 80.771 74.8075Z" fill="black"/>
<path d="M74.4813 74.8075C72.7357 74.8075 71.6011 73.5528 71.6011 71.8018C71.6011 70.0453 72.7739 68.7852 74.4268 68.7852C76.1233 68.7852 77.2634 70.0125 77.2634 71.7691V72.2H73.1667C73.1939 73.051 73.6849 73.6019 74.5304 73.6019C75.1577 73.6019 75.5887 73.3128 75.736 72.8655H77.2034C76.9906 74.0111 75.8778 74.8075 74.4813 74.8075ZM73.1776 71.1745H75.7469C75.6651 70.4544 75.185 70.0071 74.4595 70.0071C73.7394 70.0071 73.2649 70.4544 73.1776 71.1745Z" fill="black"/>
<path d="M65.5806 74.6843L67.6426 71.7495L65.7224 68.9238H67.4789L67.9862 69.7312C68.1826 70.0639 68.3626 70.3749 68.5426 70.6858C68.7227 70.3749 68.9027 70.0639 69.11 69.7312L69.6282 68.9238H71.3574L69.4154 71.7113L71.4502 74.6843H69.6882L69.11 73.8006C68.9027 73.4515 68.7117 73.1351 68.5263 72.8133C68.3299 73.1351 68.139 73.4515 67.9262 73.8006L67.3371 74.6843H65.5806Z" fill="black"/>
<path d="M59.3228 74.6885V66.5605H65.1542V68.0007H61.0029V69.8827H64.8432V71.2846H61.0029V73.2484H65.1542V74.6885H59.3228Z" fill="black"/>
<path d="M97.585 61.9286C96.0903 61.9286 95.0157 61.214 94.9175 59.9757H96.4994C96.5594 60.4776 96.9304 60.7776 97.5577 60.7776C98.1523 60.7776 98.5178 60.5266 98.5178 60.1721C98.5178 59.8666 98.2396 59.6866 97.7705 59.5938L96.7613 59.3975C95.643 59.1793 95.0484 58.6119 95.0484 57.7173C95.0484 56.6263 95.9921 55.9062 97.4922 55.9062C98.9815 55.9062 99.9634 56.6536 99.9961 57.8537H98.5069C98.496 57.39 98.1032 57.0463 97.5359 57.0463C96.9849 57.0463 96.6522 57.3136 96.6522 57.6573C96.6522 57.9519 96.9086 58.1428 97.3504 58.2355L98.4414 58.4483C99.6033 58.6774 100.138 59.1793 100.138 60.0248C100.138 61.1758 99.0906 61.9286 97.585 61.9286Z" fill="black"/>
<path d="M91.7735 61.9286C90.2788 61.9286 89.2041 61.214 89.106 59.9757H90.6879C90.7479 60.4776 91.1189 60.7776 91.7462 60.7776C92.3408 60.7776 92.7063 60.5266 92.7063 60.1721C92.7063 59.8666 92.4281 59.6866 91.9589 59.5938L90.9498 59.3975C89.8315 59.1793 89.2369 58.6119 89.2369 57.7173C89.2369 56.6263 90.1806 55.9062 91.6807 55.9062C93.1699 55.9062 94.1518 56.6536 94.1846 57.8537H92.6954C92.6844 57.39 92.2917 57.0463 91.7244 57.0463C91.1734 57.0463 90.8407 57.3136 90.8407 57.6573C90.8407 57.9519 91.097 58.1428 91.5389 58.2355L92.6299 58.4483C93.7918 58.6774 94.3264 59.1793 94.3264 60.0248C94.3264 61.1758 93.279 61.9286 91.7735 61.9286Z" fill="black"/>
<path d="M85.7289 61.9169C83.9833 61.9169 82.8486 60.6622 82.8486 58.9112C82.8486 57.1546 84.0215 55.8945 85.6743 55.8945C87.3708 55.8945 88.5109 57.1219 88.5109 58.8784V59.3094H84.4142C84.4415 60.1604 84.9324 60.7113 85.778 60.7113C86.4053 60.7113 86.8363 60.4222 86.9835 59.9749H88.4509C88.2382 61.1204 87.1254 61.9169 85.7289 61.9169ZM84.4251 58.2838H86.9944C86.9126 57.5638 86.4326 57.1165 85.7071 57.1165C84.987 57.1165 84.5124 57.5638 84.4251 58.2838Z" fill="black"/>
<path d="M79.5362 61.9169C77.8015 61.9169 76.645 60.6949 76.645 58.9112C76.645 57.1274 77.8069 55.8945 79.5362 55.8945C81.0527 55.8945 82.1382 56.8382 82.2419 58.1802H80.6872C80.6054 57.591 80.2017 57.1928 79.558 57.1928C78.7452 57.1928 78.2652 57.8583 78.2652 58.9112C78.2652 59.9585 78.7507 60.6186 79.558 60.6186C80.2071 60.6186 80.5726 60.2258 80.6763 59.6203H82.2419C82.171 60.9513 81.069 61.9169 79.5362 61.9169Z" fill="black"/>
<path d="M73.0748 61.9169C71.3292 61.9169 70.1509 60.7168 70.1509 58.9112C70.1509 57.1055 71.3292 55.8945 73.0748 55.8945C74.8258 55.8945 76.0041 57.1055 76.0041 58.9112C76.0041 60.7168 74.8258 61.9169 73.0748 61.9169ZM73.0748 60.6131C73.8603 60.6131 74.384 59.9803 74.384 58.9112C74.384 57.8365 73.8548 57.1983 73.0748 57.1983C72.3002 57.1983 71.771 57.8365 71.771 58.9112C71.771 59.9803 72.2947 60.6131 73.0748 60.6131Z" fill="black"/>
<path d="M66.2896 61.7811V56.0206H67.8388V57.0025H67.8551C68.0679 56.3097 68.5043 55.9824 69.2625 55.9824C69.448 55.9824 69.6062 55.9879 69.7371 55.9933V57.3625C69.6171 57.3571 69.3171 57.3353 69.0443 57.3353C68.3843 57.3353 67.8988 57.7935 67.8988 58.6608V61.7811H66.2896Z" fill="black"/>
<path d="M59.3228 61.7979V53.6699H62.5303C64.3577 53.6699 65.5033 54.7009 65.5033 56.3374C65.5033 57.9739 64.3359 59.0049 62.5085 59.0049H61.0029V61.7979H59.3228ZM61.0029 57.5975H62.4212C63.3104 57.5975 63.8613 57.112 63.8613 56.3374C63.8613 55.5628 63.3104 55.0773 62.4212 55.0773H61.0029V57.5975Z" fill="black"/>
<path d="M49.482 61.6409C49.482 61.3939 49.3415 61.3918 49.1648 61.3662C48.0237 61.2044 46.8826 61.0426 45.7458 60.8595C45.6287 60.8404 45.4584 60.7148 45.435 60.6126C45.0858 59.0989 44.4855 57.6917 43.6871 56.3633C43.6382 56.2824 43.6403 56.1142 43.6935 56.0397C44.0214 55.5671 44.3705 55.1093 44.7133 54.6474C45.1284 54.0853 45.5436 53.5233 45.9523 52.9677C44.8836 51.8904 43.8596 50.8686 42.8505 49.8318C42.661 49.638 42.5503 49.6061 42.3225 49.7849C41.405 50.5024 40.4704 51.1964 39.5358 51.8883C39.4634 51.9415 39.2973 51.9628 39.2271 51.9181C37.9221 51.0793 36.5127 50.4939 35.0055 50.1405C34.7926 50.0915 34.7074 49.9936 34.6861 49.7828C34.6457 49.3868 34.5861 48.993 34.5243 48.6013C34.3966 47.771 34.2625 46.9428 34.1284 46.0977H29.4362C29.4001 46.2488 29.3639 46.3574 29.3468 46.4702C29.1829 47.5347 29.0169 48.597 28.8678 49.6636C28.8295 49.934 28.755 50.0766 28.4506 50.1532C27.0178 50.5173 25.6489 51.0538 24.395 51.8457C24.2055 51.9671 24.0948 51.95 23.9309 51.8223C23.1922 51.2518 22.4428 50.6919 21.6977 50.1319C21.4465 49.9425 21.191 49.7594 20.9653 49.5955C19.8264 50.7429 18.7278 51.85 17.6059 52.9804C17.6889 53.106 17.7805 53.2593 17.8848 53.402C18.4958 54.2258 19.1089 55.0476 19.7242 55.8651C19.8732 56.0631 19.9349 56.227 19.7817 56.4782C19.0003 57.7556 18.4447 59.1287 18.0913 60.5849C18.0658 60.6914 17.8976 60.817 17.7784 60.8361C16.8949 60.983 16.0092 61.1257 15.1194 61.23C14.0996 61.3492 14.0677 61.33 14.0464 62.2987C14.0166 63.5909 14.04 64.8853 14.04 66.1861C14.1145 66.2074 14.1613 66.2265 14.2103 66.2329C15.4004 66.4117 16.5883 66.597 17.7805 66.7651C17.9806 66.7928 18.053 66.8609 18.1019 67.0589C18.4639 68.5109 19.0025 69.8947 19.7987 71.1656C19.9094 71.3444 19.9349 71.4679 19.7944 71.6361C19.5901 71.8809 19.4091 72.147 19.2175 72.4046C18.6619 73.154 18.1041 73.9034 17.5463 74.6528C18.615 75.7279 19.6667 76.7753 20.7035 77.8376C20.9036 78.042 21.0292 78.0271 21.2421 77.8632C22.1213 77.1798 23.0176 76.5198 23.9011 75.8407C24.0629 75.7172 24.1842 75.6725 24.378 75.7875C25.6766 76.5752 27.0689 77.1415 28.5421 77.5119C28.6528 77.5396 28.7891 77.6929 28.8125 77.81C28.8998 78.223 28.9445 78.6445 29.0062 79.0639C29.1276 79.8878 29.251 80.7095 29.3745 81.5462H34.1496C34.188 81.3482 34.2263 81.1736 34.2518 80.9969C34.403 79.9708 34.5541 78.9425 34.701 77.9164C34.7308 77.7056 34.7777 77.5396 35.0417 77.48C36.4893 77.1542 37.8433 76.5922 39.1057 75.813C39.3271 75.6768 39.4826 75.7023 39.6848 75.8599C40.4406 76.4517 41.2134 77.0223 41.9819 77.5992C42.3949 77.9086 42.7831 77.8866 43.1464 77.5332C44.1087 76.5965 45.0709 75.6598 46.0396 74.7166C45.9055 74.5272 45.8267 74.4122 45.7437 74.3015C45.0986 73.4393 44.4493 72.5792 43.8085 71.7149C43.7042 71.5744 43.5509 71.4551 43.702 71.2167C44.5323 69.9074 45.0965 68.4832 45.4648 66.978C45.4839 66.8971 45.6032 66.795 45.6904 66.7801C46.3845 66.6608 47.0806 66.5629 47.7768 66.4565C48.3431 66.3692 48.9094 66.2819 49.4863 66.1925C49.4863 64.6469 49.482 63.146 49.4905 61.6451L49.482 61.6409ZM32.2549 68.332C29.5363 68.332 27.3308 66.1286 27.3308 63.4079C27.3308 60.6871 29.5342 58.4837 32.2549 58.4837C34.9757 58.4837 37.1791 60.6871 37.1791 63.4079C37.1791 66.1286 34.9757 68.332 32.2549 68.332Z" fill="#EDE8E4"/>
<path d="M30.0752 45.4574H34.7673C34.9014 46.3026 35.0334 47.1307 35.1633 47.961C35.2229 48.3548 35.2825 48.7487 35.3251 49.1425C35.3464 49.3533 35.4315 49.4512 35.6444 49.5002C37.1517 49.8515 38.561 50.439 39.866 51.2778C39.9363 51.3225 40.1002 51.3034 40.1747 51.248C41.1114 50.5561 42.046 49.8621 42.9615 49.1447C43.1892 48.9658 43.3 48.9978 43.4894 49.1915C44.4985 50.2283 45.5225 51.2502 46.5912 52.3274C46.1825 52.883 45.7674 53.4451 45.3522 54.0071C45.0095 54.4691 44.6603 54.9268 44.3325 55.3994C44.2792 55.4761 44.2771 55.6421 44.3261 55.723C45.1244 57.0514 45.7248 58.4587 46.0739 59.9723C46.0973 60.0766 46.2676 60.2022 46.3847 60.2193C47.5216 60.4002 48.6627 60.5642 49.8038 60.7259C49.9805 60.7515 50.1231 60.7536 50.121 61.0006C50.1125 62.5015 50.1167 64.0023 50.1167 65.5479C49.5398 65.6374 48.9735 65.7268 48.4072 65.8119C47.711 65.9184 47.0149 66.0184 46.3209 66.1355C46.2336 66.1504 46.1165 66.2526 46.0952 66.3335C45.7269 67.8386 45.1627 69.2629 44.3325 70.5722C44.1813 70.8106 44.3346 70.9298 44.4389 71.0703C45.0797 71.9368 45.729 72.7948 46.3741 73.657C46.4571 73.7677 46.5359 73.8826 46.67 74.0721C45.6992 75.0173 44.7391 75.9541 43.7768 76.8887C43.4149 77.2406 43.0267 77.2626 42.6123 76.9547C41.8438 76.3777 41.0731 75.8072 40.3152 75.2153C40.113 75.0578 39.9597 75.0301 39.7362 75.1685C38.4737 75.9477 37.1197 76.5097 35.6721 76.8354C35.4081 76.895 35.3634 77.059 35.3315 77.2719C35.1824 78.3001 35.0334 79.3263 34.8823 80.3524C34.8567 80.5291 34.8163 80.7037 34.7801 80.9017H30.0049C29.8815 80.0671 29.758 79.2432 29.6366 78.4194C29.5749 78 29.5302 77.5784 29.4429 77.1654C29.4174 77.0483 29.2832 76.8972 29.1725 76.8674C27.6993 76.4969 26.307 75.9307 25.0084 75.143C24.8168 75.0259 24.6933 75.0706 24.5315 75.1962C23.648 75.8753 22.7517 76.5353 21.8725 77.2186C21.6617 77.3826 21.534 77.3996 21.3339 77.1931C20.2992 76.1308 19.2476 75.0833 18.1767 74.0082C18.7345 73.2589 19.2901 72.5095 19.8479 71.7601C20.0395 71.5025 20.2205 71.2364 20.4249 70.9916C20.5654 70.8213 20.5398 70.6978 20.4291 70.5211C19.6329 69.248 19.0943 67.8663 18.7324 66.4144C18.6834 66.2185 18.611 66.1504 18.4109 66.1206C17.2187 65.9546 16.0308 65.7693 14.8407 65.5884C14.7918 65.582 14.7449 65.5628 14.6704 65.5416C14.6704 64.2408 14.6491 62.9464 14.6768 61.6542C14.6981 60.6855 14.73 60.7047 15.7498 60.5854C16.6397 60.4811 17.5253 60.3385 18.4088 60.1916C18.528 60.1724 18.6962 60.0447 18.7217 59.9404C19.0751 58.4821 19.6308 57.1111 20.4121 55.8337C20.5654 55.5825 20.5057 55.4186 20.3546 55.2206C19.7372 54.4031 19.1262 53.5792 18.5152 52.7574C18.4088 52.6148 18.3194 52.4615 18.2363 52.3359C19.3583 51.2054 20.4589 50.0984 21.5957 48.9509C21.8214 49.117 22.0769 49.3001 22.3281 49.4874C23.0753 50.0494 23.8226 50.6072 24.5613 51.1778C24.7252 51.3034 24.8338 51.3204 25.0254 51.2012C26.2815 50.4092 27.6482 49.8706 29.081 49.5087C29.3854 49.4321 29.4599 49.2894 29.4983 49.0191C29.6473 47.9525 29.8133 46.8901 29.9773 45.8257C29.9943 45.7129 30.0305 45.6043 30.0667 45.4531L30.0752 45.4574ZM32.4042 68.8584C35.4145 68.8861 38.0628 66.3207 38.0948 63.3445C38.131 60.1064 35.6806 57.556 32.5426 57.4794C29.4514 57.4027 26.7818 59.8723 26.7328 63.089C26.686 66.2377 29.2449 68.8286 32.4063 68.8584H32.4042Z" fill="url(#paint0_linear_220_12169)"/>
<path d="M32.4135 71.7539C27.6788 71.7539 23.8276 67.9026 23.8276 63.1679C23.8276 58.4332 27.6788 54.582 32.4135 54.582C37.1482 54.582 40.9994 58.4332 40.9994 63.1679C40.9994 67.9026 37.1482 71.7539 32.4135 71.7539ZM32.4135 55.8573C28.3835 55.8573 25.105 59.1358 25.105 63.1658C25.105 67.1958 28.3835 70.4744 32.4135 70.4744C36.4435 70.4744 39.722 67.1958 39.722 63.1658C39.722 59.1358 36.4435 55.8573 32.4135 55.8573Z" fill="url(#paint1_linear_220_12169)"/>
<path opacity="0.4" d="M32.4135 71.7654C27.6788 71.7654 23.8276 67.9142 23.8276 63.1795C23.8276 61.6318 24.2385 60.1799 24.9581 58.9238C21.2431 65.7257 28.1749 75.1866 37.2781 70.2518C35.8943 71.2055 34.2188 71.7654 32.4135 71.7654Z" fill="#FFF1D7"/>
<defs>
<linearGradient id="paint0_linear_220_12169" x1="43.3404" y1="50.0409" x2="20.7569" y2="77.3719" gradientUnits="userSpaceOnUse">
<stop stop-color="#A3C6FF"/>
<stop offset="0.99" stop-color="#1F68FF"/>
</linearGradient>
<linearGradient id="paint1_linear_220_12169" x1="25.0593" y1="69.5157" x2="40.0984" y2="56.4819" gradientUnits="userSpaceOnUse">
<stop offset="0.0973426" stop-color="#A3C6FF"/>
<stop offset="0.99" stop-color="#1F68FF"/>
</linearGradient>
</defs>
</svg>
