<svg width="128" height="128" viewBox="0 0 128 128" fill="none" xmlns="http://www.w3.org/2000/svg">
<path d="M3 52.5522C3 50.0381 5.03811 48 7.55224 48H120.448C122.962 48 125 50.0381 125 52.5522V76.2239C125 78.738 122.962 80.7761 120.448 80.7761H7.55224C5.03811 80.7761 3 78.738 3 76.2239V52.5522Z" fill="white"/>
<path d="M120.448 78.9552V80.7761H7.55224V78.9552H120.448ZM123.179 76.2239V52.5522C123.179 51.0438 121.956 49.8209 120.448 49.8209H7.55224C6.04376 49.8209 4.8209 51.0438 4.8209 52.5522V76.2239C4.8209 77.7324 6.04376 78.9552 7.55224 78.9552V80.7761C5.11654 80.7761 3.12794 78.8632 3.00622 76.4577L3 76.2239V52.5522C3 50.1165 4.91295 48.1279 7.3184 48.0062L7.55224 48H120.448L120.682 48.0062C123.087 48.1279 125 50.1165 125 52.5522V76.2239L124.994 76.4577C124.872 78.8632 122.883 80.7761 120.448 80.7761V78.9552C121.956 78.9552 123.179 77.7324 123.179 76.2239Z" fill="#BCD2E7"/>
<path d="M88.7405 70.0019C86.7613 70.0019 85.4419 68.6078 85.4419 66.5726C85.4419 64.5374 86.7676 63.1309 88.7405 63.1309C90.4707 63.1309 91.7092 64.2076 91.8275 65.7386H90.0537C89.9603 65.0664 89.4998 64.6121 88.7654 64.6121C87.838 64.6121 87.2904 65.3714 87.2904 66.5726C87.2904 67.7676 87.8443 68.5206 88.7654 68.5206C89.506 68.5206 89.923 68.0725 90.0413 67.3817H91.8275C91.7466 68.9003 90.4894 70.0019 88.7405 70.0019Z" fill="black"/>
<path d="M81.5703 70.0019C79.5787 70.0019 78.2842 68.5704 78.2842 66.5726C78.2842 64.5685 79.6223 63.1309 81.5081 63.1309C83.4437 63.1309 84.7444 64.5312 84.7444 66.5353V67.0269H80.0704C80.1015 67.9978 80.6617 68.6264 81.6263 68.6264C82.3421 68.6264 82.8338 68.2966 83.0018 67.7862H84.676C84.4333 69.0932 83.1636 70.0019 81.5703 70.0019ZM80.0828 65.8569H83.0142C82.9209 65.0353 82.3732 64.525 81.5454 64.525C80.7239 64.525 80.1824 65.0353 80.0828 65.8569Z" fill="black"/>
<path d="M71.4136 69.8516L73.7662 66.5032L71.5754 63.2793H73.5794L74.1583 64.2004C74.3823 64.5801 74.5877 64.9348 74.7931 65.2896C74.9985 64.9348 75.2038 64.5801 75.4403 64.2004L76.0316 63.2793H78.0045L75.7889 66.4596L78.1103 69.8516H76.1001L75.4403 68.8433C75.2038 68.445 74.986 68.084 74.7744 67.7168C74.5504 68.084 74.3325 68.445 74.0898 68.8433L73.4176 69.8516H71.4136Z" fill="black"/>
<path d="M64.2744 69.8496V60.5762H70.9276V62.2192H66.1913V64.3664H70.5729V65.966H66.1913V68.2065H70.9276V69.8496H64.2744Z" fill="black"/>
<path d="M57.3345 70.0019C55.3429 70.0019 54.0483 68.5704 54.0483 66.5726C54.0483 64.5685 55.3864 63.1309 57.2722 63.1309C59.2078 63.1309 60.5086 64.5312 60.5086 66.5353V67.0269H55.8346C55.8657 67.9978 56.4258 68.6264 57.3905 68.6264C58.1062 68.6264 58.5979 68.2966 58.766 67.7862H60.4401C60.1974 69.0932 58.9278 70.0019 57.3345 70.0019ZM55.847 65.8569H58.7784C58.685 65.0353 58.1374 64.525 57.3096 64.525C56.4881 64.525 55.9466 65.0353 55.847 65.8569Z" fill="black"/>
<path d="M49.2754 69.9865C47.5577 69.9865 46.4312 68.6173 46.4312 66.5572C46.4312 64.5407 47.5825 63.1404 49.263 63.1404C50.1156 63.1404 50.7753 63.4764 51.1986 64.186H51.2048V60.5762H53.0346V69.8496H51.2297V68.8413H51.2235C50.8438 69.6069 50.1405 69.9865 49.2754 69.9865ZM49.7484 68.4928C50.6758 68.4928 51.2919 67.7335 51.2919 66.5572C51.2919 65.3871 50.6758 64.6216 49.7484 64.6216C48.8584 64.6216 48.2796 65.3249 48.2796 66.5572C48.2796 67.7895 48.8584 68.4928 49.7484 68.4928Z" fill="black"/>
<path d="M42.3613 70.0019C40.3697 70.0019 39.0254 68.6327 39.0254 66.5726C39.0254 64.5125 40.3697 63.1309 42.3613 63.1309C44.3592 63.1309 45.7035 64.5125 45.7035 66.5726C45.7035 68.6327 44.3592 70.0019 42.3613 70.0019ZM42.3613 68.5144C43.2576 68.5144 43.855 67.7925 43.855 66.5726C43.855 65.3465 43.2513 64.6183 42.3613 64.6183C41.4776 64.6183 40.8738 65.3465 40.8738 66.5726C40.8738 67.7925 41.4713 68.5144 42.3613 68.5144Z" fill="black"/>
<path d="M34.2013 69.9979C31.6558 69.9979 29.7949 68.1619 29.7949 65.2181C29.7949 62.2556 31.6496 60.4258 34.2013 60.4258C36.3734 60.4258 37.9916 61.7701 38.2841 63.8426H36.3485C36.1307 62.7472 35.3278 62.1186 34.2262 62.1186C32.6516 62.1186 31.7243 63.3198 31.7243 65.2181C31.7243 67.1039 32.6454 68.3051 34.2262 68.3051C35.3216 68.3051 36.1183 67.6827 36.3548 66.5935H38.2841C37.9916 68.6598 36.3734 69.9979 34.2013 69.9979Z" fill="black"/>
<path d="M18.1549 59.834L18.3923 60.8876C18.7385 60.9504 19.0767 61.0536 19.3987 61.1943L20.2354 60.4635L20.9894 61.0094L21.2837 61.221L20.8507 62.2132C21.0922 62.4659 21.3033 62.7457 21.4801 63.0463L22.5942 62.9423L22.7053 63.2846L22.9934 64.1639L22.0545 64.7143C22.0816 64.9075 22.0958 65.1025 22.0972 65.2976L22.091 65.5278C22.087 65.6043 22.0811 65.681 22.0732 65.7572L23.0299 66.3183L22.9169 66.6597L22.7436 67.1967L22.6315 67.539L21.5504 67.4376C21.3805 67.7428 21.1758 68.0277 20.9396 68.2859L21.3832 69.303L20.3341 70.0579L19.5152 69.3439C19.198 69.4953 18.8635 69.6095 18.5194 69.6835L18.2749 70.7594H16.9795L16.7421 69.7067C16.3948 69.6436 16.0558 69.5406 15.7329 69.399L14.8963 70.129L14.6029 69.9165L13.8498 69.3732L14.2837 68.3837C14.0414 68.1308 13.8292 67.8502 13.6524 67.5488L12.541 67.6528L12.4299 67.3105L12.1418 66.4321L13.0798 65.8817C13.0301 65.5359 13.024 65.1853 13.0612 64.8379L12.1045 64.276L12.2174 63.9346L12.3917 63.3984L12.5046 63.0561L13.5857 63.1566C13.7557 62.8507 13.9602 62.5647 14.1966 62.3057L13.7529 61.2895L14.5078 60.7471L14.8012 60.5346L15.62 61.2494C15.9375 61.0979 16.2723 60.9845 16.6167 60.9107L16.8594 59.834H18.1549ZM16.9981 62.6907C16.7928 62.7347 16.5938 62.8033 16.4051 62.8934L15.9099 63.129L15.5418 63.5336C15.4006 63.6883 15.2784 63.8584 15.1773 64.0404L14.9292 64.4849L14.8714 65.0317C14.8504 65.2282 14.8539 65.4265 14.8821 65.6221L14.963 66.1831L15.2235 66.6277C15.3283 66.8064 15.4544 66.9732 15.5987 67.1238L15.9748 67.5168L16.4638 67.7311C16.6564 67.8155 16.8589 67.8774 17.0666 67.9151L17.617 68.0147L18.1371 67.9035C18.3427 67.8593 18.5421 67.7911 18.731 67.7008L19.2191 67.467L19.5961 67.0562C19.7369 66.9024 19.859 66.7331 19.9598 66.5521L20.2052 66.1093L20.2621 65.5696C20.271 65.4835 20.2758 65.3966 20.2763 65.31L20.2692 65.1384C20.265 65.0814 20.2594 65.0244 20.2514 64.9677L20.1732 64.4156L19.9109 63.9692C19.8054 63.79 19.6794 63.6226 19.5348 63.4713L19.156 63.0757L18.6688 62.8632C18.4765 62.7792 18.275 62.7168 18.0677 62.6791L17.5174 62.5787L16.9981 62.6907Z" fill="black"/>
<path d="M115.602 72.5834H109.603L106.091 67.4621H112.091L115.602 72.5834Z" fill="url(#paint0_linear_220_11560)"/>
<path d="M109.706 56.1953C112.559 56.1953 114.871 58.4882 114.871 61.3166C114.871 64.145 112.559 66.4378 109.706 66.4378H106.091V64.243H109.706C111.336 64.243 112.657 62.9328 112.657 61.3166C112.657 59.7004 111.336 58.3902 109.706 58.3901H106.091V56.1953H109.706Z" fill="url(#paint1_linear_220_11560)"/>
<path d="M105.068 72.5834H99.5073V67.4621H105.068V72.5834Z" fill="#006BFF"/>
<path fill-rule="evenodd" clip-rule="evenodd" d="M105.068 66.4378H99.5073V56.1953H105.068V66.4378ZM100.971 62.0482H103.604V60.585H100.971V62.0482Z" fill="#006BFF"/>
<defs>
<linearGradient id="paint0_linear_220_11560" x1="106.091" y1="66.511" x2="115.602" y2="66.4378" gradientUnits="userSpaceOnUse">
<stop stop-color="#049FFC"/>
<stop offset="1" stop-color="#19C9FF"/>
</linearGradient>
<linearGradient id="paint1_linear_220_11560" x1="106.091" y1="66.511" x2="115.602" y2="66.4378" gradientUnits="userSpaceOnUse">
<stop stop-color="#049FFC"/>
<stop offset="1" stop-color="#19C9FF"/>
</linearGradient>
</defs>
</svg>
