<svg width="128" height="128" viewBox="0 0 128 128" fill="none" xmlns="http://www.w3.org/2000/svg">
<path d="M14 43.9231C14 42.3087 15.3087 41 16.9231 41H57.8471C59.4615 41 60.7702 42.3087 60.7702 43.9231V84.8469C60.7702 86.4613 59.4615 87.77 57.8471 87.77H16.9231C15.3087 87.77 14 86.4613 14 84.8469V43.9231Z" fill="url(#paint0_linear_229_14473)"/>
<path d="M57.8471 86.3084V87.77H16.9231V86.3084H57.8471ZM59.3086 84.8469V43.9231C59.3086 43.1159 58.6543 42.4616 57.8471 42.4616H16.9231C16.1159 42.4616 15.4616 43.1159 15.4616 43.9231V84.8469C15.4616 85.6541 16.1159 86.3084 16.9231 86.3084V87.77L16.7726 87.7664C15.2281 87.6881 14 86.4108 14 84.8469V43.9231C14 42.3592 15.2281 41.0819 16.7726 41.0036L16.9231 41H57.8471C59.4615 41 60.7702 42.3087 60.7702 43.9231V84.8469C60.7702 86.4613 59.4615 87.77 57.8471 87.77V86.3084C58.6543 86.3084 59.3086 85.6541 59.3086 84.8469Z" fill="url(#paint1_linear_229_14473)"/>
<path d="M53.4917 80.3314H41.7692L34.9072 70.3243H46.6297L53.4917 80.3314Z" fill="url(#paint2_linear_229_14473)"/>
<path d="M41.971 48.3086C47.5442 48.3086 52.0621 52.789 52.0621 58.3157C52.0621 63.8425 47.5442 68.3228 41.971 68.3229H34.9072V64.0341H41.971C45.1557 64.0341 47.7374 61.4739 47.7374 58.3157C47.7374 55.1576 45.1557 52.5974 41.971 52.5974H34.9072V48.3086H41.971Z" fill="url(#paint3_linear_229_14473)"/>
<path d="M32.9033 80.3314H22.0386V70.3243H32.9033V80.3314Z" fill="#006BFF"/>
<path fill-rule="evenodd" clip-rule="evenodd" d="M32.9033 68.3229H22.0386V48.3086H32.9033V68.3229ZM24.8977 59.7453H30.0442V56.8861H24.8977V59.7453Z" fill="#006BFF"/>
<path d="M102.28 83.2854V81.9515H103.009C103.369 81.9515 103.469 81.8117 103.594 81.427L103.683 81.1872L101.655 75.9219H103.454L104.233 78.3497C104.348 78.7144 104.453 79.0841 104.558 79.4537C104.658 79.0841 104.768 78.7144 104.882 78.3497L105.677 75.9219H107.455L105.182 81.9415C104.822 82.8957 104.318 83.2854 103.434 83.2854H102.28Z" fill="black"/>
<path d="M101.188 75.9172V77.2461H100.104V79.4191C100.104 79.7588 100.209 79.8637 100.593 79.8637H101.188V81.1926H100.214C98.9497 81.1926 98.3802 80.733 98.3802 79.7089V77.2461H97.481V75.9172H98.3802V74.4785H100.104V75.9172H101.188Z" fill="black"/>
<path d="M95.128 81.1874V75.9121H96.8465V81.1874H95.128ZM95.9823 75.3975C95.4327 75.3975 95.0381 75.0328 95.0381 74.5283C95.0381 74.0237 95.4327 73.6641 95.9823 73.6641C96.5368 73.6641 96.9314 74.0237 96.9314 74.5283C96.9314 75.0328 96.5368 75.3975 95.9823 75.3975Z" fill="black"/>
<path d="M91.0225 81.1937V75.9184H92.686V76.8476H92.701C92.8908 76.1782 93.2855 75.8984 93.9898 75.8984C94.1747 75.8984 94.3196 75.9034 94.4594 75.9084V77.3272C94.3345 77.3222 94.0298 77.3122 93.78 77.3122C93.1656 77.3122 92.7409 77.7418 92.7409 78.4911V81.1937H91.0225Z" fill="black"/>
<path d="M86.6835 81.3121C85.5395 81.3121 84.8701 80.5378 84.8701 79.2389V75.9219H86.5886V78.8793C86.5886 79.5037 86.9033 79.8434 87.4478 79.8434C87.9924 79.8434 88.3421 79.5087 88.3421 78.7893V75.9219H90.0605V81.1972H88.362V80.343C88.0123 80.9474 87.4778 81.3121 86.6835 81.3121Z" fill="black"/>
<path d="M81.5616 81.312C79.928 81.312 78.834 80.198 78.834 78.5544C78.834 76.9159 79.928 75.7969 81.5616 75.7969C83.0303 75.7969 84.0744 76.6961 84.1493 77.9899H82.4908C82.4358 77.4854 82.1061 77.1607 81.5965 77.1607C80.9521 77.1607 80.5774 77.6902 80.5774 78.5544C80.5774 79.4187 80.9571 79.9482 81.5965 79.9482C82.1061 79.9482 82.4208 79.6185 82.4858 79.1039H84.1493C84.1143 80.3928 83.0553 81.312 81.5616 81.312Z" fill="black"/>
<path d="M75.6951 81.312C74.0766 81.312 72.9775 80.163 72.9775 78.5544C72.9775 76.9459 74.0866 75.7969 75.6502 75.7969C77.2338 75.7969 78.3278 76.9159 78.3278 78.5145V78.9791H74.6561C74.676 79.6485 75.0757 80.0731 75.7551 80.0731C76.2596 80.0731 76.6193 79.8533 76.7442 79.5036H78.2879C78.093 80.5676 77.029 81.312 75.6951 81.312ZM74.6661 77.95H76.7242C76.6493 77.3955 76.2696 77.0658 75.6951 77.0658C75.1157 77.0658 74.741 77.3955 74.6661 77.95Z" fill="black"/>
<path d="M69.3265 81.316C67.3432 81.316 66.2192 80.3818 66.2192 78.7383H67.9327C67.9577 79.4527 68.4822 79.8723 69.3415 79.8723C70.1008 79.8723 70.6054 79.5526 70.6054 79.063C70.6054 78.6384 70.2207 78.3936 69.3265 78.2088L68.5622 78.0539C67.1085 77.7542 66.3641 77.0348 66.3641 75.9508C66.3641 74.567 67.5431 73.6328 69.2915 73.6328C71.075 73.6328 72.169 74.547 72.214 76.0707H70.5504C70.5005 75.4562 70.0259 75.0765 69.3165 75.0765C68.6371 75.0765 68.1625 75.4012 68.1625 75.8658C68.1625 76.2705 68.5172 76.4953 69.3665 76.6701L70.0209 76.8C71.6694 77.1297 72.3838 77.7841 72.3838 78.9331C72.3838 80.4318 71.2448 81.316 69.3265 81.316Z" fill="black"/>
<path d="M103.831 68.8882C102.212 68.8882 101.113 67.7392 101.113 66.1306C101.113 64.522 102.222 63.373 103.786 63.373C105.37 63.373 106.464 64.4921 106.464 66.0906V66.5552H102.792C102.812 67.2246 103.211 67.6493 103.891 67.6493C104.395 67.6493 104.755 67.4295 104.88 67.0798H106.424C106.229 68.1438 105.165 68.8882 103.831 68.8882ZM102.802 65.5261H104.86C104.785 64.9716 104.405 64.6419 103.831 64.6419C103.251 64.6419 102.877 64.9716 102.802 65.5261Z" fill="black"/>
<path d="M92.103 68.7691V63.4938H93.7566V64.4829C94.0613 63.7286 94.6858 63.3789 95.3701 63.3789C96.0745 63.3789 96.684 63.7536 96.8988 64.443C97.1686 63.7536 97.838 63.3789 98.5923 63.3789C99.6314 63.3789 100.376 64.0833 100.376 65.2572V68.7691H98.6523V65.6369C98.6523 65.0774 98.3225 64.7727 97.858 64.7727C97.3684 64.7727 97.0587 65.1274 97.0587 65.6619V68.7691H95.4151V65.6169C95.4151 65.1024 95.1004 64.7727 94.6358 64.7727C94.1662 64.7727 93.8215 65.1124 93.8215 65.6969V68.7691H92.103Z" fill="black"/>
<path d="M89.4244 68.7636V63.4882H91.1429V68.7636H89.4244ZM90.2786 62.9737C89.7291 62.9737 89.3345 62.609 89.3345 62.1045C89.3345 61.5999 89.7291 61.2402 90.2786 61.2402C90.8332 61.2402 91.2278 61.5999 91.2278 62.1045C91.2278 62.609 90.8332 62.9737 90.2786 62.9737Z" fill="black"/>
<path d="M88.7307 63.4934V64.8222H87.6466V66.9953C87.6466 67.335 87.7515 67.4399 88.1362 67.4399H88.7307V68.7687H87.7565C86.4926 68.7687 85.9231 68.3091 85.9231 67.2851V64.8222H85.0239V63.4934H85.9231V62.0547H87.6466V63.4934H88.7307Z" fill="black"/>
<path d="M80.9739 65.9017V68.7691H79.2554V63.4938H80.9539V64.348C81.3036 63.7436 81.8381 63.3789 82.6324 63.3789C83.7764 63.3789 84.4458 64.1532 84.4458 65.4521V68.7691H82.7273V65.8118C82.7273 65.1873 82.4126 64.8476 81.8681 64.8476C81.3235 64.8476 80.9739 65.1823 80.9739 65.9017Z" fill="black"/>
<path d="M74.9125 68.8883C73.7685 68.8883 73.0991 68.114 73.0991 66.8151V63.498H74.8176V66.4554C74.8176 67.0799 75.1323 67.4196 75.6768 67.4196C76.2214 67.4196 76.5711 67.0849 76.5711 66.3655V63.498H78.2895V68.7734H76.591V67.9191C76.2414 68.5236 75.7068 68.8883 74.9125 68.8883Z" fill="black"/>
<path d="M66.3652 68.7676V61.3242H69.4325C71.156 61.3242 72.2401 62.2984 72.2401 63.842C72.2401 64.7961 71.7855 65.5255 71.0061 65.9301L72.4349 68.7676H70.5366L69.3226 66.2948H68.1636V68.7676H66.3652ZM68.1636 64.8811H69.3126C70.032 64.8811 70.4816 64.4714 70.4816 63.842C70.4816 63.2076 70.032 62.7979 69.3076 62.7979H68.1636V64.8811Z" fill="black"/>
<path d="M108.953 49.6155V48.7109H114.385V49.6155H112.191V55.6227H111.157V49.6155H108.953Z" fill="black"/>
<path d="M102.759 55.6227V48.7109H103.9L106.54 52.8904C106.62 53.0203 106.73 53.2043 106.869 53.4425C107.008 53.6806 107.148 53.9218 107.287 54.1661C107.277 53.9156 107.27 53.662 107.264 53.4054C107.26 53.1456 107.259 52.9523 107.259 52.8255V48.7109H108.293V55.6227H107.143L104.782 51.8885C104.686 51.7369 104.547 51.5112 104.364 51.2112C104.185 50.9082 103.981 50.5603 103.752 50.1675C103.767 50.5726 103.777 50.9221 103.78 51.2159C103.786 51.5066 103.789 51.7292 103.789 51.8838V55.6227H102.759Z" fill="black"/>
<path d="M97.3564 55.6227V48.7109H102.004V49.6155H98.3863V51.6519H101.735V52.5472H98.3863V54.7181H102.004V55.6227H97.3564Z" fill="black"/>
<path d="M92.3877 55.6227V48.7109H93.4175V54.7181H96.6878V55.6227H92.3877Z" fill="black"/>
<path d="M85.6201 55.6227L88.1297 48.7109H89.3729L91.8639 55.6227H90.746L90.1336 53.8275H87.3457L86.7149 55.6227H85.6201ZM87.6565 52.9508H89.8321L89.4146 51.7261C89.3219 51.4416 89.2229 51.137 89.1177 50.8123C89.0126 50.4876 88.892 50.101 88.7559 49.6526C88.6168 50.101 88.4946 50.4876 88.3895 50.8123C88.2843 51.137 88.1838 51.4416 88.0879 51.7261L87.6565 52.9508Z" fill="black"/>
<path d="M82.909 55.6227L80.3994 48.7109H81.5081L82.8765 52.6075C82.96 52.858 83.0559 53.1533 83.1641 53.4935C83.2724 53.8337 83.3992 54.231 83.5445 54.6856C83.6837 54.231 83.8058 53.8337 83.911 53.4935C84.0192 53.1533 84.1151 52.858 84.1986 52.6075L85.5299 48.7109H86.62L84.1475 55.6227H82.909Z" fill="black"/>
<path d="M77.3065 55.7301C76.6941 55.7301 76.1483 55.5801 75.669 55.2801C75.1896 54.9802 74.8124 54.5627 74.5371 54.0277C74.265 53.4927 74.1289 52.8726 74.1289 52.1675C74.1289 51.4594 74.265 50.8378 74.5371 50.3028C74.8124 49.7647 75.1896 49.3456 75.669 49.0457C76.1483 48.7457 76.6941 48.5957 77.3065 48.5957C77.9219 48.5957 78.4692 48.7457 78.9486 49.0457C79.4279 49.3456 79.8037 49.7647 80.0758 50.3028C80.351 50.8378 80.4887 51.4594 80.4887 52.1675C80.4887 52.8726 80.351 53.4927 80.0758 54.0277C79.8037 54.5627 79.4279 54.9802 78.9486 55.2801C78.4692 55.5801 77.9219 55.7301 77.3065 55.7301ZM77.3065 54.7884C77.7054 54.7884 78.0672 54.6879 78.3919 54.4869C78.7166 54.2828 78.9749 53.9859 79.1666 53.5963C79.3583 53.2035 79.4542 52.7273 79.4542 52.1675C79.4542 51.6047 79.3583 51.1269 79.1666 50.7342C78.9749 50.3414 78.7166 50.0445 78.3919 49.8435C78.0672 49.6394 77.7054 49.5374 77.3065 49.5374C76.9106 49.5374 76.5503 49.6394 76.2256 49.8435C75.9009 50.0445 75.6427 50.3414 75.451 50.7342C75.2592 51.1269 75.1634 51.6047 75.1634 52.1675C75.1634 52.7273 75.2592 53.2035 75.451 53.5963C75.6427 53.9859 75.9009 54.2828 76.2256 54.4869C76.5503 54.6879 76.9106 54.7884 77.3065 54.7884Z" fill="black"/>
<path d="M71.013 55.7301C70.1842 55.7301 69.5301 55.5214 69.0508 55.1039C68.5745 54.6833 68.3364 54.1081 68.3364 53.3783H69.3662C69.3693 53.8328 69.5147 54.1885 69.8023 54.4452C70.093 54.7018 70.4965 54.8302 71.013 54.8302C71.4831 54.8302 71.8588 54.7312 72.1402 54.5333C72.4247 54.3323 72.567 54.0632 72.567 53.7262C72.567 53.4602 72.4649 53.2453 72.2608 53.0814C72.0598 52.9144 71.7196 52.7737 71.2403 52.6592L70.4842 52.4783C69.7853 52.3113 69.275 52.0794 68.9534 51.7825C68.6349 51.4826 68.4756 51.0929 68.4756 50.6136C68.4756 50.2084 68.5776 49.8543 68.7817 49.5513C68.9859 49.2482 69.2719 49.0132 69.6399 48.8462C70.011 48.6792 70.444 48.5957 70.9388 48.5957C71.6841 48.5957 72.2763 48.7905 72.7154 49.1802C73.1577 49.5698 73.3896 50.1017 73.4112 50.7759H72.4139C72.3892 50.377 72.2438 50.0646 71.9779 49.8389C71.7119 49.61 71.3609 49.4956 70.9249 49.4956C70.5074 49.4956 70.1656 49.5961 69.8997 49.7971C69.6337 49.9951 69.5008 50.2502 69.5008 50.5625C69.5008 50.813 69.6028 51.0171 69.8069 51.1748C70.011 51.3295 70.3497 51.464 70.8228 51.5784L71.5696 51.7547C72.2624 51.9186 72.7726 52.1552 73.1004 52.4644C73.4313 52.7737 73.5968 53.1757 73.5968 53.6705C73.5968 54.0849 73.4901 54.4467 73.2767 54.756C73.0633 55.0652 72.7634 55.3049 72.3768 55.475C71.9902 55.6451 71.5356 55.7301 71.013 55.7301Z" fill="black"/>
<path d="M67.5449 48.7109V55.6227H66.5151V48.7109H67.5449Z" fill="black"/>
<defs>
<linearGradient id="paint0_linear_229_14473" x1="5.89065" y1="24.2156" x2="66.0504" y2="94.3709" gradientUnits="userSpaceOnUse">
<stop stop-color="white"/>
<stop offset="1" stop-color="#E7F3FF"/>
</linearGradient>
<linearGradient id="paint1_linear_229_14473" x1="14" y1="58.9184" x2="61.428" y2="66.8091" gradientUnits="userSpaceOnUse">
<stop stop-color="#37A8FF"/>
<stop offset="1" stop-color="#3071FF"/>
</linearGradient>
<linearGradient id="paint2_linear_229_14473" x1="34.9072" y1="68.4658" x2="53.4917" y2="68.3229" gradientUnits="userSpaceOnUse">
<stop stop-color="#049FFC"/>
<stop offset="1" stop-color="#19C9FF"/>
</linearGradient>
<linearGradient id="paint3_linear_229_14473" x1="34.9072" y1="68.4658" x2="53.4917" y2="68.3229" gradientUnits="userSpaceOnUse">
<stop stop-color="#049FFC"/>
<stop offset="1" stop-color="#19C9FF"/>
</linearGradient>
</defs>
</svg>
