<svg width="128" height="128" viewBox="0 0 128 128" fill="none" xmlns="http://www.w3.org/2000/svg">
<path d="M3 52.5833C3 50.052 5.03811 48 7.55224 48H120.448C122.962 48 125 50.052 125 52.5833V76.4167C125 78.948 122.962 81 120.448 81H7.55224C5.03811 81 3 78.948 3 76.4167V52.5833Z" fill="white"/>
<path d="M120.448 79.1667V81H7.55224V79.1667H120.448ZM123.179 76.4167V52.5833C123.179 51.0646 121.956 49.8333 120.448 49.8333H7.55224C6.04376 49.8333 4.8209 51.0646 4.8209 52.5833V76.4167C4.8209 77.9354 6.04376 79.1667 7.55224 79.1667V81C5.11654 81 3.12794 79.074 3.00622 76.6521L3 76.4167V52.5833C3 50.131 4.91295 48.1288 7.3184 48.0063L7.55224 48H120.448L120.682 48.0063C123.087 48.1288 125 50.131 125 52.5833V76.4167L124.994 76.6521C124.872 79.074 122.883 81 120.448 81V79.1667C121.956 79.1667 123.179 77.9355 123.179 76.4167Z" fill="#BCD2E7"/>
<path d="M84.3725 70.1602C82.6672 70.1602 81.4411 69.3393 81.3291 67.9168H83.134C83.2025 68.4933 83.6257 68.838 84.3414 68.838C85.0198 68.838 85.4368 68.5497 85.4368 68.1424C85.4368 67.7915 85.1194 67.5847 84.5841 67.4782L83.4327 67.2526C82.1569 67.002 81.4785 66.3503 81.4785 65.3226C81.4785 64.0693 82.5552 63.2422 84.2667 63.2422C85.9658 63.2422 87.0861 64.1007 87.1234 65.4792H85.4243C85.4119 64.9466 84.9638 64.5518 84.3165 64.5518C83.6879 64.5518 83.3083 64.8589 83.3083 65.2537C83.3083 65.592 83.6008 65.8114 84.1049 65.9179L85.3497 66.1623C86.6753 66.4255 87.2852 67.002 87.2852 67.9732C87.2852 69.2954 86.0903 70.1602 84.3725 70.1602Z" fill="black"/>
<path d="M80.3389 60.6641V70.0008H78.5029V60.6641H80.3389Z" fill="black"/>
<path d="M77.2022 60.6641V70.0008H75.3662V60.6641H77.2022Z" fill="black"/>
<path d="M70.3315 70.11C69.0183 70.11 68.0723 69.4521 68.0723 68.1299C68.0723 66.6385 69.2672 66.2124 70.6365 66.0871C71.8376 65.968 72.2609 65.9116 72.2609 65.4855V65.4417C72.2609 64.9529 71.8563 64.6145 71.1841 64.6145C70.4995 64.6145 70.0514 64.9654 70.0079 65.473H68.2839C68.3648 64.1069 69.4353 63.2422 71.2402 63.2422C73.0388 63.2422 74.072 64.0944 74.072 65.5106V69.9972H72.2795V69.0636H72.2546C71.9061 69.709 71.3397 70.11 70.3315 70.11ZM70.8418 68.8254C71.7256 68.8254 72.2733 68.2928 72.2733 67.5785V66.9142C72.0617 67.0333 71.5451 67.121 70.9539 67.215C70.3253 67.309 69.8274 67.5534 69.8274 68.0798C69.8274 68.5497 70.2257 68.8254 70.8418 68.8254Z" fill="black"/>
<path d="M63.2111 70.1512C60.6656 70.1512 58.8047 68.3027 58.8047 65.3387C58.8047 62.356 60.6594 60.5137 63.2111 60.5137C65.3832 60.5137 67.0014 61.8672 67.2939 63.9539H65.3583C65.1405 62.851 64.3376 62.2181 63.236 62.2181C61.6614 62.2181 60.7341 63.4275 60.7341 65.3387C60.7341 67.2374 61.6552 68.4468 63.236 68.4468C64.3314 68.4468 65.128 67.8201 65.3645 66.7236H67.2939C67.0014 68.804 65.3832 70.1512 63.2111 70.1512Z" fill="black"/>
<path d="M52.2517 70.1523C50.2726 70.1523 48.9531 68.7487 48.9531 66.6996C48.9531 64.6506 50.2788 63.2344 52.2517 63.2344C53.9819 63.2344 55.2205 64.3184 55.3387 65.8599H53.5649C53.4716 65.1832 53.011 64.7257 52.2766 64.7257C51.3493 64.7257 50.8016 65.4902 50.8016 66.6996C50.8016 67.9028 51.3555 68.661 52.2766 68.661C53.0172 68.661 53.4342 68.2098 53.5525 67.5142H55.3387C55.2578 69.0432 54.0006 70.1523 52.2517 70.1523Z" fill="black"/>
<path d="M43.606 66.3189V69.9972H41.77V63.38H43.5749V64.4202C44.0168 63.6683 44.6827 63.2422 45.6288 63.2422C47.0291 63.2422 47.9315 64.1821 47.9315 65.8552V69.9972H46.1018V66.1936C46.1018 65.3038 45.6599 64.8338 44.8943 64.8338C44.1351 64.8338 43.606 65.2913 43.606 66.3189Z" fill="black"/>
<path d="M36.6108 70.1359C35.2104 70.1359 34.3018 69.196 34.3018 67.5229V63.3809H36.1378V67.1845C36.1378 68.0743 36.5797 68.5443 37.3452 68.5443C38.1045 68.5443 38.6335 68.0868 38.6335 67.0592V63.3809H40.4633V69.998H38.6646V68.9578C38.2227 69.7098 37.5568 70.1359 36.6108 70.1359Z" fill="black"/>
<path d="M27.3628 70.0008V60.6641H33.8106V62.3184H29.2797V64.6118H33.4994V66.216H29.2797V70.0008H27.3628Z" fill="black"/>
<path d="M15.4393 64.9579C15.4393 65.8828 14.6894 66.6326 13.7643 66.6326C12.8393 66.6326 12.0894 65.8828 12.0894 64.9579C12.0894 64.033 12.8393 63.2832 13.7643 63.2832C14.6894 63.2832 15.4393 64.033 15.4393 64.9579Z" fill="black"/>
<path d="M20.8001 61.6083C20.8001 62.5332 20.0502 63.283 19.1252 63.283C18.2001 63.283 17.4502 62.5332 17.4502 61.6083C17.4502 60.6834 18.2001 59.9336 19.1252 59.9336C20.0502 59.9336 20.8001 60.6834 20.8001 61.6083Z" fill="black"/>
<path d="M20.8001 68.3095C20.8001 69.2344 20.0502 69.9842 19.1252 69.9842C18.2001 69.9842 17.4502 69.2344 17.4502 68.3095C17.4502 67.3846 18.2001 66.6348 19.1252 66.6348C20.0502 66.6348 20.8001 67.3846 20.8001 68.3095Z" fill="black"/>
<path d="M18.8834 61.2218C19.0974 61.0881 19.3797 61.1533 19.5134 61.3672C19.6468 61.5809 19.5816 61.8623 19.368 61.996L14.627 64.9572L19.368 67.9194C19.5819 68.0531 19.6471 68.3352 19.5134 68.5491C19.3797 68.7629 19.0974 68.8272 18.8834 68.6936L13.5232 65.3452C13.3897 65.2618 13.3082 65.1155 13.3081 64.9581C13.3081 64.8007 13.3896 64.6536 13.5232 64.5701L18.8834 61.2218Z" fill="black"/>
<path d="M115.428 73.4445H109.144L105.465 68.0804H111.749L115.428 73.4445Z" fill="url(#paint0_linear_220_11407)"/>
<path d="M109.252 56.2793C112.24 56.2793 114.661 58.6809 114.661 61.6434C114.661 64.606 112.24 67.0076 109.252 67.0076H105.465V64.7087H109.252C110.959 64.7086 112.343 63.3363 112.343 61.6434C112.343 59.9506 110.959 58.5782 109.252 58.5782H105.465V56.2793H109.252Z" fill="url(#paint1_linear_220_11407)"/>
<path d="M104.393 73.4445H98.5688V68.0804H104.393V73.4445Z" fill="#006BFF"/>
<path fill-rule="evenodd" clip-rule="evenodd" d="M104.393 67.0076H98.5688V56.2793H104.393V67.0076ZM100.102 62.4097H102.86V60.8771H100.102V62.4097Z" fill="#006BFF"/>
<defs>
<linearGradient id="paint0_linear_220_11407" x1="105.465" y1="67.0842" x2="115.428" y2="67.0076" gradientUnits="userSpaceOnUse">
<stop stop-color="#049FFC"/>
<stop offset="1" stop-color="#19C9FF"/>
</linearGradient>
<linearGradient id="paint1_linear_220_11407" x1="105.465" y1="67.0842" x2="115.428" y2="67.0076" gradientUnits="userSpaceOnUse">
<stop stop-color="#049FFC"/>
<stop offset="1" stop-color="#19C9FF"/>
</linearGradient>
</defs>
</svg>
