<svg width="128" height="128" viewBox="0 0 128 128" fill="none" xmlns="http://www.w3.org/2000/svg">
<path d="M5 9C5 6.79086 6.79086 5 9 5H65C67.2091 5 69 6.79086 69 9V65C69 67.2091 67.2091 69 65 69H9C6.79086 69 5 67.2091 5 65V9Z" fill="url(#paint0_linear_229_14248)"/>
<path d="M65 67V69H9V67H65ZM67 65V9C67 7.89543 66.1046 7 65 7H9C7.89543 7 7 7.89543 7 9V65C7 66.1046 7.89543 67 9 67V69L8.79395 68.9951C6.68056 68.8879 5 67.14 5 65V9C5 6.85996 6.68056 5.11211 8.79395 5.00488L9 5H65C67.2091 5 69 6.79086 69 9V65C69 67.2091 67.2091 69 65 69V67C66.1046 67 67 66.1046 67 65Z" fill="url(#paint1_linear_229_14248)"/>
<path d="M59.0377 58.82H42.9968L33.6069 45.1262H49.6479L59.0377 58.82Z" fill="url(#paint2_linear_229_14248)"/>
<path d="M43.273 15C50.8992 15 57.0815 21.1309 57.0815 28.6938C57.0815 36.2566 50.8992 42.3875 43.273 42.3875H33.6069V36.5187H43.273C47.6308 36.5187 51.1636 33.0154 51.1636 28.6938C51.1636 24.3721 47.6308 20.8688 43.273 20.8688H33.6069V15H43.273Z" fill="url(#paint3_linear_229_14248)"/>
<path d="M30.8672 58.82H16V45.1262H30.8672V58.82Z" fill="#006BFF"/>
<path fill-rule="evenodd" clip-rule="evenodd" d="M30.8672 42.3875H16V15H30.8672V42.3875ZM19.9124 30.65H26.9548V26.7375H19.9124V30.65Z" fill="#006BFF"/>
<path d="M54.7998 126.857V125.032H55.7979C56.29 125.032 56.4268 124.841 56.5977 124.314L56.7207 123.986L53.9453 116.781H56.4062L57.4727 120.104C57.6299 120.603 57.7734 121.108 57.917 121.614C58.0537 121.108 58.2041 120.603 58.3613 120.104L59.4482 116.781H61.8818L58.7715 125.019C58.2793 126.324 57.5889 126.857 56.3789 126.857H54.7998Z" fill="black"/>
<path d="M53.3096 116.781V118.6H51.8262V121.573C51.8262 122.038 51.9697 122.182 52.4961 122.182H53.3096V124H51.9766C50.2471 124 49.4678 123.371 49.4678 121.97V118.6H48.2373V116.781H49.4678V114.812H51.8262V116.781H53.3096Z" fill="black"/>
<path d="M45.0176 124V116.781H47.3691V124H45.0176ZM46.1865 116.077C45.4346 116.077 44.8945 115.578 44.8945 114.888C44.8945 114.197 45.4346 113.705 46.1865 113.705C46.9453 113.705 47.4854 114.197 47.4854 114.888C47.4854 115.578 46.9453 116.077 46.1865 116.077Z" fill="black"/>
<path d="M39.3984 124V116.781H41.6748V118.053H41.6953C41.9551 117.137 42.4951 116.754 43.459 116.754C43.7119 116.754 43.9102 116.761 44.1016 116.768V118.709C43.9307 118.702 43.5137 118.688 43.1719 118.688C42.3311 118.688 41.75 119.276 41.75 120.302V124H39.3984Z" fill="black"/>
<path d="M33.458 124.157C31.8926 124.157 30.9766 123.098 30.9766 121.32V116.781H33.3281V120.828C33.3281 121.683 33.7588 122.147 34.5039 122.147C35.249 122.147 35.7275 121.689 35.7275 120.705V116.781H38.0791V124H35.7549V122.831C35.2764 123.658 34.5449 124.157 33.458 124.157Z" fill="black"/>
<path d="M26.4512 124.164C24.2158 124.164 22.7188 122.64 22.7188 120.391C22.7188 118.148 24.2158 116.617 26.4512 116.617C28.4609 116.617 29.8896 117.848 29.9922 119.618H27.7227C27.6475 118.928 27.1963 118.483 26.499 118.483C25.6172 118.483 25.1045 119.208 25.1045 120.391C25.1045 121.573 25.624 122.298 26.499 122.298C27.1963 122.298 27.627 121.847 27.7158 121.143H29.9922C29.9443 122.906 28.4951 124.164 26.4512 124.164Z" fill="black"/>
<path d="M18.4258 124.164C16.2109 124.164 14.707 122.592 14.707 120.391C14.707 118.189 16.2246 116.617 18.3643 116.617C20.5312 116.617 22.0283 118.148 22.0283 120.336V120.972H17.0039C17.0312 121.888 17.5781 122.469 18.5078 122.469C19.1982 122.469 19.6904 122.168 19.8613 121.689H21.9736C21.707 123.146 20.251 124.164 18.4258 124.164ZM17.0176 119.563H19.834C19.7314 118.805 19.2119 118.354 18.4258 118.354C17.6328 118.354 17.1201 118.805 17.0176 119.563Z" fill="black"/>
<path d="M9.70996 124.164C6.99609 124.164 5.45801 122.886 5.45801 120.637H7.80273C7.83691 121.614 8.55469 122.188 9.73047 122.188C10.7695 122.188 11.46 121.751 11.46 121.081C11.46 120.5 10.9336 120.165 9.70996 119.912L8.66406 119.7C6.6748 119.29 5.65625 118.306 5.65625 116.822C5.65625 114.929 7.26953 113.65 9.66211 113.65C12.1025 113.65 13.5996 114.901 13.6611 116.986H11.3848C11.3164 116.146 10.667 115.626 9.69629 115.626C8.7666 115.626 8.11719 116.07 8.11719 116.706C8.11719 117.26 8.60254 117.567 9.76465 117.807L10.6602 117.984C12.916 118.436 13.8936 119.331 13.8936 120.903C13.8936 122.954 12.335 124.164 9.70996 124.164Z" fill="black"/>
<path d="M56.9258 107.164C54.7109 107.164 53.207 105.592 53.207 103.391C53.207 101.189 54.7246 99.6172 56.8643 99.6172C59.0312 99.6172 60.5283 101.148 60.5283 103.336V103.972H55.5039C55.5312 104.888 56.0781 105.469 57.0078 105.469C57.6982 105.469 58.1904 105.168 58.3613 104.689H60.4736C60.207 106.146 58.751 107.164 56.9258 107.164ZM55.5176 102.563H58.334C58.2314 101.805 57.7119 101.354 56.9258 101.354C56.1328 101.354 55.6201 101.805 55.5176 102.563Z" fill="black"/>
<path d="M40.875 107.001V99.7822H43.1377V101.136C43.5547 100.104 44.4092 99.625 45.3457 99.625C46.3096 99.625 47.1436 100.138 47.4375 101.081C47.8066 100.138 48.7227 99.625 49.7549 99.625C51.1768 99.625 52.1953 100.589 52.1953 102.195V107.001H49.8369V102.715C49.8369 101.949 49.3857 101.532 48.75 101.532C48.0801 101.532 47.6562 102.018 47.6562 102.749V107.001H45.4072V102.688C45.4072 101.983 44.9766 101.532 44.3408 101.532C43.6982 101.532 43.2266 101.997 43.2266 102.797V107.001H40.875Z" fill="black"/>
<path d="M37.2109 107V99.7812H39.5625V107H37.2109ZM38.3799 99.0771C37.6279 99.0771 37.0879 98.5781 37.0879 97.8877C37.0879 97.1973 37.6279 96.7051 38.3799 96.7051C39.1387 96.7051 39.6787 97.1973 39.6787 97.8877C39.6787 98.5781 39.1387 99.0771 38.3799 99.0771Z" fill="black"/>
<path d="M36.2607 99.7812V101.6H34.7773V104.573C34.7773 105.038 34.9209 105.182 35.4473 105.182H36.2607V107H34.9277C33.1982 107 32.4189 106.371 32.4189 104.97V101.6H31.1885V99.7812H32.4189V97.8125H34.7773V99.7812H36.2607Z" fill="black"/>
<path d="M25.6445 103.077V107.001H23.293V99.7822H25.6172V100.951C26.0957 100.124 26.8271 99.625 27.9141 99.625C29.4795 99.625 30.3955 100.685 30.3955 102.462V107.001H28.0439V102.954C28.0439 102.1 27.6133 101.635 26.8682 101.635C26.123 101.635 25.6445 102.093 25.6445 103.077Z" fill="black"/>
<path d="M17.3525 107.157C15.7871 107.157 14.8711 106.098 14.8711 104.32V99.7812H17.2227V103.828C17.2227 104.683 17.6533 105.147 18.3984 105.147C19.1436 105.147 19.6221 104.689 19.6221 103.705V99.7812H21.9736V107H19.6494V105.831C19.1709 106.658 18.4395 107.157 17.3525 107.157Z" fill="black"/>
<path d="M5.65625 107V96.8145H9.85352C12.2119 96.8145 13.6953 98.1475 13.6953 100.26C13.6953 101.565 13.0732 102.563 12.0068 103.117L13.9619 107H11.3643L9.70312 103.616H8.11719V107H5.65625ZM8.11719 101.682H9.68945C10.6738 101.682 11.2891 101.121 11.2891 100.26C11.2891 99.3916 10.6738 98.8311 9.68262 98.8311H8.11719V101.682Z" fill="black"/>
<path d="M63.9336 80.7808V79.543H71.3667V80.7808H68.3643V89.001H66.9487V80.7808H63.9336Z" fill="black"/>
<path d="M55.4595 89.001V79.543H57.021L60.6328 85.2622C60.7428 85.4399 60.8931 85.6917 61.0835 86.0176C61.2739 86.3434 61.4644 86.6735 61.6548 87.0078C61.6421 86.665 61.6315 86.318 61.623 85.9668C61.6188 85.6113 61.6167 85.3468 61.6167 85.1733V79.543H63.0322V89.001H61.458L58.2271 83.8911C58.0959 83.6838 57.9054 83.3748 57.6558 82.9644C57.4103 82.5496 57.131 82.0736 56.8179 81.5361C56.839 82.0905 56.8517 82.5687 56.856 82.9707C56.8644 83.3685 56.8687 83.6732 56.8687 83.8848V89.001H55.4595Z" fill="black"/>
<path d="M48.064 89.001V79.543H54.4243V80.7808H49.4731V83.5674H54.0562V84.7925H49.4731V87.7632H54.4243V89.001H48.064Z" fill="black"/>
<path d="M41.2656 89.001V79.543H42.6748V87.7632H47.1499V89.001H41.2656Z" fill="black"/>
<path d="M32.0039 89.001L35.438 79.543H37.1392L40.5479 89.001H39.0181L38.1802 86.5444H34.3652L33.502 89.001H32.0039ZM34.7905 85.3447H37.7676L37.1963 83.6689C37.0693 83.2796 36.9339 82.8628 36.79 82.4185C36.6462 81.9741 36.4811 81.4451 36.2949 80.8315C36.1045 81.4451 35.9373 81.9741 35.7935 82.4185C35.6496 82.8628 35.512 83.2796 35.3809 83.6689L34.7905 85.3447Z" fill="black"/>
<path d="M28.2969 89.001L24.8628 79.543H26.3799L28.2524 84.875C28.3667 85.2178 28.4979 85.6219 28.646 86.0874C28.7941 86.5529 28.9676 87.0967 29.1665 87.7188C29.3569 87.0967 29.5241 86.5529 29.668 86.0874C29.8161 85.6219 29.9473 85.2178 30.0615 84.875L31.8833 79.543H33.375L29.9917 89.001H28.2969Z" fill="black"/>
<path d="M20.6284 89.1533C19.7905 89.1533 19.0436 88.9481 18.3877 88.5376C17.7318 88.1271 17.2155 87.5558 16.8389 86.8237C16.4665 86.0916 16.2803 85.2432 16.2803 84.2783C16.2803 83.3092 16.4665 82.4587 16.8389 81.7266C17.2155 80.9902 17.7318 80.4168 18.3877 80.0063C19.0436 79.5959 19.7905 79.3906 20.6284 79.3906C21.4705 79.3906 22.2196 79.5959 22.8755 80.0063C23.5314 80.4168 24.0456 80.9902 24.418 81.7266C24.7946 82.4587 24.9829 83.3092 24.9829 84.2783C24.9829 85.2432 24.7946 86.0916 24.418 86.8237C24.0456 87.5558 23.5314 88.1271 22.8755 88.5376C22.2196 88.9481 21.4705 89.1533 20.6284 89.1533ZM20.6284 87.8647C21.1743 87.8647 21.6694 87.7272 22.1138 87.4521C22.5581 87.1729 22.9115 86.7666 23.1738 86.2334C23.4362 85.696 23.5674 85.0443 23.5674 84.2783C23.5674 83.5081 23.4362 82.8543 23.1738 82.3169C22.9115 81.7795 22.5581 81.3732 22.1138 81.0981C21.6694 80.8188 21.1743 80.6792 20.6284 80.6792C20.0868 80.6792 19.5938 80.8188 19.1494 81.0981C18.7051 81.3732 18.3517 81.7795 18.0894 82.3169C17.827 82.8543 17.6958 83.5081 17.6958 84.2783C17.6958 85.0443 17.827 85.696 18.0894 86.2334C18.3517 86.7666 18.7051 87.1729 19.1494 87.4521C19.5938 87.7272 20.0868 87.8647 20.6284 87.8647Z" fill="black"/>
<path d="M12.0146 89.1533C10.8805 89.1533 9.98551 88.8677 9.32959 88.2964C8.6779 87.7209 8.35205 86.9338 8.35205 85.9351H9.76123C9.76546 86.5571 9.96436 87.0438 10.3579 87.395C10.7557 87.7463 11.3079 87.9219 12.0146 87.9219C12.6579 87.9219 13.172 87.7865 13.5571 87.5156C13.9465 87.2406 14.1411 86.8724 14.1411 86.4111C14.1411 86.0472 14.0015 85.7531 13.7222 85.5288C13.4471 85.3003 12.9816 85.1077 12.3257 84.9512L11.291 84.7036C10.3346 84.4751 9.63639 84.1577 9.19629 83.7515C8.76042 83.341 8.54248 82.8078 8.54248 82.1519C8.54248 81.5975 8.68213 81.113 8.96143 80.6982C9.24072 80.2835 9.63216 79.9619 10.1357 79.7334C10.6436 79.5049 11.236 79.3906 11.9131 79.3906C12.9329 79.3906 13.7433 79.6572 14.3442 80.1904C14.9494 80.7236 15.2668 81.4515 15.2964 82.374H13.9316C13.8978 81.8281 13.6989 81.4007 13.335 81.0918C12.971 80.7786 12.4907 80.6221 11.894 80.6221C11.3228 80.6221 10.8551 80.7596 10.4912 81.0347C10.1273 81.3055 9.94531 81.6546 9.94531 82.082C9.94531 82.4248 10.085 82.7041 10.3643 82.9199C10.6436 83.1315 11.1069 83.3156 11.7544 83.4722L12.7764 83.7134C13.7243 83.9377 14.4225 84.2614 14.8711 84.6846C15.3239 85.1077 15.5503 85.6579 15.5503 86.335C15.5503 86.902 15.4043 87.3971 15.1123 87.8203C14.8203 88.2435 14.4098 88.5715 13.8809 88.8042C13.3519 89.0369 12.7298 89.1533 12.0146 89.1533Z" fill="black"/>
<path d="M7.27246 79.543V89.001H5.86328V79.543H7.27246Z" fill="black"/>
<defs>
<linearGradient id="paint0_linear_229_14248" x1="-6.09677" y1="-17.9677" x2="76.2258" y2="78.0323" gradientUnits="userSpaceOnUse">
<stop stop-color="white"/>
<stop offset="1" stop-color="#E7F3FF"/>
</linearGradient>
<linearGradient id="paint1_linear_229_14248" x1="5" y1="29.5195" x2="69.9001" y2="40.317" gradientUnits="userSpaceOnUse">
<stop stop-color="#37A8FF"/>
<stop offset="1" stop-color="#3071FF"/>
</linearGradient>
<linearGradient id="paint2_linear_229_14248" x1="33.6069" y1="42.5831" x2="59.0377" y2="42.3875" gradientUnits="userSpaceOnUse">
<stop stop-color="#049FFC"/>
<stop offset="1" stop-color="#19C9FF"/>
</linearGradient>
<linearGradient id="paint3_linear_229_14248" x1="33.6069" y1="42.5831" x2="59.0377" y2="42.3875" gradientUnits="userSpaceOnUse">
<stop stop-color="#049FFC"/>
<stop offset="1" stop-color="#19C9FF"/>
</linearGradient>
</defs>
</svg>
