<svg width="128" height="128" viewBox="0 0 128 128" fill="none" xmlns="http://www.w3.org/2000/svg">
<path d="M2 49.7863C2 47.6952 3.69517 46 5.78626 46H122.214C124.305 46 126 47.6952 126 49.7863V79.1298C126 81.2209 124.305 82.916 122.214 82.916H5.78626C3.69516 82.916 2 81.2209 2 79.1298V49.7863Z" fill="url(#paint0_linear_229_13831)"/>
<path d="M122.214 81.0229V82.916H5.78626V81.0229H122.214ZM124.107 79.1298V49.7863C124.107 48.7407 123.259 47.8931 122.214 47.8931H5.78626C4.80595 47.8931 4.0001 48.6383 3.9033 49.5931L3.89313 49.7863V79.1298C3.89313 80.1753 4.74072 81.0229 5.78626 81.0229V82.916L5.59122 82.9114C3.65535 82.8132 2.10285 81.2607 2.00462 79.3248L2 79.1298V49.7863C2 47.6952 3.69517 46 5.78626 46H122.214C124.305 46 126 47.6952 126 49.7863V79.1298C126 81.1555 124.409 82.8099 122.409 82.9114L122.214 82.916V81.0229C123.259 81.0229 124.107 80.1753 124.107 79.1298Z" fill="url(#paint1_linear_229_13831)"/>
<path d="M30.9716 74.3967H23.3479L18.8853 67.8891H26.5089L30.9716 74.3967Z" fill="url(#paint2_linear_229_13831)"/>
<path d="M23.4792 53.5723C27.1036 53.5723 30.0418 56.4858 30.0418 60.0799C30.0418 63.674 27.1036 66.5875 23.4792 66.5875H18.8853V63.7985H23.4792C25.5503 63.7985 27.2293 62.1336 27.2293 60.0799C27.2293 58.0262 25.5503 56.3613 23.4792 56.3613H18.8853V53.5723H23.4792Z" fill="url(#paint3_linear_229_13831)"/>
<path d="M17.5849 74.3967H10.519V67.8891H17.5849V74.3967Z" fill="#006BFF"/>
<path fill-rule="evenodd" clip-rule="evenodd" d="M17.5849 66.5875H10.519V53.5723H17.5849V66.5875ZM12.3785 61.0096H15.7255V59.1502H12.3785V61.0096Z" fill="#006BFF"/>
<path d="M75.561 57.2872V56.5059H80.2531V57.2872H78.3579V62.4759H77.4643V57.2872H75.561Z" fill="black"/>
<path d="M70.0483 62.4759V56.5059H71.034L73.314 60.116C73.3834 60.2281 73.4783 60.3871 73.5985 60.5928C73.7187 60.7984 73.8389 61.0068 73.9591 61.2178C73.9511 61.0014 73.9444 60.7824 73.9391 60.5607C73.9364 60.3363 73.935 60.1694 73.935 60.0599V56.5059H74.8286V62.4759H73.8349L71.7954 59.2505C71.7125 59.1196 71.5923 58.9246 71.4347 58.6655C71.2798 58.4037 71.1035 58.1032 70.9058 57.764C70.9192 58.1139 70.9272 58.4157 70.9299 58.6695C70.9352 58.9206 70.9379 59.1129 70.9379 59.2465V62.4759H70.0483Z" fill="black"/>
<path d="M65.2153 62.4759V56.5059H69.2303V57.2872H66.1049V59.0461H68.9979V59.8194H66.1049V61.6946H69.2303V62.4759H65.2153Z" fill="black"/>
<path d="M60.7593 62.4759V56.5059H61.6488V61.6946H64.4737V62.4759H60.7593Z" fill="black"/>
<path d="M54.749 62.4759L56.9168 56.5059H57.9906L60.1423 62.4759H59.1767L58.6477 60.9253H56.2396L55.6947 62.4759H54.749ZM56.5081 60.168H58.3873L58.0267 59.1103C57.9465 58.8645 57.8611 58.6014 57.7702 58.3209C57.6794 58.0404 57.5752 57.7066 57.4577 57.3192C57.3375 57.7066 57.232 58.0404 57.1412 58.3209C57.0503 58.6014 56.9635 58.8645 56.8807 59.1103L56.5081 60.168Z" fill="black"/>
<path d="M52.2449 62.4759L50.0771 56.5059H51.0348L52.2168 59.8715C52.289 60.0879 52.3718 60.343 52.4653 60.6368C52.5588 60.9307 52.6683 61.2739 52.7938 61.6666C52.914 61.2739 53.0196 60.9307 53.1104 60.6368C53.2039 60.343 53.2867 60.0879 53.3588 59.8715L54.5088 56.5059H55.4504L53.3147 62.4759H52.2449Z" fill="black"/>
<path d="M47.2394 62.5745C46.7105 62.5745 46.239 62.445 45.8249 62.1859C45.4109 61.9267 45.085 61.5661 44.8472 61.104C44.6122 60.6419 44.4946 60.1063 44.4946 59.4973C44.4946 58.8856 44.6122 58.3487 44.8472 57.8866C45.085 57.4218 45.4109 57.0599 45.8249 56.8008C46.239 56.5417 46.7105 56.4121 47.2394 56.4121C47.7709 56.4121 48.2438 56.5417 48.6578 56.8008C49.0719 57.0599 49.3964 57.4218 49.6315 57.8866C49.8692 58.3487 49.9881 58.8856 49.9881 59.4973C49.9881 60.1063 49.8692 60.6419 49.6315 61.104C49.3964 61.5661 49.0719 61.9267 48.6578 62.1859C48.2438 62.445 47.7709 62.5745 47.2394 62.5745ZM47.2394 61.7611C47.584 61.7611 47.8965 61.6743 48.177 61.5007C48.4575 61.3244 48.6805 61.068 48.8461 60.7314C49.0118 60.3922 49.0946 59.9808 49.0946 59.4973C49.0946 59.0112 49.0118 58.5985 48.8461 58.2592C48.6805 57.92 48.4575 57.6636 48.177 57.4899C47.8965 57.3136 47.584 57.2255 47.2394 57.2255C46.8974 57.2255 46.5862 57.3136 46.3058 57.4899C46.0253 57.6636 45.8022 57.92 45.6366 58.2592C45.471 58.5985 45.3882 59.0112 45.3882 59.4973C45.3882 59.9808 45.471 60.3922 45.6366 60.7314C45.8022 61.068 46.0253 61.3244 46.3058 61.5007C46.5862 61.6743 46.8974 61.7611 47.2394 61.7611Z" fill="black"/>
<path d="M41.6382 62.5745C40.9223 62.5745 40.3573 62.3942 39.9432 62.0336C39.5319 61.6703 39.3262 61.1735 39.3262 60.5431H40.2157C40.2184 60.9357 40.3439 61.2429 40.5924 61.4646C40.8435 61.6863 41.1921 61.7972 41.6382 61.7972C42.0442 61.7972 42.3688 61.7117 42.6118 61.5408C42.8576 61.3671 42.9805 61.1347 42.9805 60.8436C42.9805 60.6139 42.8923 60.4282 42.716 60.2866C42.5424 60.1424 42.2485 60.0209 41.8345 59.922L41.1814 59.7658C40.5777 59.6215 40.1369 59.4212 39.8591 59.1648C39.5839 58.9056 39.4464 58.5691 39.4464 58.1551C39.4464 57.8051 39.5345 57.4993 39.7108 57.2375C39.8871 56.9757 40.1342 56.7727 40.4521 56.6285C40.7727 56.4842 41.1466 56.4121 41.574 56.4121C42.2178 56.4121 42.7294 56.5804 43.1087 56.917C43.4907 57.2535 43.691 57.713 43.7097 58.2953H42.8482C42.8269 57.9507 42.7013 57.6809 42.4716 57.4859C42.2419 57.2883 41.9387 57.1894 41.562 57.1894C41.2014 57.1894 40.9062 57.2762 40.6765 57.4499C40.4468 57.6208 40.3319 57.8412 40.3319 58.111C40.3319 58.3273 40.4201 58.5036 40.5964 58.6399C40.7727 58.7734 41.0652 58.8896 41.4739 58.9885L42.119 59.1407C42.7174 59.2823 43.1581 59.4866 43.4413 59.7537C43.7271 60.0209 43.87 60.3681 43.87 60.7955C43.87 61.1534 43.7779 61.466 43.5935 61.7331C43.4092 62.0002 43.1501 62.2072 42.8162 62.3541C42.4823 62.501 42.0896 62.5745 41.6382 62.5745Z" fill="black"/>
<path d="M38.4804 56.5059V62.4759H37.5908V56.5059H38.4804Z" fill="black"/>
<path d="M113.434 71.3789C113.487 71.5503 113.539 71.7223 113.589 71.8937C113.639 72.065 113.689 72.2379 113.738 72.4123C113.785 72.2379 113.834 72.065 113.884 71.8937C113.937 71.7223 113.99 71.5503 114.043 71.3789L114.786 69.1077H116.45L114.323 74.7399C114.154 75.1854 113.943 75.5068 113.688 75.7031C113.435 75.8994 113.101 75.998 112.687 75.998H111.607V74.7491H112.289C112.457 74.7491 112.576 74.7121 112.645 74.6373C112.713 74.5656 112.777 74.439 112.836 74.2583L112.92 74.0346L111.023 69.1077H112.706L113.434 71.3789ZM86.6902 68.9967C87.1855 68.9968 87.6206 69.1059 87.9945 69.324C88.3713 69.539 88.6654 69.8384 88.8773 70.2215C89.0891 70.6017 89.1953 71.0412 89.1953 71.5397V71.9742H85.7593C85.7687 72.2889 85.8627 72.5381 86.0403 72.722C86.2211 72.9057 86.4704 72.9975 86.7882 72.9975C87.0248 72.9974 87.2228 72.9497 87.3816 72.8532C87.5436 72.7567 87.6542 72.627 87.7135 72.465H89.1583C89.0991 72.7953 88.955 73.0886 88.7275 73.3441C88.5001 73.5994 88.2136 73.7989 87.8678 73.9422C87.525 74.0855 87.1463 74.1566 86.7318 74.1566C86.2269 74.1566 85.7831 74.046 85.3997 73.8248C85.0196 73.6035 84.7218 73.2997 84.5068 72.9133C84.2949 72.5238 84.1888 72.0783 84.1888 71.5767C84.1888 71.075 84.2949 70.631 84.5068 70.2446C84.7218 69.8551 85.018 69.5498 85.3951 69.3286C85.7722 69.1073 86.204 68.9967 86.6902 68.9967ZM92.2198 68.9967C92.6779 68.9967 93.0847 69.0838 93.44 69.2583C93.7953 69.4329 94.077 69.6745 94.2858 69.983C94.4977 70.2916 94.6168 70.6469 94.6417 71.0489H93.0897C93.0647 70.8153 92.9775 70.628 92.8281 70.4878C92.6817 70.3445 92.4898 70.2725 92.2531 70.2724C91.9509 70.2724 91.7152 70.3892 91.5469 70.6227C91.3817 70.8533 91.2991 71.1716 91.2991 71.5767C91.2991 71.9818 91.3832 72.3015 91.5515 72.5353C91.7198 72.7658 91.954 72.881 92.2531 72.881C92.4898 72.8809 92.6802 72.8089 92.8234 72.6656C92.9666 72.5223 93.0539 72.3304 93.085 72.0906H94.6417C94.6292 72.4925 94.5185 72.8495 94.3098 73.1611C94.1042 73.4696 93.82 73.7128 93.4585 73.8904C93.1001 74.068 92.6872 74.1566 92.2198 74.1566C91.7089 74.1566 91.2618 74.0498 90.8785 73.8349C90.4985 73.6169 90.2006 73.3144 89.9856 72.9281C89.7737 72.5417 89.6676 72.0909 89.6676 71.5767C89.6676 71.0657 89.7738 70.6172 89.9856 70.2308C90.2006 69.8413 90.4999 69.539 90.8832 69.324C91.2665 69.1058 91.7119 68.9968 92.2198 68.9967ZM80.7381 66.9668C81.5732 66.9668 82.2323 67.1691 82.7154 67.5741C83.1983 67.9761 83.4515 68.5338 83.4733 69.2472H81.9167C81.8917 68.9607 81.7757 68.7348 81.57 68.5697C81.3644 68.4015 81.0945 68.3173 80.7612 68.3173C80.4435 68.3174 80.1835 68.3864 79.981 68.5235C79.7817 68.6605 79.6816 68.8378 79.6815 69.0559C79.6815 69.2459 79.7687 69.3991 79.9431 69.5144C80.1208 69.6297 80.4095 69.7273 80.8084 69.8083L81.4203 69.9304C82.193 70.083 82.7545 70.3194 83.1036 70.6403C83.4557 70.9581 83.6323 71.387 83.6323 71.9261C83.6323 72.6273 83.3792 73.1742 82.8743 73.5669C82.3696 73.9594 81.6686 74.1556 80.7714 74.1557C79.8427 74.1557 79.1252 73.9475 78.6203 73.5299C78.1155 73.1092 77.8633 72.5137 77.8633 71.744H79.4671C79.4796 72.0773 79.6008 72.3372 79.8313 72.5242C80.065 72.7112 80.3832 72.8052 80.7852 72.8052C81.1404 72.8051 81.4253 72.7361 81.6403 72.599C81.8583 72.4589 81.9674 72.2754 81.9675 72.0481C81.9675 71.8519 81.8727 71.6911 81.6828 71.5665C81.4959 71.4419 81.1919 71.3358 80.7714 71.2485L80.0559 71.1034C78.6847 70.8229 77.9992 70.1669 77.9992 69.1354C77.9992 68.7053 78.1128 68.328 78.3403 68.004C78.5709 67.6768 78.8922 67.423 79.3035 67.2423C79.7147 67.0585 80.1929 66.9668 80.7381 66.9668ZM96.9221 71.8743C96.9221 72.1673 96.9927 72.3924 97.1329 72.5482C97.2731 72.7007 97.471 72.7765 97.7264 72.7765C97.9788 72.7765 98.181 72.697 98.3337 72.538C98.4864 72.376 98.5629 72.1268 98.5629 71.7902V69.1077H100.171V74.0438H98.5814V73.2443C98.4163 73.5246 98.2064 73.746 97.951 73.908C97.6954 74.07 97.3817 74.1511 97.0109 74.1511C96.475 74.151 96.0575 73.9798 95.7583 73.6371C95.4623 73.2943 95.3146 72.8185 95.3146 72.2108V69.1077H96.9221V71.8743ZM104.084 69.0938C104.156 69.0938 104.224 69.0953 104.289 69.0984V70.4258C104.23 70.4227 104.138 70.4197 104.014 70.4166C103.889 70.4135 103.77 70.412 103.654 70.412C103.365 70.412 103.129 70.5082 102.948 70.7013C102.771 70.8945 102.682 71.1658 102.682 71.5147V74.0438H101.074V69.1077H102.63V69.9766H102.644C102.734 69.6621 102.875 69.4361 103.065 69.299C103.258 69.1588 103.52 69.0892 103.85 69.0892C103.938 69.0892 104.016 69.0907 104.084 69.0938ZM109.573 69.1077H110.587V70.351H109.573V72.3846C109.573 72.5435 109.604 72.6526 109.667 72.7118C109.729 72.7709 109.85 72.8005 110.031 72.8006H110.587V74.0438H109.676C109.084 74.0438 108.649 73.9332 108.372 73.712C108.097 73.4876 107.96 73.1354 107.96 72.6554V70.351H107.119V69.1077H107.96V67.7618H109.573V69.1077ZM106.526 74.0411H104.917V69.1049H106.526V74.0411ZM86.7318 70.1836C86.4607 70.1837 86.241 70.2572 86.0727 70.4036C85.9045 70.5501 85.8029 70.7524 85.7686 71.011H87.695C87.6576 70.7524 87.5545 70.5501 87.3862 70.4036C87.218 70.2572 86.9998 70.1836 86.7318 70.1836ZM105.717 67.0019C105.975 67.002 106.188 67.0776 106.353 67.2302C106.521 67.3797 106.605 67.5732 106.605 67.8098C106.605 68.0467 106.521 68.2423 106.353 68.395C106.188 68.5476 105.975 68.6232 105.717 68.6233C105.461 68.6233 105.249 68.5476 105.081 68.395C104.916 68.2423 104.833 68.0467 104.833 67.8098C104.833 67.5732 104.916 67.3797 105.081 67.2302C105.249 67.0776 105.461 67.0019 105.717 67.0019Z" fill="black"/>
<path d="M72.9557 68.9638C73.4512 68.9638 73.8861 69.0729 74.26 69.291C74.6371 69.506 74.9318 69.8053 75.1437 70.1886C75.3556 70.5687 75.4617 71.0082 75.4617 71.5067V71.9412H72.0258C72.0351 72.2558 72.1284 72.5052 72.3059 72.689C72.4866 72.8728 72.736 72.9654 73.0537 72.9654C73.2906 72.9654 73.4891 72.9169 73.6481 72.8203C73.81 72.7237 73.9208 72.594 73.9799 72.432H75.4238C75.3646 72.7624 75.2215 73.0556 74.994 73.3111C74.7665 73.5667 74.4793 73.7659 74.1334 73.9092C73.7908 74.0524 73.4125 74.1245 72.9982 74.1246C72.4934 74.1246 72.0486 74.014 71.6653 73.7927C71.2852 73.5715 70.9873 73.2677 70.7723 72.8813C70.5604 72.4917 70.4553 72.0454 70.4553 71.5437C70.4553 71.0421 70.5605 70.598 70.7723 70.2117C70.9873 69.8222 71.2837 69.5169 71.6607 69.2956C72.0377 69.0744 72.4696 68.9638 72.9557 68.9638ZM45.8464 71.8441C45.8465 72.1368 45.9162 72.3613 46.0563 72.5171C46.1965 72.6698 46.3951 72.7463 46.6507 72.7463C46.9029 72.7463 47.1053 72.6666 47.258 72.5078C47.4106 72.3458 47.4872 72.0964 47.4872 71.76V69.0765H49.0956V74.0127H47.5057V73.2131C47.3405 73.4936 47.1299 73.7148 46.8744 73.8768C46.6188 74.0389 46.306 74.12 45.9352 74.12C45.3992 74.12 44.9818 73.9488 44.6826 73.606C44.3866 73.2632 44.238 72.7882 44.238 72.1806V69.0765H45.8464V71.8441ZM57.8514 69.0784H58.8654V70.3226H57.8514V72.3553C57.8514 72.5143 57.8824 72.6233 57.9447 72.6826C58.007 72.7417 58.1283 72.7713 58.3089 72.7713H58.8654V74.0155H57.954C57.362 74.0155 56.927 73.9048 56.6497 73.6837C56.3755 73.4593 56.2384 73.1068 56.2383 72.6271V70.3226H55.3971V69.0784H56.2383V67.7325H57.8514V69.0784ZM40.8067 67.0485C41.3459 67.0485 41.8117 67.1455 42.2044 67.3387C42.5969 67.5287 42.8993 67.7993 43.1112 68.1512C43.3262 68.5034 43.4338 68.9217 43.4338 69.4047C43.4338 69.8502 43.3331 70.2398 43.1306 70.5731C42.928 70.9066 42.6439 71.1687 42.2793 71.3588L43.6159 74.0137H41.8402L40.7041 71.6999H39.6198V74.0137H37.9365V67.0485H40.8067ZM53.1574 68.9693C53.6933 68.9693 54.1092 69.1406 54.4053 69.4833C54.7045 69.8261 54.8545 70.3019 54.8545 70.9096V74.0127H53.2461V71.2461C53.2461 70.9534 53.1763 70.7304 53.0363 70.5777C52.896 70.4219 52.6974 70.3439 52.4419 70.3439C52.1896 70.3439 51.9872 70.425 51.8346 70.587C51.6819 70.7459 51.6053 70.9937 51.6053 71.3302V74.0127H49.9969V69.0765H51.5868V69.8761C51.752 69.5957 51.9627 69.3745 52.2182 69.2124C52.4737 69.0505 52.7866 68.9693 53.1574 68.9693ZM61.1237 74.0127H59.5162V69.0765H61.1237V74.0127ZM68.0935 68.9693C68.5797 68.9693 68.9789 69.1254 69.2906 69.4371C69.6052 69.7486 69.7628 70.1783 69.7629 70.7266V74.0127H68.1499V71.0824C68.1499 70.8207 68.0803 70.6206 67.94 70.4835C67.8029 70.3432 67.6248 70.2736 67.4067 70.2736C67.1792 70.2736 66.9966 70.3502 66.8594 70.5029C66.7256 70.6555 66.6589 70.8565 66.6589 71.1056V74.0127H65.1207V71.064C65.1207 70.8242 65.0539 70.6323 64.9201 70.489C64.7861 70.3456 64.6095 70.2736 64.3913 70.2736C64.1733 70.2737 63.9915 70.3502 63.845 70.5029C63.7018 70.6524 63.6297 70.8639 63.6297 71.1379V74.0127H62.0212V69.0765H63.5686V70.0028C63.712 69.6506 63.9196 69.39 64.1908 69.2217C64.4618 69.0535 64.7582 68.9693 65.0791 68.9693C65.4092 68.9694 65.7034 69.0551 65.9619 69.2263C66.2236 69.3946 66.4062 69.6408 66.5091 69.9649C66.6338 69.6439 66.8414 69.3977 67.1312 69.2263C67.4209 69.0551 67.7416 68.9694 68.0935 68.9693ZM72.9982 70.1507C72.7273 70.1507 72.5074 70.2244 72.3392 70.3707C72.1709 70.5171 72.0693 70.7203 72.035 70.9789H73.9605C73.9231 70.7203 73.8209 70.5171 73.6527 70.3707C73.4845 70.2243 73.2661 70.1507 72.9982 70.1507ZM39.6198 70.3771H40.6949C41.0313 70.3771 41.2982 70.2876 41.4945 70.11C41.6905 69.9325 41.7884 69.6973 41.7884 69.4047C41.7884 69.1088 41.6906 68.8715 41.4945 68.6939C41.2982 68.5163 41.0298 68.4277 40.6903 68.4276H39.6198V70.3771ZM60.3148 66.9727C60.5735 66.9727 60.7856 67.0492 60.9508 67.2019C61.1191 67.3515 61.2032 67.5446 61.2032 67.7815C61.2031 68.0183 61.1191 68.213 60.9508 68.3657C60.7857 68.5183 60.5734 68.5949 60.3148 68.5949C60.0596 68.5949 59.848 68.5182 59.6798 68.3657C59.5146 68.213 59.4321 68.0183 59.4321 67.7815C59.4321 67.5446 59.5146 67.3515 59.6798 67.2019C59.848 67.0493 60.0595 66.9727 60.3148 66.9727Z" fill="black"/>
<defs>
<linearGradient id="paint0_linear_229_13831" x1="12.0479" y1="-8.10108" x2="134.122" y2="15.901" gradientUnits="userSpaceOnUse">
<stop stop-color="white"/>
<stop offset="1" stop-color="#E7F3FF"/>
</linearGradient>
<linearGradient id="paint1_linear_229_13831" x1="2" y1="60.1432" x2="100.472" y2="115.173" gradientUnits="userSpaceOnUse">
<stop stop-color="#37A8FF"/>
<stop offset="1" stop-color="#3071FF"/>
</linearGradient>
<linearGradient id="paint2_linear_229_13831" x1="18.8853" y1="66.6805" x2="30.9716" y2="66.5875" gradientUnits="userSpaceOnUse">
<stop stop-color="#049FFC"/>
<stop offset="1" stop-color="#19C9FF"/>
</linearGradient>
<linearGradient id="paint3_linear_229_13831" x1="18.8853" y1="66.6805" x2="30.9716" y2="66.5875" gradientUnits="userSpaceOnUse">
<stop stop-color="#049FFC"/>
<stop offset="1" stop-color="#19C9FF"/>
</linearGradient>
</defs>
</svg>
