<svg width="128" height="128" viewBox="0 0 128 128" fill="none" xmlns="http://www.w3.org/2000/svg">
<path d="M14 38H114C115.657 38 117 39.3431 117 41V87C117 88.6569 115.657 90 114 90H14C12.3431 90 11 88.6569 11 87V41C11 39.3431 12.3431 38 14 38Z" fill="url(#paint0_linear_172_286)" stroke="url(#paint1_linear_172_286)" stroke-width="2"/>
<path d="M49.482 79H38.8658L32.6514 69.9375H43.2676L49.482 79Z" fill="url(#paint2_linear_172_286)"/>
<path d="M39.0486 50C44.0958 50 48.1873 54.0574 48.1873 59.0625C48.1873 64.0676 44.0958 68.125 39.0486 68.125H32.6514V64.2411H39.0486C41.9327 64.241 44.2707 61.9225 44.2707 59.0625C44.2707 56.2025 41.9327 53.884 39.0486 53.8839H32.6514V50H39.0486Z" fill="url(#paint3_linear_172_286)"/>
<path d="M30.8394 79H21V69.9375H30.8394V79Z" fill="#006BFF"/>
<path fill-rule="evenodd" clip-rule="evenodd" d="M30.8394 68.125H21V50H30.8394V68.125ZM23.5893 60.3571H28.2501V57.7679H23.5893V60.3571Z" fill="#006BFF"/>
<path d="M97.7139 49.925V49.0996H102.671V49.925H100.669V55.4067H99.7246V49.925H97.7139Z" fill="black"/>
<path d="M91.8896 55.4067V49.0996H92.931L95.3396 52.9135C95.413 53.032 95.5132 53.1999 95.6402 53.4172C95.7672 53.6345 95.8942 53.8546 96.0212 54.0776C96.0127 53.849 96.0056 53.6176 96 53.3834C95.9972 53.1463 95.9958 52.9699 95.9958 52.8542V49.0996H96.9397V55.4067H95.8899L93.7353 51.9992C93.6478 51.8609 93.5208 51.6549 93.3543 51.3812C93.1906 51.1046 93.0044 50.7871 92.7955 50.4288C92.8096 50.7984 92.8181 51.1173 92.8209 51.3854C92.8266 51.6507 92.8294 51.8538 92.8294 51.9949V55.4067H91.8896Z" fill="black"/>
<path d="M86.7842 55.4067V49.0996H91.0258V49.925H87.7239V51.7833H90.7802V52.6003H87.7239V54.5813H91.0258V55.4067H86.7842Z" fill="black"/>
<path d="M82.0762 55.4067V49.0996H83.0159V54.5813H86.0003V55.4067H82.0762Z" fill="black"/>
<path d="M75.7266 55.4067L78.0167 49.0996H79.1511L81.4243 55.4067H80.4041L79.8454 53.7686H77.3013L76.7256 55.4067H75.7266ZM77.5849 52.9685H79.5702L79.1892 51.851C79.1046 51.5914 79.0143 51.3134 78.9183 51.0171C78.8224 50.7208 78.7123 50.3681 78.5881 49.9589C78.4612 50.3681 78.3497 50.7208 78.2537 51.0171C78.1578 51.3134 78.0661 51.5914 77.9786 51.851L77.5849 52.9685Z" fill="black"/>
<path d="M73.0811 55.4067L70.791 49.0996H71.8027L73.0515 52.6553C73.1277 52.8839 73.2152 53.1534 73.3139 53.4638C73.4127 53.7742 73.5284 54.1368 73.6611 54.5516C73.7881 54.1368 73.8995 53.7742 73.9955 53.4638C74.0943 53.1534 74.1817 52.8839 74.2579 52.6553L75.4728 49.0996H76.4676L74.2114 55.4067H73.0811Z" fill="black"/>
<path d="M67.7932 55.5103C67.2345 55.5103 66.7364 55.3734 66.2989 55.0997C65.8615 54.8259 65.5172 54.445 65.2661 53.9568C65.0177 53.4686 64.8936 52.9028 64.8936 52.2594C64.8936 51.6131 65.0177 51.0459 65.2661 50.5577C65.5172 50.0667 65.8615 49.6843 66.2989 49.4106C66.7364 49.1369 67.2345 49 67.7932 49C68.3548 49 68.8543 49.1369 69.2918 49.4106C69.7292 49.6843 70.0721 50.0667 70.3204 50.5577C70.5716 51.0459 70.6971 51.6131 70.6971 52.2594C70.6971 52.9028 70.5716 53.4686 70.3204 53.9568C70.0721 54.445 69.7292 54.8259 69.2918 55.0997C68.8543 55.3734 68.3548 55.5103 67.7932 55.5103ZM67.7932 54.651C68.1573 54.651 68.4875 54.5593 68.7838 54.3758C69.0801 54.1896 69.3157 53.9187 69.4907 53.5631C69.6657 53.2047 69.7532 52.7701 69.7532 52.2594C69.7532 51.7458 69.6657 51.3098 69.4907 50.9514C69.3157 50.593 69.0801 50.3221 68.7838 50.1387C68.4875 49.9524 68.1573 49.8593 67.7932 49.8593C67.432 49.8593 67.1032 49.9524 66.8069 50.1387C66.5106 50.3221 66.275 50.593 66.1 50.9514C65.925 51.3098 65.8375 51.7458 65.8375 52.2594C65.8375 52.7701 65.925 53.2047 66.1 53.5631C66.275 53.9187 66.5106 54.1896 66.8069 54.3758C67.1032 54.5593 67.432 54.651 67.7932 54.651Z" fill="black"/>
<path d="M61.8756 55.5103C61.1193 55.5103 60.5224 55.3198 60.085 54.9388C59.6504 54.555 59.4331 54.0302 59.4331 53.3642H60.3729C60.3757 53.779 60.5083 54.1035 60.7708 54.3377C61.036 54.572 61.4043 54.6891 61.8756 54.6891C62.3046 54.6891 62.6474 54.5988 62.9043 54.4182C63.1639 54.2347 63.2937 53.9892 63.2937 53.6816C63.2937 53.439 63.2006 53.2428 63.0143 53.0933C62.8309 52.9409 62.5205 52.8125 62.083 52.7081L61.393 52.543C60.7552 52.3906 60.2896 52.1789 59.9961 51.908C59.7054 51.6343 59.5601 51.2787 59.5601 50.8413C59.5601 50.4717 59.6532 50.1485 59.8395 49.872C60.0257 49.5954 60.2868 49.381 60.6226 49.2286C60.9613 49.0762 61.3563 49 61.8079 49C62.488 49 63.0284 49.1778 63.4292 49.5334C63.8327 49.8889 64.0444 50.3743 64.0641 50.9895H63.154C63.1314 50.6255 62.9988 50.3404 62.7561 50.1344C62.5134 49.9256 62.1931 49.8212 61.7952 49.8212C61.4142 49.8212 61.1024 49.9129 60.8597 50.0963C60.617 50.2769 60.4956 50.5098 60.4956 50.7948C60.4956 51.0233 60.5887 51.2096 60.775 51.3535C60.9613 51.4946 61.2703 51.6174 61.7021 51.7218L62.3836 51.8826C63.0157 52.0322 63.4814 52.2481 63.7805 52.5303C64.0825 52.8125 64.2335 53.1793 64.2335 53.6308C64.2335 54.009 64.1361 54.3392 63.9414 54.6214C63.7466 54.9036 63.4729 55.1223 63.1201 55.2775C62.7674 55.4327 62.3525 55.5103 61.8756 55.5103Z" fill="black"/>
<path d="M58.5398 49.0996V55.4067H57.6001V49.0996H58.5398Z" fill="black"/>
<path d="M94.7822 77.1211C94.8381 77.302 94.8917 77.4831 94.9443 77.6641C94.997 77.845 95.0499 78.0277 95.1025 78.2119C95.1519 78.0276 95.2032 77.8451 95.2559 77.6641C95.3118 77.4831 95.3679 77.3021 95.4238 77.1211L96.209 74.7207H97.9668L95.7197 80.6719C95.5421 81.1422 95.3185 81.4811 95.0488 81.6885C94.7821 81.8959 94.4291 82 93.9912 82H92.8506V80.6816H93.5723C93.7498 80.6816 93.8749 80.6414 93.9473 80.5625C94.0196 80.4868 94.087 80.3537 94.1494 80.1631L94.2383 79.9258L92.2334 74.7207H94.0117L94.7822 77.1211ZM66.5273 74.6035C67.0508 74.6035 67.5102 74.7188 67.9053 74.9492C68.3036 75.1764 68.615 75.4926 68.8389 75.8975C69.0627 76.2991 69.1738 76.7634 69.1738 77.29V77.749H65.5439C65.5538 78.0815 65.6532 78.3448 65.8408 78.5391C66.0318 78.7333 66.295 78.8311 66.6309 78.8311C66.881 78.8311 67.0899 78.7797 67.2578 78.6777C67.429 78.5757 67.5458 78.4388 67.6084 78.2676H69.1348C69.0722 78.6165 68.9209 78.9264 68.6807 79.1963C68.4403 79.4663 68.1369 79.6767 67.7715 79.8281C67.4093 79.9796 67.0092 80.0557 66.5713 80.0557C66.0381 80.0556 65.5689 79.9388 65.1641 79.7051C64.7624 79.4714 64.4479 79.1504 64.2207 78.7422C63.9968 78.3307 63.8848 77.8592 63.8848 77.3291C63.8848 76.7992 63.9969 76.33 64.2207 75.9219C64.4479 75.5104 64.7608 75.1878 65.1592 74.9541C65.5576 74.7204 66.0137 74.6035 66.5273 74.6035ZM72.3691 74.6035C72.8531 74.6035 73.2829 74.6956 73.6582 74.8799C74.0335 75.0642 74.3312 75.3197 74.5518 75.6455C74.7756 75.9714 74.9014 76.3468 74.9277 76.7715H73.2881C73.2618 76.5246 73.1697 76.3269 73.0117 76.1787C72.8571 76.0273 72.6543 75.9522 72.4043 75.9521C72.0849 75.9521 71.836 76.0753 71.6582 76.3223C71.4838 76.5658 71.3965 76.9014 71.3965 77.3291C71.3965 77.757 71.4853 78.0949 71.6631 78.3418C71.8409 78.5854 72.0882 78.707 72.4043 78.707C72.6543 78.707 72.8555 78.6318 73.0068 78.4805C73.1582 78.3291 73.2503 78.1264 73.2832 77.873H74.9277C74.9145 78.2976 74.7977 78.6747 74.5771 79.0039C74.3599 79.3298 74.0596 79.5868 73.6777 79.7744C73.2992 79.9619 72.8628 80.0557 72.3691 80.0557C71.8293 80.0556 71.357 79.9419 70.9521 79.7148C70.5505 79.4844 70.236 79.165 70.0088 78.7568C69.7849 78.3486 69.6729 77.8723 69.6729 77.3291C69.6729 76.7893 69.785 76.3154 70.0088 75.9072C70.236 75.4957 70.5521 75.1764 70.957 74.9492C71.3619 74.7188 71.8326 74.6035 72.3691 74.6035ZM60.2393 72.459C61.1214 72.459 61.8178 72.6728 62.3281 73.1006C62.8384 73.5253 63.1059 74.1152 63.1289 74.8691H61.4844C61.458 74.5662 61.3355 74.3278 61.1182 74.1533C60.901 73.9756 60.6167 73.8858 60.2646 73.8857C59.9288 73.8857 59.6535 73.9587 59.4395 74.1035C59.2289 74.2483 59.1232 74.4358 59.123 74.666C59.123 74.8668 59.216 75.0286 59.4004 75.1504C59.5881 75.2721 59.8923 75.3764 60.3135 75.4619L60.9609 75.5898C61.7773 75.7512 62.3696 76.0018 62.7383 76.3408C63.1102 76.6765 63.2968 77.1289 63.2969 77.6982C63.2969 78.439 63.0295 79.0168 62.4961 79.4316C61.9628 79.8464 61.2225 80.0546 60.2744 80.0547C59.2933 80.0547 58.5353 79.8337 58.002 79.3926C57.4687 78.9481 57.2021 78.319 57.2021 77.5059H58.8965C58.9097 77.8581 59.0376 78.1335 59.2812 78.3311C59.5282 78.5286 59.8644 78.627 60.2891 78.627C60.6641 78.6269 60.9653 78.5548 61.1924 78.4102C61.4228 78.262 61.5381 78.0674 61.5381 77.8271C61.5381 77.6198 61.4381 77.45 61.2373 77.3184C61.0398 77.1867 60.7187 77.0746 60.2744 76.9824L59.5186 76.8291C58.0699 76.5328 57.3457 75.8397 57.3457 74.75C57.3458 74.2959 57.4659 73.8979 57.7061 73.5557C57.9497 73.21 58.289 72.941 58.7236 72.75C59.1581 72.5559 59.6634 72.459 60.2393 72.459ZM77.3369 77.6445C77.337 77.9539 77.4115 78.1909 77.5596 78.3555C77.7077 78.5167 77.9166 78.5976 78.1865 78.5977C78.453 78.5977 78.6668 78.5134 78.8281 78.3457C78.9894 78.1746 79.0703 77.9111 79.0703 77.5557V74.7207H80.7695V79.9355H79.0908V79.0908C78.9164 79.387 78.6936 79.6208 78.4238 79.792C78.1538 79.9632 77.8225 80.0488 77.4307 80.0488C76.8645 80.0488 76.4234 79.8679 76.1074 79.5059C75.7947 79.1437 75.6387 78.6419 75.6387 78V74.7207H77.3369V77.6445ZM90.7012 74.7207H91.7734V76.0352H90.7012V78.1826C90.7012 78.3505 90.7349 78.4658 90.8008 78.5283C90.8666 78.5908 90.9947 78.6221 91.1855 78.6221H91.7734V79.9365H90.8105C90.1853 79.9365 89.7257 79.8195 89.4326 79.5859C89.143 79.3489 88.9981 78.9766 88.998 78.4697V76.0352H88.1084V74.7207H88.998V73.2988H90.7012V74.7207ZM84.9033 74.7061C84.979 74.7061 85.052 74.7076 85.1211 74.7109V76.1133C85.0585 76.11 84.9608 76.1068 84.8291 76.1035C84.6975 76.1002 84.5709 76.0986 84.4492 76.0986C84.143 76.0986 83.8941 76.2012 83.7031 76.4053C83.5156 76.6094 83.4219 76.8961 83.4219 77.2646V79.9355H81.7227V74.7207H83.3672V75.6396H83.3818C83.4773 75.3071 83.6263 75.0687 83.8271 74.9238C84.0312 74.7757 84.3074 74.7012 84.6562 74.7012C84.7484 74.7012 84.8309 74.7028 84.9033 74.7061ZM87.4824 79.9336H85.7832V74.7188H87.4824V79.9336ZM66.5713 75.8574C66.285 75.8575 66.0527 75.9352 65.875 76.0898C65.6972 76.2446 65.5909 76.4592 65.5547 76.7324H67.5889C67.5494 76.4592 67.4405 76.2446 67.2627 76.0898C67.0849 75.9352 66.8543 75.8574 66.5713 75.8574ZM86.6279 72.4961C86.901 72.4962 87.1244 72.5771 87.2988 72.7383C87.4766 72.8963 87.5664 73.1004 87.5664 73.3506C87.5664 73.6007 87.4766 73.8065 87.2988 73.9678C87.1244 74.1289 86.9009 74.2099 86.6279 74.21C86.358 74.21 86.1338 74.129 85.9561 73.9678C85.7816 73.8065 85.6944 73.6007 85.6943 73.3506C85.6943 73.1004 85.7816 72.8963 85.9561 72.7383C86.1338 72.577 86.358 72.4961 86.6279 72.4961Z" fill="black"/>
<path d="M94.9614 62.2598C95.4849 62.2598 95.9443 62.375 96.3394 62.6055C96.7377 62.8326 97.0491 63.1488 97.2729 63.5537C97.4968 63.9553 97.6089 64.4196 97.6089 64.9463V65.4053H93.979C93.9889 65.7376 94.0874 66.0011 94.2749 66.1953C94.4658 66.3895 94.7292 66.4873 95.0649 66.4873C95.3152 66.4873 95.525 66.436 95.6929 66.334C95.8639 66.2319 95.9809 66.0949 96.0435 65.9238H97.5688C97.5063 66.2728 97.3551 66.5826 97.1147 66.8525C96.8744 67.1225 96.571 67.3329 96.2056 67.4844C95.8436 67.6357 95.444 67.7119 95.0063 67.7119C94.473 67.7119 94.0031 67.5951 93.5981 67.3613C93.1966 67.1276 92.8819 66.8066 92.6548 66.3984C92.4309 65.9869 92.3198 65.5154 92.3198 64.9854C92.3199 64.4555 92.431 63.9863 92.6548 63.5781C92.8819 63.1666 93.195 62.8441 93.5933 62.6104C93.9916 62.3766 94.4478 62.2598 94.9614 62.2598ZM66.3218 65.3027C66.3218 65.612 66.3954 65.8491 66.5435 66.0137C66.6916 66.175 66.9014 66.2559 67.1714 66.2559C67.4379 66.2558 67.6517 66.1716 67.813 66.0039C67.9743 65.8328 68.0551 65.5693 68.0552 65.2139V62.3789H69.7544V67.5938H68.0747V66.749C67.9002 67.0453 67.6777 67.279 67.4077 67.4502C67.1378 67.6214 66.8073 67.707 66.4155 67.707C65.8493 67.707 65.4084 67.5262 65.0923 67.1641C64.7795 66.8019 64.6226 66.3001 64.6226 65.6582V62.3789H66.3218V65.3027ZM79.0044 62.3809H80.0757V63.6953H79.0044V65.8428C79.0044 66.0107 79.0372 66.1259 79.103 66.1885C79.1689 66.251 79.2969 66.2822 79.4878 66.2822H80.0757V67.5967H79.1128C78.4875 67.5967 78.0279 67.4797 77.7349 67.2461C77.4452 67.0091 77.3004 66.6367 77.3003 66.1299V63.6953H76.4116V62.3809H77.3003V60.959H79.0044V62.3809ZM60.9976 60.2363C61.5671 60.2363 62.0593 60.3388 62.4741 60.543C62.8888 60.7437 63.2083 61.0296 63.4321 61.4014C63.6593 61.7734 63.7729 62.2153 63.7729 62.7256C63.7729 63.1962 63.6665 63.6078 63.4526 63.96C63.2386 64.3122 62.9384 64.5892 62.5532 64.79L63.9653 67.5947H62.0894L60.8892 65.1504H59.7437V67.5947H57.9653V60.2363H60.9976ZM74.0454 62.2656C74.6116 62.2656 75.051 62.4466 75.3638 62.8086C75.6798 63.1707 75.8384 63.6734 75.8384 64.3154V67.5938H74.1392V64.6709C74.1392 64.3617 74.0654 64.1262 73.9175 63.9648C73.7693 63.8002 73.5595 63.7178 73.2896 63.7178C73.023 63.7178 72.8092 63.8035 72.6479 63.9746C72.4867 64.1425 72.4058 64.4042 72.4058 64.7598V67.5938H70.7065V62.3789H72.3862V63.2236C72.5607 62.9274 72.7833 62.6936 73.0532 62.5225C73.3231 62.3514 73.6538 62.2656 74.0454 62.2656ZM82.4614 67.5938H80.7632V62.3789H82.4614V67.5938ZM89.8247 62.2656C90.3383 62.2656 90.7601 62.4305 91.0894 62.7598C91.4218 63.0889 91.5883 63.5429 91.5884 64.1221V67.5938H89.8843V64.498C89.8843 64.2215 89.8108 64.0101 89.6626 63.8652C89.5177 63.7171 89.3296 63.6436 89.0991 63.6436C88.8588 63.6436 88.6658 63.7244 88.521 63.8857C88.3796 64.047 88.3091 64.2593 88.3091 64.5225V67.5938H86.6841V64.4785C86.6841 64.2252 86.6135 64.0225 86.4722 63.8711C86.3306 63.7196 86.144 63.6436 85.9136 63.6436C85.6832 63.6436 85.4911 63.7245 85.3364 63.8857C85.185 64.0437 85.109 64.2671 85.1089 64.5566V67.5938H83.4097V62.3789H85.0444V63.3574C85.1959 62.9854 85.4152 62.71 85.7017 62.5322C85.988 62.3545 86.3011 62.2656 86.6401 62.2656C86.9888 62.2657 87.2997 62.3563 87.5728 62.5371C87.8493 62.7149 88.0422 62.9751 88.1509 63.3174C88.2826 62.9783 88.5019 62.7182 88.8081 62.5371C89.1141 62.3562 89.453 62.2657 89.8247 62.2656ZM95.0063 63.5137C94.7201 63.5137 94.4878 63.5915 94.3101 63.7461C94.1323 63.9008 94.025 64.1154 93.9888 64.3887H96.0229C95.9835 64.1155 95.8755 63.9008 95.6978 63.7461C95.52 63.5914 95.2893 63.5137 95.0063 63.5137ZM59.7437 63.7529H60.8794C61.2349 63.7529 61.5167 63.6583 61.7241 63.4707C61.9312 63.2831 62.0346 63.0347 62.0347 62.7256C62.0347 62.4129 61.9314 62.1622 61.7241 61.9746C61.5168 61.787 61.2332 61.6934 60.8745 61.6934H59.7437V63.7529ZM81.6069 60.1562C81.8802 60.1562 82.1043 60.2371 82.2788 60.3984C82.4566 60.5565 82.5454 60.7605 82.5454 61.0107C82.5454 61.2609 82.4566 61.4666 82.2788 61.6279C82.1043 61.7892 81.8801 61.8701 81.6069 61.8701C81.3372 61.87 81.1137 61.7891 80.936 61.6279C80.7616 61.4666 80.6743 61.2609 80.6743 61.0107C80.6743 60.7605 80.7615 60.5565 80.936 60.3984C81.1137 60.2372 81.3372 60.1563 81.6069 60.1562Z" fill="black"/>
<defs>
<linearGradient id="paint0_linear_172_286" x1="18.7514" y1="-42.1379" x2="127.692" y2="-29.3843" gradientUnits="userSpaceOnUse">
<stop stop-color="white"/>
<stop offset="1" stop-color="#E7F3FF"/>
</linearGradient>
<linearGradient id="paint1_linear_172_286" x1="10" y1="57.6883" x2="111.331" y2="91.4055" gradientUnits="userSpaceOnUse">
<stop stop-color="#37A8FF"/>
<stop offset="1" stop-color="#3071FF"/>
</linearGradient>
<linearGradient id="paint2_linear_172_286" x1="32.6514" y1="68.2545" x2="49.482" y2="68.125" gradientUnits="userSpaceOnUse">
<stop stop-color="#049FFC"/>
<stop offset="1" stop-color="#19C9FF"/>
</linearGradient>
<linearGradient id="paint3_linear_172_286" x1="32.6514" y1="68.2545" x2="49.482" y2="68.125" gradientUnits="userSpaceOnUse">
<stop stop-color="#049FFC"/>
<stop offset="1" stop-color="#19C9FF"/>
</linearGradient>
</defs>
</svg>
