<svg width="128" height="128" viewBox="0 0 128 128" fill="none" xmlns="http://www.w3.org/2000/svg">
<path d="M2 6C2 3.79086 3.79086 2 6 2H122C124.209 2 126 3.79086 126 6V122C126 124.209 124.209 126 122 126H6C3.79086 126 2 124.209 2 122V6Z" fill="url(#paint0_linear_229_14124)"/>
<path d="M122 124V126H6V124H122ZM124 122V6C124 4.89543 123.105 4 122 4H6C4.89543 4 4 4.89543 4 6V122C4 123.105 4.89543 124 6 124V126C3.79086 126 2 124.209 2 122V6C2 3.85997 3.68056 2.11211 5.79395 2.00488L6 2H122L122.206 2.00488C124.319 2.11212 126 3.85996 126 6V122L125.995 122.206C125.888 124.319 124.14 126 122 126V124C123.105 124 124 123.105 124 122Z" fill="url(#paint1_linear_229_14124)"/>
<path d="M56.0555 56.82H40.3806L31.2051 43.4387H46.88L56.0555 56.82Z" fill="url(#paint2_linear_229_14124)"/>
<path d="M40.6506 14C48.1028 14 54.1439 19.991 54.1439 27.3812C54.1439 34.7715 48.1028 40.7625 40.6506 40.7625H31.2051V35.0277H40.6506C44.9089 35.0276 48.3611 31.6042 48.3611 27.3812C48.3611 23.1583 44.9089 19.7349 40.6506 19.7348H31.2051V14H40.6506Z" fill="url(#paint3_linear_229_14124)"/>
<path d="M28.5279 56.82H14V43.4387H28.5279V56.82Z" fill="#006BFF"/>
<path fill-rule="evenodd" clip-rule="evenodd" d="M28.5279 40.7625H14V14H28.5279V40.7625ZM17.8231 29.2929H24.7048V25.4696H17.8231V29.2929Z" fill="#006BFF"/>
<path d="M63.7998 115.857V114.032H64.7979C65.29 114.032 65.4268 113.841 65.5977 113.314L65.7207 112.986L62.9453 105.781H65.4062L66.4727 109.104C66.6299 109.603 66.7734 110.108 66.917 110.614C67.0537 110.108 67.2041 109.603 67.3613 109.104L68.4482 105.781H70.8818L67.7715 114.019C67.2793 115.324 66.5889 115.857 65.3789 115.857H63.7998Z" fill="black"/>
<path d="M62.3096 105.781V107.6H60.8262V110.573C60.8262 111.038 60.9697 111.182 61.4961 111.182H62.3096V113H60.9766C59.2471 113 58.4678 112.371 58.4678 110.97V107.6H57.2373V105.781H58.4678V103.812H60.8262V105.781H62.3096Z" fill="black"/>
<path d="M54.0176 113V105.781H56.3691V113H54.0176ZM55.1865 105.077C54.4346 105.077 53.8945 104.578 53.8945 103.888C53.8945 103.197 54.4346 102.705 55.1865 102.705C55.9453 102.705 56.4854 103.197 56.4854 103.888C56.4854 104.578 55.9453 105.077 55.1865 105.077Z" fill="black"/>
<path d="M48.3984 113V105.781H50.6748V107.053H50.6953C50.9551 106.137 51.4951 105.754 52.459 105.754C52.7119 105.754 52.9102 105.761 53.1016 105.768V107.709C52.9307 107.702 52.5137 107.688 52.1719 107.688C51.3311 107.688 50.75 108.276 50.75 109.302V113H48.3984Z" fill="black"/>
<path d="M42.458 113.157C40.8926 113.157 39.9766 112.098 39.9766 110.32V105.781H42.3281V109.828C42.3281 110.683 42.7588 111.147 43.5039 111.147C44.249 111.147 44.7275 110.689 44.7275 109.705V105.781H47.0791V113H44.7549V111.831C44.2764 112.658 43.5449 113.157 42.458 113.157Z" fill="black"/>
<path d="M35.4512 113.164C33.2158 113.164 31.7188 111.64 31.7188 109.391C31.7188 107.148 33.2158 105.617 35.4512 105.617C37.4609 105.617 38.8896 106.848 38.9922 108.618H36.7227C36.6475 107.928 36.1963 107.483 35.499 107.483C34.6172 107.483 34.1045 108.208 34.1045 109.391C34.1045 110.573 34.624 111.298 35.499 111.298C36.1963 111.298 36.627 110.847 36.7158 110.143H38.9922C38.9443 111.906 37.4951 113.164 35.4512 113.164Z" fill="black"/>
<path d="M27.4258 113.164C25.2109 113.164 23.707 111.592 23.707 109.391C23.707 107.189 25.2246 105.617 27.3643 105.617C29.5312 105.617 31.0283 107.148 31.0283 109.336V109.972H26.0039C26.0312 110.888 26.5781 111.469 27.5078 111.469C28.1982 111.469 28.6904 111.168 28.8613 110.689H30.9736C30.707 112.146 29.251 113.164 27.4258 113.164ZM26.0176 108.563H28.834C28.7314 107.805 28.2119 107.354 27.4258 107.354C26.6328 107.354 26.1201 107.805 26.0176 108.563Z" fill="black"/>
<path d="M18.71 113.164C15.9961 113.164 14.458 111.886 14.458 109.637H16.8027C16.8369 110.614 17.5547 111.188 18.7305 111.188C19.7695 111.188 20.46 110.751 20.46 110.081C20.46 109.5 19.9336 109.165 18.71 108.912L17.6641 108.7C15.6748 108.29 14.6562 107.306 14.6562 105.822C14.6562 103.929 16.2695 102.65 18.6621 102.65C21.1025 102.65 22.5996 103.901 22.6611 105.986H20.3848C20.3164 105.146 19.667 104.626 18.6963 104.626C17.7666 104.626 17.1172 105.07 17.1172 105.706C17.1172 106.26 17.6025 106.567 18.7646 106.807L19.6602 106.984C21.916 107.436 22.8936 108.331 22.8936 109.903C22.8936 111.954 21.335 113.164 18.71 113.164Z" fill="black"/>
<path d="M65.9258 96.1641C63.7109 96.1641 62.207 94.5918 62.207 92.3906C62.207 90.1895 63.7246 88.6172 65.8643 88.6172C68.0312 88.6172 69.5283 90.1484 69.5283 92.3359V92.9717H64.5039C64.5312 93.8877 65.0781 94.4688 66.0078 94.4688C66.6982 94.4688 67.1904 94.168 67.3613 93.6895H69.4736C69.207 95.1455 67.751 96.1641 65.9258 96.1641ZM64.5176 91.5635H67.334C67.2314 90.8047 66.7119 90.3535 65.9258 90.3535C65.1328 90.3535 64.6201 90.8047 64.5176 91.5635Z" fill="black"/>
<path d="M49.875 96.001V88.7822H52.1377V90.1357C52.5547 89.1035 53.4092 88.625 54.3457 88.625C55.3096 88.625 56.1436 89.1377 56.4375 90.0811C56.8066 89.1377 57.7227 88.625 58.7549 88.625C60.1768 88.625 61.1953 89.5889 61.1953 91.1953V96.001H58.8369V91.7148C58.8369 90.9492 58.3857 90.5322 57.75 90.5322C57.0801 90.5322 56.6562 91.0176 56.6562 91.749V96.001H54.4072V91.6875C54.4072 90.9834 53.9766 90.5322 53.3408 90.5322C52.6982 90.5322 52.2266 90.9971 52.2266 91.7969V96.001H49.875Z" fill="black"/>
<path d="M46.2109 96V88.7812H48.5625V96H46.2109ZM47.3799 88.0771C46.6279 88.0771 46.0879 87.5781 46.0879 86.8877C46.0879 86.1973 46.6279 85.7051 47.3799 85.7051C48.1387 85.7051 48.6787 86.1973 48.6787 86.8877C48.6787 87.5781 48.1387 88.0771 47.3799 88.0771Z" fill="black"/>
<path d="M45.2607 88.7812V90.5996H43.7773V93.5732C43.7773 94.0381 43.9209 94.1816 44.4473 94.1816H45.2607V96H43.9277C42.1982 96 41.4189 95.3711 41.4189 93.9697V90.5996H40.1885V88.7812H41.4189V86.8125H43.7773V88.7812H45.2607Z" fill="black"/>
<path d="M34.6445 92.0771V96.001H32.293V88.7822H34.6172V89.9512C35.0957 89.124 35.8271 88.625 36.9141 88.625C38.4795 88.625 39.3955 89.6846 39.3955 91.4619V96.001H37.0439V91.9541C37.0439 91.0996 36.6133 90.6348 35.8682 90.6348C35.123 90.6348 34.6445 91.0928 34.6445 92.0771Z" fill="black"/>
<path d="M26.3525 96.1572C24.7871 96.1572 23.8711 95.0977 23.8711 93.3203V88.7812H26.2227V92.8281C26.2227 93.6826 26.6533 94.1475 27.3984 94.1475C28.1436 94.1475 28.6221 93.6895 28.6221 92.7051V88.7812H30.9736V96H28.6494V94.8311C28.1709 95.6582 27.4395 96.1572 26.3525 96.1572Z" fill="black"/>
<path d="M14.6562 96V85.8145H18.8535C21.2119 85.8145 22.6953 87.1475 22.6953 89.2598C22.6953 90.5654 22.0732 91.5635 21.0068 92.1172L22.9619 96H20.3643L18.7031 92.6162H17.1172V96H14.6562ZM17.1172 90.6816H18.6895C19.6738 90.6816 20.2891 90.1211 20.2891 89.2598C20.2891 88.3916 19.6738 87.8311 18.6826 87.8311H17.1172V90.6816Z" fill="black"/>
<path d="M72.9336 69.7808V68.543H80.3667V69.7808H77.3643V78.001H75.9487V69.7808H72.9336Z" fill="black"/>
<path d="M64.4595 78.001V68.543H66.021L69.6328 74.2622C69.7428 74.4399 69.8931 74.6917 70.0835 75.0176C70.2739 75.3434 70.4644 75.6735 70.6548 76.0078C70.6421 75.665 70.6315 75.318 70.623 74.9668C70.6188 74.6113 70.6167 74.3468 70.6167 74.1733V68.543H72.0322V78.001H70.458L67.2271 72.8911C67.0959 72.6838 66.9054 72.3748 66.6558 71.9644C66.4103 71.5496 66.131 71.0736 65.8179 70.5361C65.839 71.0905 65.8517 71.5687 65.856 71.9707C65.8644 72.3685 65.8687 72.6732 65.8687 72.8848V78.001H64.4595Z" fill="black"/>
<path d="M57.064 78.001V68.543H63.4243V69.7808H58.4731V72.5674H63.0562V73.7925H58.4731V76.7632H63.4243V78.001H57.064Z" fill="black"/>
<path d="M50.2656 78.001V68.543H51.6748V76.7632H56.1499V78.001H50.2656Z" fill="black"/>
<path d="M41.0039 78.001L44.438 68.543H46.1392L49.5479 78.001H48.0181L47.1802 75.5444H43.3652L42.502 78.001H41.0039ZM43.7905 74.3447H46.7676L46.1963 72.6689C46.0693 72.2796 45.9339 71.8628 45.79 71.4185C45.6462 70.9741 45.4811 70.4451 45.2949 69.8315C45.1045 70.4451 44.9373 70.9741 44.7935 71.4185C44.6496 71.8628 44.512 72.2796 44.3809 72.6689L43.7905 74.3447Z" fill="black"/>
<path d="M37.2969 78.001L33.8628 68.543H35.3799L37.2524 73.875C37.3667 74.2178 37.4979 74.6219 37.646 75.0874C37.7941 75.5529 37.9676 76.0967 38.1665 76.7188C38.3569 76.0967 38.5241 75.5529 38.668 75.0874C38.8161 74.6219 38.9473 74.2178 39.0615 73.875L40.8833 68.543H42.375L38.9917 78.001H37.2969Z" fill="black"/>
<path d="M29.6284 78.1533C28.7905 78.1533 28.0436 77.9481 27.3877 77.5376C26.7318 77.1271 26.2155 76.5558 25.8389 75.8237C25.4665 75.0916 25.2803 74.2432 25.2803 73.2783C25.2803 72.3092 25.4665 71.4587 25.8389 70.7266C26.2155 69.9902 26.7318 69.4168 27.3877 69.0063C28.0436 68.5959 28.7905 68.3906 29.6284 68.3906C30.4705 68.3906 31.2196 68.5959 31.8755 69.0063C32.5314 69.4168 33.0456 69.9902 33.418 70.7266C33.7946 71.4587 33.9829 72.3092 33.9829 73.2783C33.9829 74.2432 33.7946 75.0916 33.418 75.8237C33.0456 76.5558 32.5314 77.1271 31.8755 77.5376C31.2196 77.9481 30.4705 78.1533 29.6284 78.1533ZM29.6284 76.8647C30.1743 76.8647 30.6694 76.7272 31.1138 76.4521C31.5581 76.1729 31.9115 75.7666 32.1738 75.2334C32.4362 74.696 32.5674 74.0443 32.5674 73.2783C32.5674 72.5081 32.4362 71.8543 32.1738 71.3169C31.9115 70.7795 31.5581 70.3732 31.1138 70.0981C30.6694 69.8188 30.1743 69.6792 29.6284 69.6792C29.0868 69.6792 28.5938 69.8188 28.1494 70.0981C27.7051 70.3732 27.3517 70.7795 27.0894 71.3169C26.827 71.8543 26.6958 72.5081 26.6958 73.2783C26.6958 74.0443 26.827 74.696 27.0894 75.2334C27.3517 75.7666 27.7051 76.1729 28.1494 76.4521C28.5938 76.7272 29.0868 76.8647 29.6284 76.8647Z" fill="black"/>
<path d="M21.0146 78.1533C19.8805 78.1533 18.9855 77.8677 18.3296 77.2964C17.6779 76.7209 17.3521 75.9338 17.3521 74.9351H18.7612C18.7655 75.5571 18.9644 76.0438 19.3579 76.395C19.7557 76.7463 20.3079 76.9219 21.0146 76.9219C21.6579 76.9219 22.172 76.7865 22.5571 76.5156C22.9465 76.2406 23.1411 75.8724 23.1411 75.4111C23.1411 75.0472 23.0015 74.7531 22.7222 74.5288C22.4471 74.3003 21.9816 74.1077 21.3257 73.9512L20.291 73.7036C19.3346 73.4751 18.6364 73.1577 18.1963 72.7515C17.7604 72.341 17.5425 71.8078 17.5425 71.1519C17.5425 70.5975 17.6821 70.113 17.9614 69.6982C18.2407 69.2835 18.6322 68.9619 19.1357 68.7334C19.6436 68.5049 20.236 68.3906 20.9131 68.3906C21.9329 68.3906 22.7433 68.6572 23.3442 69.1904C23.9494 69.7236 24.2668 70.4515 24.2964 71.374H22.9316C22.8978 70.8281 22.6989 70.4007 22.335 70.0918C21.971 69.7786 21.4907 69.6221 20.894 69.6221C20.3228 69.6221 19.8551 69.7596 19.4912 70.0347C19.1273 70.3055 18.9453 70.6546 18.9453 71.082C18.9453 71.4248 19.085 71.7041 19.3643 71.9199C19.6436 72.1315 20.1069 72.3156 20.7544 72.4722L21.7764 72.7134C22.7243 72.9377 23.4225 73.2614 23.8711 73.6846C24.3239 74.1077 24.5503 74.6579 24.5503 75.335C24.5503 75.902 24.4043 76.3971 24.1123 76.8203C23.8203 77.2435 23.4098 77.5715 22.8809 77.8042C22.3519 78.0369 21.7298 78.1533 21.0146 78.1533Z" fill="black"/>
<path d="M16.2725 68.543V78.001H14.8633V68.543H16.2725Z" fill="black"/>
<defs>
<linearGradient id="paint0_linear_229_14124" x1="-19.5" y1="-42.5" x2="140" y2="143.5" gradientUnits="userSpaceOnUse">
<stop stop-color="white"/>
<stop offset="1" stop-color="#E7F3FF"/>
</linearGradient>
<linearGradient id="paint1_linear_229_14124" x1="2" y1="49.5065" x2="127.744" y2="70.4267" gradientUnits="userSpaceOnUse">
<stop stop-color="#37A8FF"/>
<stop offset="1" stop-color="#3071FF"/>
</linearGradient>
<linearGradient id="paint2_linear_229_14124" x1="31.2051" y1="40.9537" x2="56.0555" y2="40.7625" gradientUnits="userSpaceOnUse">
<stop stop-color="#049FFC"/>
<stop offset="1" stop-color="#19C9FF"/>
</linearGradient>
<linearGradient id="paint3_linear_229_14124" x1="31.2051" y1="40.9537" x2="56.0555" y2="40.7625" gradientUnits="userSpaceOnUse">
<stop stop-color="#049FFC"/>
<stop offset="1" stop-color="#19C9FF"/>
</linearGradient>
</defs>
</svg>
