<svg width="128" height="128" viewBox="0 0 128 128" fill="none" xmlns="http://www.w3.org/2000/svg">
<path d="M127 15.0909C127 14.4884 126.512 14 125.909 14L2.09095 14C1.48846 14 1.00005 14.4884 1.00005 15.0909L1.00013 113.273C1.00013 113.875 1.48855 114.364 2.09104 114.364L125.909 114.364C126.512 114.364 127 113.875 127 113.273L127 15.0909Z" fill="url(#paint0_linear_215_10659)"/>
<path opacity="0.5" d="M124.273 111.636L3.72741 111.636L3.72733 16.7273L124.273 16.7273L124.273 111.636ZM1.00014 113.273L1.006 113.384C1.05806 113.898 1.46617 114.306 1.97972 114.358L2.09105 114.364L125.909 114.364L126.021 114.358C126.534 114.306 126.942 113.898 126.994 113.384L127 113.273L127 15.0909C127 14.4884 126.512 14 125.909 14L2.09096 14L1.97963 14.0059C1.42948 14.0617 1.00005 14.526 1.00005 15.0909L1.00014 113.273Z" fill="url(#paint1_linear_215_10659)"/>
<path d="M2.09104 113.273L2.09105 114.364L125.909 114.364L125.909 113.273L2.09104 113.273ZM2.09096 15.0909L125.909 15.0909L125.909 114.364L126.021 114.358C126.534 114.306 126.942 113.898 126.994 113.384L127 113.273L127 15.0909C127 14.4884 126.512 14 125.909 14L2.09096 14L1.97963 14.0059C1.42948 14.0617 1.00005 14.526 1.00005 15.0909L1.00014 113.273L1.006 113.384C1.05806 113.898 1.46617 114.306 1.97972 114.358L2.09105 114.364L2.09096 15.0909Z" fill="#FEB36D"/>
<path d="M76.0519 103.01C75.5379 103.01 75.1078 102.89 74.7615 102.651C74.418 102.408 74.2302 102.061 74.1982 101.608H75.193C75.2143 101.813 75.2969 101.973 75.4407 102.087C75.5845 102.199 75.7829 102.255 76.036 102.255C76.2783 102.255 76.4688 102.207 76.6072 102.111C76.7484 102.015 76.819 101.893 76.819 101.744C76.819 101.616 76.767 101.513 76.6632 101.436C76.5593 101.359 76.4195 101.302 76.2437 101.264L75.5246 101.116C74.7043 100.946 74.2941 100.54 74.2941 99.898C74.2941 99.5091 74.4486 99.1962 74.7575 98.9592C75.0665 98.7195 75.478 98.5996 75.992 98.5996C76.5034 98.5996 76.9189 98.7261 77.2385 98.9791C77.5607 99.2295 77.7272 99.5717 77.7378 100.006H76.791C76.7857 99.8168 76.7124 99.661 76.5713 99.5384C76.4301 99.4159 76.245 99.3547 76.016 99.3547C75.7949 99.3547 75.6205 99.4039 75.4926 99.5025C75.3648 99.601 75.3009 99.7222 75.3009 99.866C75.3009 99.9912 75.3501 100.094 75.4487 100.174C75.5472 100.251 75.6844 100.309 75.8602 100.349L76.6192 100.505C77.0374 100.593 77.345 100.732 77.5421 100.921C77.7418 101.11 77.8417 101.359 77.8417 101.668C77.8417 101.942 77.7645 102.18 77.61 102.383C77.4582 102.583 77.2478 102.737 76.9788 102.846C76.7098 102.956 76.4008 103.01 76.0519 103.01Z" fill="black"/>
<path d="M71.7288 103.006C71.308 103.006 70.9431 102.912 70.6342 102.723C70.3252 102.533 70.0869 102.274 69.9191 101.944C69.754 101.611 69.6714 101.231 69.6714 100.805C69.6714 100.376 69.7566 99.9966 69.9271 99.6664C70.1002 99.3335 70.3386 99.0724 70.6422 98.8833C70.9458 98.6916 71.2947 98.5957 71.6889 98.5957C72.0937 98.5957 72.4479 98.6889 72.7516 98.8754C73.0552 99.0618 73.2909 99.3201 73.4587 99.6504C73.6265 99.978 73.7104 100.358 73.7104 100.789V101.065H70.6582C70.6715 101.408 70.7727 101.685 70.9618 101.896C71.1509 102.106 71.4146 102.211 71.7528 102.211C72.0058 102.211 72.2149 102.157 72.38 102.047C72.5451 101.936 72.657 101.789 72.7156 101.608H73.6584C73.6052 101.882 73.488 102.125 73.3069 102.335C73.1284 102.545 72.9034 102.711 72.6317 102.83C72.36 102.948 72.0591 103.006 71.7288 103.006ZM70.6661 100.369H72.7436C72.7116 100.069 72.6024 99.8315 72.416 99.6584C72.2322 99.4826 71.9952 99.3947 71.7049 99.3947C71.4119 99.3947 71.1735 99.4826 70.9897 99.6584C70.8086 99.8315 70.7008 100.069 70.6661 100.369Z" fill="black"/>
<path d="M67.2753 103.006C66.8651 103.006 66.5043 102.913 66.1926 102.727C65.8837 102.54 65.6427 102.282 65.4695 101.952C65.2991 101.621 65.2139 101.239 65.2139 100.805C65.2139 100.371 65.2991 99.9886 65.4695 99.6584C65.6427 99.3255 65.8837 99.0658 66.1926 98.8794C66.5043 98.6903 66.8651 98.5957 67.2753 98.5957C67.6295 98.5957 67.9451 98.665 68.2221 98.8034C68.4991 98.9393 68.7215 99.1284 68.8893 99.3707C69.0597 99.6104 69.1596 99.8874 69.1889 100.202H68.2021C68.1649 99.9753 68.0676 99.7915 67.9105 99.6504C67.756 99.5066 67.5483 99.4347 67.2873 99.4347C66.957 99.4347 66.6987 99.5585 66.5123 99.8062C66.3258 100.054 66.2326 100.387 66.2326 100.805C66.2326 101.22 66.3258 101.552 66.5123 101.8C66.6987 102.045 66.957 102.167 67.2873 102.167C67.551 102.167 67.756 102.098 67.9025 101.96C68.049 101.818 68.1462 101.631 68.1942 101.396H69.1889C69.165 101.705 69.0677 101.981 68.8973 102.223C68.7295 102.466 68.5058 102.657 68.2261 102.798C67.9491 102.937 67.6322 103.006 67.2753 103.006Z" fill="black"/>
<path d="M62.2687 102.978C61.8479 102.978 61.499 102.873 61.222 102.662C60.9477 102.449 60.8105 102.132 60.8105 101.712C60.8105 101.392 60.8878 101.146 61.0423 100.972C61.1994 100.797 61.4031 100.669 61.6535 100.589C61.9065 100.509 62.1782 100.454 62.4685 100.425C62.86 100.38 63.133 100.34 63.2875 100.305C63.4419 100.271 63.5192 100.181 63.5192 100.038V100.006C63.5192 99.8246 63.4499 99.6768 63.3114 99.5622C63.1756 99.4477 62.9878 99.3904 62.7481 99.3904C62.5031 99.3904 62.3034 99.4477 62.1489 99.5622C61.9971 99.6768 61.9145 99.8232 61.9012 100.002H60.9304C60.9544 99.5835 61.1288 99.2466 61.4537 98.9909C61.7787 98.7353 62.2168 98.6074 62.7681 98.6074C63.3168 98.6074 63.7456 98.7353 64.0545 98.9909C64.3635 99.2466 64.5179 99.5942 64.5179 100.034V102.91H63.5272V102.315H63.5112C63.41 102.501 63.2635 102.658 63.0717 102.786C62.88 102.914 62.6123 102.978 62.2687 102.978ZM62.5164 102.231C62.8467 102.231 63.097 102.146 63.2675 101.975C63.4379 101.802 63.5232 101.593 63.5232 101.348V100.893C63.4619 100.933 63.3434 100.97 63.1676 101.004C62.9918 101.036 62.8001 101.068 62.5923 101.1C62.3766 101.132 62.1888 101.194 62.029 101.284C61.8719 101.372 61.7933 101.512 61.7933 101.704C61.7933 101.869 61.8586 101.998 61.9891 102.091C62.1196 102.184 62.2954 102.231 62.5164 102.231Z" fill="black"/>
<path d="M58.1465 102.909V98.6903H59.1173V99.3895H59.1293C59.2065 99.1498 59.3277 98.9673 59.4928 98.8422C59.6606 98.7143 59.8803 98.6504 60.152 98.6504C60.2212 98.6504 60.2825 98.6531 60.3358 98.6584C60.3917 98.661 60.4396 98.6637 60.4796 98.6664V99.5613C60.4423 99.5559 60.3784 99.5493 60.2878 99.5413C60.1973 99.5333 60.1027 99.5293 60.0042 99.5293C59.7645 99.5293 59.5621 99.6119 59.3969 99.777C59.2345 99.9421 59.1532 100.19 59.1532 100.52V102.909H58.1465Z" fill="black"/>
<path d="M53.4082 97.8699V96.9551H58.1663V97.8699H56.3206V102.908H55.2619V97.8699H53.4082Z" fill="black"/>
<path d="M47.4321 102.908V96.9551H48.4389V100.399H48.4509L50.0928 98.6889H51.3033L49.5894 100.511L51.4072 102.908H50.2047L48.8224 101.102L48.4389 101.497V102.908H47.4321Z" fill="black"/>
<path d="M44.8383 103.006C44.4281 103.006 44.0672 102.913 43.7556 102.727C43.4467 102.54 43.2057 102.282 43.0325 101.952C42.8621 101.621 42.7769 101.239 42.7769 100.805C42.7769 100.371 42.8621 99.9886 43.0325 99.6584C43.2057 99.3255 43.4467 99.0658 43.7556 98.8794C44.0672 98.6903 44.4281 98.5957 44.8383 98.5957C45.1925 98.5957 45.5081 98.665 45.7851 98.8034C46.0621 98.9393 46.2845 99.1284 46.4523 99.3707C46.6227 99.6104 46.7226 99.8874 46.7519 100.202H45.7651C45.7278 99.9753 45.6306 99.7915 45.4735 99.6504C45.319 99.5066 45.1113 99.4347 44.8503 99.4347C44.52 99.4347 44.2617 99.5585 44.0752 99.8062C43.8888 100.054 43.7956 100.387 43.7956 100.805C43.7956 101.22 43.8888 101.552 44.0752 101.8C44.2617 102.045 44.52 102.167 44.8503 102.167C45.1139 102.167 45.319 102.098 45.4655 101.96C45.612 101.818 45.7092 101.631 45.7571 101.396H46.7519C46.7279 101.705 46.6307 101.981 46.4603 102.223C46.2925 102.466 46.0688 102.657 45.7891 102.798C45.5121 102.937 45.1952 103.006 44.8383 103.006Z" fill="black"/>
<path d="M39.8317 102.978C39.4109 102.978 39.062 102.873 38.785 102.662C38.5107 102.449 38.3735 102.132 38.3735 101.712C38.3735 101.392 38.4508 101.146 38.6052 100.972C38.7624 100.797 38.9661 100.669 39.2165 100.589C39.4695 100.509 39.7412 100.454 40.0315 100.425C40.423 100.38 40.696 100.34 40.8505 100.305C41.0049 100.271 41.0822 100.181 41.0822 100.038V100.006C41.0822 99.8246 41.0129 99.6768 40.8744 99.5622C40.7386 99.4477 40.5508 99.3904 40.3111 99.3904C40.0661 99.3904 39.8663 99.4477 39.7119 99.5622C39.5601 99.6768 39.4775 99.8232 39.4642 100.002H38.4934C38.5174 99.5835 38.6918 99.2466 39.0167 98.9909C39.3417 98.7353 39.7798 98.6074 40.3311 98.6074C40.8797 98.6074 41.3085 98.7353 41.6175 98.9909C41.9264 99.2466 42.0809 99.5942 42.0809 100.034V102.91H41.0902V102.315H41.0742C40.973 102.501 40.8265 102.658 40.6347 102.786C40.443 102.914 40.1753 102.978 39.8317 102.978ZM40.0794 102.231C40.4097 102.231 40.66 102.146 40.8305 101.975C41.0009 101.802 41.0862 101.593 41.0862 101.348V100.893C41.0249 100.933 40.9064 100.97 40.7306 101.004C40.5548 101.036 40.3631 101.068 40.1553 101.1C39.9396 101.132 39.7518 101.194 39.592 101.284C39.4349 101.372 39.3563 101.512 39.3563 101.704C39.3563 101.869 39.4216 101.998 39.5521 102.091C39.6826 102.184 39.8584 102.231 40.0794 102.231Z" fill="black"/>
<path d="M37.8152 98.6877V99.4987H36.9563V101.696C36.9563 101.848 36.9869 101.953 37.0482 102.012C37.1094 102.067 37.2213 102.095 37.3837 102.095H37.8152V102.906H37.208C36.7792 102.906 36.4609 102.82 36.2532 102.647C36.0481 102.474 35.9455 102.206 35.9455 101.844V99.4987H35.2104V98.6877H35.9455V97.5371H36.9563V98.6877H37.8152Z" fill="black"/>
<path d="M32.5587 103.008C31.821 103.008 31.243 102.828 30.8249 102.468C30.4094 102.106 30.2017 101.607 30.2017 100.97H31.2364C31.2417 101.33 31.3602 101.611 31.5919 101.813C31.8263 102.016 32.1512 102.117 32.5667 102.117C32.9369 102.117 33.2352 102.04 33.4616 101.885C33.688 101.728 33.8012 101.519 33.8012 101.258C33.8012 101.047 33.716 100.877 33.5455 100.746C33.375 100.613 33.0914 100.501 32.6946 100.411L32.0554 100.267C31.4614 100.131 31.0233 99.9301 30.741 99.6638C30.4587 99.3975 30.3175 99.0552 30.3175 98.6371C30.3175 98.2828 30.4081 97.9726 30.5892 97.7062C30.7729 97.4399 31.0286 97.2335 31.3562 97.087C31.6865 96.9379 32.07 96.8633 32.5068 96.8633C33.1726 96.8633 33.7 97.0324 34.0888 97.3706C34.4803 97.7089 34.6841 98.1737 34.7001 98.7649H33.6973C33.676 98.4506 33.5588 98.2043 33.3457 98.0258C33.1327 97.8474 32.8517 97.7582 32.5028 97.7582C32.1725 97.7582 31.9022 97.8354 31.6918 97.9899C31.4814 98.1444 31.3762 98.3428 31.3762 98.5851C31.3762 98.7849 31.4588 98.9474 31.6239 99.0725C31.7917 99.195 32.07 99.3002 32.4589 99.3881L33.0621 99.528C33.68 99.6638 34.1328 99.8662 34.4204 100.135C34.7081 100.404 34.8519 100.757 34.8519 101.194C34.8519 101.564 34.7587 101.885 34.5722 102.157C34.3858 102.428 34.1208 102.639 33.7772 102.788C33.4336 102.934 33.0275 103.008 32.5587 103.008Z" fill="black"/>
<path d="M22.0159 101.631C22.2017 101.529 22.356 101.485 22.5507 101.601C22.7014 101.691 22.8837 101.731 23.0327 101.822C23.1362 101.885 23.2729 101.997 23.2783 102.094C23.2835 102.19 23.1663 102.331 23.0663 102.391C21.693 103.208 20.3124 104.013 18.9338 104.821C18.776 104.914 18.6131 105 18.4518 105.09L18.4496 105.088C18.3532 105.046 18.2726 105.018 18.2025 104.977C16.7204 104.109 15.24 103.243 13.7632 102.368C13.6668 102.31 13.5461 102.173 13.5581 102.091C13.5721 101.987 13.6982 101.88 13.8 101.812C14.2805 101.484 14.7191 101.538 15.2259 101.848C16.1695 102.427 17.1661 102.916 18.1343 103.455C18.3272 103.562 18.4831 103.562 18.676 103.455C19.7863 102.841 20.9056 102.243 22.0159 101.631Z" fill="#CE6706"/>
<path d="M21.9434 99.1355C22.0943 99.053 22.2155 99.0442 22.3664 99.1179C22.6101 99.2354 22.8681 99.3233 23.1084 99.446C23.1987 99.4931 23.2615 99.5951 23.3736 99.7113C23.2391 99.8267 23.1533 99.9281 23.0466 99.9893C21.7066 100.765 20.3686 101.54 19.0233 102.305C18.3112 102.71 18.5689 102.706 17.8568 102.301C16.5115 101.536 15.1716 100.763 13.8351 99.984C13.7193 99.9156 13.5703 99.7667 13.5773 99.6649C13.5844 99.5615 13.756 99.4546 13.8735 99.3757C14.4154 99.0056 14.9068 99.0807 15.4645 99.4332C16.3204 99.9717 17.2427 100.409 18.1284 100.905C18.3406 101.024 18.5073 101.015 18.716 100.9C19.7876 100.305 20.87 99.7283 21.9434 99.1355Z" fill="#CE6706"/>
<path d="M18.6504 95.354C20.1062 95.9486 21.5638 96.5394 23.0178 97.1428C23.1265 97.1866 23.2531 97.3042 23.2724 97.4059C23.2865 97.4813 23.1548 97.6184 23.0583 97.6728C21.5903 98.4795 20.117 99.274 18.6473 100.077C18.4807 100.168 18.342 100.17 18.1737 100.077C16.7039 99.2722 15.2302 98.4778 13.7621 97.6728C13.664 97.6202 13.5327 97.4835 13.5464 97.408C13.5639 97.3064 13.6919 97.1888 13.7989 97.1449C15.2599 96.538 16.7246 95.9434 18.1892 95.3471C18.2593 95.3191 18.3316 95.2978 18.407 95.2715H18.4086C18.491 95.2995 18.5733 95.3225 18.6504 95.354Z" fill="#CE6706"/>
<path d="M23.3763 99.714C23.3754 99.7131 23.3745 99.7122 23.3736 99.7113L23.3747 99.7108L23.3763 99.714Z" fill="#CE6706"/>
<path d="M85.7603 71.2685V67.0497H86.731V67.7488H86.743C86.8203 67.5091 86.9415 67.3267 87.1066 67.2015C87.2744 67.0737 87.4941 67.0098 87.7658 67.0098C87.835 67.0098 87.8963 67.0124 87.9495 67.0178C88.0055 67.0204 88.0534 67.0231 88.0934 67.0257V67.9206C88.0561 67.9153 87.9921 67.9086 87.9016 67.9007C87.811 67.8927 87.7165 67.8887 87.6179 67.8887C87.3782 67.8887 87.1758 67.9712 87.0107 68.1364C86.8482 68.3015 86.767 68.5492 86.767 68.8794V71.2685H85.7603Z" fill="black"/>
<path d="M82.9798 71.3675C82.5644 71.3675 82.2008 71.2757 81.8892 71.0919C81.5776 70.9055 81.3339 70.6471 81.1581 70.3168C80.985 69.9866 80.8984 69.6031 80.8984 69.1663C80.8984 68.7295 80.985 68.346 81.1581 68.0157C81.3339 67.6828 81.5776 67.4231 81.8892 67.2367C82.2008 67.0502 82.5644 66.957 82.9798 66.957C83.3927 66.957 83.7549 67.0502 84.0665 67.2367C84.3808 67.4231 84.6245 67.6828 84.7976 68.0157C84.9734 68.346 85.0613 68.7295 85.0613 69.1663C85.0613 69.6031 84.9734 69.9866 84.7976 70.3168C84.6245 70.6471 84.3808 70.9055 84.0665 71.0919C83.7549 71.2757 83.3927 71.3675 82.9798 71.3675ZM82.9798 70.5246C83.3021 70.5246 83.5591 70.4034 83.7509 70.161C83.9426 69.9187 84.0385 69.5871 84.0385 69.1663C84.0385 68.7455 83.9426 68.4126 83.7509 68.1675C83.5591 67.9225 83.3021 67.8 82.9798 67.8C82.6549 67.8 82.3966 67.9225 82.2048 68.1675C82.0131 68.4099 81.9172 68.7428 81.9172 69.1663C81.9172 69.5871 82.0131 69.9187 82.2048 70.161C82.3966 70.4034 82.6549 70.5246 82.9798 70.5246Z" fill="black"/>
<path d="M80.5218 67.0549V67.8659H79.6628V70.0631C79.6628 70.2149 79.6934 70.3201 79.7547 70.3787C79.816 70.4347 79.9278 70.4626 80.0903 70.4626H80.5218V71.2736H79.9145C79.4857 71.2736 79.1674 71.1871 78.9597 71.0139C78.7546 70.8408 78.6521 70.5732 78.6521 70.2109V67.8659H77.917V67.0549H78.6521V65.9043H79.6628V67.0549H80.5218Z" fill="black"/>
<path d="M75.7045 71.3675C75.2943 71.3675 74.9335 71.2743 74.6218 71.0879C74.3129 70.9015 74.0719 70.6431 73.8987 70.3129C73.7283 69.9826 73.6431 69.6004 73.6431 69.1663C73.6431 68.7322 73.7283 68.35 73.8987 68.0197C74.0719 67.6868 74.3129 67.4271 74.6218 67.2407C74.9335 67.0516 75.2943 66.957 75.7045 66.957C76.0587 66.957 76.3743 67.0263 76.6513 67.1648C76.9283 67.3006 77.1507 67.4897 77.3185 67.7321C77.4889 67.9718 77.5888 68.2488 77.6181 68.563H76.6313C76.5941 68.3366 76.4968 68.1529 76.3397 68.0117C76.1852 67.8679 75.9775 67.796 75.7165 67.796C75.3862 67.796 75.1279 67.9198 74.9415 68.1675C74.755 68.4152 74.6618 68.7481 74.6618 69.1663C74.6618 69.5818 74.755 69.9134 74.9415 70.161C75.1279 70.4061 75.3862 70.5286 75.7165 70.5286C75.9802 70.5286 76.1852 70.4593 76.3317 70.3208C76.4782 70.1797 76.5754 69.9919 76.6234 69.7575H77.6181C77.5941 70.0665 77.4969 70.3422 77.3265 70.5845C77.1587 70.8269 76.935 71.0186 76.6553 71.1598C76.3783 71.2983 76.0614 71.3675 75.7045 71.3675Z" fill="black"/>
<path d="M71.1697 71.3675C70.7489 71.3675 70.3841 71.273 70.0751 71.0839C69.7662 70.8948 69.5278 70.6351 69.36 70.3049C69.1949 69.9719 69.1123 69.5924 69.1123 69.1663C69.1123 68.7375 69.1975 68.358 69.368 68.0277C69.5411 67.6948 69.7795 67.4338 70.0831 67.2447C70.3867 67.0529 70.7356 66.957 71.1298 66.957C71.5346 66.957 71.8888 67.0502 72.1925 67.2367C72.4961 67.4231 72.7318 67.6815 72.8996 68.0117C73.0674 68.3393 73.1513 68.7188 73.1513 69.1503V69.426H70.0991C70.1124 69.7695 70.2136 70.0465 70.4027 70.2569C70.5918 70.4673 70.8555 70.5725 71.1937 70.5725C71.4467 70.5725 71.6558 70.5179 71.8209 70.4087C71.9861 70.2969 72.0979 70.1504 72.1565 69.9693H73.0993C73.0461 70.2436 72.9289 70.486 72.7478 70.6964C72.5693 70.9068 72.3443 71.0719 72.0726 71.1918C71.801 71.3089 71.5 71.3675 71.1697 71.3675ZM70.1071 68.7308H72.1845C72.1525 68.4299 72.0433 68.1928 71.8569 68.0197C71.6731 67.8439 71.4361 67.756 71.1458 67.756C70.8528 67.756 70.6144 67.8439 70.4307 68.0197C70.2496 68.1928 70.1417 68.4299 70.1071 68.7308Z" fill="black"/>
<path d="M68.4125 65.3223V71.2749H67.4058V65.3223H68.4125Z" fill="black"/>
<path d="M66.5107 65.3223V71.2749H65.5039V65.3223H66.5107Z" fill="black"/>
<path d="M62.7235 71.3675C62.308 71.3675 61.9445 71.2757 61.6329 71.0919C61.3212 70.9055 61.0775 70.6471 60.9018 70.3168C60.7286 69.9866 60.6421 69.6031 60.6421 69.1663C60.6421 68.7295 60.7286 68.346 60.9018 68.0157C61.0775 67.6828 61.3212 67.4231 61.6329 67.2367C61.9445 67.0502 62.308 66.957 62.7235 66.957C63.1363 66.957 63.4985 67.0502 63.8101 67.2367C64.1244 67.4231 64.3681 67.6828 64.5412 68.0157C64.717 68.346 64.8049 68.7295 64.8049 69.1663C64.8049 69.6031 64.717 69.9866 64.5412 70.3168C64.3681 70.6471 64.1244 70.9055 63.8101 71.0919C63.4985 71.2757 63.1363 71.3675 62.7235 71.3675ZM62.7235 70.5246C63.0458 70.5246 63.3028 70.4034 63.4945 70.161C63.6863 69.9187 63.7822 69.5871 63.7822 69.1663C63.7822 68.7455 63.6863 68.4126 63.4945 68.1675C63.3028 67.9225 63.0458 67.8 62.7235 67.8C62.3986 67.8 62.1402 67.9225 61.9485 68.1675C61.7567 68.4099 61.6608 68.7428 61.6608 69.1663C61.6608 69.5871 61.7567 69.9187 61.9485 70.161C62.1402 70.4034 62.3986 70.5246 62.7235 70.5246Z" fill="black"/>
<path d="M57.5555 71.367C57.0068 71.367 56.5221 71.2405 56.1013 70.9875C55.6805 70.7345 55.3502 70.3776 55.1105 69.9168C54.8708 69.4561 54.751 68.9167 54.751 68.2988C54.751 67.6756 54.8708 67.1336 55.1105 66.6729C55.3502 66.2121 55.6805 65.8552 56.1013 65.6022C56.5221 65.3492 57.0068 65.2227 57.5555 65.2227C58.0029 65.2227 58.4078 65.3105 58.77 65.4863C59.1322 65.6621 59.4305 65.9098 59.6649 66.2294C59.9019 66.549 60.0537 66.9259 60.1203 67.36H59.0456C58.9657 66.9818 58.7939 66.6888 58.5303 66.4811C58.2666 66.2733 57.9443 66.1695 57.5635 66.1695C57.2013 66.1695 56.8883 66.2574 56.6246 66.4331C56.3636 66.6089 56.1626 66.8566 56.0214 67.1762C55.8829 67.4958 55.8137 67.87 55.8137 68.2988C55.8137 68.725 55.8829 69.0978 56.0214 69.4174C56.1626 69.7344 56.3636 69.9807 56.6246 70.1565C56.8857 70.3323 57.1986 70.4202 57.5635 70.4202C57.9417 70.4202 58.2626 70.3176 58.5263 70.1126C58.79 69.9075 58.9644 69.6159 59.0496 69.2377H60.1203C60.0537 69.6718 59.9019 70.0487 59.6649 70.3683C59.4305 70.6852 59.1322 70.9316 58.77 71.1073C58.4078 71.2805 58.0029 71.367 57.5555 71.367Z" fill="black"/>
<path d="M52.4202 67.0549V67.8659H51.5613V70.0631C51.5613 70.2149 51.5919 70.3201 51.6531 70.3787C51.7144 70.4347 51.8263 70.4626 51.9887 70.4626H52.4202V71.2736H51.8129C51.3841 71.2736 51.0659 71.1871 50.8581 71.0139C50.6531 70.8408 50.5505 70.5732 50.5505 70.2109V67.8659H49.8154V67.0549H50.5505V65.9043H51.5613V67.0549H52.4202Z" fill="black"/>
<path d="M47.1279 71.2685V67.0497H48.0987V67.7488H48.1107C48.1879 67.5091 48.3091 67.3267 48.4743 67.2015C48.642 67.0737 48.8618 67.0098 49.1334 67.0098C49.2027 67.0098 49.2639 67.0124 49.3172 67.0178C49.3731 67.0204 49.4211 67.0231 49.461 67.0257V67.9206C49.4237 67.9153 49.3598 67.9086 49.2693 67.9007C49.1787 67.8927 49.0842 67.8887 48.9856 67.8887C48.7459 67.8887 48.5435 67.9712 48.3784 68.1364C48.2159 68.3015 48.1347 68.5492 48.1347 68.8794V71.2685H47.1279Z" fill="black"/>
<path d="M43.9875 71.3393C43.5667 71.3393 43.2178 71.2341 42.9408 71.0237C42.6665 70.8106 42.5293 70.4937 42.5293 70.0729C42.5293 69.7533 42.6065 69.5069 42.761 69.3338C42.9181 69.158 43.1219 69.0302 43.3722 68.9503C43.6253 68.8704 43.8969 68.8158 44.1872 68.7865C44.5787 68.7412 44.8517 68.7013 45.0062 68.6666C45.1607 68.632 45.2379 68.5428 45.2379 68.399V68.367C45.2379 68.1859 45.1687 68.0381 45.0302 67.9236C44.8944 67.809 44.7066 67.7518 44.4669 67.7518C44.2219 67.7518 44.0221 67.809 43.8676 67.9236C43.7158 68.0381 43.6333 68.1846 43.6199 68.363H42.6491C42.6731 67.9449 42.8476 67.608 43.1725 67.3523C43.4974 67.0966 43.9355 66.9688 44.4869 66.9688C45.0355 66.9688 45.4643 67.0966 45.7733 67.3523C46.0822 67.608 46.2367 67.9555 46.2367 68.395V71.2714H45.2459V70.6761H45.2299C45.1287 70.8626 44.9822 71.0197 44.7905 71.1475C44.5987 71.2754 44.3311 71.3393 43.9875 71.3393ZM44.2352 70.5922C44.5654 70.5922 44.8158 70.507 44.9862 70.3366C45.1567 70.1634 45.2419 69.9544 45.2419 69.7093V69.2539C45.1807 69.2939 45.0621 69.3311 44.8864 69.3658C44.7106 69.3977 44.5188 69.4297 44.3111 69.4616C44.0953 69.4936 43.9076 69.5549 43.7478 69.6454C43.5906 69.7333 43.5121 69.8731 43.5121 70.0649C43.5121 70.23 43.5773 70.3592 43.7078 70.4524C43.8383 70.5456 44.0141 70.5922 44.2352 70.5922Z" fill="black"/>
<path d="M35.5894 71.2714V67.0526H36.5641V67.7837C36.692 67.5121 36.8691 67.3083 37.0955 67.1725C37.3219 67.0367 37.5682 66.9688 37.8346 66.9688C38.1195 66.9688 38.3712 67.042 38.5896 67.1885C38.808 67.3323 38.9612 67.5254 39.0491 67.7678C39.1609 67.5254 39.3354 67.3323 39.5724 67.1885C39.8094 67.042 40.0824 66.9688 40.3914 66.9688C40.7909 66.9688 41.1265 67.0979 41.3981 67.3563C41.6698 67.6146 41.8056 67.9915 41.8056 68.4869V71.2714H40.7949V68.6307C40.7949 68.351 40.7176 68.1473 40.5632 68.0194C40.4114 67.8889 40.2276 67.8237 40.0119 67.8237C39.7562 67.8237 39.5538 67.9036 39.4046 68.0634C39.2581 68.2232 39.1849 68.4296 39.1849 68.6826V71.2714H38.2061V68.5827C38.2061 68.3537 38.1342 68.1699 37.9904 68.0314C37.8465 67.8929 37.6628 67.8237 37.4391 67.8237C37.2127 67.8237 37.0156 67.9036 36.8478 68.0634C36.68 68.2205 36.5961 68.4509 36.5961 68.7545V71.2714H35.5894Z" fill="black"/>
<path d="M32.5587 71.367C31.821 71.367 31.243 71.1872 30.8249 70.8277C30.4094 70.4655 30.2017 69.9661 30.2017 69.3295H31.2364C31.2417 69.6891 31.3602 69.9701 31.5919 70.1725C31.8263 70.3749 32.1512 70.4761 32.5667 70.4761C32.9369 70.4761 33.2352 70.3989 33.4616 70.2444C33.688 70.0873 33.8012 69.8782 33.8012 69.6172C33.8012 69.4068 33.716 69.2363 33.5455 69.1058C33.375 68.9727 33.0914 68.8608 32.6946 68.7702L32.0554 68.6264C31.4614 68.4906 31.0233 68.2895 30.741 68.0232C30.4587 67.7568 30.3175 67.4146 30.3175 66.9964C30.3175 66.6422 30.4081 66.3319 30.5892 66.0656C30.7729 65.7993 31.0286 65.5929 31.3562 65.4464C31.6865 65.2972 32.07 65.2227 32.5068 65.2227C33.1726 65.2227 33.7 65.3918 34.0888 65.73C34.4803 66.0683 34.6841 66.533 34.7001 67.1243H33.6973C33.676 66.81 33.5588 66.5637 33.3457 66.3852C33.1327 66.2068 32.8517 66.1175 32.5028 66.1175C32.1725 66.1175 31.9022 66.1948 31.6918 66.3493C31.4814 66.5037 31.3762 66.7021 31.3762 66.9445C31.3762 67.1443 31.4588 67.3067 31.6239 67.4319C31.7917 67.5544 32.07 67.6596 32.4589 67.7475L33.0621 67.8873C33.68 68.0232 34.1328 68.2256 34.4204 68.4946C34.7081 68.7636 34.8519 69.1165 34.8519 69.5533C34.8519 69.9235 34.7587 70.2444 34.5722 70.5161C34.3858 70.7877 34.1208 70.9981 33.7772 71.1473C33.4336 71.2938 33.0275 71.367 32.5587 71.367Z" fill="black"/>
<path fill-rule="evenodd" clip-rule="evenodd" d="M18.2373 63.6387C19.4908 63.6387 20.6688 63.8008 21.5549 64.0962C21.9854 64.2403 22.3243 64.408 22.5602 64.5935C22.8051 64.7861 22.9292 64.9915 22.9292 65.2022C22.9292 65.3929 22.8268 65.5784 22.6258 65.755C22.6086 65.8474 22.5587 65.9214 22.4957 65.9904C21.9428 66.5829 21.3881 67.1755 20.8352 67.7681C20.4011 68.2327 19.969 68.6993 19.5332 69.1621C19.4846 69.2126 19.4701 69.2649 19.4701 69.3352V73.2328C19.4701 73.5119 19.3295 73.6848 19.0811 73.7154C18.9586 73.7298 18.8469 73.6973 18.7604 73.6036C18.0238 72.9985 17.6852 72.7428 17.1485 72.1666C17.0585 72.0711 17.0314 71.9484 17.0314 71.8151C17.0314 70.7958 17.0314 70.3527 17.0332 69.3316C17.0332 69.2614 17.0134 69.2108 16.9665 69.1603C15.9796 68.1067 14.9942 67.0494 14.009 65.9939C13.9385 65.9182 13.868 65.823 13.8141 65.7242C13.636 65.557 13.5454 65.3817 13.5454 65.2022C13.5454 64.9915 13.6699 64.7862 13.9148 64.5935C14.1525 64.408 14.4893 64.2403 14.9197 64.0962C15.8059 63.8008 16.9838 63.6387 18.2373 63.6387ZM18.2373 64.3864C17.0793 64.3864 15.9573 64.5394 15.1558 64.8059C14.8172 64.9194 14.5398 65.0528 14.3759 65.1807L14.349 65.2022H14.3508C14.3518 65.2031 14.3672 65.2167 14.3777 65.2237C14.5416 65.3533 14.819 65.4867 15.1576 65.5984C15.9573 65.865 17.0811 66.0179 18.2391 66.018C19.3972 66.018 20.5213 65.865 21.321 65.5984C21.6595 65.485 21.937 65.3515 22.0991 65.2237C22.1099 65.2165 22.1188 65.2093 22.126 65.2022C22.1188 65.195 22.1099 65.1878 22.0991 65.1807C21.9352 65.0528 21.6596 64.9194 21.3192 64.8059C20.5195 64.5394 19.3954 64.3864 18.2373 64.3864Z" fill="#CE6706"/>
<path d="M68.6284 87.0927V82.8739H69.5992V83.5731H69.6112C69.6884 83.3334 69.8096 83.1509 69.9747 83.0257C70.1425 82.8979 70.3623 82.834 70.6339 82.834C70.7032 82.834 70.7644 82.8366 70.8177 82.842C70.8736 82.8446 70.9216 82.8473 70.9615 82.85V83.7449C70.9242 83.7395 70.8603 83.7329 70.7698 83.7249C70.6792 83.7169 70.5847 83.7129 70.4861 83.7129C70.2464 83.7129 70.044 83.7955 69.8789 83.9606C69.7164 84.1257 69.6352 84.3734 69.6352 84.7037V87.0927H68.6284Z" fill="black"/>
<path d="M65.9593 87.1839C65.5385 87.1839 65.1736 87.0894 64.8647 86.9003C64.5557 86.7112 64.3173 86.4515 64.1495 86.1213C63.9844 85.7884 63.9019 85.4088 63.9019 84.9827C63.9019 84.5539 63.9871 84.1744 64.1575 83.8441C64.3307 83.5112 64.569 83.2502 64.8726 83.0611C65.1763 82.8693 65.5252 82.7734 65.9193 82.7734C66.3242 82.7734 66.6784 82.8667 66.982 83.0531C67.2856 83.2395 67.5214 83.4979 67.6891 83.8281C67.8569 84.1557 67.9408 84.5352 67.9408 84.9667V85.2424H64.8886C64.9019 85.5859 65.0032 85.8629 65.1922 86.0733C65.3813 86.2837 65.645 86.3889 65.9833 86.3889C66.2363 86.3889 66.4454 86.3343 66.6105 86.2251C66.7756 86.1133 66.8875 85.9668 66.9461 85.7857H67.8889C67.8356 86.06 67.7184 86.3024 67.5373 86.5128C67.3589 86.7232 67.1338 86.8883 66.8622 87.0082C66.5905 87.1254 66.2896 87.1839 65.9593 87.1839ZM64.8966 84.5472H66.974C66.9421 84.2463 66.8329 84.0092 66.6464 83.8361C66.4627 83.6603 66.2256 83.5724 65.9353 83.5724C65.6424 83.5724 65.404 83.6603 65.2202 83.8361C65.0391 84.0092 64.9312 84.2463 64.8966 84.5472Z" fill="black"/>
<path d="M63.5667 82.8725V83.6835H62.7078V87.0913H61.697V83.6835H60.938V82.8725H61.697V82.2573C61.697 81.8951 61.8062 81.6181 62.0246 81.4263C62.2457 81.2346 62.564 81.1387 62.9794 81.1387H63.5667V81.9497H63.1792C63.0061 81.9497 62.8836 81.9856 62.8117 82.0575C62.7424 82.1294 62.7078 82.252 62.7078 82.4251V82.8725H63.5667Z" fill="black"/>
<path d="M61.075 82.8725V83.6835H60.2161V87.0913H59.2053V83.6835H58.4463V82.8725H59.2053V82.2573C59.2053 81.8951 59.3145 81.6181 59.5329 81.4263C59.754 81.2346 60.0723 81.1387 60.4877 81.1387H61.075V81.9497H60.6875C60.5144 81.9497 60.3919 81.9856 60.32 82.0575C60.2507 82.1294 60.2161 82.252 60.2161 82.4251V82.8725H61.075Z" fill="black"/>
<path d="M55.6379 87.1757C55.1958 87.1757 54.8349 87.0332 54.5552 86.7482C54.2756 86.4632 54.1357 86.0504 54.1357 85.5098V82.873H55.1425V85.35C55.1425 85.6589 55.2171 85.8933 55.3662 86.0531C55.5154 86.2129 55.7244 86.2928 55.9934 86.2928C56.2598 86.2928 56.4795 86.2102 56.6526 86.0451C56.8284 85.88 56.9163 85.6176 56.9163 85.2581V82.873H57.927V87.0918H56.9363V86.4446C56.6406 86.932 56.2078 87.1757 55.6379 87.1757Z" fill="black"/>
<path d="M48.9253 87.0913V81.1387H51.2264C51.855 81.1387 52.341 81.2798 52.6846 81.5621C53.0309 81.8445 53.204 82.2187 53.204 82.6847C53.204 83.0283 53.1108 83.3093 52.9243 83.5277C52.7405 83.7461 52.4889 83.8992 52.1693 83.9871V83.9951C52.5235 84.0377 52.8218 84.1802 53.0641 84.4226C53.3092 84.6623 53.4317 84.9939 53.4317 85.4173C53.4317 85.9181 53.2532 86.3229 52.8964 86.6318C52.5421 86.9381 52.0201 87.0913 51.3303 87.0913H48.9253ZM49.964 86.2323H51.2184C51.578 86.2323 51.8563 86.1591 52.0534 86.0126C52.2505 85.8661 52.349 85.6557 52.349 85.3814C52.349 85.1044 52.2518 84.886 52.0574 84.7262C51.8656 84.5664 51.594 84.4865 51.2424 84.4865H49.964V86.2323ZM49.964 83.6595H51.1785C51.4821 83.6595 51.7191 83.585 51.8896 83.4358C52.0627 83.284 52.1493 83.0816 52.1493 82.8286C52.1493 82.5729 52.0627 82.3705 51.8896 82.2213C51.7191 82.0722 51.4821 81.9976 51.1785 81.9976H49.964V83.6595Z" fill="black"/>
<path d="M44.1357 88.8195C43.5791 88.8195 43.137 88.6997 42.8094 88.46C42.4818 88.2203 42.29 87.8953 42.2341 87.4852H43.2209C43.2688 87.6663 43.374 87.8034 43.5365 87.8967C43.699 87.9925 43.8987 88.0405 44.1357 88.0405C44.45 88.0405 44.6937 87.9553 44.8668 87.7848C45.0426 87.6143 45.1305 87.368 45.1305 87.0457V86.4025H45.1265C44.9907 86.6502 44.8136 86.8327 44.5952 86.9498C44.3768 87.0644 44.1291 87.1216 43.8521 87.1216C43.4846 87.1216 43.1636 87.0297 42.8893 86.846C42.615 86.6622 42.4019 86.4092 42.2501 86.0869C42.1009 85.762 42.0264 85.3878 42.0264 84.9643C42.0264 84.5382 42.1023 84.1613 42.2541 83.8337C42.4059 83.5061 42.619 83.2504 42.8933 83.0667C43.1676 82.8829 43.4846 82.791 43.8441 82.791C44.1184 82.791 44.3661 82.8496 44.5872 82.9668C44.8109 83.0813 44.992 83.2598 45.1305 83.5021H45.1345V82.8749H46.1293V86.9858C46.1293 87.4199 46.0427 87.7715 45.8696 88.0405C45.6965 88.3121 45.4594 88.5092 45.1585 88.6317C44.8575 88.7569 44.5166 88.8195 44.1357 88.8195ZM44.0878 86.2907C44.4181 86.2907 44.6817 86.1695 44.8788 85.9271C45.0786 85.6821 45.1784 85.3572 45.1784 84.9523C45.1784 84.5475 45.0786 84.2239 44.8788 83.9815C44.6817 83.7365 44.4181 83.614 44.0878 83.614C43.7762 83.614 43.5245 83.7298 43.3327 83.9616C43.141 84.1933 43.0451 84.5235 43.0451 84.9523C43.0451 85.3838 43.141 85.7154 43.3327 85.9471C43.5245 86.1761 43.7762 86.2907 44.0878 86.2907Z" fill="black"/>
<path d="M38.539 84.7086V87.0937H37.5322V82.8749H38.523V83.5221C38.816 83.0347 39.2474 82.791 39.8174 82.791C40.2595 82.791 40.6204 82.9335 40.9 83.2185C41.1824 83.5035 41.3235 83.9163 41.3235 84.4569V87.0937H40.3128V84.6167C40.3128 84.3078 40.2382 84.0734 40.089 83.9136C39.9399 83.7538 39.7308 83.6739 39.4618 83.6739C39.1982 83.6739 38.9784 83.7565 38.8026 83.9216C38.6269 84.0867 38.539 84.3491 38.539 84.7086Z" fill="black"/>
<path d="M35.6297 87.0941V82.8754H36.6364V87.0941H35.6297ZM36.133 82.2481C35.9599 82.2481 35.8161 82.1935 35.7016 82.0843C35.587 81.9725 35.5298 81.8353 35.5298 81.6729C35.5298 81.5104 35.587 81.3746 35.7016 81.2654C35.8161 81.1562 35.9599 81.1016 36.133 81.1016C36.3035 81.1016 36.446 81.1562 36.5605 81.2654C36.675 81.3746 36.7323 81.5104 36.7323 81.6729C36.7323 81.8353 36.675 81.9725 36.5605 82.0843C36.446 82.1935 36.3035 82.2481 36.133 82.2481Z" fill="black"/>
<path d="M30.4048 87.0913V81.1387H32.7259C33.1627 81.1387 33.5396 81.2159 33.8565 81.3704C34.1761 81.5249 34.4225 81.7446 34.5956 82.0296C34.7687 82.3145 34.8552 82.6515 34.8552 83.0403C34.8552 83.4451 34.7554 83.7927 34.5556 84.083C34.3559 84.3733 34.0789 84.5904 33.7247 84.7342L34.9671 87.0913H33.8046L32.6859 84.926C32.678 84.926 32.6686 84.926 32.658 84.926H31.4595V87.0913H30.4048ZM31.4595 84.055H32.674C33.0255 84.055 33.3038 83.9645 33.5089 83.7834C33.714 83.5996 33.8165 83.3519 33.8165 83.0403C33.8165 82.7314 33.7127 82.4863 33.5049 82.3052C33.2998 82.1241 33.0202 82.0336 32.666 82.0336H31.4595V84.055Z" fill="black"/>
<path fill-rule="evenodd" clip-rule="evenodd" d="M16.6692 80.0463C17.6823 79.9639 18.6938 79.984 19.7008 80.13C20.2826 80.2141 20.8589 80.3281 21.3914 80.5889C21.5624 80.6726 21.7226 80.7873 21.8689 80.91C22.019 81.0355 22.0936 81.2074 22.0855 81.4132C22.077 81.6315 22.0836 81.8508 22.0836 82.0693C22.0836 82.4282 22.0666 82.4732 21.8246 82.7443C21.868 82.794 21.9115 82.8382 21.9487 82.8872C22.0362 83.0032 22.089 83.1296 22.0853 83.2808C22.0789 83.5359 22.0774 83.7912 22.0855 84.0461C22.0923 84.2613 22.0211 84.4377 21.8677 84.5848C21.8526 84.5995 21.84 84.6167 21.8229 84.6367C21.8483 84.6636 21.871 84.6864 21.8924 84.7103C22.0156 84.8475 22.0934 84.9999 22.0853 85.1932C22.0765 85.4005 22.0742 85.6092 22.0858 85.8163C22.1013 86.0933 22.0502 86.3395 21.8195 86.5207C21.8681 86.5765 21.9143 86.623 21.9529 86.6751C22.0368 86.7886 22.0885 86.9123 22.085 87.0594C22.0793 87.307 22.0731 87.5555 22.0863 87.8026C22.1018 88.0963 21.9713 88.3058 21.7478 88.473C21.4265 88.7134 21.0554 88.8444 20.6736 88.9439C19.5564 89.2353 18.4169 89.3008 17.2685 89.2596C16.4914 89.2317 15.7209 89.1478 14.967 88.9468C14.6494 88.8622 14.3358 88.7614 14.0568 88.5843C13.9233 88.4997 13.8015 88.392 13.6902 88.2789C13.5876 88.175 13.5477 88.0366 13.5492 87.8878C13.5516 87.6656 13.5591 87.4427 13.5475 87.2209C13.5335 86.9507 13.5873 86.7128 13.8147 86.5346C13.7819 86.4983 13.7557 86.4696 13.7298 86.4407C13.6106 86.3083 13.5439 86.1574 13.5487 85.9747C13.5542 85.7671 13.5499 85.5591 13.5499 85.3513C13.5499 84.9455 13.551 84.9424 13.8076 84.6347C13.7848 84.6093 13.7615 84.5825 13.7374 84.5569C13.6123 84.4236 13.5448 84.2693 13.5487 84.0828C13.5533 83.8716 13.5504 83.6601 13.5499 83.4487C13.5491 83.0597 13.5563 83.039 13.8076 82.7436C13.7684 82.6987 13.7268 82.6544 13.6887 82.6073C13.5965 82.4929 13.5486 82.3628 13.5497 82.214C13.5514 81.9517 13.5557 81.6889 13.5482 81.4269C13.5421 81.2101 13.6234 81.0375 13.7766 80.8926C14.0321 80.6507 14.3487 80.5207 14.675 80.4129C15.3224 80.1986 15.9926 80.1013 16.6692 80.0463ZM14.2893 86.8139C14.2431 86.7926 14.2076 86.7898 14.1779 86.7977C14.1724 86.7992 14.1671 86.801 14.162 86.8031C14.155 86.8061 14.1481 86.8093 14.1417 86.8134C14.1057 86.8361 14.0781 86.8743 14.0458 86.9061C13.9768 86.9741 13.9492 87.0621 14.0223 87.1401C14.0935 87.2161 14.1709 87.2999 14.2631 87.3398C14.546 87.4623 14.8308 87.5901 15.1268 87.6712C16.008 87.9129 16.9135 87.9681 17.8243 87.9916C18.3183 87.9589 18.8138 87.9387 19.3065 87.8905C19.5645 87.8651 19.8211 87.8296 20.0745 87.7799C20.2391 87.7476 20.4024 87.7096 20.5637 87.6631C20.5911 87.6552 20.6185 87.6473 20.6457 87.6389C20.7745 87.5994 20.9021 87.5551 21.028 87.5043C21.1985 87.4355 21.3649 87.3453 21.5145 87.239C21.7048 87.104 21.695 86.9708 21.505 86.8305C21.4781 86.8108 21.4307 86.7949 21.3983 86.7994C21.3927 86.8002 21.3874 86.8013 21.3829 86.8034C21.3005 86.8401 21.2176 86.8744 21.134 86.9061C20.9485 86.9765 20.7601 87.0345 20.5696 87.0836C20.1538 87.1909 19.7276 87.2543 19.2982 87.3007C19.2843 87.3022 19.2704 87.3034 19.2566 87.3048C19.0678 87.3247 18.879 87.3409 18.6902 87.353C18.4756 87.3669 18.2609 87.3759 18.0463 87.3797C17.3547 87.392 16.6637 87.3515 15.9738 87.2554C15.3955 87.1747 14.8234 87.0607 14.2893 86.8139ZM21.5894 85.0175C21.5318 84.9642 21.4928 84.8586 21.3777 84.911C21.2774 84.9567 21.1758 84.9982 21.0733 85.0358C20.9022 85.0986 20.7284 85.151 20.5525 85.1954C20.4821 85.2132 20.4113 85.2297 20.3403 85.2451C20.1273 85.2913 19.9118 85.3276 19.6949 85.3584C19.6848 85.3598 19.6746 85.3609 19.6645 85.3623C19.5315 85.3809 19.3985 85.3975 19.2654 85.412C19.1748 85.4219 19.0843 85.4309 18.9937 85.4389C18.6976 85.4651 18.4015 85.4815 18.1053 85.4879C18.027 85.4895 17.9487 85.4903 17.8703 85.4906C17.414 85.4923 16.9576 85.4709 16.5013 85.4262C16.3491 85.4113 16.1969 85.3936 16.0448 85.3736C15.968 85.3635 15.8913 85.3528 15.8148 85.3413L15.5859 85.3038C15.3851 85.2684 15.186 85.2257 14.9895 85.1726C14.8267 85.1287 14.6657 85.0776 14.5071 85.0172C14.4796 85.0068 14.4522 84.996 14.4249 84.9849C14.3673 84.9617 14.3099 84.9376 14.2531 84.9118C14.2505 84.9106 14.2477 84.9099 14.2447 84.9091C14.2391 84.9075 14.2329 84.9065 14.2264 84.9061C14.1965 84.9046 14.1596 84.9149 14.1378 84.9304C13.9996 85.028 13.9551 85.1212 14.0022 85.2191C14.0065 85.228 14.0114 85.2369 14.0171 85.2458C14.0295 85.265 14.0454 85.2842 14.0646 85.3038C14.0815 85.3211 14.1007 85.3387 14.1229 85.3564C14.1413 85.3712 14.1598 85.3869 14.1789 85.4012C14.1979 85.4155 14.2177 85.4284 14.2389 85.4372C14.4968 85.545 14.7498 85.6717 15.0169 85.7495C15.3113 85.8352 15.6086 85.8992 15.9048 85.947C16.0032 85.9629 16.1015 85.9771 16.1995 85.9896C16.27 85.9986 16.3405 86.0067 16.4107 86.0141C16.5122 86.0248 16.6133 86.034 16.7139 86.0417C16.7249 86.0426 16.7358 86.0434 16.7467 86.0442C17.0813 86.0689 17.4097 86.0785 17.7262 86.0811C18.5774 86.0789 19.3326 86.0309 20.0789 85.8819C20.2075 85.8562 20.3355 85.8284 20.4624 85.797C20.5369 85.7785 20.6109 85.7583 20.6844 85.7365C20.7176 85.7267 20.7506 85.7164 20.7835 85.7057C20.8356 85.6888 20.8874 85.6713 20.9387 85.6521C20.9589 85.6445 20.979 85.6366 20.9991 85.6286C21.0293 85.6166 21.0593 85.6042 21.0892 85.5912C21.1085 85.5828 21.1276 85.574 21.1467 85.5652C21.1809 85.5494 21.215 85.5331 21.2488 85.5158C21.2822 85.4986 21.3157 85.4809 21.3486 85.4622C21.4476 85.4059 21.5365 85.3254 21.6151 85.2422C21.6839 85.1692 21.656 85.0791 21.5894 85.0175ZM14.2068 83.0113C14.1889 83.0113 14.1714 83.0145 14.1591 83.0219C13.9389 83.1529 13.9281 83.3114 14.127 83.4685C14.1755 83.5066 14.2261 83.5466 14.2822 83.5696C14.5342 83.6728 14.7826 83.7919 15.0433 83.8662C15.948 84.1237 16.8781 84.1823 17.7497 84.1895L17.7499 84.1898L17.7502 84.1895L17.7504 84.1898C18.3159 84.1877 18.841 84.1649 19.3547 84.1039C19.4986 84.0868 19.6418 84.0675 19.7845 84.0439C20.005 84.0075 20.2243 83.9658 20.4401 83.912C20.7144 83.8437 20.9828 83.7554 21.2395 83.6283C21.3648 83.5663 21.4816 83.4803 21.5872 83.388C21.6788 83.3078 21.6717 83.2201 21.5926 83.1276C21.5887 83.123 21.5842 83.1189 21.5801 83.1144C21.5704 83.1033 21.5606 83.0922 21.55 83.0818C21.5309 83.063 21.5105 83.0457 21.4881 83.0329C21.4774 83.0268 21.4639 83.0221 21.4499 83.0187C21.4262 83.0128 21.4006 83.0114 21.3829 83.0194C21.1164 83.139 20.843 83.2301 20.565 83.3016C20.5171 83.3139 20.4691 83.3254 20.421 83.3366C20.1192 83.4067 19.8124 83.4553 19.5033 83.4932C19.4352 83.5016 19.3669 83.5098 19.2987 83.5172C18.2515 83.6309 17.2035 83.6266 16.1576 83.4962C15.5055 83.4151 14.8621 83.2941 14.2572 83.0209C14.2434 83.0148 14.2252 83.0114 14.2073 83.0113H14.2068ZM17.9232 80.4318C16.9826 80.4331 16.1477 80.4907 15.3265 80.6792C14.9351 80.769 14.5488 80.8776 14.2058 81.0962C14.0331 81.2063 13.9591 81.3113 13.9875 81.4132C14.0077 81.4861 14.0799 81.5575 14.2073 81.6278C14.4571 81.7654 14.726 81.8785 14.999 81.9611C15.7218 82.1801 16.4691 82.256 17.2208 82.2847C17.6051 82.2994 17.9889 82.3024 18.3713 82.2889C18.3758 82.2887 18.3803 82.2885 18.3848 82.2884C18.5743 82.2814 18.7635 82.2706 18.9523 82.2548C19.0161 82.2495 19.0798 82.2437 19.1435 82.2372C19.5259 82.1985 19.9067 82.1392 20.2855 82.0544C20.6878 81.9643 21.0852 81.8536 21.4367 81.6266C21.4815 81.5977 21.5187 81.569 21.5493 81.5414C21.5771 81.5164 21.5992 81.4921 21.6154 81.4677C21.6423 81.4272 21.6531 81.3877 21.6482 81.3476C21.6386 81.269 21.5688 81.1895 21.4377 81.1028C21.1697 80.9258 20.8686 80.8262 20.5623 80.7436C19.6652 80.5018 18.7473 80.4359 17.9235 80.4315L17.9232 80.4318Z" fill="#CE6706"/>
<path d="M108.459 47.9183C107.945 47.9183 107.515 47.7985 107.169 47.5588C106.825 47.3164 106.637 46.9688 106.605 46.5161H107.6C107.622 46.7211 107.704 46.8809 107.848 46.9955C107.992 47.1073 108.19 47.1633 108.443 47.1633C108.686 47.1633 108.876 47.1153 109.014 47.0194C109.156 46.9236 109.226 46.801 109.226 46.6519C109.226 46.5241 109.174 46.4215 109.07 46.3443C108.967 46.267 108.827 46.2098 108.651 46.1725L107.932 46.0247C107.112 45.8542 106.701 45.4481 106.701 44.8062C106.701 44.4173 106.856 44.1044 107.165 43.8674C107.474 43.6277 107.885 43.5078 108.399 43.5078C108.911 43.5078 109.326 43.6343 109.646 43.8873C109.968 44.1377 110.134 44.4799 110.145 44.9141H109.198C109.193 44.725 109.12 44.5692 108.979 44.4466C108.837 44.3241 108.652 44.2629 108.423 44.2629C108.202 44.2629 108.028 44.3121 107.9 44.4107C107.772 44.5092 107.708 44.6304 107.708 44.7742C107.708 44.8994 107.757 45.002 107.856 45.0819C107.954 45.1591 108.092 45.2177 108.267 45.2576L109.026 45.4134C109.445 45.5013 109.752 45.6398 109.949 45.8289C110.149 46.018 110.249 46.267 110.249 46.576C110.249 46.8503 110.172 47.0887 110.017 47.2911C109.865 47.4909 109.655 47.6453 109.386 47.7545C109.117 47.8637 108.808 47.9183 108.459 47.9183Z" fill="black"/>
<path d="M102.166 49.4882V43.5995H103.156V44.1868H103.168C103.301 43.9631 103.48 43.7953 103.704 43.6834C103.927 43.5716 104.175 43.5156 104.447 43.5156C104.809 43.5156 105.126 43.6088 105.398 43.7953C105.672 43.979 105.885 44.2361 106.037 44.5663C106.191 44.8939 106.268 45.2734 106.268 45.7049C106.268 46.1444 106.193 46.5292 106.041 46.8595C105.892 47.1871 105.68 47.4427 105.405 47.6265C105.131 47.8103 104.81 47.9022 104.443 47.9022C104.166 47.9022 103.919 47.8422 103.704 47.7224C103.491 47.6025 103.317 47.4228 103.184 47.1831H103.172V49.4882H102.166ZM104.207 47.0592C104.519 47.0592 104.77 46.9434 104.962 46.7116C105.154 46.4773 105.25 46.1417 105.25 45.7049C105.25 45.2708 105.154 44.9365 104.962 44.7021C104.77 44.4678 104.519 44.3506 104.207 44.3506C103.877 44.3506 103.612 44.4744 103.412 44.7221C103.215 44.9672 103.116 45.2947 103.116 45.7049C103.116 46.1151 103.215 46.444 103.412 46.6917C103.612 46.9367 103.877 47.0592 104.207 47.0592Z" fill="black"/>
<path d="M99.1891 47.8862C98.7683 47.8862 98.4194 47.781 98.1424 47.5706C97.8681 47.3575 97.731 47.0406 97.731 46.6198C97.731 46.3002 97.8082 46.0538 97.9627 45.8807C98.1198 45.7049 98.3236 45.5771 98.5739 45.4972C98.8269 45.4173 99.0986 45.3627 99.3889 45.3334C99.7804 45.2881 100.053 45.2481 100.208 45.2135C100.362 45.1789 100.44 45.0897 100.44 44.9458V44.9139C100.44 44.7328 100.37 44.585 100.232 44.4704C100.096 44.3559 99.9082 44.2987 99.6685 44.2987C99.4235 44.2987 99.2238 44.3559 99.0693 44.4704C98.9175 44.585 98.8349 44.7314 98.8216 44.9099H97.8508C97.8748 44.4917 98.0492 44.1548 98.3742 43.8991C98.6991 43.6435 99.1372 43.5156 99.6885 43.5156C100.237 43.5156 100.666 43.6435 100.975 43.8991C101.284 44.1548 101.438 44.5024 101.438 44.9419V47.8183H100.448V47.223H100.432C100.33 47.4094 100.184 47.5666 99.9921 47.6944C99.8004 47.8223 99.5327 47.8862 99.1891 47.8862ZM99.4368 47.1391C99.7671 47.1391 100.017 47.0539 100.188 46.8834C100.358 46.7103 100.444 46.5012 100.444 46.2562V45.8008C100.382 45.8407 100.264 45.878 100.088 45.9126C99.9122 45.9446 99.7205 45.9766 99.5127 46.0085C99.297 46.0405 99.1092 46.1017 98.9494 46.1923C98.7923 46.2802 98.7137 46.42 98.7137 46.6118C98.7137 46.7769 98.779 46.9061 98.9095 46.9993C99.04 47.0925 99.2158 47.1391 99.4368 47.1391Z" fill="black"/>
<path d="M90.8994 47.8159V41.8633H92.4175L93.5761 44.9914C93.632 45.1565 93.7026 45.3722 93.7878 45.6386C93.873 45.9023 93.9503 46.1499 94.0195 46.3817C94.0888 46.1499 94.1647 45.9023 94.2472 45.6386C94.3325 45.3722 94.4031 45.1565 94.459 44.9914L95.5976 41.8633H97.1237V47.8159H96.085V44.7797C96.085 44.5692 96.089 44.3109 96.0969 44.0046C96.1049 43.6983 96.1129 43.3934 96.1209 43.0898C96.0144 43.4253 95.9132 43.7463 95.8173 44.0526C95.7214 44.3562 95.6415 44.5985 95.5776 44.7797L94.443 47.8159H93.5801L92.4375 44.7797C92.3762 44.6065 92.2977 44.3762 92.2018 44.0885C92.1086 43.7982 92.01 43.4933 91.9062 43.1737C91.9142 43.4666 91.9208 43.7583 91.9261 44.0486C91.9341 44.3362 91.9381 44.5799 91.9381 44.7797V47.8159H90.8994Z" fill="black"/>
<path d="M85.6415 45.4308V47.8159H84.6348V41.8633H85.6415V44.2164C85.9345 43.7476 86.3606 43.5132 86.9199 43.5132C87.362 43.5132 87.7229 43.6557 88.0026 43.9407C88.2849 44.2257 88.426 44.6385 88.426 45.1792V47.8159H87.4153V45.339C87.4153 45.03 87.3407 44.7956 87.1916 44.6358C87.0424 44.476 86.8334 44.3961 86.5644 44.3961C86.3007 44.3961 86.081 44.4787 85.9052 44.6438C85.7294 44.8089 85.6415 45.0713 85.6415 45.4308Z" fill="black"/>
<path d="M82.3224 47.9183C81.8084 47.9183 81.3783 47.7985 81.032 47.5588C80.6885 47.3164 80.5007 46.9688 80.4688 46.5161H81.4635C81.4848 46.7211 81.5674 46.8809 81.7112 46.9955C81.855 47.1073 82.0534 47.1633 82.3065 47.1633C82.5488 47.1633 82.7393 47.1153 82.8778 47.0194C83.0189 46.9236 83.0895 46.801 83.0895 46.6519C83.0895 46.5241 83.0376 46.4215 82.9337 46.3443C82.8298 46.267 82.69 46.2098 82.5142 46.1725L81.7951 46.0247C80.9748 45.8542 80.5646 45.4481 80.5646 44.8062C80.5646 44.4173 80.7191 44.1044 81.0281 43.8674C81.337 43.6277 81.7485 43.5078 82.2625 43.5078C82.7739 43.5078 83.1894 43.6343 83.509 43.8873C83.8312 44.1377 83.9977 44.4799 84.0083 44.9141H83.0615C83.0562 44.725 82.983 44.5692 82.8418 44.4466C82.7006 44.3241 82.5155 44.2629 82.2865 44.2629C82.0654 44.2629 81.891 44.3121 81.7631 44.4107C81.6353 44.5092 81.5714 44.6304 81.5714 44.7742C81.5714 44.8994 81.6206 45.002 81.7192 45.0819C81.8177 45.1591 81.9549 45.2177 82.1307 45.2576L82.8897 45.4134C83.3079 45.5013 83.6155 45.6398 83.8126 45.8289C84.0123 46.018 84.1122 46.267 84.1122 46.576C84.1122 46.8503 84.035 47.0887 83.8805 47.2911C83.7287 47.4909 83.5183 47.6453 83.2493 47.7545C82.9803 47.8637 82.6713 47.9183 82.3224 47.9183Z" fill="black"/>
<path d="M77.6921 47.8862C77.2713 47.8862 76.9224 47.781 76.6454 47.5706C76.371 47.3575 76.2339 47.0406 76.2339 46.6198C76.2339 46.3002 76.3111 46.0538 76.4656 45.8807C76.6227 45.7049 76.8265 45.5771 77.0768 45.4972C77.3299 45.4173 77.6015 45.3627 77.8918 45.3334C78.2833 45.2881 78.5563 45.2481 78.7108 45.2135C78.8653 45.1789 78.9425 45.0897 78.9425 44.9458V44.9139C78.9425 44.7328 78.8733 44.585 78.7348 44.4704C78.5989 44.3559 78.4112 44.2987 78.1715 44.2987C77.9264 44.2987 77.7267 44.3559 77.5722 44.4704C77.4204 44.585 77.3378 44.7314 77.3245 44.9099H76.3537C76.3777 44.4917 76.5522 44.1548 76.8771 43.8991C77.202 43.6435 77.6401 43.5156 78.1915 43.5156C78.7401 43.5156 79.1689 43.6435 79.4779 43.8991C79.7868 44.1548 79.9413 44.5024 79.9413 44.9419V47.8183H78.9505V47.223H78.9345C78.8333 47.4094 78.6868 47.5666 78.4951 47.6944C78.3033 47.8223 78.0356 47.8862 77.6921 47.8862ZM77.9398 47.1391C78.27 47.1391 78.5204 47.0539 78.6908 46.8834C78.8613 46.7103 78.9465 46.5012 78.9465 46.2562V45.8008C78.8853 45.8407 78.7667 45.878 78.591 45.9126C78.4152 45.9446 78.2234 45.9766 78.0157 46.0085C77.7999 46.0405 77.6122 46.1017 77.4524 46.1923C77.2952 46.2802 77.2167 46.42 77.2167 46.6118C77.2167 46.7769 77.2819 46.9061 77.4124 46.9993C77.5429 47.0925 77.7187 47.1391 77.9398 47.1391Z" fill="black"/>
<path d="M70.7681 47.8159V41.8633H71.8228V44.3202H74.5673V41.8633H75.626V47.8159H74.5673V45.2351H71.8228V47.8159H70.7681Z" fill="black"/>
<path d="M57.5214 48.739C57.5214 49.4351 56.957 49.9994 56.2609 49.9994C55.5648 49.9994 55.0005 49.4351 55.0005 48.739C55.0005 48.0428 55.5648 47.4785 56.2609 47.4785C56.957 47.4785 57.5214 48.0428 57.5214 48.739Z" fill="#C56308"/>
<path d="M61.722 48.739C61.722 49.4351 61.1577 49.9994 60.4616 49.9994C59.7655 49.9994 59.2012 49.4351 59.2012 48.739C59.2012 48.0428 59.7655 47.4785 60.4616 47.4785C61.1577 47.4785 61.722 48.0428 61.722 48.739Z" fill="#C56308"/>
<path d="M65.9232 48.739C65.9232 49.4351 65.3589 49.9994 64.6628 49.9994C63.9667 49.9994 63.4023 49.4351 63.4023 48.739C63.4023 48.0428 63.9667 47.4785 64.6628 47.4785C65.3589 47.4785 65.9232 48.0428 65.9232 48.739Z" fill="#C56308"/>
<path d="M61.722 40.8952C61.722 41.5913 61.1577 42.1557 60.4616 42.1557C59.7655 42.1557 59.2012 41.5913 59.2012 40.8952C59.2012 40.1991 59.7655 39.6348 60.4616 39.6348C61.1577 39.6348 61.722 40.1991 61.722 40.8952Z" fill="#C56308"/>
<path d="M64.9445 44.5371V46.918H64.3843V45.0973H56.5416V46.918H55.9814V44.5371H64.9445Z" fill="#C56308"/>
<path d="M60.7423 42.8555V46.9169H60.1821V42.8555H60.7423Z" fill="#C56308"/>
<path d="M97.3742 33.1898C96.8602 33.1898 96.43 33.07 96.0838 32.8303C95.7402 32.5879 95.5525 32.2403 95.5205 31.7876H96.5153C96.5366 31.9926 96.6191 32.1524 96.763 32.267C96.9068 32.3788 97.1052 32.4347 97.3582 32.4347C97.6006 32.4347 97.791 32.3868 97.9295 32.2909C98.0707 32.195 98.1412 32.0725 98.1412 31.9234C98.1412 31.7955 98.0893 31.693 97.9854 31.6158C97.8816 31.5385 97.7417 31.4813 97.566 31.444L96.8469 31.2962C96.0265 31.1257 95.6164 30.7195 95.6164 30.0777C95.6164 29.6888 95.7709 29.3759 96.0798 29.1388C96.3888 28.8991 96.8002 28.7793 97.3143 28.7793C97.8256 28.7793 98.2411 28.9058 98.5607 29.1588C98.883 29.4092 99.0494 29.7514 99.0601 30.1855H98.1133C98.108 29.9964 98.0347 29.8406 97.8936 29.7181C97.7524 29.5956 97.5673 29.5344 97.3382 29.5344C97.1172 29.5344 96.9427 29.5836 96.8149 29.6822C96.6871 29.7807 96.6231 29.9019 96.6231 30.0457C96.6231 30.1709 96.6724 30.2734 96.771 30.3533C96.8695 30.4306 97.0067 30.4892 97.1824 30.5291L97.9415 30.6849C98.3596 30.7728 98.6673 30.9113 98.8643 31.1004C99.0641 31.2895 99.164 31.5385 99.164 31.8475C99.164 32.1218 99.0867 32.3602 98.9323 32.5626C98.7805 32.7623 98.57 32.9168 98.301 33.026C98.032 33.1352 97.7231 33.1898 97.3742 33.1898Z" fill="black"/>
<path d="M93.1283 33.1859C92.7182 33.1859 92.3573 33.0927 92.0457 32.9062C91.7367 32.7198 91.4957 32.4615 91.3226 32.1312C91.1521 31.801 91.0669 31.4188 91.0669 30.9846C91.0669 30.5505 91.1521 30.1683 91.3226 29.8381C91.4957 29.5051 91.7367 29.2455 92.0457 29.059C92.3573 28.8699 92.7182 28.7754 93.1283 28.7754C93.4826 28.7754 93.7982 28.8446 94.0752 28.9831C94.3521 29.119 94.5745 29.3081 94.7423 29.5504C94.9128 29.7901 95.0127 30.0671 95.0419 30.3814H94.0552C94.0179 30.155 93.9207 29.9712 93.7635 29.8301C93.6091 29.6863 93.4013 29.6143 93.1403 29.6143C92.8101 29.6143 92.5517 29.7382 92.3653 29.9859C92.1788 30.2336 92.0856 30.5665 92.0856 30.9846C92.0856 31.4001 92.1788 31.7317 92.3653 31.9794C92.5517 32.2244 92.8101 32.3469 93.1403 32.3469C93.404 32.3469 93.6091 32.2777 93.7555 32.1392C93.902 31.998 93.9992 31.8103 94.0472 31.5759H95.0419C95.018 31.8849 94.9208 32.1605 94.7503 32.4029C94.5825 32.6452 94.3588 32.837 94.0791 32.9782C93.8022 33.1167 93.4852 33.1859 93.1283 33.1859Z" fill="black"/>
<path d="M89.3616 33.0882V28.8695H90.3683V33.0882H89.3616ZM89.865 28.2423C89.6919 28.2423 89.548 28.1877 89.4335 28.0785C89.319 27.9666 89.2617 27.8295 89.2617 27.667C89.2617 27.5045 89.319 27.3687 89.4335 27.2595C89.548 27.1503 89.6919 27.0957 89.865 27.0957C90.0354 27.0957 90.1779 27.1503 90.2924 27.2595C90.407 27.3687 90.4642 27.5045 90.4642 27.667C90.4642 27.8295 90.407 27.9666 90.2924 28.0785C90.1779 28.1877 90.0354 28.2423 89.865 28.2423Z" fill="black"/>
<path d="M86.4116 33.0888V28.87H87.3824V29.5692H87.3944C87.4716 29.3295 87.5928 29.147 87.7579 29.0218C87.9257 28.894 88.1455 28.8301 88.4171 28.8301C88.4864 28.8301 88.5476 28.8327 88.6009 28.8381C88.6568 28.8407 88.7048 28.8434 88.7447 28.8461V29.7409C88.7074 29.7356 88.6435 29.729 88.553 29.721C88.4624 29.713 88.3679 29.709 88.2693 29.709C88.0296 29.709 87.8272 29.7915 87.6621 29.9567C87.4996 30.1218 87.4184 30.3695 87.4184 30.6998V33.0888H86.4116Z" fill="black"/>
<path d="M85.7781 28.8732V29.6842H84.9192V31.8815C84.9192 32.0333 84.9498 32.1385 85.0111 32.1971C85.0723 32.253 85.1842 32.281 85.3466 32.281H85.7781V33.092H85.1709C84.7421 33.092 84.4238 33.0054 84.216 32.8323C84.011 32.6592 83.9084 32.3915 83.9084 32.0293V29.6842H83.1733V28.8732H83.9084V27.7227H84.9192V28.8732H85.7781Z" fill="black"/>
<path d="M80.8831 33.1859C80.4623 33.1859 80.0974 33.0914 79.7885 32.9023C79.4795 32.7132 79.2412 32.4535 79.0734 32.1232C78.9082 31.7903 78.8257 31.4108 78.8257 30.9846C78.8257 30.5558 78.9109 30.1763 79.0814 29.8461C79.2545 29.5131 79.4929 29.2521 79.7965 29.063C80.1001 28.8713 80.449 28.7754 80.8432 28.7754C81.248 28.7754 81.6022 28.8686 81.9059 29.055C82.2095 29.2415 82.4452 29.4998 82.613 29.8301C82.7808 30.1577 82.8647 30.5372 82.8647 30.9687V31.2443H79.8125C79.8258 31.5879 79.927 31.8649 80.1161 32.0753C80.3052 32.2857 80.5688 32.3909 80.9071 32.3909C81.1601 32.3909 81.3692 32.3363 81.5343 32.2271C81.6994 32.1152 81.8113 31.9687 81.8699 31.7876H82.8127C82.7595 32.062 82.6423 32.3043 82.4612 32.5147C82.2827 32.7251 82.0577 32.8903 81.786 33.0101C81.5143 33.1273 81.2134 33.1859 80.8831 33.1859ZM79.8204 30.5492H81.8979C81.8659 30.2482 81.7567 30.0112 81.5703 29.8381C81.3865 29.6623 81.1495 29.5744 80.8592 29.5744C80.5662 29.5744 80.3278 29.6623 80.144 29.8381C79.9629 30.0112 79.8551 30.2482 79.8204 30.5492Z" fill="black"/>
<path d="M71.855 33.0874V27.1348H73.3731L74.5316 30.2629C74.5876 30.428 74.6582 30.6437 74.7434 30.9101C74.8286 31.1737 74.9059 31.4214 74.9751 31.6531C75.0443 31.4214 75.1203 31.1737 75.2028 30.9101C75.288 30.6437 75.3586 30.428 75.4146 30.2629L76.5531 27.1348H78.0792V33.0874H77.0405V30.0511C77.0405 29.8407 77.0445 29.5824 77.0525 29.2761C77.0605 28.9698 77.0685 28.6649 77.0765 28.3612C76.9699 28.6968 76.8687 29.0178 76.7729 29.324C76.677 29.6277 76.5971 29.87 76.5332 30.0511L75.3986 33.0874H74.5356L73.3931 30.0511C73.3318 29.878 73.2532 29.6476 73.1574 29.36C73.0641 29.0697 72.9656 28.7647 72.8617 28.4451C72.8697 28.7381 72.8764 29.0297 72.8817 29.32C72.8897 29.6077 72.8937 29.8514 72.8937 30.0511V33.0874H71.855Z" fill="black"/>
<path d="M56.3642 34.1813H54.4551V32.2722H56.3642V34.1813ZM59.2278 34.1813H57.3187V32.2722H59.2278V34.1813ZM62.0914 34.1813H60.1824V32.2722H62.0914V34.1813ZM64.9551 34.1813H63.046V32.2722H64.9551V34.1813ZM56.3642 31.3176H54.4551V29.4086H56.3642V31.3176ZM59.2278 31.3176H57.3187V29.4086H59.2278V31.3176ZM62.0914 31.3176H60.1824V29.4086H62.0914V31.3176ZM64.9551 31.3176H63.046V29.4086H64.9551V31.3176ZM56.3642 28.454H54.4551V26.5449H56.3642V28.454ZM59.2278 28.454H57.3187V26.5449H59.2278V28.454ZM62.0914 28.454H60.1824V26.5449H62.0914V28.454ZM64.9551 28.454H63.046V26.5449H64.9551V28.454Z" fill="#C56308"/>
<path d="M42.4152 55.4463H30.6378L23.7437 45.3929H35.5211L42.4152 55.4463Z" fill="url(#paint2_linear_215_10659)"/>
<path d="M30.8406 23.2754C36.4398 23.2754 40.9789 27.7765 40.9789 33.3288C40.9789 38.8811 36.4398 43.3822 30.8406 43.3822H23.7437V39.0736H30.8406C34.0401 39.0736 36.6339 36.5016 36.6339 33.3288C36.6339 30.156 34.0401 27.584 30.8406 27.584H23.7437V23.2754H30.8406Z" fill="url(#paint3_linear_215_10659)"/>
<path d="M21.7345 55.4463H10.8188V45.3929H21.7345V55.4463Z" fill="#006BFF"/>
<path fill-rule="evenodd" clip-rule="evenodd" d="M21.7345 43.3822H10.8188V23.2754H21.7345V43.3822ZM13.6914 34.765H18.862V31.8926H13.6914V34.765Z" fill="#006BFF"/>
<defs>
<linearGradient id="paint0_linear_215_10659" x1="64" y1="21.2427" x2="64" y2="114.364" gradientUnits="userSpaceOnUse">
<stop stop-color="#FFFDF9"/>
<stop offset="1" stop-color="#FFF6E7"/>
</linearGradient>
<linearGradient id="paint1_linear_215_10659" x1="64" y1="21.2427" x2="64" y2="114.364" gradientUnits="userSpaceOnUse">
<stop stop-color="white"/>
<stop offset="0.341346" stop-color="#FBDFB6"/>
<stop offset="1" stop-color="#FBDFB6"/>
</linearGradient>
<linearGradient id="paint2_linear_215_10659" x1="23.7437" y1="43.5258" x2="42.4152" y2="43.3822" gradientUnits="userSpaceOnUse">
<stop stop-color="#049FFC"/>
<stop offset="1" stop-color="#19C9FF"/>
</linearGradient>
<linearGradient id="paint3_linear_215_10659" x1="23.7437" y1="43.5258" x2="42.4152" y2="43.3822" gradientUnits="userSpaceOnUse">
<stop stop-color="#049FFC"/>
<stop offset="1" stop-color="#19C9FF"/>
</linearGradient>
</defs>
</svg>
