<svg width="128" height="128" viewBox="0 0 128 128" fill="none" xmlns="http://www.w3.org/2000/svg">
<path d="M2 39.5926C2 37.0562 4.05617 35 6.59259 35H121.407C123.944 35 126 37.0562 126 39.5926V89.1926C126 91.729 123.944 93.7852 121.407 93.7852H6.59259C4.05617 93.7852 2 91.729 2 89.1926V39.5926Z" fill="white"/>
<path d="M121.407 91.9481V93.7852H6.59259V91.9481H121.407ZM124.163 89.1926V39.5926C124.163 38.0707 122.929 36.837 121.407 36.837H6.59259C5.07074 36.837 3.83704 38.0707 3.83704 39.5926V89.1926C3.83704 90.7144 5.07074 91.9481 6.59259 91.9481V93.7852L6.35668 93.7789C4.00805 93.6601 2.12512 91.7771 2.00628 89.4285L2 89.1926V39.5926C2 37.0562 4.05617 35 6.59259 35H121.407C123.944 35 126 37.0562 126 39.5926V89.1926C126 91.6499 124.07 93.6561 121.643 93.7789L121.407 93.7852V91.9481C122.929 91.9481 124.163 90.7144 124.163 89.1926Z" fill="#BFD4E8"/>
<path d="M96.6265 77.2518V68.5645H98.3464V73.4504H98.3639L100.521 71.0949H102.539L100.131 73.7652L102.667 77.2518H100.655L98.842 74.7505L98.3464 75.2986V77.2518H96.6265Z" fill="black"/>
<path d="M92.8133 77.3919C90.9592 77.3919 89.7231 76.0859 89.7231 74.1793C89.7231 72.2728 90.965 70.9551 92.8133 70.9551C94.4341 70.9551 95.5944 71.9637 95.7052 73.398H94.0435C93.956 72.7683 93.5246 72.3427 92.8366 72.3427C91.9679 72.3427 91.4548 73.054 91.4548 74.1793C91.4548 75.2988 91.9737 76.0042 92.8366 76.0042C93.5304 76.0042 93.9211 75.5844 94.0318 74.9373H95.7052C95.6294 76.3599 94.4516 77.3919 92.8133 77.3919Z" fill="black"/>
<path d="M85.2742 77.357C84.0439 77.357 83.1577 76.7448 83.1577 75.5145C83.1577 74.1269 84.2772 73.7304 85.5599 73.6138C86.6851 73.503 87.0816 73.4506 87.0816 73.0541V73.0133C87.0816 72.5585 86.7026 72.2437 86.0729 72.2437C85.4316 72.2437 85.0118 72.5702 84.971 73.0424H83.3559C83.4317 71.7714 84.4346 70.9668 86.1254 70.9668C87.8104 70.9668 88.7783 71.7597 88.7783 73.0774V77.252H87.0991V76.3833H87.0758C86.7493 76.9838 86.2187 77.357 85.2742 77.357ZM85.7523 76.1617C86.5802 76.1617 87.0933 75.6661 87.0933 75.0015V74.3834C86.895 74.4942 86.4111 74.5758 85.8572 74.6633C85.2683 74.7508 84.8019 74.9781 84.8019 75.4679C84.8019 75.9052 85.175 76.1617 85.7523 76.1617Z" fill="black"/>
<path d="M82.4057 71.0952V72.442H81.1464V75.3514C81.1464 75.7712 81.2805 75.9053 81.7469 75.9053H82.4057V77.2521H81.4029C80.0502 77.2521 79.4264 76.739 79.4264 75.6196V72.442H78.3652V71.0952H79.4264V69.416H81.1464V71.0952H82.4057Z" fill="black"/>
<path d="M78.4995 71.0952V72.442H77.2401V75.3514C77.2401 75.7712 77.3742 75.9053 77.8406 75.9053H78.4995V77.2521H77.4966C76.144 77.2521 75.5201 76.739 75.5201 75.6196V72.442H74.459V71.0952H75.5201V69.416H77.2401V71.0952H78.4995Z" fill="black"/>
<path d="M66.3486 77.2518L69.398 68.5645H71.7068L74.7561 77.2518H72.7679L72.1616 75.3569H68.914L68.2843 77.2518H66.3486ZM69.398 73.9226H71.6951L71.4036 73.0247C71.1354 72.1385 70.8672 71.2523 70.5582 70.1737C70.2434 71.2523 69.9752 72.1385 69.6953 73.0247L69.398 73.9226Z" fill="black"/>
<path d="M87.315 65.9118H85.6009V62.5535H85.5834C85.2277 63.2473 84.6038 63.6029 83.7934 63.6029C82.1842 63.6029 81.1289 62.3202 81.1289 60.3904C81.1289 58.5013 82.2075 57.1895 83.7818 57.1895C84.5805 57.1895 85.2277 57.5101 85.6067 58.1515H85.6242V57.3177H87.315V65.9118ZM84.2365 62.2036C85.1053 62.2036 85.6825 61.4923 85.6825 60.3904C85.6825 59.2942 85.1053 58.5771 84.2365 58.5771C83.4028 58.5771 82.8605 59.2359 82.8605 60.3904C82.8605 61.5448 83.4028 62.2036 84.2365 62.2036Z" fill="black"/>
<path d="M77.5023 63.6145C75.6366 63.6145 74.4238 62.2735 74.4238 60.402C74.4238 58.5246 75.6774 57.1777 77.444 57.1777C79.2573 57.1777 80.4758 58.4896 80.4758 60.367V60.8276H76.0972C76.1263 61.7371 76.6511 62.326 77.5548 62.326C78.2253 62.326 78.6859 62.017 78.8433 61.5389H80.4117C80.1843 62.7633 78.9949 63.6145 77.5023 63.6145ZM76.1088 59.7315H78.855C78.7675 58.9618 78.2544 58.4838 77.479 58.4838C76.7094 58.4838 76.2021 58.9618 76.1088 59.7315Z" fill="black"/>
<path d="M70.232 63.6157C68.0048 63.6157 66.7046 62.5137 66.7046 60.6246H68.4362C68.4596 61.5808 69.1301 62.1406 70.2437 62.1406C71.2407 62.1406 71.8995 61.7033 71.8995 61.0269C71.8995 60.4672 71.4447 60.1407 70.3428 59.9017L69.4274 59.7034C67.7074 59.3303 66.8737 58.5315 66.8737 57.2896C66.8737 55.7096 68.1972 54.6484 70.1737 54.6484C72.1735 54.6484 73.4154 55.7037 73.4679 57.4529H71.7887C71.7246 56.6308 71.1124 56.1235 70.1795 56.1235C69.2933 56.1235 68.6694 56.5667 68.6694 57.2022C68.6694 57.7386 69.1009 58.0359 70.1679 58.2691L71.0016 58.4499C72.8557 58.8405 73.6778 59.6043 73.6778 60.9103C73.6778 62.5837 72.3718 63.6157 70.232 63.6157Z" fill="black"/>
<path d="M20.3706 68.0664H30.4743V80.9257H20.3706V68.0664Z" fill="url(#paint0_linear_221_12271)"/>
<path d="M32.311 63.4746H42.4147V80.9265H32.311V63.4746Z" fill="url(#paint1_linear_221_12271)"/>
<path d="M44.252 57.0449H54.3557V80.9264H44.252V57.0449Z" fill="url(#paint2_linear_221_12271)"/>
<path d="M47.6576 53.7908L45.6644 51.9842L37.5305 61.4753L32.0122 57.7967L26.1136 64.5385L24.7305 63.3294L31.6911 55.3749L37.1951 59.0444L44.3028 50.7518L42.2577 48.8986L49.1636 46.6875L47.6576 53.7908Z" fill="#397AFF"/>
<defs>
<linearGradient id="paint0_linear_221_12271" x1="22.9731" y1="68.0664" x2="29.7936" y2="77.8912" gradientUnits="userSpaceOnUse">
<stop stop-color="#A2C6FF"/>
<stop offset="1" stop-color="#226AFE"/>
</linearGradient>
<linearGradient id="paint1_linear_221_12271" x1="34.9135" y1="63.4746" x2="44.7758" y2="73.9424" gradientUnits="userSpaceOnUse">
<stop stop-color="#A2C6FF"/>
<stop offset="1" stop-color="#226AFE"/>
</linearGradient>
<linearGradient id="paint2_linear_221_12271" x1="46.8544" y1="57.0449" x2="59.9492" y2="67.2018" gradientUnits="userSpaceOnUse">
<stop stop-color="#A2C6FF"/>
<stop offset="1" stop-color="#226AFE"/>
</linearGradient>
</defs>
</svg>
