<svg width="128" height="128" viewBox="0 0 128 128" fill="none" xmlns="http://www.w3.org/2000/svg">
<path d="M101.469 70.1875C98.9692 70.1875 97.3442 68.3906 97.3442 65.8828C97.3442 63.3672 99.0239 61.5625 101.391 61.5625C103.821 61.5625 105.454 63.3203 105.454 65.8359V66.4531H99.5864C99.6255 67.6719 100.329 68.4609 101.54 68.4609C102.438 68.4609 103.055 68.0469 103.266 67.4062H105.368C105.063 69.0469 103.469 70.1875 101.469 70.1875ZM99.6021 64.9844H103.282C103.165 63.9531 102.477 63.3125 101.438 63.3125C100.407 63.3125 99.7271 63.9531 99.6021 64.9844Z" fill="#6A6A6A"/>
<path d="M92.0396 73.375C89.6958 73.375 88.4224 72.3047 88.188 70.7031H90.4067C90.5708 71.3281 91.1802 71.6797 92.0396 71.6797C93.1646 71.6797 93.7974 71.0547 93.7974 69.8672V68.6016H93.7896C93.2974 69.5703 92.4302 70.0078 91.3521 70.0078C89.1958 70.0078 87.7817 68.2734 87.7817 65.8125C87.7817 63.3359 89.2271 61.5781 91.3364 61.5781C92.4067 61.5781 93.2661 62.0312 93.7896 62.9453H93.7974V61.75H96.0708V69.6797C96.0708 72.2969 94.4302 73.375 92.0396 73.375ZM91.9458 68.1641C93.1099 68.1641 93.8833 67.2266 93.8833 65.7812C93.8833 64.3438 93.1099 63.4062 91.9458 63.4062C90.8286 63.4062 90.1021 64.2656 90.1021 65.7812C90.1021 67.2969 90.8286 68.1641 91.9458 68.1641Z" fill="#6A6A6A"/>
<path d="M81.8208 70.1406C80.1724 70.1406 78.9849 69.3203 78.9849 67.6719C78.9849 65.8125 80.4849 65.2812 82.2036 65.125C83.7114 64.9766 84.2427 64.9062 84.2427 64.375V64.3203C84.2427 63.7109 83.7349 63.2891 82.8911 63.2891C82.0317 63.2891 81.4692 63.7266 81.4146 64.3594H79.2505C79.3521 62.6562 80.6958 61.5781 82.9614 61.5781C85.2192 61.5781 86.5161 62.6406 86.5161 64.4062V70H84.2661V68.8359H84.2349C83.7974 69.6406 83.0864 70.1406 81.8208 70.1406ZM82.4614 68.5391C83.5708 68.5391 84.2583 67.875 84.2583 66.9844V66.1562C83.9927 66.3047 83.3442 66.4141 82.6021 66.5312C81.813 66.6484 81.188 66.9531 81.188 67.6094C81.188 68.1953 81.688 68.5391 82.4614 68.5391Z" fill="#6A6A6A"/>
<path d="M73.4536 70V61.75H75.6724V63.1562H75.6958C76.0005 62.1641 76.6255 61.6953 77.7114 61.6953C77.9771 61.6953 78.2036 61.7031 78.3911 61.7109V63.6719C78.2192 63.6641 77.7896 63.6328 77.3989 63.6328C76.4536 63.6328 75.7583 64.2891 75.7583 65.5312V70H73.4536Z" fill="#6A6A6A"/>
<path d="M67.9849 70.1875C65.4849 70.1875 63.7974 68.4688 63.7974 65.8828C63.7974 63.2969 65.4849 61.5625 67.9849 61.5625C70.4927 61.5625 72.1802 63.2969 72.1802 65.8828C72.1802 68.4688 70.4927 70.1875 67.9849 70.1875ZM67.9849 68.3203C69.1099 68.3203 69.8599 67.4141 69.8599 65.8828C69.8599 64.3438 69.1021 63.4297 67.9849 63.4297C66.8755 63.4297 66.1177 64.3438 66.1177 65.8828C66.1177 67.4141 66.8677 68.3203 67.9849 68.3203Z" fill="#6A6A6A"/>
<path d="M63.1177 61.75V63.5547H61.4302V67.4531C61.4302 68.0156 61.6099 68.1953 62.2349 68.1953H63.1177V70H61.7739C59.9614 70 59.1255 69.3125 59.1255 67.8125V63.5547H57.7036V61.75H59.1255V59.5H61.4302V61.75H63.1177Z" fill="#6A6A6A"/>
<path d="M52.3989 70.1875C49.4146 70.1875 47.6724 68.7109 47.6724 66.1797H49.9927C50.0239 67.4609 50.9224 68.2109 52.4146 68.2109C53.7505 68.2109 54.6333 67.625 54.6333 66.7188C54.6333 65.9688 54.0239 65.5312 52.5474 65.2109L51.3208 64.9453C49.0161 64.4453 47.8989 63.375 47.8989 61.7109C47.8989 59.5938 49.6724 58.1719 52.3208 58.1719C55.0005 58.1719 56.6646 59.5859 56.7349 61.9297H54.4849C54.3989 60.8281 53.5786 60.1484 52.3286 60.1484C51.1411 60.1484 50.3052 60.7422 50.3052 61.5938C50.3052 62.3125 50.8833 62.7109 52.313 63.0234L53.4302 63.2656C55.9146 63.7891 57.0161 64.8125 57.0161 66.5625C57.0161 68.8047 55.2661 70.1875 52.3989 70.1875Z" fill="#6A6A6A"/>
<path d="M28.4075 64.4764C28.3883 63.8216 28.915 63.2954 29.6026 63.284C30.193 63.2746 30.7321 63.8013 30.747 64.4016C30.7636 65.0632 30.2332 65.6084 29.5679 65.6141C28.9584 65.619 28.4258 65.097 28.4075 64.4764Z" fill="#6A6A6A"/>
<path fill-rule="evenodd" clip-rule="evenodd" d="M21.1928 57.6436C21.1928 57.1339 21.3279 57 21.8351 57L41.0595 57C41.5678 57 41.7031 57.1335 41.7031 57.6409C41.7038 62.1702 41.7038 66.6998 41.7031 71.229C41.7031 71.7573 41.5714 71.89 41.0462 71.89L21.8204 71.89C21.3356 71.8894 21.1929 71.7485 21.1928 71.2624C21.1922 66.7226 21.1922 62.1834 21.1928 57.6436ZM39.3744 58.6117C39.3679 58.9944 39.6598 59.3025 40.042 59.3168C40.4403 59.3314 40.7604 59.0318 40.7684 58.6384C40.7756 58.2564 40.4841 57.9478 40.1008 57.9334C39.7016 57.9185 39.3818 58.2169 39.3744 58.6117ZM39.3744 70.2689C39.3762 70.652 39.6745 70.951 40.0594 70.9566C40.4575 70.9625 40.7686 70.6572 40.7671 70.2623C40.7652 69.8786 40.4676 69.5788 40.0821 69.5732C39.6844 69.5672 39.3726 69.8731 39.3744 70.2689ZM24.6192 60.9725C22.7056 63.6674 23.356 67.46 26.0694 69.377C28.958 71.4175 32.3672 70.3908 33.8783 68.6706C33.8044 68.6023 33.731 68.532 33.6553 68.4649C32.9966 67.8857 32.3349 67.3104 31.683 66.7237C31.549 66.6027 31.42 66.4529 31.3492 66.2897C31.1679 65.8708 31.4318 65.4689 31.8873 65.4805C32.0835 65.4855 32.2926 65.5597 32.4695 65.6528C33.3174 66.1003 34.1563 66.5655 35.0173 67.0348C36.1738 64.975 35.8376 61.4546 33.0931 59.509C30.3429 57.5591 26.5804 58.2112 24.6192 60.9725ZM22.1289 58.6251C22.1289 59.0075 22.427 59.3093 22.8112 59.3168C23.209 59.3248 23.5228 59.0197 23.523 58.6251C23.523 58.242 23.2249 57.9408 22.8406 57.9334C22.4423 57.9261 22.1284 58.2305 22.1289 58.6251ZM22.1289 70.2609C22.1264 70.6562 22.4383 70.9619 22.8366 70.9566C23.2213 70.951 23.5195 70.6524 23.5216 70.2689C23.5235 69.8735 23.2125 69.5663 22.8139 69.5719C22.4286 69.5776 22.1314 69.8768 22.1289 70.2609Z" fill="#6A6A6A"/>
</svg>
