<svg width="128" height="128" viewBox="0 0 128 128" fill="none" xmlns="http://www.w3.org/2000/svg">
<path d="M2 42.0897C2 39.831 3.83103 38 6.08971 38H121.91C124.169 38 126 39.831 126 42.0897V86.2586C126 88.5173 124.169 90.3483 121.91 90.3483H6.08971C3.83103 90.3483 2 88.5173 2 86.2586V42.0897Z" fill="white"/>
<path d="M121.91 88.7124V90.3483H6.08971V88.7124H121.91ZM124.364 86.2586V42.0897C124.364 40.7345 123.266 39.6359 121.91 39.6359H6.08971C4.7345 39.6359 3.63588 40.7345 3.63588 42.0897V86.2586C3.63588 87.6138 4.7345 88.7124 6.08971 88.7124V90.3483C3.90149 90.3483 2.11494 88.6297 2.00559 86.4687L2 86.2586V42.0897C2 39.831 3.83103 38 6.08971 38H121.91L122.12 38.0056C124.281 38.1149 126 39.9015 126 42.0897V86.2586C126 88.4468 124.281 90.2333 122.12 90.3427L121.91 90.3483V88.7124C123.266 88.7124 124.364 87.6138 124.364 86.2586Z" fill="#BFD4E8"/>
<path d="M98.099 76.989V75.7792H98.7947C99.1582 75.7792 99.2983 75.6183 99.4437 75.1977L99.5943 74.7979L97.4863 69.3359H99.0907L100.01 72.0462C100.134 72.4408 100.259 72.8354 100.373 73.2299C100.493 72.8354 100.612 72.4356 100.742 72.0462L101.666 69.3359H103.255L100.84 75.665C100.493 76.5788 99.9629 76.989 99.1114 76.989H98.099Z" fill="black"/>
<path d="M96.9355 69.3176V70.5169H95.814V73.1077C95.814 73.4816 95.9334 73.601 96.3488 73.601H96.9355V74.8003H96.0424C94.8379 74.8003 94.2823 74.3434 94.2823 73.3466V70.5169H93.3374V69.3176H94.2823V67.8223H95.814V69.3176H96.9355Z" fill="black"/>
<path d="M91.0807 74.7919V69.3091H92.6124V74.7919H91.0807ZM91.8439 68.6186C91.3403 68.6186 90.9717 68.2707 90.9717 67.8034C90.9717 67.3361 91.3403 66.9883 91.8439 66.9883C92.3476 66.9883 92.7162 67.3361 92.7162 67.8034C92.7162 68.2707 92.3476 68.6186 91.8439 68.6186Z" fill="black"/>
<path d="M86.7464 74.8187L84.7163 69.3359H86.3206L87.2241 72.0462C87.3642 72.4771 87.494 72.9132 87.6186 73.3442C87.7433 72.9132 87.8731 72.4771 88.0029 72.0462L88.8959 69.3359H90.4846L88.4494 74.8187H86.7464Z" fill="black"/>
<path d="M82.5783 74.7919V69.3091H84.1099V74.7919H82.5783ZM83.3415 68.6186C82.8379 68.6186 82.4692 68.2707 82.4692 67.8034C82.4692 67.3361 82.8379 66.9883 83.3415 66.9883C83.8451 66.9883 84.2138 67.3361 84.2138 67.8034C84.2138 68.2707 83.8451 68.6186 83.3415 68.6186Z" fill="black"/>
<path d="M81.8036 69.3176V70.5169H80.6822V73.1077C80.6822 73.4816 80.8016 73.601 81.2169 73.601H81.8036V74.8003H80.9106C79.7061 74.8003 79.1505 74.3434 79.1505 73.3466V70.5169H78.2056V69.3176H79.1505V67.8223H80.6822V69.3176H81.8036Z" fill="black"/>
<path d="M75.2586 74.9371C73.6075 74.9371 72.5068 73.7741 72.5068 72.0763C72.5068 70.3785 73.6127 69.2051 75.2586 69.2051C76.702 69.2051 77.7352 70.1033 77.8338 71.3805H76.3541C76.2762 70.8198 75.892 70.4408 75.2794 70.4408C74.5058 70.4408 74.0489 71.0742 74.0489 72.0763C74.0489 73.0731 74.511 73.7014 75.2794 73.7014C75.8972 73.7014 76.2451 73.3275 76.3437 72.7512H77.8338C77.7663 74.0181 76.7176 74.9371 75.2586 74.9371Z" fill="black"/>
<path d="M64.8965 74.822L67.6119 67.0859H69.6679L72.3834 74.822H70.6129L70.0729 73.1346H67.181L66.6202 74.822H64.8965ZM67.6119 71.8574H69.6576L69.398 71.0578C69.1591 70.2686 68.9203 69.4795 68.6451 68.5189C68.3648 69.4795 68.1259 70.2686 67.8767 71.0578L67.6119 71.8574Z" fill="black"/>
<path d="M99.6645 54.8164V62.5525H98.1328V54.8164H99.6645Z" fill="black"/>
<path d="M97.0429 54.8164V62.5525H95.5112V54.8164H97.0429Z" fill="black"/>
<path d="M91.3124 62.6377C90.2169 62.6377 89.4277 62.0926 89.4277 60.997C89.4277 59.7613 90.4246 59.4083 91.5668 59.3044C92.5689 59.2058 92.922 59.1591 92.922 58.806V58.7697C92.922 58.3647 92.5845 58.0843 92.0237 58.0843C91.4526 58.0843 91.0788 58.3751 91.0425 58.7956H89.6043C89.6718 57.6638 90.5648 56.9473 92.0705 56.9473C93.571 56.9473 94.4328 57.6534 94.4328 58.8268V62.5443H92.9375V61.7706H92.9168C92.626 62.3054 92.1535 62.6377 91.3124 62.6377ZM91.7382 61.5734C92.4754 61.5734 92.9323 61.132 92.9323 60.5401V59.9898C92.7558 60.0884 92.3249 60.1611 91.8316 60.239C91.3072 60.3169 90.8919 60.5194 90.8919 60.9555C90.8919 61.3449 91.2242 61.5734 91.7382 61.5734Z" fill="black"/>
<path d="M86.1575 62.6675C84.5065 62.6675 83.4058 61.5045 83.4058 59.8067C83.4058 58.1089 84.5117 56.9355 86.1575 56.9355C87.6009 56.9355 88.6341 57.8338 88.7328 59.111H87.253C87.1752 58.5503 86.791 58.1712 86.1783 58.1712C85.4047 58.1712 84.9478 58.8047 84.9478 59.8067C84.9478 60.8036 85.4099 61.4318 86.1783 61.4318C86.7961 61.4318 87.144 61.058 87.2427 60.4817H88.7328C88.6653 61.7485 87.6165 62.6675 86.1575 62.6675Z" fill="black"/>
<path d="M80.3875 62.6792C78.9649 62.6792 77.9421 61.9991 77.8486 60.8205H79.3543C79.4114 61.2982 79.7645 61.5837 80.3616 61.5837C80.9275 61.5837 81.2754 61.3449 81.2754 61.0074C81.2754 60.7167 81.0106 60.5453 80.5641 60.4571L79.6035 60.2702C78.5392 60.0625 77.9732 59.5225 77.9732 58.671C77.9732 57.6326 78.8715 56.9473 80.2993 56.9473C81.7167 56.9473 82.6512 57.6586 82.6824 58.8008H81.265C81.2546 58.3595 80.8808 58.0324 80.3408 58.0324C79.8164 58.0324 79.4997 58.2868 79.4997 58.6139C79.4997 58.8943 79.7437 59.076 80.1643 59.1643L81.2027 59.3667C82.3086 59.5848 82.8174 60.0625 82.8174 60.8672C82.8174 61.9628 81.8205 62.6792 80.3875 62.6792Z" fill="black"/>
<path d="M72.4608 64.7194V63.5097H73.1565C73.52 63.5097 73.6602 63.3487 73.8055 62.9282L73.9561 62.5284L71.8481 57.0664H73.4525L74.3715 59.7766C74.4961 60.1712 74.6207 60.5658 74.7349 60.9604C74.8543 60.5658 74.9737 60.166 75.1035 59.7766L76.0277 57.0664H77.6165L75.2022 63.3955C74.8543 64.3093 74.3247 64.7194 73.4732 64.7194H72.4608Z" fill="black"/>
<path d="M68.358 62.6709C66.3746 62.6709 65.2168 61.6896 65.2168 60.0074H66.7588C66.7796 60.8589 67.3767 61.3573 68.3683 61.3573C69.2562 61.3573 69.8429 60.9679 69.8429 60.3656C69.8429 59.8672 69.4379 59.5764 68.4566 59.3636L67.6415 59.187C66.1098 58.8547 65.3674 58.1434 65.3674 57.0375C65.3674 55.6305 66.546 54.6855 68.306 54.6855C70.0869 54.6855 71.1928 55.6253 71.2395 57.1829H69.7442C69.6871 56.4508 69.142 55.9991 68.3112 55.9991C67.5221 55.9991 66.9665 56.3937 66.9665 56.9596C66.9665 57.4373 67.3507 57.7021 68.3009 57.9098L69.0433 58.0707C70.6944 58.4186 71.4264 59.0988 71.4264 60.2618C71.4264 61.7519 70.2634 62.6709 68.358 62.6709Z" fill="black"/>
<path d="M37.8585 79.1271H36.2227V69.3118H37.8585V79.1271ZM37.8585 59.2665H36.2227V49.4512H37.8585V59.2665Z" fill="#93BEFF"/>
<path d="M30.5416 53.5989C30.8626 53.3397 31.3412 53.5682 31.3412 53.9807V61.8239H43.1239V67.3681H31.3412V75.2105C31.3412 75.6231 30.8626 75.8515 30.5416 75.5923L17.7142 65.2322C17.3088 64.9048 17.3088 64.2864 17.7142 63.959L30.5416 53.5989ZM43.1303 53.9799C43.1305 53.5675 43.6089 53.3389 43.9298 53.5981L56.7573 63.959C57.1624 64.2863 57.1622 64.904 56.7573 65.2314L43.9298 75.5923C43.6089 75.8515 43.1303 75.6231 43.1303 75.2105V53.9799Z" fill="url(#paint0_linear_222_12674)"/>
<path d="M40.9053 61.8066H43.1229V67.3507H40.9053V61.8066Z" fill="#5A8CE5"/>
<path d="M31.3486 61.8066H33.5662V67.3507H31.3486V61.8066Z" fill="#2069FF"/>
<defs>
<linearGradient id="paint0_linear_222_12674" x1="56.0939" y1="56.3634" x2="46.4517" y2="81.4829" gradientUnits="userSpaceOnUse">
<stop stop-color="#A3C6FF"/>
<stop offset="0.99" stop-color="#1F68FF"/>
</linearGradient>
</defs>
</svg>
