<svg width="128" height="128" viewBox="0 0 128 128" fill="none" xmlns="http://www.w3.org/2000/svg">
<path d="M118.735 70.2031C116.594 70.2031 115.055 69.1797 114.915 67.4062H117.18C117.266 68.125 117.797 68.5547 118.696 68.5547C119.547 68.5547 120.071 68.1953 120.071 67.6875C120.071 67.25 119.672 66.9922 119 66.8594L117.555 66.5781C115.954 66.2656 115.102 65.4531 115.102 64.1719C115.102 62.6094 116.454 61.5781 118.602 61.5781C120.735 61.5781 122.141 62.6484 122.188 64.3672H120.055C120.04 63.7031 119.477 63.2109 118.665 63.2109C117.875 63.2109 117.399 63.5938 117.399 64.0859C117.399 64.5078 117.766 64.7812 118.399 64.9141L119.961 65.2188C121.625 65.5469 122.391 66.2656 122.391 67.4766C122.391 69.125 120.891 70.2031 118.735 70.2031Z" fill="#6A6A6A"/>
<path d="M113.672 58.3594V70H111.368V58.3594H113.672Z" fill="#6A6A6A"/>
<path d="M109.735 58.3594V70H107.43V58.3594H109.735Z" fill="#6A6A6A"/>
<path d="M101.11 70.1406C99.4614 70.1406 98.2739 69.3203 98.2739 67.6719C98.2739 65.8125 99.7739 65.2812 101.493 65.125C103 64.9766 103.532 64.9062 103.532 64.375V64.3203C103.532 63.7109 103.024 63.2891 102.18 63.2891C101.321 63.2891 100.758 63.7266 100.704 64.3594H98.5396C98.6411 62.6562 99.9849 61.5781 102.25 61.5781C104.508 61.5781 105.805 62.6406 105.805 64.4062V70H103.555V68.8359H103.524C103.086 69.6406 102.375 70.1406 101.11 70.1406ZM101.75 68.5391C102.86 68.5391 103.547 67.875 103.547 66.9844V66.1562C103.282 66.3047 102.633 66.4141 101.891 66.5312C101.102 66.6484 100.477 66.9531 100.477 67.6094C100.477 68.1953 100.977 68.5391 101.75 68.5391Z" fill="#6A6A6A"/>
<path d="M92.1724 70.1875C88.9771 70.1875 86.6411 67.8828 86.6411 64.1875C86.6411 60.4688 88.9692 58.1719 92.1724 58.1719C94.8989 58.1719 96.9302 59.8594 97.2974 62.4609H94.8677C94.5942 61.0859 93.5864 60.2969 92.2036 60.2969C90.2271 60.2969 89.063 61.8047 89.063 64.1875C89.063 66.5547 90.2192 68.0625 92.2036 68.0625C93.5786 68.0625 94.5786 67.2812 94.8755 65.9141H97.2974C96.9302 68.5078 94.8989 70.1875 92.1724 70.1875Z" fill="#6A6A6A"/>
<path d="M69.3833 70V61.75H71.6021V63.2344C72.0942 62.1172 73.0552 61.5781 74.1021 61.5781C75.2114 61.5781 76.1411 62.1797 76.4849 63.1875C76.9146 62.1797 77.9302 61.5781 79.1255 61.5781C80.7114 61.5781 81.8911 62.6406 81.8911 64.5312V70H79.5942V64.9531C79.5942 63.9609 78.9849 63.4766 78.1958 63.4766C77.3052 63.4766 76.7505 64.1094 76.7505 65.0312V70H74.5317V64.8906C74.5317 64.0312 73.9692 63.4766 73.1646 63.4766C72.3442 63.4766 71.688 64.0703 71.688 65.1328V70H69.3833Z" fill="#6A6A6A"/>
<path d="M64.1646 70.1875C61.6646 70.1875 60.0396 68.3906 60.0396 65.8828C60.0396 63.3672 61.7192 61.5625 64.0864 61.5625C66.5161 61.5625 68.1489 63.3203 68.1489 65.8359V66.4531H62.2817C62.3208 67.6719 63.0239 68.4609 64.2349 68.4609C65.1333 68.4609 65.7505 68.0469 65.9614 67.4062H68.063C67.7583 69.0469 66.1646 70.1875 64.1646 70.1875ZM62.2974 64.9844H65.9771C65.8599 63.9531 65.1724 63.3125 64.1333 63.3125C63.1021 63.3125 62.4224 63.9531 62.2974 64.9844Z" fill="#6A6A6A"/>
<path d="M59.3599 61.75V63.5547H57.6724V67.4531C57.6724 68.0156 57.8521 68.1953 58.4771 68.1953H59.3599V70H58.0161C56.2036 70 55.3677 69.3125 55.3677 67.8125V63.5547H53.9458V61.75H55.3677V59.5H57.6724V61.75H59.3599Z" fill="#6A6A6A"/>
<path d="M49.563 70.2031C47.4224 70.2031 45.8833 69.1797 45.7427 67.4062H48.0083C48.0942 68.125 48.6255 68.5547 49.5239 68.5547C50.3755 68.5547 50.8989 68.1953 50.8989 67.6875C50.8989 67.25 50.5005 66.9922 49.8286 66.8594L48.3833 66.5781C46.7817 66.2656 45.9302 65.4531 45.9302 64.1719C45.9302 62.6094 47.2817 61.5781 49.4302 61.5781C51.563 61.5781 52.9692 62.6484 53.0161 64.3672H50.8833C50.8677 63.7031 50.3052 63.2109 49.4927 63.2109C48.7036 63.2109 48.2271 63.5938 48.2271 64.0859C48.2271 64.5078 48.5942 64.7812 49.2271 64.9141L50.7896 65.2188C52.4536 65.5469 53.2192 66.2656 53.2192 67.4766C53.2192 69.125 51.7192 70.2031 49.563 70.2031Z" fill="#6A6A6A"/>
<path d="M37.6333 73.2656V71.4453H38.6802C39.2271 71.4453 39.438 71.2031 39.6567 70.5703L39.8833 69.9688L36.7114 61.75H39.1255L40.5083 65.8281C40.6958 66.4219 40.8833 67.0156 41.0552 67.6094C41.2349 67.0156 41.4146 66.4141 41.6099 65.8281L43.0005 61.75H45.3911L41.7583 71.2734C41.2349 72.6484 40.438 73.2656 39.1567 73.2656H37.6333Z" fill="#6A6A6A"/>
<path d="M31.4536 70.1875C28.4692 70.1875 26.7271 68.7109 26.7271 66.1797H29.0474C29.0786 67.4609 29.9771 68.2109 31.4692 68.2109C32.8052 68.2109 33.688 67.625 33.688 66.7188C33.688 65.9688 33.0786 65.5312 31.6021 65.2109L30.3755 64.9453C28.0708 64.4453 26.9536 63.375 26.9536 61.7109C26.9536 59.5938 28.7271 58.1719 31.3755 58.1719C34.0552 58.1719 35.7192 59.5859 35.7896 61.9297H33.5396C33.4536 60.8281 32.6333 60.1484 31.3833 60.1484C30.1958 60.1484 29.3599 60.7422 29.3599 61.5938C29.3599 62.3125 29.938 62.7109 31.3677 63.0234L32.4849 63.2656C34.9692 63.7891 36.0708 64.8125 36.0708 66.5625C36.0708 68.8047 34.3208 70.1875 31.4536 70.1875Z" fill="#6A6A6A"/>
<path d="M10.9004 60.3016L12.9845 58.2176C14.246 56.9562 16.1947 56.8011 17.6256 57.7515L20.2862 55.0909L21.3282 56.1329L18.6669 58.7942C19.6116 60.2244 19.4537 62.1685 18.1946 63.4277L16.1105 65.5117L10.9004 60.3016ZM11.4218 70.2032C10.1612 71.4632 8.21465 71.6195 6.78417 70.6714L4.127 73.3286L3.08498 72.2865L5.74215 69.6294C4.79506 68.199 4.95138 66.2527 6.21103 64.9924L7.7744 63.4291L12.9852 68.6398L11.4218 70.2032ZM8.82125 64.4718L10.3839 62.9091L11.4259 63.9511L9.86326 65.5138L8.82125 64.4718ZM10.9032 66.5551L12.4666 64.9917L13.5086 66.0338L11.9452 67.5971L10.9032 66.5551Z" fill="#6A6A6A"/>
</svg>
