<svg width="128" height="128" viewBox="0 0 128 128" fill="none" xmlns="http://www.w3.org/2000/svg">
<path d="M91.1172 71V59.3594H95.7109C98.3281 59.3594 99.9688 60.8359 99.9688 63.1797C99.9688 65.5234 98.2969 67 95.6797 67H93.5234V71H91.1172ZM93.5234 64.9844H95.5547C96.8281 64.9844 97.6172 64.2891 97.6172 63.1797C97.6172 62.0703 96.8281 61.375 95.5547 61.375H93.5234V64.9844Z" fill="#6A6A6A"/>
<path d="M89.3828 59.3594V71H86.9766V59.3594H89.3828Z" fill="#6A6A6A"/>
<path d="M86.0703 58.8125L82.3203 72.75H80.3125L84.0625 58.8125H86.0703Z" fill="#6A6A6A"/>
<path d="M71.0391 71V59.3594H75.6328C78.25 59.3594 79.8906 60.8359 79.8906 63.1797C79.8906 65.5234 78.2188 67 75.6016 67H73.4453V71H71.0391ZM73.4453 64.9844H75.4766C76.75 64.9844 77.5391 64.2891 77.5391 63.1797C77.5391 62.0703 76.75 61.375 75.4766 61.375H73.4453V64.9844Z" fill="#6A6A6A"/>
<path d="M64.5703 71.1875C61.375 71.1875 59.0391 68.8828 59.0391 65.1875C59.0391 61.4688 61.3672 59.1719 64.5703 59.1719C67.2969 59.1719 69.3281 60.8594 69.6953 63.4609H67.2656C66.9922 62.0859 65.9844 61.2969 64.6016 61.2969C62.625 61.2969 61.4609 62.8047 61.4609 65.1875C61.4609 67.5547 62.6172 69.0625 64.6016 69.0625C65.9766 69.0625 66.9766 68.2812 67.2734 66.9141H69.6953C69.3281 69.5078 67.2969 71.1875 64.5703 71.1875Z" fill="#6A6A6A"/>
<path d="M49.3516 61.4219V59.3594H58.8125V61.4219H55.2891V71H52.8828V61.4219H49.3516Z" fill="#6A6A6A"/>
<path d="M40.1006 56C41.6132 56 42.8398 57.2265 42.8398 58.7393C42.8397 60.2519 41.6131 61.4785 40.1006 61.4785C39.4133 61.4784 38.7865 61.223 38.3057 60.8047L32.583 64.3262C32.6374 64.5416 32.6699 64.7667 32.6699 64.999C32.6699 65.2305 32.6371 65.4543 32.583 65.6689L38.3076 69.1924C38.7882 68.7752 39.4143 68.5216 40.1006 68.5215C41.613 68.5215 42.8396 69.7472 42.8398 71.2598C42.8398 72.7725 41.6132 73.999 40.1006 73.999C38.5882 73.9988 37.3623 72.7723 37.3623 71.2598C37.3623 71.0266 37.3944 70.801 37.4492 70.585L31.7256 67.0635C31.2446 67.482 30.6182 67.7373 29.9307 67.7373C28.4182 67.7373 27.1916 66.5116 27.1914 64.999C27.1914 63.4863 28.4181 62.2598 29.9307 62.2598C30.6179 62.2598 31.2447 62.5144 31.7256 62.9326L37.4482 59.4111C37.3939 59.1959 37.3623 58.9713 37.3623 58.7393C37.3623 57.2267 38.5882 56.0002 40.1006 56Z" fill="#6A6A6A"/>
</svg>
