<svg width="128" height="128" viewBox="0 0 128 128" fill="none" xmlns="http://www.w3.org/2000/svg">
<path d="M3 33.1C3 29.7311 5.73106 27 9.1 27H118.9C122.269 27 125 29.7311 125 33.1V94.1C125 97.4689 122.269 100.2 118.9 100.2H9.1C5.73106 100.2 3 97.4689 3 94.1V33.1Z" fill="#D0EEEB"/>
<path d="M118.9 97.15V100.2H9.1V97.15H118.9ZM121.95 94.1V33.1C121.95 31.4155 120.584 30.05 118.9 30.05H9.1C7.41553 30.05 6.05 31.4155 6.05 33.1V94.1C6.05 95.7845 7.41553 97.15 9.1 97.15V100.2C5.83645 100.2 3.17097 97.6372 3.00745 94.4142L3 94.1V33.1C3 29.7311 5.73106 27 9.1 27H118.9L119.214 27.0074C122.437 27.171 125 29.8364 125 33.1V94.1C125 97.3636 122.437 100.029 119.214 100.193L118.9 100.2V97.15C120.584 97.15 121.95 95.7845 121.95 94.1Z" fill="#55CAB9"/>
<path d="M73.6019 54.998V72.75H70.4565V54.998H73.6019Z" fill="black"/>
<path d="M60.3912 73.0359C58.9377 73.0359 57.6708 72.7659 56.5906 72.2258C55.5184 71.6777 54.6844 70.9232 54.0887 69.9621C53.5009 68.9931 53.207 67.8772 53.207 66.6143V54.998H56.3166V66.3641C56.3166 67.4919 56.682 68.4212 57.4127 69.152C58.1514 69.8827 59.1442 70.248 60.3912 70.248C61.6382 70.248 62.6271 69.8827 63.3578 69.152C64.0885 68.4212 64.4539 67.4919 64.4539 66.3641V54.998H67.5635V66.6143C67.5635 67.8772 67.2656 68.9931 66.6699 69.9621C66.0822 70.9232 65.2482 71.6777 64.168 72.2258C63.0957 72.7659 61.8368 73.0359 60.3912 73.0359Z" fill="black"/>
</svg>
