<svg width="128" height="128" viewBox="0 0 128 128" fill="none" xmlns="http://www.w3.org/2000/svg">
<path d="M84.8828 71.1875C81.8984 71.1875 80.1562 69.7109 80.1562 67.1797H82.4766C82.5078 68.4609 83.4062 69.2109 84.8984 69.2109C86.2344 69.2109 87.1172 68.625 87.1172 67.7188C87.1172 66.9688 86.5078 66.5312 85.0312 66.2109L83.8047 65.9453C81.5 65.4453 80.3828 64.375 80.3828 62.7109C80.3828 60.5938 82.1562 59.1719 84.8047 59.1719C87.4844 59.1719 89.1484 60.5859 89.2188 62.9297H86.9688C86.8828 61.8281 86.0625 61.1484 84.8125 61.1484C83.625 61.1484 82.7891 61.7422 82.7891 62.5938C82.7891 63.3125 83.3672 63.7109 84.7969 64.0234L85.9141 64.2656C88.3984 64.7891 89.5 65.8125 89.5 67.5625C89.5 69.8047 87.75 71.1875 84.8828 71.1875Z" fill="#6A6A6A"/>
<path d="M71.1641 71V59.3594H79.2578V61.4219H73.5703V64.2812H78.8672V66.2812H73.5703V71H71.1641Z" fill="#6A6A6A"/>
<path d="M63.1562 71L59.0703 59.3594H61.6875L63.5703 65.0234C63.9219 66.1328 64.2891 67.3828 64.7109 68.8125C65.1172 67.3828 65.4766 66.1328 65.8125 65.0234L67.6328 59.3594H70.2188L66.2188 71H63.1562Z" fill="#6A6A6A"/>
<path d="M51.4541 72H40.6357V67.8799H51.4541V72ZM37.0303 59.1191H39.6064V60.1484H37.0303V64.2705H39.6064V65.3008H37.0303V69.4209H39.6064V70.4512H36V55H37.0303V59.1191ZM51.4541 66.8428H40.6357V62.7227H51.4541V66.8428ZM51.4541 61.6934H40.6357V57.5732H51.4541V61.6934Z" fill="#6A6A6A"/>
</svg>
