<svg width="128" height="128" viewBox="0 0 128 128" fill="none" xmlns="http://www.w3.org/2000/svg">
<path d="M32.1214 48.033C29.1151 35.4249 35.5588 23.19 47.5064 18.631C60.4665 13.6756 75.9804 20.3704 80.3775 33.8523C82.7099 32.2675 85.4884 31.471 88.3062 31.5795C95.5742 31.7893 101.686 37.9868 101.579 45.0614C101.567 45.8312 101.521 46.6108 101.28 47.3393C101.052 48.033 101.445 48.0974 101.94 48.1932C105.008 48.8077 107.801 50.0631 110.188 52.0717C116.41 57.3062 118.86 64.0026 116.855 71.8684C114.861 79.6781 109.535 84.3709 101.668 86.1532C100.346 86.4522 99.0034 86.5116 97.6555 86.5116C74.7052 86.5116 51.7554 86.5116 28.8062 86.5116C19.4487 86.5116 11.6868 80.4528 9.52127 71.5166C7.00556 61.1351 13.8606 50.3868 24.376 48.2263C25.6393 47.9632 26.9222 47.8057 28.2116 47.7555C29.4884 47.6878 30.7653 47.8563 32.1214 48.033Z" fill="#E4EBF0"/>
<path d="M47.5069 18.6311C60.4669 13.6758 75.981 20.3697 80.3782 33.8514C82.7103 32.2669 85.4885 31.4712 88.3059 31.5796C95.5738 31.7894 101.687 37.9864 101.579 45.0611L101.561 45.6392C101.532 46.2173 101.46 46.7923 101.279 47.3385C101.052 48.0322 101.445 48.097 101.94 48.1927C105.008 48.8072 107.801 50.0625 110.188 52.0711C116.41 57.3056 118.86 64.0022 116.855 71.8679L116.658 72.5908C114.526 79.9681 109.289 84.426 101.668 86.1526C100.346 86.4515 99.0034 86.5112 97.6556 86.5112V84.1942C98.9505 84.1942 100.089 84.1347 101.156 83.8932L101.815 83.7349C108.55 82.0232 112.908 77.9602 114.609 71.2954L114.767 70.6347C115.495 67.3529 115.331 64.3954 114.416 61.7364C113.437 58.8909 111.548 56.2424 108.697 53.844H108.696C106.642 52.1162 104.222 51.0143 101.5 50.4668C101.418 50.451 101.174 50.4077 100.941 50.339C100.71 50.2709 100.25 50.115 99.8166 49.7371C99.3088 49.2946 98.9952 48.6897 98.916 48.0264C98.8475 47.4526 98.9681 46.9529 99.0789 46.6156L99.0801 46.6111C99.2028 46.2402 99.2512 45.7623 99.2622 45.026L99.2554 44.4886C99.0328 38.9597 94.1138 34.0651 88.2391 33.8956L88.2289 33.8944H88.2176C85.8945 33.805 83.6034 34.4615 81.6805 35.768L79.1303 37.5013L78.1743 34.5699C74.2151 22.4319 60.1401 16.2812 48.334 20.7954H48.3328C37.4846 24.9349 31.6357 36.0052 34.3749 47.4947L35.1556 50.7644L31.8225 50.3299C30.4225 50.1474 29.3615 50.0141 28.3344 50.0686L28.3186 50.0697L28.3016 50.0708C27.1409 50.116 25.9859 50.2571 24.8486 50.494L24.843 50.4951C15.6012 52.3939 9.56903 61.8748 11.7732 70.9707C13.6822 78.8481 20.4983 84.1941 28.8062 84.1942V86.5112C19.5951 86.5112 11.93 80.6405 9.62697 71.9335L9.52175 71.516C7.00616 61.1346 13.8605 50.3863 24.3757 48.2255C25.4809 47.9954 26.6016 47.846 27.728 47.7787L28.2123 47.7549C29.4888 47.6873 30.7654 47.8554 32.1212 48.0321C29.1622 35.6212 35.3599 23.5715 46.9503 18.8494L47.5069 18.6311ZM97.6556 84.1942V86.5112H28.8062V84.1942H97.6556Z" fill="#4B5C6B"/>
<path d="M58.0337 110.753L53.3821 97.8182C53.3209 97.6346 53.2393 97.4101 53.2393 97.1857C53.2393 96.6348 53.7085 96.084 54.4022 96.084C54.9938 96.084 55.3815 96.4716 55.5651 97.0225L59.4211 108.183L63.2974 97.0021C63.481 96.4716 63.8279 96.084 64.4195 96.084H64.5419C65.1744 96.084 65.5416 96.4716 65.7253 97.0021L69.5812 108.183L73.4984 96.9817C73.6412 96.5124 73.9676 96.084 74.6001 96.084C75.253 96.084 75.7222 96.594 75.7222 97.1449C75.7222 97.3489 75.6406 97.5938 75.5794 97.7774L70.9074 110.753C70.6625 111.427 70.1933 111.794 69.6628 111.794H69.5812C68.9896 111.794 68.5407 111.447 68.3367 110.753L64.5215 99.7564L60.6656 110.753C60.4615 111.427 60.0127 111.794 59.4211 111.794H59.3598C58.7478 111.773 58.2581 111.427 58.0337 110.753Z" fill="#6A6667"/>
<path d="M91.9017 97.2274C91.9017 96.5949 92.4118 96.0645 93.0239 96.0645C93.6767 96.0645 94.1868 96.5745 94.1868 97.2274V99.8593C95.3089 97.309 97.8183 96.1053 99.4709 96.1053C100.165 96.1053 100.593 96.6153 100.593 97.2682C100.593 97.9007 100.185 98.3291 99.5729 98.4311C96.6146 98.778 94.1664 101.022 94.1664 105.429V110.632C94.1664 111.264 93.6971 111.795 93.0443 111.795C92.3914 111.795 91.8813 111.285 91.8813 110.632L91.9017 97.2274Z" fill="#6A6667"/>
<path d="M107.958 111.937C103.837 111.937 100.471 108.733 100.471 104.041V103.98C100.471 99.6136 103.531 96.084 107.673 96.084C112.12 96.084 114.65 99.7564 114.65 103.776C114.65 104.388 114.16 104.837 113.61 104.837H102.756C103.082 108.121 105.367 109.978 108.04 109.978C109.896 109.978 111.263 109.244 112.365 108.223C112.549 108.081 112.753 107.958 112.998 107.958C113.548 107.958 113.977 108.407 113.977 108.937C113.977 109.203 113.854 109.468 113.63 109.672C112.202 111.039 110.529 111.937 107.958 111.937ZM112.406 103.164C112.181 100.409 110.61 98.0018 107.611 98.0018C105 98.0018 103.021 100.205 102.735 103.164H112.406Z" fill="#6A6667"/>
<path d="M75.7842 107.205V107.143C75.7842 103.92 78.4364 102.206 82.3128 102.206C84.2714 102.206 85.6587 102.471 87.0257 102.859V102.328C87.0257 99.5741 85.3323 98.1663 82.476 98.1663C80.9459 98.1663 80.0482 98.3703 78.9261 98.86C78.7833 98.9212 78.6405 98.9416 78.518 98.9416C77.9876 98.9416 77.5183 98.4928 77.5183 97.9623C77.5183 97.493 77.7224 97.2074 78.1508 97.0238C79.6606 96.3709 80.7827 96.1465 82.7412 96.1465C84.9039 96.1465 86.5564 96.6973 87.6785 97.8399C88.719 98.8804 89.2495 100.349 89.2495 102.308V110.755C89.2495 111.407 88.7802 111.877 88.1478 111.877C87.4949 111.877 87.0665 111.407 87.0665 110.816V109.367C86.0056 110.755 84.2306 111.999 81.5375 111.999C78.6609 111.979 75.7842 110.347 75.7842 107.205ZM87.0461 106.021V104.552C85.9239 104.226 84.4142 103.899 82.5576 103.899C79.7014 103.899 78.0896 105.144 78.0896 107.062V107.123C78.0896 109.041 79.8646 110.163 81.9252 110.163C84.7406 110.163 87.0461 108.449 87.0461 106.021Z" fill="#6A6667"/>
<path d="M16.6586 97.087C16.1486 95.9853 14.9245 95.4956 13.7616 96.0057C12.5987 96.5157 12.1702 97.8011 12.7007 98.9028L17.5563 109.451C18.3112 111.103 19.1273 111.96 20.637 111.96C22.2488 111.96 22.9628 111.022 23.7177 109.451C23.7177 109.451 27.9409 100.229 28.0021 100.127C28.0429 100.025 28.1858 99.7393 28.6142 99.7393C28.9814 99.7393 29.2875 100.025 29.2875 100.413V109.43C29.2875 110.818 30.0627 111.96 31.5317 111.96C33.021 111.96 33.8167 110.818 33.8167 109.43V102.045C33.8167 100.617 34.8368 99.6985 36.2241 99.6985C37.6115 99.6985 38.5295 100.657 38.5295 102.045V109.43C38.5295 110.818 39.3048 111.96 40.7738 111.96C42.2631 111.96 43.0588 110.818 43.0588 109.43V102.045C43.0588 100.617 44.0789 99.6985 45.4662 99.6985C46.8535 99.6985 47.7716 100.657 47.7716 102.045V109.43C47.7716 110.818 48.5469 111.96 50.0158 111.96C51.5052 111.96 52.3009 110.818 52.3009 109.43V101.025C52.3009 97.9439 49.8118 95.7812 46.8331 95.7812C43.8545 95.7812 41.9775 97.8419 41.9775 97.8419C40.9778 96.5565 39.6108 95.7812 37.3054 95.7812C34.8572 95.7812 32.715 97.8419 32.715 97.8419C31.7153 96.5565 30.0219 95.7812 28.6346 95.7812C26.472 95.7812 24.7582 96.7402 23.6973 99.1272L20.5962 106.431L16.6586 97.087Z" fill="#6A6667"/>
<path d="M114.833 98.0233C114.833 96.9828 115.669 96.1055 116.73 96.1055C117.791 96.1055 118.627 96.9624 118.627 98.0029C118.627 99.0434 117.791 99.9003 116.73 99.9003C115.649 99.9003 114.833 99.0434 114.833 98.0233ZM118.24 98.0029C118.24 97.146 117.587 96.4523 116.71 96.4523C115.853 96.4523 115.179 97.1664 115.179 98.0029C115.179 98.8394 115.832 99.5535 116.71 99.5535C117.587 99.5535 118.24 98.8394 118.24 98.0029Z" fill="#6A6667"/>
<path d="M116.016 97.2294C116.016 97.107 116.098 97.0254 116.22 97.0254H116.853C117.097 97.0254 117.281 97.0866 117.383 97.209C117.485 97.311 117.546 97.4538 117.546 97.6171C117.546 97.9027 117.403 98.0863 117.179 98.1679L117.465 98.5148C117.505 98.5556 117.526 98.6168 117.526 98.678C117.526 98.78 117.424 98.8616 117.342 98.8616C117.261 98.8616 117.199 98.8208 117.138 98.7596L116.751 98.2699H116.424V98.678C116.424 98.8004 116.343 98.882 116.22 98.882C116.098 98.882 116.016 98.8004 116.016 98.678V97.2294ZM116.832 97.9231C117.036 97.9231 117.138 97.8211 117.138 97.6579C117.138 97.4946 117.016 97.3926 116.832 97.3926H116.424V97.9231H116.832Z" fill="#6A6667"/>
<path d="M58.8167 43.6484C60.0964 43.6484 61.1338 44.6858 61.1338 45.9655V73.7701C61.1338 75.0498 60.0964 76.0872 58.8167 76.0872H48.3898C47.1101 76.0872 46.0728 75.0498 46.0728 73.7701V45.9655C46.0728 44.6858 47.1101 43.6484 48.3898 43.6484H58.8167ZM78.5119 43.6484C79.7916 43.6484 80.829 44.6858 80.829 45.9655V73.7701C80.829 75.0498 79.7916 76.0872 78.5119 76.0872H68.085C66.8053 76.0872 65.7679 75.0498 65.7679 73.7701V45.9655C65.7679 44.6858 66.8053 43.6484 68.085 43.6484H78.5119ZM51.8655 56.3922C50.5858 56.3922 49.5484 57.4296 49.5484 58.7093V59.8678C49.5484 61.1475 50.5858 62.1849 51.8655 62.1849H55.3411C56.6208 62.1849 57.6582 61.1475 57.6582 59.8678V58.7093C57.6582 57.4296 56.6208 56.3922 55.3411 56.3922H51.8655ZM71.5606 56.3922C70.2809 56.3922 69.2436 57.4296 69.2436 58.7093V59.8678C69.2436 61.1475 70.2809 62.1849 71.5606 62.1849H75.0363C76.3159 62.1849 77.3533 61.1475 77.3533 59.8678V58.7093C77.3533 57.4296 76.3159 56.3922 75.0363 56.3922H71.5606ZM51.8655 47.124C50.5858 47.124 49.5484 48.1614 49.5484 49.4411V50.5996C49.5484 51.8793 50.5858 52.9167 51.8655 52.9167H55.3411C56.6208 52.9167 57.6582 51.8793 57.6582 50.5996V49.4411C57.6582 48.1614 56.6208 47.124 55.3411 47.124H51.8655ZM71.5606 47.124C70.2809 47.124 69.2436 48.1614 69.2436 49.4411V50.5996C69.2436 51.8793 70.2809 52.9167 71.5606 52.9167H75.0363C76.3159 52.9167 77.3533 51.8793 77.3533 50.5996V49.4411C77.3533 48.1614 76.3159 47.124 75.0363 47.124H71.5606Z" fill="#4B5C6B"/>
</svg>
